G75*
%MOIN*%
%OFA0B0*%
%FSLAX24Y24*%
%IPPOS*%
%LPD*%
%AMOC8*
5,1,8,0,0,1.08239X$1,22.5*
%
%ADD10C,0.0000*%
D10*
X001675Y003364D02*
X003446Y003364D01*
X003473Y003366D01*
X003499Y003371D01*
X003524Y003380D01*
X003548Y003393D01*
X003570Y003408D01*
X003590Y003427D01*
X003607Y003447D01*
X003621Y003470D01*
X003632Y003495D01*
X003639Y003521D01*
X003643Y003548D01*
X003643Y003574D01*
X003639Y003601D01*
X003632Y003627D01*
X003621Y003652D01*
X003607Y003675D01*
X003590Y003695D01*
X003570Y003714D01*
X003548Y003729D01*
X003524Y003742D01*
X003499Y003751D01*
X003473Y003756D01*
X003446Y003758D01*
X003331Y003758D01*
X017817Y003758D01*
X017790Y003756D01*
X017764Y003751D01*
X017739Y003742D01*
X017715Y003729D01*
X017693Y003714D01*
X017673Y003695D01*
X017656Y003675D01*
X017642Y003652D01*
X017631Y003627D01*
X017624Y003601D01*
X017620Y003574D01*
X017620Y003548D01*
X017624Y003521D01*
X017631Y003495D01*
X017642Y003470D01*
X017656Y003447D01*
X017673Y003427D01*
X017693Y003408D01*
X017715Y003393D01*
X017739Y003380D01*
X017764Y003371D01*
X017790Y003366D01*
X017817Y003364D01*
X018604Y003364D01*
X018604Y004152D01*
X018602Y004179D01*
X018597Y004205D01*
X018588Y004230D01*
X018575Y004254D01*
X018560Y004276D01*
X018541Y004296D01*
X018521Y004313D01*
X018498Y004327D01*
X018473Y004338D01*
X018447Y004345D01*
X018420Y004349D01*
X018394Y004349D01*
X018367Y004345D01*
X018341Y004338D01*
X018316Y004327D01*
X018293Y004313D01*
X018273Y004296D01*
X018254Y004276D01*
X018239Y004254D01*
X018226Y004230D01*
X018217Y004205D01*
X018212Y004179D01*
X018210Y004152D01*
X018210Y012813D01*
X018210Y012852D02*
X018212Y012825D01*
X018217Y012799D01*
X018226Y012774D01*
X018239Y012750D01*
X018254Y012728D01*
X018273Y012708D01*
X018293Y012691D01*
X018316Y012677D01*
X018341Y012666D01*
X018367Y012659D01*
X018394Y012655D01*
X018420Y012655D01*
X018447Y012659D01*
X018473Y012666D01*
X018498Y012677D01*
X018521Y012691D01*
X018541Y012708D01*
X018560Y012728D01*
X018575Y012750D01*
X018588Y012774D01*
X018597Y012799D01*
X018602Y012825D01*
X018604Y012852D01*
X018604Y014388D01*
X018602Y014415D01*
X018597Y014441D01*
X018588Y014466D01*
X018575Y014490D01*
X018560Y014512D01*
X018541Y014532D01*
X018521Y014549D01*
X018498Y014563D01*
X018473Y014574D01*
X018447Y014581D01*
X018420Y014585D01*
X018394Y014585D01*
X018367Y014581D01*
X018341Y014574D01*
X018316Y014563D01*
X018293Y014549D01*
X018273Y014532D01*
X018254Y014512D01*
X018239Y014490D01*
X018226Y014466D01*
X018217Y014441D01*
X018212Y014415D01*
X018210Y014388D01*
X018210Y023049D01*
X018212Y023022D01*
X018217Y022996D01*
X018226Y022971D01*
X018239Y022947D01*
X018254Y022925D01*
X018273Y022905D01*
X018293Y022888D01*
X018316Y022874D01*
X018341Y022863D01*
X018367Y022856D01*
X018394Y022852D01*
X018420Y022852D01*
X018447Y022856D01*
X018473Y022863D01*
X018498Y022874D01*
X018521Y022888D01*
X018541Y022905D01*
X018560Y022925D01*
X018575Y022947D01*
X018588Y022971D01*
X018597Y022996D01*
X018602Y023022D01*
X018604Y023049D01*
X018604Y023837D01*
X017817Y023837D01*
X017790Y023835D01*
X017764Y023830D01*
X017739Y023821D01*
X017715Y023808D01*
X017693Y023793D01*
X017673Y023774D01*
X017656Y023754D01*
X017642Y023731D01*
X017631Y023706D01*
X017624Y023680D01*
X017620Y023653D01*
X017620Y023627D01*
X017624Y023600D01*
X017631Y023574D01*
X017642Y023549D01*
X017656Y023526D01*
X017673Y023506D01*
X017693Y023487D01*
X017715Y023472D01*
X017739Y023459D01*
X017764Y023450D01*
X017790Y023445D01*
X017817Y023443D01*
X002069Y023443D01*
X002096Y023445D01*
X002122Y023450D01*
X002147Y023459D01*
X002171Y023472D01*
X002193Y023487D01*
X002213Y023506D01*
X002230Y023526D01*
X002244Y023549D01*
X002255Y023574D01*
X002262Y023600D01*
X002266Y023627D01*
X002266Y023653D01*
X002262Y023680D01*
X002255Y023706D01*
X002244Y023731D01*
X002230Y023754D01*
X002213Y023774D01*
X002193Y023793D01*
X002171Y023808D01*
X002147Y023821D01*
X002122Y023830D01*
X002096Y023835D01*
X002069Y023837D01*
X001281Y023837D01*
X001281Y023049D01*
X001283Y023022D01*
X001288Y022996D01*
X001297Y022971D01*
X001310Y022947D01*
X001325Y022925D01*
X001344Y022905D01*
X001364Y022888D01*
X001387Y022874D01*
X001412Y022863D01*
X001438Y022856D01*
X001465Y022852D01*
X001491Y022852D01*
X001518Y022856D01*
X001544Y022863D01*
X001569Y022874D01*
X001592Y022888D01*
X001612Y022905D01*
X001631Y022925D01*
X001646Y022947D01*
X001659Y022971D01*
X001668Y022996D01*
X001673Y023022D01*
X001675Y023049D01*
X001675Y015650D01*
X001675Y015766D01*
X001673Y015793D01*
X001668Y015819D01*
X001659Y015844D01*
X001646Y015868D01*
X001631Y015890D01*
X001612Y015910D01*
X001592Y015927D01*
X001569Y015941D01*
X001544Y015952D01*
X001518Y015959D01*
X001491Y015963D01*
X001465Y015963D01*
X001438Y015959D01*
X001412Y015952D01*
X001387Y015941D01*
X001364Y015927D01*
X001344Y015910D01*
X001325Y015890D01*
X001310Y015868D01*
X001297Y015844D01*
X001288Y015819D01*
X001283Y015793D01*
X001281Y015766D01*
X001281Y012813D01*
X001283Y012786D01*
X001288Y012760D01*
X001297Y012735D01*
X001310Y012711D01*
X001325Y012689D01*
X001344Y012669D01*
X001364Y012652D01*
X001387Y012638D01*
X001412Y012627D01*
X001438Y012620D01*
X001465Y012616D01*
X001491Y012616D01*
X001518Y012620D01*
X001544Y012627D01*
X001569Y012638D01*
X001592Y012652D01*
X001612Y012669D01*
X001631Y012689D01*
X001646Y012711D01*
X001659Y012735D01*
X001668Y012760D01*
X001673Y012786D01*
X001675Y012813D01*
X001675Y005414D01*
X001675Y005529D01*
X001673Y005556D01*
X001668Y005582D01*
X001659Y005607D01*
X001646Y005631D01*
X001631Y005653D01*
X001612Y005673D01*
X001592Y005690D01*
X001569Y005704D01*
X001544Y005715D01*
X001518Y005722D01*
X001491Y005726D01*
X001465Y005726D01*
X001438Y005722D01*
X001412Y005715D01*
X001387Y005704D01*
X001364Y005690D01*
X001344Y005673D01*
X001325Y005653D01*
X001310Y005631D01*
X001297Y005607D01*
X001288Y005582D01*
X001283Y005556D01*
X001281Y005529D01*
X001281Y003758D01*
X001283Y003719D01*
X001289Y003681D01*
X001298Y003644D01*
X001311Y003607D01*
X001328Y003572D01*
X001347Y003539D01*
X001370Y003508D01*
X001396Y003479D01*
X001425Y003453D01*
X001456Y003430D01*
X001489Y003411D01*
X001524Y003394D01*
X001561Y003381D01*
X001598Y003372D01*
X001636Y003366D01*
X001675Y003364D01*
X001675Y003758D02*
X001675Y023443D01*
X018210Y023443D01*
X018210Y003758D01*
X019785Y003758D01*
X019785Y023443D01*
X018210Y023443D01*
X017817Y023443D02*
X017856Y023441D01*
X017894Y023435D01*
X017931Y023426D01*
X017968Y023413D01*
X018003Y023396D01*
X018036Y023377D01*
X018067Y023354D01*
X018096Y023328D01*
X018122Y023299D01*
X018145Y023268D01*
X018164Y023235D01*
X018181Y023200D01*
X018194Y023163D01*
X018203Y023126D01*
X018209Y023088D01*
X018211Y023049D01*
X018209Y023088D01*
X018203Y023126D01*
X018194Y023163D01*
X018181Y023200D01*
X018164Y023235D01*
X018145Y023268D01*
X018122Y023299D01*
X018096Y023328D01*
X018067Y023354D01*
X018036Y023377D01*
X018003Y023396D01*
X017968Y023413D01*
X017931Y023426D01*
X017894Y023435D01*
X017856Y023441D01*
X017817Y023443D01*
X018211Y014388D02*
X018209Y014349D01*
X018203Y014311D01*
X018194Y014274D01*
X018181Y014237D01*
X018164Y014202D01*
X018145Y014169D01*
X018122Y014138D01*
X018096Y014109D01*
X018067Y014083D01*
X018036Y014060D01*
X018003Y014041D01*
X017968Y014024D01*
X017931Y014011D01*
X017894Y014002D01*
X017856Y013996D01*
X017817Y013994D01*
X003331Y013994D01*
X017817Y013994D01*
X017856Y013996D01*
X017894Y014002D01*
X017931Y014011D01*
X017968Y014024D01*
X018003Y014041D01*
X018036Y014060D01*
X018067Y014083D01*
X018096Y014109D01*
X018122Y014138D01*
X018145Y014169D01*
X018164Y014202D01*
X018181Y014237D01*
X018194Y014274D01*
X018203Y014311D01*
X018209Y014349D01*
X018211Y014388D01*
X017817Y013207D02*
X002069Y013207D01*
X017817Y013207D01*
X017856Y013205D01*
X017894Y013199D01*
X017931Y013190D01*
X017968Y013177D01*
X018003Y013160D01*
X018036Y013141D01*
X018067Y013118D01*
X018096Y013092D01*
X018122Y013063D01*
X018145Y013032D01*
X018164Y012999D01*
X018181Y012964D01*
X018194Y012927D01*
X018203Y012890D01*
X018209Y012852D01*
X018211Y012813D01*
X018209Y012852D01*
X018203Y012890D01*
X018194Y012927D01*
X018181Y012964D01*
X018164Y012999D01*
X018145Y013032D01*
X018122Y013063D01*
X018096Y013092D01*
X018067Y013118D01*
X018036Y013141D01*
X018003Y013160D01*
X017968Y013177D01*
X017931Y013190D01*
X017894Y013199D01*
X017856Y013205D01*
X017817Y013207D01*
X018211Y004152D02*
X018209Y004113D01*
X018203Y004075D01*
X018194Y004038D01*
X018181Y004001D01*
X018164Y003966D01*
X018145Y003933D01*
X018122Y003902D01*
X018096Y003873D01*
X018067Y003847D01*
X018036Y003824D01*
X018003Y003805D01*
X017968Y003788D01*
X017931Y003775D01*
X017894Y003766D01*
X017856Y003760D01*
X017817Y003758D01*
X018210Y003758D02*
X001675Y003758D01*
X000100Y003758D01*
X000100Y023443D01*
X001675Y023443D01*
X002069Y023443D02*
X002030Y023441D01*
X001992Y023435D01*
X001955Y023426D01*
X001918Y023413D01*
X001883Y023396D01*
X001850Y023377D01*
X001819Y023354D01*
X001790Y023328D01*
X001764Y023299D01*
X001741Y023268D01*
X001722Y023235D01*
X001705Y023200D01*
X001692Y023163D01*
X001683Y023126D01*
X001677Y023088D01*
X001675Y023049D01*
X001677Y023088D01*
X001683Y023126D01*
X001692Y023163D01*
X001705Y023200D01*
X001722Y023235D01*
X001741Y023268D01*
X001764Y023299D01*
X001790Y023328D01*
X001819Y023354D01*
X001850Y023377D01*
X001883Y023396D01*
X001918Y023413D01*
X001955Y023426D01*
X001992Y023435D01*
X002030Y023441D01*
X002069Y023443D01*
X001675Y015650D02*
X001677Y015624D01*
X001682Y015599D01*
X001690Y015575D01*
X001701Y015551D01*
X001716Y015530D01*
X001733Y015511D01*
X001732Y015511D02*
X003192Y014052D01*
X001732Y015511D01*
X001733Y015511D02*
X001716Y015530D01*
X001701Y015551D01*
X001690Y015575D01*
X001682Y015599D01*
X001677Y015624D01*
X001675Y015650D01*
X003192Y014052D02*
X003211Y014035D01*
X003232Y014020D01*
X003256Y014009D01*
X003280Y014001D01*
X003305Y013996D01*
X003331Y013994D01*
X003305Y013996D01*
X003280Y014001D01*
X003256Y014009D01*
X003232Y014020D01*
X003211Y014035D01*
X003192Y014052D01*
X002069Y013207D02*
X002030Y013205D01*
X001992Y013199D01*
X001955Y013190D01*
X001918Y013177D01*
X001883Y013160D01*
X001850Y013141D01*
X001819Y013118D01*
X001790Y013092D01*
X001764Y013063D01*
X001741Y013032D01*
X001722Y012999D01*
X001705Y012964D01*
X001692Y012927D01*
X001683Y012890D01*
X001677Y012852D01*
X001675Y012813D01*
X001677Y012852D01*
X001683Y012890D01*
X001692Y012927D01*
X001705Y012964D01*
X001722Y012999D01*
X001741Y013032D01*
X001764Y013063D01*
X001790Y013092D01*
X001819Y013118D01*
X001850Y013141D01*
X001883Y013160D01*
X001918Y013177D01*
X001955Y013190D01*
X001992Y013199D01*
X002030Y013205D01*
X002069Y013207D01*
X001675Y005414D02*
X001677Y005388D01*
X001682Y005363D01*
X001690Y005339D01*
X001701Y005315D01*
X001716Y005294D01*
X001733Y005275D01*
X001732Y005275D02*
X003192Y003815D01*
X001732Y005275D01*
X001733Y005275D02*
X001716Y005294D01*
X001701Y005315D01*
X001690Y005339D01*
X001682Y005363D01*
X001677Y005388D01*
X001675Y005414D01*
X003192Y003816D02*
X003211Y003799D01*
X003232Y003784D01*
X003256Y003773D01*
X003280Y003765D01*
X003305Y003760D01*
X003331Y003758D01*
X003305Y003760D01*
X003280Y003765D01*
X003256Y003773D01*
X003232Y003784D01*
X003211Y003799D01*
X003192Y003816D01*
X017817Y003758D02*
X017856Y003760D01*
X017894Y003766D01*
X017931Y003775D01*
X017968Y003788D01*
X018003Y003805D01*
X018036Y003824D01*
X018067Y003847D01*
X018096Y003873D01*
X018122Y003902D01*
X018145Y003933D01*
X018164Y003966D01*
X018181Y004001D01*
X018194Y004038D01*
X018203Y004075D01*
X018209Y004113D01*
X018211Y004152D01*
M02*
