G75*
%MOIN*%
%OFA0B0*%
%FSLAX24Y24*%
%IPPOS*%
%LPD*%
%AMOC8*
5,1,8,0,0,1.08239X$1,22.5*
%
%ADD10R,0.1379X0.0730*%
%ADD11R,0.0276X0.0157*%
%ADD12R,0.0157X0.0157*%
%ADD13R,0.0157X0.0276*%
D10*
X002817Y005766D03*
X002817Y006750D03*
X002817Y007734D03*
X002817Y008718D03*
X002817Y009703D03*
X002817Y010687D03*
X002817Y011671D03*
D11*
X015494Y009250D03*
X015494Y008994D03*
X015494Y008738D03*
X015494Y008482D03*
X015494Y008226D03*
X015494Y007970D03*
X015494Y007715D03*
X016754Y007715D03*
X016754Y007970D03*
X016754Y008226D03*
X016754Y008482D03*
X016754Y008738D03*
X016754Y008994D03*
X016754Y009250D03*
D12*
X016193Y009250D03*
X016193Y007715D03*
X015937Y007715D03*
D13*
X015937Y008089D03*
X016193Y008089D03*
X016193Y008482D03*
X015937Y008482D03*
X015937Y008876D03*
X016193Y008876D03*
X016183Y009624D03*
X016419Y009624D03*
X016655Y009624D03*
X015946Y009624D03*
X015710Y009624D03*
X015474Y009624D03*
X015474Y007341D03*
X015710Y007341D03*
X015946Y007341D03*
X016183Y007341D03*
X016419Y007341D03*
X016655Y007341D03*
X017954Y007341D03*
X017954Y009624D03*
M02*
