%
M48
M72
T01C0.0118
T02C0.0197
T03C0.0315
T04C0.0394
T05C0.0472
T06C0.1260
T07C0.1654
%
T01
X26267Y11444
X24063Y11917
X27960Y11759
X28551Y13492
X28551Y14515
X27409Y15657
X27055Y16011
X26700Y15657
X26307Y13925
X26543Y13649
X27606Y13689
X28787Y15106
X28551Y16090
X28551Y17389
X28472Y24279
X28275Y24476
X28078Y24279
X27881Y24476
X27685Y24279
X27488Y24476
X27291Y24279
X27094Y24476
X26307Y24082
X25913Y24122
X25559Y24122
X25204Y24122
X25322Y23767
X25322Y23452
X24968Y23452
X24732Y23689
X24771Y24161
X23944Y23295
X24496Y23019
X25519Y22783
X25756Y23374
X25716Y23767
X26307Y23452
X26819Y23019
X26464Y22193
X25598Y20854
X25047Y21405
X22685Y17350
X22055Y17153
X21819Y16917
X25322Y17704
X25322Y17153
X25322Y16602
X25322Y15342
X24574Y13885
X24338Y13885
X22803Y13689
X22330Y13689
X22015Y14830
X24063Y15342
X24299Y14830
X25322Y14279
X24535Y15657
X26700Y16366
X27409Y16366
X26819Y17704
X27370Y18177
X26189Y19358
X26070Y19830
X25834Y20342
X23039Y23295
X23748Y24279
X23944Y24476
X23551Y24476
X23354Y24279
X23157Y24476
X22960Y24279
X22763Y24476
X22567Y24279
X22370Y24476
X28669Y24476
X23669Y13374
X23787Y13059
X24850Y11917
X25480Y11917
X10913Y11444
X8708Y11917
X12606Y11759
X13196Y13492
X12252Y13689
X10952Y13925
X11189Y13649
X9968Y14279
X9220Y13885
X8984Y13885
X7448Y13689
X6976Y13689
X6661Y14830
X7330Y17350
X6700Y17153
X6464Y16917
X9968Y17704
X9968Y17153
X9968Y16602
X9968Y15342
X11346Y15657
X11700Y16011
X12055Y15657
X12055Y16366
X11346Y16366
X13196Y17389
X13118Y24279
X13315Y24476
X12921Y24476
X12724Y24279
X12527Y24476
X12330Y24279
X12133Y24476
X11937Y24279
X11740Y24476
X10952Y24082
X10559Y24122
X10204Y24122
X9850Y24122
X9968Y23767
X9968Y23452
X9614Y23452
X9378Y23689
X9417Y24161
X8590Y23295
X9141Y23019
X10165Y22783
X10401Y23374
X10362Y23767
X10952Y23452
X11464Y23019
X11110Y22193
X10244Y20854
X9693Y21405
X9496Y11917
X10126Y11917
X8433Y13059
X8315Y13374
X8944Y14830
X8708Y15342
X9181Y15657
X11464Y17704
X12015Y18177
X10834Y19358
X10716Y19830
X10480Y20342
X7685Y23295
X7606Y24279
X7803Y24476
X8000Y24279
X8196Y24476
X8393Y24279
X8590Y24476
X7409Y24476
X7212Y24279
X7015Y24476
X13196Y16090
X13196Y14515
X13433Y15106
T02
X10795Y9752
X10480Y9279
X10165Y9752
X9850Y9279
X9535Y9752
X26149Y9752
X25834Y9279
X25519Y9752
X25204Y9279
X24889Y9752
T03
X8708Y7547
X11622Y7547
X11622Y9437
X8708Y9437
X24063Y7547
X26976Y7547
X26976Y9437
X24063Y9437
T04
X15086Y9511
X15086Y22511
X15086Y10511
X15086Y11511
X15086Y12511
X15086Y13511
X15086Y14511
X15086Y15511
X15086Y16511
X15086Y17511
X15086Y21511
X15086Y20511
X15086Y19511
X15086Y18511
X30441Y9511
X30441Y22511
X30441Y21511
X30441Y20511
X30441Y19511
X30441Y18511
X30441Y17511
X30441Y16511
X30441Y15511
X30441Y14511
X30441Y13511
X30441Y12511
X30441Y11511
X30441Y10511
T05
X7645Y9801
X6622Y21198
X8590Y21198
X6622Y18698
X8590Y18698
X7645Y12301
X21976Y21198
X23944Y21198
X23944Y18698
X21976Y18698
X23000Y9801
X23000Y12301
T06
X30047Y24279
X20992Y7744
X5637Y7744
X14693Y7744
X30047Y7744
X20992Y24279
X14693Y24279
X5637Y24279
T07
X2094Y4200
X33590Y4200
X33590Y27822
X2094Y27822
M30
