G75*
%MOIN*%
%OFA0B0*%
%FSLAX25Y25*%
%IPPOS*%
%LPD*%
%AMOC8*
5,1,8,0,0,1.08239X$1,22.5*
%
%ADD10C,0.16929*%
%ADD11OC8,0.06299*%
%ADD12R,0.09055X0.02756*%
%ADD13R,0.09055X0.02559*%
%ADD14R,0.03150X0.03150*%
%ADD15OC8,0.07874*%
%ADD16C,0.04331*%
D10*
X0058658Y0068776D03*
X0058658Y0304996D03*
X0373619Y0304996D03*
X0373619Y0068776D03*
D11*
X0346847Y0121886D03*
X0346847Y0131886D03*
X0346847Y0141886D03*
X0346847Y0151886D03*
X0346847Y0161886D03*
X0346847Y0171886D03*
X0346847Y0181886D03*
X0346847Y0191886D03*
X0346847Y0201886D03*
X0346847Y0211886D03*
X0346847Y0221886D03*
X0346847Y0231886D03*
X0346847Y0241886D03*
X0346847Y0251886D03*
X0246847Y0251886D03*
X0246847Y0241886D03*
X0246847Y0231886D03*
X0246847Y0221886D03*
X0246847Y0211886D03*
X0246847Y0201886D03*
X0246847Y0191886D03*
X0246847Y0181886D03*
X0246847Y0171886D03*
X0246847Y0161886D03*
X0246847Y0151886D03*
X0246847Y0141886D03*
X0246847Y0131886D03*
X0246847Y0121886D03*
X0185430Y0121886D03*
X0185430Y0131886D03*
X0185430Y0141886D03*
X0185430Y0151886D03*
X0185430Y0161886D03*
X0185430Y0171886D03*
X0185430Y0181886D03*
X0185430Y0191886D03*
X0185430Y0201886D03*
X0185430Y0211886D03*
X0185430Y0221886D03*
X0185430Y0231886D03*
X0185430Y0241886D03*
X0185430Y0251886D03*
X0085430Y0251886D03*
X0085430Y0241886D03*
X0085430Y0231886D03*
X0085430Y0221886D03*
X0085430Y0211886D03*
X0085430Y0201886D03*
X0085430Y0191886D03*
X0085430Y0181886D03*
X0085430Y0171886D03*
X0085430Y0161886D03*
X0085430Y0151886D03*
X0085430Y0141886D03*
X0085430Y0131886D03*
X0085430Y0121886D03*
D12*
X0103934Y0126256D03*
X0103934Y0141217D03*
X0125981Y0141217D03*
X0140548Y0141217D03*
X0140548Y0126256D03*
X0125981Y0126256D03*
X0162595Y0126256D03*
X0162595Y0141217D03*
X0265351Y0141217D03*
X0265351Y0126256D03*
X0287398Y0126256D03*
X0301965Y0126256D03*
X0301965Y0141217D03*
X0287398Y0141217D03*
X0324012Y0141217D03*
X0324012Y0126256D03*
D13*
X0324012Y0131276D03*
X0324012Y0136197D03*
X0301965Y0136197D03*
X0301965Y0131276D03*
X0287398Y0131276D03*
X0287398Y0136197D03*
X0265351Y0136197D03*
X0265351Y0131276D03*
X0162595Y0131276D03*
X0162595Y0136197D03*
X0140548Y0136197D03*
X0140548Y0131276D03*
X0125981Y0131276D03*
X0125981Y0136197D03*
X0103934Y0136197D03*
X0103934Y0131276D03*
D14*
X0104721Y0146335D03*
X0109446Y0146335D03*
X0141335Y0146335D03*
X0146060Y0146335D03*
X0266138Y0146335D03*
X0270863Y0146335D03*
X0302753Y0146335D03*
X0307477Y0146335D03*
D15*
X0313383Y0097713D03*
X0280312Y0097713D03*
X0151965Y0097713D03*
X0118894Y0097713D03*
D16*
X0126768Y0107555D02*
X0126768Y0111492D01*
X0144091Y0111492D02*
X0144091Y0107555D01*
X0288186Y0107555D02*
X0288186Y0111492D01*
X0305509Y0111492D02*
X0305509Y0107555D01*
M02*
