G75*
%MOIN*%
%OFA0B0*%
%FSLAX25Y25*%
%IPPOS*%
%LPD*%
%AMOC8*
5,1,8,0,0,1.08239X$1,22.5*
%
%ADD10C,0.00800*%
%ADD11C,0.00787*%
%ADD12R,0.01575X0.01575*%
%ADD13C,0.01575*%
%ADD14C,0.00591*%
%ADD15C,0.00500*%
%ADD16R,0.01181X0.01181*%
%ADD17R,0.00787X0.00787*%
%ADD18C,0.00900*%
D10*
X0085040Y0097047D02*
X0085040Y0098616D01*
X0085563Y0099140D01*
X0086610Y0099140D01*
X0087133Y0098616D01*
X0087133Y0097047D01*
X0087133Y0098093D02*
X0088179Y0099140D01*
X0088179Y0097047D02*
X0085040Y0097047D01*
X0086610Y0100672D02*
X0086610Y0102765D01*
X0088179Y0102241D02*
X0085040Y0102241D01*
X0086610Y0100672D01*
X0101020Y0113270D02*
X0103114Y0113270D01*
X0104646Y0113270D02*
X0106739Y0113270D01*
X0108271Y0113270D02*
X0109841Y0113270D01*
X0110364Y0113793D01*
X0110364Y0115886D01*
X0109841Y0116410D01*
X0108271Y0116410D01*
X0108271Y0113270D01*
X0105692Y0114840D02*
X0104646Y0114840D01*
X0104646Y0116410D02*
X0104646Y0113270D01*
X0104646Y0116410D02*
X0106739Y0116410D01*
X0111896Y0115363D02*
X0112942Y0116410D01*
X0112942Y0113270D01*
X0111896Y0113270D02*
X0113989Y0113270D01*
X0119685Y0115625D02*
X0119685Y0117194D01*
X0120209Y0117718D01*
X0121255Y0117718D01*
X0121779Y0117194D01*
X0121779Y0115625D01*
X0122825Y0115625D02*
X0119685Y0115625D01*
X0121779Y0116671D02*
X0122825Y0117718D01*
X0122825Y0119250D02*
X0122825Y0121343D01*
X0122302Y0122875D02*
X0122825Y0123398D01*
X0122825Y0124445D01*
X0122302Y0124968D01*
X0121779Y0124968D01*
X0121255Y0124445D01*
X0121255Y0123398D01*
X0120732Y0122875D01*
X0120209Y0122875D01*
X0119685Y0123398D01*
X0119685Y0124445D01*
X0120209Y0124968D01*
X0119685Y0126500D02*
X0122825Y0126500D01*
X0122825Y0128593D01*
X0121255Y0127546D02*
X0121255Y0126500D01*
X0119685Y0126500D02*
X0119685Y0128593D01*
X0119685Y0130125D02*
X0119685Y0132218D01*
X0119685Y0131172D02*
X0122825Y0131172D01*
X0121784Y0132398D02*
X0123877Y0132398D01*
X0124400Y0132921D01*
X0124400Y0133968D01*
X0123877Y0134491D01*
X0124400Y0136023D02*
X0124400Y0138116D01*
X0124400Y0137069D02*
X0121260Y0137069D01*
X0122307Y0136023D01*
X0121784Y0134491D02*
X0121260Y0133968D01*
X0121260Y0132921D01*
X0121784Y0132398D01*
X0119685Y0121343D02*
X0119685Y0119250D01*
X0122825Y0119250D01*
X0121255Y0119250D02*
X0121255Y0120296D01*
X0101020Y0116410D02*
X0101020Y0113270D01*
X0099597Y0126336D02*
X0096457Y0126336D01*
X0096457Y0127906D01*
X0096980Y0128429D01*
X0098027Y0128429D01*
X0098550Y0127906D01*
X0098550Y0126336D01*
X0098550Y0127383D02*
X0099597Y0128429D01*
X0099597Y0129961D02*
X0099597Y0132055D01*
X0099597Y0131008D02*
X0096457Y0131008D01*
X0097504Y0129961D01*
X0094872Y0130329D02*
X0094349Y0129806D01*
X0094872Y0130329D02*
X0094872Y0131375D01*
X0094349Y0131899D01*
X0093302Y0131899D01*
X0092779Y0131375D01*
X0092779Y0130852D01*
X0093302Y0129806D01*
X0091733Y0129806D01*
X0091733Y0131899D01*
X0092256Y0128274D02*
X0093302Y0128274D01*
X0093826Y0127750D01*
X0093826Y0126180D01*
X0094872Y0126180D02*
X0091733Y0126180D01*
X0091733Y0127750D01*
X0092256Y0128274D01*
X0093826Y0127227D02*
X0094872Y0128274D01*
X0097504Y0133587D02*
X0096457Y0134633D01*
X0099597Y0134633D01*
X0099597Y0133587D02*
X0099597Y0135680D01*
X0100130Y0136966D02*
X0100653Y0136966D01*
X0101176Y0137490D01*
X0101176Y0138536D01*
X0101700Y0139059D01*
X0102223Y0139059D01*
X0102746Y0138536D01*
X0102746Y0137490D01*
X0102223Y0136966D01*
X0100130Y0136966D02*
X0099607Y0137490D01*
X0099607Y0138536D01*
X0100130Y0139059D01*
X0099607Y0140591D02*
X0102746Y0140591D01*
X0101700Y0141638D01*
X0102746Y0142684D01*
X0099607Y0142684D01*
X0100653Y0144216D02*
X0099607Y0145263D01*
X0102746Y0145263D01*
X0102746Y0144216D02*
X0102746Y0146310D01*
X0117323Y0153557D02*
X0117323Y0154604D01*
X0117847Y0155127D01*
X0117847Y0156659D02*
X0117323Y0157182D01*
X0117323Y0158229D01*
X0117847Y0158752D01*
X0118370Y0158752D01*
X0118893Y0158229D01*
X0119416Y0158752D01*
X0119940Y0158752D01*
X0120463Y0158229D01*
X0120463Y0157182D01*
X0119940Y0156659D01*
X0118893Y0157706D02*
X0118893Y0158229D01*
X0119940Y0155127D02*
X0120463Y0154604D01*
X0120463Y0153557D01*
X0119940Y0153034D01*
X0117847Y0153034D01*
X0117323Y0153557D01*
X0108659Y0159333D02*
X0108659Y0162473D01*
X0107090Y0160903D01*
X0109183Y0160903D01*
X0105558Y0161949D02*
X0105034Y0162473D01*
X0103988Y0162473D01*
X0103464Y0161949D01*
X0103464Y0159856D01*
X0103988Y0159333D01*
X0105034Y0159333D01*
X0105558Y0159856D01*
X0103023Y0172325D02*
X0101714Y0172325D01*
X0101059Y0172980D01*
X0099328Y0172980D02*
X0098673Y0172325D01*
X0097364Y0172325D01*
X0096709Y0172980D01*
X0096709Y0175598D01*
X0097364Y0176253D01*
X0098673Y0176253D01*
X0099328Y0175598D01*
X0101059Y0175598D02*
X0101714Y0176253D01*
X0103023Y0176253D01*
X0103678Y0175598D01*
X0103678Y0174944D01*
X0103023Y0174289D01*
X0103678Y0173634D01*
X0103678Y0172980D01*
X0103023Y0172325D01*
X0103023Y0174289D02*
X0102369Y0174289D01*
X0095118Y0172325D02*
X0093809Y0172325D01*
X0094464Y0172325D02*
X0094464Y0176253D01*
X0095118Y0176253D02*
X0093809Y0176253D01*
X0093437Y0187204D02*
X0095530Y0187204D01*
X0096053Y0187727D01*
X0096053Y0188774D01*
X0095530Y0189297D01*
X0095530Y0190829D02*
X0096053Y0191352D01*
X0096053Y0192399D01*
X0095530Y0192922D01*
X0093437Y0192922D01*
X0092914Y0192399D01*
X0092914Y0191352D01*
X0093437Y0190829D01*
X0093960Y0190829D01*
X0094484Y0191352D01*
X0094484Y0192922D01*
X0093437Y0189297D02*
X0092914Y0188774D01*
X0092914Y0187727D01*
X0093437Y0187204D01*
X0103279Y0198228D02*
X0102756Y0198751D01*
X0102756Y0199797D01*
X0103279Y0200321D01*
X0105373Y0200321D01*
X0105896Y0199797D01*
X0105896Y0198751D01*
X0105373Y0198228D01*
X0103279Y0198228D01*
X0104849Y0199274D02*
X0105896Y0200321D01*
X0105896Y0201853D02*
X0103803Y0203946D01*
X0103279Y0203946D01*
X0102756Y0203423D01*
X0102756Y0202376D01*
X0103279Y0201853D01*
X0105896Y0201853D02*
X0105896Y0203946D01*
X0109055Y0203869D02*
X0109579Y0203346D01*
X0111672Y0203346D01*
X0112195Y0203869D01*
X0112195Y0204916D01*
X0111672Y0205439D01*
X0111672Y0206971D02*
X0111149Y0206971D01*
X0110625Y0207494D01*
X0110625Y0208541D01*
X0111149Y0209064D01*
X0111672Y0209064D01*
X0112195Y0208541D01*
X0112195Y0207494D01*
X0111672Y0206971D01*
X0110625Y0207494D02*
X0110102Y0206971D01*
X0109579Y0206971D01*
X0109055Y0207494D01*
X0109055Y0208541D01*
X0109579Y0209064D01*
X0110102Y0209064D01*
X0110625Y0208541D01*
X0109579Y0205439D02*
X0109055Y0204916D01*
X0109055Y0203869D01*
X0109579Y0214132D02*
X0110102Y0214132D01*
X0110625Y0214655D01*
X0110625Y0215701D01*
X0111149Y0216225D01*
X0111672Y0216225D01*
X0112195Y0215701D01*
X0112195Y0214655D01*
X0111672Y0214132D01*
X0109579Y0214132D02*
X0109055Y0214655D01*
X0109055Y0215701D01*
X0109579Y0216225D01*
X0109055Y0217757D02*
X0112195Y0217757D01*
X0111149Y0218803D01*
X0112195Y0219850D01*
X0109055Y0219850D01*
X0109579Y0221382D02*
X0109055Y0221905D01*
X0109055Y0222952D01*
X0109579Y0223475D01*
X0110102Y0223475D01*
X0110625Y0222952D01*
X0111149Y0223475D01*
X0111672Y0223475D01*
X0112195Y0222952D01*
X0112195Y0221905D01*
X0111672Y0221382D01*
X0110625Y0222428D02*
X0110625Y0222952D01*
X0109055Y0226017D02*
X0109055Y0228110D01*
X0109055Y0227063D02*
X0112195Y0227063D01*
X0112195Y0229642D02*
X0110102Y0229642D01*
X0109055Y0230688D01*
X0110102Y0231735D01*
X0112195Y0231735D01*
X0112195Y0233267D02*
X0109055Y0233267D01*
X0109055Y0234837D01*
X0109579Y0235360D01*
X0110625Y0235360D01*
X0111149Y0234837D01*
X0111149Y0233267D01*
X0111149Y0234314D02*
X0112195Y0235360D01*
X0111672Y0236892D02*
X0109579Y0236892D01*
X0109055Y0237415D01*
X0109055Y0238462D01*
X0109579Y0238985D01*
X0110625Y0238985D02*
X0110625Y0237939D01*
X0110625Y0238985D02*
X0111672Y0238985D01*
X0112195Y0238462D01*
X0112195Y0237415D01*
X0111672Y0236892D01*
X0112195Y0240517D02*
X0109055Y0240517D01*
X0109055Y0242610D01*
X0109055Y0244142D02*
X0109055Y0246235D01*
X0109055Y0245189D02*
X0112195Y0245189D01*
X0112195Y0242610D02*
X0112195Y0240517D01*
X0110625Y0240517D02*
X0110625Y0241564D01*
X0110625Y0231735D02*
X0110625Y0229642D01*
X0094872Y0239145D02*
X0094872Y0240192D01*
X0094872Y0239668D02*
X0091733Y0239668D01*
X0091733Y0239145D02*
X0091733Y0240192D01*
X0092256Y0241562D02*
X0092779Y0241562D01*
X0093302Y0242085D01*
X0093302Y0243132D01*
X0093826Y0243655D01*
X0094349Y0243655D01*
X0094872Y0243132D01*
X0094872Y0242085D01*
X0094349Y0241562D01*
X0092256Y0241562D02*
X0091733Y0242085D01*
X0091733Y0243132D01*
X0092256Y0243655D01*
X0091733Y0245187D02*
X0091733Y0246757D01*
X0092256Y0247280D01*
X0093302Y0247280D01*
X0093826Y0246757D01*
X0093826Y0245187D01*
X0094872Y0245187D02*
X0091733Y0245187D01*
X0086824Y0259727D02*
X0084731Y0259727D01*
X0086824Y0261820D01*
X0086824Y0262343D01*
X0086300Y0262866D01*
X0085254Y0262866D01*
X0084731Y0262343D01*
X0083198Y0262866D02*
X0081105Y0259727D01*
X0083198Y0259727D02*
X0081105Y0262866D01*
X0122362Y0253811D02*
X0122362Y0251195D01*
X0122885Y0250672D01*
X0123932Y0250672D01*
X0124455Y0251195D01*
X0124455Y0253811D01*
X0125987Y0252765D02*
X0127034Y0253811D01*
X0127034Y0250672D01*
X0128080Y0250672D02*
X0125987Y0250672D01*
X0136535Y0251195D02*
X0137059Y0250672D01*
X0138105Y0250672D01*
X0138628Y0251195D01*
X0140160Y0250672D02*
X0142254Y0252765D01*
X0142254Y0253288D01*
X0141730Y0253811D01*
X0140684Y0253811D01*
X0140160Y0253288D01*
X0138628Y0253288D02*
X0138105Y0253811D01*
X0137059Y0253811D01*
X0136535Y0253288D01*
X0136535Y0251195D01*
X0140160Y0250672D02*
X0142254Y0250672D01*
X0162599Y0252294D02*
X0162599Y0253341D01*
X0163122Y0253864D01*
X0165215Y0253864D01*
X0165738Y0253341D01*
X0165738Y0252294D01*
X0165215Y0251771D01*
X0163122Y0251771D01*
X0162599Y0252294D01*
X0164692Y0252817D02*
X0165738Y0253864D01*
X0165738Y0255396D02*
X0165738Y0257489D01*
X0165738Y0256443D02*
X0162599Y0256443D01*
X0163645Y0255396D01*
X0171654Y0254846D02*
X0171654Y0256416D01*
X0172177Y0256940D01*
X0173224Y0256940D01*
X0173747Y0256416D01*
X0173747Y0254846D01*
X0174794Y0254846D02*
X0171654Y0254846D01*
X0172177Y0253314D02*
X0171654Y0252791D01*
X0171654Y0251221D01*
X0174794Y0251221D01*
X0173747Y0251221D02*
X0173747Y0252791D01*
X0173224Y0253314D01*
X0172177Y0253314D01*
X0171654Y0249689D02*
X0173747Y0249689D01*
X0174794Y0248643D01*
X0173747Y0247596D01*
X0171654Y0247596D01*
X0176378Y0246180D02*
X0176378Y0244610D01*
X0179518Y0244610D01*
X0179518Y0246180D01*
X0178995Y0246703D01*
X0176902Y0246703D01*
X0176378Y0246180D01*
X0176378Y0243078D02*
X0179518Y0243078D01*
X0176378Y0240985D01*
X0179518Y0240985D01*
X0178995Y0239453D02*
X0177948Y0239453D01*
X0177948Y0238406D01*
X0176902Y0237360D02*
X0178995Y0237360D01*
X0179518Y0237883D01*
X0179518Y0238930D01*
X0178995Y0239453D01*
X0176902Y0239453D02*
X0176378Y0238930D01*
X0176378Y0237883D01*
X0176902Y0237360D01*
X0176378Y0234121D02*
X0179518Y0234121D01*
X0179518Y0235167D02*
X0179518Y0233074D01*
X0179518Y0231785D02*
X0179518Y0231261D01*
X0178995Y0231261D01*
X0178995Y0231785D01*
X0179518Y0231785D01*
X0179518Y0229729D02*
X0179518Y0227636D01*
X0179518Y0228683D02*
X0176378Y0228683D01*
X0177425Y0227636D01*
X0177425Y0225325D02*
X0176902Y0225325D01*
X0176378Y0224801D01*
X0176378Y0223755D01*
X0176902Y0223231D01*
X0177425Y0225325D02*
X0179518Y0223231D01*
X0179518Y0225325D01*
X0179518Y0221942D02*
X0179518Y0221419D01*
X0178995Y0221419D01*
X0178995Y0221942D01*
X0179518Y0221942D01*
X0178995Y0219887D02*
X0179518Y0219364D01*
X0179518Y0218317D01*
X0178995Y0217794D01*
X0176902Y0219887D01*
X0178995Y0219887D01*
X0178995Y0217794D02*
X0176902Y0217794D01*
X0176378Y0218317D01*
X0176378Y0219364D01*
X0176902Y0219887D01*
X0176902Y0215482D02*
X0176378Y0214959D01*
X0176378Y0213912D01*
X0176902Y0213389D01*
X0177948Y0214436D02*
X0177948Y0214959D01*
X0178471Y0215482D01*
X0178995Y0215482D01*
X0179518Y0214959D01*
X0179518Y0213912D01*
X0178995Y0213389D01*
X0178995Y0212100D02*
X0179518Y0212100D01*
X0179518Y0211576D01*
X0178995Y0211576D01*
X0178995Y0212100D01*
X0178995Y0210044D02*
X0179518Y0209521D01*
X0179518Y0208475D01*
X0178995Y0207951D01*
X0176902Y0210044D01*
X0178995Y0210044D01*
X0178995Y0207951D02*
X0176902Y0207951D01*
X0176378Y0208475D01*
X0176378Y0209521D01*
X0176902Y0210044D01*
X0176378Y0205246D02*
X0176902Y0204199D01*
X0177948Y0203153D01*
X0177948Y0204723D01*
X0178471Y0205246D01*
X0178995Y0205246D01*
X0179518Y0204723D01*
X0179518Y0203676D01*
X0178995Y0203153D01*
X0177948Y0203153D01*
X0178995Y0201863D02*
X0179518Y0201863D01*
X0179518Y0201340D01*
X0178995Y0201340D01*
X0178995Y0201863D01*
X0178995Y0199808D02*
X0179518Y0199285D01*
X0179518Y0198238D01*
X0178995Y0197715D01*
X0176902Y0199808D01*
X0178995Y0199808D01*
X0178995Y0197715D02*
X0176902Y0197715D01*
X0176378Y0198238D01*
X0176378Y0199285D01*
X0176902Y0199808D01*
X0176902Y0195797D02*
X0176378Y0195797D01*
X0176378Y0193704D01*
X0176902Y0195797D02*
X0178995Y0193704D01*
X0179518Y0193704D01*
X0179518Y0192415D02*
X0179518Y0191891D01*
X0178995Y0191891D01*
X0178995Y0192415D01*
X0179518Y0192415D01*
X0178995Y0190359D02*
X0179518Y0189836D01*
X0179518Y0188789D01*
X0178995Y0188266D01*
X0176902Y0190359D01*
X0178995Y0190359D01*
X0178995Y0188266D02*
X0176902Y0188266D01*
X0176378Y0188789D01*
X0176378Y0189836D01*
X0176902Y0190359D01*
X0176378Y0185561D02*
X0176378Y0183468D01*
X0177948Y0183468D01*
X0177425Y0184514D01*
X0177425Y0185038D01*
X0177948Y0185561D01*
X0178995Y0185561D01*
X0179518Y0185038D01*
X0179518Y0183991D01*
X0178995Y0183468D01*
X0178995Y0182178D02*
X0179518Y0182178D01*
X0179518Y0181655D01*
X0178995Y0181655D01*
X0178995Y0182178D01*
X0178995Y0180123D02*
X0179518Y0179600D01*
X0179518Y0178553D01*
X0178995Y0178030D01*
X0176902Y0180123D01*
X0178995Y0180123D01*
X0178995Y0178030D02*
X0176902Y0178030D01*
X0176378Y0178553D01*
X0176378Y0179600D01*
X0176902Y0180123D01*
X0177948Y0175325D02*
X0177948Y0173231D01*
X0176378Y0174801D01*
X0179518Y0174801D01*
X0179518Y0171942D02*
X0179518Y0171419D01*
X0178995Y0171419D01*
X0178995Y0171942D01*
X0179518Y0171942D01*
X0178995Y0169887D02*
X0179518Y0169364D01*
X0179518Y0168317D01*
X0178995Y0167794D01*
X0176902Y0169887D01*
X0178995Y0169887D01*
X0178995Y0167794D02*
X0176902Y0167794D01*
X0176378Y0168317D01*
X0176378Y0169364D01*
X0176902Y0169887D01*
X0179518Y0165482D02*
X0179518Y0163389D01*
X0179518Y0164436D02*
X0176378Y0164436D01*
X0177425Y0163389D01*
X0178995Y0162100D02*
X0179518Y0162100D01*
X0179518Y0161576D01*
X0178995Y0161576D01*
X0178995Y0162100D01*
X0178995Y0160044D02*
X0179518Y0159521D01*
X0179518Y0158475D01*
X0178995Y0157951D01*
X0176902Y0160044D01*
X0178995Y0160044D01*
X0178995Y0157951D02*
X0176902Y0157951D01*
X0176378Y0158475D01*
X0176378Y0159521D01*
X0176902Y0160044D01*
X0176902Y0155640D02*
X0176378Y0155116D01*
X0176378Y0154070D01*
X0176902Y0153546D01*
X0178995Y0153546D01*
X0176902Y0155640D01*
X0178995Y0155640D01*
X0179518Y0155116D01*
X0179518Y0154070D01*
X0178995Y0153546D01*
X0178995Y0152257D02*
X0179518Y0152257D01*
X0179518Y0151734D01*
X0178995Y0151734D01*
X0178995Y0152257D01*
X0178995Y0150202D02*
X0179518Y0149679D01*
X0179518Y0148632D01*
X0178995Y0148109D01*
X0176902Y0150202D01*
X0178995Y0150202D01*
X0178995Y0148109D02*
X0176902Y0148109D01*
X0176378Y0148632D01*
X0176378Y0149679D01*
X0176902Y0150202D01*
X0172806Y0150801D02*
X0172283Y0150278D01*
X0171237Y0150278D01*
X0170713Y0150801D01*
X0172806Y0152894D01*
X0172806Y0150801D01*
X0170713Y0150801D02*
X0170713Y0152894D01*
X0171237Y0153418D01*
X0172283Y0153418D01*
X0172806Y0152894D01*
X0169181Y0150278D02*
X0167088Y0150278D01*
X0168135Y0150278D02*
X0168135Y0153418D01*
X0167088Y0152371D01*
X0165556Y0151848D02*
X0165033Y0151325D01*
X0163463Y0151325D01*
X0164510Y0151325D02*
X0165556Y0150278D01*
X0165556Y0151848D02*
X0165556Y0152894D01*
X0165033Y0153418D01*
X0163463Y0153418D01*
X0163463Y0150278D01*
X0170866Y0146445D02*
X0171390Y0146968D01*
X0173483Y0146968D01*
X0174006Y0146445D01*
X0174006Y0145399D01*
X0173483Y0144875D01*
X0171390Y0144875D01*
X0170866Y0145399D01*
X0170866Y0146445D01*
X0170866Y0143505D02*
X0170866Y0142458D01*
X0170866Y0142982D02*
X0174006Y0142982D01*
X0174006Y0143505D02*
X0174006Y0142458D01*
X0173483Y0140926D02*
X0171390Y0140926D01*
X0170866Y0140403D01*
X0170866Y0138833D01*
X0174006Y0138833D01*
X0174006Y0140403D01*
X0173483Y0140926D01*
X0176378Y0138919D02*
X0179518Y0138919D01*
X0179518Y0137873D02*
X0179518Y0139966D01*
X0179518Y0141498D02*
X0179518Y0142021D01*
X0178995Y0142021D01*
X0178995Y0141498D01*
X0179518Y0141498D01*
X0178995Y0143310D02*
X0176902Y0145403D01*
X0178995Y0145403D01*
X0179518Y0144880D01*
X0179518Y0143833D01*
X0178995Y0143310D01*
X0176902Y0143310D01*
X0176378Y0143833D01*
X0176378Y0144880D01*
X0176902Y0145403D01*
X0176378Y0138919D02*
X0177425Y0137873D01*
X0174006Y0137301D02*
X0170866Y0137301D01*
X0170866Y0135208D02*
X0174006Y0135208D01*
X0172960Y0136255D01*
X0174006Y0137301D01*
X0173483Y0133676D02*
X0174006Y0133153D01*
X0174006Y0132106D01*
X0173483Y0131583D01*
X0172436Y0132106D02*
X0172436Y0133153D01*
X0172960Y0133676D01*
X0173483Y0133676D01*
X0172436Y0132106D02*
X0171913Y0131583D01*
X0171390Y0131583D01*
X0170866Y0132106D01*
X0170866Y0133153D01*
X0171390Y0133676D01*
X0172038Y0129462D02*
X0170468Y0127892D01*
X0170991Y0127369D02*
X0168898Y0129462D01*
X0168898Y0127369D02*
X0172038Y0127369D01*
X0172038Y0125837D02*
X0172038Y0123744D01*
X0168898Y0123744D01*
X0169421Y0122212D02*
X0168898Y0121689D01*
X0168898Y0120642D01*
X0169421Y0120119D01*
X0171514Y0120119D01*
X0172038Y0120642D01*
X0172038Y0121689D01*
X0171514Y0122212D01*
X0172038Y0118587D02*
X0168898Y0118587D01*
X0168898Y0116494D02*
X0172038Y0116494D01*
X0170991Y0117540D01*
X0172038Y0118587D01*
X0171514Y0114962D02*
X0172038Y0114438D01*
X0172038Y0113392D01*
X0171514Y0112869D01*
X0170468Y0113392D02*
X0170468Y0114438D01*
X0170991Y0114962D01*
X0171514Y0114962D01*
X0170468Y0113392D02*
X0169945Y0112869D01*
X0169421Y0112869D01*
X0168898Y0113392D01*
X0168898Y0114438D01*
X0169421Y0114962D01*
X0154715Y0115714D02*
X0154715Y0117807D01*
X0154715Y0116761D02*
X0151575Y0116761D01*
X0152622Y0115714D01*
X0151575Y0114182D02*
X0154715Y0114182D01*
X0151575Y0112089D01*
X0154715Y0112089D01*
X0154192Y0110557D02*
X0152098Y0110557D01*
X0151575Y0110034D01*
X0151575Y0108987D01*
X0152098Y0108464D01*
X0154192Y0108464D01*
X0154715Y0108987D01*
X0154715Y0110034D01*
X0154192Y0110557D01*
X0154192Y0106932D02*
X0154715Y0106409D01*
X0154715Y0105362D01*
X0154192Y0104839D01*
X0152098Y0104839D01*
X0151575Y0105362D01*
X0151575Y0106409D01*
X0152098Y0106932D01*
X0150394Y0134998D02*
X0150394Y0137091D01*
X0150394Y0136044D02*
X0153534Y0136044D01*
X0153534Y0138623D02*
X0150394Y0138623D01*
X0150394Y0140193D01*
X0150917Y0140716D01*
X0151964Y0140716D01*
X0152487Y0140193D01*
X0152487Y0138623D01*
X0152487Y0139669D02*
X0153534Y0140716D01*
X0153534Y0142248D02*
X0153534Y0144341D01*
X0153534Y0143295D02*
X0150394Y0143295D01*
X0151441Y0142248D01*
X0146447Y0142031D02*
X0143307Y0142031D01*
X0143307Y0142554D02*
X0143307Y0141507D01*
X0143831Y0143924D02*
X0145924Y0143924D01*
X0146447Y0144447D01*
X0146447Y0145494D01*
X0145924Y0146017D01*
X0146447Y0147549D02*
X0146447Y0149642D01*
X0146447Y0148596D02*
X0143307Y0148596D01*
X0144354Y0147549D01*
X0143831Y0146017D02*
X0143307Y0145494D01*
X0143307Y0144447D01*
X0143831Y0143924D01*
X0146447Y0142554D02*
X0146447Y0141507D01*
X0145405Y0163738D02*
X0147499Y0163738D01*
X0148022Y0164261D01*
X0148022Y0165308D01*
X0147499Y0165831D01*
X0148022Y0167363D02*
X0148022Y0169456D01*
X0148022Y0168410D02*
X0144882Y0168410D01*
X0145929Y0167363D01*
X0145405Y0165831D02*
X0144882Y0165308D01*
X0144882Y0164261D01*
X0145405Y0163738D01*
X0149607Y0164369D02*
X0149607Y0165939D01*
X0150130Y0166462D01*
X0151176Y0166462D01*
X0151700Y0165939D01*
X0151700Y0164369D01*
X0152746Y0164369D02*
X0149607Y0164369D01*
X0151700Y0165416D02*
X0152746Y0166462D01*
X0152746Y0167994D02*
X0150653Y0170088D01*
X0150130Y0170088D01*
X0149607Y0169564D01*
X0149607Y0168518D01*
X0150130Y0167994D01*
X0152746Y0167994D02*
X0152746Y0170088D01*
X0154331Y0169564D02*
X0154854Y0170088D01*
X0155378Y0170088D01*
X0155901Y0169564D01*
X0156424Y0170088D01*
X0156947Y0170088D01*
X0157471Y0169564D01*
X0157471Y0168518D01*
X0156947Y0167994D01*
X0155901Y0169041D02*
X0155901Y0169564D01*
X0154331Y0169564D02*
X0154331Y0168518D01*
X0154854Y0167994D01*
X0154854Y0166462D02*
X0154331Y0165939D01*
X0154331Y0164369D01*
X0157471Y0164369D01*
X0156424Y0164369D02*
X0156424Y0165939D01*
X0155901Y0166462D01*
X0154854Y0166462D01*
X0156424Y0165416D02*
X0157471Y0166462D01*
X0159055Y0165545D02*
X0159055Y0164499D01*
X0159579Y0163976D01*
X0161672Y0163976D01*
X0162195Y0164499D01*
X0162195Y0165545D01*
X0161672Y0166069D01*
X0161672Y0167601D02*
X0162195Y0167601D01*
X0161672Y0167601D02*
X0159579Y0169694D01*
X0159055Y0169694D01*
X0159055Y0167601D01*
X0159579Y0166069D02*
X0159055Y0165545D01*
X0148022Y0171511D02*
X0147499Y0170988D01*
X0145405Y0173081D01*
X0147499Y0173081D01*
X0148022Y0172558D01*
X0148022Y0171511D01*
X0147499Y0170988D02*
X0145405Y0170988D01*
X0144882Y0171511D01*
X0144882Y0172558D01*
X0145405Y0173081D01*
X0139104Y0175604D02*
X0139104Y0176128D01*
X0138581Y0176651D01*
X0137011Y0176651D01*
X0137011Y0175604D01*
X0137534Y0175081D01*
X0138581Y0175081D01*
X0139104Y0175604D01*
X0137011Y0176651D02*
X0138057Y0177698D01*
X0139104Y0178221D01*
X0135479Y0177698D02*
X0135479Y0176651D01*
X0134956Y0176128D01*
X0133386Y0176128D01*
X0134432Y0176128D02*
X0135479Y0175081D01*
X0133386Y0175081D02*
X0133386Y0178221D01*
X0134956Y0178221D01*
X0135479Y0177698D01*
X0131624Y0175081D02*
X0129531Y0175081D01*
X0130577Y0175081D02*
X0130577Y0178221D01*
X0129531Y0177174D01*
X0127999Y0176651D02*
X0127475Y0176128D01*
X0125905Y0176128D01*
X0125905Y0175081D02*
X0125905Y0178221D01*
X0127475Y0178221D01*
X0127999Y0177698D01*
X0127999Y0176651D01*
X0126952Y0176128D02*
X0127999Y0175081D01*
X0127929Y0168772D02*
X0128976Y0168772D01*
X0129499Y0168249D01*
X0129499Y0167725D01*
X0128976Y0167202D01*
X0129499Y0166679D01*
X0129499Y0166156D01*
X0128976Y0165632D01*
X0127929Y0165632D01*
X0127406Y0166156D01*
X0128453Y0167202D02*
X0128976Y0167202D01*
X0127406Y0168249D02*
X0127929Y0168772D01*
X0124828Y0168772D02*
X0124828Y0165632D01*
X0125874Y0165632D02*
X0123781Y0165632D01*
X0122249Y0166156D02*
X0121726Y0165632D01*
X0120679Y0165632D01*
X0120156Y0166156D01*
X0120156Y0168249D01*
X0120679Y0168772D01*
X0121726Y0168772D01*
X0122249Y0168249D01*
X0123781Y0167725D02*
X0124828Y0168772D01*
X0124146Y0180117D02*
X0126239Y0180117D01*
X0126762Y0180641D01*
X0126762Y0181687D01*
X0126239Y0182211D01*
X0126239Y0183743D02*
X0126762Y0184266D01*
X0126762Y0185312D01*
X0126239Y0185836D01*
X0125192Y0185836D01*
X0124669Y0185312D01*
X0124669Y0184789D01*
X0125192Y0183743D01*
X0123622Y0183743D01*
X0123622Y0185836D01*
X0123612Y0189566D02*
X0120473Y0189566D01*
X0120473Y0191136D01*
X0120996Y0191659D01*
X0122043Y0191659D01*
X0122566Y0191136D01*
X0122566Y0189566D01*
X0122566Y0190613D02*
X0123612Y0191659D01*
X0123089Y0193191D02*
X0122566Y0193191D01*
X0122043Y0193715D01*
X0122043Y0194761D01*
X0122566Y0195284D01*
X0123089Y0195284D01*
X0123612Y0194761D01*
X0123612Y0193715D01*
X0123089Y0193191D01*
X0122043Y0193715D02*
X0121519Y0193191D01*
X0120996Y0193191D01*
X0120473Y0193715D01*
X0120473Y0194761D01*
X0120996Y0195284D01*
X0121519Y0195284D01*
X0122043Y0194761D01*
X0122566Y0200590D02*
X0122566Y0202160D01*
X0122043Y0202683D01*
X0120996Y0202683D01*
X0120473Y0202160D01*
X0120473Y0200590D01*
X0123612Y0200590D01*
X0122566Y0201636D02*
X0123612Y0202683D01*
X0123612Y0204215D02*
X0123089Y0204215D01*
X0120996Y0206308D01*
X0120473Y0206308D01*
X0120473Y0204215D01*
X0135040Y0204683D02*
X0135040Y0206253D01*
X0135563Y0206776D01*
X0136610Y0206776D01*
X0137133Y0206253D01*
X0137133Y0204683D01*
X0137133Y0205729D02*
X0138179Y0206776D01*
X0138179Y0208308D02*
X0138179Y0210401D01*
X0138179Y0209354D02*
X0135040Y0209354D01*
X0136086Y0208308D01*
X0135563Y0211933D02*
X0135040Y0212456D01*
X0135040Y0213503D01*
X0135563Y0214026D01*
X0136086Y0214026D01*
X0138179Y0211933D01*
X0138179Y0214026D01*
X0143701Y0207883D02*
X0144224Y0206836D01*
X0145271Y0205790D01*
X0145271Y0207360D01*
X0145794Y0207883D01*
X0146318Y0207883D01*
X0146841Y0207360D01*
X0146841Y0206313D01*
X0146318Y0205790D01*
X0145271Y0205790D01*
X0146318Y0204258D02*
X0146841Y0203734D01*
X0146841Y0202688D01*
X0146318Y0202165D01*
X0144224Y0202165D01*
X0143701Y0202688D01*
X0143701Y0203734D01*
X0144224Y0204258D01*
X0138179Y0204683D02*
X0135040Y0204683D01*
X0137138Y0197565D02*
X0136615Y0197042D01*
X0136615Y0195995D01*
X0137138Y0195472D01*
X0137661Y0195472D01*
X0138184Y0195995D01*
X0138184Y0197565D01*
X0137138Y0197565D02*
X0139231Y0197565D01*
X0139754Y0197042D01*
X0139754Y0195995D01*
X0139231Y0195472D01*
X0139754Y0193940D02*
X0138708Y0192893D01*
X0138708Y0193416D02*
X0138708Y0191847D01*
X0139754Y0191847D02*
X0136615Y0191847D01*
X0136615Y0193416D01*
X0137138Y0193940D01*
X0138184Y0193940D01*
X0138708Y0193416D01*
X0124146Y0182211D02*
X0123622Y0181687D01*
X0123622Y0180641D01*
X0124146Y0180117D01*
X0094872Y0204419D02*
X0094349Y0203895D01*
X0094872Y0204419D02*
X0094872Y0205465D01*
X0094349Y0205988D01*
X0093826Y0205988D01*
X0093302Y0205465D01*
X0093302Y0204419D01*
X0092779Y0203895D01*
X0092256Y0203895D01*
X0091733Y0204419D01*
X0091733Y0205465D01*
X0092256Y0205988D01*
X0091733Y0207520D02*
X0094872Y0207520D01*
X0093826Y0208567D01*
X0094872Y0209614D01*
X0091733Y0209614D01*
X0092256Y0211146D02*
X0091733Y0211669D01*
X0091733Y0212715D01*
X0092256Y0213239D01*
X0092779Y0213239D01*
X0094872Y0211146D01*
X0094872Y0213239D01*
X0130315Y0223974D02*
X0130315Y0225544D01*
X0130839Y0226067D01*
X0131885Y0226067D01*
X0132408Y0225544D01*
X0132408Y0223974D01*
X0132408Y0225021D02*
X0133455Y0226067D01*
X0133455Y0227599D02*
X0133455Y0229692D01*
X0133455Y0228646D02*
X0130315Y0228646D01*
X0131362Y0227599D01*
X0130839Y0231224D02*
X0130315Y0231748D01*
X0130315Y0232794D01*
X0130839Y0233318D01*
X0131362Y0233318D01*
X0131885Y0232794D01*
X0132408Y0233318D01*
X0132932Y0233318D01*
X0133455Y0232794D01*
X0133455Y0231748D01*
X0132932Y0231224D01*
X0131885Y0232271D02*
X0131885Y0232794D01*
X0133455Y0223974D02*
X0130315Y0223974D01*
X0142203Y0223900D02*
X0142203Y0227040D01*
X0143773Y0227040D01*
X0144296Y0226516D01*
X0144296Y0225470D01*
X0143773Y0224947D01*
X0142203Y0224947D01*
X0143250Y0224947D02*
X0144296Y0223900D01*
X0145828Y0223900D02*
X0147921Y0223900D01*
X0146875Y0223900D02*
X0146875Y0227040D01*
X0145828Y0225993D01*
X0149453Y0225470D02*
X0150500Y0225993D01*
X0151023Y0225993D01*
X0151546Y0225470D01*
X0151546Y0224423D01*
X0151023Y0223900D01*
X0149977Y0223900D01*
X0149453Y0224423D01*
X0149453Y0225470D02*
X0149453Y0227040D01*
X0151546Y0227040D01*
X0153932Y0218751D02*
X0153932Y0216657D01*
X0152363Y0218227D01*
X0155502Y0218227D01*
X0155502Y0215125D02*
X0155502Y0213032D01*
X0155502Y0214079D02*
X0152363Y0214079D01*
X0153409Y0213032D01*
X0152886Y0211500D02*
X0153932Y0211500D01*
X0154456Y0210977D01*
X0154456Y0209407D01*
X0155502Y0209407D02*
X0152363Y0209407D01*
X0152363Y0210977D01*
X0152886Y0211500D01*
X0154456Y0210454D02*
X0155502Y0211500D01*
X0176902Y0215482D02*
X0177425Y0215482D01*
X0177948Y0214959D01*
X0177425Y0233074D02*
X0176378Y0234121D01*
X0181105Y0259727D02*
X0183198Y0262866D01*
X0184731Y0261820D02*
X0185777Y0262866D01*
X0185777Y0259727D01*
X0184731Y0259727D02*
X0186824Y0259727D01*
X0183198Y0259727D02*
X0181105Y0262866D01*
X0242523Y0262866D02*
X0244616Y0259727D01*
X0246148Y0259727D02*
X0248241Y0261820D01*
X0248241Y0262343D01*
X0247718Y0262866D01*
X0246671Y0262866D01*
X0246148Y0262343D01*
X0244616Y0262866D02*
X0242523Y0259727D01*
X0246148Y0259727D02*
X0248241Y0259727D01*
X0253673Y0247280D02*
X0254720Y0247280D01*
X0255243Y0246757D01*
X0255243Y0245187D01*
X0256290Y0245187D02*
X0253150Y0245187D01*
X0253150Y0246757D01*
X0253673Y0247280D01*
X0253673Y0243655D02*
X0253150Y0243132D01*
X0253150Y0242085D01*
X0253673Y0241562D01*
X0254197Y0241562D01*
X0254720Y0242085D01*
X0254720Y0243132D01*
X0255243Y0243655D01*
X0255766Y0243655D01*
X0256290Y0243132D01*
X0256290Y0242085D01*
X0255766Y0241562D01*
X0256290Y0240192D02*
X0256290Y0239145D01*
X0256290Y0239668D02*
X0253150Y0239668D01*
X0253150Y0239145D02*
X0253150Y0240192D01*
X0270473Y0240517D02*
X0273612Y0240517D01*
X0273612Y0242610D01*
X0272043Y0241564D02*
X0272043Y0240517D01*
X0272043Y0238985D02*
X0272043Y0237939D01*
X0272043Y0238985D02*
X0273089Y0238985D01*
X0273612Y0238462D01*
X0273612Y0237415D01*
X0273089Y0236892D01*
X0270996Y0236892D01*
X0270473Y0237415D01*
X0270473Y0238462D01*
X0270996Y0238985D01*
X0270473Y0240517D02*
X0270473Y0242610D01*
X0270473Y0244142D02*
X0270473Y0246235D01*
X0270473Y0245189D02*
X0273612Y0245189D01*
X0273612Y0235360D02*
X0272566Y0234314D01*
X0272566Y0234837D02*
X0272566Y0233267D01*
X0273612Y0233267D02*
X0270473Y0233267D01*
X0270473Y0234837D01*
X0270996Y0235360D01*
X0272043Y0235360D01*
X0272566Y0234837D01*
X0272043Y0231735D02*
X0272043Y0229642D01*
X0271519Y0229642D02*
X0270473Y0230688D01*
X0271519Y0231735D01*
X0273612Y0231735D01*
X0273612Y0229642D02*
X0271519Y0229642D01*
X0270473Y0228110D02*
X0270473Y0226017D01*
X0270473Y0227063D02*
X0273612Y0227063D01*
X0273089Y0223475D02*
X0273612Y0222952D01*
X0273612Y0221905D01*
X0273089Y0221382D01*
X0272043Y0222428D02*
X0272043Y0222952D01*
X0272566Y0223475D01*
X0273089Y0223475D01*
X0272043Y0222952D02*
X0271519Y0223475D01*
X0270996Y0223475D01*
X0270473Y0222952D01*
X0270473Y0221905D01*
X0270996Y0221382D01*
X0270473Y0219850D02*
X0273612Y0219850D01*
X0272566Y0218803D01*
X0273612Y0217757D01*
X0270473Y0217757D01*
X0270996Y0216225D02*
X0270473Y0215701D01*
X0270473Y0214655D01*
X0270996Y0214132D01*
X0271519Y0214132D01*
X0272043Y0214655D01*
X0272043Y0215701D01*
X0272566Y0216225D01*
X0273089Y0216225D01*
X0273612Y0215701D01*
X0273612Y0214655D01*
X0273089Y0214132D01*
X0273089Y0209064D02*
X0273612Y0208541D01*
X0273612Y0207494D01*
X0273089Y0206971D01*
X0272566Y0206971D01*
X0272043Y0207494D01*
X0272043Y0208541D01*
X0272566Y0209064D01*
X0273089Y0209064D01*
X0272043Y0208541D02*
X0271519Y0209064D01*
X0270996Y0209064D01*
X0270473Y0208541D01*
X0270473Y0207494D01*
X0270996Y0206971D01*
X0271519Y0206971D01*
X0272043Y0207494D01*
X0273089Y0205439D02*
X0273612Y0204916D01*
X0273612Y0203869D01*
X0273089Y0203346D01*
X0270996Y0203346D01*
X0270473Y0203869D01*
X0270473Y0204916D01*
X0270996Y0205439D01*
X0267313Y0203946D02*
X0267313Y0201853D01*
X0265220Y0203946D01*
X0264697Y0203946D01*
X0264174Y0203423D01*
X0264174Y0202376D01*
X0264697Y0201853D01*
X0264697Y0200321D02*
X0266790Y0200321D01*
X0267313Y0199797D01*
X0267313Y0198751D01*
X0266790Y0198228D01*
X0264697Y0198228D01*
X0264174Y0198751D01*
X0264174Y0199797D01*
X0264697Y0200321D01*
X0266267Y0199274D02*
X0267313Y0200321D01*
X0256290Y0204419D02*
X0255766Y0203895D01*
X0256290Y0204419D02*
X0256290Y0205465D01*
X0255766Y0205988D01*
X0255243Y0205988D01*
X0254720Y0205465D01*
X0254720Y0204419D01*
X0254196Y0203895D01*
X0253673Y0203895D01*
X0253150Y0204419D01*
X0253150Y0205465D01*
X0253673Y0205988D01*
X0253150Y0207520D02*
X0256290Y0207520D01*
X0255243Y0208567D01*
X0256290Y0209614D01*
X0253150Y0209614D01*
X0253673Y0211146D02*
X0253150Y0211669D01*
X0253150Y0212715D01*
X0253673Y0213239D01*
X0254196Y0213239D01*
X0256290Y0211146D01*
X0256290Y0213239D01*
X0281890Y0206308D02*
X0282413Y0206308D01*
X0284507Y0204215D01*
X0285030Y0204215D01*
X0285030Y0202683D02*
X0283983Y0201636D01*
X0283983Y0202160D02*
X0283983Y0200590D01*
X0285030Y0200590D02*
X0281890Y0200590D01*
X0281890Y0202160D01*
X0282413Y0202683D01*
X0283460Y0202683D01*
X0283983Y0202160D01*
X0281890Y0204215D02*
X0281890Y0206308D01*
X0282413Y0195284D02*
X0282937Y0195284D01*
X0283460Y0194761D01*
X0283460Y0193715D01*
X0282937Y0193191D01*
X0282413Y0193191D01*
X0281890Y0193715D01*
X0281890Y0194761D01*
X0282413Y0195284D01*
X0283460Y0194761D02*
X0283983Y0195284D01*
X0284507Y0195284D01*
X0285030Y0194761D01*
X0285030Y0193715D01*
X0284507Y0193191D01*
X0283983Y0193191D01*
X0283460Y0193715D01*
X0283460Y0191659D02*
X0282413Y0191659D01*
X0281890Y0191136D01*
X0281890Y0189566D01*
X0285030Y0189566D01*
X0283983Y0189566D02*
X0283983Y0191136D01*
X0283460Y0191659D01*
X0283983Y0190613D02*
X0285030Y0191659D01*
X0285040Y0185836D02*
X0285040Y0183743D01*
X0286610Y0183743D01*
X0286086Y0184789D01*
X0286086Y0185312D01*
X0286610Y0185836D01*
X0287656Y0185836D01*
X0288179Y0185312D01*
X0288179Y0184266D01*
X0287656Y0183743D01*
X0287656Y0182211D02*
X0288179Y0181687D01*
X0288179Y0180641D01*
X0287656Y0180117D01*
X0285563Y0180117D01*
X0285040Y0180641D01*
X0285040Y0181687D01*
X0285563Y0182211D01*
X0287323Y0178221D02*
X0288893Y0178221D01*
X0289416Y0177698D01*
X0289416Y0176651D01*
X0288893Y0176128D01*
X0287323Y0176128D01*
X0288369Y0176128D02*
X0289416Y0175081D01*
X0290948Y0175081D02*
X0293041Y0175081D01*
X0291994Y0175081D02*
X0291994Y0178221D01*
X0290948Y0177174D01*
X0287323Y0178221D02*
X0287323Y0175081D01*
X0286245Y0168772D02*
X0286245Y0165632D01*
X0287291Y0165632D02*
X0285198Y0165632D01*
X0283666Y0166156D02*
X0283143Y0165632D01*
X0282096Y0165632D01*
X0281573Y0166156D01*
X0281573Y0168249D01*
X0282096Y0168772D01*
X0283143Y0168772D01*
X0283666Y0168249D01*
X0285198Y0167725D02*
X0286245Y0168772D01*
X0288823Y0168249D02*
X0289347Y0168772D01*
X0290393Y0168772D01*
X0290917Y0168249D01*
X0290917Y0167725D01*
X0290393Y0167202D01*
X0290917Y0166679D01*
X0290917Y0166156D01*
X0290393Y0165632D01*
X0289347Y0165632D01*
X0288823Y0166156D01*
X0289870Y0167202D02*
X0290393Y0167202D01*
X0294803Y0175081D02*
X0294803Y0178221D01*
X0296373Y0178221D01*
X0296896Y0177698D01*
X0296896Y0176651D01*
X0296373Y0176128D01*
X0294803Y0176128D01*
X0295850Y0176128D02*
X0296896Y0175081D01*
X0298428Y0175604D02*
X0298951Y0175081D01*
X0299998Y0175081D01*
X0300521Y0175604D01*
X0300521Y0176128D01*
X0299998Y0176651D01*
X0298428Y0176651D01*
X0298428Y0175604D01*
X0298428Y0176651D02*
X0299475Y0177698D01*
X0300521Y0178221D01*
X0306300Y0172558D02*
X0306823Y0173081D01*
X0308916Y0170988D01*
X0309439Y0171511D01*
X0309439Y0172558D01*
X0308916Y0173081D01*
X0306823Y0173081D01*
X0306300Y0172558D02*
X0306300Y0171511D01*
X0306823Y0170988D01*
X0308916Y0170988D01*
X0309439Y0169456D02*
X0309439Y0167363D01*
X0309439Y0168410D02*
X0306300Y0168410D01*
X0307346Y0167363D01*
X0306823Y0165831D02*
X0306300Y0165308D01*
X0306300Y0164261D01*
X0306823Y0163738D01*
X0308916Y0163738D01*
X0309439Y0164261D01*
X0309439Y0165308D01*
X0308916Y0165831D01*
X0311024Y0165939D02*
X0311024Y0164369D01*
X0314164Y0164369D01*
X0313117Y0164369D02*
X0313117Y0165939D01*
X0312594Y0166462D01*
X0311547Y0166462D01*
X0311024Y0165939D01*
X0311547Y0167994D02*
X0311024Y0168518D01*
X0311024Y0169564D01*
X0311547Y0170088D01*
X0312070Y0170088D01*
X0314164Y0167994D01*
X0314164Y0170088D01*
X0315748Y0169564D02*
X0316272Y0170088D01*
X0316795Y0170088D01*
X0317318Y0169564D01*
X0317841Y0170088D01*
X0318365Y0170088D01*
X0318888Y0169564D01*
X0318888Y0168518D01*
X0318365Y0167994D01*
X0317318Y0169041D02*
X0317318Y0169564D01*
X0315748Y0169564D02*
X0315748Y0168518D01*
X0316272Y0167994D01*
X0316272Y0166462D02*
X0317318Y0166462D01*
X0317841Y0165939D01*
X0317841Y0164369D01*
X0317841Y0165416D02*
X0318888Y0166462D01*
X0320473Y0165545D02*
X0320473Y0164499D01*
X0320996Y0163976D01*
X0323089Y0163976D01*
X0323612Y0164499D01*
X0323612Y0165545D01*
X0323089Y0166069D01*
X0323089Y0167601D02*
X0323612Y0167601D01*
X0323089Y0167601D02*
X0320996Y0169694D01*
X0320473Y0169694D01*
X0320473Y0167601D01*
X0320996Y0166069D02*
X0320473Y0165545D01*
X0318888Y0164369D02*
X0315748Y0164369D01*
X0315748Y0165939D01*
X0316272Y0166462D01*
X0314164Y0166462D02*
X0313117Y0165416D01*
X0324880Y0153418D02*
X0326450Y0153418D01*
X0326973Y0152894D01*
X0326973Y0151848D01*
X0326450Y0151325D01*
X0324880Y0151325D01*
X0325927Y0151325D02*
X0326973Y0150278D01*
X0328505Y0150278D02*
X0330599Y0150278D01*
X0329552Y0150278D02*
X0329552Y0153418D01*
X0328505Y0152371D01*
X0332131Y0152894D02*
X0332654Y0153418D01*
X0333700Y0153418D01*
X0334224Y0152894D01*
X0332131Y0150801D01*
X0332654Y0150278D01*
X0333700Y0150278D01*
X0334224Y0150801D01*
X0334224Y0152894D01*
X0332131Y0152894D02*
X0332131Y0150801D01*
X0332807Y0146968D02*
X0332284Y0146445D01*
X0332284Y0145399D01*
X0332807Y0144875D01*
X0334900Y0144875D01*
X0335423Y0145399D01*
X0335423Y0146445D01*
X0334900Y0146968D01*
X0332807Y0146968D01*
X0332284Y0143505D02*
X0332284Y0142458D01*
X0332284Y0142982D02*
X0335423Y0142982D01*
X0335423Y0143505D02*
X0335423Y0142458D01*
X0334900Y0140926D02*
X0332807Y0140926D01*
X0332284Y0140403D01*
X0332284Y0138833D01*
X0335423Y0138833D01*
X0335423Y0140403D01*
X0334900Y0140926D01*
X0337796Y0138919D02*
X0340935Y0138919D01*
X0340935Y0137873D02*
X0340935Y0139966D01*
X0340935Y0141498D02*
X0340935Y0142021D01*
X0340412Y0142021D01*
X0340412Y0141498D01*
X0340935Y0141498D01*
X0340412Y0143310D02*
X0338319Y0145403D01*
X0340412Y0145403D01*
X0340935Y0144880D01*
X0340935Y0143833D01*
X0340412Y0143310D01*
X0338319Y0143310D01*
X0337796Y0143833D01*
X0337796Y0144880D01*
X0338319Y0145403D01*
X0338319Y0148109D02*
X0337796Y0148632D01*
X0337796Y0149679D01*
X0338319Y0150202D01*
X0340412Y0148109D01*
X0340935Y0148632D01*
X0340935Y0149679D01*
X0340412Y0150202D01*
X0338319Y0150202D01*
X0338319Y0148109D02*
X0340412Y0148109D01*
X0340412Y0151734D02*
X0340412Y0152257D01*
X0340935Y0152257D01*
X0340935Y0151734D01*
X0340412Y0151734D01*
X0340412Y0153546D02*
X0338319Y0155640D01*
X0340412Y0155640D01*
X0340935Y0155116D01*
X0340935Y0154070D01*
X0340412Y0153546D01*
X0338319Y0153546D01*
X0337796Y0154070D01*
X0337796Y0155116D01*
X0338319Y0155640D01*
X0338319Y0157951D02*
X0337796Y0158475D01*
X0337796Y0159521D01*
X0338319Y0160044D01*
X0340412Y0157951D01*
X0340935Y0158475D01*
X0340935Y0159521D01*
X0340412Y0160044D01*
X0338319Y0160044D01*
X0338319Y0157951D02*
X0340412Y0157951D01*
X0340412Y0161576D02*
X0340412Y0162100D01*
X0340935Y0162100D01*
X0340935Y0161576D01*
X0340412Y0161576D01*
X0340935Y0163389D02*
X0340935Y0165482D01*
X0340935Y0164436D02*
X0337796Y0164436D01*
X0338842Y0163389D01*
X0338319Y0167794D02*
X0337796Y0168317D01*
X0337796Y0169364D01*
X0338319Y0169887D01*
X0340412Y0167794D01*
X0340935Y0168317D01*
X0340935Y0169364D01*
X0340412Y0169887D01*
X0338319Y0169887D01*
X0338319Y0167794D02*
X0340412Y0167794D01*
X0340412Y0171419D02*
X0340412Y0171942D01*
X0340935Y0171942D01*
X0340935Y0171419D01*
X0340412Y0171419D01*
X0339365Y0173231D02*
X0339365Y0175325D01*
X0337796Y0174801D02*
X0339365Y0173231D01*
X0337796Y0174801D02*
X0340935Y0174801D01*
X0340412Y0178030D02*
X0338319Y0178030D01*
X0337796Y0178553D01*
X0337796Y0179600D01*
X0338319Y0180123D01*
X0340412Y0178030D01*
X0340935Y0178553D01*
X0340935Y0179600D01*
X0340412Y0180123D01*
X0338319Y0180123D01*
X0340412Y0181655D02*
X0340412Y0182178D01*
X0340935Y0182178D01*
X0340935Y0181655D01*
X0340412Y0181655D01*
X0340412Y0183468D02*
X0340935Y0183991D01*
X0340935Y0185038D01*
X0340412Y0185561D01*
X0339365Y0185561D01*
X0338842Y0185038D01*
X0338842Y0184514D01*
X0339365Y0183468D01*
X0337796Y0183468D01*
X0337796Y0185561D01*
X0338319Y0188266D02*
X0337796Y0188789D01*
X0337796Y0189836D01*
X0338319Y0190359D01*
X0340412Y0188266D01*
X0340935Y0188789D01*
X0340935Y0189836D01*
X0340412Y0190359D01*
X0338319Y0190359D01*
X0338319Y0188266D02*
X0340412Y0188266D01*
X0340412Y0191891D02*
X0340412Y0192415D01*
X0340935Y0192415D01*
X0340935Y0191891D01*
X0340412Y0191891D01*
X0340412Y0193704D02*
X0338319Y0195797D01*
X0337796Y0195797D01*
X0337796Y0193704D01*
X0340412Y0193704D02*
X0340935Y0193704D01*
X0340412Y0197715D02*
X0338319Y0199808D01*
X0340412Y0199808D01*
X0340935Y0199285D01*
X0340935Y0198238D01*
X0340412Y0197715D01*
X0338319Y0197715D01*
X0337796Y0198238D01*
X0337796Y0199285D01*
X0338319Y0199808D01*
X0340412Y0201340D02*
X0340412Y0201863D01*
X0340935Y0201863D01*
X0340935Y0201340D01*
X0340412Y0201340D01*
X0340412Y0203153D02*
X0340935Y0203676D01*
X0340935Y0204723D01*
X0340412Y0205246D01*
X0339889Y0205246D01*
X0339365Y0204723D01*
X0339365Y0203153D01*
X0340412Y0203153D01*
X0339365Y0203153D02*
X0338319Y0204199D01*
X0337796Y0205246D01*
X0338319Y0207951D02*
X0337796Y0208475D01*
X0337796Y0209521D01*
X0338319Y0210044D01*
X0340412Y0207951D01*
X0340935Y0208475D01*
X0340935Y0209521D01*
X0340412Y0210044D01*
X0338319Y0210044D01*
X0338319Y0207951D02*
X0340412Y0207951D01*
X0340412Y0211576D02*
X0340412Y0212100D01*
X0340935Y0212100D01*
X0340935Y0211576D01*
X0340412Y0211576D01*
X0340412Y0213389D02*
X0340935Y0213912D01*
X0340935Y0214959D01*
X0340412Y0215482D01*
X0339889Y0215482D01*
X0339365Y0214959D01*
X0339365Y0214436D01*
X0339365Y0214959D02*
X0338842Y0215482D01*
X0338319Y0215482D01*
X0337796Y0214959D01*
X0337796Y0213912D01*
X0338319Y0213389D01*
X0338319Y0217794D02*
X0337796Y0218317D01*
X0337796Y0219364D01*
X0338319Y0219887D01*
X0340412Y0217794D01*
X0340935Y0218317D01*
X0340935Y0219364D01*
X0340412Y0219887D01*
X0338319Y0219887D01*
X0338319Y0217794D02*
X0340412Y0217794D01*
X0340412Y0221419D02*
X0340412Y0221942D01*
X0340935Y0221942D01*
X0340935Y0221419D01*
X0340412Y0221419D01*
X0340935Y0223231D02*
X0338842Y0225325D01*
X0338319Y0225325D01*
X0337796Y0224801D01*
X0337796Y0223755D01*
X0338319Y0223231D01*
X0340935Y0223231D02*
X0340935Y0225325D01*
X0340935Y0227636D02*
X0340935Y0229729D01*
X0340935Y0228683D02*
X0337796Y0228683D01*
X0338842Y0227636D01*
X0340412Y0231261D02*
X0340412Y0231785D01*
X0340935Y0231785D01*
X0340935Y0231261D01*
X0340412Y0231261D01*
X0340935Y0233074D02*
X0340935Y0235167D01*
X0340935Y0234121D02*
X0337796Y0234121D01*
X0338842Y0233074D01*
X0338319Y0237360D02*
X0340412Y0237360D01*
X0340935Y0237883D01*
X0340935Y0238930D01*
X0340412Y0239453D01*
X0339365Y0239453D01*
X0339365Y0238406D01*
X0338319Y0237360D02*
X0337796Y0237883D01*
X0337796Y0238930D01*
X0338319Y0239453D01*
X0337796Y0240985D02*
X0340935Y0243078D01*
X0337796Y0243078D01*
X0337796Y0244610D02*
X0337796Y0246180D01*
X0338319Y0246703D01*
X0340412Y0246703D01*
X0340935Y0246180D01*
X0340935Y0244610D01*
X0337796Y0244610D01*
X0337796Y0240985D02*
X0340935Y0240985D01*
X0335164Y0247596D02*
X0336211Y0248643D01*
X0335164Y0249689D01*
X0333071Y0249689D01*
X0333071Y0251221D02*
X0333071Y0252791D01*
X0333594Y0253314D01*
X0334641Y0253314D01*
X0335164Y0252791D01*
X0335164Y0251221D01*
X0336211Y0251221D02*
X0333071Y0251221D01*
X0333071Y0247596D02*
X0335164Y0247596D01*
X0327156Y0252294D02*
X0326633Y0251771D01*
X0324539Y0251771D01*
X0324016Y0252294D01*
X0324016Y0253341D01*
X0324539Y0253864D01*
X0326633Y0253864D01*
X0327156Y0253341D01*
X0327156Y0252294D01*
X0326109Y0252817D02*
X0327156Y0253864D01*
X0327156Y0255396D02*
X0327156Y0257489D01*
X0327156Y0256443D02*
X0324016Y0256443D01*
X0325063Y0255396D01*
X0333071Y0254846D02*
X0333071Y0256416D01*
X0333594Y0256940D01*
X0334641Y0256940D01*
X0335164Y0256416D01*
X0335164Y0254846D01*
X0336211Y0254846D02*
X0333071Y0254846D01*
X0342523Y0259727D02*
X0344616Y0262866D01*
X0346148Y0261820D02*
X0347194Y0262866D01*
X0347194Y0259727D01*
X0346148Y0259727D02*
X0348241Y0259727D01*
X0344616Y0259727D02*
X0342523Y0262866D01*
X0303671Y0253288D02*
X0303148Y0253811D01*
X0302101Y0253811D01*
X0301578Y0253288D01*
X0300046Y0253288D02*
X0299523Y0253811D01*
X0298476Y0253811D01*
X0297953Y0253288D01*
X0297953Y0251195D01*
X0298476Y0250672D01*
X0299523Y0250672D01*
X0300046Y0251195D01*
X0301578Y0250672D02*
X0303671Y0252765D01*
X0303671Y0253288D01*
X0303671Y0250672D02*
X0301578Y0250672D01*
X0289498Y0250672D02*
X0287405Y0250672D01*
X0288451Y0250672D02*
X0288451Y0253811D01*
X0287405Y0252765D01*
X0285873Y0253811D02*
X0285873Y0251195D01*
X0285349Y0250672D01*
X0284303Y0250672D01*
X0283779Y0251195D01*
X0283779Y0253811D01*
X0292256Y0233318D02*
X0292779Y0233318D01*
X0293302Y0232794D01*
X0293826Y0233318D01*
X0294349Y0233318D01*
X0294872Y0232794D01*
X0294872Y0231748D01*
X0294349Y0231224D01*
X0293302Y0232271D02*
X0293302Y0232794D01*
X0292256Y0233318D02*
X0291733Y0232794D01*
X0291733Y0231748D01*
X0292256Y0231224D01*
X0291733Y0228646D02*
X0294872Y0228646D01*
X0294872Y0229692D02*
X0294872Y0227599D01*
X0294872Y0226067D02*
X0293826Y0225021D01*
X0293826Y0225544D02*
X0293826Y0223974D01*
X0294872Y0223974D02*
X0291733Y0223974D01*
X0291733Y0225544D01*
X0292256Y0226067D01*
X0293302Y0226067D01*
X0293826Y0225544D01*
X0292779Y0227599D02*
X0291733Y0228646D01*
X0303620Y0227040D02*
X0303620Y0223900D01*
X0303620Y0224947D02*
X0305190Y0224947D01*
X0305714Y0225470D01*
X0305714Y0226516D01*
X0305190Y0227040D01*
X0303620Y0227040D01*
X0304667Y0224947D02*
X0305714Y0223900D01*
X0307246Y0223900D02*
X0309339Y0223900D01*
X0308292Y0223900D02*
X0308292Y0227040D01*
X0307246Y0225993D01*
X0310871Y0225470D02*
X0311917Y0225993D01*
X0312441Y0225993D01*
X0312964Y0225470D01*
X0312964Y0224423D01*
X0312441Y0223900D01*
X0311394Y0223900D01*
X0310871Y0224423D01*
X0310871Y0225470D02*
X0310871Y0227040D01*
X0312964Y0227040D01*
X0315350Y0218751D02*
X0315350Y0216657D01*
X0313780Y0218227D01*
X0316920Y0218227D01*
X0316920Y0215125D02*
X0316920Y0213032D01*
X0316920Y0214079D02*
X0313780Y0214079D01*
X0314826Y0213032D01*
X0314303Y0211500D02*
X0315350Y0211500D01*
X0315873Y0210977D01*
X0315873Y0209407D01*
X0316920Y0209407D02*
X0313780Y0209407D01*
X0313780Y0210977D01*
X0314303Y0211500D01*
X0315873Y0210454D02*
X0316920Y0211500D01*
X0308258Y0207360D02*
X0308258Y0206313D01*
X0307735Y0205790D01*
X0306688Y0205790D01*
X0306688Y0207360D01*
X0307212Y0207883D01*
X0307735Y0207883D01*
X0308258Y0207360D01*
X0306688Y0205790D02*
X0305642Y0206836D01*
X0305118Y0207883D01*
X0305642Y0204258D02*
X0305118Y0203734D01*
X0305118Y0202688D01*
X0305642Y0202165D01*
X0307735Y0202165D01*
X0308258Y0202688D01*
X0308258Y0203734D01*
X0307735Y0204258D01*
X0299597Y0204683D02*
X0296457Y0204683D01*
X0296457Y0206253D01*
X0296980Y0206776D01*
X0298027Y0206776D01*
X0298550Y0206253D01*
X0298550Y0204683D01*
X0298550Y0205729D02*
X0299597Y0206776D01*
X0299597Y0208308D02*
X0299597Y0210401D01*
X0299597Y0209354D02*
X0296457Y0209354D01*
X0297504Y0208308D01*
X0296980Y0211933D02*
X0296457Y0212456D01*
X0296457Y0213503D01*
X0296980Y0214026D01*
X0297504Y0214026D01*
X0299597Y0211933D01*
X0299597Y0214026D01*
X0299602Y0197565D02*
X0299602Y0195995D01*
X0299078Y0195472D01*
X0298555Y0195472D01*
X0298032Y0195995D01*
X0298032Y0197042D01*
X0298555Y0197565D01*
X0300648Y0197565D01*
X0301172Y0197042D01*
X0301172Y0195995D01*
X0300648Y0195472D01*
X0301172Y0193940D02*
X0300125Y0192893D01*
X0300125Y0193416D02*
X0300125Y0191847D01*
X0301172Y0191847D02*
X0298032Y0191847D01*
X0298032Y0193416D01*
X0298555Y0193940D01*
X0299602Y0193940D01*
X0300125Y0193416D01*
X0327559Y0190700D02*
X0327559Y0189391D01*
X0328213Y0188736D01*
X0328213Y0187004D02*
X0327559Y0186350D01*
X0327559Y0185040D01*
X0328213Y0184386D01*
X0330832Y0184386D01*
X0331487Y0185040D01*
X0331487Y0186350D01*
X0330832Y0187004D01*
X0331487Y0188736D02*
X0328868Y0191354D01*
X0328213Y0191354D01*
X0327559Y0190700D01*
X0331487Y0191354D02*
X0331487Y0188736D01*
X0331487Y0182795D02*
X0331487Y0181486D01*
X0331487Y0182140D02*
X0327559Y0182140D01*
X0327559Y0181486D02*
X0327559Y0182795D01*
X0324880Y0153418D02*
X0324880Y0150278D01*
X0314951Y0144341D02*
X0314951Y0142248D01*
X0314951Y0143295D02*
X0311811Y0143295D01*
X0312858Y0142248D01*
X0313381Y0140716D02*
X0313904Y0140193D01*
X0313904Y0138623D01*
X0313904Y0139669D02*
X0314951Y0140716D01*
X0313381Y0140716D02*
X0312335Y0140716D01*
X0311811Y0140193D01*
X0311811Y0138623D01*
X0314951Y0138623D01*
X0314951Y0136044D02*
X0311811Y0136044D01*
X0311811Y0134998D02*
X0311811Y0137091D01*
X0307864Y0141507D02*
X0307864Y0142554D01*
X0307864Y0142031D02*
X0304725Y0142031D01*
X0304725Y0142554D02*
X0304725Y0141507D01*
X0305248Y0143924D02*
X0307341Y0143924D01*
X0307864Y0144447D01*
X0307864Y0145494D01*
X0307341Y0146017D01*
X0307864Y0147549D02*
X0307864Y0149642D01*
X0307864Y0148596D02*
X0304725Y0148596D01*
X0305771Y0147549D01*
X0305248Y0146017D02*
X0304725Y0145494D01*
X0304725Y0144447D01*
X0305248Y0143924D01*
X0285817Y0138116D02*
X0285817Y0136023D01*
X0285817Y0137069D02*
X0282678Y0137069D01*
X0283724Y0136023D01*
X0283201Y0134491D02*
X0282678Y0133968D01*
X0282678Y0132921D01*
X0283201Y0132398D01*
X0285294Y0132398D01*
X0285817Y0132921D01*
X0285817Y0133968D01*
X0285294Y0134491D01*
X0284242Y0131172D02*
X0281103Y0131172D01*
X0281103Y0132218D02*
X0281103Y0130125D01*
X0281103Y0128593D02*
X0281103Y0126500D01*
X0284242Y0126500D01*
X0284242Y0128593D01*
X0282673Y0127546D02*
X0282673Y0126500D01*
X0283196Y0124968D02*
X0283719Y0124968D01*
X0284242Y0124445D01*
X0284242Y0123398D01*
X0283719Y0122875D01*
X0282673Y0123398D02*
X0282673Y0124445D01*
X0283196Y0124968D01*
X0281626Y0124968D02*
X0281103Y0124445D01*
X0281103Y0123398D01*
X0281626Y0122875D01*
X0282149Y0122875D01*
X0282673Y0123398D01*
X0284242Y0121343D02*
X0284242Y0119250D01*
X0281103Y0119250D01*
X0281103Y0121343D01*
X0282673Y0120296D02*
X0282673Y0119250D01*
X0282673Y0117718D02*
X0281626Y0117718D01*
X0281103Y0117194D01*
X0281103Y0115625D01*
X0284242Y0115625D01*
X0283196Y0115625D02*
X0283196Y0117194D01*
X0282673Y0117718D01*
X0283196Y0116671D02*
X0284242Y0117718D01*
X0275406Y0113270D02*
X0273313Y0113270D01*
X0274360Y0113270D02*
X0274360Y0116410D01*
X0273313Y0115363D01*
X0271781Y0115886D02*
X0271258Y0116410D01*
X0269688Y0116410D01*
X0269688Y0113270D01*
X0271258Y0113270D01*
X0271781Y0113793D01*
X0271781Y0115886D01*
X0268156Y0116410D02*
X0266063Y0116410D01*
X0266063Y0113270D01*
X0268156Y0113270D01*
X0267109Y0114840D02*
X0266063Y0114840D01*
X0264531Y0113270D02*
X0262438Y0113270D01*
X0262438Y0116410D01*
X0261014Y0126336D02*
X0257874Y0126336D01*
X0257874Y0127906D01*
X0258398Y0128429D01*
X0259444Y0128429D01*
X0259967Y0127906D01*
X0259967Y0126336D01*
X0259967Y0127383D02*
X0261014Y0128429D01*
X0261014Y0129961D02*
X0261014Y0132055D01*
X0261014Y0131008D02*
X0257874Y0131008D01*
X0258921Y0129961D01*
X0256290Y0130329D02*
X0255766Y0129806D01*
X0256290Y0130329D02*
X0256290Y0131375D01*
X0255766Y0131899D01*
X0254720Y0131899D01*
X0254197Y0131375D01*
X0254197Y0130852D01*
X0254720Y0129806D01*
X0253150Y0129806D01*
X0253150Y0131899D01*
X0253673Y0128274D02*
X0254720Y0128274D01*
X0255243Y0127750D01*
X0255243Y0126180D01*
X0256290Y0126180D02*
X0253150Y0126180D01*
X0253150Y0127750D01*
X0253673Y0128274D01*
X0255243Y0127227D02*
X0256290Y0128274D01*
X0258921Y0133587D02*
X0257874Y0134633D01*
X0261014Y0134633D01*
X0261014Y0133587D02*
X0261014Y0135680D01*
X0261547Y0136966D02*
X0262070Y0136966D01*
X0262594Y0137490D01*
X0262594Y0138536D01*
X0263117Y0139059D01*
X0263640Y0139059D01*
X0264164Y0138536D01*
X0264164Y0137490D01*
X0263640Y0136966D01*
X0261547Y0136966D02*
X0261024Y0137490D01*
X0261024Y0138536D01*
X0261547Y0139059D01*
X0261024Y0140591D02*
X0264164Y0140591D01*
X0263117Y0141638D01*
X0264164Y0142684D01*
X0261024Y0142684D01*
X0262070Y0144216D02*
X0261024Y0145263D01*
X0264164Y0145263D01*
X0264164Y0144216D02*
X0264164Y0146310D01*
X0265405Y0159333D02*
X0266452Y0159333D01*
X0266975Y0159856D01*
X0265405Y0159333D02*
X0264882Y0159856D01*
X0264882Y0161949D01*
X0265405Y0162473D01*
X0266452Y0162473D01*
X0266975Y0161949D01*
X0268507Y0160903D02*
X0270600Y0160903D01*
X0270077Y0162473D02*
X0268507Y0160903D01*
X0270077Y0159333D02*
X0270077Y0162473D01*
X0278741Y0158229D02*
X0278741Y0157182D01*
X0279264Y0156659D01*
X0280310Y0157706D02*
X0280310Y0158229D01*
X0280834Y0158752D01*
X0281357Y0158752D01*
X0281880Y0158229D01*
X0281880Y0157182D01*
X0281357Y0156659D01*
X0281357Y0155127D02*
X0281880Y0154604D01*
X0281880Y0153557D01*
X0281357Y0153034D01*
X0279264Y0153034D01*
X0278741Y0153557D01*
X0278741Y0154604D01*
X0279264Y0155127D01*
X0278741Y0158229D02*
X0279264Y0158752D01*
X0279787Y0158752D01*
X0280310Y0158229D01*
X0265095Y0172980D02*
X0264441Y0172325D01*
X0263131Y0172325D01*
X0262477Y0172980D01*
X0260745Y0172980D02*
X0260090Y0172325D01*
X0258781Y0172325D01*
X0258127Y0172980D01*
X0258127Y0175598D01*
X0258781Y0176253D01*
X0260090Y0176253D01*
X0260745Y0175598D01*
X0262477Y0175598D02*
X0263131Y0176253D01*
X0264441Y0176253D01*
X0265095Y0175598D01*
X0265095Y0174944D01*
X0264441Y0174289D01*
X0265095Y0173634D01*
X0265095Y0172980D01*
X0264441Y0174289D02*
X0263786Y0174289D01*
X0256536Y0172325D02*
X0255226Y0172325D01*
X0255881Y0172325D02*
X0255881Y0176253D01*
X0255226Y0176253D02*
X0256536Y0176253D01*
X0256947Y0187204D02*
X0254854Y0187204D01*
X0254331Y0187727D01*
X0254331Y0188774D01*
X0254854Y0189297D01*
X0254854Y0190829D02*
X0255378Y0190829D01*
X0255901Y0191352D01*
X0255901Y0192922D01*
X0256947Y0192922D02*
X0254854Y0192922D01*
X0254331Y0192399D01*
X0254331Y0191352D01*
X0254854Y0190829D01*
X0256947Y0190829D02*
X0257471Y0191352D01*
X0257471Y0192399D01*
X0256947Y0192922D01*
X0256947Y0189297D02*
X0257471Y0188774D01*
X0257471Y0187727D01*
X0256947Y0187204D01*
X0330315Y0129462D02*
X0332408Y0127369D01*
X0331885Y0127892D02*
X0333455Y0129462D01*
X0333455Y0127369D02*
X0330315Y0127369D01*
X0333455Y0125837D02*
X0333455Y0123744D01*
X0330315Y0123744D01*
X0330839Y0122212D02*
X0330315Y0121689D01*
X0330315Y0120642D01*
X0330839Y0120119D01*
X0332932Y0120119D01*
X0333455Y0120642D01*
X0333455Y0121689D01*
X0332932Y0122212D01*
X0333455Y0118587D02*
X0330315Y0118587D01*
X0330315Y0116494D02*
X0333455Y0116494D01*
X0332408Y0117540D01*
X0333455Y0118587D01*
X0332932Y0114962D02*
X0333455Y0114438D01*
X0333455Y0113392D01*
X0332932Y0112869D01*
X0331885Y0113392D02*
X0331885Y0114438D01*
X0332408Y0114962D01*
X0332932Y0114962D01*
X0331885Y0113392D02*
X0331362Y0112869D01*
X0330839Y0112869D01*
X0330315Y0113392D01*
X0330315Y0114438D01*
X0330839Y0114962D01*
X0316132Y0115714D02*
X0316132Y0117807D01*
X0316132Y0116761D02*
X0312992Y0116761D01*
X0314039Y0115714D01*
X0312992Y0114182D02*
X0316132Y0114182D01*
X0312992Y0112089D01*
X0316132Y0112089D01*
X0315609Y0110557D02*
X0313516Y0110557D01*
X0312992Y0110034D01*
X0312992Y0108987D01*
X0313516Y0108464D01*
X0315609Y0108464D01*
X0316132Y0108987D01*
X0316132Y0110034D01*
X0315609Y0110557D01*
X0315609Y0106932D02*
X0316132Y0106409D01*
X0316132Y0105362D01*
X0315609Y0104839D01*
X0313516Y0104839D01*
X0312992Y0105362D01*
X0312992Y0106409D01*
X0313516Y0106932D01*
X0332807Y0131583D02*
X0333330Y0131583D01*
X0333854Y0132106D01*
X0333854Y0133153D01*
X0334377Y0133676D01*
X0334900Y0133676D01*
X0335423Y0133153D01*
X0335423Y0132106D01*
X0334900Y0131583D01*
X0332807Y0131583D02*
X0332284Y0132106D01*
X0332284Y0133153D01*
X0332807Y0133676D01*
X0332284Y0135208D02*
X0335423Y0135208D01*
X0334377Y0136255D01*
X0335423Y0137301D01*
X0332284Y0137301D01*
X0337796Y0138919D02*
X0338842Y0137873D01*
X0249597Y0102241D02*
X0246457Y0102241D01*
X0248027Y0100672D01*
X0248027Y0102765D01*
X0248027Y0099140D02*
X0246980Y0099140D01*
X0246457Y0098616D01*
X0246457Y0097047D01*
X0249597Y0097047D01*
X0248550Y0097047D02*
X0248550Y0098616D01*
X0248027Y0099140D01*
X0248550Y0098093D02*
X0249597Y0099140D01*
X0170069Y0181486D02*
X0170069Y0182795D01*
X0170069Y0182140D02*
X0166141Y0182140D01*
X0166141Y0181486D02*
X0166141Y0182795D01*
X0166796Y0184386D02*
X0169415Y0184386D01*
X0170069Y0185040D01*
X0170069Y0186350D01*
X0169415Y0187004D01*
X0170069Y0188736D02*
X0167451Y0191354D01*
X0166796Y0191354D01*
X0166141Y0190700D01*
X0166141Y0189391D01*
X0166796Y0188736D01*
X0166796Y0187004D02*
X0166141Y0186350D01*
X0166141Y0185040D01*
X0166796Y0184386D01*
X0170069Y0188736D02*
X0170069Y0191354D01*
D11*
X0162595Y0195154D02*
X0162595Y0197909D01*
X0159839Y0197909D01*
X0159839Y0196531D02*
X0161217Y0196531D01*
X0161217Y0195154D01*
X0151572Y0204996D02*
X0151572Y0205390D01*
X0147635Y0205390D01*
X0147635Y0205783D01*
X0147635Y0205390D02*
X0147635Y0204996D01*
X0151572Y0205390D02*
X0151572Y0205783D01*
X0157083Y0208146D02*
X0157083Y0245941D01*
X0174012Y0245941D01*
X0174012Y0208146D01*
X0157083Y0208146D01*
X0157083Y0208631D02*
X0174012Y0208631D01*
X0174012Y0209417D02*
X0157083Y0209417D01*
X0157083Y0210203D02*
X0174012Y0210203D01*
X0174012Y0210989D02*
X0157083Y0210989D01*
X0157083Y0211775D02*
X0174012Y0211775D01*
X0174012Y0212560D02*
X0157083Y0212560D01*
X0157083Y0213346D02*
X0174012Y0213346D01*
X0174012Y0214132D02*
X0157083Y0214132D01*
X0157083Y0214918D02*
X0174012Y0214918D01*
X0174012Y0215704D02*
X0157083Y0215704D01*
X0157083Y0216490D02*
X0174012Y0216490D01*
X0174012Y0217276D02*
X0157083Y0217276D01*
X0157083Y0218062D02*
X0174012Y0218062D01*
X0174012Y0218848D02*
X0157083Y0218848D01*
X0157083Y0219634D02*
X0174012Y0219634D01*
X0174012Y0220420D02*
X0157083Y0220420D01*
X0157083Y0221205D02*
X0174012Y0221205D01*
X0174012Y0221991D02*
X0157083Y0221991D01*
X0157083Y0222777D02*
X0174012Y0222777D01*
X0174012Y0223563D02*
X0157083Y0223563D01*
X0157083Y0224349D02*
X0174012Y0224349D01*
X0174012Y0225135D02*
X0157083Y0225135D01*
X0157083Y0225921D02*
X0174012Y0225921D01*
X0174012Y0226707D02*
X0157083Y0226707D01*
X0157083Y0227493D02*
X0174012Y0227493D01*
X0174012Y0228279D02*
X0157083Y0228279D01*
X0157083Y0229065D02*
X0174012Y0229065D01*
X0174012Y0229851D02*
X0157083Y0229851D01*
X0157083Y0230636D02*
X0174012Y0230636D01*
X0174012Y0231422D02*
X0157083Y0231422D01*
X0157083Y0232208D02*
X0174012Y0232208D01*
X0174012Y0232994D02*
X0157083Y0232994D01*
X0157083Y0233780D02*
X0174012Y0233780D01*
X0174012Y0234566D02*
X0157083Y0234566D01*
X0157083Y0235352D02*
X0174012Y0235352D01*
X0174012Y0236138D02*
X0157083Y0236138D01*
X0157083Y0236924D02*
X0174012Y0236924D01*
X0174012Y0237710D02*
X0157083Y0237710D01*
X0157083Y0238496D02*
X0174012Y0238496D01*
X0174012Y0239281D02*
X0157083Y0239281D01*
X0157083Y0240067D02*
X0174012Y0240067D01*
X0174012Y0240853D02*
X0157083Y0240853D01*
X0157083Y0241639D02*
X0174012Y0241639D01*
X0174012Y0242425D02*
X0157083Y0242425D01*
X0157083Y0243211D02*
X0174012Y0243211D01*
X0174012Y0243997D02*
X0157083Y0243997D01*
X0157083Y0244783D02*
X0174012Y0244783D01*
X0174012Y0245569D02*
X0157083Y0245569D01*
X0155759Y0243321D02*
X0155773Y0243171D01*
X0154521Y0241320D01*
X0154509Y0241209D01*
X0154858Y0240367D01*
X0154793Y0240212D01*
X0150998Y0238663D01*
X0151178Y0239051D02*
X0149012Y0240823D01*
X0146453Y0240035D01*
X0145272Y0237673D01*
X0146650Y0234917D01*
X0149209Y0234720D01*
X0151178Y0236295D01*
X0154524Y0234720D01*
X0153934Y0233933D01*
X0155509Y0232161D01*
X0154131Y0230980D01*
X0152162Y0231965D01*
X0149800Y0230980D01*
X0149406Y0228815D01*
X0147635Y0228815D01*
X0147044Y0231177D01*
X0144879Y0231965D01*
X0143304Y0230783D01*
X0141729Y0232161D01*
X0142910Y0233933D01*
X0141926Y0236295D01*
X0139760Y0236689D01*
X0139760Y0238657D01*
X0142123Y0239051D01*
X0142910Y0241413D01*
X0141729Y0243185D01*
X0142910Y0244366D01*
X0144879Y0243185D01*
X0147044Y0244169D01*
X0147635Y0246335D01*
X0149406Y0246335D01*
X0149800Y0244169D01*
X0152162Y0243185D01*
X0154131Y0244366D01*
X0155312Y0243185D01*
X0154131Y0241413D01*
X0154327Y0240429D01*
X0151178Y0239051D01*
X0150896Y0239281D02*
X0151704Y0239281D01*
X0149936Y0240067D02*
X0153501Y0240067D01*
X0154243Y0240853D02*
X0142723Y0240853D01*
X0142488Y0241209D02*
X0142477Y0241320D01*
X0141224Y0243171D01*
X0141239Y0243321D01*
X0142820Y0244902D01*
X0142970Y0244916D01*
X0144821Y0243664D01*
X0144932Y0243653D01*
X0146770Y0244414D01*
X0146841Y0244501D01*
X0147264Y0246695D01*
X0147380Y0246791D01*
X0149617Y0246791D01*
X0149733Y0246695D01*
X0150156Y0244501D01*
X0150227Y0244414D01*
X0152065Y0243653D01*
X0152176Y0243664D01*
X0154027Y0244916D01*
X0154177Y0244902D01*
X0155759Y0243321D01*
X0155286Y0243211D02*
X0152205Y0243211D01*
X0152100Y0243211D02*
X0144936Y0243211D01*
X0144835Y0243211D02*
X0141755Y0243211D01*
X0142236Y0242425D02*
X0154805Y0242425D01*
X0154281Y0241639D02*
X0142760Y0241639D01*
X0142488Y0241209D02*
X0141727Y0239371D01*
X0141640Y0239300D01*
X0139445Y0238877D01*
X0139350Y0238761D01*
X0139350Y0236524D01*
X0139445Y0236408D01*
X0141640Y0235985D01*
X0141727Y0235914D01*
X0142488Y0234076D01*
X0142477Y0233964D01*
X0141224Y0232113D01*
X0141239Y0231964D01*
X0142820Y0230382D01*
X0142970Y0230368D01*
X0144821Y0231620D01*
X0144932Y0231632D01*
X0146770Y0230870D01*
X0146841Y0230783D01*
X0147264Y0228589D01*
X0147380Y0228493D01*
X0149617Y0228493D01*
X0149733Y0228589D01*
X0150156Y0230783D01*
X0150227Y0230870D01*
X0152065Y0231632D01*
X0152176Y0231620D01*
X0154027Y0230368D01*
X0154177Y0230382D01*
X0155759Y0231964D01*
X0155773Y0232113D01*
X0154521Y0233964D01*
X0154509Y0234076D01*
X0154858Y0234917D01*
X0154793Y0235072D01*
X0150998Y0236622D01*
X0150981Y0236138D02*
X0151512Y0236138D01*
X0149999Y0235352D02*
X0153182Y0235352D01*
X0154408Y0234566D02*
X0142646Y0234566D01*
X0142808Y0233780D02*
X0154070Y0233780D01*
X0154768Y0232994D02*
X0142284Y0232994D01*
X0141760Y0232208D02*
X0155467Y0232208D01*
X0154646Y0231422D02*
X0153247Y0231422D01*
X0150861Y0231422D02*
X0146370Y0231422D01*
X0147179Y0230636D02*
X0149737Y0230636D01*
X0149594Y0229851D02*
X0147376Y0229851D01*
X0147572Y0229065D02*
X0149452Y0229065D01*
X0144156Y0231422D02*
X0142574Y0231422D01*
X0142319Y0235352D02*
X0146433Y0235352D01*
X0146040Y0236138D02*
X0141991Y0236138D01*
X0139760Y0236924D02*
X0145647Y0236924D01*
X0145291Y0237710D02*
X0139760Y0237710D01*
X0139760Y0238496D02*
X0145683Y0238496D01*
X0146076Y0239281D02*
X0142199Y0239281D01*
X0142461Y0240067D02*
X0146557Y0240067D01*
X0150784Y0238854D02*
X0150737Y0238944D01*
X0150686Y0239032D01*
X0150632Y0239119D01*
X0150575Y0239203D01*
X0150514Y0239285D01*
X0150451Y0239364D01*
X0150384Y0239441D01*
X0150315Y0239515D01*
X0150242Y0239587D01*
X0150167Y0239655D01*
X0150089Y0239721D01*
X0150009Y0239784D01*
X0149927Y0239843D01*
X0149842Y0239900D01*
X0149755Y0239953D01*
X0149666Y0240002D01*
X0149576Y0240049D01*
X0149483Y0240091D01*
X0149389Y0240130D01*
X0149294Y0240166D01*
X0149197Y0240198D01*
X0149100Y0240226D01*
X0149001Y0240250D01*
X0148901Y0240270D01*
X0148801Y0240287D01*
X0148700Y0240299D01*
X0148598Y0240308D01*
X0148497Y0240313D01*
X0148395Y0240314D01*
X0148293Y0240311D01*
X0148192Y0240304D01*
X0148090Y0240293D01*
X0147990Y0240278D01*
X0147890Y0240260D01*
X0147790Y0240237D01*
X0147692Y0240211D01*
X0147595Y0240181D01*
X0147499Y0240147D01*
X0147404Y0240110D01*
X0147311Y0240069D01*
X0147220Y0240024D01*
X0147130Y0239976D01*
X0147042Y0239925D01*
X0146957Y0239870D01*
X0146873Y0239812D01*
X0146792Y0239751D01*
X0146713Y0239686D01*
X0146637Y0239619D01*
X0146563Y0239549D01*
X0146492Y0239476D01*
X0146424Y0239400D01*
X0146359Y0239322D01*
X0146297Y0239241D01*
X0146238Y0239158D01*
X0146183Y0239073D01*
X0146130Y0238986D01*
X0146081Y0238896D01*
X0146036Y0238805D01*
X0145994Y0238713D01*
X0145956Y0238618D01*
X0145921Y0238523D01*
X0145891Y0238426D01*
X0145863Y0238328D01*
X0145840Y0238229D01*
X0145821Y0238129D01*
X0145805Y0238028D01*
X0145793Y0237927D01*
X0145785Y0237826D01*
X0145781Y0237724D01*
X0145781Y0237622D01*
X0145785Y0237520D01*
X0145793Y0237419D01*
X0145805Y0237318D01*
X0145821Y0237217D01*
X0145840Y0237117D01*
X0145863Y0237018D01*
X0145891Y0236920D01*
X0145921Y0236823D01*
X0145956Y0236728D01*
X0145994Y0236633D01*
X0146036Y0236541D01*
X0146081Y0236450D01*
X0146130Y0236360D01*
X0146183Y0236273D01*
X0146238Y0236188D01*
X0146297Y0236105D01*
X0146359Y0236024D01*
X0146424Y0235946D01*
X0146492Y0235870D01*
X0146563Y0235797D01*
X0146637Y0235727D01*
X0146713Y0235660D01*
X0146792Y0235595D01*
X0146873Y0235534D01*
X0146957Y0235476D01*
X0147042Y0235421D01*
X0147130Y0235370D01*
X0147220Y0235322D01*
X0147311Y0235277D01*
X0147404Y0235236D01*
X0147499Y0235199D01*
X0147595Y0235165D01*
X0147692Y0235135D01*
X0147790Y0235109D01*
X0147890Y0235086D01*
X0147990Y0235068D01*
X0148090Y0235053D01*
X0148192Y0235042D01*
X0148293Y0235035D01*
X0148395Y0235032D01*
X0148497Y0235033D01*
X0148598Y0235038D01*
X0148700Y0235047D01*
X0148801Y0235059D01*
X0148901Y0235076D01*
X0149001Y0235096D01*
X0149100Y0235120D01*
X0149197Y0235148D01*
X0149294Y0235180D01*
X0149389Y0235216D01*
X0149483Y0235255D01*
X0149576Y0235297D01*
X0149666Y0235344D01*
X0149755Y0235393D01*
X0149842Y0235446D01*
X0149927Y0235503D01*
X0150009Y0235562D01*
X0150089Y0235625D01*
X0150167Y0235691D01*
X0150242Y0235759D01*
X0150315Y0235831D01*
X0150384Y0235905D01*
X0150451Y0235982D01*
X0150514Y0236061D01*
X0150575Y0236143D01*
X0150632Y0236227D01*
X0150686Y0236314D01*
X0150737Y0236402D01*
X0150784Y0236492D01*
X0150213Y0243997D02*
X0146665Y0243997D01*
X0147211Y0244783D02*
X0149688Y0244783D01*
X0149545Y0245569D02*
X0147426Y0245569D01*
X0143525Y0243997D02*
X0142541Y0243997D01*
X0146847Y0250272D02*
X0147241Y0250272D01*
X0147241Y0254209D01*
X0147635Y0254209D01*
X0147241Y0254209D02*
X0146847Y0254209D01*
X0149997Y0254996D02*
X0149997Y0285705D01*
X0120863Y0285705D01*
X0120863Y0254996D01*
X0149997Y0254996D01*
X0147635Y0250272D02*
X0147241Y0250272D01*
X0153515Y0243997D02*
X0154500Y0243997D01*
X0156296Y0253815D02*
X0156296Y0256177D01*
X0161020Y0256177D02*
X0161020Y0253815D01*
X0175981Y0251846D02*
X0179918Y0251846D01*
X0178737Y0253028D01*
X0181099Y0257358D02*
X0181099Y0116807D01*
X0189760Y0116807D01*
X0187398Y0116807D01*
X0189760Y0119169D01*
X0189760Y0116807D01*
X0189760Y0257358D01*
X0181099Y0257358D01*
X0147635Y0222713D02*
X0147241Y0222713D01*
X0147241Y0218776D01*
X0146847Y0218776D01*
X0147241Y0218776D02*
X0147635Y0218776D01*
X0147635Y0216413D02*
X0147241Y0216413D01*
X0147241Y0212476D01*
X0146847Y0212476D01*
X0147241Y0212476D02*
X0147635Y0212476D01*
X0147241Y0216413D02*
X0146847Y0216413D01*
X0146847Y0222713D02*
X0147241Y0222713D01*
X0138579Y0219563D02*
X0138579Y0219169D01*
X0138579Y0218776D01*
X0134642Y0218776D02*
X0134642Y0219169D01*
X0134642Y0219563D01*
X0133855Y0219563D02*
X0133855Y0219169D01*
X0133855Y0218776D01*
X0129918Y0218776D02*
X0129918Y0219169D01*
X0129918Y0219563D01*
X0127556Y0214445D02*
X0125194Y0214445D01*
X0127556Y0214445D02*
X0127556Y0238067D01*
X0125194Y0238067D01*
X0115745Y0238067D02*
X0113383Y0238067D01*
X0113383Y0214445D01*
X0115745Y0214445D01*
X0107871Y0214445D02*
X0105509Y0214445D01*
X0107871Y0214445D02*
X0107871Y0238067D01*
X0105509Y0238067D01*
X0096060Y0238067D02*
X0093698Y0238067D01*
X0093698Y0214445D01*
X0096060Y0214445D01*
X0112595Y0202240D02*
X0112989Y0202240D01*
X0112989Y0198303D01*
X0112595Y0198303D01*
X0112989Y0198303D02*
X0113383Y0198303D01*
X0112005Y0195154D02*
X0110036Y0195154D01*
X0104721Y0197122D02*
X0102753Y0197122D01*
X0102753Y0195154D01*
X0101178Y0190823D02*
X0101178Y0190429D01*
X0097241Y0190429D01*
X0097241Y0190823D01*
X0097241Y0190429D02*
X0097241Y0190035D01*
X0101178Y0190035D02*
X0101178Y0190429D01*
X0104721Y0190626D02*
X0104721Y0190232D01*
X0102753Y0185705D02*
X0102753Y0183736D01*
X0104721Y0183736D01*
X0109052Y0182555D02*
X0116138Y0182555D01*
X0117320Y0183736D02*
X0119288Y0183736D01*
X0119288Y0185705D01*
X0117320Y0190232D02*
X0117320Y0190626D01*
X0119288Y0195154D02*
X0119288Y0197122D01*
X0117320Y0197122D01*
X0119195Y0197909D02*
X0119197Y0197968D01*
X0119203Y0198026D01*
X0119213Y0198084D01*
X0119226Y0198141D01*
X0119244Y0198198D01*
X0119265Y0198253D01*
X0119290Y0198306D01*
X0119318Y0198357D01*
X0119349Y0198407D01*
X0119384Y0198454D01*
X0119422Y0198499D01*
X0119463Y0198542D01*
X0119507Y0198581D01*
X0119553Y0198617D01*
X0119601Y0198651D01*
X0119652Y0198681D01*
X0119705Y0198707D01*
X0119759Y0198730D01*
X0119814Y0198749D01*
X0119871Y0198765D01*
X0119929Y0198777D01*
X0119987Y0198785D01*
X0120046Y0198789D01*
X0120104Y0198789D01*
X0120163Y0198785D01*
X0120221Y0198777D01*
X0120279Y0198765D01*
X0120336Y0198749D01*
X0120391Y0198730D01*
X0120445Y0198707D01*
X0120498Y0198681D01*
X0120549Y0198651D01*
X0120597Y0198617D01*
X0120643Y0198581D01*
X0120687Y0198542D01*
X0120728Y0198499D01*
X0120766Y0198454D01*
X0120801Y0198407D01*
X0120832Y0198357D01*
X0120860Y0198306D01*
X0120885Y0198253D01*
X0120906Y0198198D01*
X0120924Y0198141D01*
X0120937Y0198084D01*
X0120947Y0198026D01*
X0120953Y0197968D01*
X0120955Y0197909D01*
X0120953Y0197850D01*
X0120947Y0197792D01*
X0120937Y0197734D01*
X0120924Y0197677D01*
X0120906Y0197620D01*
X0120885Y0197565D01*
X0120860Y0197512D01*
X0120832Y0197461D01*
X0120801Y0197411D01*
X0120766Y0197364D01*
X0120728Y0197319D01*
X0120687Y0197276D01*
X0120643Y0197237D01*
X0120597Y0197201D01*
X0120549Y0197167D01*
X0120498Y0197137D01*
X0120445Y0197111D01*
X0120391Y0197088D01*
X0120336Y0197069D01*
X0120279Y0197053D01*
X0120221Y0197041D01*
X0120163Y0197033D01*
X0120104Y0197029D01*
X0120046Y0197029D01*
X0119987Y0197033D01*
X0119929Y0197041D01*
X0119871Y0197053D01*
X0119814Y0197069D01*
X0119759Y0197088D01*
X0119705Y0197111D01*
X0119652Y0197137D01*
X0119601Y0197167D01*
X0119553Y0197201D01*
X0119507Y0197237D01*
X0119463Y0197276D01*
X0119422Y0197319D01*
X0119384Y0197364D01*
X0119349Y0197411D01*
X0119318Y0197461D01*
X0119290Y0197512D01*
X0119265Y0197565D01*
X0119244Y0197620D01*
X0119226Y0197677D01*
X0119213Y0197734D01*
X0119203Y0197792D01*
X0119197Y0197850D01*
X0119195Y0197909D01*
X0113383Y0202240D02*
X0112989Y0202240D01*
X0128343Y0201846D02*
X0128737Y0201846D01*
X0128737Y0205783D01*
X0128343Y0205783D01*
X0128737Y0205783D02*
X0129131Y0205783D01*
X0129131Y0201846D02*
X0128737Y0201846D01*
X0128737Y0200272D02*
X0128737Y0196335D01*
X0128343Y0196335D01*
X0128737Y0196335D02*
X0129131Y0196335D01*
X0129131Y0194760D02*
X0128737Y0194760D01*
X0128737Y0190823D01*
X0128343Y0190823D01*
X0128737Y0190823D02*
X0129131Y0190823D01*
X0128737Y0194760D02*
X0128343Y0194760D01*
X0128343Y0200272D02*
X0128737Y0200272D01*
X0129131Y0200272D01*
X0138973Y0198697D02*
X0138975Y0198753D01*
X0138981Y0198808D01*
X0138991Y0198862D01*
X0139004Y0198916D01*
X0139022Y0198969D01*
X0139043Y0199020D01*
X0139067Y0199070D01*
X0139095Y0199118D01*
X0139127Y0199164D01*
X0139161Y0199208D01*
X0139199Y0199249D01*
X0139239Y0199287D01*
X0139282Y0199322D01*
X0139327Y0199354D01*
X0139375Y0199383D01*
X0139424Y0199409D01*
X0139475Y0199431D01*
X0139527Y0199449D01*
X0139581Y0199463D01*
X0139636Y0199474D01*
X0139691Y0199481D01*
X0139746Y0199484D01*
X0139802Y0199483D01*
X0139857Y0199478D01*
X0139912Y0199469D01*
X0139966Y0199457D01*
X0140019Y0199440D01*
X0140071Y0199420D01*
X0140121Y0199396D01*
X0140169Y0199369D01*
X0140216Y0199339D01*
X0140260Y0199305D01*
X0140302Y0199268D01*
X0140340Y0199228D01*
X0140377Y0199186D01*
X0140410Y0199141D01*
X0140439Y0199095D01*
X0140466Y0199046D01*
X0140488Y0198995D01*
X0140508Y0198943D01*
X0140523Y0198889D01*
X0140535Y0198835D01*
X0140543Y0198780D01*
X0140547Y0198725D01*
X0140547Y0198669D01*
X0140543Y0198614D01*
X0140535Y0198559D01*
X0140523Y0198505D01*
X0140508Y0198451D01*
X0140488Y0198399D01*
X0140466Y0198348D01*
X0140439Y0198299D01*
X0140410Y0198253D01*
X0140377Y0198208D01*
X0140340Y0198166D01*
X0140302Y0198126D01*
X0140260Y0198089D01*
X0140216Y0198055D01*
X0140169Y0198025D01*
X0140121Y0197998D01*
X0140071Y0197974D01*
X0140019Y0197954D01*
X0139966Y0197937D01*
X0139912Y0197925D01*
X0139857Y0197916D01*
X0139802Y0197911D01*
X0139746Y0197910D01*
X0139691Y0197913D01*
X0139636Y0197920D01*
X0139581Y0197931D01*
X0139527Y0197945D01*
X0139475Y0197963D01*
X0139424Y0197985D01*
X0139375Y0198011D01*
X0139327Y0198040D01*
X0139282Y0198072D01*
X0139239Y0198107D01*
X0139199Y0198145D01*
X0139161Y0198186D01*
X0139127Y0198230D01*
X0139095Y0198276D01*
X0139067Y0198324D01*
X0139043Y0198374D01*
X0139022Y0198425D01*
X0139004Y0198478D01*
X0138991Y0198532D01*
X0138981Y0198586D01*
X0138975Y0198641D01*
X0138973Y0198697D01*
X0140548Y0197909D02*
X0140548Y0195154D01*
X0141926Y0195154D02*
X0141926Y0196531D01*
X0143304Y0196531D01*
X0143304Y0197909D02*
X0140548Y0197909D01*
X0132280Y0185311D02*
X0131886Y0185311D01*
X0131886Y0181374D01*
X0131493Y0181374D01*
X0131886Y0181374D02*
X0132280Y0181374D01*
X0131886Y0185311D02*
X0131493Y0185311D01*
X0140548Y0178618D02*
X0140548Y0175862D01*
X0143304Y0175862D01*
X0143304Y0177240D02*
X0141926Y0177240D01*
X0141926Y0178618D01*
X0139760Y0173894D02*
X0139367Y0173894D01*
X0139367Y0169957D01*
X0139760Y0169957D01*
X0139367Y0169957D02*
X0138973Y0169957D01*
X0138973Y0173894D02*
X0139367Y0173894D01*
X0135036Y0169169D02*
X0134642Y0169169D01*
X0134642Y0165232D01*
X0134249Y0165232D01*
X0134642Y0165232D02*
X0135036Y0165232D01*
X0134642Y0169169D02*
X0134249Y0169169D01*
X0129524Y0169957D02*
X0129131Y0169957D01*
X0129131Y0173894D01*
X0128737Y0173894D01*
X0129131Y0173894D02*
X0129524Y0173894D01*
X0129131Y0169957D02*
X0128737Y0169957D01*
X0116926Y0169563D02*
X0116928Y0169619D01*
X0116934Y0169674D01*
X0116944Y0169728D01*
X0116957Y0169782D01*
X0116975Y0169835D01*
X0116996Y0169886D01*
X0117020Y0169936D01*
X0117048Y0169984D01*
X0117080Y0170030D01*
X0117114Y0170074D01*
X0117152Y0170115D01*
X0117192Y0170153D01*
X0117235Y0170188D01*
X0117280Y0170220D01*
X0117328Y0170249D01*
X0117377Y0170275D01*
X0117428Y0170297D01*
X0117480Y0170315D01*
X0117534Y0170329D01*
X0117589Y0170340D01*
X0117644Y0170347D01*
X0117699Y0170350D01*
X0117755Y0170349D01*
X0117810Y0170344D01*
X0117865Y0170335D01*
X0117919Y0170323D01*
X0117972Y0170306D01*
X0118024Y0170286D01*
X0118074Y0170262D01*
X0118122Y0170235D01*
X0118169Y0170205D01*
X0118213Y0170171D01*
X0118255Y0170134D01*
X0118293Y0170094D01*
X0118330Y0170052D01*
X0118363Y0170007D01*
X0118392Y0169961D01*
X0118419Y0169912D01*
X0118441Y0169861D01*
X0118461Y0169809D01*
X0118476Y0169755D01*
X0118488Y0169701D01*
X0118496Y0169646D01*
X0118500Y0169591D01*
X0118500Y0169535D01*
X0118496Y0169480D01*
X0118488Y0169425D01*
X0118476Y0169371D01*
X0118461Y0169317D01*
X0118441Y0169265D01*
X0118419Y0169214D01*
X0118392Y0169165D01*
X0118363Y0169119D01*
X0118330Y0169074D01*
X0118293Y0169032D01*
X0118255Y0168992D01*
X0118213Y0168955D01*
X0118169Y0168921D01*
X0118122Y0168891D01*
X0118074Y0168864D01*
X0118024Y0168840D01*
X0117972Y0168820D01*
X0117919Y0168803D01*
X0117865Y0168791D01*
X0117810Y0168782D01*
X0117755Y0168777D01*
X0117699Y0168776D01*
X0117644Y0168779D01*
X0117589Y0168786D01*
X0117534Y0168797D01*
X0117480Y0168811D01*
X0117428Y0168829D01*
X0117377Y0168851D01*
X0117328Y0168877D01*
X0117280Y0168906D01*
X0117235Y0168938D01*
X0117192Y0168973D01*
X0117152Y0169011D01*
X0117114Y0169052D01*
X0117080Y0169096D01*
X0117048Y0169142D01*
X0117020Y0169190D01*
X0116996Y0169240D01*
X0116975Y0169291D01*
X0116957Y0169344D01*
X0116944Y0169398D01*
X0116934Y0169452D01*
X0116928Y0169507D01*
X0116926Y0169563D01*
X0116138Y0170744D02*
X0113776Y0170744D01*
X0113774Y0170811D01*
X0113768Y0170879D01*
X0113759Y0170945D01*
X0113745Y0171011D01*
X0113728Y0171077D01*
X0113707Y0171141D01*
X0113683Y0171204D01*
X0113655Y0171265D01*
X0113623Y0171325D01*
X0113589Y0171382D01*
X0113550Y0171438D01*
X0113509Y0171492D01*
X0113465Y0171543D01*
X0113418Y0171591D01*
X0113368Y0171637D01*
X0113316Y0171679D01*
X0113262Y0171719D01*
X0113205Y0171755D01*
X0113146Y0171789D01*
X0113086Y0171818D01*
X0113023Y0171845D01*
X0112960Y0171867D01*
X0112895Y0171886D01*
X0112830Y0171901D01*
X0112763Y0171913D01*
X0112696Y0171921D01*
X0112629Y0171925D01*
X0112561Y0171925D01*
X0112494Y0171921D01*
X0112427Y0171913D01*
X0112360Y0171901D01*
X0112295Y0171886D01*
X0112230Y0171867D01*
X0112167Y0171845D01*
X0112104Y0171818D01*
X0112044Y0171789D01*
X0111985Y0171755D01*
X0111928Y0171719D01*
X0111874Y0171679D01*
X0111822Y0171637D01*
X0111772Y0171591D01*
X0111725Y0171543D01*
X0111681Y0171492D01*
X0111640Y0171438D01*
X0111601Y0171382D01*
X0111567Y0171325D01*
X0111535Y0171265D01*
X0111507Y0171204D01*
X0111483Y0171141D01*
X0111462Y0171077D01*
X0111445Y0171011D01*
X0111431Y0170945D01*
X0111422Y0170879D01*
X0111416Y0170811D01*
X0111414Y0170744D01*
X0109052Y0170744D01*
X0107083Y0168776D02*
X0106690Y0168776D01*
X0106690Y0164839D01*
X0106296Y0164839D01*
X0106690Y0164839D02*
X0107083Y0164839D01*
X0106690Y0168776D02*
X0106296Y0168776D01*
X0109052Y0175075D02*
X0109052Y0178224D01*
X0110036Y0185705D02*
X0112005Y0185705D01*
X0144485Y0159327D02*
X0144485Y0158933D01*
X0148422Y0158933D01*
X0148422Y0158539D01*
X0148422Y0158933D02*
X0148422Y0159327D01*
X0149209Y0159327D02*
X0149209Y0158933D01*
X0153146Y0158933D01*
X0153146Y0159327D01*
X0153146Y0158933D02*
X0153146Y0158539D01*
X0153934Y0158539D02*
X0153934Y0158933D01*
X0157871Y0158933D01*
X0157871Y0159327D01*
X0157871Y0158933D02*
X0157871Y0158539D01*
X0158658Y0158539D02*
X0158658Y0158933D01*
X0162595Y0158933D01*
X0162595Y0159327D01*
X0162595Y0158933D02*
X0162595Y0158539D01*
X0158658Y0158933D02*
X0158658Y0159327D01*
X0153934Y0159327D02*
X0153934Y0158933D01*
X0149209Y0158933D02*
X0149209Y0158539D01*
X0144485Y0158539D02*
X0144485Y0158933D01*
X0142123Y0149484D02*
X0142123Y0142398D01*
X0137792Y0149484D02*
X0134642Y0149484D01*
X0130312Y0149484D02*
X0130312Y0147122D01*
X0130379Y0147120D01*
X0130447Y0147114D01*
X0130513Y0147105D01*
X0130579Y0147091D01*
X0130645Y0147074D01*
X0130709Y0147053D01*
X0130772Y0147029D01*
X0130833Y0147001D01*
X0130893Y0146969D01*
X0130950Y0146935D01*
X0131006Y0146896D01*
X0131060Y0146855D01*
X0131111Y0146811D01*
X0131159Y0146764D01*
X0131205Y0146714D01*
X0131247Y0146662D01*
X0131287Y0146608D01*
X0131323Y0146551D01*
X0131357Y0146492D01*
X0131386Y0146432D01*
X0131413Y0146369D01*
X0131435Y0146306D01*
X0131454Y0146241D01*
X0131469Y0146176D01*
X0131481Y0146109D01*
X0131489Y0146042D01*
X0131493Y0145975D01*
X0131493Y0145907D01*
X0131489Y0145840D01*
X0131481Y0145773D01*
X0131469Y0145706D01*
X0131454Y0145641D01*
X0131435Y0145576D01*
X0131413Y0145513D01*
X0131386Y0145450D01*
X0131357Y0145390D01*
X0131323Y0145331D01*
X0131287Y0145274D01*
X0131247Y0145220D01*
X0131205Y0145168D01*
X0131159Y0145118D01*
X0131111Y0145071D01*
X0131060Y0145027D01*
X0131006Y0144986D01*
X0130950Y0144947D01*
X0130893Y0144913D01*
X0130833Y0144881D01*
X0130772Y0144853D01*
X0130709Y0144829D01*
X0130645Y0144808D01*
X0130579Y0144791D01*
X0130513Y0144777D01*
X0130447Y0144768D01*
X0130379Y0144762D01*
X0130312Y0144760D01*
X0130312Y0142398D01*
X0128344Y0140823D02*
X0128346Y0140879D01*
X0128352Y0140934D01*
X0128362Y0140988D01*
X0128375Y0141042D01*
X0128393Y0141095D01*
X0128414Y0141146D01*
X0128438Y0141196D01*
X0128466Y0141244D01*
X0128498Y0141290D01*
X0128532Y0141334D01*
X0128570Y0141375D01*
X0128610Y0141413D01*
X0128653Y0141448D01*
X0128698Y0141480D01*
X0128746Y0141509D01*
X0128795Y0141535D01*
X0128846Y0141557D01*
X0128898Y0141575D01*
X0128952Y0141589D01*
X0129007Y0141600D01*
X0129062Y0141607D01*
X0129117Y0141610D01*
X0129173Y0141609D01*
X0129228Y0141604D01*
X0129283Y0141595D01*
X0129337Y0141583D01*
X0129390Y0141566D01*
X0129442Y0141546D01*
X0129492Y0141522D01*
X0129540Y0141495D01*
X0129587Y0141465D01*
X0129631Y0141431D01*
X0129673Y0141394D01*
X0129711Y0141354D01*
X0129748Y0141312D01*
X0129781Y0141267D01*
X0129810Y0141221D01*
X0129837Y0141172D01*
X0129859Y0141121D01*
X0129879Y0141069D01*
X0129894Y0141015D01*
X0129906Y0140961D01*
X0129914Y0140906D01*
X0129918Y0140851D01*
X0129918Y0140795D01*
X0129914Y0140740D01*
X0129906Y0140685D01*
X0129894Y0140631D01*
X0129879Y0140577D01*
X0129859Y0140525D01*
X0129837Y0140474D01*
X0129810Y0140425D01*
X0129781Y0140379D01*
X0129748Y0140334D01*
X0129711Y0140292D01*
X0129673Y0140252D01*
X0129631Y0140215D01*
X0129587Y0140181D01*
X0129540Y0140151D01*
X0129492Y0140124D01*
X0129442Y0140100D01*
X0129390Y0140080D01*
X0129337Y0140063D01*
X0129283Y0140051D01*
X0129228Y0140042D01*
X0129173Y0140037D01*
X0129117Y0140036D01*
X0129062Y0140039D01*
X0129007Y0140046D01*
X0128952Y0140057D01*
X0128898Y0140071D01*
X0128846Y0140089D01*
X0128795Y0140111D01*
X0128746Y0140137D01*
X0128698Y0140166D01*
X0128653Y0140198D01*
X0128610Y0140233D01*
X0128570Y0140271D01*
X0128532Y0140312D01*
X0128498Y0140356D01*
X0128466Y0140402D01*
X0128438Y0140450D01*
X0128414Y0140500D01*
X0128393Y0140551D01*
X0128375Y0140604D01*
X0128362Y0140658D01*
X0128352Y0140712D01*
X0128346Y0140767D01*
X0128344Y0140823D01*
X0127949Y0139248D02*
X0123225Y0139248D01*
X0118107Y0149091D02*
X0118107Y0125469D01*
X0115745Y0125469D01*
X0106296Y0125469D02*
X0103934Y0125469D01*
X0103934Y0149091D01*
X0106296Y0149091D01*
X0115745Y0149091D02*
X0118107Y0149091D01*
X0123225Y0152634D02*
X0127949Y0152634D01*
X0154721Y0142791D02*
X0154721Y0137280D01*
X0158461Y0137280D01*
X0163186Y0137280D02*
X0166532Y0137280D01*
X0166532Y0142791D01*
X0166335Y0142791D01*
X0167122Y0144366D02*
X0167124Y0144414D01*
X0167130Y0144462D01*
X0167140Y0144509D01*
X0167153Y0144555D01*
X0167171Y0144600D01*
X0167191Y0144644D01*
X0167216Y0144686D01*
X0167244Y0144725D01*
X0167274Y0144762D01*
X0167308Y0144796D01*
X0167345Y0144828D01*
X0167383Y0144857D01*
X0167424Y0144882D01*
X0167467Y0144904D01*
X0167512Y0144922D01*
X0167558Y0144936D01*
X0167605Y0144947D01*
X0167653Y0144954D01*
X0167701Y0144957D01*
X0167749Y0144956D01*
X0167797Y0144951D01*
X0167845Y0144942D01*
X0167891Y0144930D01*
X0167936Y0144913D01*
X0167980Y0144893D01*
X0168022Y0144870D01*
X0168062Y0144843D01*
X0168100Y0144813D01*
X0168135Y0144780D01*
X0168167Y0144744D01*
X0168197Y0144706D01*
X0168223Y0144665D01*
X0168245Y0144622D01*
X0168265Y0144578D01*
X0168280Y0144533D01*
X0168292Y0144486D01*
X0168300Y0144438D01*
X0168304Y0144390D01*
X0168304Y0144342D01*
X0168300Y0144294D01*
X0168292Y0144246D01*
X0168280Y0144199D01*
X0168265Y0144154D01*
X0168245Y0144110D01*
X0168223Y0144067D01*
X0168197Y0144026D01*
X0168167Y0143988D01*
X0168135Y0143952D01*
X0168100Y0143919D01*
X0168062Y0143889D01*
X0168022Y0143862D01*
X0167980Y0143839D01*
X0167936Y0143819D01*
X0167891Y0143802D01*
X0167845Y0143790D01*
X0167797Y0143781D01*
X0167749Y0143776D01*
X0167701Y0143775D01*
X0167653Y0143778D01*
X0167605Y0143785D01*
X0167558Y0143796D01*
X0167512Y0143810D01*
X0167467Y0143828D01*
X0167424Y0143850D01*
X0167383Y0143875D01*
X0167345Y0143904D01*
X0167308Y0143936D01*
X0167274Y0143970D01*
X0167244Y0144007D01*
X0167216Y0144046D01*
X0167191Y0144088D01*
X0167171Y0144132D01*
X0167153Y0144177D01*
X0167140Y0144223D01*
X0167130Y0144270D01*
X0167124Y0144318D01*
X0167122Y0144366D01*
X0162005Y0142791D02*
X0159249Y0142791D01*
X0154918Y0142791D02*
X0154721Y0142791D01*
X0157871Y0149878D02*
X0158264Y0149878D01*
X0158264Y0153815D01*
X0157871Y0153815D01*
X0158264Y0153815D02*
X0158658Y0153815D01*
X0158658Y0149878D02*
X0158264Y0149878D01*
X0175194Y0132161D02*
X0179918Y0132161D01*
X0178737Y0133343D01*
X0178737Y0122713D02*
X0179918Y0121531D01*
X0173225Y0121531D01*
X0172831Y0112476D02*
X0180705Y0112476D01*
X0180705Y0095154D01*
X0172831Y0095154D01*
X0172831Y0112476D01*
X0188056Y0117465D02*
X0189760Y0117465D01*
X0189760Y0118251D02*
X0188842Y0118251D01*
X0189628Y0119037D02*
X0189760Y0119037D01*
X0150390Y0111295D02*
X0150390Y0102634D01*
X0150390Y0111295D02*
X0146847Y0111295D01*
X0124012Y0111295D02*
X0120469Y0111295D01*
X0120469Y0102634D01*
X0120469Y0092791D02*
X0120469Y0092004D01*
X0150390Y0092004D01*
X0150390Y0092791D01*
X0099997Y0117201D02*
X0099997Y0117594D01*
X0096060Y0117594D01*
X0096060Y0117201D01*
X0096060Y0117594D02*
X0096060Y0117988D01*
X0095272Y0117988D02*
X0095272Y0117594D01*
X0091335Y0117594D01*
X0091335Y0117201D01*
X0091335Y0117594D02*
X0091335Y0117988D01*
X0089760Y0118251D02*
X0088842Y0118251D01*
X0089628Y0119037D02*
X0089760Y0119037D01*
X0089760Y0119169D02*
X0089760Y0116807D01*
X0087398Y0116807D01*
X0089760Y0119169D01*
X0089760Y0117465D02*
X0088056Y0117465D01*
X0089760Y0116807D02*
X0081099Y0116807D01*
X0081099Y0257358D01*
X0089760Y0257358D01*
X0089760Y0116807D01*
X0095272Y0117201D02*
X0095272Y0117594D01*
X0099997Y0117594D02*
X0099997Y0117988D01*
X0088579Y0108146D02*
X0088579Y0107752D01*
X0084642Y0107752D01*
X0084642Y0107358D01*
X0084642Y0107752D02*
X0084642Y0108146D01*
X0088579Y0107752D02*
X0088579Y0107358D01*
X0159839Y0175862D02*
X0162595Y0175862D01*
X0162595Y0178618D01*
X0161217Y0178618D02*
X0161217Y0177240D01*
X0159839Y0177240D01*
X0242516Y0116807D02*
X0242516Y0257358D01*
X0251178Y0257358D01*
X0251178Y0116807D01*
X0248816Y0116807D01*
X0251178Y0119169D01*
X0251178Y0116807D01*
X0242516Y0116807D01*
X0249473Y0117465D02*
X0251178Y0117465D01*
X0251178Y0118251D02*
X0250259Y0118251D01*
X0251045Y0119037D02*
X0251178Y0119037D01*
X0252753Y0117988D02*
X0252753Y0117594D01*
X0256690Y0117594D01*
X0256690Y0117201D01*
X0256690Y0117594D02*
X0256690Y0117988D01*
X0257477Y0117988D02*
X0257477Y0117594D01*
X0261414Y0117594D01*
X0261414Y0117201D01*
X0261414Y0117594D02*
X0261414Y0117988D01*
X0257477Y0117594D02*
X0257477Y0117201D01*
X0252753Y0117201D02*
X0252753Y0117594D01*
X0249997Y0108146D02*
X0249997Y0107752D01*
X0246060Y0107752D01*
X0246060Y0107358D01*
X0246060Y0107752D02*
X0246060Y0108146D01*
X0249997Y0107752D02*
X0249997Y0107358D01*
X0265351Y0125469D02*
X0265351Y0149091D01*
X0267713Y0149091D01*
X0277162Y0149091D02*
X0279524Y0149091D01*
X0279524Y0125469D01*
X0277162Y0125469D01*
X0267713Y0125469D02*
X0265351Y0125469D01*
X0281886Y0111295D02*
X0281886Y0102634D01*
X0281886Y0111295D02*
X0285430Y0111295D01*
X0308264Y0111295D02*
X0311808Y0111295D01*
X0311808Y0102634D01*
X0311808Y0092791D02*
X0311808Y0092004D01*
X0281886Y0092004D01*
X0281886Y0092791D01*
X0334249Y0095154D02*
X0342123Y0095154D01*
X0342123Y0112476D01*
X0334249Y0112476D01*
X0334249Y0095154D01*
X0342516Y0116807D02*
X0342516Y0257358D01*
X0351178Y0257358D01*
X0351178Y0116807D01*
X0348816Y0116807D01*
X0351178Y0119169D01*
X0351178Y0116807D01*
X0342516Y0116807D01*
X0341335Y0121531D02*
X0334642Y0121531D01*
X0340154Y0122713D02*
X0341335Y0121531D01*
X0349473Y0117465D02*
X0351178Y0117465D01*
X0351178Y0118251D02*
X0350259Y0118251D01*
X0351045Y0119037D02*
X0351178Y0119037D01*
X0341335Y0132161D02*
X0336611Y0132161D01*
X0340154Y0133343D02*
X0341335Y0132161D01*
X0327949Y0137280D02*
X0327949Y0142791D01*
X0327753Y0142791D01*
X0328540Y0144366D02*
X0328542Y0144414D01*
X0328548Y0144462D01*
X0328558Y0144509D01*
X0328571Y0144555D01*
X0328589Y0144600D01*
X0328609Y0144644D01*
X0328634Y0144686D01*
X0328662Y0144725D01*
X0328692Y0144762D01*
X0328726Y0144796D01*
X0328763Y0144828D01*
X0328801Y0144857D01*
X0328842Y0144882D01*
X0328885Y0144904D01*
X0328930Y0144922D01*
X0328976Y0144936D01*
X0329023Y0144947D01*
X0329071Y0144954D01*
X0329119Y0144957D01*
X0329167Y0144956D01*
X0329215Y0144951D01*
X0329263Y0144942D01*
X0329309Y0144930D01*
X0329354Y0144913D01*
X0329398Y0144893D01*
X0329440Y0144870D01*
X0329480Y0144843D01*
X0329518Y0144813D01*
X0329553Y0144780D01*
X0329585Y0144744D01*
X0329615Y0144706D01*
X0329641Y0144665D01*
X0329663Y0144622D01*
X0329683Y0144578D01*
X0329698Y0144533D01*
X0329710Y0144486D01*
X0329718Y0144438D01*
X0329722Y0144390D01*
X0329722Y0144342D01*
X0329718Y0144294D01*
X0329710Y0144246D01*
X0329698Y0144199D01*
X0329683Y0144154D01*
X0329663Y0144110D01*
X0329641Y0144067D01*
X0329615Y0144026D01*
X0329585Y0143988D01*
X0329553Y0143952D01*
X0329518Y0143919D01*
X0329480Y0143889D01*
X0329440Y0143862D01*
X0329398Y0143839D01*
X0329354Y0143819D01*
X0329309Y0143802D01*
X0329263Y0143790D01*
X0329215Y0143781D01*
X0329167Y0143776D01*
X0329119Y0143775D01*
X0329071Y0143778D01*
X0329023Y0143785D01*
X0328976Y0143796D01*
X0328930Y0143810D01*
X0328885Y0143828D01*
X0328842Y0143850D01*
X0328801Y0143875D01*
X0328763Y0143904D01*
X0328726Y0143936D01*
X0328692Y0143970D01*
X0328662Y0144007D01*
X0328634Y0144046D01*
X0328609Y0144088D01*
X0328589Y0144132D01*
X0328571Y0144177D01*
X0328558Y0144223D01*
X0328548Y0144270D01*
X0328542Y0144318D01*
X0328540Y0144366D01*
X0323422Y0142791D02*
X0320666Y0142791D01*
X0316335Y0142791D02*
X0316138Y0142791D01*
X0316138Y0137280D01*
X0319879Y0137280D01*
X0324603Y0137280D02*
X0327949Y0137280D01*
X0320075Y0149878D02*
X0319682Y0149878D01*
X0319682Y0153815D01*
X0319288Y0153815D01*
X0319682Y0153815D02*
X0320075Y0153815D01*
X0320075Y0158539D02*
X0320075Y0158933D01*
X0324012Y0158933D01*
X0324012Y0159327D01*
X0324012Y0158933D02*
X0324012Y0158539D01*
X0320075Y0158933D02*
X0320075Y0159327D01*
X0319288Y0159327D02*
X0319288Y0158933D01*
X0315351Y0158933D01*
X0315351Y0159327D01*
X0315351Y0158933D02*
X0315351Y0158539D01*
X0314564Y0158539D02*
X0314564Y0158933D01*
X0310627Y0158933D01*
X0310627Y0159327D01*
X0310627Y0158933D02*
X0310627Y0158539D01*
X0309839Y0158539D02*
X0309839Y0158933D01*
X0305902Y0158933D01*
X0305902Y0158539D01*
X0305902Y0158933D02*
X0305902Y0159327D01*
X0309839Y0159327D02*
X0309839Y0158933D01*
X0314564Y0158933D02*
X0314564Y0159327D01*
X0319288Y0158933D02*
X0319288Y0158539D01*
X0319288Y0149878D02*
X0319682Y0149878D01*
X0303540Y0149484D02*
X0303540Y0142398D01*
X0299209Y0149484D02*
X0296060Y0149484D01*
X0291729Y0149484D02*
X0291729Y0147122D01*
X0291796Y0147120D01*
X0291864Y0147114D01*
X0291930Y0147105D01*
X0291996Y0147091D01*
X0292062Y0147074D01*
X0292126Y0147053D01*
X0292189Y0147029D01*
X0292250Y0147001D01*
X0292310Y0146969D01*
X0292367Y0146935D01*
X0292423Y0146896D01*
X0292477Y0146855D01*
X0292528Y0146811D01*
X0292576Y0146764D01*
X0292622Y0146714D01*
X0292664Y0146662D01*
X0292704Y0146608D01*
X0292740Y0146551D01*
X0292774Y0146492D01*
X0292803Y0146432D01*
X0292830Y0146369D01*
X0292852Y0146306D01*
X0292871Y0146241D01*
X0292886Y0146176D01*
X0292898Y0146109D01*
X0292906Y0146042D01*
X0292910Y0145975D01*
X0292910Y0145907D01*
X0292906Y0145840D01*
X0292898Y0145773D01*
X0292886Y0145706D01*
X0292871Y0145641D01*
X0292852Y0145576D01*
X0292830Y0145513D01*
X0292803Y0145450D01*
X0292774Y0145390D01*
X0292740Y0145331D01*
X0292704Y0145274D01*
X0292664Y0145220D01*
X0292622Y0145168D01*
X0292576Y0145118D01*
X0292528Y0145071D01*
X0292477Y0145027D01*
X0292423Y0144986D01*
X0292367Y0144947D01*
X0292310Y0144913D01*
X0292250Y0144881D01*
X0292189Y0144853D01*
X0292126Y0144829D01*
X0292062Y0144808D01*
X0291996Y0144791D01*
X0291930Y0144777D01*
X0291864Y0144768D01*
X0291796Y0144762D01*
X0291729Y0144760D01*
X0291729Y0142398D01*
X0289761Y0140823D02*
X0289763Y0140879D01*
X0289769Y0140934D01*
X0289779Y0140988D01*
X0289792Y0141042D01*
X0289810Y0141095D01*
X0289831Y0141146D01*
X0289855Y0141196D01*
X0289883Y0141244D01*
X0289915Y0141290D01*
X0289949Y0141334D01*
X0289987Y0141375D01*
X0290027Y0141413D01*
X0290070Y0141448D01*
X0290115Y0141480D01*
X0290163Y0141509D01*
X0290212Y0141535D01*
X0290263Y0141557D01*
X0290315Y0141575D01*
X0290369Y0141589D01*
X0290424Y0141600D01*
X0290479Y0141607D01*
X0290534Y0141610D01*
X0290590Y0141609D01*
X0290645Y0141604D01*
X0290700Y0141595D01*
X0290754Y0141583D01*
X0290807Y0141566D01*
X0290859Y0141546D01*
X0290909Y0141522D01*
X0290957Y0141495D01*
X0291004Y0141465D01*
X0291048Y0141431D01*
X0291090Y0141394D01*
X0291128Y0141354D01*
X0291165Y0141312D01*
X0291198Y0141267D01*
X0291227Y0141221D01*
X0291254Y0141172D01*
X0291276Y0141121D01*
X0291296Y0141069D01*
X0291311Y0141015D01*
X0291323Y0140961D01*
X0291331Y0140906D01*
X0291335Y0140851D01*
X0291335Y0140795D01*
X0291331Y0140740D01*
X0291323Y0140685D01*
X0291311Y0140631D01*
X0291296Y0140577D01*
X0291276Y0140525D01*
X0291254Y0140474D01*
X0291227Y0140425D01*
X0291198Y0140379D01*
X0291165Y0140334D01*
X0291128Y0140292D01*
X0291090Y0140252D01*
X0291048Y0140215D01*
X0291004Y0140181D01*
X0290957Y0140151D01*
X0290909Y0140124D01*
X0290859Y0140100D01*
X0290807Y0140080D01*
X0290754Y0140063D01*
X0290700Y0140051D01*
X0290645Y0140042D01*
X0290590Y0140037D01*
X0290534Y0140036D01*
X0290479Y0140039D01*
X0290424Y0140046D01*
X0290369Y0140057D01*
X0290315Y0140071D01*
X0290263Y0140089D01*
X0290212Y0140111D01*
X0290163Y0140137D01*
X0290115Y0140166D01*
X0290070Y0140198D01*
X0290027Y0140233D01*
X0289987Y0140271D01*
X0289949Y0140312D01*
X0289915Y0140356D01*
X0289883Y0140402D01*
X0289855Y0140450D01*
X0289831Y0140500D01*
X0289810Y0140551D01*
X0289792Y0140604D01*
X0289779Y0140658D01*
X0289769Y0140712D01*
X0289763Y0140767D01*
X0289761Y0140823D01*
X0289367Y0139248D02*
X0284642Y0139248D01*
X0284642Y0152634D02*
X0289367Y0152634D01*
X0295666Y0165232D02*
X0296060Y0165232D01*
X0296060Y0169169D01*
X0295666Y0169169D01*
X0296060Y0169169D02*
X0296453Y0169169D01*
X0296453Y0165232D02*
X0296060Y0165232D01*
X0300390Y0169957D02*
X0300784Y0169957D01*
X0300784Y0173894D01*
X0301178Y0173894D01*
X0300784Y0173894D02*
X0300390Y0173894D01*
X0301965Y0175862D02*
X0301965Y0178618D01*
X0303343Y0178618D02*
X0303343Y0177240D01*
X0304721Y0177240D01*
X0304721Y0175862D02*
X0301965Y0175862D01*
X0301178Y0169957D02*
X0300784Y0169957D01*
X0290942Y0169957D02*
X0290548Y0169957D01*
X0290548Y0173894D01*
X0290154Y0173894D01*
X0290548Y0173894D02*
X0290942Y0173894D01*
X0290548Y0169957D02*
X0290154Y0169957D01*
X0278344Y0169563D02*
X0278346Y0169619D01*
X0278352Y0169674D01*
X0278362Y0169728D01*
X0278375Y0169782D01*
X0278393Y0169835D01*
X0278414Y0169886D01*
X0278438Y0169936D01*
X0278466Y0169984D01*
X0278498Y0170030D01*
X0278532Y0170074D01*
X0278570Y0170115D01*
X0278610Y0170153D01*
X0278653Y0170188D01*
X0278698Y0170220D01*
X0278746Y0170249D01*
X0278795Y0170275D01*
X0278846Y0170297D01*
X0278898Y0170315D01*
X0278952Y0170329D01*
X0279007Y0170340D01*
X0279062Y0170347D01*
X0279117Y0170350D01*
X0279173Y0170349D01*
X0279228Y0170344D01*
X0279283Y0170335D01*
X0279337Y0170323D01*
X0279390Y0170306D01*
X0279442Y0170286D01*
X0279492Y0170262D01*
X0279540Y0170235D01*
X0279587Y0170205D01*
X0279631Y0170171D01*
X0279673Y0170134D01*
X0279711Y0170094D01*
X0279748Y0170052D01*
X0279781Y0170007D01*
X0279810Y0169961D01*
X0279837Y0169912D01*
X0279859Y0169861D01*
X0279879Y0169809D01*
X0279894Y0169755D01*
X0279906Y0169701D01*
X0279914Y0169646D01*
X0279918Y0169591D01*
X0279918Y0169535D01*
X0279914Y0169480D01*
X0279906Y0169425D01*
X0279894Y0169371D01*
X0279879Y0169317D01*
X0279859Y0169265D01*
X0279837Y0169214D01*
X0279810Y0169165D01*
X0279781Y0169119D01*
X0279748Y0169074D01*
X0279711Y0169032D01*
X0279673Y0168992D01*
X0279631Y0168955D01*
X0279587Y0168921D01*
X0279540Y0168891D01*
X0279492Y0168864D01*
X0279442Y0168840D01*
X0279390Y0168820D01*
X0279337Y0168803D01*
X0279283Y0168791D01*
X0279228Y0168782D01*
X0279173Y0168777D01*
X0279117Y0168776D01*
X0279062Y0168779D01*
X0279007Y0168786D01*
X0278952Y0168797D01*
X0278898Y0168811D01*
X0278846Y0168829D01*
X0278795Y0168851D01*
X0278746Y0168877D01*
X0278698Y0168906D01*
X0278653Y0168938D01*
X0278610Y0168973D01*
X0278570Y0169011D01*
X0278532Y0169052D01*
X0278498Y0169096D01*
X0278466Y0169142D01*
X0278438Y0169190D01*
X0278414Y0169240D01*
X0278393Y0169291D01*
X0278375Y0169344D01*
X0278362Y0169398D01*
X0278352Y0169452D01*
X0278346Y0169507D01*
X0278344Y0169563D01*
X0277556Y0170744D02*
X0275194Y0170744D01*
X0275193Y0170744D02*
X0275191Y0170811D01*
X0275185Y0170879D01*
X0275176Y0170945D01*
X0275162Y0171011D01*
X0275145Y0171077D01*
X0275124Y0171141D01*
X0275100Y0171204D01*
X0275072Y0171265D01*
X0275040Y0171325D01*
X0275006Y0171382D01*
X0274967Y0171438D01*
X0274926Y0171492D01*
X0274882Y0171543D01*
X0274835Y0171591D01*
X0274785Y0171637D01*
X0274733Y0171679D01*
X0274679Y0171719D01*
X0274622Y0171755D01*
X0274563Y0171789D01*
X0274503Y0171818D01*
X0274440Y0171845D01*
X0274377Y0171867D01*
X0274312Y0171886D01*
X0274247Y0171901D01*
X0274180Y0171913D01*
X0274113Y0171921D01*
X0274046Y0171925D01*
X0273978Y0171925D01*
X0273911Y0171921D01*
X0273844Y0171913D01*
X0273777Y0171901D01*
X0273712Y0171886D01*
X0273647Y0171867D01*
X0273584Y0171845D01*
X0273521Y0171818D01*
X0273461Y0171789D01*
X0273402Y0171755D01*
X0273345Y0171719D01*
X0273291Y0171679D01*
X0273239Y0171637D01*
X0273189Y0171591D01*
X0273142Y0171543D01*
X0273098Y0171492D01*
X0273057Y0171438D01*
X0273018Y0171382D01*
X0272984Y0171325D01*
X0272952Y0171265D01*
X0272924Y0171204D01*
X0272900Y0171141D01*
X0272879Y0171077D01*
X0272862Y0171011D01*
X0272848Y0170945D01*
X0272839Y0170879D01*
X0272833Y0170811D01*
X0272831Y0170744D01*
X0270469Y0170744D01*
X0268501Y0168776D02*
X0268107Y0168776D01*
X0268107Y0164839D01*
X0267713Y0164839D01*
X0268107Y0164839D02*
X0268501Y0164839D01*
X0268107Y0168776D02*
X0267713Y0168776D01*
X0270469Y0175075D02*
X0270469Y0178224D01*
X0270469Y0182555D02*
X0277556Y0182555D01*
X0278737Y0183736D02*
X0280705Y0183736D01*
X0280705Y0185705D01*
X0278737Y0190232D02*
X0278737Y0190626D01*
X0280705Y0195154D02*
X0280705Y0197122D01*
X0278737Y0197122D01*
X0280613Y0197909D02*
X0280615Y0197968D01*
X0280621Y0198026D01*
X0280631Y0198084D01*
X0280644Y0198141D01*
X0280662Y0198198D01*
X0280683Y0198253D01*
X0280708Y0198306D01*
X0280736Y0198357D01*
X0280767Y0198407D01*
X0280802Y0198454D01*
X0280840Y0198499D01*
X0280881Y0198542D01*
X0280925Y0198581D01*
X0280971Y0198617D01*
X0281019Y0198651D01*
X0281070Y0198681D01*
X0281123Y0198707D01*
X0281177Y0198730D01*
X0281232Y0198749D01*
X0281289Y0198765D01*
X0281347Y0198777D01*
X0281405Y0198785D01*
X0281464Y0198789D01*
X0281522Y0198789D01*
X0281581Y0198785D01*
X0281639Y0198777D01*
X0281697Y0198765D01*
X0281754Y0198749D01*
X0281809Y0198730D01*
X0281863Y0198707D01*
X0281916Y0198681D01*
X0281967Y0198651D01*
X0282015Y0198617D01*
X0282061Y0198581D01*
X0282105Y0198542D01*
X0282146Y0198499D01*
X0282184Y0198454D01*
X0282219Y0198407D01*
X0282250Y0198357D01*
X0282278Y0198306D01*
X0282303Y0198253D01*
X0282324Y0198198D01*
X0282342Y0198141D01*
X0282355Y0198084D01*
X0282365Y0198026D01*
X0282371Y0197968D01*
X0282373Y0197909D01*
X0282371Y0197850D01*
X0282365Y0197792D01*
X0282355Y0197734D01*
X0282342Y0197677D01*
X0282324Y0197620D01*
X0282303Y0197565D01*
X0282278Y0197512D01*
X0282250Y0197461D01*
X0282219Y0197411D01*
X0282184Y0197364D01*
X0282146Y0197319D01*
X0282105Y0197276D01*
X0282061Y0197237D01*
X0282015Y0197201D01*
X0281967Y0197167D01*
X0281916Y0197137D01*
X0281863Y0197111D01*
X0281809Y0197088D01*
X0281754Y0197069D01*
X0281697Y0197053D01*
X0281639Y0197041D01*
X0281581Y0197033D01*
X0281522Y0197029D01*
X0281464Y0197029D01*
X0281405Y0197033D01*
X0281347Y0197041D01*
X0281289Y0197053D01*
X0281232Y0197069D01*
X0281177Y0197088D01*
X0281123Y0197111D01*
X0281070Y0197137D01*
X0281019Y0197167D01*
X0280971Y0197201D01*
X0280925Y0197237D01*
X0280881Y0197276D01*
X0280840Y0197319D01*
X0280802Y0197364D01*
X0280767Y0197411D01*
X0280736Y0197461D01*
X0280708Y0197512D01*
X0280683Y0197565D01*
X0280662Y0197620D01*
X0280644Y0197677D01*
X0280631Y0197734D01*
X0280621Y0197792D01*
X0280615Y0197850D01*
X0280613Y0197909D01*
X0274800Y0198303D02*
X0274406Y0198303D01*
X0274406Y0202240D01*
X0274012Y0202240D01*
X0274406Y0202240D02*
X0274800Y0202240D01*
X0274406Y0198303D02*
X0274012Y0198303D01*
X0273422Y0195154D02*
X0271453Y0195154D01*
X0266138Y0197122D02*
X0264170Y0197122D01*
X0264170Y0195154D01*
X0262595Y0190823D02*
X0262595Y0190429D01*
X0258658Y0190429D01*
X0258658Y0190823D01*
X0258658Y0190429D02*
X0258658Y0190035D01*
X0262595Y0190035D02*
X0262595Y0190429D01*
X0266138Y0190626D02*
X0266138Y0190232D01*
X0264170Y0185705D02*
X0264170Y0183736D01*
X0266138Y0183736D01*
X0271453Y0185705D02*
X0273422Y0185705D01*
X0289760Y0190823D02*
X0290154Y0190823D01*
X0290154Y0194760D01*
X0289760Y0194760D01*
X0290154Y0194760D02*
X0290548Y0194760D01*
X0290548Y0196335D02*
X0290154Y0196335D01*
X0290154Y0200272D01*
X0289760Y0200272D01*
X0290154Y0200272D02*
X0290548Y0200272D01*
X0290548Y0201846D02*
X0290154Y0201846D01*
X0290154Y0205783D01*
X0289760Y0205783D01*
X0290154Y0205783D02*
X0290548Y0205783D01*
X0290154Y0201846D02*
X0289760Y0201846D01*
X0289760Y0196335D02*
X0290154Y0196335D01*
X0290154Y0190823D02*
X0290548Y0190823D01*
X0292910Y0185311D02*
X0293304Y0185311D01*
X0293304Y0181374D01*
X0292910Y0181374D01*
X0293304Y0181374D02*
X0293698Y0181374D01*
X0293698Y0185311D02*
X0293304Y0185311D01*
X0301965Y0195154D02*
X0301965Y0197909D01*
X0304721Y0197909D01*
X0304721Y0196531D02*
X0303343Y0196531D01*
X0303343Y0195154D01*
X0300391Y0198697D02*
X0300393Y0198753D01*
X0300399Y0198808D01*
X0300409Y0198862D01*
X0300422Y0198916D01*
X0300440Y0198969D01*
X0300461Y0199020D01*
X0300485Y0199070D01*
X0300513Y0199118D01*
X0300545Y0199164D01*
X0300579Y0199208D01*
X0300617Y0199249D01*
X0300657Y0199287D01*
X0300700Y0199322D01*
X0300745Y0199354D01*
X0300793Y0199383D01*
X0300842Y0199409D01*
X0300893Y0199431D01*
X0300945Y0199449D01*
X0300999Y0199463D01*
X0301054Y0199474D01*
X0301109Y0199481D01*
X0301164Y0199484D01*
X0301220Y0199483D01*
X0301275Y0199478D01*
X0301330Y0199469D01*
X0301384Y0199457D01*
X0301437Y0199440D01*
X0301489Y0199420D01*
X0301539Y0199396D01*
X0301587Y0199369D01*
X0301634Y0199339D01*
X0301678Y0199305D01*
X0301720Y0199268D01*
X0301758Y0199228D01*
X0301795Y0199186D01*
X0301828Y0199141D01*
X0301857Y0199095D01*
X0301884Y0199046D01*
X0301906Y0198995D01*
X0301926Y0198943D01*
X0301941Y0198889D01*
X0301953Y0198835D01*
X0301961Y0198780D01*
X0301965Y0198725D01*
X0301965Y0198669D01*
X0301961Y0198614D01*
X0301953Y0198559D01*
X0301941Y0198505D01*
X0301926Y0198451D01*
X0301906Y0198399D01*
X0301884Y0198348D01*
X0301857Y0198299D01*
X0301828Y0198253D01*
X0301795Y0198208D01*
X0301758Y0198166D01*
X0301720Y0198126D01*
X0301678Y0198089D01*
X0301634Y0198055D01*
X0301587Y0198025D01*
X0301539Y0197998D01*
X0301489Y0197974D01*
X0301437Y0197954D01*
X0301384Y0197937D01*
X0301330Y0197925D01*
X0301275Y0197916D01*
X0301220Y0197911D01*
X0301164Y0197910D01*
X0301109Y0197913D01*
X0301054Y0197920D01*
X0300999Y0197931D01*
X0300945Y0197945D01*
X0300893Y0197963D01*
X0300842Y0197985D01*
X0300793Y0198011D01*
X0300745Y0198040D01*
X0300700Y0198072D01*
X0300657Y0198107D01*
X0300617Y0198145D01*
X0300579Y0198186D01*
X0300545Y0198230D01*
X0300513Y0198276D01*
X0300485Y0198324D01*
X0300461Y0198374D01*
X0300440Y0198425D01*
X0300422Y0198478D01*
X0300409Y0198532D01*
X0300399Y0198586D01*
X0300393Y0198641D01*
X0300391Y0198697D01*
X0309052Y0204996D02*
X0309052Y0205390D01*
X0312989Y0205390D01*
X0312989Y0205783D01*
X0312989Y0205390D02*
X0312989Y0204996D01*
X0309052Y0205390D02*
X0309052Y0205783D01*
X0309052Y0212476D02*
X0308658Y0212476D01*
X0308658Y0216413D01*
X0308264Y0216413D01*
X0308658Y0216413D02*
X0309052Y0216413D01*
X0309052Y0218776D02*
X0308658Y0218776D01*
X0308658Y0222713D01*
X0308264Y0222713D01*
X0308658Y0222713D02*
X0309052Y0222713D01*
X0308658Y0218776D02*
X0308264Y0218776D01*
X0308264Y0212476D02*
X0308658Y0212476D01*
X0299997Y0218776D02*
X0299997Y0219169D01*
X0299997Y0219563D01*
X0296060Y0219563D02*
X0296060Y0219169D01*
X0296060Y0218776D01*
X0295272Y0218776D02*
X0295272Y0219169D01*
X0295272Y0219563D01*
X0291335Y0219563D02*
X0291335Y0219169D01*
X0291335Y0218776D01*
X0288973Y0214445D02*
X0286611Y0214445D01*
X0288973Y0214445D02*
X0288973Y0238067D01*
X0286611Y0238067D01*
X0277162Y0238067D02*
X0274800Y0238067D01*
X0274800Y0214445D01*
X0277162Y0214445D01*
X0269288Y0214445D02*
X0266926Y0214445D01*
X0269288Y0214445D02*
X0269288Y0238067D01*
X0266926Y0238067D01*
X0257477Y0238067D02*
X0255115Y0238067D01*
X0255115Y0214445D01*
X0257477Y0214445D01*
X0302656Y0231964D02*
X0302642Y0232113D01*
X0303894Y0233964D01*
X0303905Y0234076D01*
X0303144Y0235914D01*
X0303057Y0235985D01*
X0300863Y0236408D01*
X0300767Y0236524D01*
X0300767Y0238761D01*
X0300863Y0238877D01*
X0303057Y0239300D01*
X0303144Y0239371D01*
X0303905Y0241209D01*
X0303894Y0241320D01*
X0302642Y0243171D01*
X0302656Y0243321D01*
X0304237Y0244902D01*
X0304387Y0244916D01*
X0306238Y0243664D01*
X0306349Y0243653D01*
X0308188Y0244414D01*
X0308258Y0244501D01*
X0308682Y0246695D01*
X0308798Y0246791D01*
X0311034Y0246791D01*
X0311150Y0246695D01*
X0311573Y0244501D01*
X0311644Y0244414D01*
X0313482Y0243653D01*
X0313594Y0243664D01*
X0315445Y0244916D01*
X0315594Y0244902D01*
X0317176Y0243321D01*
X0317190Y0243171D01*
X0315938Y0241320D01*
X0315927Y0241209D01*
X0316275Y0240367D01*
X0316211Y0240212D01*
X0312416Y0238663D01*
X0312595Y0239051D02*
X0310430Y0240823D01*
X0307871Y0240035D01*
X0306690Y0237673D01*
X0308068Y0234917D01*
X0310627Y0234720D01*
X0312595Y0236295D01*
X0315942Y0234720D01*
X0315351Y0233933D01*
X0316926Y0232161D01*
X0315548Y0230980D01*
X0313579Y0231965D01*
X0311217Y0230980D01*
X0310823Y0228815D01*
X0309052Y0228815D01*
X0308461Y0231177D01*
X0306296Y0231965D01*
X0304721Y0230783D01*
X0303146Y0232161D01*
X0304327Y0233933D01*
X0303343Y0236295D01*
X0301178Y0236689D01*
X0301178Y0238657D01*
X0303540Y0239051D01*
X0304327Y0241413D01*
X0303146Y0243185D01*
X0304327Y0244366D01*
X0306296Y0243185D01*
X0308461Y0244169D01*
X0309052Y0246335D01*
X0310823Y0246335D01*
X0311217Y0244169D01*
X0313579Y0243185D01*
X0315548Y0244366D01*
X0316729Y0243185D01*
X0315548Y0241413D01*
X0315745Y0240429D01*
X0312595Y0239051D01*
X0312314Y0239281D02*
X0313122Y0239281D01*
X0311353Y0240067D02*
X0314918Y0240067D01*
X0315660Y0240853D02*
X0304141Y0240853D01*
X0304177Y0241639D02*
X0315698Y0241639D01*
X0316222Y0242425D02*
X0303653Y0242425D01*
X0303172Y0243211D02*
X0306253Y0243211D01*
X0306353Y0243211D02*
X0313517Y0243211D01*
X0313623Y0243211D02*
X0316703Y0243211D01*
X0315917Y0243997D02*
X0314933Y0243997D01*
X0311631Y0243997D02*
X0308082Y0243997D01*
X0308629Y0244783D02*
X0311106Y0244783D01*
X0310963Y0245569D02*
X0308843Y0245569D01*
X0304943Y0243997D02*
X0303958Y0243997D01*
X0303879Y0240067D02*
X0307975Y0240067D01*
X0307494Y0239281D02*
X0303617Y0239281D01*
X0301178Y0238496D02*
X0307101Y0238496D01*
X0306708Y0237710D02*
X0301178Y0237710D01*
X0301178Y0236924D02*
X0307064Y0236924D01*
X0307457Y0236138D02*
X0303409Y0236138D01*
X0303736Y0235352D02*
X0307850Y0235352D01*
X0312201Y0236492D02*
X0312154Y0236402D01*
X0312103Y0236314D01*
X0312049Y0236227D01*
X0311992Y0236143D01*
X0311931Y0236061D01*
X0311868Y0235982D01*
X0311801Y0235905D01*
X0311732Y0235831D01*
X0311659Y0235759D01*
X0311584Y0235691D01*
X0311506Y0235625D01*
X0311426Y0235562D01*
X0311344Y0235503D01*
X0311259Y0235446D01*
X0311172Y0235393D01*
X0311083Y0235344D01*
X0310993Y0235297D01*
X0310900Y0235255D01*
X0310806Y0235216D01*
X0310711Y0235180D01*
X0310614Y0235148D01*
X0310517Y0235120D01*
X0310418Y0235096D01*
X0310318Y0235076D01*
X0310218Y0235059D01*
X0310117Y0235047D01*
X0310015Y0235038D01*
X0309914Y0235033D01*
X0309812Y0235032D01*
X0309710Y0235035D01*
X0309609Y0235042D01*
X0309507Y0235053D01*
X0309407Y0235068D01*
X0309307Y0235086D01*
X0309207Y0235109D01*
X0309109Y0235135D01*
X0309012Y0235165D01*
X0308916Y0235199D01*
X0308821Y0235236D01*
X0308728Y0235277D01*
X0308637Y0235322D01*
X0308547Y0235370D01*
X0308459Y0235421D01*
X0308374Y0235476D01*
X0308290Y0235534D01*
X0308209Y0235595D01*
X0308130Y0235660D01*
X0308054Y0235727D01*
X0307980Y0235797D01*
X0307909Y0235870D01*
X0307841Y0235946D01*
X0307776Y0236024D01*
X0307714Y0236105D01*
X0307655Y0236188D01*
X0307600Y0236273D01*
X0307547Y0236360D01*
X0307498Y0236450D01*
X0307453Y0236541D01*
X0307411Y0236633D01*
X0307373Y0236728D01*
X0307338Y0236823D01*
X0307308Y0236920D01*
X0307280Y0237018D01*
X0307257Y0237117D01*
X0307238Y0237217D01*
X0307222Y0237318D01*
X0307210Y0237419D01*
X0307202Y0237520D01*
X0307198Y0237622D01*
X0307198Y0237724D01*
X0307202Y0237826D01*
X0307210Y0237927D01*
X0307222Y0238028D01*
X0307238Y0238129D01*
X0307257Y0238229D01*
X0307280Y0238328D01*
X0307308Y0238426D01*
X0307338Y0238523D01*
X0307373Y0238618D01*
X0307411Y0238713D01*
X0307453Y0238805D01*
X0307498Y0238896D01*
X0307547Y0238986D01*
X0307600Y0239073D01*
X0307655Y0239158D01*
X0307714Y0239241D01*
X0307776Y0239322D01*
X0307841Y0239400D01*
X0307909Y0239476D01*
X0307980Y0239549D01*
X0308054Y0239619D01*
X0308130Y0239686D01*
X0308209Y0239751D01*
X0308290Y0239812D01*
X0308374Y0239870D01*
X0308459Y0239925D01*
X0308547Y0239976D01*
X0308637Y0240024D01*
X0308728Y0240069D01*
X0308821Y0240110D01*
X0308916Y0240147D01*
X0309012Y0240181D01*
X0309109Y0240211D01*
X0309207Y0240237D01*
X0309307Y0240260D01*
X0309407Y0240278D01*
X0309507Y0240293D01*
X0309609Y0240304D01*
X0309710Y0240311D01*
X0309812Y0240314D01*
X0309914Y0240313D01*
X0310015Y0240308D01*
X0310117Y0240299D01*
X0310218Y0240287D01*
X0310318Y0240270D01*
X0310418Y0240250D01*
X0310517Y0240226D01*
X0310614Y0240198D01*
X0310711Y0240166D01*
X0310806Y0240130D01*
X0310900Y0240091D01*
X0310993Y0240049D01*
X0311083Y0240002D01*
X0311172Y0239953D01*
X0311259Y0239900D01*
X0311344Y0239843D01*
X0311426Y0239784D01*
X0311506Y0239721D01*
X0311584Y0239655D01*
X0311659Y0239587D01*
X0311732Y0239515D01*
X0311801Y0239441D01*
X0311868Y0239364D01*
X0311931Y0239285D01*
X0311992Y0239203D01*
X0312049Y0239119D01*
X0312103Y0239032D01*
X0312154Y0238944D01*
X0312201Y0238854D01*
X0312416Y0236622D02*
X0316211Y0235072D01*
X0316275Y0234917D01*
X0315927Y0234076D01*
X0315938Y0233964D01*
X0317190Y0232113D01*
X0317176Y0231964D01*
X0315594Y0230382D01*
X0315445Y0230368D01*
X0313594Y0231620D01*
X0313482Y0231632D01*
X0311644Y0230870D01*
X0311573Y0230783D01*
X0311150Y0228589D01*
X0311034Y0228493D01*
X0308798Y0228493D01*
X0308682Y0228589D01*
X0308258Y0230783D01*
X0308188Y0230870D01*
X0306349Y0231632D01*
X0306238Y0231620D01*
X0304387Y0230368D01*
X0304237Y0230382D01*
X0302656Y0231964D01*
X0303178Y0232208D02*
X0316884Y0232208D01*
X0316186Y0232994D02*
X0303701Y0232994D01*
X0304225Y0233780D02*
X0315487Y0233780D01*
X0315826Y0234566D02*
X0304064Y0234566D01*
X0303991Y0231422D02*
X0305573Y0231422D01*
X0307787Y0231422D02*
X0312278Y0231422D01*
X0311155Y0230636D02*
X0308596Y0230636D01*
X0308793Y0229851D02*
X0311012Y0229851D01*
X0310869Y0229065D02*
X0308989Y0229065D01*
X0311416Y0235352D02*
X0314600Y0235352D01*
X0312930Y0236138D02*
X0312398Y0236138D01*
X0314664Y0231422D02*
X0316064Y0231422D01*
X0318501Y0231422D02*
X0335430Y0231422D01*
X0335430Y0230636D02*
X0318501Y0230636D01*
X0318501Y0229851D02*
X0335430Y0229851D01*
X0335430Y0229065D02*
X0318501Y0229065D01*
X0318501Y0228279D02*
X0335430Y0228279D01*
X0335430Y0227493D02*
X0318501Y0227493D01*
X0318501Y0226707D02*
X0335430Y0226707D01*
X0335430Y0225921D02*
X0318501Y0225921D01*
X0318501Y0225135D02*
X0335430Y0225135D01*
X0335430Y0224349D02*
X0318501Y0224349D01*
X0318501Y0223563D02*
X0335430Y0223563D01*
X0335430Y0222777D02*
X0318501Y0222777D01*
X0318501Y0221991D02*
X0335430Y0221991D01*
X0335430Y0221205D02*
X0318501Y0221205D01*
X0318501Y0220420D02*
X0335430Y0220420D01*
X0335430Y0219634D02*
X0318501Y0219634D01*
X0318501Y0218848D02*
X0335430Y0218848D01*
X0335430Y0218062D02*
X0318501Y0218062D01*
X0318501Y0217276D02*
X0335430Y0217276D01*
X0335430Y0216490D02*
X0318501Y0216490D01*
X0318501Y0215704D02*
X0335430Y0215704D01*
X0335430Y0214918D02*
X0318501Y0214918D01*
X0318501Y0214132D02*
X0335430Y0214132D01*
X0335430Y0213346D02*
X0318501Y0213346D01*
X0318501Y0212560D02*
X0335430Y0212560D01*
X0335430Y0211775D02*
X0318501Y0211775D01*
X0318501Y0210989D02*
X0335430Y0210989D01*
X0335430Y0210203D02*
X0318501Y0210203D01*
X0318501Y0209417D02*
X0335430Y0209417D01*
X0335430Y0208631D02*
X0318501Y0208631D01*
X0318501Y0208146D02*
X0318501Y0245941D01*
X0335430Y0245941D01*
X0335430Y0208146D01*
X0318501Y0208146D01*
X0321257Y0197909D02*
X0324012Y0197909D01*
X0324012Y0195154D01*
X0322635Y0195154D02*
X0322635Y0196531D01*
X0321257Y0196531D01*
X0322635Y0178618D02*
X0322635Y0177240D01*
X0321257Y0177240D01*
X0321257Y0175862D02*
X0324012Y0175862D01*
X0324012Y0178618D01*
X0318501Y0232208D02*
X0335430Y0232208D01*
X0335430Y0232994D02*
X0318501Y0232994D01*
X0318501Y0233780D02*
X0335430Y0233780D01*
X0335430Y0234566D02*
X0318501Y0234566D01*
X0318501Y0235352D02*
X0335430Y0235352D01*
X0335430Y0236138D02*
X0318501Y0236138D01*
X0318501Y0236924D02*
X0335430Y0236924D01*
X0335430Y0237710D02*
X0318501Y0237710D01*
X0318501Y0238496D02*
X0335430Y0238496D01*
X0335430Y0239281D02*
X0318501Y0239281D01*
X0318501Y0240067D02*
X0335430Y0240067D01*
X0335430Y0240853D02*
X0318501Y0240853D01*
X0318501Y0241639D02*
X0335430Y0241639D01*
X0335430Y0242425D02*
X0318501Y0242425D01*
X0318501Y0243211D02*
X0335430Y0243211D01*
X0335430Y0243997D02*
X0318501Y0243997D01*
X0318501Y0244783D02*
X0335430Y0244783D01*
X0335430Y0245569D02*
X0318501Y0245569D01*
X0309052Y0250272D02*
X0308658Y0250272D01*
X0308658Y0254209D01*
X0309052Y0254209D01*
X0308658Y0254209D02*
X0308264Y0254209D01*
X0311414Y0254996D02*
X0311414Y0285705D01*
X0282280Y0285705D01*
X0282280Y0254996D01*
X0311414Y0254996D01*
X0308658Y0250272D02*
X0308264Y0250272D01*
X0317713Y0253815D02*
X0317713Y0256177D01*
X0322438Y0256177D02*
X0322438Y0253815D01*
X0337398Y0251846D02*
X0341335Y0251846D01*
X0340154Y0253028D01*
X0279524Y0253815D02*
X0279526Y0253894D01*
X0279532Y0253973D01*
X0279542Y0254052D01*
X0279556Y0254130D01*
X0279573Y0254207D01*
X0279595Y0254283D01*
X0279620Y0254358D01*
X0279650Y0254431D01*
X0279682Y0254503D01*
X0279719Y0254574D01*
X0279759Y0254642D01*
X0279802Y0254708D01*
X0279848Y0254772D01*
X0279898Y0254834D01*
X0279951Y0254893D01*
X0280006Y0254949D01*
X0280065Y0255003D01*
X0280126Y0255053D01*
X0280189Y0255101D01*
X0280255Y0255145D01*
X0280323Y0255186D01*
X0280393Y0255223D01*
X0280464Y0255257D01*
X0280538Y0255287D01*
X0280612Y0255313D01*
X0280688Y0255335D01*
X0280765Y0255354D01*
X0280843Y0255369D01*
X0280921Y0255380D01*
X0281000Y0255387D01*
X0281079Y0255390D01*
X0281158Y0255389D01*
X0281237Y0255384D01*
X0281316Y0255375D01*
X0281394Y0255362D01*
X0281471Y0255345D01*
X0281548Y0255325D01*
X0281623Y0255300D01*
X0281697Y0255272D01*
X0281770Y0255240D01*
X0281840Y0255205D01*
X0281909Y0255166D01*
X0281976Y0255123D01*
X0282041Y0255077D01*
X0282103Y0255029D01*
X0282163Y0254977D01*
X0282220Y0254922D01*
X0282274Y0254864D01*
X0282325Y0254804D01*
X0282373Y0254741D01*
X0282418Y0254676D01*
X0282460Y0254608D01*
X0282498Y0254539D01*
X0282532Y0254468D01*
X0282563Y0254395D01*
X0282591Y0254320D01*
X0282614Y0254245D01*
X0282634Y0254168D01*
X0282650Y0254091D01*
X0282662Y0254012D01*
X0282670Y0253934D01*
X0282674Y0253855D01*
X0282674Y0253775D01*
X0282670Y0253696D01*
X0282662Y0253618D01*
X0282650Y0253539D01*
X0282634Y0253462D01*
X0282614Y0253385D01*
X0282591Y0253310D01*
X0282563Y0253235D01*
X0282532Y0253162D01*
X0282498Y0253091D01*
X0282460Y0253022D01*
X0282418Y0252954D01*
X0282373Y0252889D01*
X0282325Y0252826D01*
X0282274Y0252766D01*
X0282220Y0252708D01*
X0282163Y0252653D01*
X0282103Y0252601D01*
X0282041Y0252553D01*
X0281976Y0252507D01*
X0281909Y0252464D01*
X0281840Y0252425D01*
X0281770Y0252390D01*
X0281697Y0252358D01*
X0281623Y0252330D01*
X0281548Y0252305D01*
X0281471Y0252285D01*
X0281394Y0252268D01*
X0281316Y0252255D01*
X0281237Y0252246D01*
X0281158Y0252241D01*
X0281079Y0252240D01*
X0281000Y0252243D01*
X0280921Y0252250D01*
X0280843Y0252261D01*
X0280765Y0252276D01*
X0280688Y0252295D01*
X0280612Y0252317D01*
X0280538Y0252343D01*
X0280464Y0252373D01*
X0280393Y0252407D01*
X0280323Y0252444D01*
X0280255Y0252485D01*
X0280189Y0252529D01*
X0280126Y0252577D01*
X0280065Y0252627D01*
X0280006Y0252681D01*
X0279951Y0252737D01*
X0279898Y0252796D01*
X0279848Y0252858D01*
X0279802Y0252922D01*
X0279759Y0252988D01*
X0279719Y0253056D01*
X0279682Y0253127D01*
X0279650Y0253199D01*
X0279620Y0253272D01*
X0279595Y0253347D01*
X0279573Y0253423D01*
X0279556Y0253500D01*
X0279542Y0253578D01*
X0279532Y0253657D01*
X0279526Y0253736D01*
X0279524Y0253815D01*
X0118107Y0253815D02*
X0118109Y0253894D01*
X0118115Y0253973D01*
X0118125Y0254052D01*
X0118139Y0254130D01*
X0118156Y0254207D01*
X0118178Y0254283D01*
X0118203Y0254358D01*
X0118233Y0254431D01*
X0118265Y0254503D01*
X0118302Y0254574D01*
X0118342Y0254642D01*
X0118385Y0254708D01*
X0118431Y0254772D01*
X0118481Y0254834D01*
X0118534Y0254893D01*
X0118589Y0254949D01*
X0118648Y0255003D01*
X0118709Y0255053D01*
X0118772Y0255101D01*
X0118838Y0255145D01*
X0118906Y0255186D01*
X0118976Y0255223D01*
X0119047Y0255257D01*
X0119121Y0255287D01*
X0119195Y0255313D01*
X0119271Y0255335D01*
X0119348Y0255354D01*
X0119426Y0255369D01*
X0119504Y0255380D01*
X0119583Y0255387D01*
X0119662Y0255390D01*
X0119741Y0255389D01*
X0119820Y0255384D01*
X0119899Y0255375D01*
X0119977Y0255362D01*
X0120054Y0255345D01*
X0120131Y0255325D01*
X0120206Y0255300D01*
X0120280Y0255272D01*
X0120353Y0255240D01*
X0120423Y0255205D01*
X0120492Y0255166D01*
X0120559Y0255123D01*
X0120624Y0255077D01*
X0120686Y0255029D01*
X0120746Y0254977D01*
X0120803Y0254922D01*
X0120857Y0254864D01*
X0120908Y0254804D01*
X0120956Y0254741D01*
X0121001Y0254676D01*
X0121043Y0254608D01*
X0121081Y0254539D01*
X0121115Y0254468D01*
X0121146Y0254395D01*
X0121174Y0254320D01*
X0121197Y0254245D01*
X0121217Y0254168D01*
X0121233Y0254091D01*
X0121245Y0254012D01*
X0121253Y0253934D01*
X0121257Y0253855D01*
X0121257Y0253775D01*
X0121253Y0253696D01*
X0121245Y0253618D01*
X0121233Y0253539D01*
X0121217Y0253462D01*
X0121197Y0253385D01*
X0121174Y0253310D01*
X0121146Y0253235D01*
X0121115Y0253162D01*
X0121081Y0253091D01*
X0121043Y0253022D01*
X0121001Y0252954D01*
X0120956Y0252889D01*
X0120908Y0252826D01*
X0120857Y0252766D01*
X0120803Y0252708D01*
X0120746Y0252653D01*
X0120686Y0252601D01*
X0120624Y0252553D01*
X0120559Y0252507D01*
X0120492Y0252464D01*
X0120423Y0252425D01*
X0120353Y0252390D01*
X0120280Y0252358D01*
X0120206Y0252330D01*
X0120131Y0252305D01*
X0120054Y0252285D01*
X0119977Y0252268D01*
X0119899Y0252255D01*
X0119820Y0252246D01*
X0119741Y0252241D01*
X0119662Y0252240D01*
X0119583Y0252243D01*
X0119504Y0252250D01*
X0119426Y0252261D01*
X0119348Y0252276D01*
X0119271Y0252295D01*
X0119195Y0252317D01*
X0119121Y0252343D01*
X0119047Y0252373D01*
X0118976Y0252407D01*
X0118906Y0252444D01*
X0118838Y0252485D01*
X0118772Y0252529D01*
X0118709Y0252577D01*
X0118648Y0252627D01*
X0118589Y0252681D01*
X0118534Y0252737D01*
X0118481Y0252796D01*
X0118431Y0252858D01*
X0118385Y0252922D01*
X0118342Y0252988D01*
X0118302Y0253056D01*
X0118265Y0253127D01*
X0118233Y0253199D01*
X0118203Y0253272D01*
X0118178Y0253347D01*
X0118156Y0253423D01*
X0118139Y0253500D01*
X0118125Y0253578D01*
X0118115Y0253657D01*
X0118109Y0253736D01*
X0118107Y0253815D01*
D12*
X0117713Y0169563D03*
X0129131Y0140823D03*
X0279131Y0169563D03*
X0290548Y0140823D03*
D13*
X0329131Y0144169D02*
X0329131Y0144563D01*
X0167713Y0144169D02*
X0167713Y0144563D01*
D14*
X0106296Y0094760D02*
X0099209Y0094760D01*
X0099209Y0097122D02*
X0099209Y0111295D01*
X0106296Y0111295D01*
X0106296Y0097122D01*
X0099209Y0097122D01*
X0101572Y0095547D02*
X0103934Y0094760D01*
X0101572Y0093972D01*
X0101572Y0095547D01*
X0101572Y0095037D02*
X0103101Y0095037D01*
X0102999Y0094448D02*
X0101572Y0094448D01*
X0103934Y0093579D02*
X0103934Y0095941D01*
X0104327Y0100665D02*
X0104327Y0102240D01*
X0106296Y0101453D01*
X0104327Y0100665D01*
X0104327Y0100928D02*
X0104984Y0100928D01*
X0104327Y0101517D02*
X0106135Y0101517D01*
X0104662Y0102106D02*
X0104327Y0102106D01*
X0104327Y0106177D02*
X0104327Y0107752D01*
X0106296Y0106965D01*
X0104327Y0106177D01*
X0104327Y0106230D02*
X0104459Y0106230D01*
X0104327Y0106819D02*
X0105931Y0106819D01*
X0105188Y0107408D02*
X0104327Y0107408D01*
X0260627Y0111295D02*
X0260627Y0097122D01*
X0267713Y0097122D01*
X0267713Y0111295D01*
X0260627Y0111295D01*
X0265745Y0107752D02*
X0267713Y0106965D01*
X0265745Y0106177D01*
X0265745Y0107752D01*
X0265745Y0107408D02*
X0266605Y0107408D01*
X0267349Y0106819D02*
X0265745Y0106819D01*
X0265745Y0106230D02*
X0265876Y0106230D01*
X0265745Y0102240D02*
X0267713Y0101453D01*
X0265745Y0100665D01*
X0265745Y0102240D01*
X0265745Y0102106D02*
X0266080Y0102106D01*
X0265745Y0101517D02*
X0267552Y0101517D01*
X0266401Y0100928D02*
X0265745Y0100928D01*
X0265351Y0095941D02*
X0265351Y0093579D01*
X0265351Y0094760D02*
X0262989Y0095547D01*
X0262989Y0093972D01*
X0265351Y0094760D01*
X0264518Y0095037D02*
X0262989Y0095037D01*
X0262989Y0094448D02*
X0264417Y0094448D01*
X0267713Y0094760D02*
X0260627Y0094760D01*
D15*
X0262307Y0098159D02*
X0263633Y0098159D01*
X0264075Y0098601D01*
X0264075Y0099043D01*
X0263633Y0099485D01*
X0262307Y0099485D01*
X0262307Y0098159D02*
X0262307Y0100811D01*
X0263633Y0100811D01*
X0264075Y0100369D01*
X0264075Y0099927D01*
X0263633Y0099485D01*
X0263633Y0102884D02*
X0264075Y0103326D01*
X0264075Y0104210D01*
X0263191Y0104210D01*
X0262307Y0105094D02*
X0262307Y0103326D01*
X0262749Y0102884D01*
X0263633Y0102884D01*
X0264075Y0105094D02*
X0263633Y0105536D01*
X0262749Y0105536D01*
X0262307Y0105094D01*
X0262307Y0107608D02*
X0262307Y0110260D01*
X0263633Y0110260D01*
X0264075Y0109818D01*
X0264075Y0108934D01*
X0263633Y0108492D01*
X0262307Y0108492D01*
X0263191Y0108492D02*
X0264075Y0107608D01*
X0102658Y0107608D02*
X0101774Y0108492D01*
X0102216Y0108492D02*
X0100890Y0108492D01*
X0100890Y0107608D02*
X0100890Y0110260D01*
X0102216Y0110260D01*
X0102658Y0109818D01*
X0102658Y0108934D01*
X0102216Y0108492D01*
X0102216Y0105536D02*
X0101332Y0105536D01*
X0100890Y0105094D01*
X0100890Y0103326D01*
X0101332Y0102884D01*
X0102216Y0102884D01*
X0102658Y0103326D01*
X0102658Y0104210D01*
X0101774Y0104210D01*
X0102658Y0105094D02*
X0102216Y0105536D01*
X0102216Y0100811D02*
X0100890Y0100811D01*
X0100890Y0098159D01*
X0102216Y0098159D01*
X0102658Y0098601D01*
X0102658Y0099043D01*
X0102216Y0099485D01*
X0100890Y0099485D01*
X0102216Y0099485D02*
X0102658Y0099927D01*
X0102658Y0100369D01*
X0102216Y0100811D01*
D16*
X0120075Y0197909D03*
X0281493Y0197909D03*
D17*
X0301178Y0198697D03*
X0139760Y0198697D03*
D18*
X0174715Y0109386D02*
X0176767Y0107334D01*
X0176767Y0110070D01*
X0178818Y0109386D02*
X0174715Y0109386D01*
X0178134Y0105716D02*
X0178818Y0105716D01*
X0178818Y0105032D01*
X0178134Y0105032D01*
X0178134Y0105716D01*
X0178134Y0103164D02*
X0175399Y0103164D01*
X0178134Y0100428D01*
X0178818Y0101112D01*
X0178818Y0102480D01*
X0178134Y0103164D01*
X0175399Y0103164D02*
X0174715Y0102480D01*
X0174715Y0101112D01*
X0175399Y0100428D01*
X0178134Y0100428D01*
X0176083Y0098643D02*
X0176083Y0097960D01*
X0177451Y0096592D01*
X0178818Y0096592D02*
X0176083Y0096592D01*
X0336132Y0101112D02*
X0336132Y0102480D01*
X0336816Y0103164D01*
X0339552Y0100428D01*
X0340236Y0101112D01*
X0340236Y0102480D01*
X0339552Y0103164D01*
X0336816Y0103164D01*
X0336132Y0101112D02*
X0336816Y0100428D01*
X0339552Y0100428D01*
X0337500Y0098643D02*
X0337500Y0097960D01*
X0338868Y0096592D01*
X0340236Y0096592D02*
X0337500Y0096592D01*
X0339552Y0105032D02*
X0339552Y0105716D01*
X0340236Y0105716D01*
X0340236Y0105032D01*
X0339552Y0105032D01*
X0338184Y0107334D02*
X0338184Y0110070D01*
X0340236Y0109386D02*
X0336132Y0109386D01*
X0338184Y0107334D01*
M02*
