G75*
%MOIN*%
%OFA0B0*%
%FSLAX24Y24*%
%IPPOS*%
%LPD*%
%AMOC8*
5,1,8,0,0,1.08239X$1,22.5*
%
%ADD10C,0.0080*%
%ADD11C,0.0079*%
%ADD12C,0.0157*%
%ADD13C,0.0059*%
%ADD14C,0.0050*%
D10*
X007488Y007625D02*
X007488Y007782D01*
X007540Y007835D01*
X007645Y007835D01*
X007697Y007782D01*
X007697Y007625D01*
X007697Y007730D02*
X007802Y007835D01*
X007802Y007988D02*
X007488Y007988D01*
X007488Y008197D01*
X007540Y008350D02*
X007593Y008350D01*
X007645Y008403D01*
X007645Y008507D01*
X007697Y008560D01*
X007750Y008560D01*
X007802Y008507D01*
X007802Y008403D01*
X007750Y008350D01*
X007802Y008197D02*
X007802Y007988D01*
X007645Y007988D02*
X007645Y008093D01*
X007540Y008350D02*
X007488Y008403D01*
X007488Y008507D01*
X007540Y008560D01*
X007488Y008713D02*
X007802Y008713D01*
X007802Y008922D01*
X007645Y008818D02*
X007645Y008713D01*
X007488Y008713D02*
X007488Y008922D01*
X007488Y009075D02*
X007488Y009285D01*
X007488Y009180D02*
X007802Y009180D01*
X007172Y009177D02*
X007068Y009282D01*
X007172Y009387D01*
X006858Y009387D01*
X006963Y009540D02*
X006858Y009644D01*
X007172Y009644D01*
X007172Y009540D02*
X007172Y009749D01*
X007172Y009177D02*
X006858Y009177D01*
X006911Y009024D02*
X006858Y008972D01*
X006858Y008867D01*
X006911Y008815D01*
X006963Y008815D01*
X007015Y008867D01*
X007015Y008972D01*
X007068Y009024D01*
X007120Y009024D01*
X007172Y008972D01*
X007172Y008867D01*
X007120Y008815D01*
X007488Y007625D02*
X007802Y007625D01*
X004928Y009626D02*
X004719Y009626D01*
X004719Y009678D01*
X004771Y009731D01*
X004719Y009783D01*
X004771Y009835D01*
X004928Y009835D01*
X004928Y009731D02*
X004771Y009731D01*
X004719Y009988D02*
X004876Y009988D01*
X004928Y010041D01*
X004928Y010198D01*
X004719Y010198D01*
X004823Y010351D02*
X004823Y010508D01*
X004771Y010560D01*
X004666Y010560D01*
X004614Y010508D01*
X004614Y010351D01*
X004928Y010351D01*
X004823Y010456D02*
X004928Y010560D01*
X004876Y010713D02*
X004823Y010766D01*
X004823Y010923D01*
X004771Y010923D02*
X004928Y010923D01*
X004928Y010766D01*
X004876Y010713D01*
X004719Y010766D02*
X004719Y010870D01*
X004771Y010923D01*
X004719Y011076D02*
X004719Y011181D01*
X004666Y011128D02*
X004876Y011128D01*
X004928Y011181D01*
X004876Y011318D02*
X004823Y011370D01*
X004823Y011527D01*
X004771Y011527D02*
X004928Y011527D01*
X004928Y011370D01*
X004876Y011318D01*
X004719Y011370D02*
X004719Y011475D01*
X004771Y011527D01*
X004614Y012043D02*
X004928Y012043D01*
X004928Y012252D01*
X004928Y012405D02*
X004928Y012562D01*
X004876Y012615D01*
X004823Y012615D01*
X004771Y012562D01*
X004771Y012405D01*
X004614Y012405D02*
X004614Y012562D01*
X004666Y012615D01*
X004719Y012615D01*
X004771Y012562D01*
X004928Y012405D02*
X004614Y012405D01*
X004666Y012768D02*
X004876Y012768D01*
X004928Y012820D01*
X004928Y012925D01*
X004876Y012977D01*
X004928Y013130D02*
X004719Y013130D01*
X004614Y013235D01*
X004719Y013340D01*
X004928Y013340D01*
X004928Y013493D02*
X004719Y013702D01*
X004666Y013702D01*
X004614Y013650D01*
X004614Y013545D01*
X004666Y013493D01*
X004771Y013340D02*
X004771Y013130D01*
X004666Y012977D02*
X004614Y012925D01*
X004614Y012820D01*
X004666Y012768D01*
X004928Y013493D02*
X004928Y013702D01*
X004928Y013855D02*
X004614Y013855D01*
X004771Y013855D02*
X004771Y014065D01*
X004614Y014065D02*
X004928Y014065D01*
X004928Y014218D02*
X004614Y014218D01*
X004928Y014427D01*
X004614Y014427D01*
X004614Y014580D02*
X004614Y014790D01*
X004666Y014790D01*
X004876Y014580D01*
X004928Y014580D01*
X004928Y014790D01*
X004928Y015047D02*
X004771Y015047D01*
X004666Y015152D01*
X004614Y015152D01*
X004614Y015305D02*
X004614Y015515D01*
X004666Y015515D01*
X004876Y015305D01*
X004928Y015305D01*
X004928Y015515D01*
X004928Y016030D02*
X004928Y016187D01*
X004876Y016240D01*
X004823Y016240D01*
X004771Y016187D01*
X004771Y016030D01*
X004614Y016030D02*
X004614Y016187D01*
X004666Y016240D01*
X004719Y016240D01*
X004771Y016187D01*
X004928Y016030D02*
X004614Y016030D01*
X004614Y016393D02*
X004928Y016393D01*
X004928Y016602D01*
X004928Y016755D02*
X004928Y016965D01*
X004771Y016860D02*
X004771Y016755D01*
X004614Y016755D02*
X004928Y016755D01*
X004614Y016755D02*
X004614Y016965D01*
X004719Y017480D02*
X004719Y017533D01*
X004771Y017585D01*
X004719Y017637D01*
X004771Y017690D01*
X004928Y017690D01*
X004928Y017585D02*
X004771Y017585D01*
X004719Y017480D02*
X004928Y017480D01*
X004876Y017843D02*
X004928Y017895D01*
X004928Y018000D01*
X004876Y018052D01*
X004771Y018052D01*
X004719Y018000D01*
X004719Y017895D01*
X004771Y017843D01*
X004876Y017843D01*
X004876Y018205D02*
X004771Y018205D01*
X004719Y018258D01*
X004719Y018415D01*
X004614Y018415D02*
X004928Y018415D01*
X004928Y018258D01*
X004876Y018205D01*
X004876Y018568D02*
X004928Y018620D01*
X004928Y018777D01*
X004719Y018777D01*
X004614Y018930D02*
X004614Y018983D01*
X004928Y018983D01*
X004928Y019035D02*
X004928Y018930D01*
X004876Y019172D02*
X004771Y019172D01*
X004719Y019224D01*
X004719Y019329D01*
X004771Y019381D01*
X004823Y019381D01*
X004823Y019172D01*
X004876Y019172D02*
X004928Y019224D01*
X004928Y019329D01*
X004928Y019897D02*
X004928Y020054D01*
X004876Y020106D01*
X004771Y020106D01*
X004719Y020054D01*
X004719Y019897D01*
X004614Y019897D02*
X004928Y019897D01*
X004928Y020260D02*
X004719Y020260D01*
X004719Y020364D02*
X004719Y020417D01*
X004719Y020364D02*
X004823Y020260D01*
X004823Y020562D02*
X004823Y020771D01*
X004771Y020771D01*
X004719Y020719D01*
X004719Y020614D01*
X004771Y020562D01*
X004876Y020562D01*
X004928Y020614D01*
X004928Y020719D01*
X004876Y020924D02*
X004823Y020977D01*
X004823Y021134D01*
X004771Y021134D02*
X004928Y021134D01*
X004928Y020977D01*
X004876Y020924D01*
X004719Y020977D02*
X004719Y021081D01*
X004771Y021134D01*
X004823Y021287D02*
X004719Y021444D01*
X004771Y021589D02*
X004876Y021589D01*
X004928Y021641D01*
X004928Y021746D01*
X004876Y021798D01*
X004771Y021798D01*
X004719Y021746D01*
X004719Y021641D01*
X004771Y021589D01*
X004928Y021444D02*
X004823Y021287D01*
X004928Y021287D02*
X004614Y021287D01*
X004719Y021951D02*
X004876Y021951D01*
X004928Y022004D01*
X004928Y022161D01*
X004719Y022161D01*
X004719Y022314D02*
X004719Y022419D01*
X004666Y022366D02*
X004876Y022366D01*
X004928Y022419D01*
X005572Y021500D02*
X005677Y021500D01*
X005729Y021447D01*
X005729Y021290D01*
X005834Y021290D02*
X005520Y021290D01*
X005520Y021447D01*
X005572Y021500D01*
X005572Y021137D02*
X005520Y021085D01*
X005520Y020980D01*
X005572Y020928D01*
X005624Y020928D01*
X005677Y020980D01*
X005677Y021085D01*
X005729Y021137D01*
X005781Y021137D01*
X005834Y021085D01*
X005834Y020980D01*
X005781Y020928D01*
X005834Y020791D02*
X005834Y020686D01*
X005834Y020739D02*
X005520Y020739D01*
X005520Y020791D02*
X005520Y020686D01*
X005572Y020379D02*
X005520Y020327D01*
X005520Y020222D01*
X005572Y020170D01*
X005520Y020016D02*
X005834Y020016D01*
X005729Y019912D01*
X005834Y019807D01*
X005520Y019807D01*
X005572Y019654D02*
X005520Y019602D01*
X005520Y019497D01*
X005572Y019445D01*
X005624Y019445D01*
X005677Y019497D01*
X005677Y019602D01*
X005729Y019654D01*
X005781Y019654D01*
X005834Y019602D01*
X005834Y019497D01*
X005781Y019445D01*
X005834Y020170D02*
X005624Y020379D01*
X005572Y020379D01*
X005834Y020379D02*
X005834Y020170D01*
X007488Y020222D02*
X007540Y020170D01*
X007488Y020222D02*
X007488Y020327D01*
X007540Y020379D01*
X007593Y020379D01*
X007645Y020327D01*
X007697Y020379D01*
X007750Y020379D01*
X007802Y020327D01*
X007802Y020222D01*
X007750Y020170D01*
X007645Y020274D02*
X007645Y020327D01*
X007802Y020016D02*
X007488Y020016D01*
X007488Y019807D02*
X007802Y019807D01*
X007697Y019912D01*
X007802Y020016D01*
X007750Y019654D02*
X007802Y019602D01*
X007802Y019497D01*
X007750Y019445D01*
X007645Y019497D02*
X007645Y019602D01*
X007697Y019654D01*
X007750Y019654D01*
X007645Y019497D02*
X007593Y019445D01*
X007540Y019445D01*
X007488Y019497D01*
X007488Y019602D01*
X007540Y019654D01*
X007488Y020807D02*
X007488Y020964D01*
X007540Y021016D01*
X007593Y021016D01*
X007645Y020964D01*
X007645Y020807D01*
X007802Y020807D02*
X007488Y020807D01*
X007645Y020964D02*
X007697Y021016D01*
X007750Y021016D01*
X007802Y020964D01*
X007802Y020807D01*
X007802Y021170D02*
X007488Y021170D01*
X007802Y021170D02*
X007802Y021379D01*
X008354Y023602D02*
X008616Y023602D01*
X008668Y023655D01*
X008668Y023759D01*
X008616Y023812D01*
X008354Y023812D01*
X008419Y023965D02*
X008157Y023965D01*
X008157Y024174D02*
X008419Y024174D01*
X008471Y024122D01*
X008471Y024017D01*
X008419Y023965D01*
X008459Y023965D02*
X008354Y024069D01*
X008668Y024069D01*
X008668Y023965D02*
X008668Y024174D01*
X008471Y024327D02*
X008471Y024537D01*
X008471Y024432D02*
X008157Y024432D01*
X008262Y024327D01*
X010520Y022665D02*
X010520Y022560D01*
X010572Y022508D01*
X010572Y022355D02*
X010520Y022303D01*
X010520Y022198D01*
X010572Y022146D01*
X010781Y022146D01*
X010834Y022198D01*
X010834Y022303D01*
X010781Y022355D01*
X010834Y022508D02*
X010624Y022717D01*
X010572Y022717D01*
X010520Y022665D01*
X010834Y022717D02*
X010834Y022508D01*
X013157Y023222D02*
X013157Y023326D01*
X013210Y023379D01*
X013419Y023379D01*
X013471Y023326D01*
X013471Y023222D01*
X013419Y023169D01*
X013210Y023169D01*
X013157Y023222D01*
X013367Y023274D02*
X013471Y023379D01*
X013471Y023532D02*
X013471Y023741D01*
X013471Y023636D02*
X013157Y023636D01*
X013262Y023532D01*
X013761Y023017D02*
X013709Y022964D01*
X013709Y022807D01*
X014023Y022807D01*
X013918Y022807D02*
X013918Y022964D01*
X013866Y023017D01*
X013761Y023017D01*
X013761Y022654D02*
X013709Y022602D01*
X013709Y022445D01*
X014023Y022445D01*
X013918Y022445D02*
X013918Y022602D01*
X013866Y022654D01*
X013761Y022654D01*
X013709Y022292D02*
X013918Y022292D01*
X014023Y022187D01*
X013918Y022082D01*
X013709Y022082D01*
X014181Y021941D02*
X014181Y021784D01*
X014495Y021784D01*
X014495Y021941D01*
X014443Y021993D01*
X014233Y021993D01*
X014181Y021941D01*
X014181Y021631D02*
X014495Y021631D01*
X014181Y021421D01*
X014495Y021421D01*
X014443Y021268D02*
X014338Y021268D01*
X014338Y021163D01*
X014233Y021059D02*
X014443Y021059D01*
X014495Y021111D01*
X014495Y021216D01*
X014443Y021268D01*
X014233Y021268D02*
X014181Y021216D01*
X014181Y021111D01*
X014233Y021059D01*
X014181Y020735D02*
X014495Y020735D01*
X014495Y020630D02*
X014495Y020840D01*
X014286Y020630D02*
X014181Y020735D01*
X014443Y020501D02*
X014495Y020501D01*
X014495Y020449D01*
X014443Y020449D01*
X014443Y020501D01*
X014495Y020296D02*
X014495Y020086D01*
X014495Y020191D02*
X014181Y020191D01*
X014286Y020086D01*
X014286Y019855D02*
X014233Y019855D01*
X014181Y019803D01*
X014181Y019698D01*
X014233Y019646D01*
X014286Y019855D02*
X014495Y019646D01*
X014495Y019855D01*
X014495Y019517D02*
X014495Y019465D01*
X014443Y019465D01*
X014443Y019517D01*
X014495Y019517D01*
X014443Y019312D02*
X014495Y019259D01*
X014495Y019155D01*
X014443Y019102D01*
X014233Y019312D01*
X014443Y019312D01*
X014233Y019312D02*
X014181Y019259D01*
X014181Y019155D01*
X014233Y019102D01*
X014443Y019102D01*
X014443Y018871D02*
X014495Y018819D01*
X014495Y018714D01*
X014443Y018662D01*
X014443Y018533D02*
X014495Y018533D01*
X014495Y018480D01*
X014443Y018480D01*
X014443Y018533D01*
X014443Y018327D02*
X014495Y018275D01*
X014495Y018170D01*
X014443Y018118D01*
X014233Y018327D01*
X014443Y018327D01*
X014443Y018118D02*
X014233Y018118D01*
X014181Y018170D01*
X014181Y018275D01*
X014233Y018327D01*
X014233Y018662D02*
X014181Y018714D01*
X014181Y018819D01*
X014233Y018871D01*
X014286Y018871D01*
X014338Y018819D01*
X014390Y018871D01*
X014443Y018871D01*
X014338Y018819D02*
X014338Y018766D01*
X014390Y017847D02*
X014338Y017795D01*
X014338Y017638D01*
X014443Y017638D01*
X014495Y017690D01*
X014495Y017795D01*
X014443Y017847D01*
X014390Y017847D01*
X014233Y017743D02*
X014338Y017638D01*
X014233Y017743D02*
X014181Y017847D01*
X014443Y017509D02*
X014495Y017509D01*
X014495Y017457D01*
X014443Y017457D01*
X014443Y017509D01*
X014443Y017304D02*
X014495Y017251D01*
X014495Y017147D01*
X014443Y017094D01*
X014233Y017304D01*
X014443Y017304D01*
X014233Y017304D02*
X014181Y017251D01*
X014181Y017147D01*
X014233Y017094D01*
X014443Y017094D01*
X014233Y016903D02*
X014443Y016693D01*
X014495Y016693D01*
X014495Y016564D02*
X014495Y016512D01*
X014443Y016512D01*
X014443Y016564D01*
X014495Y016564D01*
X014443Y016359D02*
X014495Y016306D01*
X014495Y016202D01*
X014443Y016149D01*
X014233Y016359D01*
X014443Y016359D01*
X014443Y016149D02*
X014233Y016149D01*
X014181Y016202D01*
X014181Y016306D01*
X014233Y016359D01*
X014181Y016693D02*
X014181Y016903D01*
X014233Y016903D01*
X014181Y015879D02*
X014181Y015670D01*
X014338Y015670D01*
X014286Y015774D01*
X014286Y015827D01*
X014338Y015879D01*
X014443Y015879D01*
X014495Y015827D01*
X014495Y015722D01*
X014443Y015670D01*
X014443Y015541D02*
X014495Y015541D01*
X014495Y015488D01*
X014443Y015488D01*
X014443Y015541D01*
X014443Y015335D02*
X014495Y015283D01*
X014495Y015178D01*
X014443Y015126D01*
X014233Y015335D01*
X014443Y015335D01*
X014443Y015126D02*
X014233Y015126D01*
X014181Y015178D01*
X014181Y015283D01*
X014233Y015335D01*
X014338Y014855D02*
X014338Y014646D01*
X014181Y014803D01*
X014495Y014803D01*
X014495Y014517D02*
X014495Y014465D01*
X014443Y014465D01*
X014443Y014517D01*
X014495Y014517D01*
X014443Y014312D02*
X014495Y014259D01*
X014495Y014155D01*
X014443Y014102D01*
X014233Y014312D01*
X014443Y014312D01*
X014233Y014312D02*
X014181Y014259D01*
X014181Y014155D01*
X014233Y014102D01*
X014443Y014102D01*
X014495Y013871D02*
X014495Y013662D01*
X014495Y013766D02*
X014181Y013766D01*
X014286Y013662D01*
X014443Y013533D02*
X014495Y013533D01*
X014495Y013480D01*
X014443Y013480D01*
X014443Y013533D01*
X014443Y013327D02*
X014495Y013275D01*
X014495Y013170D01*
X014443Y013118D01*
X014233Y013327D01*
X014443Y013327D01*
X014443Y013118D02*
X014233Y013118D01*
X014181Y013170D01*
X014181Y013275D01*
X014233Y013327D01*
X014233Y012887D02*
X014443Y012677D01*
X014495Y012730D01*
X014495Y012834D01*
X014443Y012887D01*
X014233Y012887D01*
X014181Y012834D01*
X014181Y012730D01*
X014233Y012677D01*
X014443Y012677D01*
X014443Y012549D02*
X014495Y012549D01*
X014495Y012496D01*
X014443Y012496D01*
X014443Y012549D01*
X014443Y012343D02*
X014495Y012291D01*
X014495Y012186D01*
X014443Y012134D01*
X014233Y012343D01*
X014443Y012343D01*
X014443Y012134D02*
X014233Y012134D01*
X014181Y012186D01*
X014181Y012291D01*
X014233Y012343D01*
X013892Y012020D02*
X013682Y012020D01*
X013630Y011967D01*
X013630Y011863D01*
X013682Y011810D01*
X013892Y011810D01*
X013944Y011863D01*
X013944Y011967D01*
X013892Y012020D01*
X013590Y012187D02*
X013276Y012187D01*
X013276Y012082D02*
X013276Y012292D01*
X013276Y012445D02*
X013276Y012602D01*
X013328Y012654D01*
X013433Y012654D01*
X013485Y012602D01*
X013485Y012445D01*
X013590Y012445D02*
X013276Y012445D01*
X013485Y012550D02*
X013590Y012654D01*
X013590Y012807D02*
X013590Y013017D01*
X013590Y012912D02*
X013276Y012912D01*
X013380Y012807D01*
X012999Y013500D02*
X012685Y013500D01*
X012685Y013657D01*
X012737Y013709D01*
X012842Y013709D01*
X012894Y013657D01*
X012894Y013500D01*
X012894Y013604D02*
X012999Y013709D01*
X012999Y013862D02*
X012999Y014072D01*
X012999Y013967D02*
X012685Y013967D01*
X012790Y013862D01*
X012790Y014225D02*
X012685Y014329D01*
X012999Y014329D01*
X012999Y014225D02*
X012999Y014434D01*
X011660Y013602D02*
X011660Y013497D01*
X011608Y013445D01*
X011503Y013445D02*
X011451Y013549D01*
X011451Y013602D01*
X011503Y013654D01*
X011608Y013654D01*
X011660Y013602D01*
X011503Y013445D02*
X011346Y013445D01*
X011346Y013654D01*
X011399Y013292D02*
X011503Y013292D01*
X011556Y013239D01*
X011556Y013082D01*
X011660Y013082D02*
X011346Y013082D01*
X011346Y013239D01*
X011399Y013292D01*
X011556Y013187D02*
X011660Y013292D01*
X011293Y012702D02*
X011084Y012702D01*
X011293Y012493D01*
X011345Y012545D01*
X011345Y012649D01*
X011293Y012702D01*
X011084Y012702D02*
X011031Y012649D01*
X011031Y012545D01*
X011084Y012493D01*
X011293Y012493D01*
X011345Y012339D02*
X011345Y012130D01*
X011345Y012235D02*
X011031Y012235D01*
X011136Y012130D01*
X011084Y011977D02*
X011031Y011924D01*
X011031Y011820D01*
X011084Y011767D01*
X011293Y011767D01*
X011345Y011820D01*
X011345Y011924D01*
X011293Y011977D01*
X011504Y011838D02*
X011504Y011734D01*
X011556Y011681D01*
X011556Y011528D02*
X011661Y011528D01*
X011713Y011476D01*
X011713Y011319D01*
X011713Y011423D02*
X011818Y011528D01*
X011818Y011681D02*
X011609Y011891D01*
X011556Y011891D01*
X011504Y011838D01*
X011556Y011528D02*
X011504Y011476D01*
X011504Y011319D01*
X011818Y011319D01*
X011976Y011319D02*
X011976Y011476D01*
X012029Y011528D01*
X012133Y011528D01*
X012186Y011476D01*
X012186Y011319D01*
X012290Y011319D02*
X011976Y011319D01*
X012186Y011423D02*
X012290Y011528D01*
X012238Y011681D02*
X012290Y011734D01*
X012290Y011838D01*
X012238Y011891D01*
X012186Y011891D01*
X012133Y011838D01*
X012133Y011786D01*
X012133Y011838D02*
X012081Y011891D01*
X012029Y011891D01*
X011976Y011838D01*
X011976Y011734D01*
X012029Y011681D01*
X011818Y011681D02*
X011818Y011891D01*
X012449Y010710D02*
X012501Y010710D01*
X012710Y010500D01*
X012763Y010500D01*
X012710Y010347D02*
X012763Y010295D01*
X012763Y010190D01*
X012710Y010138D01*
X012501Y010138D01*
X012449Y010190D01*
X012449Y010295D01*
X012501Y010347D01*
X012449Y010500D02*
X012449Y010710D01*
X012974Y010182D02*
X013183Y009973D01*
X013235Y010025D01*
X013235Y010130D01*
X013183Y010182D01*
X012974Y010182D01*
X012921Y010130D01*
X012921Y010025D01*
X012974Y009973D01*
X013183Y009973D01*
X013235Y009820D02*
X013235Y009610D01*
X013235Y009715D02*
X012921Y009715D01*
X013026Y009610D01*
X012974Y009457D02*
X013078Y009457D01*
X013131Y009405D01*
X013131Y009248D01*
X013235Y009248D02*
X012921Y009248D01*
X012921Y009405D01*
X012974Y009457D01*
X013131Y009352D02*
X013235Y009457D01*
X013433Y009492D02*
X013433Y009387D01*
X013485Y009335D01*
X013695Y009335D01*
X013747Y009387D01*
X013747Y009492D01*
X013695Y009544D01*
X013747Y009697D02*
X013747Y009907D01*
X013747Y010060D02*
X013433Y010060D01*
X013590Y010112D02*
X013747Y010269D01*
X013735Y010481D02*
X013787Y010533D01*
X013787Y010638D01*
X013839Y010690D01*
X013892Y010690D01*
X013944Y010638D01*
X013944Y010533D01*
X013892Y010481D01*
X013735Y010481D02*
X013682Y010481D01*
X013630Y010533D01*
X013630Y010638D01*
X013682Y010690D01*
X013630Y010844D02*
X013944Y010844D01*
X013839Y010948D01*
X013944Y011053D01*
X013630Y011053D01*
X013630Y011206D02*
X013630Y011363D01*
X013682Y011415D01*
X013892Y011415D01*
X013944Y011363D01*
X013944Y011206D01*
X013630Y011206D01*
X013630Y011569D02*
X013630Y011673D01*
X013630Y011621D02*
X013944Y011621D01*
X013944Y011569D02*
X013944Y011673D01*
X014181Y011706D02*
X014181Y011811D01*
X014233Y011863D01*
X014443Y011654D01*
X014495Y011706D01*
X014495Y011811D01*
X014443Y011863D01*
X014233Y011863D01*
X014181Y011706D02*
X014233Y011654D01*
X014443Y011654D01*
X014443Y011525D02*
X014495Y011525D01*
X014495Y011473D01*
X014443Y011473D01*
X014443Y011525D01*
X014495Y011319D02*
X014495Y011110D01*
X014495Y011215D02*
X014181Y011215D01*
X014286Y011110D01*
X013433Y010269D02*
X013642Y010060D01*
X013747Y009697D02*
X013433Y009697D01*
X013485Y009544D02*
X013433Y009492D01*
X013433Y009182D02*
X013747Y009182D01*
X013642Y009077D01*
X013747Y008972D01*
X013433Y008972D01*
X013485Y008819D02*
X013433Y008767D01*
X013433Y008662D01*
X013485Y008610D01*
X013538Y008610D01*
X013590Y008662D01*
X013590Y008767D01*
X013642Y008819D01*
X013695Y008819D01*
X013747Y008767D01*
X013747Y008662D01*
X013695Y008610D01*
X012501Y008650D02*
X012081Y008650D01*
X012501Y008930D01*
X012081Y008930D01*
X012221Y009110D02*
X012081Y009250D01*
X012501Y009250D01*
X012501Y009110D02*
X012501Y009390D01*
X012431Y008470D02*
X012151Y008470D01*
X012081Y008400D01*
X012081Y008260D01*
X012151Y008189D01*
X012431Y008189D01*
X012501Y008260D01*
X012501Y008400D01*
X012431Y008470D01*
X012431Y008009D02*
X012501Y007939D01*
X012501Y007799D01*
X012431Y007729D01*
X012151Y007729D01*
X012081Y007799D01*
X012081Y007939D01*
X012151Y008009D01*
X008747Y010977D02*
X008747Y011082D01*
X008695Y011134D01*
X008747Y011288D02*
X008747Y011497D01*
X008747Y011392D02*
X008433Y011392D01*
X008538Y011288D01*
X008485Y011134D02*
X008433Y011082D01*
X008433Y010977D01*
X008485Y010925D01*
X008695Y010925D01*
X008747Y010977D01*
X008498Y012626D02*
X008289Y012626D01*
X008236Y012679D01*
X008236Y012783D01*
X008289Y012836D01*
X008289Y012989D02*
X008236Y013041D01*
X008236Y013146D01*
X008289Y013198D01*
X008341Y013198D01*
X008393Y013146D01*
X008446Y013198D01*
X008498Y013198D01*
X008550Y013146D01*
X008550Y013041D01*
X008498Y012989D01*
X008393Y013093D02*
X008393Y013146D01*
X008498Y012836D02*
X008550Y012783D01*
X008550Y012679D01*
X008498Y012626D01*
X009496Y013445D02*
X009496Y013602D01*
X009548Y013654D01*
X009653Y013654D01*
X009705Y013602D01*
X009705Y013445D01*
X009705Y013549D02*
X009810Y013654D01*
X009810Y013807D02*
X009810Y014017D01*
X009810Y013912D02*
X009496Y013912D01*
X009601Y013807D01*
X009496Y013445D02*
X009810Y013445D01*
X009968Y013600D02*
X010282Y013600D01*
X010282Y013704D02*
X010282Y013495D01*
X010230Y013342D02*
X010282Y013290D01*
X010282Y013185D01*
X010230Y013133D01*
X010021Y013133D01*
X009968Y013185D01*
X009968Y013290D01*
X010021Y013342D01*
X010073Y013495D02*
X009968Y013600D01*
X009968Y012996D02*
X009968Y012891D01*
X009968Y012943D02*
X010282Y012943D01*
X010282Y012891D02*
X010282Y012996D01*
X008983Y014500D02*
X008669Y014500D01*
X008669Y014657D01*
X008722Y014709D01*
X008826Y014709D01*
X008879Y014657D01*
X008879Y014500D01*
X008879Y014604D02*
X008983Y014709D01*
X008826Y014862D02*
X008669Y015019D01*
X008983Y015019D01*
X008826Y015071D02*
X008826Y014862D01*
X008840Y015374D02*
X008787Y015426D01*
X008787Y015531D01*
X008840Y015583D01*
X008787Y015736D02*
X008944Y015736D01*
X008892Y015841D01*
X008892Y015893D01*
X008944Y015946D01*
X009049Y015946D01*
X009101Y015893D01*
X009101Y015789D01*
X009049Y015736D01*
X009049Y015583D02*
X009101Y015531D01*
X009101Y015426D01*
X009049Y015374D01*
X008840Y015374D01*
X008787Y015736D02*
X008787Y015946D01*
X008839Y016083D02*
X008839Y016240D01*
X008787Y016292D01*
X008682Y016292D01*
X008630Y016240D01*
X008630Y016083D01*
X008944Y016083D01*
X008839Y016187D02*
X008944Y016292D01*
X008892Y016445D02*
X008839Y016445D01*
X008787Y016497D01*
X008787Y016602D01*
X008839Y016654D01*
X008892Y016654D01*
X008944Y016602D01*
X008944Y016497D01*
X008892Y016445D01*
X008787Y016497D02*
X008735Y016445D01*
X008682Y016445D01*
X008630Y016497D01*
X008630Y016602D01*
X008682Y016654D01*
X008735Y016654D01*
X008787Y016602D01*
X008839Y016831D02*
X008839Y016988D01*
X008787Y017040D01*
X008682Y017040D01*
X008630Y016988D01*
X008630Y016831D01*
X008944Y016831D01*
X008839Y016935D02*
X008944Y017040D01*
X008892Y017193D02*
X008944Y017245D01*
X008944Y017350D01*
X008892Y017402D01*
X008682Y017402D01*
X008630Y017350D01*
X008630Y017245D01*
X008682Y017193D01*
X008735Y017193D01*
X008787Y017245D01*
X008787Y017402D01*
X008839Y017579D02*
X008839Y017736D01*
X008787Y017788D01*
X008682Y017788D01*
X008630Y017736D01*
X008630Y017579D01*
X008944Y017579D01*
X008839Y017683D02*
X008944Y017788D01*
X008944Y017941D02*
X008892Y017941D01*
X008682Y018150D01*
X008630Y018150D01*
X008630Y017941D01*
X007763Y017814D02*
X007710Y017867D01*
X007763Y017814D02*
X007763Y017710D01*
X007710Y017657D01*
X007501Y017657D01*
X007449Y017710D01*
X007449Y017814D01*
X007501Y017867D01*
X007501Y018020D02*
X007553Y018020D01*
X007606Y018072D01*
X007606Y018177D01*
X007658Y018229D01*
X007710Y018229D01*
X007763Y018177D01*
X007763Y018072D01*
X007710Y018020D01*
X007658Y018020D01*
X007606Y018072D01*
X007606Y018177D02*
X007553Y018229D01*
X007501Y018229D01*
X007449Y018177D01*
X007449Y018072D01*
X007501Y018020D01*
X007133Y017757D02*
X007133Y017547D01*
X006924Y017757D01*
X006871Y017757D01*
X006819Y017704D01*
X006819Y017600D01*
X006871Y017547D01*
X006871Y017394D02*
X007081Y017394D01*
X007133Y017342D01*
X007133Y017237D01*
X007081Y017185D01*
X006871Y017185D01*
X006819Y017237D01*
X006819Y017342D01*
X006871Y017394D01*
X007028Y017290D02*
X007133Y017394D01*
X006569Y015867D02*
X006359Y015867D01*
X006307Y015815D01*
X006307Y015710D01*
X006359Y015658D01*
X006412Y015658D01*
X006464Y015710D01*
X006464Y015867D01*
X006569Y015867D02*
X006621Y015815D01*
X006621Y015710D01*
X006569Y015658D01*
X006569Y015505D02*
X006621Y015452D01*
X006621Y015348D01*
X006569Y015295D01*
X006359Y015295D01*
X006307Y015348D01*
X006307Y015452D01*
X006359Y015505D01*
X007606Y014726D02*
X007659Y014778D01*
X007711Y014778D01*
X007763Y014726D01*
X007816Y014778D01*
X007868Y014778D01*
X007920Y014726D01*
X007920Y014621D01*
X007868Y014569D01*
X007763Y014674D02*
X007763Y014726D01*
X007606Y014726D02*
X007606Y014621D01*
X007659Y014569D01*
X007659Y014416D02*
X007606Y014363D01*
X007606Y014259D01*
X007659Y014206D01*
X007868Y014206D01*
X007920Y014259D01*
X007920Y014363D01*
X007868Y014416D01*
X007920Y014069D02*
X007920Y013965D01*
X007920Y014017D02*
X007606Y014017D01*
X007606Y013965D02*
X007606Y014069D01*
X006739Y014201D02*
X006425Y014201D01*
X006582Y014044D01*
X006582Y014253D01*
X006477Y013890D02*
X006425Y013838D01*
X006425Y013733D01*
X006477Y013681D01*
X006687Y013681D01*
X006739Y013733D01*
X006739Y013838D01*
X006687Y013890D01*
X006267Y013529D02*
X006267Y013320D01*
X006267Y013425D02*
X005953Y013425D01*
X006057Y013320D01*
X006005Y013167D02*
X005953Y013115D01*
X005953Y012958D01*
X006267Y012958D01*
X006267Y013115D01*
X006214Y013167D01*
X006005Y013167D01*
X005953Y012804D02*
X005953Y012595D01*
X006267Y012595D01*
X006267Y012804D01*
X006110Y012700D02*
X006110Y012595D01*
X006267Y012442D02*
X006267Y012233D01*
X005953Y012233D01*
X004666Y014943D02*
X004771Y015047D01*
X004666Y014943D02*
X004614Y014943D01*
X004719Y018568D02*
X004876Y018568D01*
X010087Y015119D02*
X010139Y015014D01*
X010244Y014910D01*
X010244Y015067D01*
X010296Y015119D01*
X010348Y015119D01*
X010401Y015067D01*
X010401Y014962D01*
X010348Y014910D01*
X010244Y014910D01*
X010244Y014756D02*
X010296Y014704D01*
X010296Y014547D01*
X010401Y014547D02*
X010087Y014547D01*
X010087Y014704D01*
X010139Y014756D01*
X010244Y014756D01*
X010296Y014652D02*
X010401Y014756D01*
X010520Y017379D02*
X010520Y017484D01*
X010520Y017431D02*
X010834Y017431D01*
X010834Y017379D02*
X010834Y017484D01*
X010781Y017621D02*
X010834Y017673D01*
X010834Y017778D01*
X010781Y017830D01*
X010834Y017983D02*
X010624Y018193D01*
X010572Y018193D01*
X010520Y018140D01*
X010520Y018036D01*
X010572Y017983D01*
X010572Y017830D02*
X010520Y017778D01*
X010520Y017673D01*
X010572Y017621D01*
X010781Y017621D01*
X010834Y017983D02*
X010834Y018193D01*
X011150Y018208D02*
X011150Y018103D01*
X011202Y018051D01*
X011411Y018051D01*
X011464Y018103D01*
X011464Y018208D01*
X011411Y018260D01*
X011411Y018414D02*
X011464Y018466D01*
X011464Y018571D01*
X011411Y018623D01*
X011359Y018623D01*
X011307Y018571D01*
X011307Y018414D01*
X011411Y018414D01*
X011307Y018414D02*
X011202Y018518D01*
X011150Y018623D01*
X011202Y018260D02*
X011150Y018208D01*
X015638Y016156D02*
X015952Y016156D01*
X015952Y016051D02*
X015952Y016261D01*
X015742Y016051D02*
X015638Y016156D01*
X015638Y015898D02*
X015952Y015689D01*
X015952Y015898D02*
X015638Y015689D01*
X019968Y015515D02*
X019968Y015305D01*
X019968Y015152D02*
X020021Y015152D01*
X020125Y015047D01*
X020282Y015047D01*
X020125Y015047D02*
X020021Y014943D01*
X019968Y014943D01*
X019968Y014790D02*
X020021Y014790D01*
X020230Y014580D01*
X020282Y014580D01*
X020282Y014790D01*
X019968Y014790D02*
X019968Y014580D01*
X019968Y014427D02*
X020282Y014427D01*
X019968Y014218D01*
X020282Y014218D01*
X020282Y014065D02*
X019968Y014065D01*
X020125Y014065D02*
X020125Y013855D01*
X020282Y013855D02*
X019968Y013855D01*
X020021Y013702D02*
X019968Y013650D01*
X019968Y013545D01*
X020021Y013493D01*
X020073Y013340D02*
X020282Y013340D01*
X020282Y013493D02*
X020073Y013702D01*
X020021Y013702D01*
X020282Y013702D02*
X020282Y013493D01*
X020125Y013340D02*
X020125Y013130D01*
X020073Y013130D02*
X019968Y013235D01*
X020073Y013340D01*
X020073Y013130D02*
X020282Y013130D01*
X020230Y012977D02*
X020282Y012925D01*
X020282Y012820D01*
X020230Y012768D01*
X020021Y012768D01*
X019968Y012820D01*
X019968Y012925D01*
X020021Y012977D01*
X020021Y012615D02*
X020073Y012615D01*
X020125Y012562D01*
X020125Y012405D01*
X019968Y012405D02*
X019968Y012562D01*
X020021Y012615D01*
X020125Y012562D02*
X020178Y012615D01*
X020230Y012615D01*
X020282Y012562D01*
X020282Y012405D01*
X019968Y012405D01*
X020282Y012252D02*
X020282Y012043D01*
X019968Y012043D01*
X020125Y011527D02*
X020282Y011527D01*
X020282Y011370D01*
X020230Y011318D01*
X020178Y011370D01*
X020178Y011527D01*
X020125Y011527D02*
X020073Y011475D01*
X020073Y011370D01*
X020073Y011181D02*
X020073Y011076D01*
X020021Y011128D02*
X020230Y011128D01*
X020282Y011181D01*
X020282Y010923D02*
X020125Y010923D01*
X020073Y010870D01*
X020073Y010766D01*
X020178Y010766D02*
X020178Y010923D01*
X020282Y010923D02*
X020282Y010766D01*
X020230Y010713D01*
X020178Y010766D01*
X020125Y010560D02*
X020178Y010508D01*
X020178Y010351D01*
X020282Y010351D02*
X019968Y010351D01*
X019968Y010508D01*
X020021Y010560D01*
X020125Y010560D01*
X020178Y010456D02*
X020282Y010560D01*
X020282Y010198D02*
X020073Y010198D01*
X020282Y010198D02*
X020282Y010041D01*
X020230Y009988D01*
X020073Y009988D01*
X020125Y009835D02*
X020282Y009835D01*
X020282Y009731D02*
X020125Y009731D01*
X020073Y009783D01*
X020125Y009835D01*
X020125Y009731D02*
X020073Y009678D01*
X020073Y009626D01*
X020282Y009626D01*
X022213Y009644D02*
X022527Y009644D01*
X022527Y009540D02*
X022527Y009749D01*
X022317Y009540D02*
X022213Y009644D01*
X022213Y009387D02*
X022527Y009387D01*
X022422Y009282D01*
X022527Y009177D01*
X022213Y009177D01*
X022265Y009024D02*
X022213Y008972D01*
X022213Y008867D01*
X022265Y008815D01*
X022317Y008815D01*
X022370Y008867D01*
X022370Y008972D01*
X022422Y009024D01*
X022474Y009024D01*
X022527Y008972D01*
X022527Y008867D01*
X022474Y008815D01*
X022842Y008713D02*
X022842Y008922D01*
X022842Y009075D02*
X022842Y009285D01*
X022842Y009180D02*
X023156Y009180D01*
X023156Y008922D02*
X023156Y008713D01*
X022842Y008713D01*
X022999Y008713D02*
X022999Y008818D01*
X023052Y008560D02*
X023104Y008560D01*
X023156Y008507D01*
X023156Y008403D01*
X023104Y008350D01*
X022999Y008403D02*
X022999Y008507D01*
X023052Y008560D01*
X022895Y008560D02*
X022842Y008507D01*
X022842Y008403D01*
X022895Y008350D01*
X022947Y008350D01*
X022999Y008403D01*
X022842Y008197D02*
X022842Y007988D01*
X023156Y007988D01*
X023156Y008197D01*
X022999Y008093D02*
X022999Y007988D01*
X022999Y007835D02*
X022895Y007835D01*
X022842Y007782D01*
X022842Y007625D01*
X023156Y007625D01*
X023052Y007625D02*
X023052Y007782D01*
X022999Y007835D01*
X023052Y007730D02*
X023156Y007835D01*
X023840Y010925D02*
X024049Y010925D01*
X024101Y010977D01*
X024101Y011082D01*
X024049Y011134D01*
X024101Y011288D02*
X024101Y011497D01*
X024101Y011392D02*
X023787Y011392D01*
X023892Y011288D01*
X023840Y011134D02*
X023787Y011082D01*
X023787Y010977D01*
X023840Y010925D01*
X023852Y012626D02*
X023643Y012626D01*
X023591Y012679D01*
X023591Y012783D01*
X023643Y012836D01*
X023643Y012989D02*
X023591Y013041D01*
X023591Y013146D01*
X023643Y013198D01*
X023695Y013198D01*
X023748Y013146D01*
X023800Y013198D01*
X023852Y013198D01*
X023904Y013146D01*
X023904Y013041D01*
X023852Y012989D01*
X023748Y013093D02*
X023748Y013146D01*
X023852Y012836D02*
X023904Y012783D01*
X023904Y012679D01*
X023852Y012626D01*
X024850Y013445D02*
X024850Y013602D01*
X024903Y013654D01*
X025007Y013654D01*
X025060Y013602D01*
X025060Y013445D01*
X025164Y013445D02*
X024850Y013445D01*
X025060Y013549D02*
X025164Y013654D01*
X025164Y013807D02*
X025164Y014017D01*
X025164Y013912D02*
X024850Y013912D01*
X024955Y013807D01*
X025323Y013600D02*
X025427Y013495D01*
X025323Y013600D02*
X025637Y013600D01*
X025637Y013704D02*
X025637Y013495D01*
X025584Y013342D02*
X025637Y013290D01*
X025637Y013185D01*
X025584Y013133D01*
X025375Y013133D01*
X025323Y013185D01*
X025323Y013290D01*
X025375Y013342D01*
X025323Y012996D02*
X025323Y012891D01*
X025323Y012943D02*
X025637Y012943D01*
X025637Y012891D02*
X025637Y012996D01*
X026386Y012649D02*
X026386Y012545D01*
X026438Y012493D01*
X026647Y012493D01*
X026438Y012702D01*
X026647Y012702D01*
X026700Y012649D01*
X026700Y012545D01*
X026647Y012493D01*
X026700Y012339D02*
X026700Y012130D01*
X026700Y012235D02*
X026386Y012235D01*
X026490Y012130D01*
X026438Y011977D02*
X026386Y011924D01*
X026386Y011820D01*
X026438Y011767D01*
X026647Y011767D01*
X026700Y011820D01*
X026700Y011924D01*
X026647Y011977D01*
X026858Y011838D02*
X026858Y011734D01*
X026911Y011681D01*
X026911Y011528D02*
X027015Y011528D01*
X027068Y011476D01*
X027068Y011319D01*
X027172Y011319D02*
X026858Y011319D01*
X026858Y011476D01*
X026911Y011528D01*
X027068Y011423D02*
X027172Y011528D01*
X027172Y011681D02*
X026963Y011891D01*
X026911Y011891D01*
X026858Y011838D01*
X027172Y011891D02*
X027172Y011681D01*
X027331Y011734D02*
X027331Y011838D01*
X027383Y011891D01*
X027435Y011891D01*
X027488Y011838D01*
X027540Y011891D01*
X027592Y011891D01*
X027645Y011838D01*
X027645Y011734D01*
X027592Y011681D01*
X027488Y011786D02*
X027488Y011838D01*
X027383Y011681D02*
X027331Y011734D01*
X027383Y011528D02*
X027488Y011528D01*
X027540Y011476D01*
X027540Y011319D01*
X027540Y011423D02*
X027645Y011528D01*
X027645Y011319D02*
X027331Y011319D01*
X027331Y011476D01*
X027383Y011528D01*
X027803Y010710D02*
X027855Y010710D01*
X028065Y010500D01*
X028117Y010500D01*
X028065Y010347D02*
X028117Y010295D01*
X028117Y010190D01*
X028065Y010138D01*
X027855Y010138D01*
X027803Y010190D01*
X027803Y010295D01*
X027855Y010347D01*
X027803Y010500D02*
X027803Y010710D01*
X028328Y010182D02*
X028276Y010130D01*
X028276Y010025D01*
X028328Y009973D01*
X028537Y009973D01*
X028328Y010182D01*
X028537Y010182D01*
X028590Y010130D01*
X028590Y010025D01*
X028537Y009973D01*
X028590Y009820D02*
X028590Y009610D01*
X028590Y009715D02*
X028276Y009715D01*
X028380Y009610D01*
X028328Y009457D02*
X028276Y009405D01*
X028276Y009248D01*
X028590Y009248D01*
X028485Y009248D02*
X028485Y009405D01*
X028433Y009457D01*
X028328Y009457D01*
X028485Y009352D02*
X028590Y009457D01*
X028787Y009492D02*
X028787Y009387D01*
X028840Y009335D01*
X029049Y009335D01*
X029101Y009387D01*
X029101Y009492D01*
X029049Y009544D01*
X029101Y009697D02*
X028787Y009697D01*
X028840Y009544D02*
X028787Y009492D01*
X028787Y009182D02*
X029101Y009182D01*
X028997Y009077D01*
X029101Y008972D01*
X028787Y008972D01*
X028840Y008819D02*
X028787Y008767D01*
X028787Y008662D01*
X028840Y008610D01*
X028892Y008610D01*
X028944Y008662D01*
X028944Y008767D01*
X028997Y008819D01*
X029049Y008819D01*
X029101Y008767D01*
X029101Y008662D01*
X029049Y008610D01*
X029101Y009697D02*
X029101Y009907D01*
X029101Y010060D02*
X028787Y010060D01*
X028944Y010112D02*
X029101Y010269D01*
X029089Y010481D02*
X029037Y010481D01*
X028984Y010533D01*
X028984Y010638D01*
X029037Y010690D01*
X029141Y010638D02*
X029194Y010690D01*
X029246Y010690D01*
X029298Y010638D01*
X029298Y010533D01*
X029246Y010481D01*
X029141Y010533D02*
X029141Y010638D01*
X029141Y010533D02*
X029089Y010481D01*
X028787Y010269D02*
X028997Y010060D01*
X028984Y010844D02*
X029298Y010844D01*
X029194Y010948D01*
X029298Y011053D01*
X028984Y011053D01*
X028984Y011206D02*
X028984Y011363D01*
X029037Y011415D01*
X029246Y011415D01*
X029298Y011363D01*
X029298Y011206D01*
X028984Y011206D01*
X028984Y011569D02*
X028984Y011673D01*
X028984Y011621D02*
X029298Y011621D01*
X029298Y011569D02*
X029298Y011673D01*
X029246Y011810D02*
X029037Y011810D01*
X028984Y011863D01*
X028984Y011967D01*
X029037Y012020D01*
X029246Y012020D01*
X029298Y011967D01*
X029298Y011863D01*
X029246Y011810D01*
X029535Y011811D02*
X029588Y011863D01*
X029797Y011654D01*
X029849Y011706D01*
X029849Y011811D01*
X029797Y011863D01*
X029588Y011863D01*
X029535Y011811D02*
X029535Y011706D01*
X029588Y011654D01*
X029797Y011654D01*
X029797Y011525D02*
X029849Y011525D01*
X029849Y011473D01*
X029797Y011473D01*
X029797Y011525D01*
X029849Y011319D02*
X029849Y011110D01*
X029849Y011215D02*
X029535Y011215D01*
X029640Y011110D01*
X029588Y012134D02*
X029535Y012186D01*
X029535Y012291D01*
X029588Y012343D01*
X029797Y012134D01*
X029849Y012186D01*
X029849Y012291D01*
X029797Y012343D01*
X029588Y012343D01*
X029588Y012134D02*
X029797Y012134D01*
X029797Y012496D02*
X029797Y012549D01*
X029849Y012549D01*
X029849Y012496D01*
X029797Y012496D01*
X029797Y012677D02*
X029588Y012887D01*
X029797Y012887D01*
X029849Y012834D01*
X029849Y012730D01*
X029797Y012677D01*
X029588Y012677D01*
X029535Y012730D01*
X029535Y012834D01*
X029588Y012887D01*
X029588Y013118D02*
X029535Y013170D01*
X029535Y013275D01*
X029588Y013327D01*
X029797Y013118D01*
X029849Y013170D01*
X029849Y013275D01*
X029797Y013327D01*
X029588Y013327D01*
X029588Y013118D02*
X029797Y013118D01*
X029797Y013480D02*
X029797Y013533D01*
X029849Y013533D01*
X029849Y013480D01*
X029797Y013480D01*
X029849Y013662D02*
X029849Y013871D01*
X029849Y013766D02*
X029535Y013766D01*
X029640Y013662D01*
X029588Y014102D02*
X029535Y014155D01*
X029535Y014259D01*
X029588Y014312D01*
X029797Y014102D01*
X029849Y014155D01*
X029849Y014259D01*
X029797Y014312D01*
X029588Y014312D01*
X029588Y014102D02*
X029797Y014102D01*
X029797Y014465D02*
X029797Y014517D01*
X029849Y014517D01*
X029849Y014465D01*
X029797Y014465D01*
X029692Y014646D02*
X029692Y014855D01*
X029535Y014803D02*
X029692Y014646D01*
X029849Y014803D02*
X029535Y014803D01*
X029588Y015126D02*
X029535Y015178D01*
X029535Y015283D01*
X029588Y015335D01*
X029797Y015126D01*
X029849Y015178D01*
X029849Y015283D01*
X029797Y015335D01*
X029588Y015335D01*
X029588Y015126D02*
X029797Y015126D01*
X029797Y015488D02*
X029797Y015541D01*
X029849Y015541D01*
X029849Y015488D01*
X029797Y015488D01*
X029797Y015670D02*
X029849Y015722D01*
X029849Y015827D01*
X029797Y015879D01*
X029692Y015879D01*
X029640Y015827D01*
X029640Y015774D01*
X029692Y015670D01*
X029535Y015670D01*
X029535Y015879D01*
X029588Y016149D02*
X029535Y016202D01*
X029535Y016306D01*
X029588Y016359D01*
X029797Y016149D01*
X029849Y016202D01*
X029849Y016306D01*
X029797Y016359D01*
X029588Y016359D01*
X029588Y016149D02*
X029797Y016149D01*
X029797Y016512D02*
X029797Y016564D01*
X029849Y016564D01*
X029849Y016512D01*
X029797Y016512D01*
X029797Y016693D02*
X029849Y016693D01*
X029797Y016693D02*
X029588Y016903D01*
X029535Y016903D01*
X029535Y016693D01*
X029588Y017094D02*
X029535Y017147D01*
X029535Y017251D01*
X029588Y017304D01*
X029797Y017094D01*
X029849Y017147D01*
X029849Y017251D01*
X029797Y017304D01*
X029588Y017304D01*
X029588Y017094D02*
X029797Y017094D01*
X029797Y017457D02*
X029797Y017509D01*
X029849Y017509D01*
X029849Y017457D01*
X029797Y017457D01*
X029797Y017638D02*
X029849Y017690D01*
X029849Y017795D01*
X029797Y017847D01*
X029745Y017847D01*
X029692Y017795D01*
X029692Y017638D01*
X029797Y017638D01*
X029692Y017638D02*
X029588Y017743D01*
X029535Y017847D01*
X029588Y018118D02*
X029535Y018170D01*
X029535Y018275D01*
X029588Y018327D01*
X029797Y018118D01*
X029849Y018170D01*
X029849Y018275D01*
X029797Y018327D01*
X029588Y018327D01*
X029588Y018118D02*
X029797Y018118D01*
X029797Y018480D02*
X029797Y018533D01*
X029849Y018533D01*
X029849Y018480D01*
X029797Y018480D01*
X029797Y018662D02*
X029849Y018714D01*
X029849Y018819D01*
X029797Y018871D01*
X029745Y018871D01*
X029692Y018819D01*
X029692Y018766D01*
X029692Y018819D02*
X029640Y018871D01*
X029588Y018871D01*
X029535Y018819D01*
X029535Y018714D01*
X029588Y018662D01*
X029588Y019102D02*
X029535Y019155D01*
X029535Y019259D01*
X029588Y019312D01*
X029797Y019102D01*
X029849Y019155D01*
X029849Y019259D01*
X029797Y019312D01*
X029588Y019312D01*
X029588Y019102D02*
X029797Y019102D01*
X029797Y019465D02*
X029797Y019517D01*
X029849Y019517D01*
X029849Y019465D01*
X029797Y019465D01*
X029849Y019646D02*
X029640Y019855D01*
X029588Y019855D01*
X029535Y019803D01*
X029535Y019698D01*
X029588Y019646D01*
X029849Y019646D02*
X029849Y019855D01*
X029849Y020086D02*
X029849Y020296D01*
X029849Y020191D02*
X029535Y020191D01*
X029640Y020086D01*
X029797Y020449D02*
X029797Y020501D01*
X029849Y020501D01*
X029849Y020449D01*
X029797Y020449D01*
X029849Y020630D02*
X029849Y020840D01*
X029849Y020735D02*
X029535Y020735D01*
X029640Y020630D01*
X029588Y021059D02*
X029797Y021059D01*
X029849Y021111D01*
X029849Y021216D01*
X029797Y021268D01*
X029692Y021268D01*
X029692Y021163D01*
X029588Y021059D02*
X029535Y021111D01*
X029535Y021216D01*
X029588Y021268D01*
X029535Y021421D02*
X029849Y021631D01*
X029535Y021631D01*
X029535Y021784D02*
X029535Y021941D01*
X029588Y021993D01*
X029797Y021993D01*
X029849Y021941D01*
X029849Y021784D01*
X029535Y021784D01*
X029272Y022082D02*
X029377Y022187D01*
X029272Y022292D01*
X029063Y022292D01*
X029063Y022445D02*
X029063Y022602D01*
X029115Y022654D01*
X029220Y022654D01*
X029272Y022602D01*
X029272Y022445D01*
X029377Y022445D02*
X029063Y022445D01*
X029063Y022807D02*
X029063Y022964D01*
X029115Y023017D01*
X029220Y023017D01*
X029272Y022964D01*
X029272Y022807D01*
X029377Y022807D02*
X029063Y022807D01*
X028773Y023169D02*
X028826Y023222D01*
X028826Y023326D01*
X028773Y023379D01*
X028564Y023379D01*
X028512Y023326D01*
X028512Y023222D01*
X028564Y023169D01*
X028773Y023169D01*
X028721Y023274D02*
X028826Y023379D01*
X028826Y023532D02*
X028826Y023741D01*
X028826Y023636D02*
X028512Y023636D01*
X028616Y023532D01*
X029063Y022082D02*
X029272Y022082D01*
X029535Y021421D02*
X029849Y021421D01*
X026818Y018571D02*
X026766Y018623D01*
X026713Y018623D01*
X026661Y018571D01*
X026661Y018414D01*
X026766Y018414D01*
X026818Y018466D01*
X026818Y018571D01*
X026661Y018414D02*
X026556Y018518D01*
X026504Y018623D01*
X026556Y018260D02*
X026504Y018208D01*
X026504Y018103D01*
X026556Y018051D01*
X026766Y018051D01*
X026818Y018103D01*
X026818Y018208D01*
X026766Y018260D01*
X026188Y018193D02*
X026188Y017983D01*
X025979Y018193D01*
X025926Y018193D01*
X025874Y018140D01*
X025874Y018036D01*
X025926Y017983D01*
X025926Y017830D02*
X025874Y017778D01*
X025874Y017673D01*
X025926Y017621D01*
X026136Y017621D01*
X026188Y017673D01*
X026188Y017778D01*
X026136Y017830D01*
X026188Y017484D02*
X026188Y017379D01*
X026188Y017431D02*
X025874Y017431D01*
X025874Y017379D02*
X025874Y017484D01*
X024298Y017579D02*
X023984Y017579D01*
X023984Y017736D01*
X024037Y017788D01*
X024141Y017788D01*
X024194Y017736D01*
X024194Y017579D01*
X024194Y017683D02*
X024298Y017788D01*
X024298Y017941D02*
X024246Y017941D01*
X024037Y018150D01*
X023984Y018150D01*
X023984Y017941D01*
X024037Y017402D02*
X023984Y017350D01*
X023984Y017245D01*
X024037Y017193D01*
X024089Y017193D01*
X024141Y017245D01*
X024141Y017402D01*
X024037Y017402D02*
X024246Y017402D01*
X024298Y017350D01*
X024298Y017245D01*
X024246Y017193D01*
X024298Y017040D02*
X024194Y016935D01*
X024194Y016988D02*
X024194Y016831D01*
X024298Y016831D02*
X023984Y016831D01*
X023984Y016988D01*
X024037Y017040D01*
X024141Y017040D01*
X024194Y016988D01*
X024194Y016654D02*
X024246Y016654D01*
X024298Y016602D01*
X024298Y016497D01*
X024246Y016445D01*
X024194Y016445D01*
X024141Y016497D01*
X024141Y016602D01*
X024194Y016654D01*
X024141Y016602D02*
X024089Y016654D01*
X024037Y016654D01*
X023984Y016602D01*
X023984Y016497D01*
X024037Y016445D01*
X024089Y016445D01*
X024141Y016497D01*
X024141Y016292D02*
X024037Y016292D01*
X023984Y016240D01*
X023984Y016083D01*
X024298Y016083D01*
X024194Y016083D02*
X024194Y016240D01*
X024141Y016292D01*
X024194Y016187D02*
X024298Y016292D01*
X024299Y015946D02*
X024403Y015946D01*
X024456Y015893D01*
X024456Y015789D01*
X024403Y015736D01*
X024299Y015736D02*
X024246Y015841D01*
X024246Y015893D01*
X024299Y015946D01*
X024142Y015946D02*
X024142Y015736D01*
X024299Y015736D01*
X024403Y015583D02*
X024456Y015531D01*
X024456Y015426D01*
X024403Y015374D01*
X024194Y015374D01*
X024142Y015426D01*
X024142Y015531D01*
X024194Y015583D01*
X024181Y015071D02*
X024181Y014862D01*
X024024Y015019D01*
X024338Y015019D01*
X024338Y014709D02*
X024233Y014604D01*
X024233Y014657D02*
X024233Y014500D01*
X024338Y014500D02*
X024024Y014500D01*
X024024Y014657D01*
X024076Y014709D01*
X024181Y014709D01*
X024233Y014657D01*
X023275Y014621D02*
X023222Y014569D01*
X023275Y014621D02*
X023275Y014726D01*
X023222Y014778D01*
X023170Y014778D01*
X023118Y014726D01*
X023118Y014674D01*
X023118Y014726D02*
X023065Y014778D01*
X023013Y014778D01*
X022961Y014726D01*
X022961Y014621D01*
X023013Y014569D01*
X023013Y014416D02*
X022961Y014363D01*
X022961Y014259D01*
X023013Y014206D01*
X023222Y014206D01*
X023275Y014259D01*
X023275Y014363D01*
X023222Y014416D01*
X023275Y014069D02*
X023275Y013965D01*
X023275Y014017D02*
X022961Y014017D01*
X022961Y013965D02*
X022961Y014069D01*
X022093Y014201D02*
X021779Y014201D01*
X021936Y014044D01*
X021936Y014253D01*
X021832Y013890D02*
X021779Y013838D01*
X021779Y013733D01*
X021832Y013681D01*
X022041Y013681D01*
X022093Y013733D01*
X022093Y013838D01*
X022041Y013890D01*
X021621Y013529D02*
X021621Y013320D01*
X021621Y013425D02*
X021307Y013425D01*
X021412Y013320D01*
X021359Y013167D02*
X021307Y013115D01*
X021307Y012958D01*
X021621Y012958D01*
X021621Y013115D01*
X021569Y013167D01*
X021359Y013167D01*
X021307Y012804D02*
X021307Y012595D01*
X021621Y012595D01*
X021621Y012804D01*
X021464Y012700D02*
X021464Y012595D01*
X021621Y012442D02*
X021621Y012233D01*
X021307Y012233D01*
X021714Y015295D02*
X021923Y015295D01*
X021975Y015348D01*
X021975Y015452D01*
X021923Y015505D01*
X021923Y015658D02*
X021975Y015710D01*
X021975Y015815D01*
X021923Y015867D01*
X021714Y015867D01*
X021661Y015815D01*
X021661Y015710D01*
X021714Y015658D01*
X021766Y015658D01*
X021818Y015710D01*
X021818Y015867D01*
X021714Y015505D02*
X021661Y015452D01*
X021661Y015348D01*
X021714Y015295D01*
X020282Y015305D02*
X020282Y015515D01*
X020282Y015305D02*
X020230Y015305D01*
X020021Y015515D01*
X019968Y015515D01*
X019968Y016030D02*
X019968Y016187D01*
X020021Y016240D01*
X020073Y016240D01*
X020125Y016187D01*
X020125Y016030D01*
X020282Y016030D02*
X019968Y016030D01*
X020125Y016187D02*
X020178Y016240D01*
X020230Y016240D01*
X020282Y016187D01*
X020282Y016030D01*
X020282Y016393D02*
X019968Y016393D01*
X020282Y016393D02*
X020282Y016602D01*
X020282Y016755D02*
X019968Y016755D01*
X019968Y016965D01*
X020125Y016860D02*
X020125Y016755D01*
X020282Y016755D02*
X020282Y016965D01*
X020282Y017480D02*
X020073Y017480D01*
X020073Y017533D01*
X020125Y017585D01*
X020073Y017637D01*
X020125Y017690D01*
X020282Y017690D01*
X020282Y017585D02*
X020125Y017585D01*
X020125Y017843D02*
X020230Y017843D01*
X020282Y017895D01*
X020282Y018000D01*
X020230Y018052D01*
X020125Y018052D01*
X020073Y018000D01*
X020073Y017895D01*
X020125Y017843D01*
X020125Y018205D02*
X020073Y018258D01*
X020073Y018415D01*
X019968Y018415D02*
X020282Y018415D01*
X020282Y018258D01*
X020230Y018205D01*
X020125Y018205D01*
X020073Y018568D02*
X020230Y018568D01*
X020282Y018620D01*
X020282Y018777D01*
X020073Y018777D01*
X019968Y018930D02*
X019968Y018983D01*
X020282Y018983D01*
X020282Y019035D02*
X020282Y018930D01*
X020230Y019172D02*
X020125Y019172D01*
X020073Y019224D01*
X020073Y019329D01*
X020125Y019381D01*
X020178Y019381D01*
X020178Y019172D01*
X020230Y019172D02*
X020282Y019224D01*
X020282Y019329D01*
X020874Y019497D02*
X020874Y019602D01*
X020926Y019654D01*
X021031Y019602D02*
X021031Y019497D01*
X020979Y019445D01*
X020926Y019445D01*
X020874Y019497D01*
X021031Y019602D02*
X021083Y019654D01*
X021136Y019654D01*
X021188Y019602D01*
X021188Y019497D01*
X021136Y019445D01*
X021188Y019807D02*
X020874Y019807D01*
X020874Y020016D02*
X021188Y020016D01*
X021083Y019912D01*
X021188Y019807D01*
X021188Y020170D02*
X020979Y020379D01*
X020926Y020379D01*
X020874Y020327D01*
X020874Y020222D01*
X020926Y020170D01*
X021188Y020170D02*
X021188Y020379D01*
X021188Y020686D02*
X021188Y020791D01*
X021188Y020739D02*
X020874Y020739D01*
X020874Y020791D02*
X020874Y020686D01*
X020926Y020928D02*
X020979Y020928D01*
X021031Y020980D01*
X021031Y021085D01*
X021083Y021137D01*
X021136Y021137D01*
X021188Y021085D01*
X021188Y020980D01*
X021136Y020928D01*
X020926Y020928D02*
X020874Y020980D01*
X020874Y021085D01*
X020926Y021137D01*
X020874Y021290D02*
X020874Y021447D01*
X020926Y021500D01*
X021031Y021500D01*
X021083Y021447D01*
X021083Y021290D01*
X021188Y021290D02*
X020874Y021290D01*
X020282Y021287D02*
X019968Y021287D01*
X020073Y021444D02*
X020178Y021287D01*
X020282Y021444D01*
X020230Y021589D02*
X020282Y021641D01*
X020282Y021746D01*
X020230Y021798D01*
X020125Y021798D01*
X020073Y021746D01*
X020073Y021641D01*
X020125Y021589D01*
X020230Y021589D01*
X020230Y021951D02*
X020282Y022004D01*
X020282Y022161D01*
X020073Y022161D01*
X020073Y022314D02*
X020073Y022419D01*
X020021Y022366D02*
X020230Y022366D01*
X020282Y022419D01*
X020230Y021951D02*
X020073Y021951D01*
X020125Y021134D02*
X020282Y021134D01*
X020282Y020977D01*
X020230Y020924D01*
X020178Y020977D01*
X020178Y021134D01*
X020125Y021134D02*
X020073Y021081D01*
X020073Y020977D01*
X020125Y020771D02*
X020178Y020771D01*
X020178Y020562D01*
X020230Y020562D02*
X020125Y020562D01*
X020073Y020614D01*
X020073Y020719D01*
X020125Y020771D01*
X020282Y020719D02*
X020282Y020614D01*
X020230Y020562D01*
X020073Y020417D02*
X020073Y020364D01*
X020178Y020260D01*
X020282Y020260D02*
X020073Y020260D01*
X020125Y020106D02*
X020073Y020054D01*
X020073Y019897D01*
X019968Y019897D02*
X020282Y019897D01*
X020282Y020054D01*
X020230Y020106D01*
X020125Y020106D01*
X022842Y020016D02*
X023156Y020016D01*
X023052Y019912D01*
X023156Y019807D01*
X022842Y019807D01*
X022895Y019654D02*
X022842Y019602D01*
X022842Y019497D01*
X022895Y019445D01*
X022947Y019445D01*
X022999Y019497D01*
X022999Y019602D01*
X023052Y019654D01*
X023104Y019654D01*
X023156Y019602D01*
X023156Y019497D01*
X023104Y019445D01*
X023104Y020170D02*
X023156Y020222D01*
X023156Y020327D01*
X023104Y020379D01*
X023052Y020379D01*
X022999Y020327D01*
X022999Y020274D01*
X022999Y020327D02*
X022947Y020379D01*
X022895Y020379D01*
X022842Y020327D01*
X022842Y020222D01*
X022895Y020170D01*
X022842Y020807D02*
X022842Y020964D01*
X022895Y021016D01*
X022947Y021016D01*
X022999Y020964D01*
X022999Y020807D01*
X023156Y020807D02*
X022842Y020807D01*
X022999Y020964D02*
X023052Y021016D01*
X023104Y021016D01*
X023156Y020964D01*
X023156Y020807D01*
X023156Y021170D02*
X022842Y021170D01*
X023156Y021170D02*
X023156Y021379D01*
X023709Y023602D02*
X023970Y023602D01*
X024023Y023655D01*
X024023Y023759D01*
X023970Y023812D01*
X023709Y023812D01*
X023761Y023965D02*
X023709Y024017D01*
X023709Y024122D01*
X023761Y024174D01*
X023813Y024174D01*
X024023Y023965D01*
X024023Y024174D01*
X023826Y024122D02*
X023773Y024174D01*
X023512Y024174D01*
X023616Y024327D02*
X023512Y024432D01*
X023826Y024432D01*
X023826Y024327D02*
X023826Y024537D01*
X023826Y024122D02*
X023826Y024017D01*
X023773Y023965D01*
X023512Y023965D01*
X025874Y022665D02*
X025874Y022560D01*
X025926Y022508D01*
X025926Y022355D02*
X025874Y022303D01*
X025874Y022198D01*
X025926Y022146D01*
X026136Y022146D01*
X026188Y022198D01*
X026188Y022303D01*
X026136Y022355D01*
X026188Y022508D02*
X025979Y022717D01*
X025926Y022717D01*
X025874Y022665D01*
X026188Y022717D02*
X026188Y022508D01*
X023065Y018229D02*
X023117Y018177D01*
X023117Y018072D01*
X023065Y018020D01*
X023012Y018020D01*
X022960Y018072D01*
X022960Y018177D01*
X023012Y018229D01*
X023065Y018229D01*
X022960Y018177D02*
X022908Y018229D01*
X022855Y018229D01*
X022803Y018177D01*
X022803Y018072D01*
X022855Y018020D01*
X022908Y018020D01*
X022960Y018072D01*
X022855Y017867D02*
X022803Y017814D01*
X022803Y017710D01*
X022855Y017657D01*
X023065Y017657D01*
X023117Y017710D01*
X023117Y017814D01*
X023065Y017867D01*
X022487Y017757D02*
X022487Y017547D01*
X022278Y017757D01*
X022226Y017757D01*
X022173Y017704D01*
X022173Y017600D01*
X022226Y017547D01*
X022226Y017394D02*
X022435Y017394D01*
X022487Y017342D01*
X022487Y017237D01*
X022435Y017185D01*
X022226Y017185D01*
X022173Y017237D01*
X022173Y017342D01*
X022226Y017394D01*
X022383Y017290D02*
X022487Y017394D01*
X025441Y015119D02*
X025493Y015014D01*
X025598Y014910D01*
X025598Y015067D01*
X025650Y015119D01*
X025703Y015119D01*
X025755Y015067D01*
X025755Y014962D01*
X025703Y014910D01*
X025598Y014910D01*
X025598Y014756D02*
X025650Y014704D01*
X025650Y014547D01*
X025650Y014652D02*
X025755Y014756D01*
X025598Y014756D02*
X025493Y014756D01*
X025441Y014704D01*
X025441Y014547D01*
X025755Y014547D01*
X026701Y013654D02*
X026701Y013445D01*
X026858Y013445D01*
X026805Y013549D01*
X026805Y013602D01*
X026858Y013654D01*
X026962Y013654D01*
X027015Y013602D01*
X027015Y013497D01*
X026962Y013445D01*
X027015Y013292D02*
X026910Y013187D01*
X026910Y013239D02*
X026910Y013082D01*
X027015Y013082D02*
X026701Y013082D01*
X026701Y013239D01*
X026753Y013292D01*
X026858Y013292D01*
X026910Y013239D01*
X026438Y012702D02*
X026386Y012649D01*
X028039Y013500D02*
X028039Y013657D01*
X028092Y013709D01*
X028196Y013709D01*
X028249Y013657D01*
X028249Y013500D01*
X028353Y013500D02*
X028039Y013500D01*
X028249Y013604D02*
X028353Y013709D01*
X028353Y013862D02*
X028353Y014072D01*
X028353Y013967D02*
X028039Y013967D01*
X028144Y013862D01*
X028144Y014225D02*
X028039Y014329D01*
X028353Y014329D01*
X028353Y014225D02*
X028353Y014434D01*
X028944Y013017D02*
X028944Y012807D01*
X028944Y012912D02*
X028630Y012912D01*
X028735Y012807D01*
X028787Y012654D02*
X028839Y012602D01*
X028839Y012445D01*
X028839Y012550D02*
X028944Y012654D01*
X028787Y012654D02*
X028682Y012654D01*
X028630Y012602D01*
X028630Y012445D01*
X028944Y012445D01*
X028944Y012187D02*
X028630Y012187D01*
X028630Y012082D02*
X028630Y012292D01*
X027855Y009390D02*
X027855Y009110D01*
X027855Y009250D02*
X027435Y009250D01*
X027575Y009110D01*
X027435Y008930D02*
X027855Y008930D01*
X027435Y008650D01*
X027855Y008650D01*
X027785Y008470D02*
X027505Y008470D01*
X027435Y008400D01*
X027435Y008260D01*
X027505Y008189D01*
X027785Y008189D01*
X027855Y008260D01*
X027855Y008400D01*
X027785Y008470D01*
X027785Y008009D02*
X027855Y007939D01*
X027855Y007799D01*
X027785Y007729D01*
X027505Y007729D01*
X027435Y007799D01*
X027435Y007939D01*
X027505Y008009D01*
X030992Y015689D02*
X031306Y015898D01*
X031306Y016051D02*
X031306Y016261D01*
X031306Y016156D02*
X030992Y016156D01*
X031097Y016051D01*
X030992Y015898D02*
X031306Y015689D01*
D11*
X008630Y006956D02*
X008630Y005854D01*
X011700Y005854D01*
X011700Y006956D01*
X011700Y008137D02*
X011700Y008846D01*
X011267Y009752D02*
X011110Y009752D01*
X011464Y010696D02*
X011464Y010736D01*
X011858Y010736D01*
X011858Y010775D01*
X011858Y010736D02*
X011858Y010696D01*
X011937Y010696D02*
X011937Y010736D01*
X012330Y010736D01*
X012330Y010775D01*
X012330Y010736D02*
X012330Y010696D01*
X011937Y010736D02*
X011937Y010775D01*
X012409Y011169D02*
X012409Y011208D01*
X012803Y011208D01*
X012803Y011248D01*
X012803Y011208D02*
X012803Y011169D01*
X012409Y011208D02*
X012409Y011248D01*
X012881Y010775D02*
X012881Y010736D01*
X013275Y010736D01*
X013275Y010696D01*
X013275Y010736D02*
X013275Y010775D01*
X012881Y010736D02*
X012881Y010696D01*
X014063Y010539D02*
X014535Y010539D01*
X014417Y010657D01*
X014417Y009594D02*
X014535Y009476D01*
X013866Y009476D01*
X014653Y009004D02*
X014653Y023059D01*
X015519Y023059D01*
X015519Y009004D01*
X015283Y009004D01*
X015519Y009240D01*
X015519Y009004D01*
X014653Y009004D01*
X015309Y009029D02*
X015519Y009029D01*
X015519Y009106D02*
X015386Y009106D01*
X015463Y009184D02*
X015519Y009184D01*
X013157Y012429D02*
X012822Y012429D01*
X013157Y012429D02*
X013157Y012980D01*
X013137Y012980D01*
X012704Y012980D02*
X012468Y012980D01*
X012035Y012980D02*
X012015Y012980D01*
X012015Y012429D01*
X012389Y012429D01*
X011385Y011248D02*
X011385Y011208D01*
X010992Y011208D01*
X010992Y011248D01*
X010992Y011208D02*
X010992Y011169D01*
X011385Y011169D02*
X011385Y011208D01*
X011464Y010775D02*
X011464Y010736D01*
X010630Y011657D02*
X009626Y011657D01*
X009626Y011771D01*
X009693Y011838D01*
X009693Y011996D01*
X009626Y012063D01*
X009626Y012173D01*
X010630Y012173D01*
X010630Y011657D01*
X009468Y011504D02*
X009468Y011145D01*
X009338Y011248D02*
X008866Y011248D01*
X008333Y012238D02*
X008083Y012238D01*
X008333Y012238D02*
X008333Y009863D01*
X008083Y009863D01*
X009063Y009752D02*
X009220Y009752D01*
X008630Y008846D02*
X008630Y008137D01*
X007208Y009863D02*
X006958Y009863D01*
X006958Y012238D01*
X007208Y012238D01*
X007212Y013807D02*
X007212Y014200D01*
X007173Y014200D01*
X007212Y014200D02*
X007252Y014200D01*
X007527Y014397D02*
X007724Y014397D01*
X007726Y014417D01*
X007731Y014437D01*
X007740Y014456D01*
X007752Y014473D01*
X007766Y014487D01*
X007783Y014499D01*
X007802Y014508D01*
X007822Y014513D01*
X007842Y014515D01*
X007862Y014513D01*
X007882Y014508D01*
X007901Y014499D01*
X007918Y014487D01*
X007932Y014473D01*
X007944Y014456D01*
X007953Y014437D01*
X007958Y014417D01*
X007960Y014397D01*
X008157Y014397D01*
X007527Y014830D02*
X007527Y015145D01*
X007527Y015578D02*
X008157Y015578D01*
X008275Y015696D02*
X008472Y015696D01*
X008472Y015893D01*
X008275Y016346D02*
X008275Y016385D01*
X007744Y015893D02*
X007547Y015893D01*
X007015Y015696D02*
X006819Y015696D01*
X006819Y015893D01*
X006661Y016326D02*
X006661Y016366D01*
X006267Y016366D01*
X006267Y016405D01*
X006267Y016366D02*
X006267Y016326D01*
X006661Y016366D02*
X006661Y016405D01*
X007015Y016385D02*
X007015Y016346D01*
X006819Y016838D02*
X006819Y017035D01*
X007015Y017035D01*
X007547Y016838D02*
X007744Y016838D01*
X007803Y017153D02*
X007842Y017153D01*
X007842Y017547D01*
X007803Y017547D01*
X007842Y017547D02*
X007881Y017547D01*
X007881Y017153D02*
X007842Y017153D01*
X008275Y017035D02*
X008472Y017035D01*
X008472Y016838D01*
X008463Y017114D02*
X008465Y017132D01*
X008471Y017150D01*
X008480Y017166D01*
X008492Y017179D01*
X008507Y017190D01*
X008524Y017198D01*
X008542Y017202D01*
X008560Y017202D01*
X008578Y017198D01*
X008595Y017190D01*
X008610Y017179D01*
X008622Y017166D01*
X008631Y017150D01*
X008637Y017132D01*
X008639Y017114D01*
X008637Y017096D01*
X008631Y017078D01*
X008622Y017062D01*
X008610Y017049D01*
X008595Y017038D01*
X008578Y017030D01*
X008560Y017026D01*
X008542Y017026D01*
X008524Y017030D01*
X008507Y017038D01*
X008492Y017049D01*
X008480Y017062D01*
X008471Y017078D01*
X008465Y017096D01*
X008463Y017114D01*
X009378Y016956D02*
X009417Y016956D01*
X009417Y017350D01*
X009378Y017350D01*
X009417Y017350D02*
X009456Y017350D01*
X009456Y017507D02*
X009417Y017507D01*
X009417Y017901D01*
X009378Y017901D01*
X009417Y017901D02*
X009456Y017901D01*
X009417Y017507D02*
X009378Y017507D01*
X009417Y016956D02*
X009456Y016956D01*
X009456Y016799D02*
X009417Y016799D01*
X009417Y016405D01*
X009378Y016405D01*
X009417Y016405D02*
X009456Y016405D01*
X009693Y015854D02*
X009732Y015854D01*
X009732Y015460D01*
X009693Y015460D01*
X009732Y015460D02*
X009771Y015460D01*
X009496Y015027D02*
X009456Y015027D01*
X009456Y014633D01*
X009417Y014633D01*
X009456Y014633D02*
X009496Y014633D01*
X009496Y014476D02*
X009456Y014476D01*
X009456Y014082D01*
X009417Y014082D01*
X009456Y014082D02*
X009496Y014082D01*
X009456Y014476D02*
X009417Y014476D01*
X009417Y015027D02*
X009456Y015027D01*
X009732Y015854D02*
X009771Y015854D01*
X010598Y015185D02*
X010598Y014909D01*
X010874Y014909D01*
X010874Y015047D02*
X010736Y015047D01*
X010736Y015185D01*
X010519Y014476D02*
X010480Y014476D01*
X010480Y014082D01*
X010519Y014082D01*
X010480Y014082D02*
X010441Y014082D01*
X010441Y014476D02*
X010480Y014476D01*
X011267Y014200D02*
X011267Y014161D01*
X011661Y014161D01*
X011661Y014122D01*
X011661Y014161D02*
X011661Y014200D01*
X011267Y014161D02*
X011267Y014122D01*
X012527Y014909D02*
X012803Y014909D01*
X012803Y015185D01*
X012665Y015185D02*
X012665Y015047D01*
X012527Y015047D01*
X013275Y014043D02*
X013275Y014004D01*
X013669Y014004D01*
X013669Y013964D01*
X013669Y014004D02*
X013669Y014043D01*
X013275Y014004D02*
X013275Y013964D01*
X012803Y016838D02*
X012803Y017114D01*
X012527Y017114D01*
X012527Y016976D02*
X012665Y016976D01*
X012665Y016838D01*
X012252Y017941D02*
X012252Y021720D01*
X013944Y021720D01*
X013944Y017941D01*
X012252Y017941D01*
X012252Y017989D02*
X013944Y017989D01*
X013944Y018066D02*
X012252Y018066D01*
X012252Y018143D02*
X013944Y018143D01*
X013944Y018221D02*
X012252Y018221D01*
X012252Y018298D02*
X013944Y018298D01*
X013944Y018375D02*
X012252Y018375D01*
X012252Y018452D02*
X013944Y018452D01*
X013944Y018530D02*
X012252Y018530D01*
X012252Y018607D02*
X013944Y018607D01*
X013944Y018684D02*
X012252Y018684D01*
X012252Y018761D02*
X013944Y018761D01*
X013944Y018839D02*
X012252Y018839D01*
X012252Y018916D02*
X013944Y018916D01*
X013944Y018993D02*
X012252Y018993D01*
X012252Y019070D02*
X013944Y019070D01*
X013944Y019148D02*
X012252Y019148D01*
X012252Y019225D02*
X013944Y019225D01*
X013944Y019302D02*
X012252Y019302D01*
X012252Y019379D02*
X013944Y019379D01*
X013944Y019456D02*
X012252Y019456D01*
X012252Y019534D02*
X013944Y019534D01*
X013944Y019611D02*
X012252Y019611D01*
X012252Y019688D02*
X013944Y019688D01*
X013944Y019765D02*
X012252Y019765D01*
X012252Y019843D02*
X013944Y019843D01*
X013944Y019920D02*
X012252Y019920D01*
X012252Y019997D02*
X013944Y019997D01*
X013944Y020074D02*
X012252Y020074D01*
X012252Y020152D02*
X013944Y020152D01*
X013944Y020229D02*
X012252Y020229D01*
X012252Y020306D02*
X013944Y020306D01*
X013944Y020383D02*
X012252Y020383D01*
X012252Y020461D02*
X013944Y020461D01*
X013944Y020538D02*
X012252Y020538D01*
X012252Y020615D02*
X013944Y020615D01*
X013944Y020692D02*
X012252Y020692D01*
X012252Y020770D02*
X013944Y020770D01*
X013944Y020847D02*
X012252Y020847D01*
X012252Y020924D02*
X013944Y020924D01*
X013944Y021001D02*
X012252Y021001D01*
X012252Y021079D02*
X013944Y021079D01*
X013944Y021156D02*
X012252Y021156D01*
X012252Y021233D02*
X013944Y021233D01*
X013944Y021310D02*
X012252Y021310D01*
X012252Y021388D02*
X013944Y021388D01*
X013944Y021465D02*
X012252Y021465D01*
X012252Y021542D02*
X013944Y021542D01*
X013944Y021619D02*
X012252Y021619D01*
X012252Y021696D02*
X013944Y021696D01*
X013039Y021917D02*
X013039Y023728D01*
X012094Y023728D01*
X012094Y021917D01*
X013039Y021917D01*
X014141Y022507D02*
X014535Y022507D01*
X014417Y022626D01*
X011622Y022822D02*
X011622Y025933D01*
X008708Y025933D01*
X008708Y022822D01*
X011622Y022822D01*
X011385Y022744D02*
X011346Y022744D01*
X011346Y022350D01*
X011385Y022350D01*
X011346Y022350D02*
X011307Y022350D01*
X011307Y022744D02*
X011346Y022744D01*
X009278Y021136D02*
X009028Y021136D01*
X009278Y021136D02*
X009278Y018761D01*
X009028Y018761D01*
X008153Y018761D02*
X007903Y018761D01*
X007903Y021136D01*
X008153Y021136D01*
X007309Y021136D02*
X007059Y021136D01*
X007309Y021136D02*
X007309Y018761D01*
X007059Y018761D01*
X006184Y018761D02*
X005934Y018761D01*
X005934Y021136D01*
X006184Y021136D01*
X008433Y022704D02*
X008435Y022729D01*
X008441Y022753D01*
X008450Y022775D01*
X008463Y022796D01*
X008479Y022815D01*
X008498Y022831D01*
X008519Y022844D01*
X008541Y022853D01*
X008565Y022859D01*
X008590Y022861D01*
X008615Y022859D01*
X008639Y022853D01*
X008661Y022844D01*
X008682Y022831D01*
X008701Y022815D01*
X008717Y022796D01*
X008730Y022775D01*
X008739Y022753D01*
X008745Y022729D01*
X008747Y022704D01*
X008745Y022679D01*
X008739Y022655D01*
X008730Y022633D01*
X008717Y022612D01*
X008701Y022593D01*
X008682Y022577D01*
X008661Y022564D01*
X008639Y022555D01*
X008615Y022549D01*
X008590Y022547D01*
X008565Y022549D01*
X008541Y022555D01*
X008519Y022564D01*
X008498Y022577D01*
X008479Y022593D01*
X008463Y022612D01*
X008450Y022633D01*
X008441Y022655D01*
X008435Y022679D01*
X008433Y022704D01*
X011543Y017980D02*
X011543Y017941D01*
X011937Y017941D01*
X011937Y017980D01*
X011937Y017941D02*
X011937Y017901D01*
X011543Y017901D02*
X011543Y017941D01*
X010874Y017114D02*
X010598Y017114D01*
X010598Y016838D01*
X010736Y016838D02*
X010736Y016976D01*
X010874Y016976D01*
X010440Y017193D02*
X010442Y017211D01*
X010448Y017227D01*
X010457Y017242D01*
X010470Y017255D01*
X010485Y017264D01*
X010501Y017270D01*
X010519Y017272D01*
X010537Y017270D01*
X010553Y017264D01*
X010568Y017255D01*
X010581Y017242D01*
X010590Y017227D01*
X010596Y017211D01*
X010598Y017193D01*
X010596Y017175D01*
X010590Y017159D01*
X010581Y017144D01*
X010568Y017131D01*
X010553Y017122D01*
X010537Y017116D01*
X010519Y017114D01*
X010501Y017116D01*
X010485Y017122D01*
X010470Y017131D01*
X010457Y017144D01*
X010448Y017159D01*
X010442Y017175D01*
X010440Y017193D01*
X009417Y016799D02*
X009378Y016799D01*
X007252Y013807D02*
X007212Y013807D01*
X007173Y013807D01*
X008866Y012586D02*
X009338Y012586D01*
X021288Y018761D02*
X021538Y018761D01*
X021288Y018761D02*
X021288Y021136D01*
X021538Y021136D01*
X022413Y021136D02*
X022663Y021136D01*
X022663Y018761D01*
X022413Y018761D01*
X023257Y018761D02*
X023507Y018761D01*
X023257Y018761D02*
X023257Y021136D01*
X023507Y021136D01*
X024382Y021136D02*
X024632Y021136D01*
X024632Y018761D01*
X024382Y018761D01*
X024732Y017901D02*
X024771Y017901D01*
X024771Y017507D01*
X024732Y017507D01*
X024771Y017507D02*
X024811Y017507D01*
X024811Y017350D02*
X024771Y017350D01*
X024771Y016956D01*
X024732Y016956D01*
X024771Y016956D02*
X024811Y016956D01*
X024811Y016799D02*
X024771Y016799D01*
X024771Y016405D01*
X024732Y016405D01*
X024771Y016405D02*
X024811Y016405D01*
X025047Y015854D02*
X025086Y015854D01*
X025086Y015460D01*
X025047Y015460D01*
X025086Y015460D02*
X025126Y015460D01*
X024850Y015027D02*
X024811Y015027D01*
X024811Y014633D01*
X024771Y014633D01*
X024811Y014633D02*
X024850Y014633D01*
X024850Y014476D02*
X024811Y014476D01*
X024811Y014082D01*
X024771Y014082D01*
X024811Y014082D02*
X024850Y014082D01*
X024811Y014476D02*
X024771Y014476D01*
X024771Y015027D02*
X024811Y015027D01*
X023826Y015696D02*
X023826Y015893D01*
X023826Y015696D02*
X023630Y015696D01*
X023511Y015578D02*
X022881Y015578D01*
X022901Y015893D02*
X023098Y015893D01*
X023630Y016346D02*
X023630Y016385D01*
X023826Y016838D02*
X023826Y017035D01*
X023630Y017035D01*
X023817Y017114D02*
X023819Y017132D01*
X023825Y017150D01*
X023834Y017166D01*
X023846Y017179D01*
X023861Y017190D01*
X023878Y017198D01*
X023896Y017202D01*
X023914Y017202D01*
X023932Y017198D01*
X023949Y017190D01*
X023964Y017179D01*
X023976Y017166D01*
X023985Y017150D01*
X023991Y017132D01*
X023993Y017114D01*
X023991Y017096D01*
X023985Y017078D01*
X023976Y017062D01*
X023964Y017049D01*
X023949Y017038D01*
X023932Y017030D01*
X023914Y017026D01*
X023896Y017026D01*
X023878Y017030D01*
X023861Y017038D01*
X023846Y017049D01*
X023834Y017062D01*
X023825Y017078D01*
X023819Y017096D01*
X023817Y017114D01*
X023236Y017153D02*
X023196Y017153D01*
X023196Y017547D01*
X023157Y017547D01*
X023196Y017547D02*
X023236Y017547D01*
X023196Y017153D02*
X023157Y017153D01*
X023098Y016838D02*
X022901Y016838D01*
X022370Y017035D02*
X022173Y017035D01*
X022173Y016838D01*
X022015Y016405D02*
X022015Y016366D01*
X021622Y016366D01*
X021622Y016405D01*
X021622Y016366D02*
X021622Y016326D01*
X022015Y016326D02*
X022015Y016366D01*
X022370Y016385D02*
X022370Y016346D01*
X022173Y015893D02*
X022173Y015696D01*
X022370Y015696D01*
X022881Y015145D02*
X022881Y014830D01*
X022881Y014397D02*
X023078Y014397D01*
X023080Y014417D01*
X023085Y014437D01*
X023094Y014456D01*
X023106Y014473D01*
X023120Y014487D01*
X023137Y014499D01*
X023156Y014508D01*
X023176Y014513D01*
X023196Y014515D01*
X023216Y014513D01*
X023236Y014508D01*
X023255Y014499D01*
X023272Y014487D01*
X023286Y014473D01*
X023298Y014456D01*
X023307Y014437D01*
X023312Y014417D01*
X023314Y014397D01*
X023315Y014397D02*
X023511Y014397D01*
X022606Y014200D02*
X022567Y014200D01*
X022567Y013807D01*
X022527Y013807D01*
X022567Y013807D02*
X022606Y013807D01*
X022567Y014200D02*
X022527Y014200D01*
X024220Y012586D02*
X024693Y012586D01*
X024980Y012173D02*
X024980Y012063D01*
X025047Y011996D01*
X025047Y011838D01*
X024980Y011771D01*
X024980Y011657D01*
X025984Y011657D01*
X025984Y012173D01*
X024980Y012173D01*
X024822Y011504D02*
X024822Y011145D01*
X024693Y011248D02*
X024220Y011248D01*
X023687Y012238D02*
X023437Y012238D01*
X023687Y012238D02*
X023687Y009863D01*
X023437Y009863D01*
X022562Y009863D02*
X022312Y009863D01*
X022312Y012238D01*
X022562Y012238D01*
X024417Y009752D02*
X024574Y009752D01*
X023984Y008846D02*
X023984Y008137D01*
X023984Y006956D02*
X023984Y005854D01*
X027055Y005854D01*
X027055Y006956D01*
X027055Y008137D02*
X027055Y008846D01*
X026622Y009752D02*
X026464Y009752D01*
X026819Y010696D02*
X026819Y010736D01*
X027212Y010736D01*
X027212Y010775D01*
X027212Y010736D02*
X027212Y010696D01*
X027291Y010696D02*
X027291Y010736D01*
X027685Y010736D01*
X027685Y010775D01*
X027685Y010736D02*
X027685Y010696D01*
X027291Y010736D02*
X027291Y010775D01*
X026819Y010775D02*
X026819Y010736D01*
X026740Y011169D02*
X026740Y011208D01*
X026346Y011208D01*
X026346Y011248D01*
X026346Y011208D02*
X026346Y011169D01*
X026740Y011208D02*
X026740Y011248D01*
X027763Y011208D02*
X027763Y011248D01*
X027763Y011208D02*
X028157Y011208D01*
X028157Y011248D01*
X028157Y011208D02*
X028157Y011169D01*
X027763Y011169D02*
X027763Y011208D01*
X028236Y010775D02*
X028236Y010736D01*
X028630Y010736D01*
X028630Y010696D01*
X028630Y010736D02*
X028630Y010775D01*
X028236Y010736D02*
X028236Y010696D01*
X029417Y010539D02*
X029889Y010539D01*
X029771Y010657D01*
X029771Y009594D02*
X029889Y009476D01*
X029220Y009476D01*
X030007Y009004D02*
X030007Y023059D01*
X030874Y023059D01*
X030874Y009004D01*
X030637Y009004D01*
X030874Y009240D01*
X030874Y009004D01*
X030007Y009004D01*
X030663Y009029D02*
X030874Y009029D01*
X030874Y009106D02*
X030740Y009106D01*
X030817Y009184D02*
X030874Y009184D01*
X028511Y012429D02*
X028177Y012429D01*
X028511Y012429D02*
X028511Y012980D01*
X028492Y012980D01*
X028059Y012980D02*
X027822Y012980D01*
X027389Y012980D02*
X027370Y012980D01*
X027370Y012429D01*
X027744Y012429D01*
X028630Y013964D02*
X028630Y014004D01*
X029023Y014004D01*
X029023Y013964D01*
X029023Y014004D02*
X029023Y014043D01*
X028630Y014043D02*
X028630Y014004D01*
X028157Y014909D02*
X027881Y014909D01*
X027881Y015047D02*
X028019Y015047D01*
X028019Y015185D01*
X028157Y015185D02*
X028157Y014909D01*
X027015Y014200D02*
X027015Y014161D01*
X026622Y014161D01*
X026622Y014122D01*
X026622Y014161D02*
X026622Y014200D01*
X027015Y014161D02*
X027015Y014122D01*
X026228Y014909D02*
X025952Y014909D01*
X025952Y015185D01*
X026090Y015185D02*
X026090Y015047D01*
X026228Y015047D01*
X025874Y014476D02*
X025834Y014476D01*
X025834Y014082D01*
X025874Y014082D01*
X025834Y014082D02*
X025795Y014082D01*
X025795Y014476D02*
X025834Y014476D01*
X025126Y015854D02*
X025086Y015854D01*
X024771Y016799D02*
X024732Y016799D01*
X024732Y017350D02*
X024771Y017350D01*
X024771Y017901D02*
X024811Y017901D01*
X025795Y017193D02*
X025797Y017211D01*
X025803Y017227D01*
X025812Y017242D01*
X025825Y017255D01*
X025840Y017264D01*
X025856Y017270D01*
X025874Y017272D01*
X025892Y017270D01*
X025908Y017264D01*
X025923Y017255D01*
X025936Y017242D01*
X025945Y017227D01*
X025951Y017211D01*
X025953Y017193D01*
X025951Y017175D01*
X025945Y017159D01*
X025936Y017144D01*
X025923Y017131D01*
X025908Y017122D01*
X025892Y017116D01*
X025874Y017114D01*
X025856Y017116D01*
X025840Y017122D01*
X025825Y017131D01*
X025812Y017144D01*
X025803Y017159D01*
X025797Y017175D01*
X025795Y017193D01*
X025952Y017114D02*
X025952Y016838D01*
X026090Y016838D02*
X026090Y016976D01*
X026228Y016976D01*
X026228Y017114D02*
X025952Y017114D01*
X026897Y017901D02*
X026897Y017941D01*
X027291Y017941D01*
X027291Y017980D01*
X027291Y017941D02*
X027291Y017901D01*
X027606Y017941D02*
X027606Y021720D01*
X029299Y021720D01*
X029299Y017941D01*
X027606Y017941D01*
X027606Y017989D02*
X029299Y017989D01*
X029299Y018066D02*
X027606Y018066D01*
X027606Y018143D02*
X029299Y018143D01*
X029299Y018221D02*
X027606Y018221D01*
X027606Y018298D02*
X029299Y018298D01*
X029299Y018375D02*
X027606Y018375D01*
X027606Y018452D02*
X029299Y018452D01*
X029299Y018530D02*
X027606Y018530D01*
X027606Y018607D02*
X029299Y018607D01*
X029299Y018684D02*
X027606Y018684D01*
X027606Y018761D02*
X029299Y018761D01*
X029299Y018839D02*
X027606Y018839D01*
X027606Y018916D02*
X029299Y018916D01*
X029299Y018993D02*
X027606Y018993D01*
X027606Y019070D02*
X029299Y019070D01*
X029299Y019148D02*
X027606Y019148D01*
X027606Y019225D02*
X029299Y019225D01*
X029299Y019302D02*
X027606Y019302D01*
X027606Y019379D02*
X029299Y019379D01*
X029299Y019456D02*
X027606Y019456D01*
X027606Y019534D02*
X029299Y019534D01*
X029299Y019611D02*
X027606Y019611D01*
X027606Y019688D02*
X029299Y019688D01*
X029299Y019765D02*
X027606Y019765D01*
X027606Y019843D02*
X029299Y019843D01*
X029299Y019920D02*
X027606Y019920D01*
X027606Y019997D02*
X029299Y019997D01*
X029299Y020074D02*
X027606Y020074D01*
X027606Y020152D02*
X029299Y020152D01*
X029299Y020229D02*
X027606Y020229D01*
X027606Y020306D02*
X029299Y020306D01*
X029299Y020383D02*
X027606Y020383D01*
X027606Y020461D02*
X029299Y020461D01*
X029299Y020538D02*
X027606Y020538D01*
X027606Y020615D02*
X029299Y020615D01*
X029299Y020692D02*
X027606Y020692D01*
X027606Y020770D02*
X029299Y020770D01*
X029299Y020847D02*
X027606Y020847D01*
X027606Y020924D02*
X029299Y020924D01*
X029299Y021001D02*
X027606Y021001D01*
X027606Y021079D02*
X029299Y021079D01*
X029299Y021156D02*
X027606Y021156D01*
X027606Y021233D02*
X029299Y021233D01*
X029299Y021310D02*
X027606Y021310D01*
X027606Y021388D02*
X029299Y021388D01*
X029299Y021465D02*
X027606Y021465D01*
X027606Y021542D02*
X029299Y021542D01*
X029299Y021619D02*
X027606Y021619D01*
X027606Y021696D02*
X029299Y021696D01*
X028393Y021917D02*
X028393Y023728D01*
X027448Y023728D01*
X027448Y021917D01*
X028393Y021917D01*
X029496Y022507D02*
X029889Y022507D01*
X029771Y022626D01*
X026976Y022822D02*
X026976Y025933D01*
X024063Y025933D01*
X024063Y022822D01*
X026976Y022822D01*
X026740Y022744D02*
X026700Y022744D01*
X026700Y022350D01*
X026740Y022350D01*
X026700Y022350D02*
X026661Y022350D01*
X026661Y022744D02*
X026700Y022744D01*
X023787Y022704D02*
X023789Y022729D01*
X023795Y022753D01*
X023804Y022775D01*
X023817Y022796D01*
X023833Y022815D01*
X023852Y022831D01*
X023873Y022844D01*
X023895Y022853D01*
X023919Y022859D01*
X023944Y022861D01*
X023969Y022859D01*
X023993Y022853D01*
X024015Y022844D01*
X024036Y022831D01*
X024055Y022815D01*
X024071Y022796D01*
X024084Y022775D01*
X024093Y022753D01*
X024099Y022729D01*
X024101Y022704D01*
X024099Y022679D01*
X024093Y022655D01*
X024084Y022633D01*
X024071Y022612D01*
X024055Y022593D01*
X024036Y022577D01*
X024015Y022564D01*
X023993Y022555D01*
X023969Y022549D01*
X023944Y022547D01*
X023919Y022549D01*
X023895Y022555D01*
X023873Y022564D01*
X023852Y022577D01*
X023833Y022593D01*
X023817Y022612D01*
X023804Y022633D01*
X023795Y022655D01*
X023789Y022679D01*
X023787Y022704D01*
X026897Y017980D02*
X026897Y017941D01*
X027881Y017114D02*
X028157Y017114D01*
X028157Y016838D01*
X028019Y016838D02*
X028019Y016976D01*
X027881Y016976D01*
D12*
X023826Y014319D02*
X023787Y014319D01*
X028630Y013157D02*
X028630Y013118D01*
X013275Y013118D02*
X013275Y013157D01*
X008472Y014319D02*
X008433Y014319D01*
D13*
X006819Y011405D02*
X005401Y011405D01*
X005401Y010696D01*
X006819Y010696D01*
X006819Y011405D01*
X006464Y010893D02*
X006385Y010696D01*
X006307Y010893D01*
X006464Y010893D01*
X006453Y010865D02*
X006318Y010865D01*
X006341Y010808D02*
X006430Y010808D01*
X006407Y010750D02*
X006364Y010750D01*
X005913Y010893D02*
X005834Y010696D01*
X005756Y010893D01*
X005913Y010893D01*
X005902Y010865D02*
X005767Y010865D01*
X005790Y010808D02*
X005879Y010808D01*
X005856Y010750D02*
X005813Y010750D01*
X005283Y010933D02*
X005047Y010933D01*
X005149Y010980D02*
X005181Y010980D01*
X005165Y010933D02*
X005244Y011169D01*
X005086Y011169D01*
X005165Y010933D01*
X005130Y011038D02*
X005200Y011038D01*
X005219Y011095D02*
X005111Y011095D01*
X005092Y011153D02*
X005238Y011153D01*
X005165Y011405D02*
X005165Y010696D01*
X020401Y010933D02*
X020637Y010933D01*
X020535Y010980D02*
X020503Y010980D01*
X020519Y010933D02*
X020598Y011169D01*
X020441Y011169D01*
X020519Y010933D01*
X020484Y011038D02*
X020554Y011038D01*
X020574Y011095D02*
X020465Y011095D01*
X020446Y011153D02*
X020593Y011153D01*
X020519Y011405D02*
X020519Y010696D01*
X020756Y010696D02*
X022173Y010696D01*
X022173Y011405D01*
X020756Y011405D01*
X020756Y010696D01*
X021121Y010865D02*
X021256Y010865D01*
X021267Y010893D02*
X021189Y010696D01*
X021110Y010893D01*
X021267Y010893D01*
X021233Y010808D02*
X021144Y010808D01*
X021167Y010750D02*
X021210Y010750D01*
X021661Y010893D02*
X021740Y010696D01*
X021819Y010893D01*
X021661Y010893D01*
X021672Y010865D02*
X021807Y010865D01*
X021784Y010808D02*
X021695Y010808D01*
X021718Y010750D02*
X021761Y010750D01*
D14*
X021804Y010997D02*
X021804Y011130D01*
X021848Y011174D01*
X021892Y011174D01*
X021937Y011130D01*
X021937Y010997D01*
X022069Y010997D02*
X022069Y011130D01*
X022025Y011174D01*
X021981Y011174D01*
X021937Y011130D01*
X022069Y010997D02*
X021804Y010997D01*
X021597Y011041D02*
X021597Y011130D01*
X021552Y011174D01*
X021464Y011174D01*
X021464Y011085D01*
X021376Y010997D02*
X021552Y010997D01*
X021597Y011041D01*
X021376Y010997D02*
X021331Y011041D01*
X021331Y011130D01*
X021376Y011174D01*
X021124Y011174D02*
X021036Y011085D01*
X021036Y011130D02*
X021036Y010997D01*
X021124Y010997D02*
X020859Y010997D01*
X020859Y011130D01*
X020903Y011174D01*
X020992Y011174D01*
X021036Y011130D01*
X006715Y011130D02*
X006715Y010997D01*
X006450Y010997D01*
X006450Y011130D01*
X006494Y011174D01*
X006538Y011174D01*
X006582Y011130D01*
X006582Y010997D01*
X006582Y011130D02*
X006626Y011174D01*
X006671Y011174D01*
X006715Y011130D01*
X006242Y011130D02*
X006242Y011041D01*
X006198Y010997D01*
X006021Y010997D01*
X005977Y011041D01*
X005977Y011130D01*
X006021Y011174D01*
X006110Y011174D02*
X006110Y011085D01*
X006110Y011174D02*
X006198Y011174D01*
X006242Y011130D01*
X005770Y011174D02*
X005681Y011085D01*
X005681Y011130D02*
X005681Y010997D01*
X005770Y010997D02*
X005505Y010997D01*
X005505Y011130D01*
X005549Y011174D01*
X005637Y011174D01*
X005681Y011130D01*
M02*
