G75*
%MOIN*%
%OFA0B0*%
%FSLAX25Y25*%
%IPPOS*%
%LPD*%
%AMOC8*
5,1,8,0,0,1.08239X$1,22.5*
%
%ADD10R,0.01181X0.02362*%
%ADD11R,0.01181X0.01181*%
%ADD12R,0.02362X0.01181*%
%ADD13R,0.05512X0.05512*%
%ADD14R,0.02756X0.02756*%
%ADD15R,0.07874X0.11811*%
%ADD16R,0.03937X0.03937*%
%ADD17R,0.02756X0.04724*%
%ADD18R,0.02756X0.03937*%
%ADD19R,0.06299X0.03543*%
%ADD20OC8,0.05906*%
%ADD21C,0.03937*%
%ADD22C,0.00787*%
%ADD23R,0.05512X0.04724*%
%ADD24R,0.04724X0.01181*%
%ADD25R,0.01181X0.04724*%
%ADD26R,0.13780X0.13780*%
%ADD27R,0.07087X0.07480*%
%ADD28R,0.06299X0.07480*%
%ADD29OC8,0.07480*%
%ADD30R,0.01575X0.05512*%
%ADD31C,0.03937*%
%ADD32R,0.01181X0.03150*%
%ADD33R,0.04724X0.02756*%
%ADD34C,0.00984*%
%ADD35C,0.02362*%
%ADD36C,0.01600*%
%ADD37C,0.01575*%
%ADD38C,0.02362*%
%ADD39C,0.03150*%
%ADD40C,0.01181*%
D10*
X0127753Y0258146D03*
X0130312Y0258146D03*
X0132871Y0258146D03*
X0135430Y0258146D03*
X0137989Y0258146D03*
X0140548Y0258146D03*
X0143107Y0258146D03*
X0143107Y0270744D03*
X0140548Y0270744D03*
X0137989Y0270744D03*
X0135430Y0270744D03*
X0132871Y0270744D03*
X0130312Y0270744D03*
X0127753Y0270744D03*
X0289170Y0270744D03*
X0291729Y0270744D03*
X0294288Y0270744D03*
X0296847Y0270744D03*
X0299406Y0270744D03*
X0301965Y0270744D03*
X0304524Y0270744D03*
X0304524Y0258146D03*
X0301965Y0258146D03*
X0299406Y0258146D03*
X0296847Y0258146D03*
X0294288Y0258146D03*
X0291729Y0258146D03*
X0289170Y0258146D03*
D11*
X0289170Y0265724D03*
X0304131Y0265724D03*
X0304131Y0263165D03*
X0142713Y0263165D03*
X0142713Y0265724D03*
X0127753Y0265724D03*
D12*
X0131493Y0265724D03*
X0131493Y0263165D03*
X0135430Y0263165D03*
X0135430Y0265724D03*
X0139367Y0265724D03*
X0139367Y0263165D03*
X0146847Y0263165D03*
X0146847Y0260606D03*
X0146847Y0258047D03*
X0146847Y0265724D03*
X0146847Y0268283D03*
X0146847Y0270843D03*
X0146847Y0282654D03*
X0124012Y0282654D03*
X0124012Y0270843D03*
X0124012Y0268283D03*
X0124012Y0265724D03*
X0124012Y0263165D03*
X0124012Y0260606D03*
X0124012Y0258047D03*
X0285430Y0258047D03*
X0285430Y0260606D03*
X0285430Y0263165D03*
X0285430Y0265724D03*
X0285430Y0268283D03*
X0285430Y0270843D03*
X0292910Y0265724D03*
X0292910Y0263165D03*
X0296847Y0263165D03*
X0296847Y0265724D03*
X0300784Y0265724D03*
X0300784Y0263165D03*
X0308264Y0263165D03*
X0308264Y0260606D03*
X0308264Y0258047D03*
X0308264Y0265724D03*
X0308264Y0268283D03*
X0308264Y0270843D03*
X0308264Y0282654D03*
X0285430Y0282654D03*
D13*
X0320075Y0259720D03*
X0320075Y0250272D03*
X0158658Y0250272D03*
X0158658Y0259720D03*
D14*
X0149603Y0252240D03*
X0144879Y0252240D03*
X0144879Y0220744D03*
X0149603Y0220744D03*
X0149603Y0214445D03*
X0144879Y0214445D03*
X0149603Y0207752D03*
X0149603Y0203028D03*
X0131099Y0203815D03*
X0126375Y0203815D03*
X0126375Y0198303D03*
X0131099Y0198303D03*
X0131099Y0192791D03*
X0126375Y0192791D03*
X0129524Y0183343D03*
X0134249Y0183343D03*
X0137005Y0171925D03*
X0141729Y0171925D03*
X0137005Y0167201D03*
X0132280Y0167201D03*
X0131493Y0171925D03*
X0126768Y0171925D03*
X0109052Y0166807D03*
X0104327Y0166807D03*
X0099209Y0188067D03*
X0099209Y0192791D03*
X0110627Y0200272D03*
X0115351Y0200272D03*
X0131886Y0216807D03*
X0131886Y0221531D03*
X0136611Y0221531D03*
X0136611Y0216807D03*
X0146453Y0161295D03*
X0151178Y0161295D03*
X0155902Y0161295D03*
X0160627Y0161295D03*
X0160627Y0156571D03*
X0160627Y0151846D03*
X0155902Y0151846D03*
X0155902Y0156571D03*
X0151178Y0156571D03*
X0146453Y0156571D03*
X0098028Y0119957D03*
X0093304Y0119957D03*
X0093304Y0115232D03*
X0098028Y0115232D03*
X0086611Y0110114D03*
X0086611Y0105390D03*
X0248028Y0105390D03*
X0248028Y0110114D03*
X0254721Y0115232D03*
X0259446Y0115232D03*
X0259446Y0119957D03*
X0254721Y0119957D03*
X0307871Y0156571D03*
X0312595Y0156571D03*
X0317320Y0156571D03*
X0322044Y0156571D03*
X0322044Y0151846D03*
X0317320Y0151846D03*
X0317320Y0161295D03*
X0322044Y0161295D03*
X0312595Y0161295D03*
X0307871Y0161295D03*
X0298422Y0167201D03*
X0293698Y0167201D03*
X0292910Y0171925D03*
X0288186Y0171925D03*
X0298422Y0171925D03*
X0303146Y0171925D03*
X0295666Y0183343D03*
X0290942Y0183343D03*
X0292516Y0192791D03*
X0287792Y0192791D03*
X0287792Y0198303D03*
X0292516Y0198303D03*
X0292516Y0203815D03*
X0287792Y0203815D03*
X0276768Y0200272D03*
X0272044Y0200272D03*
X0260627Y0192791D03*
X0260627Y0188067D03*
X0265745Y0166807D03*
X0270469Y0166807D03*
X0311020Y0203028D03*
X0311020Y0207752D03*
X0311020Y0214445D03*
X0306296Y0214445D03*
X0306296Y0220744D03*
X0311020Y0220744D03*
X0298028Y0221531D03*
X0298028Y0216807D03*
X0293304Y0216807D03*
X0293304Y0221531D03*
X0306296Y0252240D03*
X0311020Y0252240D03*
D15*
X0281886Y0236098D03*
X0262201Y0236098D03*
X0262201Y0216413D03*
X0281886Y0216413D03*
X0272438Y0147122D03*
X0272438Y0127437D03*
X0120469Y0216413D03*
X0100784Y0216413D03*
X0100784Y0236098D03*
X0120469Y0236098D03*
X0111020Y0147122D03*
X0111020Y0127437D03*
D16*
X0125587Y0135705D03*
X0125587Y0142791D03*
X0125587Y0149091D03*
X0125587Y0156177D03*
X0287005Y0156177D03*
X0287005Y0149091D03*
X0287005Y0142791D03*
X0287005Y0135705D03*
D17*
X0293894Y0140823D03*
X0297635Y0140823D03*
X0301375Y0140823D03*
X0301375Y0151059D03*
X0293894Y0151059D03*
X0139957Y0151059D03*
X0132477Y0151059D03*
X0132477Y0140823D03*
X0136217Y0140823D03*
X0139957Y0140823D03*
D18*
X0157083Y0144760D03*
X0164170Y0144760D03*
X0160627Y0135311D03*
X0318501Y0144760D03*
X0325587Y0144760D03*
X0322044Y0135311D03*
D19*
X0271650Y0109720D03*
X0271650Y0104209D03*
X0271650Y0098697D03*
X0256690Y0098697D03*
X0256690Y0104209D03*
X0256690Y0109720D03*
X0110233Y0109720D03*
X0110233Y0104209D03*
X0110233Y0098697D03*
X0095272Y0098697D03*
X0095272Y0104209D03*
X0095272Y0109720D03*
D20*
X0085430Y0121886D03*
X0085430Y0131886D03*
X0085430Y0141886D03*
X0085430Y0151886D03*
X0085430Y0161886D03*
X0085430Y0171886D03*
X0085430Y0181886D03*
X0085430Y0191886D03*
X0085430Y0201886D03*
X0085430Y0211886D03*
X0085430Y0221886D03*
X0085430Y0231886D03*
X0085430Y0241886D03*
X0085430Y0251886D03*
X0185430Y0251886D03*
X0185430Y0241886D03*
X0185430Y0231886D03*
X0185430Y0221886D03*
X0185430Y0211886D03*
X0185430Y0201886D03*
X0185430Y0191886D03*
X0185430Y0181886D03*
X0185430Y0171886D03*
X0185430Y0161886D03*
X0185430Y0151886D03*
X0185430Y0141886D03*
X0185430Y0131886D03*
X0185430Y0121886D03*
X0246847Y0121886D03*
X0246847Y0131886D03*
X0246847Y0141886D03*
X0246847Y0151886D03*
X0246847Y0161886D03*
X0246847Y0171886D03*
X0246847Y0181886D03*
X0246847Y0191886D03*
X0246847Y0201886D03*
X0246847Y0211886D03*
X0246847Y0221886D03*
X0246847Y0231886D03*
X0246847Y0241886D03*
X0246847Y0251886D03*
X0346847Y0251886D03*
X0346847Y0241886D03*
X0346847Y0231886D03*
X0346847Y0221886D03*
X0346847Y0211886D03*
X0346847Y0201886D03*
X0346847Y0191886D03*
X0346847Y0181886D03*
X0346847Y0171886D03*
X0346847Y0161886D03*
X0346847Y0151886D03*
X0346847Y0141886D03*
X0346847Y0131886D03*
X0346847Y0121886D03*
D21*
X0334249Y0068776D03*
X0098028Y0067988D03*
X0117713Y0304996D03*
D22*
X0090154Y0075862D02*
X0090154Y0060114D01*
X0105902Y0060114D01*
X0105902Y0075862D01*
X0090154Y0075862D01*
X0326375Y0076650D02*
X0326375Y0060902D01*
X0342123Y0060902D01*
X0342123Y0076650D01*
X0326375Y0076650D01*
X0125587Y0297122D02*
X0109839Y0297122D01*
X0109839Y0312870D01*
X0125587Y0312870D01*
X0125587Y0297122D01*
D23*
X0115548Y0193776D03*
X0115548Y0187083D03*
X0106493Y0187083D03*
X0106493Y0193776D03*
X0267910Y0193776D03*
X0267910Y0187083D03*
X0276965Y0187083D03*
X0276965Y0193776D03*
D24*
X0302556Y0193776D03*
X0302556Y0191807D03*
X0302556Y0189839D03*
X0302556Y0187870D03*
X0302556Y0185902D03*
X0302556Y0183933D03*
X0302556Y0181965D03*
X0302556Y0179996D03*
X0323422Y0179996D03*
X0323422Y0181965D03*
X0323422Y0183933D03*
X0323422Y0185902D03*
X0323422Y0187870D03*
X0323422Y0189839D03*
X0323422Y0191807D03*
X0323422Y0193776D03*
X0162005Y0193776D03*
X0162005Y0191807D03*
X0162005Y0189839D03*
X0162005Y0187870D03*
X0162005Y0185902D03*
X0162005Y0183933D03*
X0162005Y0181965D03*
X0162005Y0179996D03*
X0141138Y0179996D03*
X0141138Y0181965D03*
X0141138Y0183933D03*
X0141138Y0185902D03*
X0141138Y0187870D03*
X0141138Y0189839D03*
X0141138Y0191807D03*
X0141138Y0193776D03*
D25*
X0144682Y0197319D03*
X0146650Y0197319D03*
X0148619Y0197319D03*
X0150587Y0197319D03*
X0152556Y0197319D03*
X0154524Y0197319D03*
X0156493Y0197319D03*
X0158461Y0197319D03*
X0158461Y0176453D03*
X0156493Y0176453D03*
X0154524Y0176453D03*
X0152556Y0176453D03*
X0150587Y0176453D03*
X0148619Y0176453D03*
X0146650Y0176453D03*
X0144682Y0176453D03*
X0306099Y0176453D03*
X0308068Y0176453D03*
X0310036Y0176453D03*
X0312005Y0176453D03*
X0313973Y0176453D03*
X0315942Y0176453D03*
X0317910Y0176453D03*
X0319879Y0176453D03*
X0319879Y0197319D03*
X0317910Y0197319D03*
X0315942Y0197319D03*
X0313973Y0197319D03*
X0312005Y0197319D03*
X0310036Y0197319D03*
X0308068Y0197319D03*
X0306099Y0197319D03*
D26*
X0312989Y0186886D03*
X0151572Y0186886D03*
D27*
X0139957Y0097713D03*
X0130902Y0097713D03*
X0292320Y0097713D03*
X0301375Y0097713D03*
D28*
X0310233Y0097713D03*
X0283461Y0097713D03*
X0148816Y0097713D03*
X0122044Y0097713D03*
D29*
X0118894Y0097713D03*
X0151965Y0097713D03*
X0280312Y0097713D03*
X0313383Y0097713D03*
D30*
X0301965Y0108343D03*
X0299406Y0108343D03*
X0296847Y0108343D03*
X0294288Y0108343D03*
X0291729Y0108343D03*
X0140548Y0108343D03*
X0137989Y0108343D03*
X0135430Y0108343D03*
X0132871Y0108343D03*
X0130312Y0108343D03*
D31*
X0126768Y0107555D02*
X0126768Y0111492D01*
X0144091Y0111492D02*
X0144091Y0107555D01*
X0288186Y0107555D02*
X0288186Y0111492D01*
X0305509Y0111492D02*
X0305509Y0107555D01*
D32*
X0298028Y0219169D03*
X0293304Y0219169D03*
X0136611Y0219169D03*
X0131886Y0219169D03*
D33*
X0117713Y0180390D03*
X0117713Y0176650D03*
X0117713Y0172909D03*
X0107477Y0172909D03*
X0107477Y0180390D03*
X0268894Y0180390D03*
X0268894Y0172909D03*
X0279131Y0172909D03*
X0279131Y0176650D03*
X0279131Y0180390D03*
D34*
X0279327Y0180390D01*
X0279524Y0180587D01*
X0283068Y0180587D01*
X0282733Y0180781D02*
X0284615Y0180781D01*
X0284430Y0180704D02*
X0283737Y0180012D01*
X0283363Y0179108D01*
X0283363Y0178129D01*
X0283731Y0177240D01*
X0282772Y0177240D01*
X0282772Y0178064D01*
X0283068Y0178359D01*
X0283068Y0179664D01*
X0282342Y0180390D01*
X0283068Y0181115D01*
X0283068Y0182420D01*
X0282875Y0182613D01*
X0284589Y0184327D01*
X0287792Y0184327D01*
X0287792Y0184265D01*
X0288714Y0183343D01*
X0287792Y0182420D01*
X0287792Y0181115D01*
X0288714Y0180193D01*
X0293169Y0180193D01*
X0293205Y0180230D01*
X0293205Y0179703D01*
X0293410Y0179209D01*
X0288242Y0179209D01*
X0287909Y0180012D01*
X0287217Y0180704D01*
X0286313Y0181079D01*
X0285334Y0181079D01*
X0284430Y0180704D01*
X0283649Y0179798D02*
X0282934Y0179798D01*
X0283068Y0180193D02*
X0279524Y0180193D01*
X0279524Y0180390D01*
X0281099Y0183343D02*
X0271650Y0183343D01*
X0267910Y0187083D01*
X0261611Y0187083D01*
X0260627Y0188067D01*
X0260627Y0192398D02*
X0260627Y0194625D01*
X0260627Y0192398D01*
X0260627Y0192398D01*
X0260627Y0192574D02*
X0260627Y0192574D01*
X0260627Y0193557D02*
X0260627Y0193557D01*
X0260627Y0194540D02*
X0260627Y0194540D01*
X0260627Y0194625D02*
X0259704Y0195547D01*
X0258400Y0195547D01*
X0257674Y0194822D01*
X0257674Y0209289D01*
X0257734Y0209228D01*
X0264912Y0209228D01*
X0269342Y0204799D01*
X0278003Y0204799D01*
X0280115Y0202687D01*
X0280115Y0198598D01*
X0280094Y0198598D01*
X0279426Y0198598D01*
X0279426Y0202180D01*
X0278676Y0202929D01*
X0274860Y0202929D01*
X0274812Y0202880D01*
X0274271Y0203421D01*
X0270211Y0203421D01*
X0269288Y0202499D01*
X0269288Y0201194D01*
X0270211Y0200272D01*
X0272044Y0200272D01*
X0272044Y0200272D01*
X0270211Y0200272D01*
X0269288Y0199349D01*
X0269288Y0198045D01*
X0269493Y0197840D01*
X0269386Y0197734D01*
X0269386Y0192693D01*
X0263776Y0192693D01*
X0263776Y0194625D01*
X0262854Y0195547D01*
X0261549Y0195547D01*
X0260627Y0194625D01*
X0261524Y0195522D02*
X0259729Y0195522D01*
X0258375Y0195522D02*
X0257674Y0195522D01*
X0257674Y0196505D02*
X0269386Y0196505D01*
X0269386Y0195522D02*
X0262879Y0195522D01*
X0263776Y0194540D02*
X0269386Y0194540D01*
X0269386Y0193557D02*
X0263776Y0193557D01*
X0267910Y0193776D02*
X0268304Y0193776D01*
X0270469Y0191610D01*
X0274406Y0189248D01*
X0276572Y0187083D01*
X0276965Y0187083D01*
X0281099Y0183343D02*
X0283855Y0186098D01*
X0298422Y0186098D01*
X0298619Y0185902D01*
X0302556Y0185902D01*
X0302556Y0187870D02*
X0298619Y0187870D01*
X0298422Y0187673D01*
X0283855Y0187673D01*
X0277753Y0193776D01*
X0276965Y0193776D01*
X0276965Y0200075D01*
X0276768Y0200272D01*
X0279426Y0200436D02*
X0280115Y0200436D01*
X0280115Y0199453D02*
X0279426Y0199453D01*
X0279426Y0201419D02*
X0280115Y0201419D01*
X0280115Y0202402D02*
X0279204Y0202402D01*
X0279418Y0203384D02*
X0274308Y0203384D01*
X0270174Y0203384D02*
X0257674Y0203384D01*
X0257674Y0202402D02*
X0269288Y0202402D01*
X0269288Y0201419D02*
X0257674Y0201419D01*
X0257674Y0200436D02*
X0270046Y0200436D01*
X0269392Y0199453D02*
X0257674Y0199453D01*
X0257674Y0198471D02*
X0269288Y0198471D01*
X0269386Y0197488D02*
X0257674Y0197488D01*
X0254131Y0197488D02*
X0241827Y0197488D01*
X0241827Y0198471D02*
X0244277Y0198471D01*
X0245094Y0197654D02*
X0248600Y0197654D01*
X0251079Y0200133D01*
X0251079Y0203639D01*
X0248600Y0206118D01*
X0245094Y0206118D01*
X0242615Y0203639D01*
X0242615Y0200133D01*
X0245094Y0197654D01*
X0245094Y0196118D02*
X0242615Y0193639D01*
X0242615Y0190133D01*
X0245094Y0187654D01*
X0248600Y0187654D01*
X0251079Y0190133D01*
X0251079Y0193639D01*
X0248600Y0196118D01*
X0245094Y0196118D01*
X0244498Y0195522D02*
X0241827Y0195522D01*
X0241827Y0194540D02*
X0243515Y0194540D01*
X0242615Y0193557D02*
X0241827Y0193557D01*
X0241827Y0192574D02*
X0242615Y0192574D01*
X0242615Y0191591D02*
X0241827Y0191591D01*
X0241827Y0190608D02*
X0242615Y0190608D01*
X0243122Y0189626D02*
X0241827Y0189626D01*
X0241827Y0188643D02*
X0244105Y0188643D01*
X0245087Y0187660D02*
X0241827Y0187660D01*
X0241827Y0186677D02*
X0254131Y0186677D01*
X0254131Y0185695D02*
X0249024Y0185695D01*
X0248600Y0186118D02*
X0251079Y0183639D01*
X0251079Y0180133D01*
X0248600Y0177654D01*
X0245094Y0177654D01*
X0242615Y0180133D01*
X0242615Y0183639D01*
X0245094Y0186118D01*
X0248600Y0186118D01*
X0248607Y0187660D02*
X0254131Y0187660D01*
X0254131Y0188643D02*
X0249590Y0188643D01*
X0250572Y0189626D02*
X0254131Y0189626D01*
X0254131Y0190608D02*
X0251079Y0190608D01*
X0251079Y0191591D02*
X0254131Y0191591D01*
X0254131Y0192574D02*
X0251079Y0192574D01*
X0251079Y0193557D02*
X0254131Y0193557D01*
X0254131Y0194540D02*
X0250179Y0194540D01*
X0249196Y0195522D02*
X0254131Y0195522D01*
X0254131Y0196505D02*
X0241827Y0196505D01*
X0241827Y0199453D02*
X0243294Y0199453D01*
X0242615Y0200436D02*
X0241827Y0200436D01*
X0241827Y0201419D02*
X0242615Y0201419D01*
X0242615Y0202402D02*
X0241827Y0202402D01*
X0241827Y0203384D02*
X0242615Y0203384D01*
X0243343Y0204367D02*
X0241827Y0204367D01*
X0241827Y0205350D02*
X0244326Y0205350D01*
X0245094Y0207654D02*
X0242615Y0210133D01*
X0242615Y0213639D01*
X0245094Y0216118D01*
X0248600Y0216118D01*
X0251079Y0213639D01*
X0251079Y0210133D01*
X0248600Y0207654D01*
X0245094Y0207654D01*
X0244449Y0208298D02*
X0241827Y0208298D01*
X0241827Y0207315D02*
X0254131Y0207315D01*
X0254131Y0206333D02*
X0241827Y0206333D01*
X0241827Y0209281D02*
X0243467Y0209281D01*
X0242615Y0210264D02*
X0241827Y0210264D01*
X0241827Y0211246D02*
X0242615Y0211246D01*
X0242615Y0212229D02*
X0241827Y0212229D01*
X0241827Y0213212D02*
X0242615Y0213212D01*
X0243171Y0214195D02*
X0241827Y0214195D01*
X0241827Y0215178D02*
X0244153Y0215178D01*
X0241827Y0216160D02*
X0254131Y0216160D01*
X0254131Y0215178D02*
X0249541Y0215178D01*
X0250523Y0214195D02*
X0254131Y0214195D01*
X0254131Y0213212D02*
X0251079Y0213212D01*
X0251079Y0212229D02*
X0254131Y0212229D01*
X0254131Y0211246D02*
X0251079Y0211246D01*
X0251079Y0210264D02*
X0254131Y0210264D01*
X0254131Y0209281D02*
X0250228Y0209281D01*
X0249245Y0208298D02*
X0254131Y0208298D01*
X0254131Y0205350D02*
X0249368Y0205350D01*
X0250351Y0204367D02*
X0254131Y0204367D01*
X0254131Y0203384D02*
X0251079Y0203384D01*
X0251079Y0202402D02*
X0254131Y0202402D01*
X0254131Y0201419D02*
X0251079Y0201419D01*
X0251079Y0200436D02*
X0254131Y0200436D01*
X0254131Y0199453D02*
X0250400Y0199453D01*
X0249417Y0198471D02*
X0254131Y0198471D01*
X0257674Y0204367D02*
X0278435Y0204367D01*
X0278737Y0206571D02*
X0281886Y0203421D01*
X0281886Y0194366D01*
X0283461Y0192791D01*
X0287792Y0192791D01*
X0290548Y0190035D01*
X0298422Y0190035D01*
X0298619Y0189839D01*
X0302556Y0189839D01*
X0302556Y0191807D02*
X0299012Y0191807D01*
X0298028Y0192791D01*
X0298028Y0194366D01*
X0296847Y0195547D01*
X0290548Y0195547D01*
X0287792Y0198303D01*
X0284642Y0198303D01*
X0283658Y0200559D02*
X0283658Y0204155D01*
X0279471Y0208343D01*
X0270809Y0208343D01*
X0267418Y0211734D01*
X0267418Y0222849D01*
X0266668Y0223598D01*
X0257734Y0223598D01*
X0257674Y0223538D01*
X0257674Y0248357D01*
X0267266Y0257949D01*
X0271123Y0257949D01*
X0271438Y0257634D01*
X0272342Y0257260D01*
X0273321Y0257260D01*
X0273816Y0257465D01*
X0273816Y0253475D01*
X0280509Y0246782D01*
X0281546Y0245744D01*
X0285483Y0245744D01*
X0290843Y0240384D01*
X0290843Y0239940D01*
X0291218Y0239035D01*
X0291532Y0238721D01*
X0291532Y0224189D01*
X0291396Y0224189D01*
X0290646Y0223439D01*
X0290646Y0219624D01*
X0291101Y0219169D01*
X0290646Y0218715D01*
X0290646Y0214899D01*
X0291396Y0214150D01*
X0291532Y0214150D01*
X0291532Y0212530D01*
X0292570Y0211492D01*
X0301231Y0202831D01*
X0297922Y0202831D01*
X0298127Y0203326D01*
X0298127Y0204304D01*
X0297752Y0205209D01*
X0297060Y0205901D01*
X0296155Y0206276D01*
X0294621Y0206276D01*
X0294424Y0206472D01*
X0290608Y0206472D01*
X0290154Y0206018D01*
X0289700Y0206472D01*
X0289564Y0206472D01*
X0289564Y0209273D01*
X0287103Y0211734D01*
X0287103Y0222849D01*
X0286353Y0223598D01*
X0277419Y0223598D01*
X0276670Y0222849D01*
X0276670Y0209978D01*
X0277419Y0209228D01*
X0284598Y0209228D01*
X0286020Y0207806D01*
X0286020Y0206472D01*
X0285884Y0206472D01*
X0285135Y0205723D01*
X0285135Y0201907D01*
X0285884Y0201157D01*
X0287944Y0201157D01*
X0288141Y0200961D01*
X0285884Y0200961D01*
X0285525Y0200601D01*
X0285132Y0200764D01*
X0284153Y0200764D01*
X0283658Y0200559D01*
X0283658Y0201419D02*
X0285623Y0201419D01*
X0285135Y0202402D02*
X0283658Y0202402D01*
X0283658Y0203384D02*
X0285135Y0203384D01*
X0285135Y0204367D02*
X0283446Y0204367D01*
X0282463Y0205350D02*
X0285135Y0205350D01*
X0285744Y0206333D02*
X0281481Y0206333D01*
X0280498Y0207315D02*
X0286020Y0207315D01*
X0285528Y0208298D02*
X0279515Y0208298D01*
X0278737Y0206571D02*
X0270075Y0206571D01*
X0262201Y0214445D01*
X0262201Y0216413D01*
X0267418Y0216160D02*
X0276670Y0216160D01*
X0276670Y0215178D02*
X0267418Y0215178D01*
X0267418Y0214195D02*
X0276670Y0214195D01*
X0276670Y0213212D02*
X0267418Y0213212D01*
X0267418Y0212229D02*
X0276670Y0212229D01*
X0276670Y0211246D02*
X0267905Y0211246D01*
X0268888Y0210264D02*
X0276670Y0210264D01*
X0277367Y0209281D02*
X0269871Y0209281D01*
X0267808Y0206333D02*
X0257674Y0206333D01*
X0257674Y0207315D02*
X0266825Y0207315D01*
X0265843Y0208298D02*
X0257674Y0208298D01*
X0257674Y0209281D02*
X0257682Y0209281D01*
X0257674Y0205350D02*
X0268791Y0205350D01*
X0267418Y0217143D02*
X0276670Y0217143D01*
X0276670Y0218126D02*
X0267418Y0218126D01*
X0267418Y0219109D02*
X0276670Y0219109D01*
X0276670Y0220091D02*
X0267418Y0220091D01*
X0267418Y0221074D02*
X0276670Y0221074D01*
X0276670Y0222057D02*
X0267418Y0222057D01*
X0267227Y0223040D02*
X0276861Y0223040D01*
X0281886Y0216413D02*
X0281886Y0214445D01*
X0287792Y0208539D01*
X0287792Y0203815D01*
X0290548Y0201059D01*
X0300784Y0201059D01*
X0302359Y0199484D01*
X0302359Y0194760D01*
X0303146Y0193972D01*
X0302556Y0193776D02*
X0302359Y0193972D01*
X0302359Y0194760D01*
X0301572Y0193972D01*
X0306099Y0197319D02*
X0306099Y0200469D01*
X0293304Y0213264D01*
X0293304Y0216807D01*
X0293304Y0219169D01*
X0291040Y0219109D02*
X0287103Y0219109D01*
X0287103Y0220091D02*
X0290646Y0220091D01*
X0290646Y0221074D02*
X0287103Y0221074D01*
X0287103Y0222057D02*
X0290646Y0222057D01*
X0290646Y0223040D02*
X0286912Y0223040D01*
X0291229Y0224022D02*
X0257674Y0224022D01*
X0257674Y0225005D02*
X0291532Y0225005D01*
X0291532Y0225988D02*
X0257674Y0225988D01*
X0257674Y0226971D02*
X0291532Y0226971D01*
X0291532Y0227953D02*
X0257674Y0227953D01*
X0257674Y0228936D02*
X0291532Y0228936D01*
X0291532Y0229919D02*
X0257674Y0229919D01*
X0257674Y0230902D02*
X0291532Y0230902D01*
X0291532Y0231885D02*
X0257674Y0231885D01*
X0257674Y0232867D02*
X0291532Y0232867D01*
X0291532Y0233850D02*
X0257674Y0233850D01*
X0257674Y0234833D02*
X0291532Y0234833D01*
X0291532Y0235816D02*
X0257674Y0235816D01*
X0257674Y0236798D02*
X0291532Y0236798D01*
X0291532Y0237781D02*
X0257674Y0237781D01*
X0257674Y0238764D02*
X0291489Y0238764D01*
X0290923Y0239747D02*
X0257674Y0239747D01*
X0257674Y0240729D02*
X0290498Y0240729D01*
X0289515Y0241712D02*
X0257674Y0241712D01*
X0257674Y0242695D02*
X0288533Y0242695D01*
X0287550Y0243678D02*
X0257674Y0243678D01*
X0257674Y0244660D02*
X0286567Y0244660D01*
X0285584Y0245643D02*
X0257674Y0245643D01*
X0257674Y0246626D02*
X0280664Y0246626D01*
X0279682Y0247609D02*
X0257674Y0247609D01*
X0257909Y0248591D02*
X0278699Y0248591D01*
X0277716Y0249574D02*
X0258891Y0249574D01*
X0259874Y0250557D02*
X0276733Y0250557D01*
X0275751Y0251540D02*
X0260857Y0251540D01*
X0261840Y0252523D02*
X0274768Y0252523D01*
X0273816Y0253505D02*
X0262822Y0253505D01*
X0263805Y0254488D02*
X0273816Y0254488D01*
X0273816Y0255471D02*
X0264788Y0255471D01*
X0265771Y0256454D02*
X0273816Y0256454D01*
X0273816Y0257436D02*
X0273747Y0257436D01*
X0271916Y0257436D02*
X0266754Y0257436D01*
X0266532Y0259720D02*
X0272831Y0259720D01*
X0271123Y0261492D02*
X0265798Y0261492D01*
X0264760Y0260454D01*
X0254131Y0249824D01*
X0254131Y0184577D01*
X0255168Y0183539D01*
X0259893Y0178815D01*
X0265253Y0178815D01*
X0265253Y0178482D01*
X0266002Y0177732D01*
X0271787Y0177732D01*
X0272536Y0178482D01*
X0272536Y0181571D01*
X0275587Y0181571D01*
X0275587Y0178656D01*
X0275489Y0178558D01*
X0275489Y0171001D01*
X0276238Y0170252D01*
X0281251Y0170252D01*
X0270666Y0159667D01*
X0270666Y0154307D01*
X0267971Y0154307D01*
X0267221Y0153558D01*
X0267221Y0140687D01*
X0267971Y0139937D01*
X0276905Y0139937D01*
X0277654Y0140687D01*
X0277654Y0153558D01*
X0276905Y0154307D01*
X0274209Y0154307D01*
X0274209Y0158199D01*
X0283801Y0167791D01*
X0283801Y0167791D01*
X0284839Y0168829D01*
X0284839Y0170154D01*
X0285528Y0170154D01*
X0285528Y0170017D01*
X0286278Y0169268D01*
X0290094Y0169268D01*
X0290548Y0169722D01*
X0291002Y0169268D01*
X0294818Y0169268D01*
X0295015Y0169465D01*
X0296120Y0169465D01*
X0295764Y0169109D01*
X0295764Y0165293D01*
X0296514Y0164543D01*
X0298619Y0164543D01*
X0298619Y0163714D01*
X0297815Y0163381D01*
X0297123Y0162689D01*
X0296749Y0161785D01*
X0296749Y0160836D01*
X0296241Y0160625D01*
X0295548Y0159933D01*
X0295174Y0159029D01*
X0295174Y0158050D01*
X0295245Y0157879D01*
X0294527Y0158597D01*
X0293478Y0159031D01*
X0290314Y0159031D01*
X0290019Y0159327D01*
X0289859Y0159327D01*
X0289859Y0161688D01*
X0290605Y0162434D01*
X0291040Y0163483D01*
X0291040Y0164619D01*
X0290605Y0165668D01*
X0289803Y0166471D01*
X0288753Y0166905D01*
X0285256Y0166905D01*
X0284207Y0166471D01*
X0283404Y0165668D01*
X0282969Y0164619D01*
X0282969Y0163483D01*
X0283404Y0162434D01*
X0284150Y0161688D01*
X0284150Y0159327D01*
X0283990Y0159327D01*
X0283068Y0158404D01*
X0283068Y0147257D01*
X0283990Y0146335D01*
X0285295Y0146335D01*
X0286217Y0147257D01*
X0286217Y0149878D01*
X0287792Y0149878D01*
X0287792Y0147257D01*
X0288714Y0146335D01*
X0290019Y0146335D01*
X0290942Y0147257D01*
X0290942Y0153323D01*
X0291237Y0153323D01*
X0291237Y0148167D01*
X0291986Y0147417D01*
X0295802Y0147417D01*
X0296552Y0148167D01*
X0296552Y0153478D01*
X0296946Y0154428D01*
X0296946Y0155564D01*
X0296647Y0156285D01*
X0297145Y0156079D01*
X0298124Y0156079D01*
X0299028Y0156453D01*
X0299343Y0156768D01*
X0300731Y0156768D01*
X0303343Y0159380D01*
X0303343Y0154640D01*
X0303283Y0154701D01*
X0299467Y0154701D01*
X0298717Y0153951D01*
X0298717Y0148167D01*
X0299467Y0147417D01*
X0303283Y0147417D01*
X0304032Y0148167D01*
X0304032Y0150817D01*
X0308560Y0146290D01*
X0308560Y0145845D01*
X0308934Y0144941D01*
X0309627Y0144249D01*
X0310531Y0143874D01*
X0311510Y0143874D01*
X0312398Y0144242D01*
X0312398Y0141557D01*
X0293751Y0122909D01*
X0292713Y0121872D01*
X0292713Y0117497D01*
X0289859Y0120352D01*
X0289859Y0132161D01*
X0290019Y0132161D01*
X0290708Y0132850D01*
X0294265Y0132850D01*
X0295314Y0133285D01*
X0295962Y0133933D01*
X0300731Y0133933D01*
X0301768Y0134971D01*
X0302949Y0136152D01*
X0302949Y0137181D01*
X0303283Y0137181D01*
X0304032Y0137931D01*
X0304032Y0143715D01*
X0303283Y0144465D01*
X0299467Y0144465D01*
X0299368Y0144366D01*
X0298557Y0144366D01*
X0297635Y0143444D01*
X0297635Y0140035D01*
X0297634Y0140035D01*
X0297634Y0143444D01*
X0296712Y0144366D01*
X0295901Y0144366D01*
X0295802Y0144465D01*
X0291986Y0144465D01*
X0291237Y0143715D01*
X0291237Y0140963D01*
X0290942Y0140250D01*
X0290942Y0144625D01*
X0290019Y0145547D01*
X0288714Y0145547D01*
X0287792Y0144625D01*
X0287792Y0142004D01*
X0286217Y0142004D01*
X0286217Y0144625D01*
X0285295Y0145547D01*
X0283990Y0145547D01*
X0283068Y0144625D01*
X0283068Y0133084D01*
X0283990Y0132161D01*
X0284150Y0132161D01*
X0284150Y0118602D01*
X0284585Y0117552D01*
X0288087Y0114050D01*
X0288087Y0113982D01*
X0289662Y0112408D01*
X0289662Y0105057D01*
X0290412Y0104307D01*
X0300724Y0104307D01*
X0301473Y0105057D01*
X0301473Y0111628D01*
X0300724Y0112378D01*
X0298619Y0112378D01*
X0298619Y0112817D01*
X0298225Y0113210D01*
X0298225Y0120010D01*
X0316198Y0137983D01*
X0316415Y0137460D01*
X0316729Y0137146D01*
X0316729Y0121979D01*
X0322885Y0115823D01*
X0337265Y0115823D01*
X0337579Y0115508D01*
X0338484Y0115134D01*
X0339463Y0115134D01*
X0340367Y0115508D01*
X0341059Y0116201D01*
X0341434Y0117105D01*
X0341434Y0118084D01*
X0341059Y0118988D01*
X0340367Y0119680D01*
X0339463Y0120055D01*
X0338484Y0120055D01*
X0337579Y0119680D01*
X0337265Y0119366D01*
X0324353Y0119366D01*
X0320272Y0123446D01*
X0320272Y0132063D01*
X0323952Y0132063D01*
X0324701Y0132813D01*
X0324701Y0137810D01*
X0323952Y0138559D01*
X0323816Y0138559D01*
X0323816Y0141512D01*
X0327495Y0141512D01*
X0328146Y0142163D01*
X0328146Y0137807D01*
X0327832Y0137492D01*
X0327457Y0136588D01*
X0327457Y0135609D01*
X0327832Y0134705D01*
X0328524Y0134012D01*
X0329429Y0133638D01*
X0330407Y0133638D01*
X0330902Y0133843D01*
X0330902Y0133047D01*
X0330610Y0133047D01*
X0329705Y0132673D01*
X0329013Y0131980D01*
X0328638Y0131076D01*
X0328638Y0130097D01*
X0329013Y0129193D01*
X0329705Y0128501D01*
X0330096Y0128339D01*
X0329407Y0127650D01*
X0329032Y0126745D01*
X0329032Y0125766D01*
X0329407Y0124862D01*
X0330099Y0124170D01*
X0331003Y0123795D01*
X0331982Y0123795D01*
X0332887Y0124170D01*
X0333579Y0124862D01*
X0333953Y0125766D01*
X0333953Y0126211D01*
X0337005Y0129262D01*
X0337452Y0128815D01*
X0342621Y0123645D01*
X0342615Y0123639D01*
X0342615Y0120133D01*
X0345094Y0117654D01*
X0348600Y0117654D01*
X0351079Y0120133D01*
X0351079Y0123639D01*
X0348600Y0126118D01*
X0345160Y0126118D01*
X0339957Y0131320D01*
X0339957Y0136152D01*
X0340208Y0135902D01*
X0342615Y0133495D01*
X0342615Y0130133D01*
X0345094Y0127654D01*
X0348600Y0127654D01*
X0351079Y0130133D01*
X0351079Y0133639D01*
X0348600Y0136118D01*
X0345094Y0136118D01*
X0345048Y0136072D01*
X0342713Y0138407D01*
X0342713Y0140034D01*
X0345094Y0137654D01*
X0348600Y0137654D01*
X0351079Y0140133D01*
X0351079Y0143639D01*
X0348600Y0146118D01*
X0345238Y0146118D01*
X0340351Y0151005D01*
X0340351Y0155876D01*
X0342615Y0153613D01*
X0342615Y0150133D01*
X0345094Y0147654D01*
X0348600Y0147654D01*
X0351079Y0150133D01*
X0351079Y0153639D01*
X0348600Y0156118D01*
X0345120Y0156118D01*
X0342320Y0158919D01*
X0342320Y0163908D01*
X0342615Y0163613D01*
X0342615Y0160133D01*
X0345094Y0157654D01*
X0348600Y0157654D01*
X0351079Y0160133D01*
X0351079Y0163639D01*
X0348600Y0166118D01*
X0345120Y0166118D01*
X0344288Y0166950D01*
X0344288Y0168460D01*
X0345094Y0167654D01*
X0348600Y0167654D01*
X0351079Y0170133D01*
X0351079Y0173639D01*
X0348600Y0176118D01*
X0345120Y0176118D01*
X0340351Y0180887D01*
X0340351Y0185876D01*
X0342615Y0183613D01*
X0342615Y0180133D01*
X0345094Y0177654D01*
X0348600Y0177654D01*
X0351079Y0180133D01*
X0351079Y0183639D01*
X0348600Y0186118D01*
X0345120Y0186118D01*
X0342320Y0188919D01*
X0342320Y0193908D01*
X0342615Y0193613D01*
X0342615Y0190133D01*
X0345094Y0187654D01*
X0348600Y0187654D01*
X0351079Y0190133D01*
X0351079Y0193639D01*
X0348600Y0196118D01*
X0345120Y0196118D01*
X0344288Y0196950D01*
X0344288Y0198460D01*
X0345094Y0197654D01*
X0348600Y0197654D01*
X0351079Y0200133D01*
X0351079Y0203639D01*
X0348619Y0206100D01*
X0348619Y0206517D01*
X0347482Y0207654D01*
X0348600Y0207654D01*
X0351079Y0210133D01*
X0351079Y0213639D01*
X0348600Y0216118D01*
X0345094Y0216118D01*
X0345009Y0216033D01*
X0342320Y0218722D01*
X0342320Y0223554D01*
X0342615Y0223258D01*
X0342615Y0220133D01*
X0345094Y0217654D01*
X0348600Y0217654D01*
X0351079Y0220133D01*
X0351079Y0223639D01*
X0348600Y0226118D01*
X0345094Y0226118D01*
X0344930Y0225954D01*
X0344288Y0226596D01*
X0344288Y0228460D01*
X0345094Y0227654D01*
X0348600Y0227654D01*
X0351079Y0230133D01*
X0351079Y0233639D01*
X0348600Y0236118D01*
X0345094Y0236118D01*
X0344288Y0235312D01*
X0344288Y0248460D01*
X0345094Y0247654D01*
X0348600Y0247654D01*
X0351079Y0250133D01*
X0351079Y0253639D01*
X0348600Y0256118D01*
X0345094Y0256118D01*
X0342615Y0253639D01*
X0342615Y0251104D01*
X0323565Y0270154D01*
X0310725Y0270154D01*
X0310725Y0271827D01*
X0311157Y0271827D01*
X0311649Y0272319D01*
X0351490Y0272319D01*
X0351750Y0271349D01*
X0351867Y0269563D01*
X0351867Y0104209D01*
X0351750Y0102423D01*
X0350825Y0098973D01*
X0349040Y0095880D01*
X0346514Y0093355D01*
X0343421Y0091569D01*
X0339971Y0090645D01*
X0338186Y0090528D01*
X0317782Y0090528D01*
X0314239Y0094071D01*
X0279456Y0094071D01*
X0278245Y0092860D01*
X0275912Y0090528D01*
X0255509Y0090528D01*
X0253723Y0090645D01*
X0250273Y0091569D01*
X0247180Y0093355D01*
X0244655Y0095880D01*
X0242869Y0098973D01*
X0241944Y0102423D01*
X0241827Y0104209D01*
X0241827Y0269563D01*
X0241944Y0271349D01*
X0242204Y0272319D01*
X0282045Y0272319D01*
X0282538Y0271827D01*
X0289859Y0271827D01*
X0289859Y0269033D01*
X0290608Y0268283D01*
X0292850Y0268283D01*
X0293599Y0269033D01*
X0293599Y0271827D01*
X0302654Y0271827D01*
X0302654Y0269033D01*
X0302667Y0269020D01*
X0302635Y0268988D01*
X0302260Y0268084D01*
X0302260Y0267105D01*
X0302337Y0266921D01*
X0302260Y0266845D01*
X0302260Y0264604D01*
X0302419Y0264445D01*
X0302260Y0264286D01*
X0302260Y0262045D01*
X0302337Y0261969D01*
X0302260Y0261785D01*
X0302260Y0260806D01*
X0302635Y0259901D01*
X0302667Y0259870D01*
X0302654Y0259857D01*
X0302654Y0255403D01*
X0302856Y0255201D01*
X0303029Y0254783D01*
X0303639Y0254173D01*
X0303540Y0254074D01*
X0303540Y0250407D01*
X0303835Y0250111D01*
X0303835Y0248207D01*
X0304210Y0247303D01*
X0304902Y0246611D01*
X0305806Y0246236D01*
X0306785Y0246236D01*
X0307690Y0246611D01*
X0308382Y0247303D01*
X0308757Y0248207D01*
X0308757Y0249521D01*
X0308793Y0249484D01*
X0310098Y0249484D01*
X0311020Y0250407D01*
X0311020Y0254074D01*
X0310098Y0254996D01*
X0308793Y0254996D01*
X0308757Y0254959D01*
X0308757Y0255486D01*
X0308382Y0256390D01*
X0307379Y0257393D01*
X0307379Y0258736D01*
X0309976Y0258736D01*
X0310074Y0258835D01*
X0312550Y0258835D01*
X0313579Y0257806D01*
X0313579Y0254262D01*
X0314617Y0253224D01*
X0316040Y0251802D01*
X0316040Y0246986D01*
X0316790Y0246236D01*
X0323361Y0246236D01*
X0324111Y0246986D01*
X0324111Y0253558D01*
X0323361Y0254307D01*
X0318546Y0254307D01*
X0317168Y0255685D01*
X0323361Y0255685D01*
X0324111Y0256435D01*
X0324111Y0261841D01*
X0338776Y0247176D01*
X0338776Y0217254D01*
X0339814Y0216217D01*
X0342615Y0213416D01*
X0342615Y0212521D01*
X0314510Y0240626D01*
X0310573Y0240626D01*
X0298784Y0252415D01*
X0299028Y0252516D01*
X0299721Y0253209D01*
X0300095Y0254113D01*
X0300095Y0255092D01*
X0299849Y0255685D01*
X0300527Y0255685D01*
X0301276Y0256435D01*
X0301276Y0259095D01*
X0301295Y0259114D01*
X0301670Y0260018D01*
X0301670Y0260997D01*
X0301295Y0261902D01*
X0300603Y0262594D01*
X0299699Y0262968D01*
X0298720Y0262968D01*
X0297815Y0262594D01*
X0297123Y0261902D01*
X0296749Y0260997D01*
X0296749Y0260606D01*
X0295727Y0260606D01*
X0295568Y0260447D01*
X0295409Y0260606D01*
X0293167Y0260606D01*
X0293009Y0260447D01*
X0292850Y0260606D01*
X0290608Y0260606D01*
X0290449Y0260447D01*
X0290290Y0260606D01*
X0288049Y0260606D01*
X0287890Y0260447D01*
X0287890Y0261443D01*
X0288484Y0261197D01*
X0289463Y0261197D01*
X0290367Y0261571D01*
X0291059Y0262264D01*
X0291434Y0263168D01*
X0291434Y0264147D01*
X0291059Y0265051D01*
X0291040Y0265070D01*
X0291040Y0266845D01*
X0290290Y0267594D01*
X0288049Y0267594D01*
X0287890Y0267435D01*
X0287890Y0269404D01*
X0287141Y0270154D01*
X0283719Y0270154D01*
X0283620Y0270055D01*
X0280661Y0270055D01*
X0274853Y0264248D01*
X0273816Y0263210D01*
X0273816Y0261976D01*
X0273321Y0262181D01*
X0272342Y0262181D01*
X0271438Y0261806D01*
X0271123Y0261492D01*
X0273816Y0262350D02*
X0241827Y0262350D01*
X0241827Y0261367D02*
X0265674Y0261367D01*
X0264691Y0260385D02*
X0241827Y0260385D01*
X0241827Y0259402D02*
X0263708Y0259402D01*
X0262725Y0258419D02*
X0241827Y0258419D01*
X0241827Y0257436D02*
X0261743Y0257436D01*
X0260760Y0256454D02*
X0241827Y0256454D01*
X0241827Y0255471D02*
X0244447Y0255471D01*
X0245094Y0256118D02*
X0242615Y0253639D01*
X0242615Y0250133D01*
X0245094Y0247654D01*
X0248600Y0247654D01*
X0251079Y0250133D01*
X0251079Y0253639D01*
X0248600Y0256118D01*
X0245094Y0256118D01*
X0243464Y0254488D02*
X0241827Y0254488D01*
X0241827Y0253505D02*
X0242615Y0253505D01*
X0242615Y0252523D02*
X0241827Y0252523D01*
X0241827Y0251540D02*
X0242615Y0251540D01*
X0242615Y0250557D02*
X0241827Y0250557D01*
X0241827Y0249574D02*
X0243173Y0249574D01*
X0244156Y0248591D02*
X0241827Y0248591D01*
X0241827Y0247609D02*
X0254131Y0247609D01*
X0254131Y0248591D02*
X0249538Y0248591D01*
X0250521Y0249574D02*
X0254131Y0249574D01*
X0254863Y0250557D02*
X0251079Y0250557D01*
X0251079Y0251540D02*
X0255846Y0251540D01*
X0256829Y0252523D02*
X0251079Y0252523D01*
X0251079Y0253505D02*
X0257812Y0253505D01*
X0258794Y0254488D02*
X0250230Y0254488D01*
X0249247Y0255471D02*
X0259777Y0255471D01*
X0255902Y0249091D02*
X0266532Y0259720D01*
X0273938Y0263333D02*
X0241827Y0263333D01*
X0241827Y0264316D02*
X0274921Y0264316D01*
X0275904Y0265298D02*
X0241827Y0265298D01*
X0241827Y0266281D02*
X0276887Y0266281D01*
X0277869Y0267264D02*
X0241827Y0267264D01*
X0241827Y0268247D02*
X0278852Y0268247D01*
X0279835Y0269230D02*
X0241827Y0269230D01*
X0241870Y0270212D02*
X0289859Y0270212D01*
X0289859Y0269230D02*
X0287890Y0269230D01*
X0287890Y0268247D02*
X0302328Y0268247D01*
X0302260Y0267264D02*
X0290621Y0267264D01*
X0291040Y0266281D02*
X0302260Y0266281D01*
X0302260Y0265298D02*
X0291040Y0265298D01*
X0291364Y0264316D02*
X0302290Y0264316D01*
X0302260Y0263333D02*
X0291434Y0263333D01*
X0291095Y0262350D02*
X0297572Y0262350D01*
X0296902Y0261367D02*
X0289874Y0261367D01*
X0288072Y0261367D02*
X0287890Y0261367D01*
X0288973Y0263657D02*
X0289170Y0263854D01*
X0289170Y0265724D01*
X0285430Y0265724D02*
X0281591Y0265724D01*
X0277556Y0261689D01*
X0277556Y0254996D01*
X0283068Y0249484D01*
X0288186Y0249484D01*
X0295666Y0242004D01*
X0296847Y0240823D01*
X0306690Y0230980D01*
X0311020Y0230980D01*
X0336611Y0205390D01*
X0336611Y0179406D01*
X0342516Y0173500D01*
X0342516Y0166217D01*
X0346847Y0161886D01*
X0342615Y0162108D02*
X0342320Y0162108D01*
X0342320Y0161126D02*
X0342615Y0161126D01*
X0342615Y0160143D02*
X0342320Y0160143D01*
X0342320Y0159160D02*
X0343588Y0159160D01*
X0343061Y0158177D02*
X0344570Y0158177D01*
X0344044Y0157195D02*
X0351867Y0157195D01*
X0351867Y0158177D02*
X0349124Y0158177D01*
X0350107Y0159160D02*
X0351867Y0159160D01*
X0351867Y0160143D02*
X0351079Y0160143D01*
X0351079Y0161126D02*
X0351867Y0161126D01*
X0351867Y0162108D02*
X0351079Y0162108D01*
X0351079Y0163091D02*
X0351867Y0163091D01*
X0351867Y0164074D02*
X0350644Y0164074D01*
X0349662Y0165057D02*
X0351867Y0165057D01*
X0351867Y0166039D02*
X0348679Y0166039D01*
X0348952Y0168005D02*
X0351867Y0168005D01*
X0351867Y0168988D02*
X0349934Y0168988D01*
X0350917Y0169970D02*
X0351867Y0169970D01*
X0351867Y0170953D02*
X0351079Y0170953D01*
X0351079Y0171936D02*
X0351867Y0171936D01*
X0351867Y0172919D02*
X0351079Y0172919D01*
X0350817Y0173901D02*
X0351867Y0173901D01*
X0351867Y0174884D02*
X0349834Y0174884D01*
X0348851Y0175867D02*
X0351867Y0175867D01*
X0351867Y0176850D02*
X0344389Y0176850D01*
X0344915Y0177833D02*
X0343406Y0177833D01*
X0343932Y0178815D02*
X0342423Y0178815D01*
X0342950Y0179798D02*
X0341440Y0179798D01*
X0340458Y0180781D02*
X0342615Y0180781D01*
X0342615Y0181764D02*
X0340351Y0181764D01*
X0340351Y0182746D02*
X0342615Y0182746D01*
X0342498Y0183729D02*
X0340351Y0183729D01*
X0340351Y0184712D02*
X0341516Y0184712D01*
X0340533Y0185695D02*
X0340351Y0185695D01*
X0340548Y0188185D02*
X0340548Y0206965D01*
X0312595Y0234917D01*
X0308264Y0234917D01*
X0289170Y0254012D01*
X0289170Y0258146D01*
X0287300Y0258419D02*
X0284011Y0258419D01*
X0283972Y0258327D02*
X0284142Y0258736D01*
X0287141Y0258736D01*
X0287300Y0258895D01*
X0287300Y0256435D01*
X0287398Y0256336D01*
X0287398Y0253278D01*
X0287452Y0253224D01*
X0284983Y0253224D01*
X0281296Y0256911D01*
X0281296Y0257302D01*
X0281397Y0257260D01*
X0282376Y0257260D01*
X0283280Y0257634D01*
X0283972Y0258327D01*
X0282802Y0257436D02*
X0287300Y0257436D01*
X0287300Y0256454D02*
X0281753Y0256454D01*
X0282736Y0255471D02*
X0287398Y0255471D01*
X0287398Y0254488D02*
X0283719Y0254488D01*
X0284702Y0253505D02*
X0287398Y0253505D01*
X0288973Y0251453D02*
X0307477Y0232949D01*
X0311808Y0232949D01*
X0338579Y0206177D01*
X0338579Y0180154D01*
X0346847Y0171886D01*
X0344743Y0168005D02*
X0344288Y0168005D01*
X0344288Y0167022D02*
X0351867Y0167022D01*
X0342615Y0163091D02*
X0342320Y0163091D01*
X0340548Y0158185D02*
X0340548Y0172713D01*
X0334642Y0178618D01*
X0334642Y0204602D01*
X0310233Y0229012D01*
X0305902Y0229012D01*
X0298816Y0236098D01*
X0298028Y0236098D01*
X0298028Y0232949D02*
X0299603Y0232949D01*
X0305509Y0227043D01*
X0309446Y0227043D01*
X0332674Y0203815D01*
X0332674Y0177831D01*
X0338579Y0171925D01*
X0338579Y0150272D01*
X0346847Y0142004D01*
X0346847Y0141886D01*
X0351079Y0141470D02*
X0351867Y0141470D01*
X0351867Y0140488D02*
X0351079Y0140488D01*
X0350451Y0139505D02*
X0351867Y0139505D01*
X0351867Y0138522D02*
X0349469Y0138522D01*
X0351867Y0137539D02*
X0343581Y0137539D01*
X0344226Y0138522D02*
X0342713Y0138522D01*
X0342713Y0139505D02*
X0343243Y0139505D01*
X0340942Y0137673D02*
X0340942Y0144760D01*
X0336611Y0149091D01*
X0336611Y0171138D01*
X0330705Y0177043D01*
X0330705Y0198697D01*
X0330312Y0199091D01*
X0330312Y0203421D01*
X0312989Y0220744D01*
X0311020Y0220744D01*
X0306690Y0225075D01*
X0303934Y0225075D01*
X0302753Y0226256D01*
X0300784Y0224681D02*
X0300784Y0219563D01*
X0302753Y0217594D01*
X0307871Y0217594D01*
X0311020Y0214445D01*
X0316532Y0214445D01*
X0327949Y0203028D01*
X0327949Y0197122D01*
X0328737Y0196335D01*
X0328737Y0192791D01*
X0327949Y0192004D01*
X0328737Y0191217D01*
X0328737Y0192004D01*
X0327949Y0192004D01*
X0325194Y0192004D01*
X0324997Y0191807D01*
X0323422Y0191807D01*
X0323422Y0193776D02*
X0324997Y0193776D01*
X0326375Y0195154D01*
X0328737Y0192791D02*
X0328737Y0192004D01*
X0328737Y0191217D02*
X0328737Y0176256D01*
X0334642Y0170350D01*
X0334642Y0147909D01*
X0338186Y0144366D01*
X0338186Y0130587D01*
X0346847Y0121925D01*
X0346847Y0121886D01*
X0343881Y0118867D02*
X0341109Y0118867D01*
X0341434Y0117884D02*
X0344864Y0117884D01*
X0342898Y0119850D02*
X0339959Y0119850D01*
X0337987Y0119850D02*
X0323869Y0119850D01*
X0322886Y0120832D02*
X0342615Y0120832D01*
X0342615Y0121815D02*
X0321904Y0121815D01*
X0320921Y0122798D02*
X0342615Y0122798D01*
X0342486Y0123781D02*
X0320272Y0123781D01*
X0320272Y0124763D02*
X0329505Y0124763D01*
X0329041Y0125746D02*
X0320272Y0125746D01*
X0320272Y0126729D02*
X0329032Y0126729D01*
X0329469Y0127712D02*
X0320272Y0127712D01*
X0320272Y0128694D02*
X0329511Y0128694D01*
X0328812Y0129677D02*
X0320272Y0129677D01*
X0320272Y0130660D02*
X0328638Y0130660D01*
X0328873Y0131643D02*
X0320272Y0131643D01*
X0316729Y0131643D02*
X0309857Y0131643D01*
X0308875Y0130660D02*
X0316729Y0130660D01*
X0316729Y0129677D02*
X0307892Y0129677D01*
X0306909Y0128694D02*
X0316729Y0128694D01*
X0316729Y0127712D02*
X0305926Y0127712D01*
X0304944Y0126729D02*
X0316729Y0126729D01*
X0316729Y0125746D02*
X0303961Y0125746D01*
X0302978Y0124763D02*
X0316729Y0124763D01*
X0316729Y0123781D02*
X0301995Y0123781D01*
X0301013Y0122798D02*
X0316729Y0122798D01*
X0316893Y0121815D02*
X0300030Y0121815D01*
X0299047Y0120832D02*
X0317875Y0120832D01*
X0318858Y0119850D02*
X0298225Y0119850D01*
X0298225Y0118867D02*
X0319841Y0118867D01*
X0320824Y0117884D02*
X0298225Y0117884D01*
X0298225Y0116901D02*
X0321807Y0116901D01*
X0322789Y0115918D02*
X0298225Y0115918D01*
X0298225Y0114936D02*
X0351867Y0114936D01*
X0351867Y0115918D02*
X0340777Y0115918D01*
X0341349Y0116901D02*
X0351867Y0116901D01*
X0351867Y0117884D02*
X0348831Y0117884D01*
X0349813Y0118867D02*
X0351867Y0118867D01*
X0351867Y0119850D02*
X0350796Y0119850D01*
X0351079Y0120832D02*
X0351867Y0120832D01*
X0351867Y0121815D02*
X0351079Y0121815D01*
X0351079Y0122798D02*
X0351867Y0122798D01*
X0351867Y0123781D02*
X0350938Y0123781D01*
X0351867Y0124763D02*
X0349955Y0124763D01*
X0348972Y0125746D02*
X0351867Y0125746D01*
X0351867Y0126729D02*
X0344549Y0126729D01*
X0345036Y0127712D02*
X0343566Y0127712D01*
X0344053Y0128694D02*
X0342583Y0128694D01*
X0343070Y0129677D02*
X0341601Y0129677D01*
X0340618Y0130660D02*
X0342615Y0130660D01*
X0342615Y0131643D02*
X0339957Y0131643D01*
X0339957Y0132625D02*
X0342615Y0132625D01*
X0342501Y0133608D02*
X0339957Y0133608D01*
X0339957Y0134591D02*
X0341518Y0134591D01*
X0340536Y0135574D02*
X0339957Y0135574D01*
X0340208Y0135902D02*
X0340208Y0135902D01*
X0340942Y0137673D02*
X0346729Y0131886D01*
X0346847Y0131886D01*
X0346847Y0132161D01*
X0350127Y0134591D02*
X0351867Y0134591D01*
X0351867Y0135574D02*
X0349145Y0135574D01*
X0351079Y0133608D02*
X0351867Y0133608D01*
X0351867Y0132625D02*
X0351079Y0132625D01*
X0351079Y0131643D02*
X0351867Y0131643D01*
X0351867Y0130660D02*
X0351079Y0130660D01*
X0350624Y0129677D02*
X0351867Y0129677D01*
X0351867Y0128694D02*
X0349641Y0128694D01*
X0348658Y0127712D02*
X0351867Y0127712D01*
X0341503Y0124763D02*
X0333480Y0124763D01*
X0333945Y0125746D02*
X0340521Y0125746D01*
X0339538Y0126729D02*
X0334471Y0126729D01*
X0335454Y0127712D02*
X0338555Y0127712D01*
X0337572Y0128694D02*
X0336437Y0128694D01*
X0335430Y0130193D02*
X0331493Y0126256D01*
X0331099Y0130587D02*
X0332674Y0132161D01*
X0332674Y0143579D01*
X0330705Y0145547D01*
X0330705Y0167201D01*
X0326768Y0171138D01*
X0326768Y0171531D01*
X0323225Y0175075D01*
X0323225Y0179012D01*
X0324012Y0179799D01*
X0323422Y0179996D02*
X0323225Y0179799D01*
X0323225Y0179012D01*
X0322438Y0179799D01*
X0323422Y0181965D02*
X0326572Y0181965D01*
X0327162Y0181374D01*
X0327162Y0174287D01*
X0330312Y0171138D01*
X0332674Y0168776D01*
X0332674Y0146728D01*
X0335430Y0143972D01*
X0335430Y0130193D01*
X0330902Y0133608D02*
X0324701Y0133608D01*
X0324701Y0134591D02*
X0327946Y0134591D01*
X0327472Y0135574D02*
X0324701Y0135574D01*
X0324701Y0136556D02*
X0327457Y0136556D01*
X0327879Y0137539D02*
X0324701Y0137539D01*
X0323989Y0138522D02*
X0328146Y0138522D01*
X0328146Y0139505D02*
X0323816Y0139505D01*
X0323816Y0140488D02*
X0328146Y0140488D01*
X0328146Y0141470D02*
X0323816Y0141470D01*
X0325587Y0144760D02*
X0326375Y0145547D01*
X0326375Y0164839D01*
X0317910Y0173303D01*
X0317910Y0176453D01*
X0315942Y0176453D02*
X0315942Y0173697D01*
X0315745Y0173500D01*
X0315745Y0162870D01*
X0317320Y0161295D01*
X0322044Y0156571D01*
X0321400Y0159720D02*
X0319977Y0161143D01*
X0319977Y0163203D01*
X0319227Y0163953D01*
X0317516Y0163953D01*
X0317516Y0171191D01*
X0324603Y0164105D01*
X0324603Y0159388D01*
X0324271Y0159720D01*
X0321400Y0159720D01*
X0320977Y0160143D02*
X0324603Y0160143D01*
X0324603Y0161126D02*
X0319995Y0161126D01*
X0319977Y0162108D02*
X0324603Y0162108D01*
X0324603Y0163091D02*
X0319977Y0163091D01*
X0317516Y0164074D02*
X0324603Y0164074D01*
X0323651Y0165057D02*
X0317516Y0165057D01*
X0317516Y0166039D02*
X0322668Y0166039D01*
X0321686Y0167022D02*
X0317516Y0167022D01*
X0317516Y0168005D02*
X0320703Y0168005D01*
X0319720Y0168988D02*
X0317516Y0168988D01*
X0317516Y0169970D02*
X0318737Y0169970D01*
X0317755Y0170953D02*
X0317516Y0170953D01*
X0314170Y0173500D02*
X0314170Y0162870D01*
X0312595Y0161295D01*
X0307871Y0161295D01*
X0305115Y0163657D02*
X0305115Y0152240D01*
X0311020Y0146335D01*
X0308744Y0145401D02*
X0290165Y0145401D01*
X0290069Y0146384D02*
X0308465Y0146384D01*
X0307483Y0147367D02*
X0290942Y0147367D01*
X0290942Y0148350D02*
X0291237Y0148350D01*
X0291237Y0149332D02*
X0290942Y0149332D01*
X0290942Y0150315D02*
X0291237Y0150315D01*
X0291237Y0151298D02*
X0290942Y0151298D01*
X0290942Y0152281D02*
X0291237Y0152281D01*
X0291237Y0153263D02*
X0290942Y0153263D01*
X0287792Y0149332D02*
X0286217Y0149332D01*
X0286217Y0148350D02*
X0287792Y0148350D01*
X0287792Y0147367D02*
X0286217Y0147367D01*
X0285344Y0146384D02*
X0288665Y0146384D01*
X0288569Y0145401D02*
X0285441Y0145401D01*
X0286217Y0144419D02*
X0287792Y0144419D01*
X0287792Y0143436D02*
X0286217Y0143436D01*
X0286217Y0142453D02*
X0287792Y0142453D01*
X0290942Y0142453D02*
X0291237Y0142453D01*
X0291237Y0141470D02*
X0290942Y0141470D01*
X0290942Y0140488D02*
X0291040Y0140488D01*
X0290942Y0143436D02*
X0291237Y0143436D01*
X0290942Y0144419D02*
X0291940Y0144419D01*
X0295848Y0144419D02*
X0299421Y0144419D01*
X0297635Y0143436D02*
X0297634Y0143436D01*
X0297634Y0142453D02*
X0297635Y0142453D01*
X0297634Y0141470D02*
X0297635Y0141470D01*
X0297634Y0140488D02*
X0297635Y0140488D01*
X0301178Y0140429D02*
X0301178Y0136886D01*
X0299997Y0135705D01*
X0293698Y0135705D01*
X0295638Y0133608D02*
X0304450Y0133608D01*
X0303467Y0132625D02*
X0290483Y0132625D01*
X0289859Y0131643D02*
X0302484Y0131643D01*
X0301502Y0130660D02*
X0289859Y0130660D01*
X0289859Y0129677D02*
X0300519Y0129677D01*
X0299536Y0128694D02*
X0289859Y0128694D01*
X0289859Y0127712D02*
X0298553Y0127712D01*
X0297570Y0126729D02*
X0289859Y0126729D01*
X0289859Y0125746D02*
X0296588Y0125746D01*
X0295605Y0124763D02*
X0289859Y0124763D01*
X0289859Y0123781D02*
X0294622Y0123781D01*
X0293751Y0122909D02*
X0293751Y0122909D01*
X0293639Y0122798D02*
X0289859Y0122798D01*
X0289859Y0121815D02*
X0292713Y0121815D01*
X0292713Y0120832D02*
X0289859Y0120832D01*
X0290361Y0119850D02*
X0292713Y0119850D01*
X0292713Y0118867D02*
X0291344Y0118867D01*
X0292327Y0117884D02*
X0292713Y0117884D01*
X0294485Y0121138D02*
X0294485Y0112476D01*
X0294288Y0112280D01*
X0294288Y0108343D01*
X0296847Y0108343D02*
X0296847Y0112083D01*
X0296453Y0112476D01*
X0296453Y0120744D01*
X0315745Y0140035D01*
X0315745Y0151846D01*
X0317320Y0151846D01*
X0315745Y0151846D02*
X0315745Y0154996D01*
X0317320Y0156571D01*
X0314170Y0154996D02*
X0312595Y0156571D01*
X0314170Y0154996D02*
X0314170Y0140823D01*
X0294485Y0121138D01*
X0287202Y0114936D02*
X0262103Y0114936D01*
X0262103Y0115918D02*
X0286219Y0115918D01*
X0285236Y0116901D02*
X0262103Y0116901D01*
X0262103Y0117140D02*
X0261649Y0117594D01*
X0262103Y0118049D01*
X0262103Y0121865D01*
X0261743Y0122224D01*
X0261906Y0122617D01*
X0261906Y0123596D01*
X0261532Y0124500D01*
X0260839Y0125192D01*
X0259935Y0125567D01*
X0258956Y0125567D01*
X0258052Y0125192D01*
X0257360Y0124500D01*
X0257083Y0123833D01*
X0256807Y0124500D01*
X0256115Y0125192D01*
X0255211Y0125567D01*
X0254232Y0125567D01*
X0253327Y0125192D01*
X0252635Y0124500D01*
X0252260Y0123596D01*
X0252260Y0122617D01*
X0252423Y0122224D01*
X0252064Y0121865D01*
X0252064Y0118049D01*
X0252518Y0117594D01*
X0252064Y0117140D01*
X0252064Y0115080D01*
X0250489Y0113505D01*
X0250489Y0113753D01*
X0250114Y0114658D01*
X0249422Y0115350D01*
X0248518Y0115724D01*
X0247539Y0115724D01*
X0246634Y0115350D01*
X0245942Y0114658D01*
X0245568Y0113753D01*
X0245568Y0112774D01*
X0245730Y0112382D01*
X0245371Y0112022D01*
X0245371Y0108206D01*
X0245825Y0107752D01*
X0245371Y0107298D01*
X0245371Y0103482D01*
X0246120Y0102732D01*
X0248180Y0102732D01*
X0252260Y0098652D01*
X0252260Y0096395D01*
X0253010Y0095646D01*
X0260369Y0095646D01*
X0261119Y0096395D01*
X0261119Y0100998D01*
X0260664Y0101453D01*
X0261119Y0101907D01*
X0261119Y0106510D01*
X0260664Y0106965D01*
X0261119Y0107419D01*
X0261119Y0110463D01*
X0261217Y0110561D01*
X0261217Y0112575D01*
X0261353Y0112575D01*
X0262103Y0113324D01*
X0262103Y0117140D01*
X0261938Y0117884D02*
X0284447Y0117884D01*
X0284150Y0118867D02*
X0262103Y0118867D01*
X0262103Y0119850D02*
X0284150Y0119850D01*
X0284150Y0120832D02*
X0262103Y0120832D01*
X0262103Y0121815D02*
X0284150Y0121815D01*
X0284150Y0122798D02*
X0261906Y0122798D01*
X0261830Y0123781D02*
X0284150Y0123781D01*
X0284150Y0124763D02*
X0261268Y0124763D01*
X0259446Y0123106D02*
X0259446Y0119957D01*
X0259446Y0115232D02*
X0259446Y0111295D01*
X0257871Y0109720D01*
X0256690Y0109720D01*
X0261119Y0110022D02*
X0266335Y0110022D01*
X0266335Y0111005D02*
X0261217Y0111005D01*
X0261217Y0111987D02*
X0266335Y0111987D01*
X0266335Y0112817D02*
X0266335Y0095601D01*
X0267373Y0094563D01*
X0268841Y0094563D01*
X0275534Y0094563D01*
X0276572Y0095601D01*
X0276572Y0097068D01*
X0275534Y0098106D01*
X0269879Y0098106D01*
X0269879Y0099681D01*
X0275534Y0099681D01*
X0276572Y0100719D01*
X0276572Y0102187D01*
X0275534Y0103224D01*
X0269879Y0103224D01*
X0269879Y0105193D01*
X0275534Y0105193D01*
X0276572Y0106231D01*
X0276572Y0107698D01*
X0275534Y0108736D01*
X0269879Y0108736D01*
X0269879Y0110311D01*
X0275534Y0110311D01*
X0276572Y0111349D01*
X0276572Y0112817D01*
X0275534Y0113854D01*
X0267373Y0113854D01*
X0266335Y0112817D01*
X0266489Y0112970D02*
X0261749Y0112970D01*
X0262103Y0113953D02*
X0288117Y0113953D01*
X0289100Y0112970D02*
X0276418Y0112970D01*
X0276572Y0111987D02*
X0289662Y0111987D01*
X0289662Y0111005D02*
X0276227Y0111005D01*
X0276214Y0108056D02*
X0289662Y0108056D01*
X0289662Y0107074D02*
X0276572Y0107074D01*
X0276432Y0106091D02*
X0289662Y0106091D01*
X0289662Y0105108D02*
X0269879Y0105108D01*
X0269879Y0104125D02*
X0351861Y0104125D01*
X0351867Y0105108D02*
X0301473Y0105108D01*
X0301473Y0106091D02*
X0351867Y0106091D01*
X0351867Y0107074D02*
X0301473Y0107074D01*
X0301473Y0108056D02*
X0351867Y0108056D01*
X0351867Y0109039D02*
X0301473Y0109039D01*
X0301473Y0110022D02*
X0351867Y0110022D01*
X0351867Y0111005D02*
X0301473Y0111005D01*
X0301114Y0111987D02*
X0351867Y0111987D01*
X0351867Y0112970D02*
X0298465Y0112970D01*
X0298225Y0113953D02*
X0351867Y0113953D01*
X0351797Y0103143D02*
X0275616Y0103143D01*
X0276572Y0102160D02*
X0351679Y0102160D01*
X0351416Y0101177D02*
X0276572Y0101177D01*
X0276047Y0100194D02*
X0351153Y0100194D01*
X0350889Y0099211D02*
X0269879Y0099211D01*
X0269879Y0098229D02*
X0350396Y0098229D01*
X0349828Y0097246D02*
X0276394Y0097246D01*
X0276572Y0096263D02*
X0349261Y0096263D01*
X0348440Y0095280D02*
X0276251Y0095280D01*
X0278700Y0093315D02*
X0247249Y0093315D01*
X0246237Y0094298D02*
X0347457Y0094298D01*
X0346445Y0093315D02*
X0314995Y0093315D01*
X0315977Y0092332D02*
X0344743Y0092332D01*
X0342602Y0091349D02*
X0316960Y0091349D01*
X0289662Y0109039D02*
X0269879Y0109039D01*
X0269879Y0110022D02*
X0289662Y0110022D01*
X0284150Y0125746D02*
X0248972Y0125746D01*
X0248600Y0126118D02*
X0245094Y0126118D01*
X0242615Y0123639D01*
X0242615Y0120133D01*
X0245094Y0117654D01*
X0248600Y0117654D01*
X0251079Y0120133D01*
X0251079Y0123639D01*
X0248600Y0126118D01*
X0248600Y0127654D02*
X0251079Y0130133D01*
X0251079Y0133639D01*
X0248600Y0136118D01*
X0245094Y0136118D01*
X0242615Y0133639D01*
X0242615Y0130133D01*
X0245094Y0127654D01*
X0248600Y0127654D01*
X0248658Y0127712D02*
X0284150Y0127712D01*
X0284150Y0128694D02*
X0249641Y0128694D01*
X0250624Y0129677D02*
X0284150Y0129677D01*
X0284150Y0130660D02*
X0251079Y0130660D01*
X0251079Y0131643D02*
X0284150Y0131643D01*
X0283526Y0132625D02*
X0251079Y0132625D01*
X0251079Y0133608D02*
X0283068Y0133608D01*
X0283068Y0134591D02*
X0250127Y0134591D01*
X0249145Y0135574D02*
X0283068Y0135574D01*
X0283068Y0136556D02*
X0241827Y0136556D01*
X0241827Y0135574D02*
X0244550Y0135574D01*
X0243567Y0134591D02*
X0241827Y0134591D01*
X0241827Y0133608D02*
X0242615Y0133608D01*
X0242615Y0132625D02*
X0241827Y0132625D01*
X0241827Y0131643D02*
X0242615Y0131643D01*
X0242615Y0130660D02*
X0241827Y0130660D01*
X0241827Y0129677D02*
X0243070Y0129677D01*
X0244053Y0128694D02*
X0241827Y0128694D01*
X0241827Y0127712D02*
X0245036Y0127712D01*
X0244722Y0125746D02*
X0241827Y0125746D01*
X0241827Y0124763D02*
X0243739Y0124763D01*
X0242756Y0123781D02*
X0241827Y0123781D01*
X0241827Y0122798D02*
X0242615Y0122798D01*
X0242615Y0121815D02*
X0241827Y0121815D01*
X0241827Y0120832D02*
X0242615Y0120832D01*
X0242898Y0119850D02*
X0241827Y0119850D01*
X0241827Y0118867D02*
X0243881Y0118867D01*
X0244864Y0117884D02*
X0241827Y0117884D01*
X0241827Y0116901D02*
X0252064Y0116901D01*
X0252064Y0115918D02*
X0241827Y0115918D01*
X0241827Y0114936D02*
X0246220Y0114936D01*
X0245650Y0113953D02*
X0241827Y0113953D01*
X0241827Y0112970D02*
X0245568Y0112970D01*
X0245371Y0111987D02*
X0241827Y0111987D01*
X0241827Y0111005D02*
X0245371Y0111005D01*
X0245371Y0110022D02*
X0241827Y0110022D01*
X0241827Y0109039D02*
X0245371Y0109039D01*
X0245521Y0108056D02*
X0241827Y0108056D01*
X0241827Y0107074D02*
X0245371Y0107074D01*
X0245371Y0106091D02*
X0241827Y0106091D01*
X0241827Y0105108D02*
X0245371Y0105108D01*
X0245371Y0104125D02*
X0241833Y0104125D01*
X0241897Y0103143D02*
X0245710Y0103143D01*
X0248753Y0102160D02*
X0242015Y0102160D01*
X0242278Y0101177D02*
X0249735Y0101177D01*
X0250718Y0100194D02*
X0242542Y0100194D01*
X0242805Y0099211D02*
X0251701Y0099211D01*
X0252260Y0098229D02*
X0243299Y0098229D01*
X0243866Y0097246D02*
X0252260Y0097246D01*
X0252392Y0096263D02*
X0244433Y0096263D01*
X0245254Y0095280D02*
X0266656Y0095280D01*
X0266335Y0096263D02*
X0260987Y0096263D01*
X0261119Y0097246D02*
X0266335Y0097246D01*
X0266335Y0098229D02*
X0261119Y0098229D01*
X0261119Y0099211D02*
X0266335Y0099211D01*
X0266335Y0100194D02*
X0261119Y0100194D01*
X0260940Y0101177D02*
X0266335Y0101177D01*
X0266335Y0102160D02*
X0261119Y0102160D01*
X0261119Y0103143D02*
X0266335Y0103143D01*
X0266335Y0104125D02*
X0261119Y0104125D01*
X0261119Y0105108D02*
X0266335Y0105108D01*
X0266335Y0106091D02*
X0261119Y0106091D01*
X0260774Y0107074D02*
X0266335Y0107074D01*
X0266335Y0108056D02*
X0261119Y0108056D01*
X0261119Y0109039D02*
X0266335Y0109039D01*
X0256690Y0104209D02*
X0255115Y0104209D01*
X0251965Y0107358D01*
X0251965Y0112476D01*
X0254721Y0115232D01*
X0251919Y0114936D02*
X0249836Y0114936D01*
X0250406Y0113953D02*
X0250936Y0113953D01*
X0248028Y0113264D02*
X0248028Y0110114D01*
X0248028Y0105390D02*
X0254721Y0098697D01*
X0256690Y0098697D01*
X0251093Y0091349D02*
X0276734Y0091349D01*
X0277717Y0092332D02*
X0248951Y0092332D01*
X0248831Y0117884D02*
X0252228Y0117884D01*
X0252064Y0118867D02*
X0249813Y0118867D01*
X0250796Y0119850D02*
X0252064Y0119850D01*
X0252064Y0120832D02*
X0251079Y0120832D01*
X0251079Y0121815D02*
X0252064Y0121815D01*
X0252260Y0122798D02*
X0251079Y0122798D01*
X0250938Y0123781D02*
X0252337Y0123781D01*
X0252898Y0124763D02*
X0249955Y0124763D01*
X0254721Y0123106D02*
X0254721Y0119957D01*
X0256544Y0124763D02*
X0257623Y0124763D01*
X0248600Y0137654D02*
X0245094Y0137654D01*
X0242615Y0140133D01*
X0242615Y0143639D01*
X0245094Y0146118D01*
X0248600Y0146118D01*
X0251079Y0143639D01*
X0251079Y0140133D01*
X0248600Y0137654D01*
X0249469Y0138522D02*
X0283068Y0138522D01*
X0283068Y0137539D02*
X0241827Y0137539D01*
X0241827Y0138522D02*
X0244226Y0138522D01*
X0243243Y0139505D02*
X0241827Y0139505D01*
X0241827Y0140488D02*
X0242615Y0140488D01*
X0242615Y0141470D02*
X0241827Y0141470D01*
X0241827Y0142453D02*
X0242615Y0142453D01*
X0242615Y0143436D02*
X0241827Y0143436D01*
X0241827Y0144419D02*
X0243395Y0144419D01*
X0244377Y0145401D02*
X0241827Y0145401D01*
X0241827Y0146384D02*
X0267221Y0146384D01*
X0267221Y0145401D02*
X0249317Y0145401D01*
X0250300Y0144419D02*
X0267221Y0144419D01*
X0267221Y0143436D02*
X0251079Y0143436D01*
X0251079Y0142453D02*
X0267221Y0142453D01*
X0267221Y0141470D02*
X0251079Y0141470D01*
X0251079Y0140488D02*
X0267420Y0140488D01*
X0267221Y0147367D02*
X0241827Y0147367D01*
X0241827Y0148350D02*
X0244398Y0148350D01*
X0245094Y0147654D02*
X0248600Y0147654D01*
X0251079Y0150133D01*
X0251079Y0153639D01*
X0248600Y0156118D01*
X0245094Y0156118D01*
X0242615Y0153639D01*
X0242615Y0150133D01*
X0245094Y0147654D01*
X0243415Y0149332D02*
X0241827Y0149332D01*
X0241827Y0150315D02*
X0242615Y0150315D01*
X0242615Y0151298D02*
X0241827Y0151298D01*
X0241827Y0152281D02*
X0242615Y0152281D01*
X0242615Y0153263D02*
X0241827Y0153263D01*
X0241827Y0154246D02*
X0243222Y0154246D01*
X0244205Y0155229D02*
X0241827Y0155229D01*
X0241827Y0156212D02*
X0270666Y0156212D01*
X0270666Y0157195D02*
X0241827Y0157195D01*
X0241827Y0158177D02*
X0244570Y0158177D01*
X0245094Y0157654D02*
X0248600Y0157654D01*
X0251079Y0160133D01*
X0251079Y0163639D01*
X0248600Y0166118D01*
X0245094Y0166118D01*
X0242615Y0163639D01*
X0242615Y0160133D01*
X0245094Y0157654D01*
X0243588Y0159160D02*
X0241827Y0159160D01*
X0241827Y0160143D02*
X0242615Y0160143D01*
X0242615Y0161126D02*
X0241827Y0161126D01*
X0241827Y0162108D02*
X0242615Y0162108D01*
X0242615Y0163091D02*
X0241827Y0163091D01*
X0241827Y0164074D02*
X0243050Y0164074D01*
X0244033Y0165057D02*
X0241827Y0165057D01*
X0241827Y0166039D02*
X0245015Y0166039D01*
X0245094Y0167654D02*
X0248600Y0167654D01*
X0251079Y0170133D01*
X0251079Y0173639D01*
X0248600Y0176118D01*
X0245094Y0176118D01*
X0242615Y0173639D01*
X0242615Y0170133D01*
X0245094Y0167654D01*
X0244743Y0168005D02*
X0241827Y0168005D01*
X0241827Y0168988D02*
X0243760Y0168988D01*
X0242777Y0169970D02*
X0241827Y0169970D01*
X0241827Y0170953D02*
X0242615Y0170953D01*
X0242615Y0171936D02*
X0241827Y0171936D01*
X0241827Y0172919D02*
X0242615Y0172919D01*
X0242877Y0173901D02*
X0241827Y0173901D01*
X0241827Y0174884D02*
X0243860Y0174884D01*
X0244843Y0175867D02*
X0241827Y0175867D01*
X0241827Y0176850D02*
X0275489Y0176850D01*
X0275489Y0177833D02*
X0271887Y0177833D01*
X0272536Y0178815D02*
X0275587Y0178815D01*
X0275587Y0179798D02*
X0272536Y0179798D01*
X0272536Y0180781D02*
X0275587Y0180781D01*
X0275489Y0175867D02*
X0248851Y0175867D01*
X0249834Y0174884D02*
X0265319Y0174884D01*
X0265253Y0174817D02*
X0266002Y0175567D01*
X0271787Y0175567D01*
X0272536Y0174817D01*
X0272536Y0173732D01*
X0272555Y0173713D01*
X0272930Y0172808D01*
X0272930Y0168912D01*
X0273127Y0168715D01*
X0273127Y0164899D01*
X0272930Y0164702D01*
X0272930Y0163168D01*
X0272555Y0162264D01*
X0271863Y0161571D01*
X0270959Y0161197D01*
X0269980Y0161197D01*
X0269075Y0161571D01*
X0268383Y0162264D01*
X0268009Y0163168D01*
X0268009Y0164088D01*
X0267972Y0164051D01*
X0266667Y0164051D01*
X0265745Y0164974D01*
X0265745Y0169034D01*
X0266667Y0169957D01*
X0267972Y0169957D01*
X0268009Y0169920D01*
X0268009Y0170252D01*
X0266002Y0170252D01*
X0265253Y0171001D01*
X0265253Y0174817D01*
X0265253Y0173901D02*
X0250817Y0173901D01*
X0251079Y0172919D02*
X0265253Y0172919D01*
X0265253Y0171936D02*
X0251079Y0171936D01*
X0251079Y0170953D02*
X0265301Y0170953D01*
X0265745Y0168988D02*
X0249934Y0168988D01*
X0250917Y0169970D02*
X0268009Y0169970D01*
X0265745Y0168005D02*
X0248952Y0168005D01*
X0248679Y0166039D02*
X0265745Y0166039D01*
X0265745Y0165057D02*
X0249662Y0165057D01*
X0250644Y0164074D02*
X0266645Y0164074D01*
X0267995Y0164074D02*
X0268009Y0164074D01*
X0268040Y0163091D02*
X0251079Y0163091D01*
X0251079Y0162108D02*
X0268538Y0162108D01*
X0271142Y0160143D02*
X0251079Y0160143D01*
X0251079Y0161126D02*
X0272125Y0161126D01*
X0272400Y0162108D02*
X0273107Y0162108D01*
X0272898Y0163091D02*
X0274090Y0163091D01*
X0275073Y0164074D02*
X0272930Y0164074D01*
X0273127Y0165057D02*
X0276056Y0165057D01*
X0277038Y0166039D02*
X0273127Y0166039D01*
X0273127Y0167022D02*
X0278021Y0167022D01*
X0279004Y0168005D02*
X0273127Y0168005D01*
X0272930Y0168988D02*
X0279987Y0168988D01*
X0280970Y0169970D02*
X0272930Y0169970D01*
X0272930Y0170953D02*
X0275537Y0170953D01*
X0275489Y0171936D02*
X0272930Y0171936D01*
X0272884Y0172919D02*
X0275489Y0172919D01*
X0275489Y0173901D02*
X0272536Y0173901D01*
X0272469Y0174884D02*
X0275489Y0174884D01*
X0279131Y0176650D02*
X0280705Y0176650D01*
X0281886Y0175469D01*
X0283855Y0175469D01*
X0284642Y0174681D01*
X0283855Y0171925D02*
X0283068Y0171138D01*
X0283068Y0171925D01*
X0282280Y0172713D01*
X0279327Y0172713D01*
X0279131Y0172909D01*
X0283068Y0171925D02*
X0283855Y0171925D01*
X0288186Y0171925D01*
X0290942Y0174681D01*
X0300784Y0174681D01*
X0302359Y0176256D01*
X0302359Y0179012D01*
X0303146Y0179799D01*
X0302556Y0179996D02*
X0302359Y0179799D01*
X0302359Y0179012D01*
X0301572Y0179799D01*
X0302556Y0181965D02*
X0299800Y0181965D01*
X0298816Y0180980D01*
X0298816Y0179406D01*
X0296847Y0177437D01*
X0287005Y0177437D01*
X0285823Y0178618D01*
X0283486Y0177833D02*
X0282772Y0177833D01*
X0283068Y0178815D02*
X0283363Y0178815D01*
X0283068Y0181764D02*
X0287792Y0181764D01*
X0288118Y0182746D02*
X0283008Y0182746D01*
X0283991Y0183729D02*
X0288328Y0183729D01*
X0288714Y0183343D02*
X0290942Y0183343D01*
X0288714Y0183343D01*
X0290942Y0183343D02*
X0290942Y0183343D01*
X0288127Y0180781D02*
X0287032Y0180781D01*
X0287998Y0179798D02*
X0293205Y0179798D01*
X0298028Y0183736D02*
X0298225Y0183933D01*
X0302556Y0183933D01*
X0306099Y0176453D02*
X0306099Y0174878D01*
X0303146Y0171925D01*
X0298422Y0167201D01*
X0295764Y0167022D02*
X0283032Y0167022D01*
X0283775Y0166039D02*
X0282049Y0166039D01*
X0281067Y0165057D02*
X0283150Y0165057D01*
X0282969Y0164074D02*
X0280084Y0164074D01*
X0279101Y0163091D02*
X0283132Y0163091D01*
X0283730Y0162108D02*
X0278118Y0162108D01*
X0277136Y0161126D02*
X0284150Y0161126D01*
X0284150Y0160143D02*
X0276153Y0160143D01*
X0275170Y0159160D02*
X0283823Y0159160D01*
X0283068Y0158177D02*
X0274209Y0158177D01*
X0274209Y0157195D02*
X0283068Y0157195D01*
X0283068Y0156212D02*
X0274209Y0156212D01*
X0274209Y0155229D02*
X0283068Y0155229D01*
X0283068Y0154246D02*
X0276966Y0154246D01*
X0277654Y0153263D02*
X0283068Y0153263D01*
X0283068Y0152281D02*
X0277654Y0152281D01*
X0277654Y0151298D02*
X0283068Y0151298D01*
X0283068Y0150315D02*
X0277654Y0150315D01*
X0277654Y0149332D02*
X0283068Y0149332D01*
X0283068Y0148350D02*
X0277654Y0148350D01*
X0277654Y0147367D02*
X0283068Y0147367D01*
X0283941Y0146384D02*
X0277654Y0146384D01*
X0277654Y0145401D02*
X0283844Y0145401D01*
X0283068Y0144419D02*
X0277654Y0144419D01*
X0277654Y0143436D02*
X0283068Y0143436D01*
X0283068Y0142453D02*
X0277654Y0142453D01*
X0277654Y0141470D02*
X0283068Y0141470D01*
X0283068Y0140488D02*
X0277455Y0140488D01*
X0283068Y0139505D02*
X0250451Y0139505D01*
X0249296Y0148350D02*
X0267221Y0148350D01*
X0267221Y0149332D02*
X0250279Y0149332D01*
X0251079Y0150315D02*
X0267221Y0150315D01*
X0267221Y0151298D02*
X0251079Y0151298D01*
X0251079Y0152281D02*
X0267221Y0152281D01*
X0267221Y0153263D02*
X0251079Y0153263D01*
X0250472Y0154246D02*
X0267910Y0154246D01*
X0270666Y0155229D02*
X0249489Y0155229D01*
X0249124Y0158177D02*
X0270666Y0158177D01*
X0270666Y0159160D02*
X0250107Y0159160D01*
X0241827Y0167022D02*
X0265745Y0167022D01*
X0268894Y0172909D02*
X0270469Y0172909D01*
X0270469Y0172319D01*
X0265902Y0177833D02*
X0248779Y0177833D01*
X0249762Y0178815D02*
X0259892Y0178815D01*
X0258910Y0179798D02*
X0250745Y0179798D01*
X0251079Y0180781D02*
X0257927Y0180781D01*
X0256944Y0181764D02*
X0251079Y0181764D01*
X0251079Y0182746D02*
X0255961Y0182746D01*
X0254979Y0183729D02*
X0250989Y0183729D01*
X0250006Y0184712D02*
X0254131Y0184712D01*
X0255902Y0185311D02*
X0255902Y0249091D01*
X0254131Y0246626D02*
X0241827Y0246626D01*
X0241827Y0245643D02*
X0244619Y0245643D01*
X0245094Y0246118D02*
X0242615Y0243639D01*
X0242615Y0240133D01*
X0245094Y0237654D01*
X0248600Y0237654D01*
X0251079Y0240133D01*
X0251079Y0243639D01*
X0248600Y0246118D01*
X0245094Y0246118D01*
X0243636Y0244660D02*
X0241827Y0244660D01*
X0241827Y0243678D02*
X0242654Y0243678D01*
X0242615Y0242695D02*
X0241827Y0242695D01*
X0241827Y0241712D02*
X0242615Y0241712D01*
X0242615Y0240729D02*
X0241827Y0240729D01*
X0241827Y0239747D02*
X0243001Y0239747D01*
X0243984Y0238764D02*
X0241827Y0238764D01*
X0241827Y0237781D02*
X0244966Y0237781D01*
X0245094Y0236118D02*
X0242615Y0233639D01*
X0242615Y0230133D01*
X0245094Y0227654D01*
X0248600Y0227654D01*
X0251079Y0230133D01*
X0251079Y0233639D01*
X0248600Y0236118D01*
X0245094Y0236118D01*
X0244792Y0235816D02*
X0241827Y0235816D01*
X0241827Y0236798D02*
X0254131Y0236798D01*
X0254131Y0235816D02*
X0248903Y0235816D01*
X0249885Y0234833D02*
X0254131Y0234833D01*
X0254131Y0233850D02*
X0250868Y0233850D01*
X0251079Y0232867D02*
X0254131Y0232867D01*
X0254131Y0231885D02*
X0251079Y0231885D01*
X0251079Y0230902D02*
X0254131Y0230902D01*
X0254131Y0229919D02*
X0250866Y0229919D01*
X0249883Y0228936D02*
X0254131Y0228936D01*
X0254131Y0227953D02*
X0248900Y0227953D01*
X0248600Y0226118D02*
X0245094Y0226118D01*
X0242615Y0223639D01*
X0242615Y0220133D01*
X0245094Y0217654D01*
X0248600Y0217654D01*
X0251079Y0220133D01*
X0251079Y0223639D01*
X0248600Y0226118D01*
X0248730Y0225988D02*
X0254131Y0225988D01*
X0254131Y0226971D02*
X0241827Y0226971D01*
X0241827Y0227953D02*
X0244794Y0227953D01*
X0243811Y0228936D02*
X0241827Y0228936D01*
X0241827Y0229919D02*
X0242829Y0229919D01*
X0242615Y0230902D02*
X0241827Y0230902D01*
X0241827Y0231885D02*
X0242615Y0231885D01*
X0242615Y0232867D02*
X0241827Y0232867D01*
X0241827Y0233850D02*
X0242826Y0233850D01*
X0243809Y0234833D02*
X0241827Y0234833D01*
X0248728Y0237781D02*
X0254131Y0237781D01*
X0254131Y0238764D02*
X0249710Y0238764D01*
X0250693Y0239747D02*
X0254131Y0239747D01*
X0254131Y0240729D02*
X0251079Y0240729D01*
X0251079Y0241712D02*
X0254131Y0241712D01*
X0254131Y0242695D02*
X0251079Y0242695D01*
X0251041Y0243678D02*
X0254131Y0243678D01*
X0254131Y0244660D02*
X0250058Y0244660D01*
X0249075Y0245643D02*
X0254131Y0245643D01*
X0244964Y0225988D02*
X0241827Y0225988D01*
X0241827Y0225005D02*
X0243981Y0225005D01*
X0242998Y0224022D02*
X0241827Y0224022D01*
X0241827Y0223040D02*
X0242615Y0223040D01*
X0242615Y0222057D02*
X0241827Y0222057D01*
X0241827Y0221074D02*
X0242615Y0221074D01*
X0242656Y0220091D02*
X0241827Y0220091D01*
X0241827Y0219109D02*
X0243639Y0219109D01*
X0244622Y0218126D02*
X0241827Y0218126D01*
X0241827Y0217143D02*
X0254131Y0217143D01*
X0254131Y0218126D02*
X0249072Y0218126D01*
X0250055Y0219109D02*
X0254131Y0219109D01*
X0254131Y0220091D02*
X0251038Y0220091D01*
X0251079Y0221074D02*
X0254131Y0221074D01*
X0254131Y0222057D02*
X0251079Y0222057D01*
X0251079Y0223040D02*
X0254131Y0223040D01*
X0254131Y0224022D02*
X0250696Y0224022D01*
X0249713Y0225005D02*
X0254131Y0225005D01*
X0282280Y0247516D02*
X0286217Y0247516D01*
X0293304Y0240429D01*
X0293304Y0221531D01*
X0295666Y0223894D02*
X0298028Y0221531D01*
X0298028Y0219169D02*
X0298028Y0216807D01*
X0298028Y0211295D01*
X0308068Y0201256D01*
X0308068Y0197319D01*
X0312005Y0197319D02*
X0312005Y0200469D01*
X0313973Y0200862D02*
X0313973Y0197319D01*
X0315942Y0197319D02*
X0315942Y0200469D01*
X0320075Y0204602D01*
X0322831Y0204602D01*
X0320075Y0206965D02*
X0313973Y0200862D01*
X0313788Y0203183D02*
X0313678Y0203293D01*
X0313678Y0204936D01*
X0313629Y0204984D01*
X0314170Y0205525D01*
X0314170Y0209585D01*
X0313247Y0210508D01*
X0311943Y0210508D01*
X0311020Y0209585D01*
X0310098Y0210508D01*
X0308793Y0210508D01*
X0307871Y0209585D01*
X0307871Y0208476D01*
X0305560Y0210786D01*
X0306562Y0211787D01*
X0308204Y0211787D01*
X0308658Y0212242D01*
X0309112Y0211787D01*
X0312928Y0211787D01*
X0313678Y0212537D01*
X0313678Y0212673D01*
X0315798Y0212673D01*
X0319204Y0209267D01*
X0318682Y0209051D01*
X0317989Y0208358D01*
X0317615Y0207454D01*
X0317615Y0207009D01*
X0313788Y0203183D01*
X0313678Y0203384D02*
X0313990Y0203384D01*
X0313678Y0204367D02*
X0314973Y0204367D01*
X0313995Y0205350D02*
X0315955Y0205350D01*
X0316938Y0206333D02*
X0314170Y0206333D01*
X0314170Y0207315D02*
X0317615Y0207315D01*
X0317965Y0208298D02*
X0314170Y0208298D01*
X0314170Y0209281D02*
X0319191Y0209281D01*
X0318208Y0210264D02*
X0313492Y0210264D01*
X0311699Y0210264D02*
X0310342Y0210264D01*
X0311020Y0209585D02*
X0311020Y0207752D01*
X0311020Y0207752D01*
X0311020Y0209585D01*
X0311020Y0209281D02*
X0311020Y0209281D01*
X0311020Y0208298D02*
X0311020Y0208298D01*
X0308549Y0210264D02*
X0306083Y0210264D01*
X0306021Y0211246D02*
X0317225Y0211246D01*
X0316242Y0212229D02*
X0313370Y0212229D01*
X0308671Y0212229D02*
X0308646Y0212229D01*
X0307871Y0209281D02*
X0307066Y0209281D01*
X0300678Y0203384D02*
X0298127Y0203384D01*
X0298101Y0204367D02*
X0299695Y0204367D01*
X0298712Y0205350D02*
X0297611Y0205350D01*
X0297729Y0206333D02*
X0294564Y0206333D01*
X0295764Y0208298D02*
X0289564Y0208298D01*
X0289564Y0207315D02*
X0296747Y0207315D01*
X0294781Y0209281D02*
X0289556Y0209281D01*
X0288573Y0210264D02*
X0293798Y0210264D01*
X0292816Y0211246D02*
X0287590Y0211246D01*
X0287103Y0212229D02*
X0291833Y0212229D01*
X0291532Y0213212D02*
X0287103Y0213212D01*
X0287103Y0214195D02*
X0291351Y0214195D01*
X0290646Y0215178D02*
X0287103Y0215178D01*
X0287103Y0216160D02*
X0290646Y0216160D01*
X0290646Y0217143D02*
X0287103Y0217143D01*
X0287103Y0218126D02*
X0290646Y0218126D01*
X0295666Y0223894D02*
X0295666Y0240429D01*
X0296060Y0240823D01*
X0296847Y0240823D01*
X0296060Y0240823D02*
X0295666Y0240823D01*
X0295666Y0240429D01*
X0295666Y0240823D02*
X0295666Y0242004D01*
X0302608Y0248591D02*
X0303835Y0248591D01*
X0303835Y0249574D02*
X0301625Y0249574D01*
X0300642Y0250557D02*
X0303540Y0250557D01*
X0303540Y0251540D02*
X0299659Y0251540D01*
X0299035Y0252523D02*
X0303540Y0252523D01*
X0303540Y0253505D02*
X0299843Y0253505D01*
X0300095Y0254488D02*
X0303324Y0254488D01*
X0302654Y0255471D02*
X0299938Y0255471D01*
X0301276Y0256454D02*
X0302654Y0256454D01*
X0302654Y0257436D02*
X0301276Y0257436D01*
X0301276Y0258419D02*
X0302654Y0258419D01*
X0301965Y0258146D02*
X0301965Y0262969D01*
X0300784Y0262969D01*
X0300847Y0262350D02*
X0302260Y0262350D01*
X0302260Y0261367D02*
X0301517Y0261367D01*
X0302359Y0260902D02*
X0301965Y0260508D01*
X0301670Y0260385D02*
X0302435Y0260385D01*
X0302654Y0259402D02*
X0301415Y0259402D01*
X0299406Y0260311D02*
X0299209Y0260508D01*
X0299406Y0260311D02*
X0299406Y0258146D01*
X0296847Y0258146D02*
X0296847Y0255390D01*
X0297635Y0254602D01*
X0294288Y0254406D02*
X0294288Y0258146D01*
X0291729Y0258146D02*
X0291729Y0254209D01*
X0309052Y0236886D01*
X0313383Y0236886D01*
X0342516Y0207752D01*
X0342516Y0196217D01*
X0346847Y0191886D01*
X0342615Y0191591D02*
X0342320Y0191591D01*
X0342320Y0190608D02*
X0342615Y0190608D01*
X0342320Y0189626D02*
X0343122Y0189626D01*
X0342595Y0188643D02*
X0344105Y0188643D01*
X0343578Y0187660D02*
X0345087Y0187660D01*
X0344561Y0186677D02*
X0351867Y0186677D01*
X0351867Y0185695D02*
X0349024Y0185695D01*
X0350006Y0184712D02*
X0351867Y0184712D01*
X0351867Y0183729D02*
X0350989Y0183729D01*
X0351079Y0182746D02*
X0351867Y0182746D01*
X0351867Y0181764D02*
X0351079Y0181764D01*
X0351079Y0180781D02*
X0351867Y0180781D01*
X0351867Y0179798D02*
X0350745Y0179798D01*
X0349762Y0178815D02*
X0351867Y0178815D01*
X0351867Y0177833D02*
X0348779Y0177833D01*
X0346847Y0181886D02*
X0340548Y0188185D01*
X0342320Y0192574D02*
X0342615Y0192574D01*
X0342615Y0193557D02*
X0342320Y0193557D01*
X0344733Y0196505D02*
X0351867Y0196505D01*
X0351867Y0195522D02*
X0349196Y0195522D01*
X0350179Y0194540D02*
X0351867Y0194540D01*
X0351867Y0193557D02*
X0351079Y0193557D01*
X0351079Y0192574D02*
X0351867Y0192574D01*
X0351867Y0191591D02*
X0351079Y0191591D01*
X0351079Y0190608D02*
X0351867Y0190608D01*
X0351867Y0189626D02*
X0350572Y0189626D01*
X0349590Y0188643D02*
X0351867Y0188643D01*
X0351867Y0187660D02*
X0348607Y0187660D01*
X0351867Y0197488D02*
X0344288Y0197488D01*
X0346847Y0201886D02*
X0346847Y0205783D01*
X0313776Y0238854D01*
X0309839Y0238854D01*
X0294288Y0254406D01*
X0288973Y0251453D02*
X0284249Y0251453D01*
X0279524Y0256177D01*
X0279524Y0260902D01*
X0281788Y0263165D01*
X0285430Y0263165D01*
X0285430Y0260606D02*
X0282772Y0260606D01*
X0281886Y0259720D01*
X0275587Y0262476D02*
X0275587Y0254209D01*
X0282280Y0247516D01*
X0275587Y0262476D02*
X0281394Y0268283D01*
X0285430Y0268283D01*
X0282187Y0272178D02*
X0242167Y0272178D01*
X0241934Y0271195D02*
X0289859Y0271195D01*
X0293599Y0271195D02*
X0302654Y0271195D01*
X0302654Y0270212D02*
X0293599Y0270212D01*
X0293599Y0269230D02*
X0302654Y0269230D01*
X0304721Y0267594D02*
X0304131Y0267004D01*
X0304131Y0265724D01*
X0304131Y0263165D02*
X0304131Y0261886D01*
X0304721Y0261295D01*
X0308264Y0260606D02*
X0313284Y0260606D01*
X0315351Y0258539D01*
X0315351Y0254996D01*
X0320075Y0250272D01*
X0316040Y0250557D02*
X0311020Y0250557D01*
X0311020Y0251540D02*
X0316040Y0251540D01*
X0315319Y0252523D02*
X0311020Y0252523D01*
X0311020Y0253505D02*
X0314336Y0253505D01*
X0313579Y0254488D02*
X0310606Y0254488D01*
X0308757Y0255471D02*
X0313579Y0255471D01*
X0313579Y0256454D02*
X0308318Y0256454D01*
X0307379Y0257436D02*
X0313579Y0257436D01*
X0312966Y0258419D02*
X0307379Y0258419D01*
X0308264Y0263165D02*
X0308560Y0263165D01*
X0308658Y0263264D01*
X0316532Y0263264D01*
X0320075Y0259720D01*
X0324111Y0259402D02*
X0326550Y0259402D01*
X0325567Y0260385D02*
X0324111Y0260385D01*
X0324111Y0261367D02*
X0324584Y0261367D01*
X0324111Y0258419D02*
X0327533Y0258419D01*
X0328515Y0257436D02*
X0324111Y0257436D01*
X0324111Y0256454D02*
X0329498Y0256454D01*
X0330481Y0255471D02*
X0317382Y0255471D01*
X0318365Y0254488D02*
X0331464Y0254488D01*
X0332447Y0253505D02*
X0324111Y0253505D01*
X0324111Y0252523D02*
X0333429Y0252523D01*
X0334412Y0251540D02*
X0324111Y0251540D01*
X0324111Y0250557D02*
X0335395Y0250557D01*
X0336378Y0249574D02*
X0324111Y0249574D01*
X0324111Y0248591D02*
X0337360Y0248591D01*
X0338343Y0247609D02*
X0324111Y0247609D01*
X0323751Y0246626D02*
X0338776Y0246626D01*
X0338776Y0245643D02*
X0305556Y0245643D01*
X0304887Y0246626D02*
X0304573Y0246626D01*
X0304083Y0247609D02*
X0303590Y0247609D01*
X0306539Y0244660D02*
X0338776Y0244660D01*
X0338776Y0243678D02*
X0307521Y0243678D01*
X0308504Y0242695D02*
X0338776Y0242695D01*
X0338776Y0241712D02*
X0309487Y0241712D01*
X0310470Y0240729D02*
X0338776Y0240729D01*
X0338776Y0239747D02*
X0315389Y0239747D01*
X0316372Y0238764D02*
X0338776Y0238764D01*
X0338776Y0237781D02*
X0317355Y0237781D01*
X0318338Y0236798D02*
X0338776Y0236798D01*
X0338776Y0235816D02*
X0319320Y0235816D01*
X0320303Y0234833D02*
X0338776Y0234833D01*
X0338776Y0233850D02*
X0321286Y0233850D01*
X0322269Y0232867D02*
X0338776Y0232867D01*
X0338776Y0231885D02*
X0323252Y0231885D01*
X0324234Y0230902D02*
X0338776Y0230902D01*
X0338776Y0229919D02*
X0325217Y0229919D01*
X0326200Y0228936D02*
X0338776Y0228936D01*
X0338776Y0227953D02*
X0327183Y0227953D01*
X0328165Y0226971D02*
X0338776Y0226971D01*
X0338776Y0225988D02*
X0329148Y0225988D01*
X0330131Y0225005D02*
X0338776Y0225005D01*
X0338776Y0224022D02*
X0331114Y0224022D01*
X0332096Y0223040D02*
X0338776Y0223040D01*
X0338776Y0222057D02*
X0333079Y0222057D01*
X0334062Y0221074D02*
X0338776Y0221074D01*
X0338776Y0220091D02*
X0335045Y0220091D01*
X0336027Y0219109D02*
X0338776Y0219109D01*
X0338776Y0218126D02*
X0337010Y0218126D01*
X0337993Y0217143D02*
X0338888Y0217143D01*
X0338976Y0216160D02*
X0339870Y0216160D01*
X0339814Y0216217D02*
X0339814Y0216217D01*
X0339959Y0215178D02*
X0340853Y0215178D01*
X0340941Y0214195D02*
X0341836Y0214195D01*
X0341924Y0213212D02*
X0342615Y0213212D01*
X0344881Y0216160D02*
X0351867Y0216160D01*
X0351867Y0215178D02*
X0349541Y0215178D01*
X0350523Y0214195D02*
X0351867Y0214195D01*
X0351867Y0213212D02*
X0351079Y0213212D01*
X0351079Y0212229D02*
X0351867Y0212229D01*
X0351867Y0211246D02*
X0351079Y0211246D01*
X0351079Y0210264D02*
X0351867Y0210264D01*
X0351867Y0209281D02*
X0350228Y0209281D01*
X0349245Y0208298D02*
X0351867Y0208298D01*
X0351867Y0207315D02*
X0347821Y0207315D01*
X0348619Y0206333D02*
X0351867Y0206333D01*
X0351867Y0205350D02*
X0349368Y0205350D01*
X0350351Y0204367D02*
X0351867Y0204367D01*
X0351867Y0203384D02*
X0351079Y0203384D01*
X0351079Y0202402D02*
X0351867Y0202402D01*
X0351867Y0201419D02*
X0351079Y0201419D01*
X0351079Y0200436D02*
X0351867Y0200436D01*
X0351867Y0199453D02*
X0350400Y0199453D01*
X0349417Y0198471D02*
X0351867Y0198471D01*
X0346847Y0211886D02*
X0346650Y0211886D01*
X0340548Y0217988D01*
X0340548Y0247909D01*
X0322831Y0265626D01*
X0308658Y0265626D01*
X0308560Y0265724D01*
X0308264Y0265724D01*
X0308264Y0268283D02*
X0308560Y0268283D01*
X0308658Y0268382D01*
X0322831Y0268382D01*
X0342516Y0248697D01*
X0342516Y0225862D01*
X0346493Y0221886D01*
X0346847Y0221886D01*
X0346886Y0221886D01*
X0351079Y0222057D02*
X0351867Y0222057D01*
X0351867Y0223040D02*
X0351079Y0223040D01*
X0350696Y0224022D02*
X0351867Y0224022D01*
X0351867Y0225005D02*
X0349713Y0225005D01*
X0348730Y0225988D02*
X0351867Y0225988D01*
X0351867Y0226971D02*
X0344288Y0226971D01*
X0344288Y0227953D02*
X0344794Y0227953D01*
X0344896Y0225988D02*
X0344964Y0225988D01*
X0342615Y0223040D02*
X0342320Y0223040D01*
X0342320Y0222057D02*
X0342615Y0222057D01*
X0342615Y0221074D02*
X0342320Y0221074D01*
X0342320Y0220091D02*
X0342656Y0220091D01*
X0342320Y0219109D02*
X0343639Y0219109D01*
X0342916Y0218126D02*
X0344622Y0218126D01*
X0343898Y0217143D02*
X0351867Y0217143D01*
X0351867Y0218126D02*
X0349072Y0218126D01*
X0350055Y0219109D02*
X0351867Y0219109D01*
X0351867Y0220091D02*
X0351038Y0220091D01*
X0351079Y0221074D02*
X0351867Y0221074D01*
X0351867Y0227953D02*
X0348900Y0227953D01*
X0349883Y0228936D02*
X0351867Y0228936D01*
X0351867Y0229919D02*
X0350866Y0229919D01*
X0351079Y0230902D02*
X0351867Y0230902D01*
X0351867Y0231885D02*
X0351079Y0231885D01*
X0351079Y0232867D02*
X0351867Y0232867D01*
X0351867Y0233850D02*
X0350868Y0233850D01*
X0349885Y0234833D02*
X0351867Y0234833D01*
X0351867Y0235816D02*
X0348903Y0235816D01*
X0351867Y0236798D02*
X0344288Y0236798D01*
X0344288Y0235816D02*
X0344792Y0235816D01*
X0344288Y0237781D02*
X0351867Y0237781D01*
X0351867Y0238764D02*
X0344288Y0238764D01*
X0344288Y0239747D02*
X0351867Y0239747D01*
X0351867Y0240729D02*
X0344288Y0240729D01*
X0344288Y0241712D02*
X0351867Y0241712D01*
X0351867Y0242695D02*
X0344288Y0242695D01*
X0344288Y0243678D02*
X0351867Y0243678D01*
X0351867Y0244660D02*
X0344288Y0244660D01*
X0344288Y0245643D02*
X0351867Y0245643D01*
X0351867Y0246626D02*
X0344288Y0246626D01*
X0344288Y0247609D02*
X0351867Y0247609D01*
X0351867Y0248591D02*
X0349538Y0248591D01*
X0350521Y0249574D02*
X0351867Y0249574D01*
X0351867Y0250557D02*
X0351079Y0250557D01*
X0351079Y0251540D02*
X0351867Y0251540D01*
X0351867Y0252523D02*
X0351079Y0252523D01*
X0351079Y0253505D02*
X0351867Y0253505D01*
X0351867Y0254488D02*
X0350230Y0254488D01*
X0349247Y0255471D02*
X0351867Y0255471D01*
X0351867Y0256454D02*
X0337265Y0256454D01*
X0336282Y0257436D02*
X0351867Y0257436D01*
X0351867Y0258419D02*
X0335300Y0258419D01*
X0334317Y0259402D02*
X0351867Y0259402D01*
X0351867Y0260385D02*
X0333334Y0260385D01*
X0332351Y0261367D02*
X0351867Y0261367D01*
X0351867Y0262350D02*
X0331369Y0262350D01*
X0330386Y0263333D02*
X0351867Y0263333D01*
X0351867Y0264316D02*
X0329403Y0264316D01*
X0328420Y0265298D02*
X0351867Y0265298D01*
X0351867Y0266281D02*
X0327437Y0266281D01*
X0326455Y0267264D02*
X0351867Y0267264D01*
X0351867Y0268247D02*
X0325472Y0268247D01*
X0324489Y0269230D02*
X0351867Y0269230D01*
X0351824Y0270212D02*
X0310725Y0270212D01*
X0310725Y0271195D02*
X0351760Y0271195D01*
X0351528Y0272178D02*
X0311508Y0272178D01*
X0338248Y0255471D02*
X0344447Y0255471D01*
X0343464Y0254488D02*
X0339231Y0254488D01*
X0340213Y0253505D02*
X0342615Y0253505D01*
X0342615Y0252523D02*
X0341196Y0252523D01*
X0342179Y0251540D02*
X0342615Y0251540D01*
X0316040Y0249574D02*
X0310188Y0249574D01*
X0308757Y0248591D02*
X0316040Y0248591D01*
X0316040Y0247609D02*
X0308509Y0247609D01*
X0307705Y0246626D02*
X0316400Y0246626D01*
X0299603Y0229012D02*
X0299603Y0225862D01*
X0300784Y0224681D01*
X0290469Y0206333D02*
X0289840Y0206333D01*
X0312989Y0186886D02*
X0316532Y0186886D01*
X0317910Y0197319D02*
X0317910Y0200075D01*
X0319682Y0201846D01*
X0325587Y0201846D01*
X0323225Y0199484D02*
X0320469Y0199484D01*
X0320075Y0199091D01*
X0320075Y0197516D01*
X0319879Y0197319D01*
X0319879Y0176453D02*
X0319879Y0174878D01*
X0323225Y0171531D01*
X0323225Y0171138D01*
X0328737Y0165626D01*
X0328737Y0144366D01*
X0329918Y0143185D01*
X0329918Y0136098D01*
X0329658Y0132625D02*
X0324514Y0132625D01*
X0322044Y0135311D02*
X0322044Y0151846D01*
X0318501Y0148303D02*
X0318501Y0144760D01*
X0318501Y0138854D02*
X0318501Y0122713D01*
X0323619Y0117594D01*
X0338973Y0117594D01*
X0316729Y0132625D02*
X0310840Y0132625D01*
X0311823Y0133608D02*
X0316729Y0133608D01*
X0316729Y0134591D02*
X0312806Y0134591D01*
X0313789Y0135574D02*
X0316729Y0135574D01*
X0316729Y0136556D02*
X0314771Y0136556D01*
X0315754Y0137539D02*
X0316382Y0137539D01*
X0312312Y0141470D02*
X0304032Y0141470D01*
X0304032Y0140488D02*
X0311329Y0140488D01*
X0310346Y0139505D02*
X0304032Y0139505D01*
X0304032Y0138522D02*
X0309364Y0138522D01*
X0308381Y0137539D02*
X0303641Y0137539D01*
X0302949Y0136556D02*
X0307398Y0136556D01*
X0306415Y0135574D02*
X0302371Y0135574D01*
X0301388Y0134591D02*
X0305433Y0134591D01*
X0301178Y0140429D02*
X0301375Y0140626D01*
X0301375Y0140823D01*
X0304032Y0142453D02*
X0312398Y0142453D01*
X0312398Y0143436D02*
X0304032Y0143436D01*
X0303329Y0144419D02*
X0309457Y0144419D01*
X0311065Y0148795D02*
X0306886Y0152974D01*
X0306886Y0153421D01*
X0306948Y0153421D01*
X0307871Y0154344D01*
X0308793Y0153421D01*
X0310098Y0153421D01*
X0310639Y0153962D01*
X0310687Y0153913D01*
X0312398Y0153913D01*
X0312398Y0148427D01*
X0311510Y0148795D01*
X0311065Y0148795D01*
X0310528Y0149332D02*
X0312398Y0149332D01*
X0312398Y0150315D02*
X0309545Y0150315D01*
X0308563Y0151298D02*
X0312398Y0151298D01*
X0312398Y0152281D02*
X0307580Y0152281D01*
X0306886Y0153263D02*
X0312398Y0153263D01*
X0307968Y0154246D02*
X0307773Y0154246D01*
X0307871Y0154344D02*
X0307871Y0156571D01*
X0307871Y0154344D01*
X0307871Y0155229D02*
X0307871Y0155229D01*
X0307871Y0156212D02*
X0307871Y0156212D01*
X0307871Y0156571D02*
X0307871Y0156571D01*
X0303343Y0156212D02*
X0298445Y0156212D01*
X0296824Y0156212D02*
X0296677Y0156212D01*
X0296946Y0155229D02*
X0303343Y0155229D01*
X0303343Y0157195D02*
X0301157Y0157195D01*
X0302140Y0158177D02*
X0303343Y0158177D01*
X0303343Y0159160D02*
X0303123Y0159160D01*
X0302753Y0161295D02*
X0302753Y0164051D01*
X0309446Y0170744D01*
X0309446Y0173106D01*
X0310036Y0173697D01*
X0310036Y0176453D01*
X0308068Y0176453D02*
X0308068Y0174484D01*
X0307871Y0174287D01*
X0307871Y0171925D01*
X0300390Y0164445D01*
X0300390Y0162476D01*
X0299209Y0161295D01*
X0297525Y0163091D02*
X0290877Y0163091D01*
X0291040Y0164074D02*
X0298619Y0164074D01*
X0296883Y0162108D02*
X0290279Y0162108D01*
X0289859Y0161126D02*
X0296749Y0161126D01*
X0295758Y0160143D02*
X0289859Y0160143D01*
X0290186Y0159160D02*
X0295228Y0159160D01*
X0295174Y0158177D02*
X0294947Y0158177D01*
X0297635Y0158539D02*
X0299997Y0158539D01*
X0302753Y0161295D01*
X0305115Y0163657D02*
X0311808Y0170350D01*
X0311808Y0173894D01*
X0312005Y0174091D01*
X0312005Y0176453D01*
X0313973Y0176453D02*
X0313973Y0173697D01*
X0314170Y0173500D01*
X0296001Y0165057D02*
X0290859Y0165057D01*
X0290234Y0166039D02*
X0295764Y0166039D01*
X0295764Y0168005D02*
X0284015Y0168005D01*
X0284839Y0168988D02*
X0295764Y0168988D01*
X0285575Y0169970D02*
X0284839Y0169970D01*
X0283068Y0169563D02*
X0272438Y0158933D01*
X0272438Y0147122D01*
X0284150Y0126729D02*
X0241827Y0126729D01*
X0190449Y0126729D02*
X0183132Y0126729D01*
X0183742Y0126118D02*
X0178540Y0131320D01*
X0178540Y0136152D01*
X0178790Y0135902D01*
X0181198Y0133495D01*
X0181198Y0130133D01*
X0183677Y0127654D01*
X0187183Y0127654D01*
X0189662Y0130133D01*
X0189662Y0133639D01*
X0187183Y0136118D01*
X0183677Y0136118D01*
X0183631Y0136072D01*
X0181296Y0138407D01*
X0181296Y0140034D01*
X0183677Y0137654D01*
X0187183Y0137654D01*
X0189662Y0140133D01*
X0189662Y0143639D01*
X0187183Y0146118D01*
X0183821Y0146118D01*
X0178934Y0151005D01*
X0178934Y0155876D01*
X0181198Y0153613D01*
X0181198Y0150133D01*
X0183677Y0147654D01*
X0187183Y0147654D01*
X0189662Y0150133D01*
X0189662Y0153639D01*
X0187183Y0156118D01*
X0183703Y0156118D01*
X0180902Y0158919D01*
X0180902Y0163908D01*
X0181198Y0163613D01*
X0181198Y0160133D01*
X0183677Y0157654D01*
X0187183Y0157654D01*
X0189662Y0160133D01*
X0189662Y0163639D01*
X0187183Y0166118D01*
X0183703Y0166118D01*
X0182871Y0166950D01*
X0182871Y0168460D01*
X0183677Y0167654D01*
X0187183Y0167654D01*
X0189662Y0170133D01*
X0189662Y0173639D01*
X0187183Y0176118D01*
X0183703Y0176118D01*
X0178934Y0180887D01*
X0178934Y0185876D01*
X0181198Y0183613D01*
X0181198Y0180133D01*
X0183677Y0177654D01*
X0187183Y0177654D01*
X0189662Y0180133D01*
X0189662Y0183639D01*
X0187183Y0186118D01*
X0183703Y0186118D01*
X0180902Y0188919D01*
X0180902Y0193908D01*
X0181198Y0193613D01*
X0181198Y0190133D01*
X0183677Y0187654D01*
X0187183Y0187654D01*
X0189662Y0190133D01*
X0189662Y0193639D01*
X0187183Y0196118D01*
X0183703Y0196118D01*
X0182871Y0196950D01*
X0182871Y0198460D01*
X0183677Y0197654D01*
X0187183Y0197654D01*
X0189662Y0200133D01*
X0189662Y0203639D01*
X0187201Y0206100D01*
X0187201Y0206517D01*
X0186065Y0207654D01*
X0187183Y0207654D01*
X0189662Y0210133D01*
X0189662Y0213639D01*
X0187183Y0216118D01*
X0183677Y0216118D01*
X0183591Y0216033D01*
X0180902Y0218722D01*
X0180902Y0223554D01*
X0181198Y0223258D01*
X0181198Y0220133D01*
X0183677Y0217654D01*
X0187183Y0217654D01*
X0189662Y0220133D01*
X0189662Y0223639D01*
X0187183Y0226118D01*
X0183677Y0226118D01*
X0183513Y0225954D01*
X0182871Y0226596D01*
X0182871Y0228460D01*
X0183677Y0227654D01*
X0187183Y0227654D01*
X0189662Y0230133D01*
X0189662Y0233639D01*
X0187183Y0236118D01*
X0183677Y0236118D01*
X0182871Y0235312D01*
X0182871Y0248460D01*
X0183677Y0247654D01*
X0187183Y0247654D01*
X0189662Y0250133D01*
X0189662Y0253639D01*
X0187183Y0256118D01*
X0183677Y0256118D01*
X0181198Y0253639D01*
X0181198Y0251104D01*
X0162148Y0270154D01*
X0149308Y0270154D01*
X0149308Y0271827D01*
X0149739Y0271827D01*
X0150231Y0272319D01*
X0190072Y0272319D01*
X0190332Y0271349D01*
X0190449Y0269563D01*
X0190449Y0104209D01*
X0190332Y0102423D01*
X0189408Y0098973D01*
X0187622Y0095880D01*
X0185097Y0093355D01*
X0182004Y0091569D01*
X0178554Y0090645D01*
X0176768Y0090528D01*
X0156365Y0090528D01*
X0152821Y0094071D01*
X0118038Y0094071D01*
X0116827Y0092860D01*
X0114495Y0090528D01*
X0094091Y0090528D01*
X0092305Y0090645D01*
X0088856Y0091569D01*
X0085763Y0093355D01*
X0083237Y0095880D01*
X0081452Y0098973D01*
X0080527Y0102423D01*
X0080410Y0104209D01*
X0080410Y0269563D01*
X0080527Y0271349D01*
X0080787Y0272319D01*
X0120628Y0272319D01*
X0121120Y0271827D01*
X0128442Y0271827D01*
X0128442Y0269033D01*
X0129191Y0268283D01*
X0131432Y0268283D01*
X0132182Y0269033D01*
X0132182Y0271827D01*
X0141237Y0271827D01*
X0141237Y0269033D01*
X0141250Y0269020D01*
X0141218Y0268988D01*
X0140843Y0268084D01*
X0140843Y0267105D01*
X0140919Y0266921D01*
X0140843Y0266845D01*
X0140843Y0264604D01*
X0141002Y0264445D01*
X0140843Y0264286D01*
X0140843Y0262045D01*
X0140919Y0261969D01*
X0140843Y0261785D01*
X0140843Y0260806D01*
X0141218Y0259901D01*
X0141250Y0259870D01*
X0141237Y0259857D01*
X0141237Y0255403D01*
X0141439Y0255201D01*
X0141611Y0254783D01*
X0142222Y0254173D01*
X0142123Y0254074D01*
X0142123Y0250407D01*
X0142418Y0250111D01*
X0142418Y0248207D01*
X0142793Y0247303D01*
X0143485Y0246611D01*
X0144389Y0246236D01*
X0145368Y0246236D01*
X0146272Y0246611D01*
X0146965Y0247303D01*
X0147339Y0248207D01*
X0147339Y0249521D01*
X0147376Y0249484D01*
X0148681Y0249484D01*
X0149603Y0250407D01*
X0149603Y0254074D01*
X0148681Y0254996D01*
X0147376Y0254996D01*
X0147339Y0254959D01*
X0147339Y0255486D01*
X0146965Y0256390D01*
X0145961Y0257393D01*
X0145961Y0258736D01*
X0148558Y0258736D01*
X0148657Y0258835D01*
X0151133Y0258835D01*
X0152162Y0257806D01*
X0152162Y0254262D01*
X0153200Y0253224D01*
X0154623Y0251802D01*
X0154623Y0246986D01*
X0155372Y0246236D01*
X0161944Y0246236D01*
X0162694Y0246986D01*
X0162694Y0253558D01*
X0161944Y0254307D01*
X0157128Y0254307D01*
X0155750Y0255685D01*
X0161944Y0255685D01*
X0162694Y0256435D01*
X0162694Y0261841D01*
X0177359Y0247176D01*
X0177359Y0217254D01*
X0178397Y0216217D01*
X0181198Y0213416D01*
X0181198Y0212521D01*
X0153093Y0240626D01*
X0149156Y0240626D01*
X0137367Y0252415D01*
X0137611Y0252516D01*
X0138303Y0253209D01*
X0138678Y0254113D01*
X0138678Y0255092D01*
X0138432Y0255685D01*
X0139109Y0255685D01*
X0139859Y0256435D01*
X0139859Y0259095D01*
X0139878Y0259114D01*
X0140253Y0260018D01*
X0140253Y0260997D01*
X0139878Y0261902D01*
X0139186Y0262594D01*
X0138281Y0262968D01*
X0137303Y0262968D01*
X0136398Y0262594D01*
X0135706Y0261902D01*
X0135331Y0260997D01*
X0135331Y0260606D01*
X0134309Y0260606D01*
X0134150Y0260447D01*
X0133991Y0260606D01*
X0131750Y0260606D01*
X0131591Y0260447D01*
X0131432Y0260606D01*
X0129191Y0260606D01*
X0129032Y0260447D01*
X0128873Y0260606D01*
X0126632Y0260606D01*
X0126473Y0260447D01*
X0126473Y0261443D01*
X0127066Y0261197D01*
X0128045Y0261197D01*
X0128950Y0261571D01*
X0129642Y0262264D01*
X0130016Y0263168D01*
X0130016Y0264147D01*
X0129642Y0265051D01*
X0129623Y0265070D01*
X0129623Y0266845D01*
X0128873Y0267594D01*
X0126632Y0267594D01*
X0126473Y0267435D01*
X0126473Y0269404D01*
X0125724Y0270154D01*
X0122301Y0270154D01*
X0122203Y0270055D01*
X0119243Y0270055D01*
X0118205Y0269017D01*
X0113436Y0264248D01*
X0112398Y0263210D01*
X0112398Y0261976D01*
X0111903Y0262181D01*
X0110925Y0262181D01*
X0110020Y0261806D01*
X0109706Y0261492D01*
X0104381Y0261492D01*
X0103343Y0260454D01*
X0092713Y0249824D01*
X0092713Y0184577D01*
X0098475Y0178815D01*
X0088345Y0178815D01*
X0089327Y0179798D02*
X0097492Y0179798D01*
X0096510Y0180781D02*
X0089662Y0180781D01*
X0089662Y0180133D02*
X0087183Y0177654D01*
X0083677Y0177654D01*
X0081198Y0180133D01*
X0081198Y0183639D01*
X0083677Y0186118D01*
X0087183Y0186118D01*
X0089662Y0183639D01*
X0089662Y0180133D01*
X0089662Y0181764D02*
X0095527Y0181764D01*
X0094544Y0182746D02*
X0089662Y0182746D01*
X0089572Y0183729D02*
X0093561Y0183729D01*
X0092713Y0184712D02*
X0088589Y0184712D01*
X0087606Y0185695D02*
X0092713Y0185695D01*
X0092713Y0186677D02*
X0080410Y0186677D01*
X0080410Y0185695D02*
X0083253Y0185695D01*
X0082270Y0184712D02*
X0080410Y0184712D01*
X0080410Y0183729D02*
X0081288Y0183729D01*
X0081198Y0182746D02*
X0080410Y0182746D01*
X0080410Y0181764D02*
X0081198Y0181764D01*
X0081198Y0180781D02*
X0080410Y0180781D01*
X0080410Y0179798D02*
X0081532Y0179798D01*
X0082515Y0178815D02*
X0080410Y0178815D01*
X0080410Y0177833D02*
X0083498Y0177833D01*
X0083677Y0176118D02*
X0081198Y0173639D01*
X0081198Y0170133D01*
X0083677Y0167654D01*
X0087183Y0167654D01*
X0089662Y0170133D01*
X0089662Y0173639D01*
X0087183Y0176118D01*
X0083677Y0176118D01*
X0083426Y0175867D02*
X0080410Y0175867D01*
X0080410Y0174884D02*
X0082443Y0174884D01*
X0081460Y0173901D02*
X0080410Y0173901D01*
X0080410Y0172919D02*
X0081198Y0172919D01*
X0081198Y0171936D02*
X0080410Y0171936D01*
X0080410Y0170953D02*
X0081198Y0170953D01*
X0081360Y0169970D02*
X0080410Y0169970D01*
X0080410Y0168988D02*
X0082343Y0168988D01*
X0083325Y0168005D02*
X0080410Y0168005D01*
X0080410Y0167022D02*
X0104327Y0167022D01*
X0104327Y0166039D02*
X0087262Y0166039D01*
X0087183Y0166118D02*
X0083677Y0166118D01*
X0081198Y0163639D01*
X0081198Y0160133D01*
X0083677Y0157654D01*
X0087183Y0157654D01*
X0089662Y0160133D01*
X0089662Y0163639D01*
X0087183Y0166118D01*
X0088244Y0165057D02*
X0104327Y0165057D01*
X0104327Y0164974D02*
X0105250Y0164051D01*
X0106555Y0164051D01*
X0106591Y0164088D01*
X0106591Y0163168D01*
X0106966Y0162264D01*
X0107658Y0161571D01*
X0108562Y0161197D01*
X0109541Y0161197D01*
X0110446Y0161571D01*
X0111138Y0162264D01*
X0111512Y0163168D01*
X0111512Y0164702D01*
X0111709Y0164899D01*
X0111709Y0168715D01*
X0111512Y0168912D01*
X0111512Y0172808D01*
X0111138Y0173713D01*
X0111119Y0173732D01*
X0111119Y0174817D01*
X0110369Y0175567D01*
X0104585Y0175567D01*
X0103835Y0174817D01*
X0103835Y0171001D01*
X0104585Y0170252D01*
X0106591Y0170252D01*
X0106591Y0169920D01*
X0106555Y0169957D01*
X0105250Y0169957D01*
X0104327Y0169034D01*
X0104327Y0164974D01*
X0105227Y0164074D02*
X0089227Y0164074D01*
X0089662Y0163091D02*
X0106623Y0163091D01*
X0106591Y0164074D02*
X0106577Y0164074D01*
X0107121Y0162108D02*
X0089662Y0162108D01*
X0089662Y0161126D02*
X0110707Y0161126D01*
X0110983Y0162108D02*
X0111690Y0162108D01*
X0111481Y0163091D02*
X0112673Y0163091D01*
X0113656Y0164074D02*
X0111512Y0164074D01*
X0111709Y0165057D02*
X0114638Y0165057D01*
X0115621Y0166039D02*
X0111709Y0166039D01*
X0111709Y0167022D02*
X0116604Y0167022D01*
X0117587Y0168005D02*
X0111709Y0168005D01*
X0111512Y0168988D02*
X0118569Y0168988D01*
X0119552Y0169970D02*
X0111512Y0169970D01*
X0111512Y0170953D02*
X0114120Y0170953D01*
X0114072Y0171001D02*
X0114821Y0170252D01*
X0119834Y0170252D01*
X0109249Y0159667D01*
X0109249Y0154307D01*
X0106553Y0154307D01*
X0105804Y0153558D01*
X0105804Y0140687D01*
X0106553Y0139937D01*
X0115487Y0139937D01*
X0116237Y0140687D01*
X0116237Y0153558D01*
X0115487Y0154307D01*
X0112792Y0154307D01*
X0112792Y0158199D01*
X0123422Y0168829D01*
X0123422Y0170154D01*
X0124111Y0170154D01*
X0124111Y0170017D01*
X0124860Y0169268D01*
X0128676Y0169268D01*
X0129131Y0169722D01*
X0129585Y0169268D01*
X0133401Y0169268D01*
X0133598Y0169465D01*
X0134703Y0169465D01*
X0134347Y0169109D01*
X0134347Y0165293D01*
X0135097Y0164543D01*
X0137201Y0164543D01*
X0137201Y0163714D01*
X0136398Y0163381D01*
X0135706Y0162689D01*
X0135331Y0161785D01*
X0135331Y0160836D01*
X0134823Y0160625D01*
X0134131Y0159933D01*
X0133757Y0159029D01*
X0133757Y0158050D01*
X0133827Y0157879D01*
X0133110Y0158597D01*
X0132061Y0159031D01*
X0128897Y0159031D01*
X0128602Y0159327D01*
X0128442Y0159327D01*
X0128442Y0161688D01*
X0129188Y0162434D01*
X0129623Y0163483D01*
X0129623Y0164619D01*
X0129188Y0165668D01*
X0128385Y0166471D01*
X0127336Y0166905D01*
X0123838Y0166905D01*
X0122789Y0166471D01*
X0121986Y0165668D01*
X0121552Y0164619D01*
X0121552Y0163483D01*
X0121986Y0162434D01*
X0122733Y0161688D01*
X0122733Y0159327D01*
X0122573Y0159327D01*
X0121650Y0158404D01*
X0121650Y0147257D01*
X0122573Y0146335D01*
X0123877Y0146335D01*
X0124800Y0147257D01*
X0124800Y0149878D01*
X0126375Y0149878D01*
X0126375Y0147257D01*
X0127297Y0146335D01*
X0128602Y0146335D01*
X0129524Y0147257D01*
X0129524Y0153323D01*
X0129820Y0153323D01*
X0129820Y0148167D01*
X0130569Y0147417D01*
X0134385Y0147417D01*
X0135134Y0148167D01*
X0135134Y0153478D01*
X0135528Y0154428D01*
X0135528Y0155564D01*
X0135229Y0156285D01*
X0135728Y0156079D01*
X0136707Y0156079D01*
X0137611Y0156453D01*
X0137925Y0156768D01*
X0139313Y0156768D01*
X0141926Y0159380D01*
X0141926Y0154640D01*
X0141865Y0154701D01*
X0138049Y0154701D01*
X0137300Y0153951D01*
X0137300Y0148167D01*
X0138049Y0147417D01*
X0141865Y0147417D01*
X0142615Y0148167D01*
X0142615Y0150817D01*
X0142964Y0150469D01*
X0147142Y0146290D01*
X0147142Y0145845D01*
X0147517Y0144941D01*
X0148209Y0144249D01*
X0149114Y0143874D01*
X0150092Y0143874D01*
X0150981Y0144242D01*
X0150981Y0141557D01*
X0131296Y0121872D01*
X0131296Y0117497D01*
X0128442Y0120352D01*
X0128442Y0132161D01*
X0128602Y0132161D01*
X0129291Y0132850D01*
X0132848Y0132850D01*
X0133897Y0133285D01*
X0134545Y0133933D01*
X0139313Y0133933D01*
X0140351Y0134971D01*
X0141532Y0136152D01*
X0141532Y0137181D01*
X0141865Y0137181D01*
X0142615Y0137931D01*
X0142615Y0143715D01*
X0141865Y0144465D01*
X0138049Y0144465D01*
X0137951Y0144366D01*
X0137140Y0144366D01*
X0136217Y0143444D01*
X0135295Y0144366D01*
X0134483Y0144366D01*
X0134385Y0144465D01*
X0130569Y0144465D01*
X0129820Y0143715D01*
X0129820Y0140963D01*
X0129524Y0140250D01*
X0129524Y0144625D01*
X0128602Y0145547D01*
X0127297Y0145547D01*
X0126375Y0144625D01*
X0126375Y0142004D01*
X0124800Y0142004D01*
X0124800Y0144625D01*
X0123877Y0145547D01*
X0122573Y0145547D01*
X0121650Y0144625D01*
X0121650Y0133084D01*
X0122573Y0132161D01*
X0122733Y0132161D01*
X0122733Y0118602D01*
X0123167Y0117552D01*
X0123970Y0116750D01*
X0123970Y0116750D01*
X0126670Y0114050D01*
X0126670Y0113982D01*
X0128245Y0112408D01*
X0128245Y0105057D01*
X0128994Y0104307D01*
X0139306Y0104307D01*
X0140056Y0105057D01*
X0140056Y0111628D01*
X0139306Y0112378D01*
X0137201Y0112378D01*
X0137201Y0112817D01*
X0136808Y0113210D01*
X0136808Y0120010D01*
X0154781Y0137983D01*
X0154997Y0137460D01*
X0155312Y0137146D01*
X0155312Y0121979D01*
X0161468Y0115823D01*
X0175848Y0115823D01*
X0176162Y0115508D01*
X0177066Y0115134D01*
X0178045Y0115134D01*
X0178950Y0115508D01*
X0179642Y0116201D01*
X0180016Y0117105D01*
X0180016Y0118084D01*
X0179642Y0118988D01*
X0178950Y0119680D01*
X0178045Y0120055D01*
X0177066Y0120055D01*
X0176162Y0119680D01*
X0175848Y0119366D01*
X0162935Y0119366D01*
X0158855Y0123446D01*
X0158855Y0132063D01*
X0162535Y0132063D01*
X0163284Y0132813D01*
X0163284Y0137810D01*
X0162535Y0138559D01*
X0162398Y0138559D01*
X0162398Y0141512D01*
X0166078Y0141512D01*
X0166729Y0142163D01*
X0166729Y0137807D01*
X0166415Y0137492D01*
X0166040Y0136588D01*
X0166040Y0135609D01*
X0166415Y0134705D01*
X0167107Y0134012D01*
X0168011Y0133638D01*
X0168990Y0133638D01*
X0169485Y0133843D01*
X0169485Y0133047D01*
X0169192Y0133047D01*
X0168288Y0132673D01*
X0167596Y0131980D01*
X0167221Y0131076D01*
X0167221Y0130097D01*
X0167596Y0129193D01*
X0168288Y0128501D01*
X0168679Y0128339D01*
X0167989Y0127650D01*
X0167615Y0126745D01*
X0167615Y0125766D01*
X0167989Y0124862D01*
X0168682Y0124170D01*
X0169586Y0123795D01*
X0170565Y0123795D01*
X0171469Y0124170D01*
X0172161Y0124862D01*
X0172536Y0125766D01*
X0172536Y0126211D01*
X0175587Y0129262D01*
X0176035Y0128815D01*
X0181204Y0123645D01*
X0181198Y0123639D01*
X0181198Y0120133D01*
X0183677Y0117654D01*
X0187183Y0117654D01*
X0189662Y0120133D01*
X0189662Y0123639D01*
X0187183Y0126118D01*
X0183742Y0126118D01*
X0183619Y0127712D02*
X0182149Y0127712D01*
X0182636Y0128694D02*
X0181166Y0128694D01*
X0181653Y0129677D02*
X0180183Y0129677D01*
X0179201Y0130660D02*
X0181198Y0130660D01*
X0181198Y0131643D02*
X0178540Y0131643D01*
X0178540Y0132625D02*
X0181198Y0132625D01*
X0181084Y0133608D02*
X0178540Y0133608D01*
X0178540Y0134591D02*
X0180101Y0134591D01*
X0179118Y0135574D02*
X0178540Y0135574D01*
X0179524Y0137673D02*
X0179524Y0144760D01*
X0175194Y0149091D01*
X0175194Y0171138D01*
X0169288Y0177043D01*
X0169288Y0198697D01*
X0168894Y0199091D01*
X0168894Y0203421D01*
X0151572Y0220744D01*
X0149603Y0220744D01*
X0145272Y0225075D01*
X0142516Y0225075D01*
X0141335Y0226256D01*
X0139367Y0224681D02*
X0139367Y0219563D01*
X0141335Y0217594D01*
X0146453Y0217594D01*
X0149603Y0214445D01*
X0155115Y0214445D01*
X0166532Y0203028D01*
X0166532Y0197122D01*
X0167320Y0196335D01*
X0167320Y0192791D01*
X0166532Y0192004D01*
X0167320Y0191217D01*
X0167320Y0192004D01*
X0166532Y0192004D01*
X0163776Y0192004D01*
X0163579Y0191807D01*
X0162005Y0191807D01*
X0162005Y0193776D02*
X0163579Y0193776D01*
X0164957Y0195154D01*
X0167320Y0192791D02*
X0167320Y0192004D01*
X0167320Y0191217D02*
X0167320Y0176256D01*
X0173225Y0170350D01*
X0173225Y0147909D01*
X0176768Y0144366D01*
X0176768Y0130587D01*
X0185430Y0121925D01*
X0185430Y0121886D01*
X0188396Y0118867D02*
X0190449Y0118867D01*
X0190449Y0119850D02*
X0189379Y0119850D01*
X0189662Y0120832D02*
X0190449Y0120832D01*
X0190449Y0121815D02*
X0189662Y0121815D01*
X0189662Y0122798D02*
X0190449Y0122798D01*
X0190449Y0123781D02*
X0189520Y0123781D01*
X0190449Y0124763D02*
X0188538Y0124763D01*
X0187555Y0125746D02*
X0190449Y0125746D01*
X0190449Y0127712D02*
X0187241Y0127712D01*
X0188224Y0128694D02*
X0190449Y0128694D01*
X0190449Y0129677D02*
X0189206Y0129677D01*
X0189662Y0130660D02*
X0190449Y0130660D01*
X0190449Y0131643D02*
X0189662Y0131643D01*
X0189662Y0132625D02*
X0190449Y0132625D01*
X0190449Y0133608D02*
X0189662Y0133608D01*
X0190449Y0134591D02*
X0188710Y0134591D01*
X0187727Y0135574D02*
X0190449Y0135574D01*
X0190449Y0136556D02*
X0183146Y0136556D01*
X0182164Y0137539D02*
X0190449Y0137539D01*
X0190449Y0138522D02*
X0188051Y0138522D01*
X0189034Y0139505D02*
X0190449Y0139505D01*
X0190449Y0140488D02*
X0189662Y0140488D01*
X0189662Y0141470D02*
X0190449Y0141470D01*
X0190449Y0142453D02*
X0189662Y0142453D01*
X0189662Y0143436D02*
X0190449Y0143436D01*
X0190449Y0144419D02*
X0188882Y0144419D01*
X0187900Y0145401D02*
X0190449Y0145401D01*
X0190449Y0146384D02*
X0183555Y0146384D01*
X0182572Y0147367D02*
X0190449Y0147367D01*
X0190449Y0148350D02*
X0187879Y0148350D01*
X0188862Y0149332D02*
X0190449Y0149332D01*
X0190449Y0150315D02*
X0189662Y0150315D01*
X0189662Y0151298D02*
X0190449Y0151298D01*
X0190449Y0152281D02*
X0189662Y0152281D01*
X0189662Y0153263D02*
X0190449Y0153263D01*
X0190449Y0154246D02*
X0189055Y0154246D01*
X0188072Y0155229D02*
X0190449Y0155229D01*
X0190449Y0156212D02*
X0183609Y0156212D01*
X0182627Y0157195D02*
X0190449Y0157195D01*
X0190449Y0158177D02*
X0187707Y0158177D01*
X0188689Y0159160D02*
X0190449Y0159160D01*
X0190449Y0160143D02*
X0189662Y0160143D01*
X0189662Y0161126D02*
X0190449Y0161126D01*
X0190449Y0162108D02*
X0189662Y0162108D01*
X0189662Y0163091D02*
X0190449Y0163091D01*
X0190449Y0164074D02*
X0189227Y0164074D01*
X0188244Y0165057D02*
X0190449Y0165057D01*
X0190449Y0166039D02*
X0187262Y0166039D01*
X0187534Y0168005D02*
X0190449Y0168005D01*
X0190449Y0168988D02*
X0188517Y0168988D01*
X0189500Y0169970D02*
X0190449Y0169970D01*
X0190449Y0170953D02*
X0189662Y0170953D01*
X0189662Y0171936D02*
X0190449Y0171936D01*
X0190449Y0172919D02*
X0189662Y0172919D01*
X0189399Y0173901D02*
X0190449Y0173901D01*
X0190449Y0174884D02*
X0188417Y0174884D01*
X0187434Y0175867D02*
X0190449Y0175867D01*
X0190449Y0176850D02*
X0182971Y0176850D01*
X0183498Y0177833D02*
X0181989Y0177833D01*
X0182515Y0178815D02*
X0181006Y0178815D01*
X0181532Y0179798D02*
X0180023Y0179798D01*
X0179040Y0180781D02*
X0181198Y0180781D01*
X0181198Y0181764D02*
X0178934Y0181764D01*
X0178934Y0182746D02*
X0181198Y0182746D01*
X0181081Y0183729D02*
X0178934Y0183729D01*
X0178934Y0184712D02*
X0180098Y0184712D01*
X0179115Y0185695D02*
X0178934Y0185695D01*
X0179131Y0188185D02*
X0179131Y0206965D01*
X0151178Y0234917D01*
X0146847Y0234917D01*
X0127753Y0254012D01*
X0127753Y0258146D01*
X0125883Y0258419D02*
X0122593Y0258419D01*
X0122555Y0258327D02*
X0122725Y0258736D01*
X0125724Y0258736D01*
X0125883Y0258895D01*
X0125883Y0256435D01*
X0125981Y0256336D01*
X0125981Y0253278D01*
X0126035Y0253224D01*
X0123565Y0253224D01*
X0119879Y0256911D01*
X0119879Y0257302D01*
X0119980Y0257260D01*
X0120959Y0257260D01*
X0121863Y0257634D01*
X0122555Y0258327D01*
X0121385Y0257436D02*
X0125883Y0257436D01*
X0125883Y0256454D02*
X0120336Y0256454D01*
X0121319Y0255471D02*
X0125981Y0255471D01*
X0125981Y0254488D02*
X0122302Y0254488D01*
X0123284Y0253505D02*
X0125981Y0253505D01*
X0127556Y0251453D02*
X0146060Y0232949D01*
X0150390Y0232949D01*
X0177162Y0206177D01*
X0177162Y0180154D01*
X0185430Y0171886D01*
X0183325Y0168005D02*
X0182871Y0168005D01*
X0182871Y0167022D02*
X0190449Y0167022D01*
X0185430Y0161886D02*
X0181099Y0166217D01*
X0181099Y0173500D01*
X0175194Y0179406D01*
X0175194Y0205390D01*
X0149603Y0230980D01*
X0145272Y0230980D01*
X0135430Y0240823D01*
X0134642Y0240823D01*
X0134249Y0240429D01*
X0134249Y0240823D01*
X0134642Y0240823D01*
X0134249Y0240823D02*
X0134249Y0242004D01*
X0126768Y0249484D01*
X0121650Y0249484D01*
X0116138Y0254996D01*
X0116138Y0261689D01*
X0120174Y0265724D01*
X0124012Y0265724D01*
X0124012Y0263165D02*
X0120371Y0263165D01*
X0118107Y0260902D01*
X0118107Y0256177D01*
X0122831Y0251453D01*
X0127556Y0251453D01*
X0130312Y0254209D02*
X0147635Y0236886D01*
X0151965Y0236886D01*
X0181099Y0207752D01*
X0181099Y0196217D01*
X0185430Y0191886D01*
X0189662Y0191591D02*
X0190449Y0191591D01*
X0190449Y0190608D02*
X0189662Y0190608D01*
X0189155Y0189626D02*
X0190449Y0189626D01*
X0190449Y0188643D02*
X0188172Y0188643D01*
X0187189Y0187660D02*
X0190449Y0187660D01*
X0190449Y0186677D02*
X0183144Y0186677D01*
X0183670Y0187660D02*
X0182161Y0187660D01*
X0182687Y0188643D02*
X0181178Y0188643D01*
X0180902Y0189626D02*
X0181705Y0189626D01*
X0181198Y0190608D02*
X0180902Y0190608D01*
X0180902Y0191591D02*
X0181198Y0191591D01*
X0181198Y0192574D02*
X0180902Y0192574D01*
X0180902Y0193557D02*
X0181198Y0193557D01*
X0183316Y0196505D02*
X0190449Y0196505D01*
X0190449Y0195522D02*
X0187779Y0195522D01*
X0188761Y0194540D02*
X0190449Y0194540D01*
X0190449Y0193557D02*
X0189662Y0193557D01*
X0189662Y0192574D02*
X0190449Y0192574D01*
X0190449Y0197488D02*
X0182871Y0197488D01*
X0185430Y0201886D02*
X0185430Y0205783D01*
X0152359Y0238854D01*
X0148422Y0238854D01*
X0132871Y0254406D01*
X0132871Y0258146D01*
X0135430Y0258146D02*
X0135430Y0255390D01*
X0136217Y0254602D01*
X0138521Y0255471D02*
X0141237Y0255471D01*
X0141237Y0256454D02*
X0139859Y0256454D01*
X0139859Y0257436D02*
X0141237Y0257436D01*
X0141237Y0258419D02*
X0139859Y0258419D01*
X0140548Y0258146D02*
X0140548Y0262969D01*
X0139367Y0262969D01*
X0139430Y0262350D02*
X0140843Y0262350D01*
X0140843Y0261367D02*
X0140099Y0261367D01*
X0140942Y0260902D02*
X0140548Y0260508D01*
X0140253Y0260385D02*
X0141018Y0260385D01*
X0141237Y0259402D02*
X0139997Y0259402D01*
X0137989Y0260311D02*
X0137792Y0260508D01*
X0137989Y0260311D02*
X0137989Y0258146D01*
X0138678Y0254488D02*
X0141907Y0254488D01*
X0142123Y0253505D02*
X0138426Y0253505D01*
X0137617Y0252523D02*
X0142123Y0252523D01*
X0142123Y0251540D02*
X0138242Y0251540D01*
X0139225Y0250557D02*
X0142123Y0250557D01*
X0142418Y0249574D02*
X0140207Y0249574D01*
X0141190Y0248591D02*
X0142418Y0248591D01*
X0142173Y0247609D02*
X0142666Y0247609D01*
X0143156Y0246626D02*
X0143470Y0246626D01*
X0144139Y0245643D02*
X0177359Y0245643D01*
X0177359Y0244660D02*
X0145121Y0244660D01*
X0146104Y0243678D02*
X0177359Y0243678D01*
X0177359Y0242695D02*
X0147087Y0242695D01*
X0148070Y0241712D02*
X0177359Y0241712D01*
X0177359Y0240729D02*
X0149052Y0240729D01*
X0153972Y0239747D02*
X0177359Y0239747D01*
X0177359Y0238764D02*
X0154955Y0238764D01*
X0155938Y0237781D02*
X0177359Y0237781D01*
X0177359Y0236798D02*
X0156920Y0236798D01*
X0157903Y0235816D02*
X0177359Y0235816D01*
X0177359Y0234833D02*
X0158886Y0234833D01*
X0159869Y0233850D02*
X0177359Y0233850D01*
X0177359Y0232867D02*
X0160851Y0232867D01*
X0161834Y0231885D02*
X0177359Y0231885D01*
X0177359Y0230902D02*
X0162817Y0230902D01*
X0163800Y0229919D02*
X0177359Y0229919D01*
X0177359Y0228936D02*
X0164782Y0228936D01*
X0165765Y0227953D02*
X0177359Y0227953D01*
X0177359Y0226971D02*
X0166748Y0226971D01*
X0167731Y0225988D02*
X0177359Y0225988D01*
X0177359Y0225005D02*
X0168714Y0225005D01*
X0169696Y0224022D02*
X0177359Y0224022D01*
X0177359Y0223040D02*
X0170679Y0223040D01*
X0171662Y0222057D02*
X0177359Y0222057D01*
X0177359Y0221074D02*
X0172645Y0221074D01*
X0173627Y0220091D02*
X0177359Y0220091D01*
X0177359Y0219109D02*
X0174610Y0219109D01*
X0175593Y0218126D02*
X0177359Y0218126D01*
X0177470Y0217143D02*
X0176576Y0217143D01*
X0177558Y0216160D02*
X0178453Y0216160D01*
X0178397Y0216217D02*
X0178397Y0216217D01*
X0178541Y0215178D02*
X0179436Y0215178D01*
X0179524Y0214195D02*
X0180418Y0214195D01*
X0180507Y0213212D02*
X0181198Y0213212D01*
X0183464Y0216160D02*
X0190449Y0216160D01*
X0190449Y0215178D02*
X0188123Y0215178D01*
X0189106Y0214195D02*
X0190449Y0214195D01*
X0190449Y0213212D02*
X0189662Y0213212D01*
X0189662Y0212229D02*
X0190449Y0212229D01*
X0190449Y0211246D02*
X0189662Y0211246D01*
X0189662Y0210264D02*
X0190449Y0210264D01*
X0190449Y0209281D02*
X0188810Y0209281D01*
X0187828Y0208298D02*
X0190449Y0208298D01*
X0190449Y0207315D02*
X0186403Y0207315D01*
X0187201Y0206333D02*
X0190449Y0206333D01*
X0190449Y0205350D02*
X0187951Y0205350D01*
X0188934Y0204367D02*
X0190449Y0204367D01*
X0190449Y0203384D02*
X0189662Y0203384D01*
X0189662Y0202402D02*
X0190449Y0202402D01*
X0190449Y0201419D02*
X0189662Y0201419D01*
X0189662Y0200436D02*
X0190449Y0200436D01*
X0190449Y0199453D02*
X0188983Y0199453D01*
X0188000Y0198471D02*
X0190449Y0198471D01*
X0179131Y0188185D02*
X0185430Y0181886D01*
X0188345Y0178815D02*
X0190449Y0178815D01*
X0190449Y0177833D02*
X0187362Y0177833D01*
X0189327Y0179798D02*
X0190449Y0179798D01*
X0190449Y0180781D02*
X0189662Y0180781D01*
X0189662Y0181764D02*
X0190449Y0181764D01*
X0190449Y0182746D02*
X0189662Y0182746D01*
X0189572Y0183729D02*
X0190449Y0183729D01*
X0190449Y0184712D02*
X0188589Y0184712D01*
X0187606Y0185695D02*
X0190449Y0185695D01*
X0179131Y0172713D02*
X0173225Y0178618D01*
X0173225Y0204602D01*
X0148816Y0229012D01*
X0144485Y0229012D01*
X0137398Y0236098D01*
X0136611Y0236098D01*
X0136611Y0232949D02*
X0138186Y0232949D01*
X0144091Y0227043D01*
X0148028Y0227043D01*
X0171257Y0203815D01*
X0171257Y0177831D01*
X0177162Y0171925D01*
X0177162Y0150272D01*
X0185430Y0142004D01*
X0185430Y0141886D01*
X0182808Y0138522D02*
X0181296Y0138522D01*
X0181296Y0139505D02*
X0181825Y0139505D01*
X0179524Y0137673D02*
X0185312Y0131886D01*
X0185430Y0131886D01*
X0185430Y0132161D01*
X0179103Y0125746D02*
X0172528Y0125746D01*
X0172063Y0124763D02*
X0180086Y0124763D01*
X0181069Y0123781D02*
X0158855Y0123781D01*
X0158855Y0124763D02*
X0168088Y0124763D01*
X0167623Y0125746D02*
X0158855Y0125746D01*
X0158855Y0126729D02*
X0167615Y0126729D01*
X0168051Y0127712D02*
X0158855Y0127712D01*
X0158855Y0128694D02*
X0168094Y0128694D01*
X0167395Y0129677D02*
X0158855Y0129677D01*
X0158855Y0130660D02*
X0167221Y0130660D01*
X0167456Y0131643D02*
X0158855Y0131643D01*
X0155312Y0131643D02*
X0148440Y0131643D01*
X0149423Y0132625D02*
X0155312Y0132625D01*
X0155312Y0133608D02*
X0150406Y0133608D01*
X0151388Y0134591D02*
X0155312Y0134591D01*
X0155312Y0135574D02*
X0152371Y0135574D01*
X0153354Y0136556D02*
X0155312Y0136556D01*
X0154965Y0137539D02*
X0154337Y0137539D01*
X0154327Y0140035D02*
X0135036Y0120744D01*
X0135036Y0112476D01*
X0135430Y0112083D01*
X0135430Y0108343D01*
X0132871Y0108343D02*
X0132871Y0112280D01*
X0133068Y0112476D01*
X0133068Y0121138D01*
X0152753Y0140823D01*
X0152753Y0154996D01*
X0151178Y0156571D01*
X0150981Y0153913D02*
X0150981Y0148427D01*
X0150092Y0148795D01*
X0149648Y0148795D01*
X0145469Y0152974D01*
X0145469Y0153421D01*
X0145531Y0153421D01*
X0146453Y0154344D01*
X0146453Y0156571D01*
X0146453Y0156571D01*
X0146453Y0154344D01*
X0147376Y0153421D01*
X0148681Y0153421D01*
X0149221Y0153962D01*
X0149270Y0153913D01*
X0150981Y0153913D01*
X0150981Y0153263D02*
X0145469Y0153263D01*
X0146162Y0152281D02*
X0150981Y0152281D01*
X0150981Y0151298D02*
X0147145Y0151298D01*
X0148128Y0150315D02*
X0150981Y0150315D01*
X0150981Y0149332D02*
X0149111Y0149332D01*
X0149603Y0146335D02*
X0143698Y0152240D01*
X0143698Y0163657D01*
X0150390Y0170350D01*
X0150390Y0173894D01*
X0150587Y0174091D01*
X0150587Y0176453D01*
X0148619Y0176453D02*
X0148619Y0173697D01*
X0148028Y0173106D01*
X0148028Y0170744D01*
X0141335Y0164051D01*
X0141335Y0161295D01*
X0138579Y0158539D01*
X0136217Y0158539D01*
X0135407Y0156212D02*
X0135260Y0156212D01*
X0135528Y0155229D02*
X0141926Y0155229D01*
X0141926Y0156212D02*
X0137028Y0156212D01*
X0137595Y0154246D02*
X0135453Y0154246D01*
X0135134Y0153263D02*
X0137300Y0153263D01*
X0137300Y0152281D02*
X0135134Y0152281D01*
X0135134Y0151298D02*
X0137300Y0151298D01*
X0137300Y0150315D02*
X0135134Y0150315D01*
X0135134Y0149332D02*
X0137300Y0149332D01*
X0137300Y0148350D02*
X0135134Y0148350D01*
X0134431Y0144419D02*
X0138003Y0144419D01*
X0136217Y0143444D02*
X0136217Y0140035D01*
X0136217Y0143444D01*
X0136217Y0143436D02*
X0136217Y0143436D01*
X0136217Y0142453D02*
X0136217Y0142453D01*
X0136217Y0141470D02*
X0136217Y0141470D01*
X0136217Y0140488D02*
X0136217Y0140488D01*
X0136217Y0140035D02*
X0136217Y0140035D01*
X0139760Y0140429D02*
X0139760Y0136886D01*
X0138579Y0135705D01*
X0132280Y0135705D01*
X0134220Y0133608D02*
X0143032Y0133608D01*
X0142050Y0132625D02*
X0129066Y0132625D01*
X0128442Y0131643D02*
X0141067Y0131643D01*
X0140084Y0130660D02*
X0128442Y0130660D01*
X0128442Y0129677D02*
X0139101Y0129677D01*
X0138119Y0128694D02*
X0128442Y0128694D01*
X0128442Y0127712D02*
X0137136Y0127712D01*
X0136153Y0126729D02*
X0128442Y0126729D01*
X0128442Y0125746D02*
X0135170Y0125746D01*
X0134188Y0124763D02*
X0128442Y0124763D01*
X0128442Y0123781D02*
X0133205Y0123781D01*
X0132222Y0122798D02*
X0128442Y0122798D01*
X0128442Y0121815D02*
X0131296Y0121815D01*
X0131296Y0120832D02*
X0128442Y0120832D01*
X0128944Y0119850D02*
X0131296Y0119850D01*
X0131296Y0118867D02*
X0129926Y0118867D01*
X0130909Y0117884D02*
X0131296Y0117884D01*
X0136808Y0117884D02*
X0159406Y0117884D01*
X0158424Y0118867D02*
X0136808Y0118867D01*
X0136808Y0119850D02*
X0157441Y0119850D01*
X0156458Y0120832D02*
X0137630Y0120832D01*
X0138613Y0121815D02*
X0155475Y0121815D01*
X0155312Y0122798D02*
X0139595Y0122798D01*
X0140578Y0123781D02*
X0155312Y0123781D01*
X0155312Y0124763D02*
X0141561Y0124763D01*
X0142544Y0125746D02*
X0155312Y0125746D01*
X0155312Y0126729D02*
X0143526Y0126729D01*
X0144509Y0127712D02*
X0155312Y0127712D01*
X0155312Y0128694D02*
X0145492Y0128694D01*
X0146475Y0129677D02*
X0155312Y0129677D01*
X0155312Y0130660D02*
X0147457Y0130660D01*
X0144015Y0134591D02*
X0139971Y0134591D01*
X0140954Y0135574D02*
X0144998Y0135574D01*
X0145981Y0136556D02*
X0141532Y0136556D01*
X0142223Y0137539D02*
X0146964Y0137539D01*
X0147946Y0138522D02*
X0142615Y0138522D01*
X0142615Y0139505D02*
X0148929Y0139505D01*
X0149912Y0140488D02*
X0142615Y0140488D01*
X0142615Y0141470D02*
X0150895Y0141470D01*
X0150981Y0142453D02*
X0142615Y0142453D01*
X0142615Y0143436D02*
X0150981Y0143436D01*
X0148039Y0144419D02*
X0141911Y0144419D01*
X0142615Y0148350D02*
X0145083Y0148350D01*
X0146065Y0147367D02*
X0129524Y0147367D01*
X0129524Y0148350D02*
X0129820Y0148350D01*
X0129820Y0149332D02*
X0129524Y0149332D01*
X0129524Y0150315D02*
X0129820Y0150315D01*
X0129820Y0151298D02*
X0129524Y0151298D01*
X0129524Y0152281D02*
X0129820Y0152281D01*
X0129820Y0153263D02*
X0129524Y0153263D01*
X0126375Y0149332D02*
X0124800Y0149332D01*
X0124800Y0148350D02*
X0126375Y0148350D01*
X0126375Y0147367D02*
X0124800Y0147367D01*
X0123927Y0146384D02*
X0127248Y0146384D01*
X0127151Y0145401D02*
X0124023Y0145401D01*
X0124800Y0144419D02*
X0126375Y0144419D01*
X0126375Y0143436D02*
X0124800Y0143436D01*
X0124800Y0142453D02*
X0126375Y0142453D01*
X0129524Y0142453D02*
X0129820Y0142453D01*
X0129820Y0141470D02*
X0129524Y0141470D01*
X0129524Y0140488D02*
X0129623Y0140488D01*
X0129524Y0143436D02*
X0129820Y0143436D01*
X0129524Y0144419D02*
X0130523Y0144419D01*
X0128748Y0145401D02*
X0147326Y0145401D01*
X0147048Y0146384D02*
X0128651Y0146384D01*
X0122523Y0146384D02*
X0116237Y0146384D01*
X0116237Y0145401D02*
X0122427Y0145401D01*
X0121650Y0144419D02*
X0116237Y0144419D01*
X0116237Y0143436D02*
X0121650Y0143436D01*
X0121650Y0142453D02*
X0116237Y0142453D01*
X0116237Y0141470D02*
X0121650Y0141470D01*
X0121650Y0140488D02*
X0116038Y0140488D01*
X0121650Y0139505D02*
X0089034Y0139505D01*
X0089662Y0140133D02*
X0087183Y0137654D01*
X0083677Y0137654D01*
X0081198Y0140133D01*
X0081198Y0143639D01*
X0083677Y0146118D01*
X0087183Y0146118D01*
X0089662Y0143639D01*
X0089662Y0140133D01*
X0089662Y0140488D02*
X0106003Y0140488D01*
X0105804Y0141470D02*
X0089662Y0141470D01*
X0089662Y0142453D02*
X0105804Y0142453D01*
X0105804Y0143436D02*
X0089662Y0143436D01*
X0088882Y0144419D02*
X0105804Y0144419D01*
X0105804Y0145401D02*
X0087900Y0145401D01*
X0087183Y0147654D02*
X0083677Y0147654D01*
X0081198Y0150133D01*
X0081198Y0153639D01*
X0083677Y0156118D01*
X0087183Y0156118D01*
X0089662Y0153639D01*
X0089662Y0150133D01*
X0087183Y0147654D01*
X0087879Y0148350D02*
X0105804Y0148350D01*
X0105804Y0149332D02*
X0088862Y0149332D01*
X0089662Y0150315D02*
X0105804Y0150315D01*
X0105804Y0151298D02*
X0089662Y0151298D01*
X0089662Y0152281D02*
X0105804Y0152281D01*
X0105804Y0153263D02*
X0089662Y0153263D01*
X0089055Y0154246D02*
X0106492Y0154246D01*
X0109249Y0155229D02*
X0088072Y0155229D01*
X0087707Y0158177D02*
X0109249Y0158177D01*
X0109249Y0157195D02*
X0080410Y0157195D01*
X0080410Y0158177D02*
X0083153Y0158177D01*
X0082170Y0159160D02*
X0080410Y0159160D01*
X0080410Y0160143D02*
X0081198Y0160143D01*
X0081198Y0161126D02*
X0080410Y0161126D01*
X0080410Y0162108D02*
X0081198Y0162108D01*
X0081198Y0163091D02*
X0080410Y0163091D01*
X0080410Y0164074D02*
X0081632Y0164074D01*
X0082615Y0165057D02*
X0080410Y0165057D01*
X0080410Y0166039D02*
X0083598Y0166039D01*
X0087534Y0168005D02*
X0104327Y0168005D01*
X0104327Y0168988D02*
X0088517Y0168988D01*
X0089500Y0169970D02*
X0106591Y0169970D01*
X0103884Y0170953D02*
X0089662Y0170953D01*
X0089662Y0171936D02*
X0103835Y0171936D01*
X0103835Y0172919D02*
X0089662Y0172919D01*
X0089399Y0173901D02*
X0103835Y0173901D01*
X0103902Y0174884D02*
X0088417Y0174884D01*
X0087434Y0175867D02*
X0114072Y0175867D01*
X0114072Y0174884D02*
X0111052Y0174884D01*
X0111119Y0173901D02*
X0114072Y0173901D01*
X0114072Y0172919D02*
X0111467Y0172919D01*
X0111512Y0171936D02*
X0114072Y0171936D01*
X0114072Y0171001D02*
X0114072Y0178558D01*
X0114170Y0178656D01*
X0114170Y0181571D01*
X0111119Y0181571D01*
X0111119Y0178482D01*
X0110369Y0177732D01*
X0104585Y0177732D01*
X0103835Y0178482D01*
X0103835Y0178815D01*
X0098475Y0178815D01*
X0099209Y0180587D02*
X0094485Y0185311D01*
X0094485Y0249091D01*
X0105115Y0259720D01*
X0111414Y0259720D01*
X0112330Y0257436D02*
X0112398Y0257436D01*
X0112398Y0257465D02*
X0112398Y0253475D01*
X0119091Y0246782D01*
X0120129Y0245744D01*
X0124066Y0245744D01*
X0129426Y0240384D01*
X0129426Y0239940D01*
X0129800Y0239035D01*
X0130115Y0238721D01*
X0130115Y0224189D01*
X0129979Y0224189D01*
X0129229Y0223439D01*
X0129229Y0219624D01*
X0129683Y0219169D01*
X0129229Y0218715D01*
X0129229Y0214899D01*
X0129979Y0214150D01*
X0130115Y0214150D01*
X0130115Y0212530D01*
X0131153Y0211492D01*
X0139814Y0202831D01*
X0136504Y0202831D01*
X0136709Y0203326D01*
X0136709Y0204304D01*
X0136335Y0205209D01*
X0135643Y0205901D01*
X0134738Y0206276D01*
X0133204Y0206276D01*
X0133007Y0206472D01*
X0129191Y0206472D01*
X0128737Y0206018D01*
X0128283Y0206472D01*
X0128146Y0206472D01*
X0128146Y0209273D01*
X0125686Y0211734D01*
X0125686Y0222849D01*
X0124936Y0223598D01*
X0116002Y0223598D01*
X0115253Y0222849D01*
X0115253Y0209978D01*
X0116002Y0209228D01*
X0123180Y0209228D01*
X0124603Y0207806D01*
X0124603Y0206472D01*
X0124467Y0206472D01*
X0123717Y0205723D01*
X0123717Y0201907D01*
X0124467Y0201157D01*
X0126527Y0201157D01*
X0126724Y0200961D01*
X0124467Y0200961D01*
X0124107Y0200601D01*
X0123715Y0200764D01*
X0122736Y0200764D01*
X0122241Y0200559D01*
X0122241Y0204155D01*
X0118053Y0208343D01*
X0109392Y0208343D01*
X0106001Y0211734D01*
X0106001Y0222849D01*
X0105251Y0223598D01*
X0096317Y0223598D01*
X0096257Y0223538D01*
X0096257Y0248357D01*
X0105849Y0257949D01*
X0109706Y0257949D01*
X0110020Y0257634D01*
X0110925Y0257260D01*
X0111903Y0257260D01*
X0112398Y0257465D01*
X0112398Y0256454D02*
X0104353Y0256454D01*
X0103371Y0255471D02*
X0112398Y0255471D01*
X0112398Y0254488D02*
X0102388Y0254488D01*
X0101405Y0253505D02*
X0112398Y0253505D01*
X0113351Y0252523D02*
X0100422Y0252523D01*
X0099440Y0251540D02*
X0114333Y0251540D01*
X0115316Y0250557D02*
X0098457Y0250557D01*
X0097474Y0249574D02*
X0116299Y0249574D01*
X0117282Y0248591D02*
X0096491Y0248591D01*
X0096257Y0247609D02*
X0118264Y0247609D01*
X0119247Y0246626D02*
X0096257Y0246626D01*
X0096257Y0245643D02*
X0124167Y0245643D01*
X0125150Y0244660D02*
X0096257Y0244660D01*
X0096257Y0243678D02*
X0126132Y0243678D01*
X0127115Y0242695D02*
X0096257Y0242695D01*
X0096257Y0241712D02*
X0128098Y0241712D01*
X0129081Y0240729D02*
X0096257Y0240729D01*
X0096257Y0239747D02*
X0129506Y0239747D01*
X0130072Y0238764D02*
X0096257Y0238764D01*
X0096257Y0237781D02*
X0130115Y0237781D01*
X0130115Y0236798D02*
X0096257Y0236798D01*
X0096257Y0235816D02*
X0130115Y0235816D01*
X0130115Y0234833D02*
X0096257Y0234833D01*
X0096257Y0233850D02*
X0130115Y0233850D01*
X0130115Y0232867D02*
X0096257Y0232867D01*
X0096257Y0231885D02*
X0130115Y0231885D01*
X0130115Y0230902D02*
X0096257Y0230902D01*
X0096257Y0229919D02*
X0130115Y0229919D01*
X0130115Y0228936D02*
X0096257Y0228936D01*
X0096257Y0227953D02*
X0130115Y0227953D01*
X0130115Y0226971D02*
X0096257Y0226971D01*
X0096257Y0225988D02*
X0130115Y0225988D01*
X0130115Y0225005D02*
X0096257Y0225005D01*
X0096257Y0224022D02*
X0129812Y0224022D01*
X0129229Y0223040D02*
X0125495Y0223040D01*
X0125686Y0222057D02*
X0129229Y0222057D01*
X0129229Y0221074D02*
X0125686Y0221074D01*
X0125686Y0220091D02*
X0129229Y0220091D01*
X0129623Y0219109D02*
X0125686Y0219109D01*
X0125686Y0218126D02*
X0129229Y0218126D01*
X0129229Y0217143D02*
X0125686Y0217143D01*
X0125686Y0216160D02*
X0129229Y0216160D01*
X0129229Y0215178D02*
X0125686Y0215178D01*
X0125686Y0214195D02*
X0129933Y0214195D01*
X0130115Y0213212D02*
X0125686Y0213212D01*
X0125686Y0212229D02*
X0130416Y0212229D01*
X0131398Y0211246D02*
X0126173Y0211246D01*
X0127156Y0210264D02*
X0132381Y0210264D01*
X0133364Y0209281D02*
X0128139Y0209281D01*
X0128146Y0208298D02*
X0134347Y0208298D01*
X0135329Y0207315D02*
X0128146Y0207315D01*
X0128422Y0206333D02*
X0129051Y0206333D01*
X0126375Y0208539D02*
X0120469Y0214445D01*
X0120469Y0216413D01*
X0115253Y0216160D02*
X0106001Y0216160D01*
X0106001Y0215178D02*
X0115253Y0215178D01*
X0115253Y0214195D02*
X0106001Y0214195D01*
X0106001Y0213212D02*
X0115253Y0213212D01*
X0115253Y0212229D02*
X0106001Y0212229D01*
X0106488Y0211246D02*
X0115253Y0211246D01*
X0115253Y0210264D02*
X0107471Y0210264D01*
X0108454Y0209281D02*
X0115950Y0209281D01*
X0118098Y0208298D02*
X0124110Y0208298D01*
X0124603Y0207315D02*
X0119080Y0207315D01*
X0120063Y0206333D02*
X0124327Y0206333D01*
X0123717Y0205350D02*
X0121046Y0205350D01*
X0122029Y0204367D02*
X0123717Y0204367D01*
X0123717Y0203384D02*
X0122241Y0203384D01*
X0122241Y0202402D02*
X0123717Y0202402D01*
X0124205Y0201419D02*
X0122241Y0201419D01*
X0120469Y0203421D02*
X0117320Y0206571D01*
X0108658Y0206571D01*
X0100784Y0214445D01*
X0100784Y0216413D01*
X0092713Y0216160D02*
X0080410Y0216160D01*
X0080410Y0215178D02*
X0082736Y0215178D01*
X0083677Y0216118D02*
X0081198Y0213639D01*
X0081198Y0210133D01*
X0083677Y0207654D01*
X0087183Y0207654D01*
X0089662Y0210133D01*
X0089662Y0213639D01*
X0087183Y0216118D01*
X0083677Y0216118D01*
X0083677Y0217654D02*
X0087183Y0217654D01*
X0089662Y0220133D01*
X0089662Y0223639D01*
X0087183Y0226118D01*
X0083677Y0226118D01*
X0081198Y0223639D01*
X0081198Y0220133D01*
X0083677Y0217654D01*
X0083204Y0218126D02*
X0080410Y0218126D01*
X0080410Y0219109D02*
X0082222Y0219109D01*
X0081239Y0220091D02*
X0080410Y0220091D01*
X0080410Y0221074D02*
X0081198Y0221074D01*
X0081198Y0222057D02*
X0080410Y0222057D01*
X0080410Y0223040D02*
X0081198Y0223040D01*
X0081581Y0224022D02*
X0080410Y0224022D01*
X0080410Y0225005D02*
X0082564Y0225005D01*
X0083547Y0225988D02*
X0080410Y0225988D01*
X0080410Y0226971D02*
X0092713Y0226971D01*
X0092713Y0227953D02*
X0087483Y0227953D01*
X0087183Y0227654D02*
X0089662Y0230133D01*
X0089662Y0233639D01*
X0087183Y0236118D01*
X0083677Y0236118D01*
X0081198Y0233639D01*
X0081198Y0230133D01*
X0083677Y0227654D01*
X0087183Y0227654D01*
X0087313Y0225988D02*
X0092713Y0225988D01*
X0092713Y0225005D02*
X0088296Y0225005D01*
X0089279Y0224022D02*
X0092713Y0224022D01*
X0092713Y0223040D02*
X0089662Y0223040D01*
X0089662Y0222057D02*
X0092713Y0222057D01*
X0092713Y0221074D02*
X0089662Y0221074D01*
X0089621Y0220091D02*
X0092713Y0220091D01*
X0092713Y0219109D02*
X0088638Y0219109D01*
X0087655Y0218126D02*
X0092713Y0218126D01*
X0092713Y0217143D02*
X0080410Y0217143D01*
X0080410Y0214195D02*
X0081753Y0214195D01*
X0081198Y0213212D02*
X0080410Y0213212D01*
X0080410Y0212229D02*
X0081198Y0212229D01*
X0081198Y0211246D02*
X0080410Y0211246D01*
X0080410Y0210264D02*
X0081198Y0210264D01*
X0080410Y0209281D02*
X0082049Y0209281D01*
X0083032Y0208298D02*
X0080410Y0208298D01*
X0080410Y0207315D02*
X0092713Y0207315D01*
X0092713Y0206333D02*
X0080410Y0206333D01*
X0080410Y0205350D02*
X0082909Y0205350D01*
X0083677Y0206118D02*
X0081198Y0203639D01*
X0081198Y0200133D01*
X0083677Y0197654D01*
X0087183Y0197654D01*
X0089662Y0200133D01*
X0089662Y0203639D01*
X0087183Y0206118D01*
X0083677Y0206118D01*
X0081926Y0204367D02*
X0080410Y0204367D01*
X0080410Y0203384D02*
X0081198Y0203384D01*
X0081198Y0202402D02*
X0080410Y0202402D01*
X0080410Y0201419D02*
X0081198Y0201419D01*
X0081198Y0200436D02*
X0080410Y0200436D01*
X0080410Y0199453D02*
X0081877Y0199453D01*
X0082860Y0198471D02*
X0080410Y0198471D01*
X0080410Y0197488D02*
X0092713Y0197488D01*
X0092713Y0198471D02*
X0088000Y0198471D01*
X0088983Y0199453D02*
X0092713Y0199453D01*
X0092713Y0200436D02*
X0089662Y0200436D01*
X0089662Y0201419D02*
X0092713Y0201419D01*
X0092713Y0202402D02*
X0089662Y0202402D01*
X0089662Y0203384D02*
X0092713Y0203384D01*
X0092713Y0204367D02*
X0088934Y0204367D01*
X0087951Y0205350D02*
X0092713Y0205350D01*
X0092713Y0208298D02*
X0087828Y0208298D01*
X0088810Y0209281D02*
X0092713Y0209281D01*
X0092713Y0210264D02*
X0089662Y0210264D01*
X0089662Y0211246D02*
X0092713Y0211246D01*
X0092713Y0212229D02*
X0089662Y0212229D01*
X0089662Y0213212D02*
X0092713Y0213212D01*
X0092713Y0214195D02*
X0089106Y0214195D01*
X0088123Y0215178D02*
X0092713Y0215178D01*
X0096257Y0209289D02*
X0096317Y0209228D01*
X0103495Y0209228D01*
X0107924Y0204799D01*
X0116586Y0204799D01*
X0118698Y0202687D01*
X0118698Y0198598D01*
X0118677Y0198598D01*
X0118009Y0198598D01*
X0118009Y0202180D01*
X0117259Y0202929D01*
X0113443Y0202929D01*
X0113394Y0202880D01*
X0112854Y0203421D01*
X0108793Y0203421D01*
X0107871Y0202499D01*
X0107871Y0201194D01*
X0108793Y0200272D01*
X0110627Y0200272D01*
X0108793Y0200272D01*
X0107871Y0199349D01*
X0107871Y0198045D01*
X0108075Y0197840D01*
X0107969Y0197734D01*
X0107969Y0192693D01*
X0102359Y0192693D01*
X0102359Y0194625D01*
X0101436Y0195547D01*
X0100132Y0195547D01*
X0099209Y0194625D01*
X0098287Y0195547D01*
X0096982Y0195547D01*
X0096257Y0194822D01*
X0096257Y0209289D01*
X0096257Y0209281D02*
X0096264Y0209281D01*
X0096257Y0208298D02*
X0104425Y0208298D01*
X0105408Y0207315D02*
X0096257Y0207315D01*
X0096257Y0206333D02*
X0106391Y0206333D01*
X0107374Y0205350D02*
X0096257Y0205350D01*
X0096257Y0204367D02*
X0117018Y0204367D01*
X0118001Y0203384D02*
X0112891Y0203384D01*
X0110627Y0200272D02*
X0110627Y0200272D01*
X0108629Y0200436D02*
X0096257Y0200436D01*
X0096257Y0199453D02*
X0107975Y0199453D01*
X0107871Y0198471D02*
X0096257Y0198471D01*
X0096257Y0197488D02*
X0107969Y0197488D01*
X0107969Y0196505D02*
X0096257Y0196505D01*
X0096257Y0195522D02*
X0096957Y0195522D01*
X0098312Y0195522D02*
X0100107Y0195522D01*
X0099209Y0194625D02*
X0099209Y0192398D01*
X0099209Y0194625D01*
X0099209Y0194540D02*
X0099209Y0194540D01*
X0099209Y0193557D02*
X0099209Y0193557D01*
X0099209Y0192574D02*
X0099209Y0192574D01*
X0099209Y0192398D02*
X0099209Y0192398D01*
X0102359Y0193557D02*
X0107969Y0193557D01*
X0107969Y0194540D02*
X0102359Y0194540D01*
X0101461Y0195522D02*
X0107969Y0195522D01*
X0106886Y0193776D02*
X0109052Y0191610D01*
X0112989Y0189248D01*
X0115154Y0187083D01*
X0115548Y0187083D01*
X0119682Y0183343D02*
X0110233Y0183343D01*
X0106493Y0187083D01*
X0100194Y0187083D01*
X0099209Y0188067D01*
X0092713Y0187660D02*
X0087189Y0187660D01*
X0087183Y0187654D02*
X0089662Y0190133D01*
X0089662Y0193639D01*
X0087183Y0196118D01*
X0083677Y0196118D01*
X0081198Y0193639D01*
X0081198Y0190133D01*
X0083677Y0187654D01*
X0087183Y0187654D01*
X0088172Y0188643D02*
X0092713Y0188643D01*
X0092713Y0189626D02*
X0089155Y0189626D01*
X0089662Y0190608D02*
X0092713Y0190608D01*
X0092713Y0191591D02*
X0089662Y0191591D01*
X0089662Y0192574D02*
X0092713Y0192574D01*
X0092713Y0193557D02*
X0089662Y0193557D01*
X0088761Y0194540D02*
X0092713Y0194540D01*
X0092713Y0195522D02*
X0087779Y0195522D01*
X0083081Y0195522D02*
X0080410Y0195522D01*
X0080410Y0194540D02*
X0082098Y0194540D01*
X0081198Y0193557D02*
X0080410Y0193557D01*
X0080410Y0192574D02*
X0081198Y0192574D01*
X0081198Y0191591D02*
X0080410Y0191591D01*
X0080410Y0190608D02*
X0081198Y0190608D01*
X0081705Y0189626D02*
X0080410Y0189626D01*
X0080410Y0188643D02*
X0082687Y0188643D01*
X0083670Y0187660D02*
X0080410Y0187660D01*
X0080410Y0196505D02*
X0092713Y0196505D01*
X0096257Y0201419D02*
X0107871Y0201419D01*
X0107871Y0202402D02*
X0096257Y0202402D01*
X0096257Y0203384D02*
X0108756Y0203384D01*
X0115351Y0200272D02*
X0115548Y0200075D01*
X0115548Y0193776D01*
X0116335Y0193776D01*
X0122438Y0187673D01*
X0137005Y0187673D01*
X0137201Y0187870D01*
X0141138Y0187870D01*
X0141138Y0185902D02*
X0137201Y0185902D01*
X0137005Y0186098D01*
X0122438Y0186098D01*
X0119682Y0183343D01*
X0121457Y0182613D02*
X0123171Y0184327D01*
X0126375Y0184327D01*
X0126375Y0184265D01*
X0127297Y0183343D01*
X0129524Y0183343D01*
X0129524Y0183343D01*
X0127297Y0183343D01*
X0126375Y0182420D01*
X0126375Y0181115D01*
X0127297Y0180193D01*
X0131751Y0180193D01*
X0131788Y0180230D01*
X0131788Y0179703D01*
X0131993Y0179209D01*
X0126825Y0179209D01*
X0126492Y0180012D01*
X0125800Y0180704D01*
X0124896Y0181079D01*
X0123917Y0181079D01*
X0123012Y0180704D01*
X0122320Y0180012D01*
X0121946Y0179108D01*
X0121946Y0178129D01*
X0122314Y0177240D01*
X0121355Y0177240D01*
X0121355Y0178064D01*
X0121650Y0178359D01*
X0121650Y0179664D01*
X0120925Y0180390D01*
X0121650Y0181115D01*
X0121650Y0182420D01*
X0121457Y0182613D01*
X0121591Y0182746D02*
X0126701Y0182746D01*
X0126911Y0183729D02*
X0122574Y0183729D01*
X0121650Y0181764D02*
X0126375Y0181764D01*
X0126709Y0180781D02*
X0125615Y0180781D01*
X0126581Y0179798D02*
X0131788Y0179798D01*
X0135430Y0177437D02*
X0125587Y0177437D01*
X0124406Y0178618D01*
X0122068Y0177833D02*
X0121355Y0177833D01*
X0121650Y0178815D02*
X0121946Y0178815D01*
X0122232Y0179798D02*
X0121516Y0179798D01*
X0121650Y0180193D02*
X0118107Y0180193D01*
X0118107Y0180390D01*
X0118107Y0180587D02*
X0121650Y0180587D01*
X0121316Y0180781D02*
X0123198Y0180781D01*
X0118107Y0180587D02*
X0117910Y0180390D01*
X0117713Y0180390D01*
X0114170Y0180781D02*
X0111119Y0180781D01*
X0111119Y0179798D02*
X0114170Y0179798D01*
X0114170Y0178815D02*
X0111119Y0178815D01*
X0110469Y0177833D02*
X0114072Y0177833D01*
X0114072Y0176850D02*
X0080410Y0176850D01*
X0087362Y0177833D02*
X0104485Y0177833D01*
X0107280Y0180587D02*
X0099209Y0180587D01*
X0107280Y0180587D02*
X0107477Y0180390D01*
X0107477Y0172909D02*
X0109052Y0172909D01*
X0109052Y0172319D01*
X0117713Y0172909D02*
X0117910Y0172713D01*
X0120863Y0172713D01*
X0121650Y0171925D01*
X0122438Y0171925D01*
X0121650Y0171138D01*
X0121650Y0171925D01*
X0121650Y0171138D02*
X0121650Y0169563D01*
X0111020Y0158933D01*
X0111020Y0147122D01*
X0116237Y0147367D02*
X0121650Y0147367D01*
X0121650Y0148350D02*
X0116237Y0148350D01*
X0116237Y0149332D02*
X0121650Y0149332D01*
X0121650Y0150315D02*
X0116237Y0150315D01*
X0116237Y0151298D02*
X0121650Y0151298D01*
X0121650Y0152281D02*
X0116237Y0152281D01*
X0116237Y0153263D02*
X0121650Y0153263D01*
X0121650Y0154246D02*
X0115548Y0154246D01*
X0112792Y0155229D02*
X0121650Y0155229D01*
X0121650Y0156212D02*
X0112792Y0156212D01*
X0112792Y0157195D02*
X0121650Y0157195D01*
X0121650Y0158177D02*
X0112792Y0158177D01*
X0113753Y0159160D02*
X0122406Y0159160D01*
X0122733Y0160143D02*
X0114736Y0160143D01*
X0115718Y0161126D02*
X0122733Y0161126D01*
X0122312Y0162108D02*
X0116701Y0162108D01*
X0117684Y0163091D02*
X0121714Y0163091D01*
X0121552Y0164074D02*
X0118667Y0164074D01*
X0119649Y0165057D02*
X0121733Y0165057D01*
X0122358Y0166039D02*
X0120632Y0166039D01*
X0121615Y0167022D02*
X0134347Y0167022D01*
X0134347Y0166039D02*
X0128817Y0166039D01*
X0129441Y0165057D02*
X0134583Y0165057D01*
X0136108Y0163091D02*
X0129460Y0163091D01*
X0129623Y0164074D02*
X0137201Y0164074D01*
X0138973Y0164445D02*
X0138973Y0162476D01*
X0137792Y0161295D01*
X0135465Y0162108D02*
X0128862Y0162108D01*
X0128442Y0161126D02*
X0135331Y0161126D01*
X0134341Y0160143D02*
X0128442Y0160143D01*
X0128768Y0159160D02*
X0133811Y0159160D01*
X0133757Y0158177D02*
X0133529Y0158177D01*
X0139740Y0157195D02*
X0141926Y0157195D01*
X0141926Y0158177D02*
X0140723Y0158177D01*
X0141706Y0159160D02*
X0141926Y0159160D01*
X0146453Y0161295D02*
X0151178Y0161295D01*
X0152753Y0162870D01*
X0152753Y0173500D01*
X0152556Y0173697D01*
X0152556Y0176453D01*
X0154524Y0176453D02*
X0154524Y0173697D01*
X0154327Y0173500D01*
X0154327Y0162870D01*
X0155902Y0161295D01*
X0160627Y0156571D01*
X0159983Y0159720D02*
X0158560Y0161143D01*
X0158560Y0163203D01*
X0157810Y0163953D01*
X0156099Y0163953D01*
X0156099Y0171191D01*
X0163186Y0164105D01*
X0163186Y0159388D01*
X0162854Y0159720D01*
X0159983Y0159720D01*
X0159560Y0160143D02*
X0163186Y0160143D01*
X0163186Y0161126D02*
X0158577Y0161126D01*
X0158560Y0162108D02*
X0163186Y0162108D01*
X0163186Y0163091D02*
X0158560Y0163091D01*
X0156099Y0164074D02*
X0163186Y0164074D01*
X0162234Y0165057D02*
X0156099Y0165057D01*
X0156099Y0166039D02*
X0161251Y0166039D01*
X0160268Y0167022D02*
X0156099Y0167022D01*
X0156099Y0168005D02*
X0159286Y0168005D01*
X0158303Y0168988D02*
X0156099Y0168988D01*
X0156099Y0169970D02*
X0157320Y0169970D01*
X0156337Y0170953D02*
X0156099Y0170953D01*
X0156493Y0173303D02*
X0156493Y0176453D01*
X0158461Y0176453D02*
X0158461Y0174878D01*
X0161808Y0171531D01*
X0161808Y0171138D01*
X0167320Y0165626D01*
X0167320Y0144366D01*
X0168501Y0143185D01*
X0168501Y0136098D01*
X0166528Y0134591D02*
X0163284Y0134591D01*
X0163284Y0135574D02*
X0166055Y0135574D01*
X0166040Y0136556D02*
X0163284Y0136556D01*
X0163284Y0137539D02*
X0166462Y0137539D01*
X0166729Y0138522D02*
X0162572Y0138522D01*
X0162398Y0139505D02*
X0166729Y0139505D01*
X0166729Y0140488D02*
X0162398Y0140488D01*
X0162398Y0141470D02*
X0166729Y0141470D01*
X0164170Y0144760D02*
X0164957Y0145547D01*
X0164957Y0164839D01*
X0156493Y0173303D01*
X0161808Y0175075D02*
X0165351Y0171531D01*
X0165351Y0171138D01*
X0169288Y0167201D01*
X0169288Y0145547D01*
X0171257Y0143579D01*
X0171257Y0132161D01*
X0169682Y0130587D01*
X0168241Y0132625D02*
X0163097Y0132625D01*
X0163284Y0133608D02*
X0169485Y0133608D01*
X0174012Y0130193D02*
X0170075Y0126256D01*
X0173054Y0126729D02*
X0178121Y0126729D01*
X0177138Y0127712D02*
X0174037Y0127712D01*
X0175019Y0128694D02*
X0176155Y0128694D01*
X0174012Y0130193D02*
X0174012Y0143972D01*
X0171257Y0146728D01*
X0171257Y0168776D01*
X0168894Y0171138D01*
X0165745Y0174287D01*
X0165745Y0181374D01*
X0165154Y0181965D01*
X0162005Y0181965D01*
X0162005Y0179996D02*
X0161808Y0179799D01*
X0161808Y0179012D01*
X0162595Y0179799D01*
X0161808Y0179012D02*
X0161020Y0179799D01*
X0161808Y0179012D02*
X0161808Y0175075D01*
X0146650Y0174484D02*
X0146453Y0174287D01*
X0146453Y0171925D01*
X0138973Y0164445D01*
X0137005Y0167201D02*
X0141729Y0171925D01*
X0144682Y0174878D01*
X0144682Y0176453D01*
X0146650Y0176453D02*
X0146650Y0174484D01*
X0140942Y0176256D02*
X0140942Y0179012D01*
X0141729Y0179799D01*
X0141138Y0179996D02*
X0140942Y0179799D01*
X0140942Y0179012D01*
X0140154Y0179799D01*
X0141138Y0181965D02*
X0138383Y0181965D01*
X0137398Y0180980D01*
X0137398Y0179406D01*
X0135430Y0177437D01*
X0139367Y0174681D02*
X0129524Y0174681D01*
X0126768Y0171925D01*
X0122438Y0171925D01*
X0123422Y0169970D02*
X0124158Y0169970D01*
X0123422Y0168988D02*
X0134347Y0168988D01*
X0134347Y0168005D02*
X0122598Y0168005D01*
X0123225Y0174681D02*
X0122438Y0175469D01*
X0120469Y0175469D01*
X0119288Y0176650D01*
X0117713Y0176650D01*
X0122044Y0192791D02*
X0120469Y0194366D01*
X0120469Y0203421D01*
X0118698Y0202402D02*
X0117786Y0202402D01*
X0118009Y0201419D02*
X0118698Y0201419D01*
X0118698Y0200436D02*
X0118009Y0200436D01*
X0118009Y0199453D02*
X0118698Y0199453D01*
X0123225Y0198303D02*
X0126375Y0198303D01*
X0129131Y0195547D01*
X0135430Y0195547D01*
X0136611Y0194366D01*
X0136611Y0192791D01*
X0137595Y0191807D01*
X0141138Y0191807D01*
X0141138Y0189839D02*
X0137201Y0189839D01*
X0137005Y0190035D01*
X0129131Y0190035D01*
X0126375Y0192791D01*
X0122044Y0192791D01*
X0129131Y0201059D02*
X0139367Y0201059D01*
X0140942Y0199484D01*
X0140942Y0194760D01*
X0141729Y0193972D01*
X0141138Y0193776D02*
X0140942Y0193972D01*
X0140942Y0194760D01*
X0140154Y0193972D01*
X0144682Y0197319D02*
X0144682Y0200469D01*
X0131886Y0213264D01*
X0131886Y0216807D01*
X0131886Y0219169D01*
X0131886Y0221531D02*
X0131886Y0240429D01*
X0124800Y0247516D01*
X0120863Y0247516D01*
X0114170Y0254209D01*
X0114170Y0262476D01*
X0119977Y0268283D01*
X0124012Y0268283D01*
X0126473Y0268247D02*
X0140911Y0268247D01*
X0140843Y0267264D02*
X0129204Y0267264D01*
X0129623Y0266281D02*
X0140843Y0266281D01*
X0140843Y0265298D02*
X0129623Y0265298D01*
X0129946Y0264316D02*
X0140873Y0264316D01*
X0140843Y0263333D02*
X0130016Y0263333D01*
X0129678Y0262350D02*
X0136154Y0262350D01*
X0135485Y0261367D02*
X0128457Y0261367D01*
X0126655Y0261367D02*
X0126473Y0261367D01*
X0127556Y0263657D02*
X0127753Y0263854D01*
X0127753Y0265724D01*
X0128442Y0269230D02*
X0126473Y0269230D01*
X0128442Y0270212D02*
X0080453Y0270212D01*
X0080410Y0269230D02*
X0118418Y0269230D01*
X0118205Y0269017D02*
X0118205Y0269017D01*
X0117435Y0268247D02*
X0080410Y0268247D01*
X0080410Y0267264D02*
X0116452Y0267264D01*
X0115469Y0266281D02*
X0080410Y0266281D01*
X0080410Y0265298D02*
X0114487Y0265298D01*
X0113504Y0264316D02*
X0080410Y0264316D01*
X0080410Y0263333D02*
X0112521Y0263333D01*
X0112398Y0262350D02*
X0080410Y0262350D01*
X0080410Y0261367D02*
X0104256Y0261367D01*
X0103343Y0260454D02*
X0103343Y0260454D01*
X0103274Y0260385D02*
X0080410Y0260385D01*
X0080410Y0259402D02*
X0102291Y0259402D01*
X0101308Y0258419D02*
X0080410Y0258419D01*
X0080410Y0257436D02*
X0100325Y0257436D01*
X0099342Y0256454D02*
X0080410Y0256454D01*
X0080410Y0255471D02*
X0083029Y0255471D01*
X0083677Y0256118D02*
X0081198Y0253639D01*
X0081198Y0250133D01*
X0083677Y0247654D01*
X0087183Y0247654D01*
X0089662Y0250133D01*
X0089662Y0253639D01*
X0087183Y0256118D01*
X0083677Y0256118D01*
X0082047Y0254488D02*
X0080410Y0254488D01*
X0080410Y0253505D02*
X0081198Y0253505D01*
X0081198Y0252523D02*
X0080410Y0252523D01*
X0080410Y0251540D02*
X0081198Y0251540D01*
X0081198Y0250557D02*
X0080410Y0250557D01*
X0080410Y0249574D02*
X0081756Y0249574D01*
X0082739Y0248591D02*
X0080410Y0248591D01*
X0080410Y0247609D02*
X0092713Y0247609D01*
X0092713Y0248591D02*
X0088121Y0248591D01*
X0089104Y0249574D02*
X0092713Y0249574D01*
X0093446Y0250557D02*
X0089662Y0250557D01*
X0089662Y0251540D02*
X0094429Y0251540D01*
X0095411Y0252523D02*
X0089662Y0252523D01*
X0089662Y0253505D02*
X0096394Y0253505D01*
X0097377Y0254488D02*
X0088813Y0254488D01*
X0087830Y0255471D02*
X0098360Y0255471D01*
X0105336Y0257436D02*
X0110498Y0257436D01*
X0120469Y0259720D02*
X0121355Y0260606D01*
X0124012Y0260606D01*
X0130312Y0258146D02*
X0130312Y0254209D01*
X0142713Y0261886D02*
X0143304Y0261295D01*
X0142713Y0261886D02*
X0142713Y0263165D01*
X0142713Y0265724D02*
X0142713Y0267004D01*
X0143304Y0267594D01*
X0141237Y0269230D02*
X0132182Y0269230D01*
X0132182Y0270212D02*
X0141237Y0270212D01*
X0141237Y0271195D02*
X0132182Y0271195D01*
X0128442Y0271195D02*
X0080517Y0271195D01*
X0080749Y0272178D02*
X0120769Y0272178D01*
X0146847Y0268283D02*
X0147142Y0268283D01*
X0147241Y0268382D01*
X0161414Y0268382D01*
X0181099Y0248697D01*
X0181099Y0225862D01*
X0185075Y0221886D01*
X0185430Y0221886D01*
X0185469Y0221886D01*
X0189662Y0222057D02*
X0190449Y0222057D01*
X0190449Y0223040D02*
X0189662Y0223040D01*
X0189279Y0224022D02*
X0190449Y0224022D01*
X0190449Y0225005D02*
X0188296Y0225005D01*
X0187313Y0225988D02*
X0190449Y0225988D01*
X0190449Y0226971D02*
X0182871Y0226971D01*
X0182871Y0227953D02*
X0183377Y0227953D01*
X0183479Y0225988D02*
X0183547Y0225988D01*
X0181198Y0223040D02*
X0180902Y0223040D01*
X0180902Y0222057D02*
X0181198Y0222057D01*
X0181198Y0221074D02*
X0180902Y0221074D01*
X0180902Y0220091D02*
X0181239Y0220091D01*
X0180902Y0219109D02*
X0182222Y0219109D01*
X0181498Y0218126D02*
X0183204Y0218126D01*
X0182481Y0217143D02*
X0190449Y0217143D01*
X0190449Y0218126D02*
X0187655Y0218126D01*
X0188638Y0219109D02*
X0190449Y0219109D01*
X0190449Y0220091D02*
X0189621Y0220091D01*
X0189662Y0221074D02*
X0190449Y0221074D01*
X0190449Y0227953D02*
X0187483Y0227953D01*
X0188466Y0228936D02*
X0190449Y0228936D01*
X0190449Y0229919D02*
X0189448Y0229919D01*
X0189662Y0230902D02*
X0190449Y0230902D01*
X0190449Y0231885D02*
X0189662Y0231885D01*
X0189662Y0232867D02*
X0190449Y0232867D01*
X0190449Y0233850D02*
X0189451Y0233850D01*
X0188468Y0234833D02*
X0190449Y0234833D01*
X0190449Y0235816D02*
X0187485Y0235816D01*
X0190449Y0236798D02*
X0182871Y0236798D01*
X0182871Y0235816D02*
X0183374Y0235816D01*
X0182871Y0237781D02*
X0190449Y0237781D01*
X0190449Y0238764D02*
X0182871Y0238764D01*
X0182871Y0239747D02*
X0190449Y0239747D01*
X0190449Y0240729D02*
X0182871Y0240729D01*
X0182871Y0241712D02*
X0190449Y0241712D01*
X0190449Y0242695D02*
X0182871Y0242695D01*
X0182871Y0243678D02*
X0190449Y0243678D01*
X0190449Y0244660D02*
X0182871Y0244660D01*
X0182871Y0245643D02*
X0190449Y0245643D01*
X0190449Y0246626D02*
X0182871Y0246626D01*
X0182871Y0247609D02*
X0190449Y0247609D01*
X0190449Y0248591D02*
X0188121Y0248591D01*
X0189104Y0249574D02*
X0190449Y0249574D01*
X0190449Y0250557D02*
X0189662Y0250557D01*
X0189662Y0251540D02*
X0190449Y0251540D01*
X0190449Y0252523D02*
X0189662Y0252523D01*
X0189662Y0253505D02*
X0190449Y0253505D01*
X0190449Y0254488D02*
X0188813Y0254488D01*
X0187830Y0255471D02*
X0190449Y0255471D01*
X0190449Y0256454D02*
X0175848Y0256454D01*
X0174865Y0257436D02*
X0190449Y0257436D01*
X0190449Y0258419D02*
X0173882Y0258419D01*
X0172900Y0259402D02*
X0190449Y0259402D01*
X0190449Y0260385D02*
X0171917Y0260385D01*
X0170934Y0261367D02*
X0190449Y0261367D01*
X0190449Y0262350D02*
X0169951Y0262350D01*
X0168968Y0263333D02*
X0190449Y0263333D01*
X0190449Y0264316D02*
X0167986Y0264316D01*
X0167003Y0265298D02*
X0190449Y0265298D01*
X0190449Y0266281D02*
X0166020Y0266281D01*
X0165037Y0267264D02*
X0190449Y0267264D01*
X0190449Y0268247D02*
X0164055Y0268247D01*
X0163072Y0269230D02*
X0190449Y0269230D01*
X0190407Y0270212D02*
X0149308Y0270212D01*
X0149308Y0271195D02*
X0190342Y0271195D01*
X0190110Y0272178D02*
X0150090Y0272178D01*
X0147142Y0265724D02*
X0147241Y0265626D01*
X0161414Y0265626D01*
X0179131Y0247909D01*
X0179131Y0217988D01*
X0185233Y0211886D01*
X0185430Y0211886D01*
X0164170Y0201846D02*
X0158264Y0201846D01*
X0156493Y0200075D01*
X0156493Y0197319D01*
X0158461Y0197319D02*
X0158658Y0197516D01*
X0158658Y0199091D01*
X0159052Y0199484D01*
X0161808Y0199484D01*
X0158658Y0204602D02*
X0154524Y0200469D01*
X0154524Y0197319D01*
X0152556Y0197319D02*
X0152556Y0200862D01*
X0158658Y0206965D01*
X0158658Y0204602D02*
X0161414Y0204602D01*
X0156198Y0207009D02*
X0156198Y0207454D01*
X0156572Y0208358D01*
X0157264Y0209051D01*
X0157787Y0209267D01*
X0154381Y0212673D01*
X0152260Y0212673D01*
X0152260Y0212537D01*
X0151511Y0211787D01*
X0147695Y0211787D01*
X0147241Y0212242D01*
X0146787Y0211787D01*
X0145144Y0211787D01*
X0144143Y0210786D01*
X0146453Y0208476D01*
X0146453Y0209585D01*
X0147376Y0210508D01*
X0148681Y0210508D01*
X0149603Y0209585D01*
X0149603Y0207752D01*
X0149603Y0207752D01*
X0149603Y0209585D01*
X0150526Y0210508D01*
X0151830Y0210508D01*
X0152753Y0209585D01*
X0152753Y0205525D01*
X0152212Y0204984D01*
X0152260Y0204936D01*
X0152260Y0203293D01*
X0152371Y0203183D01*
X0156198Y0207009D01*
X0156198Y0207315D02*
X0152753Y0207315D01*
X0152753Y0206333D02*
X0155521Y0206333D01*
X0154538Y0205350D02*
X0152578Y0205350D01*
X0152260Y0204367D02*
X0153555Y0204367D01*
X0152572Y0203384D02*
X0152260Y0203384D01*
X0150587Y0200469D02*
X0150587Y0197319D01*
X0146650Y0197319D02*
X0146650Y0201256D01*
X0136611Y0211295D01*
X0136611Y0216807D01*
X0136611Y0219169D01*
X0136611Y0221531D02*
X0134249Y0223894D01*
X0134249Y0240429D01*
X0135430Y0240823D02*
X0134249Y0242004D01*
X0146288Y0246626D02*
X0154982Y0246626D01*
X0154623Y0247609D02*
X0147091Y0247609D01*
X0147339Y0248591D02*
X0154623Y0248591D01*
X0154623Y0249574D02*
X0148771Y0249574D01*
X0149603Y0250557D02*
X0154623Y0250557D01*
X0154623Y0251540D02*
X0149603Y0251540D01*
X0149603Y0252523D02*
X0153902Y0252523D01*
X0152919Y0253505D02*
X0149603Y0253505D01*
X0149188Y0254488D02*
X0152162Y0254488D01*
X0152162Y0255471D02*
X0147339Y0255471D01*
X0146901Y0256454D02*
X0152162Y0256454D01*
X0152162Y0257436D02*
X0145961Y0257436D01*
X0145961Y0258419D02*
X0151548Y0258419D01*
X0151867Y0260606D02*
X0153934Y0258539D01*
X0153934Y0254996D01*
X0158658Y0250272D01*
X0162694Y0250557D02*
X0173978Y0250557D01*
X0174960Y0249574D02*
X0162694Y0249574D01*
X0162694Y0248591D02*
X0175943Y0248591D01*
X0176926Y0247609D02*
X0162694Y0247609D01*
X0162334Y0246626D02*
X0177359Y0246626D01*
X0180762Y0251540D02*
X0181198Y0251540D01*
X0181198Y0252523D02*
X0179779Y0252523D01*
X0178796Y0253505D02*
X0181198Y0253505D01*
X0182047Y0254488D02*
X0177813Y0254488D01*
X0176831Y0255471D02*
X0183029Y0255471D01*
X0172995Y0251540D02*
X0162694Y0251540D01*
X0162694Y0252523D02*
X0172012Y0252523D01*
X0171029Y0253505D02*
X0162694Y0253505D01*
X0162694Y0256454D02*
X0168081Y0256454D01*
X0167098Y0257436D02*
X0162694Y0257436D01*
X0162694Y0258419D02*
X0166115Y0258419D01*
X0165133Y0259402D02*
X0162694Y0259402D01*
X0162694Y0260385D02*
X0164150Y0260385D01*
X0163167Y0261367D02*
X0162694Y0261367D01*
X0158658Y0259720D02*
X0155115Y0263264D01*
X0147241Y0263264D01*
X0147142Y0263165D01*
X0146847Y0263165D01*
X0146847Y0260606D02*
X0151867Y0260606D01*
X0155964Y0255471D02*
X0169064Y0255471D01*
X0170046Y0254488D02*
X0156947Y0254488D01*
X0147142Y0265724D02*
X0146847Y0265724D01*
X0138186Y0229012D02*
X0138186Y0225862D01*
X0139367Y0224681D01*
X0144603Y0211246D02*
X0155808Y0211246D01*
X0156790Y0210264D02*
X0152074Y0210264D01*
X0152753Y0209281D02*
X0157773Y0209281D01*
X0156547Y0208298D02*
X0152753Y0208298D01*
X0149603Y0208298D02*
X0149603Y0208298D01*
X0149603Y0209281D02*
X0149603Y0209281D01*
X0148925Y0210264D02*
X0150281Y0210264D01*
X0151953Y0212229D02*
X0154825Y0212229D01*
X0147253Y0212229D02*
X0147228Y0212229D01*
X0147132Y0210264D02*
X0144666Y0210264D01*
X0145648Y0209281D02*
X0146453Y0209281D01*
X0139260Y0203384D02*
X0136709Y0203384D01*
X0136683Y0204367D02*
X0138278Y0204367D01*
X0137295Y0205350D02*
X0136194Y0205350D01*
X0136312Y0206333D02*
X0133147Y0206333D01*
X0129131Y0201059D02*
X0126375Y0203815D01*
X0126375Y0208539D01*
X0115253Y0217143D02*
X0106001Y0217143D01*
X0106001Y0218126D02*
X0115253Y0218126D01*
X0115253Y0219109D02*
X0106001Y0219109D01*
X0106001Y0220091D02*
X0115253Y0220091D01*
X0115253Y0221074D02*
X0106001Y0221074D01*
X0106001Y0222057D02*
X0115253Y0222057D01*
X0115443Y0223040D02*
X0105810Y0223040D01*
X0092713Y0228936D02*
X0088466Y0228936D01*
X0089448Y0229919D02*
X0092713Y0229919D01*
X0092713Y0230902D02*
X0089662Y0230902D01*
X0089662Y0231885D02*
X0092713Y0231885D01*
X0092713Y0232867D02*
X0089662Y0232867D01*
X0089451Y0233850D02*
X0092713Y0233850D01*
X0092713Y0234833D02*
X0088468Y0234833D01*
X0087485Y0235816D02*
X0092713Y0235816D01*
X0092713Y0236798D02*
X0080410Y0236798D01*
X0080410Y0235816D02*
X0083374Y0235816D01*
X0082391Y0234833D02*
X0080410Y0234833D01*
X0080410Y0233850D02*
X0081409Y0233850D01*
X0081198Y0232867D02*
X0080410Y0232867D01*
X0080410Y0231885D02*
X0081198Y0231885D01*
X0081198Y0230902D02*
X0080410Y0230902D01*
X0080410Y0229919D02*
X0081411Y0229919D01*
X0082394Y0228936D02*
X0080410Y0228936D01*
X0080410Y0227953D02*
X0083377Y0227953D01*
X0083677Y0237654D02*
X0087183Y0237654D01*
X0089662Y0240133D01*
X0089662Y0243639D01*
X0087183Y0246118D01*
X0083677Y0246118D01*
X0081198Y0243639D01*
X0081198Y0240133D01*
X0083677Y0237654D01*
X0083549Y0237781D02*
X0080410Y0237781D01*
X0080410Y0238764D02*
X0082566Y0238764D01*
X0081584Y0239747D02*
X0080410Y0239747D01*
X0080410Y0240729D02*
X0081198Y0240729D01*
X0081198Y0241712D02*
X0080410Y0241712D01*
X0080410Y0242695D02*
X0081198Y0242695D01*
X0081236Y0243678D02*
X0080410Y0243678D01*
X0080410Y0244660D02*
X0082219Y0244660D01*
X0083202Y0245643D02*
X0080410Y0245643D01*
X0080410Y0246626D02*
X0092713Y0246626D01*
X0092713Y0245643D02*
X0087658Y0245643D01*
X0088641Y0244660D02*
X0092713Y0244660D01*
X0092713Y0243678D02*
X0089623Y0243678D01*
X0089662Y0242695D02*
X0092713Y0242695D01*
X0092713Y0241712D02*
X0089662Y0241712D01*
X0089662Y0240729D02*
X0092713Y0240729D01*
X0092713Y0239747D02*
X0089276Y0239747D01*
X0088293Y0238764D02*
X0092713Y0238764D01*
X0092713Y0237781D02*
X0087310Y0237781D01*
X0106493Y0193776D02*
X0106886Y0193776D01*
X0136611Y0183736D02*
X0136808Y0183933D01*
X0141138Y0183933D01*
X0140942Y0176256D02*
X0139367Y0174681D01*
X0151572Y0186886D02*
X0155115Y0186886D01*
X0179131Y0172713D02*
X0179131Y0158185D01*
X0185430Y0151886D01*
X0181198Y0152281D02*
X0178934Y0152281D01*
X0178934Y0153263D02*
X0181198Y0153263D01*
X0180564Y0154246D02*
X0178934Y0154246D01*
X0178934Y0155229D02*
X0179581Y0155229D01*
X0181644Y0158177D02*
X0183153Y0158177D01*
X0182170Y0159160D02*
X0180902Y0159160D01*
X0180902Y0160143D02*
X0181198Y0160143D01*
X0181198Y0161126D02*
X0180902Y0161126D01*
X0180902Y0162108D02*
X0181198Y0162108D01*
X0181198Y0163091D02*
X0180902Y0163091D01*
X0181198Y0151298D02*
X0178934Y0151298D01*
X0179624Y0150315D02*
X0181198Y0150315D01*
X0180607Y0149332D02*
X0181998Y0149332D01*
X0181590Y0148350D02*
X0182981Y0148350D01*
X0160627Y0151846D02*
X0160627Y0135311D01*
X0157083Y0138854D02*
X0157083Y0122713D01*
X0162201Y0117594D01*
X0177556Y0117594D01*
X0178542Y0119850D02*
X0181481Y0119850D01*
X0181198Y0120832D02*
X0161469Y0120832D01*
X0162452Y0119850D02*
X0176570Y0119850D01*
X0179692Y0118867D02*
X0182464Y0118867D01*
X0183446Y0117884D02*
X0180016Y0117884D01*
X0179932Y0116901D02*
X0190449Y0116901D01*
X0190449Y0115918D02*
X0179360Y0115918D01*
X0181198Y0121815D02*
X0160486Y0121815D01*
X0159504Y0122798D02*
X0181198Y0122798D01*
X0187413Y0117884D02*
X0190449Y0117884D01*
X0190449Y0114936D02*
X0136808Y0114936D01*
X0136808Y0115918D02*
X0161372Y0115918D01*
X0160389Y0116901D02*
X0136808Y0116901D01*
X0136808Y0113953D02*
X0190449Y0113953D01*
X0190449Y0112970D02*
X0137048Y0112970D01*
X0139697Y0111987D02*
X0190449Y0111987D01*
X0190449Y0111005D02*
X0140056Y0111005D01*
X0140056Y0110022D02*
X0190449Y0110022D01*
X0190449Y0109039D02*
X0140056Y0109039D01*
X0140056Y0108056D02*
X0190449Y0108056D01*
X0190449Y0107074D02*
X0140056Y0107074D01*
X0140056Y0106091D02*
X0190449Y0106091D01*
X0190449Y0105108D02*
X0140056Y0105108D01*
X0128245Y0105108D02*
X0108461Y0105108D01*
X0108461Y0105193D02*
X0114116Y0105193D01*
X0115154Y0106231D01*
X0115154Y0107698D01*
X0114116Y0108736D01*
X0108461Y0108736D01*
X0108461Y0110311D01*
X0114116Y0110311D01*
X0115154Y0111349D01*
X0115154Y0112817D01*
X0114116Y0113854D01*
X0105956Y0113854D01*
X0104918Y0112817D01*
X0104918Y0095601D01*
X0105956Y0094563D01*
X0107423Y0094563D01*
X0114116Y0094563D01*
X0115154Y0095601D01*
X0115154Y0097068D01*
X0114116Y0098106D01*
X0108461Y0098106D01*
X0108461Y0099681D01*
X0114116Y0099681D01*
X0115154Y0100719D01*
X0115154Y0102187D01*
X0114116Y0103224D01*
X0108461Y0103224D01*
X0108461Y0105193D01*
X0108461Y0104125D02*
X0190444Y0104125D01*
X0190380Y0103143D02*
X0114198Y0103143D01*
X0115154Y0102160D02*
X0190262Y0102160D01*
X0189999Y0101177D02*
X0115154Y0101177D01*
X0114630Y0100194D02*
X0189735Y0100194D01*
X0189472Y0099211D02*
X0108461Y0099211D01*
X0108461Y0098229D02*
X0188978Y0098229D01*
X0188411Y0097246D02*
X0114977Y0097246D01*
X0115154Y0096263D02*
X0187843Y0096263D01*
X0187023Y0095280D02*
X0114834Y0095280D01*
X0117282Y0093315D02*
X0085832Y0093315D01*
X0084820Y0094298D02*
X0186040Y0094298D01*
X0185028Y0093315D02*
X0153577Y0093315D01*
X0154560Y0092332D02*
X0183326Y0092332D01*
X0181184Y0091349D02*
X0155543Y0091349D01*
X0128245Y0106091D02*
X0115014Y0106091D01*
X0115154Y0107074D02*
X0128245Y0107074D01*
X0128245Y0108056D02*
X0114796Y0108056D01*
X0114810Y0111005D02*
X0128245Y0111005D01*
X0128245Y0111987D02*
X0115154Y0111987D01*
X0115001Y0112970D02*
X0127682Y0112970D01*
X0126699Y0113953D02*
X0100686Y0113953D01*
X0100686Y0113324D02*
X0100686Y0117140D01*
X0100231Y0117594D01*
X0100686Y0118049D01*
X0100686Y0121865D01*
X0100326Y0122224D01*
X0100489Y0122617D01*
X0100489Y0123596D01*
X0100114Y0124500D01*
X0099422Y0125192D01*
X0098518Y0125567D01*
X0097539Y0125567D01*
X0096634Y0125192D01*
X0095942Y0124500D01*
X0095666Y0123833D01*
X0095390Y0124500D01*
X0094698Y0125192D01*
X0093793Y0125567D01*
X0092814Y0125567D01*
X0091910Y0125192D01*
X0091218Y0124500D01*
X0090843Y0123596D01*
X0090843Y0122617D01*
X0091006Y0122224D01*
X0090646Y0121865D01*
X0090646Y0118049D01*
X0091101Y0117594D01*
X0090646Y0117140D01*
X0090646Y0115080D01*
X0089072Y0113505D01*
X0089072Y0113753D01*
X0088697Y0114658D01*
X0088005Y0115350D01*
X0087100Y0115724D01*
X0086121Y0115724D01*
X0085217Y0115350D01*
X0084525Y0114658D01*
X0084150Y0113753D01*
X0084150Y0112774D01*
X0084313Y0112382D01*
X0083953Y0112022D01*
X0083953Y0108206D01*
X0084408Y0107752D01*
X0083953Y0107298D01*
X0083953Y0103482D01*
X0084703Y0102732D01*
X0086763Y0102732D01*
X0090843Y0098652D01*
X0090843Y0096395D01*
X0091593Y0095646D01*
X0098952Y0095646D01*
X0099701Y0096395D01*
X0099701Y0100998D01*
X0099247Y0101453D01*
X0099701Y0101907D01*
X0099701Y0106510D01*
X0099247Y0106965D01*
X0099701Y0107419D01*
X0099701Y0110463D01*
X0099800Y0110561D01*
X0099800Y0112575D01*
X0099936Y0112575D01*
X0100686Y0113324D01*
X0100332Y0112970D02*
X0105072Y0112970D01*
X0104918Y0111987D02*
X0099800Y0111987D01*
X0099800Y0111005D02*
X0104918Y0111005D01*
X0104918Y0110022D02*
X0099701Y0110022D01*
X0099701Y0109039D02*
X0104918Y0109039D01*
X0104918Y0108056D02*
X0099701Y0108056D01*
X0099356Y0107074D02*
X0104918Y0107074D01*
X0104918Y0106091D02*
X0099701Y0106091D01*
X0099701Y0105108D02*
X0104918Y0105108D01*
X0104918Y0104125D02*
X0099701Y0104125D01*
X0099701Y0103143D02*
X0104918Y0103143D01*
X0104918Y0102160D02*
X0099701Y0102160D01*
X0099523Y0101177D02*
X0104918Y0101177D01*
X0104918Y0100194D02*
X0099701Y0100194D01*
X0099701Y0099211D02*
X0104918Y0099211D01*
X0104918Y0098229D02*
X0099701Y0098229D01*
X0099701Y0097246D02*
X0104918Y0097246D01*
X0104918Y0096263D02*
X0099569Y0096263D01*
X0095272Y0098697D02*
X0093304Y0098697D01*
X0086611Y0105390D01*
X0083953Y0105108D02*
X0080410Y0105108D01*
X0080416Y0104125D02*
X0083953Y0104125D01*
X0084293Y0103143D02*
X0080480Y0103143D01*
X0080598Y0102160D02*
X0087335Y0102160D01*
X0088318Y0101177D02*
X0080861Y0101177D01*
X0081124Y0100194D02*
X0089301Y0100194D01*
X0090284Y0099211D02*
X0081388Y0099211D01*
X0081881Y0098229D02*
X0090843Y0098229D01*
X0090843Y0097246D02*
X0082449Y0097246D01*
X0083016Y0096263D02*
X0090975Y0096263D01*
X0089675Y0091349D02*
X0115317Y0091349D01*
X0116299Y0092332D02*
X0087534Y0092332D01*
X0083837Y0095280D02*
X0105238Y0095280D01*
X0095272Y0104209D02*
X0093698Y0104209D01*
X0090548Y0107358D01*
X0090548Y0112476D01*
X0093304Y0115232D01*
X0090646Y0115918D02*
X0080410Y0115918D01*
X0080410Y0114936D02*
X0084803Y0114936D01*
X0084233Y0113953D02*
X0080410Y0113953D01*
X0080410Y0112970D02*
X0084150Y0112970D01*
X0083953Y0111987D02*
X0080410Y0111987D01*
X0080410Y0111005D02*
X0083953Y0111005D01*
X0083953Y0110022D02*
X0080410Y0110022D01*
X0080410Y0109039D02*
X0083953Y0109039D01*
X0084103Y0108056D02*
X0080410Y0108056D01*
X0080410Y0107074D02*
X0083953Y0107074D01*
X0083953Y0106091D02*
X0080410Y0106091D01*
X0086611Y0110114D02*
X0086611Y0113264D01*
X0088419Y0114936D02*
X0090502Y0114936D01*
X0089519Y0113953D02*
X0088989Y0113953D01*
X0090646Y0116901D02*
X0080410Y0116901D01*
X0080410Y0117884D02*
X0083446Y0117884D01*
X0083677Y0117654D02*
X0087183Y0117654D01*
X0089662Y0120133D01*
X0089662Y0123639D01*
X0087183Y0126118D01*
X0083677Y0126118D01*
X0081198Y0123639D01*
X0081198Y0120133D01*
X0083677Y0117654D01*
X0082464Y0118867D02*
X0080410Y0118867D01*
X0080410Y0119850D02*
X0081481Y0119850D01*
X0081198Y0120832D02*
X0080410Y0120832D01*
X0080410Y0121815D02*
X0081198Y0121815D01*
X0081198Y0122798D02*
X0080410Y0122798D01*
X0080410Y0123781D02*
X0081339Y0123781D01*
X0080410Y0124763D02*
X0082322Y0124763D01*
X0083305Y0125746D02*
X0080410Y0125746D01*
X0080410Y0126729D02*
X0122733Y0126729D01*
X0122733Y0127712D02*
X0087241Y0127712D01*
X0087183Y0127654D02*
X0089662Y0130133D01*
X0089662Y0133639D01*
X0087183Y0136118D01*
X0083677Y0136118D01*
X0081198Y0133639D01*
X0081198Y0130133D01*
X0083677Y0127654D01*
X0087183Y0127654D01*
X0088224Y0128694D02*
X0122733Y0128694D01*
X0122733Y0129677D02*
X0089206Y0129677D01*
X0089662Y0130660D02*
X0122733Y0130660D01*
X0122733Y0131643D02*
X0089662Y0131643D01*
X0089662Y0132625D02*
X0122109Y0132625D01*
X0121650Y0133608D02*
X0089662Y0133608D01*
X0088710Y0134591D02*
X0121650Y0134591D01*
X0121650Y0135574D02*
X0087727Y0135574D01*
X0088051Y0138522D02*
X0121650Y0138522D01*
X0121650Y0137539D02*
X0080410Y0137539D01*
X0080410Y0136556D02*
X0121650Y0136556D01*
X0122733Y0125746D02*
X0087555Y0125746D01*
X0088538Y0124763D02*
X0091481Y0124763D01*
X0090920Y0123781D02*
X0089520Y0123781D01*
X0089662Y0122798D02*
X0090843Y0122798D01*
X0090646Y0121815D02*
X0089662Y0121815D01*
X0089662Y0120832D02*
X0090646Y0120832D01*
X0090646Y0119850D02*
X0089379Y0119850D01*
X0088396Y0118867D02*
X0090646Y0118867D01*
X0090811Y0117884D02*
X0087413Y0117884D01*
X0093304Y0119957D02*
X0093304Y0123106D01*
X0095127Y0124763D02*
X0096205Y0124763D01*
X0098028Y0123106D02*
X0098028Y0119957D01*
X0100686Y0119850D02*
X0122733Y0119850D01*
X0122733Y0120832D02*
X0100686Y0120832D01*
X0100686Y0121815D02*
X0122733Y0121815D01*
X0122733Y0122798D02*
X0100489Y0122798D01*
X0100412Y0123781D02*
X0122733Y0123781D01*
X0122733Y0124763D02*
X0099851Y0124763D01*
X0100686Y0118867D02*
X0122733Y0118867D01*
X0123030Y0117884D02*
X0100521Y0117884D01*
X0100686Y0116901D02*
X0123819Y0116901D01*
X0124801Y0115918D02*
X0100686Y0115918D01*
X0100686Y0114936D02*
X0125784Y0114936D01*
X0128245Y0110022D02*
X0108461Y0110022D01*
X0108461Y0109039D02*
X0128245Y0109039D01*
X0098028Y0111295D02*
X0096453Y0109720D01*
X0095272Y0109720D01*
X0098028Y0111295D02*
X0098028Y0115232D01*
X0083619Y0127712D02*
X0080410Y0127712D01*
X0080410Y0128694D02*
X0082636Y0128694D01*
X0081653Y0129677D02*
X0080410Y0129677D01*
X0080410Y0130660D02*
X0081198Y0130660D01*
X0081198Y0131643D02*
X0080410Y0131643D01*
X0080410Y0132625D02*
X0081198Y0132625D01*
X0081198Y0133608D02*
X0080410Y0133608D01*
X0080410Y0134591D02*
X0082150Y0134591D01*
X0083132Y0135574D02*
X0080410Y0135574D01*
X0080410Y0138522D02*
X0082808Y0138522D01*
X0081825Y0139505D02*
X0080410Y0139505D01*
X0080410Y0140488D02*
X0081198Y0140488D01*
X0081198Y0141470D02*
X0080410Y0141470D01*
X0080410Y0142453D02*
X0081198Y0142453D01*
X0081198Y0143436D02*
X0080410Y0143436D01*
X0080410Y0144419D02*
X0081977Y0144419D01*
X0082960Y0145401D02*
X0080410Y0145401D01*
X0080410Y0146384D02*
X0105804Y0146384D01*
X0105804Y0147367D02*
X0080410Y0147367D01*
X0080410Y0148350D02*
X0082981Y0148350D01*
X0081998Y0149332D02*
X0080410Y0149332D01*
X0080410Y0150315D02*
X0081198Y0150315D01*
X0081198Y0151298D02*
X0080410Y0151298D01*
X0080410Y0152281D02*
X0081198Y0152281D01*
X0081198Y0153263D02*
X0080410Y0153263D01*
X0080410Y0154246D02*
X0081805Y0154246D01*
X0082788Y0155229D02*
X0080410Y0155229D01*
X0080410Y0156212D02*
X0109249Y0156212D01*
X0109249Y0159160D02*
X0088689Y0159160D01*
X0089662Y0160143D02*
X0109725Y0160143D01*
X0139957Y0140823D02*
X0139957Y0140626D01*
X0139760Y0140429D01*
X0142615Y0149332D02*
X0144100Y0149332D01*
X0143117Y0150315D02*
X0142615Y0150315D01*
X0142964Y0150469D02*
X0142964Y0150469D01*
X0146356Y0154246D02*
X0146551Y0154246D01*
X0146453Y0155229D02*
X0146453Y0155229D01*
X0146453Y0156212D02*
X0146453Y0156212D01*
X0154327Y0154996D02*
X0154327Y0151846D01*
X0155902Y0151846D01*
X0154327Y0151846D02*
X0154327Y0140035D01*
X0157083Y0144760D02*
X0157083Y0148303D01*
X0154327Y0154996D02*
X0155902Y0156571D01*
X0241827Y0177833D02*
X0244915Y0177833D01*
X0243932Y0178815D02*
X0241827Y0178815D01*
X0241827Y0179798D02*
X0242950Y0179798D01*
X0242615Y0180781D02*
X0241827Y0180781D01*
X0241827Y0181764D02*
X0242615Y0181764D01*
X0242615Y0182746D02*
X0241827Y0182746D01*
X0241827Y0183729D02*
X0242705Y0183729D01*
X0241827Y0184712D02*
X0243688Y0184712D01*
X0244671Y0185695D02*
X0241827Y0185695D01*
X0255902Y0185311D02*
X0260627Y0180587D01*
X0268698Y0180587D01*
X0268894Y0180390D01*
X0283068Y0171138D02*
X0283068Y0169563D01*
X0296870Y0154246D02*
X0299012Y0154246D01*
X0298717Y0153263D02*
X0296552Y0153263D01*
X0296552Y0152281D02*
X0298717Y0152281D01*
X0298717Y0151298D02*
X0296552Y0151298D01*
X0296552Y0150315D02*
X0298717Y0150315D01*
X0298717Y0149332D02*
X0296552Y0149332D01*
X0296552Y0148350D02*
X0298717Y0148350D01*
X0304032Y0148350D02*
X0306500Y0148350D01*
X0305517Y0149332D02*
X0304032Y0149332D01*
X0304032Y0150315D02*
X0304534Y0150315D01*
X0340351Y0151298D02*
X0342615Y0151298D01*
X0342615Y0152281D02*
X0340351Y0152281D01*
X0340351Y0153263D02*
X0342615Y0153263D01*
X0341981Y0154246D02*
X0340351Y0154246D01*
X0340351Y0155229D02*
X0340998Y0155229D01*
X0340548Y0158185D02*
X0346847Y0151886D01*
X0351079Y0152281D02*
X0351867Y0152281D01*
X0351867Y0153263D02*
X0351079Y0153263D01*
X0350472Y0154246D02*
X0351867Y0154246D01*
X0351867Y0155229D02*
X0349489Y0155229D01*
X0351867Y0156212D02*
X0345027Y0156212D01*
X0342615Y0150315D02*
X0341041Y0150315D01*
X0342024Y0149332D02*
X0343415Y0149332D01*
X0343007Y0148350D02*
X0344398Y0148350D01*
X0343990Y0147367D02*
X0351867Y0147367D01*
X0351867Y0148350D02*
X0349296Y0148350D01*
X0350279Y0149332D02*
X0351867Y0149332D01*
X0351867Y0150315D02*
X0351079Y0150315D01*
X0351079Y0151298D02*
X0351867Y0151298D01*
X0351867Y0146384D02*
X0344972Y0146384D01*
X0349317Y0145401D02*
X0351867Y0145401D01*
X0351867Y0144419D02*
X0350300Y0144419D01*
X0351079Y0143436D02*
X0351867Y0143436D01*
X0351867Y0142453D02*
X0351079Y0142453D01*
X0351867Y0136556D02*
X0344564Y0136556D01*
D35*
X0331099Y0130587D03*
X0331493Y0126256D03*
X0329918Y0136098D03*
X0318501Y0138854D03*
X0311020Y0146335D03*
X0311414Y0153028D03*
X0318501Y0148303D03*
X0322044Y0165626D03*
X0323225Y0171531D03*
X0326768Y0171138D03*
X0330312Y0171138D03*
X0312989Y0183343D03*
X0316532Y0186886D03*
X0312989Y0190823D03*
X0309446Y0186886D03*
X0323225Y0199484D03*
X0325587Y0201846D03*
X0322831Y0204602D03*
X0320075Y0206965D03*
X0311020Y0210902D03*
X0302359Y0210508D03*
X0295666Y0203815D03*
X0295666Y0198303D03*
X0295666Y0192791D03*
X0284642Y0198303D03*
X0269288Y0200272D03*
X0262989Y0198303D03*
X0260627Y0195941D03*
X0249997Y0196728D03*
X0249997Y0206965D03*
X0249997Y0216807D03*
X0249997Y0226650D03*
X0249997Y0236886D03*
X0249997Y0247122D03*
X0262201Y0243579D03*
X0272831Y0259720D03*
X0281886Y0259720D03*
X0283855Y0256571D03*
X0288973Y0263657D03*
X0291335Y0261295D03*
X0294879Y0261295D03*
X0294879Y0264445D03*
X0293698Y0267988D03*
X0297241Y0267988D03*
X0300784Y0267988D03*
X0304721Y0267594D03*
X0304721Y0261295D03*
X0299209Y0260508D03*
X0297635Y0254602D03*
X0306296Y0248697D03*
X0309839Y0256571D03*
X0298816Y0264445D03*
X0289367Y0268382D03*
X0281099Y0271531D03*
X0278343Y0271531D03*
X0276375Y0269563D03*
X0274406Y0271531D03*
X0272438Y0269563D03*
X0270469Y0271531D03*
X0268501Y0269563D03*
X0266532Y0271531D03*
X0264564Y0269563D03*
X0262595Y0271531D03*
X0260627Y0269563D03*
X0258658Y0271531D03*
X0256690Y0269563D03*
X0254721Y0271531D03*
X0252753Y0269563D03*
X0250784Y0271531D03*
X0248816Y0269563D03*
X0246847Y0271531D03*
X0244879Y0269563D03*
X0242910Y0271531D03*
X0282280Y0243579D03*
X0293304Y0240429D03*
X0298028Y0236098D03*
X0298028Y0232949D03*
X0299603Y0229012D03*
X0302753Y0226256D03*
X0303146Y0220744D03*
X0330312Y0199091D03*
X0326375Y0195154D03*
X0295666Y0180193D03*
X0295666Y0171925D03*
X0284642Y0174681D03*
X0285823Y0178618D03*
X0283068Y0180587D03*
X0285823Y0164051D03*
X0288186Y0164051D03*
X0293698Y0163264D03*
X0299209Y0161295D03*
X0297635Y0158539D03*
X0297635Y0145941D03*
X0290942Y0145941D03*
X0283068Y0145941D03*
X0278737Y0151059D03*
X0266926Y0154602D03*
X0265745Y0163657D03*
X0270469Y0163657D03*
X0249997Y0167201D03*
X0249997Y0177043D03*
X0249997Y0186886D03*
X0249997Y0156965D03*
X0249997Y0146728D03*
X0249997Y0136886D03*
X0249997Y0127043D03*
X0254721Y0123106D03*
X0259446Y0123106D03*
X0248028Y0113264D03*
X0274406Y0135311D03*
X0315745Y0126256D03*
X0338973Y0117594D03*
X0177556Y0117594D03*
X0170075Y0126256D03*
X0169682Y0130587D03*
X0168501Y0136098D03*
X0157083Y0138854D03*
X0149603Y0146335D03*
X0149997Y0153028D03*
X0157083Y0148303D03*
X0137792Y0161295D03*
X0136217Y0158539D03*
X0132280Y0163264D03*
X0126768Y0164051D03*
X0124406Y0164051D03*
X0123225Y0174681D03*
X0124406Y0178618D03*
X0121650Y0180587D03*
X0134249Y0180193D03*
X0134249Y0171925D03*
X0148028Y0186886D03*
X0151572Y0183343D03*
X0155115Y0186886D03*
X0151572Y0190823D03*
X0161808Y0199484D03*
X0164170Y0201846D03*
X0161414Y0204602D03*
X0158658Y0206965D03*
X0149603Y0210902D03*
X0140942Y0210508D03*
X0134249Y0203815D03*
X0134249Y0198303D03*
X0134249Y0192791D03*
X0123225Y0198303D03*
X0107871Y0200272D03*
X0101572Y0198303D03*
X0099209Y0195941D03*
X0088579Y0196728D03*
X0088579Y0206965D03*
X0088579Y0216807D03*
X0088579Y0226650D03*
X0088579Y0236886D03*
X0100784Y0243579D03*
X0088579Y0247122D03*
X0111414Y0259720D03*
X0120469Y0259720D03*
X0122438Y0256571D03*
X0127556Y0263657D03*
X0129918Y0261295D03*
X0133461Y0261295D03*
X0133461Y0264445D03*
X0132280Y0267988D03*
X0135823Y0267988D03*
X0139367Y0267988D03*
X0143304Y0267594D03*
X0143304Y0261295D03*
X0137792Y0260508D03*
X0136217Y0254602D03*
X0144879Y0248697D03*
X0148422Y0256571D03*
X0137398Y0264445D03*
X0127949Y0268382D03*
X0119682Y0271531D03*
X0116926Y0271531D03*
X0114957Y0269563D03*
X0112989Y0271531D03*
X0111020Y0269563D03*
X0109052Y0271531D03*
X0107083Y0269563D03*
X0105115Y0271531D03*
X0103146Y0269563D03*
X0101178Y0271531D03*
X0099209Y0269563D03*
X0097241Y0271531D03*
X0095272Y0269563D03*
X0093304Y0271531D03*
X0091335Y0269563D03*
X0089367Y0271531D03*
X0087398Y0269563D03*
X0085430Y0271531D03*
X0083461Y0269563D03*
X0081493Y0271531D03*
X0120863Y0243579D03*
X0131886Y0240429D03*
X0136611Y0236098D03*
X0136611Y0232949D03*
X0138186Y0229012D03*
X0141335Y0226256D03*
X0141729Y0220744D03*
X0168894Y0199091D03*
X0164957Y0195154D03*
X0161808Y0171531D03*
X0165351Y0171138D03*
X0168894Y0171138D03*
X0160627Y0165626D03*
X0136217Y0145941D03*
X0129524Y0145941D03*
X0121650Y0145941D03*
X0117320Y0151059D03*
X0105509Y0154602D03*
X0104327Y0163657D03*
X0109052Y0163657D03*
X0088579Y0167201D03*
X0088579Y0177043D03*
X0088579Y0186886D03*
X0088579Y0156965D03*
X0088579Y0146728D03*
X0088579Y0136886D03*
X0088579Y0127043D03*
X0093304Y0123106D03*
X0098028Y0123106D03*
X0086611Y0113264D03*
X0112989Y0135311D03*
X0154327Y0126256D03*
X0167713Y0269563D03*
X0165745Y0271531D03*
X0162595Y0271531D03*
X0159446Y0271531D03*
X0156296Y0271531D03*
X0153540Y0271531D03*
X0150784Y0271531D03*
X0169682Y0271531D03*
X0171650Y0269563D03*
X0173619Y0271531D03*
X0175587Y0269563D03*
X0177556Y0271531D03*
X0179524Y0269563D03*
X0181493Y0271531D03*
X0183461Y0269563D03*
X0185430Y0271531D03*
X0187398Y0269563D03*
X0189367Y0271531D03*
X0312201Y0271531D03*
X0314957Y0271531D03*
X0317713Y0271531D03*
X0320863Y0271531D03*
X0324012Y0271531D03*
X0327162Y0271531D03*
X0329131Y0269563D03*
X0331099Y0271531D03*
X0333068Y0269563D03*
X0335036Y0271531D03*
X0337005Y0269563D03*
X0338973Y0271531D03*
X0340942Y0269563D03*
X0342910Y0271531D03*
X0344879Y0269563D03*
X0346847Y0271531D03*
X0348816Y0269563D03*
X0350784Y0271531D03*
D36*
X0265745Y0166807D02*
X0265745Y0163657D01*
X0104327Y0163657D02*
X0104327Y0166807D01*
D37*
X0126375Y0183343D02*
X0129524Y0183343D01*
X0136217Y0183343D02*
X0136611Y0183736D01*
X0150587Y0200469D02*
X0150587Y0202043D01*
X0149603Y0203028D01*
X0149603Y0207752D02*
X0149603Y0210902D01*
X0144879Y0214445D02*
X0140942Y0210508D01*
X0141729Y0220744D02*
X0144879Y0220744D01*
X0111414Y0200272D02*
X0107871Y0200272D01*
X0099209Y0195941D02*
X0099209Y0192791D01*
X0146453Y0156571D02*
X0146453Y0153028D01*
X0149997Y0153028D01*
X0160627Y0161295D02*
X0160627Y0165626D01*
X0136217Y0145941D02*
X0136217Y0140823D01*
X0130312Y0115232D02*
X0130312Y0114445D01*
X0129524Y0115232D01*
X0128737Y0114839D02*
X0130312Y0113264D01*
X0130312Y0114445D01*
X0130312Y0113264D02*
X0130312Y0108343D01*
X0128737Y0114839D02*
X0128737Y0115626D01*
X0260627Y0192791D02*
X0260627Y0195941D01*
X0269288Y0200272D02*
X0272831Y0200272D01*
X0287792Y0183343D02*
X0290942Y0183343D01*
X0297635Y0183343D02*
X0298028Y0183736D01*
X0312005Y0200469D02*
X0312005Y0202043D01*
X0311020Y0203028D01*
X0311020Y0207752D02*
X0311020Y0210902D01*
X0306296Y0214445D02*
X0302359Y0210508D01*
X0303146Y0220744D02*
X0306296Y0220744D01*
X0322044Y0165626D02*
X0322044Y0161295D01*
X0311414Y0153028D02*
X0307871Y0153028D01*
X0307871Y0156571D01*
X0297635Y0145941D02*
X0297635Y0140823D01*
X0291729Y0115232D02*
X0291729Y0114445D01*
X0290942Y0115232D01*
X0290154Y0114839D02*
X0291729Y0113264D01*
X0291729Y0114445D01*
X0291729Y0113264D02*
X0291729Y0108343D01*
X0290154Y0114839D02*
X0290154Y0115626D01*
D38*
X0293698Y0139445D02*
X0293698Y0140823D01*
X0293894Y0140823D01*
X0293894Y0151059D02*
X0294091Y0151059D01*
X0294091Y0154996D01*
X0292910Y0171925D02*
X0295666Y0171925D01*
X0298422Y0171925D01*
X0295666Y0180193D02*
X0295666Y0183343D01*
X0297635Y0183343D01*
X0295666Y0192791D02*
X0292516Y0192791D01*
X0292516Y0198303D02*
X0295666Y0198303D01*
X0295666Y0203815D02*
X0292516Y0203815D01*
X0302359Y0210508D02*
X0309839Y0203028D01*
X0311020Y0203028D01*
X0270469Y0172319D02*
X0270469Y0166807D01*
X0270469Y0163657D01*
X0306296Y0248697D02*
X0306296Y0252240D01*
X0306296Y0254996D01*
X0305115Y0256177D01*
X0149603Y0203028D02*
X0148422Y0203028D01*
X0140942Y0210508D01*
X0134249Y0203815D02*
X0131099Y0203815D01*
X0131099Y0198303D02*
X0134249Y0198303D01*
X0134249Y0192791D02*
X0131099Y0192791D01*
X0134249Y0183343D02*
X0136217Y0183343D01*
X0134249Y0183343D02*
X0134249Y0180193D01*
X0134249Y0171925D02*
X0131493Y0171925D01*
X0134249Y0171925D02*
X0137005Y0171925D01*
X0132674Y0154996D02*
X0132674Y0151059D01*
X0132477Y0151059D01*
X0132477Y0140823D02*
X0132280Y0140823D01*
X0132280Y0139445D01*
X0109052Y0163657D02*
X0109052Y0166807D01*
X0109052Y0172319D01*
X0144879Y0248697D02*
X0144879Y0252240D01*
X0144879Y0254996D01*
X0143698Y0256177D01*
D39*
X0126768Y0164051D02*
X0124406Y0164051D01*
X0125587Y0162870D01*
X0125587Y0156177D01*
X0131493Y0156177D01*
X0132674Y0154996D01*
X0125587Y0162870D02*
X0126768Y0164051D01*
X0132280Y0139445D02*
X0132280Y0135705D01*
X0125587Y0135705D01*
X0125587Y0119169D01*
X0129524Y0115232D01*
X0285823Y0164051D02*
X0288186Y0164051D01*
X0287005Y0162870D01*
X0287005Y0156177D01*
X0292910Y0156177D01*
X0294091Y0154996D01*
X0287005Y0162870D02*
X0285823Y0164051D01*
X0293698Y0139445D02*
X0293698Y0135705D01*
X0287005Y0135705D01*
X0287005Y0119169D01*
X0290942Y0115232D01*
D40*
X0304524Y0256177D02*
X0305115Y0256177D01*
X0305509Y0256177D01*
X0305509Y0258933D01*
X0305115Y0258933D01*
X0304721Y0258933D01*
X0305115Y0258933D02*
X0305115Y0256177D01*
X0304524Y0256177D02*
X0304524Y0258146D01*
X0144091Y0258933D02*
X0144091Y0256177D01*
X0143698Y0256177D01*
X0143698Y0258933D01*
X0144091Y0258933D01*
X0143698Y0258933D02*
X0143304Y0258933D01*
X0143107Y0258146D02*
X0143107Y0256177D01*
X0143698Y0256177D01*
M02*
