G75*
%MOIN*%
%OFA0B0*%
%FSLAX25Y25*%
%IPPOS*%
%LPD*%
%AMOC8*
5,1,8,0,0,1.08239X$1,22.5*
%
%ADD10R,0.02165X0.00984*%
%ADD11C,0.00984*%
%ADD12C,0.00787*%
%ADD13R,0.03937X0.03937*%
%ADD14C,0.01575*%
%ADD15R,0.01181X0.01181*%
%ADD16R,0.05512X0.09449*%
%ADD17R,0.02362X0.02362*%
%ADD18R,0.04331X0.01575*%
%ADD19R,0.04331X0.01772*%
%ADD20R,0.03937X0.03150*%
%ADD21C,0.02362*%
%ADD22C,0.03150*%
%ADD23C,0.01181*%
%ADD24R,0.06693X0.05906*%
%ADD25R,0.05512X0.05906*%
%ADD26R,0.04331X0.02756*%
D10*
X0146847Y0282654D03*
X0308264Y0282654D03*
D11*
X0308855Y0270843D02*
X0307674Y0270843D01*
X0307674Y0268283D02*
X0308855Y0268283D01*
X0308855Y0265724D02*
X0307674Y0265724D01*
X0307674Y0263165D02*
X0308855Y0263165D01*
X0308855Y0260606D02*
X0307674Y0260606D01*
X0307674Y0258047D02*
X0308855Y0258047D01*
X0304524Y0257555D02*
X0304524Y0258736D01*
X0301965Y0258736D02*
X0301965Y0257555D01*
X0299406Y0257555D02*
X0299406Y0258736D01*
X0296847Y0258736D02*
X0296847Y0257555D01*
X0294288Y0257555D02*
X0294288Y0258736D01*
X0291729Y0258736D02*
X0291729Y0257555D01*
X0289170Y0257555D02*
X0289170Y0258736D01*
X0286020Y0258047D02*
X0284839Y0258047D01*
X0284839Y0260606D02*
X0286020Y0260606D01*
X0286020Y0263165D02*
X0284839Y0263165D01*
X0284839Y0265724D02*
X0286020Y0265724D01*
X0286020Y0268283D02*
X0284839Y0268283D01*
X0284839Y0270843D02*
X0286020Y0270843D01*
X0289170Y0271335D02*
X0289170Y0270154D01*
X0291729Y0270154D02*
X0291729Y0271335D01*
X0294288Y0271335D02*
X0294288Y0270154D01*
X0296847Y0270154D02*
X0296847Y0271335D01*
X0299406Y0271335D02*
X0299406Y0270154D01*
X0301965Y0270154D02*
X0301965Y0271335D01*
X0304524Y0271335D02*
X0304524Y0270154D01*
X0301375Y0265724D02*
X0300194Y0265724D01*
X0300194Y0263165D02*
X0301375Y0263165D01*
X0297438Y0263165D02*
X0296257Y0263165D01*
X0296257Y0265724D02*
X0297438Y0265724D01*
X0293501Y0265724D02*
X0292320Y0265724D01*
X0292320Y0263165D02*
X0293501Y0263165D01*
X0286020Y0282654D02*
X0284839Y0282654D01*
X0147438Y0270843D02*
X0146257Y0270843D01*
X0146257Y0268283D02*
X0147438Y0268283D01*
X0147438Y0265724D02*
X0146257Y0265724D01*
X0146257Y0263165D02*
X0147438Y0263165D01*
X0147438Y0260606D02*
X0146257Y0260606D01*
X0146257Y0258047D02*
X0147438Y0258047D01*
X0143107Y0257555D02*
X0143107Y0258736D01*
X0140548Y0258736D02*
X0140548Y0257555D01*
X0137989Y0257555D02*
X0137989Y0258736D01*
X0135430Y0258736D02*
X0135430Y0257555D01*
X0132871Y0257555D02*
X0132871Y0258736D01*
X0130312Y0258736D02*
X0130312Y0257555D01*
X0127753Y0257555D02*
X0127753Y0258736D01*
X0124603Y0258047D02*
X0123422Y0258047D01*
X0123422Y0260606D02*
X0124603Y0260606D01*
X0124603Y0263165D02*
X0123422Y0263165D01*
X0123422Y0265724D02*
X0124603Y0265724D01*
X0124603Y0268283D02*
X0123422Y0268283D01*
X0123422Y0270843D02*
X0124603Y0270843D01*
X0127753Y0271335D02*
X0127753Y0270154D01*
X0130312Y0270154D02*
X0130312Y0271335D01*
X0132871Y0271335D02*
X0132871Y0270154D01*
X0135430Y0270154D02*
X0135430Y0271335D01*
X0137989Y0271335D02*
X0137989Y0270154D01*
X0140548Y0270154D02*
X0140548Y0271335D01*
X0143107Y0271335D02*
X0143107Y0270154D01*
X0139957Y0265724D02*
X0138776Y0265724D01*
X0138776Y0263165D02*
X0139957Y0263165D01*
X0136020Y0263165D02*
X0134839Y0263165D01*
X0134839Y0265724D02*
X0136020Y0265724D01*
X0132083Y0265724D02*
X0130902Y0265724D01*
X0130902Y0263165D02*
X0132083Y0263165D01*
X0124603Y0282654D02*
X0123422Y0282654D01*
D12*
X0127654Y0265823D02*
X0127654Y0265626D01*
X0127851Y0265626D01*
X0127851Y0265823D01*
X0127654Y0265823D01*
X0142615Y0265823D02*
X0142615Y0265626D01*
X0142812Y0265626D01*
X0142812Y0265823D01*
X0142615Y0265823D01*
X0142615Y0263264D02*
X0142615Y0263067D01*
X0142812Y0263067D01*
X0142812Y0263264D01*
X0142615Y0263264D01*
X0144682Y0198500D02*
X0144682Y0195547D01*
X0146650Y0195547D02*
X0146650Y0198500D01*
X0148619Y0198500D02*
X0148619Y0195547D01*
X0150587Y0195547D02*
X0150587Y0198500D01*
X0152556Y0198500D02*
X0152556Y0195547D01*
X0154524Y0195547D02*
X0154524Y0198500D01*
X0156493Y0198500D02*
X0156493Y0195547D01*
X0158461Y0195547D02*
X0158461Y0198500D01*
X0160233Y0193776D02*
X0163186Y0193776D01*
X0163186Y0191807D02*
X0160233Y0191807D01*
X0160233Y0189839D02*
X0163186Y0189839D01*
X0163186Y0187870D02*
X0160233Y0187870D01*
X0160233Y0185902D02*
X0163186Y0185902D01*
X0163186Y0183933D02*
X0160233Y0183933D01*
X0160233Y0181965D02*
X0163186Y0181965D01*
X0163186Y0179996D02*
X0160233Y0179996D01*
X0158461Y0178224D02*
X0158461Y0175272D01*
X0156493Y0175272D02*
X0156493Y0178224D01*
X0154524Y0178224D02*
X0154524Y0175272D01*
X0152556Y0175272D02*
X0152556Y0178224D01*
X0150587Y0178224D02*
X0150587Y0175272D01*
X0148619Y0175272D02*
X0148619Y0178224D01*
X0146650Y0178224D02*
X0146650Y0175272D01*
X0144682Y0175272D02*
X0144682Y0178224D01*
X0142910Y0179996D02*
X0139957Y0179996D01*
X0139957Y0181965D02*
X0142910Y0181965D01*
X0142910Y0183933D02*
X0139957Y0183933D01*
X0139957Y0185902D02*
X0142910Y0185902D01*
X0142910Y0187870D02*
X0139957Y0187870D01*
X0139957Y0189839D02*
X0142910Y0189839D01*
X0142910Y0191807D02*
X0139957Y0191807D01*
X0139957Y0193776D02*
X0142910Y0193776D01*
X0136217Y0149484D02*
X0131886Y0149484D01*
X0131886Y0146728D01*
X0136217Y0146728D01*
X0136217Y0149484D01*
X0136217Y0145154D02*
X0131886Y0145154D01*
X0131886Y0142398D01*
X0136217Y0142398D01*
X0136217Y0145154D01*
X0130312Y0145154D02*
X0130312Y0142398D01*
X0125981Y0142398D01*
X0125981Y0145154D01*
X0130312Y0145154D01*
X0130312Y0146728D02*
X0125981Y0146728D01*
X0125981Y0149484D01*
X0130312Y0149484D01*
X0130312Y0146728D01*
X0287398Y0146728D02*
X0287398Y0149484D01*
X0291729Y0149484D01*
X0291729Y0146728D01*
X0287398Y0146728D01*
X0287398Y0145154D02*
X0287398Y0142398D01*
X0291729Y0142398D01*
X0291729Y0145154D01*
X0287398Y0145154D01*
X0293304Y0145154D02*
X0293304Y0142398D01*
X0297635Y0142398D01*
X0297635Y0145154D01*
X0293304Y0145154D01*
X0293304Y0146728D02*
X0293304Y0149484D01*
X0297635Y0149484D01*
X0297635Y0146728D01*
X0293304Y0146728D01*
X0306099Y0175272D02*
X0306099Y0178224D01*
X0308068Y0178224D02*
X0308068Y0175272D01*
X0310036Y0175272D02*
X0310036Y0178224D01*
X0312005Y0178224D02*
X0312005Y0175272D01*
X0313973Y0175272D02*
X0313973Y0178224D01*
X0315942Y0178224D02*
X0315942Y0175272D01*
X0317910Y0175272D02*
X0317910Y0178224D01*
X0319879Y0178224D02*
X0319879Y0175272D01*
X0321650Y0179996D02*
X0324603Y0179996D01*
X0324603Y0181965D02*
X0321650Y0181965D01*
X0321650Y0183933D02*
X0324603Y0183933D01*
X0324603Y0185902D02*
X0321650Y0185902D01*
X0321650Y0187870D02*
X0324603Y0187870D01*
X0324603Y0189839D02*
X0321650Y0189839D01*
X0321650Y0191807D02*
X0324603Y0191807D01*
X0324603Y0193776D02*
X0321650Y0193776D01*
X0319879Y0195547D02*
X0319879Y0198500D01*
X0317910Y0198500D02*
X0317910Y0195547D01*
X0315942Y0195547D02*
X0315942Y0198500D01*
X0313973Y0198500D02*
X0313973Y0195547D01*
X0312005Y0195547D02*
X0312005Y0198500D01*
X0310036Y0198500D02*
X0310036Y0195547D01*
X0308068Y0195547D02*
X0308068Y0198500D01*
X0306099Y0198500D02*
X0306099Y0195547D01*
X0304327Y0193776D02*
X0301375Y0193776D01*
X0301375Y0191807D02*
X0304327Y0191807D01*
X0304327Y0189839D02*
X0301375Y0189839D01*
X0301375Y0187870D02*
X0304327Y0187870D01*
X0304327Y0185902D02*
X0301375Y0185902D01*
X0301375Y0183933D02*
X0304327Y0183933D01*
X0304327Y0181965D02*
X0301375Y0181965D01*
X0301375Y0179996D02*
X0304327Y0179996D01*
X0304229Y0263067D02*
X0304032Y0263067D01*
X0304032Y0263264D01*
X0304229Y0263264D01*
X0304229Y0263067D01*
X0304229Y0265626D02*
X0304032Y0265626D01*
X0304032Y0265823D01*
X0304229Y0265823D01*
X0304229Y0265626D01*
X0289268Y0265626D02*
X0289072Y0265626D01*
X0289072Y0265823D01*
X0289268Y0265823D01*
X0289268Y0265626D01*
D13*
X0320075Y0259720D03*
X0320075Y0250272D03*
X0158658Y0250272D03*
X0158658Y0259720D03*
D14*
X0117910Y0100469D02*
X0117910Y0094957D01*
X0124209Y0094957D01*
X0124209Y0100469D01*
X0117910Y0100469D01*
X0112398Y0099484D02*
X0112398Y0097909D01*
X0108068Y0097909D01*
X0108068Y0099484D01*
X0112398Y0099484D01*
X0112398Y0103421D02*
X0108068Y0103421D01*
X0108068Y0104996D01*
X0112398Y0104996D01*
X0112398Y0103421D01*
X0112398Y0108933D02*
X0108068Y0108933D01*
X0108068Y0110508D01*
X0112398Y0110508D01*
X0112398Y0108933D01*
X0097438Y0108933D02*
X0093107Y0108933D01*
X0093107Y0110508D01*
X0097438Y0110508D01*
X0097438Y0108933D01*
X0097438Y0104996D02*
X0093107Y0104996D01*
X0093107Y0103421D01*
X0097438Y0103421D01*
X0097438Y0104996D01*
X0097438Y0099484D02*
X0093107Y0099484D01*
X0093107Y0097909D01*
X0097438Y0097909D01*
X0097438Y0099484D01*
X0108264Y0122713D02*
X0113776Y0122713D01*
X0113776Y0132161D01*
X0108264Y0132161D01*
X0108264Y0122713D01*
X0093698Y0134524D02*
X0092910Y0134524D01*
X0092910Y0135311D01*
X0093698Y0135311D01*
X0093698Y0134524D01*
X0093698Y0139248D02*
X0092910Y0139248D01*
X0092910Y0140035D01*
X0093698Y0140035D01*
X0093698Y0139248D01*
X0093698Y0145941D02*
X0092910Y0145941D01*
X0092910Y0146728D01*
X0093698Y0146728D01*
X0093698Y0145941D01*
X0097635Y0145941D02*
X0097635Y0146728D01*
X0098422Y0146728D01*
X0098422Y0145941D01*
X0097635Y0145941D01*
X0097635Y0150665D02*
X0097635Y0151453D01*
X0098422Y0151453D01*
X0098422Y0150665D01*
X0097635Y0150665D01*
X0093698Y0150665D02*
X0092910Y0150665D01*
X0092910Y0151453D01*
X0093698Y0151453D01*
X0093698Y0150665D01*
X0108264Y0151846D02*
X0108264Y0142398D01*
X0113776Y0142398D01*
X0113776Y0151846D01*
X0108264Y0151846D01*
X0118698Y0153224D02*
X0120666Y0153224D01*
X0120666Y0155193D01*
X0118698Y0155193D01*
X0118698Y0153224D01*
X0118698Y0160311D02*
X0120666Y0160311D01*
X0120666Y0162280D01*
X0118698Y0162280D01*
X0118698Y0160311D01*
X0109446Y0166413D02*
X0109446Y0167201D01*
X0108658Y0167201D01*
X0108658Y0166413D01*
X0109446Y0166413D01*
X0108855Y0170941D02*
X0108855Y0171728D01*
X0106099Y0171728D01*
X0106099Y0170941D01*
X0108855Y0170941D01*
X0104721Y0167201D02*
X0104721Y0166413D01*
X0103934Y0166413D01*
X0103934Y0167201D01*
X0104721Y0167201D01*
X0106099Y0178421D02*
X0106099Y0179209D01*
X0108855Y0179209D01*
X0108855Y0178421D01*
X0106099Y0178421D01*
X0104721Y0185705D02*
X0104721Y0188461D01*
X0108264Y0188461D01*
X0108264Y0185705D01*
X0104721Y0185705D01*
X0099603Y0187673D02*
X0098816Y0187673D01*
X0098816Y0188461D01*
X0099603Y0188461D01*
X0099603Y0187673D01*
X0099603Y0192398D02*
X0098816Y0192398D01*
X0098816Y0193185D01*
X0099603Y0193185D01*
X0099603Y0192398D01*
X0104721Y0192398D02*
X0104721Y0195154D01*
X0108264Y0195154D01*
X0108264Y0192398D01*
X0104721Y0192398D01*
X0113776Y0192398D02*
X0113776Y0195154D01*
X0117320Y0195154D01*
X0117320Y0192398D01*
X0113776Y0192398D01*
X0113776Y0188461D02*
X0117320Y0188461D01*
X0117320Y0185705D01*
X0113776Y0185705D01*
X0113776Y0188461D01*
X0116335Y0179209D02*
X0116335Y0178421D01*
X0119091Y0178421D01*
X0119091Y0179209D01*
X0116335Y0179209D01*
X0116335Y0175469D02*
X0116335Y0174681D01*
X0119091Y0174681D01*
X0119091Y0175469D01*
X0116335Y0175469D01*
X0116335Y0171728D02*
X0116335Y0170941D01*
X0119091Y0170941D01*
X0119091Y0171728D01*
X0116335Y0171728D01*
X0126375Y0171531D02*
X0126375Y0172319D01*
X0127162Y0172319D01*
X0127162Y0171531D01*
X0126375Y0171531D01*
X0131099Y0171531D02*
X0131099Y0172319D01*
X0131886Y0172319D01*
X0131886Y0171531D01*
X0131099Y0171531D01*
X0136611Y0171531D02*
X0136611Y0172319D01*
X0137398Y0172319D01*
X0137398Y0171531D01*
X0136611Y0171531D01*
X0136611Y0167594D02*
X0137398Y0167594D01*
X0137398Y0166807D01*
X0136611Y0166807D01*
X0136611Y0167594D01*
X0132674Y0167594D02*
X0132674Y0166807D01*
X0131886Y0166807D01*
X0131886Y0167594D01*
X0132674Y0167594D01*
X0141335Y0171531D02*
X0141335Y0172319D01*
X0142123Y0172319D01*
X0142123Y0171531D01*
X0141335Y0171531D01*
X0146060Y0161689D02*
X0146847Y0161689D01*
X0146847Y0160902D01*
X0146060Y0160902D01*
X0146060Y0161689D01*
X0150784Y0161689D02*
X0151572Y0161689D01*
X0151572Y0160902D01*
X0150784Y0160902D01*
X0150784Y0161689D01*
X0155509Y0161689D02*
X0156296Y0161689D01*
X0156296Y0160902D01*
X0155509Y0160902D01*
X0155509Y0161689D01*
X0160233Y0161689D02*
X0161020Y0161689D01*
X0161020Y0160902D01*
X0160233Y0160902D01*
X0160233Y0161689D01*
X0160233Y0156965D02*
X0161020Y0156965D01*
X0161020Y0156177D01*
X0160233Y0156177D01*
X0160233Y0156965D01*
X0156296Y0156965D02*
X0156296Y0156177D01*
X0155509Y0156177D01*
X0155509Y0156965D01*
X0156296Y0156965D01*
X0151572Y0156965D02*
X0151572Y0156177D01*
X0150784Y0156177D01*
X0150784Y0156965D01*
X0151572Y0156965D01*
X0146847Y0156965D02*
X0146060Y0156965D01*
X0146060Y0156177D01*
X0146847Y0156177D01*
X0146847Y0156965D01*
X0155509Y0152240D02*
X0156296Y0152240D01*
X0156296Y0151453D01*
X0155509Y0151453D01*
X0155509Y0152240D01*
X0160233Y0152240D02*
X0161020Y0152240D01*
X0161020Y0151453D01*
X0160233Y0151453D01*
X0160233Y0152240D01*
X0157477Y0145744D02*
X0157477Y0143776D01*
X0156690Y0143776D01*
X0156690Y0145744D01*
X0157477Y0145744D01*
X0163776Y0145744D02*
X0164564Y0145744D01*
X0164564Y0143776D01*
X0163776Y0143776D01*
X0163776Y0145744D01*
X0161020Y0136295D02*
X0161020Y0134327D01*
X0160233Y0134327D01*
X0160233Y0136295D01*
X0161020Y0136295D01*
X0133658Y0132358D02*
X0133658Y0130390D01*
X0131690Y0130390D01*
X0131690Y0132358D01*
X0133658Y0132358D01*
X0126572Y0132358D02*
X0126572Y0130390D01*
X0124603Y0130390D01*
X0124603Y0132358D01*
X0126572Y0132358D01*
X0128343Y0100469D02*
X0128343Y0094957D01*
X0133461Y0094957D01*
X0133461Y0100469D01*
X0128343Y0100469D01*
X0137398Y0100469D02*
X0137398Y0094957D01*
X0142516Y0094957D01*
X0142516Y0100469D01*
X0137398Y0100469D01*
X0146650Y0100469D02*
X0146650Y0094957D01*
X0152949Y0094957D01*
X0152949Y0100469D01*
X0146650Y0100469D01*
X0134642Y0182949D02*
X0134642Y0183736D01*
X0133855Y0183736D01*
X0133855Y0182949D01*
X0134642Y0182949D01*
X0129918Y0182949D02*
X0129918Y0183736D01*
X0129131Y0183736D01*
X0129131Y0182949D01*
X0129918Y0182949D01*
X0130705Y0192398D02*
X0130705Y0193185D01*
X0131493Y0193185D01*
X0131493Y0192398D01*
X0130705Y0192398D01*
X0126768Y0192398D02*
X0126768Y0193185D01*
X0125981Y0193185D01*
X0125981Y0192398D01*
X0126768Y0192398D01*
X0126768Y0197909D02*
X0126768Y0198697D01*
X0125981Y0198697D01*
X0125981Y0197909D01*
X0126768Y0197909D01*
X0130705Y0197909D02*
X0130705Y0198697D01*
X0131493Y0198697D01*
X0131493Y0197909D01*
X0130705Y0197909D01*
X0130705Y0203421D02*
X0130705Y0204209D01*
X0131493Y0204209D01*
X0131493Y0203421D01*
X0130705Y0203421D01*
X0126768Y0203421D02*
X0126768Y0204209D01*
X0125981Y0204209D01*
X0125981Y0203421D01*
X0126768Y0203421D01*
X0115745Y0200665D02*
X0115745Y0199878D01*
X0114957Y0199878D01*
X0114957Y0200665D01*
X0115745Y0200665D01*
X0111020Y0200665D02*
X0111020Y0199878D01*
X0110233Y0199878D01*
X0110233Y0200665D01*
X0111020Y0200665D01*
X0117713Y0211689D02*
X0117713Y0221138D01*
X0123225Y0221138D01*
X0123225Y0211689D01*
X0117713Y0211689D01*
X0103540Y0211689D02*
X0098028Y0211689D01*
X0098028Y0221138D01*
X0103540Y0221138D01*
X0103540Y0211689D01*
X0103540Y0231374D02*
X0098028Y0231374D01*
X0098028Y0240823D01*
X0103540Y0240823D01*
X0103540Y0231374D01*
X0117713Y0231374D02*
X0117713Y0240823D01*
X0123225Y0240823D01*
X0123225Y0231374D01*
X0117713Y0231374D01*
X0112005Y0249091D02*
X0107674Y0249091D01*
X0107674Y0250665D01*
X0112005Y0250665D01*
X0112005Y0249091D01*
X0112005Y0254602D02*
X0107674Y0254602D01*
X0107674Y0256177D01*
X0112005Y0256177D01*
X0112005Y0254602D01*
X0112005Y0260114D02*
X0107674Y0260114D01*
X0107674Y0261689D01*
X0112005Y0261689D01*
X0112005Y0260114D01*
X0099997Y0265626D02*
X0099997Y0266413D01*
X0099209Y0266413D01*
X0099209Y0265626D01*
X0099997Y0265626D01*
X0095272Y0265626D02*
X0095272Y0266413D01*
X0094485Y0266413D01*
X0094485Y0265626D01*
X0095272Y0265626D01*
X0097044Y0261689D02*
X0097044Y0260114D01*
X0092713Y0260114D01*
X0092713Y0261689D01*
X0097044Y0261689D01*
X0088579Y0261689D02*
X0088579Y0260902D01*
X0087792Y0260902D01*
X0087792Y0261689D01*
X0088579Y0261689D01*
X0088579Y0265626D02*
X0087792Y0265626D01*
X0087792Y0266413D01*
X0088579Y0266413D01*
X0088579Y0265626D01*
X0083855Y0265626D02*
X0083855Y0266413D01*
X0083068Y0266413D01*
X0083068Y0265626D01*
X0083855Y0265626D01*
X0083855Y0261689D02*
X0083855Y0260902D01*
X0083068Y0260902D01*
X0083068Y0261689D01*
X0083855Y0261689D01*
X0092713Y0256177D02*
X0092713Y0254602D01*
X0097044Y0254602D01*
X0097044Y0256177D01*
X0092713Y0256177D01*
X0092713Y0250665D02*
X0092713Y0249091D01*
X0097044Y0249091D01*
X0097044Y0250665D01*
X0092713Y0250665D01*
X0144485Y0251846D02*
X0144485Y0252634D01*
X0145272Y0252634D01*
X0145272Y0251846D01*
X0144485Y0251846D01*
X0149209Y0251846D02*
X0149209Y0252634D01*
X0149997Y0252634D01*
X0149997Y0251846D01*
X0149209Y0251846D01*
X0156886Y0252043D02*
X0156886Y0248500D01*
X0160430Y0248500D01*
X0160430Y0252043D01*
X0156886Y0252043D01*
X0156886Y0257949D02*
X0160430Y0257949D01*
X0160430Y0261492D01*
X0156886Y0261492D01*
X0156886Y0257949D01*
X0149997Y0221138D02*
X0149997Y0220350D01*
X0149209Y0220350D01*
X0149209Y0221138D01*
X0149997Y0221138D01*
X0145272Y0221138D02*
X0145272Y0220350D01*
X0144485Y0220350D01*
X0144485Y0221138D01*
X0145272Y0221138D01*
X0145272Y0214839D02*
X0145272Y0214051D01*
X0144485Y0214051D01*
X0144485Y0214839D01*
X0145272Y0214839D01*
X0149209Y0214839D02*
X0149209Y0214051D01*
X0149997Y0214051D01*
X0149997Y0214839D01*
X0149209Y0214839D01*
X0149209Y0208146D02*
X0149997Y0208146D01*
X0149997Y0207358D01*
X0149209Y0207358D01*
X0149209Y0208146D01*
X0149209Y0203421D02*
X0149997Y0203421D01*
X0149997Y0202634D01*
X0149209Y0202634D01*
X0149209Y0203421D01*
X0244485Y0260902D02*
X0244485Y0261689D01*
X0245272Y0261689D01*
X0245272Y0260902D01*
X0244485Y0260902D01*
X0244485Y0265626D02*
X0244485Y0266413D01*
X0245272Y0266413D01*
X0245272Y0265626D01*
X0244485Y0265626D01*
X0249209Y0265626D02*
X0249209Y0266413D01*
X0249997Y0266413D01*
X0249997Y0265626D01*
X0249209Y0265626D01*
X0249209Y0261689D02*
X0249997Y0261689D01*
X0249997Y0260902D01*
X0249209Y0260902D01*
X0249209Y0261689D01*
X0254131Y0261689D02*
X0254131Y0260114D01*
X0258461Y0260114D01*
X0258461Y0261689D01*
X0254131Y0261689D01*
X0255902Y0265626D02*
X0255902Y0266413D01*
X0256690Y0266413D01*
X0256690Y0265626D01*
X0255902Y0265626D01*
X0260627Y0265626D02*
X0260627Y0266413D01*
X0261414Y0266413D01*
X0261414Y0265626D01*
X0260627Y0265626D01*
X0269091Y0261689D02*
X0269091Y0260114D01*
X0273422Y0260114D01*
X0273422Y0261689D01*
X0269091Y0261689D01*
X0269091Y0256177D02*
X0269091Y0254602D01*
X0273422Y0254602D01*
X0273422Y0256177D01*
X0269091Y0256177D01*
X0269091Y0250665D02*
X0269091Y0249091D01*
X0273422Y0249091D01*
X0273422Y0250665D01*
X0269091Y0250665D01*
X0258461Y0250665D02*
X0258461Y0249091D01*
X0254131Y0249091D01*
X0254131Y0250665D01*
X0258461Y0250665D01*
X0258461Y0254602D02*
X0254131Y0254602D01*
X0254131Y0256177D01*
X0258461Y0256177D01*
X0258461Y0254602D01*
X0259446Y0240823D02*
X0264957Y0240823D01*
X0264957Y0231374D01*
X0259446Y0231374D01*
X0259446Y0240823D01*
X0279131Y0240823D02*
X0279131Y0231374D01*
X0284642Y0231374D01*
X0284642Y0240823D01*
X0279131Y0240823D01*
X0279131Y0221138D02*
X0284642Y0221138D01*
X0284642Y0211689D01*
X0279131Y0211689D01*
X0279131Y0221138D01*
X0264957Y0221138D02*
X0264957Y0211689D01*
X0259446Y0211689D01*
X0259446Y0221138D01*
X0264957Y0221138D01*
X0271650Y0200665D02*
X0272438Y0200665D01*
X0272438Y0199878D01*
X0271650Y0199878D01*
X0271650Y0200665D01*
X0276375Y0200665D02*
X0276375Y0199878D01*
X0277162Y0199878D01*
X0277162Y0200665D01*
X0276375Y0200665D01*
X0275194Y0195154D02*
X0278737Y0195154D01*
X0278737Y0192398D01*
X0275194Y0192398D01*
X0275194Y0195154D01*
X0269682Y0195154D02*
X0269682Y0192398D01*
X0266138Y0192398D01*
X0266138Y0195154D01*
X0269682Y0195154D01*
X0269682Y0188461D02*
X0266138Y0188461D01*
X0266138Y0185705D01*
X0269682Y0185705D01*
X0269682Y0188461D01*
X0275194Y0188461D02*
X0275194Y0185705D01*
X0278737Y0185705D01*
X0278737Y0188461D01*
X0275194Y0188461D01*
X0277753Y0179209D02*
X0277753Y0178421D01*
X0280509Y0178421D01*
X0280509Y0179209D01*
X0277753Y0179209D01*
X0277753Y0175469D02*
X0277753Y0174681D01*
X0280509Y0174681D01*
X0280509Y0175469D01*
X0277753Y0175469D01*
X0277753Y0171728D02*
X0277753Y0170941D01*
X0280509Y0170941D01*
X0280509Y0171728D01*
X0277753Y0171728D01*
X0270272Y0171728D02*
X0270272Y0170941D01*
X0267516Y0170941D01*
X0267516Y0171728D01*
X0270272Y0171728D01*
X0270272Y0178421D02*
X0267516Y0178421D01*
X0267516Y0179209D01*
X0270272Y0179209D01*
X0270272Y0178421D01*
X0270075Y0167201D02*
X0270863Y0167201D01*
X0270863Y0166413D01*
X0270075Y0166413D01*
X0270075Y0167201D01*
X0266138Y0167201D02*
X0266138Y0166413D01*
X0265351Y0166413D01*
X0265351Y0167201D01*
X0266138Y0167201D01*
X0280115Y0162280D02*
X0280115Y0160311D01*
X0282083Y0160311D01*
X0282083Y0162280D01*
X0280115Y0162280D01*
X0280115Y0155193D02*
X0282083Y0155193D01*
X0282083Y0153224D01*
X0280115Y0153224D01*
X0280115Y0155193D01*
X0275194Y0151846D02*
X0275194Y0142398D01*
X0269682Y0142398D01*
X0269682Y0151846D01*
X0275194Y0151846D01*
X0259839Y0151453D02*
X0259052Y0151453D01*
X0259052Y0150665D01*
X0259839Y0150665D01*
X0259839Y0151453D01*
X0255115Y0151453D02*
X0254327Y0151453D01*
X0254327Y0150665D01*
X0255115Y0150665D01*
X0255115Y0151453D01*
X0255115Y0146728D02*
X0254327Y0146728D01*
X0254327Y0145941D01*
X0255115Y0145941D01*
X0255115Y0146728D01*
X0259052Y0146728D02*
X0259052Y0145941D01*
X0259839Y0145941D01*
X0259839Y0146728D01*
X0259052Y0146728D01*
X0255115Y0140035D02*
X0254327Y0140035D01*
X0254327Y0139248D01*
X0255115Y0139248D01*
X0255115Y0140035D01*
X0255115Y0135311D02*
X0254327Y0135311D01*
X0254327Y0134524D01*
X0255115Y0134524D01*
X0255115Y0135311D01*
X0269682Y0132161D02*
X0269682Y0122713D01*
X0275194Y0122713D01*
X0275194Y0132161D01*
X0269682Y0132161D01*
X0286020Y0132358D02*
X0286020Y0130390D01*
X0287989Y0130390D01*
X0287989Y0132358D01*
X0286020Y0132358D01*
X0293107Y0132358D02*
X0293107Y0130390D01*
X0295075Y0130390D01*
X0295075Y0132358D01*
X0293107Y0132358D01*
X0316926Y0151453D02*
X0316926Y0152240D01*
X0317713Y0152240D01*
X0317713Y0151453D01*
X0316926Y0151453D01*
X0316926Y0156177D02*
X0317713Y0156177D01*
X0317713Y0156965D01*
X0316926Y0156965D01*
X0316926Y0156177D01*
X0312989Y0156177D02*
X0312201Y0156177D01*
X0312201Y0156965D01*
X0312989Y0156965D01*
X0312989Y0156177D01*
X0308264Y0156177D02*
X0307477Y0156177D01*
X0307477Y0156965D01*
X0308264Y0156965D01*
X0308264Y0156177D01*
X0308264Y0160902D02*
X0307477Y0160902D01*
X0307477Y0161689D01*
X0308264Y0161689D01*
X0308264Y0160902D01*
X0312201Y0160902D02*
X0312989Y0160902D01*
X0312989Y0161689D01*
X0312201Y0161689D01*
X0312201Y0160902D01*
X0316926Y0160902D02*
X0317713Y0160902D01*
X0317713Y0161689D01*
X0316926Y0161689D01*
X0316926Y0160902D01*
X0321650Y0160902D02*
X0322438Y0160902D01*
X0322438Y0161689D01*
X0321650Y0161689D01*
X0321650Y0160902D01*
X0321650Y0156965D02*
X0322438Y0156965D01*
X0322438Y0156177D01*
X0321650Y0156177D01*
X0321650Y0156965D01*
X0321650Y0152240D02*
X0322438Y0152240D01*
X0322438Y0151453D01*
X0321650Y0151453D01*
X0321650Y0152240D01*
X0318894Y0145744D02*
X0318894Y0143776D01*
X0318107Y0143776D01*
X0318107Y0145744D01*
X0318894Y0145744D01*
X0325194Y0145744D02*
X0325981Y0145744D01*
X0325981Y0143776D01*
X0325194Y0143776D01*
X0325194Y0145744D01*
X0322438Y0136295D02*
X0321650Y0136295D01*
X0321650Y0134327D01*
X0322438Y0134327D01*
X0322438Y0136295D01*
X0298816Y0166807D02*
X0298816Y0167594D01*
X0298028Y0167594D01*
X0298028Y0166807D01*
X0298816Y0166807D01*
X0294091Y0166807D02*
X0294091Y0167594D01*
X0293304Y0167594D01*
X0293304Y0166807D01*
X0294091Y0166807D01*
X0293304Y0171531D02*
X0293304Y0172319D01*
X0292516Y0172319D01*
X0292516Y0171531D01*
X0293304Y0171531D01*
X0298028Y0171531D02*
X0298028Y0172319D01*
X0298816Y0172319D01*
X0298816Y0171531D01*
X0298028Y0171531D01*
X0302753Y0171531D02*
X0302753Y0172319D01*
X0303540Y0172319D01*
X0303540Y0171531D01*
X0302753Y0171531D01*
X0296060Y0182949D02*
X0295272Y0182949D01*
X0295272Y0183736D01*
X0296060Y0183736D01*
X0296060Y0182949D01*
X0291335Y0182949D02*
X0291335Y0183736D01*
X0290548Y0183736D01*
X0290548Y0182949D01*
X0291335Y0182949D01*
X0292123Y0192398D02*
X0292123Y0193185D01*
X0292910Y0193185D01*
X0292910Y0192398D01*
X0292123Y0192398D01*
X0288186Y0192398D02*
X0288186Y0193185D01*
X0287398Y0193185D01*
X0287398Y0192398D01*
X0288186Y0192398D01*
X0288186Y0197909D02*
X0288186Y0198697D01*
X0287398Y0198697D01*
X0287398Y0197909D01*
X0288186Y0197909D01*
X0292123Y0197909D02*
X0292123Y0198697D01*
X0292910Y0198697D01*
X0292910Y0197909D01*
X0292123Y0197909D01*
X0292123Y0203421D02*
X0292123Y0204209D01*
X0292910Y0204209D01*
X0292910Y0203421D01*
X0292123Y0203421D01*
X0288186Y0203421D02*
X0288186Y0204209D01*
X0287398Y0204209D01*
X0287398Y0203421D01*
X0288186Y0203421D01*
X0305902Y0214051D02*
X0305902Y0214839D01*
X0306690Y0214839D01*
X0306690Y0214051D01*
X0305902Y0214051D01*
X0310627Y0214051D02*
X0310627Y0214839D01*
X0311414Y0214839D01*
X0311414Y0214051D01*
X0310627Y0214051D01*
X0310627Y0208146D02*
X0311414Y0208146D01*
X0311414Y0207358D01*
X0310627Y0207358D01*
X0310627Y0208146D01*
X0310627Y0203421D02*
X0311414Y0203421D01*
X0311414Y0202634D01*
X0310627Y0202634D01*
X0310627Y0203421D01*
X0310627Y0220350D02*
X0310627Y0221138D01*
X0311414Y0221138D01*
X0311414Y0220350D01*
X0310627Y0220350D01*
X0306690Y0220350D02*
X0306690Y0221138D01*
X0305902Y0221138D01*
X0305902Y0220350D01*
X0306690Y0220350D01*
X0318304Y0248500D02*
X0321847Y0248500D01*
X0321847Y0252043D01*
X0318304Y0252043D01*
X0318304Y0248500D01*
X0311414Y0251846D02*
X0310627Y0251846D01*
X0310627Y0252634D01*
X0311414Y0252634D01*
X0311414Y0251846D01*
X0306690Y0251846D02*
X0305902Y0251846D01*
X0305902Y0252634D01*
X0306690Y0252634D01*
X0306690Y0251846D01*
X0318304Y0257949D02*
X0318304Y0261492D01*
X0321847Y0261492D01*
X0321847Y0257949D01*
X0318304Y0257949D01*
X0261020Y0193185D02*
X0260233Y0193185D01*
X0260233Y0192398D01*
X0261020Y0192398D01*
X0261020Y0193185D01*
X0261020Y0188461D02*
X0260233Y0188461D01*
X0260233Y0187673D01*
X0261020Y0187673D01*
X0261020Y0188461D01*
X0287792Y0172319D02*
X0288579Y0172319D01*
X0288579Y0171531D01*
X0287792Y0171531D01*
X0287792Y0172319D01*
X0273816Y0110508D02*
X0269485Y0110508D01*
X0269485Y0108933D01*
X0273816Y0108933D01*
X0273816Y0110508D01*
X0273816Y0104996D02*
X0269485Y0104996D01*
X0269485Y0103421D01*
X0273816Y0103421D01*
X0273816Y0104996D01*
X0279327Y0100469D02*
X0279327Y0094957D01*
X0285627Y0094957D01*
X0285627Y0100469D01*
X0279327Y0100469D01*
X0273816Y0099484D02*
X0273816Y0097909D01*
X0269485Y0097909D01*
X0269485Y0099484D01*
X0273816Y0099484D01*
X0289760Y0100469D02*
X0289760Y0094957D01*
X0294879Y0094957D01*
X0294879Y0100469D01*
X0289760Y0100469D01*
X0298816Y0100469D02*
X0298816Y0094957D01*
X0303934Y0094957D01*
X0303934Y0100469D01*
X0298816Y0100469D01*
X0308068Y0100469D02*
X0308068Y0094957D01*
X0314367Y0094957D01*
X0314367Y0100469D01*
X0308068Y0100469D01*
X0258855Y0099484D02*
X0258855Y0097909D01*
X0254524Y0097909D01*
X0254524Y0099484D01*
X0258855Y0099484D01*
X0258855Y0103421D02*
X0254524Y0103421D01*
X0254524Y0104996D01*
X0258855Y0104996D01*
X0258855Y0103421D01*
X0258855Y0108933D02*
X0254524Y0108933D01*
X0254524Y0110508D01*
X0258855Y0110508D01*
X0258855Y0108933D01*
D15*
X0254721Y0134917D03*
X0254721Y0139642D03*
X0254721Y0146335D03*
X0259446Y0146335D03*
X0259446Y0151059D03*
X0254721Y0151059D03*
X0265745Y0166807D03*
X0270469Y0166807D03*
X0288186Y0171925D03*
X0292910Y0171925D03*
X0298422Y0171925D03*
X0303146Y0171925D03*
X0298422Y0167201D03*
X0293698Y0167201D03*
X0307871Y0161295D03*
X0312595Y0161295D03*
X0317320Y0161295D03*
X0322044Y0161295D03*
X0322044Y0156571D03*
X0317320Y0156571D03*
X0317320Y0151846D03*
X0322044Y0151846D03*
X0312595Y0156571D03*
X0307871Y0156571D03*
X0295666Y0183343D03*
X0290942Y0183343D03*
X0292516Y0192791D03*
X0287792Y0192791D03*
X0287792Y0198303D03*
X0292516Y0198303D03*
X0292516Y0203815D03*
X0287792Y0203815D03*
X0276768Y0200272D03*
X0272044Y0200272D03*
X0260627Y0192791D03*
X0260627Y0188067D03*
X0306296Y0214445D03*
X0311020Y0214445D03*
X0311020Y0220744D03*
X0306296Y0220744D03*
X0311020Y0207752D03*
X0311020Y0203028D03*
X0311020Y0252240D03*
X0306296Y0252240D03*
X0261020Y0266020D03*
X0256296Y0266020D03*
X0249603Y0266020D03*
X0244879Y0266020D03*
X0244879Y0261295D03*
X0249603Y0261295D03*
X0149603Y0252240D03*
X0144879Y0252240D03*
X0144879Y0220744D03*
X0149603Y0220744D03*
X0149603Y0214445D03*
X0144879Y0214445D03*
X0149603Y0207752D03*
X0149603Y0203028D03*
X0131099Y0203815D03*
X0126375Y0203815D03*
X0126375Y0198303D03*
X0131099Y0198303D03*
X0131099Y0192791D03*
X0126375Y0192791D03*
X0129524Y0183343D03*
X0134249Y0183343D03*
X0137005Y0171925D03*
X0141729Y0171925D03*
X0137005Y0167201D03*
X0132280Y0167201D03*
X0131493Y0171925D03*
X0126768Y0171925D03*
X0109052Y0166807D03*
X0104327Y0166807D03*
X0098028Y0151059D03*
X0093304Y0151059D03*
X0093304Y0146335D03*
X0098028Y0146335D03*
X0093304Y0139642D03*
X0093304Y0134917D03*
X0146453Y0156571D03*
X0151178Y0156571D03*
X0155902Y0156571D03*
X0155902Y0151846D03*
X0160627Y0151846D03*
X0160627Y0156571D03*
X0160627Y0161295D03*
X0155902Y0161295D03*
X0151178Y0161295D03*
X0146453Y0161295D03*
X0115351Y0200272D03*
X0110627Y0200272D03*
X0099209Y0192791D03*
X0099209Y0188067D03*
X0088186Y0261295D03*
X0088186Y0266020D03*
X0083461Y0266020D03*
X0083461Y0261295D03*
X0094879Y0266020D03*
X0099603Y0266020D03*
D16*
X0100784Y0236098D03*
X0120469Y0236098D03*
X0120469Y0216413D03*
X0100784Y0216413D03*
X0111020Y0147122D03*
X0111020Y0127437D03*
X0262201Y0216413D03*
X0281886Y0216413D03*
X0281886Y0236098D03*
X0262201Y0236098D03*
X0272438Y0147122D03*
X0272438Y0127437D03*
D17*
X0287005Y0131374D03*
X0294091Y0131374D03*
X0281099Y0154209D03*
X0281099Y0161295D03*
X0132674Y0131374D03*
X0125587Y0131374D03*
X0119682Y0154209D03*
X0119682Y0161295D03*
D18*
X0110233Y0109720D03*
X0110233Y0104209D03*
X0095272Y0104209D03*
X0095272Y0109720D03*
X0256690Y0109720D03*
X0256690Y0104209D03*
X0271650Y0104209D03*
X0271650Y0109720D03*
X0271257Y0255390D03*
X0271257Y0260902D03*
X0256296Y0260902D03*
X0256296Y0255390D03*
X0109839Y0255390D03*
X0109839Y0260902D03*
X0094879Y0260902D03*
X0094879Y0255390D03*
D19*
X0094879Y0249780D03*
X0109839Y0249780D03*
X0256296Y0249780D03*
X0271257Y0249780D03*
X0271650Y0098598D03*
X0256690Y0098598D03*
X0110233Y0098598D03*
X0095272Y0098598D03*
D20*
X0106493Y0187083D03*
X0106493Y0193776D03*
X0115548Y0193776D03*
X0115548Y0187083D03*
X0267910Y0187083D03*
X0267910Y0193776D03*
X0276965Y0193776D03*
X0276965Y0187083D03*
D21*
X0308658Y0189642D02*
X0308658Y0191217D01*
X0310233Y0191217D01*
X0310233Y0189642D01*
X0308658Y0189642D01*
X0308658Y0184130D02*
X0308658Y0182555D01*
X0310233Y0182555D01*
X0310233Y0184130D01*
X0308658Y0184130D01*
X0315745Y0184130D02*
X0315745Y0182555D01*
X0317320Y0182555D01*
X0317320Y0184130D01*
X0315745Y0184130D01*
X0315745Y0189642D02*
X0315745Y0191217D01*
X0317320Y0191217D01*
X0317320Y0189642D01*
X0315745Y0189642D01*
X0155902Y0189642D02*
X0154327Y0189642D01*
X0154327Y0191217D01*
X0155902Y0191217D01*
X0155902Y0189642D01*
X0155902Y0184130D02*
X0154327Y0184130D01*
X0154327Y0182555D01*
X0155902Y0182555D01*
X0155902Y0184130D01*
X0148816Y0184130D02*
X0148816Y0182555D01*
X0147241Y0182555D01*
X0147241Y0184130D01*
X0148816Y0184130D01*
X0148816Y0189642D02*
X0147241Y0189642D01*
X0147241Y0191217D01*
X0148816Y0191217D01*
X0148816Y0189642D01*
D22*
X0144091Y0111394D02*
X0144091Y0107654D01*
X0126768Y0107654D02*
X0126768Y0111394D01*
X0288186Y0111394D02*
X0288186Y0107654D01*
X0305509Y0107654D02*
X0305509Y0111394D01*
D23*
X0301965Y0110311D02*
X0301965Y0106374D01*
X0299406Y0106374D02*
X0299406Y0110311D01*
X0296847Y0110311D02*
X0296847Y0106374D01*
X0294288Y0106374D02*
X0294288Y0110311D01*
X0291729Y0110311D02*
X0291729Y0106374D01*
X0290942Y0136098D02*
X0290942Y0139248D01*
X0294091Y0139248D02*
X0294091Y0136098D01*
X0297241Y0136098D02*
X0297241Y0139248D01*
X0287792Y0139248D02*
X0287792Y0136098D01*
X0287792Y0152634D02*
X0287792Y0155783D01*
X0290942Y0155783D02*
X0290942Y0152634D01*
X0294091Y0152634D02*
X0294091Y0155783D01*
X0297241Y0155783D02*
X0297241Y0152634D01*
X0140548Y0110311D02*
X0140548Y0106374D01*
X0137989Y0106374D02*
X0137989Y0110311D01*
X0135430Y0110311D02*
X0135430Y0106374D01*
X0132871Y0106374D02*
X0132871Y0110311D01*
X0130312Y0110311D02*
X0130312Y0106374D01*
X0129524Y0136098D02*
X0129524Y0139248D01*
X0126375Y0139248D02*
X0126375Y0136098D01*
X0132674Y0136098D02*
X0132674Y0139248D01*
X0135823Y0139248D02*
X0135823Y0136098D01*
X0135823Y0152634D02*
X0135823Y0155783D01*
X0132674Y0155783D02*
X0132674Y0152634D01*
X0129524Y0152634D02*
X0129524Y0155783D01*
X0126375Y0155783D02*
X0126375Y0152634D01*
D24*
X0121060Y0097713D03*
X0149800Y0097713D03*
X0282477Y0097713D03*
X0311217Y0097713D03*
D25*
X0301375Y0097713D03*
X0292320Y0097713D03*
X0139957Y0097713D03*
X0130902Y0097713D03*
D26*
X0128146Y0143776D03*
X0128146Y0148106D03*
X0134052Y0148106D03*
X0134052Y0143776D03*
X0289564Y0143776D03*
X0289564Y0148106D03*
X0295469Y0148106D03*
X0295469Y0143776D03*
M02*
