%
M48
M72
T01C0.01181
T02C0.02362
T03C0.03937
T04C0.16535
%
T01
X140548Y113264
X154327Y126256
X157083Y138854
X149603Y146335
X149997Y153028
X157083Y148303
X168501Y136098
X169682Y130587
X170075Y126256
X177556Y117594
X133855Y159327
X131886Y162083
X134249Y171925
X134249Y180193
X123225Y182555
X123225Y176256
X113776Y178618
X109052Y163657
X104327Y163657
X100390Y160508
X98028Y154209
X88579Y156965
X88579Y146728
X93304Y142791
X88579Y136886
X88579Y127043
X104721Y116413
X112989Y135311
X119682Y138461
X119682Y146728
X119682Y149878
X107871Y155390
X88579Y167201
X88579Y177043
X88579Y186886
X99209Y195941
X101572Y198303
X107871Y200272
X123225Y198303
X134249Y198303
X134249Y192791
X148028Y186886
X151572Y183343
X155115Y186886
X151572Y190823
X161808Y199484
X164170Y201846
X161414Y204602
X158658Y206965
X149603Y210902
X140942Y210508
X134249Y203815
X141729Y220744
X141335Y226256
X138186Y229012
X136611Y232949
X136611Y236098
X131886Y240429
X144879Y248697
X148422Y256571
X143304Y261295
X137792Y260508
X133461Y261295
X133461Y264445
X132280Y267988
X135823Y267988
X139367Y267988
X143304Y267594
X137398Y264445
X129918Y261295
X127556Y263657
X120469Y259720
X122438Y256571
X114957Y246335
X136217Y254602
X127949Y268382
X119682Y271531
X116926Y271531
X114957Y269563
X112989Y271531
X111020Y269563
X109052Y271531
X107083Y269563
X105115Y271531
X103146Y269563
X101178Y271531
X99209Y269563
X97241Y271531
X95272Y269563
X93304Y271531
X91335Y269563
X89367Y271531
X87398Y269563
X85430Y271531
X83461Y269563
X81493Y271531
X88579Y247122
X88579Y236886
X88579Y226650
X94485Y224681
X100784Y226256
X88579Y216807
X88579Y206965
X88579Y196728
X120469Y226256
X164957Y195154
X168894Y199091
X161808Y171531
X165351Y171138
X168894Y171138
X160627Y165626
X249997Y167201
X249997Y177043
X249997Y186886
X249997Y196728
X249997Y206965
X249997Y216807
X255902Y224681
X249997Y226650
X249997Y236886
X249997Y247122
X248816Y269563
X250784Y271531
X252753Y269563
X254721Y271531
X256690Y269563
X258658Y271531
X260627Y269563
X262595Y271531
X264564Y269563
X266532Y271531
X268501Y269563
X270469Y271531
X272438Y269563
X274406Y271531
X276375Y269563
X278343Y271531
X281099Y271531
X289367Y268382
X293698Y267988
X297241Y267988
X300784Y267988
X304721Y267594
X304721Y261295
X299209Y260508
X294879Y261295
X294879Y264445
X298816Y264445
X291335Y261295
X288973Y263657
X281886Y259720
X283855Y256571
X276375Y246335
X293304Y240429
X298028Y236098
X298028Y232949
X299603Y229012
X302753Y226256
X303146Y220744
X311020Y210902
X302359Y210508
X295666Y203815
X295666Y198303
X295666Y192791
X284642Y198303
X269288Y200272
X262989Y198303
X260627Y195941
X275194Y178618
X284642Y176256
X284642Y182555
X295666Y180193
X295666Y171925
X293304Y162083
X295272Y159327
X281099Y149878
X281099Y146728
X281099Y138461
X274406Y135311
X266138Y116413
X249997Y127043
X249997Y136886
X254721Y142791
X249997Y146728
X249997Y156965
X259446Y154209
X261808Y160508
X265745Y163657
X270469Y163657
X269288Y155390
X311414Y153028
X311020Y146335
X318501Y148303
X318501Y138854
X329918Y136098
X331099Y130587
X331493Y126256
X338973Y117594
X315745Y126256
X301965Y113264
X322044Y165626
X323225Y171531
X326768Y171138
X330312Y171138
X312989Y183343
X316532Y186886
X312989Y190823
X309446Y186886
X323225Y199484
X325587Y201846
X322831Y204602
X320075Y206965
X330312Y199091
X326375Y195154
X281886Y226256
X262201Y226256
X297635Y254602
X306296Y248697
X309839Y256571
X312201Y271531
X314957Y271531
X317713Y271531
X320863Y271531
X324012Y271531
X327162Y271531
X329131Y269563
X331099Y271531
X333068Y269563
X335036Y271531
X337005Y269563
X338973Y271531
X340942Y269563
X342910Y271531
X344879Y269563
X346847Y271531
X348816Y269563
X350784Y271531
X246847Y271531
X244879Y269563
X242910Y271531
X189367Y271531
X187398Y269563
X185430Y271531
X183461Y269563
X181493Y271531
X179524Y269563
X177556Y271531
X175587Y269563
X173619Y271531
X171650Y269563
X169682Y271531
X167713Y269563
X165745Y271531
X162595Y271531
X159446Y271531
X156296Y271531
X153540Y271531
X150784Y271531
T02
X144091Y109524
X151965Y97713
X126768Y109524
X118894Y97713
X280312Y97713
X288186Y109524
X305509Y109524
X313383Y97713
T03
X346847Y121886
X346847Y131886
X346847Y141886
X346847Y151886
X346847Y161886
X346847Y171886
X346847Y181886
X346847Y191886
X346847Y201886
X346847Y211886
X346847Y221886
X346847Y231886
X346847Y241886
X346847Y251886
X246847Y251886
X246847Y241886
X246847Y231886
X246847Y221886
X246847Y211886
X246847Y201886
X246847Y191886
X246847Y181886
X246847Y171886
X246847Y161886
X246847Y151886
X246847Y141886
X246847Y131886
X246847Y121886
X185430Y121886
X185430Y131886
X185430Y141886
X185430Y151886
X185430Y161886
X185430Y171886
X185430Y181886
X185430Y191886
X185430Y201886
X185430Y211886
X185430Y221886
X185430Y231886
X185430Y241886
X185430Y251886
X85430Y251886
X85430Y241886
X85430Y231886
X85430Y221886
X85430Y211886
X85430Y201886
X85430Y191886
X85430Y181886
X85430Y171886
X85430Y161886
X85430Y151886
X85430Y141886
X85430Y131886
X85430Y121886
T04
X58658Y68776
X58658Y304996
X373619Y304996
X373619Y68776
M30
