G75*
%MOIN*%
%OFA0B0*%
%FSLAX24Y24*%
%IPPOS*%
%LPD*%
%AMOC8*
5,1,8,0,0,1.08239X$1,22.5*
%
%ADD10C,0.0000*%
D10*
X000126Y002232D02*
X000126Y006169D01*
X035559Y006169D01*
X035559Y002232D01*
X031622Y002232D01*
X031622Y029791D01*
X019417Y029791D01*
X019417Y002232D01*
X016267Y002232D01*
X004063Y002232D01*
X004063Y029791D01*
X016267Y029791D01*
X019417Y029791D01*
X016267Y029791D02*
X016267Y002232D01*
X019417Y002232D02*
X031622Y002232D01*
X032763Y004200D02*
X032765Y004257D01*
X032771Y004314D01*
X032781Y004370D01*
X032794Y004426D01*
X032812Y004480D01*
X032833Y004533D01*
X032858Y004584D01*
X032886Y004634D01*
X032918Y004681D01*
X032952Y004727D01*
X032990Y004769D01*
X033031Y004809D01*
X033074Y004847D01*
X033120Y004881D01*
X033168Y004911D01*
X033218Y004939D01*
X033270Y004963D01*
X033324Y004983D01*
X033378Y004999D01*
X033434Y005012D01*
X033490Y005021D01*
X033547Y005026D01*
X033604Y005027D01*
X033661Y005024D01*
X033718Y005017D01*
X033774Y005006D01*
X033829Y004992D01*
X033883Y004973D01*
X033936Y004951D01*
X033987Y004926D01*
X034036Y004896D01*
X034083Y004864D01*
X034128Y004828D01*
X034170Y004790D01*
X034209Y004748D01*
X034245Y004704D01*
X034279Y004658D01*
X034309Y004609D01*
X034335Y004559D01*
X034358Y004507D01*
X034377Y004453D01*
X034393Y004398D01*
X034405Y004342D01*
X034413Y004285D01*
X034417Y004229D01*
X034417Y004171D01*
X034413Y004115D01*
X034405Y004058D01*
X034393Y004002D01*
X034377Y003947D01*
X034358Y003893D01*
X034335Y003841D01*
X034309Y003791D01*
X034279Y003742D01*
X034245Y003696D01*
X034209Y003652D01*
X034170Y003610D01*
X034128Y003572D01*
X034083Y003536D01*
X034036Y003504D01*
X033987Y003474D01*
X033936Y003449D01*
X033883Y003427D01*
X033829Y003408D01*
X033774Y003394D01*
X033718Y003383D01*
X033661Y003376D01*
X033604Y003373D01*
X033547Y003374D01*
X033490Y003379D01*
X033434Y003388D01*
X033378Y003401D01*
X033324Y003417D01*
X033270Y003437D01*
X033218Y003461D01*
X033168Y003489D01*
X033120Y003519D01*
X033074Y003553D01*
X033031Y003591D01*
X032990Y003631D01*
X032952Y003673D01*
X032918Y003719D01*
X032886Y003766D01*
X032858Y003816D01*
X032833Y003867D01*
X032812Y003920D01*
X032794Y003974D01*
X032781Y004030D01*
X032771Y004086D01*
X032765Y004143D01*
X032763Y004200D01*
X030047Y006169D02*
X020992Y006169D01*
X020362Y007744D02*
X020364Y007794D01*
X020370Y007844D01*
X020380Y007893D01*
X020394Y007941D01*
X020411Y007988D01*
X020432Y008033D01*
X020457Y008077D01*
X020485Y008118D01*
X020517Y008157D01*
X020551Y008194D01*
X020588Y008228D01*
X020628Y008258D01*
X020670Y008285D01*
X020714Y008309D01*
X020760Y008330D01*
X020807Y008346D01*
X020855Y008359D01*
X020905Y008368D01*
X020954Y008373D01*
X021005Y008374D01*
X021055Y008371D01*
X021104Y008364D01*
X021153Y008353D01*
X021201Y008338D01*
X021247Y008320D01*
X021292Y008298D01*
X021335Y008272D01*
X021376Y008243D01*
X021415Y008211D01*
X021451Y008176D01*
X021483Y008138D01*
X021513Y008098D01*
X021540Y008055D01*
X021563Y008011D01*
X021582Y007965D01*
X021598Y007917D01*
X021610Y007868D01*
X021618Y007819D01*
X021622Y007769D01*
X021622Y007719D01*
X021618Y007669D01*
X021610Y007620D01*
X021598Y007571D01*
X021582Y007523D01*
X021563Y007477D01*
X021540Y007433D01*
X021513Y007390D01*
X021483Y007350D01*
X021451Y007312D01*
X021415Y007277D01*
X021376Y007245D01*
X021335Y007216D01*
X021292Y007190D01*
X021247Y007168D01*
X021201Y007150D01*
X021153Y007135D01*
X021104Y007124D01*
X021055Y007117D01*
X021005Y007114D01*
X020954Y007115D01*
X020905Y007120D01*
X020855Y007129D01*
X020807Y007142D01*
X020760Y007158D01*
X020714Y007179D01*
X020670Y007203D01*
X020628Y007230D01*
X020588Y007260D01*
X020551Y007294D01*
X020517Y007331D01*
X020485Y007370D01*
X020457Y007411D01*
X020432Y007455D01*
X020411Y007500D01*
X020394Y007547D01*
X020380Y007595D01*
X020370Y007644D01*
X020364Y007694D01*
X020362Y007744D01*
X019417Y007744D02*
X019419Y007667D01*
X019425Y007590D01*
X019434Y007513D01*
X019447Y007437D01*
X019464Y007361D01*
X019485Y007287D01*
X019509Y007213D01*
X019537Y007141D01*
X019568Y007071D01*
X019603Y007002D01*
X019641Y006934D01*
X019682Y006869D01*
X019727Y006806D01*
X019775Y006745D01*
X019825Y006686D01*
X019878Y006630D01*
X019934Y006577D01*
X019993Y006527D01*
X020054Y006479D01*
X020117Y006434D01*
X020182Y006393D01*
X020250Y006355D01*
X020319Y006320D01*
X020389Y006289D01*
X020461Y006261D01*
X020535Y006237D01*
X020609Y006216D01*
X020685Y006199D01*
X020761Y006186D01*
X020838Y006177D01*
X020915Y006171D01*
X020992Y006169D01*
X019417Y007744D02*
X019417Y024279D01*
X020362Y024279D02*
X020364Y024329D01*
X020370Y024379D01*
X020380Y024428D01*
X020394Y024476D01*
X020411Y024523D01*
X020432Y024568D01*
X020457Y024612D01*
X020485Y024653D01*
X020517Y024692D01*
X020551Y024729D01*
X020588Y024763D01*
X020628Y024793D01*
X020670Y024820D01*
X020714Y024844D01*
X020760Y024865D01*
X020807Y024881D01*
X020855Y024894D01*
X020905Y024903D01*
X020954Y024908D01*
X021005Y024909D01*
X021055Y024906D01*
X021104Y024899D01*
X021153Y024888D01*
X021201Y024873D01*
X021247Y024855D01*
X021292Y024833D01*
X021335Y024807D01*
X021376Y024778D01*
X021415Y024746D01*
X021451Y024711D01*
X021483Y024673D01*
X021513Y024633D01*
X021540Y024590D01*
X021563Y024546D01*
X021582Y024500D01*
X021598Y024452D01*
X021610Y024403D01*
X021618Y024354D01*
X021622Y024304D01*
X021622Y024254D01*
X021618Y024204D01*
X021610Y024155D01*
X021598Y024106D01*
X021582Y024058D01*
X021563Y024012D01*
X021540Y023968D01*
X021513Y023925D01*
X021483Y023885D01*
X021451Y023847D01*
X021415Y023812D01*
X021376Y023780D01*
X021335Y023751D01*
X021292Y023725D01*
X021247Y023703D01*
X021201Y023685D01*
X021153Y023670D01*
X021104Y023659D01*
X021055Y023652D01*
X021005Y023649D01*
X020954Y023650D01*
X020905Y023655D01*
X020855Y023664D01*
X020807Y023677D01*
X020760Y023693D01*
X020714Y023714D01*
X020670Y023738D01*
X020628Y023765D01*
X020588Y023795D01*
X020551Y023829D01*
X020517Y023866D01*
X020485Y023905D01*
X020457Y023946D01*
X020432Y023990D01*
X020411Y024035D01*
X020394Y024082D01*
X020380Y024130D01*
X020370Y024179D01*
X020364Y024229D01*
X020362Y024279D01*
X019417Y024279D02*
X019419Y024356D01*
X019425Y024433D01*
X019434Y024510D01*
X019447Y024586D01*
X019464Y024662D01*
X019485Y024736D01*
X019509Y024810D01*
X019537Y024882D01*
X019568Y024952D01*
X019603Y025021D01*
X019641Y025089D01*
X019682Y025154D01*
X019727Y025217D01*
X019775Y025278D01*
X019825Y025337D01*
X019878Y025393D01*
X019934Y025446D01*
X019993Y025496D01*
X020054Y025544D01*
X020117Y025589D01*
X020182Y025630D01*
X020250Y025668D01*
X020319Y025703D01*
X020389Y025734D01*
X020461Y025762D01*
X020535Y025786D01*
X020609Y025807D01*
X020685Y025824D01*
X020761Y025837D01*
X020838Y025846D01*
X020915Y025852D01*
X020992Y025854D01*
X030047Y025854D01*
X029417Y024279D02*
X029419Y024329D01*
X029425Y024379D01*
X029435Y024428D01*
X029449Y024476D01*
X029466Y024523D01*
X029487Y024568D01*
X029512Y024612D01*
X029540Y024653D01*
X029572Y024692D01*
X029606Y024729D01*
X029643Y024763D01*
X029683Y024793D01*
X029725Y024820D01*
X029769Y024844D01*
X029815Y024865D01*
X029862Y024881D01*
X029910Y024894D01*
X029960Y024903D01*
X030009Y024908D01*
X030060Y024909D01*
X030110Y024906D01*
X030159Y024899D01*
X030208Y024888D01*
X030256Y024873D01*
X030302Y024855D01*
X030347Y024833D01*
X030390Y024807D01*
X030431Y024778D01*
X030470Y024746D01*
X030506Y024711D01*
X030538Y024673D01*
X030568Y024633D01*
X030595Y024590D01*
X030618Y024546D01*
X030637Y024500D01*
X030653Y024452D01*
X030665Y024403D01*
X030673Y024354D01*
X030677Y024304D01*
X030677Y024254D01*
X030673Y024204D01*
X030665Y024155D01*
X030653Y024106D01*
X030637Y024058D01*
X030618Y024012D01*
X030595Y023968D01*
X030568Y023925D01*
X030538Y023885D01*
X030506Y023847D01*
X030470Y023812D01*
X030431Y023780D01*
X030390Y023751D01*
X030347Y023725D01*
X030302Y023703D01*
X030256Y023685D01*
X030208Y023670D01*
X030159Y023659D01*
X030110Y023652D01*
X030060Y023649D01*
X030009Y023650D01*
X029960Y023655D01*
X029910Y023664D01*
X029862Y023677D01*
X029815Y023693D01*
X029769Y023714D01*
X029725Y023738D01*
X029683Y023765D01*
X029643Y023795D01*
X029606Y023829D01*
X029572Y023866D01*
X029540Y023905D01*
X029512Y023946D01*
X029487Y023990D01*
X029466Y024035D01*
X029449Y024082D01*
X029435Y024130D01*
X029425Y024179D01*
X029419Y024229D01*
X029417Y024279D01*
X030047Y025854D02*
X030124Y025852D01*
X030201Y025846D01*
X030278Y025837D01*
X030354Y025824D01*
X030430Y025807D01*
X030504Y025786D01*
X030578Y025762D01*
X030650Y025734D01*
X030720Y025703D01*
X030789Y025668D01*
X030857Y025630D01*
X030922Y025589D01*
X030985Y025544D01*
X031046Y025496D01*
X031105Y025446D01*
X031161Y025393D01*
X031214Y025337D01*
X031264Y025278D01*
X031312Y025217D01*
X031357Y025154D01*
X031398Y025089D01*
X031436Y025021D01*
X031471Y024952D01*
X031502Y024882D01*
X031530Y024810D01*
X031554Y024736D01*
X031575Y024662D01*
X031592Y024586D01*
X031605Y024510D01*
X031614Y024433D01*
X031620Y024356D01*
X031622Y024279D01*
X031622Y007744D01*
X029417Y007744D02*
X029419Y007794D01*
X029425Y007844D01*
X029435Y007893D01*
X029449Y007941D01*
X029466Y007988D01*
X029487Y008033D01*
X029512Y008077D01*
X029540Y008118D01*
X029572Y008157D01*
X029606Y008194D01*
X029643Y008228D01*
X029683Y008258D01*
X029725Y008285D01*
X029769Y008309D01*
X029815Y008330D01*
X029862Y008346D01*
X029910Y008359D01*
X029960Y008368D01*
X030009Y008373D01*
X030060Y008374D01*
X030110Y008371D01*
X030159Y008364D01*
X030208Y008353D01*
X030256Y008338D01*
X030302Y008320D01*
X030347Y008298D01*
X030390Y008272D01*
X030431Y008243D01*
X030470Y008211D01*
X030506Y008176D01*
X030538Y008138D01*
X030568Y008098D01*
X030595Y008055D01*
X030618Y008011D01*
X030637Y007965D01*
X030653Y007917D01*
X030665Y007868D01*
X030673Y007819D01*
X030677Y007769D01*
X030677Y007719D01*
X030673Y007669D01*
X030665Y007620D01*
X030653Y007571D01*
X030637Y007523D01*
X030618Y007477D01*
X030595Y007433D01*
X030568Y007390D01*
X030538Y007350D01*
X030506Y007312D01*
X030470Y007277D01*
X030431Y007245D01*
X030390Y007216D01*
X030347Y007190D01*
X030302Y007168D01*
X030256Y007150D01*
X030208Y007135D01*
X030159Y007124D01*
X030110Y007117D01*
X030060Y007114D01*
X030009Y007115D01*
X029960Y007120D01*
X029910Y007129D01*
X029862Y007142D01*
X029815Y007158D01*
X029769Y007179D01*
X029725Y007203D01*
X029683Y007230D01*
X029643Y007260D01*
X029606Y007294D01*
X029572Y007331D01*
X029540Y007370D01*
X029512Y007411D01*
X029487Y007455D01*
X029466Y007500D01*
X029449Y007547D01*
X029435Y007595D01*
X029425Y007644D01*
X029419Y007694D01*
X029417Y007744D01*
X030047Y006169D02*
X030124Y006171D01*
X030201Y006177D01*
X030278Y006186D01*
X030354Y006199D01*
X030430Y006216D01*
X030504Y006237D01*
X030578Y006261D01*
X030650Y006289D01*
X030720Y006320D01*
X030789Y006355D01*
X030857Y006393D01*
X030922Y006434D01*
X030985Y006479D01*
X031046Y006527D01*
X031105Y006577D01*
X031161Y006630D01*
X031214Y006686D01*
X031264Y006745D01*
X031312Y006806D01*
X031357Y006869D01*
X031398Y006934D01*
X031436Y007002D01*
X031471Y007071D01*
X031502Y007141D01*
X031530Y007213D01*
X031554Y007287D01*
X031575Y007361D01*
X031592Y007437D01*
X031605Y007513D01*
X031614Y007590D01*
X031620Y007667D01*
X031622Y007744D01*
X035559Y006169D02*
X035559Y025854D01*
X000126Y025854D01*
X000126Y029791D01*
X004063Y029791D01*
X001267Y027822D02*
X001269Y027879D01*
X001275Y027936D01*
X001285Y027992D01*
X001298Y028048D01*
X001316Y028102D01*
X001337Y028155D01*
X001362Y028206D01*
X001390Y028256D01*
X001422Y028303D01*
X001456Y028349D01*
X001494Y028391D01*
X001535Y028431D01*
X001578Y028469D01*
X001624Y028503D01*
X001672Y028533D01*
X001722Y028561D01*
X001774Y028585D01*
X001828Y028605D01*
X001882Y028621D01*
X001938Y028634D01*
X001994Y028643D01*
X002051Y028648D01*
X002108Y028649D01*
X002165Y028646D01*
X002222Y028639D01*
X002278Y028628D01*
X002333Y028614D01*
X002387Y028595D01*
X002440Y028573D01*
X002491Y028548D01*
X002540Y028518D01*
X002587Y028486D01*
X002632Y028450D01*
X002674Y028412D01*
X002713Y028370D01*
X002749Y028326D01*
X002783Y028280D01*
X002813Y028231D01*
X002839Y028181D01*
X002862Y028129D01*
X002881Y028075D01*
X002897Y028020D01*
X002909Y027964D01*
X002917Y027907D01*
X002921Y027851D01*
X002921Y027793D01*
X002917Y027737D01*
X002909Y027680D01*
X002897Y027624D01*
X002881Y027569D01*
X002862Y027515D01*
X002839Y027463D01*
X002813Y027413D01*
X002783Y027364D01*
X002749Y027318D01*
X002713Y027274D01*
X002674Y027232D01*
X002632Y027194D01*
X002587Y027158D01*
X002540Y027126D01*
X002491Y027096D01*
X002440Y027071D01*
X002387Y027049D01*
X002333Y027030D01*
X002278Y027016D01*
X002222Y027005D01*
X002165Y026998D01*
X002108Y026995D01*
X002051Y026996D01*
X001994Y027001D01*
X001938Y027010D01*
X001882Y027023D01*
X001828Y027039D01*
X001774Y027059D01*
X001722Y027083D01*
X001672Y027111D01*
X001624Y027141D01*
X001578Y027175D01*
X001535Y027213D01*
X001494Y027253D01*
X001456Y027295D01*
X001422Y027341D01*
X001390Y027388D01*
X001362Y027438D01*
X001337Y027489D01*
X001316Y027542D01*
X001298Y027596D01*
X001285Y027652D01*
X001275Y027708D01*
X001269Y027765D01*
X001267Y027822D01*
X000126Y025854D02*
X000126Y006169D01*
X001267Y004200D02*
X001269Y004257D01*
X001275Y004314D01*
X001285Y004370D01*
X001298Y004426D01*
X001316Y004480D01*
X001337Y004533D01*
X001362Y004584D01*
X001390Y004634D01*
X001422Y004681D01*
X001456Y004727D01*
X001494Y004769D01*
X001535Y004809D01*
X001578Y004847D01*
X001624Y004881D01*
X001672Y004911D01*
X001722Y004939D01*
X001774Y004963D01*
X001828Y004983D01*
X001882Y004999D01*
X001938Y005012D01*
X001994Y005021D01*
X002051Y005026D01*
X002108Y005027D01*
X002165Y005024D01*
X002222Y005017D01*
X002278Y005006D01*
X002333Y004992D01*
X002387Y004973D01*
X002440Y004951D01*
X002491Y004926D01*
X002540Y004896D01*
X002587Y004864D01*
X002632Y004828D01*
X002674Y004790D01*
X002713Y004748D01*
X002749Y004704D01*
X002783Y004658D01*
X002813Y004609D01*
X002839Y004559D01*
X002862Y004507D01*
X002881Y004453D01*
X002897Y004398D01*
X002909Y004342D01*
X002917Y004285D01*
X002921Y004229D01*
X002921Y004171D01*
X002917Y004115D01*
X002909Y004058D01*
X002897Y004002D01*
X002881Y003947D01*
X002862Y003893D01*
X002839Y003841D01*
X002813Y003791D01*
X002783Y003742D01*
X002749Y003696D01*
X002713Y003652D01*
X002674Y003610D01*
X002632Y003572D01*
X002587Y003536D01*
X002540Y003504D01*
X002491Y003474D01*
X002440Y003449D01*
X002387Y003427D01*
X002333Y003408D01*
X002278Y003394D01*
X002222Y003383D01*
X002165Y003376D01*
X002108Y003373D01*
X002051Y003374D01*
X001994Y003379D01*
X001938Y003388D01*
X001882Y003401D01*
X001828Y003417D01*
X001774Y003437D01*
X001722Y003461D01*
X001672Y003489D01*
X001624Y003519D01*
X001578Y003553D01*
X001535Y003591D01*
X001494Y003631D01*
X001456Y003673D01*
X001422Y003719D01*
X001390Y003766D01*
X001362Y003816D01*
X001337Y003867D01*
X001316Y003920D01*
X001298Y003974D01*
X001285Y004030D01*
X001275Y004086D01*
X001269Y004143D01*
X001267Y004200D01*
X000126Y002232D02*
X004063Y002232D01*
X005637Y006169D02*
X014693Y006169D01*
X014063Y007744D02*
X014065Y007794D01*
X014071Y007844D01*
X014081Y007893D01*
X014095Y007941D01*
X014112Y007988D01*
X014133Y008033D01*
X014158Y008077D01*
X014186Y008118D01*
X014218Y008157D01*
X014252Y008194D01*
X014289Y008228D01*
X014329Y008258D01*
X014371Y008285D01*
X014415Y008309D01*
X014461Y008330D01*
X014508Y008346D01*
X014556Y008359D01*
X014606Y008368D01*
X014655Y008373D01*
X014706Y008374D01*
X014756Y008371D01*
X014805Y008364D01*
X014854Y008353D01*
X014902Y008338D01*
X014948Y008320D01*
X014993Y008298D01*
X015036Y008272D01*
X015077Y008243D01*
X015116Y008211D01*
X015152Y008176D01*
X015184Y008138D01*
X015214Y008098D01*
X015241Y008055D01*
X015264Y008011D01*
X015283Y007965D01*
X015299Y007917D01*
X015311Y007868D01*
X015319Y007819D01*
X015323Y007769D01*
X015323Y007719D01*
X015319Y007669D01*
X015311Y007620D01*
X015299Y007571D01*
X015283Y007523D01*
X015264Y007477D01*
X015241Y007433D01*
X015214Y007390D01*
X015184Y007350D01*
X015152Y007312D01*
X015116Y007277D01*
X015077Y007245D01*
X015036Y007216D01*
X014993Y007190D01*
X014948Y007168D01*
X014902Y007150D01*
X014854Y007135D01*
X014805Y007124D01*
X014756Y007117D01*
X014706Y007114D01*
X014655Y007115D01*
X014606Y007120D01*
X014556Y007129D01*
X014508Y007142D01*
X014461Y007158D01*
X014415Y007179D01*
X014371Y007203D01*
X014329Y007230D01*
X014289Y007260D01*
X014252Y007294D01*
X014218Y007331D01*
X014186Y007370D01*
X014158Y007411D01*
X014133Y007455D01*
X014112Y007500D01*
X014095Y007547D01*
X014081Y007595D01*
X014071Y007644D01*
X014065Y007694D01*
X014063Y007744D01*
X014693Y006169D02*
X014770Y006171D01*
X014847Y006177D01*
X014924Y006186D01*
X015000Y006199D01*
X015076Y006216D01*
X015150Y006237D01*
X015224Y006261D01*
X015296Y006289D01*
X015366Y006320D01*
X015435Y006355D01*
X015503Y006393D01*
X015568Y006434D01*
X015631Y006479D01*
X015692Y006527D01*
X015751Y006577D01*
X015807Y006630D01*
X015860Y006686D01*
X015910Y006745D01*
X015958Y006806D01*
X016003Y006869D01*
X016044Y006934D01*
X016082Y007002D01*
X016117Y007071D01*
X016148Y007141D01*
X016176Y007213D01*
X016200Y007287D01*
X016221Y007361D01*
X016238Y007437D01*
X016251Y007513D01*
X016260Y007590D01*
X016266Y007667D01*
X016268Y007744D01*
X016267Y007744D02*
X016267Y024279D01*
X014063Y024279D02*
X014065Y024329D01*
X014071Y024379D01*
X014081Y024428D01*
X014095Y024476D01*
X014112Y024523D01*
X014133Y024568D01*
X014158Y024612D01*
X014186Y024653D01*
X014218Y024692D01*
X014252Y024729D01*
X014289Y024763D01*
X014329Y024793D01*
X014371Y024820D01*
X014415Y024844D01*
X014461Y024865D01*
X014508Y024881D01*
X014556Y024894D01*
X014606Y024903D01*
X014655Y024908D01*
X014706Y024909D01*
X014756Y024906D01*
X014805Y024899D01*
X014854Y024888D01*
X014902Y024873D01*
X014948Y024855D01*
X014993Y024833D01*
X015036Y024807D01*
X015077Y024778D01*
X015116Y024746D01*
X015152Y024711D01*
X015184Y024673D01*
X015214Y024633D01*
X015241Y024590D01*
X015264Y024546D01*
X015283Y024500D01*
X015299Y024452D01*
X015311Y024403D01*
X015319Y024354D01*
X015323Y024304D01*
X015323Y024254D01*
X015319Y024204D01*
X015311Y024155D01*
X015299Y024106D01*
X015283Y024058D01*
X015264Y024012D01*
X015241Y023968D01*
X015214Y023925D01*
X015184Y023885D01*
X015152Y023847D01*
X015116Y023812D01*
X015077Y023780D01*
X015036Y023751D01*
X014993Y023725D01*
X014948Y023703D01*
X014902Y023685D01*
X014854Y023670D01*
X014805Y023659D01*
X014756Y023652D01*
X014706Y023649D01*
X014655Y023650D01*
X014606Y023655D01*
X014556Y023664D01*
X014508Y023677D01*
X014461Y023693D01*
X014415Y023714D01*
X014371Y023738D01*
X014329Y023765D01*
X014289Y023795D01*
X014252Y023829D01*
X014218Y023866D01*
X014186Y023905D01*
X014158Y023946D01*
X014133Y023990D01*
X014112Y024035D01*
X014095Y024082D01*
X014081Y024130D01*
X014071Y024179D01*
X014065Y024229D01*
X014063Y024279D01*
X014693Y025854D02*
X014770Y025852D01*
X014847Y025846D01*
X014924Y025837D01*
X015000Y025824D01*
X015076Y025807D01*
X015150Y025786D01*
X015224Y025762D01*
X015296Y025734D01*
X015366Y025703D01*
X015435Y025668D01*
X015503Y025630D01*
X015568Y025589D01*
X015631Y025544D01*
X015692Y025496D01*
X015751Y025446D01*
X015807Y025393D01*
X015860Y025337D01*
X015910Y025278D01*
X015958Y025217D01*
X016003Y025154D01*
X016044Y025089D01*
X016082Y025021D01*
X016117Y024952D01*
X016148Y024882D01*
X016176Y024810D01*
X016200Y024736D01*
X016221Y024662D01*
X016238Y024586D01*
X016251Y024510D01*
X016260Y024433D01*
X016266Y024356D01*
X016268Y024279D01*
X014693Y025854D02*
X005637Y025854D01*
X014693Y025854D01*
X005007Y024279D02*
X005009Y024329D01*
X005015Y024379D01*
X005025Y024428D01*
X005039Y024476D01*
X005056Y024523D01*
X005077Y024568D01*
X005102Y024612D01*
X005130Y024653D01*
X005162Y024692D01*
X005196Y024729D01*
X005233Y024763D01*
X005273Y024793D01*
X005315Y024820D01*
X005359Y024844D01*
X005405Y024865D01*
X005452Y024881D01*
X005500Y024894D01*
X005550Y024903D01*
X005599Y024908D01*
X005650Y024909D01*
X005700Y024906D01*
X005749Y024899D01*
X005798Y024888D01*
X005846Y024873D01*
X005892Y024855D01*
X005937Y024833D01*
X005980Y024807D01*
X006021Y024778D01*
X006060Y024746D01*
X006096Y024711D01*
X006128Y024673D01*
X006158Y024633D01*
X006185Y024590D01*
X006208Y024546D01*
X006227Y024500D01*
X006243Y024452D01*
X006255Y024403D01*
X006263Y024354D01*
X006267Y024304D01*
X006267Y024254D01*
X006263Y024204D01*
X006255Y024155D01*
X006243Y024106D01*
X006227Y024058D01*
X006208Y024012D01*
X006185Y023968D01*
X006158Y023925D01*
X006128Y023885D01*
X006096Y023847D01*
X006060Y023812D01*
X006021Y023780D01*
X005980Y023751D01*
X005937Y023725D01*
X005892Y023703D01*
X005846Y023685D01*
X005798Y023670D01*
X005749Y023659D01*
X005700Y023652D01*
X005650Y023649D01*
X005599Y023650D01*
X005550Y023655D01*
X005500Y023664D01*
X005452Y023677D01*
X005405Y023693D01*
X005359Y023714D01*
X005315Y023738D01*
X005273Y023765D01*
X005233Y023795D01*
X005196Y023829D01*
X005162Y023866D01*
X005130Y023905D01*
X005102Y023946D01*
X005077Y023990D01*
X005056Y024035D01*
X005039Y024082D01*
X005025Y024130D01*
X005015Y024179D01*
X005009Y024229D01*
X005007Y024279D01*
X004062Y024279D02*
X004064Y024356D01*
X004070Y024433D01*
X004079Y024510D01*
X004092Y024586D01*
X004109Y024662D01*
X004130Y024736D01*
X004154Y024810D01*
X004182Y024882D01*
X004213Y024952D01*
X004248Y025021D01*
X004286Y025089D01*
X004327Y025154D01*
X004372Y025217D01*
X004420Y025278D01*
X004470Y025337D01*
X004523Y025393D01*
X004579Y025446D01*
X004638Y025496D01*
X004699Y025544D01*
X004762Y025589D01*
X004827Y025630D01*
X004895Y025668D01*
X004964Y025703D01*
X005034Y025734D01*
X005106Y025762D01*
X005180Y025786D01*
X005254Y025807D01*
X005330Y025824D01*
X005406Y025837D01*
X005483Y025846D01*
X005560Y025852D01*
X005637Y025854D01*
X004063Y024279D02*
X004063Y007744D01*
X005007Y007744D02*
X005009Y007794D01*
X005015Y007844D01*
X005025Y007893D01*
X005039Y007941D01*
X005056Y007988D01*
X005077Y008033D01*
X005102Y008077D01*
X005130Y008118D01*
X005162Y008157D01*
X005196Y008194D01*
X005233Y008228D01*
X005273Y008258D01*
X005315Y008285D01*
X005359Y008309D01*
X005405Y008330D01*
X005452Y008346D01*
X005500Y008359D01*
X005550Y008368D01*
X005599Y008373D01*
X005650Y008374D01*
X005700Y008371D01*
X005749Y008364D01*
X005798Y008353D01*
X005846Y008338D01*
X005892Y008320D01*
X005937Y008298D01*
X005980Y008272D01*
X006021Y008243D01*
X006060Y008211D01*
X006096Y008176D01*
X006128Y008138D01*
X006158Y008098D01*
X006185Y008055D01*
X006208Y008011D01*
X006227Y007965D01*
X006243Y007917D01*
X006255Y007868D01*
X006263Y007819D01*
X006267Y007769D01*
X006267Y007719D01*
X006263Y007669D01*
X006255Y007620D01*
X006243Y007571D01*
X006227Y007523D01*
X006208Y007477D01*
X006185Y007433D01*
X006158Y007390D01*
X006128Y007350D01*
X006096Y007312D01*
X006060Y007277D01*
X006021Y007245D01*
X005980Y007216D01*
X005937Y007190D01*
X005892Y007168D01*
X005846Y007150D01*
X005798Y007135D01*
X005749Y007124D01*
X005700Y007117D01*
X005650Y007114D01*
X005599Y007115D01*
X005550Y007120D01*
X005500Y007129D01*
X005452Y007142D01*
X005405Y007158D01*
X005359Y007179D01*
X005315Y007203D01*
X005273Y007230D01*
X005233Y007260D01*
X005196Y007294D01*
X005162Y007331D01*
X005130Y007370D01*
X005102Y007411D01*
X005077Y007455D01*
X005056Y007500D01*
X005039Y007547D01*
X005025Y007595D01*
X005015Y007644D01*
X005009Y007694D01*
X005007Y007744D01*
X004062Y007744D02*
X004064Y007667D01*
X004070Y007590D01*
X004079Y007513D01*
X004092Y007437D01*
X004109Y007361D01*
X004130Y007287D01*
X004154Y007213D01*
X004182Y007141D01*
X004213Y007071D01*
X004248Y007002D01*
X004286Y006934D01*
X004327Y006869D01*
X004372Y006806D01*
X004420Y006745D01*
X004470Y006686D01*
X004523Y006630D01*
X004579Y006577D01*
X004638Y006527D01*
X004699Y006479D01*
X004762Y006434D01*
X004827Y006393D01*
X004895Y006355D01*
X004964Y006320D01*
X005034Y006289D01*
X005106Y006261D01*
X005180Y006237D01*
X005254Y006216D01*
X005330Y006199D01*
X005406Y006186D01*
X005483Y006177D01*
X005560Y006171D01*
X005637Y006169D01*
X032763Y027822D02*
X032765Y027879D01*
X032771Y027936D01*
X032781Y027992D01*
X032794Y028048D01*
X032812Y028102D01*
X032833Y028155D01*
X032858Y028206D01*
X032886Y028256D01*
X032918Y028303D01*
X032952Y028349D01*
X032990Y028391D01*
X033031Y028431D01*
X033074Y028469D01*
X033120Y028503D01*
X033168Y028533D01*
X033218Y028561D01*
X033270Y028585D01*
X033324Y028605D01*
X033378Y028621D01*
X033434Y028634D01*
X033490Y028643D01*
X033547Y028648D01*
X033604Y028649D01*
X033661Y028646D01*
X033718Y028639D01*
X033774Y028628D01*
X033829Y028614D01*
X033883Y028595D01*
X033936Y028573D01*
X033987Y028548D01*
X034036Y028518D01*
X034083Y028486D01*
X034128Y028450D01*
X034170Y028412D01*
X034209Y028370D01*
X034245Y028326D01*
X034279Y028280D01*
X034309Y028231D01*
X034335Y028181D01*
X034358Y028129D01*
X034377Y028075D01*
X034393Y028020D01*
X034405Y027964D01*
X034413Y027907D01*
X034417Y027851D01*
X034417Y027793D01*
X034413Y027737D01*
X034405Y027680D01*
X034393Y027624D01*
X034377Y027569D01*
X034358Y027515D01*
X034335Y027463D01*
X034309Y027413D01*
X034279Y027364D01*
X034245Y027318D01*
X034209Y027274D01*
X034170Y027232D01*
X034128Y027194D01*
X034083Y027158D01*
X034036Y027126D01*
X033987Y027096D01*
X033936Y027071D01*
X033883Y027049D01*
X033829Y027030D01*
X033774Y027016D01*
X033718Y027005D01*
X033661Y026998D01*
X033604Y026995D01*
X033547Y026996D01*
X033490Y027001D01*
X033434Y027010D01*
X033378Y027023D01*
X033324Y027039D01*
X033270Y027059D01*
X033218Y027083D01*
X033168Y027111D01*
X033120Y027141D01*
X033074Y027175D01*
X033031Y027213D01*
X032990Y027253D01*
X032952Y027295D01*
X032918Y027341D01*
X032886Y027388D01*
X032858Y027438D01*
X032833Y027489D01*
X032812Y027542D01*
X032794Y027596D01*
X032781Y027652D01*
X032771Y027708D01*
X032765Y027765D01*
X032763Y027822D01*
X031622Y029791D02*
X035559Y029791D01*
X035559Y025854D01*
M02*
