G75*
%MOIN*%
%OFA0B0*%
%FSLAX24Y24*%
%IPPOS*%
%LPD*%
%AMOC8*
5,1,8,0,0,1.08239X$1,22.5*
%
%ADD10C,0.0000*%
%ADD11C,0.0080*%
%ADD12R,0.0236X0.0118*%
%ADD13R,0.0118X0.0118*%
%ADD14R,0.0118X0.0236*%
%ADD15R,0.0512X0.0709*%
%ADD16R,0.0276X0.0276*%
%ADD17OC8,0.0709*%
%ADD18C,0.0059*%
%ADD19R,0.0118X0.0472*%
%ADD20R,0.0472X0.0118*%
%ADD21R,0.1378X0.1378*%
%ADD22C,0.0315*%
%ADD23C,0.0472*%
%ADD24R,0.0394X0.0394*%
%ADD25R,0.0472X0.0551*%
%ADD26R,0.0157X0.0276*%
%ADD27R,0.0472X0.0236*%
%ADD28OC8,0.0591*%
%ADD29R,0.0433X0.0276*%
%ADD30C,0.0098*%
%ADD31C,0.0236*%
%ADD32C,0.0157*%
%ADD33C,0.0827*%
%ADD34C,0.0236*%
%ADD35C,0.0118*%
%ADD36C,0.0315*%
D10*
X005054Y003625D02*
X021590Y003625D01*
X005054Y003625D01*
X004424Y005200D02*
X004426Y005250D01*
X004432Y005300D01*
X004442Y005349D01*
X004456Y005397D01*
X004473Y005444D01*
X004494Y005489D01*
X004519Y005533D01*
X004547Y005574D01*
X004579Y005613D01*
X004613Y005650D01*
X004650Y005684D01*
X004690Y005714D01*
X004732Y005741D01*
X004776Y005765D01*
X004822Y005786D01*
X004869Y005802D01*
X004917Y005815D01*
X004967Y005824D01*
X005016Y005829D01*
X005067Y005830D01*
X005117Y005827D01*
X005166Y005820D01*
X005215Y005809D01*
X005263Y005794D01*
X005309Y005776D01*
X005354Y005754D01*
X005397Y005728D01*
X005438Y005699D01*
X005477Y005667D01*
X005513Y005632D01*
X005545Y005594D01*
X005575Y005554D01*
X005602Y005511D01*
X005625Y005467D01*
X005644Y005421D01*
X005660Y005373D01*
X005672Y005324D01*
X005680Y005275D01*
X005684Y005225D01*
X005684Y005175D01*
X005680Y005125D01*
X005672Y005076D01*
X005660Y005027D01*
X005644Y004979D01*
X005625Y004933D01*
X005602Y004889D01*
X005575Y004846D01*
X005545Y004806D01*
X005513Y004768D01*
X005477Y004733D01*
X005438Y004701D01*
X005397Y004672D01*
X005354Y004646D01*
X005309Y004624D01*
X005263Y004606D01*
X005215Y004591D01*
X005166Y004580D01*
X005117Y004573D01*
X005067Y004570D01*
X005016Y004571D01*
X004967Y004576D01*
X004917Y004585D01*
X004869Y004598D01*
X004822Y004614D01*
X004776Y004635D01*
X004732Y004659D01*
X004690Y004686D01*
X004650Y004716D01*
X004613Y004750D01*
X004579Y004787D01*
X004547Y004826D01*
X004519Y004867D01*
X004494Y004911D01*
X004473Y004956D01*
X004456Y005003D01*
X004442Y005051D01*
X004432Y005100D01*
X004426Y005150D01*
X004424Y005200D01*
X003479Y005200D02*
X003481Y005123D01*
X003487Y005046D01*
X003496Y004969D01*
X003509Y004893D01*
X003526Y004817D01*
X003547Y004743D01*
X003571Y004669D01*
X003599Y004597D01*
X003630Y004527D01*
X003665Y004458D01*
X003703Y004390D01*
X003744Y004325D01*
X003789Y004262D01*
X003837Y004201D01*
X003887Y004142D01*
X003940Y004086D01*
X003996Y004033D01*
X004055Y003983D01*
X004116Y003935D01*
X004179Y003890D01*
X004244Y003849D01*
X004312Y003811D01*
X004381Y003776D01*
X004451Y003745D01*
X004523Y003717D01*
X004597Y003693D01*
X004671Y003672D01*
X004747Y003655D01*
X004823Y003642D01*
X004900Y003633D01*
X004977Y003627D01*
X005054Y003625D01*
X004977Y003627D01*
X004900Y003633D01*
X004823Y003642D01*
X004747Y003655D01*
X004671Y003672D01*
X004597Y003693D01*
X004523Y003717D01*
X004451Y003745D01*
X004381Y003776D01*
X004312Y003811D01*
X004244Y003849D01*
X004179Y003890D01*
X004116Y003935D01*
X004055Y003983D01*
X003996Y004033D01*
X003940Y004086D01*
X003887Y004142D01*
X003837Y004201D01*
X003789Y004262D01*
X003744Y004325D01*
X003703Y004390D01*
X003665Y004458D01*
X003630Y004527D01*
X003599Y004597D01*
X003571Y004669D01*
X003547Y004743D01*
X003526Y004817D01*
X003509Y004893D01*
X003496Y004969D01*
X003487Y005046D01*
X003481Y005123D01*
X003479Y005200D01*
X003480Y005200D02*
X003480Y014255D01*
X003480Y005200D01*
X004424Y014255D02*
X004426Y014305D01*
X004432Y014355D01*
X004442Y014404D01*
X004456Y014452D01*
X004473Y014499D01*
X004494Y014544D01*
X004519Y014588D01*
X004547Y014629D01*
X004579Y014668D01*
X004613Y014705D01*
X004650Y014739D01*
X004690Y014769D01*
X004732Y014796D01*
X004776Y014820D01*
X004822Y014841D01*
X004869Y014857D01*
X004917Y014870D01*
X004967Y014879D01*
X005016Y014884D01*
X005067Y014885D01*
X005117Y014882D01*
X005166Y014875D01*
X005215Y014864D01*
X005263Y014849D01*
X005309Y014831D01*
X005354Y014809D01*
X005397Y014783D01*
X005438Y014754D01*
X005477Y014722D01*
X005513Y014687D01*
X005545Y014649D01*
X005575Y014609D01*
X005602Y014566D01*
X005625Y014522D01*
X005644Y014476D01*
X005660Y014428D01*
X005672Y014379D01*
X005680Y014330D01*
X005684Y014280D01*
X005684Y014230D01*
X005680Y014180D01*
X005672Y014131D01*
X005660Y014082D01*
X005644Y014034D01*
X005625Y013988D01*
X005602Y013944D01*
X005575Y013901D01*
X005545Y013861D01*
X005513Y013823D01*
X005477Y013788D01*
X005438Y013756D01*
X005397Y013727D01*
X005354Y013701D01*
X005309Y013679D01*
X005263Y013661D01*
X005215Y013646D01*
X005166Y013635D01*
X005117Y013628D01*
X005067Y013625D01*
X005016Y013626D01*
X004967Y013631D01*
X004917Y013640D01*
X004869Y013653D01*
X004822Y013669D01*
X004776Y013690D01*
X004732Y013714D01*
X004690Y013741D01*
X004650Y013771D01*
X004613Y013805D01*
X004579Y013842D01*
X004547Y013881D01*
X004519Y013922D01*
X004494Y013966D01*
X004473Y014011D01*
X004456Y014058D01*
X004442Y014106D01*
X004432Y014155D01*
X004426Y014205D01*
X004424Y014255D01*
X003479Y014255D02*
X003481Y014332D01*
X003487Y014409D01*
X003496Y014486D01*
X003509Y014562D01*
X003526Y014638D01*
X003547Y014712D01*
X003571Y014786D01*
X003599Y014858D01*
X003630Y014928D01*
X003665Y014997D01*
X003703Y015065D01*
X003744Y015130D01*
X003789Y015193D01*
X003837Y015254D01*
X003887Y015313D01*
X003940Y015369D01*
X003996Y015422D01*
X004055Y015472D01*
X004116Y015520D01*
X004179Y015565D01*
X004244Y015606D01*
X004312Y015644D01*
X004381Y015679D01*
X004451Y015710D01*
X004523Y015738D01*
X004597Y015762D01*
X004671Y015783D01*
X004747Y015800D01*
X004823Y015813D01*
X004900Y015822D01*
X004977Y015828D01*
X005054Y015830D01*
X021590Y015830D01*
X005054Y015830D01*
X004977Y015828D01*
X004900Y015822D01*
X004823Y015813D01*
X004747Y015800D01*
X004671Y015783D01*
X004597Y015762D01*
X004523Y015738D01*
X004451Y015710D01*
X004381Y015679D01*
X004312Y015644D01*
X004244Y015606D01*
X004179Y015565D01*
X004116Y015520D01*
X004055Y015472D01*
X003996Y015422D01*
X003940Y015369D01*
X003887Y015313D01*
X003837Y015254D01*
X003789Y015193D01*
X003744Y015130D01*
X003703Y015065D01*
X003665Y014997D01*
X003630Y014928D01*
X003599Y014858D01*
X003571Y014786D01*
X003547Y014712D01*
X003526Y014638D01*
X003509Y014562D01*
X003496Y014486D01*
X003487Y014409D01*
X003481Y014332D01*
X003479Y014255D01*
X020960Y014255D02*
X020962Y014305D01*
X020968Y014355D01*
X020978Y014404D01*
X020992Y014452D01*
X021009Y014499D01*
X021030Y014544D01*
X021055Y014588D01*
X021083Y014629D01*
X021115Y014668D01*
X021149Y014705D01*
X021186Y014739D01*
X021226Y014769D01*
X021268Y014796D01*
X021312Y014820D01*
X021358Y014841D01*
X021405Y014857D01*
X021453Y014870D01*
X021503Y014879D01*
X021552Y014884D01*
X021603Y014885D01*
X021653Y014882D01*
X021702Y014875D01*
X021751Y014864D01*
X021799Y014849D01*
X021845Y014831D01*
X021890Y014809D01*
X021933Y014783D01*
X021974Y014754D01*
X022013Y014722D01*
X022049Y014687D01*
X022081Y014649D01*
X022111Y014609D01*
X022138Y014566D01*
X022161Y014522D01*
X022180Y014476D01*
X022196Y014428D01*
X022208Y014379D01*
X022216Y014330D01*
X022220Y014280D01*
X022220Y014230D01*
X022216Y014180D01*
X022208Y014131D01*
X022196Y014082D01*
X022180Y014034D01*
X022161Y013988D01*
X022138Y013944D01*
X022111Y013901D01*
X022081Y013861D01*
X022049Y013823D01*
X022013Y013788D01*
X021974Y013756D01*
X021933Y013727D01*
X021890Y013701D01*
X021845Y013679D01*
X021799Y013661D01*
X021751Y013646D01*
X021702Y013635D01*
X021653Y013628D01*
X021603Y013625D01*
X021552Y013626D01*
X021503Y013631D01*
X021453Y013640D01*
X021405Y013653D01*
X021358Y013669D01*
X021312Y013690D01*
X021268Y013714D01*
X021226Y013741D01*
X021186Y013771D01*
X021149Y013805D01*
X021115Y013842D01*
X021083Y013881D01*
X021055Y013922D01*
X021030Y013966D01*
X021009Y014011D01*
X020992Y014058D01*
X020978Y014106D01*
X020968Y014155D01*
X020962Y014205D01*
X020960Y014255D01*
X021590Y015830D02*
X021667Y015828D01*
X021744Y015822D01*
X021821Y015813D01*
X021897Y015800D01*
X021973Y015783D01*
X022047Y015762D01*
X022121Y015738D01*
X022193Y015710D01*
X022263Y015679D01*
X022332Y015644D01*
X022400Y015606D01*
X022465Y015565D01*
X022528Y015520D01*
X022589Y015472D01*
X022648Y015422D01*
X022704Y015369D01*
X022757Y015313D01*
X022807Y015254D01*
X022855Y015193D01*
X022900Y015130D01*
X022941Y015065D01*
X022979Y014997D01*
X023014Y014928D01*
X023045Y014858D01*
X023073Y014786D01*
X023097Y014712D01*
X023118Y014638D01*
X023135Y014562D01*
X023148Y014486D01*
X023157Y014409D01*
X023163Y014332D01*
X023165Y014255D01*
X023165Y005200D01*
X023165Y014255D01*
X023163Y014332D01*
X023157Y014409D01*
X023148Y014486D01*
X023135Y014562D01*
X023118Y014638D01*
X023097Y014712D01*
X023073Y014786D01*
X023045Y014858D01*
X023014Y014928D01*
X022979Y014997D01*
X022941Y015065D01*
X022900Y015130D01*
X022855Y015193D01*
X022807Y015254D01*
X022757Y015313D01*
X022704Y015369D01*
X022648Y015422D01*
X022589Y015472D01*
X022528Y015520D01*
X022465Y015565D01*
X022400Y015606D01*
X022332Y015644D01*
X022263Y015679D01*
X022193Y015710D01*
X022121Y015738D01*
X022047Y015762D01*
X021973Y015783D01*
X021897Y015800D01*
X021821Y015813D01*
X021744Y015822D01*
X021667Y015828D01*
X021590Y015830D01*
X020960Y005200D02*
X020962Y005250D01*
X020968Y005300D01*
X020978Y005349D01*
X020992Y005397D01*
X021009Y005444D01*
X021030Y005489D01*
X021055Y005533D01*
X021083Y005574D01*
X021115Y005613D01*
X021149Y005650D01*
X021186Y005684D01*
X021226Y005714D01*
X021268Y005741D01*
X021312Y005765D01*
X021358Y005786D01*
X021405Y005802D01*
X021453Y005815D01*
X021503Y005824D01*
X021552Y005829D01*
X021603Y005830D01*
X021653Y005827D01*
X021702Y005820D01*
X021751Y005809D01*
X021799Y005794D01*
X021845Y005776D01*
X021890Y005754D01*
X021933Y005728D01*
X021974Y005699D01*
X022013Y005667D01*
X022049Y005632D01*
X022081Y005594D01*
X022111Y005554D01*
X022138Y005511D01*
X022161Y005467D01*
X022180Y005421D01*
X022196Y005373D01*
X022208Y005324D01*
X022216Y005275D01*
X022220Y005225D01*
X022220Y005175D01*
X022216Y005125D01*
X022208Y005076D01*
X022196Y005027D01*
X022180Y004979D01*
X022161Y004933D01*
X022138Y004889D01*
X022111Y004846D01*
X022081Y004806D01*
X022049Y004768D01*
X022013Y004733D01*
X021974Y004701D01*
X021933Y004672D01*
X021890Y004646D01*
X021845Y004624D01*
X021799Y004606D01*
X021751Y004591D01*
X021702Y004580D01*
X021653Y004573D01*
X021603Y004570D01*
X021552Y004571D01*
X021503Y004576D01*
X021453Y004585D01*
X021405Y004598D01*
X021358Y004614D01*
X021312Y004635D01*
X021268Y004659D01*
X021226Y004686D01*
X021186Y004716D01*
X021149Y004750D01*
X021115Y004787D01*
X021083Y004826D01*
X021055Y004867D01*
X021030Y004911D01*
X021009Y004956D01*
X020992Y005003D01*
X020978Y005051D01*
X020968Y005100D01*
X020962Y005150D01*
X020960Y005200D01*
X021590Y003625D02*
X021667Y003627D01*
X021744Y003633D01*
X021821Y003642D01*
X021897Y003655D01*
X021973Y003672D01*
X022047Y003693D01*
X022121Y003717D01*
X022193Y003745D01*
X022263Y003776D01*
X022332Y003811D01*
X022400Y003849D01*
X022465Y003890D01*
X022528Y003935D01*
X022589Y003983D01*
X022648Y004033D01*
X022704Y004086D01*
X022757Y004142D01*
X022807Y004201D01*
X022855Y004262D01*
X022900Y004325D01*
X022941Y004390D01*
X022979Y004458D01*
X023014Y004527D01*
X023045Y004597D01*
X023073Y004669D01*
X023097Y004743D01*
X023118Y004817D01*
X023135Y004893D01*
X023148Y004969D01*
X023157Y005046D01*
X023163Y005123D01*
X023165Y005200D01*
X023163Y005123D01*
X023157Y005046D01*
X023148Y004969D01*
X023135Y004893D01*
X023118Y004817D01*
X023097Y004743D01*
X023073Y004669D01*
X023045Y004597D01*
X023014Y004527D01*
X022979Y004458D01*
X022941Y004390D01*
X022900Y004325D01*
X022855Y004262D01*
X022807Y004201D01*
X022757Y004142D01*
X022704Y004086D01*
X022648Y004033D01*
X022589Y003983D01*
X022528Y003935D01*
X022465Y003890D01*
X022400Y003849D01*
X022332Y003811D01*
X022263Y003776D01*
X022193Y003745D01*
X022121Y003717D01*
X022047Y003693D01*
X021973Y003672D01*
X021897Y003655D01*
X021821Y003642D01*
X021744Y003633D01*
X021667Y003627D01*
X021590Y003625D01*
D11*
X006744Y006566D02*
X006535Y006566D01*
X006398Y006618D02*
X006293Y006618D01*
X006346Y006618D02*
X006346Y006932D01*
X006398Y006932D02*
X006293Y006932D01*
X006140Y006932D02*
X005931Y006723D01*
X005983Y006775D02*
X006140Y006618D01*
X005931Y006618D02*
X005931Y006932D01*
X005778Y006932D02*
X005778Y006670D01*
X005725Y006618D01*
X005621Y006618D01*
X005568Y006670D01*
X005568Y006932D01*
X005415Y006932D02*
X005415Y006880D01*
X005206Y006670D01*
X005206Y006618D01*
X005415Y006618D01*
X005053Y006775D02*
X004843Y006775D01*
X005000Y006932D01*
X005000Y006618D01*
X004690Y006618D02*
X004533Y006775D01*
X004481Y006723D02*
X004690Y006932D01*
X004481Y006932D02*
X004481Y006618D01*
X004328Y006566D02*
X004118Y006566D01*
X003965Y006670D02*
X003913Y006618D01*
X003808Y006618D01*
X003756Y006670D01*
X003756Y006880D01*
X003808Y006932D01*
X003913Y006932D01*
X003965Y006880D01*
X003965Y006775D01*
X003913Y006723D01*
X003913Y006827D01*
X003808Y006827D01*
X003808Y006723D01*
X003913Y006723D01*
X003756Y007209D02*
X003756Y007418D01*
X003860Y007418D02*
X003913Y007418D01*
X003860Y007418D02*
X003756Y007313D01*
X004058Y007313D02*
X004267Y007313D01*
X004267Y007366D01*
X004215Y007418D01*
X004110Y007418D01*
X004058Y007366D01*
X004058Y007261D01*
X004110Y007209D01*
X004215Y007209D01*
X004420Y007418D02*
X004525Y007209D01*
X004630Y007418D01*
X005145Y007470D02*
X005145Y007261D01*
X005355Y007470D01*
X005355Y007261D01*
X005302Y007209D01*
X005198Y007209D01*
X005145Y007261D01*
X005145Y007470D02*
X005198Y007523D01*
X005302Y007523D01*
X005355Y007470D01*
X005508Y007261D02*
X005560Y007261D01*
X005560Y007209D01*
X005508Y007209D01*
X005508Y007261D01*
X005689Y007209D02*
X005898Y007209D01*
X005794Y007209D02*
X005794Y007523D01*
X005689Y007418D01*
X005415Y006932D02*
X005206Y006932D01*
D12*
X020487Y008960D03*
X020487Y009216D03*
X020487Y009472D03*
X020487Y009728D03*
X020487Y009984D03*
X020487Y010240D03*
X020487Y010495D03*
X021747Y010495D03*
X021747Y010240D03*
X021747Y009984D03*
X021747Y009728D03*
X021747Y009472D03*
X021747Y009216D03*
X021747Y008960D03*
D13*
X021186Y008960D03*
X020930Y008960D03*
X021186Y010495D03*
D14*
X021186Y010121D03*
X020930Y010121D03*
X020930Y009728D03*
X021186Y009728D03*
X021186Y009334D03*
X020930Y009334D03*
X020940Y008586D03*
X020704Y008586D03*
X020468Y008586D03*
X021176Y008586D03*
X021413Y008586D03*
X021649Y008586D03*
X022948Y008586D03*
X022948Y010869D03*
X021649Y010869D03*
X021413Y010869D03*
X021176Y010869D03*
X020940Y010869D03*
X020704Y010869D03*
X020468Y010869D03*
D15*
X020684Y007680D03*
X019661Y007680D03*
D16*
X019464Y008783D03*
X019936Y008783D03*
X016472Y009688D03*
X015999Y009688D03*
X015999Y010200D03*
X016472Y010200D03*
X015094Y009964D03*
X015094Y009491D03*
X014503Y009491D03*
X014503Y009964D03*
X013716Y009964D03*
X013716Y009491D03*
X012928Y009491D03*
X012928Y009964D03*
X012141Y009964D03*
X012141Y009491D03*
X011550Y009491D03*
X011550Y009964D03*
X011314Y011499D03*
X011314Y011972D03*
X013480Y012877D03*
X013952Y012877D03*
X014700Y011736D03*
X014700Y011263D03*
X014976Y007838D03*
X015448Y007838D03*
X010133Y006932D03*
X009661Y006932D03*
X009267Y006932D03*
X008794Y006932D03*
X008794Y007405D03*
X008794Y007877D03*
X009267Y007877D03*
X009267Y007405D03*
X009267Y008350D03*
X008794Y008350D03*
D17*
X008135Y013271D03*
X010635Y013271D03*
X016009Y013271D03*
X016009Y011302D03*
X018509Y011302D03*
X018509Y013271D03*
D18*
X013981Y009088D02*
X013981Y008674D01*
X013981Y009088D02*
X014041Y009088D01*
X014041Y008674D01*
X013981Y008674D01*
X013981Y008732D02*
X014041Y008732D01*
X014041Y008790D02*
X013981Y008790D01*
X013981Y008848D02*
X014041Y008848D01*
X014041Y008906D02*
X013981Y008906D01*
X013981Y008964D02*
X014041Y008964D01*
X014041Y009022D02*
X013981Y009022D01*
X013981Y009080D02*
X014041Y009080D01*
X014158Y008497D02*
X014572Y008497D01*
X014158Y008497D02*
X014158Y008557D01*
X014572Y008557D01*
X014572Y008497D01*
X014572Y008555D02*
X014158Y008555D01*
X012603Y008674D02*
X012603Y009088D01*
X012663Y009088D01*
X012663Y008674D01*
X012603Y008674D01*
X012603Y008732D02*
X012663Y008732D01*
X012663Y008790D02*
X012603Y008790D01*
X012603Y008848D02*
X012663Y008848D01*
X012663Y008906D02*
X012603Y008906D01*
X012603Y008964D02*
X012663Y008964D01*
X012663Y009022D02*
X012603Y009022D01*
X012603Y009080D02*
X012663Y009080D01*
X012486Y008497D02*
X012072Y008497D01*
X012072Y008557D01*
X012486Y008557D01*
X012486Y008497D01*
X012486Y008555D02*
X012072Y008555D01*
X012072Y007119D02*
X012486Y007119D01*
X012072Y007119D02*
X012072Y007179D01*
X012486Y007179D01*
X012486Y007119D01*
X012486Y007177D02*
X012072Y007177D01*
X012603Y007002D02*
X012603Y006588D01*
X012603Y007002D02*
X012663Y007002D01*
X012663Y006588D01*
X012603Y006588D01*
X012603Y006646D02*
X012663Y006646D01*
X012663Y006704D02*
X012603Y006704D01*
X012603Y006762D02*
X012663Y006762D01*
X012663Y006820D02*
X012603Y006820D01*
X012603Y006878D02*
X012663Y006878D01*
X012663Y006936D02*
X012603Y006936D01*
X012603Y006994D02*
X012663Y006994D01*
X013981Y007002D02*
X013981Y006588D01*
X013981Y007002D02*
X014041Y007002D01*
X014041Y006588D01*
X013981Y006588D01*
X013981Y006646D02*
X014041Y006646D01*
X014041Y006704D02*
X013981Y006704D01*
X013981Y006762D02*
X014041Y006762D01*
X014041Y006820D02*
X013981Y006820D01*
X013981Y006878D02*
X014041Y006878D01*
X014041Y006936D02*
X013981Y006936D01*
X013981Y006994D02*
X014041Y006994D01*
X014158Y007119D02*
X014572Y007119D01*
X014158Y007119D02*
X014158Y007179D01*
X014572Y007179D01*
X014572Y007119D01*
X014572Y007177D02*
X014158Y007177D01*
D19*
X013814Y006795D03*
X013617Y006795D03*
X013420Y006795D03*
X013224Y006795D03*
X013027Y006795D03*
X012830Y006795D03*
X012830Y008881D03*
X013027Y008881D03*
X013224Y008881D03*
X013420Y008881D03*
X013617Y008881D03*
X013814Y008881D03*
D20*
X014365Y008330D03*
X014365Y008133D03*
X014365Y007936D03*
X014365Y007740D03*
X014365Y007543D03*
X014365Y007346D03*
X012279Y007346D03*
X012279Y007543D03*
X012279Y007740D03*
X012279Y007936D03*
X012279Y008133D03*
X012279Y008330D03*
D21*
X013322Y007838D03*
D22*
X007062Y009098D03*
X006590Y009413D03*
X007062Y009728D03*
X006590Y010043D03*
X007062Y010358D03*
D23*
X006983Y011184D02*
X006511Y011184D01*
X005094Y011184D02*
X004621Y011184D01*
X004621Y008271D02*
X005094Y008271D01*
X006511Y008271D02*
X006983Y008271D01*
D24*
X008007Y009943D03*
X008007Y010693D03*
X010763Y010693D03*
X010763Y009943D03*
D25*
X013381Y011243D03*
X014050Y011243D03*
X014050Y012149D03*
X013381Y012149D03*
D26*
X012357Y012149D03*
X011846Y012149D03*
X011846Y011322D03*
X012102Y011322D03*
X012357Y011322D03*
D27*
X010054Y010653D03*
X010054Y009905D03*
X008798Y009905D03*
X008798Y010279D03*
X008798Y010653D03*
D28*
X008822Y004806D03*
X007822Y004806D03*
X009822Y004806D03*
X010822Y004806D03*
X011822Y004806D03*
X012822Y004806D03*
X013822Y004806D03*
X014822Y004806D03*
X015822Y004806D03*
X016822Y004806D03*
X017822Y004806D03*
X018822Y004806D03*
D29*
X011570Y006677D03*
X011570Y007188D03*
X010665Y006932D03*
D30*
X010133Y006932D01*
X010359Y006702D02*
X010395Y006667D01*
X010934Y006667D01*
X011009Y006742D01*
X011009Y007008D01*
X011057Y006960D01*
X011147Y006923D01*
X011245Y006923D01*
X011284Y006939D01*
X011291Y006932D01*
X011226Y006867D01*
X011226Y006486D01*
X011301Y006411D01*
X011840Y006411D01*
X011915Y006486D01*
X011915Y006574D01*
X011964Y006623D01*
X012082Y006741D01*
X012082Y006962D01*
X012102Y006962D01*
X012102Y006367D01*
X012264Y006204D01*
X010969Y006204D01*
X010865Y006100D01*
X009995Y005230D01*
X009647Y005230D01*
X009399Y004982D01*
X009399Y004631D01*
X009647Y004383D01*
X009997Y004383D01*
X010245Y004631D01*
X010245Y004979D01*
X011116Y005850D01*
X011615Y005850D01*
X010995Y005230D01*
X010647Y005230D01*
X010399Y004982D01*
X010399Y004631D01*
X010647Y004383D01*
X010997Y004383D01*
X011245Y004631D01*
X011245Y004979D01*
X011919Y005653D01*
X012418Y005653D01*
X011995Y005230D01*
X011647Y005230D01*
X011399Y004982D01*
X011399Y004631D01*
X011647Y004383D01*
X011997Y004383D01*
X012245Y004631D01*
X012245Y004979D01*
X012722Y005456D01*
X013221Y005456D01*
X012995Y005230D01*
X012647Y005230D01*
X012399Y004982D01*
X012399Y004631D01*
X012647Y004383D01*
X012997Y004383D01*
X013245Y004631D01*
X013245Y004979D01*
X013525Y005259D01*
X014024Y005259D01*
X013995Y005230D01*
X013647Y005230D01*
X013399Y004982D01*
X013399Y004631D01*
X013647Y004383D01*
X013997Y004383D01*
X014245Y004631D01*
X014245Y004979D01*
X014329Y005062D01*
X014479Y005062D01*
X014399Y004982D01*
X014399Y004631D01*
X014647Y004383D01*
X014997Y004383D01*
X015245Y004631D01*
X015245Y004747D01*
X015399Y004900D01*
X015399Y004631D01*
X015647Y004383D01*
X015997Y004383D01*
X016245Y004631D01*
X016245Y004982D01*
X016237Y004990D01*
X018159Y006913D01*
X018642Y006913D01*
X016959Y005230D01*
X016647Y005230D01*
X016399Y004982D01*
X016399Y004631D01*
X016647Y004383D01*
X016997Y004383D01*
X017245Y004631D01*
X017245Y004982D01*
X017229Y004998D01*
X018947Y006716D01*
X021230Y006716D01*
X021334Y006820D01*
X021570Y007056D01*
X021570Y008316D01*
X021590Y008335D01*
X021590Y008340D01*
X021761Y008340D01*
X021816Y008395D01*
X021816Y008297D01*
X021865Y008248D01*
X021865Y006509D01*
X021637Y006509D01*
X021634Y006513D01*
X021585Y006509D01*
X021537Y006509D01*
X021533Y006505D01*
X021455Y006500D01*
X021446Y006506D01*
X021403Y006496D01*
X021360Y006493D01*
X021353Y006485D01*
X021271Y006467D01*
X021262Y006472D01*
X021221Y006456D01*
X021178Y006447D01*
X021172Y006438D01*
X021094Y006409D01*
X021084Y006412D01*
X021046Y006391D01*
X021005Y006376D01*
X021000Y006366D01*
X020927Y006326D01*
X020917Y006328D01*
X020882Y006302D01*
X020843Y006281D01*
X020840Y006271D01*
X020774Y006221D01*
X020763Y006221D01*
X020732Y006190D01*
X020697Y006163D01*
X020696Y006153D01*
X020637Y006094D01*
X020626Y006093D01*
X020600Y006058D01*
X020569Y006027D01*
X020569Y006016D01*
X020519Y005949D01*
X020509Y005947D01*
X020488Y005908D01*
X020462Y005873D01*
X020463Y005863D01*
X020424Y005789D01*
X020414Y005785D01*
X020399Y005744D01*
X020378Y005706D01*
X020381Y005696D01*
X020352Y005618D01*
X020343Y005612D01*
X020333Y005569D01*
X020318Y005528D01*
X020322Y005518D01*
X020305Y005437D01*
X020297Y005430D01*
X020294Y005386D01*
X020284Y005344D01*
X020290Y005335D01*
X020284Y005257D01*
X020281Y005253D01*
X020281Y005205D01*
X020277Y005156D01*
X020281Y005152D01*
X020281Y003832D01*
X006363Y003832D01*
X006363Y005152D01*
X006367Y005156D01*
X006363Y005205D01*
X006363Y005253D01*
X006360Y005257D01*
X006354Y005335D01*
X006360Y005344D01*
X006350Y005386D01*
X006347Y005430D01*
X006339Y005437D01*
X006322Y005518D01*
X006326Y005528D01*
X006311Y005569D01*
X006301Y005612D01*
X006293Y005618D01*
X006263Y005696D01*
X006266Y005706D01*
X006245Y005744D01*
X006230Y005785D01*
X006221Y005789D01*
X006181Y005863D01*
X006182Y005873D01*
X006156Y005908D01*
X006135Y005947D01*
X006125Y005949D01*
X006075Y006016D01*
X006075Y006027D01*
X006044Y006058D01*
X006018Y006093D01*
X006007Y006094D01*
X005948Y006153D01*
X005947Y006163D01*
X005912Y006190D01*
X005881Y006221D01*
X005870Y006221D01*
X005804Y006271D01*
X005801Y006281D01*
X005762Y006302D01*
X005727Y006328D01*
X005717Y006326D01*
X005644Y006366D01*
X005639Y006376D01*
X005598Y006391D01*
X005560Y006412D01*
X005550Y006409D01*
X005472Y006438D01*
X005466Y006447D01*
X005452Y006450D01*
X005485Y006450D01*
X005518Y006483D01*
X005551Y006450D01*
X005795Y006450D01*
X005828Y006483D01*
X005861Y006450D01*
X006000Y006450D01*
X006035Y006485D01*
X006071Y006450D01*
X006210Y006450D01*
X006217Y006457D01*
X006224Y006450D01*
X006413Y006450D01*
X006465Y006398D01*
X006814Y006398D01*
X006912Y006496D01*
X006912Y006635D01*
X006814Y006734D01*
X006520Y006734D01*
X006514Y006740D01*
X006514Y006810D01*
X006566Y006862D01*
X006566Y007002D01*
X006468Y007100D01*
X006224Y007100D01*
X006217Y007093D01*
X006210Y007100D01*
X006071Y007100D01*
X006035Y007065D01*
X006014Y007087D01*
X006066Y007139D01*
X006066Y007278D01*
X005968Y007377D01*
X005962Y007377D01*
X005962Y007592D01*
X005913Y007641D01*
X005863Y007691D01*
X005724Y007691D01*
X005658Y007624D01*
X005626Y007592D01*
X005523Y007489D01*
X005523Y007540D01*
X005470Y007592D01*
X005470Y007592D01*
X005373Y007689D01*
X005372Y007691D01*
X005267Y007691D01*
X005251Y007691D01*
X005233Y007691D01*
X005233Y007691D01*
X005128Y007691D01*
X005030Y007592D01*
X004977Y007540D01*
X004977Y007495D01*
X004977Y007191D01*
X005069Y007100D01*
X004931Y007100D01*
X004845Y007014D01*
X004760Y007100D01*
X004666Y007100D01*
X004681Y007144D01*
X004811Y007405D01*
X004767Y007537D01*
X004643Y007599D01*
X005037Y007599D01*
X005030Y007592D02*
X005030Y007592D01*
X004977Y007540D02*
X004977Y007540D01*
X004977Y007540D01*
X004977Y007502D02*
X004779Y007502D01*
X004811Y007405D02*
X004977Y007405D01*
X004977Y007309D02*
X004763Y007309D01*
X004714Y007212D02*
X004977Y007212D01*
X005054Y007115D02*
X004671Y007115D01*
X004842Y007018D02*
X004848Y007018D01*
X005523Y007502D02*
X005536Y007502D01*
X005523Y007540D02*
X005523Y007540D01*
X005523Y007540D01*
X005463Y007599D02*
X005633Y007599D01*
X005626Y007592D02*
X005626Y007592D01*
X005372Y007691D02*
X005372Y007691D01*
X005372Y007691D01*
X005267Y007691D02*
X005267Y007691D01*
X005166Y007907D02*
X005300Y007962D01*
X005402Y008065D01*
X005458Y008199D01*
X005458Y008343D01*
X005402Y008477D01*
X005300Y008580D01*
X005166Y008635D01*
X004549Y008635D01*
X004415Y008580D01*
X004313Y008477D01*
X004257Y008343D01*
X004257Y008199D01*
X004313Y008065D01*
X004415Y007962D01*
X004549Y007907D01*
X005166Y007907D01*
X005325Y007987D02*
X006280Y007987D01*
X006305Y007962D02*
X006439Y007907D01*
X007056Y007907D01*
X007190Y007962D01*
X007292Y008065D01*
X007318Y008127D01*
X007318Y007725D01*
X007554Y007489D01*
X007658Y007385D01*
X008529Y007385D01*
X008529Y007214D01*
X008534Y007209D01*
X008480Y007155D01*
X008480Y007025D01*
X008572Y006932D01*
X008480Y006840D01*
X008480Y006710D01*
X008572Y006617D01*
X009017Y006617D01*
X009071Y006672D01*
X009076Y006667D01*
X009458Y006667D01*
X009464Y006673D01*
X009470Y006667D01*
X009851Y006667D01*
X009897Y006712D01*
X009942Y006667D01*
X010324Y006667D01*
X010359Y006702D01*
X010994Y006727D02*
X011226Y006727D01*
X011226Y006824D02*
X011009Y006824D01*
X011009Y006921D02*
X011279Y006921D01*
X011226Y006630D02*
X009030Y006630D01*
X008794Y006932D02*
X008572Y006932D01*
X008794Y006932D01*
X008794Y006932D01*
X008560Y006921D02*
X006566Y006921D01*
X006550Y007018D02*
X008486Y007018D01*
X008480Y007115D02*
X006042Y007115D01*
X006066Y007212D02*
X008531Y007212D01*
X008529Y007309D02*
X006036Y007309D01*
X005962Y007405D02*
X007638Y007405D01*
X007554Y007489D02*
X007554Y007489D01*
X007541Y007502D02*
X005962Y007502D01*
X005955Y007599D02*
X007444Y007599D01*
X007347Y007696D02*
X003686Y007696D01*
X003686Y007599D02*
X004407Y007599D01*
X004317Y007554D01*
X004284Y007586D01*
X004041Y007586D01*
X004011Y007557D01*
X003982Y007586D01*
X003686Y007586D01*
X003686Y012946D01*
X005007Y012946D01*
X005011Y012943D01*
X005059Y012946D01*
X005107Y012946D01*
X005111Y012950D01*
X005189Y012956D01*
X005198Y012950D01*
X005241Y012959D01*
X005284Y012962D01*
X005291Y012970D01*
X005373Y012988D01*
X005382Y012984D01*
X005423Y012999D01*
X005466Y013008D01*
X005472Y013017D01*
X005550Y013046D01*
X005560Y013043D01*
X005598Y013064D01*
X005639Y013080D01*
X005644Y013089D01*
X005717Y013129D01*
X005727Y013127D01*
X005762Y013154D01*
X005801Y013175D01*
X005804Y013185D01*
X005870Y013235D01*
X005881Y013235D01*
X005912Y013266D01*
X005947Y013292D01*
X005948Y013302D01*
X006007Y013361D01*
X006018Y013363D01*
X006044Y013398D01*
X006075Y013429D01*
X006075Y013439D01*
X006125Y013506D01*
X006135Y013509D01*
X006156Y013547D01*
X006182Y013582D01*
X006181Y013593D01*
X006221Y013666D01*
X006230Y013670D01*
X006245Y013711D01*
X006266Y013750D01*
X006263Y013760D01*
X006293Y013838D01*
X006301Y013844D01*
X006311Y013886D01*
X006326Y013927D01*
X006322Y013937D01*
X006339Y014018D01*
X006347Y014025D01*
X006350Y014069D01*
X006360Y014112D01*
X006354Y014121D01*
X006360Y014199D01*
X006363Y014202D01*
X006363Y014251D01*
X006367Y014299D01*
X006363Y014303D01*
X006363Y015623D01*
X020281Y015623D01*
X020281Y014303D01*
X020277Y014299D01*
X020281Y014251D01*
X020281Y014202D01*
X020284Y014199D01*
X020290Y014121D01*
X020284Y014112D01*
X020294Y014069D01*
X020297Y014025D01*
X020305Y014018D01*
X020322Y013937D01*
X020318Y013927D01*
X020333Y013886D01*
X020343Y013844D01*
X020352Y013838D01*
X020381Y013760D01*
X020378Y013750D01*
X020399Y013711D01*
X020414Y013670D01*
X020424Y013666D01*
X020463Y013593D01*
X020462Y013582D01*
X020488Y013547D01*
X020509Y013509D01*
X020519Y013506D01*
X020569Y013439D01*
X020569Y013429D01*
X020600Y013398D01*
X020626Y013363D01*
X020637Y013361D01*
X020696Y013302D01*
X020697Y013292D01*
X020732Y013266D01*
X020763Y013235D01*
X020774Y013235D01*
X020840Y013185D01*
X020843Y013175D01*
X020882Y013154D01*
X020917Y013127D01*
X020927Y013129D01*
X021000Y013089D01*
X021005Y013080D01*
X021046Y013064D01*
X021084Y013043D01*
X021094Y013046D01*
X021172Y013017D01*
X021178Y013008D01*
X021221Y012999D01*
X021262Y012984D01*
X021271Y012988D01*
X021353Y012970D01*
X021360Y012962D01*
X021403Y012959D01*
X021446Y012950D01*
X021455Y012956D01*
X021533Y012950D01*
X021537Y012946D01*
X021585Y012946D01*
X021634Y012943D01*
X021637Y012946D01*
X021865Y012946D01*
X021865Y011208D01*
X021816Y011159D01*
X021816Y010427D01*
X021576Y010427D01*
X021501Y010352D01*
X021501Y010127D01*
X021576Y010052D01*
X021816Y010052D01*
X021816Y009147D01*
X021576Y009147D01*
X021555Y009126D01*
X021532Y009149D01*
X021442Y009186D01*
X021344Y009186D01*
X021254Y009149D01*
X021252Y009147D01*
X021074Y009147D01*
X021058Y009131D01*
X021042Y009147D01*
X020852Y009147D01*
X020852Y009167D01*
X020803Y009216D01*
X020852Y009265D01*
X020852Y009403D01*
X020754Y009501D01*
X020733Y009501D01*
X020733Y009584D01*
X020718Y009600D01*
X020733Y009616D01*
X020733Y009840D01*
X020718Y009856D01*
X020733Y009872D01*
X020733Y010096D01*
X020718Y010112D01*
X020733Y010127D01*
X020733Y010352D01*
X020718Y010367D01*
X020733Y010383D01*
X020733Y010607D01*
X020718Y010623D01*
X020816Y010623D01*
X020822Y010629D01*
X020828Y010623D01*
X021015Y010623D01*
X020999Y010607D01*
X020999Y010383D01*
X021074Y010308D01*
X021298Y010308D01*
X021373Y010383D01*
X021373Y010607D01*
X021357Y010623D01*
X021525Y010623D01*
X021600Y010698D01*
X021600Y011041D01*
X021590Y011050D01*
X021590Y011120D01*
X021570Y011140D01*
X021570Y011533D01*
X021098Y012006D01*
X020994Y012110D01*
X020217Y012110D01*
X019312Y011204D01*
X019208Y011100D01*
X019208Y010943D01*
X018711Y010446D01*
X018667Y010446D01*
X018576Y010409D01*
X018545Y010377D01*
X016737Y010377D01*
X016737Y010391D01*
X016662Y010466D01*
X016281Y010466D01*
X016235Y010420D01*
X016190Y010466D01*
X015808Y010466D01*
X015733Y010391D01*
X015733Y010185D01*
X015546Y009998D01*
X015546Y010599D01*
X015788Y010841D01*
X015809Y010820D01*
X016209Y010820D01*
X016491Y011103D01*
X016491Y011502D01*
X016209Y011785D01*
X015809Y011785D01*
X015527Y011502D01*
X015527Y011103D01*
X015538Y011092D01*
X015192Y010746D01*
X015192Y010230D01*
X014903Y010230D01*
X014883Y010210D01*
X014714Y010210D01*
X014694Y010230D01*
X014468Y010230D01*
X015364Y011125D01*
X015468Y011229D01*
X015468Y012095D01*
X016123Y012750D01*
X016163Y012789D01*
X016209Y012789D01*
X016491Y013071D01*
X016491Y013471D01*
X016209Y013753D01*
X015809Y013753D01*
X015527Y013471D01*
X015527Y013071D01*
X015735Y012863D01*
X015113Y012242D01*
X015113Y011376D01*
X014966Y011228D01*
X014966Y011454D01*
X014961Y011459D01*
X015015Y011513D01*
X015015Y011958D01*
X014923Y012051D01*
X014792Y012051D01*
X014700Y011958D01*
X014608Y012051D01*
X014477Y012051D01*
X014428Y012001D01*
X013942Y012001D01*
X013942Y012562D01*
X014175Y012562D01*
X014267Y012655D01*
X014267Y012785D01*
X014175Y012877D01*
X014267Y012970D01*
X014267Y013100D01*
X014175Y013192D01*
X013690Y013192D01*
X013641Y013143D01*
X013289Y013143D01*
X013214Y013068D01*
X013214Y012904D01*
X013174Y012864D01*
X013174Y012671D01*
X012985Y012671D01*
X012899Y012584D01*
X012899Y011917D01*
X012894Y011913D01*
X012791Y011809D01*
X012791Y010639D01*
X013066Y010363D01*
X013066Y010279D01*
X013021Y010279D01*
X012928Y010187D01*
X012836Y010279D01*
X012706Y010279D01*
X012613Y010187D01*
X012613Y009741D01*
X012617Y009738D01*
X012604Y009738D01*
X012594Y009733D01*
X012594Y010234D01*
X012279Y010549D01*
X012279Y011027D01*
X012324Y011027D01*
X012357Y011060D01*
X012391Y011027D01*
X012521Y011027D01*
X012613Y011119D01*
X012613Y011525D01*
X012521Y011617D01*
X012279Y011617D01*
X012279Y011883D01*
X012489Y011883D01*
X012564Y011958D01*
X012564Y012340D01*
X012550Y012354D01*
X012584Y012435D01*
X012584Y012533D01*
X012546Y012623D01*
X012477Y012692D01*
X012387Y012730D01*
X012289Y012730D01*
X012239Y012709D01*
X012239Y012872D01*
X011663Y013448D01*
X011117Y013448D01*
X011117Y013471D01*
X010835Y013753D01*
X010435Y013753D01*
X010153Y013471D01*
X010153Y013071D01*
X010435Y012789D01*
X010835Y012789D01*
X011117Y013071D01*
X011117Y013094D01*
X011516Y013094D01*
X011885Y012725D01*
X011885Y012415D01*
X011714Y012415D01*
X011639Y012340D01*
X011639Y012290D01*
X011637Y012288D01*
X011608Y012218D01*
X011560Y012218D01*
X011560Y012296D01*
X011523Y012387D01*
X011454Y012456D01*
X011363Y012493D01*
X011265Y012493D01*
X011175Y012456D01*
X011106Y012387D01*
X011068Y012296D01*
X011068Y012182D01*
X011048Y012163D01*
X011048Y011781D01*
X011053Y011776D01*
X010999Y011722D01*
X010999Y011592D01*
X011091Y011499D01*
X010999Y011407D01*
X010999Y011277D01*
X011091Y011184D01*
X011537Y011184D01*
X011629Y011277D01*
X011629Y011722D01*
X011625Y011726D01*
X011836Y011726D01*
X011924Y011763D01*
X011924Y011588D01*
X011714Y011588D01*
X011639Y011513D01*
X011639Y011131D01*
X011714Y011056D01*
X011924Y011056D01*
X011924Y010402D01*
X012028Y010299D01*
X012097Y010230D01*
X011950Y010230D01*
X011930Y010210D01*
X011816Y010210D01*
X011796Y010202D01*
X011796Y010328D01*
X011759Y010418D01*
X011690Y010487D01*
X011599Y010525D01*
X011501Y010525D01*
X011482Y010517D01*
X011482Y010847D01*
X011438Y010952D01*
X011358Y011033D01*
X011253Y011076D01*
X011139Y011076D01*
X011034Y011033D01*
X011016Y011015D01*
X011013Y011018D01*
X010513Y011018D01*
X010453Y010958D01*
X010234Y010958D01*
X010129Y010915D01*
X010113Y010899D01*
X009765Y010899D01*
X009690Y010824D01*
X009690Y010482D01*
X009765Y010407D01*
X010186Y010407D01*
X010234Y010387D01*
X010409Y010387D01*
X010409Y010086D01*
X010344Y010151D01*
X009765Y010151D01*
X009690Y010076D01*
X009690Y009734D01*
X009765Y009659D01*
X010344Y009659D01*
X010409Y009724D01*
X010409Y009662D01*
X010501Y009570D01*
X010631Y009570D01*
X010724Y009662D01*
X010724Y010003D01*
X010802Y010003D01*
X010802Y009662D01*
X010895Y009570D01*
X011019Y009570D01*
X011019Y008363D01*
X010987Y008332D01*
X010950Y008241D01*
X010950Y008143D01*
X010987Y008053D01*
X011057Y007984D01*
X011147Y007946D01*
X011245Y007946D01*
X011335Y007984D01*
X011405Y008053D01*
X011442Y008143D01*
X011442Y008241D01*
X011405Y008332D01*
X011373Y008363D01*
X011373Y009226D01*
X011373Y009226D01*
X011373Y008631D01*
X011531Y008473D01*
X011634Y008369D01*
X011910Y008369D01*
X011915Y008365D01*
X011915Y007901D01*
X011910Y007897D01*
X009533Y007897D01*
X009533Y008068D01*
X009487Y008114D01*
X009533Y008159D01*
X009533Y008541D01*
X009458Y008615D01*
X009076Y008615D01*
X009071Y008611D01*
X009017Y008665D01*
X008572Y008665D01*
X008480Y008572D01*
X008480Y008442D01*
X008572Y008350D01*
X008794Y008350D01*
X008794Y008350D01*
X008572Y008350D01*
X008480Y008257D01*
X008480Y008127D01*
X008534Y008073D01*
X008529Y008068D01*
X008529Y007897D01*
X007923Y007897D01*
X007830Y007990D01*
X007830Y009570D01*
X007875Y009570D01*
X007968Y009662D01*
X007968Y010003D01*
X008046Y010003D01*
X008046Y009662D01*
X008139Y009570D01*
X008269Y009570D01*
X008361Y009662D01*
X008361Y009792D01*
X008406Y009747D01*
X008434Y009747D01*
X008434Y009734D01*
X008509Y009659D01*
X009088Y009659D01*
X009163Y009734D01*
X009163Y010031D01*
X009188Y010056D01*
X009188Y010187D01*
X009096Y010279D01*
X009188Y010371D01*
X009188Y010502D01*
X009163Y010527D01*
X009163Y010824D01*
X009088Y010899D01*
X008736Y010899D01*
X008720Y010915D01*
X008615Y010958D01*
X008317Y010958D01*
X008257Y011018D01*
X007757Y011018D01*
X007697Y010958D01*
X007320Y010958D01*
X007238Y010924D01*
X007292Y010978D01*
X007348Y011112D01*
X007348Y011257D01*
X007292Y011391D01*
X007190Y011493D01*
X007056Y011549D01*
X006439Y011549D01*
X006305Y011493D01*
X006202Y011391D01*
X006147Y011257D01*
X006147Y011112D01*
X006202Y010978D01*
X006305Y010876D01*
X006439Y010820D01*
X007056Y010820D01*
X007167Y010866D01*
X007135Y010834D01*
X006901Y010600D01*
X006901Y010600D01*
X006820Y010519D01*
X006777Y010414D01*
X006777Y010301D01*
X006806Y010230D01*
X006751Y010285D01*
X006647Y010328D01*
X006533Y010328D01*
X006428Y010285D01*
X006348Y010204D01*
X006304Y010099D01*
X006304Y009986D01*
X006348Y009881D01*
X006428Y009801D01*
X006533Y009757D01*
X006647Y009757D01*
X006751Y009801D01*
X006806Y009855D01*
X006777Y009784D01*
X006777Y009671D01*
X006806Y009600D01*
X006751Y009655D01*
X006647Y009698D01*
X006533Y009698D01*
X006428Y009655D01*
X006348Y009574D01*
X006304Y009470D01*
X006304Y009356D01*
X006348Y009251D01*
X006428Y009171D01*
X006533Y009127D01*
X006647Y009127D01*
X006751Y009171D01*
X006832Y009251D01*
X006875Y009356D01*
X006875Y009470D01*
X006846Y009540D01*
X006901Y009486D01*
X007005Y009442D01*
X007119Y009442D01*
X007224Y009486D01*
X007289Y009551D01*
X007304Y009551D01*
X007318Y009536D01*
X007318Y008415D01*
X007292Y008477D01*
X007190Y008580D01*
X007056Y008635D01*
X006439Y008635D01*
X006305Y008580D01*
X006202Y008477D01*
X006147Y008343D01*
X006147Y008199D01*
X006202Y008065D01*
X006305Y007962D01*
X006194Y008084D02*
X005410Y008084D01*
X005451Y008181D02*
X006154Y008181D01*
X006147Y008278D02*
X005458Y008278D01*
X005445Y008375D02*
X006160Y008375D01*
X006200Y008472D02*
X005405Y008472D01*
X005311Y008569D02*
X006294Y008569D01*
X006478Y009150D02*
X003686Y009150D01*
X003686Y009053D02*
X007318Y009053D01*
X007318Y008956D02*
X003686Y008956D01*
X003686Y008859D02*
X007318Y008859D01*
X007318Y008762D02*
X003686Y008762D01*
X003686Y008665D02*
X007318Y008665D01*
X007318Y008569D02*
X007201Y008569D01*
X007295Y008472D02*
X007318Y008472D01*
X007300Y008084D02*
X007318Y008084D01*
X007318Y007987D02*
X007214Y007987D01*
X007318Y007890D02*
X003686Y007890D01*
X003686Y007793D02*
X007318Y007793D01*
X007495Y007799D02*
X007732Y007562D01*
X008637Y007562D01*
X008794Y007405D01*
X008637Y007720D02*
X007850Y007720D01*
X007653Y007917D01*
X007653Y009728D01*
X007338Y010043D01*
X006590Y010043D01*
X006683Y010313D02*
X006777Y010313D01*
X006777Y010410D02*
X003686Y010410D01*
X003686Y010313D02*
X006497Y010313D01*
X006360Y010216D02*
X003686Y010216D01*
X003686Y010119D02*
X006313Y010119D01*
X006304Y010022D02*
X003686Y010022D01*
X003686Y009925D02*
X006329Y009925D01*
X006400Y009829D02*
X003686Y009829D01*
X003686Y009732D02*
X006777Y009732D01*
X006779Y009829D02*
X006795Y009829D01*
X006792Y009635D02*
X006771Y009635D01*
X006847Y009538D02*
X006848Y009538D01*
X006875Y009441D02*
X007318Y009441D01*
X007317Y009538D02*
X007276Y009538D01*
X007318Y009344D02*
X006870Y009344D01*
X006828Y009247D02*
X007318Y009247D01*
X007318Y009150D02*
X006702Y009150D01*
X006352Y009247D02*
X003686Y009247D01*
X003686Y009344D02*
X006309Y009344D01*
X006304Y009441D02*
X003686Y009441D01*
X003686Y009538D02*
X006333Y009538D01*
X006408Y009635D02*
X003686Y009635D01*
X003686Y010507D02*
X006815Y010507D01*
X006905Y010604D02*
X003686Y010604D01*
X003686Y010701D02*
X007002Y010701D01*
X007099Y010798D02*
X003686Y010798D01*
X003686Y010895D02*
X004396Y010895D01*
X004415Y010876D02*
X004549Y010820D01*
X005166Y010820D01*
X005300Y010876D01*
X005402Y010978D01*
X005458Y011112D01*
X005458Y011257D01*
X005402Y011391D01*
X005300Y011493D01*
X005166Y011549D01*
X004549Y011549D01*
X004415Y011493D01*
X004313Y011391D01*
X004257Y011257D01*
X004257Y011112D01*
X004313Y010978D01*
X004415Y010876D01*
X004307Y010992D02*
X003686Y010992D01*
X003686Y011089D02*
X004267Y011089D01*
X004257Y011186D02*
X003686Y011186D01*
X003686Y011282D02*
X004268Y011282D01*
X004308Y011379D02*
X003686Y011379D01*
X003686Y011476D02*
X004398Y011476D01*
X003686Y011573D02*
X011018Y011573D01*
X010999Y011670D02*
X003686Y011670D01*
X003686Y011767D02*
X011044Y011767D01*
X011048Y011864D02*
X003686Y011864D01*
X003686Y011961D02*
X011048Y011961D01*
X011048Y012058D02*
X003686Y012058D01*
X003686Y012155D02*
X011048Y012155D01*
X011068Y012252D02*
X003686Y012252D01*
X003686Y012349D02*
X011090Y012349D01*
X011164Y012446D02*
X003686Y012446D01*
X003686Y012542D02*
X011885Y012542D01*
X011885Y012446D02*
X011464Y012446D01*
X011539Y012349D02*
X011648Y012349D01*
X011622Y012252D02*
X011560Y012252D01*
X011885Y012639D02*
X003686Y012639D01*
X003686Y012736D02*
X011874Y012736D01*
X011777Y012833D02*
X010879Y012833D01*
X010976Y012930D02*
X011680Y012930D01*
X011583Y013027D02*
X011073Y013027D01*
X010635Y013271D02*
X011590Y013271D01*
X012062Y012799D01*
X012062Y012365D01*
X012102Y012326D01*
X012102Y011322D01*
X012102Y010476D01*
X012417Y010161D01*
X012417Y009767D01*
X012141Y009491D01*
X012495Y009137D01*
X012613Y009137D01*
X012633Y009117D01*
X012633Y008881D01*
X013027Y008881D02*
X013027Y009196D01*
X013007Y009216D01*
X013224Y009196D02*
X013224Y008881D01*
X013420Y008881D02*
X013420Y009196D01*
X013401Y009216D01*
X013401Y010436D01*
X014050Y011086D01*
X014050Y011243D01*
X014700Y011736D02*
X014700Y011958D01*
X014700Y011736D01*
X014700Y011736D01*
X014700Y011767D02*
X014700Y011767D01*
X014700Y011864D02*
X014700Y011864D01*
X014697Y011961D02*
X014703Y011961D01*
X015012Y011961D02*
X015113Y011961D01*
X015113Y012058D02*
X013942Y012058D01*
X013942Y012155D02*
X015113Y012155D01*
X015123Y012252D02*
X013942Y012252D01*
X013942Y012349D02*
X015220Y012349D01*
X015317Y012446D02*
X013942Y012446D01*
X013942Y012542D02*
X015414Y012542D01*
X015511Y012639D02*
X014252Y012639D01*
X014267Y012736D02*
X015608Y012736D01*
X015705Y012833D02*
X014219Y012833D01*
X014175Y012877D02*
X013913Y012877D01*
X013913Y012877D01*
X014175Y012877D01*
X014228Y012930D02*
X015668Y012930D01*
X015571Y013027D02*
X014267Y013027D01*
X014243Y013124D02*
X015527Y013124D01*
X015527Y013221D02*
X011890Y013221D01*
X011793Y013318D02*
X015527Y013318D01*
X015527Y013415D02*
X011697Y013415D01*
X011987Y013124D02*
X013270Y013124D01*
X013214Y013027D02*
X012084Y013027D01*
X012181Y012930D02*
X013214Y012930D01*
X013174Y012833D02*
X012239Y012833D01*
X012239Y012736D02*
X013174Y012736D01*
X012954Y012639D02*
X012530Y012639D01*
X012580Y012542D02*
X012899Y012542D01*
X012899Y012446D02*
X012584Y012446D01*
X012555Y012349D02*
X012899Y012349D01*
X012899Y012252D02*
X012564Y012252D01*
X012564Y012155D02*
X012899Y012155D01*
X012899Y012058D02*
X012564Y012058D01*
X012564Y011961D02*
X012899Y011961D01*
X012846Y011864D02*
X012279Y011864D01*
X012279Y011767D02*
X012791Y011767D01*
X012791Y011670D02*
X012279Y011670D01*
X012565Y011573D02*
X012791Y011573D01*
X012791Y011476D02*
X012613Y011476D01*
X012613Y011379D02*
X012791Y011379D01*
X012791Y011282D02*
X012613Y011282D01*
X012613Y011186D02*
X012791Y011186D01*
X012791Y011089D02*
X012583Y011089D01*
X012791Y010992D02*
X012279Y010992D01*
X012338Y011027D02*
X012338Y011322D01*
X012357Y011322D01*
X011924Y010992D02*
X011399Y010992D01*
X011462Y010895D02*
X011924Y010895D01*
X011924Y010798D02*
X011482Y010798D01*
X011482Y010701D02*
X011924Y010701D01*
X011924Y010604D02*
X011482Y010604D01*
X011643Y010507D02*
X011924Y010507D01*
X011924Y010410D02*
X011762Y010410D01*
X011796Y010313D02*
X012014Y010313D01*
X011937Y010216D02*
X011796Y010216D01*
X012321Y010507D02*
X012922Y010507D01*
X012825Y010604D02*
X012279Y010604D01*
X012279Y010701D02*
X012791Y010701D01*
X012791Y010798D02*
X012279Y010798D01*
X012279Y010895D02*
X012791Y010895D01*
X012968Y010712D02*
X013243Y010436D01*
X013243Y009216D01*
X013224Y009196D01*
X013617Y009196D02*
X013617Y008881D01*
X013814Y008881D02*
X013814Y009157D01*
X013913Y009255D01*
X014267Y009255D01*
X014503Y009491D01*
X014228Y009806D02*
X013913Y009491D01*
X013716Y009491D01*
X013637Y009413D01*
X013637Y009216D01*
X013617Y009196D01*
X014011Y008881D02*
X014483Y008881D01*
X015094Y009491D01*
X015369Y009767D01*
X015369Y010673D01*
X015999Y011302D01*
X016009Y011302D01*
X015527Y011282D02*
X015468Y011282D01*
X015468Y011379D02*
X015527Y011379D01*
X015527Y011476D02*
X015468Y011476D01*
X015468Y011573D02*
X015598Y011573D01*
X015695Y011670D02*
X015468Y011670D01*
X015468Y011767D02*
X015792Y011767D01*
X016227Y011767D02*
X019875Y011767D01*
X019972Y011864D02*
X015468Y011864D01*
X015468Y011961D02*
X020069Y011961D01*
X020165Y012058D02*
X015468Y012058D01*
X015527Y012155D02*
X021865Y012155D01*
X021865Y012252D02*
X015624Y012252D01*
X015721Y012349D02*
X021865Y012349D01*
X021865Y012446D02*
X015818Y012446D01*
X015915Y012542D02*
X021865Y012542D01*
X021865Y012639D02*
X016012Y012639D01*
X016109Y012736D02*
X021865Y012736D01*
X021865Y012833D02*
X016253Y012833D01*
X016350Y012930D02*
X021865Y012930D01*
X021145Y013027D02*
X016447Y013027D01*
X016491Y013124D02*
X020936Y013124D01*
X020792Y013221D02*
X016491Y013221D01*
X016491Y013318D02*
X020680Y013318D01*
X020583Y013415D02*
X016491Y013415D01*
X016450Y013512D02*
X020508Y013512D01*
X020455Y013609D02*
X016353Y013609D01*
X016257Y013706D02*
X020401Y013706D01*
X020365Y013803D02*
X006279Y013803D01*
X006316Y013899D02*
X020329Y013899D01*
X020310Y013996D02*
X006335Y013996D01*
X006356Y014093D02*
X020288Y014093D01*
X020285Y014190D02*
X006359Y014190D01*
X006366Y014287D02*
X020278Y014287D01*
X020281Y014384D02*
X006363Y014384D01*
X006363Y014481D02*
X020281Y014481D01*
X020281Y014578D02*
X006363Y014578D01*
X006363Y014675D02*
X020281Y014675D01*
X020281Y014772D02*
X006363Y014772D01*
X006363Y014869D02*
X020281Y014869D01*
X020281Y014966D02*
X006363Y014966D01*
X006363Y015063D02*
X020281Y015063D01*
X020281Y015159D02*
X006363Y015159D01*
X006363Y015256D02*
X020281Y015256D01*
X020281Y015353D02*
X006363Y015353D01*
X006363Y015450D02*
X020281Y015450D01*
X020281Y015547D02*
X006363Y015547D01*
X006243Y013706D02*
X010388Y013706D01*
X010291Y013609D02*
X006189Y013609D01*
X006136Y013512D02*
X010194Y013512D01*
X010153Y013415D02*
X006061Y013415D01*
X005964Y013318D02*
X010153Y013318D01*
X010153Y013221D02*
X005852Y013221D01*
X005708Y013124D02*
X010153Y013124D01*
X010197Y013027D02*
X005499Y013027D01*
X003686Y012930D02*
X010294Y012930D01*
X010391Y012833D02*
X003686Y012833D01*
X005317Y011476D02*
X006288Y011476D01*
X006198Y011379D02*
X005407Y011379D01*
X005447Y011282D02*
X006157Y011282D01*
X006147Y011186D02*
X005458Y011186D01*
X005448Y011089D02*
X006157Y011089D01*
X006197Y010992D02*
X005408Y010992D01*
X005319Y010895D02*
X006286Y010895D01*
X007298Y010992D02*
X007731Y010992D01*
X007338Y011089D02*
X011682Y011089D01*
X011639Y011186D02*
X011538Y011186D01*
X011629Y011282D02*
X011639Y011282D01*
X011629Y011379D02*
X011639Y011379D01*
X011629Y011476D02*
X011639Y011476D01*
X011629Y011573D02*
X011699Y011573D01*
X011629Y011670D02*
X011924Y011670D01*
X011314Y011499D02*
X011314Y011499D01*
X011091Y011499D01*
X011314Y011499D01*
X011068Y011476D02*
X007207Y011476D01*
X007297Y011379D02*
X010999Y011379D01*
X010999Y011282D02*
X007337Y011282D01*
X007348Y011186D02*
X011090Y011186D01*
X010487Y010992D02*
X008283Y010992D01*
X008401Y010673D02*
X008401Y010003D01*
X008480Y009925D01*
X008755Y009925D01*
X008775Y009905D01*
X008798Y009905D01*
X009163Y009925D02*
X009690Y009925D01*
X009690Y009829D02*
X009163Y009829D01*
X009160Y009732D02*
X009692Y009732D01*
X009690Y010022D02*
X009163Y010022D01*
X009188Y010119D02*
X009734Y010119D01*
X009762Y010410D02*
X009188Y010410D01*
X009183Y010507D02*
X009690Y010507D01*
X009690Y010604D02*
X009163Y010604D01*
X009163Y010701D02*
X009690Y010701D01*
X009690Y010798D02*
X009163Y010798D01*
X009092Y010895D02*
X009761Y010895D01*
X009130Y010313D02*
X010409Y010313D01*
X010409Y010216D02*
X009159Y010216D01*
X009096Y010279D02*
X008716Y010279D01*
X008716Y010279D01*
X009096Y010279D01*
X008436Y009732D02*
X008361Y009732D01*
X008334Y009635D02*
X010436Y009635D01*
X010696Y009635D02*
X010830Y009635D01*
X010802Y009732D02*
X010724Y009732D01*
X010724Y009829D02*
X010802Y009829D01*
X010802Y009925D02*
X010724Y009925D01*
X010409Y010119D02*
X010375Y010119D01*
X011019Y009538D02*
X007830Y009538D01*
X007830Y009441D02*
X011019Y009441D01*
X011019Y009344D02*
X007830Y009344D01*
X007830Y009247D02*
X011019Y009247D01*
X011019Y009150D02*
X007830Y009150D01*
X007830Y009053D02*
X011019Y009053D01*
X011019Y008956D02*
X007830Y008956D01*
X007830Y008859D02*
X011019Y008859D01*
X011019Y008762D02*
X007830Y008762D01*
X007830Y008665D02*
X011019Y008665D01*
X011019Y008569D02*
X009505Y008569D01*
X009533Y008472D02*
X011019Y008472D01*
X011019Y008375D02*
X009533Y008375D01*
X009533Y008278D02*
X010965Y008278D01*
X010950Y008181D02*
X009533Y008181D01*
X009517Y008084D02*
X010975Y008084D01*
X011053Y007987D02*
X009533Y007987D01*
X009267Y007877D02*
X009267Y008350D01*
X009267Y007877D02*
X009424Y007720D01*
X011983Y007720D01*
X012003Y007740D01*
X012279Y007740D01*
X012279Y007543D02*
X012003Y007543D01*
X011983Y007562D01*
X009424Y007562D01*
X009267Y007405D01*
X009267Y006932D01*
X009661Y006932D01*
X008559Y006630D02*
X006912Y006630D01*
X006912Y006533D02*
X011226Y006533D01*
X011275Y006436D02*
X006852Y006436D01*
X006821Y006727D02*
X008480Y006727D01*
X008480Y006824D02*
X006527Y006824D01*
X006427Y006436D02*
X005478Y006436D01*
X005693Y006339D02*
X012129Y006339D01*
X012102Y006436D02*
X011865Y006436D01*
X011915Y006533D02*
X012102Y006533D01*
X012102Y006630D02*
X011971Y006630D01*
X012068Y006727D02*
X012102Y006727D01*
X012102Y006824D02*
X012082Y006824D01*
X012082Y006921D02*
X012102Y006921D01*
X011905Y006814D02*
X011787Y006696D01*
X011590Y006696D01*
X011570Y006677D01*
X011905Y006814D02*
X011905Y007326D01*
X011924Y007346D01*
X012279Y007346D01*
X012279Y007149D02*
X012279Y006440D01*
X012495Y006224D01*
X014818Y006224D01*
X017180Y008586D01*
X017180Y008940D01*
X017653Y009413D01*
X017883Y009500D02*
X017861Y009552D01*
X017792Y009621D01*
X017702Y009659D01*
X017604Y009659D01*
X017513Y009621D01*
X017444Y009552D01*
X017407Y009462D01*
X017407Y009417D01*
X017281Y009291D01*
X017271Y009316D01*
X017202Y009385D01*
X017111Y009423D01*
X017013Y009423D01*
X016923Y009385D01*
X016854Y009316D01*
X016816Y009225D01*
X016816Y009181D01*
X016767Y009132D01*
X016767Y008699D01*
X015763Y007695D01*
X015763Y007746D01*
X015671Y007838D01*
X015763Y007930D01*
X015763Y008061D01*
X015671Y008153D01*
X015225Y008153D01*
X015222Y008149D01*
X015222Y008162D01*
X015184Y008253D01*
X015117Y008320D01*
X015797Y008999D01*
X015901Y009103D01*
X015901Y009339D01*
X015984Y009423D01*
X016190Y009423D01*
X016235Y009468D01*
X016281Y009423D01*
X016662Y009423D01*
X016737Y009498D01*
X016737Y009511D01*
X016821Y009511D01*
X017057Y009747D01*
X017939Y009747D01*
X017919Y009698D01*
X017919Y009600D01*
X017937Y009554D01*
X017883Y009500D01*
X017867Y009538D02*
X017921Y009538D01*
X017919Y009635D02*
X017760Y009635D01*
X017932Y009732D02*
X017041Y009732D01*
X016944Y009635D02*
X017546Y009635D01*
X017438Y009538D02*
X016847Y009538D01*
X016747Y009688D02*
X016983Y009925D01*
X018716Y009925D01*
X018716Y009806D01*
X017574Y008665D01*
X017574Y008428D01*
X014976Y005830D01*
X011846Y005830D01*
X010822Y004806D01*
X010532Y004498D02*
X010112Y004498D01*
X010209Y004595D02*
X010435Y004595D01*
X010399Y004692D02*
X010245Y004692D01*
X010245Y004788D02*
X010399Y004788D01*
X010399Y004885D02*
X010245Y004885D01*
X010248Y004982D02*
X010399Y004982D01*
X010345Y005079D02*
X010496Y005079D01*
X010442Y005176D02*
X010593Y005176D01*
X010539Y005273D02*
X011038Y005273D01*
X011135Y005370D02*
X010636Y005370D01*
X010733Y005467D02*
X011232Y005467D01*
X011329Y005564D02*
X010830Y005564D01*
X010927Y005661D02*
X011426Y005661D01*
X011523Y005758D02*
X011024Y005758D01*
X010717Y005952D02*
X006123Y005952D01*
X006185Y005855D02*
X010620Y005855D01*
X010523Y005758D02*
X006240Y005758D01*
X006276Y005661D02*
X010426Y005661D01*
X010329Y005564D02*
X006313Y005564D01*
X006333Y005467D02*
X010232Y005467D01*
X010135Y005370D02*
X006354Y005370D01*
X006359Y005273D02*
X010038Y005273D01*
X009593Y005176D02*
X009051Y005176D01*
X008997Y005230D02*
X008647Y005230D01*
X008399Y004982D01*
X008399Y004631D01*
X008647Y004383D01*
X008997Y004383D01*
X009245Y004631D01*
X009245Y004982D01*
X008997Y005230D01*
X009148Y005079D02*
X009496Y005079D01*
X009399Y004982D02*
X009245Y004982D01*
X009245Y004885D02*
X009399Y004885D01*
X009399Y004788D02*
X009245Y004788D01*
X009245Y004692D02*
X009399Y004692D01*
X009435Y004595D02*
X009209Y004595D01*
X009112Y004498D02*
X009532Y004498D01*
X009629Y004401D02*
X009015Y004401D01*
X008629Y004401D02*
X008015Y004401D01*
X007997Y004383D02*
X008245Y004631D01*
X008245Y004982D01*
X007997Y005230D01*
X007647Y005230D01*
X007399Y004982D01*
X007399Y004631D01*
X007647Y004383D01*
X007997Y004383D01*
X008112Y004498D02*
X008532Y004498D01*
X008435Y004595D02*
X008209Y004595D01*
X008245Y004692D02*
X008399Y004692D01*
X008399Y004788D02*
X008245Y004788D01*
X008245Y004885D02*
X008399Y004885D01*
X008399Y004982D02*
X008245Y004982D01*
X008148Y005079D02*
X008496Y005079D01*
X008593Y005176D02*
X008051Y005176D01*
X007593Y005176D02*
X006365Y005176D01*
X006363Y005079D02*
X007496Y005079D01*
X007399Y004982D02*
X006363Y004982D01*
X006363Y004885D02*
X007399Y004885D01*
X007399Y004788D02*
X006363Y004788D01*
X006363Y004692D02*
X007399Y004692D01*
X007435Y004595D02*
X006363Y004595D01*
X006363Y004498D02*
X007532Y004498D01*
X007629Y004401D02*
X006363Y004401D01*
X006363Y004304D02*
X020281Y004304D01*
X020281Y004401D02*
X019015Y004401D01*
X018997Y004383D02*
X019245Y004631D01*
X019245Y004982D01*
X018997Y005230D01*
X018647Y005230D01*
X018399Y004982D01*
X018399Y004631D01*
X018647Y004383D01*
X018997Y004383D01*
X019112Y004498D02*
X020281Y004498D01*
X020281Y004595D02*
X019209Y004595D01*
X019245Y004692D02*
X020281Y004692D01*
X020281Y004788D02*
X019245Y004788D01*
X019245Y004885D02*
X020281Y004885D01*
X020281Y004982D02*
X019245Y004982D01*
X019148Y005079D02*
X020281Y005079D01*
X020279Y005176D02*
X019051Y005176D01*
X018593Y005176D02*
X017407Y005176D01*
X017310Y005079D02*
X018496Y005079D01*
X018399Y004982D02*
X017245Y004982D01*
X017245Y004885D02*
X018399Y004885D01*
X018399Y004788D02*
X017245Y004788D01*
X017245Y004692D02*
X018399Y004692D01*
X018435Y004595D02*
X017209Y004595D01*
X017112Y004498D02*
X018532Y004498D01*
X018629Y004401D02*
X017015Y004401D01*
X016629Y004401D02*
X016015Y004401D01*
X016112Y004498D02*
X016532Y004498D01*
X016435Y004595D02*
X016209Y004595D01*
X016245Y004692D02*
X016399Y004692D01*
X016399Y004788D02*
X016245Y004788D01*
X016245Y004885D02*
X016399Y004885D01*
X016399Y004982D02*
X016245Y004982D01*
X016326Y005079D02*
X016496Y005079D01*
X016423Y005176D02*
X016593Y005176D01*
X016520Y005273D02*
X017003Y005273D01*
X017100Y005370D02*
X016616Y005370D01*
X016713Y005467D02*
X017197Y005467D01*
X017293Y005564D02*
X016810Y005564D01*
X016907Y005661D02*
X017390Y005661D01*
X017487Y005758D02*
X017004Y005758D01*
X017101Y005855D02*
X017584Y005855D01*
X017681Y005952D02*
X017198Y005952D01*
X017295Y006048D02*
X017778Y006048D01*
X017875Y006145D02*
X017392Y006145D01*
X017489Y006242D02*
X017972Y006242D01*
X018069Y006339D02*
X017586Y006339D01*
X017683Y006436D02*
X018166Y006436D01*
X018263Y006533D02*
X017780Y006533D01*
X017877Y006630D02*
X018360Y006630D01*
X018457Y006727D02*
X017973Y006727D01*
X018070Y006824D02*
X018554Y006824D01*
X018873Y006893D02*
X016822Y004842D01*
X016822Y004806D01*
X017504Y005273D02*
X020286Y005273D01*
X020290Y005370D02*
X017601Y005370D01*
X017698Y005467D02*
X020311Y005467D01*
X020331Y005564D02*
X017795Y005564D01*
X017892Y005661D02*
X020368Y005661D01*
X020404Y005758D02*
X017988Y005758D01*
X018085Y005855D02*
X020459Y005855D01*
X020521Y005952D02*
X018182Y005952D01*
X018279Y006048D02*
X020591Y006048D01*
X020688Y006145D02*
X018376Y006145D01*
X018473Y006242D02*
X020803Y006242D01*
X020951Y006339D02*
X018570Y006339D01*
X018667Y006436D02*
X021166Y006436D01*
X021241Y006727D02*
X021865Y006727D01*
X021865Y006824D02*
X021338Y006824D01*
X021435Y006921D02*
X021865Y006921D01*
X021865Y007018D02*
X021532Y007018D01*
X021570Y007115D02*
X021865Y007115D01*
X021865Y007212D02*
X021570Y007212D01*
X021570Y007309D02*
X021865Y007309D01*
X021865Y007405D02*
X021570Y007405D01*
X021570Y007502D02*
X021865Y007502D01*
X021865Y007599D02*
X021570Y007599D01*
X021570Y007696D02*
X021865Y007696D01*
X021865Y007793D02*
X021570Y007793D01*
X021570Y007890D02*
X021865Y007890D01*
X021865Y007987D02*
X021570Y007987D01*
X021570Y008084D02*
X021865Y008084D01*
X021865Y008181D02*
X021570Y008181D01*
X021570Y008278D02*
X021835Y008278D01*
X021816Y008375D02*
X021796Y008375D01*
X021413Y008409D02*
X021413Y008586D01*
X021413Y008409D02*
X021393Y008389D01*
X021393Y007129D01*
X021157Y006893D01*
X018873Y006893D01*
X018861Y006630D02*
X021865Y006630D01*
X021865Y006533D02*
X018764Y006533D01*
X018086Y007090D02*
X015822Y004826D01*
X015822Y004806D01*
X015532Y004498D02*
X015112Y004498D01*
X015209Y004595D02*
X015435Y004595D01*
X015399Y004692D02*
X015245Y004692D01*
X015287Y004788D02*
X015399Y004788D01*
X015399Y004885D02*
X015384Y004885D01*
X015054Y004806D02*
X018361Y008114D01*
X018361Y008350D01*
X019976Y009964D01*
X020291Y009964D01*
X020310Y009984D01*
X020487Y009984D01*
X020733Y010022D02*
X021816Y010022D01*
X021816Y009925D02*
X020733Y009925D01*
X020733Y009829D02*
X021816Y009829D01*
X021816Y009732D02*
X020733Y009732D01*
X020733Y009635D02*
X021816Y009635D01*
X021816Y009538D02*
X020733Y009538D01*
X020814Y009441D02*
X021816Y009441D01*
X021816Y009344D02*
X020852Y009344D01*
X020930Y009334D02*
X020930Y009216D01*
X020487Y009216D01*
X020015Y009216D01*
X020001Y009229D02*
X020064Y009167D01*
X020281Y009167D01*
X020281Y009147D01*
X020272Y009147D01*
X020233Y009108D01*
X019966Y009108D01*
X019876Y009070D01*
X019854Y009049D01*
X019745Y009049D01*
X019741Y009044D01*
X019686Y009098D01*
X019556Y009098D01*
X019464Y009006D01*
X019372Y009098D01*
X019360Y009098D01*
X019655Y009393D01*
X019688Y009313D01*
X019757Y009244D01*
X019848Y009206D01*
X019946Y009206D01*
X020001Y009229D01*
X019859Y009053D02*
X019731Y009053D01*
X019754Y009247D02*
X019509Y009247D01*
X019412Y009150D02*
X020281Y009150D01*
X020291Y009452D02*
X019897Y009452D01*
X019675Y009344D02*
X019606Y009344D01*
X019511Y009053D02*
X019416Y009053D01*
X019464Y009006D02*
X019464Y008783D01*
X019464Y008783D01*
X019464Y009006D01*
X019464Y008956D02*
X019464Y008956D01*
X019464Y008859D02*
X019464Y008859D01*
X020182Y008572D02*
X020202Y008592D01*
X020202Y008615D01*
X020340Y008615D01*
X020387Y008635D01*
X020517Y008635D01*
X020517Y008512D01*
X020375Y008369D01*
X020178Y008369D01*
X020182Y008380D01*
X020182Y008572D01*
X020182Y008569D02*
X020517Y008569D01*
X020477Y008472D02*
X020182Y008472D01*
X020180Y008375D02*
X020380Y008375D01*
X020448Y008192D02*
X020094Y008192D01*
X019661Y007759D01*
X019661Y007680D01*
X020448Y008192D02*
X020704Y008448D01*
X020704Y008586D01*
X020940Y008586D02*
X020940Y008409D01*
X020684Y008153D01*
X020684Y007680D01*
X021157Y007208D02*
X021039Y007090D01*
X018086Y007090D01*
X018165Y008192D02*
X015212Y005240D01*
X014255Y005240D01*
X013822Y004806D01*
X013532Y004498D02*
X013112Y004498D01*
X013209Y004595D02*
X013435Y004595D01*
X013399Y004692D02*
X013245Y004692D01*
X013245Y004788D02*
X013399Y004788D01*
X013399Y004885D02*
X013245Y004885D01*
X013248Y004982D02*
X013399Y004982D01*
X013345Y005079D02*
X013496Y005079D01*
X013442Y005176D02*
X013593Y005176D01*
X013452Y005436D02*
X015133Y005436D01*
X017968Y008271D01*
X017968Y008507D01*
X019936Y010476D01*
X020291Y010476D01*
X020310Y010495D01*
X020487Y010495D01*
X020533Y010682D02*
X020316Y010682D01*
X020306Y010673D01*
X020237Y010673D01*
X020217Y010653D01*
X019956Y010653D01*
X019956Y010760D01*
X020379Y011207D01*
X020397Y011163D01*
X020466Y011094D01*
X020527Y011069D01*
X020527Y011050D01*
X020517Y011041D01*
X020517Y010698D01*
X020533Y010682D01*
X020517Y010701D02*
X019956Y010701D01*
X019992Y010798D02*
X020517Y010798D01*
X020517Y010895D02*
X020084Y010895D01*
X020175Y010992D02*
X020517Y010992D01*
X020479Y011089D02*
X020267Y011089D01*
X020358Y011186D02*
X020388Y011186D01*
X020606Y011302D02*
X020704Y011204D01*
X020704Y010869D01*
X020940Y010869D02*
X020940Y011047D01*
X020920Y011066D01*
X020920Y011342D01*
X020724Y011539D01*
X020448Y011539D01*
X019779Y010830D01*
X019779Y010594D01*
X017771Y008586D01*
X017771Y008350D01*
X015054Y005633D01*
X012649Y005633D01*
X011822Y004806D01*
X011532Y004498D02*
X011112Y004498D01*
X011209Y004595D02*
X011435Y004595D01*
X011399Y004692D02*
X011245Y004692D01*
X011245Y004788D02*
X011399Y004788D01*
X011399Y004885D02*
X011245Y004885D01*
X011248Y004982D02*
X011399Y004982D01*
X011345Y005079D02*
X011496Y005079D01*
X011442Y005176D02*
X011593Y005176D01*
X011539Y005273D02*
X012038Y005273D01*
X012135Y005370D02*
X011636Y005370D01*
X011733Y005467D02*
X012232Y005467D01*
X012329Y005564D02*
X011830Y005564D01*
X012345Y005079D02*
X012496Y005079D01*
X012442Y005176D02*
X012593Y005176D01*
X012539Y005273D02*
X013038Y005273D01*
X013135Y005370D02*
X012636Y005370D01*
X012399Y004982D02*
X012248Y004982D01*
X012245Y004885D02*
X012399Y004885D01*
X012399Y004788D02*
X012245Y004788D01*
X012245Y004692D02*
X012399Y004692D01*
X012435Y004595D02*
X012209Y004595D01*
X012112Y004498D02*
X012532Y004498D01*
X012629Y004401D02*
X012015Y004401D01*
X011629Y004401D02*
X011015Y004401D01*
X010629Y004401D02*
X010015Y004401D01*
X009822Y004806D02*
X011043Y006027D01*
X014897Y006027D01*
X017377Y008507D01*
X017377Y008743D01*
X018165Y009531D01*
X018165Y009649D01*
X018716Y009806D02*
X018834Y009925D01*
X019582Y010673D01*
X019582Y010948D01*
X020369Y011736D01*
X020802Y011736D01*
X021157Y011381D01*
X021157Y011066D01*
X021176Y011047D01*
X021176Y010869D01*
X021413Y010869D02*
X021413Y011047D01*
X021393Y011066D01*
X021393Y011460D01*
X020920Y011932D01*
X020291Y011932D01*
X019385Y011027D01*
X019385Y010869D01*
X018716Y010200D01*
X016472Y010200D01*
X016718Y010410D02*
X018580Y010410D01*
X018772Y010507D02*
X015546Y010507D01*
X015546Y010410D02*
X015753Y010410D01*
X015733Y010313D02*
X015546Y010313D01*
X015546Y010216D02*
X015733Y010216D01*
X015668Y010119D02*
X015546Y010119D01*
X015546Y010022D02*
X015571Y010022D01*
X015527Y009728D02*
X015999Y010200D01*
X015999Y009688D02*
X015724Y009413D01*
X015724Y009177D01*
X014897Y008350D01*
X014661Y008350D01*
X014641Y008330D01*
X014365Y008330D01*
X014365Y008527D02*
X014641Y008527D01*
X014661Y008547D01*
X014818Y008547D01*
X015527Y009255D01*
X015527Y009728D01*
X015905Y009344D02*
X016882Y009344D01*
X016825Y009247D02*
X015901Y009247D01*
X015901Y009150D02*
X016785Y009150D01*
X016767Y009053D02*
X015851Y009053D01*
X015754Y008956D02*
X016767Y008956D01*
X016767Y008859D02*
X015657Y008859D01*
X015560Y008762D02*
X016767Y008762D01*
X016734Y008665D02*
X015463Y008665D01*
X015366Y008569D02*
X016637Y008569D01*
X016540Y008472D02*
X015269Y008472D01*
X015172Y008375D02*
X016443Y008375D01*
X016346Y008278D02*
X015159Y008278D01*
X015214Y008181D02*
X016249Y008181D01*
X016152Y008084D02*
X015740Y008084D01*
X015763Y007987D02*
X016055Y007987D01*
X015958Y007890D02*
X015723Y007890D01*
X015671Y007838D02*
X015448Y007838D01*
X015448Y007838D01*
X015671Y007838D01*
X015716Y007793D02*
X015861Y007793D01*
X015763Y007696D02*
X015764Y007696D01*
X014700Y007917D02*
X014680Y007936D01*
X014365Y007936D01*
X014001Y007890D02*
X012643Y007890D01*
X012643Y007793D02*
X014001Y007793D01*
X014001Y007696D02*
X012643Y007696D01*
X012643Y007599D02*
X014001Y007599D01*
X014001Y007502D02*
X012643Y007502D01*
X012643Y007405D02*
X014001Y007405D01*
X014001Y007309D02*
X012643Y007309D01*
X012643Y007212D02*
X014001Y007212D01*
X014001Y007159D02*
X012643Y007159D01*
X012643Y008517D01*
X014001Y008517D01*
X014001Y008432D01*
X014001Y008218D01*
X014001Y007159D01*
X014001Y007987D02*
X012643Y007987D01*
X012643Y008084D02*
X014001Y008084D01*
X014001Y008181D02*
X012643Y008181D01*
X012643Y008278D02*
X014001Y008278D01*
X014001Y008375D02*
X012643Y008375D01*
X012643Y008472D02*
X014001Y008472D01*
X014228Y009806D02*
X014228Y010240D01*
X015291Y011302D01*
X015291Y012169D01*
X015999Y012877D01*
X016009Y013271D01*
X015665Y013609D02*
X010979Y013609D01*
X010883Y013706D02*
X015762Y013706D01*
X015568Y013512D02*
X011076Y013512D01*
X012338Y012484D02*
X012338Y012169D01*
X012357Y012149D01*
X012968Y011736D02*
X012968Y010712D01*
X013019Y010410D02*
X012418Y010410D01*
X012515Y010313D02*
X013066Y010313D01*
X012958Y010216D02*
X012899Y010216D01*
X012928Y010187D02*
X012928Y009964D01*
X012928Y009964D01*
X012928Y010187D01*
X012928Y010119D02*
X012928Y010119D01*
X012928Y010022D02*
X012928Y010022D01*
X012643Y010216D02*
X012594Y010216D01*
X012594Y010119D02*
X012613Y010119D01*
X012613Y010022D02*
X012594Y010022D01*
X012594Y009925D02*
X012613Y009925D01*
X012613Y009829D02*
X012594Y009829D01*
X011550Y009491D02*
X011550Y008704D01*
X011708Y008547D01*
X011983Y008547D01*
X012003Y008527D01*
X012279Y008527D01*
X011915Y008278D02*
X011427Y008278D01*
X011442Y008181D02*
X011915Y008181D01*
X011915Y008084D02*
X011418Y008084D01*
X011339Y007987D02*
X011915Y007987D01*
X011629Y008375D02*
X011373Y008375D01*
X011373Y008472D02*
X011532Y008472D01*
X011435Y008569D02*
X011373Y008569D01*
X011373Y008665D02*
X011373Y008665D01*
X011373Y008762D02*
X011373Y008762D01*
X011373Y008859D02*
X011373Y008859D01*
X011373Y008956D02*
X011373Y008956D01*
X011373Y009053D02*
X011373Y009053D01*
X011373Y009150D02*
X011373Y009150D01*
X011196Y008192D02*
X011196Y010554D01*
X012968Y011736D02*
X013381Y012149D01*
X014978Y011476D02*
X015113Y011476D01*
X015113Y011379D02*
X014966Y011379D01*
X014966Y011282D02*
X015020Y011282D01*
X015230Y010992D02*
X015438Y010992D01*
X015535Y011089D02*
X015327Y011089D01*
X015424Y011186D02*
X015527Y011186D01*
X015341Y010895D02*
X015133Y010895D01*
X015036Y010798D02*
X015244Y010798D01*
X015192Y010701D02*
X014939Y010701D01*
X014843Y010604D02*
X015192Y010604D01*
X015192Y010507D02*
X014746Y010507D01*
X014649Y010410D02*
X015192Y010410D01*
X015192Y010313D02*
X014552Y010313D01*
X014707Y010216D02*
X014890Y010216D01*
X015551Y010604D02*
X018869Y010604D01*
X018966Y010701D02*
X015648Y010701D01*
X015745Y010798D02*
X019063Y010798D01*
X019160Y010895D02*
X016283Y010895D01*
X016380Y010992D02*
X019208Y010992D01*
X019208Y011089D02*
X016477Y011089D01*
X016491Y011186D02*
X019293Y011186D01*
X019390Y011282D02*
X016491Y011282D01*
X016491Y011379D02*
X019487Y011379D01*
X019584Y011476D02*
X016491Y011476D01*
X016420Y011573D02*
X019681Y011573D01*
X019778Y011670D02*
X016323Y011670D01*
X015113Y011670D02*
X015015Y011670D01*
X015015Y011573D02*
X015113Y011573D01*
X015113Y011767D02*
X015015Y011767D01*
X015015Y011864D02*
X015113Y011864D01*
X016472Y009688D02*
X016747Y009688D01*
X016681Y009441D02*
X017407Y009441D01*
X017333Y009344D02*
X017243Y009344D01*
X017062Y009177D02*
X016944Y009058D01*
X016944Y008625D01*
X014739Y006421D01*
X012692Y006421D01*
X012633Y006480D01*
X012633Y006795D01*
X012226Y006242D02*
X005842Y006242D01*
X005956Y006145D02*
X010910Y006145D01*
X010814Y006048D02*
X006053Y006048D01*
X004643Y007599D02*
X004525Y007560D01*
X004407Y007599D01*
X004408Y007599D02*
X004643Y007599D01*
X004390Y007987D02*
X003686Y007987D01*
X003686Y008084D02*
X004305Y008084D01*
X004264Y008181D02*
X003686Y008181D01*
X003686Y008278D02*
X004257Y008278D01*
X004270Y008375D02*
X003686Y008375D01*
X003686Y008472D02*
X004310Y008472D01*
X004404Y008569D02*
X003686Y008569D01*
X007062Y009728D02*
X007377Y009728D01*
X007495Y009610D01*
X007495Y007799D01*
X007833Y007987D02*
X008529Y007987D01*
X008523Y008084D02*
X007830Y008084D01*
X007830Y008181D02*
X008480Y008181D01*
X008500Y008278D02*
X007830Y008278D01*
X007830Y008375D02*
X008547Y008375D01*
X008480Y008472D02*
X007830Y008472D01*
X007830Y008569D02*
X008480Y008569D01*
X008794Y007877D02*
X008637Y007720D01*
X008074Y009635D02*
X007940Y009635D01*
X007968Y009732D02*
X008046Y009732D01*
X008046Y009829D02*
X007968Y009829D01*
X007968Y009925D02*
X008046Y009925D01*
X011196Y007169D02*
X011235Y007208D01*
X011550Y007208D01*
X011570Y007188D01*
X013452Y005436D02*
X012822Y004806D01*
X013015Y004401D02*
X013629Y004401D01*
X014015Y004401D02*
X014629Y004401D01*
X014532Y004498D02*
X014112Y004498D01*
X014209Y004595D02*
X014435Y004595D01*
X014399Y004692D02*
X014245Y004692D01*
X014245Y004788D02*
X014399Y004788D01*
X014399Y004885D02*
X014245Y004885D01*
X014248Y004982D02*
X014399Y004982D01*
X014822Y004806D02*
X015054Y004806D01*
X015015Y004401D02*
X015629Y004401D01*
X020281Y004207D02*
X006363Y004207D01*
X006363Y004110D02*
X020281Y004110D01*
X020281Y004013D02*
X006363Y004013D01*
X006363Y003916D02*
X020281Y003916D01*
X021157Y007208D02*
X021157Y008389D01*
X021176Y008409D01*
X021176Y008586D01*
X021186Y008960D02*
X021373Y008960D01*
X021393Y008940D01*
X021529Y009150D02*
X021816Y009150D01*
X021816Y009247D02*
X020834Y009247D01*
X020852Y009150D02*
X021256Y009150D01*
X020487Y009472D02*
X020310Y009472D01*
X020291Y009452D01*
X020487Y009728D02*
X020094Y009728D01*
X020725Y010119D02*
X021509Y010119D01*
X021501Y010216D02*
X020733Y010216D01*
X020733Y010313D02*
X021069Y010313D01*
X020999Y010410D02*
X020733Y010410D01*
X020733Y010507D02*
X020999Y010507D01*
X020999Y010604D02*
X020733Y010604D01*
X020487Y010240D02*
X019976Y010240D01*
X018165Y008428D01*
X018165Y008192D01*
X016263Y009441D02*
X016208Y009441D01*
X018716Y009925D02*
X018834Y009925D01*
X021303Y010313D02*
X021501Y010313D01*
X021560Y010410D02*
X021373Y010410D01*
X021373Y010507D02*
X021816Y010507D01*
X021816Y010604D02*
X021373Y010604D01*
X021600Y010701D02*
X021816Y010701D01*
X021816Y010798D02*
X021600Y010798D01*
X021600Y010895D02*
X021816Y010895D01*
X021816Y010992D02*
X021600Y010992D01*
X021590Y011089D02*
X021816Y011089D01*
X021843Y011186D02*
X021570Y011186D01*
X021570Y011282D02*
X021865Y011282D01*
X021865Y011379D02*
X021570Y011379D01*
X021570Y011476D02*
X021865Y011476D01*
X021865Y011573D02*
X021530Y011573D01*
X021433Y011670D02*
X021865Y011670D01*
X021865Y011767D02*
X021336Y011767D01*
X021239Y011864D02*
X021865Y011864D01*
X021865Y011961D02*
X021143Y011961D01*
X021046Y012058D02*
X021865Y012058D01*
D31*
X021787Y012169D03*
X021787Y012562D03*
X021787Y012956D03*
X021787Y011775D03*
X021787Y011381D03*
X021826Y010712D03*
X021472Y010476D03*
X021432Y010121D03*
X021432Y009728D03*
X021432Y009334D03*
X021393Y008940D03*
X020802Y009531D03*
X020802Y009925D03*
X020094Y009728D03*
X019897Y009452D03*
X019464Y009058D03*
X020330Y008547D03*
X019936Y008428D03*
X021787Y008074D03*
X021787Y007680D03*
X021787Y007287D03*
X021787Y006893D03*
X021787Y006499D03*
X017653Y009413D03*
X018165Y009649D03*
X018716Y010200D03*
X020330Y010869D03*
X020606Y011302D03*
X017062Y009177D03*
X015724Y007838D03*
X014976Y008114D03*
X012653Y009491D03*
X011865Y009964D03*
X011550Y010279D03*
X011196Y010554D03*
X011196Y010791D03*
X010960Y011499D03*
X011314Y012247D03*
X012338Y012484D03*
X012338Y011027D03*
X012928Y010240D03*
X013991Y009964D03*
X014779Y009964D03*
X014700Y012011D03*
X014503Y012641D03*
X014228Y012877D03*
X010763Y009610D03*
X009424Y010279D03*
X008007Y009610D03*
X008519Y008350D03*
X008519Y006932D03*
X011196Y007169D03*
X011196Y008192D03*
D32*
X012928Y009295D02*
X013007Y009216D01*
X014700Y007917D02*
X014897Y007917D01*
X014976Y007838D01*
X014680Y011243D02*
X014050Y011243D01*
X013598Y011499D02*
X013834Y011893D01*
X014050Y012110D01*
X014050Y012149D01*
X013381Y012149D02*
X013381Y012779D01*
X013480Y012877D01*
X013598Y011499D02*
X013381Y011283D01*
X013381Y011243D01*
X014680Y011243D02*
X014700Y011263D01*
D33*
X013322Y007838D03*
D34*
X014976Y007838D02*
X014976Y008114D01*
X012928Y009295D02*
X012928Y009491D01*
X012653Y009491D01*
X012141Y009964D02*
X011865Y009964D01*
X011550Y009964D02*
X011550Y010279D01*
X010291Y010673D02*
X010271Y010653D01*
X010054Y010653D01*
X008798Y010653D02*
X008578Y010653D01*
X008558Y010673D01*
X011314Y011972D02*
X011787Y011972D01*
X011846Y012031D01*
X011846Y012149D01*
X011314Y012247D02*
X011314Y011972D01*
X013716Y009964D02*
X013991Y009964D01*
X014503Y009964D02*
X014779Y009964D01*
X015094Y009964D01*
X019936Y008783D02*
X019936Y008428D01*
X019936Y008783D02*
X020015Y008862D01*
X020251Y008862D01*
X020291Y008862D01*
D35*
X020330Y008822D01*
X020487Y008822D01*
X020487Y008960D01*
X020350Y008960D01*
X020251Y008862D01*
D36*
X011196Y010554D02*
X011057Y010693D01*
X010763Y010693D01*
X010744Y010693D01*
X010724Y010673D01*
X010291Y010673D01*
X011078Y010673D02*
X011196Y010554D01*
X011196Y010791D01*
X011078Y010673D01*
X008558Y010673D02*
X008401Y010673D01*
X008007Y010673D01*
X007377Y010673D01*
X007062Y010358D01*
X008007Y010673D02*
X008007Y010693D01*
M02*
