G75*
%MOIN*%
%OFA0B0*%
%FSLAX24Y24*%
%IPPOS*%
%LPD*%
%AMOC8*
5,1,8,0,0,1.08239X$1,22.5*
%
%ADD10OC8,0.0709*%
%ADD11C,0.0315*%
%ADD12C,0.0472*%
%ADD13OC8,0.0591*%
%ADD14C,0.0236*%
%ADD15C,0.0098*%
%ADD16C,0.1181*%
%ADD17C,0.0630*%
%ADD18C,0.0315*%
D10*
X016009Y011302D03*
X016009Y013271D03*
X018509Y013271D03*
X018509Y011302D03*
X010635Y013271D03*
X008135Y013271D03*
D11*
X007062Y010358D03*
X006590Y010043D03*
X007062Y009728D03*
X006590Y009413D03*
X007062Y009098D03*
D12*
X006983Y008271D02*
X006511Y008271D01*
X005094Y008271D02*
X004621Y008271D01*
X004621Y011184D02*
X005094Y011184D01*
X006511Y011184D02*
X006983Y011184D01*
D13*
X007822Y004806D03*
X008822Y004806D03*
X009822Y004806D03*
X010822Y004806D03*
X011822Y004806D03*
X012822Y004806D03*
X013822Y004806D03*
X014822Y004806D03*
X015822Y004806D03*
X016822Y004806D03*
X017822Y004806D03*
X018822Y004806D03*
D14*
X021590Y006775D03*
X021787Y006972D03*
X021590Y007169D03*
X021787Y007365D03*
X021590Y007562D03*
X021787Y007759D03*
X021590Y007956D03*
X021787Y008153D03*
X021393Y008940D03*
X021432Y009334D03*
X021432Y009728D03*
X021432Y010121D03*
X021472Y010476D03*
X020881Y010476D03*
X020330Y010869D03*
X020606Y011302D03*
X021590Y011499D03*
X021787Y011302D03*
X021787Y011696D03*
X021590Y011893D03*
X021787Y012090D03*
X021590Y012287D03*
X021787Y012484D03*
X021590Y012680D03*
X021787Y012877D03*
X018716Y010200D03*
X018165Y009649D03*
X017653Y009413D03*
X017062Y009177D03*
X015015Y009491D03*
X014464Y009491D03*
X013913Y009491D03*
X012968Y010240D03*
X012692Y009491D03*
X012141Y009491D03*
X011669Y009491D03*
X010645Y009610D03*
X011196Y010554D03*
X011196Y010791D03*
X012574Y011066D03*
X011196Y012129D03*
X011196Y012602D03*
X012574Y012484D03*
X014188Y012995D03*
X014464Y012759D03*
X014661Y012129D03*
X019464Y009058D03*
X019897Y009452D03*
X020094Y009728D03*
X020802Y009925D03*
X020802Y009531D03*
X020330Y008507D03*
X019936Y008507D03*
X021787Y006578D03*
X015487Y007562D03*
X015015Y008114D03*
X011196Y008192D03*
X011196Y007169D03*
X008519Y006932D03*
X008519Y008350D03*
X007928Y009610D03*
X009346Y010279D03*
D15*
X006363Y005152D02*
X006363Y003832D01*
X020281Y003832D01*
X020281Y005152D01*
X020277Y005156D01*
X020281Y005205D01*
X020281Y005253D01*
X020284Y005257D01*
X020290Y005335D01*
X020284Y005344D01*
X020294Y005386D01*
X020297Y005430D01*
X020305Y005437D01*
X020322Y005518D01*
X020318Y005528D01*
X020333Y005569D01*
X020343Y005612D01*
X020352Y005618D01*
X020381Y005696D01*
X020378Y005706D01*
X020399Y005744D01*
X020414Y005785D01*
X020424Y005789D01*
X020463Y005863D01*
X020462Y005873D01*
X020488Y005908D01*
X020509Y005947D01*
X020519Y005949D01*
X020569Y006016D01*
X020569Y006027D01*
X020600Y006058D01*
X020626Y006093D01*
X020637Y006094D01*
X020696Y006153D01*
X020697Y006163D01*
X020732Y006190D01*
X020763Y006221D01*
X020774Y006221D01*
X020840Y006271D01*
X020843Y006281D01*
X020882Y006302D01*
X020917Y006328D01*
X020927Y006326D01*
X021000Y006366D01*
X021005Y006376D01*
X021046Y006391D01*
X021084Y006412D01*
X021094Y006409D01*
X021172Y006438D01*
X021178Y006447D01*
X021221Y006456D01*
X021262Y006472D01*
X021271Y006467D01*
X021353Y006485D01*
X021360Y006493D01*
X021403Y006496D01*
X021446Y006506D01*
X021455Y006500D01*
X021533Y006505D01*
X021537Y006509D01*
X021585Y006509D01*
X021634Y006513D01*
X021637Y006509D01*
X022958Y006509D01*
X022958Y012946D01*
X021637Y012946D01*
X021634Y012943D01*
X021585Y012946D01*
X021537Y012946D01*
X021533Y012950D01*
X021455Y012956D01*
X021446Y012950D01*
X021403Y012959D01*
X021360Y012962D01*
X021353Y012970D01*
X021271Y012988D01*
X021262Y012984D01*
X021221Y012999D01*
X021178Y013008D01*
X021172Y013017D01*
X021094Y013046D01*
X021084Y013043D01*
X021046Y013064D01*
X021005Y013080D01*
X021000Y013089D01*
X020927Y013129D01*
X020917Y013127D01*
X020882Y013154D01*
X020843Y013175D01*
X020840Y013185D01*
X020774Y013235D01*
X020763Y013235D01*
X020732Y013266D01*
X020697Y013292D01*
X020696Y013302D01*
X020637Y013361D01*
X020626Y013363D01*
X020600Y013398D01*
X020569Y013429D01*
X020569Y013439D01*
X020519Y013506D01*
X020509Y013509D01*
X020488Y013547D01*
X020462Y013582D01*
X020463Y013593D01*
X020424Y013666D01*
X020414Y013670D01*
X020399Y013711D01*
X020378Y013750D01*
X020381Y013760D01*
X020352Y013838D01*
X020343Y013844D01*
X020333Y013886D01*
X020318Y013927D01*
X020322Y013937D01*
X020305Y014018D01*
X020297Y014025D01*
X020294Y014069D01*
X020284Y014112D01*
X020290Y014121D01*
X020284Y014199D01*
X020281Y014202D01*
X020281Y014251D01*
X020277Y014299D01*
X020281Y014303D01*
X020281Y015623D01*
X006363Y015623D01*
X006363Y014303D01*
X006367Y014299D01*
X006363Y014251D01*
X006363Y014202D01*
X006360Y014199D01*
X006354Y014121D01*
X006360Y014112D01*
X006350Y014069D01*
X006347Y014025D01*
X006339Y014018D01*
X006322Y013937D01*
X006326Y013927D01*
X006311Y013886D01*
X006301Y013844D01*
X006293Y013838D01*
X006263Y013760D01*
X006266Y013750D01*
X006245Y013711D01*
X006230Y013670D01*
X006221Y013666D01*
X006181Y013593D01*
X006182Y013582D01*
X006156Y013547D01*
X006135Y013509D01*
X006125Y013506D01*
X006075Y013439D01*
X006075Y013429D01*
X006044Y013398D01*
X006018Y013363D01*
X006007Y013361D01*
X005948Y013302D01*
X005947Y013292D01*
X005912Y013266D01*
X005881Y013235D01*
X005870Y013235D01*
X005804Y013185D01*
X005801Y013175D01*
X005762Y013154D01*
X005727Y013127D01*
X005717Y013129D01*
X005644Y013089D01*
X005639Y013080D01*
X005598Y013064D01*
X005560Y013043D01*
X005550Y013046D01*
X005472Y013017D01*
X005466Y013008D01*
X005423Y012999D01*
X005382Y012984D01*
X005373Y012988D01*
X005291Y012970D01*
X005284Y012962D01*
X005241Y012959D01*
X005198Y012950D01*
X005189Y012956D01*
X005111Y012950D01*
X005107Y012946D01*
X005059Y012946D01*
X005011Y012943D01*
X005007Y012946D01*
X003686Y012946D01*
X003686Y006509D01*
X005007Y006509D01*
X005011Y006513D01*
X005059Y006509D01*
X005107Y006509D01*
X005111Y006505D01*
X005189Y006500D01*
X005198Y006506D01*
X005241Y006496D01*
X005284Y006493D01*
X005291Y006485D01*
X005373Y006467D01*
X005382Y006472D01*
X005423Y006456D01*
X005466Y006447D01*
X005472Y006438D01*
X005550Y006409D01*
X005560Y006412D01*
X005598Y006391D01*
X005639Y006376D01*
X005644Y006366D01*
X005717Y006326D01*
X005727Y006328D01*
X005762Y006302D01*
X005801Y006281D01*
X005804Y006271D01*
X005870Y006221D01*
X005881Y006221D01*
X005912Y006190D01*
X005947Y006163D01*
X005948Y006153D01*
X006007Y006094D01*
X006018Y006093D01*
X006044Y006058D01*
X006075Y006027D01*
X006075Y006016D01*
X006125Y005949D01*
X006135Y005947D01*
X006156Y005908D01*
X006182Y005873D01*
X006181Y005863D01*
X006221Y005789D01*
X006230Y005785D01*
X006245Y005744D01*
X006266Y005706D01*
X006263Y005696D01*
X006293Y005618D01*
X006301Y005612D01*
X006311Y005569D01*
X006326Y005528D01*
X006322Y005518D01*
X006339Y005437D01*
X006347Y005430D01*
X006350Y005386D01*
X006360Y005344D01*
X006354Y005335D01*
X006360Y005257D01*
X006363Y005253D01*
X006363Y005205D01*
X006367Y005156D01*
X006363Y005152D01*
X006365Y005176D02*
X007593Y005176D01*
X007647Y005230D02*
X007399Y004982D01*
X007399Y004631D01*
X007647Y004383D01*
X007997Y004383D01*
X008245Y004631D01*
X008245Y004982D01*
X007997Y005230D01*
X007647Y005230D01*
X007496Y005079D02*
X006363Y005079D01*
X006363Y004982D02*
X007399Y004982D01*
X007399Y004885D02*
X006363Y004885D01*
X006363Y004788D02*
X007399Y004788D01*
X007399Y004692D02*
X006363Y004692D01*
X006363Y004595D02*
X007435Y004595D01*
X007532Y004498D02*
X006363Y004498D01*
X006363Y004401D02*
X007629Y004401D01*
X008015Y004401D02*
X008629Y004401D01*
X008647Y004383D02*
X008997Y004383D01*
X009245Y004631D01*
X009245Y004982D01*
X008997Y005230D01*
X008647Y005230D01*
X008399Y004982D01*
X008399Y004631D01*
X008647Y004383D01*
X008532Y004498D02*
X008112Y004498D01*
X008209Y004595D02*
X008435Y004595D01*
X008399Y004692D02*
X008245Y004692D01*
X008245Y004788D02*
X008399Y004788D01*
X008399Y004885D02*
X008245Y004885D01*
X008245Y004982D02*
X008399Y004982D01*
X008496Y005079D02*
X008148Y005079D01*
X008051Y005176D02*
X008593Y005176D01*
X009051Y005176D02*
X009593Y005176D01*
X009647Y005230D02*
X009399Y004982D01*
X009399Y004631D01*
X009647Y004383D01*
X009997Y004383D01*
X010245Y004631D01*
X010245Y004982D01*
X009997Y005230D01*
X009647Y005230D01*
X009496Y005079D02*
X009148Y005079D01*
X009245Y004982D02*
X009399Y004982D01*
X009399Y004885D02*
X009245Y004885D01*
X009245Y004788D02*
X009399Y004788D01*
X009399Y004692D02*
X009245Y004692D01*
X009209Y004595D02*
X009435Y004595D01*
X009532Y004498D02*
X009112Y004498D01*
X009015Y004401D02*
X009629Y004401D01*
X010015Y004401D02*
X010629Y004401D01*
X010647Y004383D02*
X010997Y004383D01*
X011245Y004631D01*
X011245Y004982D01*
X010997Y005230D01*
X010647Y005230D01*
X010399Y004982D01*
X010399Y004631D01*
X010647Y004383D01*
X010532Y004498D02*
X010112Y004498D01*
X010209Y004595D02*
X010435Y004595D01*
X010399Y004692D02*
X010245Y004692D01*
X010245Y004788D02*
X010399Y004788D01*
X010399Y004885D02*
X010245Y004885D01*
X010245Y004982D02*
X010399Y004982D01*
X010496Y005079D02*
X010148Y005079D01*
X010051Y005176D02*
X010593Y005176D01*
X011051Y005176D02*
X011593Y005176D01*
X011647Y005230D02*
X011399Y004982D01*
X011399Y004631D01*
X011647Y004383D01*
X011997Y004383D01*
X012245Y004631D01*
X012245Y004982D01*
X011997Y005230D01*
X011647Y005230D01*
X011496Y005079D02*
X011148Y005079D01*
X011245Y004982D02*
X011399Y004982D01*
X011399Y004885D02*
X011245Y004885D01*
X011245Y004788D02*
X011399Y004788D01*
X011399Y004692D02*
X011245Y004692D01*
X011209Y004595D02*
X011435Y004595D01*
X011532Y004498D02*
X011112Y004498D01*
X011015Y004401D02*
X011629Y004401D01*
X012015Y004401D02*
X012629Y004401D01*
X012647Y004383D02*
X012997Y004383D01*
X013245Y004631D01*
X013245Y004982D01*
X012997Y005230D01*
X012647Y005230D01*
X012399Y004982D01*
X012399Y004631D01*
X012647Y004383D01*
X012532Y004498D02*
X012112Y004498D01*
X012209Y004595D02*
X012435Y004595D01*
X012399Y004692D02*
X012245Y004692D01*
X012245Y004788D02*
X012399Y004788D01*
X012399Y004885D02*
X012245Y004885D01*
X012245Y004982D02*
X012399Y004982D01*
X012496Y005079D02*
X012148Y005079D01*
X012051Y005176D02*
X012593Y005176D01*
X013051Y005176D02*
X013593Y005176D01*
X013647Y005230D02*
X013399Y004982D01*
X013399Y004631D01*
X013647Y004383D01*
X013997Y004383D01*
X014245Y004631D01*
X014245Y004982D01*
X013997Y005230D01*
X013647Y005230D01*
X013496Y005079D02*
X013148Y005079D01*
X013245Y004982D02*
X013399Y004982D01*
X013399Y004885D02*
X013245Y004885D01*
X013245Y004788D02*
X013399Y004788D01*
X013399Y004692D02*
X013245Y004692D01*
X013209Y004595D02*
X013435Y004595D01*
X013532Y004498D02*
X013112Y004498D01*
X013015Y004401D02*
X013629Y004401D01*
X014015Y004401D02*
X014629Y004401D01*
X014647Y004383D02*
X014997Y004383D01*
X015245Y004631D01*
X015245Y004982D01*
X014997Y005230D01*
X014647Y005230D01*
X014399Y004982D01*
X014399Y004631D01*
X014647Y004383D01*
X014532Y004498D02*
X014112Y004498D01*
X014209Y004595D02*
X014435Y004595D01*
X014399Y004692D02*
X014245Y004692D01*
X014245Y004788D02*
X014399Y004788D01*
X014399Y004885D02*
X014245Y004885D01*
X014245Y004982D02*
X014399Y004982D01*
X014496Y005079D02*
X014148Y005079D01*
X014051Y005176D02*
X014593Y005176D01*
X015051Y005176D02*
X015593Y005176D01*
X015647Y005230D02*
X015399Y004982D01*
X015399Y004631D01*
X015647Y004383D01*
X015997Y004383D01*
X016245Y004631D01*
X016245Y004982D01*
X015997Y005230D01*
X015647Y005230D01*
X015496Y005079D02*
X015148Y005079D01*
X015245Y004982D02*
X015399Y004982D01*
X015399Y004885D02*
X015245Y004885D01*
X015245Y004788D02*
X015399Y004788D01*
X015399Y004692D02*
X015245Y004692D01*
X015209Y004595D02*
X015435Y004595D01*
X015532Y004498D02*
X015112Y004498D01*
X015015Y004401D02*
X015629Y004401D01*
X016015Y004401D02*
X016629Y004401D01*
X016647Y004383D02*
X016997Y004383D01*
X017245Y004631D01*
X017245Y004982D01*
X016997Y005230D01*
X016647Y005230D01*
X016399Y004982D01*
X016399Y004631D01*
X016647Y004383D01*
X016532Y004498D02*
X016112Y004498D01*
X016209Y004595D02*
X016435Y004595D01*
X016399Y004692D02*
X016245Y004692D01*
X016245Y004788D02*
X016399Y004788D01*
X016399Y004885D02*
X016245Y004885D01*
X016245Y004982D02*
X016399Y004982D01*
X016496Y005079D02*
X016148Y005079D01*
X016051Y005176D02*
X016593Y005176D01*
X017051Y005176D02*
X017563Y005176D01*
X017638Y005251D02*
X017378Y004991D01*
X017378Y004856D01*
X017773Y004856D01*
X017773Y005251D01*
X017638Y005251D01*
X017773Y005176D02*
X017871Y005176D01*
X017871Y005251D02*
X017871Y004856D01*
X017773Y004856D01*
X017773Y004757D01*
X017871Y004757D01*
X017871Y004362D01*
X018006Y004362D01*
X018267Y004622D01*
X018267Y004757D01*
X017871Y004757D01*
X017871Y004856D01*
X018267Y004856D01*
X018267Y004991D01*
X018006Y005251D01*
X017871Y005251D01*
X017871Y005079D02*
X017773Y005079D01*
X017773Y004982D02*
X017871Y004982D01*
X017871Y004885D02*
X017773Y004885D01*
X017773Y004788D02*
X017245Y004788D01*
X017245Y004692D02*
X017378Y004692D01*
X017378Y004757D02*
X017378Y004622D01*
X017638Y004362D01*
X017773Y004362D01*
X017773Y004757D01*
X017378Y004757D01*
X017378Y004885D02*
X017245Y004885D01*
X017245Y004982D02*
X017378Y004982D01*
X017466Y005079D02*
X017148Y005079D01*
X017773Y004692D02*
X017871Y004692D01*
X017871Y004788D02*
X018399Y004788D01*
X018399Y004692D02*
X018267Y004692D01*
X018239Y004595D02*
X018435Y004595D01*
X018399Y004631D02*
X018647Y004383D01*
X018997Y004383D01*
X019245Y004631D01*
X019245Y004979D01*
X020982Y006716D01*
X021151Y006716D01*
X021255Y006820D01*
X021452Y007017D01*
X021452Y008513D01*
X021570Y008631D01*
X021570Y008769D01*
X021602Y008801D01*
X021639Y008891D01*
X021639Y008989D01*
X021602Y009080D01*
X021532Y009149D01*
X021442Y009186D01*
X021344Y009186D01*
X021254Y009149D01*
X021184Y009080D01*
X021147Y008989D01*
X021147Y008891D01*
X021184Y008801D01*
X021212Y008773D01*
X021201Y008763D01*
X021098Y008659D01*
X021098Y007163D01*
X021005Y007070D01*
X020835Y007070D01*
X018995Y005230D01*
X018647Y005230D01*
X018399Y004982D01*
X018399Y004631D01*
X018532Y004498D02*
X018142Y004498D01*
X018045Y004401D02*
X018629Y004401D01*
X019015Y004401D02*
X020281Y004401D01*
X020281Y004498D02*
X019112Y004498D01*
X019209Y004595D02*
X020281Y004595D01*
X020281Y004692D02*
X019245Y004692D01*
X019245Y004788D02*
X020281Y004788D01*
X020281Y004885D02*
X019245Y004885D01*
X019248Y004982D02*
X020281Y004982D01*
X020281Y005079D02*
X019345Y005079D01*
X019442Y005176D02*
X020279Y005176D01*
X020286Y005273D02*
X019539Y005273D01*
X019636Y005370D02*
X020290Y005370D01*
X020311Y005467D02*
X019733Y005467D01*
X019830Y005564D02*
X020331Y005564D01*
X020368Y005661D02*
X019927Y005661D01*
X020024Y005758D02*
X020404Y005758D01*
X020459Y005855D02*
X020121Y005855D01*
X020218Y005952D02*
X020521Y005952D01*
X020591Y006048D02*
X020315Y006048D01*
X020412Y006145D02*
X020688Y006145D01*
X020803Y006242D02*
X020508Y006242D01*
X020605Y006339D02*
X020951Y006339D01*
X021166Y006436D02*
X020702Y006436D01*
X020799Y006533D02*
X022958Y006533D01*
X022958Y006630D02*
X020896Y006630D01*
X020909Y006893D02*
X018822Y004806D01*
X018496Y005079D02*
X018178Y005079D01*
X018267Y004982D02*
X018399Y004982D01*
X018399Y004885D02*
X018267Y004885D01*
X018081Y005176D02*
X018593Y005176D01*
X019038Y005273D02*
X006359Y005273D01*
X006354Y005370D02*
X019135Y005370D01*
X019232Y005467D02*
X006333Y005467D01*
X006313Y005564D02*
X019329Y005564D01*
X019426Y005661D02*
X006276Y005661D01*
X006240Y005758D02*
X019523Y005758D01*
X019620Y005855D02*
X006185Y005855D01*
X006123Y005952D02*
X019717Y005952D01*
X019814Y006048D02*
X006053Y006048D01*
X005956Y006145D02*
X019910Y006145D01*
X020007Y006242D02*
X005842Y006242D01*
X005693Y006339D02*
X020104Y006339D01*
X020201Y006436D02*
X005478Y006436D01*
X003686Y006533D02*
X020298Y006533D01*
X020395Y006630D02*
X003686Y006630D01*
X003686Y006727D02*
X020492Y006727D01*
X020589Y006824D02*
X003686Y006824D01*
X003686Y006921D02*
X020686Y006921D01*
X020783Y007018D02*
X011393Y007018D01*
X011405Y007029D02*
X011442Y007120D01*
X011442Y007218D01*
X011405Y007308D01*
X011373Y007339D01*
X011373Y008021D01*
X011405Y008053D01*
X011442Y008143D01*
X011442Y008241D01*
X011405Y008332D01*
X011335Y008401D01*
X011245Y008438D01*
X011147Y008438D01*
X011057Y008401D01*
X010987Y008332D01*
X010950Y008241D01*
X010950Y008143D01*
X010987Y008053D01*
X011019Y008021D01*
X011019Y007339D01*
X010987Y007308D01*
X010950Y007218D01*
X010950Y007120D01*
X010987Y007029D01*
X011057Y006960D01*
X011147Y006923D01*
X011245Y006923D01*
X011335Y006960D01*
X011405Y007029D01*
X011440Y007115D02*
X021049Y007115D01*
X021098Y007212D02*
X011442Y007212D01*
X011404Y007309D02*
X021098Y007309D01*
X021098Y007405D02*
X011373Y007405D01*
X011373Y007502D02*
X021098Y007502D01*
X021098Y007599D02*
X011373Y007599D01*
X011373Y007696D02*
X021098Y007696D01*
X021098Y007793D02*
X011373Y007793D01*
X011373Y007890D02*
X014777Y007890D01*
X014764Y007896D02*
X014927Y007828D01*
X019867Y007828D01*
X020030Y007896D01*
X020154Y008020D01*
X020222Y008183D01*
X020222Y008564D01*
X020178Y008669D01*
X020098Y008749D01*
X019993Y008793D01*
X019722Y008793D01*
X019617Y008749D01*
X019582Y008714D01*
X015458Y008714D01*
X015458Y009580D01*
X015390Y009742D01*
X015266Y009867D01*
X015103Y009934D01*
X011639Y009934D01*
X011639Y010643D01*
X011639Y010879D01*
X011639Y012060D01*
X011572Y012223D01*
X011447Y012347D01*
X011284Y012415D01*
X011108Y012415D01*
X010945Y012347D01*
X010821Y012223D01*
X010753Y012060D01*
X010753Y009403D01*
X010821Y009241D01*
X010945Y009116D01*
X011108Y009049D01*
X014572Y009049D01*
X014572Y008183D01*
X014639Y008020D01*
X014764Y007896D01*
X014673Y007987D02*
X011373Y007987D01*
X011418Y008084D02*
X014613Y008084D01*
X014573Y008181D02*
X011442Y008181D01*
X011427Y008278D02*
X014572Y008278D01*
X014572Y008375D02*
X011362Y008375D01*
X011196Y008192D02*
X011196Y007169D01*
X010999Y007018D02*
X003686Y007018D01*
X003686Y007115D02*
X010952Y007115D01*
X010950Y007212D02*
X003686Y007212D01*
X003686Y007309D02*
X010988Y007309D01*
X011019Y007405D02*
X003686Y007405D01*
X003686Y007502D02*
X011019Y007502D01*
X011019Y007599D02*
X003686Y007599D01*
X003686Y007696D02*
X011019Y007696D01*
X011019Y007793D02*
X003686Y007793D01*
X003686Y007890D02*
X011019Y007890D01*
X011019Y007987D02*
X007214Y007987D01*
X007190Y007962D02*
X007292Y008065D01*
X007348Y008199D01*
X007348Y008343D01*
X007292Y008477D01*
X007190Y008580D01*
X007056Y008635D01*
X006439Y008635D01*
X006305Y008580D01*
X006202Y008477D01*
X006147Y008343D01*
X006147Y008199D01*
X006202Y008065D01*
X006305Y007962D01*
X006439Y007907D01*
X007056Y007907D01*
X007190Y007962D01*
X007300Y008084D02*
X010975Y008084D01*
X010950Y008181D02*
X007340Y008181D01*
X007348Y008278D02*
X010965Y008278D01*
X011031Y008375D02*
X007335Y008375D01*
X007295Y008472D02*
X014572Y008472D01*
X014572Y008569D02*
X007201Y008569D01*
X007152Y008803D02*
X007092Y008791D01*
X007062Y008791D01*
X007062Y009098D01*
X007062Y009404D01*
X007032Y009404D01*
X006973Y009393D01*
X006917Y009370D01*
X006867Y009336D01*
X006875Y009356D01*
X006875Y009470D01*
X006846Y009540D01*
X006901Y009486D01*
X007005Y009442D01*
X007119Y009442D01*
X007224Y009486D01*
X007304Y009566D01*
X007348Y009671D01*
X007348Y009784D01*
X007304Y009889D01*
X007224Y009970D01*
X007119Y010013D01*
X007005Y010013D01*
X006901Y009970D01*
X006846Y009915D01*
X006875Y009986D01*
X006875Y010099D01*
X006846Y010170D01*
X006901Y010116D01*
X007005Y010072D01*
X007119Y010072D01*
X007224Y010116D01*
X007304Y010196D01*
X007348Y010301D01*
X007348Y010414D01*
X007304Y010519D01*
X007224Y010600D01*
X007119Y010643D01*
X007005Y010643D01*
X006901Y010600D01*
X006820Y010519D01*
X006777Y010414D01*
X006777Y010301D01*
X006806Y010230D01*
X006751Y010285D01*
X006647Y010328D01*
X006533Y010328D01*
X006428Y010285D01*
X006348Y010204D01*
X006304Y010099D01*
X006304Y009986D01*
X006348Y009881D01*
X006428Y009801D01*
X006533Y009757D01*
X006647Y009757D01*
X006751Y009801D01*
X006806Y009855D01*
X006777Y009784D01*
X006777Y009671D01*
X006806Y009600D01*
X006751Y009655D01*
X006647Y009698D01*
X006533Y009698D01*
X006428Y009655D01*
X006348Y009574D01*
X006304Y009470D01*
X006304Y009356D01*
X006348Y009251D01*
X006428Y009171D01*
X006533Y009127D01*
X006647Y009127D01*
X006751Y009171D01*
X006767Y009186D01*
X006756Y009128D01*
X006756Y009098D01*
X007062Y009098D01*
X007062Y009098D01*
X007062Y009098D01*
X007062Y009404D01*
X007092Y009404D01*
X007152Y009393D01*
X007207Y009370D01*
X007258Y009336D01*
X007300Y009293D01*
X007334Y009243D01*
X007357Y009187D01*
X007369Y009128D01*
X007369Y009098D01*
X007062Y009098D01*
X006756Y009098D01*
X006756Y009068D01*
X006767Y009008D01*
X006790Y008953D01*
X006824Y008902D01*
X006867Y008860D01*
X006917Y008826D01*
X006973Y008803D01*
X007032Y008791D01*
X007062Y008791D01*
X007062Y009098D01*
X007062Y009098D01*
X007062Y009098D01*
X007369Y009098D01*
X007369Y009068D01*
X007357Y009008D01*
X007334Y008953D01*
X007300Y008902D01*
X007258Y008860D01*
X007207Y008826D01*
X007152Y008803D01*
X007062Y008859D02*
X007062Y008859D01*
X007062Y008956D02*
X007062Y008956D01*
X007062Y009053D02*
X007062Y009053D01*
X007062Y009150D02*
X007062Y009150D01*
X007062Y009247D02*
X007062Y009247D01*
X007062Y009344D02*
X007062Y009344D01*
X006879Y009344D02*
X006870Y009344D01*
X006875Y009441D02*
X010753Y009441D01*
X010753Y009538D02*
X007276Y009538D01*
X007333Y009635D02*
X010753Y009635D01*
X010753Y009732D02*
X007348Y009732D01*
X007329Y009829D02*
X010753Y009829D01*
X010753Y009925D02*
X007268Y009925D01*
X007228Y010119D02*
X010753Y010119D01*
X010753Y010022D02*
X006875Y010022D01*
X006867Y010119D02*
X006897Y010119D01*
X006856Y009925D02*
X006850Y009925D01*
X006795Y009829D02*
X006779Y009829D01*
X006777Y009732D02*
X003686Y009732D01*
X003686Y009829D02*
X006400Y009829D01*
X006329Y009925D02*
X003686Y009925D01*
X003686Y010022D02*
X006304Y010022D01*
X006313Y010119D02*
X003686Y010119D01*
X003686Y010216D02*
X006360Y010216D01*
X006497Y010313D02*
X003686Y010313D01*
X003686Y010410D02*
X006777Y010410D01*
X006777Y010313D02*
X006683Y010313D01*
X006815Y010507D02*
X003686Y010507D01*
X003686Y010604D02*
X006911Y010604D01*
X007056Y010820D02*
X007190Y010876D01*
X007292Y010978D01*
X007348Y011112D01*
X007348Y011257D01*
X007292Y011391D01*
X007190Y011493D01*
X007056Y011549D01*
X006439Y011549D01*
X006305Y011493D01*
X006202Y011391D01*
X006147Y011257D01*
X006147Y011112D01*
X006202Y010978D01*
X006305Y010876D01*
X006439Y010820D01*
X007056Y010820D01*
X007209Y010895D02*
X010753Y010895D01*
X010753Y010992D02*
X007298Y010992D01*
X007338Y011089D02*
X010753Y011089D01*
X010753Y011186D02*
X007348Y011186D01*
X007337Y011282D02*
X010753Y011282D01*
X010753Y011379D02*
X007297Y011379D01*
X007207Y011476D02*
X010753Y011476D01*
X010753Y011573D02*
X003686Y011573D01*
X003686Y011476D02*
X004398Y011476D01*
X004415Y011493D02*
X004313Y011391D01*
X004257Y011257D01*
X004257Y011112D01*
X004313Y010978D01*
X004415Y010876D01*
X004549Y010820D01*
X005166Y010820D01*
X005300Y010876D01*
X005402Y010978D01*
X005458Y011112D01*
X005458Y011257D01*
X005402Y011391D01*
X005300Y011493D01*
X005166Y011549D01*
X004549Y011549D01*
X004415Y011493D01*
X004308Y011379D02*
X003686Y011379D01*
X003686Y011282D02*
X004268Y011282D01*
X004257Y011186D02*
X003686Y011186D01*
X003686Y011089D02*
X004267Y011089D01*
X004307Y010992D02*
X003686Y010992D01*
X003686Y010895D02*
X004396Y010895D01*
X003686Y010798D02*
X010753Y010798D01*
X010753Y010701D02*
X003686Y010701D01*
X003686Y011670D02*
X010753Y011670D01*
X010753Y011767D02*
X003686Y011767D01*
X003686Y011864D02*
X010753Y011864D01*
X010753Y011961D02*
X003686Y011961D01*
X003686Y012058D02*
X010753Y012058D01*
X010792Y012155D02*
X003686Y012155D01*
X003686Y012252D02*
X010850Y012252D01*
X010948Y012349D02*
X003686Y012349D01*
X003686Y012446D02*
X012328Y012446D01*
X012328Y012435D02*
X012365Y012344D01*
X012435Y012275D01*
X012525Y012238D01*
X012623Y012238D01*
X012713Y012275D01*
X012783Y012344D01*
X012820Y012435D01*
X012820Y012479D01*
X014026Y013685D01*
X015753Y013697D01*
X015527Y013471D01*
X015527Y013071D01*
X015809Y012789D01*
X016209Y012789D01*
X016491Y013071D01*
X016491Y013471D01*
X016261Y013701D01*
X018241Y013715D01*
X018006Y013480D01*
X018006Y013320D01*
X018460Y013320D01*
X018460Y013222D01*
X018006Y013222D01*
X018006Y013062D01*
X018300Y012767D01*
X018460Y012767D01*
X018460Y013222D01*
X018558Y013222D01*
X018558Y012767D01*
X018718Y012767D01*
X019013Y013062D01*
X019013Y013222D01*
X018558Y013222D01*
X018558Y013320D01*
X019013Y013320D01*
X019013Y013480D01*
X018774Y013718D01*
X019470Y013723D01*
X020428Y012765D01*
X020428Y011473D01*
X020397Y011442D01*
X020359Y011351D01*
X020359Y011254D01*
X020397Y011163D01*
X020466Y011094D01*
X020557Y011056D01*
X020654Y011056D01*
X020745Y011094D01*
X020814Y011163D01*
X020852Y011254D01*
X020852Y011351D01*
X020814Y011442D01*
X020783Y011473D01*
X020783Y012911D01*
X020679Y013015D01*
X019719Y013975D01*
X019719Y013976D01*
X019667Y014027D01*
X019616Y014078D01*
X019615Y014078D01*
X019615Y014079D01*
X019542Y014078D01*
X019469Y014078D01*
X019469Y014078D01*
X013951Y014039D01*
X013879Y014039D01*
X013878Y014038D01*
X013877Y014038D01*
X013826Y013986D01*
X012570Y012730D01*
X012525Y012730D01*
X012435Y012692D01*
X012365Y012623D01*
X012328Y012533D01*
X012328Y012435D01*
X012364Y012349D02*
X011444Y012349D01*
X011543Y012252D02*
X012491Y012252D01*
X012657Y012252D02*
X020428Y012252D01*
X020428Y012349D02*
X012784Y012349D01*
X012820Y012446D02*
X020428Y012446D01*
X020428Y012542D02*
X012883Y012542D01*
X012980Y012639D02*
X020428Y012639D01*
X020428Y012736D02*
X013077Y012736D01*
X013174Y012833D02*
X015765Y012833D01*
X015668Y012930D02*
X013271Y012930D01*
X013368Y013027D02*
X015571Y013027D01*
X015527Y013124D02*
X013465Y013124D01*
X013562Y013221D02*
X015527Y013221D01*
X015527Y013318D02*
X013659Y013318D01*
X013756Y013415D02*
X015527Y013415D01*
X015568Y013512D02*
X013853Y013512D01*
X013950Y013609D02*
X015665Y013609D01*
X016353Y013609D02*
X018135Y013609D01*
X018232Y013706D02*
X016962Y013706D01*
X016450Y013512D02*
X018038Y013512D01*
X018006Y013415D02*
X016491Y013415D01*
X016491Y013318D02*
X018460Y013318D01*
X018460Y013221D02*
X018558Y013221D01*
X018558Y013318D02*
X019875Y013318D01*
X019778Y013415D02*
X019013Y013415D01*
X018980Y013512D02*
X019681Y013512D01*
X019584Y013609D02*
X018884Y013609D01*
X018787Y013706D02*
X019487Y013706D01*
X019543Y013901D02*
X020606Y012838D01*
X020606Y011302D01*
X020852Y011282D02*
X022958Y011282D01*
X022958Y011186D02*
X020823Y011186D01*
X020732Y011089D02*
X022958Y011089D01*
X022958Y010992D02*
X018910Y010992D01*
X018813Y010895D02*
X022958Y010895D01*
X022958Y010798D02*
X011639Y010798D01*
X011639Y010895D02*
X015735Y010895D01*
X015809Y010820D02*
X015527Y011103D01*
X015527Y011502D01*
X015809Y011785D01*
X016209Y011785D01*
X016491Y011502D01*
X016491Y011103D01*
X016209Y010820D01*
X015809Y010820D01*
X015638Y010992D02*
X011639Y010992D01*
X011639Y011089D02*
X015541Y011089D01*
X015527Y011186D02*
X011639Y011186D01*
X011639Y011282D02*
X015527Y011282D01*
X015527Y011379D02*
X011639Y011379D01*
X011639Y011476D02*
X015527Y011476D01*
X015598Y011573D02*
X011639Y011573D01*
X011639Y011670D02*
X015695Y011670D01*
X015792Y011767D02*
X011639Y011767D01*
X011639Y011864D02*
X020428Y011864D01*
X020428Y011961D02*
X011639Y011961D01*
X011639Y012058D02*
X020428Y012058D01*
X020428Y012155D02*
X011600Y012155D01*
X012332Y012542D02*
X003686Y012542D01*
X003686Y012639D02*
X012382Y012639D01*
X012576Y012736D02*
X003686Y012736D01*
X003686Y012833D02*
X007861Y012833D01*
X007926Y012767D02*
X007632Y013062D01*
X007632Y013222D01*
X008086Y013222D01*
X008086Y013320D01*
X007632Y013320D01*
X007632Y013480D01*
X007926Y013775D01*
X008086Y013775D01*
X008086Y013320D01*
X008184Y013320D01*
X008184Y013775D01*
X008344Y013775D01*
X008639Y013480D01*
X008639Y013320D01*
X008184Y013320D01*
X008184Y013222D01*
X008184Y012767D01*
X008344Y012767D01*
X008639Y013062D01*
X008639Y013222D01*
X008184Y013222D01*
X008086Y013222D01*
X008086Y012767D01*
X007926Y012767D01*
X008086Y012833D02*
X008184Y012833D01*
X008184Y012930D02*
X008086Y012930D01*
X008086Y013027D02*
X008184Y013027D01*
X008184Y013124D02*
X008086Y013124D01*
X008086Y013221D02*
X008184Y013221D01*
X008184Y013318D02*
X010153Y013318D01*
X010153Y013415D02*
X008639Y013415D01*
X008606Y013512D02*
X010194Y013512D01*
X010153Y013471D02*
X010153Y013071D01*
X010435Y012789D01*
X010835Y012789D01*
X011117Y013071D01*
X011117Y013471D01*
X010835Y013753D01*
X010435Y013753D01*
X010153Y013471D01*
X010291Y013609D02*
X008510Y013609D01*
X008413Y013706D02*
X010388Y013706D01*
X010883Y013706D02*
X013545Y013706D01*
X013449Y013609D02*
X010979Y013609D01*
X011076Y013512D02*
X013352Y013512D01*
X013255Y013415D02*
X011117Y013415D01*
X011117Y013318D02*
X013158Y013318D01*
X013061Y013221D02*
X011117Y013221D01*
X011117Y013124D02*
X012964Y013124D01*
X012867Y013027D02*
X011073Y013027D01*
X010976Y012930D02*
X012770Y012930D01*
X012673Y012833D02*
X010879Y012833D01*
X010391Y012833D02*
X008409Y012833D01*
X008506Y012930D02*
X010294Y012930D01*
X010197Y013027D02*
X008603Y013027D01*
X008639Y013124D02*
X010153Y013124D01*
X010153Y013221D02*
X008639Y013221D01*
X008184Y013415D02*
X008086Y013415D01*
X008086Y013512D02*
X008184Y013512D01*
X008184Y013609D02*
X008086Y013609D01*
X008086Y013706D02*
X008184Y013706D01*
X007858Y013706D02*
X006243Y013706D01*
X006279Y013803D02*
X013642Y013803D01*
X013739Y013899D02*
X006316Y013899D01*
X006335Y013996D02*
X013836Y013996D01*
X013952Y013862D02*
X019543Y013901D01*
X019698Y013996D02*
X020310Y013996D01*
X020329Y013899D02*
X019795Y013899D01*
X019891Y013803D02*
X020365Y013803D01*
X020401Y013706D02*
X019988Y013706D01*
X020085Y013609D02*
X020455Y013609D01*
X020508Y013512D02*
X020182Y013512D01*
X020279Y013415D02*
X020583Y013415D01*
X020680Y013318D02*
X020376Y013318D01*
X020473Y013221D02*
X020792Y013221D01*
X020936Y013124D02*
X020570Y013124D01*
X020667Y013027D02*
X021145Y013027D01*
X020783Y012833D02*
X022958Y012833D01*
X022958Y012736D02*
X020783Y012736D01*
X020783Y012639D02*
X022958Y012639D01*
X022958Y012542D02*
X020783Y012542D01*
X020783Y012446D02*
X022958Y012446D01*
X022958Y012349D02*
X020783Y012349D01*
X020783Y012252D02*
X022958Y012252D01*
X022958Y012155D02*
X020783Y012155D01*
X020783Y012058D02*
X022958Y012058D01*
X022958Y011961D02*
X020783Y011961D01*
X020783Y011864D02*
X022958Y011864D01*
X022958Y011767D02*
X020783Y011767D01*
X020783Y011670D02*
X022958Y011670D01*
X022958Y011573D02*
X020783Y011573D01*
X020783Y011476D02*
X022958Y011476D01*
X022958Y011379D02*
X020840Y011379D01*
X020428Y011476D02*
X019013Y011476D01*
X019013Y011511D02*
X018718Y011806D01*
X018558Y011806D01*
X018558Y011352D01*
X018460Y011352D01*
X018460Y011806D01*
X018300Y011806D01*
X018006Y011511D01*
X018006Y011352D01*
X018460Y011352D01*
X018460Y011253D01*
X018558Y011253D01*
X018558Y010799D01*
X018718Y010799D01*
X019013Y011094D01*
X019013Y011253D01*
X018558Y011253D01*
X018558Y011352D01*
X019013Y011352D01*
X019013Y011511D01*
X018950Y011573D02*
X020428Y011573D01*
X020428Y011670D02*
X018854Y011670D01*
X018757Y011767D02*
X020428Y011767D01*
X020371Y011379D02*
X019013Y011379D01*
X019013Y011186D02*
X020388Y011186D01*
X020359Y011282D02*
X018558Y011282D01*
X018558Y011186D02*
X018460Y011186D01*
X018460Y011253D02*
X018460Y010799D01*
X018300Y010799D01*
X018006Y011094D01*
X018006Y011253D01*
X018460Y011253D01*
X018460Y011282D02*
X016491Y011282D01*
X016491Y011186D02*
X018006Y011186D01*
X018011Y011089D02*
X016477Y011089D01*
X016380Y010992D02*
X018108Y010992D01*
X018205Y010895D02*
X016283Y010895D01*
X016491Y011379D02*
X018006Y011379D01*
X018006Y011476D02*
X016491Y011476D01*
X016420Y011573D02*
X018068Y011573D01*
X018165Y011670D02*
X016323Y011670D01*
X016227Y011767D02*
X018262Y011767D01*
X018460Y011767D02*
X018558Y011767D01*
X018558Y011670D02*
X018460Y011670D01*
X018460Y011573D02*
X018558Y011573D01*
X018558Y011476D02*
X018460Y011476D01*
X018460Y011379D02*
X018558Y011379D01*
X018558Y011089D02*
X018460Y011089D01*
X018460Y010992D02*
X018558Y010992D01*
X018558Y010895D02*
X018460Y010895D01*
X018667Y010446D02*
X018576Y010409D01*
X018507Y010340D01*
X018470Y010249D01*
X018470Y010205D01*
X018160Y009895D01*
X018116Y009895D01*
X018025Y009858D01*
X017956Y009788D01*
X017919Y009698D01*
X017919Y009600D01*
X017923Y009590D01*
X017824Y009590D01*
X017792Y009621D01*
X017702Y009659D01*
X017604Y009659D01*
X017513Y009621D01*
X017444Y009552D01*
X017407Y009462D01*
X017407Y009364D01*
X017411Y009354D01*
X017233Y009354D01*
X017202Y009385D01*
X017111Y009423D01*
X017013Y009423D01*
X016923Y009385D01*
X016854Y009316D01*
X016816Y009225D01*
X016816Y009128D01*
X016854Y009037D01*
X016923Y008968D01*
X017013Y008930D01*
X017111Y008930D01*
X017202Y008968D01*
X017233Y008999D01*
X018395Y008999D01*
X018499Y009103D01*
X018671Y009275D01*
X019726Y009275D01*
X019757Y009244D01*
X019848Y009206D01*
X019946Y009206D01*
X020036Y009244D01*
X020105Y009313D01*
X020143Y009403D01*
X020143Y009482D01*
X020233Y009519D01*
X020302Y009588D01*
X020340Y009679D01*
X020340Y009777D01*
X020302Y009867D01*
X020233Y009936D01*
X020143Y009974D01*
X020045Y009974D01*
X019954Y009936D01*
X019885Y009867D01*
X019884Y009865D01*
X018632Y009865D01*
X018720Y009954D01*
X018765Y009954D01*
X018855Y009992D01*
X018924Y010061D01*
X018962Y010151D01*
X018962Y010249D01*
X018924Y010340D01*
X018855Y010409D01*
X018765Y010446D01*
X018667Y010446D01*
X018580Y010410D02*
X011639Y010410D01*
X011639Y010313D02*
X018496Y010313D01*
X018470Y010216D02*
X011639Y010216D01*
X011639Y010119D02*
X018384Y010119D01*
X018287Y010022D02*
X011639Y010022D01*
X011639Y010507D02*
X022958Y010507D01*
X022958Y010410D02*
X018852Y010410D01*
X018935Y010313D02*
X022958Y010313D01*
X022958Y010216D02*
X018962Y010216D01*
X018949Y010119D02*
X022958Y010119D01*
X022958Y010022D02*
X018886Y010022D01*
X018692Y009925D02*
X019944Y009925D01*
X020094Y009728D02*
X020054Y009688D01*
X018558Y009688D01*
X018283Y009413D01*
X017653Y009413D01*
X017407Y009441D02*
X015458Y009441D01*
X015458Y009538D02*
X017438Y009538D01*
X017546Y009635D02*
X015435Y009635D01*
X015395Y009732D02*
X017932Y009732D01*
X017919Y009635D02*
X017760Y009635D01*
X017996Y009829D02*
X015304Y009829D01*
X015125Y009925D02*
X018191Y009925D01*
X018165Y009649D02*
X018716Y010200D01*
X018598Y009452D02*
X018322Y009177D01*
X017062Y009177D01*
X016882Y009344D02*
X015458Y009344D01*
X015458Y009247D02*
X016825Y009247D01*
X016816Y009150D02*
X015458Y009150D01*
X015458Y009053D02*
X016847Y009053D01*
X016951Y008956D02*
X015458Y008956D01*
X015458Y008859D02*
X021160Y008859D01*
X021147Y008956D02*
X017173Y008956D01*
X018449Y009053D02*
X021173Y009053D01*
X021256Y009150D02*
X018546Y009150D01*
X018643Y009247D02*
X019754Y009247D01*
X019897Y009452D02*
X018598Y009452D01*
X019649Y008762D02*
X015458Y008762D01*
X014572Y008762D02*
X003686Y008762D01*
X003686Y008665D02*
X014572Y008665D01*
X014572Y008859D02*
X007257Y008859D01*
X007336Y008956D02*
X014572Y008956D01*
X011639Y010604D02*
X022958Y010604D01*
X022958Y010701D02*
X011639Y010701D01*
X010753Y010604D02*
X007213Y010604D01*
X007309Y010507D02*
X010753Y010507D01*
X010753Y010410D02*
X007348Y010410D01*
X007348Y010313D02*
X010753Y010313D01*
X010753Y010216D02*
X007313Y010216D01*
X006792Y009635D02*
X006771Y009635D01*
X006847Y009538D02*
X006848Y009538D01*
X007246Y009344D02*
X010778Y009344D01*
X010818Y009247D02*
X007331Y009247D01*
X007365Y009150D02*
X010911Y009150D01*
X011097Y009053D02*
X007366Y009053D01*
X006867Y008859D02*
X003686Y008859D01*
X003686Y008956D02*
X006789Y008956D01*
X006758Y009053D02*
X003686Y009053D01*
X003686Y009150D02*
X006478Y009150D01*
X006352Y009247D02*
X003686Y009247D01*
X003686Y009344D02*
X006309Y009344D01*
X006304Y009441D02*
X003686Y009441D01*
X003686Y009538D02*
X006333Y009538D01*
X006408Y009635D02*
X003686Y009635D01*
X003686Y008569D02*
X004404Y008569D01*
X004415Y008580D02*
X004313Y008477D01*
X004257Y008343D01*
X004257Y008199D01*
X004313Y008065D01*
X004415Y007962D01*
X004549Y007907D01*
X005166Y007907D01*
X005300Y007962D01*
X005402Y008065D01*
X005458Y008199D01*
X005458Y008343D01*
X005402Y008477D01*
X005300Y008580D01*
X005166Y008635D01*
X004549Y008635D01*
X004415Y008580D01*
X004310Y008472D02*
X003686Y008472D01*
X003686Y008375D02*
X004270Y008375D01*
X004257Y008278D02*
X003686Y008278D01*
X003686Y008181D02*
X004264Y008181D01*
X004305Y008084D02*
X003686Y008084D01*
X003686Y007987D02*
X004390Y007987D01*
X005325Y007987D02*
X006280Y007987D01*
X006194Y008084D02*
X005410Y008084D01*
X005451Y008181D02*
X006154Y008181D01*
X006147Y008278D02*
X005458Y008278D01*
X005445Y008375D02*
X006160Y008375D01*
X006200Y008472D02*
X005405Y008472D01*
X005311Y008569D02*
X006294Y008569D01*
X006702Y009150D02*
X006760Y009150D01*
X006286Y010895D02*
X005319Y010895D01*
X005408Y010992D02*
X006197Y010992D01*
X006157Y011089D02*
X005448Y011089D01*
X005458Y011186D02*
X006147Y011186D01*
X006157Y011282D02*
X005447Y011282D01*
X005407Y011379D02*
X006198Y011379D01*
X006288Y011476D02*
X005317Y011476D01*
X005499Y013027D02*
X007667Y013027D01*
X007632Y013124D02*
X005708Y013124D01*
X005852Y013221D02*
X007632Y013221D01*
X007632Y013415D02*
X006061Y013415D01*
X006136Y013512D02*
X007664Y013512D01*
X007761Y013609D02*
X006189Y013609D01*
X005964Y013318D02*
X008086Y013318D01*
X007764Y012930D02*
X003686Y012930D01*
X006356Y014093D02*
X020288Y014093D01*
X020285Y014190D02*
X006359Y014190D01*
X006366Y014287D02*
X020278Y014287D01*
X020281Y014384D02*
X006363Y014384D01*
X006363Y014481D02*
X020281Y014481D01*
X020281Y014578D02*
X006363Y014578D01*
X006363Y014675D02*
X020281Y014675D01*
X020281Y014772D02*
X006363Y014772D01*
X006363Y014869D02*
X020281Y014869D01*
X020281Y014966D02*
X006363Y014966D01*
X006363Y015063D02*
X020281Y015063D01*
X020281Y015159D02*
X006363Y015159D01*
X006363Y015256D02*
X020281Y015256D01*
X020281Y015353D02*
X006363Y015353D01*
X006363Y015450D02*
X020281Y015450D01*
X020281Y015547D02*
X006363Y015547D01*
X012574Y012484D02*
X013952Y013862D01*
X016253Y012833D02*
X018235Y012833D01*
X018138Y012930D02*
X016350Y012930D01*
X016447Y013027D02*
X018041Y013027D01*
X018006Y013124D02*
X016491Y013124D01*
X016491Y013221D02*
X018006Y013221D01*
X018460Y013124D02*
X018558Y013124D01*
X018558Y013027D02*
X018460Y013027D01*
X018460Y012930D02*
X018558Y012930D01*
X018558Y012833D02*
X018460Y012833D01*
X018783Y012833D02*
X020360Y012833D01*
X020263Y012930D02*
X018880Y012930D01*
X018977Y013027D02*
X020166Y013027D01*
X020069Y013124D02*
X019013Y013124D01*
X019013Y013221D02*
X019972Y013221D01*
X020764Y012930D02*
X022958Y012930D01*
X020479Y011089D02*
X019007Y011089D01*
X020244Y009925D02*
X022958Y009925D01*
X022958Y009829D02*
X020318Y009829D01*
X020340Y009732D02*
X022958Y009732D01*
X022958Y009635D02*
X020322Y009635D01*
X020252Y009538D02*
X022958Y009538D01*
X022958Y009441D02*
X020143Y009441D01*
X020118Y009344D02*
X022958Y009344D01*
X022958Y009247D02*
X020040Y009247D01*
X020066Y008762D02*
X021201Y008762D01*
X021104Y008665D02*
X020180Y008665D01*
X020220Y008569D02*
X021098Y008569D01*
X021098Y008472D02*
X020222Y008472D01*
X020222Y008375D02*
X021098Y008375D01*
X021098Y008278D02*
X020222Y008278D01*
X020221Y008181D02*
X021098Y008181D01*
X021098Y008084D02*
X020181Y008084D01*
X020121Y007987D02*
X021098Y007987D01*
X021098Y007890D02*
X020016Y007890D01*
X021275Y008586D02*
X021275Y007090D01*
X021078Y006893D01*
X020909Y006893D01*
X021162Y006727D02*
X022958Y006727D01*
X022958Y006824D02*
X021259Y006824D01*
X021356Y006921D02*
X022958Y006921D01*
X022958Y007018D02*
X021452Y007018D01*
X021452Y007115D02*
X022958Y007115D01*
X022958Y007212D02*
X021452Y007212D01*
X021452Y007309D02*
X022958Y007309D01*
X022958Y007405D02*
X021452Y007405D01*
X021452Y007502D02*
X022958Y007502D01*
X022958Y007599D02*
X021452Y007599D01*
X021452Y007696D02*
X022958Y007696D01*
X022958Y007793D02*
X021452Y007793D01*
X021452Y007890D02*
X022958Y007890D01*
X022958Y007987D02*
X021452Y007987D01*
X021452Y008084D02*
X022958Y008084D01*
X022958Y008181D02*
X021452Y008181D01*
X021452Y008278D02*
X022958Y008278D01*
X022958Y008375D02*
X021452Y008375D01*
X021452Y008472D02*
X022958Y008472D01*
X022958Y008569D02*
X021508Y008569D01*
X021570Y008665D02*
X022958Y008665D01*
X022958Y008762D02*
X021570Y008762D01*
X021626Y008859D02*
X022958Y008859D01*
X022958Y008956D02*
X021639Y008956D01*
X021613Y009053D02*
X022958Y009053D01*
X022958Y009150D02*
X021529Y009150D01*
X021393Y008940D02*
X021393Y008704D01*
X021275Y008586D01*
X017871Y004595D02*
X017773Y004595D01*
X017773Y004498D02*
X017871Y004498D01*
X017871Y004401D02*
X017773Y004401D01*
X017599Y004401D02*
X017015Y004401D01*
X017112Y004498D02*
X017502Y004498D01*
X017405Y004595D02*
X017209Y004595D01*
X020281Y004304D02*
X006363Y004304D01*
X006363Y004207D02*
X020281Y004207D01*
X020281Y004110D02*
X006363Y004110D01*
X006363Y004013D02*
X020281Y004013D01*
X020281Y003916D02*
X006363Y003916D01*
D16*
X013322Y007838D03*
D17*
X015015Y008271D02*
X019779Y008271D01*
X015015Y008271D02*
X015015Y009491D01*
X014464Y009491D01*
X013913Y009491D01*
X012692Y009491D01*
X012141Y009491D01*
X011669Y009491D01*
X011196Y009491D01*
X011196Y010554D01*
X011196Y010791D01*
X011196Y011972D01*
D18*
X011196Y012129D01*
X015015Y008271D02*
X015015Y008114D01*
X019779Y008271D02*
X019936Y008271D01*
X019936Y008507D01*
X019779Y008507D01*
M02*
