G75*
%MOIN*%
%OFA0B0*%
%FSLAX24Y24*%
%IPPOS*%
%LPD*%
%AMOC8*
5,1,8,0,0,1.08239X$1,22.5*
%
%ADD10C,0.0080*%
%ADD11C,0.0079*%
%ADD12C,0.0157*%
D10*
X008708Y006316D02*
X008708Y006525D01*
X008761Y006578D01*
X008865Y006578D01*
X008918Y006525D01*
X009071Y006578D02*
X009280Y006578D01*
X009280Y006525D01*
X009071Y006316D01*
X009071Y006264D01*
X008918Y006316D02*
X008865Y006264D01*
X008761Y006264D01*
X008708Y006316D01*
X009472Y006264D02*
X009472Y006578D01*
X009629Y006578D01*
X009681Y006525D01*
X009681Y006421D01*
X009629Y006368D01*
X009472Y006368D01*
X009576Y006368D02*
X009681Y006264D01*
X009834Y006264D02*
X010044Y006264D01*
X009939Y006264D02*
X009939Y006578D01*
X009834Y006473D01*
X010197Y006525D02*
X010197Y006316D01*
X010406Y006525D01*
X010406Y006316D01*
X010354Y006264D01*
X010249Y006264D01*
X010197Y006316D01*
X010197Y006525D02*
X010249Y006578D01*
X010354Y006578D01*
X010406Y006525D01*
X010054Y007248D02*
X009950Y007248D01*
X009897Y007300D01*
X010002Y007405D02*
X010054Y007405D01*
X010107Y007353D01*
X010107Y007300D01*
X010054Y007248D01*
X010054Y007405D02*
X010107Y007457D01*
X010107Y007510D01*
X010054Y007562D01*
X009950Y007562D01*
X009897Y007510D01*
X009744Y007510D02*
X009744Y007405D01*
X009692Y007353D01*
X009535Y007353D01*
X009640Y007353D02*
X009744Y007248D01*
X009535Y007248D02*
X009535Y007562D01*
X009692Y007562D01*
X009744Y007510D01*
X009744Y007720D02*
X009640Y007825D01*
X009692Y007825D02*
X009535Y007825D01*
X009535Y007720D02*
X009535Y008034D01*
X009692Y008034D01*
X009744Y007982D01*
X009744Y007877D01*
X009692Y007825D01*
X009897Y007720D02*
X010107Y007930D01*
X010107Y007982D01*
X010054Y008034D01*
X009950Y008034D01*
X009897Y007982D01*
X009913Y008193D02*
X010122Y008193D01*
X010018Y008193D02*
X010018Y008507D01*
X009913Y008402D01*
X009760Y008455D02*
X009708Y008507D01*
X009603Y008507D01*
X009551Y008455D01*
X009551Y008245D01*
X009603Y008193D01*
X009708Y008193D01*
X009760Y008245D01*
X010276Y008245D02*
X010485Y008455D01*
X010485Y008245D01*
X010433Y008193D01*
X010328Y008193D01*
X010276Y008245D01*
X010276Y008455D01*
X010328Y008507D01*
X010433Y008507D01*
X010485Y008455D01*
X010614Y007798D02*
X010823Y007798D01*
X010718Y007798D02*
X010718Y007484D01*
X010976Y007484D02*
X010976Y007798D01*
X011133Y007798D01*
X011185Y007746D01*
X011185Y007641D01*
X011133Y007589D01*
X010976Y007589D01*
X011081Y007589D02*
X011185Y007484D01*
X011339Y007484D02*
X011548Y007484D01*
X011443Y007484D02*
X011443Y007798D01*
X011339Y007694D01*
X010107Y007720D02*
X009897Y007720D01*
X011346Y009020D02*
X011346Y009334D01*
X011503Y009334D01*
X011555Y009281D01*
X011555Y009177D01*
X011503Y009124D01*
X011346Y009124D01*
X011451Y009124D02*
X011555Y009020D01*
X011709Y009072D02*
X011761Y009020D01*
X011865Y009020D01*
X011918Y009072D01*
X011918Y009124D01*
X011865Y009177D01*
X011709Y009177D01*
X011709Y009072D01*
X011709Y009177D02*
X011813Y009281D01*
X011918Y009334D01*
X011818Y010476D02*
X011818Y010790D01*
X011975Y010790D01*
X012028Y010738D01*
X012028Y010633D01*
X011975Y010581D01*
X011818Y010581D01*
X011923Y010581D02*
X012028Y010476D01*
X012181Y010476D02*
X012390Y010476D01*
X012286Y010476D02*
X012286Y010790D01*
X012181Y010686D01*
X012606Y010738D02*
X012606Y010529D01*
X012658Y010476D01*
X012763Y010476D01*
X012815Y010529D01*
X012968Y010529D02*
X013021Y010476D01*
X013125Y010476D01*
X013178Y010529D01*
X013178Y010633D01*
X013125Y010686D01*
X013073Y010686D01*
X012968Y010633D01*
X012968Y010790D01*
X013178Y010790D01*
X013393Y010790D02*
X013550Y010790D01*
X013603Y010738D01*
X013603Y010633D01*
X013550Y010581D01*
X013393Y010581D01*
X013393Y010476D02*
X013393Y010790D01*
X013498Y010581D02*
X013603Y010476D01*
X013756Y010529D02*
X013756Y010581D01*
X013808Y010633D01*
X013913Y010633D01*
X013965Y010581D01*
X013965Y010529D01*
X013913Y010476D01*
X013808Y010476D01*
X013756Y010529D01*
X013808Y010633D02*
X013756Y010686D01*
X013756Y010738D01*
X013808Y010790D01*
X013913Y010790D01*
X013965Y010738D01*
X013965Y010686D01*
X013913Y010633D01*
X014141Y010581D02*
X014298Y010581D01*
X014351Y010633D01*
X014351Y010738D01*
X014298Y010790D01*
X014141Y010790D01*
X014141Y010476D01*
X014246Y010581D02*
X014351Y010476D01*
X014504Y010529D02*
X014556Y010476D01*
X014661Y010476D01*
X014713Y010529D01*
X014713Y010738D01*
X014661Y010790D01*
X014556Y010790D01*
X014504Y010738D01*
X014504Y010686D01*
X014556Y010633D01*
X014713Y010633D01*
X014889Y010581D02*
X015046Y010581D01*
X015099Y010633D01*
X015099Y010738D01*
X015046Y010790D01*
X014889Y010790D01*
X014889Y010476D01*
X014994Y010581D02*
X015099Y010476D01*
X015252Y010476D02*
X015252Y010529D01*
X015461Y010738D01*
X015461Y010790D01*
X015252Y010790D01*
X015344Y011776D02*
X015291Y011828D01*
X015291Y011880D01*
X015344Y011933D01*
X015448Y011933D01*
X015501Y011880D01*
X015501Y011828D01*
X015448Y011776D01*
X015344Y011776D01*
X015344Y011933D02*
X015291Y011985D01*
X015291Y012037D01*
X015344Y012090D01*
X015448Y012090D01*
X015501Y012037D01*
X015501Y011985D01*
X015448Y011933D01*
X015138Y012037D02*
X015086Y012090D01*
X014981Y012090D01*
X014929Y012037D01*
X014929Y011828D01*
X014981Y011776D01*
X015086Y011776D01*
X015138Y011828D01*
X016755Y012143D02*
X016808Y012091D01*
X016912Y012091D01*
X016965Y012143D01*
X016965Y012195D01*
X016912Y012248D01*
X016808Y012248D01*
X016755Y012300D01*
X016755Y012352D01*
X016808Y012404D01*
X016912Y012404D01*
X016965Y012352D01*
X017118Y012404D02*
X017118Y012091D01*
X017222Y012195D01*
X017327Y012091D01*
X017327Y012404D01*
X017480Y012352D02*
X017533Y012404D01*
X017637Y012404D01*
X017690Y012352D01*
X017690Y012300D01*
X017637Y012248D01*
X017690Y012195D01*
X017690Y012143D01*
X017637Y012091D01*
X017533Y012091D01*
X017480Y012143D01*
X017585Y012248D02*
X017637Y012248D01*
X017690Y014059D02*
X017480Y014059D01*
X017690Y014268D01*
X017690Y014321D01*
X017637Y014373D01*
X017533Y014373D01*
X017480Y014321D01*
X017327Y014373D02*
X017327Y014059D01*
X017222Y014164D01*
X017118Y014059D01*
X017118Y014373D01*
X016965Y014321D02*
X016912Y014373D01*
X016808Y014373D01*
X016755Y014321D01*
X016755Y014268D01*
X016808Y014216D01*
X016912Y014216D01*
X016965Y014164D01*
X016965Y014111D01*
X016912Y014059D01*
X016808Y014059D01*
X016755Y014111D01*
X016640Y014886D02*
X016535Y014886D01*
X016483Y014938D01*
X016483Y015043D01*
X016535Y015095D01*
X016640Y015095D01*
X016692Y015043D01*
X016692Y014990D01*
X016483Y014990D01*
X016346Y014886D02*
X016241Y014886D01*
X016293Y014886D02*
X016293Y015200D01*
X016241Y015200D01*
X016088Y015095D02*
X016088Y014886D01*
X015931Y014886D01*
X015879Y014938D01*
X015879Y015095D01*
X015725Y015095D02*
X015568Y015095D01*
X015516Y015043D01*
X015516Y014938D01*
X015568Y014886D01*
X015725Y014886D01*
X015725Y015200D01*
X015363Y015043D02*
X015363Y014938D01*
X015311Y014886D01*
X015206Y014886D01*
X015154Y014938D01*
X015154Y015043D01*
X015206Y015095D01*
X015311Y015095D01*
X015363Y015043D01*
X015000Y015043D02*
X015000Y014886D01*
X014896Y014886D02*
X014896Y015043D01*
X014948Y015095D01*
X015000Y015043D01*
X014896Y015043D02*
X014843Y015095D01*
X014791Y015095D01*
X014791Y014886D01*
X014275Y014886D02*
X014066Y014886D01*
X014066Y015200D01*
X014275Y015200D01*
X014171Y015043D02*
X014066Y015043D01*
X013913Y014886D02*
X013704Y014886D01*
X013704Y015200D01*
X013550Y015147D02*
X013550Y015095D01*
X013498Y015043D01*
X013341Y015043D01*
X013341Y015200D02*
X013498Y015200D01*
X013550Y015147D01*
X013498Y015043D02*
X013550Y014990D01*
X013550Y014938D01*
X013498Y014886D01*
X013341Y014886D01*
X013341Y015200D01*
X012825Y015200D02*
X012825Y015147D01*
X012616Y014938D01*
X012616Y014886D01*
X012825Y014886D01*
X012825Y015200D02*
X012616Y015200D01*
X012463Y015200D02*
X012463Y015147D01*
X012358Y015043D01*
X012358Y014886D01*
X012358Y015043D02*
X012253Y015147D01*
X012253Y015200D01*
X012100Y015200D02*
X012100Y015147D01*
X011891Y014938D01*
X011891Y014886D01*
X012100Y014886D01*
X012100Y015200D02*
X011891Y015200D01*
X011738Y015200D02*
X011738Y014886D01*
X011528Y015200D01*
X011528Y014886D01*
X011375Y014886D02*
X011375Y015200D01*
X011375Y015043D02*
X011166Y015043D01*
X011166Y014886D02*
X011166Y015200D01*
X011013Y015147D02*
X010960Y015200D01*
X010856Y015200D01*
X010803Y015147D01*
X010650Y015095D02*
X010650Y014886D01*
X010803Y014886D02*
X011013Y015095D01*
X011013Y015147D01*
X011013Y014886D02*
X010803Y014886D01*
X010650Y015043D02*
X010441Y015043D01*
X010441Y015095D02*
X010546Y015200D01*
X010650Y015095D01*
X010441Y015095D02*
X010441Y014886D01*
X010288Y014938D02*
X010235Y014886D01*
X010131Y014886D01*
X010078Y014938D01*
X010078Y015147D01*
X010131Y015200D01*
X010235Y015200D01*
X010288Y015147D01*
X009925Y015147D02*
X009925Y015095D01*
X009873Y015043D01*
X009716Y015043D01*
X009716Y015200D02*
X009873Y015200D01*
X009925Y015147D01*
X009873Y015043D02*
X009925Y014990D01*
X009925Y014938D01*
X009873Y014886D01*
X009716Y014886D01*
X009716Y015200D01*
X009563Y014886D02*
X009353Y014886D01*
X009353Y015200D01*
X008838Y015043D02*
X008838Y014886D01*
X008681Y014886D01*
X008628Y014938D01*
X008681Y014990D01*
X008838Y014990D01*
X008838Y015043D02*
X008785Y015095D01*
X008681Y015095D01*
X008491Y015095D02*
X008387Y015095D01*
X008439Y015147D02*
X008439Y014938D01*
X008491Y014886D01*
X008233Y014886D02*
X008233Y015043D01*
X008181Y015095D01*
X008076Y015095D01*
X008076Y014990D02*
X008233Y014990D01*
X008233Y014886D02*
X008076Y014886D01*
X008024Y014938D01*
X008076Y014990D01*
X007871Y015043D02*
X007819Y014990D01*
X007662Y014990D01*
X007662Y014886D02*
X007662Y015200D01*
X007819Y015200D01*
X007871Y015147D01*
X007871Y015043D01*
X007766Y014990D02*
X007871Y014886D01*
X007508Y014886D02*
X007508Y015095D01*
X007299Y015095D02*
X007299Y014938D01*
X007351Y014886D01*
X007508Y014886D01*
X007146Y014886D02*
X007146Y015043D01*
X007094Y015095D01*
X007041Y015043D01*
X007041Y014886D01*
X006937Y014886D02*
X006937Y015095D01*
X006989Y015095D01*
X007041Y015043D01*
X008881Y014360D02*
X008881Y014308D01*
X008934Y014255D01*
X009038Y014255D01*
X009091Y014203D01*
X009091Y014151D01*
X009038Y014098D01*
X008934Y014098D01*
X008881Y014151D01*
X008881Y014360D02*
X008934Y014412D01*
X009038Y014412D01*
X009091Y014360D01*
X009244Y014412D02*
X009244Y014098D01*
X009348Y014203D01*
X009453Y014098D01*
X009453Y014412D01*
X009606Y014308D02*
X009711Y014412D01*
X009711Y014098D01*
X009606Y014098D02*
X009816Y014098D01*
X011149Y013140D02*
X011149Y012930D01*
X011201Y012878D01*
X011306Y012878D01*
X011358Y012930D01*
X011512Y013035D02*
X011721Y013035D01*
X011669Y012878D02*
X011669Y013192D01*
X011512Y013035D01*
X011358Y013140D02*
X011306Y013192D01*
X011201Y013192D01*
X011149Y013140D01*
X012488Y013021D02*
X012488Y012812D01*
X012540Y012760D01*
X012645Y012760D01*
X012697Y012812D01*
X012697Y013021D01*
X012645Y013074D01*
X012540Y013074D01*
X012488Y013021D01*
X012592Y012864D02*
X012697Y012760D01*
X012850Y012760D02*
X013060Y012969D01*
X013060Y013021D01*
X013007Y013074D01*
X012903Y013074D01*
X012850Y013021D01*
X012850Y012760D02*
X013060Y012760D01*
X013406Y013311D02*
X013511Y013311D01*
X013563Y013363D01*
X013716Y013363D02*
X013769Y013311D01*
X013873Y013311D01*
X013926Y013363D01*
X013926Y013573D01*
X013873Y013625D01*
X013769Y013625D01*
X013716Y013573D01*
X013716Y013520D01*
X013769Y013468D01*
X013926Y013468D01*
X013563Y013573D02*
X013511Y013625D01*
X013406Y013625D01*
X013354Y013573D01*
X013354Y013363D01*
X013406Y013311D01*
X011724Y011801D02*
X011724Y011749D01*
X011671Y011696D01*
X011724Y011644D01*
X011724Y011592D01*
X011671Y011539D01*
X011567Y011539D01*
X011514Y011592D01*
X011619Y011696D02*
X011671Y011696D01*
X011724Y011801D02*
X011671Y011853D01*
X011567Y011853D01*
X011514Y011801D01*
X011361Y011801D02*
X011309Y011853D01*
X011204Y011853D01*
X011152Y011801D01*
X011152Y011592D01*
X011204Y011539D01*
X011309Y011539D01*
X011361Y011592D01*
X011015Y011539D02*
X010910Y011539D01*
X010963Y011539D02*
X010963Y011853D01*
X011015Y011853D02*
X010910Y011853D01*
X010842Y011302D02*
X010737Y011302D01*
X010685Y011250D01*
X010790Y011145D02*
X010842Y011145D01*
X010894Y011093D01*
X010894Y011040D01*
X010842Y010988D01*
X010737Y010988D01*
X010685Y011040D01*
X010532Y011040D02*
X010479Y010988D01*
X010375Y010988D01*
X010322Y011040D01*
X010322Y011250D01*
X010375Y011302D01*
X010479Y011302D01*
X010532Y011250D01*
X010842Y011302D02*
X010894Y011250D01*
X010894Y011197D01*
X010842Y011145D01*
X012606Y010738D02*
X012658Y010790D01*
X012763Y010790D01*
X012815Y010738D01*
X014690Y009019D02*
X014794Y009019D01*
X014742Y009019D02*
X014742Y008705D01*
X014690Y008705D02*
X014794Y008705D01*
X014931Y008757D02*
X014984Y008705D01*
X015088Y008705D01*
X015141Y008757D01*
X015294Y008705D02*
X015503Y008914D01*
X015503Y008966D01*
X015451Y009019D01*
X015346Y009019D01*
X015294Y008966D01*
X015141Y008966D02*
X015088Y009019D01*
X014984Y009019D01*
X014931Y008966D01*
X014931Y008757D01*
X015294Y008705D02*
X015503Y008705D01*
X015519Y008428D02*
X015414Y008428D01*
X015362Y008376D01*
X015362Y008166D01*
X015414Y008114D01*
X015519Y008114D01*
X015571Y008166D01*
X015724Y008166D02*
X015777Y008114D01*
X015881Y008114D01*
X015934Y008166D01*
X015934Y008219D01*
X015881Y008271D01*
X015724Y008271D01*
X015724Y008166D01*
X015724Y008271D02*
X015829Y008376D01*
X015934Y008428D01*
X015571Y008376D02*
X015519Y008428D01*
X016740Y009531D02*
X016740Y009845D01*
X016897Y009845D01*
X016949Y009793D01*
X016949Y009688D01*
X016897Y009636D01*
X016740Y009636D01*
X016844Y009636D02*
X016949Y009531D01*
X017102Y009688D02*
X017312Y009688D01*
X017259Y009531D02*
X017259Y009845D01*
X017102Y009688D01*
X017155Y010043D02*
X017102Y010096D01*
X017155Y010043D02*
X017259Y010043D01*
X017312Y010096D01*
X017312Y010200D01*
X017259Y010253D01*
X017207Y010253D01*
X017102Y010200D01*
X017102Y010357D01*
X017312Y010357D01*
X016949Y010305D02*
X016949Y010200D01*
X016897Y010148D01*
X016740Y010148D01*
X016844Y010148D02*
X016949Y010043D01*
X016740Y010043D02*
X016740Y010357D01*
X016897Y010357D01*
X016949Y010305D01*
X018629Y008888D02*
X018629Y008678D01*
X018682Y008626D01*
X018786Y008626D01*
X018839Y008678D01*
X018992Y008626D02*
X019201Y008835D01*
X019201Y008888D01*
X019149Y008940D01*
X019044Y008940D01*
X018992Y008888D01*
X018839Y008888D02*
X018786Y008940D01*
X018682Y008940D01*
X018629Y008888D01*
X018992Y008626D02*
X019201Y008626D01*
X019863Y007090D02*
X019968Y007090D01*
X020020Y007037D01*
X020020Y006828D01*
X019968Y006776D01*
X019863Y006776D01*
X019811Y006828D01*
X019811Y007037D01*
X019863Y007090D01*
X019915Y006880D02*
X020020Y006776D01*
X020173Y006776D02*
X020382Y006776D01*
X020278Y006776D02*
X020278Y007090D01*
X020173Y006985D01*
X020965Y011224D02*
X021070Y011224D01*
X021122Y011277D01*
X021122Y011538D01*
X021275Y011434D02*
X021380Y011538D01*
X021380Y011224D01*
X021275Y011224D02*
X021485Y011224D01*
X020965Y011224D02*
X020913Y011277D01*
X020913Y011538D01*
X019729Y014886D02*
X019677Y014938D01*
X019677Y015147D01*
X019625Y015095D02*
X019729Y015095D01*
X019471Y015095D02*
X019471Y014886D01*
X019314Y014886D01*
X019262Y014938D01*
X019262Y015095D01*
X019109Y015043D02*
X019109Y014938D01*
X019057Y014886D01*
X018952Y014886D01*
X018900Y014938D01*
X018900Y015043D01*
X018952Y015095D01*
X019057Y015095D01*
X019109Y015043D01*
X018754Y015095D02*
X018597Y014990D01*
X018754Y014886D01*
X018597Y014886D02*
X018597Y015200D01*
X018444Y015043D02*
X018444Y014886D01*
X018287Y014886D01*
X018235Y014938D01*
X018287Y014990D01*
X018444Y014990D01*
X018444Y015043D02*
X018392Y015095D01*
X018287Y015095D01*
X018082Y015043D02*
X018082Y014990D01*
X017872Y014990D01*
X017872Y014938D02*
X017872Y015043D01*
X017925Y015095D01*
X018029Y015095D01*
X018082Y015043D01*
X018029Y014886D02*
X017925Y014886D01*
X017872Y014938D01*
X017727Y015095D02*
X017675Y015095D01*
X017570Y014990D01*
X017570Y014886D02*
X017570Y015095D01*
X017417Y015043D02*
X017365Y015095D01*
X017208Y015095D01*
X017208Y015200D02*
X017208Y014886D01*
X017365Y014886D01*
X017417Y014938D01*
X017417Y015043D01*
X009611Y009570D02*
X009611Y009256D01*
X009507Y009256D02*
X009716Y009256D01*
X009507Y009465D02*
X009611Y009570D01*
X009353Y009518D02*
X009301Y009570D01*
X009196Y009570D01*
X009144Y009518D01*
X009144Y009308D01*
X009196Y009256D01*
X009301Y009256D01*
X009353Y009308D01*
X009007Y009256D02*
X008902Y009256D01*
X008955Y009256D02*
X008955Y009570D01*
X009007Y009570D02*
X008902Y009570D01*
X008178Y011028D02*
X007968Y011028D01*
X008073Y011028D02*
X008073Y011342D01*
X007968Y011237D01*
X007815Y011289D02*
X007763Y011342D01*
X007658Y011342D01*
X007606Y011289D01*
X007606Y011080D01*
X007658Y011028D01*
X007763Y011028D01*
X007815Y011080D01*
X006229Y011683D02*
X005948Y011683D01*
X006089Y011683D02*
X006089Y012103D01*
X005948Y011963D01*
X005768Y012103D02*
X005768Y011683D01*
X005488Y012103D01*
X005488Y011683D01*
X005308Y011753D02*
X005308Y012033D01*
X005238Y012103D01*
X005098Y012103D01*
X005028Y012033D01*
X005028Y011753D01*
X005098Y011683D01*
X005238Y011683D01*
X005308Y011753D01*
X004847Y011753D02*
X004777Y011683D01*
X004637Y011683D01*
X004567Y011753D01*
X004567Y012033D01*
X004637Y012103D01*
X004777Y012103D01*
X004847Y012033D01*
X013000Y005712D02*
X013209Y005398D01*
X013362Y005398D02*
X013571Y005398D01*
X013467Y005398D02*
X013467Y005712D01*
X013362Y005607D01*
X013209Y005712D02*
X013000Y005398D01*
D11*
X007271Y005261D02*
X007271Y004352D01*
X019373Y004352D01*
X019373Y005261D01*
X007271Y005261D01*
X007298Y004610D02*
X007298Y004373D01*
X007535Y004373D01*
X007298Y004610D01*
X007298Y004552D02*
X007356Y004552D01*
X007298Y004475D02*
X007433Y004475D01*
X007510Y004398D02*
X007298Y004398D01*
X008991Y006736D02*
X009031Y006736D01*
X009031Y007129D01*
X008991Y007129D01*
X009031Y007129D02*
X009070Y007129D01*
X009070Y007208D02*
X009031Y007208D01*
X009031Y007602D01*
X009070Y007602D01*
X009031Y007602D02*
X008991Y007602D01*
X008991Y007680D02*
X009031Y007680D01*
X009031Y008074D01*
X009070Y008074D01*
X009031Y008074D02*
X008991Y008074D01*
X008991Y008153D02*
X009031Y008153D01*
X009031Y008547D01*
X008991Y008547D01*
X009031Y008547D02*
X009070Y008547D01*
X009070Y008153D02*
X009031Y008153D01*
X009031Y007680D02*
X009070Y007680D01*
X009031Y007208D02*
X008991Y007208D01*
X009031Y006736D02*
X009070Y006736D01*
X009857Y006736D02*
X009897Y006736D01*
X009897Y007129D01*
X009857Y007129D01*
X009897Y007129D02*
X009936Y007129D01*
X009936Y006736D02*
X009897Y006736D01*
X010842Y006696D02*
X010842Y006499D01*
X011275Y006499D01*
X011393Y006893D02*
X011393Y006972D01*
X011275Y007365D02*
X010842Y007365D01*
X010842Y007169D01*
X012220Y007011D02*
X012220Y006736D01*
X012495Y006736D01*
X012495Y006873D02*
X012357Y006873D01*
X012357Y007011D01*
X014149Y006873D02*
X014287Y006873D01*
X014287Y007011D01*
X014424Y007011D02*
X014424Y006736D01*
X014149Y006736D01*
X015212Y007641D02*
X015251Y007641D01*
X015251Y008035D01*
X015291Y008035D01*
X015251Y008035D02*
X015212Y008035D01*
X015251Y007641D02*
X015291Y007641D01*
X014424Y008665D02*
X014424Y008940D01*
X014149Y008940D01*
X014149Y008802D02*
X014287Y008802D01*
X014287Y008665D01*
X014424Y009019D02*
X014426Y009037D01*
X014432Y009053D01*
X014441Y009068D01*
X014454Y009081D01*
X014469Y009090D01*
X014485Y009096D01*
X014503Y009098D01*
X014521Y009096D01*
X014537Y009090D01*
X014552Y009081D01*
X014565Y009068D01*
X014574Y009053D01*
X014580Y009037D01*
X014582Y009019D01*
X014580Y009001D01*
X014574Y008985D01*
X014565Y008970D01*
X014552Y008957D01*
X014537Y008948D01*
X014521Y008942D01*
X014503Y008940D01*
X014485Y008942D01*
X014469Y008948D01*
X014454Y008957D01*
X014441Y008970D01*
X014432Y008985D01*
X014426Y009001D01*
X014424Y009019D01*
X013165Y009688D02*
X013165Y009728D01*
X012771Y009728D01*
X012771Y009767D01*
X012771Y009728D02*
X012771Y009688D01*
X013165Y009728D02*
X013165Y009767D01*
X013716Y009964D02*
X013716Y010003D01*
X014109Y010003D01*
X014109Y010043D01*
X014109Y010003D02*
X014109Y009964D01*
X014267Y009964D02*
X014267Y010003D01*
X014661Y010003D01*
X014661Y010043D01*
X014661Y010003D02*
X014661Y009964D01*
X014818Y009964D02*
X014818Y010003D01*
X015212Y010003D01*
X015212Y010043D01*
X015212Y010003D02*
X015212Y009964D01*
X014818Y010003D02*
X014818Y010043D01*
X014267Y010043D02*
X014267Y010003D01*
X013716Y010003D02*
X013716Y010043D01*
X014336Y010909D02*
X014338Y010927D01*
X014344Y010945D01*
X014353Y010961D01*
X014365Y010974D01*
X014380Y010985D01*
X014397Y010993D01*
X014415Y010997D01*
X014433Y010997D01*
X014451Y010993D01*
X014468Y010985D01*
X014483Y010974D01*
X014495Y010961D01*
X014504Y010945D01*
X014510Y010927D01*
X014512Y010909D01*
X014510Y010891D01*
X014504Y010873D01*
X014495Y010857D01*
X014483Y010844D01*
X014468Y010833D01*
X014451Y010825D01*
X014433Y010821D01*
X014415Y010821D01*
X014397Y010825D01*
X014380Y010833D01*
X014365Y010844D01*
X014353Y010857D01*
X014344Y010873D01*
X014338Y010891D01*
X014336Y010909D01*
X014346Y010988D02*
X014149Y010988D01*
X014346Y010988D02*
X014346Y011184D01*
X014464Y011578D02*
X014464Y011617D01*
X014857Y011617D01*
X014857Y011657D01*
X014857Y011617D02*
X014857Y011578D01*
X014464Y011617D02*
X014464Y011657D01*
X014149Y011716D02*
X014149Y011913D01*
X014346Y012444D02*
X014346Y012641D01*
X014149Y012641D01*
X013716Y012799D02*
X013676Y012799D01*
X013676Y013192D01*
X013716Y013192D01*
X013676Y013192D02*
X013637Y013192D01*
X013637Y012799D02*
X013676Y012799D01*
X013696Y012444D02*
X013657Y012444D01*
X013204Y012641D02*
X013007Y012641D01*
X013007Y012444D01*
X012732Y011932D02*
X012732Y011539D01*
X013007Y011184D02*
X013007Y010988D01*
X013204Y010988D01*
X013657Y011184D02*
X013696Y011184D01*
X013204Y011716D02*
X013204Y011913D01*
X012377Y011972D02*
X012220Y011972D01*
X011865Y011932D02*
X011865Y011814D01*
X011865Y011815D02*
X011881Y011813D01*
X011897Y011808D01*
X011911Y011800D01*
X011924Y011789D01*
X011933Y011776D01*
X011940Y011760D01*
X011944Y011744D01*
X011944Y011728D01*
X011940Y011712D01*
X011933Y011697D01*
X011924Y011683D01*
X011911Y011672D01*
X011897Y011664D01*
X011881Y011659D01*
X011865Y011657D01*
X011865Y011539D01*
X011669Y012326D02*
X011669Y012365D01*
X011275Y012365D01*
X011275Y012405D01*
X011275Y012365D02*
X011275Y012326D01*
X011669Y012365D02*
X011669Y012405D01*
X010573Y012584D02*
X010573Y012834D01*
X010573Y012584D02*
X008198Y012584D01*
X008198Y012834D01*
X008198Y013709D02*
X008198Y013959D01*
X010573Y013959D01*
X010573Y013709D01*
X009602Y010779D02*
X009491Y010779D01*
X009424Y010712D01*
X009267Y010712D01*
X009200Y010779D01*
X009086Y010779D01*
X009086Y009775D01*
X009602Y009775D01*
X009602Y010779D01*
X008932Y010936D02*
X008574Y010936D01*
X008165Y010318D02*
X007692Y010318D01*
X007062Y010673D02*
X007062Y010830D01*
X006157Y011263D02*
X005448Y011263D01*
X004267Y011263D02*
X003165Y011263D01*
X003165Y008192D01*
X004267Y008192D01*
X005448Y008192D02*
X006157Y008192D01*
X007062Y008625D02*
X007062Y008783D01*
X010409Y010318D02*
X010881Y010318D01*
X011472Y010043D02*
X011472Y010003D01*
X011865Y010003D01*
X011865Y010043D01*
X011865Y010003D02*
X011865Y009964D01*
X011944Y009964D02*
X011944Y010003D01*
X012338Y010003D01*
X012338Y010043D01*
X012338Y010003D02*
X012338Y009964D01*
X011944Y010003D02*
X011944Y010043D01*
X011472Y010003D02*
X011472Y009964D01*
X012220Y008940D02*
X012495Y008940D01*
X012495Y008802D02*
X012357Y008802D01*
X012357Y008665D01*
X012220Y008665D02*
X012220Y008940D01*
X016196Y009491D02*
X016235Y009491D01*
X016235Y009885D01*
X016275Y009885D01*
X016235Y009885D02*
X016196Y009885D01*
X016196Y010003D02*
X016235Y010003D01*
X016235Y010397D01*
X016275Y010397D01*
X016235Y010397D02*
X016196Y010397D01*
X016072Y010615D02*
X016072Y010865D01*
X016072Y010615D02*
X018447Y010615D01*
X018447Y010865D01*
X018447Y011740D02*
X018447Y011990D01*
X016072Y011990D01*
X016072Y011740D01*
X016072Y012584D02*
X016072Y012834D01*
X016072Y012584D02*
X018447Y012584D01*
X018447Y012834D01*
X018447Y013709D02*
X018447Y013959D01*
X016072Y013959D01*
X016072Y013709D01*
X019858Y011302D02*
X019860Y011327D01*
X019866Y011351D01*
X019875Y011373D01*
X019888Y011394D01*
X019904Y011413D01*
X019923Y011429D01*
X019944Y011442D01*
X019966Y011451D01*
X019990Y011457D01*
X020015Y011459D01*
X020040Y011457D01*
X020064Y011451D01*
X020086Y011442D01*
X020107Y011429D01*
X020126Y011413D01*
X020142Y011394D01*
X020155Y011373D01*
X020164Y011351D01*
X020170Y011327D01*
X020172Y011302D01*
X020170Y011277D01*
X020164Y011253D01*
X020155Y011231D01*
X020142Y011210D01*
X020126Y011191D01*
X020107Y011175D01*
X020086Y011162D01*
X020064Y011153D01*
X020040Y011147D01*
X020015Y011145D01*
X019990Y011147D01*
X019966Y011153D01*
X019944Y011162D01*
X019923Y011175D01*
X019904Y011191D01*
X019888Y011210D01*
X019875Y011231D01*
X019866Y011253D01*
X019860Y011277D01*
X019858Y011302D01*
X020212Y011106D02*
X020212Y008350D01*
X023165Y008350D01*
X023165Y011106D01*
X020212Y011106D01*
X019739Y008980D02*
X019700Y008980D01*
X019700Y008586D01*
X019661Y008586D01*
X019700Y008586D02*
X019739Y008586D01*
X019700Y008980D02*
X019661Y008980D01*
X019267Y008114D02*
X019267Y007247D01*
X020999Y007247D01*
X020999Y008114D01*
X019267Y008114D01*
X016275Y009491D02*
X016235Y009491D01*
X016235Y010003D02*
X016275Y010003D01*
D12*
X011826Y011302D02*
X011826Y011342D01*
X011629Y006421D02*
X011590Y006421D01*
M02*
