G75*
%MOIN*%
%OFA0B0*%
%FSLAX25Y25*%
%IPPOS*%
%LPD*%
%AMOC8*
5,1,8,0,0,1.08239X$1,22.5*
%
%ADD10C,0.00800*%
%ADD11C,0.00787*%
%ADD12R,0.01575X0.01575*%
%ADD13C,0.01575*%
%ADD14C,0.00591*%
%ADD15C,0.00500*%
%ADD16R,0.01181X0.01181*%
%ADD17R,0.00787X0.00787*%
%ADD18C,0.00900*%
D10*
X0046736Y0104527D02*
X0046736Y0106097D01*
X0047259Y0106620D01*
X0048306Y0106620D01*
X0048829Y0106097D01*
X0048829Y0104527D01*
X0048829Y0105573D02*
X0049876Y0106620D01*
X0049876Y0104527D02*
X0046736Y0104527D01*
X0048306Y0108152D02*
X0048306Y0110245D01*
X0049876Y0109722D02*
X0046736Y0109722D01*
X0048306Y0108152D01*
X0066817Y0113270D02*
X0068910Y0113270D01*
X0070442Y0113270D02*
X0070442Y0116410D01*
X0072536Y0116410D01*
X0074068Y0116410D02*
X0074068Y0113270D01*
X0075637Y0113270D01*
X0076161Y0113793D01*
X0076161Y0115886D01*
X0075637Y0116410D01*
X0074068Y0116410D01*
X0071489Y0114840D02*
X0070442Y0114840D01*
X0070442Y0113270D02*
X0072536Y0113270D01*
X0066817Y0113270D02*
X0066817Y0116410D01*
X0065624Y0126336D02*
X0062484Y0126336D01*
X0062484Y0127906D01*
X0063007Y0128429D01*
X0064054Y0128429D01*
X0064577Y0127906D01*
X0064577Y0126336D01*
X0064577Y0127383D02*
X0065624Y0128429D01*
X0065624Y0129961D02*
X0065624Y0132055D01*
X0065624Y0131008D02*
X0062484Y0131008D01*
X0063530Y0129961D01*
X0060899Y0130329D02*
X0060376Y0129805D01*
X0060899Y0130329D02*
X0060899Y0131375D01*
X0060376Y0131899D01*
X0059329Y0131899D01*
X0058806Y0131375D01*
X0058806Y0130852D01*
X0059329Y0129805D01*
X0057760Y0129805D01*
X0057760Y0131899D01*
X0058283Y0128273D02*
X0059329Y0128273D01*
X0059853Y0127750D01*
X0059853Y0126180D01*
X0060899Y0126180D02*
X0057760Y0126180D01*
X0057760Y0127750D01*
X0058283Y0128273D01*
X0059853Y0127227D02*
X0060899Y0128273D01*
X0063530Y0133587D02*
X0062484Y0134633D01*
X0065624Y0134633D01*
X0065624Y0133587D02*
X0065624Y0135680D01*
X0066157Y0136966D02*
X0066680Y0136966D01*
X0067203Y0137490D01*
X0067203Y0138536D01*
X0067727Y0139059D01*
X0068250Y0139059D01*
X0068773Y0138536D01*
X0068773Y0137490D01*
X0068250Y0136966D01*
X0066157Y0136966D02*
X0065634Y0137490D01*
X0065634Y0138536D01*
X0066157Y0139059D01*
X0065634Y0140591D02*
X0068773Y0140591D01*
X0067727Y0141638D01*
X0068773Y0142684D01*
X0065634Y0142684D01*
X0066680Y0144216D02*
X0065634Y0145263D01*
X0068773Y0145263D01*
X0068773Y0144216D02*
X0068773Y0146310D01*
X0070015Y0159333D02*
X0071061Y0159333D01*
X0071585Y0159856D01*
X0070015Y0159333D02*
X0069491Y0159856D01*
X0069491Y0161949D01*
X0070015Y0162473D01*
X0071061Y0162473D01*
X0071585Y0161949D01*
X0073117Y0160903D02*
X0075210Y0160903D01*
X0074686Y0162473D02*
X0073117Y0160903D01*
X0074686Y0159333D02*
X0074686Y0162473D01*
X0085319Y0154604D02*
X0085842Y0155127D01*
X0086365Y0155127D01*
X0086888Y0154604D01*
X0087412Y0155127D01*
X0087935Y0155127D01*
X0088458Y0154604D01*
X0088458Y0153557D01*
X0087935Y0153034D01*
X0086888Y0154080D02*
X0086888Y0154604D01*
X0085319Y0154604D02*
X0085319Y0153557D01*
X0085842Y0153034D01*
X0085842Y0151502D02*
X0085319Y0150979D01*
X0085319Y0149932D01*
X0085842Y0149409D01*
X0087935Y0149409D01*
X0088458Y0149932D01*
X0088458Y0150979D01*
X0087935Y0151502D01*
X0088458Y0141741D02*
X0088458Y0139648D01*
X0088458Y0140695D02*
X0085319Y0140695D01*
X0086365Y0139648D01*
X0085842Y0138116D02*
X0085319Y0137593D01*
X0085319Y0136546D01*
X0085842Y0136023D01*
X0087935Y0136023D01*
X0088458Y0136546D01*
X0088458Y0137593D01*
X0087935Y0138116D01*
X0085712Y0132218D02*
X0085712Y0130125D01*
X0085712Y0131172D02*
X0088852Y0131172D01*
X0088852Y0128593D02*
X0088852Y0126500D01*
X0085712Y0126500D01*
X0085712Y0128593D01*
X0087282Y0127546D02*
X0087282Y0126500D01*
X0087805Y0124968D02*
X0088329Y0124968D01*
X0088852Y0124445D01*
X0088852Y0123398D01*
X0088329Y0122875D01*
X0087282Y0123398D02*
X0087282Y0124445D01*
X0087805Y0124968D01*
X0086236Y0124968D02*
X0085712Y0124445D01*
X0085712Y0123398D01*
X0086236Y0122875D01*
X0086759Y0122875D01*
X0087282Y0123398D01*
X0085712Y0121343D02*
X0085712Y0119250D01*
X0088852Y0119250D01*
X0088852Y0121343D01*
X0087282Y0120296D02*
X0087282Y0119250D01*
X0087282Y0117718D02*
X0087805Y0117194D01*
X0087805Y0115625D01*
X0087805Y0116671D02*
X0088852Y0117718D01*
X0087282Y0117718D02*
X0086236Y0117718D01*
X0085712Y0117194D01*
X0085712Y0115625D01*
X0088852Y0115625D01*
X0079786Y0113270D02*
X0077693Y0113270D01*
X0078739Y0113270D02*
X0078739Y0116410D01*
X0077693Y0115363D01*
X0109334Y0141507D02*
X0109334Y0142554D01*
X0109334Y0142031D02*
X0112474Y0142031D01*
X0112474Y0142554D02*
X0112474Y0141507D01*
X0111951Y0143924D02*
X0109858Y0143924D01*
X0109334Y0144447D01*
X0109334Y0145494D01*
X0109858Y0146017D01*
X0110381Y0147549D02*
X0109334Y0148596D01*
X0112474Y0148596D01*
X0112474Y0149642D02*
X0112474Y0147549D01*
X0111951Y0146017D02*
X0112474Y0145494D01*
X0112474Y0144447D01*
X0111951Y0143924D01*
X0116421Y0143295D02*
X0117468Y0142248D01*
X0116421Y0143295D02*
X0119561Y0143295D01*
X0119561Y0144341D02*
X0119561Y0142248D01*
X0119561Y0140716D02*
X0118514Y0139669D01*
X0118514Y0140193D02*
X0118514Y0138623D01*
X0119561Y0138623D02*
X0116421Y0138623D01*
X0116421Y0140193D01*
X0116944Y0140716D01*
X0117991Y0140716D01*
X0118514Y0140193D01*
X0116421Y0137091D02*
X0116421Y0134998D01*
X0116421Y0136044D02*
X0119561Y0136044D01*
X0134925Y0129462D02*
X0137018Y0127369D01*
X0136495Y0127892D02*
X0138065Y0129462D01*
X0138065Y0127369D02*
X0134925Y0127369D01*
X0138065Y0125837D02*
X0138065Y0123744D01*
X0134925Y0123744D01*
X0135448Y0122212D02*
X0134925Y0121689D01*
X0134925Y0120642D01*
X0135448Y0120119D01*
X0137541Y0120119D01*
X0138065Y0120642D01*
X0138065Y0121689D01*
X0137541Y0122212D01*
X0138065Y0118587D02*
X0134925Y0118587D01*
X0134925Y0116494D02*
X0138065Y0116494D01*
X0137018Y0117540D01*
X0138065Y0118587D01*
X0137541Y0114962D02*
X0138065Y0114438D01*
X0138065Y0113392D01*
X0137541Y0112869D01*
X0136495Y0113392D02*
X0136495Y0114438D01*
X0137018Y0114962D01*
X0137541Y0114962D01*
X0136495Y0113392D02*
X0135971Y0112869D01*
X0135448Y0112869D01*
X0134925Y0113392D01*
X0134925Y0114438D01*
X0135448Y0114962D01*
X0120742Y0115714D02*
X0120742Y0117807D01*
X0120742Y0116761D02*
X0117602Y0116761D01*
X0118649Y0115714D01*
X0117602Y0114182D02*
X0120742Y0114182D01*
X0117602Y0112089D01*
X0120742Y0112089D01*
X0120218Y0110557D02*
X0118125Y0110557D01*
X0117602Y0110034D01*
X0117602Y0108987D01*
X0118125Y0108464D01*
X0120218Y0108464D01*
X0120742Y0108987D01*
X0120742Y0110034D01*
X0120218Y0110557D01*
X0120218Y0106932D02*
X0120742Y0106409D01*
X0120742Y0105362D01*
X0120218Y0104839D01*
X0118125Y0104839D01*
X0117602Y0105362D01*
X0117602Y0106409D01*
X0118125Y0106932D01*
X0137417Y0131583D02*
X0137940Y0131583D01*
X0138463Y0132106D01*
X0138463Y0133153D01*
X0138987Y0133676D01*
X0139510Y0133676D01*
X0140033Y0133153D01*
X0140033Y0132106D01*
X0139510Y0131583D01*
X0137417Y0131583D02*
X0136893Y0132106D01*
X0136893Y0133153D01*
X0137417Y0133676D01*
X0136893Y0135208D02*
X0140033Y0135208D01*
X0138987Y0136255D01*
X0140033Y0137301D01*
X0136893Y0137301D01*
X0136893Y0138833D02*
X0136893Y0140403D01*
X0137417Y0140926D01*
X0139510Y0140926D01*
X0140033Y0140403D01*
X0140033Y0138833D01*
X0136893Y0138833D01*
X0136893Y0142458D02*
X0136893Y0143505D01*
X0136893Y0142982D02*
X0140033Y0142982D01*
X0140033Y0143505D02*
X0140033Y0142458D01*
X0139510Y0144875D02*
X0137417Y0144875D01*
X0136893Y0145399D01*
X0136893Y0146445D01*
X0137417Y0146968D01*
X0139510Y0146968D01*
X0140033Y0146445D01*
X0140033Y0145399D01*
X0139510Y0144875D01*
X0142405Y0144880D02*
X0142928Y0145403D01*
X0145022Y0143310D01*
X0145545Y0143833D01*
X0145545Y0144880D01*
X0145022Y0145403D01*
X0142928Y0145403D01*
X0142405Y0144880D02*
X0142405Y0143833D01*
X0142928Y0143310D01*
X0145022Y0143310D01*
X0145022Y0142021D02*
X0145545Y0142021D01*
X0145545Y0141498D01*
X0145022Y0141498D01*
X0145022Y0142021D01*
X0145545Y0139966D02*
X0145545Y0137873D01*
X0145545Y0138919D02*
X0142405Y0138919D01*
X0143452Y0137873D01*
X0142928Y0148109D02*
X0142405Y0148632D01*
X0142405Y0149679D01*
X0142928Y0150202D01*
X0145022Y0148109D01*
X0145545Y0148632D01*
X0145545Y0149679D01*
X0145022Y0150202D01*
X0142928Y0150202D01*
X0142928Y0148109D02*
X0145022Y0148109D01*
X0145022Y0151734D02*
X0145022Y0152257D01*
X0145545Y0152257D01*
X0145545Y0151734D01*
X0145022Y0151734D01*
X0145022Y0153546D02*
X0142928Y0155640D01*
X0145022Y0155640D01*
X0145545Y0155116D01*
X0145545Y0154070D01*
X0145022Y0153546D01*
X0142928Y0153546D01*
X0142405Y0154070D01*
X0142405Y0155116D01*
X0142928Y0155640D01*
X0142928Y0157951D02*
X0142405Y0158475D01*
X0142405Y0159521D01*
X0142928Y0160044D01*
X0145022Y0157951D01*
X0145545Y0158475D01*
X0145545Y0159521D01*
X0145022Y0160044D01*
X0142928Y0160044D01*
X0142928Y0157951D02*
X0145022Y0157951D01*
X0145022Y0161576D02*
X0145022Y0162100D01*
X0145545Y0162100D01*
X0145545Y0161576D01*
X0145022Y0161576D01*
X0145545Y0163389D02*
X0145545Y0165482D01*
X0145545Y0164436D02*
X0142405Y0164436D01*
X0143452Y0163389D01*
X0142928Y0167794D02*
X0142405Y0168317D01*
X0142405Y0169364D01*
X0142928Y0169887D01*
X0145022Y0167794D01*
X0145545Y0168317D01*
X0145545Y0169364D01*
X0145022Y0169887D01*
X0142928Y0169887D01*
X0142928Y0167794D02*
X0145022Y0167794D01*
X0145022Y0171419D02*
X0145022Y0171942D01*
X0145545Y0171942D01*
X0145545Y0171419D01*
X0145022Y0171419D01*
X0143975Y0173231D02*
X0142405Y0174801D01*
X0145545Y0174801D01*
X0143975Y0175325D02*
X0143975Y0173231D01*
X0142928Y0178030D02*
X0142405Y0178553D01*
X0142405Y0179600D01*
X0142928Y0180123D01*
X0145022Y0178030D01*
X0145545Y0178553D01*
X0145545Y0179600D01*
X0145022Y0180123D01*
X0142928Y0180123D01*
X0142928Y0178030D02*
X0145022Y0178030D01*
X0145022Y0181655D02*
X0145022Y0182178D01*
X0145545Y0182178D01*
X0145545Y0181655D01*
X0145022Y0181655D01*
X0145022Y0183468D02*
X0145545Y0183991D01*
X0145545Y0185038D01*
X0145022Y0185561D01*
X0143975Y0185561D01*
X0143452Y0185038D01*
X0143452Y0184514D01*
X0143975Y0183468D01*
X0142405Y0183468D01*
X0142405Y0185561D01*
X0142928Y0188266D02*
X0142405Y0188789D01*
X0142405Y0189836D01*
X0142928Y0190359D01*
X0145022Y0188266D01*
X0145545Y0188789D01*
X0145545Y0189836D01*
X0145022Y0190359D01*
X0142928Y0190359D01*
X0142928Y0188266D02*
X0145022Y0188266D01*
X0145022Y0191891D02*
X0145022Y0192415D01*
X0145545Y0192415D01*
X0145545Y0191891D01*
X0145022Y0191891D01*
X0145022Y0193704D02*
X0145545Y0193704D01*
X0145022Y0193704D02*
X0142928Y0195797D01*
X0142405Y0195797D01*
X0142405Y0193704D01*
X0142928Y0197715D02*
X0142405Y0198238D01*
X0142405Y0199285D01*
X0142928Y0199808D01*
X0145022Y0197715D01*
X0145545Y0198238D01*
X0145545Y0199285D01*
X0145022Y0199808D01*
X0142928Y0199808D01*
X0142928Y0197715D02*
X0145022Y0197715D01*
X0145022Y0201340D02*
X0145022Y0201863D01*
X0145545Y0201863D01*
X0145545Y0201340D01*
X0145022Y0201340D01*
X0145022Y0203153D02*
X0145545Y0203676D01*
X0145545Y0204723D01*
X0145022Y0205246D01*
X0144498Y0205246D01*
X0143975Y0204723D01*
X0143975Y0203153D01*
X0145022Y0203153D01*
X0143975Y0203153D02*
X0142928Y0204199D01*
X0142405Y0205246D01*
X0142928Y0207951D02*
X0142405Y0208475D01*
X0142405Y0209521D01*
X0142928Y0210044D01*
X0145022Y0207951D01*
X0145545Y0208475D01*
X0145545Y0209521D01*
X0145022Y0210044D01*
X0142928Y0210044D01*
X0142928Y0207951D02*
X0145022Y0207951D01*
X0145022Y0211576D02*
X0145022Y0212100D01*
X0145545Y0212100D01*
X0145545Y0211576D01*
X0145022Y0211576D01*
X0145022Y0213389D02*
X0145545Y0213912D01*
X0145545Y0214959D01*
X0145022Y0215482D01*
X0144498Y0215482D01*
X0143975Y0214959D01*
X0143975Y0214436D01*
X0143975Y0214959D02*
X0143452Y0215482D01*
X0142928Y0215482D01*
X0142405Y0214959D01*
X0142405Y0213912D01*
X0142928Y0213389D01*
X0142928Y0217794D02*
X0142405Y0218317D01*
X0142405Y0219364D01*
X0142928Y0219887D01*
X0145022Y0217794D01*
X0145545Y0218317D01*
X0145545Y0219364D01*
X0145022Y0219887D01*
X0142928Y0219887D01*
X0142928Y0217794D02*
X0145022Y0217794D01*
X0145022Y0221419D02*
X0145022Y0221942D01*
X0145545Y0221942D01*
X0145545Y0221419D01*
X0145022Y0221419D01*
X0145545Y0223231D02*
X0143452Y0225325D01*
X0142928Y0225325D01*
X0142405Y0224801D01*
X0142405Y0223755D01*
X0142928Y0223231D01*
X0145545Y0223231D02*
X0145545Y0225325D01*
X0145545Y0227636D02*
X0145545Y0229729D01*
X0145545Y0228683D02*
X0142405Y0228683D01*
X0143452Y0227636D01*
X0145022Y0231261D02*
X0145022Y0231785D01*
X0145545Y0231785D01*
X0145545Y0231261D01*
X0145022Y0231261D01*
X0145545Y0233074D02*
X0145545Y0235167D01*
X0145545Y0234121D02*
X0142405Y0234121D01*
X0143452Y0233074D01*
X0142928Y0237360D02*
X0142405Y0237883D01*
X0142405Y0238930D01*
X0142928Y0239453D01*
X0143975Y0239453D02*
X0143975Y0238406D01*
X0143975Y0239453D02*
X0145022Y0239453D01*
X0145545Y0238930D01*
X0145545Y0237883D01*
X0145022Y0237360D01*
X0142928Y0237360D01*
X0142405Y0240985D02*
X0145545Y0243078D01*
X0142405Y0243078D01*
X0142405Y0244610D02*
X0142405Y0246180D01*
X0142928Y0246703D01*
X0145022Y0246703D01*
X0145545Y0246180D01*
X0145545Y0244610D01*
X0142405Y0244610D01*
X0142405Y0240985D02*
X0145545Y0240985D01*
X0139774Y0247596D02*
X0137681Y0247596D01*
X0139774Y0247596D02*
X0140820Y0248643D01*
X0139774Y0249689D01*
X0137681Y0249689D01*
X0137681Y0251221D02*
X0137681Y0252791D01*
X0138204Y0253314D01*
X0139251Y0253314D01*
X0139774Y0252791D01*
X0139774Y0251221D01*
X0140820Y0251221D02*
X0137681Y0251221D01*
X0137681Y0254846D02*
X0137681Y0256416D01*
X0138204Y0256940D01*
X0139251Y0256940D01*
X0139774Y0256416D01*
X0139774Y0254846D01*
X0140820Y0254846D02*
X0137681Y0254846D01*
X0131765Y0255396D02*
X0131765Y0257489D01*
X0131765Y0256443D02*
X0128626Y0256443D01*
X0129672Y0255396D01*
X0129149Y0253864D02*
X0131242Y0253864D01*
X0131765Y0253341D01*
X0131765Y0252294D01*
X0131242Y0251771D01*
X0129149Y0251771D01*
X0128626Y0252294D01*
X0128626Y0253341D01*
X0129149Y0253864D01*
X0130719Y0252817D02*
X0131765Y0253864D01*
X0147132Y0259727D02*
X0149225Y0262866D01*
X0150757Y0261820D02*
X0151804Y0262866D01*
X0151804Y0259727D01*
X0150757Y0259727D02*
X0152851Y0259727D01*
X0149225Y0259727D02*
X0147132Y0262866D01*
X0108281Y0253288D02*
X0107757Y0253811D01*
X0106711Y0253811D01*
X0106187Y0253288D01*
X0104655Y0253288D02*
X0104132Y0253811D01*
X0103086Y0253811D01*
X0102562Y0253288D01*
X0102562Y0251195D01*
X0103086Y0250672D01*
X0104132Y0250672D01*
X0104655Y0251195D01*
X0106187Y0250672D02*
X0108281Y0252765D01*
X0108281Y0253288D01*
X0108281Y0250672D02*
X0106187Y0250672D01*
X0094107Y0250672D02*
X0092014Y0250672D01*
X0093061Y0250672D02*
X0093061Y0253811D01*
X0092014Y0252765D01*
X0090482Y0253811D02*
X0090482Y0251195D01*
X0089959Y0250672D01*
X0088912Y0250672D01*
X0088389Y0251195D01*
X0088389Y0253811D01*
X0078222Y0245189D02*
X0075082Y0245189D01*
X0075082Y0246235D02*
X0075082Y0244142D01*
X0075082Y0242610D02*
X0075082Y0240517D01*
X0078222Y0240517D01*
X0078222Y0242610D01*
X0076652Y0241564D02*
X0076652Y0240517D01*
X0076652Y0238985D02*
X0076652Y0237939D01*
X0076652Y0238985D02*
X0077699Y0238985D01*
X0078222Y0238462D01*
X0078222Y0237415D01*
X0077699Y0236892D01*
X0075606Y0236892D01*
X0075082Y0237415D01*
X0075082Y0238462D01*
X0075606Y0238985D01*
X0075606Y0235360D02*
X0076652Y0235360D01*
X0077175Y0234837D01*
X0077175Y0233267D01*
X0077175Y0234314D02*
X0078222Y0235360D01*
X0078222Y0233267D02*
X0075082Y0233267D01*
X0075082Y0234837D01*
X0075606Y0235360D01*
X0076129Y0231735D02*
X0078222Y0231735D01*
X0076652Y0231735D02*
X0076652Y0229642D01*
X0076129Y0229642D02*
X0075082Y0230688D01*
X0076129Y0231735D01*
X0076129Y0229642D02*
X0078222Y0229642D01*
X0078222Y0227063D02*
X0075082Y0227063D01*
X0075082Y0226017D02*
X0075082Y0228110D01*
X0075606Y0223475D02*
X0076129Y0223475D01*
X0076652Y0222952D01*
X0077175Y0223475D01*
X0077699Y0223475D01*
X0078222Y0222952D01*
X0078222Y0221905D01*
X0077699Y0221382D01*
X0076652Y0222428D02*
X0076652Y0222952D01*
X0075606Y0223475D02*
X0075082Y0222952D01*
X0075082Y0221905D01*
X0075606Y0221382D01*
X0075082Y0219850D02*
X0078222Y0219850D01*
X0077175Y0218803D01*
X0078222Y0217757D01*
X0075082Y0217757D01*
X0075606Y0216225D02*
X0075082Y0215701D01*
X0075082Y0214655D01*
X0075606Y0214132D01*
X0076129Y0214132D01*
X0076652Y0214655D01*
X0076652Y0215701D01*
X0077175Y0216225D01*
X0077699Y0216225D01*
X0078222Y0215701D01*
X0078222Y0214655D01*
X0077699Y0214132D01*
X0077699Y0209064D02*
X0077175Y0209064D01*
X0076652Y0208541D01*
X0076652Y0207494D01*
X0076129Y0206971D01*
X0075606Y0206971D01*
X0075082Y0207494D01*
X0075082Y0208541D01*
X0075606Y0209064D01*
X0076129Y0209064D01*
X0076652Y0208541D01*
X0076652Y0207494D02*
X0077175Y0206971D01*
X0077699Y0206971D01*
X0078222Y0207494D01*
X0078222Y0208541D01*
X0077699Y0209064D01*
X0077699Y0205439D02*
X0078222Y0204916D01*
X0078222Y0203869D01*
X0077699Y0203346D01*
X0075606Y0203346D01*
X0075082Y0203869D01*
X0075082Y0204916D01*
X0075606Y0205439D01*
X0072317Y0204028D02*
X0072317Y0201935D01*
X0070223Y0204028D01*
X0069700Y0204028D01*
X0069177Y0203504D01*
X0069177Y0202458D01*
X0069700Y0201935D01*
X0069700Y0200403D02*
X0071793Y0200403D01*
X0072317Y0199879D01*
X0072317Y0198833D01*
X0071793Y0198309D01*
X0069700Y0198309D01*
X0069177Y0198833D01*
X0069177Y0199879D01*
X0069700Y0200403D01*
X0071270Y0199356D02*
X0072317Y0200403D01*
X0060899Y0204419D02*
X0060376Y0203895D01*
X0060899Y0204419D02*
X0060899Y0205465D01*
X0060376Y0205988D01*
X0059853Y0205988D01*
X0059329Y0205465D01*
X0059329Y0204419D01*
X0058806Y0203895D01*
X0058283Y0203895D01*
X0057760Y0204419D01*
X0057760Y0205465D01*
X0058283Y0205988D01*
X0057760Y0207520D02*
X0060899Y0207520D01*
X0059853Y0208567D01*
X0060899Y0209614D01*
X0057760Y0209614D01*
X0058283Y0211146D02*
X0057760Y0211669D01*
X0057760Y0212715D01*
X0058283Y0213239D01*
X0058806Y0213239D01*
X0060899Y0211146D01*
X0060899Y0213239D01*
X0060510Y0192922D02*
X0060510Y0191352D01*
X0059987Y0190829D01*
X0059464Y0190829D01*
X0058941Y0191352D01*
X0058941Y0192399D01*
X0059464Y0192922D01*
X0061557Y0192922D01*
X0062080Y0192399D01*
X0062080Y0191352D01*
X0061557Y0190829D01*
X0061557Y0189297D02*
X0062080Y0188774D01*
X0062080Y0187727D01*
X0061557Y0187204D01*
X0059464Y0187204D01*
X0058941Y0187727D01*
X0058941Y0188774D01*
X0059464Y0189297D01*
X0059836Y0176253D02*
X0061145Y0176253D01*
X0060491Y0176253D02*
X0060491Y0172325D01*
X0061145Y0172325D02*
X0059836Y0172325D01*
X0062736Y0172980D02*
X0062736Y0175598D01*
X0063391Y0176253D01*
X0064700Y0176253D01*
X0065355Y0175598D01*
X0067086Y0175598D02*
X0067741Y0176253D01*
X0069050Y0176253D01*
X0069705Y0175598D01*
X0069705Y0174944D01*
X0069050Y0174289D01*
X0069705Y0173634D01*
X0069705Y0172980D01*
X0069050Y0172325D01*
X0067741Y0172325D01*
X0067086Y0172980D01*
X0065355Y0172980D02*
X0064700Y0172325D01*
X0063391Y0172325D01*
X0062736Y0172980D01*
X0068396Y0174289D02*
X0069050Y0174289D01*
X0086500Y0189566D02*
X0086500Y0191136D01*
X0087023Y0191659D01*
X0088070Y0191659D01*
X0088593Y0191136D01*
X0088593Y0189566D01*
X0089639Y0189566D02*
X0086500Y0189566D01*
X0088593Y0190613D02*
X0089639Y0191659D01*
X0089116Y0193191D02*
X0088593Y0193191D01*
X0088070Y0193715D01*
X0088070Y0194761D01*
X0088593Y0195284D01*
X0089116Y0195284D01*
X0089639Y0194761D01*
X0089639Y0193715D01*
X0089116Y0193191D01*
X0088070Y0193715D02*
X0087546Y0193191D01*
X0087023Y0193191D01*
X0086500Y0193715D01*
X0086500Y0194761D01*
X0087023Y0195284D01*
X0087546Y0195284D01*
X0088070Y0194761D01*
X0088593Y0200590D02*
X0088593Y0202160D01*
X0088070Y0202683D01*
X0087023Y0202683D01*
X0086500Y0202160D01*
X0086500Y0200590D01*
X0089639Y0200590D01*
X0088593Y0201636D02*
X0089639Y0202683D01*
X0089639Y0204215D02*
X0089116Y0204215D01*
X0087023Y0206308D01*
X0086500Y0206308D01*
X0086500Y0204215D01*
X0100673Y0200667D02*
X0100673Y0199620D01*
X0101196Y0199097D01*
X0101719Y0199097D01*
X0102243Y0199620D01*
X0102243Y0201190D01*
X0103289Y0201190D02*
X0101196Y0201190D01*
X0100673Y0200667D01*
X0103289Y0201190D02*
X0103813Y0200667D01*
X0103813Y0199620D01*
X0103289Y0199097D01*
X0103813Y0197565D02*
X0102766Y0196518D01*
X0102766Y0197042D02*
X0102766Y0195472D01*
X0103813Y0195472D02*
X0100673Y0195472D01*
X0100673Y0197042D01*
X0101196Y0197565D01*
X0102243Y0197565D01*
X0102766Y0197042D01*
X0109728Y0202688D02*
X0110251Y0202165D01*
X0112344Y0202165D01*
X0112868Y0202688D01*
X0112868Y0203734D01*
X0112344Y0204258D01*
X0112344Y0205790D02*
X0112868Y0206313D01*
X0112868Y0207360D01*
X0112344Y0207883D01*
X0111821Y0207883D01*
X0111298Y0207360D01*
X0111298Y0205790D01*
X0112344Y0205790D01*
X0111298Y0205790D02*
X0110251Y0206836D01*
X0109728Y0207883D01*
X0108537Y0209407D02*
X0105397Y0209407D01*
X0105397Y0210977D01*
X0105921Y0211500D01*
X0106967Y0211500D01*
X0107490Y0210977D01*
X0107490Y0209407D01*
X0107490Y0210454D02*
X0108537Y0211500D01*
X0108537Y0213032D02*
X0108537Y0215125D01*
X0108537Y0214079D02*
X0105397Y0214079D01*
X0106444Y0213032D01*
X0105921Y0216657D02*
X0105397Y0217181D01*
X0105397Y0218227D01*
X0105921Y0218751D01*
X0106444Y0218751D01*
X0108537Y0216657D01*
X0108537Y0218751D01*
X0099482Y0223974D02*
X0096342Y0223974D01*
X0096342Y0225544D01*
X0096865Y0226067D01*
X0097912Y0226067D01*
X0098435Y0225544D01*
X0098435Y0223974D01*
X0098435Y0225021D02*
X0099482Y0226067D01*
X0099482Y0227599D02*
X0099482Y0229692D01*
X0099482Y0228646D02*
X0096342Y0228646D01*
X0097389Y0227599D01*
X0096865Y0231224D02*
X0096342Y0231748D01*
X0096342Y0232794D01*
X0096865Y0233317D01*
X0097389Y0233317D01*
X0097912Y0232794D01*
X0098435Y0233317D01*
X0098959Y0233317D01*
X0099482Y0232794D01*
X0099482Y0231748D01*
X0098959Y0231224D01*
X0097912Y0232271D02*
X0097912Y0232794D01*
X0110251Y0204258D02*
X0109728Y0203734D01*
X0109728Y0202688D01*
X0092789Y0185312D02*
X0092266Y0185836D01*
X0091219Y0185836D01*
X0090696Y0185312D01*
X0090696Y0184789D01*
X0091219Y0183743D01*
X0089649Y0183743D01*
X0089649Y0185836D01*
X0092789Y0185312D02*
X0092789Y0184266D01*
X0092266Y0183743D01*
X0092266Y0182211D02*
X0092789Y0181687D01*
X0092789Y0180641D01*
X0092266Y0180117D01*
X0090173Y0180117D01*
X0089649Y0180641D01*
X0089649Y0181687D01*
X0090173Y0182211D01*
X0091932Y0178221D02*
X0093502Y0178221D01*
X0094025Y0177698D01*
X0094025Y0176651D01*
X0093502Y0176128D01*
X0091932Y0176128D01*
X0092979Y0176128D02*
X0094025Y0175081D01*
X0095557Y0175081D02*
X0097651Y0175081D01*
X0096604Y0175081D02*
X0096604Y0178221D01*
X0095557Y0177174D01*
X0091932Y0178221D02*
X0091932Y0175081D01*
X0099413Y0175081D02*
X0099413Y0178221D01*
X0100982Y0178221D01*
X0101506Y0177698D01*
X0101506Y0176651D01*
X0100982Y0176128D01*
X0099413Y0176128D01*
X0100459Y0176128D02*
X0101506Y0175081D01*
X0103038Y0175604D02*
X0103561Y0175081D01*
X0104608Y0175081D01*
X0105131Y0175604D01*
X0105131Y0176128D01*
X0104608Y0176651D01*
X0103038Y0176651D01*
X0103038Y0175604D01*
X0103038Y0176651D02*
X0104084Y0177698D01*
X0105131Y0178221D01*
X0110909Y0172558D02*
X0110909Y0171511D01*
X0111432Y0170988D01*
X0113526Y0170988D01*
X0111432Y0173081D01*
X0113526Y0173081D01*
X0114049Y0172558D01*
X0114049Y0171511D01*
X0113526Y0170988D01*
X0114049Y0169456D02*
X0114049Y0167363D01*
X0114049Y0168410D02*
X0110909Y0168410D01*
X0111956Y0167363D01*
X0111432Y0165831D02*
X0110909Y0165308D01*
X0110909Y0164261D01*
X0111432Y0163738D01*
X0113526Y0163738D01*
X0114049Y0164261D01*
X0114049Y0165308D01*
X0113526Y0165831D01*
X0115634Y0165939D02*
X0115634Y0164369D01*
X0118773Y0164369D01*
X0117727Y0164369D02*
X0117727Y0165939D01*
X0117203Y0166462D01*
X0116157Y0166462D01*
X0115634Y0165939D01*
X0116157Y0167994D02*
X0115634Y0168518D01*
X0115634Y0169564D01*
X0116157Y0170088D01*
X0116680Y0170088D01*
X0118773Y0167994D01*
X0118773Y0170088D01*
X0120358Y0169564D02*
X0120881Y0170088D01*
X0121405Y0170088D01*
X0121928Y0169564D01*
X0122451Y0170088D01*
X0122974Y0170088D01*
X0123498Y0169564D01*
X0123498Y0168518D01*
X0122974Y0167994D01*
X0121928Y0169041D02*
X0121928Y0169564D01*
X0120358Y0169564D02*
X0120358Y0168518D01*
X0120881Y0167994D01*
X0120881Y0166462D02*
X0121928Y0166462D01*
X0122451Y0165939D01*
X0122451Y0164369D01*
X0123498Y0164369D02*
X0120358Y0164369D01*
X0120358Y0165939D01*
X0120881Y0166462D01*
X0122451Y0165416D02*
X0123498Y0166462D01*
X0125082Y0165545D02*
X0125082Y0164499D01*
X0125606Y0163976D01*
X0127699Y0163976D01*
X0128222Y0164499D01*
X0128222Y0165545D01*
X0127699Y0166069D01*
X0127699Y0167601D02*
X0128222Y0167601D01*
X0127699Y0167601D02*
X0125606Y0169694D01*
X0125082Y0169694D01*
X0125082Y0167601D01*
X0125606Y0166069D02*
X0125082Y0165545D01*
X0118773Y0166462D02*
X0117727Y0165416D01*
X0110909Y0172558D02*
X0111432Y0173081D01*
X0103664Y0164441D02*
X0104188Y0163918D01*
X0104188Y0163395D01*
X0103664Y0162871D01*
X0104188Y0162348D01*
X0104188Y0161825D01*
X0103664Y0161302D01*
X0102618Y0161302D01*
X0102094Y0161825D01*
X0103141Y0162871D02*
X0103664Y0162871D01*
X0103664Y0164441D02*
X0102618Y0164441D01*
X0102094Y0163918D01*
X0099516Y0164441D02*
X0099516Y0161302D01*
X0100562Y0161302D02*
X0098469Y0161302D01*
X0096937Y0161825D02*
X0096414Y0161302D01*
X0095367Y0161302D01*
X0094844Y0161825D01*
X0094844Y0163918D01*
X0095367Y0164441D01*
X0096414Y0164441D01*
X0096937Y0163918D01*
X0098469Y0163395D02*
X0099516Y0164441D01*
X0129490Y0153418D02*
X0131060Y0153418D01*
X0131583Y0152894D01*
X0131583Y0151848D01*
X0131060Y0151325D01*
X0129490Y0151325D01*
X0130536Y0151325D02*
X0131583Y0150278D01*
X0133115Y0150278D02*
X0135208Y0150278D01*
X0134162Y0150278D02*
X0134162Y0153418D01*
X0133115Y0152371D01*
X0136740Y0152894D02*
X0137263Y0153418D01*
X0138310Y0153418D01*
X0138833Y0152894D01*
X0136740Y0150801D01*
X0137263Y0150278D01*
X0138310Y0150278D01*
X0138833Y0150801D01*
X0138833Y0152894D01*
X0136740Y0152894D02*
X0136740Y0150801D01*
X0129490Y0150278D02*
X0129490Y0153418D01*
X0132168Y0181486D02*
X0132168Y0182795D01*
X0132168Y0182140D02*
X0136096Y0182140D01*
X0136096Y0181486D02*
X0136096Y0182795D01*
X0135441Y0184386D02*
X0136096Y0185040D01*
X0136096Y0186350D01*
X0135441Y0187004D01*
X0136096Y0188736D02*
X0133478Y0191354D01*
X0132823Y0191354D01*
X0132168Y0190700D01*
X0132168Y0189391D01*
X0132823Y0188736D01*
X0132823Y0187004D02*
X0132168Y0186350D01*
X0132168Y0185040D01*
X0132823Y0184386D01*
X0135441Y0184386D01*
X0136096Y0188736D02*
X0136096Y0191354D01*
X0060899Y0239145D02*
X0060899Y0240192D01*
X0060899Y0239668D02*
X0057760Y0239668D01*
X0057760Y0239145D02*
X0057760Y0240192D01*
X0058283Y0241562D02*
X0058806Y0241562D01*
X0059329Y0242085D01*
X0059329Y0243132D01*
X0059853Y0243655D01*
X0060376Y0243655D01*
X0060899Y0243132D01*
X0060899Y0242085D01*
X0060376Y0241562D01*
X0058283Y0241562D02*
X0057760Y0242085D01*
X0057760Y0243132D01*
X0058283Y0243655D01*
X0057760Y0245187D02*
X0057760Y0246757D01*
X0058283Y0247280D01*
X0059329Y0247280D01*
X0059853Y0246757D01*
X0059853Y0245187D01*
X0060899Y0245187D02*
X0057760Y0245187D01*
X0052851Y0259727D02*
X0050757Y0259727D01*
X0052851Y0261820D01*
X0052851Y0262343D01*
X0052327Y0262866D01*
X0051281Y0262866D01*
X0050757Y0262343D01*
X0049225Y0262866D02*
X0047132Y0259727D01*
X0049225Y0259727D02*
X0047132Y0262866D01*
D11*
X0086496Y0092004D02*
X0116417Y0092004D01*
X0116417Y0092791D01*
X0116417Y0102634D02*
X0116417Y0111295D01*
X0112874Y0111295D01*
X0090039Y0111295D02*
X0086496Y0111295D01*
X0086496Y0102634D01*
X0086496Y0092791D02*
X0086496Y0092004D01*
X0066024Y0117201D02*
X0066024Y0117594D01*
X0062087Y0117594D01*
X0062087Y0117201D01*
X0062087Y0117594D02*
X0062087Y0117988D01*
X0061299Y0117988D02*
X0061299Y0117594D01*
X0057362Y0117594D01*
X0057362Y0117201D01*
X0057362Y0117594D02*
X0057362Y0117988D01*
X0055787Y0118251D02*
X0054869Y0118251D01*
X0055655Y0119037D02*
X0055787Y0119037D01*
X0055787Y0119169D02*
X0055787Y0116807D01*
X0053425Y0116807D01*
X0055787Y0119169D01*
X0055787Y0117465D02*
X0054083Y0117465D01*
X0055787Y0116807D02*
X0047126Y0116807D01*
X0047126Y0257358D01*
X0055787Y0257358D01*
X0055787Y0116807D01*
X0061299Y0117201D02*
X0061299Y0117594D01*
X0066024Y0117594D02*
X0066024Y0117988D01*
X0069961Y0125469D02*
X0069961Y0149091D01*
X0072323Y0149091D01*
X0081772Y0149091D02*
X0084134Y0149091D01*
X0084134Y0125469D01*
X0081772Y0125469D01*
X0072323Y0125469D02*
X0069961Y0125469D01*
X0089252Y0139248D02*
X0093976Y0139248D01*
X0094370Y0140823D02*
X0094372Y0140879D01*
X0094378Y0140934D01*
X0094388Y0140988D01*
X0094401Y0141042D01*
X0094419Y0141095D01*
X0094440Y0141146D01*
X0094464Y0141196D01*
X0094492Y0141244D01*
X0094524Y0141290D01*
X0094558Y0141334D01*
X0094596Y0141375D01*
X0094636Y0141413D01*
X0094679Y0141448D01*
X0094724Y0141480D01*
X0094772Y0141509D01*
X0094821Y0141535D01*
X0094872Y0141557D01*
X0094924Y0141575D01*
X0094978Y0141589D01*
X0095033Y0141600D01*
X0095088Y0141607D01*
X0095143Y0141610D01*
X0095199Y0141609D01*
X0095254Y0141604D01*
X0095309Y0141595D01*
X0095363Y0141583D01*
X0095416Y0141566D01*
X0095468Y0141546D01*
X0095518Y0141522D01*
X0095566Y0141495D01*
X0095613Y0141465D01*
X0095657Y0141431D01*
X0095699Y0141394D01*
X0095737Y0141354D01*
X0095774Y0141312D01*
X0095807Y0141267D01*
X0095836Y0141221D01*
X0095863Y0141172D01*
X0095885Y0141121D01*
X0095905Y0141069D01*
X0095920Y0141015D01*
X0095932Y0140961D01*
X0095940Y0140906D01*
X0095944Y0140851D01*
X0095944Y0140795D01*
X0095940Y0140740D01*
X0095932Y0140685D01*
X0095920Y0140631D01*
X0095905Y0140577D01*
X0095885Y0140525D01*
X0095863Y0140474D01*
X0095836Y0140425D01*
X0095807Y0140379D01*
X0095774Y0140334D01*
X0095737Y0140292D01*
X0095699Y0140252D01*
X0095657Y0140215D01*
X0095613Y0140181D01*
X0095566Y0140151D01*
X0095518Y0140124D01*
X0095468Y0140100D01*
X0095416Y0140080D01*
X0095363Y0140063D01*
X0095309Y0140051D01*
X0095254Y0140042D01*
X0095199Y0140037D01*
X0095143Y0140036D01*
X0095088Y0140039D01*
X0095033Y0140046D01*
X0094978Y0140057D01*
X0094924Y0140071D01*
X0094872Y0140089D01*
X0094821Y0140111D01*
X0094772Y0140137D01*
X0094724Y0140166D01*
X0094679Y0140198D01*
X0094636Y0140233D01*
X0094596Y0140271D01*
X0094558Y0140312D01*
X0094524Y0140356D01*
X0094492Y0140402D01*
X0094464Y0140450D01*
X0094440Y0140500D01*
X0094419Y0140551D01*
X0094401Y0140604D01*
X0094388Y0140658D01*
X0094378Y0140712D01*
X0094372Y0140767D01*
X0094370Y0140823D01*
X0096339Y0142398D02*
X0096339Y0144760D01*
X0096406Y0144762D01*
X0096474Y0144768D01*
X0096540Y0144777D01*
X0096606Y0144791D01*
X0096672Y0144808D01*
X0096736Y0144829D01*
X0096799Y0144853D01*
X0096860Y0144881D01*
X0096920Y0144913D01*
X0096977Y0144947D01*
X0097033Y0144986D01*
X0097087Y0145027D01*
X0097138Y0145071D01*
X0097186Y0145118D01*
X0097232Y0145168D01*
X0097274Y0145220D01*
X0097314Y0145274D01*
X0097350Y0145331D01*
X0097384Y0145390D01*
X0097413Y0145450D01*
X0097440Y0145513D01*
X0097462Y0145576D01*
X0097481Y0145641D01*
X0097496Y0145706D01*
X0097508Y0145773D01*
X0097516Y0145840D01*
X0097520Y0145907D01*
X0097520Y0145975D01*
X0097516Y0146042D01*
X0097508Y0146109D01*
X0097496Y0146176D01*
X0097481Y0146241D01*
X0097462Y0146306D01*
X0097440Y0146369D01*
X0097413Y0146432D01*
X0097384Y0146492D01*
X0097350Y0146551D01*
X0097314Y0146608D01*
X0097274Y0146662D01*
X0097232Y0146714D01*
X0097186Y0146764D01*
X0097138Y0146811D01*
X0097087Y0146855D01*
X0097033Y0146896D01*
X0096977Y0146935D01*
X0096920Y0146969D01*
X0096860Y0147001D01*
X0096799Y0147029D01*
X0096736Y0147053D01*
X0096672Y0147074D01*
X0096606Y0147091D01*
X0096540Y0147105D01*
X0096474Y0147114D01*
X0096406Y0147120D01*
X0096339Y0147122D01*
X0096339Y0149484D01*
X0093976Y0152634D02*
X0089252Y0152634D01*
X0100669Y0149484D02*
X0103819Y0149484D01*
X0108150Y0149484D02*
X0108150Y0142398D01*
X0120748Y0142791D02*
X0120748Y0137280D01*
X0124488Y0137280D01*
X0129213Y0137280D02*
X0132559Y0137280D01*
X0132559Y0142791D01*
X0132362Y0142791D01*
X0133149Y0144366D02*
X0133151Y0144414D01*
X0133157Y0144462D01*
X0133167Y0144509D01*
X0133180Y0144555D01*
X0133198Y0144600D01*
X0133218Y0144644D01*
X0133243Y0144686D01*
X0133271Y0144725D01*
X0133301Y0144762D01*
X0133335Y0144796D01*
X0133372Y0144828D01*
X0133410Y0144857D01*
X0133451Y0144882D01*
X0133494Y0144904D01*
X0133539Y0144922D01*
X0133585Y0144936D01*
X0133632Y0144947D01*
X0133680Y0144954D01*
X0133728Y0144957D01*
X0133776Y0144956D01*
X0133824Y0144951D01*
X0133872Y0144942D01*
X0133918Y0144930D01*
X0133963Y0144913D01*
X0134007Y0144893D01*
X0134049Y0144870D01*
X0134089Y0144843D01*
X0134127Y0144813D01*
X0134162Y0144780D01*
X0134194Y0144744D01*
X0134224Y0144706D01*
X0134250Y0144665D01*
X0134272Y0144622D01*
X0134292Y0144578D01*
X0134307Y0144533D01*
X0134319Y0144486D01*
X0134327Y0144438D01*
X0134331Y0144390D01*
X0134331Y0144342D01*
X0134327Y0144294D01*
X0134319Y0144246D01*
X0134307Y0144199D01*
X0134292Y0144154D01*
X0134272Y0144110D01*
X0134250Y0144067D01*
X0134224Y0144026D01*
X0134194Y0143988D01*
X0134162Y0143952D01*
X0134127Y0143919D01*
X0134089Y0143889D01*
X0134049Y0143862D01*
X0134007Y0143839D01*
X0133963Y0143819D01*
X0133918Y0143802D01*
X0133872Y0143790D01*
X0133824Y0143781D01*
X0133776Y0143776D01*
X0133728Y0143775D01*
X0133680Y0143778D01*
X0133632Y0143785D01*
X0133585Y0143796D01*
X0133539Y0143810D01*
X0133494Y0143828D01*
X0133451Y0143850D01*
X0133410Y0143875D01*
X0133372Y0143904D01*
X0133335Y0143936D01*
X0133301Y0143970D01*
X0133271Y0144007D01*
X0133243Y0144046D01*
X0133218Y0144088D01*
X0133198Y0144132D01*
X0133180Y0144177D01*
X0133167Y0144223D01*
X0133157Y0144270D01*
X0133151Y0144318D01*
X0133149Y0144366D01*
X0128031Y0142791D02*
X0125276Y0142791D01*
X0120945Y0142791D02*
X0120748Y0142791D01*
X0123898Y0149878D02*
X0124291Y0149878D01*
X0124291Y0153815D01*
X0123898Y0153815D01*
X0124291Y0153815D02*
X0124685Y0153815D01*
X0124685Y0158539D02*
X0124685Y0158933D01*
X0128622Y0158933D01*
X0128622Y0159327D01*
X0128622Y0158933D02*
X0128622Y0158539D01*
X0124685Y0158933D02*
X0124685Y0159327D01*
X0123898Y0159327D02*
X0123898Y0158933D01*
X0119961Y0158933D01*
X0119961Y0159327D01*
X0119961Y0158933D02*
X0119961Y0158539D01*
X0119173Y0158539D02*
X0119173Y0158933D01*
X0115236Y0158933D01*
X0115236Y0159327D01*
X0115236Y0158933D02*
X0115236Y0158539D01*
X0114449Y0158539D02*
X0114449Y0158933D01*
X0110512Y0158933D01*
X0110512Y0158539D01*
X0110512Y0158933D02*
X0110512Y0159327D01*
X0114449Y0159327D02*
X0114449Y0158933D01*
X0119173Y0158933D02*
X0119173Y0159327D01*
X0123898Y0158933D02*
X0123898Y0158539D01*
X0124291Y0149878D02*
X0124685Y0149878D01*
X0141220Y0132161D02*
X0145945Y0132161D01*
X0144764Y0133343D01*
X0144764Y0122713D02*
X0145945Y0121531D01*
X0139252Y0121531D01*
X0147126Y0116807D02*
X0147126Y0257358D01*
X0155787Y0257358D01*
X0155787Y0116807D01*
X0153425Y0116807D01*
X0155787Y0119169D01*
X0155787Y0116807D01*
X0147126Y0116807D01*
X0146732Y0112476D02*
X0146732Y0095154D01*
X0138858Y0095154D01*
X0138858Y0112476D01*
X0146732Y0112476D01*
X0154083Y0117465D02*
X0155787Y0117465D01*
X0155787Y0118251D02*
X0154869Y0118251D01*
X0155655Y0119037D02*
X0155787Y0119037D01*
X0105787Y0169957D02*
X0105394Y0169957D01*
X0105394Y0173894D01*
X0105787Y0173894D01*
X0105394Y0173894D02*
X0105000Y0173894D01*
X0106575Y0175862D02*
X0106575Y0178618D01*
X0107953Y0178618D02*
X0107953Y0177240D01*
X0109331Y0177240D01*
X0109331Y0175862D02*
X0106575Y0175862D01*
X0105394Y0169957D02*
X0105000Y0169957D01*
X0101063Y0169169D02*
X0100669Y0169169D01*
X0100669Y0165232D01*
X0100276Y0165232D01*
X0100669Y0165232D02*
X0101063Y0165232D01*
X0100669Y0169169D02*
X0100276Y0169169D01*
X0095551Y0169957D02*
X0095157Y0169957D01*
X0095157Y0173894D01*
X0094764Y0173894D01*
X0095157Y0173894D02*
X0095551Y0173894D01*
X0095157Y0169957D02*
X0094764Y0169957D01*
X0082953Y0169563D02*
X0082955Y0169619D01*
X0082961Y0169674D01*
X0082971Y0169728D01*
X0082984Y0169782D01*
X0083002Y0169835D01*
X0083023Y0169886D01*
X0083047Y0169936D01*
X0083075Y0169984D01*
X0083107Y0170030D01*
X0083141Y0170074D01*
X0083179Y0170115D01*
X0083219Y0170153D01*
X0083262Y0170188D01*
X0083307Y0170220D01*
X0083355Y0170249D01*
X0083404Y0170275D01*
X0083455Y0170297D01*
X0083507Y0170315D01*
X0083561Y0170329D01*
X0083616Y0170340D01*
X0083671Y0170347D01*
X0083726Y0170350D01*
X0083782Y0170349D01*
X0083837Y0170344D01*
X0083892Y0170335D01*
X0083946Y0170323D01*
X0083999Y0170306D01*
X0084051Y0170286D01*
X0084101Y0170262D01*
X0084149Y0170235D01*
X0084196Y0170205D01*
X0084240Y0170171D01*
X0084282Y0170134D01*
X0084320Y0170094D01*
X0084357Y0170052D01*
X0084390Y0170007D01*
X0084419Y0169961D01*
X0084446Y0169912D01*
X0084468Y0169861D01*
X0084488Y0169809D01*
X0084503Y0169755D01*
X0084515Y0169701D01*
X0084523Y0169646D01*
X0084527Y0169591D01*
X0084527Y0169535D01*
X0084523Y0169480D01*
X0084515Y0169425D01*
X0084503Y0169371D01*
X0084488Y0169317D01*
X0084468Y0169265D01*
X0084446Y0169214D01*
X0084419Y0169165D01*
X0084390Y0169119D01*
X0084357Y0169074D01*
X0084320Y0169032D01*
X0084282Y0168992D01*
X0084240Y0168955D01*
X0084196Y0168921D01*
X0084149Y0168891D01*
X0084101Y0168864D01*
X0084051Y0168840D01*
X0083999Y0168820D01*
X0083946Y0168803D01*
X0083892Y0168791D01*
X0083837Y0168782D01*
X0083782Y0168777D01*
X0083726Y0168776D01*
X0083671Y0168779D01*
X0083616Y0168786D01*
X0083561Y0168797D01*
X0083507Y0168811D01*
X0083455Y0168829D01*
X0083404Y0168851D01*
X0083355Y0168877D01*
X0083307Y0168906D01*
X0083262Y0168938D01*
X0083219Y0168973D01*
X0083179Y0169011D01*
X0083141Y0169052D01*
X0083107Y0169096D01*
X0083075Y0169142D01*
X0083047Y0169190D01*
X0083023Y0169240D01*
X0083002Y0169291D01*
X0082984Y0169344D01*
X0082971Y0169398D01*
X0082961Y0169452D01*
X0082955Y0169507D01*
X0082953Y0169563D01*
X0082165Y0170744D02*
X0079803Y0170744D01*
X0079801Y0170811D01*
X0079795Y0170879D01*
X0079786Y0170945D01*
X0079772Y0171011D01*
X0079755Y0171077D01*
X0079734Y0171141D01*
X0079710Y0171204D01*
X0079682Y0171265D01*
X0079650Y0171325D01*
X0079616Y0171382D01*
X0079577Y0171438D01*
X0079536Y0171492D01*
X0079492Y0171543D01*
X0079445Y0171591D01*
X0079395Y0171637D01*
X0079343Y0171679D01*
X0079289Y0171719D01*
X0079232Y0171755D01*
X0079173Y0171789D01*
X0079113Y0171818D01*
X0079050Y0171845D01*
X0078987Y0171867D01*
X0078922Y0171886D01*
X0078857Y0171901D01*
X0078790Y0171913D01*
X0078723Y0171921D01*
X0078656Y0171925D01*
X0078588Y0171925D01*
X0078521Y0171921D01*
X0078454Y0171913D01*
X0078387Y0171901D01*
X0078322Y0171886D01*
X0078257Y0171867D01*
X0078194Y0171845D01*
X0078131Y0171818D01*
X0078071Y0171789D01*
X0078012Y0171755D01*
X0077955Y0171719D01*
X0077901Y0171679D01*
X0077849Y0171637D01*
X0077799Y0171591D01*
X0077752Y0171543D01*
X0077708Y0171492D01*
X0077667Y0171438D01*
X0077628Y0171382D01*
X0077594Y0171325D01*
X0077562Y0171265D01*
X0077534Y0171204D01*
X0077510Y0171141D01*
X0077489Y0171077D01*
X0077472Y0171011D01*
X0077458Y0170945D01*
X0077449Y0170879D01*
X0077443Y0170811D01*
X0077441Y0170744D01*
X0075079Y0170744D01*
X0073110Y0168776D02*
X0072717Y0168776D01*
X0072717Y0164839D01*
X0072323Y0164839D01*
X0072717Y0164839D02*
X0073110Y0164839D01*
X0072717Y0168776D02*
X0072323Y0168776D01*
X0075079Y0175075D02*
X0075079Y0178224D01*
X0075079Y0182555D02*
X0082165Y0182555D01*
X0083346Y0183736D02*
X0085315Y0183736D01*
X0085315Y0185705D01*
X0078031Y0185705D02*
X0076063Y0185705D01*
X0070748Y0183736D02*
X0068780Y0183736D01*
X0068780Y0185705D01*
X0067205Y0190035D02*
X0067205Y0190429D01*
X0063268Y0190429D01*
X0063268Y0190823D01*
X0063268Y0190429D02*
X0063268Y0190035D01*
X0067205Y0190429D02*
X0067205Y0190823D01*
X0070748Y0190626D02*
X0070748Y0190232D01*
X0068780Y0195154D02*
X0068780Y0197122D01*
X0070748Y0197122D01*
X0076063Y0195154D02*
X0078031Y0195154D01*
X0078622Y0198303D02*
X0079016Y0198303D01*
X0079016Y0202240D01*
X0078622Y0202240D01*
X0079016Y0202240D02*
X0079409Y0202240D01*
X0079409Y0198303D02*
X0079016Y0198303D01*
X0083346Y0197122D02*
X0085315Y0197122D01*
X0085315Y0195154D01*
X0085222Y0197909D02*
X0085224Y0197968D01*
X0085230Y0198026D01*
X0085240Y0198084D01*
X0085253Y0198141D01*
X0085271Y0198198D01*
X0085292Y0198253D01*
X0085317Y0198306D01*
X0085345Y0198357D01*
X0085376Y0198407D01*
X0085411Y0198454D01*
X0085449Y0198499D01*
X0085490Y0198542D01*
X0085534Y0198581D01*
X0085580Y0198617D01*
X0085628Y0198651D01*
X0085679Y0198681D01*
X0085732Y0198707D01*
X0085786Y0198730D01*
X0085841Y0198749D01*
X0085898Y0198765D01*
X0085956Y0198777D01*
X0086014Y0198785D01*
X0086073Y0198789D01*
X0086131Y0198789D01*
X0086190Y0198785D01*
X0086248Y0198777D01*
X0086306Y0198765D01*
X0086363Y0198749D01*
X0086418Y0198730D01*
X0086472Y0198707D01*
X0086525Y0198681D01*
X0086576Y0198651D01*
X0086624Y0198617D01*
X0086670Y0198581D01*
X0086714Y0198542D01*
X0086755Y0198499D01*
X0086793Y0198454D01*
X0086828Y0198407D01*
X0086859Y0198357D01*
X0086887Y0198306D01*
X0086912Y0198253D01*
X0086933Y0198198D01*
X0086951Y0198141D01*
X0086964Y0198084D01*
X0086974Y0198026D01*
X0086980Y0197968D01*
X0086982Y0197909D01*
X0086980Y0197850D01*
X0086974Y0197792D01*
X0086964Y0197734D01*
X0086951Y0197677D01*
X0086933Y0197620D01*
X0086912Y0197565D01*
X0086887Y0197512D01*
X0086859Y0197461D01*
X0086828Y0197411D01*
X0086793Y0197364D01*
X0086755Y0197319D01*
X0086714Y0197276D01*
X0086670Y0197237D01*
X0086624Y0197201D01*
X0086576Y0197167D01*
X0086525Y0197137D01*
X0086472Y0197111D01*
X0086418Y0197088D01*
X0086363Y0197069D01*
X0086306Y0197053D01*
X0086248Y0197041D01*
X0086190Y0197033D01*
X0086131Y0197029D01*
X0086073Y0197029D01*
X0086014Y0197033D01*
X0085956Y0197041D01*
X0085898Y0197053D01*
X0085841Y0197069D01*
X0085786Y0197088D01*
X0085732Y0197111D01*
X0085679Y0197137D01*
X0085628Y0197167D01*
X0085580Y0197201D01*
X0085534Y0197237D01*
X0085490Y0197276D01*
X0085449Y0197319D01*
X0085411Y0197364D01*
X0085376Y0197411D01*
X0085345Y0197461D01*
X0085317Y0197512D01*
X0085292Y0197565D01*
X0085271Y0197620D01*
X0085253Y0197677D01*
X0085240Y0197734D01*
X0085230Y0197792D01*
X0085224Y0197850D01*
X0085222Y0197909D01*
X0083346Y0190626D02*
X0083346Y0190232D01*
X0094370Y0190823D02*
X0094764Y0190823D01*
X0094764Y0194760D01*
X0094370Y0194760D01*
X0094764Y0194760D02*
X0095157Y0194760D01*
X0095157Y0196335D02*
X0094764Y0196335D01*
X0094764Y0200272D01*
X0094370Y0200272D01*
X0094764Y0200272D02*
X0095157Y0200272D01*
X0095157Y0201846D02*
X0094764Y0201846D01*
X0094764Y0205783D01*
X0094370Y0205783D01*
X0094764Y0205783D02*
X0095157Y0205783D01*
X0094764Y0201846D02*
X0094370Y0201846D01*
X0094370Y0196335D02*
X0094764Y0196335D01*
X0094764Y0190823D02*
X0095157Y0190823D01*
X0097520Y0185311D02*
X0097913Y0185311D01*
X0097913Y0181374D01*
X0097520Y0181374D01*
X0097913Y0181374D02*
X0098307Y0181374D01*
X0098307Y0185311D02*
X0097913Y0185311D01*
X0106575Y0195154D02*
X0106575Y0197909D01*
X0109331Y0197909D01*
X0109331Y0196531D02*
X0107953Y0196531D01*
X0107953Y0195154D01*
X0105000Y0198697D02*
X0105002Y0198753D01*
X0105008Y0198808D01*
X0105018Y0198862D01*
X0105031Y0198916D01*
X0105049Y0198969D01*
X0105070Y0199020D01*
X0105094Y0199070D01*
X0105122Y0199118D01*
X0105154Y0199164D01*
X0105188Y0199208D01*
X0105226Y0199249D01*
X0105266Y0199287D01*
X0105309Y0199322D01*
X0105354Y0199354D01*
X0105402Y0199383D01*
X0105451Y0199409D01*
X0105502Y0199431D01*
X0105554Y0199449D01*
X0105608Y0199463D01*
X0105663Y0199474D01*
X0105718Y0199481D01*
X0105773Y0199484D01*
X0105829Y0199483D01*
X0105884Y0199478D01*
X0105939Y0199469D01*
X0105993Y0199457D01*
X0106046Y0199440D01*
X0106098Y0199420D01*
X0106148Y0199396D01*
X0106196Y0199369D01*
X0106243Y0199339D01*
X0106287Y0199305D01*
X0106329Y0199268D01*
X0106367Y0199228D01*
X0106404Y0199186D01*
X0106437Y0199141D01*
X0106466Y0199095D01*
X0106493Y0199046D01*
X0106515Y0198995D01*
X0106535Y0198943D01*
X0106550Y0198889D01*
X0106562Y0198835D01*
X0106570Y0198780D01*
X0106574Y0198725D01*
X0106574Y0198669D01*
X0106570Y0198614D01*
X0106562Y0198559D01*
X0106550Y0198505D01*
X0106535Y0198451D01*
X0106515Y0198399D01*
X0106493Y0198348D01*
X0106466Y0198299D01*
X0106437Y0198253D01*
X0106404Y0198208D01*
X0106367Y0198166D01*
X0106329Y0198126D01*
X0106287Y0198089D01*
X0106243Y0198055D01*
X0106196Y0198025D01*
X0106148Y0197998D01*
X0106098Y0197974D01*
X0106046Y0197954D01*
X0105993Y0197937D01*
X0105939Y0197925D01*
X0105884Y0197916D01*
X0105829Y0197911D01*
X0105773Y0197910D01*
X0105718Y0197913D01*
X0105663Y0197920D01*
X0105608Y0197931D01*
X0105554Y0197945D01*
X0105502Y0197963D01*
X0105451Y0197985D01*
X0105402Y0198011D01*
X0105354Y0198040D01*
X0105309Y0198072D01*
X0105266Y0198107D01*
X0105226Y0198145D01*
X0105188Y0198186D01*
X0105154Y0198230D01*
X0105122Y0198276D01*
X0105094Y0198324D01*
X0105070Y0198374D01*
X0105049Y0198425D01*
X0105031Y0198478D01*
X0105018Y0198532D01*
X0105008Y0198586D01*
X0105002Y0198641D01*
X0105000Y0198697D01*
X0113661Y0204996D02*
X0113661Y0205390D01*
X0117598Y0205390D01*
X0117598Y0205783D01*
X0117598Y0205390D02*
X0117598Y0204996D01*
X0113661Y0205390D02*
X0113661Y0205783D01*
X0123110Y0208146D02*
X0123110Y0245941D01*
X0140039Y0245941D01*
X0140039Y0208146D01*
X0123110Y0208146D01*
X0123110Y0208631D02*
X0140039Y0208631D01*
X0140039Y0209417D02*
X0123110Y0209417D01*
X0123110Y0210203D02*
X0140039Y0210203D01*
X0140039Y0210989D02*
X0123110Y0210989D01*
X0123110Y0211775D02*
X0140039Y0211775D01*
X0140039Y0212560D02*
X0123110Y0212560D01*
X0123110Y0213346D02*
X0140039Y0213346D01*
X0140039Y0214132D02*
X0123110Y0214132D01*
X0123110Y0214918D02*
X0140039Y0214918D01*
X0140039Y0215704D02*
X0123110Y0215704D01*
X0123110Y0216490D02*
X0140039Y0216490D01*
X0140039Y0217276D02*
X0123110Y0217276D01*
X0123110Y0218062D02*
X0140039Y0218062D01*
X0140039Y0218848D02*
X0123110Y0218848D01*
X0123110Y0219634D02*
X0140039Y0219634D01*
X0140039Y0220420D02*
X0123110Y0220420D01*
X0123110Y0221205D02*
X0140039Y0221205D01*
X0140039Y0221991D02*
X0123110Y0221991D01*
X0123110Y0222777D02*
X0140039Y0222777D01*
X0140039Y0223563D02*
X0123110Y0223563D01*
X0123110Y0224349D02*
X0140039Y0224349D01*
X0140039Y0225135D02*
X0123110Y0225135D01*
X0123110Y0225921D02*
X0140039Y0225921D01*
X0140039Y0226707D02*
X0123110Y0226707D01*
X0123110Y0227493D02*
X0140039Y0227493D01*
X0140039Y0228279D02*
X0123110Y0228279D01*
X0123110Y0229065D02*
X0140039Y0229065D01*
X0140039Y0229851D02*
X0123110Y0229851D01*
X0123110Y0230636D02*
X0140039Y0230636D01*
X0140039Y0231422D02*
X0123110Y0231422D01*
X0123110Y0232208D02*
X0140039Y0232208D01*
X0140039Y0232994D02*
X0123110Y0232994D01*
X0123110Y0233780D02*
X0140039Y0233780D01*
X0140039Y0234566D02*
X0123110Y0234566D01*
X0123110Y0235352D02*
X0140039Y0235352D01*
X0140039Y0236138D02*
X0123110Y0236138D01*
X0123110Y0236924D02*
X0140039Y0236924D01*
X0140039Y0237710D02*
X0123110Y0237710D01*
X0123110Y0238496D02*
X0140039Y0238496D01*
X0140039Y0239281D02*
X0123110Y0239281D01*
X0123110Y0240067D02*
X0140039Y0240067D01*
X0140039Y0240853D02*
X0123110Y0240853D01*
X0123110Y0241639D02*
X0140039Y0241639D01*
X0140039Y0242425D02*
X0123110Y0242425D01*
X0123110Y0243211D02*
X0140039Y0243211D01*
X0140039Y0243997D02*
X0123110Y0243997D01*
X0123110Y0244783D02*
X0140039Y0244783D01*
X0140039Y0245569D02*
X0123110Y0245569D01*
X0121785Y0243321D02*
X0121800Y0243171D01*
X0120547Y0241320D01*
X0120536Y0241209D01*
X0120885Y0240367D01*
X0120820Y0240212D01*
X0117025Y0238663D01*
X0117205Y0239051D02*
X0115039Y0240823D01*
X0112480Y0240035D01*
X0111299Y0237673D01*
X0112677Y0234917D01*
X0115236Y0234720D01*
X0117205Y0236295D01*
X0120551Y0234720D01*
X0119961Y0233933D01*
X0121535Y0232161D01*
X0120157Y0230980D01*
X0118189Y0231965D01*
X0115827Y0230980D01*
X0115433Y0228815D01*
X0113661Y0228815D01*
X0113071Y0231177D01*
X0110906Y0231965D01*
X0109331Y0230783D01*
X0107756Y0232161D01*
X0108937Y0233933D01*
X0107953Y0236295D01*
X0105787Y0236689D01*
X0105787Y0238657D01*
X0108150Y0239051D01*
X0108937Y0241413D01*
X0107756Y0243185D01*
X0108937Y0244366D01*
X0110906Y0243185D01*
X0113071Y0244169D01*
X0113661Y0246335D01*
X0115433Y0246335D01*
X0115827Y0244169D01*
X0118189Y0243185D01*
X0120157Y0244366D01*
X0121339Y0243185D01*
X0120157Y0241413D01*
X0120354Y0240429D01*
X0117205Y0239051D01*
X0116923Y0239281D02*
X0117731Y0239281D01*
X0115963Y0240067D02*
X0119527Y0240067D01*
X0120269Y0240853D02*
X0108750Y0240853D01*
X0108515Y0241209D02*
X0108504Y0241320D01*
X0107251Y0243171D01*
X0107266Y0243321D01*
X0108847Y0244902D01*
X0108997Y0244916D01*
X0110848Y0243664D01*
X0110959Y0243653D01*
X0112797Y0244414D01*
X0112868Y0244501D01*
X0113291Y0246695D01*
X0113407Y0246791D01*
X0115644Y0246791D01*
X0115760Y0246695D01*
X0116183Y0244501D01*
X0116254Y0244414D01*
X0118092Y0243653D01*
X0118203Y0243664D01*
X0120054Y0244916D01*
X0120204Y0244902D01*
X0121785Y0243321D01*
X0121313Y0243211D02*
X0118232Y0243211D01*
X0118127Y0243211D02*
X0110963Y0243211D01*
X0110862Y0243211D02*
X0107782Y0243211D01*
X0108263Y0242425D02*
X0120832Y0242425D01*
X0120308Y0241639D02*
X0108786Y0241639D01*
X0108515Y0241209D02*
X0107753Y0239371D01*
X0107667Y0239300D01*
X0105472Y0238877D01*
X0105377Y0238761D01*
X0105377Y0236524D01*
X0105472Y0236408D01*
X0107667Y0235985D01*
X0107753Y0235914D01*
X0108515Y0234076D01*
X0108504Y0233964D01*
X0107251Y0232113D01*
X0107266Y0231964D01*
X0108847Y0230382D01*
X0108997Y0230368D01*
X0110848Y0231620D01*
X0110959Y0231632D01*
X0112797Y0230870D01*
X0112868Y0230783D01*
X0113291Y0228589D01*
X0113407Y0228493D01*
X0115644Y0228493D01*
X0115760Y0228589D01*
X0116183Y0230783D01*
X0116254Y0230870D01*
X0118092Y0231632D01*
X0118203Y0231620D01*
X0120054Y0230368D01*
X0120204Y0230382D01*
X0121785Y0231964D01*
X0121800Y0232113D01*
X0120547Y0233964D01*
X0120536Y0234076D01*
X0120885Y0234917D01*
X0120820Y0235072D01*
X0117025Y0236622D01*
X0117008Y0236138D02*
X0117539Y0236138D01*
X0116026Y0235352D02*
X0119209Y0235352D01*
X0120435Y0234566D02*
X0108673Y0234566D01*
X0108835Y0233780D02*
X0120097Y0233780D01*
X0120795Y0232994D02*
X0108311Y0232994D01*
X0107787Y0232208D02*
X0121494Y0232208D01*
X0120673Y0231422D02*
X0119273Y0231422D01*
X0116888Y0231422D02*
X0112397Y0231422D01*
X0113206Y0230636D02*
X0115764Y0230636D01*
X0115621Y0229851D02*
X0113403Y0229851D01*
X0113599Y0229065D02*
X0115478Y0229065D01*
X0110183Y0231422D02*
X0108601Y0231422D01*
X0108346Y0235352D02*
X0112460Y0235352D01*
X0112067Y0236138D02*
X0108018Y0236138D01*
X0105787Y0236924D02*
X0111674Y0236924D01*
X0111317Y0237710D02*
X0105787Y0237710D01*
X0105787Y0238496D02*
X0111710Y0238496D01*
X0112103Y0239281D02*
X0108226Y0239281D01*
X0108488Y0240067D02*
X0112584Y0240067D01*
X0116811Y0238854D02*
X0116764Y0238944D01*
X0116713Y0239032D01*
X0116659Y0239119D01*
X0116602Y0239203D01*
X0116541Y0239285D01*
X0116478Y0239364D01*
X0116411Y0239441D01*
X0116342Y0239515D01*
X0116269Y0239587D01*
X0116194Y0239655D01*
X0116116Y0239721D01*
X0116036Y0239784D01*
X0115954Y0239843D01*
X0115869Y0239900D01*
X0115782Y0239953D01*
X0115693Y0240002D01*
X0115603Y0240049D01*
X0115510Y0240091D01*
X0115416Y0240130D01*
X0115321Y0240166D01*
X0115224Y0240198D01*
X0115127Y0240226D01*
X0115028Y0240250D01*
X0114928Y0240270D01*
X0114828Y0240287D01*
X0114727Y0240299D01*
X0114625Y0240308D01*
X0114524Y0240313D01*
X0114422Y0240314D01*
X0114320Y0240311D01*
X0114219Y0240304D01*
X0114117Y0240293D01*
X0114017Y0240278D01*
X0113917Y0240260D01*
X0113817Y0240237D01*
X0113719Y0240211D01*
X0113622Y0240181D01*
X0113526Y0240147D01*
X0113431Y0240110D01*
X0113338Y0240069D01*
X0113247Y0240024D01*
X0113157Y0239976D01*
X0113069Y0239925D01*
X0112984Y0239870D01*
X0112900Y0239812D01*
X0112819Y0239751D01*
X0112740Y0239686D01*
X0112664Y0239619D01*
X0112590Y0239549D01*
X0112519Y0239476D01*
X0112451Y0239400D01*
X0112386Y0239322D01*
X0112324Y0239241D01*
X0112265Y0239158D01*
X0112210Y0239073D01*
X0112157Y0238986D01*
X0112108Y0238896D01*
X0112063Y0238805D01*
X0112021Y0238713D01*
X0111983Y0238618D01*
X0111948Y0238523D01*
X0111918Y0238426D01*
X0111890Y0238328D01*
X0111867Y0238229D01*
X0111848Y0238129D01*
X0111832Y0238028D01*
X0111820Y0237927D01*
X0111812Y0237826D01*
X0111808Y0237724D01*
X0111808Y0237622D01*
X0111812Y0237520D01*
X0111820Y0237419D01*
X0111832Y0237318D01*
X0111848Y0237217D01*
X0111867Y0237117D01*
X0111890Y0237018D01*
X0111918Y0236920D01*
X0111948Y0236823D01*
X0111983Y0236728D01*
X0112021Y0236633D01*
X0112063Y0236541D01*
X0112108Y0236450D01*
X0112157Y0236360D01*
X0112210Y0236273D01*
X0112265Y0236188D01*
X0112324Y0236105D01*
X0112386Y0236024D01*
X0112451Y0235946D01*
X0112519Y0235870D01*
X0112590Y0235797D01*
X0112664Y0235727D01*
X0112740Y0235660D01*
X0112819Y0235595D01*
X0112900Y0235534D01*
X0112984Y0235476D01*
X0113069Y0235421D01*
X0113157Y0235370D01*
X0113247Y0235322D01*
X0113338Y0235277D01*
X0113431Y0235236D01*
X0113526Y0235199D01*
X0113622Y0235165D01*
X0113719Y0235135D01*
X0113817Y0235109D01*
X0113917Y0235086D01*
X0114017Y0235068D01*
X0114117Y0235053D01*
X0114219Y0235042D01*
X0114320Y0235035D01*
X0114422Y0235032D01*
X0114524Y0235033D01*
X0114625Y0235038D01*
X0114727Y0235047D01*
X0114828Y0235059D01*
X0114928Y0235076D01*
X0115028Y0235096D01*
X0115127Y0235120D01*
X0115224Y0235148D01*
X0115321Y0235180D01*
X0115416Y0235216D01*
X0115510Y0235255D01*
X0115603Y0235297D01*
X0115693Y0235344D01*
X0115782Y0235393D01*
X0115869Y0235446D01*
X0115954Y0235503D01*
X0116036Y0235562D01*
X0116116Y0235625D01*
X0116194Y0235691D01*
X0116269Y0235759D01*
X0116342Y0235831D01*
X0116411Y0235905D01*
X0116478Y0235982D01*
X0116541Y0236061D01*
X0116602Y0236143D01*
X0116659Y0236227D01*
X0116713Y0236314D01*
X0116764Y0236402D01*
X0116811Y0236492D01*
X0116240Y0243997D02*
X0112692Y0243997D01*
X0113238Y0244783D02*
X0115715Y0244783D01*
X0115572Y0245569D02*
X0113453Y0245569D01*
X0109552Y0243997D02*
X0108568Y0243997D01*
X0112874Y0250272D02*
X0113268Y0250272D01*
X0113268Y0254209D01*
X0113661Y0254209D01*
X0113268Y0254209D02*
X0112874Y0254209D01*
X0116024Y0254996D02*
X0116024Y0285705D01*
X0086890Y0285705D01*
X0086890Y0254996D01*
X0116024Y0254996D01*
X0113661Y0250272D02*
X0113268Y0250272D01*
X0119542Y0243997D02*
X0120527Y0243997D01*
X0122323Y0253815D02*
X0122323Y0256177D01*
X0127047Y0256177D02*
X0127047Y0253815D01*
X0142008Y0251846D02*
X0145945Y0251846D01*
X0144764Y0253028D01*
X0104606Y0219563D02*
X0104606Y0219169D01*
X0104606Y0218776D01*
X0100669Y0218776D02*
X0100669Y0219169D01*
X0100669Y0219563D01*
X0099882Y0219563D02*
X0099882Y0219169D01*
X0099882Y0218776D01*
X0095945Y0218776D02*
X0095945Y0219169D01*
X0095945Y0219563D01*
X0093583Y0214445D02*
X0091220Y0214445D01*
X0093583Y0214445D02*
X0093583Y0238067D01*
X0091220Y0238067D01*
X0081772Y0238067D02*
X0079409Y0238067D01*
X0079409Y0214445D01*
X0081772Y0214445D01*
X0073898Y0214445D02*
X0071535Y0214445D01*
X0073898Y0214445D02*
X0073898Y0238067D01*
X0071535Y0238067D01*
X0062087Y0238067D02*
X0059724Y0238067D01*
X0059724Y0214445D01*
X0062087Y0214445D01*
X0084134Y0253815D02*
X0084136Y0253894D01*
X0084142Y0253973D01*
X0084152Y0254052D01*
X0084166Y0254130D01*
X0084183Y0254207D01*
X0084205Y0254283D01*
X0084230Y0254358D01*
X0084260Y0254431D01*
X0084292Y0254503D01*
X0084329Y0254574D01*
X0084369Y0254642D01*
X0084412Y0254708D01*
X0084458Y0254772D01*
X0084508Y0254834D01*
X0084561Y0254893D01*
X0084616Y0254949D01*
X0084675Y0255003D01*
X0084736Y0255053D01*
X0084799Y0255101D01*
X0084865Y0255145D01*
X0084933Y0255186D01*
X0085003Y0255223D01*
X0085074Y0255257D01*
X0085148Y0255287D01*
X0085222Y0255313D01*
X0085298Y0255335D01*
X0085375Y0255354D01*
X0085453Y0255369D01*
X0085531Y0255380D01*
X0085610Y0255387D01*
X0085689Y0255390D01*
X0085768Y0255389D01*
X0085847Y0255384D01*
X0085926Y0255375D01*
X0086004Y0255362D01*
X0086081Y0255345D01*
X0086158Y0255325D01*
X0086233Y0255300D01*
X0086307Y0255272D01*
X0086380Y0255240D01*
X0086450Y0255205D01*
X0086519Y0255166D01*
X0086586Y0255123D01*
X0086651Y0255077D01*
X0086713Y0255029D01*
X0086773Y0254977D01*
X0086830Y0254922D01*
X0086884Y0254864D01*
X0086935Y0254804D01*
X0086983Y0254741D01*
X0087028Y0254676D01*
X0087070Y0254608D01*
X0087108Y0254539D01*
X0087142Y0254468D01*
X0087173Y0254395D01*
X0087201Y0254320D01*
X0087224Y0254245D01*
X0087244Y0254168D01*
X0087260Y0254091D01*
X0087272Y0254012D01*
X0087280Y0253934D01*
X0087284Y0253855D01*
X0087284Y0253775D01*
X0087280Y0253696D01*
X0087272Y0253618D01*
X0087260Y0253539D01*
X0087244Y0253462D01*
X0087224Y0253385D01*
X0087201Y0253310D01*
X0087173Y0253235D01*
X0087142Y0253162D01*
X0087108Y0253091D01*
X0087070Y0253022D01*
X0087028Y0252954D01*
X0086983Y0252889D01*
X0086935Y0252826D01*
X0086884Y0252766D01*
X0086830Y0252708D01*
X0086773Y0252653D01*
X0086713Y0252601D01*
X0086651Y0252553D01*
X0086586Y0252507D01*
X0086519Y0252464D01*
X0086450Y0252425D01*
X0086380Y0252390D01*
X0086307Y0252358D01*
X0086233Y0252330D01*
X0086158Y0252305D01*
X0086081Y0252285D01*
X0086004Y0252268D01*
X0085926Y0252255D01*
X0085847Y0252246D01*
X0085768Y0252241D01*
X0085689Y0252240D01*
X0085610Y0252243D01*
X0085531Y0252250D01*
X0085453Y0252261D01*
X0085375Y0252276D01*
X0085298Y0252295D01*
X0085222Y0252317D01*
X0085148Y0252343D01*
X0085074Y0252373D01*
X0085003Y0252407D01*
X0084933Y0252444D01*
X0084865Y0252485D01*
X0084799Y0252529D01*
X0084736Y0252577D01*
X0084675Y0252627D01*
X0084616Y0252681D01*
X0084561Y0252737D01*
X0084508Y0252796D01*
X0084458Y0252858D01*
X0084412Y0252922D01*
X0084369Y0252988D01*
X0084329Y0253056D01*
X0084292Y0253127D01*
X0084260Y0253199D01*
X0084230Y0253272D01*
X0084205Y0253347D01*
X0084183Y0253423D01*
X0084166Y0253500D01*
X0084152Y0253578D01*
X0084142Y0253657D01*
X0084136Y0253736D01*
X0084134Y0253815D01*
X0125866Y0197909D02*
X0128622Y0197909D01*
X0128622Y0195154D01*
X0127244Y0195154D02*
X0127244Y0196531D01*
X0125866Y0196531D01*
X0127244Y0178618D02*
X0127244Y0177240D01*
X0125866Y0177240D01*
X0125866Y0175862D02*
X0128622Y0175862D01*
X0128622Y0178618D01*
X0054606Y0108146D02*
X0054606Y0107752D01*
X0050669Y0107752D01*
X0050669Y0107358D01*
X0050669Y0107752D02*
X0050669Y0108146D01*
X0054606Y0107752D02*
X0054606Y0107358D01*
D12*
X0095157Y0140823D03*
X0083740Y0169563D03*
D13*
X0133740Y0144563D02*
X0133740Y0144169D01*
D14*
X0072323Y0111295D02*
X0072323Y0097122D01*
X0065236Y0097122D01*
X0065236Y0111295D01*
X0072323Y0111295D01*
X0071215Y0107408D02*
X0070354Y0107408D01*
X0070354Y0107752D02*
X0072323Y0106965D01*
X0070354Y0106177D01*
X0070354Y0107752D01*
X0070354Y0106819D02*
X0071958Y0106819D01*
X0070485Y0106230D02*
X0070354Y0106230D01*
X0070354Y0102240D02*
X0072323Y0101453D01*
X0070354Y0100665D01*
X0070354Y0102240D01*
X0070354Y0102106D02*
X0070689Y0102106D01*
X0070354Y0101517D02*
X0072162Y0101517D01*
X0071011Y0100928D02*
X0070354Y0100928D01*
X0069961Y0095941D02*
X0069961Y0093579D01*
X0069961Y0094760D02*
X0067598Y0095547D01*
X0067598Y0093972D01*
X0069961Y0094760D01*
X0069128Y0095037D02*
X0067598Y0095037D01*
X0067598Y0094448D02*
X0069026Y0094448D01*
X0072323Y0094760D02*
X0065236Y0094760D01*
D15*
X0066917Y0098159D02*
X0068243Y0098159D01*
X0068685Y0098601D01*
X0068685Y0099043D01*
X0068243Y0099485D01*
X0066917Y0099485D01*
X0066917Y0098159D02*
X0066917Y0100811D01*
X0068243Y0100811D01*
X0068685Y0100369D01*
X0068685Y0099927D01*
X0068243Y0099485D01*
X0068243Y0102884D02*
X0068685Y0103326D01*
X0068685Y0104210D01*
X0067801Y0104210D01*
X0068685Y0105094D02*
X0068243Y0105536D01*
X0067359Y0105536D01*
X0066917Y0105094D01*
X0066917Y0103326D01*
X0067359Y0102884D01*
X0068243Y0102884D01*
X0068685Y0107608D02*
X0067801Y0108492D01*
X0068243Y0108492D02*
X0066917Y0108492D01*
X0066917Y0107608D02*
X0066917Y0110260D01*
X0068243Y0110260D01*
X0068685Y0109818D01*
X0068685Y0108934D01*
X0068243Y0108492D01*
D16*
X0086102Y0197909D03*
D17*
X0105787Y0198697D03*
D18*
X0140742Y0109386D02*
X0142794Y0107334D01*
X0142794Y0110070D01*
X0144845Y0109386D02*
X0140742Y0109386D01*
X0144161Y0105716D02*
X0144845Y0105716D01*
X0144845Y0105032D01*
X0144161Y0105032D01*
X0144161Y0105716D01*
X0144161Y0103164D02*
X0141426Y0103164D01*
X0144161Y0100428D01*
X0144845Y0101112D01*
X0144845Y0102480D01*
X0144161Y0103164D01*
X0141426Y0103164D02*
X0140742Y0102480D01*
X0140742Y0101112D01*
X0141426Y0100428D01*
X0144161Y0100428D01*
X0142110Y0098643D02*
X0142110Y0097960D01*
X0143477Y0096592D01*
X0142110Y0096592D02*
X0144845Y0096592D01*
M02*
