G75*
%MOIN*%
%OFA0B0*%
%FSLAX24Y24*%
%IPPOS*%
%LPD*%
%AMOC8*
5,1,8,0,0,1.08239X$1,22.5*
%
%ADD10C,0.0000*%
%ADD11C,0.0008*%
D10*
X005054Y003625D02*
X021590Y003625D01*
X005054Y003625D01*
X004424Y005200D02*
X004426Y005250D01*
X004432Y005300D01*
X004442Y005349D01*
X004456Y005397D01*
X004473Y005444D01*
X004494Y005489D01*
X004519Y005533D01*
X004547Y005574D01*
X004579Y005613D01*
X004613Y005650D01*
X004650Y005684D01*
X004690Y005714D01*
X004732Y005741D01*
X004776Y005765D01*
X004822Y005786D01*
X004869Y005802D01*
X004917Y005815D01*
X004967Y005824D01*
X005016Y005829D01*
X005067Y005830D01*
X005117Y005827D01*
X005166Y005820D01*
X005215Y005809D01*
X005263Y005794D01*
X005309Y005776D01*
X005354Y005754D01*
X005397Y005728D01*
X005438Y005699D01*
X005477Y005667D01*
X005513Y005632D01*
X005545Y005594D01*
X005575Y005554D01*
X005602Y005511D01*
X005625Y005467D01*
X005644Y005421D01*
X005660Y005373D01*
X005672Y005324D01*
X005680Y005275D01*
X005684Y005225D01*
X005684Y005175D01*
X005680Y005125D01*
X005672Y005076D01*
X005660Y005027D01*
X005644Y004979D01*
X005625Y004933D01*
X005602Y004889D01*
X005575Y004846D01*
X005545Y004806D01*
X005513Y004768D01*
X005477Y004733D01*
X005438Y004701D01*
X005397Y004672D01*
X005354Y004646D01*
X005309Y004624D01*
X005263Y004606D01*
X005215Y004591D01*
X005166Y004580D01*
X005117Y004573D01*
X005067Y004570D01*
X005016Y004571D01*
X004967Y004576D01*
X004917Y004585D01*
X004869Y004598D01*
X004822Y004614D01*
X004776Y004635D01*
X004732Y004659D01*
X004690Y004686D01*
X004650Y004716D01*
X004613Y004750D01*
X004579Y004787D01*
X004547Y004826D01*
X004519Y004867D01*
X004494Y004911D01*
X004473Y004956D01*
X004456Y005003D01*
X004442Y005051D01*
X004432Y005100D01*
X004426Y005150D01*
X004424Y005200D01*
X003479Y005200D02*
X003481Y005123D01*
X003487Y005046D01*
X003496Y004969D01*
X003509Y004893D01*
X003526Y004817D01*
X003547Y004743D01*
X003571Y004669D01*
X003599Y004597D01*
X003630Y004527D01*
X003665Y004458D01*
X003703Y004390D01*
X003744Y004325D01*
X003789Y004262D01*
X003837Y004201D01*
X003887Y004142D01*
X003940Y004086D01*
X003996Y004033D01*
X004055Y003983D01*
X004116Y003935D01*
X004179Y003890D01*
X004244Y003849D01*
X004312Y003811D01*
X004381Y003776D01*
X004451Y003745D01*
X004523Y003717D01*
X004597Y003693D01*
X004671Y003672D01*
X004747Y003655D01*
X004823Y003642D01*
X004900Y003633D01*
X004977Y003627D01*
X005054Y003625D01*
X004977Y003627D01*
X004900Y003633D01*
X004823Y003642D01*
X004747Y003655D01*
X004671Y003672D01*
X004597Y003693D01*
X004523Y003717D01*
X004451Y003745D01*
X004381Y003776D01*
X004312Y003811D01*
X004244Y003849D01*
X004179Y003890D01*
X004116Y003935D01*
X004055Y003983D01*
X003996Y004033D01*
X003940Y004086D01*
X003887Y004142D01*
X003837Y004201D01*
X003789Y004262D01*
X003744Y004325D01*
X003703Y004390D01*
X003665Y004458D01*
X003630Y004527D01*
X003599Y004597D01*
X003571Y004669D01*
X003547Y004743D01*
X003526Y004817D01*
X003509Y004893D01*
X003496Y004969D01*
X003487Y005046D01*
X003481Y005123D01*
X003479Y005200D01*
X003480Y005200D02*
X003480Y014255D01*
X003480Y005200D01*
X004424Y014255D02*
X004426Y014305D01*
X004432Y014355D01*
X004442Y014404D01*
X004456Y014452D01*
X004473Y014499D01*
X004494Y014544D01*
X004519Y014588D01*
X004547Y014629D01*
X004579Y014668D01*
X004613Y014705D01*
X004650Y014739D01*
X004690Y014769D01*
X004732Y014796D01*
X004776Y014820D01*
X004822Y014841D01*
X004869Y014857D01*
X004917Y014870D01*
X004967Y014879D01*
X005016Y014884D01*
X005067Y014885D01*
X005117Y014882D01*
X005166Y014875D01*
X005215Y014864D01*
X005263Y014849D01*
X005309Y014831D01*
X005354Y014809D01*
X005397Y014783D01*
X005438Y014754D01*
X005477Y014722D01*
X005513Y014687D01*
X005545Y014649D01*
X005575Y014609D01*
X005602Y014566D01*
X005625Y014522D01*
X005644Y014476D01*
X005660Y014428D01*
X005672Y014379D01*
X005680Y014330D01*
X005684Y014280D01*
X005684Y014230D01*
X005680Y014180D01*
X005672Y014131D01*
X005660Y014082D01*
X005644Y014034D01*
X005625Y013988D01*
X005602Y013944D01*
X005575Y013901D01*
X005545Y013861D01*
X005513Y013823D01*
X005477Y013788D01*
X005438Y013756D01*
X005397Y013727D01*
X005354Y013701D01*
X005309Y013679D01*
X005263Y013661D01*
X005215Y013646D01*
X005166Y013635D01*
X005117Y013628D01*
X005067Y013625D01*
X005016Y013626D01*
X004967Y013631D01*
X004917Y013640D01*
X004869Y013653D01*
X004822Y013669D01*
X004776Y013690D01*
X004732Y013714D01*
X004690Y013741D01*
X004650Y013771D01*
X004613Y013805D01*
X004579Y013842D01*
X004547Y013881D01*
X004519Y013922D01*
X004494Y013966D01*
X004473Y014011D01*
X004456Y014058D01*
X004442Y014106D01*
X004432Y014155D01*
X004426Y014205D01*
X004424Y014255D01*
X003479Y014255D02*
X003481Y014332D01*
X003487Y014409D01*
X003496Y014486D01*
X003509Y014562D01*
X003526Y014638D01*
X003547Y014712D01*
X003571Y014786D01*
X003599Y014858D01*
X003630Y014928D01*
X003665Y014997D01*
X003703Y015065D01*
X003744Y015130D01*
X003789Y015193D01*
X003837Y015254D01*
X003887Y015313D01*
X003940Y015369D01*
X003996Y015422D01*
X004055Y015472D01*
X004116Y015520D01*
X004179Y015565D01*
X004244Y015606D01*
X004312Y015644D01*
X004381Y015679D01*
X004451Y015710D01*
X004523Y015738D01*
X004597Y015762D01*
X004671Y015783D01*
X004747Y015800D01*
X004823Y015813D01*
X004900Y015822D01*
X004977Y015828D01*
X005054Y015830D01*
X021590Y015830D01*
X005054Y015830D01*
X004977Y015828D01*
X004900Y015822D01*
X004823Y015813D01*
X004747Y015800D01*
X004671Y015783D01*
X004597Y015762D01*
X004523Y015738D01*
X004451Y015710D01*
X004381Y015679D01*
X004312Y015644D01*
X004244Y015606D01*
X004179Y015565D01*
X004116Y015520D01*
X004055Y015472D01*
X003996Y015422D01*
X003940Y015369D01*
X003887Y015313D01*
X003837Y015254D01*
X003789Y015193D01*
X003744Y015130D01*
X003703Y015065D01*
X003665Y014997D01*
X003630Y014928D01*
X003599Y014858D01*
X003571Y014786D01*
X003547Y014712D01*
X003526Y014638D01*
X003509Y014562D01*
X003496Y014486D01*
X003487Y014409D01*
X003481Y014332D01*
X003479Y014255D01*
X020960Y014255D02*
X020962Y014305D01*
X020968Y014355D01*
X020978Y014404D01*
X020992Y014452D01*
X021009Y014499D01*
X021030Y014544D01*
X021055Y014588D01*
X021083Y014629D01*
X021115Y014668D01*
X021149Y014705D01*
X021186Y014739D01*
X021226Y014769D01*
X021268Y014796D01*
X021312Y014820D01*
X021358Y014841D01*
X021405Y014857D01*
X021453Y014870D01*
X021503Y014879D01*
X021552Y014884D01*
X021603Y014885D01*
X021653Y014882D01*
X021702Y014875D01*
X021751Y014864D01*
X021799Y014849D01*
X021845Y014831D01*
X021890Y014809D01*
X021933Y014783D01*
X021974Y014754D01*
X022013Y014722D01*
X022049Y014687D01*
X022081Y014649D01*
X022111Y014609D01*
X022138Y014566D01*
X022161Y014522D01*
X022180Y014476D01*
X022196Y014428D01*
X022208Y014379D01*
X022216Y014330D01*
X022220Y014280D01*
X022220Y014230D01*
X022216Y014180D01*
X022208Y014131D01*
X022196Y014082D01*
X022180Y014034D01*
X022161Y013988D01*
X022138Y013944D01*
X022111Y013901D01*
X022081Y013861D01*
X022049Y013823D01*
X022013Y013788D01*
X021974Y013756D01*
X021933Y013727D01*
X021890Y013701D01*
X021845Y013679D01*
X021799Y013661D01*
X021751Y013646D01*
X021702Y013635D01*
X021653Y013628D01*
X021603Y013625D01*
X021552Y013626D01*
X021503Y013631D01*
X021453Y013640D01*
X021405Y013653D01*
X021358Y013669D01*
X021312Y013690D01*
X021268Y013714D01*
X021226Y013741D01*
X021186Y013771D01*
X021149Y013805D01*
X021115Y013842D01*
X021083Y013881D01*
X021055Y013922D01*
X021030Y013966D01*
X021009Y014011D01*
X020992Y014058D01*
X020978Y014106D01*
X020968Y014155D01*
X020962Y014205D01*
X020960Y014255D01*
X021590Y015830D02*
X021667Y015828D01*
X021744Y015822D01*
X021821Y015813D01*
X021897Y015800D01*
X021973Y015783D01*
X022047Y015762D01*
X022121Y015738D01*
X022193Y015710D01*
X022263Y015679D01*
X022332Y015644D01*
X022400Y015606D01*
X022465Y015565D01*
X022528Y015520D01*
X022589Y015472D01*
X022648Y015422D01*
X022704Y015369D01*
X022757Y015313D01*
X022807Y015254D01*
X022855Y015193D01*
X022900Y015130D01*
X022941Y015065D01*
X022979Y014997D01*
X023014Y014928D01*
X023045Y014858D01*
X023073Y014786D01*
X023097Y014712D01*
X023118Y014638D01*
X023135Y014562D01*
X023148Y014486D01*
X023157Y014409D01*
X023163Y014332D01*
X023165Y014255D01*
X023165Y005200D01*
X023165Y014255D01*
X023163Y014332D01*
X023157Y014409D01*
X023148Y014486D01*
X023135Y014562D01*
X023118Y014638D01*
X023097Y014712D01*
X023073Y014786D01*
X023045Y014858D01*
X023014Y014928D01*
X022979Y014997D01*
X022941Y015065D01*
X022900Y015130D01*
X022855Y015193D01*
X022807Y015254D01*
X022757Y015313D01*
X022704Y015369D01*
X022648Y015422D01*
X022589Y015472D01*
X022528Y015520D01*
X022465Y015565D01*
X022400Y015606D01*
X022332Y015644D01*
X022263Y015679D01*
X022193Y015710D01*
X022121Y015738D01*
X022047Y015762D01*
X021973Y015783D01*
X021897Y015800D01*
X021821Y015813D01*
X021744Y015822D01*
X021667Y015828D01*
X021590Y015830D01*
X020960Y005200D02*
X020962Y005250D01*
X020968Y005300D01*
X020978Y005349D01*
X020992Y005397D01*
X021009Y005444D01*
X021030Y005489D01*
X021055Y005533D01*
X021083Y005574D01*
X021115Y005613D01*
X021149Y005650D01*
X021186Y005684D01*
X021226Y005714D01*
X021268Y005741D01*
X021312Y005765D01*
X021358Y005786D01*
X021405Y005802D01*
X021453Y005815D01*
X021503Y005824D01*
X021552Y005829D01*
X021603Y005830D01*
X021653Y005827D01*
X021702Y005820D01*
X021751Y005809D01*
X021799Y005794D01*
X021845Y005776D01*
X021890Y005754D01*
X021933Y005728D01*
X021974Y005699D01*
X022013Y005667D01*
X022049Y005632D01*
X022081Y005594D01*
X022111Y005554D01*
X022138Y005511D01*
X022161Y005467D01*
X022180Y005421D01*
X022196Y005373D01*
X022208Y005324D01*
X022216Y005275D01*
X022220Y005225D01*
X022220Y005175D01*
X022216Y005125D01*
X022208Y005076D01*
X022196Y005027D01*
X022180Y004979D01*
X022161Y004933D01*
X022138Y004889D01*
X022111Y004846D01*
X022081Y004806D01*
X022049Y004768D01*
X022013Y004733D01*
X021974Y004701D01*
X021933Y004672D01*
X021890Y004646D01*
X021845Y004624D01*
X021799Y004606D01*
X021751Y004591D01*
X021702Y004580D01*
X021653Y004573D01*
X021603Y004570D01*
X021552Y004571D01*
X021503Y004576D01*
X021453Y004585D01*
X021405Y004598D01*
X021358Y004614D01*
X021312Y004635D01*
X021268Y004659D01*
X021226Y004686D01*
X021186Y004716D01*
X021149Y004750D01*
X021115Y004787D01*
X021083Y004826D01*
X021055Y004867D01*
X021030Y004911D01*
X021009Y004956D01*
X020992Y005003D01*
X020978Y005051D01*
X020968Y005100D01*
X020962Y005150D01*
X020960Y005200D01*
X021590Y003625D02*
X021667Y003627D01*
X021744Y003633D01*
X021821Y003642D01*
X021897Y003655D01*
X021973Y003672D01*
X022047Y003693D01*
X022121Y003717D01*
X022193Y003745D01*
X022263Y003776D01*
X022332Y003811D01*
X022400Y003849D01*
X022465Y003890D01*
X022528Y003935D01*
X022589Y003983D01*
X022648Y004033D01*
X022704Y004086D01*
X022757Y004142D01*
X022807Y004201D01*
X022855Y004262D01*
X022900Y004325D01*
X022941Y004390D01*
X022979Y004458D01*
X023014Y004527D01*
X023045Y004597D01*
X023073Y004669D01*
X023097Y004743D01*
X023118Y004817D01*
X023135Y004893D01*
X023148Y004969D01*
X023157Y005046D01*
X023163Y005123D01*
X023165Y005200D01*
X023163Y005123D01*
X023157Y005046D01*
X023148Y004969D01*
X023135Y004893D01*
X023118Y004817D01*
X023097Y004743D01*
X023073Y004669D01*
X023045Y004597D01*
X023014Y004527D01*
X022979Y004458D01*
X022941Y004390D01*
X022900Y004325D01*
X022855Y004262D01*
X022807Y004201D01*
X022757Y004142D01*
X022704Y004086D01*
X022648Y004033D01*
X022589Y003983D01*
X022528Y003935D01*
X022465Y003890D01*
X022400Y003849D01*
X022332Y003811D01*
X022263Y003776D01*
X022193Y003745D01*
X022121Y003717D01*
X022047Y003693D01*
X021973Y003672D01*
X021897Y003655D01*
X021821Y003642D01*
X021744Y003633D01*
X021667Y003627D01*
X021590Y003625D01*
D11*
X006983Y008114D02*
X006511Y008114D01*
X006354Y008271D02*
X006356Y008293D01*
X006360Y008315D01*
X006368Y008336D01*
X006379Y008356D01*
X006392Y008374D01*
X006408Y008390D01*
X006426Y008403D01*
X006446Y008414D01*
X006467Y008422D01*
X006489Y008426D01*
X006511Y008428D01*
X006983Y008428D01*
X007140Y008271D02*
X007138Y008249D01*
X007134Y008227D01*
X007126Y008206D01*
X007115Y008186D01*
X007102Y008168D01*
X007086Y008152D01*
X007068Y008139D01*
X007048Y008128D01*
X007027Y008120D01*
X007005Y008116D01*
X006983Y008114D01*
X007140Y008271D02*
X007138Y008293D01*
X007134Y008315D01*
X007126Y008336D01*
X007115Y008356D01*
X007102Y008374D01*
X007086Y008390D01*
X007068Y008403D01*
X007048Y008414D01*
X007027Y008422D01*
X007005Y008426D01*
X006983Y008428D01*
X006511Y008114D02*
X006489Y008116D01*
X006467Y008120D01*
X006446Y008128D01*
X006426Y008139D01*
X006408Y008152D01*
X006392Y008168D01*
X006379Y008186D01*
X006368Y008206D01*
X006360Y008227D01*
X006356Y008249D01*
X006354Y008271D01*
X005251Y008271D02*
X005249Y008249D01*
X005245Y008227D01*
X005237Y008206D01*
X005226Y008186D01*
X005213Y008168D01*
X005197Y008152D01*
X005179Y008139D01*
X005159Y008128D01*
X005138Y008120D01*
X005116Y008116D01*
X005094Y008114D01*
X004621Y008114D01*
X004464Y008271D02*
X004466Y008293D01*
X004470Y008315D01*
X004478Y008336D01*
X004489Y008356D01*
X004502Y008374D01*
X004518Y008390D01*
X004536Y008403D01*
X004556Y008414D01*
X004577Y008422D01*
X004599Y008426D01*
X004621Y008428D01*
X005094Y008428D01*
X005116Y008426D01*
X005138Y008422D01*
X005159Y008414D01*
X005179Y008403D01*
X005197Y008390D01*
X005213Y008374D01*
X005226Y008356D01*
X005237Y008336D01*
X005245Y008315D01*
X005249Y008293D01*
X005251Y008271D01*
X004621Y008114D02*
X004599Y008116D01*
X004577Y008120D01*
X004556Y008128D01*
X004536Y008139D01*
X004518Y008152D01*
X004502Y008168D01*
X004489Y008186D01*
X004478Y008206D01*
X004470Y008227D01*
X004466Y008249D01*
X004464Y008271D01*
X004621Y011027D02*
X005094Y011027D01*
X005116Y011029D01*
X005138Y011033D01*
X005159Y011041D01*
X005179Y011052D01*
X005197Y011065D01*
X005213Y011081D01*
X005226Y011099D01*
X005237Y011119D01*
X005245Y011140D01*
X005249Y011162D01*
X005251Y011184D01*
X005249Y011206D01*
X005245Y011228D01*
X005237Y011249D01*
X005226Y011269D01*
X005213Y011287D01*
X005197Y011303D01*
X005179Y011316D01*
X005159Y011327D01*
X005138Y011335D01*
X005116Y011339D01*
X005094Y011341D01*
X005094Y011342D02*
X004621Y011342D01*
X004621Y011341D02*
X004599Y011339D01*
X004577Y011335D01*
X004556Y011327D01*
X004536Y011316D01*
X004518Y011303D01*
X004502Y011287D01*
X004489Y011269D01*
X004478Y011249D01*
X004470Y011228D01*
X004466Y011206D01*
X004464Y011184D01*
X004466Y011162D01*
X004470Y011140D01*
X004478Y011119D01*
X004489Y011099D01*
X004502Y011081D01*
X004518Y011065D01*
X004536Y011052D01*
X004556Y011041D01*
X004577Y011033D01*
X004599Y011029D01*
X004621Y011027D01*
X006511Y011027D02*
X006983Y011027D01*
X007005Y011029D01*
X007027Y011033D01*
X007048Y011041D01*
X007068Y011052D01*
X007086Y011065D01*
X007102Y011081D01*
X007115Y011099D01*
X007126Y011119D01*
X007134Y011140D01*
X007138Y011162D01*
X007140Y011184D01*
X007138Y011206D01*
X007134Y011228D01*
X007126Y011249D01*
X007115Y011269D01*
X007102Y011287D01*
X007086Y011303D01*
X007068Y011316D01*
X007048Y011327D01*
X007027Y011335D01*
X007005Y011339D01*
X006983Y011341D01*
X006983Y011342D02*
X006511Y011342D01*
X006511Y011341D02*
X006489Y011339D01*
X006467Y011335D01*
X006446Y011327D01*
X006426Y011316D01*
X006408Y011303D01*
X006392Y011287D01*
X006379Y011269D01*
X006368Y011249D01*
X006360Y011228D01*
X006356Y011206D01*
X006354Y011184D01*
X006356Y011162D01*
X006360Y011140D01*
X006368Y011119D01*
X006379Y011099D01*
X006392Y011081D01*
X006408Y011065D01*
X006426Y011052D01*
X006446Y011041D01*
X006467Y011033D01*
X006489Y011029D01*
X006511Y011027D01*
M02*
