G75*
%MOIN*%
%OFA0B0*%
%FSLAX25Y25*%
%IPPOS*%
%LPD*%
%AMOC8*
5,1,8,0,0,1.08239X$1,22.5*
%
%ADD10C,0.00800*%
%ADD11OC8,0.05906*%
%ADD12R,0.08661X0.02362*%
%ADD13R,0.08661X0.02372*%
%ADD14R,0.02756X0.02756*%
%ADD15OC8,0.07480*%
%ADD16C,0.03937*%
%ADD17C,0.02362*%
%ADD18C,0.00984*%
%ADD19C,0.01575*%
%ADD20C,0.06299*%
%ADD21C,0.03150*%
%ADD22C,0.02362*%
D10*
X0091869Y0186296D02*
X0091869Y0188914D01*
X0091214Y0190505D02*
X0091214Y0191815D01*
X0091214Y0191160D02*
X0087286Y0191160D01*
X0087286Y0191815D02*
X0087286Y0190505D01*
X0087286Y0193546D02*
X0089905Y0196165D01*
X0089250Y0195510D02*
X0091214Y0193546D01*
X0091214Y0196165D02*
X0087286Y0196165D01*
X0087286Y0197896D02*
X0090560Y0197896D01*
X0091214Y0198551D01*
X0091214Y0199860D01*
X0090560Y0200515D01*
X0087286Y0200515D01*
X0087286Y0202247D02*
X0087941Y0202247D01*
X0090560Y0204865D01*
X0091214Y0204865D01*
X0091214Y0202247D01*
X0087286Y0202247D02*
X0087286Y0204865D01*
X0087286Y0207251D02*
X0089250Y0209215D01*
X0089250Y0206597D01*
X0091214Y0207251D02*
X0087286Y0207251D01*
X0087286Y0210947D02*
X0089905Y0213565D01*
X0089250Y0212911D02*
X0091214Y0210947D01*
X0091214Y0213565D02*
X0087286Y0213565D01*
X0091869Y0215297D02*
X0091869Y0217916D01*
X0090560Y0219647D02*
X0091214Y0220302D01*
X0091214Y0221611D01*
X0090560Y0222266D01*
X0087941Y0222266D01*
X0087286Y0221611D01*
X0087286Y0220302D01*
X0087941Y0219647D01*
X0089250Y0219647D01*
X0089905Y0220302D01*
X0088596Y0220302D01*
X0088596Y0221611D01*
X0089905Y0221611D01*
X0089905Y0220302D01*
D11*
X0051457Y0221886D03*
X0051457Y0231886D03*
X0051457Y0241886D03*
X0051457Y0251886D03*
X0051457Y0211886D03*
X0051457Y0201886D03*
X0051457Y0191886D03*
X0051457Y0181886D03*
X0051457Y0171886D03*
X0051457Y0161886D03*
X0051457Y0151886D03*
X0051457Y0141886D03*
X0051457Y0131886D03*
X0051457Y0121886D03*
X0151457Y0121886D03*
X0151457Y0131886D03*
X0151457Y0141886D03*
X0151457Y0151886D03*
X0151457Y0161886D03*
X0151457Y0171886D03*
X0151457Y0181886D03*
X0151457Y0191886D03*
X0151457Y0201886D03*
X0151457Y0211886D03*
X0151457Y0221886D03*
X0151457Y0231886D03*
X0151457Y0241886D03*
X0151457Y0251886D03*
D12*
X0128622Y0141236D03*
X0128622Y0136236D03*
X0128622Y0131236D03*
X0128622Y0126236D03*
X0106575Y0126236D03*
X0106575Y0131236D03*
X0106575Y0136236D03*
X0092008Y0136236D03*
X0092008Y0141236D03*
X0092008Y0131236D03*
X0092008Y0126236D03*
X0069961Y0126236D03*
X0069961Y0131236D03*
X0069961Y0136236D03*
D13*
X0069961Y0141236D03*
X0106575Y0141236D03*
D14*
X0107362Y0146335D03*
X0112087Y0146335D03*
X0075472Y0146335D03*
X0070748Y0146335D03*
D15*
X0084921Y0097713D03*
X0117992Y0097713D03*
D16*
X0110118Y0107555D02*
X0110118Y0111492D01*
X0092795Y0111492D02*
X0092795Y0107555D01*
D17*
X0079016Y0135311D03*
X0087677Y0145941D03*
X0083346Y0151059D03*
X0071535Y0154602D03*
X0070354Y0163657D03*
X0075079Y0163657D03*
X0090433Y0165626D03*
X0092795Y0165626D03*
X0098307Y0163264D03*
X0103819Y0161295D03*
X0102244Y0158539D03*
X0098701Y0154996D03*
X0095551Y0145941D03*
X0102244Y0145941D03*
X0115630Y0146335D03*
X0116024Y0153028D03*
X0123110Y0148303D03*
X0123110Y0138854D03*
X0134528Y0136098D03*
X0135709Y0130587D03*
X0136102Y0126256D03*
X0143583Y0117594D03*
X0120354Y0126256D03*
X0126654Y0165626D03*
X0131378Y0171138D03*
X0134921Y0171138D03*
X0127835Y0171531D03*
X0117598Y0183343D03*
X0114055Y0186886D03*
X0117598Y0190823D03*
X0121142Y0186886D03*
X0130984Y0195154D03*
X0127835Y0199484D03*
X0130197Y0201846D03*
X0127441Y0204602D03*
X0124685Y0206965D03*
X0115630Y0210902D03*
X0111693Y0216020D03*
X0106181Y0220744D03*
X0107362Y0226256D03*
X0104213Y0229012D03*
X0102638Y0232949D03*
X0102638Y0236098D03*
X0097913Y0240429D03*
X0086890Y0243579D03*
X0088465Y0256571D03*
X0086496Y0259720D03*
X0093583Y0263657D03*
X0095945Y0261295D03*
X0099488Y0261295D03*
X0099488Y0264445D03*
X0098307Y0267988D03*
X0101850Y0267988D03*
X0105394Y0267988D03*
X0109331Y0267594D03*
X0109331Y0261295D03*
X0103819Y0260508D03*
X0102244Y0254602D03*
X0110906Y0248697D03*
X0114449Y0256571D03*
X0103425Y0264445D03*
X0093976Y0268382D03*
X0085709Y0271531D03*
X0082953Y0271531D03*
X0080984Y0269563D03*
X0079016Y0271531D03*
X0077047Y0269563D03*
X0075079Y0271531D03*
X0073110Y0269563D03*
X0071142Y0271531D03*
X0069173Y0269563D03*
X0067205Y0271531D03*
X0065236Y0269563D03*
X0063268Y0271531D03*
X0061299Y0269563D03*
X0059331Y0271531D03*
X0057362Y0269563D03*
X0055394Y0271531D03*
X0053425Y0269563D03*
X0051457Y0271531D03*
X0049488Y0269563D03*
X0047520Y0271531D03*
X0066811Y0243579D03*
X0077441Y0259720D03*
X0116811Y0271531D03*
X0119567Y0271531D03*
X0122323Y0271531D03*
X0125472Y0271531D03*
X0128622Y0271531D03*
X0131772Y0271531D03*
X0133740Y0269563D03*
X0135709Y0271531D03*
X0137677Y0269563D03*
X0139646Y0271531D03*
X0141614Y0269563D03*
X0143583Y0271531D03*
X0145551Y0269563D03*
X0147520Y0271531D03*
X0149488Y0269563D03*
X0151457Y0271531D03*
X0153425Y0269563D03*
X0155394Y0271531D03*
X0100276Y0203815D03*
X0100276Y0198303D03*
X0100276Y0192791D03*
X0100276Y0180193D03*
X0100276Y0171925D03*
X0090433Y0178618D03*
X0087677Y0180587D03*
X0067598Y0198303D03*
X0065236Y0195941D03*
X0073898Y0200272D03*
X0134921Y0199091D03*
X0064055Y0123106D03*
X0059331Y0123106D03*
X0052638Y0113264D03*
D18*
X0053561Y0092332D02*
X0082326Y0092332D01*
X0082614Y0092620D02*
X0080522Y0090528D01*
X0060118Y0090528D01*
X0058332Y0090645D01*
X0054883Y0091569D01*
X0051790Y0093355D01*
X0049264Y0095880D01*
X0047478Y0098973D01*
X0046554Y0102423D01*
X0046437Y0104209D01*
X0046437Y0269563D01*
X0046554Y0271349D01*
X0046814Y0272319D01*
X0156099Y0272319D01*
X0156359Y0271349D01*
X0156476Y0269563D01*
X0156476Y0104209D01*
X0156359Y0102423D01*
X0155435Y0098973D01*
X0153649Y0095880D01*
X0151124Y0093355D01*
X0148031Y0091569D01*
X0144581Y0090645D01*
X0142795Y0090528D01*
X0122392Y0090528D01*
X0120299Y0092620D01*
X0123224Y0095545D01*
X0123224Y0097614D01*
X0118091Y0097614D01*
X0118091Y0097811D01*
X0123224Y0097811D01*
X0123224Y0099880D01*
X0120159Y0102945D01*
X0118091Y0102945D01*
X0118091Y0097811D01*
X0117894Y0097811D01*
X0117894Y0102945D01*
X0115825Y0102945D01*
X0112760Y0099880D01*
X0112760Y0097811D01*
X0117894Y0097811D01*
X0117894Y0097614D01*
X0112760Y0097614D01*
X0112760Y0095545D01*
X0114234Y0094071D01*
X0088679Y0094071D01*
X0090154Y0095545D01*
X0090154Y0097614D01*
X0085020Y0097614D01*
X0085020Y0097811D01*
X0090154Y0097811D01*
X0090154Y0099880D01*
X0087089Y0102945D01*
X0085020Y0102945D01*
X0085020Y0097811D01*
X0084823Y0097811D01*
X0084823Y0102945D01*
X0082754Y0102945D01*
X0079689Y0099880D01*
X0079689Y0097811D01*
X0084823Y0097811D01*
X0084823Y0097614D01*
X0079689Y0097614D01*
X0079689Y0095545D01*
X0082614Y0092620D01*
X0081919Y0093315D02*
X0051859Y0093315D01*
X0050847Y0094298D02*
X0080937Y0094298D01*
X0079954Y0095280D02*
X0049864Y0095280D01*
X0049043Y0096263D02*
X0079689Y0096263D01*
X0079689Y0097246D02*
X0048476Y0097246D01*
X0047908Y0098229D02*
X0079689Y0098229D01*
X0079689Y0099211D02*
X0047415Y0099211D01*
X0047151Y0100194D02*
X0080003Y0100194D01*
X0080986Y0101177D02*
X0046888Y0101177D01*
X0046625Y0102160D02*
X0081969Y0102160D01*
X0084823Y0102160D02*
X0085020Y0102160D01*
X0085020Y0101177D02*
X0084823Y0101177D01*
X0084823Y0100194D02*
X0085020Y0100194D01*
X0085020Y0099211D02*
X0084823Y0099211D01*
X0084823Y0098229D02*
X0085020Y0098229D01*
X0088856Y0101177D02*
X0114057Y0101177D01*
X0115040Y0102160D02*
X0087874Y0102160D01*
X0089839Y0100194D02*
X0113074Y0100194D01*
X0112760Y0099211D02*
X0090154Y0099211D01*
X0090154Y0098229D02*
X0112760Y0098229D01*
X0112760Y0097246D02*
X0090154Y0097246D01*
X0090154Y0096263D02*
X0112760Y0096263D01*
X0113025Y0095280D02*
X0089889Y0095280D01*
X0088906Y0094298D02*
X0114007Y0094298D01*
X0117894Y0098229D02*
X0118091Y0098229D01*
X0118091Y0099211D02*
X0117894Y0099211D01*
X0117894Y0100194D02*
X0118091Y0100194D01*
X0118091Y0101177D02*
X0117894Y0101177D01*
X0117894Y0102160D02*
X0118091Y0102160D01*
X0120945Y0102160D02*
X0156289Y0102160D01*
X0156407Y0103143D02*
X0046507Y0103143D01*
X0046442Y0104125D02*
X0092300Y0104125D01*
X0092454Y0104094D02*
X0092697Y0104094D01*
X0092697Y0109425D01*
X0092894Y0109425D01*
X0092894Y0109622D01*
X0096256Y0109622D01*
X0096256Y0111833D01*
X0096123Y0112502D01*
X0095862Y0113131D01*
X0095483Y0113698D01*
X0095327Y0113854D01*
X0107586Y0113854D01*
X0107430Y0113698D01*
X0107051Y0113131D01*
X0106790Y0112502D01*
X0106657Y0111833D01*
X0106657Y0109622D01*
X0110020Y0109622D01*
X0110020Y0109425D01*
X0110217Y0109425D01*
X0110217Y0109622D01*
X0113579Y0109622D01*
X0113579Y0111833D01*
X0113446Y0112502D01*
X0113185Y0113131D01*
X0112806Y0113698D01*
X0112650Y0113854D01*
X0138805Y0113854D01*
X0141395Y0116445D01*
X0141497Y0116201D01*
X0142189Y0115508D01*
X0143093Y0115134D01*
X0144072Y0115134D01*
X0144977Y0115508D01*
X0145669Y0116201D01*
X0146043Y0117105D01*
X0146043Y0117550D01*
X0147466Y0118972D01*
X0147925Y0119432D01*
X0149704Y0117654D01*
X0153210Y0117654D01*
X0155689Y0120133D01*
X0155689Y0123639D01*
X0153210Y0126118D01*
X0149704Y0126118D01*
X0148504Y0124918D01*
X0148504Y0128853D01*
X0149704Y0127654D01*
X0153210Y0127654D01*
X0155689Y0130133D01*
X0155689Y0133639D01*
X0153210Y0136118D01*
X0149704Y0136118D01*
X0148504Y0134918D01*
X0148504Y0138853D01*
X0149704Y0137654D01*
X0153210Y0137654D01*
X0155689Y0140133D01*
X0155689Y0143639D01*
X0153210Y0146118D01*
X0149704Y0146118D01*
X0147414Y0143828D01*
X0124488Y0166754D01*
X0124488Y0172766D01*
X0126063Y0174341D01*
X0126063Y0173240D01*
X0125749Y0172925D01*
X0125374Y0172021D01*
X0125374Y0171042D01*
X0125749Y0170138D01*
X0126441Y0169445D01*
X0127345Y0169071D01*
X0128324Y0169071D01*
X0129228Y0169445D01*
X0129409Y0169626D01*
X0129984Y0169052D01*
X0130888Y0168677D01*
X0131867Y0168677D01*
X0132772Y0169052D01*
X0133150Y0169430D01*
X0133527Y0169052D01*
X0134432Y0168677D01*
X0135411Y0168677D01*
X0136315Y0169052D01*
X0137007Y0169744D01*
X0137382Y0170648D01*
X0137382Y0171627D01*
X0137007Y0172532D01*
X0136693Y0172846D01*
X0136693Y0174735D01*
X0149658Y0187699D01*
X0149704Y0187654D01*
X0153210Y0187654D01*
X0155689Y0190133D01*
X0155689Y0193639D01*
X0153210Y0196118D01*
X0149704Y0196118D01*
X0148110Y0194525D01*
X0148110Y0195995D01*
X0149769Y0197654D01*
X0153210Y0197654D01*
X0155689Y0200133D01*
X0155689Y0203639D01*
X0153210Y0206118D01*
X0149704Y0206118D01*
X0147224Y0203639D01*
X0147224Y0200133D01*
X0147231Y0200126D01*
X0146142Y0199037D01*
X0146142Y0204262D01*
X0149618Y0207739D01*
X0149704Y0207654D01*
X0153210Y0207654D01*
X0155689Y0210133D01*
X0155689Y0213639D01*
X0153210Y0216118D01*
X0149704Y0216118D01*
X0147224Y0213639D01*
X0147224Y0210356D01*
X0144173Y0207305D01*
X0144173Y0212530D01*
X0149500Y0217857D01*
X0149704Y0217654D01*
X0153210Y0217654D01*
X0155689Y0220133D01*
X0155689Y0223639D01*
X0153210Y0226118D01*
X0149704Y0226118D01*
X0147224Y0223639D01*
X0147224Y0220592D01*
X0140630Y0213998D01*
X0140630Y0193919D01*
X0131181Y0184470D01*
X0131181Y0192693D01*
X0131474Y0192693D01*
X0132378Y0193068D01*
X0133070Y0193760D01*
X0133445Y0194664D01*
X0133445Y0195109D01*
X0134966Y0196630D01*
X0135411Y0196630D01*
X0136315Y0197005D01*
X0137007Y0197697D01*
X0137382Y0198601D01*
X0137382Y0199580D01*
X0137007Y0200484D01*
X0136315Y0201177D01*
X0135411Y0201551D01*
X0134432Y0201551D01*
X0133527Y0201177D01*
X0132835Y0200484D01*
X0132461Y0199580D01*
X0132461Y0199135D01*
X0131968Y0198643D01*
X0131968Y0200138D01*
X0132283Y0200453D01*
X0132657Y0201357D01*
X0132657Y0202336D01*
X0132283Y0203240D01*
X0131591Y0203932D01*
X0130686Y0204307D01*
X0129902Y0204307D01*
X0129902Y0205092D01*
X0129527Y0205996D01*
X0128835Y0206688D01*
X0127930Y0207063D01*
X0127146Y0207063D01*
X0127146Y0207454D01*
X0126771Y0208358D01*
X0126079Y0209051D01*
X0125174Y0209425D01*
X0124196Y0209425D01*
X0123291Y0209051D01*
X0122599Y0208358D01*
X0122224Y0207454D01*
X0122224Y0207009D01*
X0120945Y0205730D01*
X0120945Y0192057D01*
X0121732Y0191270D01*
X0121732Y0186045D01*
X0114896Y0179209D01*
X0113858Y0178171D01*
X0113858Y0161349D01*
X0114896Y0160311D01*
X0114896Y0160311D01*
X0131510Y0143697D01*
X0123761Y0143697D01*
X0123012Y0142947D01*
X0123012Y0141458D01*
X0118091Y0146380D01*
X0118091Y0146824D01*
X0117886Y0147319D01*
X0120855Y0147319D01*
X0121024Y0146909D01*
X0121716Y0146217D01*
X0122621Y0145843D01*
X0123600Y0145843D01*
X0124504Y0146217D01*
X0125196Y0146909D01*
X0125571Y0147814D01*
X0125571Y0148793D01*
X0125196Y0149697D01*
X0124504Y0150389D01*
X0123600Y0150764D01*
X0123155Y0150764D01*
X0123057Y0150862D01*
X0114941Y0150862D01*
X0114941Y0155564D01*
X0114506Y0156613D01*
X0113703Y0157416D01*
X0112654Y0157850D01*
X0104622Y0157850D01*
X0104705Y0158050D01*
X0104705Y0158999D01*
X0105213Y0159209D01*
X0105905Y0159901D01*
X0106280Y0160806D01*
X0106280Y0161785D01*
X0105905Y0162689D01*
X0105213Y0163381D01*
X0104308Y0163756D01*
X0103329Y0163756D01*
X0102425Y0163381D01*
X0102111Y0163067D01*
X0099935Y0163067D01*
X0099148Y0162280D01*
X0095713Y0162280D01*
X0101210Y0167777D01*
X0102456Y0169023D01*
X0103130Y0170650D01*
X0103130Y0204343D01*
X0112462Y0213675D01*
X0113087Y0213934D01*
X0113779Y0214626D01*
X0114038Y0215250D01*
X0115984Y0217197D01*
X0116594Y0217790D01*
X0116606Y0217819D01*
X0116629Y0217841D01*
X0116954Y0218627D01*
X0117290Y0219408D01*
X0117291Y0219440D01*
X0117303Y0219469D01*
X0117303Y0220320D01*
X0117709Y0249516D01*
X0117057Y0251153D01*
X0115829Y0252416D01*
X0114210Y0253113D01*
X0112448Y0253138D01*
X0110811Y0252486D01*
X0109548Y0251258D01*
X0109530Y0251217D01*
X0109289Y0251117D01*
X0108486Y0250314D01*
X0108051Y0249265D01*
X0108051Y0248129D01*
X0108486Y0247080D01*
X0108811Y0246755D01*
X0108723Y0240393D01*
X0108096Y0241020D01*
X0106378Y0242738D01*
X0106378Y0260454D01*
X0106280Y0260553D01*
X0106280Y0260997D01*
X0105905Y0261902D01*
X0105213Y0262594D01*
X0104308Y0262968D01*
X0103329Y0262968D01*
X0102425Y0262594D01*
X0101733Y0261902D01*
X0101358Y0260997D01*
X0101358Y0260018D01*
X0101733Y0259114D01*
X0102425Y0258422D01*
X0102835Y0258252D01*
X0102835Y0257021D01*
X0102734Y0257063D01*
X0101755Y0257063D01*
X0100850Y0256688D01*
X0100158Y0255996D01*
X0099783Y0255092D01*
X0099783Y0254113D01*
X0100158Y0253209D01*
X0100472Y0252894D01*
X0100472Y0240876D01*
X0102790Y0238559D01*
X0102575Y0238559D01*
X0100374Y0240577D01*
X0100374Y0240919D01*
X0099999Y0241823D01*
X0099307Y0242515D01*
X0098403Y0242890D01*
X0097424Y0242890D01*
X0096520Y0242515D01*
X0095827Y0241823D01*
X0095611Y0241300D01*
X0095354Y0241557D01*
X0095354Y0261949D01*
X0095669Y0262264D01*
X0096043Y0263168D01*
X0096043Y0264147D01*
X0095669Y0265051D01*
X0094977Y0265743D01*
X0094072Y0266118D01*
X0093093Y0266118D01*
X0092189Y0265743D01*
X0091497Y0265051D01*
X0091122Y0264147D01*
X0091122Y0263168D01*
X0091497Y0262264D01*
X0091811Y0261949D01*
X0091811Y0240089D01*
X0099685Y0232215D01*
X0100723Y0231177D01*
X0100930Y0231177D01*
X0101244Y0230863D01*
X0102148Y0230488D01*
X0102209Y0230488D01*
X0102127Y0230406D01*
X0101752Y0229501D01*
X0101752Y0228522D01*
X0102127Y0227618D01*
X0102819Y0226926D01*
X0103723Y0226551D01*
X0104702Y0226551D01*
X0104902Y0226634D01*
X0104902Y0225766D01*
X0105276Y0224862D01*
X0105968Y0224170D01*
X0106873Y0223795D01*
X0107852Y0223795D01*
X0108496Y0224062D01*
X0108470Y0222210D01*
X0106363Y0220103D01*
X0094946Y0208686D01*
X0094272Y0207058D01*
X0094272Y0173366D01*
X0090961Y0170055D01*
X0075773Y0170055D01*
X0074145Y0169381D01*
X0072899Y0168135D01*
X0072224Y0166507D01*
X0072224Y0163090D01*
X0072560Y0162280D01*
X0065683Y0162280D01*
X0058597Y0155193D01*
X0058346Y0154942D01*
X0058346Y0164105D01*
X0069907Y0175665D01*
X0089986Y0175665D01*
X0090478Y0176157D01*
X0090923Y0176157D01*
X0091827Y0176532D01*
X0092519Y0177224D01*
X0092894Y0178129D01*
X0092894Y0179108D01*
X0092519Y0180012D01*
X0091827Y0180704D01*
X0090923Y0181079D01*
X0089944Y0181079D01*
X0089039Y0180704D01*
X0088347Y0180012D01*
X0088014Y0179209D01*
X0068439Y0179209D01*
X0055841Y0166610D01*
X0054803Y0165572D01*
X0054803Y0164525D01*
X0053210Y0166118D01*
X0049704Y0166118D01*
X0047224Y0163639D01*
X0047224Y0160133D01*
X0049704Y0157654D01*
X0053210Y0157654D01*
X0054803Y0159247D01*
X0054803Y0154525D01*
X0053210Y0156118D01*
X0049704Y0156118D01*
X0047224Y0153639D01*
X0047224Y0150133D01*
X0049704Y0147654D01*
X0053210Y0147654D01*
X0054803Y0149247D01*
X0054803Y0144525D01*
X0053210Y0146118D01*
X0049704Y0146118D01*
X0047224Y0143639D01*
X0047224Y0140133D01*
X0049704Y0137654D01*
X0053210Y0137654D01*
X0054803Y0139247D01*
X0054803Y0134525D01*
X0053210Y0136118D01*
X0049704Y0136118D01*
X0047224Y0133639D01*
X0047224Y0130133D01*
X0049704Y0127654D01*
X0053210Y0127654D01*
X0054803Y0129247D01*
X0054803Y0124525D01*
X0053210Y0126118D01*
X0049704Y0126118D01*
X0047224Y0123639D01*
X0047224Y0120133D01*
X0049704Y0117654D01*
X0053210Y0117654D01*
X0054803Y0119247D01*
X0054803Y0117935D01*
X0052593Y0115724D01*
X0052148Y0115724D01*
X0051244Y0115350D01*
X0050552Y0114658D01*
X0050177Y0113753D01*
X0050177Y0112774D01*
X0050552Y0111870D01*
X0051244Y0111178D01*
X0052148Y0110803D01*
X0053127Y0110803D01*
X0054032Y0111178D01*
X0054724Y0111870D01*
X0055098Y0112774D01*
X0055098Y0113219D01*
X0057309Y0115429D01*
X0058346Y0116467D01*
X0058346Y0120851D01*
X0058841Y0120646D01*
X0059820Y0120646D01*
X0060725Y0121020D01*
X0061417Y0121712D01*
X0061693Y0122379D01*
X0061969Y0121712D01*
X0062661Y0121020D01*
X0063566Y0120646D01*
X0064545Y0120646D01*
X0065449Y0121020D01*
X0066141Y0121712D01*
X0066516Y0122617D01*
X0066516Y0123596D01*
X0066441Y0123776D01*
X0073479Y0123776D01*
X0082362Y0114892D01*
X0083400Y0113854D01*
X0090263Y0113854D01*
X0090107Y0113698D01*
X0089729Y0113131D01*
X0089468Y0112502D01*
X0089335Y0111833D01*
X0089335Y0109622D01*
X0092697Y0109622D01*
X0092697Y0109425D01*
X0089335Y0109425D01*
X0089335Y0107214D01*
X0089468Y0106546D01*
X0089729Y0105916D01*
X0090107Y0105349D01*
X0090589Y0104867D01*
X0091156Y0104488D01*
X0091786Y0104227D01*
X0092454Y0104094D01*
X0092697Y0104125D02*
X0092894Y0104125D01*
X0092894Y0104094D02*
X0093136Y0104094D01*
X0093805Y0104227D01*
X0094434Y0104488D01*
X0095001Y0104867D01*
X0095483Y0105349D01*
X0095862Y0105916D01*
X0096123Y0106546D01*
X0096256Y0107214D01*
X0096256Y0109425D01*
X0092894Y0109425D01*
X0092894Y0104094D01*
X0093291Y0104125D02*
X0109622Y0104125D01*
X0109777Y0104094D02*
X0110020Y0104094D01*
X0110020Y0109425D01*
X0106657Y0109425D01*
X0106657Y0107214D01*
X0106790Y0106546D01*
X0107051Y0105916D01*
X0107430Y0105349D01*
X0107912Y0104867D01*
X0108479Y0104488D01*
X0109109Y0104227D01*
X0109777Y0104094D01*
X0110020Y0104125D02*
X0110217Y0104125D01*
X0110217Y0104094D02*
X0110459Y0104094D01*
X0111128Y0104227D01*
X0111757Y0104488D01*
X0112324Y0104867D01*
X0112806Y0105349D01*
X0113185Y0105916D01*
X0113446Y0106546D01*
X0113579Y0107214D01*
X0113579Y0109425D01*
X0110217Y0109425D01*
X0110217Y0104094D01*
X0110614Y0104125D02*
X0156471Y0104125D01*
X0156476Y0105108D02*
X0112565Y0105108D01*
X0113257Y0106091D02*
X0156476Y0106091D01*
X0156476Y0107074D02*
X0113551Y0107074D01*
X0113579Y0108056D02*
X0156476Y0108056D01*
X0156476Y0109039D02*
X0113579Y0109039D01*
X0113579Y0110022D02*
X0156476Y0110022D01*
X0156476Y0111005D02*
X0113579Y0111005D01*
X0113548Y0111987D02*
X0156476Y0111987D01*
X0156476Y0112970D02*
X0113252Y0112970D01*
X0110217Y0109039D02*
X0110020Y0109039D01*
X0110020Y0108056D02*
X0110217Y0108056D01*
X0110217Y0107074D02*
X0110020Y0107074D01*
X0110020Y0106091D02*
X0110217Y0106091D01*
X0110217Y0105108D02*
X0110020Y0105108D01*
X0107671Y0105108D02*
X0095242Y0105108D01*
X0095934Y0106091D02*
X0106979Y0106091D01*
X0106685Y0107074D02*
X0096228Y0107074D01*
X0096256Y0108056D02*
X0106657Y0108056D01*
X0106657Y0109039D02*
X0096256Y0109039D01*
X0096256Y0110022D02*
X0106657Y0110022D01*
X0106657Y0111005D02*
X0096256Y0111005D01*
X0096225Y0111987D02*
X0106688Y0111987D01*
X0106985Y0112970D02*
X0095929Y0112970D01*
X0092894Y0109039D02*
X0092697Y0109039D01*
X0092697Y0108056D02*
X0092894Y0108056D01*
X0092894Y0107074D02*
X0092697Y0107074D01*
X0092697Y0106091D02*
X0092894Y0106091D01*
X0092894Y0105108D02*
X0092697Y0105108D01*
X0090348Y0105108D02*
X0046437Y0105108D01*
X0046437Y0106091D02*
X0089656Y0106091D01*
X0089363Y0107074D02*
X0046437Y0107074D01*
X0046437Y0108056D02*
X0089335Y0108056D01*
X0089335Y0109039D02*
X0046437Y0109039D01*
X0046437Y0110022D02*
X0089335Y0110022D01*
X0089335Y0111005D02*
X0053614Y0111005D01*
X0054772Y0111987D02*
X0089365Y0111987D01*
X0089662Y0112970D02*
X0055098Y0112970D01*
X0055832Y0113953D02*
X0083301Y0113953D01*
X0082319Y0114936D02*
X0056815Y0114936D01*
X0057798Y0115918D02*
X0081336Y0115918D01*
X0080353Y0116901D02*
X0058346Y0116901D01*
X0058346Y0117884D02*
X0079370Y0117884D01*
X0078388Y0118867D02*
X0058346Y0118867D01*
X0058346Y0119850D02*
X0077405Y0119850D01*
X0076422Y0120832D02*
X0064995Y0120832D01*
X0066184Y0121815D02*
X0075439Y0121815D01*
X0074457Y0122798D02*
X0066516Y0122798D01*
X0064055Y0123106D02*
X0064055Y0151059D01*
X0071535Y0158539D01*
X0102244Y0158539D01*
X0104705Y0158177D02*
X0117030Y0158177D01*
X0118013Y0157195D02*
X0113925Y0157195D01*
X0114673Y0156212D02*
X0118995Y0156212D01*
X0119978Y0155229D02*
X0114941Y0155229D01*
X0114941Y0154246D02*
X0120961Y0154246D01*
X0121944Y0153263D02*
X0114941Y0153263D01*
X0114941Y0152281D02*
X0122926Y0152281D01*
X0123909Y0151298D02*
X0114941Y0151298D01*
X0112087Y0149091D02*
X0122323Y0149091D01*
X0123110Y0148303D01*
X0125386Y0147367D02*
X0127840Y0147367D01*
X0126857Y0148350D02*
X0125571Y0148350D01*
X0125347Y0149332D02*
X0125875Y0149332D01*
X0124892Y0150315D02*
X0124578Y0150315D01*
X0124671Y0146384D02*
X0128823Y0146384D01*
X0129806Y0145401D02*
X0119069Y0145401D01*
X0118091Y0146384D02*
X0121549Y0146384D01*
X0120051Y0144419D02*
X0130789Y0144419D01*
X0128622Y0141236D02*
X0128622Y0141217D01*
X0125472Y0141217D01*
X0123110Y0138854D01*
X0115630Y0146335D01*
X0115236Y0141217D02*
X0112087Y0141217D01*
X0112087Y0138067D01*
X0110512Y0136492D01*
X0106575Y0136492D01*
X0106575Y0136236D01*
X0106085Y0138756D02*
X0110270Y0138756D01*
X0110211Y0138697D01*
X0101714Y0138697D01*
X0101145Y0138128D01*
X0097618Y0141655D01*
X0097618Y0142947D01*
X0096869Y0143697D01*
X0087147Y0143697D01*
X0086398Y0142947D01*
X0086398Y0139525D01*
X0087147Y0138776D01*
X0095487Y0138776D01*
X0095565Y0138697D01*
X0087147Y0138697D01*
X0086398Y0137947D01*
X0086398Y0136340D01*
X0080787Y0141950D01*
X0079750Y0142988D01*
X0077933Y0142988D01*
X0077933Y0144230D01*
X0078130Y0144427D01*
X0078130Y0145292D01*
X0078327Y0145767D01*
X0078327Y0152142D01*
X0109232Y0152142D01*
X0109232Y0149125D01*
X0108937Y0149205D01*
X0107559Y0149205D01*
X0107559Y0146532D01*
X0107165Y0146532D01*
X0107165Y0149205D01*
X0105788Y0149205D01*
X0105408Y0149103D01*
X0105068Y0148907D01*
X0104790Y0148629D01*
X0104594Y0148289D01*
X0104492Y0147909D01*
X0104492Y0146531D01*
X0107165Y0146531D01*
X0107165Y0146138D01*
X0104492Y0146138D01*
X0104492Y0144760D01*
X0104594Y0144381D01*
X0104790Y0144041D01*
X0105068Y0143763D01*
X0105174Y0143702D01*
X0101714Y0143702D01*
X0100965Y0142952D01*
X0100965Y0139520D01*
X0101714Y0138771D01*
X0106050Y0138771D01*
X0106085Y0138756D01*
X0101539Y0138522D02*
X0100751Y0138522D01*
X0100980Y0139505D02*
X0099768Y0139505D01*
X0098786Y0140488D02*
X0100965Y0140488D01*
X0100965Y0141470D02*
X0097803Y0141470D01*
X0097618Y0142453D02*
X0100965Y0142453D01*
X0101448Y0143436D02*
X0097130Y0143436D01*
X0095531Y0141236D02*
X0092008Y0141236D01*
X0095531Y0141236D02*
X0100669Y0136098D01*
X0100669Y0123106D01*
X0102244Y0121531D01*
X0135709Y0121531D01*
X0138465Y0124287D01*
X0138465Y0139248D01*
X0115630Y0162083D01*
X0115630Y0177437D01*
X0123504Y0185311D01*
X0123504Y0192004D01*
X0122717Y0192791D01*
X0122717Y0204996D01*
X0124685Y0206965D01*
X0123847Y0209281D02*
X0108068Y0209281D01*
X0107086Y0208298D02*
X0122574Y0208298D01*
X0122224Y0207315D02*
X0106103Y0207315D01*
X0105120Y0206333D02*
X0121548Y0206333D01*
X0120945Y0205350D02*
X0104137Y0205350D01*
X0103154Y0204367D02*
X0120945Y0204367D01*
X0120945Y0203384D02*
X0103130Y0203384D01*
X0103130Y0202402D02*
X0120945Y0202402D01*
X0120945Y0201419D02*
X0103130Y0201419D01*
X0103130Y0200436D02*
X0120945Y0200436D01*
X0120945Y0199453D02*
X0103130Y0199453D01*
X0103130Y0198471D02*
X0120945Y0198471D01*
X0120945Y0197488D02*
X0103130Y0197488D01*
X0103130Y0196505D02*
X0120945Y0196505D01*
X0120945Y0195522D02*
X0103130Y0195522D01*
X0103130Y0194540D02*
X0120945Y0194540D01*
X0120945Y0193557D02*
X0103130Y0193557D01*
X0103130Y0192574D02*
X0120945Y0192574D01*
X0121411Y0191591D02*
X0103130Y0191591D01*
X0103130Y0190608D02*
X0121732Y0190608D01*
X0121732Y0189626D02*
X0103130Y0189626D01*
X0103130Y0188643D02*
X0121732Y0188643D01*
X0121732Y0187660D02*
X0103130Y0187660D01*
X0103130Y0186677D02*
X0121732Y0186677D01*
X0121382Y0185695D02*
X0103130Y0185695D01*
X0103130Y0184712D02*
X0120399Y0184712D01*
X0119417Y0183729D02*
X0103130Y0183729D01*
X0103130Y0182746D02*
X0118434Y0182746D01*
X0117451Y0181764D02*
X0103130Y0181764D01*
X0103130Y0180781D02*
X0116468Y0180781D01*
X0115485Y0179798D02*
X0103130Y0179798D01*
X0103130Y0178815D02*
X0114503Y0178815D01*
X0113858Y0177833D02*
X0103130Y0177833D01*
X0103130Y0176850D02*
X0113858Y0176850D01*
X0113858Y0175867D02*
X0103130Y0175867D01*
X0103130Y0174884D02*
X0113858Y0174884D01*
X0113858Y0173901D02*
X0103130Y0173901D01*
X0103130Y0172919D02*
X0113858Y0172919D01*
X0113858Y0171936D02*
X0103130Y0171936D01*
X0103130Y0170953D02*
X0113858Y0170953D01*
X0113858Y0169970D02*
X0102848Y0169970D01*
X0102421Y0168988D02*
X0113858Y0168988D01*
X0113858Y0168005D02*
X0101438Y0168005D01*
X0100455Y0167022D02*
X0113858Y0167022D01*
X0113858Y0166039D02*
X0099472Y0166039D01*
X0098490Y0165057D02*
X0113858Y0165057D01*
X0113858Y0164074D02*
X0097507Y0164074D01*
X0096524Y0163091D02*
X0102135Y0163091D01*
X0100669Y0161295D02*
X0103819Y0161295D01*
X0105503Y0163091D02*
X0113858Y0163091D01*
X0113858Y0162108D02*
X0106145Y0162108D01*
X0106280Y0161126D02*
X0114082Y0161126D01*
X0115064Y0160143D02*
X0106005Y0160143D01*
X0105094Y0159160D02*
X0116047Y0159160D01*
X0117598Y0162870D02*
X0117598Y0176650D01*
X0125472Y0184524D01*
X0125472Y0192398D01*
X0124685Y0193185D01*
X0124685Y0201846D01*
X0127441Y0204602D01*
X0129190Y0206333D02*
X0140630Y0206333D01*
X0140630Y0207315D02*
X0127146Y0207315D01*
X0126796Y0208298D02*
X0140630Y0208298D01*
X0140630Y0209281D02*
X0125523Y0209281D01*
X0129795Y0205350D02*
X0140630Y0205350D01*
X0140630Y0204367D02*
X0129902Y0204367D01*
X0132139Y0203384D02*
X0140630Y0203384D01*
X0140630Y0202402D02*
X0132630Y0202402D01*
X0132657Y0201419D02*
X0134112Y0201419D01*
X0135730Y0201419D02*
X0140630Y0201419D01*
X0140630Y0200436D02*
X0137027Y0200436D01*
X0137382Y0199453D02*
X0140630Y0199453D01*
X0140630Y0198471D02*
X0137328Y0198471D01*
X0136798Y0197488D02*
X0140630Y0197488D01*
X0140630Y0196505D02*
X0134841Y0196505D01*
X0133858Y0195522D02*
X0140630Y0195522D01*
X0140630Y0194540D02*
X0133393Y0194540D01*
X0132867Y0193557D02*
X0140268Y0193557D01*
X0139285Y0192574D02*
X0131181Y0192574D01*
X0131181Y0191591D02*
X0138302Y0191591D01*
X0137320Y0190608D02*
X0131181Y0190608D01*
X0131181Y0189626D02*
X0136337Y0189626D01*
X0135354Y0188643D02*
X0131181Y0188643D01*
X0131181Y0187660D02*
X0134371Y0187660D01*
X0133388Y0186677D02*
X0131181Y0186677D01*
X0131181Y0185695D02*
X0132406Y0185695D01*
X0131423Y0184712D02*
X0131181Y0184712D01*
X0129409Y0182949D02*
X0120748Y0174287D01*
X0120748Y0165232D01*
X0144370Y0141610D01*
X0144370Y0121925D01*
X0138071Y0115626D01*
X0084134Y0115626D01*
X0073898Y0125862D01*
X0069961Y0125862D01*
X0069961Y0126236D01*
X0069961Y0130980D02*
X0073504Y0130980D01*
X0086890Y0117594D01*
X0137283Y0117594D01*
X0142402Y0122713D01*
X0142402Y0140823D01*
X0119173Y0164051D01*
X0119173Y0175469D01*
X0127441Y0183736D01*
X0127441Y0192791D01*
X0126654Y0193579D01*
X0126654Y0198303D01*
X0127835Y0199484D01*
X0130197Y0198303D02*
X0128622Y0196728D01*
X0128622Y0193972D01*
X0129409Y0193185D01*
X0129409Y0182949D01*
X0131378Y0176256D02*
X0146339Y0191217D01*
X0146339Y0196728D01*
X0151457Y0201846D01*
X0151457Y0201886D01*
X0155689Y0201419D02*
X0156476Y0201419D01*
X0156476Y0202402D02*
X0155689Y0202402D01*
X0155689Y0203384D02*
X0156476Y0203384D01*
X0156476Y0204367D02*
X0154961Y0204367D01*
X0153978Y0205350D02*
X0156476Y0205350D01*
X0156476Y0206333D02*
X0148212Y0206333D01*
X0148935Y0205350D02*
X0147229Y0205350D01*
X0147953Y0204367D02*
X0146247Y0204367D01*
X0146142Y0203384D02*
X0147224Y0203384D01*
X0147224Y0202402D02*
X0146142Y0202402D01*
X0146142Y0201419D02*
X0147224Y0201419D01*
X0147224Y0200436D02*
X0146142Y0200436D01*
X0146142Y0199453D02*
X0146558Y0199453D01*
X0148621Y0196505D02*
X0156476Y0196505D01*
X0156476Y0195522D02*
X0153806Y0195522D01*
X0154788Y0194540D02*
X0156476Y0194540D01*
X0156476Y0193557D02*
X0155689Y0193557D01*
X0155689Y0192574D02*
X0156476Y0192574D01*
X0156476Y0191591D02*
X0155689Y0191591D01*
X0155689Y0190608D02*
X0156476Y0190608D01*
X0156476Y0189626D02*
X0155182Y0189626D01*
X0154199Y0188643D02*
X0156476Y0188643D01*
X0156476Y0187660D02*
X0153216Y0187660D01*
X0153210Y0186118D02*
X0149704Y0186118D01*
X0147224Y0183639D01*
X0147224Y0180133D01*
X0149704Y0177654D01*
X0153210Y0177654D01*
X0155689Y0180133D01*
X0155689Y0183639D01*
X0153210Y0186118D01*
X0153633Y0185695D02*
X0156476Y0185695D01*
X0156476Y0186677D02*
X0148636Y0186677D01*
X0149280Y0185695D02*
X0147653Y0185695D01*
X0148297Y0184712D02*
X0146670Y0184712D01*
X0147315Y0183729D02*
X0145687Y0183729D01*
X0144705Y0182746D02*
X0147224Y0182746D01*
X0147224Y0181764D02*
X0143722Y0181764D01*
X0142739Y0180781D02*
X0147224Y0180781D01*
X0147559Y0179798D02*
X0141756Y0179798D01*
X0140774Y0178815D02*
X0148542Y0178815D01*
X0149525Y0177833D02*
X0139791Y0177833D01*
X0138808Y0176850D02*
X0156476Y0176850D01*
X0156476Y0177833D02*
X0153389Y0177833D01*
X0154372Y0178815D02*
X0156476Y0178815D01*
X0156476Y0179798D02*
X0155354Y0179798D01*
X0155689Y0180781D02*
X0156476Y0180781D01*
X0156476Y0181764D02*
X0155689Y0181764D01*
X0155689Y0182746D02*
X0156476Y0182746D01*
X0156476Y0183729D02*
X0155599Y0183729D01*
X0156476Y0184712D02*
X0154616Y0184712D01*
X0149697Y0187660D02*
X0149618Y0187660D01*
X0151063Y0191610D02*
X0134921Y0175469D01*
X0134921Y0171138D01*
X0137254Y0171936D02*
X0147224Y0171936D01*
X0147224Y0172919D02*
X0136693Y0172919D01*
X0136693Y0173901D02*
X0147487Y0173901D01*
X0147224Y0173639D02*
X0147224Y0170133D01*
X0149704Y0167654D01*
X0153210Y0167654D01*
X0155689Y0170133D01*
X0155689Y0173639D01*
X0153210Y0176118D01*
X0149704Y0176118D01*
X0147224Y0173639D01*
X0148470Y0174884D02*
X0136842Y0174884D01*
X0137825Y0175867D02*
X0149453Y0175867D01*
X0153461Y0175867D02*
X0156476Y0175867D01*
X0156476Y0174884D02*
X0154444Y0174884D01*
X0155426Y0173901D02*
X0156476Y0173901D01*
X0156476Y0172919D02*
X0155689Y0172919D01*
X0155689Y0171936D02*
X0156476Y0171936D01*
X0156476Y0170953D02*
X0155689Y0170953D01*
X0155527Y0169970D02*
X0156476Y0169970D01*
X0156476Y0168988D02*
X0154544Y0168988D01*
X0153561Y0168005D02*
X0156476Y0168005D01*
X0156476Y0167022D02*
X0124488Y0167022D01*
X0124488Y0168005D02*
X0149352Y0168005D01*
X0148369Y0168988D02*
X0136160Y0168988D01*
X0137101Y0169970D02*
X0147387Y0169970D01*
X0147224Y0170953D02*
X0137382Y0170953D01*
X0133682Y0168988D02*
X0132617Y0168988D01*
X0130139Y0168988D02*
X0124488Y0168988D01*
X0124488Y0169970D02*
X0125916Y0169970D01*
X0125411Y0170953D02*
X0124488Y0170953D01*
X0124488Y0171936D02*
X0125374Y0171936D01*
X0125746Y0172919D02*
X0124641Y0172919D01*
X0125623Y0173901D02*
X0126063Y0173901D01*
X0127835Y0175469D02*
X0144370Y0192004D01*
X0144370Y0204996D01*
X0151457Y0212083D01*
X0151457Y0211886D01*
X0155689Y0212229D02*
X0156476Y0212229D01*
X0156476Y0211246D02*
X0155689Y0211246D01*
X0155689Y0210264D02*
X0156476Y0210264D01*
X0156476Y0209281D02*
X0154837Y0209281D01*
X0153854Y0208298D02*
X0156476Y0208298D01*
X0156476Y0207315D02*
X0149195Y0207315D01*
X0147132Y0210264D02*
X0144173Y0210264D01*
X0144173Y0211246D02*
X0147224Y0211246D01*
X0147224Y0212229D02*
X0144173Y0212229D01*
X0144855Y0213212D02*
X0147224Y0213212D01*
X0147780Y0214195D02*
X0145838Y0214195D01*
X0146821Y0215178D02*
X0148763Y0215178D01*
X0147804Y0216160D02*
X0156476Y0216160D01*
X0156476Y0215178D02*
X0154150Y0215178D01*
X0155133Y0214195D02*
X0156476Y0214195D01*
X0156476Y0213212D02*
X0155689Y0213212D01*
X0156476Y0217143D02*
X0148786Y0217143D01*
X0146724Y0220091D02*
X0117303Y0220091D01*
X0117314Y0221074D02*
X0147224Y0221074D01*
X0147224Y0222057D02*
X0117327Y0222057D01*
X0117341Y0223040D02*
X0147224Y0223040D01*
X0147608Y0224022D02*
X0117355Y0224022D01*
X0117368Y0225005D02*
X0148591Y0225005D01*
X0149573Y0225988D02*
X0117382Y0225988D01*
X0117396Y0226971D02*
X0156476Y0226971D01*
X0156476Y0227953D02*
X0153510Y0227953D01*
X0153210Y0227654D02*
X0155689Y0230133D01*
X0155689Y0233639D01*
X0153210Y0236118D01*
X0150005Y0236118D01*
X0147717Y0238407D01*
X0147717Y0239340D01*
X0149616Y0237441D01*
X0150965Y0237441D01*
X0150965Y0241394D01*
X0151949Y0241394D01*
X0151949Y0242378D01*
X0155902Y0242378D01*
X0155902Y0243727D01*
X0153298Y0246331D01*
X0151949Y0246331D01*
X0151949Y0242378D01*
X0150965Y0242378D01*
X0150965Y0246331D01*
X0149616Y0246331D01*
X0147717Y0244432D01*
X0147717Y0249641D01*
X0149704Y0247654D01*
X0153210Y0247654D01*
X0155689Y0250133D01*
X0155689Y0253639D01*
X0153210Y0256118D01*
X0149704Y0256118D01*
X0147224Y0253639D01*
X0147224Y0253618D01*
X0146679Y0253618D01*
X0130931Y0269366D01*
X0111039Y0269366D01*
X0110725Y0269680D01*
X0109820Y0270055D01*
X0108841Y0270055D01*
X0107937Y0269680D01*
X0107245Y0268988D01*
X0106870Y0268084D01*
X0106870Y0267105D01*
X0107245Y0266201D01*
X0107937Y0265508D01*
X0108841Y0265134D01*
X0109820Y0265134D01*
X0110725Y0265508D01*
X0111039Y0265823D01*
X0129463Y0265823D01*
X0132219Y0263067D01*
X0111039Y0263067D01*
X0110725Y0263381D01*
X0109820Y0263756D01*
X0108841Y0263756D01*
X0107937Y0263381D01*
X0107245Y0262689D01*
X0106870Y0261785D01*
X0106870Y0260806D01*
X0107245Y0259901D01*
X0107937Y0259209D01*
X0108841Y0258835D01*
X0109820Y0258835D01*
X0110725Y0259209D01*
X0111039Y0259524D01*
X0133006Y0259524D01*
X0144173Y0248357D01*
X0144173Y0236939D01*
X0147349Y0233764D01*
X0147224Y0233639D01*
X0147224Y0230133D01*
X0149704Y0227654D01*
X0153210Y0227654D01*
X0153340Y0225988D02*
X0156476Y0225988D01*
X0156476Y0225005D02*
X0154323Y0225005D01*
X0155305Y0224022D02*
X0156476Y0224022D01*
X0156476Y0223040D02*
X0155689Y0223040D01*
X0155689Y0222057D02*
X0156476Y0222057D01*
X0156476Y0221074D02*
X0155689Y0221074D01*
X0155648Y0220091D02*
X0156476Y0220091D01*
X0156476Y0219109D02*
X0154665Y0219109D01*
X0153682Y0218126D02*
X0156476Y0218126D01*
X0151457Y0221886D02*
X0151417Y0221925D01*
X0151063Y0221925D01*
X0142402Y0213264D01*
X0142402Y0193185D01*
X0122717Y0173500D01*
X0122717Y0166020D01*
X0146732Y0142004D01*
X0146732Y0120744D01*
X0143583Y0117594D01*
X0145386Y0115918D02*
X0156476Y0115918D01*
X0156476Y0114936D02*
X0139886Y0114936D01*
X0140869Y0115918D02*
X0141779Y0115918D01*
X0138903Y0113953D02*
X0156476Y0113953D01*
X0156476Y0116901D02*
X0145959Y0116901D01*
X0146378Y0117884D02*
X0149473Y0117884D01*
X0148490Y0118867D02*
X0147360Y0118867D01*
X0153440Y0117884D02*
X0156476Y0117884D01*
X0156476Y0118867D02*
X0154423Y0118867D01*
X0155406Y0119850D02*
X0156476Y0119850D01*
X0156476Y0120832D02*
X0155689Y0120832D01*
X0155689Y0121815D02*
X0156476Y0121815D01*
X0156476Y0122798D02*
X0155689Y0122798D01*
X0155547Y0123781D02*
X0156476Y0123781D01*
X0156476Y0124763D02*
X0154565Y0124763D01*
X0153582Y0125746D02*
X0156476Y0125746D01*
X0156476Y0126729D02*
X0148504Y0126729D01*
X0148504Y0127712D02*
X0149646Y0127712D01*
X0148663Y0128694D02*
X0148504Y0128694D01*
X0148504Y0125746D02*
X0149332Y0125746D01*
X0153268Y0127712D02*
X0156476Y0127712D01*
X0156476Y0128694D02*
X0154251Y0128694D01*
X0155233Y0129677D02*
X0156476Y0129677D01*
X0156476Y0130660D02*
X0155689Y0130660D01*
X0155689Y0131643D02*
X0156476Y0131643D01*
X0156476Y0132625D02*
X0155689Y0132625D01*
X0155689Y0133608D02*
X0156476Y0133608D01*
X0156476Y0134591D02*
X0154737Y0134591D01*
X0153754Y0135574D02*
X0156476Y0135574D01*
X0156476Y0136556D02*
X0148504Y0136556D01*
X0148504Y0135574D02*
X0149159Y0135574D01*
X0148504Y0137539D02*
X0156476Y0137539D01*
X0156476Y0138522D02*
X0154078Y0138522D01*
X0155061Y0139505D02*
X0156476Y0139505D01*
X0156476Y0140488D02*
X0155689Y0140488D01*
X0155689Y0141470D02*
X0156476Y0141470D01*
X0156476Y0142453D02*
X0155689Y0142453D01*
X0155689Y0143436D02*
X0156476Y0143436D01*
X0156476Y0144419D02*
X0154909Y0144419D01*
X0153927Y0145401D02*
X0156476Y0145401D01*
X0156476Y0146384D02*
X0144858Y0146384D01*
X0145840Y0145401D02*
X0148987Y0145401D01*
X0148004Y0144419D02*
X0146823Y0144419D01*
X0143875Y0147367D02*
X0156476Y0147367D01*
X0156476Y0148350D02*
X0153906Y0148350D01*
X0153210Y0147654D02*
X0155689Y0150133D01*
X0155689Y0153639D01*
X0153210Y0156118D01*
X0149704Y0156118D01*
X0147224Y0153639D01*
X0147224Y0150133D01*
X0149704Y0147654D01*
X0153210Y0147654D01*
X0154889Y0149332D02*
X0156476Y0149332D01*
X0156476Y0150315D02*
X0155689Y0150315D01*
X0155689Y0151298D02*
X0156476Y0151298D01*
X0156476Y0152281D02*
X0155689Y0152281D01*
X0155689Y0153263D02*
X0156476Y0153263D01*
X0156476Y0154246D02*
X0155082Y0154246D01*
X0154099Y0155229D02*
X0156476Y0155229D01*
X0156476Y0156212D02*
X0135030Y0156212D01*
X0134047Y0157195D02*
X0156476Y0157195D01*
X0156476Y0158177D02*
X0153733Y0158177D01*
X0153210Y0157654D02*
X0155689Y0160133D01*
X0155689Y0163639D01*
X0153210Y0166118D01*
X0149704Y0166118D01*
X0147224Y0163639D01*
X0147224Y0160133D01*
X0149704Y0157654D01*
X0153210Y0157654D01*
X0154716Y0159160D02*
X0156476Y0159160D01*
X0156476Y0160143D02*
X0155689Y0160143D01*
X0155689Y0161126D02*
X0156476Y0161126D01*
X0156476Y0162108D02*
X0155689Y0162108D01*
X0155689Y0163091D02*
X0156476Y0163091D01*
X0156476Y0164074D02*
X0155254Y0164074D01*
X0154271Y0165057D02*
X0156476Y0165057D01*
X0156476Y0166039D02*
X0153288Y0166039D01*
X0149625Y0166039D02*
X0125202Y0166039D01*
X0126185Y0165057D02*
X0148642Y0165057D01*
X0147659Y0164074D02*
X0127168Y0164074D01*
X0128151Y0163091D02*
X0147224Y0163091D01*
X0147224Y0162108D02*
X0129133Y0162108D01*
X0130116Y0161126D02*
X0147224Y0161126D01*
X0147224Y0160143D02*
X0131099Y0160143D01*
X0132082Y0159160D02*
X0148197Y0159160D01*
X0149180Y0158177D02*
X0133064Y0158177D01*
X0136013Y0155229D02*
X0148815Y0155229D01*
X0147832Y0154246D02*
X0136995Y0154246D01*
X0137978Y0153263D02*
X0147224Y0153263D01*
X0147224Y0152281D02*
X0138961Y0152281D01*
X0139944Y0151298D02*
X0147224Y0151298D01*
X0147224Y0150315D02*
X0140927Y0150315D01*
X0141909Y0149332D02*
X0148025Y0149332D01*
X0149008Y0148350D02*
X0142892Y0148350D01*
X0140433Y0140035D02*
X0140433Y0123500D01*
X0136496Y0119563D01*
X0101063Y0119563D01*
X0098701Y0121925D01*
X0098701Y0132949D01*
X0095413Y0136236D01*
X0092008Y0136236D01*
X0086972Y0138522D02*
X0084216Y0138522D01*
X0085199Y0137539D02*
X0086398Y0137539D01*
X0086398Y0136556D02*
X0086181Y0136556D01*
X0086418Y0139505D02*
X0083233Y0139505D01*
X0082250Y0140488D02*
X0086398Y0140488D01*
X0086398Y0141470D02*
X0081267Y0141470D01*
X0080285Y0142453D02*
X0086398Y0142453D01*
X0086886Y0143436D02*
X0077933Y0143436D01*
X0078122Y0144419D02*
X0104584Y0144419D01*
X0104492Y0145401D02*
X0078175Y0145401D01*
X0078327Y0146384D02*
X0107165Y0146384D01*
X0107165Y0147367D02*
X0107559Y0147367D01*
X0107559Y0148350D02*
X0107165Y0148350D01*
X0109232Y0149332D02*
X0078327Y0149332D01*
X0078327Y0148350D02*
X0104629Y0148350D01*
X0104492Y0147367D02*
X0078327Y0147367D01*
X0078327Y0150315D02*
X0109232Y0150315D01*
X0109232Y0151298D02*
X0078327Y0151298D01*
X0072618Y0151298D02*
X0066799Y0151298D01*
X0065827Y0150325D02*
X0072269Y0156768D01*
X0073207Y0156768D01*
X0073053Y0156613D01*
X0072618Y0155564D01*
X0072618Y0149125D01*
X0072322Y0149205D01*
X0070945Y0149205D01*
X0070945Y0146532D01*
X0070551Y0146532D01*
X0070551Y0149205D01*
X0069174Y0149205D01*
X0068794Y0149103D01*
X0068454Y0148907D01*
X0068176Y0148629D01*
X0067980Y0148289D01*
X0067878Y0147909D01*
X0067878Y0146531D01*
X0070551Y0146531D01*
X0070551Y0146138D01*
X0067878Y0146138D01*
X0067878Y0144760D01*
X0067980Y0144381D01*
X0068176Y0144041D01*
X0068454Y0143763D01*
X0068559Y0143702D01*
X0065827Y0143702D01*
X0065827Y0150325D01*
X0065827Y0150315D02*
X0072618Y0150315D01*
X0072618Y0149332D02*
X0065827Y0149332D01*
X0065827Y0148350D02*
X0068015Y0148350D01*
X0067878Y0147367D02*
X0065827Y0147367D01*
X0065827Y0146384D02*
X0070551Y0146384D01*
X0070551Y0147367D02*
X0070945Y0147367D01*
X0070945Y0148350D02*
X0070551Y0148350D01*
X0067878Y0145401D02*
X0065827Y0145401D01*
X0065827Y0144419D02*
X0067969Y0144419D01*
X0067782Y0152281D02*
X0072618Y0152281D01*
X0072618Y0153263D02*
X0068765Y0153263D01*
X0069748Y0154246D02*
X0072618Y0154246D01*
X0072618Y0155229D02*
X0070731Y0155229D01*
X0071713Y0156212D02*
X0072887Y0156212D01*
X0066417Y0160508D02*
X0059331Y0153421D01*
X0059331Y0123106D01*
X0060271Y0120832D02*
X0063115Y0120832D01*
X0061927Y0121815D02*
X0061459Y0121815D01*
X0058391Y0120832D02*
X0058346Y0120832D01*
X0056575Y0117201D02*
X0056575Y0164839D01*
X0069173Y0177437D01*
X0089252Y0177437D01*
X0090433Y0178618D01*
X0092145Y0176850D02*
X0094272Y0176850D01*
X0094272Y0177833D02*
X0092771Y0177833D01*
X0092894Y0178815D02*
X0094272Y0178815D01*
X0094272Y0179798D02*
X0092608Y0179798D01*
X0091642Y0180781D02*
X0094272Y0180781D01*
X0094272Y0181764D02*
X0055689Y0181764D01*
X0055689Y0182746D02*
X0094272Y0182746D01*
X0094272Y0183729D02*
X0055599Y0183729D01*
X0055689Y0183639D02*
X0053210Y0186118D01*
X0049704Y0186118D01*
X0047224Y0183639D01*
X0047224Y0180133D01*
X0049704Y0177654D01*
X0053210Y0177654D01*
X0055689Y0180133D01*
X0055689Y0183639D01*
X0054616Y0184712D02*
X0091078Y0184712D01*
X0091173Y0184616D02*
X0092564Y0184616D01*
X0093548Y0185600D01*
X0093548Y0189610D01*
X0092894Y0190265D01*
X0092894Y0192510D01*
X0092724Y0192680D01*
X0092894Y0192850D01*
X0092894Y0194242D01*
X0092280Y0194855D01*
X0092894Y0195469D01*
X0092894Y0196860D01*
X0092396Y0197358D01*
X0092894Y0197855D01*
X0092894Y0200556D01*
X0092396Y0201053D01*
X0092894Y0201551D01*
X0092894Y0205561D01*
X0092396Y0206058D01*
X0092894Y0206556D01*
X0092894Y0207947D01*
X0091910Y0208931D01*
X0090930Y0208931D01*
X0090930Y0209267D01*
X0091910Y0209267D01*
X0092894Y0210251D01*
X0092894Y0211643D01*
X0092280Y0212256D01*
X0092894Y0212870D01*
X0092894Y0213947D01*
X0093548Y0214601D01*
X0093548Y0218611D01*
X0092724Y0219436D01*
X0092894Y0219606D01*
X0092894Y0222307D01*
X0092239Y0222961D01*
X0091255Y0223945D01*
X0087245Y0223945D01*
X0086591Y0223291D01*
X0085607Y0222307D01*
X0085607Y0219606D01*
X0086262Y0218952D01*
X0087245Y0217968D01*
X0090189Y0217968D01*
X0090189Y0215245D01*
X0086591Y0215245D01*
X0085607Y0214261D01*
X0085607Y0212870D01*
X0086220Y0212256D01*
X0085607Y0211643D01*
X0085607Y0210251D01*
X0086591Y0209267D01*
X0086927Y0209267D01*
X0085607Y0207947D01*
X0085607Y0206556D01*
X0086104Y0206058D01*
X0085607Y0205561D01*
X0085607Y0201551D01*
X0085777Y0201381D01*
X0085607Y0201211D01*
X0085607Y0199819D01*
X0086220Y0199206D01*
X0085607Y0198592D01*
X0085607Y0197201D01*
X0085777Y0197031D01*
X0085607Y0196860D01*
X0085607Y0195469D01*
X0086220Y0194855D01*
X0085607Y0194242D01*
X0085607Y0192850D01*
X0085777Y0192680D01*
X0085607Y0192510D01*
X0085607Y0189810D01*
X0086591Y0188826D01*
X0087982Y0188826D01*
X0088637Y0189480D01*
X0089864Y0189480D01*
X0090189Y0189155D01*
X0090189Y0185600D01*
X0091173Y0184616D01*
X0090189Y0185695D02*
X0053633Y0185695D01*
X0053210Y0187654D02*
X0049704Y0187654D01*
X0047224Y0190133D01*
X0047224Y0193639D01*
X0049704Y0196118D01*
X0053210Y0196118D01*
X0055689Y0193639D01*
X0055689Y0190133D01*
X0053210Y0187654D01*
X0053216Y0187660D02*
X0090189Y0187660D01*
X0090189Y0186677D02*
X0046437Y0186677D01*
X0046437Y0185695D02*
X0049280Y0185695D01*
X0048297Y0184712D02*
X0046437Y0184712D01*
X0046437Y0183729D02*
X0047315Y0183729D01*
X0047224Y0182746D02*
X0046437Y0182746D01*
X0046437Y0181764D02*
X0047224Y0181764D01*
X0047224Y0180781D02*
X0046437Y0180781D01*
X0046437Y0179798D02*
X0047559Y0179798D01*
X0048542Y0178815D02*
X0046437Y0178815D01*
X0046437Y0177833D02*
X0049525Y0177833D01*
X0049704Y0176118D02*
X0047224Y0173639D01*
X0047224Y0170133D01*
X0049704Y0167654D01*
X0053210Y0167654D01*
X0055689Y0170133D01*
X0055689Y0173639D01*
X0053210Y0176118D01*
X0049704Y0176118D01*
X0049453Y0175867D02*
X0046437Y0175867D01*
X0046437Y0174884D02*
X0048470Y0174884D01*
X0047487Y0173901D02*
X0046437Y0173901D01*
X0046437Y0172919D02*
X0047224Y0172919D01*
X0047224Y0171936D02*
X0046437Y0171936D01*
X0046437Y0170953D02*
X0047224Y0170953D01*
X0047387Y0169970D02*
X0046437Y0169970D01*
X0046437Y0168988D02*
X0048369Y0168988D01*
X0049352Y0168005D02*
X0046437Y0168005D01*
X0046437Y0167022D02*
X0056253Y0167022D01*
X0055270Y0166039D02*
X0053288Y0166039D01*
X0054271Y0165057D02*
X0054803Y0165057D01*
X0053561Y0168005D02*
X0057236Y0168005D01*
X0058218Y0168988D02*
X0054544Y0168988D01*
X0055527Y0169970D02*
X0059201Y0169970D01*
X0060184Y0170953D02*
X0055689Y0170953D01*
X0055689Y0171936D02*
X0061167Y0171936D01*
X0062149Y0172919D02*
X0055689Y0172919D01*
X0055426Y0173901D02*
X0063132Y0173901D01*
X0064115Y0174884D02*
X0054444Y0174884D01*
X0053461Y0175867D02*
X0065098Y0175867D01*
X0066081Y0176850D02*
X0046437Y0176850D01*
X0053389Y0177833D02*
X0067063Y0177833D01*
X0068046Y0178815D02*
X0054372Y0178815D01*
X0055354Y0179798D02*
X0088258Y0179798D01*
X0089224Y0180781D02*
X0055689Y0180781D01*
X0054199Y0188643D02*
X0090189Y0188643D01*
X0092894Y0190608D02*
X0094272Y0190608D01*
X0094272Y0189626D02*
X0093533Y0189626D01*
X0093548Y0188643D02*
X0094272Y0188643D01*
X0094272Y0187660D02*
X0093548Y0187660D01*
X0093548Y0186677D02*
X0094272Y0186677D01*
X0094272Y0185695D02*
X0093548Y0185695D01*
X0094272Y0184712D02*
X0092660Y0184712D01*
X0092894Y0191591D02*
X0094272Y0191591D01*
X0094272Y0192574D02*
X0092830Y0192574D01*
X0092894Y0193557D02*
X0094272Y0193557D01*
X0094272Y0194540D02*
X0092596Y0194540D01*
X0092894Y0195522D02*
X0094272Y0195522D01*
X0094272Y0196505D02*
X0092894Y0196505D01*
X0092526Y0197488D02*
X0094272Y0197488D01*
X0094272Y0198471D02*
X0092894Y0198471D01*
X0092894Y0199453D02*
X0094272Y0199453D01*
X0094272Y0200436D02*
X0092894Y0200436D01*
X0092762Y0201419D02*
X0094272Y0201419D01*
X0094272Y0202402D02*
X0092894Y0202402D01*
X0092894Y0203384D02*
X0094272Y0203384D01*
X0094272Y0204367D02*
X0092894Y0204367D01*
X0092894Y0205350D02*
X0094272Y0205350D01*
X0094272Y0206333D02*
X0092671Y0206333D01*
X0092894Y0207315D02*
X0094378Y0207315D01*
X0094785Y0208298D02*
X0092542Y0208298D01*
X0091923Y0209281D02*
X0095541Y0209281D01*
X0096524Y0210264D02*
X0092894Y0210264D01*
X0092894Y0211246D02*
X0097506Y0211246D01*
X0098489Y0212229D02*
X0092307Y0212229D01*
X0092894Y0213212D02*
X0099472Y0213212D01*
X0100455Y0214195D02*
X0093142Y0214195D01*
X0093548Y0215178D02*
X0101437Y0215178D01*
X0102420Y0216160D02*
X0093548Y0216160D01*
X0093548Y0217143D02*
X0103403Y0217143D01*
X0104386Y0218126D02*
X0093548Y0218126D01*
X0093051Y0219109D02*
X0105368Y0219109D01*
X0106351Y0220091D02*
X0092894Y0220091D01*
X0092894Y0221074D02*
X0107334Y0221074D01*
X0108317Y0222057D02*
X0092894Y0222057D01*
X0092161Y0223040D02*
X0108482Y0223040D01*
X0108495Y0224022D02*
X0108400Y0224022D01*
X0106324Y0224022D02*
X0055305Y0224022D01*
X0055689Y0223639D02*
X0053210Y0226118D01*
X0049704Y0226118D01*
X0047224Y0223639D01*
X0047224Y0220133D01*
X0049704Y0217654D01*
X0053210Y0217654D01*
X0055689Y0220133D01*
X0055689Y0223639D01*
X0055689Y0223040D02*
X0086340Y0223040D01*
X0085607Y0222057D02*
X0055689Y0222057D01*
X0055689Y0221074D02*
X0085607Y0221074D01*
X0085607Y0220091D02*
X0055648Y0220091D01*
X0054665Y0219109D02*
X0086104Y0219109D01*
X0087087Y0218126D02*
X0053682Y0218126D01*
X0053210Y0216118D02*
X0049704Y0216118D01*
X0047224Y0213639D01*
X0047224Y0210133D01*
X0049704Y0207654D01*
X0053210Y0207654D01*
X0055689Y0210133D01*
X0055689Y0213639D01*
X0053210Y0216118D01*
X0054150Y0215178D02*
X0086523Y0215178D01*
X0085607Y0214195D02*
X0055133Y0214195D01*
X0055689Y0213212D02*
X0085607Y0213212D01*
X0086194Y0212229D02*
X0055689Y0212229D01*
X0055689Y0211246D02*
X0085607Y0211246D01*
X0085607Y0210264D02*
X0055689Y0210264D01*
X0054837Y0209281D02*
X0086577Y0209281D01*
X0085958Y0208298D02*
X0053854Y0208298D01*
X0053210Y0206118D02*
X0049704Y0206118D01*
X0047224Y0203639D01*
X0047224Y0200133D01*
X0049704Y0197654D01*
X0053210Y0197654D01*
X0055689Y0200133D01*
X0055689Y0203639D01*
X0053210Y0206118D01*
X0053978Y0205350D02*
X0085607Y0205350D01*
X0085607Y0204367D02*
X0054961Y0204367D01*
X0055689Y0203384D02*
X0085607Y0203384D01*
X0085607Y0202402D02*
X0055689Y0202402D01*
X0055689Y0201419D02*
X0085739Y0201419D01*
X0085607Y0200436D02*
X0055689Y0200436D01*
X0055010Y0199453D02*
X0085973Y0199453D01*
X0085607Y0198471D02*
X0054027Y0198471D01*
X0053806Y0195522D02*
X0085607Y0195522D01*
X0085607Y0196505D02*
X0046437Y0196505D01*
X0046437Y0195522D02*
X0049108Y0195522D01*
X0048125Y0194540D02*
X0046437Y0194540D01*
X0046437Y0193557D02*
X0047224Y0193557D01*
X0047224Y0192574D02*
X0046437Y0192574D01*
X0046437Y0191591D02*
X0047224Y0191591D01*
X0047224Y0190608D02*
X0046437Y0190608D01*
X0046437Y0189626D02*
X0047731Y0189626D01*
X0048714Y0188643D02*
X0046437Y0188643D01*
X0046437Y0187660D02*
X0049697Y0187660D01*
X0055182Y0189626D02*
X0085791Y0189626D01*
X0085607Y0190608D02*
X0055689Y0190608D01*
X0055689Y0191591D02*
X0085607Y0191591D01*
X0085671Y0192574D02*
X0055689Y0192574D01*
X0055689Y0193557D02*
X0085607Y0193557D01*
X0085905Y0194540D02*
X0054788Y0194540D01*
X0048887Y0198471D02*
X0046437Y0198471D01*
X0046437Y0199453D02*
X0047904Y0199453D01*
X0047224Y0200436D02*
X0046437Y0200436D01*
X0046437Y0201419D02*
X0047224Y0201419D01*
X0047224Y0202402D02*
X0046437Y0202402D01*
X0046437Y0203384D02*
X0047224Y0203384D01*
X0047953Y0204367D02*
X0046437Y0204367D01*
X0046437Y0205350D02*
X0048935Y0205350D01*
X0046437Y0206333D02*
X0085830Y0206333D01*
X0085607Y0207315D02*
X0046437Y0207315D01*
X0046437Y0208298D02*
X0049059Y0208298D01*
X0048076Y0209281D02*
X0046437Y0209281D01*
X0046437Y0210264D02*
X0047224Y0210264D01*
X0047224Y0211246D02*
X0046437Y0211246D01*
X0046437Y0212229D02*
X0047224Y0212229D01*
X0047224Y0213212D02*
X0046437Y0213212D01*
X0046437Y0214195D02*
X0047780Y0214195D01*
X0048763Y0215178D02*
X0046437Y0215178D01*
X0046437Y0216160D02*
X0090189Y0216160D01*
X0090189Y0217143D02*
X0046437Y0217143D01*
X0046437Y0218126D02*
X0049231Y0218126D01*
X0048249Y0219109D02*
X0046437Y0219109D01*
X0046437Y0220091D02*
X0047266Y0220091D01*
X0047224Y0221074D02*
X0046437Y0221074D01*
X0046437Y0222057D02*
X0047224Y0222057D01*
X0047224Y0223040D02*
X0046437Y0223040D01*
X0046437Y0224022D02*
X0047608Y0224022D01*
X0048591Y0225005D02*
X0046437Y0225005D01*
X0046437Y0225988D02*
X0049573Y0225988D01*
X0049704Y0227654D02*
X0053210Y0227654D01*
X0055689Y0230133D01*
X0055689Y0233639D01*
X0053210Y0236118D01*
X0049704Y0236118D01*
X0047224Y0233639D01*
X0047224Y0230133D01*
X0049704Y0227654D01*
X0049404Y0227953D02*
X0046437Y0227953D01*
X0046437Y0226971D02*
X0102774Y0226971D01*
X0101988Y0227953D02*
X0053510Y0227953D01*
X0054492Y0228936D02*
X0101752Y0228936D01*
X0101925Y0229919D02*
X0055475Y0229919D01*
X0055689Y0230902D02*
X0101205Y0230902D01*
X0100015Y0231885D02*
X0055689Y0231885D01*
X0055689Y0232867D02*
X0099033Y0232867D01*
X0098050Y0233850D02*
X0055478Y0233850D01*
X0054495Y0234833D02*
X0097067Y0234833D01*
X0096084Y0235816D02*
X0053512Y0235816D01*
X0053210Y0237654D02*
X0049704Y0237654D01*
X0047224Y0240133D01*
X0047224Y0243639D01*
X0049704Y0246118D01*
X0053210Y0246118D01*
X0055689Y0243639D01*
X0055689Y0240133D01*
X0053210Y0237654D01*
X0053337Y0237781D02*
X0094119Y0237781D01*
X0095102Y0236798D02*
X0046437Y0236798D01*
X0046437Y0235816D02*
X0049401Y0235816D01*
X0048418Y0234833D02*
X0046437Y0234833D01*
X0046437Y0233850D02*
X0047436Y0233850D01*
X0047224Y0232867D02*
X0046437Y0232867D01*
X0046437Y0231885D02*
X0047224Y0231885D01*
X0047224Y0230902D02*
X0046437Y0230902D01*
X0046437Y0229919D02*
X0047438Y0229919D01*
X0048421Y0228936D02*
X0046437Y0228936D01*
X0053340Y0225988D02*
X0104902Y0225988D01*
X0105217Y0225005D02*
X0054323Y0225005D01*
X0049576Y0237781D02*
X0046437Y0237781D01*
X0046437Y0238764D02*
X0048593Y0238764D01*
X0047611Y0239747D02*
X0046437Y0239747D01*
X0046437Y0240729D02*
X0047224Y0240729D01*
X0047224Y0241712D02*
X0046437Y0241712D01*
X0046437Y0242695D02*
X0047224Y0242695D01*
X0047263Y0243678D02*
X0046437Y0243678D01*
X0046437Y0244660D02*
X0048246Y0244660D01*
X0049229Y0245643D02*
X0046437Y0245643D01*
X0046437Y0246626D02*
X0091811Y0246626D01*
X0091811Y0247609D02*
X0046437Y0247609D01*
X0046437Y0248591D02*
X0048766Y0248591D01*
X0049704Y0247654D02*
X0047224Y0250133D01*
X0047224Y0253639D01*
X0049704Y0256118D01*
X0053210Y0256118D01*
X0055689Y0253639D01*
X0055689Y0250133D01*
X0053210Y0247654D01*
X0049704Y0247654D01*
X0047783Y0249574D02*
X0046437Y0249574D01*
X0046437Y0250557D02*
X0047224Y0250557D01*
X0047224Y0251540D02*
X0046437Y0251540D01*
X0046437Y0252523D02*
X0047224Y0252523D01*
X0047224Y0253505D02*
X0046437Y0253505D01*
X0046437Y0254488D02*
X0048074Y0254488D01*
X0049056Y0255471D02*
X0046437Y0255471D01*
X0046437Y0256454D02*
X0091811Y0256454D01*
X0091811Y0257436D02*
X0087412Y0257436D01*
X0086986Y0257260D02*
X0087890Y0257634D01*
X0088582Y0258327D01*
X0088957Y0259231D01*
X0088957Y0260210D01*
X0088582Y0261114D01*
X0087890Y0261806D01*
X0086986Y0262181D01*
X0086007Y0262181D01*
X0085102Y0261806D01*
X0084788Y0261492D01*
X0079149Y0261492D01*
X0078835Y0261806D01*
X0077930Y0262181D01*
X0076951Y0262181D01*
X0076047Y0261806D01*
X0075355Y0261114D01*
X0074980Y0260210D01*
X0074980Y0259231D01*
X0075355Y0258327D01*
X0076047Y0257634D01*
X0076951Y0257260D01*
X0077930Y0257260D01*
X0078835Y0257634D01*
X0079149Y0257949D01*
X0084788Y0257949D01*
X0085102Y0257634D01*
X0086007Y0257260D01*
X0086986Y0257260D01*
X0085580Y0257436D02*
X0078357Y0257436D01*
X0076525Y0257436D02*
X0046437Y0257436D01*
X0046437Y0258419D02*
X0075317Y0258419D01*
X0074980Y0259402D02*
X0046437Y0259402D01*
X0046437Y0260385D02*
X0075053Y0260385D01*
X0075608Y0261367D02*
X0046437Y0261367D01*
X0046437Y0262350D02*
X0091461Y0262350D01*
X0091122Y0263333D02*
X0046437Y0263333D01*
X0046437Y0264316D02*
X0091192Y0264316D01*
X0091744Y0265298D02*
X0046437Y0265298D01*
X0046437Y0266281D02*
X0107211Y0266281D01*
X0106870Y0267264D02*
X0046437Y0267264D01*
X0046437Y0268247D02*
X0106938Y0268247D01*
X0107486Y0269230D02*
X0046437Y0269230D01*
X0046480Y0270212D02*
X0156434Y0270212D01*
X0156476Y0269230D02*
X0131067Y0269230D01*
X0132050Y0268247D02*
X0156476Y0268247D01*
X0156476Y0267264D02*
X0133033Y0267264D01*
X0134016Y0266281D02*
X0156476Y0266281D01*
X0156476Y0265298D02*
X0134998Y0265298D01*
X0135981Y0264316D02*
X0156476Y0264316D01*
X0156476Y0263333D02*
X0136964Y0263333D01*
X0137947Y0262350D02*
X0156476Y0262350D01*
X0156476Y0261367D02*
X0138929Y0261367D01*
X0139912Y0260385D02*
X0156476Y0260385D01*
X0156476Y0259402D02*
X0140895Y0259402D01*
X0141878Y0258419D02*
X0156476Y0258419D01*
X0156476Y0257436D02*
X0142860Y0257436D01*
X0143843Y0256454D02*
X0156476Y0256454D01*
X0156476Y0255471D02*
X0153857Y0255471D01*
X0154840Y0254488D02*
X0156476Y0254488D01*
X0156476Y0253505D02*
X0155689Y0253505D01*
X0155689Y0252523D02*
X0156476Y0252523D01*
X0156476Y0251540D02*
X0155689Y0251540D01*
X0155689Y0250557D02*
X0156476Y0250557D01*
X0156476Y0249574D02*
X0155130Y0249574D01*
X0154148Y0248591D02*
X0156476Y0248591D01*
X0156476Y0247609D02*
X0147717Y0247609D01*
X0147717Y0248591D02*
X0148766Y0248591D01*
X0147783Y0249574D02*
X0147717Y0249574D01*
X0145945Y0249091D02*
X0145945Y0237673D01*
X0151457Y0232161D01*
X0151457Y0231886D01*
X0155689Y0231885D02*
X0156476Y0231885D01*
X0156476Y0232867D02*
X0155689Y0232867D01*
X0155478Y0233850D02*
X0156476Y0233850D01*
X0156476Y0234833D02*
X0154495Y0234833D01*
X0153512Y0235816D02*
X0156476Y0235816D01*
X0156476Y0236798D02*
X0149325Y0236798D01*
X0149275Y0237781D02*
X0148342Y0237781D01*
X0148293Y0238764D02*
X0147717Y0238764D01*
X0150965Y0238764D02*
X0151949Y0238764D01*
X0151949Y0239747D02*
X0150965Y0239747D01*
X0150965Y0240729D02*
X0151949Y0240729D01*
X0151949Y0241394D02*
X0151949Y0237441D01*
X0153298Y0237441D01*
X0155902Y0240045D01*
X0155902Y0241394D01*
X0151949Y0241394D01*
X0151949Y0241712D02*
X0156476Y0241712D01*
X0156476Y0240729D02*
X0155902Y0240729D01*
X0155603Y0239747D02*
X0156476Y0239747D01*
X0156476Y0238764D02*
X0154621Y0238764D01*
X0153638Y0237781D02*
X0156476Y0237781D01*
X0151949Y0237781D02*
X0150965Y0237781D01*
X0150965Y0242695D02*
X0151949Y0242695D01*
X0151949Y0243678D02*
X0150965Y0243678D01*
X0150965Y0244660D02*
X0151949Y0244660D01*
X0151949Y0245643D02*
X0150965Y0245643D01*
X0148928Y0245643D02*
X0147717Y0245643D01*
X0147717Y0244660D02*
X0147945Y0244660D01*
X0147717Y0246626D02*
X0156476Y0246626D01*
X0156476Y0245643D02*
X0153985Y0245643D01*
X0154968Y0244660D02*
X0156476Y0244660D01*
X0156476Y0243678D02*
X0155902Y0243678D01*
X0155902Y0242695D02*
X0156476Y0242695D01*
X0147263Y0233850D02*
X0117491Y0233850D01*
X0117477Y0232867D02*
X0147224Y0232867D01*
X0147224Y0231885D02*
X0117464Y0231885D01*
X0117450Y0230902D02*
X0147224Y0230902D01*
X0147438Y0229919D02*
X0117436Y0229919D01*
X0117423Y0228936D02*
X0148421Y0228936D01*
X0149404Y0227953D02*
X0117409Y0227953D01*
X0117505Y0234833D02*
X0146280Y0234833D01*
X0145297Y0235816D02*
X0117518Y0235816D01*
X0117532Y0236798D02*
X0144314Y0236798D01*
X0144173Y0237781D02*
X0117546Y0237781D01*
X0117559Y0238764D02*
X0144173Y0238764D01*
X0144173Y0239747D02*
X0117573Y0239747D01*
X0117587Y0240729D02*
X0144173Y0240729D01*
X0144173Y0241712D02*
X0117600Y0241712D01*
X0117614Y0242695D02*
X0144173Y0242695D01*
X0144173Y0243678D02*
X0117628Y0243678D01*
X0117641Y0244660D02*
X0144173Y0244660D01*
X0144173Y0245643D02*
X0117655Y0245643D01*
X0117669Y0246626D02*
X0144173Y0246626D01*
X0144173Y0247609D02*
X0117682Y0247609D01*
X0117696Y0248591D02*
X0143938Y0248591D01*
X0142956Y0249574D02*
X0117686Y0249574D01*
X0117294Y0250557D02*
X0141973Y0250557D01*
X0140990Y0251540D02*
X0116681Y0251540D01*
X0115582Y0252523D02*
X0140007Y0252523D01*
X0139025Y0253505D02*
X0106378Y0253505D01*
X0106378Y0252523D02*
X0110903Y0252523D01*
X0109838Y0251540D02*
X0106378Y0251540D01*
X0106378Y0250557D02*
X0108729Y0250557D01*
X0108179Y0249574D02*
X0106378Y0249574D01*
X0106378Y0248591D02*
X0108051Y0248591D01*
X0108267Y0247609D02*
X0106378Y0247609D01*
X0106378Y0246626D02*
X0108809Y0246626D01*
X0108796Y0245643D02*
X0106378Y0245643D01*
X0106378Y0244660D02*
X0108782Y0244660D01*
X0108768Y0243678D02*
X0106378Y0243678D01*
X0106421Y0242695D02*
X0108755Y0242695D01*
X0108741Y0241712D02*
X0107404Y0241712D01*
X0108096Y0241020D02*
X0108096Y0241020D01*
X0108386Y0240729D02*
X0108727Y0240729D01*
X0107362Y0239248D02*
X0107362Y0226256D01*
X0104213Y0229012D02*
X0105394Y0230193D01*
X0105394Y0238461D01*
X0102244Y0241610D01*
X0102244Y0254602D01*
X0099940Y0255471D02*
X0095354Y0255471D01*
X0095354Y0256454D02*
X0100615Y0256454D01*
X0099783Y0254488D02*
X0095354Y0254488D01*
X0095354Y0253505D02*
X0100035Y0253505D01*
X0100472Y0252523D02*
X0095354Y0252523D01*
X0095354Y0251540D02*
X0100472Y0251540D01*
X0100472Y0250557D02*
X0095354Y0250557D01*
X0095354Y0249574D02*
X0100472Y0249574D01*
X0100472Y0248591D02*
X0095354Y0248591D01*
X0095354Y0247609D02*
X0100472Y0247609D01*
X0100472Y0246626D02*
X0095354Y0246626D01*
X0095354Y0245643D02*
X0100472Y0245643D01*
X0100472Y0244660D02*
X0095354Y0244660D01*
X0095354Y0243678D02*
X0100472Y0243678D01*
X0100472Y0242695D02*
X0098873Y0242695D01*
X0100045Y0241712D02*
X0100472Y0241712D01*
X0100374Y0240729D02*
X0100619Y0240729D01*
X0101280Y0239747D02*
X0101602Y0239747D01*
X0102352Y0238764D02*
X0102585Y0238764D01*
X0102638Y0236098D02*
X0097913Y0240429D01*
X0096954Y0242695D02*
X0095354Y0242695D01*
X0095354Y0241712D02*
X0095781Y0241712D01*
X0093583Y0240823D02*
X0101457Y0232949D01*
X0102638Y0232949D01*
X0107362Y0239248D02*
X0104606Y0242004D01*
X0104606Y0259720D01*
X0103819Y0260508D01*
X0106126Y0261367D02*
X0106870Y0261367D01*
X0107045Y0260385D02*
X0106378Y0260385D01*
X0106378Y0259402D02*
X0107744Y0259402D01*
X0106378Y0258419D02*
X0134111Y0258419D01*
X0135094Y0257436D02*
X0106378Y0257436D01*
X0106378Y0256454D02*
X0136076Y0256454D01*
X0137059Y0255471D02*
X0106378Y0255471D01*
X0106378Y0254488D02*
X0138042Y0254488D01*
X0133128Y0259402D02*
X0110917Y0259402D01*
X0109331Y0261295D02*
X0133740Y0261295D01*
X0145945Y0249091D01*
X0145945Y0251846D02*
X0130197Y0267594D01*
X0109331Y0267594D01*
X0110218Y0265298D02*
X0129987Y0265298D01*
X0130970Y0264316D02*
X0095973Y0264316D01*
X0096043Y0263333D02*
X0107889Y0263333D01*
X0107104Y0262350D02*
X0105456Y0262350D01*
X0102181Y0262350D02*
X0095705Y0262350D01*
X0095354Y0261367D02*
X0101512Y0261367D01*
X0101358Y0260385D02*
X0095354Y0260385D01*
X0095354Y0259402D02*
X0101614Y0259402D01*
X0102432Y0258419D02*
X0095354Y0258419D01*
X0095354Y0257436D02*
X0102835Y0257436D01*
X0108444Y0265298D02*
X0095422Y0265298D01*
X0093583Y0263657D02*
X0093583Y0240823D01*
X0091811Y0240729D02*
X0055689Y0240729D01*
X0055689Y0241712D02*
X0091811Y0241712D01*
X0091811Y0242695D02*
X0055689Y0242695D01*
X0055650Y0243678D02*
X0091811Y0243678D01*
X0091811Y0244660D02*
X0054667Y0244660D01*
X0053685Y0245643D02*
X0091811Y0245643D01*
X0091811Y0248591D02*
X0054148Y0248591D01*
X0055130Y0249574D02*
X0091811Y0249574D01*
X0091811Y0250557D02*
X0055689Y0250557D01*
X0055689Y0251540D02*
X0091811Y0251540D01*
X0091811Y0252523D02*
X0055689Y0252523D01*
X0055689Y0253505D02*
X0091811Y0253505D01*
X0091811Y0254488D02*
X0054840Y0254488D01*
X0053857Y0255471D02*
X0091811Y0255471D01*
X0091811Y0258419D02*
X0088620Y0258419D01*
X0088957Y0259402D02*
X0091811Y0259402D01*
X0091811Y0260385D02*
X0088884Y0260385D01*
X0088329Y0261367D02*
X0091811Y0261367D01*
X0086496Y0259720D02*
X0077441Y0259720D01*
X0092153Y0239747D02*
X0055303Y0239747D01*
X0054320Y0238764D02*
X0093136Y0238764D01*
X0117162Y0219109D02*
X0145741Y0219109D01*
X0144758Y0218126D02*
X0116747Y0218126D01*
X0115930Y0217143D02*
X0143775Y0217143D01*
X0142793Y0216160D02*
X0114948Y0216160D01*
X0114007Y0215178D02*
X0141810Y0215178D01*
X0140827Y0214195D02*
X0113348Y0214195D01*
X0111999Y0213212D02*
X0140630Y0213212D01*
X0140630Y0212229D02*
X0111017Y0212229D01*
X0110034Y0211246D02*
X0140630Y0211246D01*
X0140630Y0210264D02*
X0109051Y0210264D01*
X0130197Y0201846D02*
X0130197Y0198303D01*
X0131968Y0199453D02*
X0132461Y0199453D01*
X0132266Y0200436D02*
X0132815Y0200436D01*
X0134921Y0199091D02*
X0130984Y0195154D01*
X0148110Y0195522D02*
X0149108Y0195522D01*
X0148125Y0194540D02*
X0148110Y0194540D01*
X0149604Y0197488D02*
X0156476Y0197488D01*
X0156476Y0198471D02*
X0154027Y0198471D01*
X0155010Y0199453D02*
X0156476Y0199453D01*
X0156476Y0200436D02*
X0155689Y0200436D01*
X0151457Y0191886D02*
X0151181Y0191610D01*
X0151063Y0191610D01*
X0144184Y0207315D02*
X0144173Y0207315D01*
X0144173Y0208298D02*
X0145167Y0208298D01*
X0146150Y0209281D02*
X0144173Y0209281D01*
X0154492Y0228936D02*
X0156476Y0228936D01*
X0156476Y0229919D02*
X0155475Y0229919D01*
X0155689Y0230902D02*
X0156476Y0230902D01*
X0151457Y0251886D02*
X0150709Y0251886D01*
X0150669Y0251846D01*
X0145945Y0251846D01*
X0145809Y0254488D02*
X0148074Y0254488D01*
X0149056Y0255471D02*
X0144826Y0255471D01*
X0131953Y0263333D02*
X0110773Y0263333D01*
X0156137Y0272178D02*
X0046776Y0272178D01*
X0046544Y0271195D02*
X0156369Y0271195D01*
X0085607Y0197488D02*
X0046437Y0197488D01*
X0069126Y0174884D02*
X0094272Y0174884D01*
X0094272Y0173901D02*
X0068143Y0173901D01*
X0067160Y0172919D02*
X0093824Y0172919D01*
X0092842Y0171936D02*
X0066178Y0171936D01*
X0065195Y0170953D02*
X0091859Y0170953D01*
X0090187Y0175867D02*
X0094272Y0175867D01*
X0100669Y0161295D02*
X0099882Y0160508D01*
X0066417Y0160508D01*
X0065512Y0162108D02*
X0058346Y0162108D01*
X0058346Y0161126D02*
X0064530Y0161126D01*
X0063547Y0160143D02*
X0058346Y0160143D01*
X0058346Y0159160D02*
X0062564Y0159160D01*
X0061581Y0158177D02*
X0058346Y0158177D01*
X0058346Y0157195D02*
X0060598Y0157195D01*
X0059616Y0156212D02*
X0058346Y0156212D01*
X0058346Y0155229D02*
X0058633Y0155229D01*
X0054803Y0155229D02*
X0054099Y0155229D01*
X0054803Y0156212D02*
X0046437Y0156212D01*
X0046437Y0157195D02*
X0054803Y0157195D01*
X0054803Y0158177D02*
X0053733Y0158177D01*
X0054716Y0159160D02*
X0054803Y0159160D01*
X0058346Y0163091D02*
X0072224Y0163091D01*
X0072224Y0164074D02*
X0058346Y0164074D01*
X0059298Y0165057D02*
X0072224Y0165057D01*
X0072224Y0166039D02*
X0060281Y0166039D01*
X0061264Y0167022D02*
X0072438Y0167022D01*
X0072845Y0168005D02*
X0062247Y0168005D01*
X0063229Y0168988D02*
X0073752Y0168988D01*
X0075568Y0169970D02*
X0064212Y0169970D01*
X0049625Y0166039D02*
X0046437Y0166039D01*
X0046437Y0165057D02*
X0048642Y0165057D01*
X0047659Y0164074D02*
X0046437Y0164074D01*
X0046437Y0163091D02*
X0047224Y0163091D01*
X0047224Y0162108D02*
X0046437Y0162108D01*
X0046437Y0161126D02*
X0047224Y0161126D01*
X0047224Y0160143D02*
X0046437Y0160143D01*
X0046437Y0159160D02*
X0048197Y0159160D01*
X0049180Y0158177D02*
X0046437Y0158177D01*
X0046437Y0155229D02*
X0048815Y0155229D01*
X0047832Y0154246D02*
X0046437Y0154246D01*
X0046437Y0153263D02*
X0047224Y0153263D01*
X0047224Y0152281D02*
X0046437Y0152281D01*
X0046437Y0151298D02*
X0047224Y0151298D01*
X0047224Y0150315D02*
X0046437Y0150315D01*
X0046437Y0149332D02*
X0048025Y0149332D01*
X0049008Y0148350D02*
X0046437Y0148350D01*
X0046437Y0147367D02*
X0054803Y0147367D01*
X0054803Y0148350D02*
X0053906Y0148350D01*
X0054803Y0146384D02*
X0046437Y0146384D01*
X0046437Y0145401D02*
X0048987Y0145401D01*
X0048004Y0144419D02*
X0046437Y0144419D01*
X0046437Y0143436D02*
X0047224Y0143436D01*
X0047224Y0142453D02*
X0046437Y0142453D01*
X0046437Y0141470D02*
X0047224Y0141470D01*
X0047224Y0140488D02*
X0046437Y0140488D01*
X0046437Y0139505D02*
X0047852Y0139505D01*
X0048835Y0138522D02*
X0046437Y0138522D01*
X0046437Y0137539D02*
X0054803Y0137539D01*
X0054803Y0136556D02*
X0046437Y0136556D01*
X0046437Y0135574D02*
X0049159Y0135574D01*
X0048176Y0134591D02*
X0046437Y0134591D01*
X0046437Y0133608D02*
X0047224Y0133608D01*
X0047224Y0132625D02*
X0046437Y0132625D01*
X0046437Y0131643D02*
X0047224Y0131643D01*
X0047224Y0130660D02*
X0046437Y0130660D01*
X0046437Y0129677D02*
X0047680Y0129677D01*
X0048663Y0128694D02*
X0046437Y0128694D01*
X0046437Y0127712D02*
X0049646Y0127712D01*
X0049332Y0125746D02*
X0046437Y0125746D01*
X0046437Y0124763D02*
X0048349Y0124763D01*
X0047366Y0123781D02*
X0046437Y0123781D01*
X0046437Y0122798D02*
X0047224Y0122798D01*
X0047224Y0121815D02*
X0046437Y0121815D01*
X0046437Y0120832D02*
X0047224Y0120832D01*
X0047508Y0119850D02*
X0046437Y0119850D01*
X0046437Y0118867D02*
X0048490Y0118867D01*
X0049473Y0117884D02*
X0046437Y0117884D01*
X0046437Y0116901D02*
X0053770Y0116901D01*
X0053440Y0117884D02*
X0054753Y0117884D01*
X0054803Y0118867D02*
X0054423Y0118867D01*
X0056575Y0117201D02*
X0052638Y0113264D01*
X0051662Y0111005D02*
X0046437Y0111005D01*
X0046437Y0111987D02*
X0050503Y0111987D01*
X0050177Y0112970D02*
X0046437Y0112970D01*
X0046437Y0113953D02*
X0050260Y0113953D01*
X0050830Y0114936D02*
X0046437Y0114936D01*
X0046437Y0115918D02*
X0052787Y0115918D01*
X0054565Y0124763D02*
X0054803Y0124763D01*
X0054803Y0125746D02*
X0053582Y0125746D01*
X0054803Y0126729D02*
X0046437Y0126729D01*
X0053268Y0127712D02*
X0054803Y0127712D01*
X0054803Y0128694D02*
X0054251Y0128694D01*
X0054737Y0134591D02*
X0054803Y0134591D01*
X0054803Y0135574D02*
X0053754Y0135574D01*
X0054078Y0138522D02*
X0054803Y0138522D01*
X0054803Y0145401D02*
X0053927Y0145401D01*
X0065827Y0133776D02*
X0074821Y0133776D01*
X0075571Y0134525D01*
X0075571Y0136054D01*
X0076206Y0136689D01*
X0077244Y0137727D01*
X0077244Y0139445D01*
X0078282Y0139445D01*
X0086398Y0131329D01*
X0086398Y0129525D01*
X0087112Y0128811D01*
X0087101Y0128808D01*
X0086761Y0128611D01*
X0086483Y0128334D01*
X0086287Y0127993D01*
X0086185Y0127614D01*
X0086185Y0126335D01*
X0091909Y0126335D01*
X0091909Y0126138D01*
X0086185Y0126138D01*
X0086185Y0124859D01*
X0086287Y0124479D01*
X0086483Y0124139D01*
X0086761Y0123861D01*
X0087101Y0123665D01*
X0087481Y0123563D01*
X0091909Y0123563D01*
X0091909Y0126138D01*
X0092106Y0126138D01*
X0092106Y0123563D01*
X0096535Y0123563D01*
X0096915Y0123665D01*
X0096929Y0123673D01*
X0096929Y0121191D01*
X0098754Y0119366D01*
X0087624Y0119366D01*
X0075571Y0131419D01*
X0075571Y0132947D01*
X0074821Y0133697D01*
X0065827Y0133697D01*
X0065827Y0133776D01*
X0069961Y0136236D02*
X0070098Y0136236D01*
X0070354Y0136492D01*
X0073504Y0136492D01*
X0075472Y0138461D01*
X0075472Y0141217D01*
X0079016Y0141217D01*
X0088858Y0131374D01*
X0092008Y0131374D01*
X0092008Y0131236D01*
X0091909Y0125746D02*
X0092106Y0125746D01*
X0092106Y0124763D02*
X0091909Y0124763D01*
X0091909Y0123781D02*
X0092106Y0123781D01*
X0096929Y0122798D02*
X0084192Y0122798D01*
X0083209Y0123781D02*
X0086901Y0123781D01*
X0086211Y0124763D02*
X0082226Y0124763D01*
X0081244Y0125746D02*
X0086185Y0125746D01*
X0086185Y0126729D02*
X0080261Y0126729D01*
X0079278Y0127712D02*
X0086211Y0127712D01*
X0086905Y0128694D02*
X0078295Y0128694D01*
X0077313Y0129677D02*
X0086398Y0129677D01*
X0086398Y0130660D02*
X0076330Y0130660D01*
X0075571Y0131643D02*
X0086084Y0131643D01*
X0085101Y0132625D02*
X0075571Y0132625D01*
X0074910Y0133608D02*
X0084119Y0133608D01*
X0083136Y0134591D02*
X0075571Y0134591D01*
X0075571Y0135574D02*
X0082153Y0135574D01*
X0081170Y0136556D02*
X0076074Y0136556D01*
X0077057Y0137539D02*
X0080188Y0137539D01*
X0079205Y0138522D02*
X0077244Y0138522D01*
X0069961Y0131236D02*
X0069961Y0130980D01*
X0085175Y0121815D02*
X0096929Y0121815D01*
X0097288Y0120832D02*
X0086157Y0120832D01*
X0087140Y0119850D02*
X0098271Y0119850D01*
X0106575Y0126236D02*
X0106949Y0126236D01*
X0106969Y0126256D01*
X0109724Y0126256D01*
X0112480Y0123500D01*
X0133346Y0123500D01*
X0136102Y0126256D01*
X0133740Y0128618D02*
X0135709Y0130587D01*
X0133740Y0128618D02*
X0122717Y0128618D01*
X0119961Y0131374D01*
X0106575Y0131374D01*
X0106575Y0131236D01*
X0102441Y0128776D02*
X0111436Y0128776D01*
X0112185Y0129525D01*
X0112185Y0129602D01*
X0119227Y0129602D01*
X0120945Y0127884D01*
X0121983Y0126846D01*
X0122799Y0126846D01*
X0122799Y0126335D01*
X0128524Y0126335D01*
X0128524Y0126138D01*
X0122799Y0126138D01*
X0122799Y0125272D01*
X0113214Y0125272D01*
X0112185Y0126301D01*
X0112185Y0127947D01*
X0111436Y0128697D01*
X0102441Y0128697D01*
X0102441Y0128776D01*
X0111438Y0128694D02*
X0120135Y0128694D01*
X0121118Y0127712D02*
X0112185Y0127712D01*
X0112185Y0126729D02*
X0122799Y0126729D01*
X0122799Y0125746D02*
X0112740Y0125746D01*
X0125079Y0131374D02*
X0115236Y0141217D01*
X0121034Y0143436D02*
X0123500Y0143436D01*
X0123012Y0142453D02*
X0122017Y0142453D01*
X0123000Y0141470D02*
X0123012Y0141470D01*
X0128622Y0136236D02*
X0128878Y0136236D01*
X0129016Y0136098D01*
X0134528Y0136098D01*
X0140433Y0140035D02*
X0117598Y0162870D01*
X0127835Y0171531D02*
X0127835Y0175469D01*
X0131378Y0176256D02*
X0131378Y0171138D01*
X0148504Y0138522D02*
X0148835Y0138522D01*
X0128622Y0131374D02*
X0125079Y0131374D01*
X0128622Y0131374D02*
X0128622Y0131236D01*
X0121927Y0101177D02*
X0156026Y0101177D01*
X0155762Y0100194D02*
X0122910Y0100194D01*
X0123224Y0099211D02*
X0155499Y0099211D01*
X0155005Y0098229D02*
X0123224Y0098229D01*
X0123224Y0097246D02*
X0154438Y0097246D01*
X0153870Y0096263D02*
X0123224Y0096263D01*
X0122959Y0095280D02*
X0153050Y0095280D01*
X0152067Y0094298D02*
X0121977Y0094298D01*
X0120994Y0093315D02*
X0151055Y0093315D01*
X0149353Y0092332D02*
X0120587Y0092332D01*
X0121570Y0091349D02*
X0147211Y0091349D01*
X0081344Y0091349D02*
X0055702Y0091349D01*
D19*
X0102244Y0145941D02*
X0102244Y0146335D01*
X0107362Y0146335D01*
D20*
X0092795Y0165626D02*
X0098701Y0171531D01*
X0098701Y0171925D01*
X0098701Y0180193D01*
X0098701Y0192791D01*
X0098701Y0198303D01*
X0098701Y0203815D01*
X0098701Y0206177D01*
X0110118Y0217594D01*
X0112874Y0220350D01*
X0113268Y0248697D01*
X0092795Y0165626D02*
X0090433Y0165626D01*
X0076654Y0165626D01*
D21*
X0076654Y0164051D01*
X0075079Y0164051D01*
X0075079Y0163657D01*
X0075079Y0165626D01*
X0076654Y0165626D01*
X0075472Y0154996D02*
X0075472Y0146335D01*
X0075472Y0154996D02*
X0098701Y0154996D01*
X0112087Y0154996D01*
X0112087Y0149091D01*
X0112087Y0146335D01*
X0100276Y0171925D02*
X0098701Y0171925D01*
X0098701Y0180193D02*
X0100276Y0180193D01*
X0100276Y0192791D02*
X0098701Y0192791D01*
X0098701Y0198303D02*
X0100276Y0198303D01*
X0100276Y0203815D02*
X0098701Y0203815D01*
X0110906Y0248697D02*
X0113268Y0248697D01*
D22*
X0110118Y0217594D02*
X0111693Y0216020D01*
X0112087Y0146335D02*
X0112087Y0141217D01*
X0106575Y0141217D01*
X0106575Y0141236D01*
X0075472Y0141217D02*
X0075472Y0146335D01*
X0075472Y0141217D02*
X0069961Y0141217D01*
X0069961Y0141236D01*
M02*
