%
M48
M72
T01C0.0118
T02C0.0197
T03C0.0315
T04C0.0394
T05C0.0472
T06C0.0787
T07C0.1260
%
T01
X8519Y6932
X8519Y8350
X7928Y9610
X9346Y10279
X10645Y9610
X11669Y9491
X12141Y9491
X12692Y9491
X12968Y10240
X12574Y11066
X11196Y10791
X11196Y10554
X11196Y12129
X11196Y12602
X12574Y12484
X14188Y12995
X14464Y12759
X14661Y12129
X14464Y9491
X13913Y9491
X15015Y9491
X15015Y8114
X15487Y7562
X17062Y9177
X17653Y9413
X18165Y9649
X18716Y10200
X19897Y9452
X20094Y9728
X20802Y9925
X20802Y9531
X21432Y9728
X21432Y10121
X21472Y10476
X20881Y10476
X20330Y10869
X20606Y11302
X21590Y11499
X21787Y11302
X21787Y11696
X21590Y11893
X21787Y12090
X21590Y12287
X21787Y12484
X21590Y12680
X21787Y12877
X21432Y9334
X21393Y8940
X21787Y8153
X21590Y7956
X21787Y7759
X21590Y7562
X21787Y7365
X21590Y7169
X21787Y6972
X21590Y6775
X21787Y6578
X20330Y8507
X19936Y8507
X19464Y9058
X11196Y8192
X11196Y7169
T02
X7062Y9098
X6590Y9413
X7062Y9728
X6590Y10043
X7062Y10358
T03
X6747Y11184
X4857Y11184
X4857Y8271
X6747Y8271
T04
X7822Y4806
X8822Y4806
X9822Y4806
X10822Y4806
X11822Y4806
X12822Y4806
X13822Y4806
X14822Y4806
X15822Y4806
X16822Y4806
X17822Y4806
X18822Y4806
T05
X18509Y11302
X18509Y13271
X16009Y13271
X16009Y11302
X10635Y13271
X8135Y13271
T06
X13322Y7838
T07
X5054Y5200
X5054Y14255
X21590Y14255
X21590Y5200
M30
