G75*
%MOIN*%
%OFA0B0*%
%FSLAX25Y25*%
%IPPOS*%
%LPD*%
%AMOC8*
5,1,8,0,0,1.08239X$1,22.5*
%
%ADD10C,0.16929*%
%ADD11R,0.01181X0.02362*%
%ADD12R,0.02362X0.01181*%
%ADD13R,0.01181X0.01181*%
%ADD14R,0.05906X0.05906*%
%ADD15R,0.03150X0.03150*%
%ADD16R,0.08268X0.12205*%
%ADD17R,0.04331X0.04331*%
%ADD18R,0.03150X0.05118*%
%ADD19R,0.03150X0.04331*%
%ADD20R,0.06693X0.03937*%
%ADD21OC8,0.06299*%
%ADD22C,0.04331*%
%ADD23R,0.15748X0.15748*%
%ADD24R,0.05906X0.05118*%
%ADD25R,0.13780X0.13780*%
%ADD26R,0.04921X0.01378*%
%ADD27R,0.01378X0.04921*%
%ADD28R,0.07480X0.07874*%
%ADD29R,0.06693X0.07874*%
%ADD30OC8,0.07874*%
%ADD31C,0.04331*%
%ADD32R,0.01969X0.05906*%
%ADD33R,0.01575X0.03543*%
%ADD34R,0.05118X0.03150*%
D10*
X0024685Y0068776D03*
X0024685Y0304996D03*
X0339646Y0304996D03*
X0339646Y0068776D03*
D11*
X0109134Y0258146D03*
X0106575Y0258146D03*
X0104016Y0258146D03*
X0101457Y0258146D03*
X0098898Y0258146D03*
X0096339Y0258146D03*
X0093780Y0258146D03*
X0093780Y0270744D03*
X0096339Y0270744D03*
X0098898Y0270744D03*
X0101457Y0270744D03*
X0104016Y0270744D03*
X0106575Y0270744D03*
X0109134Y0270744D03*
D12*
X0112874Y0270843D03*
X0112874Y0268283D03*
X0112874Y0265724D03*
X0112874Y0263165D03*
X0112874Y0260606D03*
X0112874Y0258047D03*
X0105394Y0263165D03*
X0105394Y0265724D03*
X0101457Y0265724D03*
X0101457Y0263165D03*
X0097520Y0263165D03*
X0097520Y0265724D03*
X0090039Y0265724D03*
X0090039Y0263165D03*
X0090039Y0260606D03*
X0090039Y0258047D03*
X0090039Y0268283D03*
X0090039Y0270843D03*
X0090039Y0282654D03*
X0112874Y0282654D03*
D13*
X0108740Y0265724D03*
X0108740Y0263165D03*
X0093780Y0265724D03*
D14*
X0124685Y0259720D03*
X0124685Y0250272D03*
D15*
X0115630Y0252240D03*
X0110906Y0252240D03*
X0102638Y0221531D03*
X0102638Y0216807D03*
X0097913Y0216807D03*
X0097913Y0221531D03*
X0097126Y0203815D03*
X0092402Y0203815D03*
X0092402Y0198303D03*
X0097126Y0198303D03*
X0097126Y0192791D03*
X0092402Y0192791D03*
X0095551Y0183343D03*
X0100276Y0183343D03*
X0103031Y0171925D03*
X0107756Y0171925D03*
X0103031Y0167201D03*
X0098307Y0167201D03*
X0097520Y0171925D03*
X0092795Y0171925D03*
X0075079Y0166807D03*
X0070354Y0166807D03*
X0065236Y0188067D03*
X0065236Y0192791D03*
X0076654Y0200272D03*
X0081378Y0200272D03*
X0115630Y0203028D03*
X0115630Y0207752D03*
X0117205Y0161295D03*
X0121929Y0161295D03*
X0121929Y0156571D03*
X0117205Y0156571D03*
X0112480Y0156571D03*
X0112480Y0161295D03*
X0121929Y0151846D03*
X0126654Y0151846D03*
X0126654Y0156571D03*
X0126654Y0161295D03*
X0064055Y0119957D03*
X0059331Y0119957D03*
X0059331Y0115232D03*
X0064055Y0115232D03*
X0052638Y0110114D03*
X0052638Y0105390D03*
D16*
X0077047Y0127437D03*
X0077047Y0147122D03*
X0086496Y0216413D03*
X0066811Y0216413D03*
X0066811Y0236098D03*
X0086496Y0236098D03*
D17*
X0091614Y0156177D03*
X0091614Y0149091D03*
X0091614Y0142791D03*
X0091614Y0135705D03*
D18*
X0098504Y0140823D03*
X0102244Y0140823D03*
X0105984Y0140823D03*
X0105984Y0151059D03*
X0098504Y0151059D03*
D19*
X0123110Y0144760D03*
X0130197Y0144760D03*
X0126654Y0135311D03*
D20*
X0076260Y0109720D03*
X0076260Y0104209D03*
X0076260Y0098697D03*
X0061299Y0098697D03*
X0061299Y0104209D03*
X0061299Y0109720D03*
D21*
X0051457Y0121886D03*
X0051457Y0131886D03*
X0051457Y0141886D03*
X0051457Y0151886D03*
X0051457Y0161886D03*
X0051457Y0171886D03*
X0051457Y0181886D03*
X0051457Y0191886D03*
X0051457Y0201886D03*
X0051457Y0211886D03*
X0051457Y0221886D03*
X0051457Y0231886D03*
X0051457Y0241886D03*
X0051457Y0251886D03*
X0151457Y0251886D03*
X0151457Y0241886D03*
X0151457Y0231886D03*
X0151457Y0221886D03*
X0151457Y0211886D03*
X0151457Y0201886D03*
X0151457Y0191886D03*
X0151457Y0181886D03*
X0151457Y0171886D03*
X0151457Y0161886D03*
X0151457Y0151886D03*
X0151457Y0141886D03*
X0151457Y0131886D03*
X0151457Y0121886D03*
D22*
X0064055Y0067988D03*
X0300276Y0068776D03*
X0083740Y0304996D03*
D23*
X0083740Y0304996D03*
X0064055Y0067988D03*
X0300276Y0068776D03*
D24*
X0081575Y0187083D03*
X0081575Y0193776D03*
X0072520Y0193776D03*
X0072520Y0187083D03*
D25*
X0117598Y0186886D03*
D26*
X0107165Y0187870D03*
X0107165Y0185902D03*
X0107165Y0183933D03*
X0107165Y0181965D03*
X0107165Y0179996D03*
X0107165Y0189839D03*
X0107165Y0191807D03*
X0107165Y0193776D03*
X0128031Y0193776D03*
X0128031Y0191807D03*
X0128031Y0189839D03*
X0128031Y0187870D03*
X0128031Y0185902D03*
X0128031Y0183933D03*
X0128031Y0181965D03*
X0128031Y0179996D03*
D27*
X0124488Y0176453D03*
X0122520Y0176453D03*
X0120551Y0176453D03*
X0118583Y0176453D03*
X0116614Y0176453D03*
X0114646Y0176453D03*
X0112677Y0176453D03*
X0110709Y0176453D03*
X0110709Y0197319D03*
X0112677Y0197319D03*
X0114646Y0197319D03*
X0116614Y0197319D03*
X0118583Y0197319D03*
X0120551Y0197319D03*
X0122520Y0197319D03*
X0124488Y0197319D03*
D28*
X0105984Y0097713D03*
X0096929Y0097713D03*
D29*
X0088071Y0097713D03*
X0114843Y0097713D03*
D30*
X0117992Y0097713D03*
X0084921Y0097713D03*
D31*
X0092795Y0107555D02*
X0092795Y0111492D01*
X0110118Y0111492D02*
X0110118Y0107555D01*
D32*
X0106575Y0108343D03*
X0104016Y0108343D03*
X0101457Y0108343D03*
X0098898Y0108343D03*
X0096339Y0108343D03*
D33*
X0097913Y0219169D03*
X0102638Y0219169D03*
D34*
X0083740Y0180390D03*
X0083740Y0176650D03*
X0083740Y0172909D03*
X0073504Y0172909D03*
X0073504Y0180390D03*
M02*
