G75*
%MOIN*%
%OFA0B0*%
%FSLAX24Y24*%
%IPPOS*%
%LPD*%
%AMOC8*
5,1,8,0,0,1.08239X$1,22.5*
%
%ADD10OC8,0.0709*%
%ADD11C,0.0315*%
%ADD12C,0.0472*%
%ADD13OC8,0.0591*%
%ADD14C,0.0236*%
%ADD15C,0.0098*%
%ADD16C,0.0827*%
%ADD17C,0.0315*%
%ADD18C,0.0787*%
%ADD19C,0.0236*%
D10*
X016009Y011517D03*
X016009Y013486D03*
X018509Y013486D03*
X018509Y011517D03*
X010635Y013486D03*
X008135Y013486D03*
D11*
X007062Y010572D03*
X006590Y010257D03*
X007062Y009943D03*
X006590Y009628D03*
X007062Y009313D03*
D12*
X006983Y008486D02*
X006511Y008486D01*
X005094Y008486D02*
X004621Y008486D01*
X004621Y011399D02*
X005094Y011399D01*
X006511Y011399D02*
X006983Y011399D01*
D13*
X007822Y005021D03*
X008822Y005021D03*
X009822Y005021D03*
X010822Y005021D03*
X011822Y005021D03*
X012822Y005021D03*
X013822Y005021D03*
X014822Y005021D03*
X015822Y005021D03*
X016822Y005021D03*
X017822Y005021D03*
X018822Y005021D03*
D14*
X021787Y006714D03*
X021787Y007108D03*
X021787Y007502D03*
X021787Y007895D03*
X021787Y008289D03*
X021393Y009155D03*
X021432Y009549D03*
X021432Y009943D03*
X021432Y010336D03*
X021472Y010691D03*
X021826Y010927D03*
X021787Y011596D03*
X021787Y011990D03*
X021787Y012383D03*
X021787Y012777D03*
X021787Y013171D03*
X020606Y011517D03*
X020330Y011084D03*
X020802Y010139D03*
X020802Y009746D03*
X020094Y009943D03*
X019897Y009667D03*
X019464Y009273D03*
X019936Y008643D03*
X020330Y008761D03*
X018716Y010415D03*
X018165Y009864D03*
X017653Y009628D03*
X017062Y009391D03*
X015724Y008053D03*
X014976Y008328D03*
X012653Y009706D03*
X011865Y010179D03*
X011550Y010494D03*
X011196Y010769D03*
X011196Y011006D03*
X010960Y011714D03*
X011314Y012462D03*
X012338Y012698D03*
X012338Y011242D03*
X012928Y010454D03*
X013991Y010179D03*
X014779Y010179D03*
X014700Y012226D03*
X014503Y012856D03*
X014228Y013092D03*
X010763Y009824D03*
X009424Y010494D03*
X008007Y009824D03*
X008519Y008565D03*
X008519Y007147D03*
X011196Y007383D03*
X011196Y008407D03*
D15*
X006363Y005367D02*
X006363Y004047D01*
X020281Y004047D01*
X020281Y005367D01*
X020277Y005371D01*
X020281Y005420D01*
X020281Y005468D01*
X020284Y005472D01*
X020290Y005550D01*
X020284Y005558D01*
X020294Y005601D01*
X020297Y005645D01*
X020305Y005652D01*
X020322Y005733D01*
X020318Y005743D01*
X020333Y005784D01*
X020343Y005827D01*
X020352Y005832D01*
X020381Y005910D01*
X020378Y005920D01*
X020399Y005959D01*
X020414Y006000D01*
X020424Y006004D01*
X020463Y006077D01*
X020462Y006088D01*
X020488Y006123D01*
X020509Y006161D01*
X020519Y006164D01*
X020569Y006231D01*
X020569Y006241D01*
X020600Y006272D01*
X020626Y006308D01*
X020637Y006309D01*
X020696Y006368D01*
X020697Y006378D01*
X020732Y006405D01*
X020763Y006436D01*
X020774Y006436D01*
X020840Y006485D01*
X020843Y006495D01*
X020882Y006516D01*
X020917Y006543D01*
X020927Y006541D01*
X021000Y006581D01*
X021005Y006591D01*
X021046Y006606D01*
X021084Y006627D01*
X021094Y006624D01*
X021172Y006653D01*
X021178Y006662D01*
X021221Y006671D01*
X021262Y006687D01*
X021271Y006682D01*
X021353Y006700D01*
X021360Y006708D01*
X021403Y006711D01*
X021446Y006720D01*
X021455Y006715D01*
X021533Y006720D01*
X021537Y006724D01*
X021585Y006724D01*
X021634Y006727D01*
X021637Y006724D01*
X022958Y006724D01*
X022958Y013161D01*
X021637Y013161D01*
X021634Y013158D01*
X021585Y013161D01*
X021537Y013161D01*
X021533Y013165D01*
X021455Y013170D01*
X021446Y013165D01*
X021403Y013174D01*
X021360Y013177D01*
X021353Y013185D01*
X020724Y013185D01*
X020679Y013230D02*
X020679Y013230D01*
X020783Y013126D01*
X020783Y011688D01*
X020814Y011657D01*
X020852Y011566D01*
X020852Y011468D01*
X020814Y011378D01*
X020745Y011309D01*
X020654Y011271D01*
X020557Y011271D01*
X020466Y011309D01*
X020397Y011378D01*
X020359Y011468D01*
X020359Y011566D01*
X020397Y011657D01*
X020428Y011688D01*
X020428Y012979D01*
X019469Y013939D01*
X018768Y013939D01*
X019013Y013694D01*
X019013Y013535D01*
X018558Y013535D01*
X018558Y013437D01*
X019013Y013437D01*
X019013Y013277D01*
X018718Y012982D01*
X018558Y012982D01*
X018558Y013437D01*
X018460Y013437D01*
X018006Y013437D01*
X018006Y013277D01*
X018300Y012982D01*
X018460Y012982D01*
X018460Y013437D01*
X018460Y013535D01*
X018006Y013535D01*
X018006Y013694D01*
X018250Y013939D01*
X016238Y013939D01*
X016491Y013686D01*
X016491Y013286D01*
X016209Y013004D01*
X015809Y013004D01*
X015527Y013286D01*
X015527Y013686D01*
X015780Y013939D01*
X013829Y013939D01*
X012584Y012694D01*
X012584Y012649D01*
X012546Y012559D01*
X012477Y012490D01*
X012387Y012452D01*
X012289Y012452D01*
X012198Y012490D01*
X012129Y012559D01*
X012092Y012649D01*
X012092Y012747D01*
X012129Y012838D01*
X012198Y012907D01*
X012289Y012944D01*
X012333Y012944D01*
X013578Y014189D01*
X013682Y014293D01*
X019616Y014293D01*
X019720Y014189D01*
X019720Y014189D01*
X020679Y013230D01*
X020627Y013282D02*
X021038Y013282D01*
X021046Y013279D02*
X021005Y013294D01*
X021000Y013304D01*
X020927Y013344D01*
X020917Y013342D01*
X020882Y013369D01*
X020843Y013390D01*
X020840Y013400D01*
X020774Y013450D01*
X020763Y013450D01*
X020732Y013481D01*
X020697Y013507D01*
X020696Y013517D01*
X020637Y013576D01*
X020626Y013578D01*
X020600Y013613D01*
X020569Y013644D01*
X020569Y013654D01*
X020519Y013721D01*
X020509Y013724D01*
X020488Y013762D01*
X020462Y013797D01*
X020463Y013808D01*
X020424Y013881D01*
X020414Y013885D01*
X020399Y013926D01*
X020378Y013965D01*
X020381Y013975D01*
X020352Y014053D01*
X020343Y014058D01*
X020333Y014101D01*
X020318Y014142D01*
X020322Y014152D01*
X020305Y014233D01*
X020297Y014240D01*
X020294Y014284D01*
X020284Y014327D01*
X020290Y014335D01*
X020284Y014413D01*
X020281Y014417D01*
X020281Y014466D01*
X020277Y014514D01*
X020281Y014518D01*
X020281Y015838D01*
X006363Y015838D01*
X006363Y014518D01*
X006367Y014514D01*
X006363Y014466D01*
X006363Y014417D01*
X006360Y014413D01*
X006354Y014335D01*
X006360Y014327D01*
X006350Y014284D01*
X006347Y014240D01*
X006339Y014233D01*
X006322Y014152D01*
X006326Y014142D01*
X006311Y014101D01*
X006301Y014058D01*
X006293Y014053D01*
X006263Y013975D01*
X006266Y013965D01*
X006245Y013926D01*
X006230Y013885D01*
X006221Y013881D01*
X006181Y013808D01*
X006182Y013797D01*
X006156Y013762D01*
X006135Y013724D01*
X006125Y013721D01*
X006075Y013654D01*
X006075Y013644D01*
X006044Y013613D01*
X006018Y013578D01*
X006007Y013576D01*
X005948Y013517D01*
X005947Y013507D01*
X005912Y013481D01*
X005881Y013450D01*
X005870Y013450D01*
X005804Y013400D01*
X005801Y013390D01*
X005762Y013369D01*
X005727Y013342D01*
X005717Y013344D01*
X005644Y013304D01*
X005639Y013294D01*
X005598Y013279D01*
X005560Y013258D01*
X005550Y013261D01*
X005472Y013232D01*
X005466Y013223D01*
X005423Y013214D01*
X005382Y013198D01*
X005373Y013203D01*
X005291Y013185D01*
X007724Y013185D01*
X007632Y013277D02*
X007926Y012982D01*
X008086Y012982D01*
X008086Y013437D01*
X007632Y013437D01*
X007632Y013277D01*
X007632Y013282D02*
X005606Y013282D01*
X005781Y013379D02*
X007632Y013379D01*
X007632Y013535D02*
X008086Y013535D01*
X008086Y013989D01*
X007926Y013989D01*
X007632Y013694D01*
X007632Y013535D01*
X007632Y013573D02*
X006004Y013573D01*
X006087Y013670D02*
X007632Y013670D01*
X007704Y013766D02*
X006159Y013766D01*
X006211Y013863D02*
X007801Y013863D01*
X007897Y013960D02*
X006264Y013960D01*
X006300Y014057D02*
X013446Y014057D01*
X013349Y013960D02*
X010843Y013960D01*
X010835Y013968D02*
X010435Y013968D01*
X010153Y013686D01*
X010153Y013286D01*
X010435Y013004D01*
X010835Y013004D01*
X011117Y013286D01*
X011117Y013686D01*
X010835Y013968D01*
X010940Y013863D02*
X013252Y013863D01*
X013155Y013766D02*
X011036Y013766D01*
X011117Y013670D02*
X013058Y013670D01*
X012961Y013573D02*
X011117Y013573D01*
X011117Y013476D02*
X012865Y013476D01*
X012768Y013379D02*
X011117Y013379D01*
X011113Y013282D02*
X012671Y013282D01*
X012574Y013185D02*
X011016Y013185D01*
X010919Y013088D02*
X012477Y013088D01*
X012380Y012991D02*
X008352Y012991D01*
X008344Y012982D02*
X008639Y013277D01*
X008639Y013437D01*
X008184Y013437D01*
X008184Y013535D01*
X008086Y013535D01*
X008086Y013437D01*
X008184Y013437D01*
X008184Y012982D01*
X008344Y012982D01*
X008449Y013088D02*
X010351Y013088D01*
X010254Y013185D02*
X008546Y013185D01*
X008639Y013282D02*
X010157Y013282D01*
X010153Y013379D02*
X008639Y013379D01*
X008639Y013535D02*
X008184Y013535D01*
X008184Y013989D01*
X008344Y013989D01*
X008639Y013694D01*
X008639Y013535D01*
X008639Y013573D02*
X010153Y013573D01*
X010153Y013670D02*
X008639Y013670D01*
X008567Y013766D02*
X010234Y013766D01*
X010331Y013863D02*
X008470Y013863D01*
X008373Y013960D02*
X010428Y013960D01*
X010153Y013476D02*
X008184Y013476D01*
X008184Y013573D02*
X008086Y013573D01*
X008086Y013670D02*
X008184Y013670D01*
X008184Y013766D02*
X008086Y013766D01*
X008086Y013863D02*
X008184Y013863D01*
X008184Y013960D02*
X008086Y013960D01*
X008086Y013476D02*
X005907Y013476D01*
X005291Y013185D02*
X005284Y013177D01*
X005241Y013174D01*
X005198Y013165D01*
X005189Y013170D01*
X005111Y013165D01*
X005107Y013161D01*
X005059Y013161D01*
X005011Y013158D01*
X005007Y013161D01*
X003686Y013161D01*
X003686Y006724D01*
X005007Y006724D01*
X005011Y006727D01*
X005059Y006724D01*
X005107Y006724D01*
X005111Y006720D01*
X005189Y006715D01*
X005198Y006720D01*
X005241Y006711D01*
X005284Y006708D01*
X005291Y006700D01*
X005373Y006682D01*
X005382Y006687D01*
X005423Y006671D01*
X005466Y006662D01*
X005472Y006653D01*
X005550Y006624D01*
X005560Y006627D01*
X005598Y006606D01*
X005639Y006591D01*
X005644Y006581D01*
X005717Y006541D01*
X005727Y006543D01*
X005762Y006516D01*
X005801Y006495D01*
X005804Y006485D01*
X005870Y006436D01*
X005881Y006436D01*
X005912Y006405D01*
X005947Y006378D01*
X005948Y006368D01*
X006007Y006309D01*
X006018Y006308D01*
X006044Y006272D01*
X006075Y006241D01*
X006075Y006231D01*
X006125Y006164D01*
X006135Y006161D01*
X006156Y006123D01*
X006182Y006088D01*
X006181Y006077D01*
X006221Y006004D01*
X006230Y006000D01*
X006245Y005959D01*
X006266Y005920D01*
X006263Y005910D01*
X006293Y005832D01*
X006301Y005827D01*
X006311Y005784D01*
X006326Y005743D01*
X006322Y005733D01*
X006339Y005652D01*
X006347Y005645D01*
X006350Y005601D01*
X006360Y005558D01*
X006354Y005550D01*
X006360Y005472D01*
X006363Y005468D01*
X006363Y005420D01*
X006367Y005371D01*
X006363Y005367D01*
X006363Y005334D02*
X007536Y005334D01*
X007439Y005237D02*
X006363Y005237D01*
X006363Y005140D02*
X007399Y005140D01*
X007399Y005197D02*
X007399Y004846D01*
X007647Y004598D01*
X007997Y004598D01*
X008245Y004846D01*
X008245Y005197D01*
X007997Y005444D01*
X007647Y005444D01*
X007399Y005197D01*
X007399Y005043D02*
X006363Y005043D01*
X006363Y004946D02*
X007399Y004946D01*
X007399Y004849D02*
X006363Y004849D01*
X006363Y004752D02*
X007492Y004752D01*
X007589Y004655D02*
X006363Y004655D01*
X006363Y004559D02*
X020281Y004559D01*
X020281Y004655D02*
X019055Y004655D01*
X018997Y004598D02*
X019245Y004846D01*
X019245Y005194D01*
X020864Y006813D01*
X021309Y006813D01*
X021413Y006916D01*
X021570Y007074D01*
X021570Y008984D01*
X021602Y009016D01*
X021639Y009106D01*
X021639Y009204D01*
X021602Y009295D01*
X021532Y009364D01*
X021442Y009401D01*
X021344Y009401D01*
X021254Y009364D01*
X021184Y009295D01*
X021147Y009204D01*
X021147Y009106D01*
X021184Y009016D01*
X021216Y008984D01*
X021216Y007221D01*
X021162Y007167D01*
X020717Y007167D01*
X018995Y005444D01*
X018647Y005444D01*
X018399Y005197D01*
X018399Y004846D01*
X018647Y004598D01*
X018997Y004598D01*
X019152Y004752D02*
X020281Y004752D01*
X020281Y004849D02*
X019245Y004849D01*
X019245Y004946D02*
X020281Y004946D01*
X020281Y005043D02*
X019245Y005043D01*
X019245Y005140D02*
X020281Y005140D01*
X020281Y005237D02*
X019288Y005237D01*
X019385Y005334D02*
X020281Y005334D01*
X020281Y005431D02*
X019482Y005431D01*
X019579Y005528D02*
X020288Y005528D01*
X020295Y005625D02*
X019676Y005625D01*
X019773Y005722D02*
X020320Y005722D01*
X020341Y005819D02*
X019870Y005819D01*
X019967Y005916D02*
X020379Y005916D01*
X020428Y006012D02*
X020064Y006012D01*
X020161Y006109D02*
X020478Y006109D01*
X020551Y006206D02*
X020258Y006206D01*
X020355Y006303D02*
X020623Y006303D01*
X020726Y006400D02*
X020451Y006400D01*
X020548Y006497D02*
X020846Y006497D01*
X021014Y006594D02*
X020645Y006594D01*
X020742Y006691D02*
X021311Y006691D01*
X021381Y006885D02*
X022958Y006885D01*
X022958Y006982D02*
X021478Y006982D01*
X021570Y007079D02*
X022958Y007079D01*
X022958Y007176D02*
X021570Y007176D01*
X021570Y007272D02*
X022958Y007272D01*
X022958Y007369D02*
X021570Y007369D01*
X021570Y007466D02*
X022958Y007466D01*
X022958Y007563D02*
X021570Y007563D01*
X021570Y007660D02*
X022958Y007660D01*
X022958Y007757D02*
X021570Y007757D01*
X021570Y007854D02*
X022958Y007854D01*
X022958Y007951D02*
X021570Y007951D01*
X021570Y008048D02*
X022958Y008048D01*
X022958Y008145D02*
X021570Y008145D01*
X021570Y008242D02*
X022958Y008242D01*
X022958Y008339D02*
X021570Y008339D01*
X021570Y008436D02*
X022958Y008436D01*
X022958Y008533D02*
X021570Y008533D01*
X021570Y008629D02*
X022958Y008629D01*
X022958Y008726D02*
X021570Y008726D01*
X021570Y008823D02*
X022958Y008823D01*
X022958Y008920D02*
X021570Y008920D01*
X021602Y009017D02*
X022958Y009017D01*
X022958Y009114D02*
X021639Y009114D01*
X021636Y009211D02*
X022958Y009211D01*
X022958Y009308D02*
X021588Y009308D01*
X021393Y009155D02*
X021393Y007147D01*
X021235Y006990D01*
X020791Y006990D01*
X018822Y005021D01*
X018536Y005334D02*
X018138Y005334D01*
X018235Y005237D02*
X018439Y005237D01*
X018399Y005140D02*
X018267Y005140D01*
X018267Y005205D02*
X018267Y005070D01*
X017871Y005070D01*
X017871Y004972D01*
X017871Y004577D01*
X018006Y004577D01*
X018267Y004837D01*
X018267Y004972D01*
X017871Y004972D01*
X017773Y004972D01*
X017773Y004577D01*
X017638Y004577D01*
X017378Y004837D01*
X017378Y004972D01*
X017773Y004972D01*
X017773Y005070D01*
X017378Y005070D01*
X017378Y005205D01*
X017638Y005466D01*
X017773Y005466D01*
X017773Y005070D01*
X017871Y005070D01*
X017871Y005466D01*
X018006Y005466D01*
X018267Y005205D01*
X018399Y005043D02*
X017871Y005043D01*
X017871Y004946D02*
X017773Y004946D01*
X017773Y004849D02*
X017871Y004849D01*
X017871Y004752D02*
X017773Y004752D01*
X017773Y004655D02*
X017871Y004655D01*
X018085Y004655D02*
X018589Y004655D01*
X018492Y004752D02*
X018182Y004752D01*
X018267Y004849D02*
X018399Y004849D01*
X018399Y004946D02*
X018267Y004946D01*
X017871Y005140D02*
X017773Y005140D01*
X017773Y005043D02*
X017245Y005043D01*
X017245Y004946D02*
X017378Y004946D01*
X017378Y004849D02*
X017245Y004849D01*
X017245Y004846D02*
X016997Y004598D01*
X016647Y004598D01*
X016399Y004846D01*
X016399Y005197D01*
X016647Y005444D01*
X016997Y005444D01*
X017245Y005197D01*
X017245Y004846D01*
X017152Y004752D02*
X017462Y004752D01*
X017559Y004655D02*
X017055Y004655D01*
X016589Y004655D02*
X016055Y004655D01*
X015997Y004598D02*
X016245Y004846D01*
X016245Y005197D01*
X015997Y005444D01*
X015647Y005444D01*
X015399Y005197D01*
X015399Y004846D01*
X015647Y004598D01*
X015997Y004598D01*
X016152Y004752D02*
X016492Y004752D01*
X016399Y004849D02*
X016245Y004849D01*
X016245Y004946D02*
X016399Y004946D01*
X016399Y005043D02*
X016245Y005043D01*
X016245Y005140D02*
X016399Y005140D01*
X016439Y005237D02*
X016205Y005237D01*
X016108Y005334D02*
X016536Y005334D01*
X016633Y005431D02*
X016011Y005431D01*
X015633Y005431D02*
X015011Y005431D01*
X014997Y005444D02*
X014647Y005444D01*
X014399Y005197D01*
X014399Y004846D01*
X014647Y004598D01*
X014997Y004598D01*
X015245Y004846D01*
X015245Y005197D01*
X014997Y005444D01*
X015108Y005334D02*
X015536Y005334D01*
X015439Y005237D02*
X015205Y005237D01*
X015245Y005140D02*
X015399Y005140D01*
X015399Y005043D02*
X015245Y005043D01*
X015245Y004946D02*
X015399Y004946D01*
X015399Y004849D02*
X015245Y004849D01*
X015152Y004752D02*
X015492Y004752D01*
X015589Y004655D02*
X015055Y004655D01*
X014589Y004655D02*
X014055Y004655D01*
X013997Y004598D02*
X014245Y004846D01*
X014245Y005197D01*
X013997Y005444D01*
X013647Y005444D01*
X013399Y005197D01*
X013399Y004846D01*
X013647Y004598D01*
X013997Y004598D01*
X014152Y004752D02*
X014492Y004752D01*
X014399Y004849D02*
X014245Y004849D01*
X014245Y004946D02*
X014399Y004946D01*
X014399Y005043D02*
X014245Y005043D01*
X014245Y005140D02*
X014399Y005140D01*
X014439Y005237D02*
X014205Y005237D01*
X014108Y005334D02*
X014536Y005334D01*
X014633Y005431D02*
X014011Y005431D01*
X013633Y005431D02*
X013011Y005431D01*
X012997Y005444D02*
X012647Y005444D01*
X012399Y005197D01*
X012399Y004846D01*
X012647Y004598D01*
X012997Y004598D01*
X013245Y004846D01*
X013245Y005197D01*
X012997Y005444D01*
X013108Y005334D02*
X013536Y005334D01*
X013439Y005237D02*
X013205Y005237D01*
X013245Y005140D02*
X013399Y005140D01*
X013399Y005043D02*
X013245Y005043D01*
X013245Y004946D02*
X013399Y004946D01*
X013399Y004849D02*
X013245Y004849D01*
X013152Y004752D02*
X013492Y004752D01*
X013589Y004655D02*
X013055Y004655D01*
X012589Y004655D02*
X012055Y004655D01*
X011997Y004598D02*
X012245Y004846D01*
X012245Y005197D01*
X011997Y005444D01*
X011647Y005444D01*
X011399Y005197D01*
X011399Y004846D01*
X011647Y004598D01*
X011997Y004598D01*
X012152Y004752D02*
X012492Y004752D01*
X012399Y004849D02*
X012245Y004849D01*
X012245Y004946D02*
X012399Y004946D01*
X012399Y005043D02*
X012245Y005043D01*
X012245Y005140D02*
X012399Y005140D01*
X012439Y005237D02*
X012205Y005237D01*
X012108Y005334D02*
X012536Y005334D01*
X012633Y005431D02*
X012011Y005431D01*
X011633Y005431D02*
X011011Y005431D01*
X010997Y005444D02*
X010647Y005444D01*
X010399Y005197D01*
X010399Y004846D01*
X010647Y004598D01*
X010997Y004598D01*
X011245Y004846D01*
X011245Y005197D01*
X010997Y005444D01*
X011108Y005334D02*
X011536Y005334D01*
X011439Y005237D02*
X011205Y005237D01*
X011245Y005140D02*
X011399Y005140D01*
X011399Y005043D02*
X011245Y005043D01*
X011245Y004946D02*
X011399Y004946D01*
X011399Y004849D02*
X011245Y004849D01*
X011152Y004752D02*
X011492Y004752D01*
X011589Y004655D02*
X011055Y004655D01*
X010589Y004655D02*
X010055Y004655D01*
X009997Y004598D02*
X010245Y004846D01*
X010245Y005197D01*
X009997Y005444D01*
X009647Y005444D01*
X009399Y005197D01*
X009399Y004846D01*
X009647Y004598D01*
X009997Y004598D01*
X010152Y004752D02*
X010492Y004752D01*
X010399Y004849D02*
X010245Y004849D01*
X010245Y004946D02*
X010399Y004946D01*
X010399Y005043D02*
X010245Y005043D01*
X010245Y005140D02*
X010399Y005140D01*
X010439Y005237D02*
X010205Y005237D01*
X010108Y005334D02*
X010536Y005334D01*
X010633Y005431D02*
X010011Y005431D01*
X009633Y005431D02*
X009011Y005431D01*
X008997Y005444D02*
X008647Y005444D01*
X008399Y005197D01*
X008399Y004846D01*
X008647Y004598D01*
X008997Y004598D01*
X009245Y004846D01*
X009245Y005197D01*
X008997Y005444D01*
X009108Y005334D02*
X009536Y005334D01*
X009439Y005237D02*
X009205Y005237D01*
X009245Y005140D02*
X009399Y005140D01*
X009399Y005043D02*
X009245Y005043D01*
X009245Y004946D02*
X009399Y004946D01*
X009399Y004849D02*
X009245Y004849D01*
X009152Y004752D02*
X009492Y004752D01*
X009589Y004655D02*
X009055Y004655D01*
X008589Y004655D02*
X008055Y004655D01*
X008152Y004752D02*
X008492Y004752D01*
X008399Y004849D02*
X008245Y004849D01*
X008245Y004946D02*
X008399Y004946D01*
X008399Y005043D02*
X008245Y005043D01*
X008245Y005140D02*
X008399Y005140D01*
X008439Y005237D02*
X008205Y005237D01*
X008108Y005334D02*
X008536Y005334D01*
X008633Y005431D02*
X008011Y005431D01*
X007633Y005431D02*
X006363Y005431D01*
X006356Y005528D02*
X019078Y005528D01*
X019175Y005625D02*
X006349Y005625D01*
X006324Y005722D02*
X019272Y005722D01*
X019369Y005819D02*
X006303Y005819D01*
X006265Y005916D02*
X019466Y005916D01*
X019563Y006012D02*
X006216Y006012D01*
X006166Y006109D02*
X019660Y006109D01*
X019757Y006206D02*
X006093Y006206D01*
X006021Y006303D02*
X019853Y006303D01*
X019950Y006400D02*
X005918Y006400D01*
X005798Y006497D02*
X020047Y006497D01*
X020144Y006594D02*
X005630Y006594D01*
X005333Y006691D02*
X020241Y006691D01*
X020338Y006788D02*
X003686Y006788D01*
X003686Y006885D02*
X020435Y006885D01*
X020532Y006982D02*
X003686Y006982D01*
X003686Y007079D02*
X020629Y007079D01*
X020839Y006788D02*
X022958Y006788D01*
X021216Y007272D02*
X011416Y007272D01*
X011405Y007244D02*
X011442Y007335D01*
X011442Y007432D01*
X011405Y007523D01*
X011373Y007554D01*
X011373Y008236D01*
X011405Y008268D01*
X011442Y008358D01*
X011442Y008456D01*
X011405Y008546D01*
X011335Y008616D01*
X011245Y008653D01*
X011147Y008653D01*
X011057Y008616D01*
X010987Y008546D01*
X010950Y008456D01*
X010950Y008358D01*
X010987Y008268D01*
X011019Y008236D01*
X011019Y007554D01*
X010987Y007523D01*
X010950Y007432D01*
X010950Y007335D01*
X010987Y007244D01*
X011057Y007175D01*
X011147Y007137D01*
X011245Y007137D01*
X011335Y007175D01*
X011405Y007244D01*
X011336Y007176D02*
X021171Y007176D01*
X021216Y007369D02*
X011442Y007369D01*
X011428Y007466D02*
X021216Y007466D01*
X021216Y007563D02*
X011373Y007563D01*
X011373Y007660D02*
X021216Y007660D01*
X021216Y007757D02*
X011373Y007757D01*
X011373Y007854D02*
X021216Y007854D01*
X021216Y007951D02*
X011373Y007951D01*
X011373Y008048D02*
X014907Y008048D01*
X014919Y008043D02*
X015032Y008043D01*
X015137Y008086D01*
X015173Y008122D01*
X019764Y008122D01*
X019956Y008201D01*
X020103Y008348D01*
X020144Y008448D01*
X020178Y008482D01*
X020222Y008587D01*
X020222Y008700D01*
X020178Y008805D01*
X020144Y008839D01*
X020103Y008939D01*
X019956Y009086D01*
X019764Y009165D01*
X017159Y009165D01*
X017202Y009183D01*
X017233Y009214D01*
X018395Y009214D01*
X018499Y009318D01*
X018671Y009490D01*
X019726Y009490D01*
X019757Y009458D01*
X019848Y009421D01*
X019946Y009421D01*
X020036Y009458D01*
X020105Y009528D01*
X020143Y009618D01*
X020143Y009697D01*
X020233Y009734D01*
X020302Y009803D01*
X020340Y009894D01*
X020340Y009991D01*
X020302Y010082D01*
X020233Y010151D01*
X020143Y010189D01*
X020045Y010189D01*
X019954Y010151D01*
X019885Y010082D01*
X019884Y010080D01*
X018632Y010080D01*
X018720Y010169D01*
X018765Y010169D01*
X018855Y010206D01*
X018924Y010276D01*
X018962Y010366D01*
X018962Y010464D01*
X018924Y010554D01*
X018855Y010624D01*
X018765Y010661D01*
X018667Y010661D01*
X018576Y010624D01*
X018507Y010554D01*
X018470Y010464D01*
X018470Y010419D01*
X018160Y010110D01*
X018116Y010110D01*
X018025Y010072D01*
X017956Y010003D01*
X017919Y009913D01*
X017919Y009815D01*
X017923Y009805D01*
X017824Y009805D01*
X017792Y009836D01*
X017702Y009874D01*
X017604Y009874D01*
X017513Y009836D01*
X017444Y009767D01*
X017407Y009677D01*
X017407Y009579D01*
X017411Y009569D01*
X017233Y009569D01*
X017202Y009600D01*
X017111Y009637D01*
X017013Y009637D01*
X016923Y009600D01*
X016854Y009531D01*
X016816Y009440D01*
X016816Y009342D01*
X016854Y009252D01*
X016923Y009183D01*
X016966Y009165D01*
X015589Y009165D01*
X015497Y009257D01*
X015497Y009810D01*
X015418Y010002D01*
X015271Y010149D01*
X015079Y010228D01*
X015025Y010228D01*
X014987Y010318D01*
X014918Y010387D01*
X014828Y010425D01*
X014730Y010425D01*
X014639Y010387D01*
X014570Y010318D01*
X014533Y010228D01*
X014277Y010228D01*
X014277Y010236D01*
X014233Y010340D01*
X014153Y010421D01*
X014048Y010464D01*
X013935Y010464D01*
X013830Y010421D01*
X013749Y010340D01*
X013706Y010236D01*
X013706Y010228D01*
X012151Y010228D01*
X012151Y010236D01*
X012107Y010340D01*
X011836Y010612D01*
X011836Y010991D01*
X011756Y011183D01*
X011610Y011330D01*
X011600Y011334D01*
X011600Y012519D01*
X011556Y012624D01*
X011476Y012704D01*
X011371Y012748D01*
X011257Y012748D01*
X011152Y012704D01*
X011072Y012624D01*
X011029Y012519D01*
X011029Y011334D01*
X011019Y011330D01*
X010872Y011183D01*
X010793Y010991D01*
X010793Y010036D01*
X010872Y009844D01*
X011305Y009411D01*
X011452Y009264D01*
X011643Y009185D01*
X014401Y009185D01*
X014454Y009132D01*
X014454Y008540D01*
X014533Y008348D01*
X014680Y008201D01*
X014728Y008181D01*
X014734Y008167D01*
X014814Y008086D01*
X014919Y008043D01*
X015044Y008048D02*
X021216Y008048D01*
X021216Y008145D02*
X019820Y008145D01*
X019997Y008242D02*
X021216Y008242D01*
X021216Y008339D02*
X020094Y008339D01*
X020139Y008436D02*
X021216Y008436D01*
X021216Y008533D02*
X020199Y008533D01*
X020222Y008629D02*
X021216Y008629D01*
X021216Y008726D02*
X020211Y008726D01*
X020160Y008823D02*
X021216Y008823D01*
X021216Y008920D02*
X020111Y008920D01*
X020025Y009017D02*
X021184Y009017D01*
X021147Y009114D02*
X019887Y009114D01*
X020080Y009502D02*
X022958Y009502D01*
X022958Y009599D02*
X020135Y009599D01*
X020143Y009696D02*
X022958Y009696D01*
X022958Y009793D02*
X020292Y009793D01*
X020338Y009889D02*
X022958Y009889D01*
X022958Y009986D02*
X020340Y009986D01*
X020301Y010083D02*
X022958Y010083D01*
X022958Y010180D02*
X020163Y010180D01*
X020025Y010180D02*
X018792Y010180D01*
X018925Y010277D02*
X022958Y010277D01*
X022958Y010374D02*
X018962Y010374D01*
X018959Y010471D02*
X022958Y010471D01*
X022958Y010568D02*
X018911Y010568D01*
X018716Y010415D02*
X018165Y009864D01*
X018052Y010083D02*
X015336Y010083D01*
X015424Y009986D02*
X017949Y009986D01*
X017919Y009889D02*
X015464Y009889D01*
X015497Y009793D02*
X017470Y009793D01*
X017415Y009696D02*
X015497Y009696D01*
X015497Y009599D02*
X016922Y009599D01*
X016842Y009502D02*
X015497Y009502D01*
X015497Y009405D02*
X016816Y009405D01*
X016830Y009308D02*
X015497Y009308D01*
X015543Y009211D02*
X016895Y009211D01*
X017062Y009391D02*
X018322Y009391D01*
X018598Y009667D01*
X019897Y009667D01*
X020054Y009903D02*
X018558Y009903D01*
X018283Y009628D01*
X017653Y009628D01*
X017407Y009599D02*
X017203Y009599D01*
X017230Y009211D02*
X021150Y009211D01*
X021198Y009308D02*
X018489Y009308D01*
X018586Y009405D02*
X022958Y009405D01*
X022958Y010665D02*
X011836Y010665D01*
X011836Y010762D02*
X022958Y010762D01*
X022958Y010859D02*
X011836Y010859D01*
X011836Y010956D02*
X022958Y010956D01*
X022958Y011053D02*
X018756Y011053D01*
X018718Y011014D02*
X019013Y011309D01*
X019013Y011468D01*
X018558Y011468D01*
X018558Y011014D01*
X018718Y011014D01*
X018558Y011053D02*
X018460Y011053D01*
X018460Y011014D02*
X018460Y011468D01*
X018558Y011468D01*
X018558Y011567D01*
X018460Y011567D01*
X018460Y012021D01*
X018300Y012021D01*
X018006Y011726D01*
X018006Y011567D01*
X018460Y011567D01*
X018460Y011468D01*
X018006Y011468D01*
X018006Y011309D01*
X018300Y011014D01*
X018460Y011014D01*
X018460Y011150D02*
X018558Y011150D01*
X018558Y011246D02*
X018460Y011246D01*
X018460Y011343D02*
X018558Y011343D01*
X018558Y011440D02*
X018460Y011440D01*
X018460Y011537D02*
X016491Y011537D01*
X016491Y011440D02*
X018006Y011440D01*
X018006Y011343D02*
X016491Y011343D01*
X016491Y011318D02*
X016209Y011035D01*
X015809Y011035D01*
X015527Y011318D01*
X015527Y011717D01*
X015809Y012000D01*
X016209Y012000D01*
X016491Y011717D01*
X016491Y011318D01*
X016420Y011246D02*
X018068Y011246D01*
X018165Y011150D02*
X016323Y011150D01*
X016226Y011053D02*
X018262Y011053D01*
X018521Y010568D02*
X011880Y010568D01*
X011977Y010471D02*
X018473Y010471D01*
X018424Y010374D02*
X014931Y010374D01*
X015004Y010277D02*
X018327Y010277D01*
X018230Y010180D02*
X015195Y010180D01*
X014626Y010374D02*
X014200Y010374D01*
X014260Y010277D02*
X014553Y010277D01*
X013783Y010374D02*
X012074Y010374D01*
X012134Y010277D02*
X013723Y010277D01*
X014454Y009114D02*
X007297Y009114D01*
X007300Y009117D02*
X007334Y009167D01*
X007357Y009223D01*
X007369Y009282D01*
X007369Y009313D01*
X007369Y009343D01*
X007357Y009402D01*
X007334Y009458D01*
X007300Y009508D01*
X007258Y009551D01*
X007207Y009584D01*
X007152Y009608D01*
X007092Y009619D01*
X007062Y009619D01*
X007032Y009619D01*
X006973Y009608D01*
X006917Y009584D01*
X006867Y009551D01*
X006875Y009571D01*
X006875Y009684D01*
X006846Y009755D01*
X006901Y009701D01*
X007005Y009657D01*
X007119Y009657D01*
X007224Y009701D01*
X007304Y009781D01*
X007348Y009886D01*
X007348Y009999D01*
X007304Y010104D01*
X007224Y010184D01*
X007119Y010228D01*
X007005Y010228D01*
X006901Y010184D01*
X006846Y010130D01*
X006875Y010201D01*
X006875Y010314D01*
X006846Y010385D01*
X006901Y010330D01*
X007005Y010287D01*
X007119Y010287D01*
X007224Y010330D01*
X007304Y010411D01*
X007348Y010516D01*
X007348Y010629D01*
X007304Y010734D01*
X007224Y010814D01*
X007119Y010858D01*
X007005Y010858D01*
X006901Y010814D01*
X006820Y010734D01*
X006777Y010629D01*
X006777Y010516D01*
X006806Y010445D01*
X006751Y010499D01*
X006647Y010543D01*
X006533Y010543D01*
X006428Y010499D01*
X006348Y010419D01*
X006304Y010314D01*
X006304Y010201D01*
X006348Y010096D01*
X006428Y010016D01*
X006533Y009972D01*
X006647Y009972D01*
X006751Y010016D01*
X006806Y010070D01*
X006777Y009999D01*
X006777Y009886D01*
X006806Y009815D01*
X006751Y009870D01*
X006647Y009913D01*
X006533Y009913D01*
X006428Y009870D01*
X006348Y009789D01*
X006304Y009684D01*
X006304Y009571D01*
X006348Y009466D01*
X006428Y009386D01*
X006533Y009342D01*
X006647Y009342D01*
X006751Y009386D01*
X006767Y009401D01*
X006756Y009343D01*
X006756Y009313D01*
X007062Y009313D01*
X007062Y009619D01*
X007062Y009313D01*
X007062Y009313D01*
X007062Y009313D01*
X006756Y009313D01*
X006756Y009282D01*
X006767Y009223D01*
X006790Y009167D01*
X006824Y009117D01*
X006867Y009074D01*
X006917Y009041D01*
X006973Y009018D01*
X007032Y009006D01*
X007062Y009006D01*
X007062Y009313D01*
X007369Y009313D01*
X007062Y009313D01*
X007062Y009313D01*
X007062Y009313D01*
X007062Y009006D01*
X007092Y009006D01*
X007152Y009018D01*
X007207Y009041D01*
X007258Y009074D01*
X007300Y009117D01*
X007352Y009211D02*
X011580Y009211D01*
X011408Y009308D02*
X007369Y009308D01*
X007356Y009405D02*
X011311Y009405D01*
X011214Y009502D02*
X007305Y009502D01*
X007173Y009599D02*
X011117Y009599D01*
X011020Y009696D02*
X007212Y009696D01*
X007309Y009793D02*
X010923Y009793D01*
X010853Y009889D02*
X007348Y009889D01*
X007348Y009986D02*
X010813Y009986D01*
X010793Y010083D02*
X007313Y010083D01*
X007228Y010180D02*
X010793Y010180D01*
X010793Y010277D02*
X006875Y010277D01*
X006867Y010180D02*
X006896Y010180D01*
X006857Y010374D02*
X006850Y010374D01*
X006795Y010471D02*
X006780Y010471D01*
X006777Y010568D02*
X003686Y010568D01*
X003686Y010665D02*
X006792Y010665D01*
X006848Y010762D02*
X003686Y010762D01*
X003686Y010859D02*
X010793Y010859D01*
X010793Y010956D02*
X003686Y010956D01*
X003686Y011053D02*
X004506Y011053D01*
X004549Y011035D02*
X005166Y011035D01*
X005300Y011090D01*
X005402Y011193D01*
X005458Y011327D01*
X005458Y011472D01*
X005402Y011605D01*
X005300Y011708D01*
X005166Y011763D01*
X004549Y011763D01*
X004415Y011708D01*
X004313Y011605D01*
X004257Y011472D01*
X004257Y011327D01*
X004313Y011193D01*
X004415Y011090D01*
X004549Y011035D01*
X004356Y011150D02*
X003686Y011150D01*
X003686Y011246D02*
X004290Y011246D01*
X004257Y011343D02*
X003686Y011343D01*
X003686Y011440D02*
X004257Y011440D01*
X004284Y011537D02*
X003686Y011537D01*
X003686Y011634D02*
X004341Y011634D01*
X004471Y011731D02*
X003686Y011731D01*
X003686Y011828D02*
X011029Y011828D01*
X011029Y011925D02*
X003686Y011925D01*
X003686Y012022D02*
X011029Y012022D01*
X011029Y012119D02*
X003686Y012119D01*
X003686Y012216D02*
X011029Y012216D01*
X011029Y012313D02*
X003686Y012313D01*
X003686Y012410D02*
X011029Y012410D01*
X011029Y012506D02*
X003686Y012506D01*
X003686Y012603D02*
X011064Y012603D01*
X011149Y012700D02*
X003686Y012700D01*
X003686Y012797D02*
X012112Y012797D01*
X012092Y012700D02*
X011480Y012700D01*
X011565Y012603D02*
X012111Y012603D01*
X012182Y012506D02*
X011600Y012506D01*
X011600Y012410D02*
X020428Y012410D01*
X020428Y012506D02*
X012494Y012506D01*
X012565Y012603D02*
X020428Y012603D01*
X020428Y012700D02*
X012590Y012700D01*
X012687Y012797D02*
X020428Y012797D01*
X020428Y012894D02*
X012784Y012894D01*
X012881Y012991D02*
X018292Y012991D01*
X018195Y013088D02*
X016293Y013088D01*
X016390Y013185D02*
X018098Y013185D01*
X018006Y013282D02*
X016487Y013282D01*
X016491Y013379D02*
X018006Y013379D01*
X018006Y013573D02*
X016491Y013573D01*
X016491Y013670D02*
X018006Y013670D01*
X018078Y013766D02*
X016410Y013766D01*
X016314Y013863D02*
X018175Y013863D01*
X018460Y013476D02*
X016491Y013476D01*
X015725Y013088D02*
X012978Y013088D01*
X013075Y013185D02*
X015628Y013185D01*
X015531Y013282D02*
X013172Y013282D01*
X013269Y013379D02*
X015527Y013379D01*
X015527Y013476D02*
X013366Y013476D01*
X013463Y013573D02*
X015527Y013573D01*
X015527Y013670D02*
X013559Y013670D01*
X013656Y013766D02*
X015608Y013766D01*
X015705Y013863D02*
X013753Y013863D01*
X013755Y014116D02*
X019543Y014116D01*
X020606Y013053D01*
X020606Y011517D01*
X020780Y011343D02*
X022958Y011343D01*
X022958Y011246D02*
X018950Y011246D01*
X019013Y011343D02*
X020432Y011343D01*
X020371Y011440D02*
X019013Y011440D01*
X019013Y011567D02*
X019013Y011726D01*
X018718Y012021D01*
X018558Y012021D01*
X018558Y011567D01*
X019013Y011567D01*
X019013Y011634D02*
X020388Y011634D01*
X020359Y011537D02*
X018558Y011537D01*
X018558Y011634D02*
X018460Y011634D01*
X018460Y011731D02*
X018558Y011731D01*
X018558Y011828D02*
X018460Y011828D01*
X018460Y011925D02*
X018558Y011925D01*
X018814Y011925D02*
X020428Y011925D01*
X020428Y012022D02*
X011600Y012022D01*
X011600Y012119D02*
X020428Y012119D01*
X020428Y012216D02*
X011600Y012216D01*
X011600Y012313D02*
X020428Y012313D01*
X020783Y012313D02*
X022958Y012313D01*
X022958Y012410D02*
X020783Y012410D01*
X020783Y012506D02*
X022958Y012506D01*
X022958Y012603D02*
X020783Y012603D01*
X020783Y012700D02*
X022958Y012700D01*
X022958Y012797D02*
X020783Y012797D01*
X020783Y012894D02*
X022958Y012894D01*
X022958Y012991D02*
X020783Y012991D01*
X020783Y013088D02*
X022958Y013088D01*
X022958Y012216D02*
X020783Y012216D01*
X020783Y012119D02*
X022958Y012119D01*
X022958Y012022D02*
X020783Y012022D01*
X020783Y011925D02*
X022958Y011925D01*
X022958Y011828D02*
X020783Y011828D01*
X020783Y011731D02*
X022958Y011731D01*
X022958Y011634D02*
X020823Y011634D01*
X020852Y011537D02*
X022958Y011537D01*
X022958Y011440D02*
X020840Y011440D01*
X020428Y011731D02*
X019007Y011731D01*
X018911Y011828D02*
X020428Y011828D01*
X020417Y012991D02*
X018726Y012991D01*
X018823Y013088D02*
X020320Y013088D01*
X020223Y013185D02*
X018920Y013185D01*
X019013Y013282D02*
X020126Y013282D01*
X020029Y013379D02*
X019013Y013379D01*
X019013Y013573D02*
X019835Y013573D01*
X019738Y013670D02*
X019013Y013670D01*
X018941Y013766D02*
X019641Y013766D01*
X019544Y013863D02*
X018844Y013863D01*
X018558Y013476D02*
X019932Y013476D01*
X020239Y013670D02*
X020558Y013670D01*
X020485Y013766D02*
X020142Y013766D01*
X020045Y013863D02*
X020433Y013863D01*
X020380Y013960D02*
X019948Y013960D01*
X019852Y014057D02*
X020344Y014057D01*
X020322Y014154D02*
X019755Y014154D01*
X019658Y014251D02*
X020296Y014251D01*
X020289Y014348D02*
X006355Y014348D01*
X006348Y014251D02*
X013640Y014251D01*
X013543Y014154D02*
X006322Y014154D01*
X006363Y014445D02*
X020281Y014445D01*
X020281Y014542D02*
X006363Y014542D01*
X006363Y014639D02*
X020281Y014639D01*
X020281Y014736D02*
X006363Y014736D01*
X006363Y014833D02*
X020281Y014833D01*
X020281Y014930D02*
X006363Y014930D01*
X006363Y015027D02*
X020281Y015027D01*
X020281Y015123D02*
X006363Y015123D01*
X006363Y015220D02*
X020281Y015220D01*
X020281Y015317D02*
X006363Y015317D01*
X006363Y015414D02*
X020281Y015414D01*
X020281Y015511D02*
X006363Y015511D01*
X006363Y015608D02*
X020281Y015608D01*
X020281Y015705D02*
X006363Y015705D01*
X006363Y015802D02*
X020281Y015802D01*
X020336Y013573D02*
X020640Y013573D01*
X020737Y013476D02*
X020433Y013476D01*
X020530Y013379D02*
X020863Y013379D01*
X021046Y013279D02*
X021084Y013258D01*
X021094Y013261D01*
X021172Y013232D01*
X021178Y013223D01*
X021221Y013214D01*
X021262Y013198D01*
X021271Y013203D01*
X021353Y013185D01*
X022958Y011150D02*
X018853Y011150D01*
X018006Y011634D02*
X016491Y011634D01*
X016477Y011731D02*
X018011Y011731D01*
X018108Y011828D02*
X016380Y011828D01*
X016284Y011925D02*
X018205Y011925D01*
X018460Y012991D02*
X018558Y012991D01*
X018558Y013088D02*
X018460Y013088D01*
X018460Y013185D02*
X018558Y013185D01*
X018558Y013282D02*
X018460Y013282D01*
X018460Y013379D02*
X018558Y013379D01*
X015735Y011925D02*
X011600Y011925D01*
X011600Y011828D02*
X015638Y011828D01*
X015541Y011731D02*
X011600Y011731D01*
X011600Y011634D02*
X015527Y011634D01*
X015527Y011537D02*
X011600Y011537D01*
X011600Y011440D02*
X015527Y011440D01*
X015527Y011343D02*
X011600Y011343D01*
X011693Y011246D02*
X015598Y011246D01*
X015695Y011150D02*
X011770Y011150D01*
X011810Y011053D02*
X015792Y011053D01*
X014454Y009017D02*
X007149Y009017D01*
X007062Y009017D02*
X007062Y009017D01*
X006976Y009017D02*
X003686Y009017D01*
X003686Y008920D02*
X014454Y008920D01*
X014454Y008823D02*
X007120Y008823D01*
X007056Y008850D02*
X007190Y008795D01*
X007292Y008692D01*
X007348Y008558D01*
X007348Y008413D01*
X007292Y008280D01*
X007190Y008177D01*
X007056Y008122D01*
X006439Y008122D01*
X006305Y008177D01*
X006202Y008280D01*
X006147Y008413D01*
X006147Y008558D01*
X006202Y008692D01*
X006305Y008795D01*
X006439Y008850D01*
X007056Y008850D01*
X007258Y008726D02*
X014454Y008726D01*
X014454Y008629D02*
X011302Y008629D01*
X011410Y008533D02*
X014457Y008533D01*
X014497Y008436D02*
X011442Y008436D01*
X011434Y008339D02*
X014543Y008339D01*
X014639Y008242D02*
X011379Y008242D01*
X011373Y008145D02*
X014755Y008145D01*
X017011Y005431D02*
X017603Y005431D01*
X017506Y005334D02*
X017108Y005334D01*
X017205Y005237D02*
X017409Y005237D01*
X017378Y005140D02*
X017245Y005140D01*
X017773Y005237D02*
X017871Y005237D01*
X017871Y005334D02*
X017773Y005334D01*
X017773Y005431D02*
X017871Y005431D01*
X018041Y005431D02*
X018633Y005431D01*
X020281Y004462D02*
X006363Y004462D01*
X006363Y004365D02*
X020281Y004365D01*
X020281Y004268D02*
X006363Y004268D01*
X006363Y004171D02*
X020281Y004171D01*
X020281Y004074D02*
X006363Y004074D01*
X003686Y007176D02*
X011056Y007176D01*
X010976Y007272D02*
X003686Y007272D01*
X003686Y007369D02*
X010950Y007369D01*
X010964Y007466D02*
X003686Y007466D01*
X003686Y007563D02*
X011019Y007563D01*
X011019Y007660D02*
X003686Y007660D01*
X003686Y007757D02*
X011019Y007757D01*
X011019Y007854D02*
X003686Y007854D01*
X003686Y007951D02*
X011019Y007951D01*
X011019Y008048D02*
X003686Y008048D01*
X003686Y008145D02*
X004493Y008145D01*
X004549Y008122D02*
X005166Y008122D01*
X005300Y008177D01*
X005402Y008280D01*
X005458Y008413D01*
X005458Y008558D01*
X005402Y008692D01*
X005300Y008795D01*
X005166Y008850D01*
X004549Y008850D01*
X004415Y008795D01*
X004313Y008692D01*
X004257Y008558D01*
X004257Y008413D01*
X004313Y008280D01*
X004415Y008177D01*
X004549Y008122D01*
X004350Y008242D02*
X003686Y008242D01*
X003686Y008339D02*
X004288Y008339D01*
X004257Y008436D02*
X003686Y008436D01*
X003686Y008533D02*
X004257Y008533D01*
X004287Y008629D02*
X003686Y008629D01*
X003686Y008726D02*
X004347Y008726D01*
X004484Y008823D02*
X003686Y008823D01*
X003686Y009114D02*
X006827Y009114D01*
X006772Y009211D02*
X003686Y009211D01*
X003686Y009308D02*
X006756Y009308D01*
X007062Y009308D02*
X007062Y009308D01*
X007062Y009405D02*
X007062Y009405D01*
X007062Y009502D02*
X007062Y009502D01*
X007062Y009599D02*
X007062Y009599D01*
X006951Y009599D02*
X006875Y009599D01*
X006871Y009696D02*
X006912Y009696D01*
X006777Y009889D02*
X006703Y009889D01*
X006681Y009986D02*
X006777Y009986D01*
X006498Y009986D02*
X003686Y009986D01*
X003686Y009889D02*
X006476Y009889D01*
X006351Y009793D02*
X003686Y009793D01*
X003686Y009696D02*
X006309Y009696D01*
X006304Y009599D02*
X003686Y009599D01*
X003686Y009502D02*
X006333Y009502D01*
X006409Y009405D02*
X003686Y009405D01*
X003686Y010083D02*
X006360Y010083D01*
X006313Y010180D02*
X003686Y010180D01*
X003686Y010277D02*
X006304Y010277D01*
X006329Y010374D02*
X003686Y010374D01*
X003686Y010471D02*
X006400Y010471D01*
X006439Y011035D02*
X006305Y011090D01*
X006202Y011193D01*
X006147Y011327D01*
X006147Y011472D01*
X006202Y011605D01*
X006305Y011708D01*
X006439Y011763D01*
X007056Y011763D01*
X007190Y011708D01*
X007292Y011605D01*
X007348Y011472D01*
X007348Y011327D01*
X007292Y011193D01*
X007190Y011090D01*
X007056Y011035D01*
X006439Y011035D01*
X006396Y011053D02*
X005208Y011053D01*
X005359Y011150D02*
X006246Y011150D01*
X006180Y011246D02*
X005425Y011246D01*
X005458Y011343D02*
X006147Y011343D01*
X006147Y011440D02*
X005458Y011440D01*
X005431Y011537D02*
X006174Y011537D01*
X006231Y011634D02*
X005374Y011634D01*
X005244Y011731D02*
X006361Y011731D01*
X007134Y011731D02*
X011029Y011731D01*
X011029Y011634D02*
X007264Y011634D01*
X007320Y011537D02*
X011029Y011537D01*
X011029Y011440D02*
X007348Y011440D01*
X007348Y011343D02*
X011029Y011343D01*
X010935Y011246D02*
X007314Y011246D01*
X007249Y011150D02*
X010858Y011150D01*
X010818Y011053D02*
X007098Y011053D01*
X007277Y010762D02*
X010793Y010762D01*
X010793Y010665D02*
X007333Y010665D01*
X007348Y010568D02*
X010793Y010568D01*
X010793Y010471D02*
X007329Y010471D01*
X007268Y010374D02*
X010793Y010374D01*
X011090Y008629D02*
X007318Y008629D01*
X007348Y008533D02*
X010982Y008533D01*
X010950Y008436D02*
X007348Y008436D01*
X007317Y008339D02*
X010958Y008339D01*
X011013Y008242D02*
X007254Y008242D01*
X007112Y008145D02*
X011019Y008145D01*
X011196Y008407D02*
X011196Y007383D01*
X007062Y009114D02*
X007062Y009114D01*
X007062Y009211D02*
X007062Y009211D01*
X006374Y008823D02*
X005231Y008823D01*
X005368Y008726D02*
X006237Y008726D01*
X006176Y008629D02*
X005428Y008629D01*
X005458Y008533D02*
X006147Y008533D01*
X006147Y008436D02*
X005458Y008436D01*
X005427Y008339D02*
X006178Y008339D01*
X006240Y008242D02*
X005365Y008242D01*
X005222Y008145D02*
X006383Y008145D01*
X012338Y012698D02*
X013755Y014116D01*
X012186Y012894D02*
X003686Y012894D01*
X003686Y012991D02*
X007918Y012991D01*
X007821Y013088D02*
X003686Y013088D01*
X008086Y013088D02*
X008184Y013088D01*
X008184Y012991D02*
X008086Y012991D01*
X008086Y013185D02*
X008184Y013185D01*
X008184Y013282D02*
X008086Y013282D01*
X008086Y013379D02*
X008184Y013379D01*
X018635Y010083D02*
X019887Y010083D01*
X020054Y009903D02*
X020094Y009943D01*
D16*
X013322Y008053D03*
D17*
X014976Y008328D02*
X014976Y008643D01*
X013991Y009706D02*
X013991Y010179D01*
X011865Y010179D02*
X011865Y009706D01*
X011865Y010179D02*
X011550Y010494D01*
X011314Y010887D01*
X011196Y010769D01*
X011196Y011006D01*
X011314Y011124D01*
X011314Y012462D01*
X011196Y011006D02*
X011314Y010887D01*
X019661Y008643D02*
X019936Y008643D01*
D18*
X019661Y008643D02*
X015763Y008643D01*
X014976Y008643D01*
X014976Y008958D01*
X014976Y009431D01*
X014976Y009706D01*
X014779Y009706D01*
X014228Y009706D01*
X013991Y009706D01*
X012653Y009706D01*
X011865Y009706D01*
X011747Y009706D01*
X011314Y010139D01*
X011314Y010887D01*
D19*
X014228Y009706D02*
X014976Y008958D01*
X014976Y009431D02*
X015763Y008643D01*
X014779Y009706D02*
X014779Y010179D01*
M02*
