G75*
%MOIN*%
%OFA0B0*%
%FSLAX24Y24*%
%IPPOS*%
%LPD*%
%AMOC8*
5,1,8,0,0,1.08239X$1,22.5*
%
%ADD10R,0.0276X0.0157*%
%ADD11R,0.0157X0.0157*%
%ADD12R,0.0157X0.0276*%
%ADD13R,0.0592X0.0789*%
%ADD14R,0.0315X0.0315*%
%ADD15OC8,0.0789*%
%ADD16C,0.1340*%
%ADD17R,0.1378X0.1378*%
%ADD18R,0.0138X0.0492*%
%ADD19R,0.0492X0.0138*%
%ADD20C,0.0395*%
%ADD21C,0.0552*%
%ADD22R,0.0474X0.0474*%
%ADD23R,0.0512X0.0591*%
%ADD24R,0.0197X0.0315*%
%ADD25R,0.0552X0.0316*%
%ADD26OC8,0.0671*%
%ADD27R,0.0472X0.0315*%
%ADD28C,0.0907*%
D10*
X020487Y008960D03*
X020487Y009216D03*
X020487Y009472D03*
X020487Y009728D03*
X020487Y009984D03*
X020487Y010240D03*
X020487Y010495D03*
X021747Y010495D03*
X021747Y010240D03*
X021747Y009984D03*
X021747Y009728D03*
X021747Y009472D03*
X021747Y009216D03*
X021747Y008960D03*
D11*
X021186Y008960D03*
X020930Y008960D03*
X021186Y010495D03*
D12*
X021186Y010121D03*
X020930Y010121D03*
X020930Y009728D03*
X021186Y009728D03*
X021186Y009334D03*
X020930Y009334D03*
X020940Y008586D03*
X020704Y008586D03*
X020468Y008586D03*
X021176Y008586D03*
X021413Y008586D03*
X021649Y008586D03*
X022948Y008586D03*
X022948Y010869D03*
X021649Y010869D03*
X021413Y010869D03*
X021176Y010869D03*
X020940Y010869D03*
X020704Y010869D03*
X020468Y010869D03*
D13*
X020684Y007680D03*
X019661Y007680D03*
D14*
X019464Y008783D03*
X019936Y008783D03*
X016472Y009688D03*
X015999Y009688D03*
X015999Y010200D03*
X016472Y010200D03*
X015094Y009964D03*
X015094Y009491D03*
X014503Y009491D03*
X014503Y009964D03*
X013716Y009964D03*
X013716Y009491D03*
X012928Y009491D03*
X012928Y009964D03*
X012141Y009964D03*
X012141Y009491D03*
X011550Y009491D03*
X011550Y009964D03*
X011314Y011499D03*
X011314Y011972D03*
X013480Y012877D03*
X013952Y012877D03*
X014700Y011736D03*
X014700Y011263D03*
X014976Y007838D03*
X015448Y007838D03*
X010133Y006932D03*
X009661Y006932D03*
X009267Y006932D03*
X008794Y006932D03*
X008794Y007405D03*
X008794Y007877D03*
X009267Y007877D03*
X009267Y007405D03*
X009267Y008350D03*
X008794Y008350D03*
D15*
X008135Y013271D03*
X010635Y013271D03*
X016009Y013271D03*
X016009Y011302D03*
X018509Y011302D03*
X018509Y013271D03*
D16*
X005054Y005200D03*
X005054Y014255D03*
X021590Y014255D03*
X021590Y005200D03*
D17*
X013322Y007838D03*
D18*
X013224Y006795D03*
X013420Y006795D03*
X013617Y006795D03*
X013814Y006795D03*
X014011Y006795D03*
X013027Y006795D03*
X012830Y006795D03*
X012633Y006795D03*
X012633Y008881D03*
X012830Y008881D03*
X013027Y008881D03*
X013224Y008881D03*
X013420Y008881D03*
X013617Y008881D03*
X013814Y008881D03*
X014011Y008881D03*
D19*
X014365Y008527D03*
X014365Y008330D03*
X014365Y008133D03*
X014365Y007936D03*
X014365Y007740D03*
X014365Y007543D03*
X014365Y007346D03*
X014365Y007149D03*
X012279Y007149D03*
X012279Y007346D03*
X012279Y007543D03*
X012279Y007740D03*
X012279Y007936D03*
X012279Y008133D03*
X012279Y008330D03*
X012279Y008527D03*
D20*
X007062Y009098D03*
X006590Y009413D03*
X007062Y009728D03*
X006590Y010043D03*
X007062Y010358D03*
D21*
X006983Y011184D02*
X006511Y011184D01*
X005094Y011184D02*
X004621Y011184D01*
X004621Y008271D02*
X005094Y008271D01*
X006511Y008271D02*
X006983Y008271D01*
D22*
X008007Y009943D03*
X008007Y010693D03*
X010763Y010693D03*
X010763Y009943D03*
D23*
X013381Y011243D03*
X014050Y011243D03*
X014050Y012149D03*
X013381Y012149D03*
D24*
X012357Y012149D03*
X011846Y012149D03*
X011846Y011322D03*
X012102Y011322D03*
X012357Y011322D03*
D25*
X010054Y010653D03*
X010054Y009905D03*
X008798Y009905D03*
X008798Y010279D03*
X008798Y010653D03*
D26*
X008822Y004806D03*
X007822Y004806D03*
X009822Y004806D03*
X010822Y004806D03*
X011822Y004806D03*
X012822Y004806D03*
X013822Y004806D03*
X014822Y004806D03*
X015822Y004806D03*
X016822Y004806D03*
X017822Y004806D03*
X018822Y004806D03*
D27*
X011570Y006677D03*
X011570Y007188D03*
X010665Y006932D03*
D28*
X013322Y007838D03*
M02*
