G75*
%MOIN*%
%OFA0B0*%
%FSLAX25Y25*%
%IPPOS*%
%LPD*%
%AMOC8*
5,1,8,0,0,1.08239X$1,22.5*
%
%ADD10R,0.01181X0.02362*%
%ADD11R,0.01181X0.01181*%
%ADD12R,0.02362X0.01181*%
%ADD13R,0.05512X0.05512*%
%ADD14R,0.02756X0.02756*%
%ADD15R,0.07874X0.11811*%
%ADD16R,0.03937X0.03937*%
%ADD17R,0.02756X0.04724*%
%ADD18R,0.02756X0.03937*%
%ADD19R,0.06299X0.03543*%
%ADD20OC8,0.05906*%
%ADD21C,0.03937*%
%ADD22C,0.00787*%
%ADD23R,0.05512X0.04724*%
%ADD24R,0.04724X0.01181*%
%ADD25R,0.01181X0.04724*%
%ADD26R,0.13780X0.13780*%
%ADD27R,0.07087X0.07480*%
%ADD28R,0.06299X0.07480*%
%ADD29OC8,0.07480*%
%ADD30R,0.01575X0.05512*%
%ADD31C,0.03937*%
%ADD32R,0.01181X0.03150*%
%ADD33R,0.04724X0.02756*%
%ADD34C,0.00984*%
%ADD35C,0.02362*%
%ADD36C,0.01600*%
%ADD37C,0.01575*%
%ADD38C,0.02362*%
%ADD39C,0.03150*%
%ADD40C,0.01181*%
D10*
X0093780Y0258146D03*
X0096339Y0258146D03*
X0098898Y0258146D03*
X0101457Y0258146D03*
X0104016Y0258146D03*
X0106575Y0258146D03*
X0109134Y0258146D03*
X0109134Y0270744D03*
X0106575Y0270744D03*
X0104016Y0270744D03*
X0101457Y0270744D03*
X0098898Y0270744D03*
X0096339Y0270744D03*
X0093780Y0270744D03*
D11*
X0093780Y0265724D03*
X0108740Y0265724D03*
X0108740Y0263165D03*
D12*
X0105394Y0263165D03*
X0105394Y0265724D03*
X0101457Y0265724D03*
X0101457Y0263165D03*
X0097520Y0263165D03*
X0097520Y0265724D03*
X0090039Y0265724D03*
X0090039Y0263165D03*
X0090039Y0260606D03*
X0090039Y0258047D03*
X0090039Y0268283D03*
X0090039Y0270843D03*
X0090039Y0282654D03*
X0112874Y0282654D03*
X0112874Y0270843D03*
X0112874Y0268283D03*
X0112874Y0265724D03*
X0112874Y0263165D03*
X0112874Y0260606D03*
X0112874Y0258047D03*
D13*
X0124685Y0259720D03*
X0124685Y0250272D03*
D14*
X0115630Y0252240D03*
X0110906Y0252240D03*
X0102638Y0221531D03*
X0102638Y0216807D03*
X0097913Y0216807D03*
X0097913Y0221531D03*
X0097126Y0203815D03*
X0092402Y0203815D03*
X0092402Y0198303D03*
X0097126Y0198303D03*
X0097126Y0192791D03*
X0092402Y0192791D03*
X0095551Y0183343D03*
X0100276Y0183343D03*
X0103031Y0171925D03*
X0107756Y0171925D03*
X0103031Y0167201D03*
X0098307Y0167201D03*
X0097520Y0171925D03*
X0092795Y0171925D03*
X0075079Y0166807D03*
X0070354Y0166807D03*
X0065236Y0188067D03*
X0065236Y0192791D03*
X0076654Y0200272D03*
X0081378Y0200272D03*
X0115630Y0203028D03*
X0115630Y0207752D03*
X0117205Y0161295D03*
X0121929Y0161295D03*
X0121929Y0156571D03*
X0117205Y0156571D03*
X0112480Y0156571D03*
X0112480Y0161295D03*
X0121929Y0151846D03*
X0126654Y0151846D03*
X0126654Y0156571D03*
X0126654Y0161295D03*
X0064055Y0119957D03*
X0059331Y0119957D03*
X0059331Y0115232D03*
X0064055Y0115232D03*
X0052638Y0110114D03*
X0052638Y0105390D03*
D15*
X0077047Y0127437D03*
X0077047Y0147122D03*
X0086496Y0216413D03*
X0066811Y0216413D03*
X0066811Y0236098D03*
X0086496Y0236098D03*
D16*
X0091614Y0156177D03*
X0091614Y0149091D03*
X0091614Y0142791D03*
X0091614Y0135705D03*
D17*
X0098504Y0140823D03*
X0102244Y0140823D03*
X0105984Y0140823D03*
X0105984Y0151059D03*
X0098504Y0151059D03*
D18*
X0123110Y0144760D03*
X0130197Y0144760D03*
X0126654Y0135311D03*
D19*
X0076260Y0109720D03*
X0076260Y0104209D03*
X0076260Y0098697D03*
X0061299Y0098697D03*
X0061299Y0104209D03*
X0061299Y0109720D03*
D20*
X0051457Y0121886D03*
X0051457Y0131886D03*
X0051457Y0141886D03*
X0051457Y0151886D03*
X0051457Y0161886D03*
X0051457Y0171886D03*
X0051457Y0181886D03*
X0051457Y0191886D03*
X0051457Y0201886D03*
X0051457Y0211886D03*
X0051457Y0221886D03*
X0051457Y0231886D03*
X0051457Y0241886D03*
X0051457Y0251886D03*
X0151457Y0251886D03*
X0151457Y0241886D03*
X0151457Y0231886D03*
X0151457Y0221886D03*
X0151457Y0211886D03*
X0151457Y0201886D03*
X0151457Y0191886D03*
X0151457Y0181886D03*
X0151457Y0171886D03*
X0151457Y0161886D03*
X0151457Y0151886D03*
X0151457Y0141886D03*
X0151457Y0131886D03*
X0151457Y0121886D03*
D21*
X0064055Y0067988D03*
X0300276Y0068776D03*
X0083740Y0304996D03*
D22*
X0056181Y0075862D02*
X0056181Y0060114D01*
X0071929Y0060114D01*
X0071929Y0075862D01*
X0056181Y0075862D01*
X0292402Y0076650D02*
X0292402Y0060902D01*
X0308150Y0060902D01*
X0308150Y0076650D01*
X0292402Y0076650D01*
X0091614Y0297122D02*
X0075866Y0297122D01*
X0075866Y0312870D01*
X0091614Y0312870D01*
X0091614Y0297122D01*
D23*
X0081575Y0193776D03*
X0081575Y0187083D03*
X0072520Y0187083D03*
X0072520Y0193776D03*
D24*
X0107165Y0193776D03*
X0107165Y0191807D03*
X0107165Y0189839D03*
X0107165Y0187870D03*
X0107165Y0185902D03*
X0107165Y0183933D03*
X0107165Y0181965D03*
X0107165Y0179996D03*
X0128031Y0179996D03*
X0128031Y0181965D03*
X0128031Y0183933D03*
X0128031Y0185902D03*
X0128031Y0187870D03*
X0128031Y0189839D03*
X0128031Y0191807D03*
X0128031Y0193776D03*
D25*
X0124488Y0197319D03*
X0122520Y0197319D03*
X0120551Y0197319D03*
X0118583Y0197319D03*
X0116614Y0197319D03*
X0114646Y0197319D03*
X0112677Y0197319D03*
X0110709Y0197319D03*
X0110709Y0176453D03*
X0112677Y0176453D03*
X0114646Y0176453D03*
X0116614Y0176453D03*
X0118583Y0176453D03*
X0120551Y0176453D03*
X0122520Y0176453D03*
X0124488Y0176453D03*
D26*
X0117598Y0186886D03*
D27*
X0105984Y0097713D03*
X0096929Y0097713D03*
D28*
X0088071Y0097713D03*
X0114843Y0097713D03*
D29*
X0117992Y0097713D03*
X0084921Y0097713D03*
D30*
X0096339Y0108343D03*
X0098898Y0108343D03*
X0101457Y0108343D03*
X0104016Y0108343D03*
X0106575Y0108343D03*
D31*
X0110118Y0107555D02*
X0110118Y0111492D01*
X0092795Y0111492D02*
X0092795Y0107555D01*
D32*
X0097913Y0219169D03*
X0102638Y0219169D03*
D33*
X0083740Y0180390D03*
X0083740Y0176650D03*
X0083740Y0172909D03*
X0073504Y0172909D03*
X0073504Y0180390D03*
D34*
X0073307Y0180587D01*
X0065236Y0180587D01*
X0060512Y0185311D01*
X0060512Y0249091D01*
X0071142Y0259720D01*
X0077441Y0259720D01*
X0078357Y0257436D02*
X0078425Y0257436D01*
X0078425Y0257465D02*
X0078425Y0253475D01*
X0085118Y0246782D01*
X0086156Y0245744D01*
X0090093Y0245744D01*
X0095453Y0240384D01*
X0095453Y0239940D01*
X0095827Y0239035D01*
X0096142Y0238721D01*
X0096142Y0224189D01*
X0096005Y0224189D01*
X0095256Y0223439D01*
X0095256Y0219624D01*
X0095710Y0219169D01*
X0095256Y0218715D01*
X0095256Y0214899D01*
X0096005Y0214150D01*
X0096142Y0214150D01*
X0096142Y0212530D01*
X0097180Y0211492D01*
X0105841Y0202831D01*
X0102531Y0202831D01*
X0102736Y0203326D01*
X0102736Y0204304D01*
X0102362Y0205209D01*
X0101669Y0205901D01*
X0100765Y0206276D01*
X0099231Y0206276D01*
X0099034Y0206472D01*
X0095218Y0206472D01*
X0094764Y0206018D01*
X0094310Y0206472D01*
X0094173Y0206472D01*
X0094173Y0209273D01*
X0091713Y0211734D01*
X0091713Y0222849D01*
X0090963Y0223598D01*
X0082029Y0223598D01*
X0081280Y0222849D01*
X0081280Y0209978D01*
X0082029Y0209228D01*
X0089207Y0209228D01*
X0090630Y0207806D01*
X0090630Y0206472D01*
X0090494Y0206472D01*
X0089797Y0205776D01*
X0087230Y0208343D01*
X0085762Y0208343D01*
X0075419Y0208343D01*
X0072028Y0211734D01*
X0072028Y0222849D01*
X0071278Y0223598D01*
X0062344Y0223598D01*
X0062283Y0223538D01*
X0062283Y0248357D01*
X0071876Y0257949D01*
X0075733Y0257949D01*
X0076047Y0257634D01*
X0076951Y0257260D01*
X0077930Y0257260D01*
X0078425Y0257465D01*
X0078425Y0256454D02*
X0070380Y0256454D01*
X0071363Y0257436D02*
X0076525Y0257436D01*
X0078425Y0255471D02*
X0069398Y0255471D01*
X0068415Y0254488D02*
X0078425Y0254488D01*
X0078425Y0253505D02*
X0067432Y0253505D01*
X0066449Y0252523D02*
X0079377Y0252523D01*
X0080360Y0251540D02*
X0065467Y0251540D01*
X0064484Y0250557D02*
X0081343Y0250557D01*
X0082326Y0249574D02*
X0063501Y0249574D01*
X0062518Y0248591D02*
X0083309Y0248591D01*
X0084291Y0247609D02*
X0062283Y0247609D01*
X0062283Y0246626D02*
X0085274Y0246626D01*
X0086890Y0247516D02*
X0090827Y0247516D01*
X0097913Y0240429D01*
X0097913Y0221531D01*
X0097913Y0219169D02*
X0097913Y0216807D01*
X0097913Y0213264D01*
X0110709Y0200469D01*
X0110709Y0197319D01*
X0112677Y0197319D02*
X0112677Y0201256D01*
X0102638Y0211295D01*
X0102638Y0216807D01*
X0102638Y0219169D01*
X0104841Y0219169D02*
X0105295Y0219624D01*
X0105295Y0222274D01*
X0106235Y0221335D01*
X0111746Y0221335D01*
X0123814Y0209267D01*
X0123291Y0209051D01*
X0122599Y0208358D01*
X0122224Y0207454D01*
X0122224Y0207009D01*
X0118398Y0203183D01*
X0118287Y0203293D01*
X0118287Y0204936D01*
X0118239Y0204984D01*
X0118780Y0205525D01*
X0118780Y0209585D01*
X0117857Y0210508D01*
X0116552Y0210508D01*
X0115630Y0209585D01*
X0114707Y0210508D01*
X0114154Y0210508D01*
X0114154Y0216509D01*
X0113779Y0217414D01*
X0113087Y0218106D01*
X0112182Y0218480D01*
X0111203Y0218480D01*
X0110299Y0218106D01*
X0109607Y0217414D01*
X0109232Y0216509D01*
X0109232Y0207206D01*
X0104409Y0212029D01*
X0104409Y0214150D01*
X0104546Y0214150D01*
X0105295Y0214899D01*
X0105295Y0218715D01*
X0104841Y0219169D01*
X0104902Y0219109D02*
X0113973Y0219109D01*
X0113038Y0218126D02*
X0114955Y0218126D01*
X0115938Y0217143D02*
X0113891Y0217143D01*
X0114154Y0216160D02*
X0116921Y0216160D01*
X0117904Y0215178D02*
X0114154Y0215178D01*
X0114154Y0214195D02*
X0118886Y0214195D01*
X0119869Y0213212D02*
X0114154Y0213212D01*
X0114154Y0212229D02*
X0120852Y0212229D01*
X0121835Y0211246D02*
X0114154Y0211246D01*
X0114952Y0210264D02*
X0116308Y0210264D01*
X0115630Y0209585D02*
X0115630Y0207752D01*
X0115630Y0207752D01*
X0115630Y0209585D01*
X0115630Y0209281D02*
X0115630Y0209281D01*
X0115630Y0208298D02*
X0115630Y0208298D01*
X0118780Y0208298D02*
X0122574Y0208298D01*
X0122224Y0207315D02*
X0118780Y0207315D01*
X0118780Y0206333D02*
X0121548Y0206333D01*
X0120565Y0205350D02*
X0118605Y0205350D01*
X0118287Y0204367D02*
X0119582Y0204367D01*
X0118599Y0203384D02*
X0118287Y0203384D01*
X0118583Y0200862D02*
X0124685Y0206965D01*
X0124685Y0204602D02*
X0127441Y0204602D01*
X0124685Y0204602D02*
X0120551Y0200469D01*
X0120551Y0197319D01*
X0118583Y0197319D02*
X0118583Y0200862D01*
X0116614Y0200469D02*
X0116614Y0197319D01*
X0122520Y0197319D02*
X0122520Y0200075D01*
X0124291Y0201846D01*
X0130197Y0201846D01*
X0132559Y0203028D02*
X0132559Y0197122D01*
X0133346Y0196335D01*
X0133346Y0192791D01*
X0132559Y0192004D01*
X0133346Y0191217D01*
X0133346Y0192004D01*
X0132559Y0192004D01*
X0129803Y0192004D01*
X0129606Y0191807D01*
X0128031Y0191807D01*
X0128031Y0193776D02*
X0129606Y0193776D01*
X0130984Y0195154D01*
X0133346Y0192791D02*
X0133346Y0192004D01*
X0133346Y0191217D02*
X0133346Y0176256D01*
X0139252Y0170350D01*
X0139252Y0147909D01*
X0142795Y0144366D01*
X0142795Y0130587D01*
X0151457Y0121925D01*
X0151457Y0121886D01*
X0154423Y0118867D02*
X0156476Y0118867D01*
X0156476Y0119850D02*
X0155406Y0119850D01*
X0155689Y0120133D02*
X0155689Y0123639D01*
X0153210Y0126118D01*
X0149769Y0126118D01*
X0144567Y0131320D01*
X0144567Y0136152D01*
X0144817Y0135902D01*
X0147224Y0133495D01*
X0147224Y0130133D01*
X0149704Y0127654D01*
X0153210Y0127654D01*
X0155689Y0130133D01*
X0155689Y0133639D01*
X0153210Y0136118D01*
X0149704Y0136118D01*
X0149658Y0136072D01*
X0147323Y0138407D01*
X0147323Y0140034D01*
X0149704Y0137654D01*
X0153210Y0137654D01*
X0155689Y0140133D01*
X0155689Y0143639D01*
X0153210Y0146118D01*
X0149848Y0146118D01*
X0144961Y0151005D01*
X0144961Y0155876D01*
X0147224Y0153613D01*
X0147224Y0150133D01*
X0149704Y0147654D01*
X0153210Y0147654D01*
X0155689Y0150133D01*
X0155689Y0153639D01*
X0153210Y0156118D01*
X0149730Y0156118D01*
X0146929Y0158919D01*
X0146929Y0163908D01*
X0147224Y0163613D01*
X0147224Y0160133D01*
X0149704Y0157654D01*
X0153210Y0157654D01*
X0155689Y0160133D01*
X0155689Y0163639D01*
X0153210Y0166118D01*
X0149730Y0166118D01*
X0148898Y0166950D01*
X0148898Y0168460D01*
X0149704Y0167654D01*
X0153210Y0167654D01*
X0155689Y0170133D01*
X0155689Y0173639D01*
X0153210Y0176118D01*
X0149730Y0176118D01*
X0144961Y0180887D01*
X0144961Y0185876D01*
X0147224Y0183613D01*
X0147224Y0180133D01*
X0149704Y0177654D01*
X0153210Y0177654D01*
X0155689Y0180133D01*
X0155689Y0183639D01*
X0153210Y0186118D01*
X0149730Y0186118D01*
X0146929Y0188919D01*
X0146929Y0193908D01*
X0147224Y0193613D01*
X0147224Y0190133D01*
X0149704Y0187654D01*
X0153210Y0187654D01*
X0155689Y0190133D01*
X0155689Y0193639D01*
X0153210Y0196118D01*
X0149730Y0196118D01*
X0148898Y0196950D01*
X0148898Y0198460D01*
X0149704Y0197654D01*
X0153210Y0197654D01*
X0155689Y0200133D01*
X0155689Y0203639D01*
X0153228Y0206100D01*
X0153228Y0206517D01*
X0152092Y0207654D01*
X0153210Y0207654D01*
X0155689Y0210133D01*
X0155689Y0213639D01*
X0153210Y0216118D01*
X0149704Y0216118D01*
X0149618Y0216033D01*
X0146929Y0218722D01*
X0146929Y0223554D01*
X0147224Y0223258D01*
X0147224Y0220133D01*
X0149704Y0217654D01*
X0153210Y0217654D01*
X0155689Y0220133D01*
X0155689Y0223639D01*
X0153210Y0226118D01*
X0149704Y0226118D01*
X0149540Y0225954D01*
X0148898Y0226596D01*
X0148898Y0228460D01*
X0149704Y0227654D01*
X0153210Y0227654D01*
X0155689Y0230133D01*
X0155689Y0233639D01*
X0153210Y0236118D01*
X0149704Y0236118D01*
X0148898Y0235312D01*
X0148898Y0248460D01*
X0149704Y0247654D01*
X0153210Y0247654D01*
X0155689Y0250133D01*
X0155689Y0253639D01*
X0153210Y0256118D01*
X0149704Y0256118D01*
X0147224Y0253639D01*
X0147224Y0251104D01*
X0128175Y0270154D01*
X0115335Y0270154D01*
X0115335Y0271827D01*
X0115766Y0271827D01*
X0116258Y0272319D01*
X0156099Y0272319D01*
X0156359Y0271349D01*
X0156476Y0269563D01*
X0156476Y0104209D01*
X0156359Y0102423D01*
X0155435Y0098973D01*
X0153649Y0095880D01*
X0151124Y0093355D01*
X0148031Y0091569D01*
X0144581Y0090645D01*
X0142795Y0090528D01*
X0122392Y0090528D01*
X0118848Y0094071D01*
X0084065Y0094071D01*
X0082854Y0092860D01*
X0080522Y0090528D01*
X0060118Y0090528D01*
X0058332Y0090645D01*
X0054883Y0091569D01*
X0051790Y0093355D01*
X0049264Y0095880D01*
X0047478Y0098973D01*
X0046554Y0102423D01*
X0046437Y0104209D01*
X0046437Y0269563D01*
X0046554Y0271349D01*
X0046814Y0272319D01*
X0086655Y0272319D01*
X0087147Y0271827D01*
X0094469Y0271827D01*
X0094469Y0269033D01*
X0095218Y0268283D01*
X0097459Y0268283D01*
X0098209Y0269033D01*
X0098209Y0271827D01*
X0107264Y0271827D01*
X0107264Y0269033D01*
X0107277Y0269020D01*
X0107245Y0268988D01*
X0106870Y0268084D01*
X0106870Y0267105D01*
X0106946Y0266921D01*
X0106870Y0266845D01*
X0106870Y0264604D01*
X0107029Y0264445D01*
X0106870Y0264286D01*
X0106870Y0262045D01*
X0106946Y0261969D01*
X0106870Y0261785D01*
X0106870Y0260806D01*
X0107245Y0259901D01*
X0107277Y0259870D01*
X0107264Y0259857D01*
X0107264Y0255403D01*
X0107465Y0255201D01*
X0107638Y0254783D01*
X0108249Y0254173D01*
X0108150Y0254074D01*
X0108150Y0250407D01*
X0108445Y0250111D01*
X0108445Y0248207D01*
X0108819Y0247303D01*
X0109512Y0246611D01*
X0110416Y0246236D01*
X0111395Y0246236D01*
X0112299Y0246611D01*
X0112992Y0247303D01*
X0113366Y0248207D01*
X0113366Y0249521D01*
X0113403Y0249484D01*
X0114707Y0249484D01*
X0115630Y0250407D01*
X0115630Y0254074D01*
X0114707Y0254996D01*
X0113403Y0254996D01*
X0113366Y0254959D01*
X0113366Y0255486D01*
X0112992Y0256390D01*
X0112299Y0257082D01*
X0111988Y0257393D01*
X0111988Y0258736D01*
X0114585Y0258736D01*
X0114684Y0258835D01*
X0117160Y0258835D01*
X0118189Y0257806D01*
X0118189Y0254262D01*
X0119227Y0253224D01*
X0120650Y0251802D01*
X0120650Y0246986D01*
X0121399Y0246236D01*
X0127971Y0246236D01*
X0128720Y0246986D01*
X0128720Y0253558D01*
X0127971Y0254307D01*
X0123155Y0254307D01*
X0121777Y0255685D01*
X0127971Y0255685D01*
X0128720Y0256435D01*
X0128720Y0261841D01*
X0143386Y0247176D01*
X0143386Y0217254D01*
X0144424Y0216217D01*
X0147224Y0213416D01*
X0147224Y0212521D01*
X0119120Y0240626D01*
X0115183Y0240626D01*
X0103394Y0252415D01*
X0103638Y0252516D01*
X0104330Y0253209D01*
X0104705Y0254113D01*
X0104705Y0255092D01*
X0104459Y0255685D01*
X0105136Y0255685D01*
X0105886Y0256435D01*
X0105886Y0259095D01*
X0105905Y0259114D01*
X0106280Y0260018D01*
X0106280Y0260997D01*
X0105905Y0261902D01*
X0105213Y0262594D01*
X0104308Y0262968D01*
X0103329Y0262968D01*
X0102425Y0262594D01*
X0101733Y0261902D01*
X0101358Y0260997D01*
X0101358Y0260606D01*
X0100336Y0260606D01*
X0100177Y0260447D01*
X0100018Y0260606D01*
X0097777Y0260606D01*
X0097618Y0260447D01*
X0097459Y0260606D01*
X0095218Y0260606D01*
X0095059Y0260447D01*
X0094900Y0260606D01*
X0092659Y0260606D01*
X0092500Y0260447D01*
X0092500Y0261443D01*
X0093093Y0261197D01*
X0094072Y0261197D01*
X0094977Y0261571D01*
X0095669Y0262264D01*
X0096043Y0263168D01*
X0096043Y0264147D01*
X0095669Y0265051D01*
X0095650Y0265070D01*
X0095650Y0266845D01*
X0094900Y0267594D01*
X0092659Y0267594D01*
X0092500Y0267435D01*
X0092500Y0269404D01*
X0091750Y0270154D01*
X0088328Y0270154D01*
X0088230Y0270055D01*
X0085270Y0270055D01*
X0084232Y0269017D01*
X0079463Y0264248D01*
X0078425Y0263210D01*
X0078425Y0261976D01*
X0077930Y0262181D01*
X0076951Y0262181D01*
X0076047Y0261806D01*
X0075733Y0261492D01*
X0070408Y0261492D01*
X0069370Y0260454D01*
X0058740Y0249824D01*
X0058740Y0184577D01*
X0059778Y0183539D01*
X0064502Y0178815D01*
X0054372Y0178815D01*
X0055354Y0179798D02*
X0063519Y0179798D01*
X0062537Y0180781D02*
X0055689Y0180781D01*
X0055689Y0180133D02*
X0053210Y0177654D01*
X0049704Y0177654D01*
X0047224Y0180133D01*
X0047224Y0183639D01*
X0049704Y0186118D01*
X0053210Y0186118D01*
X0055689Y0183639D01*
X0055689Y0180133D01*
X0055689Y0181764D02*
X0061554Y0181764D01*
X0060571Y0182746D02*
X0055689Y0182746D01*
X0055599Y0183729D02*
X0059588Y0183729D01*
X0058740Y0184712D02*
X0054616Y0184712D01*
X0053633Y0185695D02*
X0058740Y0185695D01*
X0058740Y0186677D02*
X0046437Y0186677D01*
X0046437Y0185695D02*
X0049280Y0185695D01*
X0048297Y0184712D02*
X0046437Y0184712D01*
X0046437Y0183729D02*
X0047315Y0183729D01*
X0047224Y0182746D02*
X0046437Y0182746D01*
X0046437Y0181764D02*
X0047224Y0181764D01*
X0047224Y0180781D02*
X0046437Y0180781D01*
X0046437Y0179798D02*
X0047559Y0179798D01*
X0048542Y0178815D02*
X0046437Y0178815D01*
X0046437Y0177833D02*
X0049525Y0177833D01*
X0049704Y0176118D02*
X0047224Y0173639D01*
X0047224Y0170133D01*
X0049704Y0167654D01*
X0053210Y0167654D01*
X0055689Y0170133D01*
X0055689Y0173639D01*
X0053210Y0176118D01*
X0049704Y0176118D01*
X0049453Y0175867D02*
X0046437Y0175867D01*
X0046437Y0174884D02*
X0048470Y0174884D01*
X0047487Y0173901D02*
X0046437Y0173901D01*
X0046437Y0172919D02*
X0047224Y0172919D01*
X0047224Y0171936D02*
X0046437Y0171936D01*
X0046437Y0170953D02*
X0047224Y0170953D01*
X0047387Y0169970D02*
X0046437Y0169970D01*
X0046437Y0168988D02*
X0048369Y0168988D01*
X0049352Y0168005D02*
X0046437Y0168005D01*
X0046437Y0167022D02*
X0070354Y0167022D01*
X0070354Y0166039D02*
X0053288Y0166039D01*
X0053210Y0166118D02*
X0049704Y0166118D01*
X0047224Y0163639D01*
X0047224Y0160133D01*
X0049704Y0157654D01*
X0053210Y0157654D01*
X0055689Y0160133D01*
X0055689Y0163639D01*
X0053210Y0166118D01*
X0054271Y0165057D02*
X0070354Y0165057D01*
X0070354Y0164974D02*
X0071277Y0164051D01*
X0072581Y0164051D01*
X0072618Y0164088D01*
X0072618Y0163168D01*
X0072993Y0162264D01*
X0073685Y0161571D01*
X0074589Y0161197D01*
X0075568Y0161197D01*
X0076473Y0161571D01*
X0077165Y0162264D01*
X0077539Y0163168D01*
X0077539Y0164702D01*
X0077736Y0164899D01*
X0077736Y0168715D01*
X0077539Y0168912D01*
X0077539Y0172808D01*
X0077165Y0173713D01*
X0077146Y0173732D01*
X0077146Y0174817D01*
X0076396Y0175567D01*
X0070612Y0175567D01*
X0069862Y0174817D01*
X0069862Y0171001D01*
X0070612Y0170252D01*
X0072618Y0170252D01*
X0072618Y0169920D01*
X0072581Y0169957D01*
X0071277Y0169957D01*
X0070354Y0169034D01*
X0070354Y0164974D01*
X0071254Y0164074D02*
X0055254Y0164074D01*
X0055689Y0163091D02*
X0072650Y0163091D01*
X0072618Y0164074D02*
X0072604Y0164074D01*
X0073148Y0162108D02*
X0055689Y0162108D01*
X0055689Y0161126D02*
X0085906Y0161126D01*
X0085906Y0160454D02*
X0079758Y0154307D01*
X0072580Y0154307D01*
X0071831Y0153558D01*
X0071831Y0140687D01*
X0072580Y0139937D01*
X0081514Y0139937D01*
X0082264Y0140687D01*
X0082264Y0151802D01*
X0087677Y0157215D01*
X0087677Y0147257D01*
X0088600Y0146335D01*
X0089904Y0146335D01*
X0090827Y0147257D01*
X0090827Y0149878D01*
X0092402Y0149878D01*
X0092402Y0147257D01*
X0093324Y0146335D01*
X0094629Y0146335D01*
X0095551Y0147257D01*
X0095551Y0153323D01*
X0095846Y0153323D01*
X0095846Y0148167D01*
X0096596Y0147417D01*
X0100412Y0147417D01*
X0101161Y0148167D01*
X0101161Y0153478D01*
X0101555Y0154428D01*
X0101555Y0155564D01*
X0101256Y0156285D01*
X0101755Y0156079D01*
X0102734Y0156079D01*
X0103638Y0156453D01*
X0103952Y0156768D01*
X0105340Y0156768D01*
X0107559Y0158987D01*
X0107559Y0154701D01*
X0104076Y0154701D01*
X0103327Y0153951D01*
X0103327Y0148167D01*
X0104076Y0147417D01*
X0107892Y0147417D01*
X0108642Y0148167D01*
X0108642Y0150817D01*
X0113169Y0146290D01*
X0113169Y0145845D01*
X0113544Y0144941D01*
X0114236Y0144249D01*
X0115140Y0143874D01*
X0116119Y0143874D01*
X0117008Y0144242D01*
X0117008Y0141557D01*
X0097323Y0121872D01*
X0097323Y0117497D01*
X0094468Y0120352D01*
X0094468Y0132161D01*
X0094629Y0132161D01*
X0095318Y0132850D01*
X0098875Y0132850D01*
X0099924Y0133285D01*
X0100572Y0133933D01*
X0105340Y0133933D01*
X0106378Y0134971D01*
X0107559Y0136152D01*
X0107559Y0137181D01*
X0107892Y0137181D01*
X0108642Y0137931D01*
X0108642Y0143715D01*
X0107892Y0144465D01*
X0104076Y0144465D01*
X0103978Y0144366D01*
X0103167Y0144366D01*
X0102244Y0143444D01*
X0101322Y0144366D01*
X0100510Y0144366D01*
X0100412Y0144465D01*
X0096596Y0144465D01*
X0095846Y0143715D01*
X0095846Y0140963D01*
X0095551Y0140250D01*
X0095551Y0144625D01*
X0094629Y0145547D01*
X0093324Y0145547D01*
X0092402Y0144625D01*
X0092402Y0142004D01*
X0090827Y0142004D01*
X0090827Y0144625D01*
X0089904Y0145547D01*
X0088600Y0145547D01*
X0087677Y0144625D01*
X0087677Y0133084D01*
X0088600Y0132161D01*
X0088760Y0132161D01*
X0088760Y0118602D01*
X0089194Y0117552D01*
X0092697Y0114050D01*
X0092697Y0113982D01*
X0094272Y0112408D01*
X0094272Y0105057D01*
X0095021Y0104307D01*
X0105333Y0104307D01*
X0106083Y0105057D01*
X0106083Y0111628D01*
X0105333Y0112378D01*
X0103228Y0112378D01*
X0103228Y0112817D01*
X0102835Y0113210D01*
X0102835Y0120010D01*
X0120808Y0137983D01*
X0121024Y0137460D01*
X0121339Y0137146D01*
X0121339Y0121979D01*
X0127495Y0115823D01*
X0141874Y0115823D01*
X0142189Y0115508D01*
X0143093Y0115134D01*
X0144072Y0115134D01*
X0144977Y0115508D01*
X0145669Y0116201D01*
X0146043Y0117105D01*
X0146043Y0118084D01*
X0145669Y0118988D01*
X0144977Y0119680D01*
X0144072Y0120055D01*
X0143093Y0120055D01*
X0142189Y0119680D01*
X0141874Y0119366D01*
X0128962Y0119366D01*
X0124882Y0123446D01*
X0124882Y0132063D01*
X0128561Y0132063D01*
X0129311Y0132813D01*
X0129311Y0137810D01*
X0128561Y0138559D01*
X0128425Y0138559D01*
X0128425Y0141512D01*
X0132105Y0141512D01*
X0132756Y0142163D01*
X0132756Y0137807D01*
X0132442Y0137492D01*
X0132067Y0136588D01*
X0132067Y0135609D01*
X0132442Y0134705D01*
X0133134Y0134012D01*
X0134038Y0133638D01*
X0135017Y0133638D01*
X0135512Y0133843D01*
X0135512Y0133047D01*
X0135219Y0133047D01*
X0134315Y0132673D01*
X0133623Y0131980D01*
X0133248Y0131076D01*
X0133248Y0130097D01*
X0133623Y0129193D01*
X0134315Y0128501D01*
X0134705Y0128339D01*
X0134016Y0127650D01*
X0133642Y0126745D01*
X0133642Y0125766D01*
X0134016Y0124862D01*
X0134709Y0124170D01*
X0135613Y0123795D01*
X0136592Y0123795D01*
X0137496Y0124170D01*
X0138188Y0124862D01*
X0138563Y0125766D01*
X0138563Y0126211D01*
X0141614Y0129262D01*
X0142061Y0128815D01*
X0147231Y0123645D01*
X0147224Y0123639D01*
X0147224Y0120133D01*
X0149704Y0117654D01*
X0153210Y0117654D01*
X0155689Y0120133D01*
X0155689Y0120832D02*
X0156476Y0120832D01*
X0156476Y0121815D02*
X0155689Y0121815D01*
X0155689Y0122798D02*
X0156476Y0122798D01*
X0156476Y0123781D02*
X0155547Y0123781D01*
X0156476Y0124763D02*
X0154565Y0124763D01*
X0153582Y0125746D02*
X0156476Y0125746D01*
X0156476Y0126729D02*
X0149159Y0126729D01*
X0149646Y0127712D02*
X0148176Y0127712D01*
X0148663Y0128694D02*
X0147193Y0128694D01*
X0147680Y0129677D02*
X0146210Y0129677D01*
X0145227Y0130660D02*
X0147224Y0130660D01*
X0147224Y0131643D02*
X0144567Y0131643D01*
X0144567Y0132625D02*
X0147224Y0132625D01*
X0147111Y0133608D02*
X0144567Y0133608D01*
X0144567Y0134591D02*
X0146128Y0134591D01*
X0145145Y0135574D02*
X0144567Y0135574D01*
X0144817Y0135902D02*
X0144817Y0135902D01*
X0145551Y0137673D02*
X0145551Y0144760D01*
X0141220Y0149091D01*
X0141220Y0171138D01*
X0135315Y0177043D01*
X0135315Y0198697D01*
X0134921Y0199091D01*
X0134921Y0203421D01*
X0113268Y0225075D01*
X0108543Y0225075D01*
X0107362Y0226256D01*
X0110118Y0227043D02*
X0114055Y0227043D01*
X0137283Y0203815D01*
X0137283Y0177831D01*
X0143189Y0171925D01*
X0143189Y0150272D01*
X0151457Y0142004D01*
X0151457Y0141886D01*
X0155689Y0141470D02*
X0156476Y0141470D01*
X0156476Y0140488D02*
X0155689Y0140488D01*
X0155061Y0139505D02*
X0156476Y0139505D01*
X0156476Y0138522D02*
X0154078Y0138522D01*
X0156476Y0137539D02*
X0148191Y0137539D01*
X0148835Y0138522D02*
X0147323Y0138522D01*
X0147323Y0139505D02*
X0147852Y0139505D01*
X0145551Y0137673D02*
X0151339Y0131886D01*
X0151457Y0131886D01*
X0151457Y0132161D01*
X0154737Y0134591D02*
X0156476Y0134591D01*
X0156476Y0135574D02*
X0153754Y0135574D01*
X0155689Y0133608D02*
X0156476Y0133608D01*
X0156476Y0132625D02*
X0155689Y0132625D01*
X0155689Y0131643D02*
X0156476Y0131643D01*
X0156476Y0130660D02*
X0155689Y0130660D01*
X0155233Y0129677D02*
X0156476Y0129677D01*
X0156476Y0128694D02*
X0154251Y0128694D01*
X0153268Y0127712D02*
X0156476Y0127712D01*
X0147096Y0123781D02*
X0124882Y0123781D01*
X0124882Y0124763D02*
X0134115Y0124763D01*
X0133650Y0125746D02*
X0124882Y0125746D01*
X0124882Y0126729D02*
X0133642Y0126729D01*
X0134078Y0127712D02*
X0124882Y0127712D01*
X0124882Y0128694D02*
X0134121Y0128694D01*
X0133422Y0129677D02*
X0124882Y0129677D01*
X0124882Y0130660D02*
X0133248Y0130660D01*
X0133483Y0131643D02*
X0124882Y0131643D01*
X0121339Y0131643D02*
X0114467Y0131643D01*
X0115450Y0132625D02*
X0121339Y0132625D01*
X0121339Y0133608D02*
X0116433Y0133608D01*
X0117415Y0134591D02*
X0121339Y0134591D01*
X0121339Y0135574D02*
X0118398Y0135574D01*
X0119381Y0136556D02*
X0121339Y0136556D01*
X0120992Y0137539D02*
X0120364Y0137539D01*
X0120354Y0140035D02*
X0101063Y0120744D01*
X0101063Y0112476D01*
X0101457Y0112083D01*
X0101457Y0108343D01*
X0098898Y0108343D02*
X0098898Y0112280D01*
X0099094Y0112476D01*
X0099094Y0121138D01*
X0118780Y0140823D01*
X0118780Y0154996D01*
X0117205Y0156571D01*
X0117008Y0153913D02*
X0117008Y0148427D01*
X0116119Y0148795D01*
X0115675Y0148795D01*
X0111102Y0153368D01*
X0111102Y0153421D01*
X0111558Y0153421D01*
X0112480Y0154344D01*
X0113403Y0153421D01*
X0114707Y0153421D01*
X0115248Y0153962D01*
X0115297Y0153913D01*
X0117008Y0153913D01*
X0117008Y0153263D02*
X0111207Y0153263D01*
X0112189Y0152281D02*
X0117008Y0152281D01*
X0117008Y0151298D02*
X0113172Y0151298D01*
X0114155Y0150315D02*
X0117008Y0150315D01*
X0117008Y0149332D02*
X0115138Y0149332D01*
X0115630Y0146335D02*
X0109331Y0152634D01*
X0109331Y0164051D01*
X0116417Y0171138D01*
X0116417Y0173894D01*
X0116614Y0174091D01*
X0116614Y0176453D01*
X0114646Y0176453D02*
X0114646Y0173697D01*
X0114055Y0173106D01*
X0114055Y0171138D01*
X0106969Y0164051D01*
X0106969Y0160902D01*
X0104606Y0158539D01*
X0102244Y0158539D01*
X0101358Y0160836D02*
X0100850Y0160625D01*
X0100158Y0159933D01*
X0099783Y0159029D01*
X0099783Y0158050D01*
X0099854Y0157879D01*
X0099137Y0158597D01*
X0098087Y0159031D01*
X0094924Y0159031D01*
X0094629Y0159327D01*
X0094468Y0159327D01*
X0094468Y0163263D01*
X0095215Y0164009D01*
X0095650Y0165058D01*
X0095650Y0166194D01*
X0095215Y0167243D01*
X0094412Y0168046D01*
X0093363Y0168480D01*
X0089865Y0168480D01*
X0089449Y0168308D01*
X0089449Y0170154D01*
X0090138Y0170154D01*
X0090138Y0170017D01*
X0090887Y0169268D01*
X0094703Y0169268D01*
X0095157Y0169722D01*
X0095612Y0169268D01*
X0099428Y0169268D01*
X0099624Y0169465D01*
X0100730Y0169465D01*
X0100374Y0169109D01*
X0100374Y0165293D01*
X0101124Y0164543D01*
X0103228Y0164543D01*
X0103228Y0163714D01*
X0102425Y0163381D01*
X0101733Y0162689D01*
X0101358Y0161785D01*
X0101358Y0160836D01*
X0101358Y0161126D02*
X0094468Y0161126D01*
X0094468Y0162108D02*
X0101492Y0162108D01*
X0102135Y0163091D02*
X0094468Y0163091D01*
X0095242Y0164074D02*
X0103228Y0164074D01*
X0105000Y0164445D02*
X0105000Y0162476D01*
X0103819Y0161295D01*
X0105000Y0164445D02*
X0112480Y0171925D01*
X0112480Y0174287D01*
X0112677Y0174484D01*
X0112677Y0176453D01*
X0110709Y0176453D02*
X0110709Y0174878D01*
X0107756Y0171925D01*
X0103031Y0167201D01*
X0100374Y0167022D02*
X0095306Y0167022D01*
X0095650Y0166039D02*
X0100374Y0166039D01*
X0100610Y0165057D02*
X0095649Y0165057D01*
X0094453Y0168005D02*
X0100374Y0168005D01*
X0100374Y0168988D02*
X0089449Y0168988D01*
X0089449Y0169970D02*
X0090185Y0169970D01*
X0088465Y0171925D02*
X0087677Y0172713D01*
X0086890Y0172713D01*
X0087677Y0173500D01*
X0087677Y0175862D01*
X0086890Y0176650D01*
X0083740Y0176650D01*
X0084134Y0180193D02*
X0087677Y0180193D01*
X0087677Y0180587D02*
X0084134Y0180587D01*
X0083937Y0180390D01*
X0083740Y0180390D01*
X0084134Y0180390D02*
X0084134Y0180193D01*
X0086952Y0180390D02*
X0087677Y0181115D01*
X0087677Y0182420D01*
X0087484Y0182613D01*
X0089198Y0184327D01*
X0092402Y0184327D01*
X0092402Y0184265D01*
X0093324Y0183343D01*
X0095551Y0183343D01*
X0095551Y0183343D01*
X0093324Y0183343D01*
X0092402Y0182420D01*
X0092402Y0181115D01*
X0093324Y0180193D01*
X0097778Y0180193D01*
X0097815Y0180230D01*
X0097815Y0179703D01*
X0098020Y0179209D01*
X0092852Y0179209D01*
X0092519Y0180012D01*
X0091827Y0180704D01*
X0090923Y0181079D01*
X0089944Y0181079D01*
X0089039Y0180704D01*
X0088347Y0180012D01*
X0087972Y0179108D01*
X0087972Y0178129D01*
X0088012Y0178033D01*
X0087677Y0178368D01*
X0087677Y0179664D01*
X0086952Y0180390D01*
X0087343Y0180781D02*
X0089224Y0180781D01*
X0088258Y0179798D02*
X0087543Y0179798D01*
X0087677Y0178815D02*
X0087972Y0178815D01*
X0090433Y0178618D02*
X0091614Y0177437D01*
X0101457Y0177437D01*
X0103425Y0179406D01*
X0103425Y0180980D01*
X0104409Y0181965D01*
X0107165Y0181965D01*
X0107165Y0183933D02*
X0102835Y0183933D01*
X0102638Y0183736D01*
X0103228Y0185902D02*
X0103031Y0186098D01*
X0088465Y0186098D01*
X0085709Y0183343D01*
X0076260Y0183343D01*
X0072520Y0187083D01*
X0066220Y0187083D01*
X0065236Y0188067D01*
X0065236Y0192398D02*
X0065236Y0194625D01*
X0064314Y0195547D01*
X0063009Y0195547D01*
X0062283Y0194822D01*
X0062283Y0209289D01*
X0062344Y0209228D01*
X0069522Y0209228D01*
X0073951Y0204799D01*
X0085762Y0204799D01*
X0087874Y0202687D01*
X0087874Y0194813D01*
X0088912Y0193776D01*
X0089744Y0192943D01*
X0089744Y0190883D01*
X0090494Y0190134D01*
X0092554Y0190134D01*
X0093243Y0189445D01*
X0089198Y0189445D01*
X0086791Y0191852D01*
X0086791Y0197734D01*
X0085926Y0198598D01*
X0084035Y0198598D01*
X0084035Y0202180D01*
X0083286Y0202929D01*
X0079470Y0202929D01*
X0079421Y0202880D01*
X0078881Y0203421D01*
X0074820Y0203421D01*
X0073898Y0202499D01*
X0073898Y0201194D01*
X0074820Y0200272D01*
X0076654Y0200272D01*
X0076654Y0200272D01*
X0074820Y0200272D01*
X0073898Y0199349D01*
X0073898Y0198045D01*
X0074102Y0197840D01*
X0073996Y0197734D01*
X0073996Y0192693D01*
X0068386Y0192693D01*
X0068386Y0194625D01*
X0067463Y0195547D01*
X0066159Y0195547D01*
X0065236Y0194625D01*
X0065236Y0192398D01*
X0065236Y0192398D01*
X0065236Y0192574D02*
X0065236Y0192574D01*
X0065236Y0193557D02*
X0065236Y0193557D01*
X0065236Y0194540D02*
X0065236Y0194540D01*
X0064339Y0195522D02*
X0066134Y0195522D01*
X0067488Y0195522D02*
X0073996Y0195522D01*
X0073996Y0194540D02*
X0068386Y0194540D01*
X0068386Y0193557D02*
X0073996Y0193557D01*
X0072913Y0193776D02*
X0075079Y0191610D01*
X0079016Y0189248D01*
X0081181Y0187083D01*
X0081575Y0187083D01*
X0082362Y0193776D02*
X0088465Y0187673D01*
X0103031Y0187673D01*
X0103228Y0187870D01*
X0107165Y0187870D01*
X0107165Y0185902D02*
X0103228Y0185902D01*
X0103228Y0189839D02*
X0103031Y0190035D01*
X0095157Y0190035D01*
X0092402Y0192791D01*
X0089646Y0195547D01*
X0089646Y0203421D01*
X0086496Y0206571D01*
X0074685Y0206571D01*
X0066811Y0214445D01*
X0066811Y0216413D01*
X0072028Y0216160D02*
X0081280Y0216160D01*
X0081280Y0215178D02*
X0072028Y0215178D01*
X0072028Y0214195D02*
X0081280Y0214195D01*
X0081280Y0213212D02*
X0072028Y0213212D01*
X0072028Y0212229D02*
X0081280Y0212229D01*
X0081280Y0211246D02*
X0072515Y0211246D01*
X0073498Y0210264D02*
X0081280Y0210264D01*
X0081976Y0209281D02*
X0074480Y0209281D01*
X0072418Y0206333D02*
X0062283Y0206333D01*
X0062283Y0207315D02*
X0071435Y0207315D01*
X0070452Y0208298D02*
X0062283Y0208298D01*
X0062283Y0209281D02*
X0062291Y0209281D01*
X0058740Y0209281D02*
X0054837Y0209281D01*
X0055689Y0210133D02*
X0053210Y0207654D01*
X0049704Y0207654D01*
X0047224Y0210133D01*
X0047224Y0213639D01*
X0049704Y0216118D01*
X0053210Y0216118D01*
X0055689Y0213639D01*
X0055689Y0210133D01*
X0055689Y0210264D02*
X0058740Y0210264D01*
X0058740Y0211246D02*
X0055689Y0211246D01*
X0055689Y0212229D02*
X0058740Y0212229D01*
X0058740Y0213212D02*
X0055689Y0213212D01*
X0055133Y0214195D02*
X0058740Y0214195D01*
X0058740Y0215178D02*
X0054150Y0215178D01*
X0053210Y0217654D02*
X0055689Y0220133D01*
X0055689Y0223639D01*
X0053210Y0226118D01*
X0049704Y0226118D01*
X0047224Y0223639D01*
X0047224Y0220133D01*
X0049704Y0217654D01*
X0053210Y0217654D01*
X0053682Y0218126D02*
X0058740Y0218126D01*
X0058740Y0219109D02*
X0054665Y0219109D01*
X0055648Y0220091D02*
X0058740Y0220091D01*
X0058740Y0221074D02*
X0055689Y0221074D01*
X0055689Y0222057D02*
X0058740Y0222057D01*
X0058740Y0223040D02*
X0055689Y0223040D01*
X0055305Y0224022D02*
X0058740Y0224022D01*
X0058740Y0225005D02*
X0054323Y0225005D01*
X0053340Y0225988D02*
X0058740Y0225988D01*
X0058740Y0226971D02*
X0046437Y0226971D01*
X0046437Y0227953D02*
X0049404Y0227953D01*
X0049704Y0227654D02*
X0053210Y0227654D01*
X0055689Y0230133D01*
X0055689Y0233639D01*
X0053210Y0236118D01*
X0049704Y0236118D01*
X0047224Y0233639D01*
X0047224Y0230133D01*
X0049704Y0227654D01*
X0049573Y0225988D02*
X0046437Y0225988D01*
X0046437Y0225005D02*
X0048591Y0225005D01*
X0047608Y0224022D02*
X0046437Y0224022D01*
X0046437Y0223040D02*
X0047224Y0223040D01*
X0047224Y0222057D02*
X0046437Y0222057D01*
X0046437Y0221074D02*
X0047224Y0221074D01*
X0047266Y0220091D02*
X0046437Y0220091D01*
X0046437Y0219109D02*
X0048249Y0219109D01*
X0049231Y0218126D02*
X0046437Y0218126D01*
X0046437Y0217143D02*
X0058740Y0217143D01*
X0058740Y0216160D02*
X0046437Y0216160D01*
X0046437Y0215178D02*
X0048763Y0215178D01*
X0047780Y0214195D02*
X0046437Y0214195D01*
X0046437Y0213212D02*
X0047224Y0213212D01*
X0047224Y0212229D02*
X0046437Y0212229D01*
X0046437Y0211246D02*
X0047224Y0211246D01*
X0047224Y0210264D02*
X0046437Y0210264D01*
X0046437Y0209281D02*
X0048076Y0209281D01*
X0049059Y0208298D02*
X0046437Y0208298D01*
X0046437Y0207315D02*
X0058740Y0207315D01*
X0058740Y0206333D02*
X0046437Y0206333D01*
X0046437Y0205350D02*
X0048935Y0205350D01*
X0049704Y0206118D02*
X0047224Y0203639D01*
X0047224Y0200133D01*
X0049704Y0197654D01*
X0053210Y0197654D01*
X0055689Y0200133D01*
X0055689Y0203639D01*
X0053210Y0206118D01*
X0049704Y0206118D01*
X0047953Y0204367D02*
X0046437Y0204367D01*
X0046437Y0203384D02*
X0047224Y0203384D01*
X0047224Y0202402D02*
X0046437Y0202402D01*
X0046437Y0201419D02*
X0047224Y0201419D01*
X0047224Y0200436D02*
X0046437Y0200436D01*
X0046437Y0199453D02*
X0047904Y0199453D01*
X0048887Y0198471D02*
X0046437Y0198471D01*
X0046437Y0197488D02*
X0058740Y0197488D01*
X0058740Y0198471D02*
X0054027Y0198471D01*
X0055010Y0199453D02*
X0058740Y0199453D01*
X0058740Y0200436D02*
X0055689Y0200436D01*
X0055689Y0201419D02*
X0058740Y0201419D01*
X0058740Y0202402D02*
X0055689Y0202402D01*
X0055689Y0203384D02*
X0058740Y0203384D01*
X0058740Y0204367D02*
X0054961Y0204367D01*
X0053978Y0205350D02*
X0058740Y0205350D01*
X0058740Y0208298D02*
X0053854Y0208298D01*
X0062283Y0205350D02*
X0073400Y0205350D01*
X0074783Y0203384D02*
X0062283Y0203384D01*
X0062283Y0202402D02*
X0073898Y0202402D01*
X0073898Y0201419D02*
X0062283Y0201419D01*
X0062283Y0200436D02*
X0074656Y0200436D01*
X0074002Y0199453D02*
X0062283Y0199453D01*
X0062283Y0198471D02*
X0073898Y0198471D01*
X0073996Y0197488D02*
X0062283Y0197488D01*
X0062283Y0196505D02*
X0073996Y0196505D01*
X0072913Y0193776D02*
X0072520Y0193776D01*
X0062984Y0195522D02*
X0062283Y0195522D01*
X0058740Y0195522D02*
X0053806Y0195522D01*
X0053210Y0196118D02*
X0049704Y0196118D01*
X0047224Y0193639D01*
X0047224Y0190133D01*
X0049704Y0187654D01*
X0053210Y0187654D01*
X0055689Y0190133D01*
X0055689Y0193639D01*
X0053210Y0196118D01*
X0054788Y0194540D02*
X0058740Y0194540D01*
X0058740Y0193557D02*
X0055689Y0193557D01*
X0055689Y0192574D02*
X0058740Y0192574D01*
X0058740Y0191591D02*
X0055689Y0191591D01*
X0055689Y0190608D02*
X0058740Y0190608D01*
X0058740Y0189626D02*
X0055182Y0189626D01*
X0054199Y0188643D02*
X0058740Y0188643D01*
X0058740Y0187660D02*
X0053216Y0187660D01*
X0049697Y0187660D02*
X0046437Y0187660D01*
X0046437Y0188643D02*
X0048714Y0188643D01*
X0047731Y0189626D02*
X0046437Y0189626D01*
X0046437Y0190608D02*
X0047224Y0190608D01*
X0047224Y0191591D02*
X0046437Y0191591D01*
X0046437Y0192574D02*
X0047224Y0192574D01*
X0047224Y0193557D02*
X0046437Y0193557D01*
X0046437Y0194540D02*
X0048125Y0194540D01*
X0049108Y0195522D02*
X0046437Y0195522D01*
X0046437Y0196505D02*
X0058740Y0196505D01*
X0062283Y0204367D02*
X0086194Y0204367D01*
X0087177Y0203384D02*
X0078918Y0203384D01*
X0081378Y0200272D02*
X0081575Y0200075D01*
X0081575Y0193776D01*
X0082362Y0193776D01*
X0086791Y0193557D02*
X0089131Y0193557D01*
X0089744Y0192574D02*
X0086791Y0192574D01*
X0087052Y0191591D02*
X0089744Y0191591D01*
X0090019Y0190608D02*
X0088035Y0190608D01*
X0089018Y0189626D02*
X0093062Y0189626D01*
X0095157Y0195547D02*
X0101457Y0195547D01*
X0102638Y0194366D01*
X0102638Y0192791D01*
X0103622Y0191807D01*
X0107165Y0191807D01*
X0107165Y0189839D02*
X0103228Y0189839D01*
X0107165Y0193776D02*
X0106969Y0193972D01*
X0106969Y0199484D01*
X0105394Y0201059D01*
X0095157Y0201059D01*
X0092402Y0203815D01*
X0092402Y0208539D01*
X0086496Y0214445D01*
X0086496Y0216413D01*
X0091713Y0216160D02*
X0095256Y0216160D01*
X0095256Y0215178D02*
X0091713Y0215178D01*
X0091713Y0214195D02*
X0095960Y0214195D01*
X0096142Y0213212D02*
X0091713Y0213212D01*
X0091713Y0212229D02*
X0096442Y0212229D01*
X0097425Y0211246D02*
X0092200Y0211246D01*
X0093183Y0210264D02*
X0098408Y0210264D01*
X0099391Y0209281D02*
X0094165Y0209281D01*
X0094173Y0208298D02*
X0100373Y0208298D01*
X0101356Y0207315D02*
X0094173Y0207315D01*
X0094449Y0206333D02*
X0095078Y0206333D01*
X0099174Y0206333D02*
X0102339Y0206333D01*
X0102220Y0205350D02*
X0103322Y0205350D01*
X0102710Y0204367D02*
X0104305Y0204367D01*
X0105287Y0203384D02*
X0102736Y0203384D01*
X0108140Y0208298D02*
X0109232Y0208298D01*
X0109232Y0207315D02*
X0109123Y0207315D01*
X0109232Y0209281D02*
X0107158Y0209281D01*
X0106175Y0210264D02*
X0109232Y0210264D01*
X0109232Y0211246D02*
X0105192Y0211246D01*
X0104409Y0212229D02*
X0109232Y0212229D01*
X0109232Y0213212D02*
X0104409Y0213212D01*
X0104591Y0214195D02*
X0109232Y0214195D01*
X0109232Y0215178D02*
X0105295Y0215178D01*
X0105295Y0216160D02*
X0109232Y0216160D01*
X0109495Y0217143D02*
X0105295Y0217143D01*
X0105295Y0218126D02*
X0110348Y0218126D01*
X0112990Y0220091D02*
X0105295Y0220091D01*
X0105295Y0221074D02*
X0112007Y0221074D01*
X0112480Y0223106D02*
X0106969Y0223106D01*
X0104213Y0225862D01*
X0104213Y0229012D01*
X0104213Y0232949D02*
X0110118Y0227043D01*
X0110512Y0229012D02*
X0114843Y0229012D01*
X0139252Y0204602D01*
X0139252Y0178618D01*
X0145157Y0172713D01*
X0145157Y0158185D01*
X0151457Y0151886D01*
X0155689Y0152281D02*
X0156476Y0152281D01*
X0156476Y0153263D02*
X0155689Y0153263D01*
X0155082Y0154246D02*
X0156476Y0154246D01*
X0156476Y0155229D02*
X0154099Y0155229D01*
X0156476Y0156212D02*
X0149636Y0156212D01*
X0148653Y0157195D02*
X0156476Y0157195D01*
X0156476Y0158177D02*
X0153733Y0158177D01*
X0154716Y0159160D02*
X0156476Y0159160D01*
X0156476Y0160143D02*
X0155689Y0160143D01*
X0155689Y0161126D02*
X0156476Y0161126D01*
X0156476Y0162108D02*
X0155689Y0162108D01*
X0155689Y0163091D02*
X0156476Y0163091D01*
X0156476Y0164074D02*
X0155254Y0164074D01*
X0154271Y0165057D02*
X0156476Y0165057D01*
X0156476Y0166039D02*
X0153288Y0166039D01*
X0153561Y0168005D02*
X0156476Y0168005D01*
X0156476Y0168988D02*
X0154544Y0168988D01*
X0155527Y0169970D02*
X0156476Y0169970D01*
X0156476Y0170953D02*
X0155689Y0170953D01*
X0155689Y0171936D02*
X0156476Y0171936D01*
X0156476Y0172919D02*
X0155689Y0172919D01*
X0155426Y0173901D02*
X0156476Y0173901D01*
X0156476Y0174884D02*
X0154444Y0174884D01*
X0153461Y0175867D02*
X0156476Y0175867D01*
X0156476Y0176850D02*
X0148998Y0176850D01*
X0149525Y0177833D02*
X0148015Y0177833D01*
X0148542Y0178815D02*
X0147033Y0178815D01*
X0147559Y0179798D02*
X0146050Y0179798D01*
X0145067Y0180781D02*
X0147224Y0180781D01*
X0147224Y0181764D02*
X0144961Y0181764D01*
X0144961Y0182746D02*
X0147224Y0182746D01*
X0147108Y0183729D02*
X0144961Y0183729D01*
X0144961Y0184712D02*
X0146125Y0184712D01*
X0145142Y0185695D02*
X0144961Y0185695D01*
X0145157Y0188185D02*
X0145157Y0206965D01*
X0117205Y0234917D01*
X0112874Y0234917D01*
X0093780Y0254012D01*
X0093780Y0258146D01*
X0091909Y0258419D02*
X0088620Y0258419D01*
X0088582Y0258327D02*
X0088752Y0258736D01*
X0091750Y0258736D01*
X0091909Y0258895D01*
X0091909Y0256435D01*
X0092008Y0256336D01*
X0092008Y0253278D01*
X0092061Y0253224D01*
X0089592Y0253224D01*
X0085905Y0256911D01*
X0085905Y0257302D01*
X0086007Y0257260D01*
X0086986Y0257260D01*
X0087890Y0257634D01*
X0088582Y0258327D01*
X0087412Y0257436D02*
X0091909Y0257436D01*
X0091909Y0256454D02*
X0086363Y0256454D01*
X0087346Y0255471D02*
X0092008Y0255471D01*
X0092008Y0254488D02*
X0088328Y0254488D01*
X0089311Y0253505D02*
X0092008Y0253505D01*
X0093583Y0251453D02*
X0112087Y0232949D01*
X0116417Y0232949D01*
X0143189Y0206177D01*
X0143189Y0180154D01*
X0151457Y0171886D01*
X0149352Y0168005D02*
X0148898Y0168005D01*
X0148898Y0167022D02*
X0156476Y0167022D01*
X0151457Y0161886D02*
X0147126Y0166217D01*
X0147126Y0173500D01*
X0141220Y0179406D01*
X0141220Y0205390D01*
X0115630Y0230980D01*
X0111299Y0230980D01*
X0101457Y0240823D01*
X0100669Y0240823D01*
X0100276Y0240429D01*
X0100276Y0240823D01*
X0100669Y0240823D01*
X0100276Y0240823D02*
X0100276Y0242004D01*
X0092795Y0249484D01*
X0087677Y0249484D01*
X0082165Y0254996D01*
X0082165Y0261689D01*
X0086201Y0265724D01*
X0090039Y0265724D01*
X0090039Y0263165D02*
X0086398Y0263165D01*
X0084134Y0260902D01*
X0084134Y0256177D01*
X0088858Y0251453D01*
X0093583Y0251453D01*
X0096339Y0254209D02*
X0113661Y0236886D01*
X0117992Y0236886D01*
X0147126Y0207752D01*
X0147126Y0196217D01*
X0151457Y0191886D01*
X0155689Y0191591D02*
X0156476Y0191591D01*
X0156476Y0190608D02*
X0155689Y0190608D01*
X0155182Y0189626D02*
X0156476Y0189626D01*
X0156476Y0188643D02*
X0154199Y0188643D01*
X0153216Y0187660D02*
X0156476Y0187660D01*
X0156476Y0186677D02*
X0149171Y0186677D01*
X0149697Y0187660D02*
X0148188Y0187660D01*
X0148714Y0188643D02*
X0147205Y0188643D01*
X0146929Y0189626D02*
X0147731Y0189626D01*
X0147224Y0190608D02*
X0146929Y0190608D01*
X0146929Y0191591D02*
X0147224Y0191591D01*
X0147224Y0192574D02*
X0146929Y0192574D01*
X0146929Y0193557D02*
X0147224Y0193557D01*
X0149343Y0196505D02*
X0156476Y0196505D01*
X0156476Y0195522D02*
X0153806Y0195522D01*
X0154788Y0194540D02*
X0156476Y0194540D01*
X0156476Y0193557D02*
X0155689Y0193557D01*
X0155689Y0192574D02*
X0156476Y0192574D01*
X0156476Y0197488D02*
X0148898Y0197488D01*
X0151457Y0201886D02*
X0151457Y0205783D01*
X0118386Y0238854D01*
X0114449Y0238854D01*
X0098898Y0254406D01*
X0098898Y0258146D01*
X0101457Y0258146D02*
X0101457Y0255390D01*
X0102244Y0254602D01*
X0104548Y0255471D02*
X0107264Y0255471D01*
X0107264Y0256454D02*
X0105886Y0256454D01*
X0105886Y0257436D02*
X0107264Y0257436D01*
X0107264Y0258419D02*
X0105886Y0258419D01*
X0106575Y0258146D02*
X0106575Y0262969D01*
X0105394Y0262969D01*
X0105456Y0262350D02*
X0106870Y0262350D01*
X0106870Y0261367D02*
X0106126Y0261367D01*
X0106969Y0260902D02*
X0106575Y0260508D01*
X0106280Y0260385D02*
X0107045Y0260385D01*
X0107264Y0259402D02*
X0106024Y0259402D01*
X0104016Y0260311D02*
X0103819Y0260508D01*
X0104016Y0260311D02*
X0104016Y0258146D01*
X0104705Y0254488D02*
X0107934Y0254488D01*
X0108150Y0253505D02*
X0104453Y0253505D01*
X0103644Y0252523D02*
X0108150Y0252523D01*
X0108150Y0251540D02*
X0104269Y0251540D01*
X0105252Y0250557D02*
X0108150Y0250557D01*
X0108445Y0249574D02*
X0106234Y0249574D01*
X0107217Y0248591D02*
X0108445Y0248591D01*
X0108200Y0247609D02*
X0108693Y0247609D01*
X0109183Y0246626D02*
X0109497Y0246626D01*
X0110165Y0245643D02*
X0143386Y0245643D01*
X0143386Y0244660D02*
X0111148Y0244660D01*
X0112131Y0243678D02*
X0143386Y0243678D01*
X0143386Y0242695D02*
X0113114Y0242695D01*
X0114096Y0241712D02*
X0143386Y0241712D01*
X0143386Y0240729D02*
X0115079Y0240729D01*
X0119999Y0239747D02*
X0143386Y0239747D01*
X0143386Y0238764D02*
X0120982Y0238764D01*
X0121965Y0237781D02*
X0143386Y0237781D01*
X0143386Y0236798D02*
X0122947Y0236798D01*
X0123930Y0235816D02*
X0143386Y0235816D01*
X0143386Y0234833D02*
X0124913Y0234833D01*
X0125896Y0233850D02*
X0143386Y0233850D01*
X0143386Y0232867D02*
X0126878Y0232867D01*
X0127861Y0231885D02*
X0143386Y0231885D01*
X0143386Y0230902D02*
X0128844Y0230902D01*
X0129827Y0229919D02*
X0143386Y0229919D01*
X0143386Y0228936D02*
X0130809Y0228936D01*
X0131792Y0227953D02*
X0143386Y0227953D01*
X0143386Y0226971D02*
X0132775Y0226971D01*
X0133758Y0225988D02*
X0143386Y0225988D01*
X0143386Y0225005D02*
X0134740Y0225005D01*
X0135723Y0224022D02*
X0143386Y0224022D01*
X0143386Y0223040D02*
X0136706Y0223040D01*
X0137689Y0222057D02*
X0143386Y0222057D01*
X0143386Y0221074D02*
X0138672Y0221074D01*
X0139654Y0220091D02*
X0143386Y0220091D01*
X0143386Y0219109D02*
X0140637Y0219109D01*
X0141620Y0218126D02*
X0143386Y0218126D01*
X0143497Y0217143D02*
X0142603Y0217143D01*
X0143585Y0216160D02*
X0144480Y0216160D01*
X0144424Y0216217D02*
X0144424Y0216217D01*
X0144568Y0215178D02*
X0145463Y0215178D01*
X0145551Y0214195D02*
X0146445Y0214195D01*
X0146534Y0213212D02*
X0147224Y0213212D01*
X0149491Y0216160D02*
X0156476Y0216160D01*
X0156476Y0215178D02*
X0154150Y0215178D01*
X0155133Y0214195D02*
X0156476Y0214195D01*
X0156476Y0213212D02*
X0155689Y0213212D01*
X0155689Y0212229D02*
X0156476Y0212229D01*
X0156476Y0211246D02*
X0155689Y0211246D01*
X0155689Y0210264D02*
X0156476Y0210264D01*
X0156476Y0209281D02*
X0154837Y0209281D01*
X0153854Y0208298D02*
X0156476Y0208298D01*
X0156476Y0207315D02*
X0152430Y0207315D01*
X0153228Y0206333D02*
X0156476Y0206333D01*
X0156476Y0205350D02*
X0153978Y0205350D01*
X0154961Y0204367D02*
X0156476Y0204367D01*
X0156476Y0203384D02*
X0155689Y0203384D01*
X0155689Y0202402D02*
X0156476Y0202402D01*
X0156476Y0201419D02*
X0155689Y0201419D01*
X0155689Y0200436D02*
X0156476Y0200436D01*
X0156476Y0199453D02*
X0155010Y0199453D01*
X0154027Y0198471D02*
X0156476Y0198471D01*
X0145157Y0188185D02*
X0151457Y0181886D01*
X0154372Y0178815D02*
X0156476Y0178815D01*
X0156476Y0177833D02*
X0153389Y0177833D01*
X0155354Y0179798D02*
X0156476Y0179798D01*
X0156476Y0180781D02*
X0155689Y0180781D01*
X0155689Y0181764D02*
X0156476Y0181764D01*
X0156476Y0182746D02*
X0155689Y0182746D01*
X0155599Y0183729D02*
X0156476Y0183729D01*
X0156476Y0184712D02*
X0154616Y0184712D01*
X0153633Y0185695D02*
X0156476Y0185695D01*
X0137283Y0168776D02*
X0137283Y0146728D01*
X0140039Y0143972D01*
X0140039Y0130193D01*
X0136102Y0126256D01*
X0138090Y0124763D02*
X0146113Y0124763D01*
X0145130Y0125746D02*
X0138555Y0125746D01*
X0139081Y0126729D02*
X0144148Y0126729D01*
X0143165Y0127712D02*
X0140064Y0127712D01*
X0141046Y0128694D02*
X0142182Y0128694D01*
X0137283Y0132161D02*
X0135709Y0130587D01*
X0137283Y0132161D02*
X0137283Y0143579D01*
X0135315Y0145547D01*
X0135315Y0167201D01*
X0131378Y0171138D01*
X0131378Y0171531D01*
X0127835Y0175075D01*
X0127835Y0179799D01*
X0128031Y0179996D01*
X0128031Y0181965D02*
X0131181Y0181965D01*
X0131772Y0181374D01*
X0131772Y0174287D01*
X0134921Y0171138D01*
X0137283Y0168776D01*
X0133346Y0165626D02*
X0127835Y0171138D01*
X0127835Y0171531D01*
X0124488Y0174878D01*
X0124488Y0176453D01*
X0122520Y0176453D02*
X0122520Y0173303D01*
X0130984Y0164839D01*
X0130984Y0145547D01*
X0130197Y0144760D01*
X0133346Y0144366D02*
X0134528Y0143185D01*
X0134528Y0136098D01*
X0132555Y0134591D02*
X0129311Y0134591D01*
X0129311Y0135574D02*
X0132082Y0135574D01*
X0132067Y0136556D02*
X0129311Y0136556D01*
X0129311Y0137539D02*
X0132489Y0137539D01*
X0132756Y0138522D02*
X0128599Y0138522D01*
X0128425Y0139505D02*
X0132756Y0139505D01*
X0132756Y0140488D02*
X0128425Y0140488D01*
X0128425Y0141470D02*
X0132756Y0141470D01*
X0133346Y0144366D02*
X0133346Y0165626D01*
X0129213Y0164105D02*
X0129213Y0159388D01*
X0128881Y0159720D01*
X0126009Y0159720D01*
X0124587Y0161143D01*
X0124587Y0163203D01*
X0123837Y0163953D01*
X0122126Y0163953D01*
X0122126Y0171191D01*
X0129213Y0164105D01*
X0129213Y0164074D02*
X0122126Y0164074D01*
X0122126Y0165057D02*
X0128261Y0165057D01*
X0127278Y0166039D02*
X0122126Y0166039D01*
X0122126Y0167022D02*
X0126295Y0167022D01*
X0125312Y0168005D02*
X0122126Y0168005D01*
X0122126Y0168988D02*
X0124330Y0168988D01*
X0123347Y0169970D02*
X0122126Y0169970D01*
X0122126Y0170953D02*
X0122364Y0170953D01*
X0120354Y0173500D02*
X0120354Y0162870D01*
X0121929Y0161295D01*
X0126654Y0156571D01*
X0125587Y0160143D02*
X0129213Y0160143D01*
X0129213Y0161126D02*
X0124604Y0161126D01*
X0124587Y0162108D02*
X0129213Y0162108D01*
X0129213Y0163091D02*
X0124587Y0163091D01*
X0118780Y0162870D02*
X0117205Y0161295D01*
X0112480Y0161295D01*
X0107559Y0158177D02*
X0106750Y0158177D01*
X0107559Y0157195D02*
X0105767Y0157195D01*
X0107559Y0156212D02*
X0103055Y0156212D01*
X0101434Y0156212D02*
X0101287Y0156212D01*
X0101555Y0155229D02*
X0107559Y0155229D01*
X0103622Y0154246D02*
X0101480Y0154246D01*
X0101161Y0153263D02*
X0103327Y0153263D01*
X0103327Y0152281D02*
X0101161Y0152281D01*
X0101161Y0151298D02*
X0103327Y0151298D01*
X0103327Y0150315D02*
X0101161Y0150315D01*
X0101161Y0149332D02*
X0103327Y0149332D01*
X0103327Y0148350D02*
X0101161Y0148350D01*
X0100458Y0144419D02*
X0104030Y0144419D01*
X0102244Y0143444D02*
X0102244Y0140035D01*
X0102244Y0143444D01*
X0102244Y0143436D02*
X0102244Y0143436D01*
X0102244Y0142453D02*
X0102244Y0142453D01*
X0102244Y0141470D02*
X0102244Y0141470D01*
X0102244Y0140488D02*
X0102244Y0140488D01*
X0102244Y0140035D02*
X0102244Y0140035D01*
X0105787Y0140429D02*
X0105787Y0136886D01*
X0104606Y0135705D01*
X0098307Y0135705D01*
X0100247Y0133608D02*
X0109059Y0133608D01*
X0108077Y0132625D02*
X0095093Y0132625D01*
X0094468Y0131643D02*
X0107094Y0131643D01*
X0106111Y0130660D02*
X0094468Y0130660D01*
X0094468Y0129677D02*
X0105128Y0129677D01*
X0104146Y0128694D02*
X0094468Y0128694D01*
X0094468Y0127712D02*
X0103163Y0127712D01*
X0102180Y0126729D02*
X0094468Y0126729D01*
X0094468Y0125746D02*
X0101197Y0125746D01*
X0100215Y0124763D02*
X0094468Y0124763D01*
X0094468Y0123781D02*
X0099232Y0123781D01*
X0098249Y0122798D02*
X0094468Y0122798D01*
X0094468Y0121815D02*
X0097323Y0121815D01*
X0097323Y0120832D02*
X0094468Y0120832D01*
X0094971Y0119850D02*
X0097323Y0119850D01*
X0097323Y0118867D02*
X0095953Y0118867D01*
X0096936Y0117884D02*
X0097323Y0117884D01*
X0092726Y0113953D02*
X0066713Y0113953D01*
X0066713Y0113324D02*
X0066713Y0117140D01*
X0066258Y0117594D01*
X0066713Y0118049D01*
X0066713Y0121865D01*
X0066353Y0122224D01*
X0066516Y0122617D01*
X0066516Y0123596D01*
X0066141Y0124500D01*
X0065449Y0125192D01*
X0064545Y0125567D01*
X0063566Y0125567D01*
X0062661Y0125192D01*
X0061969Y0124500D01*
X0061693Y0123833D01*
X0061417Y0124500D01*
X0060725Y0125192D01*
X0059820Y0125567D01*
X0058841Y0125567D01*
X0057937Y0125192D01*
X0057245Y0124500D01*
X0056870Y0123596D01*
X0056870Y0122617D01*
X0057033Y0122224D01*
X0056673Y0121865D01*
X0056673Y0118049D01*
X0057127Y0117594D01*
X0056673Y0117140D01*
X0056673Y0115080D01*
X0055098Y0113505D01*
X0055098Y0113753D01*
X0054724Y0114658D01*
X0054032Y0115350D01*
X0053127Y0115724D01*
X0052148Y0115724D01*
X0051244Y0115350D01*
X0050552Y0114658D01*
X0050177Y0113753D01*
X0050177Y0112774D01*
X0050340Y0112382D01*
X0049980Y0112022D01*
X0049980Y0108206D01*
X0050435Y0107752D01*
X0049980Y0107298D01*
X0049980Y0103482D01*
X0050730Y0102732D01*
X0052790Y0102732D01*
X0056870Y0098652D01*
X0056870Y0096395D01*
X0057620Y0095646D01*
X0064979Y0095646D01*
X0065728Y0096395D01*
X0065728Y0100998D01*
X0065274Y0101453D01*
X0065728Y0101907D01*
X0065728Y0106510D01*
X0065274Y0106965D01*
X0065728Y0107419D01*
X0065728Y0110463D01*
X0065827Y0110561D01*
X0065827Y0112575D01*
X0065963Y0112575D01*
X0066713Y0113324D01*
X0066358Y0112970D02*
X0071099Y0112970D01*
X0070945Y0112817D02*
X0070945Y0095601D01*
X0071983Y0094563D01*
X0073450Y0094563D01*
X0080143Y0094563D01*
X0081181Y0095601D01*
X0081181Y0097068D01*
X0080143Y0098106D01*
X0074488Y0098106D01*
X0074488Y0099681D01*
X0080143Y0099681D01*
X0081181Y0100719D01*
X0081181Y0102187D01*
X0080143Y0103224D01*
X0074488Y0103224D01*
X0074488Y0105193D01*
X0080143Y0105193D01*
X0081181Y0106231D01*
X0081181Y0107698D01*
X0080143Y0108736D01*
X0074488Y0108736D01*
X0074488Y0110311D01*
X0080143Y0110311D01*
X0081181Y0111349D01*
X0081181Y0112817D01*
X0080143Y0113854D01*
X0071983Y0113854D01*
X0070945Y0112817D01*
X0070945Y0111987D02*
X0065827Y0111987D01*
X0065827Y0111005D02*
X0070945Y0111005D01*
X0070945Y0110022D02*
X0065728Y0110022D01*
X0065728Y0109039D02*
X0070945Y0109039D01*
X0070945Y0108056D02*
X0065728Y0108056D01*
X0065383Y0107074D02*
X0070945Y0107074D01*
X0070945Y0106091D02*
X0065728Y0106091D01*
X0065728Y0105108D02*
X0070945Y0105108D01*
X0070945Y0104125D02*
X0065728Y0104125D01*
X0065728Y0103143D02*
X0070945Y0103143D01*
X0070945Y0102160D02*
X0065728Y0102160D01*
X0065550Y0101177D02*
X0070945Y0101177D01*
X0070945Y0100194D02*
X0065728Y0100194D01*
X0065728Y0099211D02*
X0070945Y0099211D01*
X0070945Y0098229D02*
X0065728Y0098229D01*
X0065728Y0097246D02*
X0070945Y0097246D01*
X0070945Y0096263D02*
X0065596Y0096263D01*
X0061299Y0098697D02*
X0059331Y0098697D01*
X0052638Y0105390D01*
X0049980Y0105108D02*
X0046437Y0105108D01*
X0046442Y0104125D02*
X0049980Y0104125D01*
X0050320Y0103143D02*
X0046507Y0103143D01*
X0046625Y0102160D02*
X0053362Y0102160D01*
X0054345Y0101177D02*
X0046888Y0101177D01*
X0047151Y0100194D02*
X0055328Y0100194D01*
X0056311Y0099211D02*
X0047415Y0099211D01*
X0047908Y0098229D02*
X0056870Y0098229D01*
X0056870Y0097246D02*
X0048476Y0097246D01*
X0049043Y0096263D02*
X0057002Y0096263D01*
X0055702Y0091349D02*
X0081344Y0091349D01*
X0082326Y0092332D02*
X0053561Y0092332D01*
X0051859Y0093315D02*
X0083309Y0093315D01*
X0080861Y0095280D02*
X0153050Y0095280D01*
X0153870Y0096263D02*
X0081181Y0096263D01*
X0081004Y0097246D02*
X0154438Y0097246D01*
X0155005Y0098229D02*
X0074488Y0098229D01*
X0074488Y0099211D02*
X0155499Y0099211D01*
X0155762Y0100194D02*
X0080656Y0100194D01*
X0081181Y0101177D02*
X0156026Y0101177D01*
X0156289Y0102160D02*
X0081181Y0102160D01*
X0080225Y0103143D02*
X0156407Y0103143D01*
X0156359Y0102423D02*
X0156359Y0102423D01*
X0156471Y0104125D02*
X0074488Y0104125D01*
X0074488Y0105108D02*
X0094272Y0105108D01*
X0094272Y0106091D02*
X0081041Y0106091D01*
X0081181Y0107074D02*
X0094272Y0107074D01*
X0094272Y0108056D02*
X0080823Y0108056D01*
X0080837Y0111005D02*
X0094272Y0111005D01*
X0094272Y0111987D02*
X0081181Y0111987D01*
X0081027Y0112970D02*
X0093709Y0112970D01*
X0091811Y0114936D02*
X0066713Y0114936D01*
X0066713Y0115918D02*
X0090828Y0115918D01*
X0089846Y0116901D02*
X0066713Y0116901D01*
X0066548Y0117884D02*
X0089057Y0117884D01*
X0088760Y0118867D02*
X0066713Y0118867D01*
X0066713Y0119850D02*
X0088760Y0119850D01*
X0088760Y0120832D02*
X0066713Y0120832D01*
X0066713Y0121815D02*
X0088760Y0121815D01*
X0088760Y0122798D02*
X0066516Y0122798D01*
X0066439Y0123781D02*
X0088760Y0123781D01*
X0088760Y0124763D02*
X0065878Y0124763D01*
X0064055Y0123106D02*
X0064055Y0119957D01*
X0059331Y0119957D02*
X0059331Y0123106D01*
X0061154Y0124763D02*
X0062232Y0124763D01*
X0057508Y0124763D02*
X0054565Y0124763D01*
X0055547Y0123781D02*
X0056947Y0123781D01*
X0056870Y0122798D02*
X0055689Y0122798D01*
X0055689Y0123639D02*
X0053210Y0126118D01*
X0049704Y0126118D01*
X0047224Y0123639D01*
X0047224Y0120133D01*
X0049704Y0117654D01*
X0053210Y0117654D01*
X0055689Y0120133D01*
X0055689Y0123639D01*
X0055689Y0121815D02*
X0056673Y0121815D01*
X0056673Y0120832D02*
X0055689Y0120832D01*
X0055406Y0119850D02*
X0056673Y0119850D01*
X0056673Y0118867D02*
X0054423Y0118867D01*
X0053440Y0117884D02*
X0056838Y0117884D01*
X0056673Y0116901D02*
X0046437Y0116901D01*
X0046437Y0115918D02*
X0056673Y0115918D01*
X0056529Y0114936D02*
X0054446Y0114936D01*
X0055016Y0113953D02*
X0055546Y0113953D01*
X0056575Y0112476D02*
X0059331Y0115232D01*
X0056575Y0112476D02*
X0056575Y0107358D01*
X0059724Y0104209D01*
X0061299Y0104209D01*
X0061299Y0109720D02*
X0062480Y0109720D01*
X0064055Y0111295D01*
X0064055Y0115232D01*
X0052638Y0113264D02*
X0052638Y0110114D01*
X0049980Y0110022D02*
X0046437Y0110022D01*
X0046437Y0111005D02*
X0049980Y0111005D01*
X0049980Y0111987D02*
X0046437Y0111987D01*
X0046437Y0112970D02*
X0050177Y0112970D01*
X0050260Y0113953D02*
X0046437Y0113953D01*
X0046437Y0114936D02*
X0050830Y0114936D01*
X0049473Y0117884D02*
X0046437Y0117884D01*
X0046437Y0118867D02*
X0048490Y0118867D01*
X0047508Y0119850D02*
X0046437Y0119850D01*
X0046437Y0120832D02*
X0047224Y0120832D01*
X0047224Y0121815D02*
X0046437Y0121815D01*
X0046437Y0122798D02*
X0047224Y0122798D01*
X0047366Y0123781D02*
X0046437Y0123781D01*
X0046437Y0124763D02*
X0048349Y0124763D01*
X0049332Y0125746D02*
X0046437Y0125746D01*
X0046437Y0126729D02*
X0088760Y0126729D01*
X0088760Y0127712D02*
X0053268Y0127712D01*
X0053210Y0127654D02*
X0055689Y0130133D01*
X0055689Y0133639D01*
X0053210Y0136118D01*
X0049704Y0136118D01*
X0047224Y0133639D01*
X0047224Y0130133D01*
X0049704Y0127654D01*
X0053210Y0127654D01*
X0054251Y0128694D02*
X0088760Y0128694D01*
X0088760Y0129677D02*
X0055233Y0129677D01*
X0055689Y0130660D02*
X0088760Y0130660D01*
X0088760Y0131643D02*
X0055689Y0131643D01*
X0055689Y0132625D02*
X0088136Y0132625D01*
X0087677Y0133608D02*
X0055689Y0133608D01*
X0054737Y0134591D02*
X0087677Y0134591D01*
X0087677Y0135574D02*
X0053754Y0135574D01*
X0053210Y0137654D02*
X0049704Y0137654D01*
X0047224Y0140133D01*
X0047224Y0143639D01*
X0049704Y0146118D01*
X0053210Y0146118D01*
X0055689Y0143639D01*
X0055689Y0140133D01*
X0053210Y0137654D01*
X0054078Y0138522D02*
X0087677Y0138522D01*
X0087677Y0137539D02*
X0046437Y0137539D01*
X0046437Y0136556D02*
X0087677Y0136556D01*
X0087677Y0139505D02*
X0055061Y0139505D01*
X0055689Y0140488D02*
X0072030Y0140488D01*
X0071831Y0141470D02*
X0055689Y0141470D01*
X0055689Y0142453D02*
X0071831Y0142453D01*
X0071831Y0143436D02*
X0055689Y0143436D01*
X0054909Y0144419D02*
X0071831Y0144419D01*
X0071831Y0145401D02*
X0053927Y0145401D01*
X0053210Y0147654D02*
X0049704Y0147654D01*
X0047224Y0150133D01*
X0047224Y0153639D01*
X0049704Y0156118D01*
X0053210Y0156118D01*
X0055689Y0153639D01*
X0055689Y0150133D01*
X0053210Y0147654D01*
X0053906Y0148350D02*
X0071831Y0148350D01*
X0071831Y0149332D02*
X0054889Y0149332D01*
X0055689Y0150315D02*
X0071831Y0150315D01*
X0071831Y0151298D02*
X0055689Y0151298D01*
X0055689Y0152281D02*
X0071831Y0152281D01*
X0071831Y0153263D02*
X0055689Y0153263D01*
X0055082Y0154246D02*
X0072519Y0154246D01*
X0077047Y0149091D02*
X0087677Y0159720D01*
X0087677Y0171138D01*
X0088465Y0171925D01*
X0087677Y0171925D01*
X0086890Y0172713D01*
X0083937Y0172713D01*
X0083740Y0172909D01*
X0085906Y0170252D02*
X0080848Y0170252D01*
X0080098Y0171001D01*
X0080098Y0178558D01*
X0080197Y0178656D01*
X0080197Y0181571D01*
X0077146Y0181571D01*
X0077146Y0178482D01*
X0076396Y0177732D01*
X0070612Y0177732D01*
X0069862Y0178482D01*
X0069862Y0178815D01*
X0064502Y0178815D01*
X0070511Y0177833D02*
X0053389Y0177833D01*
X0053461Y0175867D02*
X0080098Y0175867D01*
X0080098Y0174884D02*
X0077079Y0174884D01*
X0077146Y0173901D02*
X0080098Y0173901D01*
X0080098Y0172919D02*
X0077494Y0172919D01*
X0077539Y0171936D02*
X0080098Y0171936D01*
X0080147Y0170953D02*
X0077539Y0170953D01*
X0077539Y0169970D02*
X0085906Y0169970D01*
X0085906Y0170252D02*
X0085906Y0160454D01*
X0085594Y0160143D02*
X0055689Y0160143D01*
X0054716Y0159160D02*
X0084611Y0159160D01*
X0083628Y0158177D02*
X0053733Y0158177D01*
X0054099Y0155229D02*
X0080680Y0155229D01*
X0081663Y0156212D02*
X0046437Y0156212D01*
X0046437Y0157195D02*
X0082646Y0157195D01*
X0084708Y0154246D02*
X0087677Y0154246D01*
X0087677Y0153263D02*
X0083726Y0153263D01*
X0082743Y0152281D02*
X0087677Y0152281D01*
X0087677Y0151298D02*
X0082264Y0151298D01*
X0082264Y0150315D02*
X0087677Y0150315D01*
X0087677Y0149332D02*
X0082264Y0149332D01*
X0082264Y0148350D02*
X0087677Y0148350D01*
X0087677Y0147367D02*
X0082264Y0147367D01*
X0082264Y0146384D02*
X0088550Y0146384D01*
X0088454Y0145401D02*
X0082264Y0145401D01*
X0082264Y0144419D02*
X0087677Y0144419D01*
X0087677Y0143436D02*
X0082264Y0143436D01*
X0082264Y0142453D02*
X0087677Y0142453D01*
X0087677Y0141470D02*
X0082264Y0141470D01*
X0082065Y0140488D02*
X0087677Y0140488D01*
X0090827Y0142453D02*
X0092402Y0142453D01*
X0092402Y0143436D02*
X0090827Y0143436D01*
X0090827Y0144419D02*
X0092402Y0144419D01*
X0093178Y0145401D02*
X0090050Y0145401D01*
X0089954Y0146384D02*
X0093275Y0146384D01*
X0092402Y0147367D02*
X0090827Y0147367D01*
X0090827Y0148350D02*
X0092402Y0148350D01*
X0092402Y0149332D02*
X0090827Y0149332D01*
X0095551Y0149332D02*
X0095846Y0149332D01*
X0095846Y0148350D02*
X0095551Y0148350D01*
X0095551Y0147367D02*
X0112092Y0147367D01*
X0111109Y0148350D02*
X0108642Y0148350D01*
X0108642Y0149332D02*
X0110127Y0149332D01*
X0109144Y0150315D02*
X0108642Y0150315D01*
X0112383Y0154246D02*
X0112578Y0154246D01*
X0112480Y0154344D02*
X0112480Y0156571D01*
X0112480Y0156571D01*
X0112480Y0154344D01*
X0112480Y0155229D02*
X0112480Y0155229D01*
X0112480Y0156212D02*
X0112480Y0156212D01*
X0120354Y0154996D02*
X0120354Y0151846D01*
X0121929Y0151846D01*
X0120354Y0151846D02*
X0120354Y0140035D01*
X0123110Y0138854D02*
X0123110Y0122713D01*
X0128228Y0117594D01*
X0143583Y0117594D01*
X0144568Y0119850D02*
X0147508Y0119850D01*
X0147224Y0120832D02*
X0127496Y0120832D01*
X0128479Y0119850D02*
X0142597Y0119850D01*
X0145719Y0118867D02*
X0148490Y0118867D01*
X0149473Y0117884D02*
X0146043Y0117884D01*
X0145959Y0116901D02*
X0156476Y0116901D01*
X0156476Y0115918D02*
X0145386Y0115918D01*
X0147224Y0121815D02*
X0126513Y0121815D01*
X0125531Y0122798D02*
X0147224Y0122798D01*
X0153440Y0117884D02*
X0156476Y0117884D01*
X0156476Y0114936D02*
X0102835Y0114936D01*
X0102835Y0115918D02*
X0127399Y0115918D01*
X0126416Y0116901D02*
X0102835Y0116901D01*
X0102835Y0117884D02*
X0125433Y0117884D01*
X0124451Y0118867D02*
X0102835Y0118867D01*
X0102835Y0119850D02*
X0123468Y0119850D01*
X0122485Y0120832D02*
X0103657Y0120832D01*
X0104639Y0121815D02*
X0121502Y0121815D01*
X0121339Y0122798D02*
X0105622Y0122798D01*
X0106605Y0123781D02*
X0121339Y0123781D01*
X0121339Y0124763D02*
X0107588Y0124763D01*
X0108570Y0125746D02*
X0121339Y0125746D01*
X0121339Y0126729D02*
X0109553Y0126729D01*
X0110536Y0127712D02*
X0121339Y0127712D01*
X0121339Y0128694D02*
X0111519Y0128694D01*
X0112502Y0129677D02*
X0121339Y0129677D01*
X0121339Y0130660D02*
X0113484Y0130660D01*
X0110042Y0134591D02*
X0105998Y0134591D01*
X0106378Y0134971D02*
X0106378Y0134971D01*
X0106981Y0135574D02*
X0111025Y0135574D01*
X0112008Y0136556D02*
X0107559Y0136556D01*
X0108250Y0137539D02*
X0112990Y0137539D01*
X0113973Y0138522D02*
X0108642Y0138522D01*
X0108642Y0139505D02*
X0114956Y0139505D01*
X0115939Y0140488D02*
X0108642Y0140488D01*
X0108642Y0141470D02*
X0116922Y0141470D01*
X0117008Y0142453D02*
X0108642Y0142453D01*
X0108642Y0143436D02*
X0117008Y0143436D01*
X0114066Y0144419D02*
X0107938Y0144419D01*
X0105984Y0140823D02*
X0105984Y0140626D01*
X0105787Y0140429D01*
X0113353Y0145401D02*
X0094775Y0145401D01*
X0094678Y0146384D02*
X0113075Y0146384D01*
X0123110Y0144760D02*
X0123110Y0148303D01*
X0126654Y0151846D02*
X0126654Y0135311D01*
X0129311Y0133608D02*
X0135512Y0133608D01*
X0134268Y0132625D02*
X0129124Y0132625D01*
X0146634Y0149332D02*
X0148025Y0149332D01*
X0147616Y0148350D02*
X0149008Y0148350D01*
X0148599Y0147367D02*
X0156476Y0147367D01*
X0156476Y0148350D02*
X0153906Y0148350D01*
X0154889Y0149332D02*
X0156476Y0149332D01*
X0156476Y0150315D02*
X0155689Y0150315D01*
X0155689Y0151298D02*
X0156476Y0151298D01*
X0156476Y0146384D02*
X0149582Y0146384D01*
X0153927Y0145401D02*
X0156476Y0145401D01*
X0156476Y0144419D02*
X0154909Y0144419D01*
X0155689Y0143436D02*
X0156476Y0143436D01*
X0156476Y0142453D02*
X0155689Y0142453D01*
X0156476Y0136556D02*
X0149173Y0136556D01*
X0147224Y0150315D02*
X0145651Y0150315D01*
X0144961Y0151298D02*
X0147224Y0151298D01*
X0147224Y0152281D02*
X0144961Y0152281D01*
X0144961Y0153263D02*
X0147224Y0153263D01*
X0146591Y0154246D02*
X0144961Y0154246D01*
X0144961Y0155229D02*
X0145608Y0155229D01*
X0147671Y0158177D02*
X0149180Y0158177D01*
X0148197Y0159160D02*
X0146929Y0159160D01*
X0146929Y0160143D02*
X0147224Y0160143D01*
X0147224Y0161126D02*
X0146929Y0161126D01*
X0146929Y0162108D02*
X0147224Y0162108D01*
X0147224Y0163091D02*
X0146929Y0163091D01*
X0121929Y0156571D02*
X0120354Y0154996D01*
X0118780Y0162870D02*
X0118780Y0173500D01*
X0118583Y0173697D01*
X0118583Y0176453D01*
X0120551Y0176453D02*
X0120551Y0173697D01*
X0120354Y0173500D01*
X0106969Y0176256D02*
X0105394Y0174681D01*
X0095551Y0174681D01*
X0092795Y0171925D01*
X0088465Y0171925D01*
X0087677Y0171925D02*
X0087677Y0172713D01*
X0087677Y0173500D01*
X0087677Y0171925D02*
X0087677Y0171138D01*
X0085906Y0168988D02*
X0077539Y0168988D01*
X0077736Y0168005D02*
X0085906Y0168005D01*
X0085906Y0167022D02*
X0077736Y0167022D01*
X0077736Y0166039D02*
X0085906Y0166039D01*
X0085906Y0165057D02*
X0077736Y0165057D01*
X0077539Y0164074D02*
X0085906Y0164074D01*
X0085906Y0163091D02*
X0077507Y0163091D01*
X0077009Y0162108D02*
X0085906Y0162108D01*
X0087657Y0157195D02*
X0087677Y0157195D01*
X0087677Y0156212D02*
X0086674Y0156212D01*
X0085691Y0155229D02*
X0087677Y0155229D01*
X0095551Y0153263D02*
X0095846Y0153263D01*
X0095846Y0152281D02*
X0095551Y0152281D01*
X0095551Y0151298D02*
X0095846Y0151298D01*
X0095846Y0150315D02*
X0095551Y0150315D01*
X0095551Y0144419D02*
X0096550Y0144419D01*
X0095846Y0143436D02*
X0095551Y0143436D01*
X0095551Y0142453D02*
X0095846Y0142453D01*
X0095846Y0141470D02*
X0095551Y0141470D01*
X0095551Y0140488D02*
X0095649Y0140488D01*
X0088760Y0125746D02*
X0053582Y0125746D01*
X0049646Y0127712D02*
X0046437Y0127712D01*
X0046437Y0128694D02*
X0048663Y0128694D01*
X0047680Y0129677D02*
X0046437Y0129677D01*
X0046437Y0130660D02*
X0047224Y0130660D01*
X0047224Y0131643D02*
X0046437Y0131643D01*
X0046437Y0132625D02*
X0047224Y0132625D01*
X0047224Y0133608D02*
X0046437Y0133608D01*
X0046437Y0134591D02*
X0048176Y0134591D01*
X0049159Y0135574D02*
X0046437Y0135574D01*
X0046437Y0138522D02*
X0048835Y0138522D01*
X0047852Y0139505D02*
X0046437Y0139505D01*
X0046437Y0140488D02*
X0047224Y0140488D01*
X0047224Y0141470D02*
X0046437Y0141470D01*
X0046437Y0142453D02*
X0047224Y0142453D01*
X0047224Y0143436D02*
X0046437Y0143436D01*
X0046437Y0144419D02*
X0048004Y0144419D01*
X0048987Y0145401D02*
X0046437Y0145401D01*
X0046437Y0146384D02*
X0071831Y0146384D01*
X0071831Y0147367D02*
X0046437Y0147367D01*
X0046437Y0148350D02*
X0049008Y0148350D01*
X0048025Y0149332D02*
X0046437Y0149332D01*
X0046437Y0150315D02*
X0047224Y0150315D01*
X0047224Y0151298D02*
X0046437Y0151298D01*
X0046437Y0152281D02*
X0047224Y0152281D01*
X0047224Y0153263D02*
X0046437Y0153263D01*
X0046437Y0154246D02*
X0047832Y0154246D01*
X0048815Y0155229D02*
X0046437Y0155229D01*
X0046437Y0158177D02*
X0049180Y0158177D01*
X0048197Y0159160D02*
X0046437Y0159160D01*
X0046437Y0160143D02*
X0047224Y0160143D01*
X0047224Y0161126D02*
X0046437Y0161126D01*
X0046437Y0162108D02*
X0047224Y0162108D01*
X0047224Y0163091D02*
X0046437Y0163091D01*
X0046437Y0164074D02*
X0047659Y0164074D01*
X0048642Y0165057D02*
X0046437Y0165057D01*
X0046437Y0166039D02*
X0049625Y0166039D01*
X0053561Y0168005D02*
X0070354Y0168005D01*
X0070354Y0168988D02*
X0054544Y0168988D01*
X0055527Y0169970D02*
X0072618Y0169970D01*
X0069910Y0170953D02*
X0055689Y0170953D01*
X0055689Y0171936D02*
X0069862Y0171936D01*
X0069862Y0172919D02*
X0055689Y0172919D01*
X0055426Y0173901D02*
X0069862Y0173901D01*
X0069929Y0174884D02*
X0054444Y0174884D01*
X0046437Y0176850D02*
X0080098Y0176850D01*
X0080098Y0177833D02*
X0076496Y0177833D01*
X0077146Y0178815D02*
X0080197Y0178815D01*
X0080197Y0179798D02*
X0077146Y0179798D01*
X0077146Y0180781D02*
X0080197Y0180781D01*
X0087677Y0181764D02*
X0092402Y0181764D01*
X0092728Y0182746D02*
X0087618Y0182746D01*
X0088601Y0183729D02*
X0092937Y0183729D01*
X0092736Y0180781D02*
X0091642Y0180781D01*
X0092608Y0179798D02*
X0097815Y0179798D01*
X0106181Y0179799D02*
X0106969Y0179012D01*
X0107756Y0179799D01*
X0107165Y0179996D02*
X0106969Y0179799D01*
X0106969Y0179012D01*
X0106969Y0176256D01*
X0117598Y0186886D02*
X0121142Y0186886D01*
X0124488Y0197319D02*
X0124685Y0197516D01*
X0124685Y0199091D01*
X0125079Y0199484D01*
X0127835Y0199484D01*
X0132559Y0203028D02*
X0112480Y0223106D01*
X0110512Y0229012D02*
X0103425Y0236098D01*
X0102638Y0236098D01*
X0102638Y0232949D02*
X0104213Y0232949D01*
X0096142Y0232867D02*
X0062283Y0232867D01*
X0062283Y0231885D02*
X0096142Y0231885D01*
X0096142Y0230902D02*
X0062283Y0230902D01*
X0062283Y0229919D02*
X0096142Y0229919D01*
X0096142Y0228936D02*
X0062283Y0228936D01*
X0062283Y0227953D02*
X0096142Y0227953D01*
X0096142Y0226971D02*
X0062283Y0226971D01*
X0062283Y0225988D02*
X0096142Y0225988D01*
X0096142Y0225005D02*
X0062283Y0225005D01*
X0062283Y0224022D02*
X0095839Y0224022D01*
X0095256Y0223040D02*
X0091522Y0223040D01*
X0091713Y0222057D02*
X0095256Y0222057D01*
X0095256Y0221074D02*
X0091713Y0221074D01*
X0091713Y0220091D02*
X0095256Y0220091D01*
X0095649Y0219109D02*
X0091713Y0219109D01*
X0091713Y0218126D02*
X0095256Y0218126D01*
X0095256Y0217143D02*
X0091713Y0217143D01*
X0090137Y0208298D02*
X0087274Y0208298D01*
X0088257Y0207315D02*
X0090630Y0207315D01*
X0090354Y0206333D02*
X0089240Y0206333D01*
X0087874Y0202402D02*
X0083813Y0202402D01*
X0084035Y0201419D02*
X0087874Y0201419D01*
X0087874Y0200436D02*
X0084035Y0200436D01*
X0084035Y0199453D02*
X0087874Y0199453D01*
X0087874Y0198471D02*
X0086054Y0198471D01*
X0086791Y0197488D02*
X0087874Y0197488D01*
X0087874Y0196505D02*
X0086791Y0196505D01*
X0086791Y0195522D02*
X0087874Y0195522D01*
X0088148Y0194540D02*
X0086791Y0194540D01*
X0092402Y0198303D02*
X0095157Y0195547D01*
X0118101Y0210264D02*
X0122817Y0210264D01*
X0123800Y0209281D02*
X0118780Y0209281D01*
X0105512Y0222057D02*
X0105295Y0222057D01*
X0102638Y0221531D02*
X0100276Y0223894D01*
X0100276Y0240429D01*
X0101457Y0240823D02*
X0100276Y0242004D01*
X0095533Y0239747D02*
X0062283Y0239747D01*
X0062283Y0240729D02*
X0095108Y0240729D01*
X0094125Y0241712D02*
X0062283Y0241712D01*
X0062283Y0242695D02*
X0093142Y0242695D01*
X0092159Y0243678D02*
X0062283Y0243678D01*
X0062283Y0244660D02*
X0091177Y0244660D01*
X0090194Y0245643D02*
X0062283Y0245643D01*
X0058740Y0245643D02*
X0053685Y0245643D01*
X0053210Y0246118D02*
X0049704Y0246118D01*
X0047224Y0243639D01*
X0047224Y0240133D01*
X0049704Y0237654D01*
X0053210Y0237654D01*
X0055689Y0240133D01*
X0055689Y0243639D01*
X0053210Y0246118D01*
X0053210Y0247654D02*
X0049704Y0247654D01*
X0047224Y0250133D01*
X0047224Y0253639D01*
X0049704Y0256118D01*
X0053210Y0256118D01*
X0055689Y0253639D01*
X0055689Y0250133D01*
X0053210Y0247654D01*
X0054148Y0248591D02*
X0058740Y0248591D01*
X0058740Y0247609D02*
X0046437Y0247609D01*
X0046437Y0248591D02*
X0048766Y0248591D01*
X0047783Y0249574D02*
X0046437Y0249574D01*
X0046437Y0250557D02*
X0047224Y0250557D01*
X0047224Y0251540D02*
X0046437Y0251540D01*
X0046437Y0252523D02*
X0047224Y0252523D01*
X0047224Y0253505D02*
X0046437Y0253505D01*
X0046437Y0254488D02*
X0048074Y0254488D01*
X0049056Y0255471D02*
X0046437Y0255471D01*
X0046437Y0256454D02*
X0065369Y0256454D01*
X0066352Y0257436D02*
X0046437Y0257436D01*
X0046437Y0258419D02*
X0067335Y0258419D01*
X0068318Y0259402D02*
X0046437Y0259402D01*
X0046437Y0260385D02*
X0069300Y0260385D01*
X0070283Y0261367D02*
X0046437Y0261367D01*
X0046437Y0262350D02*
X0078425Y0262350D01*
X0078548Y0263333D02*
X0046437Y0263333D01*
X0046437Y0264316D02*
X0079531Y0264316D01*
X0080513Y0265298D02*
X0046437Y0265298D01*
X0046437Y0266281D02*
X0081496Y0266281D01*
X0082479Y0267264D02*
X0046437Y0267264D01*
X0046437Y0268247D02*
X0083462Y0268247D01*
X0084232Y0269017D02*
X0084232Y0269017D01*
X0084445Y0269230D02*
X0046437Y0269230D01*
X0046480Y0270212D02*
X0094469Y0270212D01*
X0094469Y0269230D02*
X0092500Y0269230D01*
X0092500Y0268247D02*
X0106938Y0268247D01*
X0106870Y0267264D02*
X0095231Y0267264D01*
X0095650Y0266281D02*
X0106870Y0266281D01*
X0106870Y0265298D02*
X0095650Y0265298D01*
X0095973Y0264316D02*
X0106900Y0264316D01*
X0106870Y0263333D02*
X0096043Y0263333D01*
X0095705Y0262350D02*
X0102181Y0262350D01*
X0101512Y0261367D02*
X0094484Y0261367D01*
X0092681Y0261367D02*
X0092500Y0261367D01*
X0093583Y0263657D02*
X0093780Y0263854D01*
X0093780Y0265724D01*
X0090039Y0268283D02*
X0086004Y0268283D01*
X0080197Y0262476D01*
X0080197Y0254209D01*
X0086890Y0247516D01*
X0096339Y0254209D02*
X0096339Y0258146D01*
X0090039Y0260606D02*
X0087382Y0260606D01*
X0086496Y0259720D01*
X0094469Y0271195D02*
X0046544Y0271195D01*
X0046776Y0272178D02*
X0086796Y0272178D01*
X0098209Y0271195D02*
X0107264Y0271195D01*
X0107264Y0270212D02*
X0098209Y0270212D01*
X0098209Y0269230D02*
X0107264Y0269230D01*
X0109331Y0267594D02*
X0108740Y0267004D01*
X0108740Y0265724D01*
X0108740Y0263165D02*
X0108740Y0261886D01*
X0109331Y0261295D01*
X0112874Y0260606D02*
X0117894Y0260606D01*
X0119961Y0258539D01*
X0119961Y0254996D01*
X0124685Y0250272D01*
X0120650Y0250557D02*
X0115630Y0250557D01*
X0115630Y0251540D02*
X0120650Y0251540D01*
X0119929Y0252523D02*
X0115630Y0252523D01*
X0115630Y0253505D02*
X0118946Y0253505D01*
X0118189Y0254488D02*
X0115215Y0254488D01*
X0113366Y0255471D02*
X0118189Y0255471D01*
X0118189Y0256454D02*
X0112928Y0256454D01*
X0111988Y0257436D02*
X0118189Y0257436D01*
X0117575Y0258419D02*
X0111988Y0258419D01*
X0112874Y0263165D02*
X0113169Y0263165D01*
X0113268Y0263264D01*
X0121142Y0263264D01*
X0124685Y0259720D01*
X0128720Y0259402D02*
X0131160Y0259402D01*
X0132142Y0258419D02*
X0128720Y0258419D01*
X0128720Y0257436D02*
X0133125Y0257436D01*
X0134108Y0256454D02*
X0128720Y0256454D01*
X0128720Y0253505D02*
X0137056Y0253505D01*
X0138039Y0252523D02*
X0128720Y0252523D01*
X0128720Y0251540D02*
X0139022Y0251540D01*
X0140004Y0250557D02*
X0128720Y0250557D01*
X0128720Y0249574D02*
X0140987Y0249574D01*
X0141970Y0248591D02*
X0128720Y0248591D01*
X0128720Y0247609D02*
X0142953Y0247609D01*
X0143386Y0246626D02*
X0128361Y0246626D01*
X0121009Y0246626D02*
X0112314Y0246626D01*
X0113118Y0247609D02*
X0120650Y0247609D01*
X0120650Y0248591D02*
X0113366Y0248591D01*
X0114797Y0249574D02*
X0120650Y0249574D01*
X0122974Y0254488D02*
X0136073Y0254488D01*
X0135091Y0255471D02*
X0121991Y0255471D01*
X0128720Y0260385D02*
X0130177Y0260385D01*
X0129194Y0261367D02*
X0128720Y0261367D01*
X0127441Y0265626D02*
X0145157Y0247909D01*
X0145157Y0217988D01*
X0151260Y0211886D01*
X0151457Y0211886D01*
X0148508Y0217143D02*
X0156476Y0217143D01*
X0156476Y0218126D02*
X0153682Y0218126D01*
X0154665Y0219109D02*
X0156476Y0219109D01*
X0156476Y0220091D02*
X0155648Y0220091D01*
X0155689Y0221074D02*
X0156476Y0221074D01*
X0156476Y0222057D02*
X0155689Y0222057D01*
X0155689Y0223040D02*
X0156476Y0223040D01*
X0156476Y0224022D02*
X0155305Y0224022D01*
X0154323Y0225005D02*
X0156476Y0225005D01*
X0156476Y0225988D02*
X0153340Y0225988D01*
X0153510Y0227953D02*
X0156476Y0227953D01*
X0156476Y0226971D02*
X0148898Y0226971D01*
X0148898Y0227953D02*
X0149404Y0227953D01*
X0149506Y0225988D02*
X0149573Y0225988D01*
X0147126Y0225862D02*
X0151102Y0221886D01*
X0151457Y0221886D01*
X0151496Y0221886D01*
X0148249Y0219109D02*
X0146929Y0219109D01*
X0146929Y0220091D02*
X0147266Y0220091D01*
X0147224Y0221074D02*
X0146929Y0221074D01*
X0146929Y0222057D02*
X0147224Y0222057D01*
X0147224Y0223040D02*
X0146929Y0223040D01*
X0147126Y0225862D02*
X0147126Y0248697D01*
X0127441Y0268382D01*
X0113268Y0268382D01*
X0113169Y0268283D01*
X0112874Y0268283D01*
X0112874Y0265724D02*
X0113169Y0265724D01*
X0113268Y0265626D01*
X0127441Y0265626D01*
X0130082Y0268247D02*
X0156476Y0268247D01*
X0156476Y0269230D02*
X0129099Y0269230D01*
X0131064Y0267264D02*
X0156476Y0267264D01*
X0156476Y0266281D02*
X0132047Y0266281D01*
X0133030Y0265298D02*
X0156476Y0265298D01*
X0156476Y0264316D02*
X0134013Y0264316D01*
X0134995Y0263333D02*
X0156476Y0263333D01*
X0156476Y0262350D02*
X0135978Y0262350D01*
X0136961Y0261367D02*
X0156476Y0261367D01*
X0156476Y0260385D02*
X0137944Y0260385D01*
X0138926Y0259402D02*
X0156476Y0259402D01*
X0156476Y0258419D02*
X0139909Y0258419D01*
X0140892Y0257436D02*
X0156476Y0257436D01*
X0156476Y0256454D02*
X0141875Y0256454D01*
X0142857Y0255471D02*
X0149056Y0255471D01*
X0148074Y0254488D02*
X0143840Y0254488D01*
X0144823Y0253505D02*
X0147224Y0253505D01*
X0147224Y0252523D02*
X0145806Y0252523D01*
X0146789Y0251540D02*
X0147224Y0251540D01*
X0148898Y0247609D02*
X0156476Y0247609D01*
X0156476Y0248591D02*
X0154148Y0248591D01*
X0155130Y0249574D02*
X0156476Y0249574D01*
X0156476Y0250557D02*
X0155689Y0250557D01*
X0155689Y0251540D02*
X0156476Y0251540D01*
X0156476Y0252523D02*
X0155689Y0252523D01*
X0155689Y0253505D02*
X0156476Y0253505D01*
X0156476Y0254488D02*
X0154840Y0254488D01*
X0153857Y0255471D02*
X0156476Y0255471D01*
X0156476Y0246626D02*
X0148898Y0246626D01*
X0148898Y0245643D02*
X0156476Y0245643D01*
X0156476Y0244660D02*
X0148898Y0244660D01*
X0148898Y0243678D02*
X0156476Y0243678D01*
X0156476Y0242695D02*
X0148898Y0242695D01*
X0148898Y0241712D02*
X0156476Y0241712D01*
X0156476Y0240729D02*
X0148898Y0240729D01*
X0148898Y0239747D02*
X0156476Y0239747D01*
X0156476Y0238764D02*
X0148898Y0238764D01*
X0148898Y0237781D02*
X0156476Y0237781D01*
X0156476Y0236798D02*
X0148898Y0236798D01*
X0148898Y0235816D02*
X0149401Y0235816D01*
X0153512Y0235816D02*
X0156476Y0235816D01*
X0156476Y0234833D02*
X0154495Y0234833D01*
X0155478Y0233850D02*
X0156476Y0233850D01*
X0156476Y0232867D02*
X0155689Y0232867D01*
X0155689Y0231885D02*
X0156476Y0231885D01*
X0156476Y0230902D02*
X0155689Y0230902D01*
X0155475Y0229919D02*
X0156476Y0229919D01*
X0156476Y0228936D02*
X0154492Y0228936D01*
X0149231Y0218126D02*
X0147525Y0218126D01*
X0096142Y0233850D02*
X0062283Y0233850D01*
X0062283Y0234833D02*
X0096142Y0234833D01*
X0096142Y0235816D02*
X0062283Y0235816D01*
X0062283Y0236798D02*
X0096142Y0236798D01*
X0096142Y0237781D02*
X0062283Y0237781D01*
X0062283Y0238764D02*
X0096099Y0238764D01*
X0081470Y0223040D02*
X0071837Y0223040D01*
X0072028Y0222057D02*
X0081280Y0222057D01*
X0081280Y0221074D02*
X0072028Y0221074D01*
X0072028Y0220091D02*
X0081280Y0220091D01*
X0081280Y0219109D02*
X0072028Y0219109D01*
X0072028Y0218126D02*
X0081280Y0218126D01*
X0081280Y0217143D02*
X0072028Y0217143D01*
X0058740Y0227953D02*
X0053510Y0227953D01*
X0054492Y0228936D02*
X0058740Y0228936D01*
X0058740Y0229919D02*
X0055475Y0229919D01*
X0055689Y0230902D02*
X0058740Y0230902D01*
X0058740Y0231885D02*
X0055689Y0231885D01*
X0055689Y0232867D02*
X0058740Y0232867D01*
X0058740Y0233850D02*
X0055478Y0233850D01*
X0054495Y0234833D02*
X0058740Y0234833D01*
X0058740Y0235816D02*
X0053512Y0235816D01*
X0053337Y0237781D02*
X0058740Y0237781D01*
X0058740Y0236798D02*
X0046437Y0236798D01*
X0046437Y0235816D02*
X0049401Y0235816D01*
X0048418Y0234833D02*
X0046437Y0234833D01*
X0046437Y0233850D02*
X0047436Y0233850D01*
X0047224Y0232867D02*
X0046437Y0232867D01*
X0046437Y0231885D02*
X0047224Y0231885D01*
X0047224Y0230902D02*
X0046437Y0230902D01*
X0046437Y0229919D02*
X0047438Y0229919D01*
X0048421Y0228936D02*
X0046437Y0228936D01*
X0046437Y0237781D02*
X0049576Y0237781D01*
X0048593Y0238764D02*
X0046437Y0238764D01*
X0046437Y0239747D02*
X0047611Y0239747D01*
X0047224Y0240729D02*
X0046437Y0240729D01*
X0046437Y0241712D02*
X0047224Y0241712D01*
X0047224Y0242695D02*
X0046437Y0242695D01*
X0046437Y0243678D02*
X0047263Y0243678D01*
X0046437Y0244660D02*
X0048246Y0244660D01*
X0049229Y0245643D02*
X0046437Y0245643D01*
X0046437Y0246626D02*
X0058740Y0246626D01*
X0058740Y0244660D02*
X0054667Y0244660D01*
X0055650Y0243678D02*
X0058740Y0243678D01*
X0058740Y0242695D02*
X0055689Y0242695D01*
X0055689Y0241712D02*
X0058740Y0241712D01*
X0058740Y0240729D02*
X0055689Y0240729D01*
X0055303Y0239747D02*
X0058740Y0239747D01*
X0058740Y0238764D02*
X0054320Y0238764D01*
X0055130Y0249574D02*
X0058740Y0249574D01*
X0059473Y0250557D02*
X0055689Y0250557D01*
X0055689Y0251540D02*
X0060456Y0251540D01*
X0061438Y0252523D02*
X0055689Y0252523D01*
X0055689Y0253505D02*
X0062421Y0253505D01*
X0063404Y0254488D02*
X0054840Y0254488D01*
X0053857Y0255471D02*
X0064387Y0255471D01*
X0115335Y0270212D02*
X0156434Y0270212D01*
X0156369Y0271195D02*
X0115335Y0271195D01*
X0116117Y0272178D02*
X0156137Y0272178D01*
X0075079Y0172909D02*
X0073504Y0172909D01*
X0075079Y0172909D02*
X0075079Y0172319D01*
X0094468Y0160143D02*
X0100368Y0160143D01*
X0099838Y0159160D02*
X0094795Y0159160D01*
X0099556Y0158177D02*
X0099783Y0158177D01*
X0077047Y0149091D02*
X0077047Y0147122D01*
X0102835Y0113953D02*
X0156476Y0113953D01*
X0156476Y0112970D02*
X0103075Y0112970D01*
X0105724Y0111987D02*
X0156476Y0111987D01*
X0156476Y0111005D02*
X0106083Y0111005D01*
X0106083Y0110022D02*
X0156476Y0110022D01*
X0156476Y0109039D02*
X0106083Y0109039D01*
X0106083Y0108056D02*
X0156476Y0108056D01*
X0156476Y0107074D02*
X0106083Y0107074D01*
X0106083Y0106091D02*
X0156476Y0106091D01*
X0156476Y0105108D02*
X0106083Y0105108D01*
X0094272Y0109039D02*
X0074488Y0109039D01*
X0074488Y0110022D02*
X0094272Y0110022D01*
X0071265Y0095280D02*
X0049864Y0095280D01*
X0050847Y0094298D02*
X0152067Y0094298D01*
X0151055Y0093315D02*
X0119604Y0093315D01*
X0120587Y0092332D02*
X0149353Y0092332D01*
X0147211Y0091349D02*
X0121570Y0091349D01*
X0049980Y0106091D02*
X0046437Y0106091D01*
X0046437Y0107074D02*
X0049980Y0107074D01*
X0050130Y0108056D02*
X0046437Y0108056D01*
X0046437Y0109039D02*
X0049980Y0109039D01*
D35*
X0052638Y0113264D03*
X0059331Y0123106D03*
X0064055Y0123106D03*
X0079016Y0135311D03*
X0087677Y0145941D03*
X0083346Y0151059D03*
X0071535Y0154602D03*
X0070354Y0163657D03*
X0075079Y0163657D03*
X0090433Y0165626D03*
X0092795Y0165626D03*
X0098307Y0163264D03*
X0103819Y0161295D03*
X0102244Y0158539D03*
X0098701Y0154996D03*
X0095551Y0145941D03*
X0102244Y0145941D03*
X0115630Y0146335D03*
X0116024Y0153028D03*
X0123110Y0148303D03*
X0123110Y0138854D03*
X0134528Y0136098D03*
X0135709Y0130587D03*
X0136102Y0126256D03*
X0143583Y0117594D03*
X0120354Y0126256D03*
X0126654Y0165626D03*
X0131378Y0171138D03*
X0134921Y0171138D03*
X0127835Y0171531D03*
X0117598Y0183343D03*
X0114055Y0186886D03*
X0117598Y0190823D03*
X0121142Y0186886D03*
X0130984Y0195154D03*
X0127835Y0199484D03*
X0130197Y0201846D03*
X0127441Y0204602D03*
X0124685Y0206965D03*
X0115630Y0210902D03*
X0111693Y0216020D03*
X0106181Y0220744D03*
X0107362Y0226256D03*
X0104213Y0229012D03*
X0102638Y0232949D03*
X0102638Y0236098D03*
X0097913Y0240429D03*
X0086890Y0243579D03*
X0088465Y0256571D03*
X0086496Y0259720D03*
X0093583Y0263657D03*
X0095945Y0261295D03*
X0099488Y0261295D03*
X0099488Y0264445D03*
X0098307Y0267988D03*
X0101850Y0267988D03*
X0105394Y0267988D03*
X0109331Y0267594D03*
X0109331Y0261295D03*
X0103819Y0260508D03*
X0102244Y0254602D03*
X0110906Y0248697D03*
X0114449Y0256571D03*
X0103425Y0264445D03*
X0093976Y0268382D03*
X0085709Y0271531D03*
X0082953Y0271531D03*
X0080984Y0269563D03*
X0079016Y0271531D03*
X0077047Y0269563D03*
X0075079Y0271531D03*
X0073110Y0269563D03*
X0071142Y0271531D03*
X0069173Y0269563D03*
X0067205Y0271531D03*
X0065236Y0269563D03*
X0063268Y0271531D03*
X0061299Y0269563D03*
X0059331Y0271531D03*
X0057362Y0269563D03*
X0055394Y0271531D03*
X0053425Y0269563D03*
X0051457Y0271531D03*
X0049488Y0269563D03*
X0047520Y0271531D03*
X0066811Y0243579D03*
X0077441Y0259720D03*
X0116811Y0271531D03*
X0119567Y0271531D03*
X0122323Y0271531D03*
X0125472Y0271531D03*
X0128622Y0271531D03*
X0131772Y0271531D03*
X0133740Y0269563D03*
X0135709Y0271531D03*
X0137677Y0269563D03*
X0139646Y0271531D03*
X0141614Y0269563D03*
X0143583Y0271531D03*
X0145551Y0269563D03*
X0147520Y0271531D03*
X0149488Y0269563D03*
X0151457Y0271531D03*
X0153425Y0269563D03*
X0155394Y0271531D03*
X0100276Y0203815D03*
X0100276Y0198303D03*
X0100276Y0192791D03*
X0100276Y0180193D03*
X0100276Y0171925D03*
X0090433Y0178618D03*
X0087677Y0180587D03*
X0067598Y0198303D03*
X0065236Y0195941D03*
X0073898Y0200272D03*
X0134921Y0199091D03*
D36*
X0070354Y0166807D02*
X0070354Y0163657D01*
D37*
X0092402Y0183343D02*
X0095551Y0183343D01*
X0102244Y0183343D02*
X0102638Y0183736D01*
X0116614Y0200469D02*
X0116614Y0202043D01*
X0115630Y0203028D01*
X0115630Y0207752D02*
X0115630Y0210902D01*
X0077441Y0200272D02*
X0073898Y0200272D01*
X0065236Y0195941D02*
X0065236Y0192791D01*
X0112480Y0156571D02*
X0112480Y0153028D01*
X0116024Y0153028D01*
X0126654Y0161295D02*
X0126654Y0165626D01*
X0102244Y0145941D02*
X0102244Y0140823D01*
X0096339Y0115232D02*
X0096339Y0114445D01*
X0095551Y0115232D01*
X0094764Y0114839D02*
X0096339Y0113264D01*
X0096339Y0114445D01*
X0096339Y0113264D02*
X0096339Y0108343D01*
X0094764Y0114839D02*
X0094764Y0115626D01*
D38*
X0098307Y0139445D02*
X0098307Y0140823D01*
X0098504Y0140823D01*
X0098504Y0151059D02*
X0098701Y0151059D01*
X0098701Y0154996D01*
X0097520Y0171925D02*
X0100276Y0171925D01*
X0103031Y0171925D01*
X0100276Y0180193D02*
X0100276Y0183343D01*
X0102244Y0183343D01*
X0100276Y0192791D02*
X0097126Y0192791D01*
X0097126Y0198303D02*
X0100276Y0198303D01*
X0100276Y0203815D02*
X0097126Y0203815D01*
X0111693Y0206177D02*
X0111693Y0216020D01*
X0111693Y0206177D02*
X0114843Y0203028D01*
X0115630Y0203028D01*
X0075079Y0172319D02*
X0075079Y0166807D01*
X0075079Y0163657D01*
X0110906Y0248697D02*
X0110906Y0252240D01*
X0110906Y0254996D01*
X0109724Y0256177D01*
D39*
X0092795Y0165626D02*
X0090433Y0165626D01*
X0091614Y0164445D01*
X0091614Y0156177D01*
X0097520Y0156177D01*
X0098701Y0154996D01*
X0091614Y0164445D02*
X0092795Y0165626D01*
X0098307Y0139445D02*
X0098307Y0135705D01*
X0091614Y0135705D01*
X0091614Y0119169D01*
X0095551Y0115232D01*
D40*
X0109134Y0256177D02*
X0109724Y0256177D01*
X0110118Y0256177D01*
X0110118Y0258933D01*
X0109724Y0258933D01*
X0109331Y0258933D01*
X0109724Y0258933D02*
X0109724Y0256177D01*
X0109134Y0256177D02*
X0109134Y0258146D01*
M02*
