G75*
%MOIN*%
%OFA0B0*%
%FSLAX25Y25*%
%IPPOS*%
%LPD*%
%AMOC8*
5,1,8,0,0,1.08239X$1,22.5*
%
%ADD10C,0.00000*%
%ADD11C,0.03150*%
%ADD12C,0.01200*%
%ADD13C,0.00787*%
%ADD14C,0.07874*%
%ADD15C,0.01969*%
%ADD16C,0.02362*%
D10*
X0005000Y0049091D02*
X0359331Y0049091D01*
X0359331Y0324681D01*
X0005000Y0324681D01*
X0005000Y0049091D01*
X0016417Y0068776D02*
X0016419Y0068979D01*
X0016427Y0069182D01*
X0016439Y0069384D01*
X0016457Y0069586D01*
X0016479Y0069788D01*
X0016506Y0069989D01*
X0016539Y0070190D01*
X0016576Y0070389D01*
X0016618Y0070588D01*
X0016665Y0070785D01*
X0016716Y0070981D01*
X0016773Y0071176D01*
X0016834Y0071370D01*
X0016900Y0071561D01*
X0016971Y0071752D01*
X0017046Y0071940D01*
X0017126Y0072127D01*
X0017211Y0072311D01*
X0017300Y0072493D01*
X0017393Y0072674D01*
X0017491Y0072851D01*
X0017593Y0073027D01*
X0017700Y0073199D01*
X0017810Y0073369D01*
X0017925Y0073537D01*
X0018044Y0073701D01*
X0018167Y0073863D01*
X0018294Y0074021D01*
X0018424Y0074176D01*
X0018559Y0074328D01*
X0018697Y0074477D01*
X0018839Y0074622D01*
X0018984Y0074764D01*
X0019133Y0074902D01*
X0019285Y0075037D01*
X0019440Y0075167D01*
X0019598Y0075294D01*
X0019760Y0075417D01*
X0019924Y0075536D01*
X0020092Y0075651D01*
X0020262Y0075761D01*
X0020434Y0075868D01*
X0020610Y0075970D01*
X0020787Y0076068D01*
X0020968Y0076161D01*
X0021150Y0076250D01*
X0021334Y0076335D01*
X0021521Y0076415D01*
X0021709Y0076490D01*
X0021900Y0076561D01*
X0022091Y0076627D01*
X0022285Y0076688D01*
X0022480Y0076745D01*
X0022676Y0076796D01*
X0022873Y0076843D01*
X0023072Y0076885D01*
X0023271Y0076922D01*
X0023472Y0076955D01*
X0023673Y0076982D01*
X0023875Y0077004D01*
X0024077Y0077022D01*
X0024279Y0077034D01*
X0024482Y0077042D01*
X0024685Y0077044D01*
X0024888Y0077042D01*
X0025091Y0077034D01*
X0025293Y0077022D01*
X0025495Y0077004D01*
X0025697Y0076982D01*
X0025898Y0076955D01*
X0026099Y0076922D01*
X0026298Y0076885D01*
X0026497Y0076843D01*
X0026694Y0076796D01*
X0026890Y0076745D01*
X0027085Y0076688D01*
X0027279Y0076627D01*
X0027470Y0076561D01*
X0027661Y0076490D01*
X0027849Y0076415D01*
X0028036Y0076335D01*
X0028220Y0076250D01*
X0028402Y0076161D01*
X0028583Y0076068D01*
X0028760Y0075970D01*
X0028936Y0075868D01*
X0029108Y0075761D01*
X0029278Y0075651D01*
X0029446Y0075536D01*
X0029610Y0075417D01*
X0029772Y0075294D01*
X0029930Y0075167D01*
X0030085Y0075037D01*
X0030237Y0074902D01*
X0030386Y0074764D01*
X0030531Y0074622D01*
X0030673Y0074477D01*
X0030811Y0074328D01*
X0030946Y0074176D01*
X0031076Y0074021D01*
X0031203Y0073863D01*
X0031326Y0073701D01*
X0031445Y0073537D01*
X0031560Y0073369D01*
X0031670Y0073199D01*
X0031777Y0073027D01*
X0031879Y0072851D01*
X0031977Y0072674D01*
X0032070Y0072493D01*
X0032159Y0072311D01*
X0032244Y0072127D01*
X0032324Y0071940D01*
X0032399Y0071752D01*
X0032470Y0071561D01*
X0032536Y0071370D01*
X0032597Y0071176D01*
X0032654Y0070981D01*
X0032705Y0070785D01*
X0032752Y0070588D01*
X0032794Y0070389D01*
X0032831Y0070190D01*
X0032864Y0069989D01*
X0032891Y0069788D01*
X0032913Y0069586D01*
X0032931Y0069384D01*
X0032943Y0069182D01*
X0032951Y0068979D01*
X0032953Y0068776D01*
X0032951Y0068573D01*
X0032943Y0068370D01*
X0032931Y0068168D01*
X0032913Y0067966D01*
X0032891Y0067764D01*
X0032864Y0067563D01*
X0032831Y0067362D01*
X0032794Y0067163D01*
X0032752Y0066964D01*
X0032705Y0066767D01*
X0032654Y0066571D01*
X0032597Y0066376D01*
X0032536Y0066182D01*
X0032470Y0065991D01*
X0032399Y0065800D01*
X0032324Y0065612D01*
X0032244Y0065425D01*
X0032159Y0065241D01*
X0032070Y0065059D01*
X0031977Y0064878D01*
X0031879Y0064701D01*
X0031777Y0064525D01*
X0031670Y0064353D01*
X0031560Y0064183D01*
X0031445Y0064015D01*
X0031326Y0063851D01*
X0031203Y0063689D01*
X0031076Y0063531D01*
X0030946Y0063376D01*
X0030811Y0063224D01*
X0030673Y0063075D01*
X0030531Y0062930D01*
X0030386Y0062788D01*
X0030237Y0062650D01*
X0030085Y0062515D01*
X0029930Y0062385D01*
X0029772Y0062258D01*
X0029610Y0062135D01*
X0029446Y0062016D01*
X0029278Y0061901D01*
X0029108Y0061791D01*
X0028936Y0061684D01*
X0028760Y0061582D01*
X0028583Y0061484D01*
X0028402Y0061391D01*
X0028220Y0061302D01*
X0028036Y0061217D01*
X0027849Y0061137D01*
X0027661Y0061062D01*
X0027470Y0060991D01*
X0027279Y0060925D01*
X0027085Y0060864D01*
X0026890Y0060807D01*
X0026694Y0060756D01*
X0026497Y0060709D01*
X0026298Y0060667D01*
X0026099Y0060630D01*
X0025898Y0060597D01*
X0025697Y0060570D01*
X0025495Y0060548D01*
X0025293Y0060530D01*
X0025091Y0060518D01*
X0024888Y0060510D01*
X0024685Y0060508D01*
X0024482Y0060510D01*
X0024279Y0060518D01*
X0024077Y0060530D01*
X0023875Y0060548D01*
X0023673Y0060570D01*
X0023472Y0060597D01*
X0023271Y0060630D01*
X0023072Y0060667D01*
X0022873Y0060709D01*
X0022676Y0060756D01*
X0022480Y0060807D01*
X0022285Y0060864D01*
X0022091Y0060925D01*
X0021900Y0060991D01*
X0021709Y0061062D01*
X0021521Y0061137D01*
X0021334Y0061217D01*
X0021150Y0061302D01*
X0020968Y0061391D01*
X0020787Y0061484D01*
X0020610Y0061582D01*
X0020434Y0061684D01*
X0020262Y0061791D01*
X0020092Y0061901D01*
X0019924Y0062016D01*
X0019760Y0062135D01*
X0019598Y0062258D01*
X0019440Y0062385D01*
X0019285Y0062515D01*
X0019133Y0062650D01*
X0018984Y0062788D01*
X0018839Y0062930D01*
X0018697Y0063075D01*
X0018559Y0063224D01*
X0018424Y0063376D01*
X0018294Y0063531D01*
X0018167Y0063689D01*
X0018044Y0063851D01*
X0017925Y0064015D01*
X0017810Y0064183D01*
X0017700Y0064353D01*
X0017593Y0064525D01*
X0017491Y0064701D01*
X0017393Y0064878D01*
X0017300Y0065059D01*
X0017211Y0065241D01*
X0017126Y0065425D01*
X0017046Y0065612D01*
X0016971Y0065800D01*
X0016900Y0065991D01*
X0016834Y0066182D01*
X0016773Y0066376D01*
X0016716Y0066571D01*
X0016665Y0066767D01*
X0016618Y0066964D01*
X0016576Y0067163D01*
X0016539Y0067362D01*
X0016506Y0067563D01*
X0016479Y0067764D01*
X0016457Y0067966D01*
X0016439Y0068168D01*
X0016427Y0068370D01*
X0016419Y0068573D01*
X0016417Y0068776D01*
X0044370Y0104209D02*
X0044370Y0128224D01*
X0044370Y0245547D01*
X0044370Y0269563D01*
X0044375Y0269944D01*
X0044388Y0270324D01*
X0044411Y0270704D01*
X0044444Y0271083D01*
X0044485Y0271461D01*
X0044535Y0271838D01*
X0044595Y0272214D01*
X0044663Y0272589D01*
X0044741Y0272961D01*
X0044828Y0273332D01*
X0044923Y0273700D01*
X0045028Y0274066D01*
X0045141Y0274429D01*
X0045263Y0274790D01*
X0045393Y0275147D01*
X0045533Y0275501D01*
X0045680Y0275852D01*
X0045837Y0276199D01*
X0046001Y0276542D01*
X0046174Y0276881D01*
X0046355Y0277216D01*
X0046544Y0277547D01*
X0046741Y0277872D01*
X0046945Y0278193D01*
X0047158Y0278509D01*
X0047378Y0278819D01*
X0047605Y0279125D01*
X0047840Y0279424D01*
X0048082Y0279718D01*
X0048330Y0280006D01*
X0048586Y0280288D01*
X0048849Y0280563D01*
X0049118Y0280832D01*
X0049393Y0281095D01*
X0049675Y0281351D01*
X0049963Y0281599D01*
X0050257Y0281841D01*
X0050556Y0282076D01*
X0050862Y0282303D01*
X0051172Y0282523D01*
X0051488Y0282736D01*
X0051809Y0282940D01*
X0052134Y0283137D01*
X0052465Y0283326D01*
X0052800Y0283507D01*
X0053139Y0283680D01*
X0053482Y0283844D01*
X0053829Y0284001D01*
X0054180Y0284148D01*
X0054534Y0284288D01*
X0054891Y0284418D01*
X0055252Y0284540D01*
X0055615Y0284653D01*
X0055981Y0284758D01*
X0056349Y0284853D01*
X0056720Y0284940D01*
X0057092Y0285018D01*
X0057467Y0285086D01*
X0057843Y0285146D01*
X0058220Y0285196D01*
X0058598Y0285237D01*
X0058977Y0285270D01*
X0059357Y0285293D01*
X0059737Y0285306D01*
X0060118Y0285311D01*
X0084134Y0285311D01*
X0118780Y0285311D02*
X0142795Y0285311D01*
X0143176Y0285306D01*
X0143556Y0285293D01*
X0143936Y0285270D01*
X0144315Y0285237D01*
X0144693Y0285196D01*
X0145070Y0285146D01*
X0145446Y0285086D01*
X0145821Y0285018D01*
X0146193Y0284940D01*
X0146564Y0284853D01*
X0146932Y0284758D01*
X0147298Y0284653D01*
X0147661Y0284540D01*
X0148022Y0284418D01*
X0148379Y0284288D01*
X0148733Y0284148D01*
X0149084Y0284001D01*
X0149431Y0283844D01*
X0149774Y0283680D01*
X0150113Y0283507D01*
X0150448Y0283326D01*
X0150779Y0283137D01*
X0151104Y0282940D01*
X0151425Y0282736D01*
X0151741Y0282523D01*
X0152051Y0282303D01*
X0152357Y0282076D01*
X0152656Y0281841D01*
X0152950Y0281599D01*
X0153238Y0281351D01*
X0153520Y0281095D01*
X0153795Y0280832D01*
X0154064Y0280563D01*
X0154327Y0280288D01*
X0154583Y0280006D01*
X0154831Y0279718D01*
X0155073Y0279424D01*
X0155308Y0279125D01*
X0155535Y0278819D01*
X0155755Y0278509D01*
X0155968Y0278193D01*
X0156172Y0277872D01*
X0156369Y0277547D01*
X0156558Y0277216D01*
X0156739Y0276881D01*
X0156912Y0276542D01*
X0157076Y0276199D01*
X0157233Y0275852D01*
X0157380Y0275501D01*
X0157520Y0275147D01*
X0157650Y0274790D01*
X0157772Y0274429D01*
X0157885Y0274066D01*
X0157990Y0273700D01*
X0158085Y0273332D01*
X0158172Y0272961D01*
X0158250Y0272589D01*
X0158318Y0272214D01*
X0158378Y0271838D01*
X0158428Y0271461D01*
X0158469Y0271083D01*
X0158502Y0270704D01*
X0158525Y0270324D01*
X0158538Y0269944D01*
X0158543Y0269563D01*
X0158543Y0245547D01*
X0158543Y0128224D01*
X0158543Y0104209D01*
X0158538Y0103828D01*
X0158525Y0103448D01*
X0158502Y0103068D01*
X0158469Y0102689D01*
X0158428Y0102311D01*
X0158378Y0101934D01*
X0158318Y0101558D01*
X0158250Y0101183D01*
X0158172Y0100811D01*
X0158085Y0100440D01*
X0157990Y0100072D01*
X0157885Y0099706D01*
X0157772Y0099343D01*
X0157650Y0098982D01*
X0157520Y0098625D01*
X0157380Y0098271D01*
X0157233Y0097920D01*
X0157076Y0097573D01*
X0156912Y0097230D01*
X0156739Y0096891D01*
X0156558Y0096556D01*
X0156369Y0096225D01*
X0156172Y0095900D01*
X0155968Y0095579D01*
X0155755Y0095263D01*
X0155535Y0094953D01*
X0155308Y0094647D01*
X0155073Y0094348D01*
X0154831Y0094054D01*
X0154583Y0093766D01*
X0154327Y0093484D01*
X0154064Y0093209D01*
X0153795Y0092940D01*
X0153520Y0092677D01*
X0153238Y0092421D01*
X0152950Y0092173D01*
X0152656Y0091931D01*
X0152357Y0091696D01*
X0152051Y0091469D01*
X0151741Y0091249D01*
X0151425Y0091036D01*
X0151104Y0090832D01*
X0150779Y0090635D01*
X0150448Y0090446D01*
X0150113Y0090265D01*
X0149774Y0090092D01*
X0149431Y0089928D01*
X0149084Y0089771D01*
X0148733Y0089624D01*
X0148379Y0089484D01*
X0148022Y0089354D01*
X0147661Y0089232D01*
X0147298Y0089119D01*
X0146932Y0089014D01*
X0146564Y0088919D01*
X0146193Y0088832D01*
X0145821Y0088754D01*
X0145446Y0088686D01*
X0145070Y0088626D01*
X0144693Y0088576D01*
X0144315Y0088535D01*
X0143936Y0088502D01*
X0143556Y0088479D01*
X0143176Y0088466D01*
X0142795Y0088461D01*
X0118780Y0088461D01*
X0121535Y0088461D02*
X0117992Y0092004D01*
X0084921Y0092004D01*
X0081378Y0088461D01*
X0084134Y0088461D02*
X0060118Y0088461D01*
X0059737Y0088466D01*
X0059357Y0088479D01*
X0058977Y0088502D01*
X0058598Y0088535D01*
X0058220Y0088576D01*
X0057843Y0088626D01*
X0057467Y0088686D01*
X0057092Y0088754D01*
X0056720Y0088832D01*
X0056349Y0088919D01*
X0055981Y0089014D01*
X0055615Y0089119D01*
X0055252Y0089232D01*
X0054891Y0089354D01*
X0054534Y0089484D01*
X0054180Y0089624D01*
X0053829Y0089771D01*
X0053482Y0089928D01*
X0053139Y0090092D01*
X0052800Y0090265D01*
X0052465Y0090446D01*
X0052134Y0090635D01*
X0051809Y0090832D01*
X0051488Y0091036D01*
X0051172Y0091249D01*
X0050862Y0091469D01*
X0050556Y0091696D01*
X0050257Y0091931D01*
X0049963Y0092173D01*
X0049675Y0092421D01*
X0049393Y0092677D01*
X0049118Y0092940D01*
X0048849Y0093209D01*
X0048586Y0093484D01*
X0048330Y0093766D01*
X0048082Y0094054D01*
X0047840Y0094348D01*
X0047605Y0094647D01*
X0047378Y0094953D01*
X0047158Y0095263D01*
X0046945Y0095579D01*
X0046741Y0095900D01*
X0046544Y0096225D01*
X0046355Y0096556D01*
X0046174Y0096891D01*
X0046001Y0097230D01*
X0045837Y0097573D01*
X0045680Y0097920D01*
X0045533Y0098271D01*
X0045393Y0098625D01*
X0045263Y0098982D01*
X0045141Y0099343D01*
X0045028Y0099706D01*
X0044923Y0100072D01*
X0044828Y0100440D01*
X0044741Y0100811D01*
X0044663Y0101183D01*
X0044595Y0101558D01*
X0044535Y0101934D01*
X0044485Y0102311D01*
X0044444Y0102689D01*
X0044411Y0103068D01*
X0044388Y0103448D01*
X0044375Y0103828D01*
X0044370Y0104209D01*
X0016417Y0304996D02*
X0016419Y0305199D01*
X0016427Y0305402D01*
X0016439Y0305604D01*
X0016457Y0305806D01*
X0016479Y0306008D01*
X0016506Y0306209D01*
X0016539Y0306410D01*
X0016576Y0306609D01*
X0016618Y0306808D01*
X0016665Y0307005D01*
X0016716Y0307201D01*
X0016773Y0307396D01*
X0016834Y0307590D01*
X0016900Y0307781D01*
X0016971Y0307972D01*
X0017046Y0308160D01*
X0017126Y0308347D01*
X0017211Y0308531D01*
X0017300Y0308713D01*
X0017393Y0308894D01*
X0017491Y0309071D01*
X0017593Y0309247D01*
X0017700Y0309419D01*
X0017810Y0309589D01*
X0017925Y0309757D01*
X0018044Y0309921D01*
X0018167Y0310083D01*
X0018294Y0310241D01*
X0018424Y0310396D01*
X0018559Y0310548D01*
X0018697Y0310697D01*
X0018839Y0310842D01*
X0018984Y0310984D01*
X0019133Y0311122D01*
X0019285Y0311257D01*
X0019440Y0311387D01*
X0019598Y0311514D01*
X0019760Y0311637D01*
X0019924Y0311756D01*
X0020092Y0311871D01*
X0020262Y0311981D01*
X0020434Y0312088D01*
X0020610Y0312190D01*
X0020787Y0312288D01*
X0020968Y0312381D01*
X0021150Y0312470D01*
X0021334Y0312555D01*
X0021521Y0312635D01*
X0021709Y0312710D01*
X0021900Y0312781D01*
X0022091Y0312847D01*
X0022285Y0312908D01*
X0022480Y0312965D01*
X0022676Y0313016D01*
X0022873Y0313063D01*
X0023072Y0313105D01*
X0023271Y0313142D01*
X0023472Y0313175D01*
X0023673Y0313202D01*
X0023875Y0313224D01*
X0024077Y0313242D01*
X0024279Y0313254D01*
X0024482Y0313262D01*
X0024685Y0313264D01*
X0024888Y0313262D01*
X0025091Y0313254D01*
X0025293Y0313242D01*
X0025495Y0313224D01*
X0025697Y0313202D01*
X0025898Y0313175D01*
X0026099Y0313142D01*
X0026298Y0313105D01*
X0026497Y0313063D01*
X0026694Y0313016D01*
X0026890Y0312965D01*
X0027085Y0312908D01*
X0027279Y0312847D01*
X0027470Y0312781D01*
X0027661Y0312710D01*
X0027849Y0312635D01*
X0028036Y0312555D01*
X0028220Y0312470D01*
X0028402Y0312381D01*
X0028583Y0312288D01*
X0028760Y0312190D01*
X0028936Y0312088D01*
X0029108Y0311981D01*
X0029278Y0311871D01*
X0029446Y0311756D01*
X0029610Y0311637D01*
X0029772Y0311514D01*
X0029930Y0311387D01*
X0030085Y0311257D01*
X0030237Y0311122D01*
X0030386Y0310984D01*
X0030531Y0310842D01*
X0030673Y0310697D01*
X0030811Y0310548D01*
X0030946Y0310396D01*
X0031076Y0310241D01*
X0031203Y0310083D01*
X0031326Y0309921D01*
X0031445Y0309757D01*
X0031560Y0309589D01*
X0031670Y0309419D01*
X0031777Y0309247D01*
X0031879Y0309071D01*
X0031977Y0308894D01*
X0032070Y0308713D01*
X0032159Y0308531D01*
X0032244Y0308347D01*
X0032324Y0308160D01*
X0032399Y0307972D01*
X0032470Y0307781D01*
X0032536Y0307590D01*
X0032597Y0307396D01*
X0032654Y0307201D01*
X0032705Y0307005D01*
X0032752Y0306808D01*
X0032794Y0306609D01*
X0032831Y0306410D01*
X0032864Y0306209D01*
X0032891Y0306008D01*
X0032913Y0305806D01*
X0032931Y0305604D01*
X0032943Y0305402D01*
X0032951Y0305199D01*
X0032953Y0304996D01*
X0032951Y0304793D01*
X0032943Y0304590D01*
X0032931Y0304388D01*
X0032913Y0304186D01*
X0032891Y0303984D01*
X0032864Y0303783D01*
X0032831Y0303582D01*
X0032794Y0303383D01*
X0032752Y0303184D01*
X0032705Y0302987D01*
X0032654Y0302791D01*
X0032597Y0302596D01*
X0032536Y0302402D01*
X0032470Y0302211D01*
X0032399Y0302020D01*
X0032324Y0301832D01*
X0032244Y0301645D01*
X0032159Y0301461D01*
X0032070Y0301279D01*
X0031977Y0301098D01*
X0031879Y0300921D01*
X0031777Y0300745D01*
X0031670Y0300573D01*
X0031560Y0300403D01*
X0031445Y0300235D01*
X0031326Y0300071D01*
X0031203Y0299909D01*
X0031076Y0299751D01*
X0030946Y0299596D01*
X0030811Y0299444D01*
X0030673Y0299295D01*
X0030531Y0299150D01*
X0030386Y0299008D01*
X0030237Y0298870D01*
X0030085Y0298735D01*
X0029930Y0298605D01*
X0029772Y0298478D01*
X0029610Y0298355D01*
X0029446Y0298236D01*
X0029278Y0298121D01*
X0029108Y0298011D01*
X0028936Y0297904D01*
X0028760Y0297802D01*
X0028583Y0297704D01*
X0028402Y0297611D01*
X0028220Y0297522D01*
X0028036Y0297437D01*
X0027849Y0297357D01*
X0027661Y0297282D01*
X0027470Y0297211D01*
X0027279Y0297145D01*
X0027085Y0297084D01*
X0026890Y0297027D01*
X0026694Y0296976D01*
X0026497Y0296929D01*
X0026298Y0296887D01*
X0026099Y0296850D01*
X0025898Y0296817D01*
X0025697Y0296790D01*
X0025495Y0296768D01*
X0025293Y0296750D01*
X0025091Y0296738D01*
X0024888Y0296730D01*
X0024685Y0296728D01*
X0024482Y0296730D01*
X0024279Y0296738D01*
X0024077Y0296750D01*
X0023875Y0296768D01*
X0023673Y0296790D01*
X0023472Y0296817D01*
X0023271Y0296850D01*
X0023072Y0296887D01*
X0022873Y0296929D01*
X0022676Y0296976D01*
X0022480Y0297027D01*
X0022285Y0297084D01*
X0022091Y0297145D01*
X0021900Y0297211D01*
X0021709Y0297282D01*
X0021521Y0297357D01*
X0021334Y0297437D01*
X0021150Y0297522D01*
X0020968Y0297611D01*
X0020787Y0297704D01*
X0020610Y0297802D01*
X0020434Y0297904D01*
X0020262Y0298011D01*
X0020092Y0298121D01*
X0019924Y0298236D01*
X0019760Y0298355D01*
X0019598Y0298478D01*
X0019440Y0298605D01*
X0019285Y0298735D01*
X0019133Y0298870D01*
X0018984Y0299008D01*
X0018839Y0299150D01*
X0018697Y0299295D01*
X0018559Y0299444D01*
X0018424Y0299596D01*
X0018294Y0299751D01*
X0018167Y0299909D01*
X0018044Y0300071D01*
X0017925Y0300235D01*
X0017810Y0300403D01*
X0017700Y0300573D01*
X0017593Y0300745D01*
X0017491Y0300921D01*
X0017393Y0301098D01*
X0017300Y0301279D01*
X0017211Y0301461D01*
X0017126Y0301645D01*
X0017046Y0301832D01*
X0016971Y0302020D01*
X0016900Y0302211D01*
X0016834Y0302402D01*
X0016773Y0302596D01*
X0016716Y0302791D01*
X0016665Y0302987D01*
X0016618Y0303184D01*
X0016576Y0303383D01*
X0016539Y0303582D01*
X0016506Y0303783D01*
X0016479Y0303984D01*
X0016457Y0304186D01*
X0016439Y0304388D01*
X0016427Y0304590D01*
X0016419Y0304793D01*
X0016417Y0304996D01*
X0331378Y0304996D02*
X0331380Y0305199D01*
X0331388Y0305402D01*
X0331400Y0305604D01*
X0331418Y0305806D01*
X0331440Y0306008D01*
X0331467Y0306209D01*
X0331500Y0306410D01*
X0331537Y0306609D01*
X0331579Y0306808D01*
X0331626Y0307005D01*
X0331677Y0307201D01*
X0331734Y0307396D01*
X0331795Y0307590D01*
X0331861Y0307781D01*
X0331932Y0307972D01*
X0332007Y0308160D01*
X0332087Y0308347D01*
X0332172Y0308531D01*
X0332261Y0308713D01*
X0332354Y0308894D01*
X0332452Y0309071D01*
X0332554Y0309247D01*
X0332661Y0309419D01*
X0332771Y0309589D01*
X0332886Y0309757D01*
X0333005Y0309921D01*
X0333128Y0310083D01*
X0333255Y0310241D01*
X0333385Y0310396D01*
X0333520Y0310548D01*
X0333658Y0310697D01*
X0333800Y0310842D01*
X0333945Y0310984D01*
X0334094Y0311122D01*
X0334246Y0311257D01*
X0334401Y0311387D01*
X0334559Y0311514D01*
X0334721Y0311637D01*
X0334885Y0311756D01*
X0335053Y0311871D01*
X0335223Y0311981D01*
X0335395Y0312088D01*
X0335571Y0312190D01*
X0335748Y0312288D01*
X0335929Y0312381D01*
X0336111Y0312470D01*
X0336295Y0312555D01*
X0336482Y0312635D01*
X0336670Y0312710D01*
X0336861Y0312781D01*
X0337052Y0312847D01*
X0337246Y0312908D01*
X0337441Y0312965D01*
X0337637Y0313016D01*
X0337834Y0313063D01*
X0338033Y0313105D01*
X0338232Y0313142D01*
X0338433Y0313175D01*
X0338634Y0313202D01*
X0338836Y0313224D01*
X0339038Y0313242D01*
X0339240Y0313254D01*
X0339443Y0313262D01*
X0339646Y0313264D01*
X0339849Y0313262D01*
X0340052Y0313254D01*
X0340254Y0313242D01*
X0340456Y0313224D01*
X0340658Y0313202D01*
X0340859Y0313175D01*
X0341060Y0313142D01*
X0341259Y0313105D01*
X0341458Y0313063D01*
X0341655Y0313016D01*
X0341851Y0312965D01*
X0342046Y0312908D01*
X0342240Y0312847D01*
X0342431Y0312781D01*
X0342622Y0312710D01*
X0342810Y0312635D01*
X0342997Y0312555D01*
X0343181Y0312470D01*
X0343363Y0312381D01*
X0343544Y0312288D01*
X0343721Y0312190D01*
X0343897Y0312088D01*
X0344069Y0311981D01*
X0344239Y0311871D01*
X0344407Y0311756D01*
X0344571Y0311637D01*
X0344733Y0311514D01*
X0344891Y0311387D01*
X0345046Y0311257D01*
X0345198Y0311122D01*
X0345347Y0310984D01*
X0345492Y0310842D01*
X0345634Y0310697D01*
X0345772Y0310548D01*
X0345907Y0310396D01*
X0346037Y0310241D01*
X0346164Y0310083D01*
X0346287Y0309921D01*
X0346406Y0309757D01*
X0346521Y0309589D01*
X0346631Y0309419D01*
X0346738Y0309247D01*
X0346840Y0309071D01*
X0346938Y0308894D01*
X0347031Y0308713D01*
X0347120Y0308531D01*
X0347205Y0308347D01*
X0347285Y0308160D01*
X0347360Y0307972D01*
X0347431Y0307781D01*
X0347497Y0307590D01*
X0347558Y0307396D01*
X0347615Y0307201D01*
X0347666Y0307005D01*
X0347713Y0306808D01*
X0347755Y0306609D01*
X0347792Y0306410D01*
X0347825Y0306209D01*
X0347852Y0306008D01*
X0347874Y0305806D01*
X0347892Y0305604D01*
X0347904Y0305402D01*
X0347912Y0305199D01*
X0347914Y0304996D01*
X0347912Y0304793D01*
X0347904Y0304590D01*
X0347892Y0304388D01*
X0347874Y0304186D01*
X0347852Y0303984D01*
X0347825Y0303783D01*
X0347792Y0303582D01*
X0347755Y0303383D01*
X0347713Y0303184D01*
X0347666Y0302987D01*
X0347615Y0302791D01*
X0347558Y0302596D01*
X0347497Y0302402D01*
X0347431Y0302211D01*
X0347360Y0302020D01*
X0347285Y0301832D01*
X0347205Y0301645D01*
X0347120Y0301461D01*
X0347031Y0301279D01*
X0346938Y0301098D01*
X0346840Y0300921D01*
X0346738Y0300745D01*
X0346631Y0300573D01*
X0346521Y0300403D01*
X0346406Y0300235D01*
X0346287Y0300071D01*
X0346164Y0299909D01*
X0346037Y0299751D01*
X0345907Y0299596D01*
X0345772Y0299444D01*
X0345634Y0299295D01*
X0345492Y0299150D01*
X0345347Y0299008D01*
X0345198Y0298870D01*
X0345046Y0298735D01*
X0344891Y0298605D01*
X0344733Y0298478D01*
X0344571Y0298355D01*
X0344407Y0298236D01*
X0344239Y0298121D01*
X0344069Y0298011D01*
X0343897Y0297904D01*
X0343721Y0297802D01*
X0343544Y0297704D01*
X0343363Y0297611D01*
X0343181Y0297522D01*
X0342997Y0297437D01*
X0342810Y0297357D01*
X0342622Y0297282D01*
X0342431Y0297211D01*
X0342240Y0297145D01*
X0342046Y0297084D01*
X0341851Y0297027D01*
X0341655Y0296976D01*
X0341458Y0296929D01*
X0341259Y0296887D01*
X0341060Y0296850D01*
X0340859Y0296817D01*
X0340658Y0296790D01*
X0340456Y0296768D01*
X0340254Y0296750D01*
X0340052Y0296738D01*
X0339849Y0296730D01*
X0339646Y0296728D01*
X0339443Y0296730D01*
X0339240Y0296738D01*
X0339038Y0296750D01*
X0338836Y0296768D01*
X0338634Y0296790D01*
X0338433Y0296817D01*
X0338232Y0296850D01*
X0338033Y0296887D01*
X0337834Y0296929D01*
X0337637Y0296976D01*
X0337441Y0297027D01*
X0337246Y0297084D01*
X0337052Y0297145D01*
X0336861Y0297211D01*
X0336670Y0297282D01*
X0336482Y0297357D01*
X0336295Y0297437D01*
X0336111Y0297522D01*
X0335929Y0297611D01*
X0335748Y0297704D01*
X0335571Y0297802D01*
X0335395Y0297904D01*
X0335223Y0298011D01*
X0335053Y0298121D01*
X0334885Y0298236D01*
X0334721Y0298355D01*
X0334559Y0298478D01*
X0334401Y0298605D01*
X0334246Y0298735D01*
X0334094Y0298870D01*
X0333945Y0299008D01*
X0333800Y0299150D01*
X0333658Y0299295D01*
X0333520Y0299444D01*
X0333385Y0299596D01*
X0333255Y0299751D01*
X0333128Y0299909D01*
X0333005Y0300071D01*
X0332886Y0300235D01*
X0332771Y0300403D01*
X0332661Y0300573D01*
X0332554Y0300745D01*
X0332452Y0300921D01*
X0332354Y0301098D01*
X0332261Y0301279D01*
X0332172Y0301461D01*
X0332087Y0301645D01*
X0332007Y0301832D01*
X0331932Y0302020D01*
X0331861Y0302211D01*
X0331795Y0302402D01*
X0331734Y0302596D01*
X0331677Y0302791D01*
X0331626Y0302987D01*
X0331579Y0303184D01*
X0331537Y0303383D01*
X0331500Y0303582D01*
X0331467Y0303783D01*
X0331440Y0303984D01*
X0331418Y0304186D01*
X0331400Y0304388D01*
X0331388Y0304590D01*
X0331380Y0304793D01*
X0331378Y0304996D01*
X0331378Y0068776D02*
X0331380Y0068979D01*
X0331388Y0069182D01*
X0331400Y0069384D01*
X0331418Y0069586D01*
X0331440Y0069788D01*
X0331467Y0069989D01*
X0331500Y0070190D01*
X0331537Y0070389D01*
X0331579Y0070588D01*
X0331626Y0070785D01*
X0331677Y0070981D01*
X0331734Y0071176D01*
X0331795Y0071370D01*
X0331861Y0071561D01*
X0331932Y0071752D01*
X0332007Y0071940D01*
X0332087Y0072127D01*
X0332172Y0072311D01*
X0332261Y0072493D01*
X0332354Y0072674D01*
X0332452Y0072851D01*
X0332554Y0073027D01*
X0332661Y0073199D01*
X0332771Y0073369D01*
X0332886Y0073537D01*
X0333005Y0073701D01*
X0333128Y0073863D01*
X0333255Y0074021D01*
X0333385Y0074176D01*
X0333520Y0074328D01*
X0333658Y0074477D01*
X0333800Y0074622D01*
X0333945Y0074764D01*
X0334094Y0074902D01*
X0334246Y0075037D01*
X0334401Y0075167D01*
X0334559Y0075294D01*
X0334721Y0075417D01*
X0334885Y0075536D01*
X0335053Y0075651D01*
X0335223Y0075761D01*
X0335395Y0075868D01*
X0335571Y0075970D01*
X0335748Y0076068D01*
X0335929Y0076161D01*
X0336111Y0076250D01*
X0336295Y0076335D01*
X0336482Y0076415D01*
X0336670Y0076490D01*
X0336861Y0076561D01*
X0337052Y0076627D01*
X0337246Y0076688D01*
X0337441Y0076745D01*
X0337637Y0076796D01*
X0337834Y0076843D01*
X0338033Y0076885D01*
X0338232Y0076922D01*
X0338433Y0076955D01*
X0338634Y0076982D01*
X0338836Y0077004D01*
X0339038Y0077022D01*
X0339240Y0077034D01*
X0339443Y0077042D01*
X0339646Y0077044D01*
X0339849Y0077042D01*
X0340052Y0077034D01*
X0340254Y0077022D01*
X0340456Y0077004D01*
X0340658Y0076982D01*
X0340859Y0076955D01*
X0341060Y0076922D01*
X0341259Y0076885D01*
X0341458Y0076843D01*
X0341655Y0076796D01*
X0341851Y0076745D01*
X0342046Y0076688D01*
X0342240Y0076627D01*
X0342431Y0076561D01*
X0342622Y0076490D01*
X0342810Y0076415D01*
X0342997Y0076335D01*
X0343181Y0076250D01*
X0343363Y0076161D01*
X0343544Y0076068D01*
X0343721Y0075970D01*
X0343897Y0075868D01*
X0344069Y0075761D01*
X0344239Y0075651D01*
X0344407Y0075536D01*
X0344571Y0075417D01*
X0344733Y0075294D01*
X0344891Y0075167D01*
X0345046Y0075037D01*
X0345198Y0074902D01*
X0345347Y0074764D01*
X0345492Y0074622D01*
X0345634Y0074477D01*
X0345772Y0074328D01*
X0345907Y0074176D01*
X0346037Y0074021D01*
X0346164Y0073863D01*
X0346287Y0073701D01*
X0346406Y0073537D01*
X0346521Y0073369D01*
X0346631Y0073199D01*
X0346738Y0073027D01*
X0346840Y0072851D01*
X0346938Y0072674D01*
X0347031Y0072493D01*
X0347120Y0072311D01*
X0347205Y0072127D01*
X0347285Y0071940D01*
X0347360Y0071752D01*
X0347431Y0071561D01*
X0347497Y0071370D01*
X0347558Y0071176D01*
X0347615Y0070981D01*
X0347666Y0070785D01*
X0347713Y0070588D01*
X0347755Y0070389D01*
X0347792Y0070190D01*
X0347825Y0069989D01*
X0347852Y0069788D01*
X0347874Y0069586D01*
X0347892Y0069384D01*
X0347904Y0069182D01*
X0347912Y0068979D01*
X0347914Y0068776D01*
X0347912Y0068573D01*
X0347904Y0068370D01*
X0347892Y0068168D01*
X0347874Y0067966D01*
X0347852Y0067764D01*
X0347825Y0067563D01*
X0347792Y0067362D01*
X0347755Y0067163D01*
X0347713Y0066964D01*
X0347666Y0066767D01*
X0347615Y0066571D01*
X0347558Y0066376D01*
X0347497Y0066182D01*
X0347431Y0065991D01*
X0347360Y0065800D01*
X0347285Y0065612D01*
X0347205Y0065425D01*
X0347120Y0065241D01*
X0347031Y0065059D01*
X0346938Y0064878D01*
X0346840Y0064701D01*
X0346738Y0064525D01*
X0346631Y0064353D01*
X0346521Y0064183D01*
X0346406Y0064015D01*
X0346287Y0063851D01*
X0346164Y0063689D01*
X0346037Y0063531D01*
X0345907Y0063376D01*
X0345772Y0063224D01*
X0345634Y0063075D01*
X0345492Y0062930D01*
X0345347Y0062788D01*
X0345198Y0062650D01*
X0345046Y0062515D01*
X0344891Y0062385D01*
X0344733Y0062258D01*
X0344571Y0062135D01*
X0344407Y0062016D01*
X0344239Y0061901D01*
X0344069Y0061791D01*
X0343897Y0061684D01*
X0343721Y0061582D01*
X0343544Y0061484D01*
X0343363Y0061391D01*
X0343181Y0061302D01*
X0342997Y0061217D01*
X0342810Y0061137D01*
X0342622Y0061062D01*
X0342431Y0060991D01*
X0342240Y0060925D01*
X0342046Y0060864D01*
X0341851Y0060807D01*
X0341655Y0060756D01*
X0341458Y0060709D01*
X0341259Y0060667D01*
X0341060Y0060630D01*
X0340859Y0060597D01*
X0340658Y0060570D01*
X0340456Y0060548D01*
X0340254Y0060530D01*
X0340052Y0060518D01*
X0339849Y0060510D01*
X0339646Y0060508D01*
X0339443Y0060510D01*
X0339240Y0060518D01*
X0339038Y0060530D01*
X0338836Y0060548D01*
X0338634Y0060570D01*
X0338433Y0060597D01*
X0338232Y0060630D01*
X0338033Y0060667D01*
X0337834Y0060709D01*
X0337637Y0060756D01*
X0337441Y0060807D01*
X0337246Y0060864D01*
X0337052Y0060925D01*
X0336861Y0060991D01*
X0336670Y0061062D01*
X0336482Y0061137D01*
X0336295Y0061217D01*
X0336111Y0061302D01*
X0335929Y0061391D01*
X0335748Y0061484D01*
X0335571Y0061582D01*
X0335395Y0061684D01*
X0335223Y0061791D01*
X0335053Y0061901D01*
X0334885Y0062016D01*
X0334721Y0062135D01*
X0334559Y0062258D01*
X0334401Y0062385D01*
X0334246Y0062515D01*
X0334094Y0062650D01*
X0333945Y0062788D01*
X0333800Y0062930D01*
X0333658Y0063075D01*
X0333520Y0063224D01*
X0333385Y0063376D01*
X0333255Y0063531D01*
X0333128Y0063689D01*
X0333005Y0063851D01*
X0332886Y0064015D01*
X0332771Y0064183D01*
X0332661Y0064353D01*
X0332554Y0064525D01*
X0332452Y0064701D01*
X0332354Y0064878D01*
X0332261Y0065059D01*
X0332172Y0065241D01*
X0332087Y0065425D01*
X0332007Y0065612D01*
X0331932Y0065800D01*
X0331861Y0065991D01*
X0331795Y0066182D01*
X0331734Y0066376D01*
X0331677Y0066571D01*
X0331626Y0066767D01*
X0331579Y0066964D01*
X0331537Y0067163D01*
X0331500Y0067362D01*
X0331467Y0067563D01*
X0331440Y0067764D01*
X0331418Y0067966D01*
X0331400Y0068168D01*
X0331388Y0068370D01*
X0331380Y0068573D01*
X0331378Y0068776D01*
D11*
X0319961Y0049091D02*
X0319961Y0324681D01*
X0359331Y0289248D02*
X0005000Y0289248D01*
X0044370Y0324681D02*
X0044370Y0049091D01*
X0005000Y0088461D02*
X0359331Y0088461D01*
X0205787Y0049091D02*
X0205787Y0324681D01*
X0158543Y0324681D02*
X0158543Y0049091D01*
D12*
X0032305Y0033122D02*
X0030370Y0031187D01*
X0028435Y0033122D01*
X0028435Y0036992D01*
X0032305Y0036992D02*
X0032305Y0033122D01*
X0034880Y0034089D02*
X0038750Y0034089D01*
X0041326Y0032154D02*
X0042293Y0031187D01*
X0044228Y0031187D01*
X0045196Y0032154D01*
X0047771Y0032154D02*
X0048739Y0031187D01*
X0050674Y0031187D01*
X0051641Y0032154D01*
X0051641Y0036992D01*
X0054217Y0036992D02*
X0058087Y0036992D01*
X0056152Y0036992D02*
X0056152Y0031187D01*
X0047771Y0032154D02*
X0047771Y0036992D01*
X0045196Y0036024D02*
X0044228Y0036992D01*
X0042293Y0036992D01*
X0041326Y0036024D01*
X0041326Y0032154D01*
X0130797Y0033909D02*
X0132732Y0031974D01*
X0134667Y0033909D01*
X0134667Y0037779D01*
X0130797Y0037779D02*
X0130797Y0033909D01*
X0137242Y0034876D02*
X0141112Y0034876D01*
X0143688Y0032941D02*
X0144655Y0031974D01*
X0146590Y0031974D01*
X0147558Y0032941D01*
X0150133Y0032941D02*
X0151101Y0031974D01*
X0153036Y0031974D01*
X0154003Y0032941D01*
X0154003Y0037779D01*
X0156579Y0037779D02*
X0160449Y0037779D01*
X0158514Y0037779D02*
X0158514Y0031974D01*
X0150133Y0032941D02*
X0150133Y0037779D01*
X0147558Y0036811D02*
X0146590Y0037779D01*
X0144655Y0037779D01*
X0143688Y0036811D01*
X0143688Y0032941D01*
X0203238Y0033122D02*
X0205173Y0031187D01*
X0207108Y0033122D01*
X0207108Y0036992D01*
X0203238Y0036992D02*
X0203238Y0033122D01*
X0209683Y0034089D02*
X0213553Y0034089D01*
X0216129Y0032154D02*
X0217096Y0031187D01*
X0219031Y0031187D01*
X0219999Y0032154D01*
X0222574Y0032154D02*
X0223542Y0031187D01*
X0225477Y0031187D01*
X0226444Y0032154D01*
X0226444Y0036992D01*
X0229020Y0036992D02*
X0232890Y0036992D01*
X0230955Y0036992D02*
X0230955Y0031187D01*
X0222574Y0032154D02*
X0222574Y0036992D01*
X0219999Y0036024D02*
X0219031Y0036992D01*
X0217096Y0036992D01*
X0216129Y0036024D01*
X0216129Y0032154D01*
X0308356Y0034303D02*
X0310291Y0032368D01*
X0312226Y0034303D01*
X0312226Y0038173D01*
X0308356Y0038173D02*
X0308356Y0034303D01*
X0314801Y0035270D02*
X0318671Y0035270D01*
X0321247Y0033335D02*
X0322214Y0032368D01*
X0324149Y0032368D01*
X0325117Y0033335D01*
X0327692Y0033335D02*
X0327692Y0038173D01*
X0325117Y0037205D02*
X0324149Y0038173D01*
X0322214Y0038173D01*
X0321247Y0037205D01*
X0321247Y0033335D01*
X0327692Y0033335D02*
X0328660Y0032368D01*
X0330595Y0032368D01*
X0331562Y0033335D01*
X0331562Y0038173D01*
X0334138Y0038173D02*
X0338008Y0038173D01*
X0336073Y0038173D02*
X0336073Y0032368D01*
X0374464Y0085911D02*
X0376399Y0087846D01*
X0376399Y0091716D01*
X0372529Y0091716D02*
X0372529Y0087846D01*
X0374464Y0085911D01*
X0378975Y0088813D02*
X0382845Y0088813D01*
X0385420Y0086879D02*
X0385420Y0090748D01*
X0386388Y0091716D01*
X0388323Y0091716D01*
X0389290Y0090748D01*
X0391866Y0091716D02*
X0391866Y0086879D01*
X0392833Y0085911D01*
X0394768Y0085911D01*
X0395736Y0086879D01*
X0395736Y0091716D01*
X0398311Y0091716D02*
X0402181Y0091716D01*
X0400246Y0091716D02*
X0400246Y0085911D01*
X0389290Y0086879D02*
X0388323Y0085911D01*
X0386388Y0085911D01*
X0385420Y0086879D01*
X0385994Y0286698D02*
X0387929Y0286698D01*
X0388896Y0287666D01*
X0391472Y0287666D02*
X0391472Y0292503D01*
X0388896Y0291536D02*
X0387929Y0292503D01*
X0385994Y0292503D01*
X0385026Y0291536D01*
X0385026Y0287666D01*
X0385994Y0286698D01*
X0382451Y0289601D02*
X0378581Y0289601D01*
X0376005Y0288633D02*
X0376005Y0292503D01*
X0372135Y0292503D02*
X0372135Y0288633D01*
X0374070Y0286698D01*
X0376005Y0288633D01*
X0391472Y0287666D02*
X0392439Y0286698D01*
X0394374Y0286698D01*
X0395342Y0287666D01*
X0395342Y0292503D01*
X0397917Y0292503D02*
X0401787Y0292503D01*
X0399852Y0292503D02*
X0399852Y0286698D01*
D13*
X0367992Y0289248D02*
X0360906Y0289248D01*
X0362874Y0291217D01*
X0362874Y0287280D01*
X0360906Y0289248D01*
X0363268Y0090429D02*
X0361299Y0088461D01*
X0368386Y0088461D01*
X0363268Y0086492D02*
X0363268Y0090429D01*
X0361299Y0088461D02*
X0363268Y0086492D01*
X0321929Y0045154D02*
X0319961Y0047122D01*
X0319961Y0040035D01*
X0317992Y0045154D02*
X0321929Y0045154D01*
X0319961Y0047122D02*
X0317992Y0045154D01*
X0207756Y0045547D02*
X0205787Y0047516D01*
X0205787Y0040429D01*
X0203819Y0045547D02*
X0207756Y0045547D01*
X0205787Y0047516D02*
X0203819Y0045547D01*
X0160512Y0045547D02*
X0158543Y0047516D01*
X0158543Y0040429D01*
X0156575Y0045547D02*
X0160512Y0045547D01*
X0158543Y0047516D02*
X0156575Y0045547D01*
X0046339Y0045547D02*
X0044370Y0047516D01*
X0044370Y0040429D01*
X0042402Y0045547D02*
X0046339Y0045547D01*
X0044370Y0047516D02*
X0042402Y0045547D01*
D14*
X0060118Y0084524D02*
X0080197Y0084524D01*
X0082953Y0084524D02*
X0077047Y0084524D01*
X0082953Y0084524D02*
X0086496Y0088067D01*
X0116417Y0088067D01*
X0119961Y0084524D01*
X0127441Y0084524D01*
X0122717Y0084524D02*
X0142795Y0084524D01*
X0143271Y0084530D01*
X0143746Y0084547D01*
X0144221Y0084576D01*
X0144695Y0084616D01*
X0145168Y0084668D01*
X0145639Y0084731D01*
X0146109Y0084805D01*
X0146577Y0084891D01*
X0147043Y0084988D01*
X0147506Y0085096D01*
X0147966Y0085215D01*
X0148424Y0085346D01*
X0148878Y0085487D01*
X0149329Y0085640D01*
X0149775Y0085803D01*
X0150218Y0085977D01*
X0150656Y0086162D01*
X0151090Y0086357D01*
X0151519Y0086563D01*
X0151943Y0086779D01*
X0152362Y0087005D01*
X0152775Y0087241D01*
X0153182Y0087487D01*
X0153583Y0087743D01*
X0153977Y0088009D01*
X0154366Y0088284D01*
X0154747Y0088568D01*
X0155121Y0088861D01*
X0155489Y0089163D01*
X0155849Y0089475D01*
X0156201Y0089794D01*
X0156545Y0090122D01*
X0156882Y0090459D01*
X0157210Y0090803D01*
X0157529Y0091155D01*
X0157841Y0091515D01*
X0158143Y0091883D01*
X0158436Y0092257D01*
X0158720Y0092638D01*
X0158995Y0093027D01*
X0159261Y0093421D01*
X0159517Y0093822D01*
X0159763Y0094229D01*
X0159999Y0094642D01*
X0160225Y0095061D01*
X0160441Y0095485D01*
X0160647Y0095914D01*
X0160842Y0096348D01*
X0161027Y0096786D01*
X0161201Y0097229D01*
X0161364Y0097675D01*
X0161517Y0098126D01*
X0161658Y0098580D01*
X0161789Y0099038D01*
X0161908Y0099498D01*
X0162016Y0099961D01*
X0162113Y0100427D01*
X0162199Y0100895D01*
X0162273Y0101365D01*
X0162336Y0101836D01*
X0162388Y0102309D01*
X0162428Y0102783D01*
X0162457Y0103258D01*
X0162474Y0103733D01*
X0162480Y0104209D01*
X0162480Y0124287D01*
X0060118Y0084524D02*
X0059642Y0084530D01*
X0059167Y0084547D01*
X0058692Y0084576D01*
X0058218Y0084616D01*
X0057745Y0084668D01*
X0057274Y0084731D01*
X0056804Y0084805D01*
X0056336Y0084891D01*
X0055870Y0084988D01*
X0055407Y0085096D01*
X0054947Y0085215D01*
X0054489Y0085346D01*
X0054035Y0085487D01*
X0053584Y0085640D01*
X0053138Y0085803D01*
X0052695Y0085977D01*
X0052257Y0086162D01*
X0051823Y0086357D01*
X0051394Y0086563D01*
X0050970Y0086779D01*
X0050551Y0087005D01*
X0050138Y0087241D01*
X0049731Y0087487D01*
X0049330Y0087743D01*
X0048936Y0088009D01*
X0048547Y0088284D01*
X0048166Y0088568D01*
X0047792Y0088861D01*
X0047424Y0089163D01*
X0047064Y0089475D01*
X0046712Y0089794D01*
X0046368Y0090122D01*
X0046031Y0090459D01*
X0045703Y0090803D01*
X0045384Y0091155D01*
X0045072Y0091515D01*
X0044770Y0091883D01*
X0044477Y0092257D01*
X0044193Y0092638D01*
X0043918Y0093027D01*
X0043652Y0093421D01*
X0043396Y0093822D01*
X0043150Y0094229D01*
X0042914Y0094642D01*
X0042688Y0095061D01*
X0042472Y0095485D01*
X0042266Y0095914D01*
X0042071Y0096348D01*
X0041886Y0096786D01*
X0041712Y0097229D01*
X0041549Y0097675D01*
X0041396Y0098126D01*
X0041255Y0098580D01*
X0041124Y0099038D01*
X0041005Y0099498D01*
X0040897Y0099961D01*
X0040800Y0100427D01*
X0040714Y0100895D01*
X0040640Y0101365D01*
X0040577Y0101836D01*
X0040525Y0102309D01*
X0040485Y0102783D01*
X0040456Y0103258D01*
X0040439Y0103733D01*
X0040433Y0104209D01*
X0040433Y0124287D01*
X0040433Y0249484D02*
X0040433Y0269563D01*
X0040439Y0270039D01*
X0040456Y0270514D01*
X0040485Y0270989D01*
X0040525Y0271463D01*
X0040577Y0271936D01*
X0040640Y0272407D01*
X0040714Y0272877D01*
X0040800Y0273345D01*
X0040897Y0273811D01*
X0041005Y0274274D01*
X0041124Y0274734D01*
X0041255Y0275192D01*
X0041396Y0275646D01*
X0041549Y0276097D01*
X0041712Y0276543D01*
X0041886Y0276986D01*
X0042071Y0277424D01*
X0042266Y0277858D01*
X0042472Y0278287D01*
X0042688Y0278711D01*
X0042914Y0279130D01*
X0043150Y0279543D01*
X0043396Y0279950D01*
X0043652Y0280351D01*
X0043918Y0280745D01*
X0044193Y0281134D01*
X0044477Y0281515D01*
X0044770Y0281889D01*
X0045072Y0282257D01*
X0045384Y0282617D01*
X0045703Y0282969D01*
X0046031Y0283313D01*
X0046368Y0283650D01*
X0046712Y0283978D01*
X0047064Y0284297D01*
X0047424Y0284609D01*
X0047792Y0284911D01*
X0048166Y0285204D01*
X0048547Y0285488D01*
X0048936Y0285763D01*
X0049330Y0286029D01*
X0049731Y0286285D01*
X0050138Y0286531D01*
X0050551Y0286767D01*
X0050970Y0286993D01*
X0051394Y0287209D01*
X0051823Y0287415D01*
X0052257Y0287610D01*
X0052695Y0287795D01*
X0053138Y0287969D01*
X0053584Y0288132D01*
X0054035Y0288285D01*
X0054489Y0288426D01*
X0054947Y0288557D01*
X0055407Y0288676D01*
X0055870Y0288784D01*
X0056336Y0288881D01*
X0056804Y0288967D01*
X0057274Y0289041D01*
X0057745Y0289104D01*
X0058218Y0289156D01*
X0058692Y0289196D01*
X0059167Y0289225D01*
X0059642Y0289242D01*
X0060118Y0289248D01*
X0080197Y0289248D01*
X0122717Y0289248D02*
X0142795Y0289248D01*
X0143271Y0289242D01*
X0143746Y0289225D01*
X0144221Y0289196D01*
X0144695Y0289156D01*
X0145168Y0289104D01*
X0145639Y0289041D01*
X0146109Y0288967D01*
X0146577Y0288881D01*
X0147043Y0288784D01*
X0147506Y0288676D01*
X0147966Y0288557D01*
X0148424Y0288426D01*
X0148878Y0288285D01*
X0149329Y0288132D01*
X0149775Y0287969D01*
X0150218Y0287795D01*
X0150656Y0287610D01*
X0151090Y0287415D01*
X0151519Y0287209D01*
X0151943Y0286993D01*
X0152362Y0286767D01*
X0152775Y0286531D01*
X0153182Y0286285D01*
X0153583Y0286029D01*
X0153977Y0285763D01*
X0154366Y0285488D01*
X0154747Y0285204D01*
X0155121Y0284911D01*
X0155489Y0284609D01*
X0155849Y0284297D01*
X0156201Y0283978D01*
X0156545Y0283650D01*
X0156882Y0283313D01*
X0157210Y0282969D01*
X0157529Y0282617D01*
X0157841Y0282257D01*
X0158143Y0281889D01*
X0158436Y0281515D01*
X0158720Y0281134D01*
X0158995Y0280745D01*
X0159261Y0280351D01*
X0159517Y0279950D01*
X0159763Y0279543D01*
X0159999Y0279130D01*
X0160225Y0278711D01*
X0160441Y0278287D01*
X0160647Y0277858D01*
X0160842Y0277424D01*
X0161027Y0276986D01*
X0161201Y0276543D01*
X0161364Y0276097D01*
X0161517Y0275646D01*
X0161658Y0275192D01*
X0161789Y0274734D01*
X0161908Y0274274D01*
X0162016Y0273811D01*
X0162113Y0273345D01*
X0162199Y0272877D01*
X0162273Y0272407D01*
X0162336Y0271936D01*
X0162388Y0271463D01*
X0162428Y0270989D01*
X0162457Y0270514D01*
X0162474Y0270039D01*
X0162480Y0269563D01*
X0162480Y0249484D01*
D15*
X0110240Y0110292D02*
X0110350Y0110236D01*
X0110437Y0110149D01*
X0110493Y0110039D01*
X0110512Y0109917D01*
X0110512Y0109130D01*
X0110493Y0109008D01*
X0110437Y0108899D01*
X0110350Y0108811D01*
X0110240Y0108755D01*
X0110118Y0108736D01*
X0109996Y0108755D01*
X0109887Y0108811D01*
X0109800Y0108899D01*
X0109744Y0109008D01*
X0109724Y0109130D01*
X0109724Y0109917D01*
X0109744Y0110039D01*
X0109800Y0110149D01*
X0109887Y0110236D01*
X0109996Y0110292D01*
X0110118Y0110311D01*
X0110240Y0110292D01*
X0110478Y0110068D02*
X0109758Y0110068D01*
X0093189Y0109917D02*
X0093189Y0109130D01*
X0093170Y0109008D01*
X0093114Y0108899D01*
X0093027Y0108811D01*
X0092917Y0108755D01*
X0092795Y0108736D01*
X0092674Y0108755D01*
X0092564Y0108811D01*
X0092477Y0108899D01*
X0092421Y0109008D01*
X0092402Y0109130D01*
X0092402Y0109917D01*
X0092421Y0110039D01*
X0092477Y0110149D01*
X0092564Y0110236D01*
X0092674Y0110292D01*
X0092795Y0110311D01*
X0092917Y0110292D01*
X0093027Y0110236D01*
X0093114Y0110149D01*
X0093170Y0110039D01*
X0093189Y0109917D01*
X0093155Y0110068D02*
X0092436Y0110068D01*
D16*
X0084921Y0099484D02*
X0084921Y0095941D01*
X0117992Y0095941D02*
X0117992Y0099484D01*
M02*
