G75*
%MOIN*%
%OFA0B0*%
%FSLAX24Y24*%
%IPPOS*%
%LPD*%
%AMOC8*
5,1,8,0,0,1.08239X$1,22.5*
%
%ADD10R,0.0276X0.0157*%
%ADD11R,0.0157X0.0157*%
%ADD12R,0.0157X0.0276*%
%ADD13R,0.0592X0.0789*%
%ADD14R,0.0315X0.0315*%
%ADD15OC8,0.0789*%
%ADD16C,0.1340*%
%ADD17R,0.1378X0.1378*%
%ADD18R,0.0138X0.0492*%
%ADD19R,0.0492X0.0138*%
%ADD20C,0.0395*%
%ADD21C,0.0552*%
%ADD22R,0.0474X0.0474*%
%ADD23R,0.0512X0.0591*%
%ADD24R,0.0197X0.0315*%
%ADD25R,0.0552X0.0316*%
%ADD26OC8,0.0671*%
%ADD27R,0.0472X0.0315*%
%ADD28C,0.0907*%
D10*
X020487Y009175D03*
X020487Y009431D03*
X020487Y009687D03*
X020487Y009943D03*
X020487Y010198D03*
X020487Y010454D03*
X020487Y010710D03*
X021747Y010710D03*
X021747Y010454D03*
X021747Y010198D03*
X021747Y009943D03*
X021747Y009687D03*
X021747Y009431D03*
X021747Y009175D03*
D11*
X021186Y009175D03*
X020930Y009175D03*
X021186Y010710D03*
D12*
X021186Y010336D03*
X020930Y010336D03*
X020930Y009943D03*
X021186Y009943D03*
X021186Y009549D03*
X020930Y009549D03*
X020940Y008801D03*
X020704Y008801D03*
X020468Y008801D03*
X021176Y008801D03*
X021413Y008801D03*
X021649Y008801D03*
X022948Y008801D03*
X022948Y011084D03*
X021649Y011084D03*
X021413Y011084D03*
X021176Y011084D03*
X020940Y011084D03*
X020704Y011084D03*
X020468Y011084D03*
D13*
X020684Y007895D03*
X019661Y007895D03*
D14*
X019464Y008998D03*
X019936Y008998D03*
X016472Y009903D03*
X015999Y009903D03*
X015999Y010415D03*
X016472Y010415D03*
X015094Y010179D03*
X014503Y010179D03*
X014503Y009706D03*
X015094Y009706D03*
X013716Y009706D03*
X013716Y010179D03*
X012928Y010179D03*
X012928Y009706D03*
X012141Y009706D03*
X012141Y010179D03*
X011550Y010179D03*
X011550Y009706D03*
X009267Y008565D03*
X008794Y008565D03*
X008794Y008092D03*
X008794Y007620D03*
X009267Y007620D03*
X009267Y008092D03*
X009267Y007147D03*
X009661Y007147D03*
X010133Y007147D03*
X008794Y007147D03*
X014700Y011478D03*
X014700Y011950D03*
X013952Y013092D03*
X013480Y013092D03*
X011314Y012187D03*
X011314Y011714D03*
X014976Y008053D03*
X015448Y008053D03*
D15*
X016009Y011517D03*
X016009Y013486D03*
X018509Y013486D03*
X018509Y011517D03*
X010635Y013486D03*
X008135Y013486D03*
D16*
X005054Y005415D03*
X005054Y014470D03*
X021590Y014470D03*
X021590Y005415D03*
D17*
X013322Y008053D03*
D18*
X013224Y009096D03*
X013420Y009096D03*
X013617Y009096D03*
X013814Y009096D03*
X014011Y009096D03*
X013027Y009096D03*
X012830Y009096D03*
X012633Y009096D03*
X012633Y007009D03*
X012830Y007009D03*
X013027Y007009D03*
X013224Y007009D03*
X013420Y007009D03*
X013617Y007009D03*
X013814Y007009D03*
X014011Y007009D03*
D19*
X014365Y007364D03*
X014365Y007561D03*
X014365Y007757D03*
X014365Y007954D03*
X014365Y008151D03*
X014365Y008348D03*
X014365Y008545D03*
X014365Y008742D03*
X012279Y008742D03*
X012279Y008545D03*
X012279Y008348D03*
X012279Y008151D03*
X012279Y007954D03*
X012279Y007757D03*
X012279Y007561D03*
X012279Y007364D03*
D20*
X007062Y009313D03*
X006590Y009628D03*
X007062Y009943D03*
X006590Y010257D03*
X007062Y010572D03*
D21*
X006983Y011399D02*
X006511Y011399D01*
X005094Y011399D02*
X004621Y011399D01*
X004621Y008486D02*
X005094Y008486D01*
X006511Y008486D02*
X006983Y008486D01*
D22*
X008007Y010158D03*
X008007Y010908D03*
X010763Y010908D03*
X010763Y010158D03*
D23*
X013381Y011458D03*
X014050Y011458D03*
X014050Y012364D03*
X013381Y012364D03*
D24*
X012357Y012364D03*
X011846Y012364D03*
X011846Y011537D03*
X012102Y011537D03*
X012357Y011537D03*
D25*
X010054Y010868D03*
X010054Y010120D03*
X008798Y010120D03*
X008798Y010494D03*
X008798Y010868D03*
D26*
X008822Y005021D03*
X007822Y005021D03*
X009822Y005021D03*
X010822Y005021D03*
X011822Y005021D03*
X012822Y005021D03*
X013822Y005021D03*
X014822Y005021D03*
X015822Y005021D03*
X016822Y005021D03*
X017822Y005021D03*
X018822Y005021D03*
D27*
X011570Y006891D03*
X011570Y007403D03*
X010665Y007147D03*
D28*
X013322Y008053D03*
M02*
