%
M48
M72
T01C0.0118
T02C0.0197
T03C0.0315
T04C0.0394
T05C0.0472
T06C0.0551
T07C0.1260
%
T01
X8519Y7147
X8519Y8565
X8007Y9824
X9424Y10494
X10763Y9824
X11550Y10494
X11865Y10179
X11196Y10769
X11196Y11006
X10960Y11714
X11314Y12462
X12338Y12698
X12338Y11242
X12928Y10454
X12653Y9706
X13991Y10179
X14779Y10179
X17062Y9391
X17653Y9628
X18165Y9864
X18716Y10415
X19897Y9667
X20094Y9943
X20802Y10139
X20802Y9746
X21432Y9943
X21432Y10336
X21472Y10691
X21826Y10927
X21787Y11596
X21787Y11990
X21787Y12383
X21787Y12777
X21787Y13171
X20606Y11517
X20330Y11084
X21432Y9549
X21393Y9155
X20330Y8761
X19936Y8643
X19464Y9273
X21787Y8289
X21787Y7895
X21787Y7502
X21787Y7108
X21787Y6714
X15724Y8053
X14976Y8328
X11196Y8407
X11196Y7383
X14700Y12226
X14503Y12856
X14228Y13092
T02
X7062Y10572
X6590Y10257
X7062Y9943
X6590Y9628
X7062Y9313
T03
X6747Y8486
X4857Y8486
X4857Y11399
X6747Y11399
T04
X7822Y5021
X8822Y5021
X9822Y5021
X10822Y5021
X11822Y5021
X12822Y5021
X13822Y5021
X14822Y5021
X15822Y5021
X16822Y5021
X17822Y5021
X18822Y5021
T05
X18509Y11517
X18509Y13486
X16009Y13486
X16009Y11517
X10635Y13486
X8135Y13486
T06
X13322Y8053
T07
X5054Y5415
X5054Y14470
X21590Y14470
X21590Y5415
M30
