G75*
%MOIN*%
%OFA0B0*%
%FSLAX24Y24*%
%IPPOS*%
%LPD*%
%AMOC8*
5,1,8,0,0,1.08239X$1,22.5*
%
%ADD10C,0.0000*%
%ADD11C,0.0008*%
D10*
X003480Y000100D02*
X003480Y003840D01*
X023165Y003840D01*
X023165Y000100D01*
X003480Y000100D01*
X003480Y003840D02*
X003480Y016045D01*
X023165Y016045D01*
X023165Y003840D01*
X021590Y003840D02*
X005054Y003840D01*
X004424Y005415D02*
X004426Y005465D01*
X004432Y005515D01*
X004442Y005564D01*
X004456Y005612D01*
X004473Y005659D01*
X004494Y005704D01*
X004519Y005748D01*
X004547Y005789D01*
X004579Y005828D01*
X004613Y005865D01*
X004650Y005899D01*
X004690Y005929D01*
X004732Y005956D01*
X004776Y005980D01*
X004822Y006001D01*
X004869Y006017D01*
X004917Y006030D01*
X004967Y006039D01*
X005016Y006044D01*
X005067Y006045D01*
X005117Y006042D01*
X005166Y006035D01*
X005215Y006024D01*
X005263Y006009D01*
X005309Y005991D01*
X005354Y005969D01*
X005397Y005943D01*
X005438Y005914D01*
X005477Y005882D01*
X005513Y005847D01*
X005545Y005809D01*
X005575Y005769D01*
X005602Y005726D01*
X005625Y005682D01*
X005644Y005636D01*
X005660Y005588D01*
X005672Y005539D01*
X005680Y005490D01*
X005684Y005440D01*
X005684Y005390D01*
X005680Y005340D01*
X005672Y005291D01*
X005660Y005242D01*
X005644Y005194D01*
X005625Y005148D01*
X005602Y005104D01*
X005575Y005061D01*
X005545Y005021D01*
X005513Y004983D01*
X005477Y004948D01*
X005438Y004916D01*
X005397Y004887D01*
X005354Y004861D01*
X005309Y004839D01*
X005263Y004821D01*
X005215Y004806D01*
X005166Y004795D01*
X005117Y004788D01*
X005067Y004785D01*
X005016Y004786D01*
X004967Y004791D01*
X004917Y004800D01*
X004869Y004813D01*
X004822Y004829D01*
X004776Y004850D01*
X004732Y004874D01*
X004690Y004901D01*
X004650Y004931D01*
X004613Y004965D01*
X004579Y005002D01*
X004547Y005041D01*
X004519Y005082D01*
X004494Y005126D01*
X004473Y005171D01*
X004456Y005218D01*
X004442Y005266D01*
X004432Y005315D01*
X004426Y005365D01*
X004424Y005415D01*
X003479Y005415D02*
X003481Y005338D01*
X003487Y005261D01*
X003496Y005184D01*
X003509Y005108D01*
X003526Y005032D01*
X003547Y004958D01*
X003571Y004884D01*
X003599Y004812D01*
X003630Y004742D01*
X003665Y004673D01*
X003703Y004605D01*
X003744Y004540D01*
X003789Y004477D01*
X003837Y004416D01*
X003887Y004357D01*
X003940Y004301D01*
X003996Y004248D01*
X004055Y004198D01*
X004116Y004150D01*
X004179Y004105D01*
X004244Y004064D01*
X004312Y004026D01*
X004381Y003991D01*
X004451Y003960D01*
X004523Y003932D01*
X004597Y003908D01*
X004671Y003887D01*
X004747Y003870D01*
X004823Y003857D01*
X004900Y003848D01*
X004977Y003842D01*
X005054Y003840D01*
X003480Y005415D02*
X003480Y014470D01*
X004424Y014470D02*
X004426Y014520D01*
X004432Y014570D01*
X004442Y014619D01*
X004456Y014667D01*
X004473Y014714D01*
X004494Y014759D01*
X004519Y014803D01*
X004547Y014844D01*
X004579Y014883D01*
X004613Y014920D01*
X004650Y014954D01*
X004690Y014984D01*
X004732Y015011D01*
X004776Y015035D01*
X004822Y015056D01*
X004869Y015072D01*
X004917Y015085D01*
X004967Y015094D01*
X005016Y015099D01*
X005067Y015100D01*
X005117Y015097D01*
X005166Y015090D01*
X005215Y015079D01*
X005263Y015064D01*
X005309Y015046D01*
X005354Y015024D01*
X005397Y014998D01*
X005438Y014969D01*
X005477Y014937D01*
X005513Y014902D01*
X005545Y014864D01*
X005575Y014824D01*
X005602Y014781D01*
X005625Y014737D01*
X005644Y014691D01*
X005660Y014643D01*
X005672Y014594D01*
X005680Y014545D01*
X005684Y014495D01*
X005684Y014445D01*
X005680Y014395D01*
X005672Y014346D01*
X005660Y014297D01*
X005644Y014249D01*
X005625Y014203D01*
X005602Y014159D01*
X005575Y014116D01*
X005545Y014076D01*
X005513Y014038D01*
X005477Y014003D01*
X005438Y013971D01*
X005397Y013942D01*
X005354Y013916D01*
X005309Y013894D01*
X005263Y013876D01*
X005215Y013861D01*
X005166Y013850D01*
X005117Y013843D01*
X005067Y013840D01*
X005016Y013841D01*
X004967Y013846D01*
X004917Y013855D01*
X004869Y013868D01*
X004822Y013884D01*
X004776Y013905D01*
X004732Y013929D01*
X004690Y013956D01*
X004650Y013986D01*
X004613Y014020D01*
X004579Y014057D01*
X004547Y014096D01*
X004519Y014137D01*
X004494Y014181D01*
X004473Y014226D01*
X004456Y014273D01*
X004442Y014321D01*
X004432Y014370D01*
X004426Y014420D01*
X004424Y014470D01*
X003479Y014470D02*
X003481Y014547D01*
X003487Y014624D01*
X003496Y014701D01*
X003509Y014777D01*
X003526Y014853D01*
X003547Y014927D01*
X003571Y015001D01*
X003599Y015073D01*
X003630Y015143D01*
X003665Y015212D01*
X003703Y015280D01*
X003744Y015345D01*
X003789Y015408D01*
X003837Y015469D01*
X003887Y015528D01*
X003940Y015584D01*
X003996Y015637D01*
X004055Y015687D01*
X004116Y015735D01*
X004179Y015780D01*
X004244Y015821D01*
X004312Y015859D01*
X004381Y015894D01*
X004451Y015925D01*
X004523Y015953D01*
X004597Y015977D01*
X004671Y015998D01*
X004747Y016015D01*
X004823Y016028D01*
X004900Y016037D01*
X004977Y016043D01*
X005054Y016045D01*
X021590Y016045D01*
X023165Y016045D02*
X023165Y019785D01*
X003480Y019785D01*
X003480Y016045D01*
X020960Y014470D02*
X020962Y014520D01*
X020968Y014570D01*
X020978Y014619D01*
X020992Y014667D01*
X021009Y014714D01*
X021030Y014759D01*
X021055Y014803D01*
X021083Y014844D01*
X021115Y014883D01*
X021149Y014920D01*
X021186Y014954D01*
X021226Y014984D01*
X021268Y015011D01*
X021312Y015035D01*
X021358Y015056D01*
X021405Y015072D01*
X021453Y015085D01*
X021503Y015094D01*
X021552Y015099D01*
X021603Y015100D01*
X021653Y015097D01*
X021702Y015090D01*
X021751Y015079D01*
X021799Y015064D01*
X021845Y015046D01*
X021890Y015024D01*
X021933Y014998D01*
X021974Y014969D01*
X022013Y014937D01*
X022049Y014902D01*
X022081Y014864D01*
X022111Y014824D01*
X022138Y014781D01*
X022161Y014737D01*
X022180Y014691D01*
X022196Y014643D01*
X022208Y014594D01*
X022216Y014545D01*
X022220Y014495D01*
X022220Y014445D01*
X022216Y014395D01*
X022208Y014346D01*
X022196Y014297D01*
X022180Y014249D01*
X022161Y014203D01*
X022138Y014159D01*
X022111Y014116D01*
X022081Y014076D01*
X022049Y014038D01*
X022013Y014003D01*
X021974Y013971D01*
X021933Y013942D01*
X021890Y013916D01*
X021845Y013894D01*
X021799Y013876D01*
X021751Y013861D01*
X021702Y013850D01*
X021653Y013843D01*
X021603Y013840D01*
X021552Y013841D01*
X021503Y013846D01*
X021453Y013855D01*
X021405Y013868D01*
X021358Y013884D01*
X021312Y013905D01*
X021268Y013929D01*
X021226Y013956D01*
X021186Y013986D01*
X021149Y014020D01*
X021115Y014057D01*
X021083Y014096D01*
X021055Y014137D01*
X021030Y014181D01*
X021009Y014226D01*
X020992Y014273D01*
X020978Y014321D01*
X020968Y014370D01*
X020962Y014420D01*
X020960Y014470D01*
X021590Y016045D02*
X021667Y016043D01*
X021744Y016037D01*
X021821Y016028D01*
X021897Y016015D01*
X021973Y015998D01*
X022047Y015977D01*
X022121Y015953D01*
X022193Y015925D01*
X022263Y015894D01*
X022332Y015859D01*
X022400Y015821D01*
X022465Y015780D01*
X022528Y015735D01*
X022589Y015687D01*
X022648Y015637D01*
X022704Y015584D01*
X022757Y015528D01*
X022807Y015469D01*
X022855Y015408D01*
X022900Y015345D01*
X022941Y015280D01*
X022979Y015212D01*
X023014Y015143D01*
X023045Y015073D01*
X023073Y015001D01*
X023097Y014927D01*
X023118Y014853D01*
X023135Y014777D01*
X023148Y014701D01*
X023157Y014624D01*
X023163Y014547D01*
X023165Y014470D01*
X023165Y005415D01*
X020960Y005415D02*
X020962Y005465D01*
X020968Y005515D01*
X020978Y005564D01*
X020992Y005612D01*
X021009Y005659D01*
X021030Y005704D01*
X021055Y005748D01*
X021083Y005789D01*
X021115Y005828D01*
X021149Y005865D01*
X021186Y005899D01*
X021226Y005929D01*
X021268Y005956D01*
X021312Y005980D01*
X021358Y006001D01*
X021405Y006017D01*
X021453Y006030D01*
X021503Y006039D01*
X021552Y006044D01*
X021603Y006045D01*
X021653Y006042D01*
X021702Y006035D01*
X021751Y006024D01*
X021799Y006009D01*
X021845Y005991D01*
X021890Y005969D01*
X021933Y005943D01*
X021974Y005914D01*
X022013Y005882D01*
X022049Y005847D01*
X022081Y005809D01*
X022111Y005769D01*
X022138Y005726D01*
X022161Y005682D01*
X022180Y005636D01*
X022196Y005588D01*
X022208Y005539D01*
X022216Y005490D01*
X022220Y005440D01*
X022220Y005390D01*
X022216Y005340D01*
X022208Y005291D01*
X022196Y005242D01*
X022180Y005194D01*
X022161Y005148D01*
X022138Y005104D01*
X022111Y005061D01*
X022081Y005021D01*
X022049Y004983D01*
X022013Y004948D01*
X021974Y004916D01*
X021933Y004887D01*
X021890Y004861D01*
X021845Y004839D01*
X021799Y004821D01*
X021751Y004806D01*
X021702Y004795D01*
X021653Y004788D01*
X021603Y004785D01*
X021552Y004786D01*
X021503Y004791D01*
X021453Y004800D01*
X021405Y004813D01*
X021358Y004829D01*
X021312Y004850D01*
X021268Y004874D01*
X021226Y004901D01*
X021186Y004931D01*
X021149Y004965D01*
X021115Y005002D01*
X021083Y005041D01*
X021055Y005082D01*
X021030Y005126D01*
X021009Y005171D01*
X020992Y005218D01*
X020978Y005266D01*
X020968Y005315D01*
X020962Y005365D01*
X020960Y005415D01*
X021590Y003840D02*
X021667Y003842D01*
X021744Y003848D01*
X021821Y003857D01*
X021897Y003870D01*
X021973Y003887D01*
X022047Y003908D01*
X022121Y003932D01*
X022193Y003960D01*
X022263Y003991D01*
X022332Y004026D01*
X022400Y004064D01*
X022465Y004105D01*
X022528Y004150D01*
X022589Y004198D01*
X022648Y004248D01*
X022704Y004301D01*
X022757Y004357D01*
X022807Y004416D01*
X022855Y004477D01*
X022900Y004540D01*
X022941Y004605D01*
X022979Y004673D01*
X023014Y004742D01*
X023045Y004812D01*
X023073Y004884D01*
X023097Y004958D01*
X023118Y005032D01*
X023135Y005108D01*
X023148Y005184D01*
X023157Y005261D01*
X023163Y005338D01*
X023165Y005415D01*
D11*
X006983Y008328D02*
X006511Y008328D01*
X006354Y008486D02*
X006356Y008508D01*
X006360Y008530D01*
X006368Y008551D01*
X006379Y008571D01*
X006392Y008589D01*
X006408Y008605D01*
X006426Y008618D01*
X006446Y008629D01*
X006467Y008637D01*
X006489Y008641D01*
X006511Y008643D01*
X006983Y008643D01*
X007140Y008486D02*
X007138Y008464D01*
X007134Y008442D01*
X007126Y008421D01*
X007115Y008401D01*
X007102Y008383D01*
X007086Y008367D01*
X007068Y008354D01*
X007048Y008343D01*
X007027Y008335D01*
X007005Y008331D01*
X006983Y008329D01*
X007140Y008486D02*
X007138Y008508D01*
X007134Y008530D01*
X007126Y008551D01*
X007115Y008571D01*
X007102Y008589D01*
X007086Y008605D01*
X007068Y008618D01*
X007048Y008629D01*
X007027Y008637D01*
X007005Y008641D01*
X006983Y008643D01*
X006511Y008329D02*
X006489Y008331D01*
X006467Y008335D01*
X006446Y008343D01*
X006426Y008354D01*
X006408Y008367D01*
X006392Y008383D01*
X006379Y008401D01*
X006368Y008421D01*
X006360Y008442D01*
X006356Y008464D01*
X006354Y008486D01*
X005251Y008486D02*
X005249Y008464D01*
X005245Y008442D01*
X005237Y008421D01*
X005226Y008401D01*
X005213Y008383D01*
X005197Y008367D01*
X005179Y008354D01*
X005159Y008343D01*
X005138Y008335D01*
X005116Y008331D01*
X005094Y008329D01*
X005094Y008328D02*
X004621Y008328D01*
X004464Y008486D02*
X004466Y008508D01*
X004470Y008530D01*
X004478Y008551D01*
X004489Y008571D01*
X004502Y008589D01*
X004518Y008605D01*
X004536Y008618D01*
X004556Y008629D01*
X004577Y008637D01*
X004599Y008641D01*
X004621Y008643D01*
X005094Y008643D01*
X005116Y008641D01*
X005138Y008637D01*
X005159Y008629D01*
X005179Y008618D01*
X005197Y008605D01*
X005213Y008589D01*
X005226Y008571D01*
X005237Y008551D01*
X005245Y008530D01*
X005249Y008508D01*
X005251Y008486D01*
X004621Y008329D02*
X004599Y008331D01*
X004577Y008335D01*
X004556Y008343D01*
X004536Y008354D01*
X004518Y008367D01*
X004502Y008383D01*
X004489Y008401D01*
X004478Y008421D01*
X004470Y008442D01*
X004466Y008464D01*
X004464Y008486D01*
X004621Y011242D02*
X005094Y011242D01*
X005116Y011244D01*
X005138Y011248D01*
X005159Y011256D01*
X005179Y011267D01*
X005197Y011280D01*
X005213Y011296D01*
X005226Y011314D01*
X005237Y011334D01*
X005245Y011355D01*
X005249Y011377D01*
X005251Y011399D01*
X005249Y011421D01*
X005245Y011443D01*
X005237Y011464D01*
X005226Y011484D01*
X005213Y011502D01*
X005197Y011518D01*
X005179Y011531D01*
X005159Y011542D01*
X005138Y011550D01*
X005116Y011554D01*
X005094Y011556D01*
X005094Y011557D02*
X004621Y011557D01*
X004621Y011556D02*
X004599Y011554D01*
X004577Y011550D01*
X004556Y011542D01*
X004536Y011531D01*
X004518Y011518D01*
X004502Y011502D01*
X004489Y011484D01*
X004478Y011464D01*
X004470Y011443D01*
X004466Y011421D01*
X004464Y011399D01*
X004466Y011377D01*
X004470Y011355D01*
X004478Y011334D01*
X004489Y011314D01*
X004502Y011296D01*
X004518Y011280D01*
X004536Y011267D01*
X004556Y011256D01*
X004577Y011248D01*
X004599Y011244D01*
X004621Y011242D01*
X006511Y011242D02*
X006983Y011242D01*
X007005Y011244D01*
X007027Y011248D01*
X007048Y011256D01*
X007068Y011267D01*
X007086Y011280D01*
X007102Y011296D01*
X007115Y011314D01*
X007126Y011334D01*
X007134Y011355D01*
X007138Y011377D01*
X007140Y011399D01*
X007138Y011421D01*
X007134Y011443D01*
X007126Y011464D01*
X007115Y011484D01*
X007102Y011502D01*
X007086Y011518D01*
X007068Y011531D01*
X007048Y011542D01*
X007027Y011550D01*
X007005Y011554D01*
X006983Y011556D01*
X006983Y011557D02*
X006511Y011557D01*
X006511Y011556D02*
X006489Y011554D01*
X006467Y011550D01*
X006446Y011542D01*
X006426Y011531D01*
X006408Y011518D01*
X006392Y011502D01*
X006379Y011484D01*
X006368Y011464D01*
X006360Y011443D01*
X006356Y011421D01*
X006354Y011399D01*
X006356Y011377D01*
X006360Y011355D01*
X006368Y011334D01*
X006379Y011314D01*
X006392Y011296D01*
X006408Y011280D01*
X006426Y011267D01*
X006446Y011256D01*
X006467Y011248D01*
X006489Y011244D01*
X006511Y011242D01*
M02*
