G75*
%MOIN*%
%OFA0B0*%
%FSLAX24Y24*%
%IPPOS*%
%LPD*%
%AMOC8*
5,1,8,0,0,1.08239X$1,22.5*
%
%ADD10C,0.0000*%
%ADD11C,0.0080*%
%ADD12R,0.0236X0.0118*%
%ADD13R,0.0118X0.0118*%
%ADD14R,0.0118X0.0236*%
%ADD15R,0.0512X0.0709*%
%ADD16R,0.0276X0.0276*%
%ADD17OC8,0.0709*%
%ADD18C,0.0059*%
%ADD19R,0.0118X0.0472*%
%ADD20R,0.0472X0.0118*%
%ADD21R,0.1378X0.1378*%
%ADD22C,0.0315*%
%ADD23C,0.0472*%
%ADD24R,0.0394X0.0394*%
%ADD25R,0.0472X0.0551*%
%ADD26R,0.0157X0.0276*%
%ADD27R,0.0472X0.0236*%
%ADD28OC8,0.0591*%
%ADD29R,0.0433X0.0276*%
%ADD30C,0.0098*%
%ADD31C,0.0236*%
%ADD32C,0.1181*%
%ADD33C,0.0160*%
%ADD34C,0.0236*%
%ADD35C,0.0157*%
%ADD36C,0.0315*%
%ADD37C,0.0118*%
D10*
X005054Y003625D02*
X021590Y003625D01*
X005054Y003625D01*
X004424Y005200D02*
X004426Y005250D01*
X004432Y005300D01*
X004442Y005349D01*
X004456Y005397D01*
X004473Y005444D01*
X004494Y005489D01*
X004519Y005533D01*
X004547Y005574D01*
X004579Y005613D01*
X004613Y005650D01*
X004650Y005684D01*
X004690Y005714D01*
X004732Y005741D01*
X004776Y005765D01*
X004822Y005786D01*
X004869Y005802D01*
X004917Y005815D01*
X004967Y005824D01*
X005016Y005829D01*
X005067Y005830D01*
X005117Y005827D01*
X005166Y005820D01*
X005215Y005809D01*
X005263Y005794D01*
X005309Y005776D01*
X005354Y005754D01*
X005397Y005728D01*
X005438Y005699D01*
X005477Y005667D01*
X005513Y005632D01*
X005545Y005594D01*
X005575Y005554D01*
X005602Y005511D01*
X005625Y005467D01*
X005644Y005421D01*
X005660Y005373D01*
X005672Y005324D01*
X005680Y005275D01*
X005684Y005225D01*
X005684Y005175D01*
X005680Y005125D01*
X005672Y005076D01*
X005660Y005027D01*
X005644Y004979D01*
X005625Y004933D01*
X005602Y004889D01*
X005575Y004846D01*
X005545Y004806D01*
X005513Y004768D01*
X005477Y004733D01*
X005438Y004701D01*
X005397Y004672D01*
X005354Y004646D01*
X005309Y004624D01*
X005263Y004606D01*
X005215Y004591D01*
X005166Y004580D01*
X005117Y004573D01*
X005067Y004570D01*
X005016Y004571D01*
X004967Y004576D01*
X004917Y004585D01*
X004869Y004598D01*
X004822Y004614D01*
X004776Y004635D01*
X004732Y004659D01*
X004690Y004686D01*
X004650Y004716D01*
X004613Y004750D01*
X004579Y004787D01*
X004547Y004826D01*
X004519Y004867D01*
X004494Y004911D01*
X004473Y004956D01*
X004456Y005003D01*
X004442Y005051D01*
X004432Y005100D01*
X004426Y005150D01*
X004424Y005200D01*
X003479Y005200D02*
X003481Y005123D01*
X003487Y005046D01*
X003496Y004969D01*
X003509Y004893D01*
X003526Y004817D01*
X003547Y004743D01*
X003571Y004669D01*
X003599Y004597D01*
X003630Y004527D01*
X003665Y004458D01*
X003703Y004390D01*
X003744Y004325D01*
X003789Y004262D01*
X003837Y004201D01*
X003887Y004142D01*
X003940Y004086D01*
X003996Y004033D01*
X004055Y003983D01*
X004116Y003935D01*
X004179Y003890D01*
X004244Y003849D01*
X004312Y003811D01*
X004381Y003776D01*
X004451Y003745D01*
X004523Y003717D01*
X004597Y003693D01*
X004671Y003672D01*
X004747Y003655D01*
X004823Y003642D01*
X004900Y003633D01*
X004977Y003627D01*
X005054Y003625D01*
X004977Y003627D01*
X004900Y003633D01*
X004823Y003642D01*
X004747Y003655D01*
X004671Y003672D01*
X004597Y003693D01*
X004523Y003717D01*
X004451Y003745D01*
X004381Y003776D01*
X004312Y003811D01*
X004244Y003849D01*
X004179Y003890D01*
X004116Y003935D01*
X004055Y003983D01*
X003996Y004033D01*
X003940Y004086D01*
X003887Y004142D01*
X003837Y004201D01*
X003789Y004262D01*
X003744Y004325D01*
X003703Y004390D01*
X003665Y004458D01*
X003630Y004527D01*
X003599Y004597D01*
X003571Y004669D01*
X003547Y004743D01*
X003526Y004817D01*
X003509Y004893D01*
X003496Y004969D01*
X003487Y005046D01*
X003481Y005123D01*
X003479Y005200D01*
X003480Y005200D02*
X003480Y014255D01*
X003480Y005200D01*
X004424Y014255D02*
X004426Y014305D01*
X004432Y014355D01*
X004442Y014404D01*
X004456Y014452D01*
X004473Y014499D01*
X004494Y014544D01*
X004519Y014588D01*
X004547Y014629D01*
X004579Y014668D01*
X004613Y014705D01*
X004650Y014739D01*
X004690Y014769D01*
X004732Y014796D01*
X004776Y014820D01*
X004822Y014841D01*
X004869Y014857D01*
X004917Y014870D01*
X004967Y014879D01*
X005016Y014884D01*
X005067Y014885D01*
X005117Y014882D01*
X005166Y014875D01*
X005215Y014864D01*
X005263Y014849D01*
X005309Y014831D01*
X005354Y014809D01*
X005397Y014783D01*
X005438Y014754D01*
X005477Y014722D01*
X005513Y014687D01*
X005545Y014649D01*
X005575Y014609D01*
X005602Y014566D01*
X005625Y014522D01*
X005644Y014476D01*
X005660Y014428D01*
X005672Y014379D01*
X005680Y014330D01*
X005684Y014280D01*
X005684Y014230D01*
X005680Y014180D01*
X005672Y014131D01*
X005660Y014082D01*
X005644Y014034D01*
X005625Y013988D01*
X005602Y013944D01*
X005575Y013901D01*
X005545Y013861D01*
X005513Y013823D01*
X005477Y013788D01*
X005438Y013756D01*
X005397Y013727D01*
X005354Y013701D01*
X005309Y013679D01*
X005263Y013661D01*
X005215Y013646D01*
X005166Y013635D01*
X005117Y013628D01*
X005067Y013625D01*
X005016Y013626D01*
X004967Y013631D01*
X004917Y013640D01*
X004869Y013653D01*
X004822Y013669D01*
X004776Y013690D01*
X004732Y013714D01*
X004690Y013741D01*
X004650Y013771D01*
X004613Y013805D01*
X004579Y013842D01*
X004547Y013881D01*
X004519Y013922D01*
X004494Y013966D01*
X004473Y014011D01*
X004456Y014058D01*
X004442Y014106D01*
X004432Y014155D01*
X004426Y014205D01*
X004424Y014255D01*
X003479Y014255D02*
X003481Y014332D01*
X003487Y014409D01*
X003496Y014486D01*
X003509Y014562D01*
X003526Y014638D01*
X003547Y014712D01*
X003571Y014786D01*
X003599Y014858D01*
X003630Y014928D01*
X003665Y014997D01*
X003703Y015065D01*
X003744Y015130D01*
X003789Y015193D01*
X003837Y015254D01*
X003887Y015313D01*
X003940Y015369D01*
X003996Y015422D01*
X004055Y015472D01*
X004116Y015520D01*
X004179Y015565D01*
X004244Y015606D01*
X004312Y015644D01*
X004381Y015679D01*
X004451Y015710D01*
X004523Y015738D01*
X004597Y015762D01*
X004671Y015783D01*
X004747Y015800D01*
X004823Y015813D01*
X004900Y015822D01*
X004977Y015828D01*
X005054Y015830D01*
X021590Y015830D01*
X005054Y015830D01*
X004977Y015828D01*
X004900Y015822D01*
X004823Y015813D01*
X004747Y015800D01*
X004671Y015783D01*
X004597Y015762D01*
X004523Y015738D01*
X004451Y015710D01*
X004381Y015679D01*
X004312Y015644D01*
X004244Y015606D01*
X004179Y015565D01*
X004116Y015520D01*
X004055Y015472D01*
X003996Y015422D01*
X003940Y015369D01*
X003887Y015313D01*
X003837Y015254D01*
X003789Y015193D01*
X003744Y015130D01*
X003703Y015065D01*
X003665Y014997D01*
X003630Y014928D01*
X003599Y014858D01*
X003571Y014786D01*
X003547Y014712D01*
X003526Y014638D01*
X003509Y014562D01*
X003496Y014486D01*
X003487Y014409D01*
X003481Y014332D01*
X003479Y014255D01*
X020960Y014255D02*
X020962Y014305D01*
X020968Y014355D01*
X020978Y014404D01*
X020992Y014452D01*
X021009Y014499D01*
X021030Y014544D01*
X021055Y014588D01*
X021083Y014629D01*
X021115Y014668D01*
X021149Y014705D01*
X021186Y014739D01*
X021226Y014769D01*
X021268Y014796D01*
X021312Y014820D01*
X021358Y014841D01*
X021405Y014857D01*
X021453Y014870D01*
X021503Y014879D01*
X021552Y014884D01*
X021603Y014885D01*
X021653Y014882D01*
X021702Y014875D01*
X021751Y014864D01*
X021799Y014849D01*
X021845Y014831D01*
X021890Y014809D01*
X021933Y014783D01*
X021974Y014754D01*
X022013Y014722D01*
X022049Y014687D01*
X022081Y014649D01*
X022111Y014609D01*
X022138Y014566D01*
X022161Y014522D01*
X022180Y014476D01*
X022196Y014428D01*
X022208Y014379D01*
X022216Y014330D01*
X022220Y014280D01*
X022220Y014230D01*
X022216Y014180D01*
X022208Y014131D01*
X022196Y014082D01*
X022180Y014034D01*
X022161Y013988D01*
X022138Y013944D01*
X022111Y013901D01*
X022081Y013861D01*
X022049Y013823D01*
X022013Y013788D01*
X021974Y013756D01*
X021933Y013727D01*
X021890Y013701D01*
X021845Y013679D01*
X021799Y013661D01*
X021751Y013646D01*
X021702Y013635D01*
X021653Y013628D01*
X021603Y013625D01*
X021552Y013626D01*
X021503Y013631D01*
X021453Y013640D01*
X021405Y013653D01*
X021358Y013669D01*
X021312Y013690D01*
X021268Y013714D01*
X021226Y013741D01*
X021186Y013771D01*
X021149Y013805D01*
X021115Y013842D01*
X021083Y013881D01*
X021055Y013922D01*
X021030Y013966D01*
X021009Y014011D01*
X020992Y014058D01*
X020978Y014106D01*
X020968Y014155D01*
X020962Y014205D01*
X020960Y014255D01*
X021590Y015830D02*
X021667Y015828D01*
X021744Y015822D01*
X021821Y015813D01*
X021897Y015800D01*
X021973Y015783D01*
X022047Y015762D01*
X022121Y015738D01*
X022193Y015710D01*
X022263Y015679D01*
X022332Y015644D01*
X022400Y015606D01*
X022465Y015565D01*
X022528Y015520D01*
X022589Y015472D01*
X022648Y015422D01*
X022704Y015369D01*
X022757Y015313D01*
X022807Y015254D01*
X022855Y015193D01*
X022900Y015130D01*
X022941Y015065D01*
X022979Y014997D01*
X023014Y014928D01*
X023045Y014858D01*
X023073Y014786D01*
X023097Y014712D01*
X023118Y014638D01*
X023135Y014562D01*
X023148Y014486D01*
X023157Y014409D01*
X023163Y014332D01*
X023165Y014255D01*
X023165Y005200D01*
X023165Y014255D01*
X023163Y014332D01*
X023157Y014409D01*
X023148Y014486D01*
X023135Y014562D01*
X023118Y014638D01*
X023097Y014712D01*
X023073Y014786D01*
X023045Y014858D01*
X023014Y014928D01*
X022979Y014997D01*
X022941Y015065D01*
X022900Y015130D01*
X022855Y015193D01*
X022807Y015254D01*
X022757Y015313D01*
X022704Y015369D01*
X022648Y015422D01*
X022589Y015472D01*
X022528Y015520D01*
X022465Y015565D01*
X022400Y015606D01*
X022332Y015644D01*
X022263Y015679D01*
X022193Y015710D01*
X022121Y015738D01*
X022047Y015762D01*
X021973Y015783D01*
X021897Y015800D01*
X021821Y015813D01*
X021744Y015822D01*
X021667Y015828D01*
X021590Y015830D01*
X020960Y005200D02*
X020962Y005250D01*
X020968Y005300D01*
X020978Y005349D01*
X020992Y005397D01*
X021009Y005444D01*
X021030Y005489D01*
X021055Y005533D01*
X021083Y005574D01*
X021115Y005613D01*
X021149Y005650D01*
X021186Y005684D01*
X021226Y005714D01*
X021268Y005741D01*
X021312Y005765D01*
X021358Y005786D01*
X021405Y005802D01*
X021453Y005815D01*
X021503Y005824D01*
X021552Y005829D01*
X021603Y005830D01*
X021653Y005827D01*
X021702Y005820D01*
X021751Y005809D01*
X021799Y005794D01*
X021845Y005776D01*
X021890Y005754D01*
X021933Y005728D01*
X021974Y005699D01*
X022013Y005667D01*
X022049Y005632D01*
X022081Y005594D01*
X022111Y005554D01*
X022138Y005511D01*
X022161Y005467D01*
X022180Y005421D01*
X022196Y005373D01*
X022208Y005324D01*
X022216Y005275D01*
X022220Y005225D01*
X022220Y005175D01*
X022216Y005125D01*
X022208Y005076D01*
X022196Y005027D01*
X022180Y004979D01*
X022161Y004933D01*
X022138Y004889D01*
X022111Y004846D01*
X022081Y004806D01*
X022049Y004768D01*
X022013Y004733D01*
X021974Y004701D01*
X021933Y004672D01*
X021890Y004646D01*
X021845Y004624D01*
X021799Y004606D01*
X021751Y004591D01*
X021702Y004580D01*
X021653Y004573D01*
X021603Y004570D01*
X021552Y004571D01*
X021503Y004576D01*
X021453Y004585D01*
X021405Y004598D01*
X021358Y004614D01*
X021312Y004635D01*
X021268Y004659D01*
X021226Y004686D01*
X021186Y004716D01*
X021149Y004750D01*
X021115Y004787D01*
X021083Y004826D01*
X021055Y004867D01*
X021030Y004911D01*
X021009Y004956D01*
X020992Y005003D01*
X020978Y005051D01*
X020968Y005100D01*
X020962Y005150D01*
X020960Y005200D01*
X021590Y003625D02*
X021667Y003627D01*
X021744Y003633D01*
X021821Y003642D01*
X021897Y003655D01*
X021973Y003672D01*
X022047Y003693D01*
X022121Y003717D01*
X022193Y003745D01*
X022263Y003776D01*
X022332Y003811D01*
X022400Y003849D01*
X022465Y003890D01*
X022528Y003935D01*
X022589Y003983D01*
X022648Y004033D01*
X022704Y004086D01*
X022757Y004142D01*
X022807Y004201D01*
X022855Y004262D01*
X022900Y004325D01*
X022941Y004390D01*
X022979Y004458D01*
X023014Y004527D01*
X023045Y004597D01*
X023073Y004669D01*
X023097Y004743D01*
X023118Y004817D01*
X023135Y004893D01*
X023148Y004969D01*
X023157Y005046D01*
X023163Y005123D01*
X023165Y005200D01*
X023163Y005123D01*
X023157Y005046D01*
X023148Y004969D01*
X023135Y004893D01*
X023118Y004817D01*
X023097Y004743D01*
X023073Y004669D01*
X023045Y004597D01*
X023014Y004527D01*
X022979Y004458D01*
X022941Y004390D01*
X022900Y004325D01*
X022855Y004262D01*
X022807Y004201D01*
X022757Y004142D01*
X022704Y004086D01*
X022648Y004033D01*
X022589Y003983D01*
X022528Y003935D01*
X022465Y003890D01*
X022400Y003849D01*
X022332Y003811D01*
X022263Y003776D01*
X022193Y003745D01*
X022121Y003717D01*
X022047Y003693D01*
X021973Y003672D01*
X021897Y003655D01*
X021821Y003642D01*
X021744Y003633D01*
X021667Y003627D01*
X021590Y003625D01*
D11*
X016109Y014164D02*
X015900Y014164D01*
X015763Y014217D02*
X015658Y014217D01*
X015710Y014217D02*
X015710Y014530D01*
X015658Y014530D02*
X015763Y014530D01*
X015505Y014530D02*
X015295Y014321D01*
X015348Y014373D02*
X015505Y014217D01*
X015295Y014217D02*
X015295Y014530D01*
X015142Y014530D02*
X015142Y014269D01*
X015090Y014217D01*
X014985Y014217D01*
X014933Y014269D01*
X014933Y014530D01*
X014780Y014530D02*
X014780Y014478D01*
X014570Y014269D01*
X014570Y014217D01*
X014780Y014217D01*
X014780Y014530D02*
X014570Y014530D01*
X014365Y014530D02*
X014208Y014373D01*
X014417Y014373D01*
X014365Y014217D02*
X014365Y014530D01*
X014055Y014530D02*
X013845Y014321D01*
X013898Y014373D02*
X014055Y014217D01*
X013845Y014217D02*
X013845Y014530D01*
X013692Y014164D02*
X013483Y014164D01*
X013330Y014269D02*
X013277Y014217D01*
X013173Y014217D01*
X013120Y014269D01*
X013120Y014478D01*
X013173Y014530D01*
X013277Y014530D01*
X013330Y014478D01*
X013330Y014373D01*
X013277Y014321D01*
X013277Y014426D01*
X013173Y014426D01*
X013173Y014321D01*
X013277Y014321D01*
X012605Y014217D02*
X012395Y014217D01*
X012500Y014217D02*
X012500Y014530D01*
X012395Y014426D01*
X012266Y014269D02*
X012266Y014217D01*
X012214Y014217D01*
X012214Y014269D01*
X012266Y014269D01*
X012061Y014269D02*
X012009Y014217D01*
X011904Y014217D01*
X011852Y014269D01*
X012061Y014478D01*
X012061Y014269D01*
X012061Y014478D02*
X012009Y014530D01*
X011904Y014530D01*
X011852Y014478D01*
X011852Y014269D01*
X011336Y014426D02*
X011231Y014217D01*
X011127Y014426D01*
X010973Y014373D02*
X010973Y014321D01*
X010764Y014321D01*
X010764Y014269D02*
X010764Y014373D01*
X010816Y014426D01*
X010921Y014426D01*
X010973Y014373D01*
X010921Y014217D02*
X010816Y014217D01*
X010764Y014269D01*
X010619Y014426D02*
X010567Y014426D01*
X010462Y014321D01*
X010462Y014217D02*
X010462Y014426D01*
D12*
X020487Y010495D03*
X020487Y010240D03*
X020487Y009984D03*
X020487Y009728D03*
X020487Y009472D03*
X020487Y009216D03*
X020487Y008960D03*
X021747Y008960D03*
X021747Y009216D03*
X021747Y009472D03*
X021747Y009728D03*
X021747Y009984D03*
X021747Y010240D03*
X021747Y010495D03*
D13*
X021186Y010495D03*
X021186Y008960D03*
X020930Y008960D03*
D14*
X020930Y009334D03*
X021186Y009334D03*
X021186Y009728D03*
X020930Y009728D03*
X020930Y010121D03*
X021186Y010121D03*
X021176Y010869D03*
X020940Y010869D03*
X020704Y010869D03*
X020468Y010869D03*
X021413Y010869D03*
X021649Y010869D03*
X022948Y010869D03*
X022948Y008586D03*
X021649Y008586D03*
X021413Y008586D03*
X021176Y008586D03*
X020940Y008586D03*
X020704Y008586D03*
X020468Y008586D03*
D15*
X020645Y007680D03*
X019621Y007680D03*
D16*
X019464Y008783D03*
X019936Y008783D03*
X016472Y009688D03*
X015999Y009688D03*
X015999Y010200D03*
X016472Y010200D03*
X015015Y010240D03*
X015015Y009767D03*
X014464Y009767D03*
X013913Y009767D03*
X013913Y010240D03*
X014464Y010240D03*
X012968Y009964D03*
X012968Y009491D03*
X012141Y009767D03*
X011669Y009767D03*
X011669Y010240D03*
X012141Y010240D03*
X014661Y011381D03*
X014661Y011854D03*
X013913Y012995D03*
X013440Y012995D03*
X011472Y012602D03*
X011472Y012129D03*
X009267Y008350D03*
X008794Y008350D03*
X008794Y007877D03*
X008794Y007405D03*
X008794Y006932D03*
X009267Y006932D03*
X009661Y006932D03*
X010133Y006932D03*
X009267Y007405D03*
X009267Y007877D03*
X015015Y007838D03*
X015487Y007838D03*
D17*
X016009Y011302D03*
X016009Y013271D03*
X018509Y013271D03*
X018509Y011302D03*
X010635Y013271D03*
X008135Y013271D03*
D18*
X012603Y009088D02*
X012603Y008674D01*
X012603Y009088D02*
X012663Y009088D01*
X012663Y008674D01*
X012603Y008674D01*
X012603Y008732D02*
X012663Y008732D01*
X012663Y008790D02*
X012603Y008790D01*
X012603Y008848D02*
X012663Y008848D01*
X012663Y008906D02*
X012603Y008906D01*
X012603Y008964D02*
X012663Y008964D01*
X012663Y009022D02*
X012603Y009022D01*
X012603Y009080D02*
X012663Y009080D01*
X012486Y008497D02*
X012072Y008497D01*
X012072Y008557D01*
X012486Y008557D01*
X012486Y008497D01*
X012486Y008555D02*
X012072Y008555D01*
X012072Y007119D02*
X012486Y007119D01*
X012072Y007119D02*
X012072Y007179D01*
X012486Y007179D01*
X012486Y007119D01*
X012486Y007177D02*
X012072Y007177D01*
X012603Y007002D02*
X012603Y006588D01*
X012603Y007002D02*
X012663Y007002D01*
X012663Y006588D01*
X012603Y006588D01*
X012603Y006646D02*
X012663Y006646D01*
X012663Y006704D02*
X012603Y006704D01*
X012603Y006762D02*
X012663Y006762D01*
X012663Y006820D02*
X012603Y006820D01*
X012603Y006878D02*
X012663Y006878D01*
X012663Y006936D02*
X012603Y006936D01*
X012603Y006994D02*
X012663Y006994D01*
X013981Y007002D02*
X013981Y006588D01*
X013981Y007002D02*
X014041Y007002D01*
X014041Y006588D01*
X013981Y006588D01*
X013981Y006646D02*
X014041Y006646D01*
X014041Y006704D02*
X013981Y006704D01*
X013981Y006762D02*
X014041Y006762D01*
X014041Y006820D02*
X013981Y006820D01*
X013981Y006878D02*
X014041Y006878D01*
X014041Y006936D02*
X013981Y006936D01*
X013981Y006994D02*
X014041Y006994D01*
X014158Y007119D02*
X014572Y007119D01*
X014158Y007119D02*
X014158Y007179D01*
X014572Y007179D01*
X014572Y007119D01*
X014572Y007177D02*
X014158Y007177D01*
X014158Y008497D02*
X014572Y008497D01*
X014158Y008497D02*
X014158Y008557D01*
X014572Y008557D01*
X014572Y008497D01*
X014572Y008555D02*
X014158Y008555D01*
X013981Y008674D02*
X013981Y009088D01*
X014041Y009088D01*
X014041Y008674D01*
X013981Y008674D01*
X013981Y008732D02*
X014041Y008732D01*
X014041Y008790D02*
X013981Y008790D01*
X013981Y008848D02*
X014041Y008848D01*
X014041Y008906D02*
X013981Y008906D01*
X013981Y008964D02*
X014041Y008964D01*
X014041Y009022D02*
X013981Y009022D01*
X013981Y009080D02*
X014041Y009080D01*
D19*
X013814Y008881D03*
X013617Y008881D03*
X013420Y008881D03*
X013224Y008881D03*
X013027Y008881D03*
X012830Y008881D03*
X012830Y006795D03*
X013027Y006795D03*
X013224Y006795D03*
X013420Y006795D03*
X013617Y006795D03*
X013814Y006795D03*
D20*
X014365Y007346D03*
X014365Y007543D03*
X014365Y007740D03*
X014365Y007936D03*
X014365Y008133D03*
X014365Y008330D03*
X012279Y008330D03*
X012279Y008133D03*
X012279Y007936D03*
X012279Y007740D03*
X012279Y007543D03*
X012279Y007346D03*
D21*
X013322Y007838D03*
D22*
X007062Y009098D03*
X006590Y009413D03*
X007062Y009728D03*
X006590Y010043D03*
X007062Y010358D03*
D23*
X006983Y011184D02*
X006511Y011184D01*
X005094Y011184D02*
X004621Y011184D01*
X004621Y008271D02*
X005094Y008271D01*
X006511Y008271D02*
X006983Y008271D01*
D24*
X007928Y009964D03*
X007928Y010673D03*
X010645Y010673D03*
X010645Y009964D03*
D25*
X013342Y011362D03*
X014011Y011362D03*
X014011Y012267D03*
X013342Y012267D03*
D26*
X012554Y012110D03*
X012043Y012110D03*
X012043Y011362D03*
X012298Y011362D03*
X012554Y011362D03*
D27*
X009976Y010653D03*
X009976Y009905D03*
X008716Y009905D03*
X008716Y010279D03*
X008716Y010653D03*
D28*
X008822Y004806D03*
X007822Y004806D03*
X009822Y004806D03*
X010822Y004806D03*
X011822Y004806D03*
X012822Y004806D03*
X013822Y004806D03*
X014822Y004806D03*
X015822Y004806D03*
X016822Y004806D03*
X017822Y004806D03*
X018822Y004806D03*
D29*
X011570Y006677D03*
X011570Y007188D03*
X010665Y006932D03*
D30*
X010133Y006932D01*
X010359Y006702D02*
X010395Y006667D01*
X010934Y006667D01*
X011009Y006742D01*
X011009Y007008D01*
X011057Y006960D01*
X011147Y006923D01*
X011245Y006923D01*
X011284Y006939D01*
X011291Y006932D01*
X011226Y006867D01*
X011226Y006486D01*
X011301Y006411D01*
X011840Y006411D01*
X011915Y006486D01*
X011915Y006574D01*
X011964Y006623D01*
X012082Y006741D01*
X012082Y006962D01*
X012102Y006962D01*
X012102Y006367D01*
X012264Y006204D01*
X010969Y006204D01*
X010865Y006100D01*
X009995Y005230D01*
X009647Y005230D01*
X009399Y004982D01*
X009399Y004631D01*
X009647Y004383D01*
X009997Y004383D01*
X010245Y004631D01*
X010245Y004979D01*
X011116Y005850D01*
X011615Y005850D01*
X010995Y005230D01*
X010647Y005230D01*
X010399Y004982D01*
X010399Y004631D01*
X010647Y004383D01*
X010997Y004383D01*
X011245Y004631D01*
X011245Y004979D01*
X011919Y005653D01*
X012418Y005653D01*
X011995Y005230D01*
X011647Y005230D01*
X011399Y004982D01*
X011399Y004631D01*
X011647Y004383D01*
X011997Y004383D01*
X012245Y004631D01*
X012245Y004979D01*
X012722Y005456D01*
X013221Y005456D01*
X012995Y005230D01*
X012647Y005230D01*
X012399Y004982D01*
X012399Y004631D01*
X012647Y004383D01*
X012997Y004383D01*
X013245Y004631D01*
X013245Y004979D01*
X013525Y005259D01*
X014024Y005259D01*
X013995Y005230D01*
X013647Y005230D01*
X013399Y004982D01*
X013399Y004631D01*
X013647Y004383D01*
X013997Y004383D01*
X014245Y004631D01*
X014245Y004979D01*
X014329Y005062D01*
X014479Y005062D01*
X014399Y004982D01*
X014399Y004631D01*
X014647Y004383D01*
X014997Y004383D01*
X015245Y004631D01*
X015245Y004747D01*
X015399Y004900D01*
X015399Y004631D01*
X015647Y004383D01*
X015997Y004383D01*
X016245Y004631D01*
X016245Y004982D01*
X016237Y004990D01*
X018159Y006913D01*
X018642Y006913D01*
X016959Y005230D01*
X016647Y005230D01*
X016399Y004982D01*
X016399Y004631D01*
X016647Y004383D01*
X016997Y004383D01*
X017245Y004631D01*
X017245Y004982D01*
X017229Y004998D01*
X018947Y006716D01*
X021151Y006716D01*
X021255Y006820D01*
X021452Y007017D01*
X021452Y008040D01*
X021590Y008178D01*
X021590Y008340D01*
X021761Y008340D01*
X021816Y008395D01*
X021816Y008297D01*
X021865Y008248D01*
X021865Y006509D01*
X021637Y006509D01*
X021634Y006513D01*
X021585Y006509D01*
X021537Y006509D01*
X021533Y006505D01*
X021455Y006500D01*
X021446Y006506D01*
X021403Y006496D01*
X021360Y006493D01*
X021353Y006485D01*
X021271Y006467D01*
X021262Y006472D01*
X021221Y006456D01*
X021178Y006447D01*
X021172Y006438D01*
X021094Y006409D01*
X021084Y006412D01*
X021046Y006391D01*
X021005Y006376D01*
X021000Y006366D01*
X020927Y006326D01*
X020917Y006328D01*
X020882Y006302D01*
X020843Y006281D01*
X020840Y006271D01*
X020774Y006221D01*
X020763Y006221D01*
X020732Y006190D01*
X020697Y006163D01*
X020696Y006153D01*
X020637Y006094D01*
X020626Y006093D01*
X020600Y006058D01*
X020569Y006027D01*
X020569Y006016D01*
X020519Y005949D01*
X020509Y005947D01*
X020488Y005908D01*
X020462Y005873D01*
X020463Y005863D01*
X020424Y005789D01*
X020414Y005785D01*
X020399Y005744D01*
X020378Y005706D01*
X020381Y005696D01*
X020352Y005618D01*
X020343Y005612D01*
X020333Y005569D01*
X020318Y005528D01*
X020322Y005518D01*
X020305Y005437D01*
X020297Y005430D01*
X020294Y005386D01*
X020284Y005344D01*
X020290Y005335D01*
X020284Y005257D01*
X020281Y005253D01*
X020281Y005205D01*
X020277Y005156D01*
X020281Y005152D01*
X020281Y003832D01*
X006363Y003832D01*
X006363Y005152D01*
X006367Y005156D01*
X006363Y005205D01*
X006363Y005253D01*
X006360Y005257D01*
X006354Y005335D01*
X006360Y005344D01*
X006350Y005386D01*
X006347Y005430D01*
X006339Y005437D01*
X006322Y005518D01*
X006326Y005528D01*
X006311Y005569D01*
X006301Y005612D01*
X006293Y005618D01*
X006263Y005696D01*
X006266Y005706D01*
X006245Y005744D01*
X006230Y005785D01*
X006221Y005789D01*
X006181Y005863D01*
X006182Y005873D01*
X006156Y005908D01*
X006135Y005947D01*
X006125Y005949D01*
X006075Y006016D01*
X006075Y006027D01*
X006044Y006058D01*
X006018Y006093D01*
X006007Y006094D01*
X005948Y006153D01*
X005947Y006163D01*
X005912Y006190D01*
X005881Y006221D01*
X005870Y006221D01*
X005804Y006271D01*
X005801Y006281D01*
X005762Y006302D01*
X005727Y006328D01*
X005717Y006326D01*
X005644Y006366D01*
X005639Y006376D01*
X005598Y006391D01*
X005560Y006412D01*
X005550Y006409D01*
X005472Y006438D01*
X005466Y006447D01*
X005423Y006456D01*
X005382Y006472D01*
X005373Y006467D01*
X005291Y006485D01*
X005284Y006493D01*
X005241Y006496D01*
X005198Y006506D01*
X005189Y006500D01*
X005111Y006505D01*
X005107Y006509D01*
X005059Y006509D01*
X005011Y006513D01*
X005007Y006509D01*
X003686Y006509D01*
X003686Y012946D01*
X005007Y012946D01*
X005011Y012943D01*
X005059Y012946D01*
X005107Y012946D01*
X005111Y012950D01*
X005189Y012956D01*
X005198Y012950D01*
X005241Y012959D01*
X005284Y012962D01*
X005291Y012970D01*
X005373Y012988D01*
X005382Y012984D01*
X005423Y012999D01*
X005466Y013008D01*
X005472Y013017D01*
X005550Y013046D01*
X005560Y013043D01*
X005598Y013064D01*
X005639Y013080D01*
X005644Y013089D01*
X005717Y013129D01*
X005727Y013127D01*
X005762Y013154D01*
X005801Y013175D01*
X005804Y013185D01*
X005870Y013235D01*
X005881Y013235D01*
X005912Y013266D01*
X005947Y013292D01*
X005948Y013302D01*
X006007Y013361D01*
X006018Y013363D01*
X006044Y013398D01*
X006075Y013429D01*
X006075Y013439D01*
X006125Y013506D01*
X006135Y013509D01*
X006156Y013547D01*
X006182Y013582D01*
X006181Y013593D01*
X006221Y013666D01*
X006230Y013670D01*
X006245Y013711D01*
X006266Y013750D01*
X006263Y013760D01*
X006293Y013838D01*
X006301Y013844D01*
X006311Y013886D01*
X006326Y013927D01*
X006322Y013937D01*
X006339Y014018D01*
X006347Y014025D01*
X006350Y014069D01*
X006360Y014112D01*
X006354Y014121D01*
X006360Y014199D01*
X006363Y014202D01*
X006363Y014251D01*
X006367Y014299D01*
X006363Y014303D01*
X006363Y015623D01*
X020281Y015623D01*
X020281Y014303D01*
X020277Y014299D01*
X020281Y014251D01*
X020281Y014202D01*
X020284Y014199D01*
X020290Y014121D01*
X020284Y014112D01*
X020294Y014069D01*
X020297Y014025D01*
X020305Y014018D01*
X020322Y013937D01*
X020318Y013927D01*
X020333Y013886D01*
X020343Y013844D01*
X020352Y013838D01*
X020381Y013760D01*
X020378Y013750D01*
X020399Y013711D01*
X020414Y013670D01*
X020424Y013666D01*
X020463Y013593D01*
X020462Y013582D01*
X020488Y013547D01*
X020509Y013509D01*
X020519Y013506D01*
X020569Y013439D01*
X020569Y013429D01*
X020600Y013398D01*
X020626Y013363D01*
X020637Y013361D01*
X020696Y013302D01*
X020697Y013292D01*
X020732Y013266D01*
X020763Y013235D01*
X020774Y013235D01*
X020840Y013185D01*
X020843Y013175D01*
X020882Y013154D01*
X020917Y013127D01*
X020927Y013129D01*
X021000Y013089D01*
X021005Y013080D01*
X021046Y013064D01*
X021084Y013043D01*
X021094Y013046D01*
X021172Y013017D01*
X021178Y013008D01*
X021221Y012999D01*
X021262Y012984D01*
X021271Y012988D01*
X021353Y012970D01*
X021360Y012962D01*
X021403Y012959D01*
X021446Y012950D01*
X021455Y012956D01*
X021533Y012950D01*
X021537Y012946D01*
X021585Y012946D01*
X021634Y012943D01*
X021637Y012946D01*
X021865Y012946D01*
X021865Y011208D01*
X021816Y011159D01*
X021816Y010427D01*
X021576Y010427D01*
X021501Y010352D01*
X021501Y010127D01*
X021576Y010052D01*
X021816Y010052D01*
X021816Y009147D01*
X021576Y009147D01*
X021555Y009126D01*
X021532Y009149D01*
X021442Y009186D01*
X021344Y009186D01*
X021254Y009149D01*
X021252Y009147D01*
X021074Y009147D01*
X021058Y009131D01*
X021042Y009147D01*
X020818Y009147D01*
X020773Y009102D01*
X020773Y009167D01*
X020724Y009216D01*
X020773Y009265D01*
X020773Y009403D01*
X020733Y009443D01*
X020733Y009584D01*
X020718Y009600D01*
X020733Y009616D01*
X020733Y009840D01*
X020718Y009856D01*
X020733Y009872D01*
X020733Y010096D01*
X020718Y010112D01*
X020733Y010127D01*
X020733Y010352D01*
X020718Y010367D01*
X020733Y010383D01*
X020733Y010607D01*
X020718Y010623D01*
X020816Y010623D01*
X020822Y010629D01*
X020828Y010623D01*
X021015Y010623D01*
X020999Y010607D01*
X020999Y010383D01*
X021074Y010308D01*
X021298Y010308D01*
X021373Y010383D01*
X021373Y010607D01*
X021357Y010623D01*
X021525Y010623D01*
X021600Y010698D01*
X021600Y011041D01*
X021590Y011050D01*
X021590Y011199D01*
X021491Y011297D01*
X021491Y011573D01*
X021865Y011573D01*
X021865Y011476D02*
X021491Y011476D01*
X021491Y011379D02*
X021865Y011379D01*
X021865Y011282D02*
X021506Y011282D01*
X021590Y011186D02*
X021843Y011186D01*
X021816Y011089D02*
X021590Y011089D01*
X021600Y010992D02*
X021816Y010992D01*
X021816Y010895D02*
X021600Y010895D01*
X021600Y010798D02*
X021816Y010798D01*
X021816Y010701D02*
X021600Y010701D01*
X021816Y010604D02*
X021373Y010604D01*
X021373Y010507D02*
X021816Y010507D01*
X021560Y010410D02*
X021373Y010410D01*
X021303Y010313D02*
X021501Y010313D01*
X021501Y010216D02*
X020733Y010216D01*
X020725Y010119D02*
X021509Y010119D01*
X021816Y010022D02*
X020733Y010022D01*
X020733Y009925D02*
X021816Y009925D01*
X021816Y009829D02*
X020733Y009829D01*
X020733Y009732D02*
X021816Y009732D01*
X021816Y009635D02*
X020733Y009635D01*
X020733Y009538D02*
X021816Y009538D01*
X021816Y009441D02*
X020735Y009441D01*
X020773Y009344D02*
X021816Y009344D01*
X021816Y009247D02*
X020755Y009247D01*
X020773Y009150D02*
X021256Y009150D01*
X021186Y008960D02*
X021373Y008960D01*
X021393Y008940D01*
X021529Y009150D02*
X021816Y009150D01*
X021413Y008586D02*
X021413Y008251D01*
X021275Y008114D01*
X021275Y007090D01*
X021078Y006893D01*
X018873Y006893D01*
X016822Y004842D01*
X016822Y004806D01*
X016532Y004498D02*
X016112Y004498D01*
X016209Y004595D02*
X016435Y004595D01*
X016399Y004692D02*
X016245Y004692D01*
X016245Y004788D02*
X016399Y004788D01*
X016399Y004885D02*
X016245Y004885D01*
X016245Y004982D02*
X016399Y004982D01*
X016326Y005079D02*
X016496Y005079D01*
X016423Y005176D02*
X016593Y005176D01*
X016520Y005273D02*
X017003Y005273D01*
X017100Y005370D02*
X016616Y005370D01*
X016713Y005467D02*
X017197Y005467D01*
X017293Y005564D02*
X016810Y005564D01*
X016907Y005661D02*
X017390Y005661D01*
X017487Y005758D02*
X017004Y005758D01*
X017101Y005855D02*
X017584Y005855D01*
X017681Y005952D02*
X017198Y005952D01*
X017295Y006048D02*
X017778Y006048D01*
X017875Y006145D02*
X017392Y006145D01*
X017489Y006242D02*
X017972Y006242D01*
X018069Y006339D02*
X017586Y006339D01*
X017683Y006436D02*
X018166Y006436D01*
X018263Y006533D02*
X017780Y006533D01*
X017877Y006630D02*
X018360Y006630D01*
X018457Y006727D02*
X017973Y006727D01*
X018070Y006824D02*
X018554Y006824D01*
X018861Y006630D02*
X021865Y006630D01*
X021865Y006533D02*
X018764Y006533D01*
X018667Y006436D02*
X021166Y006436D01*
X020951Y006339D02*
X018570Y006339D01*
X018473Y006242D02*
X020803Y006242D01*
X020688Y006145D02*
X018376Y006145D01*
X018279Y006048D02*
X020591Y006048D01*
X020521Y005952D02*
X018182Y005952D01*
X018085Y005855D02*
X020459Y005855D01*
X020404Y005758D02*
X017988Y005758D01*
X017892Y005661D02*
X020368Y005661D01*
X020331Y005564D02*
X017795Y005564D01*
X017698Y005467D02*
X020311Y005467D01*
X020290Y005370D02*
X017601Y005370D01*
X017504Y005273D02*
X020286Y005273D01*
X020279Y005176D02*
X019051Y005176D01*
X018997Y005230D02*
X018647Y005230D01*
X018399Y004982D01*
X018399Y004631D01*
X018647Y004383D01*
X018997Y004383D01*
X019245Y004631D01*
X019245Y004982D01*
X018997Y005230D01*
X019148Y005079D02*
X020281Y005079D01*
X020281Y004982D02*
X019245Y004982D01*
X019245Y004885D02*
X020281Y004885D01*
X020281Y004788D02*
X019245Y004788D01*
X019245Y004692D02*
X020281Y004692D01*
X020281Y004595D02*
X019209Y004595D01*
X019112Y004498D02*
X020281Y004498D01*
X020281Y004401D02*
X019015Y004401D01*
X018629Y004401D02*
X017015Y004401D01*
X017112Y004498D02*
X018532Y004498D01*
X018435Y004595D02*
X017209Y004595D01*
X017245Y004692D02*
X018399Y004692D01*
X018399Y004788D02*
X017245Y004788D01*
X017245Y004885D02*
X018399Y004885D01*
X018399Y004982D02*
X017245Y004982D01*
X017310Y005079D02*
X018496Y005079D01*
X018593Y005176D02*
X017407Y005176D01*
X016697Y005952D02*
X016450Y005952D01*
X016547Y006048D02*
X016794Y006048D01*
X016891Y006145D02*
X016644Y006145D01*
X016741Y006242D02*
X016988Y006242D01*
X017085Y006339D02*
X016838Y006339D01*
X016935Y006436D02*
X017182Y006436D01*
X017278Y006533D02*
X017032Y006533D01*
X017128Y006630D02*
X017375Y006630D01*
X017472Y006727D02*
X017225Y006727D01*
X017322Y006824D02*
X017569Y006824D01*
X017666Y006921D02*
X017419Y006921D01*
X017516Y007018D02*
X017763Y007018D01*
X017860Y007115D02*
X017613Y007115D01*
X017710Y007212D02*
X017957Y007212D01*
X018012Y007267D02*
X015975Y005230D01*
X015728Y005230D01*
X018539Y008040D01*
X018539Y008276D01*
X019149Y008887D01*
X019149Y008560D01*
X019241Y008468D01*
X019686Y008468D01*
X019690Y008472D01*
X019690Y008458D01*
X019728Y008368D01*
X019797Y008299D01*
X019887Y008261D01*
X019985Y008261D01*
X020076Y008299D01*
X020145Y008368D01*
X020182Y008458D01*
X020182Y008572D01*
X020202Y008592D01*
X020202Y008655D01*
X020340Y008655D01*
X020430Y008692D01*
X020452Y008714D01*
X020517Y008714D01*
X020517Y008512D01*
X020375Y008369D01*
X020217Y008369D01*
X020113Y008266D01*
X019970Y008123D01*
X019930Y008163D01*
X019312Y008163D01*
X019237Y008088D01*
X019237Y007273D01*
X019243Y007267D01*
X018012Y007267D01*
X017904Y007405D02*
X019237Y007405D01*
X019237Y007309D02*
X017807Y007309D01*
X018001Y007502D02*
X019237Y007502D01*
X019237Y007599D02*
X018098Y007599D01*
X018195Y007696D02*
X019237Y007696D01*
X019237Y007793D02*
X018292Y007793D01*
X018389Y007890D02*
X019237Y007890D01*
X019237Y007987D02*
X018485Y007987D01*
X018539Y008084D02*
X019237Y008084D01*
X019237Y008472D02*
X018734Y008472D01*
X018831Y008569D02*
X019149Y008569D01*
X019149Y008665D02*
X018928Y008665D01*
X019025Y008762D02*
X019149Y008762D01*
X019149Y008859D02*
X019122Y008859D01*
X019321Y009058D02*
X019655Y009393D01*
X019688Y009313D01*
X019757Y009244D01*
X019848Y009206D01*
X019946Y009206D01*
X020001Y009229D01*
X020064Y009167D01*
X020281Y009167D01*
X020281Y009147D01*
X019887Y009147D01*
X019797Y009110D01*
X019728Y009040D01*
X019721Y009024D01*
X019686Y009058D01*
X019556Y009058D01*
X019464Y008966D01*
X019464Y008783D01*
X019464Y008783D01*
X019464Y008966D01*
X019372Y009058D01*
X019321Y009058D01*
X019377Y009053D02*
X019551Y009053D01*
X019464Y008956D02*
X019464Y008956D01*
X019464Y008859D02*
X019464Y008859D01*
X019412Y009150D02*
X020281Y009150D01*
X020487Y009216D02*
X020930Y009216D01*
X020930Y009334D01*
X020487Y009216D02*
X020015Y009216D01*
X019754Y009247D02*
X019509Y009247D01*
X019606Y009344D02*
X019675Y009344D01*
X019897Y009452D02*
X020291Y009452D01*
X020310Y009472D01*
X020487Y009472D01*
X020487Y009728D02*
X020094Y009728D01*
X019976Y009964D02*
X018361Y008350D01*
X018361Y008114D01*
X015054Y004806D01*
X014822Y004806D01*
X014532Y004498D02*
X014112Y004498D01*
X014209Y004595D02*
X014435Y004595D01*
X014399Y004692D02*
X014245Y004692D01*
X014245Y004788D02*
X014399Y004788D01*
X014399Y004885D02*
X014245Y004885D01*
X014248Y004982D02*
X014399Y004982D01*
X014255Y005240D02*
X015212Y005240D01*
X018165Y008192D01*
X018165Y008428D01*
X019976Y010240D01*
X020487Y010240D01*
X020487Y010495D02*
X020310Y010495D01*
X020291Y010476D01*
X019936Y010476D01*
X017968Y008507D01*
X017968Y008271D01*
X015133Y005436D01*
X013452Y005436D01*
X012822Y004806D01*
X012532Y004498D02*
X012112Y004498D01*
X012209Y004595D02*
X012435Y004595D01*
X012399Y004692D02*
X012245Y004692D01*
X012245Y004788D02*
X012399Y004788D01*
X012399Y004885D02*
X012245Y004885D01*
X012248Y004982D02*
X012399Y004982D01*
X012345Y005079D02*
X012496Y005079D01*
X012442Y005176D02*
X012593Y005176D01*
X012539Y005273D02*
X013038Y005273D01*
X013135Y005370D02*
X012636Y005370D01*
X012649Y005633D02*
X015054Y005633D01*
X017771Y008350D01*
X017771Y008586D01*
X019779Y010594D01*
X019779Y010830D01*
X020448Y011539D01*
X020724Y011539D01*
X020920Y011342D01*
X020920Y011066D01*
X020940Y011047D01*
X020940Y010869D01*
X020704Y010869D02*
X020704Y011204D01*
X020606Y011302D01*
X020527Y011069D02*
X020466Y011094D01*
X020397Y011163D01*
X020379Y011207D01*
X019956Y010760D01*
X019956Y010653D01*
X020217Y010653D01*
X020237Y010673D01*
X020306Y010673D01*
X020316Y010682D01*
X020533Y010682D01*
X020517Y010698D01*
X020517Y011041D01*
X020527Y011050D01*
X020527Y011069D01*
X020479Y011089D02*
X020267Y011089D01*
X020358Y011186D02*
X020388Y011186D01*
X020517Y010992D02*
X020175Y010992D01*
X020084Y010895D02*
X020517Y010895D01*
X020517Y010798D02*
X019992Y010798D01*
X019956Y010701D02*
X020517Y010701D01*
X020733Y010604D02*
X020999Y010604D01*
X020999Y010507D02*
X020733Y010507D01*
X020733Y010410D02*
X020999Y010410D01*
X021069Y010313D02*
X020733Y010313D01*
X020487Y009984D02*
X020310Y009984D01*
X020291Y009964D01*
X019976Y009964D01*
X019582Y010673D02*
X019582Y010948D01*
X020369Y011736D01*
X020802Y011736D01*
X021117Y011421D01*
X021117Y011145D01*
X021176Y011086D01*
X021176Y010869D01*
X021413Y010869D02*
X021413Y011125D01*
X021314Y011224D01*
X021314Y011499D01*
X020881Y011932D01*
X020291Y011932D01*
X019385Y011027D01*
X019385Y010869D01*
X018716Y010200D01*
X016472Y010200D01*
X016737Y010377D02*
X016737Y010391D01*
X016662Y010466D01*
X016281Y010466D01*
X016235Y010420D01*
X016190Y010466D01*
X015808Y010466D01*
X015733Y010391D01*
X015733Y010185D01*
X015572Y010023D01*
X015468Y009919D01*
X015468Y009447D01*
X014745Y008724D01*
X014587Y008724D01*
X014577Y008714D01*
X014395Y008714D01*
X014395Y008724D01*
X014655Y008724D01*
X014917Y008985D01*
X014917Y009266D01*
X014966Y009245D01*
X015064Y009245D01*
X015154Y009283D01*
X015224Y009352D01*
X015261Y009443D01*
X015261Y009557D01*
X015281Y009576D01*
X015281Y009958D01*
X015235Y010003D01*
X015281Y010049D01*
X015281Y010260D01*
X015819Y010820D01*
X016209Y010820D01*
X016491Y011103D01*
X016491Y011502D01*
X016209Y011785D01*
X015809Y011785D01*
X015527Y011502D01*
X015527Y011103D01*
X015564Y011066D01*
X015025Y010505D01*
X014824Y010505D01*
X014749Y010430D01*
X014749Y010224D01*
X014730Y010205D01*
X014730Y010430D01*
X014655Y010505D01*
X014429Y010505D01*
X014458Y010535D01*
X014773Y010535D01*
X015468Y011229D01*
X015468Y012095D01*
X016123Y012750D01*
X016163Y012789D01*
X016209Y012789D01*
X016491Y013071D01*
X016491Y013471D01*
X016209Y013753D01*
X015809Y013753D01*
X015527Y013471D01*
X015527Y013071D01*
X015735Y012863D01*
X015113Y012242D01*
X015113Y011376D01*
X014627Y010889D01*
X014456Y010889D01*
X014493Y010926D01*
X014493Y011115D01*
X014851Y011115D01*
X014926Y011190D01*
X014926Y011464D01*
X014976Y011513D01*
X014976Y011958D01*
X014883Y012051D01*
X014753Y012051D01*
X014661Y011958D01*
X014568Y012051D01*
X014476Y012051D01*
X014407Y012119D01*
X013903Y012119D01*
X013903Y012680D01*
X014096Y012680D01*
X014188Y012773D01*
X014188Y012903D01*
X014096Y012995D01*
X013873Y012995D01*
X013873Y012995D01*
X014096Y012995D01*
X014188Y013088D01*
X014188Y013218D01*
X014096Y013310D01*
X013651Y013310D01*
X013601Y013261D01*
X013249Y013261D01*
X013174Y013186D01*
X013174Y012980D01*
X013165Y012970D01*
X013165Y012789D01*
X012946Y012789D01*
X012859Y012702D01*
X012859Y012035D01*
X012816Y011991D01*
X012761Y011937D01*
X012761Y012300D01*
X012751Y012310D01*
X012751Y012313D01*
X012783Y012344D01*
X012820Y012435D01*
X012820Y012533D01*
X012783Y012623D01*
X012713Y012692D01*
X012623Y012730D01*
X012525Y012730D01*
X012435Y012692D01*
X012427Y012684D01*
X012372Y012740D01*
X011663Y013448D01*
X011117Y013448D01*
X011117Y013471D01*
X010835Y013753D01*
X010435Y013753D01*
X010153Y013471D01*
X010153Y013071D01*
X010435Y012789D01*
X010835Y012789D01*
X011117Y013071D01*
X011117Y013094D01*
X011516Y013094D01*
X011694Y012917D01*
X011288Y012917D01*
X011196Y012824D01*
X011196Y012694D01*
X011288Y012602D01*
X011196Y012509D01*
X011196Y012379D01*
X011200Y012375D01*
X011147Y012375D01*
X011057Y012338D01*
X010987Y012269D01*
X010950Y012178D01*
X010950Y012080D01*
X010987Y011990D01*
X011057Y011921D01*
X011147Y011883D01*
X011261Y011883D01*
X011281Y011864D01*
X011662Y011864D01*
X011682Y011883D01*
X011871Y011883D01*
X011911Y011844D01*
X012121Y011844D01*
X012121Y011627D01*
X011911Y011627D01*
X011836Y011552D01*
X011836Y011171D01*
X011911Y011096D01*
X012121Y011096D01*
X012121Y010505D01*
X011950Y010505D01*
X011905Y010460D01*
X011859Y010505D01*
X011482Y010505D01*
X011482Y010847D01*
X011438Y010952D01*
X011358Y011033D01*
X011253Y011076D01*
X011139Y011076D01*
X011034Y011033D01*
X010960Y010958D01*
X010934Y010958D01*
X010895Y010997D01*
X010395Y010997D01*
X010356Y010958D01*
X010155Y010958D01*
X010050Y010915D01*
X010035Y010899D01*
X009686Y010899D01*
X009611Y010824D01*
X009611Y010482D01*
X009686Y010407D01*
X010108Y010407D01*
X010155Y010387D01*
X010291Y010387D01*
X010291Y010125D01*
X010265Y010151D01*
X009686Y010151D01*
X009611Y010076D01*
X009611Y009734D01*
X009686Y009659D01*
X010265Y009659D01*
X010299Y009693D01*
X010383Y009610D01*
X010513Y009610D01*
X010606Y009702D01*
X010606Y010003D01*
X010684Y010003D01*
X010684Y009702D01*
X010777Y009610D01*
X010907Y009610D01*
X010999Y009702D01*
X010999Y010348D01*
X011019Y010328D01*
X011019Y008363D01*
X010987Y008332D01*
X010950Y008241D01*
X010950Y008143D01*
X010987Y008053D01*
X011057Y007984D01*
X011147Y007946D01*
X011245Y007946D01*
X011335Y007984D01*
X011405Y008053D01*
X011442Y008143D01*
X011442Y008241D01*
X011405Y008332D01*
X011373Y008363D01*
X011373Y008709D01*
X011713Y008369D01*
X011915Y008369D01*
X011915Y007901D01*
X011910Y007897D01*
X009533Y007897D01*
X009533Y008068D01*
X009487Y008114D01*
X009533Y008159D01*
X009533Y008541D01*
X009458Y008615D01*
X009076Y008615D01*
X009071Y008611D01*
X009017Y008665D01*
X008572Y008665D01*
X008480Y008572D01*
X008480Y008442D01*
X008572Y008350D01*
X008794Y008350D01*
X008794Y008350D01*
X008572Y008350D01*
X008480Y008257D01*
X008480Y008127D01*
X008534Y008073D01*
X008529Y008068D01*
X008529Y007897D01*
X007844Y007897D01*
X007751Y007990D01*
X007751Y009610D01*
X007797Y009610D01*
X007889Y009702D01*
X007889Y010003D01*
X007968Y010003D01*
X007968Y009702D01*
X008060Y009610D01*
X008190Y009610D01*
X008283Y009702D01*
X008283Y009792D01*
X008327Y009747D01*
X008352Y009747D01*
X008352Y009734D01*
X008427Y009659D01*
X009005Y009659D01*
X009080Y009734D01*
X009080Y010076D01*
X009070Y010086D01*
X009070Y010187D01*
X008978Y010279D01*
X009070Y010371D01*
X009070Y010472D01*
X009080Y010482D01*
X009080Y010824D01*
X009005Y010899D01*
X008657Y010899D01*
X008641Y010915D01*
X008536Y010958D01*
X008218Y010958D01*
X008178Y010997D01*
X007679Y010997D01*
X007639Y010958D01*
X007320Y010958D01*
X007238Y010924D01*
X007292Y010978D01*
X007348Y011112D01*
X007348Y011257D01*
X007292Y011391D01*
X007190Y011493D01*
X007056Y011549D01*
X006439Y011549D01*
X006305Y011493D01*
X006202Y011391D01*
X006147Y011257D01*
X006147Y011112D01*
X006202Y010978D01*
X006305Y010876D01*
X006439Y010820D01*
X007056Y010820D01*
X007167Y010866D01*
X007135Y010834D01*
X006901Y010600D01*
X006901Y010600D01*
X006820Y010519D01*
X006777Y010414D01*
X006777Y010301D01*
X006806Y010230D01*
X006751Y010285D01*
X006647Y010328D01*
X006533Y010328D01*
X006428Y010285D01*
X006348Y010204D01*
X006304Y010099D01*
X006304Y009986D01*
X006348Y009881D01*
X006428Y009801D01*
X006533Y009757D01*
X006647Y009757D01*
X006751Y009801D01*
X006806Y009855D01*
X006777Y009784D01*
X006777Y009671D01*
X006806Y009600D01*
X006751Y009655D01*
X006647Y009698D01*
X006533Y009698D01*
X006428Y009655D01*
X006348Y009574D01*
X006304Y009470D01*
X006304Y009356D01*
X006348Y009251D01*
X006428Y009171D01*
X006533Y009127D01*
X006647Y009127D01*
X006751Y009171D01*
X006832Y009251D01*
X006875Y009356D01*
X006875Y009470D01*
X006846Y009540D01*
X006901Y009486D01*
X007005Y009442D01*
X007119Y009442D01*
X007224Y009486D01*
X007239Y009501D01*
X007239Y008530D01*
X007190Y008580D01*
X007056Y008635D01*
X006439Y008635D01*
X006305Y008580D01*
X006202Y008477D01*
X006147Y008343D01*
X006147Y008199D01*
X006202Y008065D01*
X006305Y007962D01*
X006439Y007907D01*
X007056Y007907D01*
X007190Y007962D01*
X007239Y008012D01*
X007239Y007725D01*
X007476Y007489D01*
X007579Y007385D01*
X008529Y007385D01*
X008529Y007214D01*
X008534Y007209D01*
X008480Y007155D01*
X008480Y007025D01*
X008572Y006932D01*
X008480Y006840D01*
X008480Y006710D01*
X008572Y006617D01*
X009017Y006617D01*
X009071Y006672D01*
X009076Y006667D01*
X009458Y006667D01*
X009464Y006673D01*
X009470Y006667D01*
X009851Y006667D01*
X009897Y006712D01*
X009942Y006667D01*
X010324Y006667D01*
X010359Y006702D01*
X010994Y006727D02*
X011226Y006727D01*
X011226Y006824D02*
X011009Y006824D01*
X011009Y006921D02*
X011279Y006921D01*
X011226Y006630D02*
X009030Y006630D01*
X008794Y006932D02*
X008572Y006932D01*
X008794Y006932D01*
X008794Y006932D01*
X008560Y006921D02*
X003686Y006921D01*
X003686Y007018D02*
X008486Y007018D01*
X008480Y007115D02*
X003686Y007115D01*
X003686Y007212D02*
X008531Y007212D01*
X008529Y007309D02*
X003686Y007309D01*
X003686Y007405D02*
X007559Y007405D01*
X007462Y007502D02*
X003686Y007502D01*
X003686Y007599D02*
X007365Y007599D01*
X007268Y007696D02*
X003686Y007696D01*
X003686Y007793D02*
X007239Y007793D01*
X007239Y007890D02*
X003686Y007890D01*
X003686Y007987D02*
X004390Y007987D01*
X004415Y007962D02*
X004549Y007907D01*
X005166Y007907D01*
X005300Y007962D01*
X005402Y008065D01*
X005458Y008199D01*
X005458Y008343D01*
X005402Y008477D01*
X005300Y008580D01*
X005166Y008635D01*
X004549Y008635D01*
X004415Y008580D01*
X004313Y008477D01*
X004257Y008343D01*
X004257Y008199D01*
X004313Y008065D01*
X004415Y007962D01*
X004305Y008084D02*
X003686Y008084D01*
X003686Y008181D02*
X004264Y008181D01*
X004257Y008278D02*
X003686Y008278D01*
X003686Y008375D02*
X004270Y008375D01*
X004310Y008472D02*
X003686Y008472D01*
X003686Y008569D02*
X004404Y008569D01*
X003686Y008665D02*
X007239Y008665D01*
X007239Y008569D02*
X007201Y008569D01*
X007239Y008762D02*
X003686Y008762D01*
X003686Y008859D02*
X007239Y008859D01*
X007239Y008956D02*
X003686Y008956D01*
X003686Y009053D02*
X007239Y009053D01*
X007239Y009150D02*
X006702Y009150D01*
X006828Y009247D02*
X007239Y009247D01*
X007239Y009344D02*
X006870Y009344D01*
X006875Y009441D02*
X007239Y009441D01*
X007417Y009610D02*
X007298Y009728D01*
X007062Y009728D01*
X006777Y009732D02*
X003686Y009732D01*
X003686Y009829D02*
X006400Y009829D01*
X006329Y009925D02*
X003686Y009925D01*
X003686Y010022D02*
X006304Y010022D01*
X006313Y010119D02*
X003686Y010119D01*
X003686Y010216D02*
X006360Y010216D01*
X006497Y010313D02*
X003686Y010313D01*
X003686Y010410D02*
X006777Y010410D01*
X006777Y010313D02*
X006683Y010313D01*
X006815Y010507D02*
X003686Y010507D01*
X003686Y010604D02*
X006905Y010604D01*
X007002Y010701D02*
X003686Y010701D01*
X003686Y010798D02*
X007099Y010798D01*
X007298Y010992D02*
X007673Y010992D01*
X007338Y011089D02*
X012121Y011089D01*
X012121Y010992D02*
X011399Y010992D01*
X011462Y010895D02*
X012121Y010895D01*
X012121Y010798D02*
X011482Y010798D01*
X011482Y010701D02*
X012121Y010701D01*
X012121Y010604D02*
X011482Y010604D01*
X011482Y010507D02*
X012121Y010507D01*
X012298Y010397D02*
X012298Y011362D01*
X012298Y012562D01*
X011590Y013271D01*
X010635Y013271D01*
X010294Y012930D02*
X003686Y012930D01*
X003686Y012833D02*
X010391Y012833D01*
X010197Y013027D02*
X005499Y013027D01*
X005708Y013124D02*
X010153Y013124D01*
X010153Y013221D02*
X005852Y013221D01*
X005964Y013318D02*
X010153Y013318D01*
X010153Y013415D02*
X006061Y013415D01*
X006136Y013512D02*
X010194Y013512D01*
X010291Y013609D02*
X006189Y013609D01*
X006243Y013706D02*
X010388Y013706D01*
X010392Y014049D02*
X010532Y014049D01*
X010630Y014147D01*
X010630Y014165D01*
X010694Y014101D01*
X010747Y014049D01*
X010991Y014049D01*
X011080Y014138D01*
X011094Y014097D01*
X011106Y014091D01*
X011112Y014079D01*
X011167Y014061D01*
X011218Y014035D01*
X011231Y014039D01*
X011244Y014035D01*
X011296Y014061D01*
X011350Y014079D01*
X011356Y014091D01*
X011369Y014097D01*
X011387Y014152D01*
X011517Y014413D01*
X011473Y014545D01*
X011349Y014607D01*
X011231Y014568D01*
X011114Y014607D01*
X011023Y014562D01*
X010991Y014594D01*
X010747Y014594D01*
X010718Y014565D01*
X010688Y014594D01*
X010392Y014594D01*
X010294Y014495D01*
X010294Y014147D01*
X010392Y014049D01*
X010348Y014093D02*
X006356Y014093D01*
X006359Y014190D02*
X010294Y014190D01*
X010294Y014287D02*
X006366Y014287D01*
X006363Y014384D02*
X010294Y014384D01*
X010294Y014481D02*
X006363Y014481D01*
X006363Y014578D02*
X010377Y014578D01*
X010704Y014578D02*
X010731Y014578D01*
X011006Y014578D02*
X011055Y014578D01*
X011201Y014578D02*
X011261Y014578D01*
X011407Y014578D02*
X011714Y014578D01*
X011736Y014600D02*
X011684Y014548D01*
X011684Y014548D01*
X011684Y014548D01*
X011684Y014477D01*
X011684Y014199D01*
X011782Y014101D01*
X011834Y014049D01*
X012078Y014049D01*
X012111Y014082D01*
X012145Y014049D01*
X012674Y014049D01*
X012773Y014147D01*
X012773Y014286D01*
X012674Y014384D01*
X012668Y014384D01*
X012668Y014600D01*
X012619Y014649D01*
X012570Y014698D01*
X012430Y014698D01*
X012364Y014632D01*
X012332Y014600D01*
X012229Y014497D01*
X012229Y014548D01*
X012177Y014600D01*
X012078Y014698D01*
X011973Y014698D01*
X011973Y014698D01*
X011944Y014698D01*
X011939Y014698D01*
X011834Y014698D01*
X011736Y014600D01*
X011736Y014600D01*
X011811Y014675D02*
X006363Y014675D01*
X006363Y014772D02*
X020281Y014772D01*
X020281Y014869D02*
X006363Y014869D01*
X006363Y014966D02*
X020281Y014966D01*
X020281Y015063D02*
X006363Y015063D01*
X006363Y015159D02*
X020281Y015159D01*
X020281Y015256D02*
X006363Y015256D01*
X006363Y015353D02*
X020281Y015353D01*
X020281Y015450D02*
X006363Y015450D01*
X006363Y015547D02*
X020281Y015547D01*
X020281Y014675D02*
X015856Y014675D01*
X015832Y014698D02*
X015588Y014698D01*
X015581Y014691D01*
X015574Y014698D01*
X015435Y014698D01*
X015400Y014663D01*
X015365Y014698D01*
X015226Y014698D01*
X015219Y014691D01*
X015212Y014698D01*
X015073Y014698D01*
X015038Y014663D01*
X015003Y014698D01*
X014863Y014698D01*
X014856Y014691D01*
X014849Y014698D01*
X014501Y014698D01*
X014468Y014665D01*
X014434Y014698D01*
X014295Y014698D01*
X014210Y014613D01*
X014124Y014698D01*
X013985Y014698D01*
X013950Y014663D01*
X013915Y014698D01*
X013776Y014698D01*
X013677Y014600D01*
X013677Y014332D01*
X013498Y014332D01*
X013498Y014374D01*
X013498Y014479D01*
X013498Y014548D01*
X013445Y014600D01*
X013348Y014697D01*
X013347Y014698D01*
X013347Y014698D01*
X013242Y014698D01*
X013242Y014698D01*
X013226Y014698D01*
X013208Y014698D01*
X013103Y014698D01*
X013005Y014600D01*
X012952Y014548D01*
X012952Y014477D01*
X012952Y014199D01*
X013051Y014101D01*
X013103Y014049D01*
X013347Y014049D01*
X013354Y014056D01*
X013413Y013996D01*
X013762Y013996D01*
X013814Y014049D01*
X013915Y014049D01*
X013950Y014084D01*
X013985Y014049D01*
X014124Y014049D01*
X014210Y014134D01*
X014295Y014049D01*
X014434Y014049D01*
X014468Y014082D01*
X014501Y014049D01*
X014849Y014049D01*
X014883Y014082D01*
X014916Y014049D01*
X015159Y014049D01*
X015193Y014082D01*
X015226Y014049D01*
X015365Y014049D01*
X015400Y014084D01*
X015435Y014049D01*
X015574Y014049D01*
X015581Y014056D01*
X015588Y014049D01*
X015778Y014049D01*
X015830Y013996D01*
X016179Y013996D01*
X020310Y013996D01*
X020329Y013899D02*
X006316Y013899D01*
X006335Y013996D02*
X013413Y013996D01*
X013762Y013996D02*
X015830Y013996D01*
X015762Y013706D02*
X010883Y013706D01*
X010979Y013609D02*
X015665Y013609D01*
X015568Y013512D02*
X011076Y013512D01*
X011697Y013415D02*
X015527Y013415D01*
X015527Y013318D02*
X011793Y013318D01*
X011890Y013221D02*
X013209Y013221D01*
X013174Y013124D02*
X011987Y013124D01*
X012084Y013027D02*
X013174Y013027D01*
X013165Y012930D02*
X012181Y012930D01*
X012278Y012833D02*
X013165Y012833D01*
X013342Y012897D02*
X013440Y012995D01*
X013342Y012897D02*
X013342Y012267D01*
X012889Y011814D01*
X012889Y011027D01*
X013243Y010673D01*
X013243Y009216D01*
X013224Y009196D01*
X013224Y008881D01*
X013420Y008881D02*
X013420Y009196D01*
X013401Y009216D01*
X013401Y010673D01*
X014011Y011283D01*
X014011Y011362D01*
X014641Y011362D01*
X014661Y011381D01*
X014926Y011379D02*
X015113Y011379D01*
X015113Y011476D02*
X014939Y011476D01*
X014976Y011573D02*
X015113Y011573D01*
X015113Y011670D02*
X014976Y011670D01*
X014976Y011767D02*
X015113Y011767D01*
X015113Y011864D02*
X014976Y011864D01*
X014973Y011961D02*
X015113Y011961D01*
X015113Y012058D02*
X014468Y012058D01*
X014658Y011961D02*
X014663Y011961D01*
X014661Y011958D02*
X014661Y011736D01*
X014661Y011736D01*
X014661Y011958D01*
X014661Y011864D02*
X014661Y011864D01*
X014661Y011767D02*
X014661Y011767D01*
X015113Y012155D02*
X013903Y012155D01*
X013903Y012252D02*
X015123Y012252D01*
X015220Y012349D02*
X013903Y012349D01*
X013903Y012446D02*
X015317Y012446D01*
X015414Y012542D02*
X013903Y012542D01*
X013903Y012639D02*
X015511Y012639D01*
X015608Y012736D02*
X014152Y012736D01*
X014188Y012833D02*
X015705Y012833D01*
X015668Y012930D02*
X014161Y012930D01*
X014128Y013027D02*
X015571Y013027D01*
X015527Y013124D02*
X014188Y013124D01*
X014185Y013221D02*
X015527Y013221D01*
X016009Y013271D02*
X015999Y012877D01*
X015291Y012169D01*
X015291Y011302D01*
X014700Y010712D01*
X014385Y010712D01*
X013913Y010240D01*
X013637Y009964D01*
X013637Y009216D01*
X013617Y009196D01*
X013617Y008881D01*
X013814Y008881D02*
X013814Y009157D01*
X013913Y009255D01*
X014070Y009255D01*
X014188Y009373D01*
X014188Y009964D01*
X014464Y010240D01*
X014431Y010507D02*
X015026Y010507D01*
X015120Y010604D02*
X014843Y010604D01*
X014940Y010701D02*
X015213Y010701D01*
X015306Y010798D02*
X015036Y010798D01*
X015133Y010895D02*
X015399Y010895D01*
X015492Y010992D02*
X015230Y010992D01*
X015327Y011089D02*
X015541Y011089D01*
X015527Y011186D02*
X015424Y011186D01*
X015468Y011282D02*
X015527Y011282D01*
X015527Y011379D02*
X015468Y011379D01*
X015468Y011476D02*
X015527Y011476D01*
X015468Y011573D02*
X015598Y011573D01*
X015695Y011670D02*
X015468Y011670D01*
X015468Y011767D02*
X015792Y011767D01*
X016227Y011767D02*
X019875Y011767D01*
X019972Y011864D02*
X015468Y011864D01*
X015468Y011961D02*
X020069Y011961D01*
X020165Y012058D02*
X015468Y012058D01*
X015527Y012155D02*
X021865Y012155D01*
X021865Y012252D02*
X015624Y012252D01*
X015721Y012349D02*
X021865Y012349D01*
X021865Y012446D02*
X015818Y012446D01*
X015915Y012542D02*
X021865Y012542D01*
X021865Y012639D02*
X016012Y012639D01*
X016109Y012736D02*
X021865Y012736D01*
X021865Y012833D02*
X016253Y012833D01*
X016350Y012930D02*
X021865Y012930D01*
X021145Y013027D02*
X016447Y013027D01*
X016491Y013124D02*
X020936Y013124D01*
X020792Y013221D02*
X016491Y013221D01*
X016491Y013318D02*
X020680Y013318D01*
X020583Y013415D02*
X016491Y013415D01*
X016450Y013512D02*
X020508Y013512D01*
X020455Y013609D02*
X016353Y013609D01*
X016257Y013706D02*
X020401Y013706D01*
X020365Y013803D02*
X006279Y013803D01*
X003686Y012736D02*
X011196Y012736D01*
X011205Y012833D02*
X010879Y012833D01*
X010976Y012930D02*
X011680Y012930D01*
X011583Y013027D02*
X011073Y013027D01*
X011251Y012639D02*
X003686Y012639D01*
X003686Y012542D02*
X011229Y012542D01*
X011288Y012602D02*
X011472Y012602D01*
X011472Y012602D01*
X011288Y012602D01*
X011196Y012446D02*
X003686Y012446D01*
X003686Y012349D02*
X011083Y012349D01*
X010980Y012252D02*
X003686Y012252D01*
X003686Y012155D02*
X010950Y012155D01*
X010959Y012058D02*
X003686Y012058D01*
X003686Y011961D02*
X011016Y011961D01*
X011280Y011864D02*
X003686Y011864D01*
X003686Y011767D02*
X012121Y011767D01*
X012121Y011670D02*
X003686Y011670D01*
X003686Y011573D02*
X011857Y011573D01*
X011836Y011476D02*
X007207Y011476D01*
X007297Y011379D02*
X011836Y011379D01*
X011836Y011282D02*
X007337Y011282D01*
X007348Y011186D02*
X011836Y011186D01*
X012476Y011066D02*
X012521Y011066D01*
X012554Y011099D01*
X012588Y011066D01*
X012712Y011066D01*
X012712Y010954D01*
X013066Y010599D01*
X013066Y010279D01*
X013060Y010279D01*
X012968Y010187D01*
X012875Y010279D01*
X012745Y010279D01*
X012653Y010187D01*
X012653Y009741D01*
X012656Y009738D01*
X012643Y009738D01*
X012594Y009717D01*
X012594Y009938D01*
X012599Y009944D01*
X012594Y010010D01*
X012594Y010077D01*
X012588Y010082D01*
X012588Y010090D01*
X012537Y010133D01*
X012490Y010180D01*
X012482Y010180D01*
X012407Y010245D01*
X012407Y010255D01*
X012476Y010324D01*
X012476Y011066D01*
X012543Y011089D02*
X012565Y011089D01*
X012574Y011066D02*
X012574Y011342D01*
X012554Y011362D01*
X012476Y010992D02*
X012712Y010992D01*
X012771Y010895D02*
X012476Y010895D01*
X012476Y010798D02*
X012868Y010798D01*
X012964Y010701D02*
X012476Y010701D01*
X012476Y010604D02*
X013061Y010604D01*
X013066Y010507D02*
X012476Y010507D01*
X012476Y010410D02*
X013066Y010410D01*
X013066Y010313D02*
X012465Y010313D01*
X012440Y010216D02*
X012682Y010216D01*
X012653Y010119D02*
X012553Y010119D01*
X012594Y010022D02*
X012653Y010022D01*
X012653Y009925D02*
X012594Y009925D01*
X012594Y009829D02*
X012653Y009829D01*
X012629Y009732D02*
X012594Y009732D01*
X012417Y010003D02*
X012417Y009334D01*
X012633Y009117D01*
X012633Y008881D01*
X013027Y008881D02*
X013027Y009236D01*
X013007Y009255D01*
X012968Y009964D02*
X012968Y010187D01*
X012968Y009964D01*
X012968Y009964D01*
X012968Y010022D02*
X012968Y010022D01*
X012968Y010119D02*
X012968Y010119D01*
X012938Y010216D02*
X012997Y010216D01*
X012417Y010003D02*
X012141Y010240D01*
X012298Y010397D01*
X011669Y010240D02*
X011393Y009964D01*
X011393Y008940D01*
X011787Y008547D01*
X012259Y008547D01*
X012279Y008527D01*
X011915Y008278D02*
X011427Y008278D01*
X011442Y008181D02*
X011915Y008181D01*
X011915Y008084D02*
X011418Y008084D01*
X011339Y007987D02*
X011915Y007987D01*
X012003Y007740D02*
X011983Y007720D01*
X009424Y007720D01*
X009267Y007877D01*
X009267Y008350D01*
X009533Y008375D02*
X011019Y008375D01*
X011019Y008472D02*
X009533Y008472D01*
X009505Y008569D02*
X011019Y008569D01*
X011019Y008665D02*
X007751Y008665D01*
X007751Y008569D02*
X008480Y008569D01*
X008480Y008472D02*
X007751Y008472D01*
X007751Y008375D02*
X008547Y008375D01*
X008500Y008278D02*
X007751Y008278D01*
X007751Y008181D02*
X008480Y008181D01*
X008523Y008084D02*
X007751Y008084D01*
X007754Y007987D02*
X008529Y007987D01*
X008794Y007877D02*
X008637Y007720D01*
X007771Y007720D01*
X007574Y007917D01*
X007574Y009728D01*
X007259Y010043D01*
X006590Y010043D01*
X006779Y009829D02*
X006795Y009829D01*
X006792Y009635D02*
X006771Y009635D01*
X006847Y009538D02*
X006848Y009538D01*
X006408Y009635D02*
X003686Y009635D01*
X003686Y009538D02*
X006333Y009538D01*
X006304Y009441D02*
X003686Y009441D01*
X003686Y009344D02*
X006309Y009344D01*
X006352Y009247D02*
X003686Y009247D01*
X003686Y009150D02*
X006478Y009150D01*
X006294Y008569D02*
X005311Y008569D01*
X005405Y008472D02*
X006200Y008472D01*
X006160Y008375D02*
X005445Y008375D01*
X005458Y008278D02*
X006147Y008278D01*
X006154Y008181D02*
X005451Y008181D01*
X005410Y008084D02*
X006194Y008084D01*
X006280Y007987D02*
X005325Y007987D01*
X003686Y006824D02*
X008480Y006824D01*
X008480Y006727D02*
X003686Y006727D01*
X003686Y006630D02*
X008559Y006630D01*
X009267Y006932D02*
X009661Y006932D01*
X009267Y006932D02*
X009267Y007405D01*
X009424Y007562D01*
X011983Y007562D01*
X012003Y007543D01*
X012279Y007543D01*
X012279Y007740D02*
X012003Y007740D01*
X011924Y007346D02*
X011905Y007326D01*
X011905Y006814D01*
X011787Y006696D01*
X011590Y006696D01*
X011570Y006677D01*
X011226Y006533D02*
X003686Y006533D01*
X005478Y006436D02*
X011275Y006436D01*
X010910Y006145D02*
X005956Y006145D01*
X006053Y006048D02*
X010814Y006048D01*
X010717Y005952D02*
X006123Y005952D01*
X006185Y005855D02*
X010620Y005855D01*
X010523Y005758D02*
X006240Y005758D01*
X006276Y005661D02*
X010426Y005661D01*
X010329Y005564D02*
X006313Y005564D01*
X006333Y005467D02*
X010232Y005467D01*
X010135Y005370D02*
X006354Y005370D01*
X006359Y005273D02*
X010038Y005273D01*
X010345Y005079D02*
X010496Y005079D01*
X010442Y005176D02*
X010593Y005176D01*
X010539Y005273D02*
X011038Y005273D01*
X011135Y005370D02*
X010636Y005370D01*
X010733Y005467D02*
X011232Y005467D01*
X011329Y005564D02*
X010830Y005564D01*
X010927Y005661D02*
X011426Y005661D01*
X011523Y005758D02*
X011024Y005758D01*
X011043Y006027D02*
X014897Y006027D01*
X017377Y008507D01*
X017377Y008743D01*
X018165Y009531D01*
X018165Y009649D01*
X017937Y009554D02*
X017883Y009500D01*
X017861Y009552D01*
X017792Y009621D01*
X017702Y009659D01*
X017604Y009659D01*
X017513Y009621D01*
X017444Y009552D01*
X017407Y009462D01*
X017407Y009417D01*
X017281Y009291D01*
X017271Y009316D01*
X017202Y009385D01*
X017111Y009423D01*
X017013Y009423D01*
X016923Y009385D01*
X016854Y009316D01*
X016816Y009225D01*
X016816Y009181D01*
X016767Y009132D01*
X016767Y008699D01*
X015802Y007734D01*
X015802Y008021D01*
X015710Y008114D01*
X015580Y008114D01*
X015487Y008021D01*
X015395Y008114D01*
X015265Y008114D01*
X015261Y008110D01*
X015261Y008162D01*
X015224Y008253D01*
X015154Y008322D01*
X015130Y008332D01*
X015915Y009117D01*
X016019Y009221D01*
X016019Y009423D01*
X016190Y009423D01*
X016235Y009468D01*
X016281Y009423D01*
X016662Y009423D01*
X016737Y009498D01*
X016737Y009511D01*
X016821Y009511D01*
X017057Y009747D01*
X017939Y009747D01*
X017919Y009698D01*
X017919Y009600D01*
X017937Y009554D01*
X017921Y009538D02*
X017867Y009538D01*
X017919Y009635D02*
X017760Y009635D01*
X017932Y009732D02*
X017041Y009732D01*
X016944Y009635D02*
X017546Y009635D01*
X017438Y009538D02*
X016847Y009538D01*
X016747Y009688D02*
X016983Y009925D01*
X018716Y009925D01*
X018716Y009806D01*
X017574Y008665D01*
X017574Y008428D01*
X014976Y005830D01*
X011846Y005830D01*
X010822Y004806D01*
X010532Y004498D02*
X010112Y004498D01*
X010209Y004595D02*
X010435Y004595D01*
X010399Y004692D02*
X010245Y004692D01*
X010245Y004788D02*
X010399Y004788D01*
X010399Y004885D02*
X010245Y004885D01*
X010248Y004982D02*
X010399Y004982D01*
X009822Y004806D02*
X011043Y006027D01*
X011733Y005467D02*
X012232Y005467D01*
X012329Y005564D02*
X011830Y005564D01*
X011636Y005370D02*
X012135Y005370D01*
X012038Y005273D02*
X011539Y005273D01*
X011593Y005176D02*
X011442Y005176D01*
X011496Y005079D02*
X011345Y005079D01*
X011399Y004982D02*
X011248Y004982D01*
X011245Y004885D02*
X011399Y004885D01*
X011399Y004788D02*
X011245Y004788D01*
X011245Y004692D02*
X011399Y004692D01*
X011435Y004595D02*
X011209Y004595D01*
X011112Y004498D02*
X011532Y004498D01*
X011629Y004401D02*
X011015Y004401D01*
X010629Y004401D02*
X010015Y004401D01*
X009629Y004401D02*
X009015Y004401D01*
X008997Y004383D02*
X009245Y004631D01*
X009245Y004982D01*
X008997Y005230D01*
X008647Y005230D01*
X008399Y004982D01*
X008399Y004631D01*
X008647Y004383D01*
X008997Y004383D01*
X009112Y004498D02*
X009532Y004498D01*
X009435Y004595D02*
X009209Y004595D01*
X009245Y004692D02*
X009399Y004692D01*
X009399Y004788D02*
X009245Y004788D01*
X009245Y004885D02*
X009399Y004885D01*
X009399Y004982D02*
X009245Y004982D01*
X009148Y005079D02*
X009496Y005079D01*
X009593Y005176D02*
X009051Y005176D01*
X008593Y005176D02*
X008051Y005176D01*
X007997Y005230D02*
X007647Y005230D01*
X007399Y004982D01*
X007399Y004631D01*
X007647Y004383D01*
X007997Y004383D01*
X008245Y004631D01*
X008245Y004982D01*
X007997Y005230D01*
X008148Y005079D02*
X008496Y005079D01*
X008399Y004982D02*
X008245Y004982D01*
X008245Y004885D02*
X008399Y004885D01*
X008399Y004788D02*
X008245Y004788D01*
X008245Y004692D02*
X008399Y004692D01*
X008435Y004595D02*
X008209Y004595D01*
X008112Y004498D02*
X008532Y004498D01*
X008629Y004401D02*
X008015Y004401D01*
X007629Y004401D02*
X006363Y004401D01*
X006363Y004498D02*
X007532Y004498D01*
X007435Y004595D02*
X006363Y004595D01*
X006363Y004692D02*
X007399Y004692D01*
X007399Y004788D02*
X006363Y004788D01*
X006363Y004885D02*
X007399Y004885D01*
X007399Y004982D02*
X006363Y004982D01*
X006363Y005079D02*
X007496Y005079D01*
X007593Y005176D02*
X006365Y005176D01*
X006363Y004304D02*
X020281Y004304D01*
X020281Y004207D02*
X006363Y004207D01*
X006363Y004110D02*
X020281Y004110D01*
X020281Y004013D02*
X006363Y004013D01*
X006363Y003916D02*
X020281Y003916D01*
X021162Y006727D02*
X021865Y006727D01*
X021865Y006824D02*
X021259Y006824D01*
X021356Y006921D02*
X021865Y006921D01*
X021865Y007018D02*
X021452Y007018D01*
X021452Y007115D02*
X021865Y007115D01*
X021865Y007212D02*
X021452Y007212D01*
X021452Y007309D02*
X021865Y007309D01*
X021865Y007405D02*
X021452Y007405D01*
X021452Y007502D02*
X021865Y007502D01*
X021865Y007599D02*
X021452Y007599D01*
X021452Y007696D02*
X021865Y007696D01*
X021865Y007793D02*
X021452Y007793D01*
X021452Y007890D02*
X021865Y007890D01*
X021865Y007987D02*
X021452Y007987D01*
X021496Y008084D02*
X021865Y008084D01*
X021865Y008181D02*
X021590Y008181D01*
X021590Y008278D02*
X021835Y008278D01*
X021816Y008375D02*
X021796Y008375D01*
X021176Y008330D02*
X021078Y008232D01*
X021078Y007208D01*
X020960Y007090D01*
X018086Y007090D01*
X015822Y004826D01*
X015822Y004806D01*
X015532Y004498D02*
X015112Y004498D01*
X015209Y004595D02*
X015435Y004595D01*
X015399Y004692D02*
X015245Y004692D01*
X015287Y004788D02*
X015399Y004788D01*
X015399Y004885D02*
X015384Y004885D01*
X015772Y005273D02*
X016018Y005273D01*
X016115Y005370D02*
X015868Y005370D01*
X015965Y005467D02*
X016212Y005467D01*
X016309Y005564D02*
X016062Y005564D01*
X016159Y005661D02*
X016406Y005661D01*
X016503Y005758D02*
X016256Y005758D01*
X016353Y005855D02*
X016600Y005855D01*
X015183Y007115D02*
X014730Y007115D01*
X014730Y007054D02*
X014730Y007710D01*
X014749Y007710D01*
X014749Y007647D01*
X014824Y007572D01*
X015206Y007572D01*
X015230Y007597D01*
X015265Y007562D01*
X015395Y007562D01*
X015487Y007655D01*
X015487Y008021D01*
X015487Y007655D01*
X015580Y007562D01*
X015631Y007562D01*
X014666Y006598D01*
X014198Y006598D01*
X014198Y006765D01*
X014320Y006765D01*
X014395Y006840D01*
X014395Y006962D01*
X014637Y006962D01*
X014730Y007054D01*
X014693Y007018D02*
X015086Y007018D01*
X014989Y006921D02*
X014395Y006921D01*
X014379Y006824D02*
X014892Y006824D01*
X014795Y006727D02*
X014198Y006727D01*
X014198Y006630D02*
X014698Y006630D01*
X014739Y006421D02*
X016944Y008625D01*
X016944Y009058D01*
X017062Y009177D01*
X016882Y009344D02*
X016019Y009344D01*
X016019Y009247D02*
X016825Y009247D01*
X016785Y009150D02*
X015948Y009150D01*
X015851Y009053D02*
X016767Y009053D01*
X016767Y008956D02*
X015754Y008956D01*
X015657Y008859D02*
X016767Y008859D01*
X016767Y008762D02*
X015560Y008762D01*
X015463Y008665D02*
X016734Y008665D01*
X016637Y008569D02*
X015366Y008569D01*
X015269Y008472D02*
X016540Y008472D01*
X016443Y008375D02*
X015172Y008375D01*
X015199Y008278D02*
X016346Y008278D01*
X016249Y008181D02*
X015253Y008181D01*
X015425Y008084D02*
X015550Y008084D01*
X015487Y007987D02*
X015487Y007987D01*
X015487Y007890D02*
X015487Y007890D01*
X015487Y007793D02*
X015487Y007793D01*
X015487Y007696D02*
X015487Y007696D01*
X015432Y007599D02*
X015543Y007599D01*
X015571Y007502D02*
X014730Y007502D01*
X014730Y007405D02*
X015474Y007405D01*
X015377Y007309D02*
X014730Y007309D01*
X014730Y007212D02*
X015280Y007212D01*
X014797Y007599D02*
X014730Y007599D01*
X014730Y007696D02*
X014749Y007696D01*
X014700Y007917D02*
X014680Y007936D01*
X014365Y007936D01*
X014365Y008330D02*
X014641Y008330D01*
X014661Y008350D01*
X014897Y008350D01*
X015842Y009295D01*
X015842Y009531D01*
X015999Y009688D01*
X016208Y009441D02*
X016263Y009441D01*
X016472Y009688D02*
X016747Y009688D01*
X016681Y009441D02*
X017407Y009441D01*
X017333Y009344D02*
X017243Y009344D01*
X017180Y008940D02*
X017180Y008586D01*
X014818Y006224D01*
X012495Y006224D01*
X012279Y006440D01*
X012279Y007149D01*
X012279Y007346D02*
X011924Y007346D01*
X011570Y007188D02*
X011550Y007208D01*
X011235Y007208D01*
X011196Y007169D01*
X012082Y006921D02*
X012102Y006921D01*
X012102Y006824D02*
X012082Y006824D01*
X012068Y006727D02*
X012102Y006727D01*
X012102Y006630D02*
X011971Y006630D01*
X011915Y006533D02*
X012102Y006533D01*
X012102Y006436D02*
X011865Y006436D01*
X012129Y006339D02*
X005693Y006339D01*
X005842Y006242D02*
X012226Y006242D01*
X012633Y006480D02*
X012692Y006421D01*
X014739Y006421D01*
X014255Y005240D02*
X013822Y004806D01*
X013532Y004498D02*
X013112Y004498D01*
X013209Y004595D02*
X013435Y004595D01*
X013399Y004692D02*
X013245Y004692D01*
X013245Y004788D02*
X013399Y004788D01*
X013399Y004885D02*
X013245Y004885D01*
X013248Y004982D02*
X013399Y004982D01*
X013345Y005079D02*
X013496Y005079D01*
X013442Y005176D02*
X013593Y005176D01*
X012649Y005633D02*
X011822Y004806D01*
X012015Y004401D02*
X012629Y004401D01*
X013015Y004401D02*
X013629Y004401D01*
X014015Y004401D02*
X014629Y004401D01*
X015015Y004401D02*
X015629Y004401D01*
X016015Y004401D02*
X016629Y004401D01*
X012633Y006480D02*
X012633Y006795D01*
X011053Y007987D02*
X009533Y007987D01*
X009517Y008084D02*
X010975Y008084D01*
X010950Y008181D02*
X009533Y008181D01*
X009533Y008278D02*
X010965Y008278D01*
X011196Y008192D02*
X011196Y010554D01*
X011019Y010313D02*
X010999Y010313D01*
X010999Y010216D02*
X011019Y010216D01*
X011019Y010119D02*
X010999Y010119D01*
X010999Y010022D02*
X011019Y010022D01*
X011019Y009925D02*
X010999Y009925D01*
X010999Y009829D02*
X011019Y009829D01*
X011019Y009732D02*
X010999Y009732D01*
X011019Y009635D02*
X010932Y009635D01*
X011019Y009538D02*
X007751Y009538D01*
X007751Y009441D02*
X011019Y009441D01*
X011019Y009344D02*
X007751Y009344D01*
X007751Y009247D02*
X011019Y009247D01*
X011019Y009150D02*
X007751Y009150D01*
X007751Y009053D02*
X011019Y009053D01*
X011019Y008956D02*
X007751Y008956D01*
X007751Y008859D02*
X011019Y008859D01*
X011019Y008762D02*
X007751Y008762D01*
X007417Y009610D02*
X007417Y007799D01*
X007653Y007562D01*
X008637Y007562D01*
X008794Y007405D01*
X007239Y007987D02*
X007214Y007987D01*
X007822Y009635D02*
X008035Y009635D01*
X007968Y009732D02*
X007889Y009732D01*
X007889Y009829D02*
X007968Y009829D01*
X007968Y009925D02*
X007889Y009925D01*
X008216Y009635D02*
X010358Y009635D01*
X010538Y009635D02*
X010751Y009635D01*
X010684Y009732D02*
X010606Y009732D01*
X010606Y009829D02*
X010684Y009829D01*
X010684Y009925D02*
X010606Y009925D01*
X010291Y010216D02*
X009040Y010216D01*
X008978Y010279D02*
X008637Y010279D01*
X008637Y010279D01*
X008978Y010279D01*
X009012Y010313D02*
X010291Y010313D01*
X009683Y010410D02*
X009070Y010410D01*
X009080Y010507D02*
X009611Y010507D01*
X009611Y010604D02*
X009080Y010604D01*
X009080Y010701D02*
X009611Y010701D01*
X009611Y010798D02*
X009080Y010798D01*
X009009Y010895D02*
X009682Y010895D01*
X010389Y010992D02*
X008184Y010992D01*
X008322Y010673D02*
X008322Y010003D01*
X008401Y009925D01*
X008676Y009925D01*
X008696Y009905D01*
X008716Y009905D01*
X009080Y009925D02*
X009611Y009925D01*
X009611Y009829D02*
X009080Y009829D01*
X009078Y009732D02*
X009614Y009732D01*
X009611Y010022D02*
X009080Y010022D01*
X009070Y010119D02*
X009655Y010119D01*
X008354Y009732D02*
X008283Y009732D01*
X006286Y010895D02*
X005319Y010895D01*
X005300Y010876D02*
X005402Y010978D01*
X005458Y011112D01*
X005458Y011257D01*
X005402Y011391D01*
X005300Y011493D01*
X005166Y011549D01*
X004549Y011549D01*
X004415Y011493D01*
X004313Y011391D01*
X004257Y011257D01*
X004257Y011112D01*
X004313Y010978D01*
X004415Y010876D01*
X004549Y010820D01*
X005166Y010820D01*
X005300Y010876D01*
X005408Y010992D02*
X006197Y010992D01*
X006157Y011089D02*
X005448Y011089D01*
X005458Y011186D02*
X006147Y011186D01*
X006157Y011282D02*
X005447Y011282D01*
X005407Y011379D02*
X006198Y011379D01*
X006288Y011476D02*
X005317Y011476D01*
X004398Y011476D02*
X003686Y011476D01*
X003686Y011379D02*
X004308Y011379D01*
X004268Y011282D02*
X003686Y011282D01*
X003686Y011186D02*
X004257Y011186D01*
X004267Y011089D02*
X003686Y011089D01*
X003686Y010992D02*
X004307Y010992D01*
X004396Y010895D02*
X003686Y010895D01*
X010576Y014093D02*
X010702Y014093D01*
X011035Y014093D02*
X011102Y014093D01*
X011360Y014093D02*
X011790Y014093D01*
X011782Y014101D02*
X011782Y014101D01*
X011693Y014190D02*
X011406Y014190D01*
X011454Y014287D02*
X011684Y014287D01*
X011684Y014384D02*
X011503Y014384D01*
X011495Y014481D02*
X011684Y014481D01*
X011939Y014698D02*
X011939Y014698D01*
X012102Y014675D02*
X012407Y014675D01*
X012332Y014600D02*
X012332Y014600D01*
X012310Y014578D02*
X012199Y014578D01*
X012177Y014600D02*
X012177Y014600D01*
X012229Y014548D02*
X012229Y014548D01*
X012229Y014548D01*
X012593Y014675D02*
X013080Y014675D01*
X013005Y014600D02*
X013005Y014600D01*
X012983Y014578D02*
X012668Y014578D01*
X012668Y014481D02*
X012952Y014481D01*
X012952Y014548D02*
X012952Y014548D01*
X012952Y014548D01*
X012952Y014384D02*
X012675Y014384D01*
X012772Y014287D02*
X012952Y014287D01*
X012961Y014190D02*
X012773Y014190D01*
X012719Y014093D02*
X013058Y014093D01*
X013498Y014384D02*
X013677Y014384D01*
X013677Y014481D02*
X013498Y014481D01*
X013498Y014548D02*
X013498Y014548D01*
X013498Y014548D01*
X013467Y014578D02*
X013677Y014578D01*
X013752Y014675D02*
X013371Y014675D01*
X013445Y014600D02*
X013445Y014600D01*
X013208Y014698D02*
X013208Y014698D01*
X013939Y014675D02*
X013962Y014675D01*
X014148Y014675D02*
X014272Y014675D01*
X014458Y014675D02*
X014477Y014675D01*
X015026Y014675D02*
X015049Y014675D01*
X015389Y014675D02*
X015412Y014675D01*
X015832Y014698D02*
X015931Y014600D01*
X015931Y014461D01*
X015878Y014409D01*
X015878Y014338D01*
X015885Y014332D01*
X016179Y014332D01*
X016277Y014234D01*
X016277Y014095D01*
X016179Y013996D01*
X016276Y014093D02*
X020288Y014093D01*
X020285Y014190D02*
X016277Y014190D01*
X016224Y014287D02*
X020278Y014287D01*
X020281Y014384D02*
X015878Y014384D01*
X015931Y014481D02*
X020281Y014481D01*
X020281Y014578D02*
X015931Y014578D01*
X014251Y014093D02*
X014169Y014093D01*
X012894Y012736D02*
X012375Y012736D01*
X012766Y012639D02*
X012859Y012639D01*
X012859Y012542D02*
X012816Y012542D01*
X012820Y012446D02*
X012859Y012446D01*
X012859Y012349D02*
X012784Y012349D01*
X012761Y012252D02*
X012859Y012252D01*
X012859Y012155D02*
X012761Y012155D01*
X012761Y012058D02*
X012859Y012058D01*
X012785Y011961D02*
X012761Y011961D01*
X012574Y012129D02*
X012574Y012484D01*
X012574Y012129D02*
X012554Y012110D01*
X011891Y011864D02*
X011663Y011864D01*
X010993Y010992D02*
X010900Y010992D01*
X013342Y011362D02*
X013342Y011401D01*
X013558Y011617D01*
X013794Y012011D01*
X014011Y012228D01*
X014011Y012267D01*
X014926Y011282D02*
X015020Y011282D01*
X014923Y011186D02*
X014921Y011186D01*
X014826Y011089D02*
X014493Y011089D01*
X014493Y010992D02*
X014729Y010992D01*
X014632Y010895D02*
X014462Y010895D01*
X014730Y010410D02*
X014749Y010410D01*
X014749Y010313D02*
X014730Y010313D01*
X014730Y010216D02*
X014741Y010216D01*
X014739Y009964D02*
X015015Y010240D01*
X015999Y011263D01*
X015999Y011293D01*
X016009Y011302D01*
X016491Y011282D02*
X019390Y011282D01*
X019312Y011204D02*
X019208Y011100D01*
X019208Y010943D01*
X018711Y010446D01*
X018667Y010446D01*
X018576Y010409D01*
X018545Y010377D01*
X016737Y010377D01*
X016718Y010410D02*
X018580Y010410D01*
X018772Y010507D02*
X015518Y010507D01*
X015425Y010410D02*
X015753Y010410D01*
X015733Y010313D02*
X015332Y010313D01*
X015281Y010216D02*
X015733Y010216D01*
X015668Y010119D02*
X015281Y010119D01*
X015254Y010022D02*
X015571Y010022D01*
X015474Y009925D02*
X015281Y009925D01*
X015281Y009829D02*
X015468Y009829D01*
X015468Y009732D02*
X015281Y009732D01*
X015281Y009635D02*
X015468Y009635D01*
X015468Y009538D02*
X015261Y009538D01*
X015260Y009441D02*
X015462Y009441D01*
X015365Y009344D02*
X015215Y009344D01*
X015268Y009247D02*
X015068Y009247D01*
X014962Y009247D02*
X014917Y009247D01*
X014917Y009150D02*
X015171Y009150D01*
X015074Y009053D02*
X014917Y009053D01*
X014888Y008956D02*
X014977Y008956D01*
X014880Y008859D02*
X014791Y008859D01*
X014783Y008762D02*
X014694Y008762D01*
X014582Y008901D02*
X014739Y009058D01*
X014739Y009964D01*
X015645Y009846D02*
X015645Y009373D01*
X014818Y008547D01*
X014661Y008547D01*
X014641Y008527D01*
X014365Y008527D01*
X014582Y008901D02*
X014070Y008901D01*
X014050Y008881D01*
X014011Y008881D01*
X015645Y009846D02*
X015999Y010200D01*
X015611Y010604D02*
X018869Y010604D01*
X018966Y010701D02*
X015704Y010701D01*
X015798Y010798D02*
X019063Y010798D01*
X019160Y010895D02*
X016283Y010895D01*
X016380Y010992D02*
X019208Y010992D01*
X019208Y011089D02*
X016477Y011089D01*
X016491Y011186D02*
X019293Y011186D01*
X019312Y011204D02*
X020217Y012110D01*
X020954Y012110D01*
X021058Y012006D01*
X021058Y012006D01*
X021491Y011573D01*
X021394Y011670D02*
X021865Y011670D01*
X021865Y011767D02*
X021297Y011767D01*
X021200Y011864D02*
X021865Y011864D01*
X021865Y011961D02*
X021103Y011961D01*
X021006Y012058D02*
X021865Y012058D01*
X019778Y011670D02*
X016323Y011670D01*
X016420Y011573D02*
X019681Y011573D01*
X019584Y011476D02*
X016491Y011476D01*
X016491Y011379D02*
X019487Y011379D01*
X019582Y010673D02*
X018834Y009925D01*
X018716Y009806D01*
X018716Y009925D02*
X018834Y009925D01*
X019692Y009053D02*
X019740Y009053D01*
X020365Y008665D02*
X020517Y008665D01*
X020517Y008569D02*
X020182Y008569D01*
X020182Y008472D02*
X020477Y008472D01*
X020380Y008375D02*
X020148Y008375D01*
X020126Y008278D02*
X020025Y008278D01*
X020029Y008181D02*
X018539Y008181D01*
X018540Y008278D02*
X019847Y008278D01*
X019725Y008375D02*
X018637Y008375D01*
X019621Y007680D02*
X019779Y007680D01*
X020291Y008192D01*
X020448Y008192D01*
X020704Y008448D01*
X020704Y008586D01*
X020940Y008586D02*
X020940Y008409D01*
X020645Y008114D01*
X020645Y007680D01*
X021176Y008330D02*
X021176Y008586D01*
X017653Y009413D02*
X017180Y008940D01*
X016152Y008084D02*
X015740Y008084D01*
X015802Y007987D02*
X016055Y007987D01*
X015958Y007890D02*
X015802Y007890D01*
X015802Y007793D02*
X015861Y007793D01*
X011708Y008375D02*
X011373Y008375D01*
X011373Y008472D02*
X011611Y008472D01*
X011514Y008569D02*
X011373Y008569D01*
X011373Y008665D02*
X011417Y008665D01*
D31*
X011196Y008192D03*
X011196Y007169D03*
X008519Y006932D03*
X008519Y008350D03*
X007928Y009610D03*
X009346Y010279D03*
X010645Y009610D03*
X011669Y009491D03*
X012141Y009491D03*
X012692Y009491D03*
X012968Y010240D03*
X012574Y011066D03*
X011196Y010791D03*
X011196Y010554D03*
X011196Y012129D03*
X011196Y012602D03*
X012574Y012484D03*
X014188Y012995D03*
X014464Y012759D03*
X014661Y012129D03*
X014464Y009491D03*
X013913Y009491D03*
X015015Y009491D03*
X015015Y008114D03*
X015487Y007562D03*
X017062Y009177D03*
X017653Y009413D03*
X018165Y009649D03*
X018716Y010200D03*
X019897Y009452D03*
X020094Y009728D03*
X020802Y009925D03*
X020802Y009531D03*
X021432Y009728D03*
X021432Y010121D03*
X021472Y010476D03*
X020881Y010476D03*
X020330Y010869D03*
X020606Y011302D03*
X021590Y011499D03*
X021787Y011302D03*
X021787Y011696D03*
X021590Y011893D03*
X021787Y012090D03*
X021590Y012287D03*
X021787Y012484D03*
X021590Y012680D03*
X021787Y012877D03*
X021432Y009334D03*
X021393Y008940D03*
X021787Y008153D03*
X021590Y007956D03*
X021787Y007759D03*
X021590Y007562D03*
X021787Y007365D03*
X021590Y007169D03*
X021787Y006972D03*
X021590Y006775D03*
X021787Y006578D03*
X020330Y008507D03*
X019936Y008507D03*
X019464Y009058D03*
D32*
X013322Y007838D03*
D33*
X011472Y012602D02*
X011196Y012602D01*
D34*
X011196Y012129D02*
X011472Y012129D01*
X011983Y012129D01*
X010212Y010673D02*
X010192Y010653D01*
X009976Y010653D01*
X010645Y009964D02*
X010645Y009610D01*
X011669Y009491D02*
X011669Y009767D01*
X012141Y009767D02*
X012141Y009491D01*
X012692Y009491D02*
X012968Y009491D01*
X012968Y009295D01*
X013913Y009491D02*
X013913Y009767D01*
X014464Y009767D02*
X014464Y009491D01*
X015015Y009491D02*
X015015Y009767D01*
X015015Y008114D02*
X015015Y007838D01*
X019936Y008507D02*
X019936Y008783D01*
X019936Y008901D01*
X020291Y008901D01*
X008716Y010653D02*
X008499Y010653D01*
X008480Y010673D01*
X007928Y009925D02*
X007928Y009610D01*
D35*
X008716Y010279D02*
X009346Y010279D01*
X011983Y012129D02*
X012023Y012129D01*
X012043Y012110D01*
X013913Y012995D02*
X014188Y012995D01*
X014661Y012129D02*
X014661Y011775D01*
X012968Y010240D02*
X012968Y009964D01*
X012968Y009295D02*
X013007Y009255D01*
X014700Y007917D02*
X014936Y007917D01*
X015015Y007838D01*
X015487Y007838D02*
X015487Y007562D01*
X019464Y008783D02*
X019464Y009058D01*
D36*
X011196Y010554D02*
X011196Y010791D01*
X011078Y010673D01*
X010645Y010673D01*
X010212Y010673D01*
X011078Y010673D02*
X011196Y010554D01*
X008480Y010673D02*
X008322Y010673D01*
X007928Y010673D01*
X007377Y010673D01*
X007062Y010358D01*
D37*
X020291Y008960D02*
X020291Y008901D01*
X020487Y008901D01*
X020487Y008940D01*
X020487Y008960D02*
X020291Y008960D01*
M02*
