%
M48
M72
T01C0.0118
T02C0.0197
T03C0.0315
T04C0.0394
T05C0.0472
T06C0.0551
T07C0.1260
%
T01
X8519Y6932
X8519Y8350
X8007Y9610
X9424Y10279
X10763Y9610
X11550Y10279
X11196Y10554
X11196Y10791
X10960Y11499
X11314Y12247
X12338Y12484
X12338Y11027
X12928Y10240
X12653Y9491
X11865Y9964
X13991Y9964
X14779Y9964
X17062Y9177
X17653Y9413
X18165Y9649
X18716Y10200
X19897Y9452
X20094Y9728
X20802Y9925
X20802Y9531
X21432Y9728
X21432Y10121
X21472Y10476
X21826Y10712
X21787Y11381
X21787Y11775
X21787Y12169
X21787Y12562
X21787Y12956
X20606Y11302
X20330Y10869
X21432Y9334
X21393Y8940
X20330Y8547
X19936Y8428
X19464Y9058
X21787Y8074
X21787Y7680
X21787Y7287
X21787Y6893
X21787Y6499
X15724Y7838
X14976Y8114
X11196Y8192
X11196Y7169
X14700Y12011
X14503Y12641
X14228Y12877
T02
X7062Y10358
X6590Y10043
X7062Y9728
X6590Y9413
X7062Y9098
T03
X6747Y8271
X4857Y8271
X4857Y11184
X6747Y11184
T04
X7822Y4806
X8822Y4806
X9822Y4806
X10822Y4806
X11822Y4806
X12822Y4806
X13822Y4806
X14822Y4806
X15822Y4806
X16822Y4806
X17822Y4806
X18822Y4806
T05
X18509Y11302
X18509Y13271
X16009Y13271
X16009Y11302
X10635Y13271
X8135Y13271
T06
X13322Y7838
T07
X5054Y5200
X5054Y14255
X21590Y14255
X21590Y5200
M30
