%
M48
M72
T01C0.01181
T02C0.02362
T03C0.03937
T04C0.16535
%
T01
X52638Y113264
X59331Y123106
X64055Y123106
X79016Y135311
X87677Y145941
X83346Y151059
X71535Y154602
X70354Y163657
X75079Y163657
X90433Y165626
X92795Y165626
X98307Y163264
X103819Y161295
X102244Y158539
X98701Y154996
X95551Y145941
X102244Y145941
X115630Y146335
X116024Y153028
X123110Y148303
X123110Y138854
X134528Y136098
X135709Y130587
X136102Y126256
X143583Y117594
X120354Y126256
X126654Y165626
X131378Y171138
X134921Y171138
X127835Y171531
X117598Y183343
X114055Y186886
X117598Y190823
X121142Y186886
X130984Y195154
X127835Y199484
X130197Y201846
X127441Y204602
X124685Y206965
X115630Y210902
X111693Y216020
X106181Y220744
X107362Y226256
X104213Y229012
X102638Y232949
X102638Y236098
X97913Y240429
X86890Y243579
X88465Y256571
X86496Y259720
X93583Y263657
X95945Y261295
X99488Y261295
X99488Y264445
X98307Y267988
X101850Y267988
X105394Y267988
X109331Y267594
X109331Y261295
X103819Y260508
X102244Y254602
X110906Y248697
X114449Y256571
X103425Y264445
X93976Y268382
X85709Y271531
X82953Y271531
X80984Y269563
X79016Y271531
X77047Y269563
X75079Y271531
X73110Y269563
X71142Y271531
X69173Y269563
X67205Y271531
X65236Y269563
X63268Y271531
X61299Y269563
X59331Y271531
X57362Y269563
X55394Y271531
X53425Y269563
X51457Y271531
X49488Y269563
X47520Y271531
X66811Y243579
X77441Y259720
X116811Y271531
X119567Y271531
X122323Y271531
X125472Y271531
X128622Y271531
X131772Y271531
X133740Y269563
X135709Y271531
X137677Y269563
X139646Y271531
X141614Y269563
X143583Y271531
X145551Y269563
X147520Y271531
X149488Y269563
X151457Y271531
X153425Y269563
X155394Y271531
X100276Y203815
X100276Y198303
X100276Y192791
X100276Y180193
X100276Y171925
X90433Y178618
X87677Y180587
X67598Y198303
X65236Y195941
X73898Y200272
X134921Y199091
T02
X110118Y109524
X117992Y97713
X92795Y109524
X84921Y97713
T03
X51457Y121886
X51457Y131886
X51457Y141886
X51457Y151886
X51457Y161886
X51457Y171886
X51457Y181886
X51457Y191886
X51457Y201886
X51457Y211886
X51457Y221886
X51457Y231886
X51457Y241886
X51457Y251886
X151457Y251886
X151457Y241886
X151457Y231886
X151457Y221886
X151457Y211886
X151457Y201886
X151457Y191886
X151457Y181886
X151457Y171886
X151457Y161886
X151457Y151886
X151457Y141886
X151457Y131886
X151457Y121886
T04
X24685Y68776
X24685Y304996
X339646Y304996
X339646Y68776
M30
