G75*
%MOIN*%
%OFA0B0*%
%FSLAX24Y24*%
%IPPOS*%
%LPD*%
%AMOC8*
5,1,8,0,0,1.08239X$1,22.5*
%
%ADD10C,0.1340*%
%ADD11R,0.0157X0.0157*%
%ADD12C,0.1655*%
%ADD13R,0.0433X0.0118*%
%ADD14R,0.0118X0.0433*%
%ADD15R,0.1261X0.1261*%
%ADD16R,0.0748X0.0551*%
%ADD17R,0.0315X0.0315*%
%ADD18R,0.0474X0.0395*%
%ADD19R,0.0946X0.0316*%
%ADD20C,0.0050*%
%ADD21OC8,0.0674*%
%ADD22R,0.0512X0.0276*%
%ADD23R,0.0472X0.0236*%
%ADD24OC8,0.0930*%
%ADD25C,0.0390*%
%ADD26C,0.0470*%
%ADD27R,0.0433X0.0512*%
D10*
X017515Y012406D03*
X026570Y012406D03*
X033460Y012406D03*
X042515Y012406D03*
D11*
X037003Y023941D03*
X021058Y023941D03*
D12*
X013972Y008862D03*
X046255Y008862D03*
X046255Y033272D03*
X013972Y033272D03*
D13*
X021491Y024571D03*
X021491Y024414D03*
X021491Y024256D03*
X021491Y024099D03*
X021491Y023941D03*
X021491Y023784D03*
X021491Y023626D03*
X021491Y023469D03*
X021491Y023311D03*
X021491Y023154D03*
X023539Y023154D03*
X023539Y023311D03*
X023539Y023469D03*
X023539Y023626D03*
X023539Y023784D03*
X023539Y023941D03*
X023539Y024099D03*
X023539Y024256D03*
X023539Y024414D03*
X023539Y024571D03*
X037436Y024571D03*
X037436Y024414D03*
X037436Y024256D03*
X037436Y024099D03*
X037436Y023941D03*
X037436Y023784D03*
X037436Y023626D03*
X037436Y023469D03*
X037436Y023311D03*
X037436Y023154D03*
X039483Y023154D03*
X039483Y023311D03*
X039483Y023469D03*
X039483Y023626D03*
X039483Y023784D03*
X039483Y023941D03*
X039483Y024099D03*
X039483Y024256D03*
X039483Y024414D03*
X039483Y024571D03*
D14*
X039169Y024886D03*
X039011Y024886D03*
X038854Y024886D03*
X038696Y024886D03*
X038539Y024886D03*
X038381Y024886D03*
X038224Y024886D03*
X038066Y024886D03*
X037909Y024886D03*
X037751Y024886D03*
X037751Y022839D03*
X037909Y022839D03*
X038066Y022839D03*
X038224Y022839D03*
X038381Y022839D03*
X038539Y022839D03*
X038696Y022839D03*
X038854Y022839D03*
X039011Y022839D03*
X039169Y022839D03*
X023224Y022839D03*
X023066Y022839D03*
X022909Y022839D03*
X022751Y022839D03*
X022594Y022839D03*
X022436Y022839D03*
X022279Y022839D03*
X022121Y022839D03*
X021964Y022839D03*
X021806Y022839D03*
X021806Y024886D03*
X021964Y024886D03*
X022121Y024886D03*
X022279Y024886D03*
X022436Y024886D03*
X022594Y024886D03*
X022751Y024886D03*
X022909Y024886D03*
X023066Y024886D03*
X023224Y024886D03*
D15*
X022515Y023862D03*
X038460Y023862D03*
D16*
X037397Y022051D03*
X037397Y021028D03*
X021452Y021028D03*
X021452Y022051D03*
D17*
X022357Y022130D03*
X022357Y021658D03*
X023499Y021776D03*
X023499Y022248D03*
X020507Y023666D03*
X020507Y024138D03*
X018735Y023548D03*
X018735Y023075D03*
X017476Y023075D03*
X017476Y023548D03*
X017476Y020831D03*
X017948Y020831D03*
X018381Y020831D03*
X018854Y020831D03*
X023302Y019532D03*
X023775Y019532D03*
X022594Y026185D03*
X022594Y026618D03*
X022121Y026185D03*
X022594Y027091D03*
X022594Y027524D03*
X022121Y027524D03*
X033420Y023548D03*
X033420Y023075D03*
X034680Y023075D03*
X034680Y023548D03*
X036452Y023666D03*
X036452Y024138D03*
X038302Y022130D03*
X038302Y021658D03*
X039444Y021776D03*
X039444Y022248D03*
X039247Y019532D03*
X039720Y019532D03*
X034798Y020831D03*
X034326Y020831D03*
X033893Y020831D03*
X033420Y020831D03*
X038066Y026185D03*
X038539Y026185D03*
X038539Y026618D03*
X038539Y027091D03*
X038539Y027524D03*
X038066Y027524D03*
D18*
X040074Y022957D03*
X040074Y022248D03*
X024129Y022248D03*
X024129Y022957D03*
D19*
X024129Y018983D03*
X024129Y018483D03*
X024129Y017983D03*
X024129Y017483D03*
X021924Y017483D03*
X021924Y017983D03*
X021924Y018483D03*
X021924Y018983D03*
X037869Y018983D03*
X037869Y018483D03*
X037869Y017983D03*
X037869Y017483D03*
X040074Y017483D03*
X040074Y017983D03*
X040074Y018483D03*
X040074Y018983D03*
D20*
X039877Y021717D02*
X039847Y021720D01*
X039817Y021730D01*
X039791Y021747D01*
X039769Y021769D01*
X039753Y021795D01*
X039743Y021824D01*
X039739Y021855D01*
X039743Y021885D01*
X039753Y021914D01*
X039769Y021941D01*
X039791Y021962D01*
X039817Y021979D01*
X039847Y021989D01*
X039877Y021992D01*
X039908Y021989D01*
X039937Y021979D01*
X039963Y021962D01*
X039985Y021941D01*
X040001Y021914D01*
X040012Y021885D01*
X040015Y021855D01*
X040012Y021824D01*
X040001Y021795D01*
X039985Y021769D01*
X039963Y021747D01*
X039937Y021730D01*
X039908Y021720D01*
X039877Y021717D01*
X039810Y021735D02*
X039944Y021735D01*
X039994Y021784D02*
X039760Y021784D01*
X039742Y021832D02*
X040012Y021832D01*
X040012Y021881D02*
X039742Y021881D01*
X039762Y021929D02*
X039992Y021929D01*
X039939Y021978D02*
X039815Y021978D01*
X040713Y026051D02*
X040684Y026061D01*
X040657Y026078D01*
X040636Y026099D01*
X040619Y026126D01*
X040609Y026155D01*
X040606Y026185D01*
X040609Y026216D01*
X040619Y026245D01*
X040636Y026271D01*
X040657Y026293D01*
X040684Y026309D01*
X040713Y026320D01*
X040743Y026323D01*
X040774Y026320D01*
X040803Y026309D01*
X040829Y026293D01*
X040851Y026271D01*
X040867Y026245D01*
X040878Y026216D01*
X040881Y026185D01*
X040878Y026155D01*
X040867Y026126D01*
X040851Y026099D01*
X040829Y026078D01*
X040803Y026061D01*
X040774Y026051D01*
X040743Y026048D01*
X040713Y026051D01*
X040711Y026052D02*
X040776Y026052D01*
X040851Y026100D02*
X040635Y026100D01*
X040611Y026149D02*
X040876Y026149D01*
X040880Y026197D02*
X040607Y026197D01*
X040619Y026246D02*
X040867Y026246D01*
X040828Y026294D02*
X040659Y026294D01*
X024936Y026185D02*
X024933Y026155D01*
X024923Y026126D01*
X024906Y026099D01*
X024884Y026078D01*
X024858Y026061D01*
X024829Y026051D01*
X024798Y026048D01*
X024768Y026051D01*
X024739Y026061D01*
X024713Y026078D01*
X024691Y026099D01*
X024674Y026126D01*
X024664Y026155D01*
X024661Y026185D01*
X024664Y026216D01*
X024674Y026245D01*
X024691Y026271D01*
X024713Y026293D01*
X024739Y026309D01*
X024768Y026320D01*
X024798Y026323D01*
X024829Y026320D01*
X024858Y026309D01*
X024884Y026293D01*
X024906Y026271D01*
X024923Y026245D01*
X024933Y026216D01*
X024936Y026185D01*
X024935Y026197D02*
X024662Y026197D01*
X024666Y026149D02*
X024931Y026149D01*
X024907Y026100D02*
X024690Y026100D01*
X024766Y026052D02*
X024831Y026052D01*
X024922Y026246D02*
X024675Y026246D01*
X024714Y026294D02*
X024883Y026294D01*
X023963Y021989D02*
X023992Y021979D01*
X024018Y021962D01*
X024040Y021941D01*
X024056Y021914D01*
X024067Y021885D01*
X024070Y021855D01*
X024067Y021824D01*
X024056Y021795D01*
X024040Y021769D01*
X024018Y021747D01*
X023992Y021730D01*
X023963Y021720D01*
X023932Y021717D01*
X023902Y021720D01*
X023872Y021730D01*
X023846Y021747D01*
X023825Y021769D01*
X023808Y021795D01*
X023798Y021824D01*
X023794Y021855D01*
X023798Y021885D01*
X023808Y021914D01*
X023825Y021941D01*
X023846Y021962D01*
X023872Y021979D01*
X023902Y021989D01*
X023932Y021992D01*
X023963Y021989D01*
X023994Y021978D02*
X023871Y021978D01*
X023817Y021929D02*
X024047Y021929D01*
X024067Y021881D02*
X023797Y021881D01*
X023797Y021832D02*
X024068Y021832D01*
X024049Y021784D02*
X023815Y021784D01*
X023865Y021735D02*
X023999Y021735D01*
D21*
X027543Y022173D03*
X027543Y021173D03*
X027543Y020173D03*
X027543Y019173D03*
X027543Y018173D03*
X027543Y017173D03*
X027543Y016173D03*
X027543Y015173D03*
X027543Y014173D03*
X032487Y014173D03*
X032487Y015173D03*
X032487Y016173D03*
X032487Y017173D03*
X032487Y018173D03*
X032487Y019173D03*
X032487Y020173D03*
X032487Y021173D03*
X032487Y022173D03*
X032487Y023173D03*
X032487Y024173D03*
X032487Y025173D03*
X032487Y026173D03*
X032487Y027173D03*
X027543Y027173D03*
X027543Y026173D03*
X027543Y025173D03*
X027543Y024173D03*
X027543Y023173D03*
X016543Y023173D03*
X016543Y022173D03*
X016543Y021173D03*
X016543Y020173D03*
X016543Y019173D03*
X016543Y018173D03*
X016543Y017173D03*
X016543Y016173D03*
X016543Y015173D03*
X016543Y014173D03*
X016543Y024173D03*
X016543Y025173D03*
X016543Y026173D03*
X016543Y027173D03*
X043487Y027173D03*
X043487Y026173D03*
X043487Y025173D03*
X043487Y024173D03*
X043487Y023173D03*
X043487Y022173D03*
X043487Y021173D03*
X043487Y020173D03*
X043487Y019173D03*
X043487Y018173D03*
X043487Y017173D03*
X043487Y016173D03*
X043487Y015173D03*
X043487Y014173D03*
D22*
X034680Y021756D03*
X034680Y022504D03*
X033420Y022504D03*
X033420Y022130D03*
X033420Y021756D03*
X018735Y021756D03*
X018735Y022504D03*
X017476Y022504D03*
X017476Y022130D03*
X017476Y021756D03*
D23*
X017436Y020221D03*
X017436Y019847D03*
X017436Y019473D03*
X018539Y019473D03*
X018539Y020221D03*
X033381Y020221D03*
X033381Y019847D03*
X033381Y019473D03*
X034483Y019473D03*
X034483Y020221D03*
D24*
X040783Y012209D03*
X024838Y012209D03*
D25*
X024667Y020173D03*
X025167Y020173D03*
X025167Y020673D03*
X024667Y020673D03*
X024667Y021173D03*
X025167Y021173D03*
X040611Y021173D03*
X040611Y020673D03*
X041111Y020673D03*
X041111Y021173D03*
X041111Y020173D03*
X040611Y020173D03*
D26*
X040861Y019673D03*
X040461Y021673D03*
X041261Y021673D03*
X025317Y021673D03*
X024517Y021673D03*
X024917Y019673D03*
D27*
X024661Y024866D03*
X025330Y024866D03*
X025330Y025693D03*
X024661Y025693D03*
X040606Y025693D03*
X041275Y025693D03*
X041275Y024866D03*
X040606Y024866D03*
M02*
