%
M48
M72
T01C0.01181
T02C0.03900
T03C0.03937
T04C0.05200
T05C0.12598
T06C0.15748
%
T01
X312054Y238461
X314417Y240823
X316779Y243185
X320322Y242398
X323078Y240429
X327015Y240035
X332133Y243185
X348669Y115232
X348669Y253815
X348669Y257358
X342369Y257358
X342369Y253815
X340007Y251059
X329771Y249484
X326621Y257358
X334495Y257358
X318747Y257358
X310873Y257358
X304968Y257358
X299456Y257358
X292369Y249484
X292369Y243972
X292763Y236492
X299456Y242004
X299456Y238461
X299062Y234917
X303787Y240429
X309692Y246335
X314023Y249484
X320716Y249484
X327802Y230193
X327802Y235705
X337645Y239642
X342369Y233736
X322291Y221531
X327802Y224681
X335283Y182555
X342763Y184917
X347094Y184917
X347881Y194760
X347881Y204996
X347881Y214839
X313629Y219957
X311661Y225075
X312448Y227831
X317566Y219957
X309298Y219957
X304180Y229012
X308511Y230193
X312054Y234130
X299456Y249878
X292369Y257358
X287645Y257358
X288039Y253421
X282133Y257358
X275440Y257358
X268354Y257358
X260480Y257358
X252606Y257358
X247487Y244760
X257330Y237280
X248275Y227437
X232921Y234917
X232921Y245154
X232133Y254602
X238432Y253815
X236858Y257358
X232133Y257358
X244732Y257358
X270716Y237280
X261661Y227437
X261267Y219957
X261267Y213657
X253787Y213657
X248275Y213657
X232921Y214839
X232921Y225075
X238826Y225862
X254180Y208539
X254180Y205783
X250243Y199484
X243944Y192791
X243944Y189642
X232133Y183736
X232921Y175075
X254574Y167594
X249062Y166020
X248669Y173106
X254968Y176256
X258905Y173500
X260873Y175862
X261267Y183343
X254968Y183343
X261267Y189642
X261267Y193185
X261267Y201059
X273865Y212476
X278196Y218776
X296700Y194760
X293550Y202634
X301818Y200665
X304968Y192398
X304574Y186492
X307724Y183343
X310873Y184917
X313236Y182949
X312054Y179406
X299850Y173500
X299850Y176256
X297881Y182161
X296700Y188461
X287251Y183736
X285676Y180193
X281739Y179406
X281739Y183736
X281739Y173106
X282921Y162870
X282921Y153028
X279771Y115232
X287645Y115232
X271897Y115232
X263236Y115232
X255361Y115232
X247487Y115232
X238826Y115232
X232133Y115232
X232921Y125075
X232921Y154996
X232921Y164839
X232921Y144760
X232921Y134917
X304180Y158146
X296700Y153028
X295519Y115232
X304180Y115232
X312054Y115232
X319928Y115232
X336858Y115232
X342369Y115232
X347881Y124681
X329377Y145154
X325440Y163264
X336858Y174681
X339220Y177043
X329771Y179406
X313236Y186886
X311661Y172713
X333708Y164445
X342369Y164839
X347881Y164839
X348669Y173500
X347881Y154602
X347881Y144760
X347881Y134917
X328196Y115232
X319928Y138854
X321503Y152240
X318354Y156177
X305361Y204996
X316779Y204996
X299456Y216807
X295125Y212476
X290795Y216807
X295125Y221138
X286464Y237280
X288039Y240035
X347881Y225075
X347881Y234917
X347881Y244760
X187251Y257358
X187251Y115232
X180952Y115232
X167960Y145154
X172291Y164445
X175440Y174681
X173865Y182555
X181346Y184917
X185676Y184917
X168354Y179406
X164023Y163264
X156936Y156177
X160086Y152240
X138432Y173500
X138432Y176256
X136464Y182161
X135283Y188461
X135283Y194760
X112448Y212476
X116779Y218776
X99850Y201059
X99850Y193185
X99850Y189642
X93550Y183343
X82527Y189642
X82527Y192791
X71503Y214839
X86858Y213657
X92369Y213657
X92763Y208539
X92763Y205783
X99850Y213657
X99850Y219957
X100243Y227437
X86858Y227437
X71503Y234917
X95913Y237280
X86070Y244760
X83314Y257358
X77015Y253815
X75440Y257358
X70716Y257358
X70716Y254602
X71503Y245154
X91188Y257358
X99062Y257358
X106936Y257358
X114023Y257358
X120716Y257358
X126228Y257358
X126621Y253421
X130952Y249484
X130952Y243972
X131346Y236492
X138039Y242004
X138039Y238461
X137645Y234917
X142369Y240429
X138039Y249878
X130952Y257358
X138039Y257358
X143550Y257358
X149456Y257358
X157330Y257358
X165204Y257358
X178590Y251059
X170716Y243185
X168354Y249484
X180952Y257358
X180952Y253815
X187251Y253815
X186464Y244760
X176228Y239642
X180952Y233736
X160873Y221531
X166385Y224681
X166385Y230193
X166385Y235705
X165598Y240035
X161661Y240429
X158905Y242398
X155361Y243185
X152999Y240823
X150637Y238461
X150637Y234130
X151031Y227831
X150243Y225075
X152212Y219957
X186464Y204996
X186464Y214839
X156149Y219957
X147881Y219957
X142763Y229012
X147094Y230193
X133708Y221138
X138039Y216807
X133708Y212476
X129377Y216807
X125047Y237280
X126621Y240035
X109298Y237280
X71503Y225075
X77409Y225862
X88826Y199484
X70716Y183736
X71503Y175075
X93157Y167594
X87645Y166020
X87251Y173106
X93550Y176256
X97487Y173500
X99456Y175862
X99850Y183343
X120322Y183736
X120322Y179406
X124259Y180193
X125834Y183736
X120322Y173106
X121503Y162870
X121503Y153028
X118354Y115232
X126228Y115232
X110480Y115232
X101818Y115232
X93944Y115232
X86070Y115232
X77409Y115232
X70716Y115232
X71503Y125075
X71503Y154996
X71503Y164839
X71503Y144760
X71503Y134917
X135283Y153028
X142763Y158146
X150243Y172713
X150637Y179406
X151818Y182949
X149456Y184917
X151818Y186886
X146306Y183343
X143157Y186492
X143550Y192398
X140401Y200665
X143944Y204996
X155361Y204996
X132133Y202634
X148275Y246335
X152606Y249484
X159298Y249484
X173078Y257358
X186464Y234917
X186464Y225075
X186464Y194760
X177802Y177043
X187251Y173500
X186464Y164839
X180952Y164839
X186464Y154602
X186464Y144760
X186464Y134917
X186464Y124681
X175440Y115232
X166779Y115232
X158511Y115232
X150637Y115232
X142763Y115232
X134102Y115232
X158511Y138854
T02
X161724Y194917
X153724Y194917
X157724Y174917
X323141Y194917
X315141Y194917
X319141Y174917
T03
X183984Y119917
X183984Y129917
X183984Y189917
X183984Y169917
X183984Y159917
X183984Y149917
X183984Y139917
X73984Y199917
X73984Y189917
X73984Y169917
X73984Y179917
X73984Y159917
X73984Y129917
X73984Y119917
X73984Y139917
X73984Y149917
X183984Y209917
X183984Y199917
X183984Y179917
X183984Y249917
X183984Y239917
X183984Y229917
X183984Y219917
X73984Y249917
X73984Y239917
X73984Y229917
X73984Y219917
X73984Y209917
X235401Y229917
X235401Y219917
X235401Y209917
X235401Y199917
X345401Y249917
X345401Y189917
X345401Y179917
X345401Y169917
X345401Y159917
X345401Y209917
X345401Y199917
X345401Y219917
X345401Y229917
X345401Y239917
X235401Y179917
X235401Y169917
X235401Y189917
X235401Y159917
X235401Y139917
X235401Y119917
X235401Y129917
X345401Y119917
X345401Y129917
X345401Y139917
X345401Y149917
X235401Y149917
X235401Y239917
X235401Y249917
T04
X156936Y100272
X318354Y100272
T05
X174259Y102240
X245125Y102240
X335676Y102240
X83708Y102240
T06
X48275Y66807
X373078Y66807
X373078Y314839
X48275Y314839
M30
