G75*
%MOIN*%
%OFA0B0*%
%FSLAX24Y24*%
%IPPOS*%
%LPD*%
%AMOC8*
5,1,8,0,0,1.08239X$1,22.5*
%
%ADD10C,0.0080*%
%ADD11C,0.0079*%
%ADD12C,0.0130*%
%ADD13C,0.0157*%
D10*
X018908Y012450D02*
X018908Y012712D01*
X018974Y012778D01*
X019104Y012778D01*
X019170Y012712D01*
X019170Y012581D01*
X019104Y012516D01*
X019104Y012647D01*
X018974Y012647D01*
X018974Y012516D01*
X019104Y012516D01*
X019170Y012450D02*
X019104Y012385D01*
X018974Y012385D01*
X018908Y012450D01*
X019343Y012319D02*
X019605Y012319D01*
X019778Y012385D02*
X019778Y012778D01*
X019774Y012931D02*
X020036Y012931D01*
X019905Y012931D02*
X019905Y013324D01*
X019774Y013193D01*
X019601Y013193D02*
X019601Y012931D01*
X019601Y013127D02*
X019339Y013127D01*
X019339Y013193D02*
X019339Y012931D01*
X019166Y012996D02*
X019166Y013258D01*
X019100Y013324D01*
X018904Y013324D01*
X018904Y012931D01*
X019100Y012931D01*
X019166Y012996D01*
X019339Y013193D02*
X019470Y013324D01*
X019601Y013193D01*
X020209Y013127D02*
X020471Y013127D01*
X020644Y013127D02*
X020775Y013193D01*
X020840Y013193D01*
X020906Y013127D01*
X020906Y012996D01*
X020840Y012931D01*
X020709Y012931D01*
X020644Y012996D01*
X020644Y013127D02*
X020644Y013324D01*
X020906Y013324D01*
X021079Y013258D02*
X021079Y013193D01*
X021144Y013127D01*
X021275Y013127D01*
X021341Y013062D01*
X021341Y012996D01*
X021275Y012931D01*
X021144Y012931D01*
X021079Y012996D01*
X021079Y013062D01*
X021144Y013127D01*
X021275Y013127D02*
X021341Y013193D01*
X021341Y013258D01*
X021275Y013324D01*
X021144Y013324D01*
X021079Y013258D01*
X021514Y013324D02*
X021776Y012931D01*
X021780Y012778D02*
X021518Y012516D01*
X021584Y012581D02*
X021780Y012385D01*
X021953Y012385D02*
X022084Y012385D01*
X022019Y012385D02*
X022019Y012778D01*
X022084Y012778D02*
X021953Y012778D01*
X021518Y012778D02*
X021518Y012385D01*
X021345Y012450D02*
X021280Y012385D01*
X021149Y012385D01*
X021083Y012450D01*
X021083Y012778D01*
X020910Y012778D02*
X020910Y012712D01*
X020648Y012450D01*
X020648Y012385D01*
X020910Y012385D01*
X020910Y012778D02*
X020648Y012778D01*
X020410Y012778D02*
X020410Y012385D01*
X020475Y012581D02*
X020213Y012581D01*
X020410Y012778D01*
X020405Y012931D02*
X020405Y013324D01*
X020209Y013127D01*
X020040Y012778D02*
X019778Y012516D01*
X019844Y012581D02*
X020040Y012385D01*
X021345Y012450D02*
X021345Y012778D01*
X021514Y012931D02*
X021776Y013324D01*
X022384Y013324D02*
X022384Y012931D01*
X022580Y012931D01*
X022646Y012996D01*
X022646Y013127D01*
X022580Y013193D01*
X022384Y013193D01*
X022819Y013193D02*
X022819Y012931D01*
X022819Y013062D02*
X022950Y013193D01*
X023015Y013193D01*
X023247Y013193D02*
X023378Y013193D01*
X023443Y013127D01*
X023443Y012931D01*
X023247Y012931D01*
X023182Y012996D01*
X023247Y013062D01*
X023443Y013062D01*
X023617Y013062D02*
X023813Y013193D01*
X023979Y013127D02*
X024045Y013193D01*
X024175Y013193D01*
X024241Y013127D01*
X024241Y012996D01*
X024175Y012931D01*
X024045Y012931D01*
X023979Y012996D01*
X023979Y013127D01*
X023813Y012931D02*
X023617Y013062D01*
X023617Y012931D02*
X023617Y013324D01*
X024414Y013193D02*
X024414Y012996D01*
X024480Y012931D01*
X024676Y012931D01*
X024676Y013193D01*
X024849Y013193D02*
X024980Y013193D01*
X024915Y013258D02*
X024915Y012996D01*
X024980Y012931D01*
X025613Y013981D02*
X025613Y014374D01*
X025809Y014374D01*
X025874Y014309D01*
X025874Y014178D01*
X025809Y014112D01*
X025613Y014112D01*
X026048Y014047D02*
X026309Y014309D01*
X026309Y014047D01*
X026244Y013981D01*
X026113Y013981D01*
X026048Y014047D01*
X026048Y014309D01*
X026113Y014374D01*
X026244Y014374D01*
X026309Y014309D01*
X026483Y014047D02*
X026548Y014047D01*
X026548Y013981D01*
X026483Y013981D01*
X026483Y014047D01*
X026700Y014178D02*
X026962Y014178D01*
X026897Y014374D02*
X026700Y014178D01*
X026897Y014374D02*
X026897Y013981D01*
X027109Y013626D02*
X027976Y013626D01*
X027976Y027721D01*
X027109Y027721D01*
X027109Y013626D01*
X027232Y013429D02*
X027441Y013115D01*
X027594Y013115D02*
X027804Y013324D01*
X027804Y013377D01*
X027751Y013429D01*
X027647Y013429D01*
X027594Y013377D01*
X027441Y013429D02*
X027232Y013115D01*
X027594Y013115D02*
X027804Y013115D01*
X026897Y015044D02*
X026766Y015044D01*
X026700Y015110D01*
X026700Y015241D02*
X026831Y015306D01*
X026897Y015306D01*
X026962Y015241D01*
X026962Y015110D01*
X026897Y015044D01*
X026700Y015241D02*
X026700Y015437D01*
X026962Y015437D01*
X026548Y015110D02*
X026548Y015044D01*
X026483Y015044D01*
X026483Y015110D01*
X026548Y015110D01*
X026309Y015110D02*
X026309Y015372D01*
X026048Y015110D01*
X026113Y015044D01*
X026244Y015044D01*
X026309Y015110D01*
X026048Y015110D02*
X026048Y015372D01*
X026113Y015437D01*
X026244Y015437D01*
X026309Y015372D01*
X025874Y015372D02*
X025874Y015241D01*
X025809Y015175D01*
X025613Y015175D01*
X025613Y015044D02*
X025613Y015437D01*
X025809Y015437D01*
X025874Y015372D01*
X026113Y015989D02*
X026048Y016055D01*
X026309Y016316D01*
X026309Y016055D01*
X026244Y015989D01*
X026113Y015989D01*
X026048Y016055D02*
X026048Y016316D01*
X026113Y016382D01*
X026244Y016382D01*
X026309Y016316D01*
X026483Y016055D02*
X026548Y016055D01*
X026548Y015989D01*
X026483Y015989D01*
X026483Y016055D01*
X026700Y016055D02*
X026766Y015989D01*
X026897Y015989D01*
X026962Y016055D01*
X026962Y016120D01*
X026897Y016185D01*
X026700Y016185D01*
X026700Y016055D01*
X026700Y016185D02*
X026831Y016316D01*
X026962Y016382D01*
X026700Y016973D02*
X026700Y017039D01*
X026962Y017301D01*
X026962Y017366D01*
X026700Y017366D01*
X026548Y017039D02*
X026548Y016973D01*
X026483Y016973D01*
X026483Y017039D01*
X026548Y017039D01*
X026309Y017039D02*
X026244Y016973D01*
X026113Y016973D01*
X026048Y017039D01*
X026309Y017301D01*
X026309Y017039D01*
X026048Y017039D02*
X026048Y017301D01*
X026113Y017366D01*
X026244Y017366D01*
X026309Y017301D01*
X025874Y017301D02*
X025874Y017170D01*
X025809Y017104D01*
X025613Y017104D01*
X025613Y016973D02*
X025613Y017366D01*
X025809Y017366D01*
X025874Y017301D01*
X026048Y017958D02*
X026309Y018219D01*
X026309Y018285D01*
X026244Y018350D01*
X026113Y018350D01*
X026048Y018285D01*
X025874Y018285D02*
X025874Y018154D01*
X025809Y018089D01*
X025613Y018089D01*
X025613Y017958D02*
X025613Y018350D01*
X025809Y018350D01*
X025874Y018285D01*
X026048Y017958D02*
X026309Y017958D01*
X026483Y017958D02*
X026548Y017958D01*
X026548Y018023D01*
X026483Y018023D01*
X026483Y017958D01*
X026700Y017958D02*
X026962Y017958D01*
X026831Y017958D02*
X026831Y018350D01*
X026700Y018219D01*
X026661Y018784D02*
X026923Y019046D01*
X026923Y019112D01*
X026857Y019177D01*
X026726Y019177D01*
X026661Y019112D01*
X026531Y019375D02*
X026426Y019375D01*
X026374Y019427D01*
X026426Y019532D02*
X026531Y019532D01*
X026583Y019480D01*
X026583Y019427D01*
X026531Y019375D01*
X026426Y019532D02*
X026374Y019584D01*
X026374Y019637D01*
X026426Y019689D01*
X026531Y019689D01*
X026583Y019637D01*
X026696Y019849D02*
X025971Y019849D01*
X026048Y020005D02*
X026309Y020267D01*
X026309Y020332D01*
X026244Y020398D01*
X026113Y020398D01*
X026048Y020332D01*
X025874Y020332D02*
X025874Y020201D01*
X025809Y020136D01*
X025613Y020136D01*
X025613Y020005D02*
X025613Y020398D01*
X025809Y020398D01*
X025874Y020332D01*
X025958Y020674D02*
X025958Y020988D01*
X025853Y020883D01*
X025749Y020988D01*
X025749Y020674D01*
X026111Y020726D02*
X026163Y020674D01*
X026268Y020674D01*
X026320Y020726D01*
X026320Y020936D01*
X026268Y020988D01*
X026163Y020988D01*
X026111Y020936D01*
X026111Y020726D01*
X026474Y020726D02*
X026526Y020674D01*
X026631Y020674D01*
X026683Y020726D01*
X026683Y020779D01*
X026631Y020831D01*
X026526Y020831D01*
X026474Y020883D01*
X026474Y020936D01*
X026526Y020988D01*
X026631Y020988D01*
X026683Y020936D01*
X026836Y020988D02*
X026941Y020988D01*
X026888Y020988D02*
X026888Y020674D01*
X026836Y020674D02*
X026941Y020674D01*
X026897Y020398D02*
X026962Y020332D01*
X026962Y020267D01*
X026897Y020201D01*
X026962Y020136D01*
X026962Y020070D01*
X026897Y020005D01*
X026766Y020005D01*
X026700Y020070D01*
X026548Y020070D02*
X026548Y020005D01*
X026483Y020005D01*
X026483Y020070D01*
X026548Y020070D01*
X026309Y020005D02*
X026048Y020005D01*
X026064Y019689D02*
X026011Y019637D01*
X026011Y019427D01*
X026064Y019375D01*
X026168Y019375D01*
X026221Y019427D01*
X026221Y019637D02*
X026168Y019689D01*
X026064Y019689D01*
X026074Y019177D02*
X026008Y019112D01*
X026074Y019177D02*
X026205Y019177D01*
X026270Y019112D01*
X026270Y019046D01*
X026008Y018784D01*
X026270Y018784D01*
X026443Y018784D02*
X026509Y018784D01*
X026509Y018850D01*
X026443Y018850D01*
X026443Y018784D01*
X026661Y018784D02*
X026923Y018784D01*
X025835Y018981D02*
X025770Y018915D01*
X025573Y018915D01*
X025573Y018784D02*
X025573Y019177D01*
X025770Y019177D01*
X025835Y019112D01*
X025835Y018981D01*
X026831Y020201D02*
X026897Y020201D01*
X026897Y020398D02*
X026766Y020398D01*
X026700Y020332D01*
X026627Y021147D02*
X026561Y021147D01*
X026561Y021212D01*
X026627Y021212D01*
X026627Y021147D01*
X026388Y021147D02*
X026126Y021147D01*
X026388Y021408D01*
X026388Y021474D01*
X026323Y021539D01*
X026192Y021539D01*
X026126Y021474D01*
X025953Y021474D02*
X025953Y021343D01*
X025888Y021277D01*
X025691Y021277D01*
X025691Y021147D02*
X025691Y021539D01*
X025888Y021539D01*
X025953Y021474D01*
X026779Y021343D02*
X027041Y021343D01*
X026975Y021147D02*
X026975Y021539D01*
X026779Y021343D01*
X026766Y022013D02*
X026700Y022078D01*
X026962Y022340D01*
X026962Y022078D01*
X026897Y022013D01*
X026766Y022013D01*
X026700Y022078D02*
X026700Y022340D01*
X026766Y022405D01*
X026897Y022405D01*
X026962Y022340D01*
X026548Y022078D02*
X026548Y022013D01*
X026483Y022013D01*
X026483Y022078D01*
X026548Y022078D01*
X026309Y022013D02*
X026048Y022013D01*
X026179Y022013D02*
X026179Y022405D01*
X026048Y022275D01*
X025874Y022340D02*
X025809Y022405D01*
X025613Y022405D01*
X025613Y022013D01*
X025613Y022144D02*
X025809Y022144D01*
X025874Y022209D01*
X025874Y022340D01*
X026048Y022800D02*
X026309Y022800D01*
X026179Y022800D02*
X026179Y023193D01*
X026048Y023062D01*
X025874Y023127D02*
X025874Y022996D01*
X025809Y022931D01*
X025613Y022931D01*
X025613Y022800D02*
X025613Y023193D01*
X025809Y023193D01*
X025874Y023127D01*
X025452Y023325D02*
X025452Y023534D01*
X025400Y023587D01*
X025295Y023587D01*
X025243Y023534D01*
X025243Y023325D01*
X025295Y023273D01*
X025400Y023273D01*
X025452Y023325D01*
X025106Y023273D02*
X025001Y023273D01*
X025054Y023273D02*
X025054Y023587D01*
X025106Y023587D02*
X025001Y023587D01*
X024941Y023706D02*
X025150Y023706D01*
X025303Y023706D02*
X025303Y024020D01*
X025356Y023863D02*
X025513Y023706D01*
X025303Y023810D02*
X025513Y024020D01*
X024941Y024020D02*
X024941Y023706D01*
X024788Y023758D02*
X024735Y023706D01*
X024631Y023706D01*
X024578Y023758D01*
X024578Y023967D01*
X024631Y024020D01*
X024735Y024020D01*
X024788Y023967D01*
X024425Y024020D02*
X024425Y023706D01*
X024321Y023810D01*
X024216Y023706D01*
X024216Y024020D01*
X024063Y023967D02*
X024010Y024020D01*
X023906Y024020D01*
X023853Y023967D01*
X023853Y023915D01*
X023906Y023863D01*
X024010Y023863D01*
X024063Y023810D01*
X024063Y023758D01*
X024010Y023706D01*
X023906Y023706D01*
X023853Y023758D01*
X023966Y023587D02*
X023914Y023534D01*
X023914Y023482D01*
X023966Y023430D01*
X024071Y023430D01*
X024123Y023377D01*
X024123Y023325D01*
X024071Y023273D01*
X023966Y023273D01*
X023914Y023325D01*
X023966Y023587D02*
X024071Y023587D01*
X024123Y023534D01*
X024276Y023587D02*
X024276Y023273D01*
X024381Y023377D01*
X024486Y023273D01*
X024486Y023587D01*
X024639Y023587D02*
X024796Y023587D01*
X024848Y023534D01*
X024848Y023325D01*
X024796Y023273D01*
X024639Y023273D01*
X024639Y023587D01*
X024633Y023153D02*
X024633Y022839D01*
X024843Y022839D01*
X024996Y022839D02*
X025205Y022839D01*
X025101Y022839D02*
X025101Y023153D01*
X024996Y023049D01*
X026483Y022866D02*
X026548Y022866D01*
X026548Y022800D01*
X026483Y022800D01*
X026483Y022866D01*
X026700Y022800D02*
X026962Y022800D01*
X026831Y022800D02*
X026831Y023193D01*
X026700Y023062D01*
X023788Y021329D02*
X023788Y021277D01*
X023736Y021225D01*
X023788Y021172D01*
X023788Y021120D01*
X023736Y021068D01*
X023631Y021068D01*
X023579Y021120D01*
X023683Y021225D02*
X023736Y021225D01*
X023788Y021329D02*
X023736Y021382D01*
X023631Y021382D01*
X023579Y021329D01*
X023425Y021329D02*
X023373Y021382D01*
X023268Y021382D01*
X023216Y021329D01*
X023216Y021120D01*
X023268Y021068D01*
X023373Y021068D01*
X023425Y021120D01*
X022607Y021160D02*
X022607Y021369D01*
X022554Y021421D01*
X022450Y021421D01*
X022397Y021369D01*
X022397Y021317D01*
X022450Y021264D01*
X022607Y021264D01*
X022607Y021160D02*
X022554Y021107D01*
X022450Y021107D01*
X022397Y021160D01*
X022244Y021160D02*
X022192Y021107D01*
X022087Y021107D01*
X022035Y021160D01*
X022035Y021369D01*
X022087Y021421D01*
X022192Y021421D01*
X022244Y021369D01*
X020914Y021383D02*
X020705Y021383D01*
X020809Y021383D02*
X020809Y021697D01*
X020705Y021592D01*
X020551Y021644D02*
X020499Y021697D01*
X020394Y021697D01*
X020342Y021644D01*
X020342Y021435D01*
X020394Y021383D01*
X020499Y021383D01*
X020551Y021435D01*
X020551Y021644D01*
X020447Y021487D02*
X020551Y021383D01*
X019854Y021750D02*
X019801Y021698D01*
X019697Y021698D01*
X019644Y021750D01*
X019749Y021855D02*
X019801Y021855D01*
X019854Y021802D01*
X019854Y021750D01*
X019801Y021855D02*
X019854Y021907D01*
X019854Y021959D01*
X019801Y022012D01*
X019697Y022012D01*
X019644Y021959D01*
X019491Y021959D02*
X019439Y022012D01*
X019334Y022012D01*
X019282Y021959D01*
X019282Y021750D01*
X019334Y021698D01*
X019439Y021698D01*
X019491Y021750D01*
X019145Y021698D02*
X019040Y021698D01*
X019092Y021698D02*
X019092Y022012D01*
X019040Y022012D02*
X019145Y022012D01*
X018867Y021461D02*
X018657Y021461D01*
X018657Y021304D01*
X018762Y021356D01*
X018814Y021356D01*
X018867Y021304D01*
X018867Y021199D01*
X018814Y021147D01*
X018710Y021147D01*
X018657Y021199D01*
X018504Y021199D02*
X018452Y021147D01*
X018347Y021147D01*
X018295Y021199D01*
X018295Y021408D01*
X018347Y021461D01*
X018452Y021461D01*
X018504Y021408D01*
X018079Y021147D02*
X017870Y021147D01*
X017975Y021147D02*
X017975Y021461D01*
X017870Y021356D01*
X017717Y021408D02*
X017717Y021304D01*
X017664Y021251D01*
X017507Y021251D01*
X017507Y021147D02*
X017507Y021461D01*
X017664Y021461D01*
X017717Y021408D01*
X017612Y021251D02*
X017717Y021147D01*
X018883Y020279D02*
X018987Y020279D01*
X018935Y020279D02*
X018935Y019965D01*
X018883Y019965D02*
X018987Y019965D01*
X019124Y020018D02*
X019177Y019965D01*
X019281Y019965D01*
X019334Y020018D01*
X019487Y019965D02*
X019696Y020175D01*
X019696Y020227D01*
X019644Y020279D01*
X019539Y020279D01*
X019487Y020227D01*
X019334Y020227D02*
X019281Y020279D01*
X019177Y020279D01*
X019124Y020227D01*
X019124Y020018D01*
X019487Y019965D02*
X019696Y019965D01*
X019641Y018980D02*
X019536Y018980D01*
X019589Y018980D02*
X019589Y018666D01*
X019641Y018666D02*
X019536Y018666D01*
X019383Y018666D02*
X019383Y018980D01*
X019278Y018876D01*
X019174Y018980D01*
X019174Y018666D01*
X018891Y018692D02*
X018891Y018954D01*
X018826Y019020D01*
X018695Y019020D01*
X018629Y018954D01*
X018629Y018889D01*
X018695Y018823D01*
X018891Y018823D01*
X018891Y018692D02*
X018826Y018627D01*
X018695Y018627D01*
X018629Y018692D01*
X018477Y018692D02*
X018477Y018627D01*
X018412Y018627D01*
X018412Y018692D01*
X018477Y018692D01*
X018239Y018627D02*
X017977Y018627D01*
X018239Y018889D01*
X018239Y018954D01*
X018173Y019020D01*
X018042Y019020D01*
X017977Y018954D01*
X017804Y018954D02*
X017804Y018823D01*
X017738Y018758D01*
X017542Y018758D01*
X017542Y018627D02*
X017542Y019020D01*
X017738Y019020D01*
X017804Y018954D01*
X017740Y018390D02*
X017609Y018390D01*
X017544Y018324D01*
X017370Y018324D02*
X017370Y018193D01*
X017305Y018128D01*
X017109Y018128D01*
X017109Y017997D02*
X017109Y018390D01*
X017305Y018390D01*
X017370Y018324D01*
X017544Y017997D02*
X017806Y018259D01*
X017806Y018324D01*
X017740Y018390D01*
X017806Y017997D02*
X017544Y017997D01*
X017979Y017997D02*
X018044Y017997D01*
X018044Y018062D01*
X017979Y018062D01*
X017979Y017997D01*
X018196Y018062D02*
X018458Y018324D01*
X018458Y018062D01*
X018393Y017997D01*
X018262Y017997D01*
X018196Y018062D01*
X018196Y018324D01*
X018262Y018390D01*
X018393Y018390D01*
X018458Y018324D01*
X018743Y018298D02*
X018743Y018246D01*
X018796Y018193D01*
X018900Y018193D01*
X018953Y018141D01*
X018953Y018089D01*
X018900Y018036D01*
X018796Y018036D01*
X018743Y018089D01*
X018743Y018298D02*
X018796Y018350D01*
X018900Y018350D01*
X018953Y018298D01*
X019106Y018298D02*
X019106Y018089D01*
X019158Y018036D01*
X019263Y018036D01*
X019315Y018089D01*
X019469Y018141D02*
X019678Y018350D01*
X019469Y018350D02*
X019469Y018036D01*
X019521Y018193D02*
X019678Y018036D01*
X019315Y018298D02*
X019263Y018350D01*
X019158Y018350D01*
X019106Y018298D01*
X019778Y018719D02*
X019830Y018666D01*
X019935Y018666D01*
X019987Y018719D01*
X019987Y018771D01*
X019935Y018823D01*
X019830Y018823D01*
X019778Y018876D01*
X019778Y018928D01*
X019830Y018980D01*
X019935Y018980D01*
X019987Y018928D01*
X020141Y018928D02*
X020141Y018719D01*
X020193Y018666D01*
X020298Y018666D01*
X020350Y018719D01*
X020350Y018928D01*
X020298Y018980D01*
X020193Y018980D01*
X020141Y018928D01*
X021599Y019454D02*
X021704Y019454D01*
X021651Y019454D02*
X021651Y019768D01*
X021599Y019768D02*
X021704Y019768D01*
X021841Y019715D02*
X021841Y019506D01*
X021893Y019454D01*
X021998Y019454D01*
X022050Y019506D01*
X022203Y019454D02*
X022413Y019454D01*
X022308Y019454D02*
X022308Y019768D01*
X022203Y019663D01*
X022050Y019715D02*
X021998Y019768D01*
X021893Y019768D01*
X021841Y019715D01*
X022476Y019177D02*
X022476Y017288D01*
X023578Y017288D02*
X023578Y019177D01*
X023734Y019846D02*
X023734Y020160D01*
X023577Y020003D01*
X023786Y020003D01*
X023423Y019899D02*
X023371Y019846D01*
X023266Y019846D01*
X023214Y019899D01*
X023214Y020108D01*
X023266Y020160D01*
X023371Y020160D01*
X023423Y020108D01*
X020964Y022839D02*
X020859Y022839D01*
X020807Y022892D01*
X021016Y023101D01*
X021016Y022892D01*
X020964Y022839D01*
X020807Y022892D02*
X020807Y023101D01*
X020859Y023153D01*
X020964Y023153D01*
X021016Y023101D01*
X020654Y023101D02*
X020654Y023049D01*
X020602Y022996D01*
X020497Y022996D01*
X020445Y023049D01*
X020445Y023101D01*
X020497Y023153D01*
X020602Y023153D01*
X020654Y023101D01*
X020602Y022996D02*
X020654Y022944D01*
X020654Y022892D01*
X020602Y022839D01*
X020497Y022839D01*
X020445Y022892D01*
X020445Y022944D01*
X020497Y022996D01*
X020291Y022996D02*
X020291Y022892D01*
X020239Y022839D01*
X020134Y022839D01*
X020082Y022892D01*
X020082Y022996D02*
X020187Y023049D01*
X020239Y023049D01*
X020291Y022996D01*
X020291Y023153D02*
X020082Y023153D01*
X020082Y022996D01*
X018985Y023863D02*
X018775Y023863D01*
X018985Y024072D01*
X018985Y024125D01*
X018932Y024177D01*
X018828Y024177D01*
X018775Y024125D01*
X018622Y024125D02*
X018570Y024177D01*
X018465Y024177D01*
X018413Y024125D01*
X018413Y023915D01*
X018465Y023863D01*
X018570Y023863D01*
X018622Y023915D01*
X017922Y023863D02*
X017712Y023863D01*
X017817Y023863D02*
X017817Y024177D01*
X017712Y024072D01*
X017559Y024125D02*
X017507Y024177D01*
X017402Y024177D01*
X017350Y024125D01*
X017350Y023915D01*
X017402Y023863D01*
X017507Y023863D01*
X017559Y023915D01*
X017534Y024965D02*
X017534Y025358D01*
X017731Y025358D01*
X017796Y025293D01*
X017796Y025162D01*
X017731Y025096D01*
X017534Y025096D01*
X017361Y025096D02*
X017361Y025358D01*
X017361Y025096D02*
X017230Y024965D01*
X017099Y025096D01*
X017099Y025358D01*
X017969Y025358D02*
X017969Y024965D01*
X017969Y025096D02*
X018166Y025096D01*
X018231Y025162D01*
X018231Y025293D01*
X018166Y025358D01*
X017969Y025358D01*
X017979Y025989D02*
X018044Y025989D01*
X018044Y026055D01*
X017979Y026055D01*
X017979Y025989D01*
X017806Y025989D02*
X017544Y025989D01*
X017806Y026251D01*
X017806Y026316D01*
X017740Y026382D01*
X017609Y026382D01*
X017544Y026316D01*
X017370Y026316D02*
X017370Y026185D01*
X017305Y026120D01*
X017109Y026120D01*
X017109Y025989D02*
X017109Y026382D01*
X017305Y026382D01*
X017370Y026316D01*
X017544Y026934D02*
X017806Y027196D01*
X017806Y027261D01*
X017740Y027327D01*
X017609Y027327D01*
X017544Y027261D01*
X017370Y027261D02*
X017370Y027130D01*
X017305Y027065D01*
X017109Y027065D01*
X017109Y026934D02*
X017109Y027327D01*
X017305Y027327D01*
X017370Y027261D01*
X017544Y026934D02*
X017806Y026934D01*
X017979Y026934D02*
X018044Y026934D01*
X018044Y026999D01*
X017979Y026999D01*
X017979Y026934D01*
X018196Y026934D02*
X018196Y026999D01*
X018458Y027261D01*
X018458Y027327D01*
X018196Y027327D01*
X018262Y026382D02*
X018393Y026382D01*
X018458Y026316D01*
X018458Y026251D01*
X018393Y026185D01*
X018262Y026185D01*
X018196Y026251D01*
X018196Y026316D01*
X018262Y026382D01*
X018262Y026185D02*
X018196Y026120D01*
X018196Y026055D01*
X018262Y025989D01*
X018393Y025989D01*
X018458Y026055D01*
X018458Y026120D01*
X018393Y026185D01*
X020003Y024637D02*
X020003Y024427D01*
X020056Y024375D01*
X020160Y024375D01*
X020213Y024427D01*
X020366Y024375D02*
X020575Y024375D01*
X020470Y024375D02*
X020470Y024689D01*
X020366Y024584D01*
X020213Y024637D02*
X020160Y024689D01*
X020056Y024689D01*
X020003Y024637D01*
X020728Y024637D02*
X020728Y024427D01*
X020938Y024637D01*
X020938Y024427D01*
X020885Y024375D01*
X020781Y024375D01*
X020728Y024427D01*
X020728Y024637D02*
X020781Y024689D01*
X020885Y024689D01*
X020938Y024637D01*
X020980Y025202D02*
X021189Y025202D01*
X021085Y025202D02*
X021085Y025516D01*
X020980Y025411D01*
X020827Y025516D02*
X020827Y025254D01*
X020775Y025202D01*
X020670Y025202D01*
X020618Y025254D01*
X020618Y025516D01*
X021064Y026068D02*
X021168Y026068D01*
X021221Y026120D01*
X021374Y026120D02*
X021374Y026172D01*
X021426Y026225D01*
X021531Y026225D01*
X021583Y026172D01*
X021583Y026120D01*
X021531Y026068D01*
X021426Y026068D01*
X021374Y026120D01*
X021426Y026225D02*
X021374Y026277D01*
X021374Y026329D01*
X021426Y026382D01*
X021531Y026382D01*
X021583Y026329D01*
X021583Y026277D01*
X021531Y026225D01*
X021221Y026329D02*
X021168Y026382D01*
X021064Y026382D01*
X021011Y026329D01*
X021011Y026120D01*
X021064Y026068D01*
X021536Y026698D02*
X021641Y026698D01*
X021693Y026750D01*
X021846Y026750D02*
X021899Y026698D01*
X022003Y026698D01*
X022056Y026750D01*
X022056Y026802D01*
X022003Y026855D01*
X021846Y026855D01*
X021846Y026750D01*
X021846Y026855D02*
X021951Y026959D01*
X022056Y027012D01*
X021693Y026959D02*
X021641Y027012D01*
X021536Y027012D01*
X021484Y026959D01*
X021484Y026750D01*
X021536Y026698D01*
X021374Y027367D02*
X021374Y027419D01*
X021583Y027629D01*
X021583Y027681D01*
X021374Y027681D01*
X021221Y027629D02*
X021168Y027681D01*
X021064Y027681D01*
X021011Y027629D01*
X021011Y027419D01*
X021064Y027367D01*
X021168Y027367D01*
X021221Y027419D01*
X023579Y026172D02*
X023631Y026224D01*
X023736Y026224D01*
X023788Y026172D01*
X023788Y025963D01*
X023736Y025910D01*
X023631Y025910D01*
X023579Y025963D01*
X023579Y026172D01*
X023683Y026015D02*
X023788Y025910D01*
X023941Y025910D02*
X024150Y026120D01*
X024150Y026172D01*
X024098Y026224D01*
X023993Y026224D01*
X023941Y026172D01*
X023941Y025910D02*
X024150Y025910D01*
X025455Y026619D02*
X025455Y027012D01*
X025651Y027012D01*
X025717Y026946D01*
X025717Y026815D01*
X025651Y026750D01*
X025455Y026750D01*
X025890Y026619D02*
X026152Y026881D01*
X026152Y026946D01*
X026087Y027012D01*
X025956Y027012D01*
X025890Y026946D01*
X025890Y026619D02*
X026152Y026619D01*
X026325Y026619D02*
X026391Y026619D01*
X026391Y026684D01*
X026325Y026684D01*
X026325Y026619D01*
X026543Y026684D02*
X026608Y026619D01*
X026739Y026619D01*
X026804Y026684D01*
X026804Y026815D01*
X026739Y026881D01*
X026674Y026881D01*
X026543Y026815D01*
X026543Y027012D01*
X026804Y027012D01*
X026766Y027446D02*
X026897Y027446D01*
X026962Y027511D01*
X026962Y027577D01*
X026897Y027642D01*
X026700Y027642D01*
X026700Y027511D01*
X026766Y027446D01*
X026700Y027642D02*
X026831Y027773D01*
X026962Y027839D01*
X026548Y027511D02*
X026548Y027446D01*
X026483Y027446D01*
X026483Y027511D01*
X026548Y027511D01*
X026309Y027446D02*
X026048Y027446D01*
X026309Y027708D01*
X026309Y027773D01*
X026244Y027839D01*
X026113Y027839D01*
X026048Y027773D01*
X025874Y027773D02*
X025874Y027642D01*
X025809Y027577D01*
X025613Y027577D01*
X025613Y027446D02*
X025613Y027839D01*
X025809Y027839D01*
X025874Y027773D01*
X032054Y027721D02*
X032920Y027721D01*
X032920Y013626D01*
X032054Y013626D01*
X032054Y027721D01*
X033054Y027327D02*
X033250Y027327D01*
X033315Y027261D01*
X033315Y027130D01*
X033250Y027065D01*
X033054Y027065D01*
X033054Y026934D02*
X033054Y027327D01*
X033489Y027261D02*
X033554Y027327D01*
X033685Y027327D01*
X033750Y027261D01*
X033750Y027196D01*
X033489Y026934D01*
X033750Y026934D01*
X033924Y026934D02*
X033924Y026999D01*
X033989Y026999D01*
X033989Y026934D01*
X033924Y026934D01*
X034141Y026934D02*
X034141Y026999D01*
X034403Y027261D01*
X034403Y027327D01*
X034141Y027327D01*
X034207Y026382D02*
X034337Y026382D01*
X034403Y026316D01*
X034403Y026251D01*
X034337Y026185D01*
X034207Y026185D01*
X034141Y026251D01*
X034141Y026316D01*
X034207Y026382D01*
X034207Y026185D02*
X034141Y026120D01*
X034141Y026055D01*
X034207Y025989D01*
X034337Y025989D01*
X034403Y026055D01*
X034403Y026120D01*
X034337Y026185D01*
X033989Y026055D02*
X033989Y025989D01*
X033924Y025989D01*
X033924Y026055D01*
X033989Y026055D01*
X033750Y025989D02*
X033489Y025989D01*
X033750Y026251D01*
X033750Y026316D01*
X033685Y026382D01*
X033554Y026382D01*
X033489Y026316D01*
X033315Y026316D02*
X033315Y026185D01*
X033250Y026120D01*
X033054Y026120D01*
X033054Y025989D02*
X033054Y026382D01*
X033250Y026382D01*
X033315Y026316D01*
X033306Y025358D02*
X033306Y025096D01*
X033175Y024965D01*
X033044Y025096D01*
X033044Y025358D01*
X033479Y025358D02*
X033479Y024965D01*
X033479Y025096D02*
X033676Y025096D01*
X033741Y025162D01*
X033741Y025293D01*
X033676Y025358D01*
X033479Y025358D01*
X033914Y025358D02*
X033914Y024965D01*
X033914Y025096D02*
X034111Y025096D01*
X034176Y025162D01*
X034176Y025293D01*
X034111Y025358D01*
X033914Y025358D01*
X033762Y024177D02*
X033762Y023863D01*
X033657Y023863D02*
X033867Y023863D01*
X033657Y024072D02*
X033762Y024177D01*
X033504Y024125D02*
X033452Y024177D01*
X033347Y024177D01*
X033295Y024125D01*
X033295Y023915D01*
X033347Y023863D01*
X033452Y023863D01*
X033504Y023915D01*
X034358Y023915D02*
X034410Y023863D01*
X034515Y023863D01*
X034567Y023915D01*
X034720Y023863D02*
X034930Y024072D01*
X034930Y024125D01*
X034877Y024177D01*
X034773Y024177D01*
X034720Y024125D01*
X034567Y024125D02*
X034515Y024177D01*
X034410Y024177D01*
X034358Y024125D01*
X034358Y023915D01*
X034720Y023863D02*
X034930Y023863D01*
X035948Y024427D02*
X036001Y024375D01*
X036105Y024375D01*
X036158Y024427D01*
X036311Y024375D02*
X036520Y024375D01*
X036415Y024375D02*
X036415Y024689D01*
X036311Y024584D01*
X036158Y024637D02*
X036105Y024689D01*
X036001Y024689D01*
X035948Y024637D01*
X035948Y024427D01*
X036673Y024427D02*
X036883Y024637D01*
X036883Y024427D01*
X036830Y024375D01*
X036726Y024375D01*
X036673Y024427D01*
X036673Y024637D01*
X036726Y024689D01*
X036830Y024689D01*
X036883Y024637D01*
X036925Y025202D02*
X037134Y025202D01*
X037030Y025202D02*
X037030Y025516D01*
X036925Y025411D01*
X036772Y025516D02*
X036772Y025254D01*
X036720Y025202D01*
X036615Y025202D01*
X036563Y025254D01*
X036563Y025516D01*
X037009Y026068D02*
X037113Y026068D01*
X037166Y026120D01*
X037319Y026120D02*
X037319Y026172D01*
X037371Y026225D01*
X037476Y026225D01*
X037528Y026172D01*
X037528Y026120D01*
X037476Y026068D01*
X037371Y026068D01*
X037319Y026120D01*
X037371Y026225D02*
X037319Y026277D01*
X037319Y026329D01*
X037371Y026382D01*
X037476Y026382D01*
X037528Y026329D01*
X037528Y026277D01*
X037476Y026225D01*
X037166Y026329D02*
X037113Y026382D01*
X037009Y026382D01*
X036956Y026329D01*
X036956Y026120D01*
X037009Y026068D01*
X037481Y026698D02*
X037586Y026698D01*
X037638Y026750D01*
X037791Y026750D02*
X037844Y026698D01*
X037948Y026698D01*
X038000Y026750D01*
X038000Y026802D01*
X037948Y026855D01*
X037791Y026855D01*
X037791Y026750D01*
X037791Y026855D02*
X037896Y026959D01*
X038000Y027012D01*
X037638Y026959D02*
X037586Y027012D01*
X037481Y027012D01*
X037429Y026959D01*
X037429Y026750D01*
X037481Y026698D01*
X037319Y027367D02*
X037319Y027419D01*
X037528Y027629D01*
X037528Y027681D01*
X037319Y027681D01*
X037166Y027629D02*
X037113Y027681D01*
X037009Y027681D01*
X036956Y027629D01*
X036956Y027419D01*
X037009Y027367D01*
X037113Y027367D01*
X037166Y027419D01*
X039523Y026172D02*
X039576Y026224D01*
X039680Y026224D01*
X039733Y026172D01*
X039733Y025963D01*
X039680Y025910D01*
X039576Y025910D01*
X039523Y025963D01*
X039523Y026172D01*
X039628Y026015D02*
X039733Y025910D01*
X039886Y025910D02*
X040095Y026120D01*
X040095Y026172D01*
X040043Y026224D01*
X039938Y026224D01*
X039886Y026172D01*
X039886Y025910D02*
X040095Y025910D01*
X041400Y026619D02*
X041400Y027012D01*
X041596Y027012D01*
X041662Y026946D01*
X041662Y026815D01*
X041596Y026750D01*
X041400Y026750D01*
X041835Y026619D02*
X042097Y026881D01*
X042097Y026946D01*
X042031Y027012D01*
X041900Y027012D01*
X041835Y026946D01*
X041835Y026619D02*
X042097Y026619D01*
X042270Y026619D02*
X042335Y026619D01*
X042335Y026684D01*
X042270Y026684D01*
X042270Y026619D01*
X042488Y026684D02*
X042553Y026619D01*
X042684Y026619D01*
X042749Y026684D01*
X042749Y026815D01*
X042684Y026881D01*
X042618Y026881D01*
X042488Y026815D01*
X042488Y027012D01*
X042749Y027012D01*
X042710Y027446D02*
X042841Y027446D01*
X042907Y027511D01*
X042907Y027577D01*
X042841Y027642D01*
X042645Y027642D01*
X042645Y027511D01*
X042710Y027446D01*
X042645Y027642D02*
X042776Y027773D01*
X042907Y027839D01*
X043054Y027721D02*
X043920Y027721D01*
X043920Y013626D01*
X043054Y013626D01*
X043054Y027721D01*
X042493Y027511D02*
X042493Y027446D01*
X042427Y027446D01*
X042427Y027511D01*
X042493Y027511D01*
X042254Y027446D02*
X041992Y027446D01*
X042254Y027708D01*
X042254Y027773D01*
X042189Y027839D01*
X042058Y027839D01*
X041992Y027773D01*
X041819Y027773D02*
X041819Y027642D01*
X041754Y027577D01*
X041557Y027577D01*
X041557Y027446D02*
X041557Y027839D01*
X041754Y027839D01*
X041819Y027773D01*
X041458Y024020D02*
X041248Y023810D01*
X041301Y023863D02*
X041458Y023706D01*
X041345Y023587D02*
X041397Y023534D01*
X041397Y023325D01*
X041345Y023273D01*
X041240Y023273D01*
X041188Y023325D01*
X041188Y023534D01*
X041240Y023587D01*
X041345Y023587D01*
X041248Y023706D02*
X041248Y024020D01*
X041095Y023706D02*
X040886Y023706D01*
X040886Y024020D01*
X040733Y023967D02*
X040680Y024020D01*
X040576Y024020D01*
X040523Y023967D01*
X040523Y023758D01*
X040576Y023706D01*
X040680Y023706D01*
X040733Y023758D01*
X040741Y023587D02*
X040584Y023587D01*
X040584Y023273D01*
X040741Y023273D01*
X040793Y023325D01*
X040793Y023534D01*
X040741Y023587D01*
X040946Y023587D02*
X041051Y023587D01*
X040999Y023587D02*
X040999Y023273D01*
X041051Y023273D02*
X040946Y023273D01*
X041045Y023153D02*
X041045Y022839D01*
X040941Y022839D02*
X041150Y022839D01*
X040941Y023049D02*
X041045Y023153D01*
X040788Y022839D02*
X040578Y022839D01*
X040578Y023153D01*
X040431Y023273D02*
X040431Y023587D01*
X040370Y023706D02*
X040370Y024020D01*
X040161Y024020D02*
X040161Y023706D01*
X040265Y023810D01*
X040370Y023706D01*
X040221Y023587D02*
X040221Y023273D01*
X040326Y023377D01*
X040431Y023273D01*
X040068Y023325D02*
X040016Y023273D01*
X039911Y023273D01*
X039859Y023325D01*
X039911Y023430D02*
X040016Y023430D01*
X040068Y023377D01*
X040068Y023325D01*
X039911Y023430D02*
X039859Y023482D01*
X039859Y023534D01*
X039911Y023587D01*
X040016Y023587D01*
X040068Y023534D01*
X039955Y023706D02*
X039851Y023706D01*
X039798Y023758D01*
X039851Y023863D02*
X039955Y023863D01*
X040008Y023810D01*
X040008Y023758D01*
X039955Y023706D01*
X039851Y023863D02*
X039798Y023915D01*
X039798Y023967D01*
X039851Y024020D01*
X039955Y024020D01*
X040008Y023967D01*
X041557Y023193D02*
X041557Y022800D01*
X041557Y022931D02*
X041754Y022931D01*
X041819Y022996D01*
X041819Y023127D01*
X041754Y023193D01*
X041557Y023193D01*
X041992Y023062D02*
X042123Y023193D01*
X042123Y022800D01*
X041992Y022800D02*
X042254Y022800D01*
X042427Y022800D02*
X042493Y022800D01*
X042493Y022866D01*
X042427Y022866D01*
X042427Y022800D01*
X042645Y022800D02*
X042907Y022800D01*
X042776Y022800D02*
X042776Y023193D01*
X042645Y023062D01*
X042710Y022405D02*
X042841Y022405D01*
X042907Y022340D01*
X042645Y022078D01*
X042710Y022013D01*
X042841Y022013D01*
X042907Y022078D01*
X042907Y022340D01*
X042710Y022405D02*
X042645Y022340D01*
X042645Y022078D01*
X042493Y022078D02*
X042493Y022013D01*
X042427Y022013D01*
X042427Y022078D01*
X042493Y022078D01*
X042254Y022013D02*
X041992Y022013D01*
X042123Y022013D02*
X042123Y022405D01*
X041992Y022275D01*
X041819Y022340D02*
X041819Y022209D01*
X041754Y022144D01*
X041557Y022144D01*
X041557Y022013D02*
X041557Y022405D01*
X041754Y022405D01*
X041819Y022340D01*
X041833Y021539D02*
X041636Y021539D01*
X041636Y021147D01*
X041636Y021277D02*
X041833Y021277D01*
X041898Y021343D01*
X041898Y021474D01*
X041833Y021539D01*
X042071Y021474D02*
X042137Y021539D01*
X042268Y021539D01*
X042333Y021474D01*
X042333Y021408D01*
X042071Y021147D01*
X042333Y021147D01*
X042506Y021147D02*
X042572Y021147D01*
X042572Y021212D01*
X042506Y021212D01*
X042506Y021147D01*
X042471Y020988D02*
X042419Y020936D01*
X042419Y020883D01*
X042471Y020831D01*
X042576Y020831D01*
X042628Y020779D01*
X042628Y020726D01*
X042576Y020674D01*
X042471Y020674D01*
X042419Y020726D01*
X042265Y020726D02*
X042265Y020936D01*
X042213Y020988D01*
X042108Y020988D01*
X042056Y020936D01*
X042056Y020726D01*
X042108Y020674D01*
X042213Y020674D01*
X042265Y020726D01*
X042471Y020988D02*
X042576Y020988D01*
X042628Y020936D01*
X042781Y020988D02*
X042886Y020988D01*
X042833Y020988D02*
X042833Y020674D01*
X042781Y020674D02*
X042886Y020674D01*
X042841Y020398D02*
X042907Y020332D01*
X042907Y020267D01*
X042841Y020201D01*
X042907Y020136D01*
X042907Y020070D01*
X042841Y020005D01*
X042710Y020005D01*
X042645Y020070D01*
X042493Y020070D02*
X042493Y020005D01*
X042427Y020005D01*
X042427Y020070D01*
X042493Y020070D01*
X042254Y020005D02*
X041992Y020005D01*
X042254Y020267D01*
X042254Y020332D01*
X042189Y020398D01*
X042058Y020398D01*
X041992Y020332D01*
X041819Y020332D02*
X041819Y020201D01*
X041754Y020136D01*
X041557Y020136D01*
X041557Y020005D02*
X041557Y020398D01*
X041754Y020398D01*
X041819Y020332D01*
X041903Y020674D02*
X041903Y020988D01*
X041798Y020883D01*
X041694Y020988D01*
X041694Y020674D01*
X042645Y020332D02*
X042710Y020398D01*
X042841Y020398D01*
X042841Y020201D02*
X042776Y020201D01*
X042641Y019849D02*
X041916Y019849D01*
X042009Y019689D02*
X041956Y019637D01*
X041956Y019427D01*
X042009Y019375D01*
X042113Y019375D01*
X042166Y019427D01*
X042319Y019427D02*
X042371Y019375D01*
X042476Y019375D01*
X042528Y019427D01*
X042528Y019480D01*
X042476Y019532D01*
X042371Y019532D01*
X042319Y019584D01*
X042319Y019637D01*
X042371Y019689D01*
X042476Y019689D01*
X042528Y019637D01*
X042166Y019637D02*
X042113Y019689D01*
X042009Y019689D01*
X042019Y019177D02*
X041953Y019112D01*
X042019Y019177D02*
X042149Y019177D01*
X042215Y019112D01*
X042215Y019046D01*
X041953Y018784D01*
X042215Y018784D01*
X042388Y018784D02*
X042388Y018850D01*
X042454Y018850D01*
X042454Y018784D01*
X042388Y018784D01*
X042606Y018784D02*
X042867Y019046D01*
X042867Y019112D01*
X042802Y019177D01*
X042671Y019177D01*
X042606Y019112D01*
X042606Y018784D02*
X042867Y018784D01*
X042776Y018350D02*
X042776Y017958D01*
X042645Y017958D02*
X042907Y017958D01*
X042645Y018219D02*
X042776Y018350D01*
X042493Y018023D02*
X042493Y017958D01*
X042427Y017958D01*
X042427Y018023D01*
X042493Y018023D01*
X042254Y017958D02*
X041992Y017958D01*
X042254Y018219D01*
X042254Y018285D01*
X042189Y018350D01*
X042058Y018350D01*
X041992Y018285D01*
X041819Y018285D02*
X041819Y018154D01*
X041754Y018089D01*
X041557Y018089D01*
X041557Y017958D02*
X041557Y018350D01*
X041754Y018350D01*
X041819Y018285D01*
X041518Y018784D02*
X041518Y019177D01*
X041714Y019177D01*
X041780Y019112D01*
X041780Y018981D01*
X041714Y018915D01*
X041518Y018915D01*
X039731Y020003D02*
X039521Y020003D01*
X039678Y020160D01*
X039678Y019846D01*
X039368Y019899D02*
X039316Y019846D01*
X039211Y019846D01*
X039159Y019899D01*
X039159Y020108D01*
X039211Y020160D01*
X039316Y020160D01*
X039368Y020108D01*
X039523Y019177D02*
X039523Y017288D01*
X038420Y017288D02*
X038420Y019177D01*
X038358Y019454D02*
X038148Y019454D01*
X038253Y019454D02*
X038253Y019768D01*
X038148Y019663D01*
X037995Y019715D02*
X037943Y019768D01*
X037838Y019768D01*
X037786Y019715D01*
X037786Y019506D01*
X037838Y019454D01*
X037943Y019454D01*
X037995Y019506D01*
X037649Y019454D02*
X037544Y019454D01*
X037596Y019454D02*
X037596Y019768D01*
X037544Y019768D02*
X037649Y019768D01*
X036295Y018928D02*
X036295Y018719D01*
X036242Y018666D01*
X036138Y018666D01*
X036085Y018719D01*
X036085Y018928D01*
X036138Y018980D01*
X036242Y018980D01*
X036295Y018928D01*
X035932Y018928D02*
X035880Y018980D01*
X035775Y018980D01*
X035723Y018928D01*
X035723Y018876D01*
X035775Y018823D01*
X035880Y018823D01*
X035932Y018771D01*
X035932Y018719D01*
X035880Y018666D01*
X035775Y018666D01*
X035723Y018719D01*
X035586Y018666D02*
X035481Y018666D01*
X035534Y018666D02*
X035534Y018980D01*
X035586Y018980D02*
X035481Y018980D01*
X035328Y018980D02*
X035328Y018666D01*
X035119Y018666D02*
X035119Y018980D01*
X035223Y018876D01*
X035328Y018980D01*
X034836Y018954D02*
X034836Y018692D01*
X034771Y018627D01*
X034640Y018627D01*
X034574Y018692D01*
X034640Y018823D02*
X034836Y018823D01*
X034836Y018954D02*
X034771Y019020D01*
X034640Y019020D01*
X034574Y018954D01*
X034574Y018889D01*
X034640Y018823D01*
X034422Y018692D02*
X034357Y018692D01*
X034357Y018627D01*
X034422Y018627D01*
X034422Y018692D01*
X034183Y018627D02*
X033922Y018627D01*
X034183Y018889D01*
X034183Y018954D01*
X034118Y019020D01*
X033987Y019020D01*
X033922Y018954D01*
X033748Y018954D02*
X033748Y018823D01*
X033683Y018758D01*
X033487Y018758D01*
X033487Y018627D02*
X033487Y019020D01*
X033683Y019020D01*
X033748Y018954D01*
X033685Y018390D02*
X033554Y018390D01*
X033489Y018324D01*
X033315Y018324D02*
X033315Y018193D01*
X033250Y018128D01*
X033054Y018128D01*
X033054Y017997D02*
X033054Y018390D01*
X033250Y018390D01*
X033315Y018324D01*
X033489Y017997D02*
X033750Y018259D01*
X033750Y018324D01*
X033685Y018390D01*
X033750Y017997D02*
X033489Y017997D01*
X033924Y017997D02*
X033989Y017997D01*
X033989Y018062D01*
X033924Y018062D01*
X033924Y017997D01*
X034141Y018062D02*
X034403Y018324D01*
X034403Y018062D01*
X034337Y017997D01*
X034207Y017997D01*
X034141Y018062D01*
X034141Y018324D01*
X034207Y018390D01*
X034337Y018390D01*
X034403Y018324D01*
X034688Y018298D02*
X034688Y018246D01*
X034741Y018193D01*
X034845Y018193D01*
X034898Y018141D01*
X034898Y018089D01*
X034845Y018036D01*
X034741Y018036D01*
X034688Y018089D01*
X034688Y018298D02*
X034741Y018350D01*
X034845Y018350D01*
X034898Y018298D01*
X035051Y018298D02*
X035051Y018089D01*
X035103Y018036D01*
X035208Y018036D01*
X035260Y018089D01*
X035413Y018141D02*
X035623Y018350D01*
X035413Y018350D02*
X035413Y018036D01*
X035466Y018193D02*
X035623Y018036D01*
X035260Y018298D02*
X035208Y018350D01*
X035103Y018350D01*
X035051Y018298D01*
X034337Y017405D02*
X034403Y017340D01*
X034141Y017078D01*
X034207Y017013D01*
X034337Y017013D01*
X034403Y017078D01*
X034403Y017340D01*
X034337Y017405D02*
X034207Y017405D01*
X034141Y017340D01*
X034141Y017078D01*
X033989Y017078D02*
X033989Y017013D01*
X033924Y017013D01*
X033924Y017078D01*
X033989Y017078D01*
X033750Y017078D02*
X033685Y017013D01*
X033554Y017013D01*
X033489Y017078D01*
X033750Y017340D01*
X033750Y017078D01*
X033489Y017078D02*
X033489Y017340D01*
X033554Y017405D01*
X033685Y017405D01*
X033750Y017340D01*
X033315Y017340D02*
X033250Y017405D01*
X033054Y017405D01*
X033054Y017013D01*
X033054Y017144D02*
X033250Y017144D01*
X033315Y017209D01*
X033315Y017340D01*
X033250Y016382D02*
X033315Y016316D01*
X033315Y016185D01*
X033250Y016120D01*
X033054Y016120D01*
X033054Y015989D02*
X033054Y016382D01*
X033250Y016382D01*
X033489Y016316D02*
X033554Y016382D01*
X033685Y016382D01*
X033750Y016316D01*
X033489Y016055D01*
X033554Y015989D01*
X033685Y015989D01*
X033750Y016055D01*
X033750Y016316D01*
X033489Y016316D02*
X033489Y016055D01*
X033924Y016055D02*
X033989Y016055D01*
X033989Y015989D01*
X033924Y015989D01*
X033924Y016055D01*
X034141Y015989D02*
X034403Y015989D01*
X034272Y015989D02*
X034272Y016382D01*
X034141Y016251D01*
X034207Y015398D02*
X034141Y015332D01*
X034207Y015398D02*
X034337Y015398D01*
X034403Y015332D01*
X034403Y015267D01*
X034141Y015005D01*
X034403Y015005D01*
X033989Y015005D02*
X033924Y015005D01*
X033924Y015070D01*
X033989Y015070D01*
X033989Y015005D01*
X033750Y015070D02*
X033750Y015332D01*
X033489Y015070D01*
X033554Y015005D01*
X033685Y015005D01*
X033750Y015070D01*
X033489Y015070D02*
X033489Y015332D01*
X033554Y015398D01*
X033685Y015398D01*
X033750Y015332D01*
X033315Y015332D02*
X033315Y015201D01*
X033250Y015136D01*
X033054Y015136D01*
X033054Y015005D02*
X033054Y015398D01*
X033250Y015398D01*
X033315Y015332D01*
X033250Y014374D02*
X033315Y014309D01*
X033315Y014178D01*
X033250Y014112D01*
X033054Y014112D01*
X033054Y013981D02*
X033054Y014374D01*
X033250Y014374D01*
X033489Y014309D02*
X033489Y014047D01*
X033750Y014309D01*
X033750Y014047D01*
X033685Y013981D01*
X033554Y013981D01*
X033489Y014047D01*
X033489Y014309D02*
X033554Y014374D01*
X033685Y014374D01*
X033750Y014309D01*
X033924Y014047D02*
X033989Y014047D01*
X033989Y013981D01*
X033924Y013981D01*
X033924Y014047D01*
X034141Y014047D02*
X034207Y013981D01*
X034337Y013981D01*
X034403Y014047D01*
X034403Y014112D01*
X034337Y014178D01*
X034272Y014178D01*
X034337Y014178D02*
X034403Y014243D01*
X034403Y014309D01*
X034337Y014374D01*
X034207Y014374D01*
X034141Y014309D01*
X034849Y013324D02*
X035045Y013324D01*
X035111Y013258D01*
X035111Y012996D01*
X035045Y012931D01*
X034849Y012931D01*
X034849Y013324D01*
X035284Y013193D02*
X035284Y012931D01*
X035284Y013127D02*
X035546Y013127D01*
X035546Y013193D02*
X035546Y012931D01*
X035719Y012931D02*
X035981Y012931D01*
X035850Y012931D02*
X035850Y013324D01*
X035719Y013193D01*
X035546Y013193D02*
X035415Y013324D01*
X035284Y013193D01*
X035049Y012778D02*
X034918Y012778D01*
X034853Y012712D01*
X034853Y012450D01*
X034918Y012385D01*
X035049Y012385D01*
X035115Y012450D01*
X035049Y012516D02*
X035049Y012647D01*
X034918Y012647D01*
X034918Y012516D01*
X035049Y012516D01*
X035115Y012581D01*
X035115Y012712D01*
X035049Y012778D01*
X035288Y012319D02*
X035550Y012319D01*
X035723Y012385D02*
X035723Y012778D01*
X035788Y012581D02*
X035985Y012385D01*
X036158Y012581D02*
X036420Y012581D01*
X036354Y012385D02*
X036354Y012778D01*
X036158Y012581D01*
X035985Y012778D02*
X035723Y012516D01*
X036154Y013127D02*
X036416Y013127D01*
X036589Y013127D02*
X036720Y013193D01*
X036785Y013193D01*
X036851Y013127D01*
X036851Y012996D01*
X036785Y012931D01*
X036654Y012931D01*
X036589Y012996D01*
X036589Y013127D02*
X036589Y013324D01*
X036851Y013324D01*
X037024Y013258D02*
X037024Y013193D01*
X037089Y013127D01*
X037220Y013127D01*
X037286Y013062D01*
X037286Y012996D01*
X037220Y012931D01*
X037089Y012931D01*
X037024Y012996D01*
X037024Y013062D01*
X037089Y013127D01*
X037220Y013127D02*
X037286Y013193D01*
X037286Y013258D01*
X037220Y013324D01*
X037089Y013324D01*
X037024Y013258D01*
X037459Y013324D02*
X037721Y012931D01*
X037725Y012778D02*
X037463Y012516D01*
X037529Y012581D02*
X037725Y012385D01*
X037898Y012385D02*
X038029Y012385D01*
X037964Y012385D02*
X037964Y012778D01*
X038029Y012778D02*
X037898Y012778D01*
X037463Y012778D02*
X037463Y012385D01*
X037290Y012450D02*
X037224Y012385D01*
X037094Y012385D01*
X037028Y012450D01*
X037028Y012778D01*
X036855Y012778D02*
X036855Y012712D01*
X036593Y012450D01*
X036593Y012385D01*
X036855Y012385D01*
X036855Y012778D02*
X036593Y012778D01*
X036350Y012931D02*
X036350Y013324D01*
X036154Y013127D01*
X037290Y012778D02*
X037290Y012450D01*
X037459Y012931D02*
X037721Y013324D01*
X038329Y013324D02*
X038329Y012931D01*
X038525Y012931D01*
X038591Y012996D01*
X038591Y013127D01*
X038525Y013193D01*
X038329Y013193D01*
X038764Y013193D02*
X038764Y012931D01*
X038764Y013062D02*
X038895Y013193D01*
X038960Y013193D01*
X039192Y013193D02*
X039323Y013193D01*
X039388Y013127D01*
X039388Y012931D01*
X039192Y012931D01*
X039126Y012996D01*
X039192Y013062D01*
X039388Y013062D01*
X039561Y013062D02*
X039758Y013193D01*
X039924Y013127D02*
X039989Y013193D01*
X040120Y013193D01*
X040186Y013127D01*
X040186Y012996D01*
X040120Y012931D01*
X039989Y012931D01*
X039924Y012996D01*
X039924Y013127D01*
X039758Y012931D02*
X039561Y013062D01*
X039561Y012931D02*
X039561Y013324D01*
X040359Y013193D02*
X040359Y012996D01*
X040424Y012931D01*
X040621Y012931D01*
X040621Y013193D01*
X040794Y013193D02*
X040925Y013193D01*
X040859Y013258D02*
X040859Y012996D01*
X040925Y012931D01*
X041557Y013981D02*
X041557Y014374D01*
X041754Y014374D01*
X041819Y014309D01*
X041819Y014178D01*
X041754Y014112D01*
X041557Y014112D01*
X041992Y014047D02*
X042254Y014309D01*
X042254Y014047D01*
X042189Y013981D01*
X042058Y013981D01*
X041992Y014047D01*
X041992Y014309D01*
X042058Y014374D01*
X042189Y014374D01*
X042254Y014309D01*
X042427Y014047D02*
X042493Y014047D01*
X042493Y013981D01*
X042427Y013981D01*
X042427Y014047D01*
X042645Y014178D02*
X042907Y014178D01*
X042841Y014374D02*
X042645Y014178D01*
X042841Y013981D02*
X042841Y014374D01*
X042841Y015044D02*
X042710Y015044D01*
X042645Y015110D01*
X042645Y015241D02*
X042776Y015306D01*
X042841Y015306D01*
X042907Y015241D01*
X042907Y015110D01*
X042841Y015044D01*
X042645Y015241D02*
X042645Y015437D01*
X042907Y015437D01*
X042493Y015110D02*
X042493Y015044D01*
X042427Y015044D01*
X042427Y015110D01*
X042493Y015110D01*
X042254Y015110D02*
X042254Y015372D01*
X041992Y015110D01*
X042058Y015044D01*
X042189Y015044D01*
X042254Y015110D01*
X042254Y015372D02*
X042189Y015437D01*
X042058Y015437D01*
X041992Y015372D01*
X041992Y015110D01*
X041819Y015241D02*
X041754Y015175D01*
X041557Y015175D01*
X041557Y015044D02*
X041557Y015437D01*
X041754Y015437D01*
X041819Y015372D01*
X041819Y015241D01*
X042058Y015989D02*
X041992Y016055D01*
X042254Y016316D01*
X042254Y016055D01*
X042189Y015989D01*
X042058Y015989D01*
X041992Y016055D02*
X041992Y016316D01*
X042058Y016382D01*
X042189Y016382D01*
X042254Y016316D01*
X042427Y016055D02*
X042493Y016055D01*
X042493Y015989D01*
X042427Y015989D01*
X042427Y016055D01*
X042645Y016055D02*
X042710Y015989D01*
X042841Y015989D01*
X042907Y016055D01*
X042907Y016120D01*
X042841Y016185D01*
X042645Y016185D01*
X042645Y016055D01*
X042645Y016185D02*
X042776Y016316D01*
X042907Y016382D01*
X042645Y016973D02*
X042645Y017039D01*
X042907Y017301D01*
X042907Y017366D01*
X042645Y017366D01*
X042493Y017039D02*
X042493Y016973D01*
X042427Y016973D01*
X042427Y017039D01*
X042493Y017039D01*
X042254Y017039D02*
X042189Y016973D01*
X042058Y016973D01*
X041992Y017039D01*
X042254Y017301D01*
X042254Y017039D01*
X041992Y017039D02*
X041992Y017301D01*
X042058Y017366D01*
X042189Y017366D01*
X042254Y017301D01*
X041819Y017301D02*
X041819Y017170D01*
X041754Y017104D01*
X041557Y017104D01*
X041557Y016973D02*
X041557Y017366D01*
X041754Y017366D01*
X041819Y017301D01*
X041754Y016382D02*
X041819Y016316D01*
X041819Y016185D01*
X041754Y016120D01*
X041557Y016120D01*
X041557Y015989D02*
X041557Y016382D01*
X041754Y016382D01*
X043177Y013429D02*
X043386Y013115D01*
X043539Y013115D02*
X043749Y013324D01*
X043749Y013377D01*
X043696Y013429D01*
X043592Y013429D01*
X043539Y013377D01*
X043386Y013429D02*
X043177Y013115D01*
X043539Y013115D02*
X043749Y013115D01*
X038450Y012319D02*
X038188Y012319D01*
X032725Y013194D02*
X032516Y013194D01*
X032620Y013194D02*
X032620Y013508D01*
X032516Y013403D01*
X032362Y013508D02*
X032153Y013194D01*
X032362Y013194D02*
X032153Y013508D01*
X025874Y016185D02*
X025809Y016120D01*
X025613Y016120D01*
X025613Y015989D02*
X025613Y016382D01*
X025809Y016382D01*
X025874Y016316D01*
X025874Y016185D01*
X022505Y012319D02*
X022243Y012319D01*
X018458Y014047D02*
X018393Y013981D01*
X018262Y013981D01*
X018196Y014047D01*
X018044Y014047D02*
X018044Y013981D01*
X017979Y013981D01*
X017979Y014047D01*
X018044Y014047D01*
X017806Y014047D02*
X017806Y014309D01*
X017544Y014047D01*
X017609Y013981D01*
X017740Y013981D01*
X017806Y014047D01*
X017806Y014309D02*
X017740Y014374D01*
X017609Y014374D01*
X017544Y014309D01*
X017544Y014047D01*
X017370Y014178D02*
X017370Y014309D01*
X017305Y014374D01*
X017109Y014374D01*
X017109Y013981D01*
X017109Y014112D02*
X017305Y014112D01*
X017370Y014178D01*
X016976Y013626D02*
X016109Y013626D01*
X016109Y027721D01*
X016976Y027721D01*
X016976Y013626D01*
X016675Y013508D02*
X016675Y013194D01*
X016571Y013194D02*
X016780Y013194D01*
X016571Y013403D02*
X016675Y013508D01*
X016418Y013508D02*
X016208Y013194D01*
X016418Y013194D02*
X016208Y013508D01*
X017109Y015005D02*
X017109Y015398D01*
X017305Y015398D01*
X017370Y015332D01*
X017370Y015201D01*
X017305Y015136D01*
X017109Y015136D01*
X017544Y015070D02*
X017806Y015332D01*
X017806Y015070D01*
X017740Y015005D01*
X017609Y015005D01*
X017544Y015070D01*
X017544Y015332D01*
X017609Y015398D01*
X017740Y015398D01*
X017806Y015332D01*
X017979Y015070D02*
X018044Y015070D01*
X018044Y015005D01*
X017979Y015005D01*
X017979Y015070D01*
X018196Y015005D02*
X018458Y015267D01*
X018458Y015332D01*
X018393Y015398D01*
X018262Y015398D01*
X018196Y015332D01*
X018196Y015005D02*
X018458Y015005D01*
X018393Y014374D02*
X018458Y014309D01*
X018458Y014243D01*
X018393Y014178D01*
X018458Y014112D01*
X018458Y014047D01*
X018393Y014178D02*
X018327Y014178D01*
X018196Y014309D02*
X018262Y014374D01*
X018393Y014374D01*
X018458Y015989D02*
X018196Y015989D01*
X018327Y015989D02*
X018327Y016382D01*
X018196Y016251D01*
X018044Y016055D02*
X018044Y015989D01*
X017979Y015989D01*
X017979Y016055D01*
X018044Y016055D01*
X017806Y016055D02*
X017740Y015989D01*
X017609Y015989D01*
X017544Y016055D01*
X017806Y016316D01*
X017806Y016055D01*
X017806Y016316D02*
X017740Y016382D01*
X017609Y016382D01*
X017544Y016316D01*
X017544Y016055D01*
X017370Y016185D02*
X017305Y016120D01*
X017109Y016120D01*
X017109Y015989D02*
X017109Y016382D01*
X017305Y016382D01*
X017370Y016316D01*
X017370Y016185D01*
X017609Y017013D02*
X017544Y017078D01*
X017806Y017340D01*
X017806Y017078D01*
X017740Y017013D01*
X017609Y017013D01*
X017544Y017078D02*
X017544Y017340D01*
X017609Y017405D01*
X017740Y017405D01*
X017806Y017340D01*
X017979Y017078D02*
X018044Y017078D01*
X018044Y017013D01*
X017979Y017013D01*
X017979Y017078D01*
X018196Y017078D02*
X018262Y017013D01*
X018393Y017013D01*
X018458Y017078D01*
X018458Y017340D01*
X018196Y017078D01*
X018196Y017340D01*
X018262Y017405D01*
X018393Y017405D01*
X018458Y017340D01*
X017370Y017340D02*
X017370Y017209D01*
X017305Y017144D01*
X017109Y017144D01*
X017109Y017013D02*
X017109Y017405D01*
X017305Y017405D01*
X017370Y017340D01*
X033452Y021147D02*
X033452Y021461D01*
X033609Y021461D01*
X033662Y021408D01*
X033662Y021304D01*
X033609Y021251D01*
X033452Y021251D01*
X033557Y021251D02*
X033662Y021147D01*
X033815Y021147D02*
X034024Y021147D01*
X033919Y021147D02*
X033919Y021461D01*
X033815Y021356D01*
X034240Y021408D02*
X034240Y021199D01*
X034292Y021147D01*
X034397Y021147D01*
X034449Y021199D01*
X034602Y021199D02*
X034655Y021147D01*
X034759Y021147D01*
X034812Y021199D01*
X034812Y021304D01*
X034759Y021356D01*
X034707Y021356D01*
X034602Y021304D01*
X034602Y021461D01*
X034812Y021461D01*
X034985Y021698D02*
X035090Y021698D01*
X035037Y021698D02*
X035037Y022012D01*
X034985Y022012D02*
X035090Y022012D01*
X035227Y021959D02*
X035279Y022012D01*
X035384Y022012D01*
X035436Y021959D01*
X035589Y021959D02*
X035642Y022012D01*
X035746Y022012D01*
X035798Y021959D01*
X035798Y021907D01*
X035746Y021855D01*
X035798Y021802D01*
X035798Y021750D01*
X035746Y021698D01*
X035642Y021698D01*
X035589Y021750D01*
X035694Y021855D02*
X035746Y021855D01*
X035436Y021750D02*
X035384Y021698D01*
X035279Y021698D01*
X035227Y021750D01*
X035227Y021959D01*
X034449Y021408D02*
X034397Y021461D01*
X034292Y021461D01*
X034240Y021408D01*
X034828Y020279D02*
X034932Y020279D01*
X034880Y020279D02*
X034880Y019965D01*
X034828Y019965D02*
X034932Y019965D01*
X035069Y020018D02*
X035122Y019965D01*
X035226Y019965D01*
X035278Y020018D01*
X035432Y019965D02*
X035641Y020175D01*
X035641Y020227D01*
X035589Y020279D01*
X035484Y020279D01*
X035432Y020227D01*
X035278Y020227D02*
X035226Y020279D01*
X035122Y020279D01*
X035069Y020227D01*
X035069Y020018D01*
X035432Y019965D02*
X035641Y019965D01*
X036339Y021383D02*
X036287Y021435D01*
X036287Y021644D01*
X036339Y021697D01*
X036444Y021697D01*
X036496Y021644D01*
X036496Y021435D01*
X036444Y021383D01*
X036339Y021383D01*
X036392Y021487D02*
X036496Y021383D01*
X036649Y021383D02*
X036859Y021383D01*
X036754Y021383D02*
X036754Y021697D01*
X036649Y021592D01*
X037980Y021369D02*
X037980Y021160D01*
X038032Y021107D01*
X038137Y021107D01*
X038189Y021160D01*
X038342Y021160D02*
X038395Y021107D01*
X038499Y021107D01*
X038552Y021160D01*
X038552Y021369D01*
X038499Y021421D01*
X038395Y021421D01*
X038342Y021369D01*
X038342Y021317D01*
X038395Y021264D01*
X038552Y021264D01*
X038189Y021369D02*
X038137Y021421D01*
X038032Y021421D01*
X037980Y021369D01*
X039161Y021329D02*
X039161Y021120D01*
X039213Y021068D01*
X039318Y021068D01*
X039370Y021120D01*
X039523Y021120D02*
X039576Y021068D01*
X039680Y021068D01*
X039733Y021120D01*
X039733Y021172D01*
X039680Y021225D01*
X039628Y021225D01*
X039680Y021225D02*
X039733Y021277D01*
X039733Y021329D01*
X039680Y021382D01*
X039576Y021382D01*
X039523Y021329D01*
X039370Y021329D02*
X039318Y021382D01*
X039213Y021382D01*
X039161Y021329D01*
X036961Y022892D02*
X036961Y023101D01*
X036752Y022892D01*
X036804Y022839D01*
X036909Y022839D01*
X036961Y022892D01*
X036752Y022892D02*
X036752Y023101D01*
X036804Y023153D01*
X036909Y023153D01*
X036961Y023101D01*
X036599Y023101D02*
X036599Y023049D01*
X036546Y022996D01*
X036442Y022996D01*
X036389Y023049D01*
X036389Y023101D01*
X036442Y023153D01*
X036546Y023153D01*
X036599Y023101D01*
X036546Y022996D02*
X036599Y022944D01*
X036599Y022892D01*
X036546Y022839D01*
X036442Y022839D01*
X036389Y022892D01*
X036389Y022944D01*
X036442Y022996D01*
X036236Y022996D02*
X036236Y022892D01*
X036184Y022839D01*
X036079Y022839D01*
X036027Y022892D01*
X036027Y022996D02*
X036132Y023049D01*
X036184Y023049D01*
X036236Y022996D01*
X036236Y023153D02*
X036027Y023153D01*
X036027Y022996D01*
X042724Y021343D02*
X042986Y021343D01*
X042920Y021539D02*
X042724Y021343D01*
X042920Y021147D02*
X042920Y021539D01*
D11*
X019043Y012173D02*
X019043Y011048D01*
X023629Y011048D01*
X023629Y012173D01*
X019043Y012173D01*
X019043Y012146D02*
X023629Y012146D01*
X023629Y012069D02*
X019043Y012069D01*
X019043Y011992D02*
X023629Y011992D01*
X023629Y011915D02*
X019043Y011915D01*
X019043Y011837D02*
X023629Y011837D01*
X023629Y011760D02*
X019043Y011760D01*
X019043Y011683D02*
X023629Y011683D01*
X023629Y011606D02*
X019043Y011606D01*
X019043Y011528D02*
X023629Y011528D01*
X023629Y011451D02*
X019043Y011451D01*
X019043Y011374D02*
X023629Y011374D01*
X023629Y011297D02*
X019043Y011297D01*
X019043Y011219D02*
X023629Y011219D01*
X023629Y011142D02*
X019043Y011142D01*
X019043Y011065D02*
X023629Y011065D01*
X020600Y014192D02*
X020442Y014034D01*
X020427Y014033D01*
X020242Y014158D01*
X020231Y014159D01*
X020147Y014124D01*
X020131Y014131D01*
X019976Y014510D01*
X019772Y014510D02*
X019617Y014131D01*
X019602Y014124D01*
X019517Y014159D01*
X019506Y014158D01*
X019321Y014033D01*
X019306Y014034D01*
X019148Y014192D01*
X019147Y014207D01*
X019272Y014393D01*
X019273Y014404D01*
X019197Y014587D01*
X019188Y014595D01*
X018969Y014637D01*
X018959Y014648D01*
X018959Y014872D01*
X018969Y014884D01*
X019188Y014926D01*
X019197Y014933D01*
X019273Y015117D01*
X019272Y015128D01*
X019147Y015313D01*
X019148Y015328D01*
X019306Y015486D01*
X019321Y015488D01*
X019506Y015363D01*
X019517Y015361D01*
X019701Y015438D01*
X019708Y015446D01*
X019751Y015666D01*
X019762Y015675D01*
X019986Y015675D01*
X019997Y015666D01*
X020040Y015446D01*
X020047Y015438D01*
X020231Y015361D01*
X020242Y015363D01*
X020427Y015488D01*
X020442Y015486D01*
X020600Y015328D01*
X020601Y015313D01*
X020476Y015128D01*
X020475Y015117D01*
X020551Y014933D01*
X020560Y014926D01*
X020779Y014884D01*
X020789Y014872D01*
X020789Y014648D01*
X020779Y014637D01*
X020560Y014595D01*
X020551Y014587D01*
X020475Y014404D01*
X020476Y014393D01*
X020601Y014207D01*
X020600Y014192D01*
X019995Y014532D02*
X020022Y014548D01*
X020047Y014566D01*
X020070Y014588D01*
X020090Y014612D01*
X020107Y014639D01*
X020121Y014667D01*
X020131Y014697D01*
X020138Y014727D01*
X020141Y014759D01*
X020140Y014790D01*
X020136Y014821D01*
X020128Y014851D01*
X020116Y014880D01*
X020101Y014908D01*
X020083Y014934D01*
X020061Y014957D01*
X020038Y014977D01*
X020012Y014995D01*
X019984Y015009D01*
X019954Y015020D01*
X019924Y015028D01*
X019893Y015032D01*
X019861Y015032D01*
X019830Y015028D01*
X019800Y015020D01*
X019770Y015009D01*
X019742Y014995D01*
X019716Y014977D01*
X019693Y014957D01*
X019671Y014934D01*
X019653Y014908D01*
X019638Y014880D01*
X019626Y014851D01*
X019618Y014821D01*
X019614Y014790D01*
X019613Y014759D01*
X019616Y014727D01*
X019623Y014697D01*
X019633Y014667D01*
X019647Y014639D01*
X019664Y014612D01*
X019684Y014588D01*
X019707Y014566D01*
X019732Y014548D01*
X019759Y014532D01*
X022476Y017288D02*
X023578Y017288D01*
X025586Y017642D02*
X027672Y017642D01*
X023578Y019177D02*
X023263Y019177D01*
X023145Y019059D01*
X022909Y019059D01*
X022791Y019177D01*
X022476Y019177D01*
X022318Y019256D02*
X021531Y019256D01*
X021885Y020673D02*
X021019Y020673D01*
X021019Y022406D01*
X021885Y022406D01*
X021885Y020673D01*
X022161Y021855D02*
X022161Y021894D01*
X022554Y021894D01*
X022554Y021855D01*
X022554Y021894D02*
X022554Y021933D01*
X022161Y021933D02*
X022161Y021894D01*
X021649Y022878D02*
X021531Y022878D01*
X021531Y022996D01*
X021058Y023587D02*
X020743Y023272D01*
X021058Y023587D02*
X021058Y023784D01*
X020901Y023941D02*
X020903Y023966D01*
X020909Y023990D01*
X020918Y024012D01*
X020931Y024033D01*
X020947Y024052D01*
X020966Y024068D01*
X020987Y024081D01*
X021009Y024090D01*
X021033Y024096D01*
X021058Y024098D01*
X021083Y024096D01*
X021107Y024090D01*
X021129Y024081D01*
X021150Y024068D01*
X021169Y024052D01*
X021185Y024033D01*
X021198Y024012D01*
X021207Y023990D01*
X021213Y023966D01*
X021215Y023941D01*
X021213Y023916D01*
X021207Y023892D01*
X021198Y023870D01*
X021185Y023849D01*
X021169Y023830D01*
X021150Y023814D01*
X021129Y023801D01*
X021107Y023792D01*
X021083Y023786D01*
X021058Y023784D01*
X021033Y023786D01*
X021009Y023792D01*
X020987Y023801D01*
X020966Y023814D01*
X020947Y023830D01*
X020931Y023849D01*
X020918Y023870D01*
X020909Y023892D01*
X020903Y023916D01*
X020901Y023941D01*
X020704Y023941D02*
X020704Y023902D01*
X020310Y023902D01*
X020310Y023862D01*
X020310Y023902D02*
X020310Y023941D01*
X020704Y023902D02*
X020704Y023862D01*
X021531Y024729D02*
X021531Y024847D01*
X021649Y024847D01*
X021334Y025004D02*
X021336Y025016D01*
X021341Y025027D01*
X021350Y025036D01*
X021361Y025041D01*
X021373Y025043D01*
X021385Y025041D01*
X021396Y025036D01*
X021405Y025027D01*
X021410Y025016D01*
X021412Y025004D01*
X021410Y024992D01*
X021405Y024981D01*
X021396Y024972D01*
X021385Y024967D01*
X021373Y024965D01*
X021361Y024967D01*
X021350Y024972D01*
X021341Y024981D01*
X021336Y024992D01*
X021334Y025004D01*
X021262Y025004D02*
X021264Y025024D01*
X021269Y025044D01*
X021279Y025062D01*
X021291Y025079D01*
X021306Y025093D01*
X021324Y025103D01*
X021343Y025111D01*
X021363Y025115D01*
X021383Y025115D01*
X021403Y025111D01*
X021422Y025103D01*
X021440Y025093D01*
X021455Y025079D01*
X021467Y025062D01*
X021477Y025044D01*
X021482Y025024D01*
X021484Y025004D01*
X021482Y024984D01*
X021477Y024964D01*
X021467Y024946D01*
X021455Y024929D01*
X021440Y024915D01*
X021422Y024905D01*
X021403Y024897D01*
X021383Y024893D01*
X021363Y024893D01*
X021343Y024897D01*
X021324Y024905D01*
X021306Y024915D01*
X021291Y024929D01*
X021279Y024946D01*
X021269Y024964D01*
X021264Y024984D01*
X021262Y025004D01*
X022318Y025988D02*
X022357Y025988D01*
X022357Y026382D01*
X022318Y026382D01*
X022357Y026382D02*
X022397Y026382D01*
X022397Y025988D02*
X022357Y025988D01*
X022397Y026815D02*
X022397Y026855D01*
X022791Y026855D01*
X022791Y026894D01*
X022791Y026855D02*
X022791Y026815D01*
X022397Y026855D02*
X022397Y026894D01*
X022397Y027327D02*
X022357Y027327D01*
X022357Y027721D01*
X022318Y027721D01*
X022357Y027721D02*
X022397Y027721D01*
X022357Y027327D02*
X022318Y027327D01*
X024365Y026028D02*
X024365Y025831D01*
X024365Y026028D02*
X024562Y026028D01*
X024936Y025792D02*
X025054Y025792D01*
X025428Y026028D02*
X025625Y026028D01*
X025625Y025831D01*
X025389Y025378D02*
X025389Y025181D01*
X025625Y024729D02*
X025625Y024532D01*
X025428Y024532D01*
X025704Y024414D02*
X025706Y024426D01*
X025711Y024437D01*
X025720Y024446D01*
X025731Y024451D01*
X025743Y024453D01*
X025755Y024451D01*
X025766Y024446D01*
X025775Y024437D01*
X025780Y024426D01*
X025782Y024414D01*
X025780Y024402D01*
X025775Y024391D01*
X025766Y024382D01*
X025755Y024377D01*
X025743Y024375D01*
X025731Y024377D01*
X025720Y024382D01*
X025711Y024391D01*
X025706Y024402D01*
X025704Y024414D01*
X025625Y023862D02*
X026019Y023862D01*
X026688Y025201D01*
X027003Y025201D01*
X027121Y025673D02*
X027672Y025673D01*
X027003Y026185D02*
X026885Y026185D01*
X026570Y026500D01*
X026885Y027130D02*
X027003Y027130D01*
X026885Y027130D02*
X026649Y027366D01*
X024602Y025378D02*
X024602Y025181D01*
X024365Y024729D02*
X024365Y024532D01*
X024562Y024532D01*
X024936Y024768D02*
X025054Y024768D01*
X025625Y023429D02*
X026137Y023429D01*
X026491Y024138D01*
X027003Y024138D01*
X026806Y023666D02*
X027672Y023666D01*
X027672Y021658D02*
X025743Y021658D01*
X024287Y022524D02*
X024287Y022681D01*
X023972Y022681D02*
X023972Y022524D01*
X023696Y022051D02*
X023696Y022012D01*
X023302Y022012D01*
X023302Y021973D01*
X023302Y022012D02*
X023302Y022051D01*
X023696Y022012D02*
X023696Y021973D01*
X023499Y022878D02*
X023381Y022878D01*
X023499Y022878D02*
X023499Y022996D01*
X023499Y024729D02*
X023499Y024847D01*
X023381Y024847D01*
X018932Y023351D02*
X018932Y023311D01*
X018539Y023311D01*
X018539Y023351D01*
X018539Y023311D02*
X018539Y023272D01*
X018932Y023272D02*
X018932Y023311D01*
X018361Y022630D02*
X018251Y022630D01*
X018184Y022563D01*
X018027Y022563D01*
X017960Y022630D01*
X017846Y022630D01*
X017846Y021626D01*
X018361Y021626D01*
X018361Y022630D01*
X017692Y022788D02*
X017334Y022788D01*
X016964Y022642D02*
X016121Y022642D01*
X017279Y023272D02*
X017279Y023311D01*
X017672Y023311D01*
X017672Y023351D01*
X017672Y023311D02*
X017672Y023272D01*
X017279Y023311D02*
X017279Y023351D01*
X016964Y024658D02*
X016397Y024658D01*
X016413Y025673D02*
X016964Y025673D01*
X016109Y027327D02*
X016109Y027721D01*
X016503Y027721D01*
X016109Y027327D01*
X016109Y027363D02*
X016145Y027363D01*
X016109Y027440D02*
X016222Y027440D01*
X016300Y027517D02*
X016109Y027517D01*
X016109Y027594D02*
X016377Y027594D01*
X016454Y027672D02*
X016109Y027672D01*
X017672Y021028D02*
X017712Y021028D01*
X017712Y020634D01*
X017751Y020634D01*
X017712Y020634D02*
X017672Y020634D01*
X017672Y020437D02*
X017869Y020437D01*
X017871Y020417D01*
X017876Y020397D01*
X017885Y020378D01*
X017897Y020361D01*
X017911Y020347D01*
X017928Y020335D01*
X017947Y020326D01*
X017967Y020321D01*
X017987Y020319D01*
X018007Y020321D01*
X018027Y020326D01*
X018046Y020335D01*
X018063Y020347D01*
X018077Y020361D01*
X018089Y020378D01*
X018098Y020397D01*
X018103Y020417D01*
X018105Y020437D01*
X018106Y020437D02*
X018302Y020437D01*
X018578Y020634D02*
X018617Y020634D01*
X018617Y021028D01*
X018657Y021028D01*
X018617Y021028D02*
X018578Y021028D01*
X018617Y020634D02*
X018657Y020634D01*
X018302Y020004D02*
X018302Y019689D01*
X018302Y019256D02*
X017672Y019256D01*
X017397Y018862D02*
X017082Y019177D01*
X016964Y019666D02*
X016397Y019666D01*
X016137Y020673D02*
X016964Y020673D01*
X017712Y021028D02*
X017751Y021028D01*
X018476Y017673D02*
X016964Y017673D01*
X023499Y019335D02*
X023539Y019335D01*
X023539Y019729D01*
X023578Y019729D01*
X023539Y019729D02*
X023499Y019729D01*
X023539Y019335D02*
X023578Y019335D01*
X027976Y014020D02*
X027976Y013626D01*
X027582Y013626D01*
X027976Y014020D01*
X027976Y014000D02*
X027956Y014000D01*
X027976Y013923D02*
X027878Y013923D01*
X027801Y013846D02*
X027976Y013846D01*
X027976Y013768D02*
X027724Y013768D01*
X027647Y013691D02*
X027976Y013691D01*
X032909Y017673D02*
X034420Y017673D01*
X033342Y018862D02*
X033027Y019177D01*
X032909Y019666D02*
X032342Y019666D01*
X033617Y019256D02*
X034247Y019256D01*
X034247Y019689D02*
X034247Y020004D01*
X034247Y020437D02*
X034050Y020437D01*
X034048Y020417D01*
X034043Y020397D01*
X034034Y020378D01*
X034022Y020361D01*
X034008Y020347D01*
X033991Y020335D01*
X033972Y020326D01*
X033952Y020321D01*
X033932Y020319D01*
X033912Y020321D01*
X033892Y020326D01*
X033873Y020335D01*
X033856Y020347D01*
X033842Y020361D01*
X033830Y020378D01*
X033821Y020397D01*
X033816Y020417D01*
X033814Y020437D01*
X033617Y020437D01*
X033617Y020634D02*
X033657Y020634D01*
X033657Y021028D01*
X033696Y021028D01*
X033657Y021028D02*
X033617Y021028D01*
X033657Y020634D02*
X033696Y020634D01*
X032909Y020673D02*
X032082Y020673D01*
X033791Y021626D02*
X033791Y022630D01*
X033905Y022630D01*
X033972Y022563D01*
X034129Y022563D01*
X034196Y022630D01*
X034306Y022630D01*
X034306Y021626D01*
X033791Y021626D01*
X034523Y021028D02*
X034562Y021028D01*
X034562Y020634D01*
X034602Y020634D01*
X034562Y020634D02*
X034523Y020634D01*
X034562Y021028D02*
X034602Y021028D01*
X032909Y022642D02*
X032066Y022642D01*
X033279Y022788D02*
X033637Y022788D01*
X033617Y023272D02*
X033617Y023311D01*
X033224Y023311D01*
X033224Y023351D01*
X033224Y023311D02*
X033224Y023272D01*
X033617Y023311D02*
X033617Y023351D01*
X034483Y023311D02*
X034483Y023351D01*
X034483Y023311D02*
X034877Y023311D01*
X034877Y023351D01*
X034877Y023311D02*
X034877Y023272D01*
X034483Y023272D02*
X034483Y023311D01*
X036255Y023862D02*
X036255Y023902D01*
X036649Y023902D01*
X036649Y023862D01*
X036649Y023902D02*
X036649Y023941D01*
X036846Y023941D02*
X036848Y023966D01*
X036854Y023990D01*
X036863Y024012D01*
X036876Y024033D01*
X036892Y024052D01*
X036911Y024068D01*
X036932Y024081D01*
X036954Y024090D01*
X036978Y024096D01*
X037003Y024098D01*
X037028Y024096D01*
X037052Y024090D01*
X037074Y024081D01*
X037095Y024068D01*
X037114Y024052D01*
X037130Y024033D01*
X037143Y024012D01*
X037152Y023990D01*
X037158Y023966D01*
X037160Y023941D01*
X037158Y023916D01*
X037152Y023892D01*
X037143Y023870D01*
X037130Y023849D01*
X037114Y023830D01*
X037095Y023814D01*
X037074Y023801D01*
X037052Y023792D01*
X037028Y023786D01*
X037003Y023784D01*
X036978Y023786D01*
X036954Y023792D01*
X036932Y023801D01*
X036911Y023814D01*
X036892Y023830D01*
X036876Y023849D01*
X036863Y023870D01*
X036854Y023892D01*
X036848Y023916D01*
X036846Y023941D01*
X037003Y023784D02*
X037003Y023587D01*
X036688Y023272D01*
X037476Y022996D02*
X037476Y022878D01*
X037594Y022878D01*
X037830Y022406D02*
X037830Y020673D01*
X036964Y020673D01*
X036964Y022406D01*
X037830Y022406D01*
X038106Y021933D02*
X038106Y021894D01*
X038499Y021894D01*
X038499Y021855D01*
X038499Y021894D02*
X038499Y021933D01*
X038106Y021894D02*
X038106Y021855D01*
X039247Y021973D02*
X039247Y022012D01*
X039641Y022012D01*
X039641Y021973D01*
X039641Y022012D02*
X039641Y022051D01*
X039247Y022051D02*
X039247Y022012D01*
X039917Y022524D02*
X039917Y022681D01*
X040231Y022681D02*
X040231Y022524D01*
X039444Y022878D02*
X039326Y022878D01*
X039444Y022878D02*
X039444Y022996D01*
X041570Y023429D02*
X042082Y023429D01*
X042436Y024138D01*
X042948Y024138D01*
X042751Y023666D02*
X043617Y023666D01*
X041964Y023862D02*
X042633Y025201D01*
X042948Y025201D01*
X043066Y025673D02*
X043617Y025673D01*
X042948Y026185D02*
X042830Y026185D01*
X042515Y026500D01*
X042830Y027130D02*
X042948Y027130D01*
X042830Y027130D02*
X042594Y027366D01*
X041570Y026028D02*
X041570Y025831D01*
X041570Y026028D02*
X041373Y026028D01*
X040999Y025792D02*
X040881Y025792D01*
X040507Y026028D02*
X040310Y026028D01*
X040310Y025831D01*
X040546Y025378D02*
X040546Y025181D01*
X040310Y024729D02*
X040310Y024532D01*
X040507Y024532D01*
X040881Y024768D02*
X040999Y024768D01*
X041373Y024532D02*
X041570Y024532D01*
X041570Y024729D01*
X041649Y024414D02*
X041651Y024426D01*
X041656Y024437D01*
X041665Y024446D01*
X041676Y024451D01*
X041688Y024453D01*
X041700Y024451D01*
X041711Y024446D01*
X041720Y024437D01*
X041725Y024426D01*
X041727Y024414D01*
X041725Y024402D01*
X041720Y024391D01*
X041711Y024382D01*
X041700Y024377D01*
X041688Y024375D01*
X041676Y024377D01*
X041665Y024382D01*
X041656Y024391D01*
X041651Y024402D01*
X041649Y024414D01*
X041570Y023862D02*
X041964Y023862D01*
X041334Y025181D02*
X041334Y025378D01*
X039444Y024847D02*
X039326Y024847D01*
X039444Y024847D02*
X039444Y024729D01*
X037594Y024847D02*
X037476Y024847D01*
X037476Y024729D01*
X037279Y025004D02*
X037281Y025016D01*
X037286Y025027D01*
X037295Y025036D01*
X037306Y025041D01*
X037318Y025043D01*
X037330Y025041D01*
X037341Y025036D01*
X037350Y025027D01*
X037355Y025016D01*
X037357Y025004D01*
X037355Y024992D01*
X037350Y024981D01*
X037341Y024972D01*
X037330Y024967D01*
X037318Y024965D01*
X037306Y024967D01*
X037295Y024972D01*
X037286Y024981D01*
X037281Y024992D01*
X037279Y025004D01*
X037207Y025004D02*
X037209Y025024D01*
X037214Y025044D01*
X037224Y025062D01*
X037236Y025079D01*
X037251Y025093D01*
X037269Y025103D01*
X037288Y025111D01*
X037308Y025115D01*
X037328Y025115D01*
X037348Y025111D01*
X037367Y025103D01*
X037385Y025093D01*
X037400Y025079D01*
X037412Y025062D01*
X037422Y025044D01*
X037427Y025024D01*
X037429Y025004D01*
X037427Y024984D01*
X037422Y024964D01*
X037412Y024946D01*
X037400Y024929D01*
X037385Y024915D01*
X037367Y024905D01*
X037348Y024897D01*
X037328Y024893D01*
X037308Y024893D01*
X037288Y024897D01*
X037269Y024905D01*
X037251Y024915D01*
X037236Y024929D01*
X037224Y024946D01*
X037214Y024964D01*
X037209Y024984D01*
X037207Y025004D01*
X036255Y023941D02*
X036255Y023902D01*
X038263Y025988D02*
X038302Y025988D01*
X038302Y026382D01*
X038263Y026382D01*
X038302Y026382D02*
X038342Y026382D01*
X038342Y025988D02*
X038302Y025988D01*
X038342Y026815D02*
X038342Y026855D01*
X038735Y026855D01*
X038735Y026894D01*
X038735Y026855D02*
X038735Y026815D01*
X038342Y026855D02*
X038342Y026894D01*
X038342Y027327D02*
X038302Y027327D01*
X038302Y027721D01*
X038263Y027721D01*
X038302Y027721D02*
X038342Y027721D01*
X038302Y027327D02*
X038263Y027327D01*
X032909Y025673D02*
X032357Y025673D01*
X032342Y024658D02*
X032909Y024658D01*
X032054Y027327D02*
X032054Y027721D01*
X032448Y027721D01*
X032054Y027327D01*
X032054Y027363D02*
X032090Y027363D01*
X032054Y027440D02*
X032167Y027440D01*
X032244Y027517D02*
X032054Y027517D01*
X032054Y027594D02*
X032322Y027594D01*
X032399Y027672D02*
X032054Y027672D01*
X041688Y021658D02*
X043617Y021658D01*
X039523Y019729D02*
X039483Y019729D01*
X039483Y019335D01*
X039523Y019335D01*
X039483Y019335D02*
X039444Y019335D01*
X039523Y019177D02*
X039208Y019177D01*
X039090Y019059D01*
X038854Y019059D01*
X038735Y019177D01*
X038420Y019177D01*
X038263Y019256D02*
X037476Y019256D01*
X039444Y019729D02*
X039483Y019729D01*
X041531Y017642D02*
X043617Y017642D01*
X039523Y017288D02*
X038420Y017288D01*
X036545Y015328D02*
X036387Y015486D01*
X036372Y015488D01*
X036187Y015363D01*
X036176Y015361D01*
X035992Y015438D01*
X035985Y015446D01*
X035942Y015666D01*
X035931Y015675D01*
X035707Y015675D01*
X035696Y015666D01*
X035653Y015446D01*
X035646Y015438D01*
X035462Y015361D01*
X035451Y015363D01*
X035266Y015488D01*
X035251Y015486D01*
X035093Y015328D01*
X035092Y015313D01*
X035217Y015128D01*
X035218Y015117D01*
X035142Y014933D01*
X035133Y014926D01*
X034914Y014884D01*
X034904Y014872D01*
X034904Y014648D01*
X034914Y014637D01*
X035133Y014595D01*
X035142Y014587D01*
X035218Y014404D01*
X035217Y014393D01*
X035092Y014207D01*
X035093Y014192D01*
X035251Y014034D01*
X035266Y014033D01*
X035451Y014158D01*
X035462Y014159D01*
X035546Y014124D01*
X035562Y014131D01*
X035717Y014510D01*
X035921Y014510D02*
X036076Y014131D01*
X036091Y014124D01*
X036176Y014159D01*
X036187Y014158D01*
X036372Y014033D01*
X036387Y014034D01*
X036545Y014192D01*
X036546Y014207D01*
X036421Y014393D01*
X036420Y014404D01*
X036496Y014587D01*
X036505Y014595D01*
X036724Y014637D01*
X036734Y014648D01*
X036734Y014872D01*
X036724Y014884D01*
X036505Y014926D01*
X036496Y014933D01*
X036420Y015117D01*
X036421Y015128D01*
X036546Y015313D01*
X036545Y015328D01*
X035940Y014532D02*
X035967Y014548D01*
X035992Y014566D01*
X036015Y014588D01*
X036035Y014612D01*
X036052Y014639D01*
X036066Y014667D01*
X036076Y014697D01*
X036083Y014727D01*
X036086Y014759D01*
X036085Y014790D01*
X036081Y014821D01*
X036073Y014851D01*
X036061Y014880D01*
X036046Y014908D01*
X036028Y014934D01*
X036006Y014957D01*
X035983Y014977D01*
X035957Y014995D01*
X035929Y015009D01*
X035899Y015020D01*
X035869Y015028D01*
X035838Y015032D01*
X035806Y015032D01*
X035775Y015028D01*
X035745Y015020D01*
X035715Y015009D01*
X035687Y014995D01*
X035661Y014977D01*
X035638Y014957D01*
X035616Y014934D01*
X035598Y014908D01*
X035583Y014880D01*
X035571Y014851D01*
X035563Y014821D01*
X035559Y014790D01*
X035558Y014759D01*
X035561Y014727D01*
X035568Y014697D01*
X035578Y014667D01*
X035592Y014639D01*
X035609Y014612D01*
X035629Y014588D01*
X035652Y014566D01*
X035677Y014548D01*
X035704Y014532D01*
X034987Y012173D02*
X034987Y011048D01*
X039574Y011048D01*
X039574Y012173D01*
X034987Y012173D01*
X034987Y012146D02*
X039574Y012146D01*
X039574Y012069D02*
X034987Y012069D01*
X034987Y011992D02*
X039574Y011992D01*
X039574Y011915D02*
X034987Y011915D01*
X034987Y011837D02*
X039574Y011837D01*
X039574Y011760D02*
X034987Y011760D01*
X034987Y011683D02*
X039574Y011683D01*
X039574Y011606D02*
X034987Y011606D01*
X034987Y011528D02*
X039574Y011528D01*
X039574Y011451D02*
X034987Y011451D01*
X034987Y011374D02*
X039574Y011374D01*
X039574Y011297D02*
X034987Y011297D01*
X034987Y011219D02*
X039574Y011219D01*
X039574Y011142D02*
X034987Y011142D01*
X034987Y011065D02*
X039574Y011065D01*
X043527Y013626D02*
X043920Y014020D01*
X043920Y013626D01*
X043527Y013626D01*
X043592Y013691D02*
X043920Y013691D01*
X043920Y013768D02*
X043669Y013768D01*
X043746Y013846D02*
X043920Y013846D01*
X043920Y013923D02*
X043823Y013923D01*
X043901Y014000D02*
X043920Y014000D01*
D12*
X039185Y032628D02*
X038856Y032628D01*
X038966Y032848D02*
X038856Y032957D01*
X038966Y033067D01*
X039295Y033067D01*
X039185Y032848D02*
X038966Y032848D01*
X039185Y032848D02*
X039295Y032738D01*
X039185Y032628D01*
X038581Y033067D02*
X038472Y033067D01*
X038252Y032848D01*
X038252Y033067D02*
X038252Y032628D01*
X037966Y032848D02*
X037527Y032848D01*
X037527Y032957D02*
X037637Y033067D01*
X037856Y033067D01*
X037966Y032957D01*
X037966Y032848D01*
X037856Y032628D02*
X037637Y032628D01*
X037527Y032738D01*
X037527Y032957D01*
X037241Y033067D02*
X037241Y032519D01*
X037131Y032409D01*
X037022Y032409D01*
X036912Y032628D02*
X037241Y032628D01*
X036912Y032628D02*
X036802Y032738D01*
X036802Y033067D01*
X036516Y032957D02*
X036516Y032628D01*
X036187Y032628D01*
X036077Y032738D01*
X036187Y032848D01*
X036516Y032848D01*
X036516Y032957D02*
X036406Y033067D01*
X036187Y033067D01*
X035703Y033286D02*
X035703Y032628D01*
X035594Y032628D02*
X035813Y032628D01*
X035703Y033286D02*
X035594Y033286D01*
X035594Y033809D02*
X036032Y034248D01*
X036032Y034358D01*
X035923Y034467D01*
X035703Y034467D01*
X035594Y034358D01*
X035341Y033919D02*
X035341Y033809D01*
X035231Y033809D01*
X035231Y033919D01*
X035341Y033919D01*
X035594Y033809D02*
X036032Y033809D01*
X036319Y033809D02*
X036319Y034248D01*
X036429Y034248D01*
X036538Y034138D01*
X036648Y034248D01*
X036757Y034138D01*
X036757Y033809D01*
X036538Y033809D02*
X036538Y034138D01*
X037044Y034248D02*
X037044Y033809D01*
X037263Y033809D02*
X037263Y034138D01*
X037373Y034248D01*
X037483Y034138D01*
X037483Y033809D01*
X037263Y034138D02*
X037154Y034248D01*
X037044Y034248D01*
X034945Y033809D02*
X034506Y033809D01*
X034726Y033809D02*
X034726Y034467D01*
X034506Y034248D01*
X034220Y034248D02*
X033781Y034248D01*
X033781Y034029D02*
X034220Y034029D01*
X033517Y034248D02*
X033298Y034248D01*
X033408Y034358D02*
X033408Y033919D01*
X033517Y033809D01*
X033528Y033067D02*
X033419Y032957D01*
X033419Y032738D01*
X033528Y032628D01*
X033748Y032628D01*
X033857Y032738D01*
X033857Y032957D01*
X033748Y033067D01*
X033528Y033067D01*
X033155Y033067D02*
X032935Y033067D01*
X033045Y033177D02*
X033045Y032738D01*
X033155Y032628D01*
X032671Y032628D02*
X032562Y032738D01*
X032562Y033177D01*
X032671Y033067D02*
X032452Y033067D01*
X032166Y032957D02*
X032056Y033067D01*
X031837Y033067D01*
X031727Y032957D01*
X031727Y032738D01*
X031837Y032628D01*
X032056Y032628D01*
X032166Y032738D01*
X032166Y032957D01*
X031441Y032957D02*
X031331Y033067D01*
X031002Y033067D01*
X031002Y033286D02*
X031002Y032628D01*
X031331Y032628D01*
X031441Y032738D01*
X031441Y032957D01*
X030716Y033286D02*
X030277Y032628D01*
X029991Y032738D02*
X029881Y032628D01*
X029552Y032628D01*
X029552Y032409D02*
X029552Y033067D01*
X029881Y033067D01*
X029991Y032957D01*
X029991Y032738D01*
X029266Y032738D02*
X029156Y032628D01*
X028937Y032628D01*
X028827Y032738D01*
X028827Y032957D01*
X028937Y033067D01*
X029156Y033067D01*
X029266Y032957D01*
X029266Y032738D01*
X028563Y032628D02*
X028453Y032738D01*
X028453Y033177D01*
X028344Y033067D02*
X028563Y033067D01*
X028453Y033809D02*
X028782Y033809D01*
X029069Y033809D02*
X029069Y034467D01*
X028782Y034248D02*
X028453Y034248D01*
X028344Y034138D01*
X028344Y033919D01*
X028453Y033809D01*
X028080Y033809D02*
X027860Y033809D01*
X027970Y033809D02*
X027970Y034248D01*
X027860Y034248D01*
X027970Y034467D02*
X027970Y034577D01*
X027574Y034138D02*
X027464Y034248D01*
X027245Y034248D01*
X027135Y034138D01*
X026871Y034248D02*
X026652Y034248D01*
X026761Y034358D02*
X026761Y033919D01*
X026871Y033809D01*
X027135Y033809D02*
X027135Y034467D01*
X027574Y034138D02*
X027574Y033809D01*
X027222Y033067D02*
X026893Y033067D01*
X026893Y032628D01*
X026607Y032738D02*
X026497Y032628D01*
X026278Y032628D01*
X026168Y032738D01*
X026168Y032957D01*
X026278Y033067D01*
X026497Y033067D01*
X026607Y032957D01*
X026607Y032738D01*
X027222Y033067D02*
X027332Y032957D01*
X027332Y032628D01*
X025640Y033809D02*
X025311Y033809D01*
X025202Y033919D01*
X025202Y034138D01*
X025311Y034248D01*
X025640Y034248D01*
X025640Y034467D02*
X025640Y033809D01*
X024927Y034248D02*
X024817Y034248D01*
X024598Y034029D01*
X024598Y034248D02*
X024598Y033809D01*
X024311Y033809D02*
X024311Y034138D01*
X024202Y034248D01*
X023982Y034248D01*
X023982Y034029D02*
X024311Y034029D01*
X024311Y033809D02*
X023982Y033809D01*
X023873Y033919D01*
X023982Y034029D01*
X023586Y034138D02*
X023476Y034248D01*
X023257Y034248D01*
X023148Y034138D01*
X023148Y033919D01*
X023257Y033809D01*
X023476Y033809D01*
X023586Y033919D01*
X023586Y034138D01*
X022861Y034138D02*
X022861Y033919D01*
X022751Y033809D01*
X022422Y033809D01*
X022422Y034467D01*
X022422Y034248D02*
X022751Y034248D01*
X022861Y034138D01*
X023257Y033396D02*
X023257Y033286D01*
X023257Y033067D02*
X023257Y032628D01*
X023148Y032628D02*
X023367Y032628D01*
X023631Y032628D02*
X023850Y032628D01*
X023741Y032628D02*
X023741Y033286D01*
X023631Y033286D01*
X023257Y033067D02*
X023148Y033067D01*
X022861Y033067D02*
X022532Y033067D01*
X022422Y032957D01*
X022532Y032848D01*
X022751Y032848D01*
X022861Y032738D01*
X022751Y032628D01*
X022422Y032628D01*
X024114Y032628D02*
X024114Y033286D01*
X024443Y033067D02*
X024114Y032848D01*
X024443Y032628D01*
X024718Y032628D02*
X025047Y032628D01*
X025157Y032738D01*
X025047Y032848D01*
X024828Y032848D01*
X024718Y032957D01*
X024828Y033067D01*
X025157Y033067D01*
X029069Y034029D02*
X029398Y034248D01*
X029673Y034248D02*
X029673Y033809D01*
X029398Y033809D02*
X029069Y034029D01*
X029673Y034248D02*
X030002Y034248D01*
X030111Y034138D01*
X030111Y033809D01*
X030398Y033919D02*
X030398Y034138D01*
X030507Y034248D01*
X030727Y034248D01*
X030836Y034138D01*
X030836Y034029D01*
X030398Y034029D01*
X030398Y033919D02*
X030507Y033809D01*
X030727Y033809D01*
X031123Y033809D02*
X031452Y033809D01*
X031561Y033919D01*
X031452Y034029D01*
X031232Y034029D01*
X031123Y034138D01*
X031232Y034248D01*
X031561Y034248D01*
X031848Y034138D02*
X031958Y034029D01*
X032177Y034029D01*
X032286Y033919D01*
X032177Y033809D01*
X031848Y033809D01*
X031848Y034138D02*
X031958Y034248D01*
X032286Y034248D01*
X034144Y033067D02*
X034253Y033067D01*
X034363Y032957D01*
X034473Y033067D01*
X034582Y032957D01*
X034582Y032628D01*
X034363Y032628D02*
X034363Y032957D01*
X034144Y033067D02*
X034144Y032628D01*
D13*
X033342Y020516D02*
X033302Y020516D01*
X017397Y020516D02*
X017357Y020516D01*
M02*
