G75*
%MOIN*%
%OFA0B0*%
%FSLAX24Y24*%
%IPPOS*%
%LPD*%
%AMOC8*
5,1,8,0,0,1.08239X$1,22.5*
%
%ADD10C,0.0080*%
%ADD11C,0.0079*%
%ADD12C,0.0130*%
%ADD13C,0.0157*%
D10*
X019105Y012450D02*
X019105Y012712D01*
X019170Y012778D01*
X019301Y012778D01*
X019367Y012712D01*
X019367Y012581D01*
X019301Y012516D01*
X019301Y012647D01*
X019170Y012647D01*
X019170Y012516D01*
X019301Y012516D01*
X019367Y012450D02*
X019301Y012385D01*
X019170Y012385D01*
X019105Y012450D01*
X019540Y012319D02*
X019802Y012319D01*
X019975Y012385D02*
X019975Y012778D01*
X019971Y012931D02*
X020233Y012931D01*
X020102Y012931D02*
X020102Y013324D01*
X019971Y013193D01*
X019798Y013193D02*
X019798Y012931D01*
X019798Y013127D02*
X019536Y013127D01*
X019536Y013193D02*
X019667Y013324D01*
X019798Y013193D01*
X019536Y013193D02*
X019536Y012931D01*
X019363Y012996D02*
X019363Y013258D01*
X019297Y013324D01*
X019101Y013324D01*
X019101Y012931D01*
X019297Y012931D01*
X019363Y012996D01*
X020040Y012581D02*
X020237Y012385D01*
X020410Y012581D02*
X020672Y012581D01*
X020606Y012385D02*
X020606Y012778D01*
X020410Y012581D01*
X020237Y012778D02*
X019975Y012516D01*
X020406Y013127D02*
X020668Y013127D01*
X020841Y013127D02*
X020841Y013324D01*
X021103Y013324D01*
X021037Y013193D02*
X021103Y013127D01*
X021103Y012996D01*
X021037Y012931D01*
X020906Y012931D01*
X020841Y012996D01*
X020841Y013127D02*
X020972Y013193D01*
X021037Y013193D01*
X021276Y013193D02*
X021276Y013258D01*
X021341Y013324D01*
X021472Y013324D01*
X021538Y013258D01*
X021538Y013193D01*
X021472Y013127D01*
X021341Y013127D01*
X021276Y013193D01*
X021341Y013127D02*
X021276Y013062D01*
X021276Y012996D01*
X021341Y012931D01*
X021472Y012931D01*
X021538Y012996D01*
X021538Y013062D01*
X021472Y013127D01*
X021711Y012931D02*
X021973Y013324D01*
X021711Y013324D02*
X021973Y012931D01*
X021977Y012778D02*
X021715Y012516D01*
X021780Y012581D02*
X021977Y012385D01*
X022150Y012385D02*
X022281Y012385D01*
X022216Y012385D02*
X022216Y012778D01*
X022281Y012778D02*
X022150Y012778D01*
X021715Y012778D02*
X021715Y012385D01*
X021542Y012450D02*
X021542Y012778D01*
X021280Y012778D02*
X021280Y012450D01*
X021345Y012385D01*
X021476Y012385D01*
X021542Y012450D01*
X021107Y012385D02*
X020845Y012385D01*
X020845Y012450D01*
X021107Y012712D01*
X021107Y012778D01*
X020845Y012778D01*
X020602Y012931D02*
X020602Y013324D01*
X020406Y013127D01*
X018655Y014047D02*
X018589Y013981D01*
X018458Y013981D01*
X018393Y014047D01*
X018241Y014047D02*
X018241Y013981D01*
X018176Y013981D01*
X018176Y014047D01*
X018241Y014047D01*
X018002Y014047D02*
X017937Y013981D01*
X017806Y013981D01*
X017741Y014047D01*
X018002Y014309D01*
X018002Y014047D01*
X017741Y014047D02*
X017741Y014309D01*
X017806Y014374D01*
X017937Y014374D01*
X018002Y014309D01*
X018393Y014309D02*
X018458Y014374D01*
X018589Y014374D01*
X018655Y014309D01*
X018655Y014243D01*
X018589Y014178D01*
X018655Y014112D01*
X018655Y014047D01*
X018589Y014178D02*
X018524Y014178D01*
X018655Y015005D02*
X018393Y015005D01*
X018655Y015267D01*
X018655Y015332D01*
X018589Y015398D01*
X018458Y015398D01*
X018393Y015332D01*
X018241Y015070D02*
X018241Y015005D01*
X018176Y015005D01*
X018176Y015070D01*
X018241Y015070D01*
X018002Y015070D02*
X018002Y015332D01*
X017741Y015070D01*
X017806Y015005D01*
X017937Y015005D01*
X018002Y015070D01*
X017741Y015070D02*
X017741Y015332D01*
X017806Y015398D01*
X017937Y015398D01*
X018002Y015332D01*
X017567Y015332D02*
X017567Y015201D01*
X017502Y015136D01*
X017305Y015136D01*
X017305Y015005D02*
X017305Y015398D01*
X017502Y015398D01*
X017567Y015332D01*
X017806Y015989D02*
X017741Y016055D01*
X018002Y016316D01*
X018002Y016055D01*
X017937Y015989D01*
X017806Y015989D01*
X017741Y016055D02*
X017741Y016316D01*
X017806Y016382D01*
X017937Y016382D01*
X018002Y016316D01*
X018176Y016055D02*
X018241Y016055D01*
X018241Y015989D01*
X018176Y015989D01*
X018176Y016055D01*
X018393Y015989D02*
X018655Y015989D01*
X018524Y015989D02*
X018524Y016382D01*
X018393Y016251D01*
X018458Y017013D02*
X018393Y017078D01*
X018655Y017340D01*
X018655Y017078D01*
X018589Y017013D01*
X018458Y017013D01*
X018393Y017078D02*
X018393Y017340D01*
X018458Y017405D01*
X018589Y017405D01*
X018655Y017340D01*
X018241Y017078D02*
X018241Y017013D01*
X018176Y017013D01*
X018176Y017078D01*
X018241Y017078D01*
X018002Y017078D02*
X018002Y017340D01*
X017741Y017078D01*
X017806Y017013D01*
X017937Y017013D01*
X018002Y017078D01*
X017741Y017078D02*
X017741Y017340D01*
X017806Y017405D01*
X017937Y017405D01*
X018002Y017340D01*
X017567Y017340D02*
X017567Y017209D01*
X017502Y017144D01*
X017305Y017144D01*
X017305Y017013D02*
X017305Y017405D01*
X017502Y017405D01*
X017567Y017340D01*
X017741Y017997D02*
X018002Y018259D01*
X018002Y018324D01*
X017937Y018390D01*
X017806Y018390D01*
X017741Y018324D01*
X017567Y018324D02*
X017567Y018193D01*
X017502Y018128D01*
X017305Y018128D01*
X017305Y017997D02*
X017305Y018390D01*
X017502Y018390D01*
X017567Y018324D01*
X017739Y018627D02*
X017739Y019020D01*
X017935Y019020D01*
X018000Y018954D01*
X018000Y018823D01*
X017935Y018758D01*
X017739Y018758D01*
X018174Y018627D02*
X018435Y018889D01*
X018435Y018954D01*
X018370Y019020D01*
X018239Y019020D01*
X018174Y018954D01*
X018174Y018627D02*
X018435Y018627D01*
X018609Y018627D02*
X018674Y018627D01*
X018674Y018692D01*
X018609Y018692D01*
X018609Y018627D01*
X018826Y018692D02*
X018892Y018627D01*
X019022Y018627D01*
X019088Y018692D01*
X019088Y018954D01*
X019022Y019020D01*
X018892Y019020D01*
X018826Y018954D01*
X018826Y018889D01*
X018892Y018823D01*
X019088Y018823D01*
X019371Y018666D02*
X019371Y018980D01*
X019475Y018876D01*
X019580Y018980D01*
X019580Y018666D01*
X019733Y018666D02*
X019838Y018666D01*
X019786Y018666D02*
X019786Y018980D01*
X019838Y018980D02*
X019733Y018980D01*
X019975Y018928D02*
X019975Y018876D01*
X020027Y018823D01*
X020132Y018823D01*
X020184Y018771D01*
X020184Y018719D01*
X020132Y018666D01*
X020027Y018666D01*
X019975Y018719D01*
X019975Y018928D02*
X020027Y018980D01*
X020132Y018980D01*
X020184Y018928D01*
X020337Y018928D02*
X020337Y018719D01*
X020390Y018666D01*
X020494Y018666D01*
X020547Y018719D01*
X020547Y018928D01*
X020494Y018980D01*
X020390Y018980D01*
X020337Y018928D01*
X019875Y018350D02*
X019665Y018141D01*
X019718Y018193D02*
X019875Y018036D01*
X019665Y018036D02*
X019665Y018350D01*
X019512Y018298D02*
X019460Y018350D01*
X019355Y018350D01*
X019303Y018298D01*
X019303Y018089D01*
X019355Y018036D01*
X019460Y018036D01*
X019512Y018089D01*
X019150Y018089D02*
X019097Y018036D01*
X018993Y018036D01*
X018940Y018089D01*
X018993Y018193D02*
X019097Y018193D01*
X019150Y018141D01*
X019150Y018089D01*
X018993Y018193D02*
X018940Y018246D01*
X018940Y018298D01*
X018993Y018350D01*
X019097Y018350D01*
X019150Y018298D01*
X018655Y018324D02*
X018655Y018062D01*
X018589Y017997D01*
X018458Y017997D01*
X018393Y018062D01*
X018655Y018324D01*
X018589Y018390D01*
X018458Y018390D01*
X018393Y018324D01*
X018393Y018062D01*
X018241Y018062D02*
X018241Y017997D01*
X018176Y017997D01*
X018176Y018062D01*
X018241Y018062D01*
X018002Y017997D02*
X017741Y017997D01*
X017502Y016382D02*
X017567Y016316D01*
X017567Y016185D01*
X017502Y016120D01*
X017305Y016120D01*
X017305Y015989D02*
X017305Y016382D01*
X017502Y016382D01*
X017502Y014374D02*
X017567Y014309D01*
X017567Y014178D01*
X017502Y014112D01*
X017305Y014112D01*
X017305Y013981D02*
X017305Y014374D01*
X017502Y014374D01*
X017172Y013626D02*
X016306Y013626D01*
X016306Y027721D01*
X017172Y027721D01*
X017172Y013626D01*
X016872Y013508D02*
X016872Y013194D01*
X016768Y013194D02*
X016977Y013194D01*
X016768Y013403D02*
X016872Y013508D01*
X016614Y013508D02*
X016405Y013194D01*
X016614Y013194D02*
X016405Y013508D01*
X022440Y012319D02*
X022702Y012319D01*
X022777Y012931D02*
X022843Y012996D01*
X022843Y013127D01*
X022777Y013193D01*
X022581Y013193D01*
X022581Y013324D02*
X022581Y012931D01*
X022777Y012931D01*
X023016Y012931D02*
X023016Y013193D01*
X023147Y013193D02*
X023212Y013193D01*
X023147Y013193D02*
X023016Y013062D01*
X023378Y012996D02*
X023444Y013062D01*
X023640Y013062D01*
X023640Y013127D02*
X023640Y012931D01*
X023444Y012931D01*
X023378Y012996D01*
X023444Y013193D02*
X023575Y013193D01*
X023640Y013127D01*
X023813Y013062D02*
X024010Y013193D01*
X024176Y013127D02*
X024176Y012996D01*
X024241Y012931D01*
X024372Y012931D01*
X024438Y012996D01*
X024438Y013127D01*
X024372Y013193D01*
X024241Y013193D01*
X024176Y013127D01*
X024010Y012931D02*
X023813Y013062D01*
X023813Y012931D02*
X023813Y013324D01*
X024611Y013193D02*
X024611Y012996D01*
X024676Y012931D01*
X024873Y012931D01*
X024873Y013193D01*
X025046Y013193D02*
X025177Y013193D01*
X025111Y013258D02*
X025111Y012996D01*
X025177Y012931D01*
X025809Y013981D02*
X025809Y014374D01*
X026006Y014374D01*
X026071Y014309D01*
X026071Y014178D01*
X026006Y014112D01*
X025809Y014112D01*
X026244Y014047D02*
X026310Y013981D01*
X026441Y013981D01*
X026506Y014047D01*
X026506Y014309D01*
X026244Y014047D01*
X026244Y014309D01*
X026310Y014374D01*
X026441Y014374D01*
X026506Y014309D01*
X026679Y014047D02*
X026679Y013981D01*
X026745Y013981D01*
X026745Y014047D01*
X026679Y014047D01*
X026897Y014178D02*
X027159Y014178D01*
X027093Y014374D02*
X026897Y014178D01*
X027093Y013981D02*
X027093Y014374D01*
X027093Y015044D02*
X026962Y015044D01*
X026897Y015110D01*
X026897Y015241D02*
X027028Y015306D01*
X027093Y015306D01*
X027159Y015241D01*
X027159Y015110D01*
X027093Y015044D01*
X026897Y015241D02*
X026897Y015437D01*
X027159Y015437D01*
X026745Y015110D02*
X026745Y015044D01*
X026679Y015044D01*
X026679Y015110D01*
X026745Y015110D01*
X026506Y015110D02*
X026441Y015044D01*
X026310Y015044D01*
X026244Y015110D01*
X026506Y015372D01*
X026506Y015110D01*
X026506Y015372D02*
X026441Y015437D01*
X026310Y015437D01*
X026244Y015372D01*
X026244Y015110D01*
X026071Y015241D02*
X026006Y015175D01*
X025809Y015175D01*
X025809Y015044D02*
X025809Y015437D01*
X026006Y015437D01*
X026071Y015372D01*
X026071Y015241D01*
X026310Y015989D02*
X026244Y016055D01*
X026506Y016316D01*
X026506Y016055D01*
X026441Y015989D01*
X026310Y015989D01*
X026244Y016055D02*
X026244Y016316D01*
X026310Y016382D01*
X026441Y016382D01*
X026506Y016316D01*
X026679Y016055D02*
X026745Y016055D01*
X026745Y015989D01*
X026679Y015989D01*
X026679Y016055D01*
X026897Y016055D02*
X026962Y015989D01*
X027093Y015989D01*
X027159Y016055D01*
X027159Y016120D01*
X027093Y016185D01*
X026897Y016185D01*
X026897Y016055D01*
X026897Y016185D02*
X027028Y016316D01*
X027159Y016382D01*
X026897Y016973D02*
X026897Y017039D01*
X027159Y017301D01*
X027159Y017366D01*
X026897Y017366D01*
X026745Y017039D02*
X026745Y016973D01*
X026679Y016973D01*
X026679Y017039D01*
X026745Y017039D01*
X026506Y017039D02*
X026506Y017301D01*
X026244Y017039D01*
X026310Y016973D01*
X026441Y016973D01*
X026506Y017039D01*
X026244Y017039D02*
X026244Y017301D01*
X026310Y017366D01*
X026441Y017366D01*
X026506Y017301D01*
X026071Y017301D02*
X026071Y017170D01*
X026006Y017104D01*
X025809Y017104D01*
X025809Y016973D02*
X025809Y017366D01*
X026006Y017366D01*
X026071Y017301D01*
X026244Y017958D02*
X026506Y018219D01*
X026506Y018285D01*
X026441Y018350D01*
X026310Y018350D01*
X026244Y018285D01*
X026071Y018285D02*
X026006Y018350D01*
X025809Y018350D01*
X025809Y017958D01*
X025809Y018089D02*
X026006Y018089D01*
X026071Y018154D01*
X026071Y018285D01*
X026244Y017958D02*
X026506Y017958D01*
X026679Y017958D02*
X026745Y017958D01*
X026745Y018023D01*
X026679Y018023D01*
X026679Y017958D01*
X026897Y017958D02*
X027159Y017958D01*
X027028Y017958D02*
X027028Y018350D01*
X026897Y018219D01*
X026858Y018784D02*
X027119Y019046D01*
X027119Y019112D01*
X027054Y019177D01*
X026923Y019177D01*
X026858Y019112D01*
X026728Y019375D02*
X026623Y019375D01*
X026571Y019427D01*
X026623Y019532D02*
X026728Y019532D01*
X026780Y019480D01*
X026780Y019427D01*
X026728Y019375D01*
X026623Y019532D02*
X026571Y019584D01*
X026571Y019637D01*
X026623Y019689D01*
X026728Y019689D01*
X026780Y019637D01*
X026893Y019849D02*
X026168Y019849D01*
X026244Y020005D02*
X026506Y020267D01*
X026506Y020332D01*
X026441Y020398D01*
X026310Y020398D01*
X026244Y020332D01*
X026071Y020332D02*
X026071Y020201D01*
X026006Y020136D01*
X025809Y020136D01*
X025809Y020005D02*
X025809Y020398D01*
X026006Y020398D01*
X026071Y020332D01*
X026155Y020674D02*
X026155Y020988D01*
X026050Y020883D01*
X025945Y020988D01*
X025945Y020674D01*
X026308Y020726D02*
X026308Y020936D01*
X026360Y020988D01*
X026465Y020988D01*
X026517Y020936D01*
X026517Y020726D01*
X026465Y020674D01*
X026360Y020674D01*
X026308Y020726D01*
X026670Y020726D02*
X026723Y020674D01*
X026827Y020674D01*
X026880Y020726D01*
X026880Y020779D01*
X026827Y020831D01*
X026723Y020831D01*
X026670Y020883D01*
X026670Y020936D01*
X026723Y020988D01*
X026827Y020988D01*
X026880Y020936D01*
X027033Y020988D02*
X027138Y020988D01*
X027085Y020988D02*
X027085Y020674D01*
X027033Y020674D02*
X027138Y020674D01*
X027093Y020398D02*
X027159Y020332D01*
X027159Y020267D01*
X027093Y020201D01*
X027159Y020136D01*
X027159Y020070D01*
X027093Y020005D01*
X026962Y020005D01*
X026897Y020070D01*
X026745Y020070D02*
X026745Y020005D01*
X026679Y020005D01*
X026679Y020070D01*
X026745Y020070D01*
X026506Y020005D02*
X026244Y020005D01*
X026261Y019689D02*
X026208Y019637D01*
X026208Y019427D01*
X026261Y019375D01*
X026365Y019375D01*
X026418Y019427D01*
X026418Y019637D02*
X026365Y019689D01*
X026261Y019689D01*
X026271Y019177D02*
X026205Y019112D01*
X026271Y019177D02*
X026401Y019177D01*
X026467Y019112D01*
X026467Y019046D01*
X026205Y018784D01*
X026467Y018784D01*
X026640Y018784D02*
X026706Y018784D01*
X026706Y018850D01*
X026640Y018850D01*
X026640Y018784D01*
X026858Y018784D02*
X027119Y018784D01*
X026032Y018981D02*
X025966Y018915D01*
X025770Y018915D01*
X025770Y018784D02*
X025770Y019177D01*
X025966Y019177D01*
X026032Y019112D01*
X026032Y018981D01*
X023983Y020003D02*
X023773Y020003D01*
X023930Y020160D01*
X023930Y019846D01*
X023620Y019899D02*
X023568Y019846D01*
X023463Y019846D01*
X023411Y019899D01*
X023411Y020108D01*
X023463Y020160D01*
X023568Y020160D01*
X023620Y020108D01*
X023570Y021068D02*
X023622Y021120D01*
X023570Y021068D02*
X023465Y021068D01*
X023413Y021120D01*
X023413Y021329D01*
X023465Y021382D01*
X023570Y021382D01*
X023622Y021329D01*
X023775Y021329D02*
X023828Y021382D01*
X023932Y021382D01*
X023985Y021329D01*
X023985Y021277D01*
X023932Y021225D01*
X023985Y021172D01*
X023985Y021120D01*
X023932Y021068D01*
X023828Y021068D01*
X023775Y021120D01*
X023880Y021225D02*
X023932Y021225D01*
X022804Y021264D02*
X022647Y021264D01*
X022594Y021317D01*
X022594Y021369D01*
X022647Y021421D01*
X022751Y021421D01*
X022804Y021369D01*
X022804Y021160D01*
X022751Y021107D01*
X022647Y021107D01*
X022594Y021160D01*
X022441Y021160D02*
X022389Y021107D01*
X022284Y021107D01*
X022232Y021160D01*
X022232Y021369D01*
X022284Y021421D01*
X022389Y021421D01*
X022441Y021369D01*
X021111Y021383D02*
X020901Y021383D01*
X021006Y021383D02*
X021006Y021697D01*
X020901Y021592D01*
X020748Y021644D02*
X020748Y021435D01*
X020696Y021383D01*
X020591Y021383D01*
X020539Y021435D01*
X020539Y021644D01*
X020591Y021697D01*
X020696Y021697D01*
X020748Y021644D01*
X020644Y021487D02*
X020748Y021383D01*
X020050Y021750D02*
X019998Y021698D01*
X019893Y021698D01*
X019841Y021750D01*
X019946Y021855D02*
X019998Y021855D01*
X020050Y021802D01*
X020050Y021750D01*
X019998Y021855D02*
X020050Y021907D01*
X020050Y021959D01*
X019998Y022012D01*
X019893Y022012D01*
X019841Y021959D01*
X019688Y021959D02*
X019636Y022012D01*
X019531Y022012D01*
X019479Y021959D01*
X019479Y021750D01*
X019531Y021698D01*
X019636Y021698D01*
X019688Y021750D01*
X019342Y021698D02*
X019237Y021698D01*
X019289Y021698D02*
X019289Y022012D01*
X019237Y022012D02*
X019342Y022012D01*
X019063Y021461D02*
X018854Y021461D01*
X018854Y021304D01*
X018959Y021356D01*
X019011Y021356D01*
X019063Y021304D01*
X019063Y021199D01*
X019011Y021147D01*
X018906Y021147D01*
X018854Y021199D01*
X018701Y021199D02*
X018649Y021147D01*
X018544Y021147D01*
X018492Y021199D01*
X018492Y021408D01*
X018544Y021461D01*
X018649Y021461D01*
X018701Y021408D01*
X018276Y021147D02*
X018067Y021147D01*
X018171Y021147D02*
X018171Y021461D01*
X018067Y021356D01*
X017914Y021408D02*
X017914Y021304D01*
X017861Y021251D01*
X017704Y021251D01*
X017704Y021147D02*
X017704Y021461D01*
X017861Y021461D01*
X017914Y021408D01*
X017809Y021251D02*
X017914Y021147D01*
X019079Y020279D02*
X019184Y020279D01*
X019132Y020279D02*
X019132Y019965D01*
X019184Y019965D02*
X019079Y019965D01*
X019321Y020018D02*
X019321Y020227D01*
X019373Y020279D01*
X019478Y020279D01*
X019530Y020227D01*
X019684Y020227D02*
X019736Y020279D01*
X019841Y020279D01*
X019893Y020227D01*
X019893Y020175D01*
X019684Y019965D01*
X019893Y019965D01*
X019530Y020018D02*
X019478Y019965D01*
X019373Y019965D01*
X019321Y020018D01*
X021796Y019807D02*
X021901Y019807D01*
X021848Y019807D02*
X021848Y019493D01*
X021796Y019493D02*
X021901Y019493D01*
X022038Y019545D02*
X022090Y019493D01*
X022195Y019493D01*
X022247Y019545D01*
X022400Y019493D02*
X022610Y019493D01*
X022505Y019493D02*
X022505Y019807D01*
X022400Y019702D01*
X022247Y019755D02*
X022195Y019807D01*
X022090Y019807D01*
X022038Y019755D01*
X022038Y019545D01*
X022672Y019177D02*
X022672Y017288D01*
X023775Y017288D02*
X023775Y019177D01*
X025888Y021147D02*
X025888Y021539D01*
X026085Y021539D01*
X026150Y021474D01*
X026150Y021343D01*
X026085Y021277D01*
X025888Y021277D01*
X026323Y021147D02*
X026585Y021408D01*
X026585Y021474D01*
X026520Y021539D01*
X026389Y021539D01*
X026323Y021474D01*
X026323Y021147D02*
X026585Y021147D01*
X026758Y021147D02*
X026758Y021212D01*
X026824Y021212D01*
X026824Y021147D01*
X026758Y021147D01*
X026976Y021343D02*
X027238Y021343D01*
X027172Y021147D02*
X027172Y021539D01*
X026976Y021343D01*
X026962Y022013D02*
X026897Y022078D01*
X027159Y022340D01*
X027159Y022078D01*
X027093Y022013D01*
X026962Y022013D01*
X026897Y022078D02*
X026897Y022340D01*
X026962Y022405D01*
X027093Y022405D01*
X027159Y022340D01*
X027159Y022800D02*
X026897Y022800D01*
X027028Y022800D02*
X027028Y023193D01*
X026897Y023062D01*
X026745Y022866D02*
X026745Y022800D01*
X026679Y022800D01*
X026679Y022866D01*
X026745Y022866D01*
X026506Y022800D02*
X026244Y022800D01*
X026375Y022800D02*
X026375Y023193D01*
X026244Y023062D01*
X026071Y023127D02*
X026071Y022996D01*
X026006Y022931D01*
X025809Y022931D01*
X025809Y022800D02*
X025809Y023193D01*
X026006Y023193D01*
X026071Y023127D01*
X025649Y023325D02*
X025649Y023534D01*
X025597Y023587D01*
X025492Y023587D01*
X025440Y023534D01*
X025440Y023325D01*
X025492Y023273D01*
X025597Y023273D01*
X025649Y023325D01*
X025303Y023273D02*
X025198Y023273D01*
X025251Y023273D02*
X025251Y023587D01*
X025303Y023587D02*
X025198Y023587D01*
X025138Y023706D02*
X025347Y023706D01*
X025500Y023706D02*
X025500Y024020D01*
X025553Y023863D02*
X025710Y023706D01*
X025500Y023810D02*
X025710Y024020D01*
X025138Y024020D02*
X025138Y023706D01*
X024985Y023758D02*
X024932Y023706D01*
X024828Y023706D01*
X024775Y023758D01*
X024775Y023967D01*
X024828Y024020D01*
X024932Y024020D01*
X024985Y023967D01*
X024622Y024020D02*
X024622Y023706D01*
X024517Y023810D01*
X024413Y023706D01*
X024413Y024020D01*
X024260Y023967D02*
X024207Y024020D01*
X024103Y024020D01*
X024050Y023967D01*
X024050Y023915D01*
X024103Y023863D01*
X024207Y023863D01*
X024260Y023810D01*
X024260Y023758D01*
X024207Y023706D01*
X024103Y023706D01*
X024050Y023758D01*
X024163Y023587D02*
X024111Y023534D01*
X024111Y023482D01*
X024163Y023430D01*
X024268Y023430D01*
X024320Y023377D01*
X024320Y023325D01*
X024268Y023273D01*
X024163Y023273D01*
X024111Y023325D01*
X024163Y023587D02*
X024268Y023587D01*
X024320Y023534D01*
X024473Y023587D02*
X024473Y023273D01*
X024578Y023377D01*
X024682Y023273D01*
X024682Y023587D01*
X024836Y023587D02*
X024993Y023587D01*
X025045Y023534D01*
X025045Y023325D01*
X024993Y023273D01*
X024836Y023273D01*
X024836Y023587D01*
X024830Y023153D02*
X024830Y022839D01*
X025040Y022839D01*
X025193Y022839D02*
X025402Y022839D01*
X025297Y022839D02*
X025297Y023153D01*
X025193Y023049D01*
X025809Y022405D02*
X026006Y022405D01*
X026071Y022340D01*
X026071Y022209D01*
X026006Y022144D01*
X025809Y022144D01*
X025809Y022013D02*
X025809Y022405D01*
X026244Y022275D02*
X026375Y022405D01*
X026375Y022013D01*
X026244Y022013D02*
X026506Y022013D01*
X026679Y022013D02*
X026745Y022013D01*
X026745Y022078D01*
X026679Y022078D01*
X026679Y022013D01*
X026962Y020398D02*
X027093Y020398D01*
X026962Y020398D02*
X026897Y020332D01*
X027028Y020201D02*
X027093Y020201D01*
X026006Y016382D02*
X026071Y016316D01*
X026071Y016185D01*
X026006Y016120D01*
X025809Y016120D01*
X025809Y015989D02*
X025809Y016382D01*
X026006Y016382D01*
X027306Y013626D02*
X028172Y013626D01*
X028172Y027721D01*
X027306Y027721D01*
X027306Y013626D01*
X027429Y013429D02*
X027638Y013115D01*
X027791Y013115D02*
X028000Y013324D01*
X028000Y013377D01*
X027948Y013429D01*
X027844Y013429D01*
X027791Y013377D01*
X027638Y013429D02*
X027429Y013115D01*
X027791Y013115D02*
X028000Y013115D01*
X032448Y013626D02*
X032448Y027721D01*
X033314Y027721D01*
X033314Y013626D01*
X032448Y013626D01*
X032547Y013508D02*
X032756Y013194D01*
X032909Y013194D02*
X033119Y013194D01*
X033014Y013194D02*
X033014Y013508D01*
X032909Y013403D01*
X032756Y013508D02*
X032547Y013194D01*
X033447Y013981D02*
X033447Y014374D01*
X033644Y014374D01*
X033709Y014309D01*
X033709Y014178D01*
X033644Y014112D01*
X033447Y014112D01*
X033882Y014047D02*
X033948Y013981D01*
X034079Y013981D01*
X034144Y014047D01*
X034144Y014309D01*
X033882Y014047D01*
X033882Y014309D01*
X033948Y014374D01*
X034079Y014374D01*
X034144Y014309D01*
X034317Y014047D02*
X034383Y014047D01*
X034383Y013981D01*
X034317Y013981D01*
X034317Y014047D01*
X034535Y014047D02*
X034600Y013981D01*
X034731Y013981D01*
X034797Y014047D01*
X034797Y014112D01*
X034731Y014178D01*
X034666Y014178D01*
X034731Y014178D02*
X034797Y014243D01*
X034797Y014309D01*
X034731Y014374D01*
X034600Y014374D01*
X034535Y014309D01*
X034535Y015005D02*
X034797Y015267D01*
X034797Y015332D01*
X034731Y015398D01*
X034600Y015398D01*
X034535Y015332D01*
X034383Y015070D02*
X034383Y015005D01*
X034317Y015005D01*
X034317Y015070D01*
X034383Y015070D01*
X034535Y015005D02*
X034797Y015005D01*
X034144Y015070D02*
X034144Y015332D01*
X033882Y015070D01*
X033948Y015005D01*
X034079Y015005D01*
X034144Y015070D01*
X033882Y015070D02*
X033882Y015332D01*
X033948Y015398D01*
X034079Y015398D01*
X034144Y015332D01*
X033709Y015332D02*
X033709Y015201D01*
X033644Y015136D01*
X033447Y015136D01*
X033447Y015005D02*
X033447Y015398D01*
X033644Y015398D01*
X033709Y015332D01*
X033948Y015989D02*
X033882Y016055D01*
X034144Y016316D01*
X034144Y016055D01*
X034079Y015989D01*
X033948Y015989D01*
X033882Y016055D02*
X033882Y016316D01*
X033948Y016382D01*
X034079Y016382D01*
X034144Y016316D01*
X034317Y016055D02*
X034383Y016055D01*
X034383Y015989D01*
X034317Y015989D01*
X034317Y016055D01*
X034535Y015989D02*
X034797Y015989D01*
X034666Y015989D02*
X034666Y016382D01*
X034535Y016251D01*
X033709Y016316D02*
X033709Y016185D01*
X033644Y016120D01*
X033447Y016120D01*
X033447Y015989D02*
X033447Y016382D01*
X033644Y016382D01*
X033709Y016316D01*
X033948Y017013D02*
X033882Y017078D01*
X034144Y017340D01*
X034144Y017078D01*
X034079Y017013D01*
X033948Y017013D01*
X033882Y017078D02*
X033882Y017340D01*
X033948Y017405D01*
X034079Y017405D01*
X034144Y017340D01*
X034317Y017078D02*
X034383Y017078D01*
X034383Y017013D01*
X034317Y017013D01*
X034317Y017078D01*
X034535Y017078D02*
X034797Y017340D01*
X034797Y017078D01*
X034731Y017013D01*
X034600Y017013D01*
X034535Y017078D01*
X034535Y017340D01*
X034600Y017405D01*
X034731Y017405D01*
X034797Y017340D01*
X034731Y017997D02*
X034600Y017997D01*
X034535Y018062D01*
X034797Y018324D01*
X034797Y018062D01*
X034731Y017997D01*
X034535Y018062D02*
X034535Y018324D01*
X034600Y018390D01*
X034731Y018390D01*
X034797Y018324D01*
X035082Y018298D02*
X035134Y018350D01*
X035239Y018350D01*
X035291Y018298D01*
X035239Y018193D02*
X035291Y018141D01*
X035291Y018089D01*
X035239Y018036D01*
X035134Y018036D01*
X035082Y018089D01*
X035134Y018193D02*
X035239Y018193D01*
X035134Y018193D02*
X035082Y018246D01*
X035082Y018298D01*
X035033Y018627D02*
X035164Y018627D01*
X035230Y018692D01*
X035230Y018954D01*
X035164Y019020D01*
X035033Y019020D01*
X034968Y018954D01*
X034968Y018889D01*
X035033Y018823D01*
X035230Y018823D01*
X035033Y018627D02*
X034968Y018692D01*
X034816Y018692D02*
X034816Y018627D01*
X034750Y018627D01*
X034750Y018692D01*
X034816Y018692D01*
X034577Y018627D02*
X034315Y018627D01*
X034577Y018889D01*
X034577Y018954D01*
X034512Y019020D01*
X034381Y019020D01*
X034315Y018954D01*
X034142Y018954D02*
X034142Y018823D01*
X034077Y018758D01*
X033880Y018758D01*
X033880Y018627D02*
X033880Y019020D01*
X034077Y019020D01*
X034142Y018954D01*
X034079Y018390D02*
X033948Y018390D01*
X033882Y018324D01*
X033709Y018324D02*
X033709Y018193D01*
X033644Y018128D01*
X033447Y018128D01*
X033447Y017997D02*
X033447Y018390D01*
X033644Y018390D01*
X033709Y018324D01*
X033882Y017997D02*
X034144Y018259D01*
X034144Y018324D01*
X034079Y018390D01*
X034144Y017997D02*
X033882Y017997D01*
X034317Y017997D02*
X034383Y017997D01*
X034383Y018062D01*
X034317Y018062D01*
X034317Y017997D01*
X033709Y017340D02*
X033709Y017209D01*
X033644Y017144D01*
X033447Y017144D01*
X033447Y017013D02*
X033447Y017405D01*
X033644Y017405D01*
X033709Y017340D01*
X035445Y018089D02*
X035497Y018036D01*
X035602Y018036D01*
X035654Y018089D01*
X035807Y018141D02*
X036016Y018350D01*
X035807Y018350D02*
X035807Y018036D01*
X035859Y018193D02*
X036016Y018036D01*
X035654Y018298D02*
X035602Y018350D01*
X035497Y018350D01*
X035445Y018298D01*
X035445Y018089D01*
X035512Y018666D02*
X035512Y018980D01*
X035617Y018876D01*
X035722Y018980D01*
X035722Y018666D01*
X035875Y018666D02*
X035980Y018666D01*
X035927Y018666D02*
X035927Y018980D01*
X035875Y018980D02*
X035980Y018980D01*
X036117Y018928D02*
X036117Y018876D01*
X036169Y018823D01*
X036274Y018823D01*
X036326Y018771D01*
X036326Y018719D01*
X036274Y018666D01*
X036169Y018666D01*
X036117Y018719D01*
X036117Y018928D02*
X036169Y018980D01*
X036274Y018980D01*
X036326Y018928D01*
X036479Y018928D02*
X036479Y018719D01*
X036531Y018666D01*
X036636Y018666D01*
X036688Y018719D01*
X036688Y018928D01*
X036636Y018980D01*
X036531Y018980D01*
X036479Y018928D01*
X036035Y019965D02*
X035825Y019965D01*
X036035Y020175D01*
X036035Y020227D01*
X035982Y020279D01*
X035878Y020279D01*
X035825Y020227D01*
X035672Y020227D02*
X035620Y020279D01*
X035515Y020279D01*
X035463Y020227D01*
X035463Y020018D01*
X035515Y019965D01*
X035620Y019965D01*
X035672Y020018D01*
X035326Y019965D02*
X035221Y019965D01*
X035274Y019965D02*
X035274Y020279D01*
X035326Y020279D02*
X035221Y020279D01*
X035153Y021147D02*
X035048Y021147D01*
X034996Y021199D01*
X034996Y021304D02*
X035101Y021356D01*
X035153Y021356D01*
X035205Y021304D01*
X035205Y021199D01*
X035153Y021147D01*
X034996Y021304D02*
X034996Y021461D01*
X035205Y021461D01*
X035379Y021698D02*
X035483Y021698D01*
X035431Y021698D02*
X035431Y022012D01*
X035379Y022012D02*
X035483Y022012D01*
X035620Y021959D02*
X035620Y021750D01*
X035673Y021698D01*
X035777Y021698D01*
X035830Y021750D01*
X035983Y021750D02*
X036035Y021698D01*
X036140Y021698D01*
X036192Y021750D01*
X036192Y021802D01*
X036140Y021855D01*
X036088Y021855D01*
X036140Y021855D02*
X036192Y021907D01*
X036192Y021959D01*
X036140Y022012D01*
X036035Y022012D01*
X035983Y021959D01*
X035830Y021959D02*
X035777Y022012D01*
X035673Y022012D01*
X035620Y021959D01*
X034843Y021408D02*
X034790Y021461D01*
X034686Y021461D01*
X034633Y021408D01*
X034633Y021199D01*
X034686Y021147D01*
X034790Y021147D01*
X034843Y021199D01*
X034418Y021147D02*
X034209Y021147D01*
X034313Y021147D02*
X034313Y021461D01*
X034209Y021356D01*
X034055Y021408D02*
X034055Y021304D01*
X034003Y021251D01*
X033846Y021251D01*
X033846Y021147D02*
X033846Y021461D01*
X034003Y021461D01*
X034055Y021408D01*
X033951Y021251D02*
X034055Y021147D01*
X036681Y021435D02*
X036733Y021383D01*
X036838Y021383D01*
X036890Y021435D01*
X036890Y021644D01*
X036838Y021697D01*
X036733Y021697D01*
X036681Y021644D01*
X036681Y021435D01*
X036785Y021487D02*
X036890Y021383D01*
X037043Y021383D02*
X037252Y021383D01*
X037148Y021383D02*
X037148Y021697D01*
X037043Y021592D01*
X036940Y022839D02*
X036835Y022839D01*
X036783Y022892D01*
X036783Y022944D01*
X036835Y022996D01*
X036940Y022996D01*
X036992Y022944D01*
X036992Y022892D01*
X036940Y022839D01*
X036940Y022996D02*
X036992Y023049D01*
X036992Y023101D01*
X036940Y023153D01*
X036835Y023153D01*
X036783Y023101D01*
X036783Y023049D01*
X036835Y022996D01*
X036630Y022996D02*
X036630Y022892D01*
X036578Y022839D01*
X036473Y022839D01*
X036421Y022892D01*
X036421Y022996D02*
X036525Y023049D01*
X036578Y023049D01*
X036630Y022996D01*
X036630Y023153D02*
X036421Y023153D01*
X036421Y022996D01*
X037146Y022892D02*
X037355Y023101D01*
X037355Y022892D01*
X037303Y022839D01*
X037198Y022839D01*
X037146Y022892D01*
X037146Y023101D01*
X037198Y023153D01*
X037303Y023153D01*
X037355Y023101D01*
X037224Y024375D02*
X037119Y024375D01*
X037067Y024427D01*
X037276Y024637D01*
X037276Y024427D01*
X037224Y024375D01*
X037067Y024427D02*
X037067Y024637D01*
X037119Y024689D01*
X037224Y024689D01*
X037276Y024637D01*
X036914Y024375D02*
X036704Y024375D01*
X036809Y024375D02*
X036809Y024689D01*
X036704Y024584D01*
X036551Y024637D02*
X036499Y024689D01*
X036394Y024689D01*
X036342Y024637D01*
X036342Y024427D01*
X036394Y024375D01*
X036499Y024375D01*
X036551Y024427D01*
X037009Y025202D02*
X037113Y025202D01*
X037166Y025254D01*
X037166Y025516D01*
X037319Y025411D02*
X037423Y025516D01*
X037423Y025202D01*
X037319Y025202D02*
X037528Y025202D01*
X037009Y025202D02*
X036956Y025254D01*
X036956Y025516D01*
X037402Y026068D02*
X037507Y026068D01*
X037559Y026120D01*
X037712Y026120D02*
X037712Y026172D01*
X037765Y026225D01*
X037869Y026225D01*
X037922Y026172D01*
X037922Y026120D01*
X037869Y026068D01*
X037765Y026068D01*
X037712Y026120D01*
X037765Y026225D02*
X037712Y026277D01*
X037712Y026329D01*
X037765Y026382D01*
X037869Y026382D01*
X037922Y026329D01*
X037922Y026277D01*
X037869Y026225D01*
X037559Y026329D02*
X037507Y026382D01*
X037402Y026382D01*
X037350Y026329D01*
X037350Y026120D01*
X037402Y026068D01*
X037875Y026698D02*
X037979Y026698D01*
X038032Y026750D01*
X038185Y026750D02*
X038237Y026698D01*
X038342Y026698D01*
X038394Y026750D01*
X038394Y026802D01*
X038342Y026855D01*
X038185Y026855D01*
X038185Y026750D01*
X038185Y026855D02*
X038290Y026959D01*
X038394Y027012D01*
X038032Y026959D02*
X037979Y027012D01*
X037875Y027012D01*
X037822Y026959D01*
X037822Y026750D01*
X037875Y026698D01*
X037712Y027367D02*
X037712Y027419D01*
X037922Y027629D01*
X037922Y027681D01*
X037712Y027681D01*
X037559Y027629D02*
X037507Y027681D01*
X037402Y027681D01*
X037350Y027629D01*
X037350Y027419D01*
X037402Y027367D01*
X037507Y027367D01*
X037559Y027419D01*
X039917Y026172D02*
X039969Y026224D01*
X040074Y026224D01*
X040126Y026172D01*
X040126Y025963D01*
X040074Y025910D01*
X039969Y025910D01*
X039917Y025963D01*
X039917Y026172D01*
X040022Y026015D02*
X040126Y025910D01*
X040280Y025910D02*
X040489Y026120D01*
X040489Y026172D01*
X040437Y026224D01*
X040332Y026224D01*
X040280Y026172D01*
X040280Y025910D02*
X040489Y025910D01*
X041794Y026619D02*
X041794Y027012D01*
X041990Y027012D01*
X042056Y026946D01*
X042056Y026815D01*
X041990Y026750D01*
X041794Y026750D01*
X042229Y026619D02*
X042491Y026881D01*
X042491Y026946D01*
X042425Y027012D01*
X042294Y027012D01*
X042229Y026946D01*
X042229Y026619D02*
X042491Y026619D01*
X042664Y026619D02*
X042729Y026619D01*
X042729Y026684D01*
X042664Y026684D01*
X042664Y026619D01*
X042881Y026684D02*
X042947Y026619D01*
X043078Y026619D01*
X043143Y026684D01*
X043143Y026815D01*
X043078Y026881D01*
X043012Y026881D01*
X042881Y026815D01*
X042881Y027012D01*
X043143Y027012D01*
X043104Y027446D02*
X043235Y027446D01*
X043301Y027511D01*
X043301Y027577D01*
X043235Y027642D01*
X043039Y027642D01*
X043039Y027511D01*
X043104Y027446D01*
X043039Y027642D02*
X043170Y027773D01*
X043301Y027839D01*
X043448Y027721D02*
X044314Y027721D01*
X044314Y013626D01*
X043448Y013626D01*
X043448Y027721D01*
X042887Y027511D02*
X042887Y027446D01*
X042821Y027446D01*
X042821Y027511D01*
X042887Y027511D01*
X042648Y027446D02*
X042386Y027446D01*
X042648Y027708D01*
X042648Y027773D01*
X042583Y027839D01*
X042452Y027839D01*
X042386Y027773D01*
X042213Y027773D02*
X042213Y027642D01*
X042148Y027577D01*
X041951Y027577D01*
X041951Y027446D02*
X041951Y027839D01*
X042148Y027839D01*
X042213Y027773D01*
X041851Y024020D02*
X041642Y023810D01*
X041694Y023863D02*
X041851Y023706D01*
X041739Y023587D02*
X041791Y023534D01*
X041791Y023325D01*
X041739Y023273D01*
X041634Y023273D01*
X041582Y023325D01*
X041582Y023534D01*
X041634Y023587D01*
X041739Y023587D01*
X041642Y023706D02*
X041642Y024020D01*
X041489Y023706D02*
X041280Y023706D01*
X041280Y024020D01*
X041126Y023967D02*
X041074Y024020D01*
X040969Y024020D01*
X040917Y023967D01*
X040917Y023758D01*
X040969Y023706D01*
X041074Y023706D01*
X041126Y023758D01*
X041134Y023587D02*
X040977Y023587D01*
X040977Y023273D01*
X041134Y023273D01*
X041187Y023325D01*
X041187Y023534D01*
X041134Y023587D01*
X041340Y023587D02*
X041445Y023587D01*
X041392Y023587D02*
X041392Y023273D01*
X041340Y023273D02*
X041445Y023273D01*
X041439Y023153D02*
X041439Y022839D01*
X041334Y022839D02*
X041544Y022839D01*
X041334Y023049D02*
X041439Y023153D01*
X041181Y022839D02*
X040972Y022839D01*
X040972Y023153D01*
X040824Y023273D02*
X040824Y023587D01*
X040764Y023706D02*
X040764Y024020D01*
X040554Y024020D02*
X040554Y023706D01*
X040659Y023810D01*
X040764Y023706D01*
X040615Y023587D02*
X040615Y023273D01*
X040720Y023377D01*
X040824Y023273D01*
X040462Y023325D02*
X040462Y023377D01*
X040409Y023430D01*
X040305Y023430D01*
X040252Y023482D01*
X040252Y023534D01*
X040305Y023587D01*
X040409Y023587D01*
X040462Y023534D01*
X040349Y023706D02*
X040244Y023706D01*
X040192Y023758D01*
X040244Y023863D02*
X040349Y023863D01*
X040401Y023810D01*
X040401Y023758D01*
X040349Y023706D01*
X040244Y023863D02*
X040192Y023915D01*
X040192Y023967D01*
X040244Y024020D01*
X040349Y024020D01*
X040401Y023967D01*
X040462Y023325D02*
X040409Y023273D01*
X040305Y023273D01*
X040252Y023325D01*
X041951Y023193D02*
X041951Y022800D01*
X041951Y022931D02*
X042148Y022931D01*
X042213Y022996D01*
X042213Y023127D01*
X042148Y023193D01*
X041951Y023193D01*
X042386Y023062D02*
X042517Y023193D01*
X042517Y022800D01*
X042386Y022800D02*
X042648Y022800D01*
X042821Y022800D02*
X042887Y022800D01*
X042887Y022866D01*
X042821Y022866D01*
X042821Y022800D01*
X043039Y022800D02*
X043301Y022800D01*
X043170Y022800D02*
X043170Y023193D01*
X043039Y023062D01*
X043104Y022405D02*
X043235Y022405D01*
X043301Y022340D01*
X043039Y022078D01*
X043104Y022013D01*
X043235Y022013D01*
X043301Y022078D01*
X043301Y022340D01*
X043104Y022405D02*
X043039Y022340D01*
X043039Y022078D01*
X042887Y022078D02*
X042887Y022013D01*
X042821Y022013D01*
X042821Y022078D01*
X042887Y022078D01*
X042648Y022013D02*
X042386Y022013D01*
X042517Y022013D02*
X042517Y022405D01*
X042386Y022275D01*
X042213Y022340D02*
X042213Y022209D01*
X042148Y022144D01*
X041951Y022144D01*
X041951Y022013D02*
X041951Y022405D01*
X042148Y022405D01*
X042213Y022340D01*
X042226Y021539D02*
X042030Y021539D01*
X042030Y021147D01*
X042030Y021277D02*
X042226Y021277D01*
X042292Y021343D01*
X042292Y021474D01*
X042226Y021539D01*
X042465Y021474D02*
X042530Y021539D01*
X042661Y021539D01*
X042727Y021474D01*
X042727Y021408D01*
X042465Y021147D01*
X042727Y021147D01*
X042900Y021147D02*
X042965Y021147D01*
X042965Y021212D01*
X042900Y021212D01*
X042900Y021147D01*
X042865Y020988D02*
X042812Y020936D01*
X042812Y020883D01*
X042865Y020831D01*
X042969Y020831D01*
X043022Y020779D01*
X043022Y020726D01*
X042969Y020674D01*
X042865Y020674D01*
X042812Y020726D01*
X042659Y020726D02*
X042659Y020936D01*
X042607Y020988D01*
X042502Y020988D01*
X042450Y020936D01*
X042450Y020726D01*
X042502Y020674D01*
X042607Y020674D01*
X042659Y020726D01*
X042865Y020988D02*
X042969Y020988D01*
X043022Y020936D01*
X043175Y020988D02*
X043279Y020988D01*
X043227Y020988D02*
X043227Y020674D01*
X043175Y020674D02*
X043279Y020674D01*
X043235Y020398D02*
X043104Y020398D01*
X043039Y020332D01*
X043170Y020201D02*
X043235Y020201D01*
X043301Y020136D01*
X043301Y020070D01*
X043235Y020005D01*
X043104Y020005D01*
X043039Y020070D01*
X042887Y020070D02*
X042887Y020005D01*
X042821Y020005D01*
X042821Y020070D01*
X042887Y020070D01*
X042648Y020005D02*
X042386Y020005D01*
X042648Y020267D01*
X042648Y020332D01*
X042583Y020398D01*
X042452Y020398D01*
X042386Y020332D01*
X042213Y020332D02*
X042213Y020201D01*
X042148Y020136D01*
X041951Y020136D01*
X041951Y020005D02*
X041951Y020398D01*
X042148Y020398D01*
X042213Y020332D01*
X042297Y020674D02*
X042297Y020988D01*
X042192Y020883D01*
X042087Y020988D01*
X042087Y020674D01*
X042310Y019849D02*
X043035Y019849D01*
X042869Y019689D02*
X042765Y019689D01*
X042712Y019637D01*
X042712Y019584D01*
X042765Y019532D01*
X042869Y019532D01*
X042922Y019480D01*
X042922Y019427D01*
X042869Y019375D01*
X042765Y019375D01*
X042712Y019427D01*
X042559Y019427D02*
X042507Y019375D01*
X042402Y019375D01*
X042350Y019427D01*
X042350Y019637D01*
X042402Y019689D01*
X042507Y019689D01*
X042559Y019637D01*
X042869Y019689D02*
X042922Y019637D01*
X043065Y019177D02*
X042999Y019112D01*
X043065Y019177D02*
X043196Y019177D01*
X043261Y019112D01*
X043261Y019046D01*
X042999Y018784D01*
X043261Y018784D01*
X042847Y018784D02*
X042782Y018784D01*
X042782Y018850D01*
X042847Y018850D01*
X042847Y018784D01*
X042609Y018784D02*
X042347Y018784D01*
X042609Y019046D01*
X042609Y019112D01*
X042543Y019177D01*
X042412Y019177D01*
X042347Y019112D01*
X042174Y019112D02*
X042174Y018981D01*
X042108Y018915D01*
X041912Y018915D01*
X041912Y018784D02*
X041912Y019177D01*
X042108Y019177D01*
X042174Y019112D01*
X042148Y018350D02*
X041951Y018350D01*
X041951Y017958D01*
X041951Y018089D02*
X042148Y018089D01*
X042213Y018154D01*
X042213Y018285D01*
X042148Y018350D01*
X042386Y018285D02*
X042452Y018350D01*
X042583Y018350D01*
X042648Y018285D01*
X042648Y018219D01*
X042386Y017958D01*
X042648Y017958D01*
X042821Y017958D02*
X042887Y017958D01*
X042887Y018023D01*
X042821Y018023D01*
X042821Y017958D01*
X043039Y017958D02*
X043301Y017958D01*
X043170Y017958D02*
X043170Y018350D01*
X043039Y018219D01*
X043039Y017366D02*
X043301Y017366D01*
X043301Y017301D01*
X043039Y017039D01*
X043039Y016973D01*
X042887Y016973D02*
X042821Y016973D01*
X042821Y017039D01*
X042887Y017039D01*
X042887Y016973D01*
X042648Y017039D02*
X042583Y016973D01*
X042452Y016973D01*
X042386Y017039D01*
X042648Y017301D01*
X042648Y017039D01*
X042648Y017301D02*
X042583Y017366D01*
X042452Y017366D01*
X042386Y017301D01*
X042386Y017039D01*
X042213Y017170D02*
X042148Y017104D01*
X041951Y017104D01*
X041951Y016973D02*
X041951Y017366D01*
X042148Y017366D01*
X042213Y017301D01*
X042213Y017170D01*
X042148Y016382D02*
X041951Y016382D01*
X041951Y015989D01*
X041951Y016120D02*
X042148Y016120D01*
X042213Y016185D01*
X042213Y016316D01*
X042148Y016382D01*
X042386Y016316D02*
X042452Y016382D01*
X042583Y016382D01*
X042648Y016316D01*
X042386Y016055D01*
X042452Y015989D01*
X042583Y015989D01*
X042648Y016055D01*
X042648Y016316D01*
X042386Y016316D02*
X042386Y016055D01*
X042821Y016055D02*
X042887Y016055D01*
X042887Y015989D01*
X042821Y015989D01*
X042821Y016055D01*
X043039Y016055D02*
X043104Y015989D01*
X043235Y015989D01*
X043301Y016055D01*
X043301Y016120D01*
X043235Y016185D01*
X043039Y016185D01*
X043039Y016055D01*
X043039Y016185D02*
X043170Y016316D01*
X043301Y016382D01*
X043301Y015437D02*
X043039Y015437D01*
X043039Y015241D01*
X043170Y015306D01*
X043235Y015306D01*
X043301Y015241D01*
X043301Y015110D01*
X043235Y015044D01*
X043104Y015044D01*
X043039Y015110D01*
X042887Y015110D02*
X042887Y015044D01*
X042821Y015044D01*
X042821Y015110D01*
X042887Y015110D01*
X042648Y015110D02*
X042583Y015044D01*
X042452Y015044D01*
X042386Y015110D01*
X042648Y015372D01*
X042648Y015110D01*
X042648Y015372D02*
X042583Y015437D01*
X042452Y015437D01*
X042386Y015372D01*
X042386Y015110D01*
X042213Y015241D02*
X042148Y015175D01*
X041951Y015175D01*
X041951Y015044D02*
X041951Y015437D01*
X042148Y015437D01*
X042213Y015372D01*
X042213Y015241D01*
X042148Y014374D02*
X041951Y014374D01*
X041951Y013981D01*
X041951Y014112D02*
X042148Y014112D01*
X042213Y014178D01*
X042213Y014309D01*
X042148Y014374D01*
X042386Y014309D02*
X042452Y014374D01*
X042583Y014374D01*
X042648Y014309D01*
X042386Y014047D01*
X042452Y013981D01*
X042583Y013981D01*
X042648Y014047D01*
X042648Y014309D01*
X042386Y014309D02*
X042386Y014047D01*
X042821Y014047D02*
X042821Y013981D01*
X042887Y013981D01*
X042887Y014047D01*
X042821Y014047D01*
X043039Y014178D02*
X043301Y014178D01*
X043235Y014374D02*
X043235Y013981D01*
X043039Y014178D02*
X043235Y014374D01*
X043570Y013429D02*
X043780Y013115D01*
X043933Y013115D02*
X044142Y013324D01*
X044142Y013377D01*
X044090Y013429D01*
X043985Y013429D01*
X043933Y013377D01*
X043780Y013429D02*
X043570Y013115D01*
X043933Y013115D02*
X044142Y013115D01*
X041319Y013193D02*
X041188Y013193D01*
X041253Y013258D02*
X041253Y012996D01*
X041319Y012931D01*
X041015Y012931D02*
X041015Y013193D01*
X041015Y012931D02*
X040818Y012931D01*
X040753Y012996D01*
X040753Y013193D01*
X040580Y013127D02*
X040514Y013193D01*
X040383Y013193D01*
X040318Y013127D01*
X040318Y012996D01*
X040383Y012931D01*
X040514Y012931D01*
X040580Y012996D01*
X040580Y013127D01*
X040152Y013193D02*
X039955Y013062D01*
X040152Y012931D01*
X039955Y012931D02*
X039955Y013324D01*
X039782Y013127D02*
X039782Y012931D01*
X039586Y012931D01*
X039520Y012996D01*
X039586Y013062D01*
X039782Y013062D01*
X039782Y013127D02*
X039717Y013193D01*
X039586Y013193D01*
X039354Y013193D02*
X039289Y013193D01*
X039158Y013062D01*
X039158Y012931D02*
X039158Y013193D01*
X038984Y013127D02*
X038919Y013193D01*
X038723Y013193D01*
X038723Y013324D02*
X038723Y012931D01*
X038919Y012931D01*
X038984Y012996D01*
X038984Y013127D01*
X038423Y012778D02*
X038292Y012778D01*
X038357Y012778D02*
X038357Y012385D01*
X038292Y012385D02*
X038423Y012385D01*
X038582Y012319D02*
X038844Y012319D01*
X038119Y012385D02*
X037922Y012581D01*
X037857Y012516D02*
X038119Y012778D01*
X038114Y012931D02*
X037853Y013324D01*
X037679Y013258D02*
X037679Y013193D01*
X037614Y013127D01*
X037483Y013127D01*
X037418Y013193D01*
X037418Y013258D01*
X037483Y013324D01*
X037614Y013324D01*
X037679Y013258D01*
X037614Y013127D02*
X037679Y013062D01*
X037679Y012996D01*
X037614Y012931D01*
X037483Y012931D01*
X037418Y012996D01*
X037418Y013062D01*
X037483Y013127D01*
X037244Y013127D02*
X037244Y012996D01*
X037179Y012931D01*
X037048Y012931D01*
X036983Y012996D01*
X036983Y013127D02*
X037113Y013193D01*
X037179Y013193D01*
X037244Y013127D01*
X037244Y013324D02*
X036983Y013324D01*
X036983Y013127D01*
X036809Y013127D02*
X036548Y013127D01*
X036744Y013324D01*
X036744Y012931D01*
X036748Y012778D02*
X036552Y012581D01*
X036814Y012581D01*
X036748Y012385D02*
X036748Y012778D01*
X036987Y012778D02*
X037249Y012778D01*
X037249Y012712D01*
X036987Y012450D01*
X036987Y012385D01*
X037249Y012385D01*
X037422Y012450D02*
X037422Y012778D01*
X037684Y012778D02*
X037684Y012450D01*
X037618Y012385D01*
X037487Y012385D01*
X037422Y012450D01*
X037857Y012385D02*
X037857Y012778D01*
X037853Y012931D02*
X038114Y013324D01*
X036374Y012931D02*
X036112Y012931D01*
X036243Y012931D02*
X036243Y013324D01*
X036112Y013193D01*
X035939Y013193D02*
X035939Y012931D01*
X035939Y013127D02*
X035677Y013127D01*
X035677Y013193D02*
X035808Y013324D01*
X035939Y013193D01*
X035677Y013193D02*
X035677Y012931D01*
X035504Y012996D02*
X035504Y013258D01*
X035439Y013324D01*
X035242Y013324D01*
X035242Y012931D01*
X035439Y012931D01*
X035504Y012996D01*
X035443Y012778D02*
X035509Y012712D01*
X035509Y012581D01*
X035443Y012516D01*
X035443Y012647D01*
X035312Y012647D01*
X035312Y012516D01*
X035443Y012516D01*
X035509Y012450D02*
X035443Y012385D01*
X035312Y012385D01*
X035247Y012450D01*
X035247Y012712D01*
X035312Y012778D01*
X035443Y012778D01*
X035682Y012319D02*
X035944Y012319D01*
X036117Y012385D02*
X036117Y012778D01*
X036182Y012581D02*
X036379Y012385D01*
X036117Y012516D02*
X036379Y012778D01*
X038814Y017288D02*
X038814Y019177D01*
X038751Y019493D02*
X038542Y019493D01*
X038647Y019493D02*
X038647Y019807D01*
X038542Y019702D01*
X038389Y019755D02*
X038336Y019807D01*
X038232Y019807D01*
X038179Y019755D01*
X038179Y019545D01*
X038232Y019493D01*
X038336Y019493D01*
X038389Y019545D01*
X038042Y019493D02*
X037938Y019493D01*
X037990Y019493D02*
X037990Y019807D01*
X037938Y019807D02*
X038042Y019807D01*
X038426Y021107D02*
X038531Y021107D01*
X038583Y021160D01*
X038736Y021160D02*
X038788Y021107D01*
X038893Y021107D01*
X038945Y021160D01*
X038945Y021369D01*
X038893Y021421D01*
X038788Y021421D01*
X038736Y021369D01*
X038736Y021317D01*
X038788Y021264D01*
X038945Y021264D01*
X038583Y021369D02*
X038531Y021421D01*
X038426Y021421D01*
X038374Y021369D01*
X038374Y021160D01*
X038426Y021107D01*
X039555Y021120D02*
X039607Y021068D01*
X039712Y021068D01*
X039764Y021120D01*
X039917Y021120D02*
X039969Y021068D01*
X040074Y021068D01*
X040126Y021120D01*
X040126Y021172D01*
X040074Y021225D01*
X040022Y021225D01*
X040074Y021225D02*
X040126Y021277D01*
X040126Y021329D01*
X040074Y021382D01*
X039969Y021382D01*
X039917Y021329D01*
X039764Y021329D02*
X039712Y021382D01*
X039607Y021382D01*
X039555Y021329D01*
X039555Y021120D01*
X039605Y020160D02*
X039553Y020108D01*
X039553Y019899D01*
X039605Y019846D01*
X039710Y019846D01*
X039762Y019899D01*
X039915Y020003D02*
X040125Y020003D01*
X040072Y019846D02*
X040072Y020160D01*
X039915Y020003D01*
X039762Y020108D02*
X039710Y020160D01*
X039605Y020160D01*
X039917Y019177D02*
X039917Y017288D01*
X043235Y020201D02*
X043301Y020267D01*
X043301Y020332D01*
X043235Y020398D01*
X043314Y021147D02*
X043314Y021539D01*
X043117Y021343D01*
X043379Y021343D01*
X035323Y023863D02*
X035114Y023863D01*
X035323Y024072D01*
X035323Y024125D01*
X035271Y024177D01*
X035166Y024177D01*
X035114Y024125D01*
X034961Y024125D02*
X034908Y024177D01*
X034804Y024177D01*
X034751Y024125D01*
X034751Y023915D01*
X034804Y023863D01*
X034908Y023863D01*
X034961Y023915D01*
X034260Y023863D02*
X034051Y023863D01*
X034156Y023863D02*
X034156Y024177D01*
X034051Y024072D01*
X033898Y024125D02*
X033845Y024177D01*
X033741Y024177D01*
X033689Y024125D01*
X033689Y023915D01*
X033741Y023863D01*
X033845Y023863D01*
X033898Y023915D01*
X033873Y024965D02*
X033873Y025358D01*
X034069Y025358D01*
X034135Y025293D01*
X034135Y025162D01*
X034069Y025096D01*
X033873Y025096D01*
X033700Y025096D02*
X033700Y025358D01*
X033700Y025096D02*
X033569Y024965D01*
X033438Y025096D01*
X033438Y025358D01*
X033447Y025989D02*
X033447Y026382D01*
X033644Y026382D01*
X033709Y026316D01*
X033709Y026185D01*
X033644Y026120D01*
X033447Y026120D01*
X033882Y025989D02*
X034144Y026251D01*
X034144Y026316D01*
X034079Y026382D01*
X033948Y026382D01*
X033882Y026316D01*
X033882Y025989D02*
X034144Y025989D01*
X034317Y025989D02*
X034383Y025989D01*
X034383Y026055D01*
X034317Y026055D01*
X034317Y025989D01*
X034535Y026055D02*
X034535Y026120D01*
X034600Y026185D01*
X034731Y026185D01*
X034797Y026120D01*
X034797Y026055D01*
X034731Y025989D01*
X034600Y025989D01*
X034535Y026055D01*
X034600Y026185D02*
X034535Y026251D01*
X034535Y026316D01*
X034600Y026382D01*
X034731Y026382D01*
X034797Y026316D01*
X034797Y026251D01*
X034731Y026185D01*
X034504Y025358D02*
X034570Y025293D01*
X034570Y025162D01*
X034504Y025096D01*
X034308Y025096D01*
X034308Y024965D02*
X034308Y025358D01*
X034504Y025358D01*
X034535Y026934D02*
X034535Y026999D01*
X034797Y027261D01*
X034797Y027327D01*
X034535Y027327D01*
X034383Y026999D02*
X034383Y026934D01*
X034317Y026934D01*
X034317Y026999D01*
X034383Y026999D01*
X034144Y026934D02*
X033882Y026934D01*
X034144Y027196D01*
X034144Y027261D01*
X034079Y027327D01*
X033948Y027327D01*
X033882Y027261D01*
X033709Y027261D02*
X033709Y027130D01*
X033644Y027065D01*
X033447Y027065D01*
X033447Y026934D02*
X033447Y027327D01*
X033644Y027327D01*
X033709Y027261D01*
X027159Y027511D02*
X027159Y027577D01*
X027093Y027642D01*
X026897Y027642D01*
X026897Y027511D01*
X026962Y027446D01*
X027093Y027446D01*
X027159Y027511D01*
X027028Y027773D02*
X026897Y027642D01*
X027028Y027773D02*
X027159Y027839D01*
X026745Y027511D02*
X026745Y027446D01*
X026679Y027446D01*
X026679Y027511D01*
X026745Y027511D01*
X026506Y027446D02*
X026244Y027446D01*
X026506Y027708D01*
X026506Y027773D01*
X026441Y027839D01*
X026310Y027839D01*
X026244Y027773D01*
X026071Y027773D02*
X026071Y027642D01*
X026006Y027577D01*
X025809Y027577D01*
X025809Y027446D02*
X025809Y027839D01*
X026006Y027839D01*
X026071Y027773D01*
X026152Y027012D02*
X026087Y026946D01*
X026152Y027012D02*
X026283Y027012D01*
X026349Y026946D01*
X026349Y026881D01*
X026087Y026619D01*
X026349Y026619D01*
X026522Y026619D02*
X026587Y026619D01*
X026587Y026684D01*
X026522Y026684D01*
X026522Y026619D01*
X026739Y026684D02*
X026805Y026619D01*
X026936Y026619D01*
X027001Y026684D01*
X027001Y026815D01*
X026936Y026881D01*
X026870Y026881D01*
X026739Y026815D01*
X026739Y027012D01*
X027001Y027012D01*
X025914Y026946D02*
X025914Y026815D01*
X025848Y026750D01*
X025652Y026750D01*
X025652Y026619D02*
X025652Y027012D01*
X025848Y027012D01*
X025914Y026946D01*
X024347Y026172D02*
X024295Y026224D01*
X024190Y026224D01*
X024138Y026172D01*
X023985Y026172D02*
X023985Y025963D01*
X023932Y025910D01*
X023828Y025910D01*
X023775Y025963D01*
X023775Y026172D01*
X023828Y026224D01*
X023932Y026224D01*
X023985Y026172D01*
X023880Y026015D02*
X023985Y025910D01*
X024138Y025910D02*
X024347Y026120D01*
X024347Y026172D01*
X024347Y025910D02*
X024138Y025910D01*
X022252Y026750D02*
X022252Y026802D01*
X022200Y026855D01*
X022043Y026855D01*
X022043Y026750D01*
X022095Y026698D01*
X022200Y026698D01*
X022252Y026750D01*
X022148Y026959D02*
X022043Y026855D01*
X022148Y026959D02*
X022252Y027012D01*
X021890Y026959D02*
X021838Y027012D01*
X021733Y027012D01*
X021681Y026959D01*
X021681Y026750D01*
X021733Y026698D01*
X021838Y026698D01*
X021890Y026750D01*
X021728Y026382D02*
X021780Y026329D01*
X021780Y026277D01*
X021728Y026225D01*
X021623Y026225D01*
X021571Y026277D01*
X021571Y026329D01*
X021623Y026382D01*
X021728Y026382D01*
X021728Y026225D02*
X021780Y026172D01*
X021780Y026120D01*
X021728Y026068D01*
X021623Y026068D01*
X021571Y026120D01*
X021571Y026172D01*
X021623Y026225D01*
X021418Y026329D02*
X021365Y026382D01*
X021261Y026382D01*
X021208Y026329D01*
X021208Y026120D01*
X021261Y026068D01*
X021365Y026068D01*
X021418Y026120D01*
X021282Y025516D02*
X021282Y025202D01*
X021386Y025202D02*
X021177Y025202D01*
X021024Y025254D02*
X021024Y025516D01*
X021177Y025411D02*
X021282Y025516D01*
X021024Y025254D02*
X020971Y025202D01*
X020867Y025202D01*
X020814Y025254D01*
X020814Y025516D01*
X020667Y024689D02*
X020667Y024375D01*
X020563Y024375D02*
X020772Y024375D01*
X020925Y024427D02*
X020978Y024375D01*
X021082Y024375D01*
X021135Y024427D01*
X021135Y024637D01*
X020925Y024427D01*
X020925Y024637D01*
X020978Y024689D01*
X021082Y024689D01*
X021135Y024637D01*
X020667Y024689D02*
X020563Y024584D01*
X020409Y024637D02*
X020357Y024689D01*
X020252Y024689D01*
X020200Y024637D01*
X020200Y024427D01*
X020252Y024375D01*
X020357Y024375D01*
X020409Y024427D01*
X019182Y024125D02*
X019129Y024177D01*
X019025Y024177D01*
X018972Y024125D01*
X018819Y024125D02*
X018767Y024177D01*
X018662Y024177D01*
X018610Y024125D01*
X018610Y023915D01*
X018662Y023863D01*
X018767Y023863D01*
X018819Y023915D01*
X018972Y023863D02*
X019182Y024072D01*
X019182Y024125D01*
X019182Y023863D02*
X018972Y023863D01*
X018119Y023863D02*
X017909Y023863D01*
X018014Y023863D02*
X018014Y024177D01*
X017909Y024072D01*
X017756Y024125D02*
X017704Y024177D01*
X017599Y024177D01*
X017547Y024125D01*
X017547Y023915D01*
X017599Y023863D01*
X017704Y023863D01*
X017756Y023915D01*
X017731Y024965D02*
X017731Y025358D01*
X017928Y025358D01*
X017993Y025293D01*
X017993Y025162D01*
X017928Y025096D01*
X017731Y025096D01*
X017558Y025096D02*
X017558Y025358D01*
X017558Y025096D02*
X017427Y024965D01*
X017296Y025096D01*
X017296Y025358D01*
X017305Y025989D02*
X017305Y026382D01*
X017502Y026382D01*
X017567Y026316D01*
X017567Y026185D01*
X017502Y026120D01*
X017305Y026120D01*
X017741Y025989D02*
X018002Y026251D01*
X018002Y026316D01*
X017937Y026382D01*
X017806Y026382D01*
X017741Y026316D01*
X017741Y025989D02*
X018002Y025989D01*
X018176Y025989D02*
X018241Y025989D01*
X018241Y026055D01*
X018176Y026055D01*
X018176Y025989D01*
X018393Y026055D02*
X018393Y026120D01*
X018458Y026185D01*
X018589Y026185D01*
X018655Y026120D01*
X018655Y026055D01*
X018589Y025989D01*
X018458Y025989D01*
X018393Y026055D01*
X018458Y026185D02*
X018393Y026251D01*
X018393Y026316D01*
X018458Y026382D01*
X018589Y026382D01*
X018655Y026316D01*
X018655Y026251D01*
X018589Y026185D01*
X018363Y025358D02*
X018428Y025293D01*
X018428Y025162D01*
X018363Y025096D01*
X018166Y025096D01*
X018166Y024965D02*
X018166Y025358D01*
X018363Y025358D01*
X018393Y026934D02*
X018393Y026999D01*
X018655Y027261D01*
X018655Y027327D01*
X018393Y027327D01*
X018241Y026999D02*
X018241Y026934D01*
X018176Y026934D01*
X018176Y026999D01*
X018241Y026999D01*
X018002Y026934D02*
X017741Y026934D01*
X018002Y027196D01*
X018002Y027261D01*
X017937Y027327D01*
X017806Y027327D01*
X017741Y027261D01*
X017567Y027261D02*
X017502Y027327D01*
X017305Y027327D01*
X017305Y026934D01*
X017305Y027065D02*
X017502Y027065D01*
X017567Y027130D01*
X017567Y027261D01*
X021208Y027419D02*
X021261Y027367D01*
X021365Y027367D01*
X021418Y027419D01*
X021571Y027419D02*
X021571Y027367D01*
X021571Y027419D02*
X021780Y027629D01*
X021780Y027681D01*
X021571Y027681D01*
X021418Y027629D02*
X021365Y027681D01*
X021261Y027681D01*
X021208Y027629D01*
X021208Y027419D01*
X021161Y023153D02*
X021213Y023101D01*
X021004Y022892D01*
X021056Y022839D01*
X021161Y022839D01*
X021213Y022892D01*
X021213Y023101D01*
X021161Y023153D02*
X021056Y023153D01*
X021004Y023101D01*
X021004Y022892D01*
X020851Y022892D02*
X020798Y022839D01*
X020694Y022839D01*
X020641Y022892D01*
X020641Y022944D01*
X020694Y022996D01*
X020798Y022996D01*
X020851Y022944D01*
X020851Y022892D01*
X020798Y022996D02*
X020851Y023049D01*
X020851Y023101D01*
X020798Y023153D01*
X020694Y023153D01*
X020641Y023101D01*
X020641Y023049D01*
X020694Y022996D01*
X020488Y022996D02*
X020488Y022892D01*
X020436Y022839D01*
X020331Y022839D01*
X020279Y022892D01*
X020279Y022996D02*
X020384Y023049D01*
X020436Y023049D01*
X020488Y022996D01*
X020488Y023153D02*
X020279Y023153D01*
X020279Y022996D01*
D11*
X020940Y023272D02*
X021255Y023587D01*
X021255Y023784D01*
X021098Y023941D02*
X021100Y023966D01*
X021106Y023990D01*
X021115Y024012D01*
X021128Y024033D01*
X021144Y024052D01*
X021163Y024068D01*
X021184Y024081D01*
X021206Y024090D01*
X021230Y024096D01*
X021255Y024098D01*
X021280Y024096D01*
X021304Y024090D01*
X021326Y024081D01*
X021347Y024068D01*
X021366Y024052D01*
X021382Y024033D01*
X021395Y024012D01*
X021404Y023990D01*
X021410Y023966D01*
X021412Y023941D01*
X021410Y023916D01*
X021404Y023892D01*
X021395Y023870D01*
X021382Y023849D01*
X021366Y023830D01*
X021347Y023814D01*
X021326Y023801D01*
X021304Y023792D01*
X021280Y023786D01*
X021255Y023784D01*
X021230Y023786D01*
X021206Y023792D01*
X021184Y023801D01*
X021163Y023814D01*
X021144Y023830D01*
X021128Y023849D01*
X021115Y023870D01*
X021106Y023892D01*
X021100Y023916D01*
X021098Y023941D01*
X020901Y023941D02*
X020901Y023902D01*
X020507Y023902D01*
X020507Y023862D01*
X020507Y023902D02*
X020507Y023941D01*
X020901Y023902D02*
X020901Y023862D01*
X021728Y022996D02*
X021728Y022878D01*
X021846Y022878D01*
X022121Y022445D02*
X021176Y022445D01*
X021176Y020634D01*
X022121Y020634D01*
X022121Y022445D01*
X022357Y021933D02*
X022357Y021894D01*
X022751Y021894D01*
X022751Y021855D01*
X022751Y021894D02*
X022751Y021933D01*
X022357Y021894D02*
X022357Y021855D01*
X023499Y021973D02*
X023499Y022012D01*
X023893Y022012D01*
X023893Y021973D01*
X023893Y022012D02*
X023893Y022051D01*
X023499Y022051D02*
X023499Y022012D01*
X024169Y022524D02*
X024169Y022681D01*
X024483Y022681D02*
X024483Y022524D01*
X023696Y022878D02*
X023578Y022878D01*
X023696Y022878D02*
X023696Y022996D01*
X023696Y024729D02*
X023696Y024847D01*
X023578Y024847D01*
X024562Y024729D02*
X024562Y024532D01*
X024759Y024532D01*
X025133Y024768D02*
X025251Y024768D01*
X025625Y024532D02*
X025822Y024532D01*
X025822Y024729D01*
X025901Y024414D02*
X025903Y024426D01*
X025908Y024437D01*
X025917Y024446D01*
X025928Y024451D01*
X025940Y024453D01*
X025952Y024451D01*
X025963Y024446D01*
X025972Y024437D01*
X025977Y024426D01*
X025979Y024414D01*
X025977Y024402D01*
X025972Y024391D01*
X025963Y024382D01*
X025952Y024377D01*
X025940Y024375D01*
X025928Y024377D01*
X025917Y024382D01*
X025908Y024391D01*
X025903Y024402D01*
X025901Y024414D01*
X025822Y023862D02*
X026216Y023862D01*
X026885Y025201D01*
X027200Y025201D01*
X027318Y025673D02*
X027869Y025673D01*
X027200Y026185D02*
X027082Y026185D01*
X026767Y026500D01*
X027082Y027130D02*
X027200Y027130D01*
X027082Y027130D02*
X026846Y027366D01*
X025822Y026028D02*
X025822Y025831D01*
X025822Y026028D02*
X025625Y026028D01*
X025251Y025792D02*
X025133Y025792D01*
X024759Y026028D02*
X024562Y026028D01*
X024562Y025831D01*
X024798Y025378D02*
X024798Y025181D01*
X025586Y025181D02*
X025586Y025378D01*
X026688Y024138D02*
X026334Y023429D01*
X025822Y023429D01*
X026688Y024138D02*
X027200Y024138D01*
X027003Y023666D02*
X027869Y023666D01*
X027869Y021658D02*
X025940Y021658D01*
X023775Y019729D02*
X023735Y019729D01*
X023735Y019335D01*
X023775Y019335D01*
X023735Y019335D02*
X023696Y019335D01*
X023775Y019177D02*
X023460Y019177D01*
X023342Y019059D01*
X023106Y019059D01*
X022987Y019177D01*
X022672Y019177D01*
X023696Y019729D02*
X023735Y019729D01*
X025783Y017642D02*
X027869Y017642D01*
X023775Y017288D02*
X022672Y017288D01*
X020797Y015328D02*
X020639Y015486D01*
X020624Y015488D01*
X020439Y015363D01*
X020428Y015361D01*
X020244Y015438D01*
X020237Y015446D01*
X020194Y015666D01*
X020183Y015675D01*
X019959Y015675D01*
X019947Y015666D01*
X019905Y015446D01*
X019898Y015438D01*
X019714Y015361D01*
X019703Y015363D01*
X019518Y015488D01*
X019503Y015486D01*
X019345Y015328D01*
X019343Y015313D01*
X019469Y015128D01*
X019470Y015117D01*
X019394Y014933D01*
X019385Y014926D01*
X019166Y014884D01*
X019156Y014872D01*
X019156Y014648D01*
X019166Y014637D01*
X019385Y014595D01*
X019394Y014587D01*
X019470Y014404D01*
X019469Y014393D01*
X019343Y014207D01*
X019345Y014192D01*
X019503Y014034D01*
X019518Y014033D01*
X019703Y014158D01*
X019714Y014159D01*
X019798Y014124D01*
X019814Y014131D01*
X019969Y014510D01*
X019936Y014492D02*
X019779Y014158D01*
X019700Y014217D01*
X019523Y014059D01*
X019405Y014197D01*
X019503Y014394D01*
X019405Y014630D01*
X019188Y014670D01*
X019188Y014847D01*
X019424Y014906D01*
X019503Y015122D01*
X019385Y015280D01*
X019523Y015437D01*
X019700Y015319D01*
X019936Y015418D01*
X019976Y015634D01*
X020172Y015634D01*
X020212Y015398D01*
X020448Y015319D01*
X020625Y015437D01*
X020743Y015319D01*
X020625Y015122D01*
X020724Y014906D01*
X020940Y014847D01*
X020940Y014670D01*
X020724Y014630D01*
X020625Y014394D01*
X020743Y014197D01*
X020625Y014079D01*
X020448Y014197D01*
X020350Y014177D01*
X020212Y014492D01*
X020389Y014709D01*
X020310Y014965D01*
X020074Y015083D01*
X019798Y014945D01*
X019779Y014689D01*
X019936Y014492D01*
X019923Y014464D02*
X019474Y014464D01*
X019499Y014386D02*
X019886Y014386D01*
X019850Y014309D02*
X019461Y014309D01*
X019422Y014232D02*
X019814Y014232D01*
X019630Y014155D02*
X019441Y014155D01*
X019507Y014077D02*
X019543Y014077D01*
X019442Y014541D02*
X019898Y014541D01*
X019836Y014618D02*
X019410Y014618D01*
X019188Y014695D02*
X019779Y014695D01*
X019785Y014772D02*
X019188Y014772D01*
X019200Y014850D02*
X019791Y014850D01*
X019797Y014927D02*
X019432Y014927D01*
X019460Y015004D02*
X019917Y015004D01*
X020071Y015081D02*
X019488Y015081D01*
X019476Y015159D02*
X020647Y015159D01*
X020673Y015128D02*
X020672Y015117D01*
X020748Y014933D01*
X020757Y014926D01*
X020976Y014884D01*
X020986Y014872D01*
X020986Y014648D01*
X020976Y014637D01*
X020757Y014595D01*
X020748Y014587D01*
X020672Y014404D01*
X020673Y014393D01*
X020798Y014207D01*
X020797Y014192D01*
X020639Y014034D01*
X020624Y014033D01*
X020439Y014158D01*
X020428Y014159D01*
X020343Y014124D01*
X020328Y014131D01*
X020173Y014510D01*
X020224Y014464D02*
X020654Y014464D01*
X020630Y014386D02*
X020258Y014386D01*
X020292Y014309D02*
X020676Y014309D01*
X020722Y014232D02*
X020326Y014232D01*
X020512Y014155D02*
X020701Y014155D01*
X020686Y014541D02*
X020251Y014541D01*
X020315Y014618D02*
X020719Y014618D01*
X020940Y014695D02*
X020378Y014695D01*
X020369Y014772D02*
X020940Y014772D01*
X020929Y014850D02*
X020346Y014850D01*
X020322Y014927D02*
X020714Y014927D01*
X020679Y015004D02*
X020231Y015004D01*
X020077Y015081D02*
X020644Y015081D01*
X020673Y015128D02*
X020798Y015313D01*
X020797Y015328D01*
X020740Y015313D02*
X019414Y015313D01*
X019418Y015236D02*
X020693Y015236D01*
X020672Y015390D02*
X020555Y015390D01*
X020234Y015390D02*
X019871Y015390D01*
X019945Y015468D02*
X020200Y015468D01*
X020187Y015545D02*
X019959Y015545D01*
X019973Y015622D02*
X020174Y015622D01*
X019593Y015390D02*
X019482Y015390D01*
X019956Y014532D02*
X019929Y014548D01*
X019904Y014566D01*
X019881Y014588D01*
X019861Y014612D01*
X019844Y014639D01*
X019830Y014667D01*
X019820Y014697D01*
X019813Y014727D01*
X019810Y014759D01*
X019811Y014790D01*
X019815Y014821D01*
X019823Y014851D01*
X019835Y014880D01*
X019850Y014908D01*
X019868Y014934D01*
X019890Y014957D01*
X019913Y014977D01*
X019939Y014995D01*
X019967Y015009D01*
X019997Y015020D01*
X020027Y015028D01*
X020058Y015032D01*
X020090Y015032D01*
X020121Y015028D01*
X020151Y015020D01*
X020181Y015009D01*
X020209Y014995D01*
X020235Y014977D01*
X020258Y014957D01*
X020280Y014934D01*
X020298Y014908D01*
X020313Y014880D01*
X020325Y014851D01*
X020333Y014821D01*
X020337Y014790D01*
X020338Y014759D01*
X020335Y014727D01*
X020328Y014697D01*
X020318Y014667D01*
X020304Y014639D01*
X020287Y014612D01*
X020267Y014588D01*
X020244Y014566D01*
X020219Y014548D01*
X020192Y014532D01*
X019239Y012173D02*
X019239Y011048D01*
X023826Y011048D01*
X023826Y012173D01*
X019239Y012173D01*
X019239Y012146D02*
X023826Y012146D01*
X023826Y012069D02*
X019239Y012069D01*
X019239Y011992D02*
X023826Y011992D01*
X023826Y011915D02*
X019239Y011915D01*
X019239Y011837D02*
X023826Y011837D01*
X023826Y011760D02*
X019239Y011760D01*
X019239Y011683D02*
X023826Y011683D01*
X023826Y011606D02*
X019239Y011606D01*
X019239Y011528D02*
X023826Y011528D01*
X023826Y011451D02*
X019239Y011451D01*
X019239Y011374D02*
X023826Y011374D01*
X023826Y011297D02*
X019239Y011297D01*
X019239Y011219D02*
X023826Y011219D01*
X023826Y011142D02*
X019239Y011142D01*
X019239Y011065D02*
X023826Y011065D01*
X024405Y012209D02*
X024407Y012259D01*
X024413Y012309D01*
X024423Y012358D01*
X024437Y012406D01*
X024454Y012453D01*
X024475Y012498D01*
X024500Y012542D01*
X024528Y012583D01*
X024560Y012622D01*
X024594Y012659D01*
X024631Y012693D01*
X024671Y012723D01*
X024713Y012750D01*
X024757Y012774D01*
X024803Y012795D01*
X024850Y012811D01*
X024898Y012824D01*
X024948Y012833D01*
X024997Y012838D01*
X025048Y012839D01*
X025098Y012836D01*
X025147Y012829D01*
X025196Y012818D01*
X025244Y012803D01*
X025290Y012785D01*
X025335Y012763D01*
X025378Y012737D01*
X025419Y012708D01*
X025458Y012676D01*
X025494Y012641D01*
X025526Y012603D01*
X025556Y012563D01*
X025583Y012520D01*
X025606Y012476D01*
X025625Y012430D01*
X025641Y012382D01*
X025653Y012333D01*
X025661Y012284D01*
X025665Y012234D01*
X025665Y012184D01*
X025661Y012134D01*
X025653Y012085D01*
X025641Y012036D01*
X025625Y011988D01*
X025606Y011942D01*
X025583Y011898D01*
X025556Y011855D01*
X025526Y011815D01*
X025494Y011777D01*
X025458Y011742D01*
X025419Y011710D01*
X025378Y011681D01*
X025335Y011655D01*
X025290Y011633D01*
X025244Y011615D01*
X025196Y011600D01*
X025147Y011589D01*
X025098Y011582D01*
X025048Y011579D01*
X024997Y011580D01*
X024948Y011585D01*
X024898Y011594D01*
X024850Y011607D01*
X024803Y011623D01*
X024757Y011644D01*
X024713Y011668D01*
X024671Y011695D01*
X024631Y011725D01*
X024594Y011759D01*
X024560Y011796D01*
X024528Y011835D01*
X024500Y011876D01*
X024475Y011920D01*
X024454Y011965D01*
X024437Y012012D01*
X024423Y012060D01*
X024413Y012109D01*
X024407Y012159D01*
X024405Y012209D01*
X027779Y013626D02*
X028172Y014020D01*
X028172Y013626D01*
X027779Y013626D01*
X027844Y013691D02*
X028172Y013691D01*
X028172Y013768D02*
X027921Y013768D01*
X027998Y013846D02*
X028172Y013846D01*
X028172Y013923D02*
X028075Y013923D01*
X028153Y014000D02*
X028172Y014000D01*
X033302Y017673D02*
X034814Y017673D01*
X033735Y018862D02*
X033420Y019177D01*
X033302Y019666D02*
X032735Y019666D01*
X034011Y019256D02*
X034641Y019256D01*
X034641Y019689D02*
X034641Y020004D01*
X034641Y020437D02*
X034444Y020437D01*
X034442Y020417D01*
X034437Y020397D01*
X034428Y020378D01*
X034416Y020361D01*
X034402Y020347D01*
X034385Y020335D01*
X034366Y020326D01*
X034346Y020321D01*
X034326Y020319D01*
X034306Y020321D01*
X034286Y020326D01*
X034267Y020335D01*
X034250Y020347D01*
X034236Y020361D01*
X034224Y020378D01*
X034215Y020397D01*
X034210Y020417D01*
X034208Y020437D01*
X034011Y020437D01*
X034011Y020634D02*
X034050Y020634D01*
X034050Y021028D01*
X034090Y021028D01*
X034050Y021028D02*
X034011Y021028D01*
X034050Y020634D02*
X034090Y020634D01*
X033656Y020516D02*
X033658Y020534D01*
X033664Y020550D01*
X033673Y020565D01*
X033686Y020578D01*
X033701Y020587D01*
X033717Y020593D01*
X033735Y020595D01*
X033753Y020593D01*
X033769Y020587D01*
X033784Y020578D01*
X033797Y020565D01*
X033806Y020550D01*
X033812Y020534D01*
X033814Y020516D01*
X033812Y020498D01*
X033806Y020482D01*
X033797Y020467D01*
X033784Y020454D01*
X033769Y020445D01*
X033753Y020439D01*
X033735Y020437D01*
X033717Y020439D01*
X033701Y020445D01*
X033686Y020454D01*
X033673Y020467D01*
X033664Y020482D01*
X033658Y020498D01*
X033656Y020516D01*
X033302Y020673D02*
X032476Y020673D01*
X034184Y021626D02*
X034184Y022630D01*
X034298Y022630D01*
X034365Y022563D01*
X034523Y022563D01*
X034590Y022630D01*
X034700Y022630D01*
X034700Y021626D01*
X034184Y021626D01*
X034917Y021028D02*
X034956Y021028D01*
X034956Y020634D01*
X034995Y020634D01*
X034956Y020634D02*
X034917Y020634D01*
X034956Y021028D02*
X034995Y021028D01*
X034031Y022788D02*
X033672Y022788D01*
X033302Y022642D02*
X032460Y022642D01*
X033617Y023272D02*
X033617Y023311D01*
X034011Y023311D01*
X034011Y023351D01*
X034011Y023311D02*
X034011Y023272D01*
X033617Y023311D02*
X033617Y023351D01*
X034877Y023311D02*
X034877Y023351D01*
X034877Y023311D02*
X035271Y023311D01*
X035271Y023351D01*
X035271Y023311D02*
X035271Y023272D01*
X034877Y023272D02*
X034877Y023311D01*
X036649Y023862D02*
X036649Y023902D01*
X037043Y023902D01*
X037043Y023862D01*
X037043Y023902D02*
X037043Y023941D01*
X037240Y023941D02*
X037242Y023966D01*
X037248Y023990D01*
X037257Y024012D01*
X037270Y024033D01*
X037286Y024052D01*
X037305Y024068D01*
X037326Y024081D01*
X037348Y024090D01*
X037372Y024096D01*
X037397Y024098D01*
X037422Y024096D01*
X037446Y024090D01*
X037468Y024081D01*
X037489Y024068D01*
X037508Y024052D01*
X037524Y024033D01*
X037537Y024012D01*
X037546Y023990D01*
X037552Y023966D01*
X037554Y023941D01*
X037552Y023916D01*
X037546Y023892D01*
X037537Y023870D01*
X037524Y023849D01*
X037508Y023830D01*
X037489Y023814D01*
X037468Y023801D01*
X037446Y023792D01*
X037422Y023786D01*
X037397Y023784D01*
X037372Y023786D01*
X037348Y023792D01*
X037326Y023801D01*
X037305Y023814D01*
X037286Y023830D01*
X037270Y023849D01*
X037257Y023870D01*
X037248Y023892D01*
X037242Y023916D01*
X037240Y023941D01*
X037397Y023784D02*
X037397Y023587D01*
X037082Y023272D01*
X036649Y023902D02*
X036649Y023941D01*
X037869Y024729D02*
X037869Y024847D01*
X037987Y024847D01*
X037673Y025004D02*
X037675Y025016D01*
X037680Y025027D01*
X037689Y025036D01*
X037700Y025041D01*
X037712Y025043D01*
X037724Y025041D01*
X037735Y025036D01*
X037744Y025027D01*
X037749Y025016D01*
X037751Y025004D01*
X037749Y024992D01*
X037744Y024981D01*
X037735Y024972D01*
X037724Y024967D01*
X037712Y024965D01*
X037700Y024967D01*
X037689Y024972D01*
X037680Y024981D01*
X037675Y024992D01*
X037673Y025004D01*
X037601Y025004D02*
X037603Y025024D01*
X037608Y025044D01*
X037618Y025062D01*
X037630Y025079D01*
X037645Y025093D01*
X037663Y025103D01*
X037682Y025111D01*
X037702Y025115D01*
X037722Y025115D01*
X037742Y025111D01*
X037761Y025103D01*
X037779Y025093D01*
X037794Y025079D01*
X037806Y025062D01*
X037816Y025044D01*
X037821Y025024D01*
X037823Y025004D01*
X037821Y024984D01*
X037816Y024964D01*
X037806Y024946D01*
X037794Y024929D01*
X037779Y024915D01*
X037761Y024905D01*
X037742Y024897D01*
X037722Y024893D01*
X037702Y024893D01*
X037682Y024897D01*
X037663Y024905D01*
X037645Y024915D01*
X037630Y024929D01*
X037618Y024946D01*
X037608Y024964D01*
X037603Y024984D01*
X037601Y025004D01*
X038657Y025988D02*
X038696Y025988D01*
X038696Y026382D01*
X038657Y026382D01*
X038696Y026382D02*
X038735Y026382D01*
X038735Y025988D02*
X038696Y025988D01*
X038735Y026815D02*
X038735Y026855D01*
X039129Y026855D01*
X039129Y026894D01*
X039129Y026855D02*
X039129Y026815D01*
X038735Y026855D02*
X038735Y026894D01*
X038735Y027327D02*
X038696Y027327D01*
X038696Y027721D01*
X038657Y027721D01*
X038696Y027721D02*
X038735Y027721D01*
X038696Y027327D02*
X038657Y027327D01*
X040704Y026028D02*
X040901Y026028D01*
X040704Y026028D02*
X040704Y025831D01*
X040940Y025378D02*
X040940Y025181D01*
X041275Y024768D02*
X041393Y024768D01*
X041767Y024532D02*
X041964Y024532D01*
X041964Y024729D01*
X042043Y024414D02*
X042045Y024426D01*
X042050Y024437D01*
X042059Y024446D01*
X042070Y024451D01*
X042082Y024453D01*
X042094Y024451D01*
X042105Y024446D01*
X042114Y024437D01*
X042119Y024426D01*
X042121Y024414D01*
X042119Y024402D01*
X042114Y024391D01*
X042105Y024382D01*
X042094Y024377D01*
X042082Y024375D01*
X042070Y024377D01*
X042059Y024382D01*
X042050Y024391D01*
X042045Y024402D01*
X042043Y024414D01*
X041964Y023862D02*
X042357Y023862D01*
X043027Y025201D01*
X043342Y025201D01*
X043460Y025673D02*
X044011Y025673D01*
X043342Y026185D02*
X043224Y026185D01*
X042909Y026500D01*
X043224Y027130D02*
X043342Y027130D01*
X043224Y027130D02*
X042987Y027366D01*
X041964Y026028D02*
X041964Y025831D01*
X041964Y026028D02*
X041767Y026028D01*
X041393Y025792D02*
X041275Y025792D01*
X041728Y025378D02*
X041728Y025181D01*
X040901Y024532D02*
X040704Y024532D01*
X040704Y024729D01*
X039838Y024729D02*
X039838Y024847D01*
X039720Y024847D01*
X041964Y023429D02*
X042476Y023429D01*
X042830Y024138D01*
X043342Y024138D01*
X043145Y023666D02*
X044011Y023666D01*
X044011Y021658D02*
X042082Y021658D01*
X040625Y022524D02*
X040625Y022681D01*
X040310Y022681D02*
X040310Y022524D01*
X040035Y022051D02*
X040035Y022012D01*
X039641Y022012D01*
X039641Y021973D01*
X039641Y022012D02*
X039641Y022051D01*
X040035Y022012D02*
X040035Y021973D01*
X039838Y022878D02*
X039720Y022878D01*
X039838Y022878D02*
X039838Y022996D01*
X038893Y021933D02*
X038893Y021894D01*
X038499Y021894D01*
X038499Y021855D01*
X038499Y021894D02*
X038499Y021933D01*
X038893Y021894D02*
X038893Y021855D01*
X038263Y022445D02*
X037318Y022445D01*
X037318Y020634D01*
X038263Y020634D01*
X038263Y022445D01*
X037987Y022878D02*
X037869Y022878D01*
X037869Y022996D01*
X033302Y024658D02*
X032735Y024658D01*
X032751Y025673D02*
X033302Y025673D01*
X032448Y027327D02*
X032448Y027721D01*
X032842Y027721D01*
X032448Y027327D01*
X032448Y027363D02*
X032484Y027363D01*
X032448Y027440D02*
X032561Y027440D01*
X032638Y027517D02*
X032448Y027517D01*
X032448Y027594D02*
X032715Y027594D01*
X032793Y027672D02*
X032448Y027672D01*
X022987Y026894D02*
X022987Y026855D01*
X022594Y026855D01*
X022594Y026894D01*
X022594Y026855D02*
X022594Y026815D01*
X022987Y026815D02*
X022987Y026855D01*
X022594Y026382D02*
X022554Y026382D01*
X022554Y025988D01*
X022515Y025988D01*
X022554Y025988D02*
X022594Y025988D01*
X022554Y026382D02*
X022515Y026382D01*
X022554Y027327D02*
X022515Y027327D01*
X022554Y027327D02*
X022554Y027721D01*
X022515Y027721D01*
X022554Y027721D02*
X022594Y027721D01*
X022594Y027327D02*
X022554Y027327D01*
X021531Y025004D02*
X021533Y025016D01*
X021538Y025027D01*
X021547Y025036D01*
X021558Y025041D01*
X021570Y025043D01*
X021582Y025041D01*
X021593Y025036D01*
X021602Y025027D01*
X021607Y025016D01*
X021609Y025004D01*
X021607Y024992D01*
X021602Y024981D01*
X021593Y024972D01*
X021582Y024967D01*
X021570Y024965D01*
X021558Y024967D01*
X021547Y024972D01*
X021538Y024981D01*
X021533Y024992D01*
X021531Y025004D01*
X021459Y025004D02*
X021461Y025024D01*
X021466Y025044D01*
X021476Y025062D01*
X021488Y025079D01*
X021503Y025093D01*
X021521Y025103D01*
X021540Y025111D01*
X021560Y025115D01*
X021580Y025115D01*
X021600Y025111D01*
X021619Y025103D01*
X021637Y025093D01*
X021652Y025079D01*
X021664Y025062D01*
X021674Y025044D01*
X021679Y025024D01*
X021681Y025004D01*
X021679Y024984D01*
X021674Y024964D01*
X021664Y024946D01*
X021652Y024929D01*
X021637Y024915D01*
X021619Y024905D01*
X021600Y024897D01*
X021580Y024893D01*
X021560Y024893D01*
X021540Y024897D01*
X021521Y024905D01*
X021503Y024915D01*
X021488Y024929D01*
X021476Y024946D01*
X021466Y024964D01*
X021461Y024984D01*
X021459Y025004D01*
X021728Y024847D02*
X021846Y024847D01*
X021728Y024847D02*
X021728Y024729D01*
X019129Y023351D02*
X019129Y023311D01*
X018735Y023311D01*
X018735Y023351D01*
X018735Y023311D02*
X018735Y023272D01*
X019129Y023272D02*
X019129Y023311D01*
X018558Y022630D02*
X018448Y022630D01*
X018381Y022563D01*
X018224Y022563D01*
X018157Y022630D01*
X018043Y022630D01*
X018043Y021626D01*
X018558Y021626D01*
X018558Y022630D01*
X017889Y022788D02*
X017531Y022788D01*
X017161Y022642D02*
X016318Y022642D01*
X017476Y023272D02*
X017476Y023311D01*
X017869Y023311D01*
X017869Y023351D01*
X017869Y023311D02*
X017869Y023272D01*
X017476Y023311D02*
X017476Y023351D01*
X017161Y024658D02*
X016594Y024658D01*
X016609Y025673D02*
X017161Y025673D01*
X016306Y027327D02*
X016306Y027721D01*
X016700Y027721D01*
X016306Y027327D01*
X016306Y027363D02*
X016342Y027363D01*
X016306Y027440D02*
X016419Y027440D01*
X016496Y027517D02*
X016306Y027517D01*
X016306Y027594D02*
X016574Y027594D01*
X016651Y027672D02*
X016306Y027672D01*
X017869Y021028D02*
X017909Y021028D01*
X017909Y020634D01*
X017948Y020634D01*
X017909Y020634D02*
X017869Y020634D01*
X017869Y020437D02*
X018066Y020437D01*
X018068Y020417D01*
X018073Y020397D01*
X018082Y020378D01*
X018094Y020361D01*
X018108Y020347D01*
X018125Y020335D01*
X018144Y020326D01*
X018164Y020321D01*
X018184Y020319D01*
X018204Y020321D01*
X018224Y020326D01*
X018243Y020335D01*
X018260Y020347D01*
X018274Y020361D01*
X018286Y020378D01*
X018295Y020397D01*
X018300Y020417D01*
X018302Y020437D01*
X018499Y020437D01*
X018775Y020634D02*
X018814Y020634D01*
X018814Y021028D01*
X018854Y021028D01*
X018814Y021028D02*
X018775Y021028D01*
X018814Y020634D02*
X018854Y020634D01*
X018499Y020004D02*
X018499Y019689D01*
X018499Y019256D02*
X017869Y019256D01*
X017594Y018862D02*
X017279Y019177D01*
X017161Y019666D02*
X016594Y019666D01*
X016334Y020673D02*
X017161Y020673D01*
X017515Y020516D02*
X017517Y020534D01*
X017523Y020550D01*
X017532Y020565D01*
X017545Y020578D01*
X017560Y020587D01*
X017576Y020593D01*
X017594Y020595D01*
X017612Y020593D01*
X017628Y020587D01*
X017643Y020578D01*
X017656Y020565D01*
X017665Y020550D01*
X017671Y020534D01*
X017673Y020516D01*
X017671Y020498D01*
X017665Y020482D01*
X017656Y020467D01*
X017643Y020454D01*
X017628Y020445D01*
X017612Y020439D01*
X017594Y020437D01*
X017576Y020439D01*
X017560Y020445D01*
X017545Y020454D01*
X017532Y020467D01*
X017523Y020482D01*
X017517Y020498D01*
X017515Y020516D01*
X017909Y021028D02*
X017948Y021028D01*
X018672Y017673D02*
X017161Y017673D01*
X035298Y014872D02*
X035298Y014648D01*
X035307Y014637D01*
X035527Y014595D01*
X035535Y014587D01*
X035612Y014404D01*
X035610Y014393D01*
X035485Y014207D01*
X035487Y014192D01*
X035645Y014034D01*
X035660Y014033D01*
X035845Y014158D01*
X035856Y014159D01*
X035940Y014124D01*
X035956Y014131D01*
X036111Y014510D01*
X036078Y014492D02*
X035920Y014158D01*
X035842Y014217D01*
X035665Y014059D01*
X035546Y014197D01*
X035645Y014394D01*
X035546Y014630D01*
X035330Y014670D01*
X035330Y014847D01*
X035566Y014906D01*
X035645Y015122D01*
X035527Y015280D01*
X035665Y015437D01*
X035842Y015319D01*
X036078Y015418D01*
X036117Y015634D01*
X036314Y015634D01*
X036354Y015398D01*
X036590Y015319D01*
X036767Y015437D01*
X036885Y015319D01*
X036767Y015122D01*
X036865Y014906D01*
X037082Y014847D01*
X037082Y014670D01*
X036865Y014630D01*
X036767Y014394D01*
X036885Y014197D01*
X036767Y014079D01*
X036590Y014197D01*
X036491Y014177D01*
X036354Y014492D01*
X036531Y014709D01*
X036452Y014965D01*
X036216Y015083D01*
X035940Y014945D01*
X035920Y014689D01*
X036078Y014492D01*
X036064Y014464D02*
X035616Y014464D01*
X035641Y014386D02*
X036028Y014386D01*
X035992Y014309D02*
X035602Y014309D01*
X035564Y014232D02*
X035955Y014232D01*
X035772Y014155D02*
X035583Y014155D01*
X035649Y014077D02*
X035685Y014077D01*
X035584Y014541D02*
X036039Y014541D01*
X035977Y014618D02*
X035552Y014618D01*
X035330Y014695D02*
X035921Y014695D01*
X035927Y014772D02*
X035330Y014772D01*
X035342Y014850D02*
X035933Y014850D01*
X035939Y014927D02*
X035574Y014927D01*
X035535Y014933D02*
X035612Y015117D01*
X035610Y015128D01*
X035485Y015313D01*
X035487Y015328D01*
X035645Y015486D01*
X035660Y015488D01*
X035845Y015363D01*
X035856Y015361D01*
X036040Y015438D01*
X036047Y015446D01*
X036089Y015666D01*
X036101Y015675D01*
X036324Y015675D01*
X036336Y015666D01*
X036378Y015446D01*
X036385Y015438D01*
X036569Y015361D01*
X036580Y015363D01*
X036766Y015488D01*
X036780Y015486D01*
X036939Y015328D01*
X036940Y015313D01*
X036815Y015128D01*
X036814Y015117D01*
X036890Y014933D01*
X036899Y014926D01*
X037118Y014884D01*
X037128Y014872D01*
X037128Y014648D01*
X037118Y014637D01*
X036899Y014595D01*
X036890Y014587D01*
X036814Y014404D01*
X036815Y014393D01*
X036940Y014207D01*
X036939Y014192D01*
X036780Y014034D01*
X036766Y014033D01*
X036580Y014158D01*
X036569Y014159D01*
X036485Y014124D01*
X036470Y014131D01*
X036315Y014510D01*
X036366Y014464D02*
X036796Y014464D01*
X036772Y014386D02*
X036400Y014386D01*
X036434Y014309D02*
X036818Y014309D01*
X036864Y014232D02*
X036468Y014232D01*
X036654Y014155D02*
X036842Y014155D01*
X036828Y014541D02*
X036393Y014541D01*
X036456Y014618D02*
X036860Y014618D01*
X037082Y014695D02*
X036520Y014695D01*
X036511Y014772D02*
X037082Y014772D01*
X037071Y014850D02*
X036487Y014850D01*
X036464Y014927D02*
X036856Y014927D01*
X036821Y015004D02*
X036373Y015004D01*
X036219Y015081D02*
X036786Y015081D01*
X036789Y015159D02*
X035618Y015159D01*
X035630Y015081D02*
X036213Y015081D01*
X036058Y015004D02*
X035602Y015004D01*
X035535Y014933D02*
X035527Y014926D01*
X035307Y014884D01*
X035298Y014872D01*
X035560Y015236D02*
X036835Y015236D01*
X036881Y015313D02*
X035556Y015313D01*
X035624Y015390D02*
X035735Y015390D01*
X036013Y015390D02*
X036376Y015390D01*
X036342Y015468D02*
X036087Y015468D01*
X036101Y015545D02*
X036329Y015545D01*
X036316Y015622D02*
X036115Y015622D01*
X036697Y015390D02*
X036814Y015390D01*
X036334Y014532D02*
X036361Y014548D01*
X036386Y014566D01*
X036409Y014588D01*
X036429Y014612D01*
X036446Y014639D01*
X036460Y014667D01*
X036470Y014697D01*
X036477Y014727D01*
X036480Y014759D01*
X036479Y014790D01*
X036475Y014821D01*
X036467Y014851D01*
X036455Y014880D01*
X036440Y014908D01*
X036422Y014934D01*
X036400Y014957D01*
X036377Y014977D01*
X036351Y014995D01*
X036323Y015009D01*
X036293Y015020D01*
X036263Y015028D01*
X036232Y015032D01*
X036200Y015032D01*
X036169Y015028D01*
X036139Y015020D01*
X036109Y015009D01*
X036081Y014995D01*
X036055Y014977D01*
X036032Y014957D01*
X036010Y014934D01*
X035992Y014908D01*
X035977Y014880D01*
X035965Y014851D01*
X035957Y014821D01*
X035953Y014790D01*
X035952Y014759D01*
X035955Y014727D01*
X035962Y014697D01*
X035972Y014667D01*
X035986Y014639D01*
X036003Y014612D01*
X036023Y014588D01*
X036046Y014566D01*
X036071Y014548D01*
X036098Y014532D01*
X035381Y012173D02*
X035381Y011048D01*
X039968Y011048D01*
X039968Y012173D01*
X035381Y012173D01*
X035381Y012146D02*
X039968Y012146D01*
X039968Y012069D02*
X035381Y012069D01*
X035381Y011992D02*
X039968Y011992D01*
X039968Y011915D02*
X035381Y011915D01*
X035381Y011837D02*
X039968Y011837D01*
X039968Y011760D02*
X035381Y011760D01*
X035381Y011683D02*
X039968Y011683D01*
X039968Y011606D02*
X035381Y011606D01*
X035381Y011528D02*
X039968Y011528D01*
X039968Y011451D02*
X035381Y011451D01*
X035381Y011374D02*
X039968Y011374D01*
X039968Y011297D02*
X035381Y011297D01*
X035381Y011219D02*
X039968Y011219D01*
X039968Y011142D02*
X035381Y011142D01*
X035381Y011065D02*
X039968Y011065D01*
X040546Y012209D02*
X040548Y012259D01*
X040554Y012309D01*
X040564Y012358D01*
X040578Y012406D01*
X040595Y012453D01*
X040616Y012498D01*
X040641Y012542D01*
X040669Y012583D01*
X040701Y012622D01*
X040735Y012659D01*
X040772Y012693D01*
X040812Y012723D01*
X040854Y012750D01*
X040898Y012774D01*
X040944Y012795D01*
X040991Y012811D01*
X041039Y012824D01*
X041089Y012833D01*
X041138Y012838D01*
X041189Y012839D01*
X041239Y012836D01*
X041288Y012829D01*
X041337Y012818D01*
X041385Y012803D01*
X041431Y012785D01*
X041476Y012763D01*
X041519Y012737D01*
X041560Y012708D01*
X041599Y012676D01*
X041635Y012641D01*
X041667Y012603D01*
X041697Y012563D01*
X041724Y012520D01*
X041747Y012476D01*
X041766Y012430D01*
X041782Y012382D01*
X041794Y012333D01*
X041802Y012284D01*
X041806Y012234D01*
X041806Y012184D01*
X041802Y012134D01*
X041794Y012085D01*
X041782Y012036D01*
X041766Y011988D01*
X041747Y011942D01*
X041724Y011898D01*
X041697Y011855D01*
X041667Y011815D01*
X041635Y011777D01*
X041599Y011742D01*
X041560Y011710D01*
X041519Y011681D01*
X041476Y011655D01*
X041431Y011633D01*
X041385Y011615D01*
X041337Y011600D01*
X041288Y011589D01*
X041239Y011582D01*
X041189Y011579D01*
X041138Y011580D01*
X041089Y011585D01*
X041039Y011594D01*
X040991Y011607D01*
X040944Y011623D01*
X040898Y011644D01*
X040854Y011668D01*
X040812Y011695D01*
X040772Y011725D01*
X040735Y011759D01*
X040701Y011796D01*
X040669Y011835D01*
X040641Y011876D01*
X040616Y011920D01*
X040595Y011965D01*
X040578Y012012D01*
X040564Y012060D01*
X040554Y012109D01*
X040548Y012159D01*
X040546Y012209D01*
X043920Y013626D02*
X044314Y014020D01*
X044314Y013626D01*
X043920Y013626D01*
X043985Y013691D02*
X044314Y013691D01*
X044314Y013768D02*
X044063Y013768D01*
X044140Y013846D02*
X044314Y013846D01*
X044314Y013923D02*
X044217Y013923D01*
X044294Y014000D02*
X044314Y014000D01*
X039917Y017288D02*
X038814Y017288D01*
X039247Y019059D02*
X039129Y019177D01*
X038814Y019177D01*
X039247Y019059D02*
X039483Y019059D01*
X039602Y019177D01*
X039917Y019177D01*
X039917Y019335D02*
X039877Y019335D01*
X039877Y019729D01*
X039917Y019729D01*
X039877Y019729D02*
X039838Y019729D01*
X039838Y019335D02*
X039877Y019335D01*
X041924Y017642D02*
X044011Y017642D01*
D12*
X037328Y032803D02*
X037218Y032803D01*
X037328Y032803D02*
X037438Y032912D01*
X037438Y033461D01*
X037724Y033351D02*
X037834Y033461D01*
X038053Y033461D01*
X038163Y033351D01*
X038163Y033241D01*
X037724Y033241D01*
X037724Y033132D02*
X037724Y033351D01*
X037724Y033132D02*
X037834Y033022D01*
X038053Y033022D01*
X038449Y033022D02*
X038449Y033461D01*
X038668Y033461D02*
X038778Y033461D01*
X038668Y033461D02*
X038449Y033241D01*
X039053Y033351D02*
X039163Y033461D01*
X039492Y033461D01*
X039382Y033241D02*
X039163Y033241D01*
X039053Y033351D01*
X039053Y033022D02*
X039382Y033022D01*
X039492Y033132D01*
X039382Y033241D01*
X037679Y034203D02*
X037679Y034532D01*
X037570Y034642D01*
X037460Y034532D01*
X037460Y034203D01*
X037241Y034203D02*
X037241Y034642D01*
X037350Y034642D01*
X037460Y034532D01*
X036954Y034532D02*
X036954Y034203D01*
X036735Y034203D02*
X036735Y034532D01*
X036845Y034642D01*
X036954Y034532D01*
X036735Y034532D02*
X036625Y034642D01*
X036516Y034642D01*
X036516Y034203D01*
X036229Y034203D02*
X035791Y034203D01*
X036229Y034642D01*
X036229Y034751D01*
X036120Y034861D01*
X035900Y034861D01*
X035791Y034751D01*
X035538Y034313D02*
X035538Y034203D01*
X035428Y034203D01*
X035428Y034313D01*
X035538Y034313D01*
X035142Y034203D02*
X034703Y034203D01*
X034922Y034203D02*
X034922Y034861D01*
X034703Y034642D01*
X034417Y034642D02*
X033978Y034642D01*
X033978Y034422D02*
X034417Y034422D01*
X033714Y034203D02*
X033604Y034313D01*
X033604Y034751D01*
X033495Y034642D02*
X033714Y034642D01*
X033242Y033570D02*
X033242Y033132D01*
X033352Y033022D01*
X033616Y033132D02*
X033725Y033022D01*
X033945Y033022D01*
X034054Y033132D01*
X034054Y033351D01*
X033945Y033461D01*
X033725Y033461D01*
X033616Y033351D01*
X033616Y033132D01*
X033352Y033461D02*
X033132Y033461D01*
X032868Y033461D02*
X032649Y033461D01*
X032759Y033570D02*
X032759Y033132D01*
X032868Y033022D01*
X032363Y033132D02*
X032363Y033351D01*
X032253Y033461D01*
X032034Y033461D01*
X031924Y033351D01*
X031924Y033132D01*
X032034Y033022D01*
X032253Y033022D01*
X032363Y033132D01*
X031637Y033132D02*
X031637Y033351D01*
X031528Y033461D01*
X031199Y033461D01*
X031199Y033680D02*
X031199Y033022D01*
X031528Y033022D01*
X031637Y033132D01*
X030912Y033680D02*
X030474Y033022D01*
X030187Y033132D02*
X030078Y033022D01*
X029749Y033022D01*
X029749Y032803D02*
X029749Y033461D01*
X030078Y033461D01*
X030187Y033351D01*
X030187Y033132D01*
X029462Y033132D02*
X029462Y033351D01*
X029353Y033461D01*
X029133Y033461D01*
X029024Y033351D01*
X029024Y033132D01*
X029133Y033022D01*
X029353Y033022D01*
X029462Y033132D01*
X028760Y033022D02*
X028650Y033132D01*
X028650Y033570D01*
X028540Y033461D02*
X028760Y033461D01*
X028650Y034203D02*
X028979Y034203D01*
X029265Y034203D02*
X029265Y034861D01*
X028979Y034642D02*
X028650Y034642D01*
X028540Y034532D01*
X028540Y034313D01*
X028650Y034203D01*
X028276Y034203D02*
X028057Y034203D01*
X028167Y034203D02*
X028167Y034642D01*
X028057Y034642D01*
X028167Y034861D02*
X028167Y034971D01*
X027771Y034532D02*
X027661Y034642D01*
X027442Y034642D01*
X027332Y034532D01*
X027068Y034642D02*
X026849Y034642D01*
X026958Y034751D02*
X026958Y034313D01*
X027068Y034203D01*
X027332Y034203D02*
X027332Y034861D01*
X027771Y034532D02*
X027771Y034203D01*
X027419Y033461D02*
X027090Y033461D01*
X027090Y033022D01*
X026804Y033132D02*
X026804Y033351D01*
X026694Y033461D01*
X026475Y033461D01*
X026365Y033351D01*
X026365Y033132D01*
X026475Y033022D01*
X026694Y033022D01*
X026804Y033132D01*
X027419Y033461D02*
X027529Y033351D01*
X027529Y033022D01*
X025837Y034203D02*
X025508Y034203D01*
X025399Y034313D01*
X025399Y034532D01*
X025508Y034642D01*
X025837Y034642D01*
X025837Y034861D02*
X025837Y034203D01*
X025123Y034642D02*
X025014Y034642D01*
X024794Y034422D01*
X024794Y034203D02*
X024794Y034642D01*
X024508Y034532D02*
X024508Y034203D01*
X024179Y034203D01*
X024069Y034313D01*
X024179Y034422D01*
X024508Y034422D01*
X024508Y034532D02*
X024398Y034642D01*
X024179Y034642D01*
X023783Y034532D02*
X023783Y034313D01*
X023673Y034203D01*
X023454Y034203D01*
X023344Y034313D01*
X023344Y034532D01*
X023454Y034642D01*
X023673Y034642D01*
X023783Y034532D01*
X023058Y034532D02*
X023058Y034313D01*
X022948Y034203D01*
X022619Y034203D01*
X022619Y034861D01*
X022619Y034642D02*
X022948Y034642D01*
X023058Y034532D01*
X023454Y033790D02*
X023454Y033680D01*
X023454Y033461D02*
X023454Y033022D01*
X023344Y033022D02*
X023564Y033022D01*
X023828Y033022D02*
X024047Y033022D01*
X023937Y033022D02*
X023937Y033680D01*
X023828Y033680D01*
X023454Y033461D02*
X023344Y033461D01*
X023058Y033461D02*
X022729Y033461D01*
X022619Y033351D01*
X022729Y033241D01*
X022948Y033241D01*
X023058Y033132D01*
X022948Y033022D01*
X022619Y033022D01*
X024311Y033022D02*
X024311Y033680D01*
X024640Y033461D02*
X024311Y033241D01*
X024640Y033022D01*
X024915Y033022D02*
X025244Y033022D01*
X025354Y033132D01*
X025244Y033241D01*
X025025Y033241D01*
X024915Y033351D01*
X025025Y033461D01*
X025354Y033461D01*
X029265Y034422D02*
X029594Y034642D01*
X029870Y034642D02*
X029870Y034203D01*
X029594Y034203D02*
X029265Y034422D01*
X029870Y034642D02*
X030199Y034642D01*
X030308Y034532D01*
X030308Y034203D01*
X030595Y034313D02*
X030595Y034532D01*
X030704Y034642D01*
X030924Y034642D01*
X031033Y034532D01*
X031033Y034422D01*
X030595Y034422D01*
X030595Y034313D02*
X030704Y034203D01*
X030924Y034203D01*
X031320Y034203D02*
X031649Y034203D01*
X031758Y034313D01*
X031649Y034422D01*
X031429Y034422D01*
X031320Y034532D01*
X031429Y034642D01*
X031758Y034642D01*
X032045Y034532D02*
X032154Y034422D01*
X032374Y034422D01*
X032483Y034313D01*
X032374Y034203D01*
X032045Y034203D01*
X032045Y034532D02*
X032154Y034642D01*
X032483Y034642D01*
X034341Y033461D02*
X034341Y033022D01*
X034560Y033022D02*
X034560Y033351D01*
X034670Y033461D01*
X034779Y033351D01*
X034779Y033022D01*
X034560Y033351D02*
X034450Y033461D01*
X034341Y033461D01*
X035791Y033680D02*
X035900Y033680D01*
X035900Y033022D01*
X035791Y033022D02*
X036010Y033022D01*
X036274Y033132D02*
X036384Y033241D01*
X036713Y033241D01*
X036713Y033351D02*
X036713Y033022D01*
X036384Y033022D01*
X036274Y033132D01*
X036384Y033461D02*
X036603Y033461D01*
X036713Y033351D01*
X036999Y033461D02*
X036999Y033132D01*
X037109Y033022D01*
X037438Y033022D01*
D13*
X033775Y020516D02*
X033696Y020516D01*
X038027Y019296D02*
X038539Y019296D01*
X022397Y019296D02*
X021885Y019296D01*
X017633Y020516D02*
X017554Y020516D01*
M02*
