G75*
%MOIN*%
%OFA0B0*%
%FSLAX25Y25*%
%IPPOS*%
%LPD*%
%AMOC8*
5,1,8,0,0,1.08239X$1,22.5*
%
%ADD10C,0.01575*%
%ADD11C,0.00787*%
%ADD12R,0.05118X0.02756*%
%ADD13R,0.01181X0.01181*%
%ADD14C,0.01969*%
%ADD15R,0.03543X0.01181*%
%ADD16R,0.02756X0.03543*%
D10*
X0081739Y0172909D02*
X0084102Y0172909D01*
X0084102Y0176650D02*
X0081739Y0176650D01*
X0081739Y0180390D02*
X0084102Y0180390D01*
X0083708Y0186098D02*
X0082921Y0186098D01*
X0082921Y0186886D01*
X0083708Y0186886D01*
X0083708Y0186098D01*
X0087645Y0186098D02*
X0087645Y0186886D01*
X0088432Y0186886D01*
X0088432Y0186098D01*
X0087645Y0186098D01*
X0091976Y0186098D02*
X0091976Y0186886D01*
X0092763Y0186886D01*
X0092763Y0186098D01*
X0091976Y0186098D01*
X0096700Y0186098D02*
X0096700Y0186886D01*
X0097487Y0186886D01*
X0097487Y0186098D01*
X0096700Y0186098D01*
X0095125Y0180390D02*
X0092763Y0180390D01*
X0092763Y0172909D02*
X0095125Y0172909D01*
X0120519Y0186689D02*
X0125637Y0186689D01*
X0125637Y0189445D01*
X0120519Y0189445D01*
X0120519Y0186689D01*
X0131739Y0194366D02*
X0131739Y0195154D01*
X0132527Y0195154D01*
X0132527Y0194366D01*
X0131739Y0194366D01*
X0125637Y0197713D02*
X0120519Y0197713D01*
X0120519Y0200469D01*
X0125637Y0200469D01*
X0125637Y0197713D01*
X0131739Y0199091D02*
X0131739Y0199878D01*
X0132527Y0199878D01*
X0132527Y0199091D01*
X0131739Y0199091D01*
X0143157Y0200272D02*
X0143157Y0201059D01*
X0143944Y0201059D01*
X0143944Y0200272D01*
X0143157Y0200272D01*
X0143157Y0196335D02*
X0143944Y0196335D01*
X0143944Y0195547D01*
X0143157Y0195547D01*
X0143157Y0196335D01*
X0148865Y0200075D02*
X0150834Y0200075D01*
X0150834Y0201256D01*
X0148865Y0201256D01*
X0148865Y0200075D01*
X0148865Y0207161D02*
X0150834Y0207161D01*
X0150834Y0208343D01*
X0148865Y0208343D01*
X0148865Y0207161D01*
X0138039Y0212476D02*
X0137251Y0212476D01*
X0137251Y0213264D01*
X0138039Y0213264D01*
X0138039Y0212476D01*
X0134102Y0216413D02*
X0133314Y0216413D01*
X0133314Y0217201D01*
X0134102Y0217201D01*
X0134102Y0216413D01*
X0130165Y0213264D02*
X0130165Y0212476D01*
X0129377Y0212476D01*
X0129377Y0213264D01*
X0130165Y0213264D01*
X0130165Y0220350D02*
X0129377Y0220350D01*
X0129377Y0221138D01*
X0130165Y0221138D01*
X0130165Y0220350D01*
X0137251Y0220350D02*
X0137251Y0221138D01*
X0138039Y0221138D01*
X0138039Y0220350D01*
X0137251Y0220350D01*
X0154180Y0225469D02*
X0156149Y0225469D01*
X0156149Y0228224D01*
X0154180Y0228224D01*
X0154180Y0225469D01*
X0160873Y0225469D02*
X0162842Y0225469D01*
X0162842Y0228224D01*
X0160873Y0228224D01*
X0160873Y0225469D01*
X0160873Y0233736D02*
X0162842Y0233736D01*
X0162842Y0236492D01*
X0160873Y0236492D01*
X0160873Y0233736D01*
X0156149Y0233736D02*
X0156149Y0236492D01*
X0154180Y0236492D01*
X0154180Y0233736D01*
X0156149Y0233736D01*
X0134889Y0239642D02*
X0134889Y0240429D01*
X0134102Y0240429D01*
X0134102Y0239642D01*
X0134889Y0239642D01*
X0134889Y0243972D02*
X0134102Y0243972D01*
X0134102Y0244760D01*
X0134889Y0244760D01*
X0134889Y0243972D01*
X0134889Y0248697D02*
X0134102Y0248697D01*
X0134102Y0249484D01*
X0134889Y0249484D01*
X0134889Y0248697D01*
X0134889Y0253028D02*
X0134889Y0253815D01*
X0134102Y0253815D01*
X0134102Y0253028D01*
X0134889Y0253028D01*
X0130165Y0253028D02*
X0130165Y0253815D01*
X0129377Y0253815D01*
X0129377Y0253028D01*
X0130165Y0253028D01*
X0130165Y0240429D02*
X0130165Y0239642D01*
X0129377Y0239642D01*
X0129377Y0240429D01*
X0130165Y0240429D01*
X0114023Y0219957D02*
X0113236Y0219957D01*
X0113236Y0219169D01*
X0114023Y0219169D01*
X0114023Y0219957D01*
X0114023Y0215232D02*
X0113236Y0215232D01*
X0113236Y0214445D01*
X0114023Y0214445D01*
X0114023Y0215232D01*
X0097291Y0203421D02*
X0094535Y0203421D01*
X0094535Y0203028D01*
X0097291Y0203028D01*
X0097291Y0203421D01*
X0096306Y0208539D02*
X0095519Y0208539D01*
X0095519Y0209327D01*
X0096306Y0209327D01*
X0096306Y0208539D01*
X0096306Y0213264D02*
X0095519Y0213264D01*
X0095519Y0214051D01*
X0096306Y0214051D01*
X0096306Y0213264D01*
X0083708Y0213264D02*
X0082921Y0213264D01*
X0082921Y0214051D01*
X0083708Y0214051D01*
X0083708Y0213264D01*
X0083708Y0209327D02*
X0083708Y0208539D01*
X0082921Y0208539D01*
X0082921Y0209327D01*
X0083708Y0209327D01*
X0084692Y0203421D02*
X0081936Y0203421D01*
X0081936Y0203028D01*
X0084692Y0203028D01*
X0084692Y0203421D01*
X0084692Y0199681D02*
X0081936Y0199681D01*
X0081936Y0199287D01*
X0084692Y0199287D01*
X0084692Y0199681D01*
X0084692Y0195941D02*
X0081936Y0195941D01*
X0081936Y0195547D01*
X0084692Y0195547D01*
X0084692Y0195941D01*
X0094535Y0195941D02*
X0097291Y0195941D01*
X0097291Y0195547D01*
X0094535Y0195547D01*
X0094535Y0195941D01*
X0141188Y0173894D02*
X0141188Y0173106D01*
X0141976Y0173106D01*
X0141976Y0173894D01*
X0141188Y0173894D01*
X0145913Y0173894D02*
X0145913Y0173106D01*
X0146700Y0173106D01*
X0146700Y0173894D01*
X0145913Y0173894D01*
X0243157Y0172909D02*
X0245519Y0172909D01*
X0245519Y0176650D02*
X0243157Y0176650D01*
X0243157Y0180390D02*
X0245519Y0180390D01*
X0245125Y0186098D02*
X0244338Y0186098D01*
X0244338Y0186886D01*
X0245125Y0186886D01*
X0245125Y0186098D01*
X0249062Y0186098D02*
X0249062Y0186886D01*
X0249850Y0186886D01*
X0249850Y0186098D01*
X0249062Y0186098D01*
X0253393Y0186098D02*
X0253393Y0186886D01*
X0254180Y0186886D01*
X0254180Y0186098D01*
X0253393Y0186098D01*
X0258117Y0186098D02*
X0258117Y0186886D01*
X0258905Y0186886D01*
X0258905Y0186098D01*
X0258117Y0186098D01*
X0256543Y0180390D02*
X0254180Y0180390D01*
X0254180Y0172909D02*
X0256543Y0172909D01*
X0281936Y0186689D02*
X0281936Y0189445D01*
X0287054Y0189445D01*
X0287054Y0186689D01*
X0281936Y0186689D01*
X0281936Y0197713D02*
X0287054Y0197713D01*
X0287054Y0200469D01*
X0281936Y0200469D01*
X0281936Y0197713D01*
X0293157Y0199091D02*
X0293157Y0199878D01*
X0293944Y0199878D01*
X0293944Y0199091D01*
X0293157Y0199091D01*
X0293157Y0195154D02*
X0293944Y0195154D01*
X0293944Y0194366D01*
X0293157Y0194366D01*
X0293157Y0195154D01*
X0304574Y0195547D02*
X0304574Y0196335D01*
X0305361Y0196335D01*
X0305361Y0195547D01*
X0304574Y0195547D01*
X0304574Y0200272D02*
X0304574Y0201059D01*
X0305361Y0201059D01*
X0305361Y0200272D01*
X0304574Y0200272D01*
X0310283Y0200075D02*
X0312251Y0200075D01*
X0312251Y0201256D01*
X0310283Y0201256D01*
X0310283Y0200075D01*
X0310283Y0207161D02*
X0312251Y0207161D01*
X0312251Y0208343D01*
X0310283Y0208343D01*
X0310283Y0207161D01*
X0299456Y0212476D02*
X0298669Y0212476D01*
X0298669Y0213264D01*
X0299456Y0213264D01*
X0299456Y0212476D01*
X0295519Y0216413D02*
X0294732Y0216413D01*
X0294732Y0217201D01*
X0295519Y0217201D01*
X0295519Y0216413D01*
X0291582Y0213264D02*
X0290795Y0213264D01*
X0290795Y0212476D01*
X0291582Y0212476D01*
X0291582Y0213264D01*
X0291582Y0220350D02*
X0290795Y0220350D01*
X0290795Y0221138D01*
X0291582Y0221138D01*
X0291582Y0220350D01*
X0298669Y0220350D02*
X0298669Y0221138D01*
X0299456Y0221138D01*
X0299456Y0220350D01*
X0298669Y0220350D01*
X0315598Y0225469D02*
X0317566Y0225469D01*
X0317566Y0228224D01*
X0315598Y0228224D01*
X0315598Y0225469D01*
X0322291Y0225469D02*
X0324259Y0225469D01*
X0324259Y0228224D01*
X0322291Y0228224D01*
X0322291Y0225469D01*
X0322291Y0233736D02*
X0324259Y0233736D01*
X0324259Y0236492D01*
X0322291Y0236492D01*
X0322291Y0233736D01*
X0317566Y0233736D02*
X0315598Y0233736D01*
X0315598Y0236492D01*
X0317566Y0236492D01*
X0317566Y0233736D01*
X0296306Y0239642D02*
X0296306Y0240429D01*
X0295519Y0240429D01*
X0295519Y0239642D01*
X0296306Y0239642D01*
X0296306Y0243972D02*
X0295519Y0243972D01*
X0295519Y0244760D01*
X0296306Y0244760D01*
X0296306Y0243972D01*
X0296306Y0248697D02*
X0295519Y0248697D01*
X0295519Y0249484D01*
X0296306Y0249484D01*
X0296306Y0248697D01*
X0296306Y0253028D02*
X0295519Y0253028D01*
X0295519Y0253815D01*
X0296306Y0253815D01*
X0296306Y0253028D01*
X0291582Y0253028D02*
X0291582Y0253815D01*
X0290795Y0253815D01*
X0290795Y0253028D01*
X0291582Y0253028D01*
X0291582Y0240429D02*
X0290795Y0240429D01*
X0290795Y0239642D01*
X0291582Y0239642D01*
X0291582Y0240429D01*
X0275440Y0219957D02*
X0274653Y0219957D01*
X0274653Y0219169D01*
X0275440Y0219169D01*
X0275440Y0219957D01*
X0275440Y0215232D02*
X0274653Y0215232D01*
X0274653Y0214445D01*
X0275440Y0214445D01*
X0275440Y0215232D01*
X0257724Y0214051D02*
X0257724Y0213264D01*
X0256936Y0213264D01*
X0256936Y0214051D01*
X0257724Y0214051D01*
X0257724Y0209327D02*
X0257724Y0208539D01*
X0256936Y0208539D01*
X0256936Y0209327D01*
X0257724Y0209327D01*
X0258708Y0203421D02*
X0255952Y0203421D01*
X0255952Y0203028D01*
X0258708Y0203028D01*
X0258708Y0203421D01*
X0258708Y0195941D02*
X0255952Y0195941D01*
X0255952Y0195547D01*
X0258708Y0195547D01*
X0258708Y0195941D01*
X0246110Y0195941D02*
X0243354Y0195941D01*
X0243354Y0195547D01*
X0246110Y0195547D01*
X0246110Y0195941D01*
X0246110Y0199287D02*
X0243354Y0199287D01*
X0243354Y0199681D01*
X0246110Y0199681D01*
X0246110Y0199287D01*
X0246110Y0203028D02*
X0243354Y0203028D01*
X0243354Y0203421D01*
X0246110Y0203421D01*
X0246110Y0203028D01*
X0245125Y0208539D02*
X0244338Y0208539D01*
X0244338Y0209327D01*
X0245125Y0209327D01*
X0245125Y0208539D01*
X0245125Y0213264D02*
X0244338Y0213264D01*
X0244338Y0214051D01*
X0245125Y0214051D01*
X0245125Y0213264D01*
X0302606Y0173894D02*
X0302606Y0173106D01*
X0303393Y0173106D01*
X0303393Y0173894D01*
X0302606Y0173894D01*
X0307330Y0173894D02*
X0307330Y0173106D01*
X0308117Y0173106D01*
X0308117Y0173894D01*
X0307330Y0173894D01*
D11*
X0302212Y0205390D02*
X0302212Y0207752D01*
X0300637Y0207752D02*
X0300637Y0205390D01*
X0299062Y0205390D02*
X0299062Y0207752D01*
X0297487Y0207752D02*
X0297487Y0205390D01*
X0295913Y0205390D02*
X0295913Y0207752D01*
X0294338Y0207752D02*
X0294338Y0205390D01*
X0292763Y0205390D02*
X0292763Y0207752D01*
X0291188Y0207752D02*
X0291188Y0205390D01*
X0289613Y0205390D02*
X0289613Y0207752D01*
X0288039Y0207752D02*
X0288039Y0205390D01*
X0286070Y0209720D02*
X0283708Y0209720D01*
X0283708Y0211295D02*
X0286070Y0211295D01*
X0286070Y0212870D02*
X0283708Y0212870D01*
X0283708Y0214445D02*
X0286070Y0214445D01*
X0286070Y0216020D02*
X0283708Y0216020D01*
X0283708Y0217594D02*
X0286070Y0217594D01*
X0286070Y0219169D02*
X0283708Y0219169D01*
X0283708Y0220744D02*
X0286070Y0220744D01*
X0286070Y0222319D02*
X0283708Y0222319D01*
X0283708Y0223894D02*
X0286070Y0223894D01*
X0288039Y0225862D02*
X0288039Y0228224D01*
X0289613Y0228224D02*
X0289613Y0225862D01*
X0291188Y0225862D02*
X0291188Y0228224D01*
X0292763Y0228224D02*
X0292763Y0225862D01*
X0294338Y0225862D02*
X0294338Y0228224D01*
X0295913Y0228224D02*
X0295913Y0225862D01*
X0297487Y0225862D02*
X0297487Y0228224D01*
X0299062Y0228224D02*
X0299062Y0225862D01*
X0300637Y0225862D02*
X0300637Y0228224D01*
X0302212Y0228224D02*
X0302212Y0225862D01*
X0304180Y0223894D02*
X0306543Y0223894D01*
X0306543Y0222319D02*
X0304180Y0222319D01*
X0304180Y0220744D02*
X0306543Y0220744D01*
X0306543Y0219169D02*
X0304180Y0219169D01*
X0304180Y0217594D02*
X0306543Y0217594D01*
X0306543Y0216020D02*
X0304180Y0216020D01*
X0304180Y0214445D02*
X0306543Y0214445D01*
X0306543Y0212870D02*
X0304180Y0212870D01*
X0304180Y0211295D02*
X0306543Y0211295D01*
X0306543Y0209720D02*
X0304180Y0209720D01*
X0145125Y0209720D02*
X0142763Y0209720D01*
X0142763Y0211295D02*
X0145125Y0211295D01*
X0145125Y0212870D02*
X0142763Y0212870D01*
X0142763Y0214445D02*
X0145125Y0214445D01*
X0145125Y0216020D02*
X0142763Y0216020D01*
X0142763Y0217594D02*
X0145125Y0217594D01*
X0145125Y0219169D02*
X0142763Y0219169D01*
X0142763Y0220744D02*
X0145125Y0220744D01*
X0145125Y0222319D02*
X0142763Y0222319D01*
X0142763Y0223894D02*
X0145125Y0223894D01*
X0140795Y0225862D02*
X0140795Y0228224D01*
X0139220Y0228224D02*
X0139220Y0225862D01*
X0137645Y0225862D02*
X0137645Y0228224D01*
X0136070Y0228224D02*
X0136070Y0225862D01*
X0134495Y0225862D02*
X0134495Y0228224D01*
X0132921Y0228224D02*
X0132921Y0225862D01*
X0131346Y0225862D02*
X0131346Y0228224D01*
X0129771Y0228224D02*
X0129771Y0225862D01*
X0128196Y0225862D02*
X0128196Y0228224D01*
X0126621Y0228224D02*
X0126621Y0225862D01*
X0124653Y0223894D02*
X0122291Y0223894D01*
X0122291Y0222319D02*
X0124653Y0222319D01*
X0124653Y0220744D02*
X0122291Y0220744D01*
X0122291Y0219169D02*
X0124653Y0219169D01*
X0124653Y0217594D02*
X0122291Y0217594D01*
X0122291Y0216020D02*
X0124653Y0216020D01*
X0124653Y0214445D02*
X0122291Y0214445D01*
X0122291Y0212870D02*
X0124653Y0212870D01*
X0124653Y0211295D02*
X0122291Y0211295D01*
X0122291Y0209720D02*
X0124653Y0209720D01*
X0126621Y0207752D02*
X0126621Y0205390D01*
X0128196Y0205390D02*
X0128196Y0207752D01*
X0129771Y0207752D02*
X0129771Y0205390D01*
X0131346Y0205390D02*
X0131346Y0207752D01*
X0132921Y0207752D02*
X0132921Y0205390D01*
X0134495Y0205390D02*
X0134495Y0207752D01*
X0136070Y0207752D02*
X0136070Y0205390D01*
X0137645Y0205390D02*
X0137645Y0207752D01*
X0139220Y0207752D02*
X0139220Y0205390D01*
X0140795Y0205390D02*
X0140795Y0207752D01*
D12*
X0123078Y0199091D03*
X0123078Y0188067D03*
X0284495Y0188067D03*
X0284495Y0199091D03*
D13*
X0293550Y0199484D03*
X0293550Y0194760D03*
X0304968Y0195941D03*
X0304968Y0200665D03*
X0275047Y0214839D03*
X0275047Y0219563D03*
X0257330Y0213657D03*
X0257330Y0208933D03*
X0244732Y0208933D03*
X0244732Y0213657D03*
X0244732Y0186492D03*
X0249456Y0186492D03*
X0253787Y0186492D03*
X0258511Y0186492D03*
X0302999Y0173500D03*
X0307724Y0173500D03*
X0295913Y0240035D03*
X0295913Y0244366D03*
X0295913Y0249091D03*
X0295913Y0253421D03*
X0291188Y0253421D03*
X0291188Y0240035D03*
X0146306Y0173500D03*
X0141582Y0173500D03*
X0132133Y0194760D03*
X0132133Y0199484D03*
X0143550Y0200665D03*
X0143550Y0195941D03*
X0113629Y0214839D03*
X0113629Y0219563D03*
X0095913Y0213657D03*
X0095913Y0208933D03*
X0083314Y0208933D03*
X0083314Y0213657D03*
X0083314Y0186492D03*
X0088039Y0186492D03*
X0092369Y0186492D03*
X0097094Y0186492D03*
X0129771Y0240035D03*
X0134495Y0240035D03*
X0134495Y0244366D03*
X0134495Y0249091D03*
X0134495Y0253421D03*
X0129771Y0253421D03*
D14*
X0130952Y0153008D02*
X0124653Y0153008D01*
X0124653Y0158008D02*
X0130952Y0158008D01*
X0130952Y0163008D02*
X0124653Y0163008D01*
X0124653Y0168008D02*
X0130952Y0168008D01*
X0146700Y0168008D02*
X0152999Y0168008D01*
X0152999Y0163008D02*
X0146700Y0163008D01*
X0146700Y0158008D02*
X0152999Y0158008D01*
X0152999Y0153008D02*
X0146700Y0153008D01*
X0286070Y0153008D02*
X0292369Y0153008D01*
X0292369Y0158008D02*
X0286070Y0158008D01*
X0286070Y0163008D02*
X0292369Y0163008D01*
X0292369Y0168008D02*
X0286070Y0168008D01*
X0308117Y0168008D02*
X0314417Y0168008D01*
X0314417Y0163008D02*
X0308117Y0163008D01*
X0308117Y0158008D02*
X0314417Y0158008D01*
X0314417Y0153008D02*
X0308117Y0153008D01*
D15*
X0257330Y0195744D03*
X0257330Y0203224D03*
X0244732Y0203224D03*
X0244732Y0199484D03*
X0244732Y0195744D03*
X0095913Y0195744D03*
X0095913Y0203224D03*
X0083314Y0203224D03*
X0083314Y0199484D03*
X0083314Y0195744D03*
D16*
X0155165Y0226846D03*
X0161858Y0226846D03*
X0161858Y0235114D03*
X0155165Y0235114D03*
X0316582Y0235114D03*
X0323275Y0235114D03*
X0323275Y0226846D03*
X0316582Y0226846D03*
M02*
