G75*
%MOIN*%
%OFA0B0*%
%FSLAX24Y24*%
%IPPOS*%
%LPD*%
%AMOC8*
5,1,8,0,0,1.08239X$1,22.5*
%
%ADD10C,0.0080*%
D10*
X017636Y019847D02*
X017636Y020240D01*
X017767Y020240D02*
X017505Y020240D01*
X017372Y020400D02*
X019547Y020400D01*
X019507Y020240D02*
X019311Y020240D01*
X019246Y020175D01*
X019246Y020044D01*
X019311Y019978D01*
X019507Y019978D01*
X019376Y019978D02*
X019246Y019847D01*
X019072Y019847D02*
X019072Y020240D01*
X018811Y020240D01*
X018637Y020175D02*
X018637Y020109D01*
X018572Y020044D01*
X018441Y020044D01*
X018376Y019978D01*
X018376Y019913D01*
X018441Y019847D01*
X018572Y019847D01*
X018637Y019913D01*
X018811Y019847D02*
X019072Y019847D01*
X019072Y020044D02*
X018941Y020044D01*
X018637Y020175D02*
X018572Y020240D01*
X018441Y020240D01*
X018376Y020175D01*
X018202Y020240D02*
X018202Y019847D01*
X017940Y019847D01*
X018071Y020044D02*
X018202Y020044D01*
X018202Y020240D02*
X017940Y020240D01*
X019507Y020240D02*
X019507Y019847D01*
X017672Y021557D02*
X017410Y021557D01*
X017279Y021688D01*
X017410Y021819D01*
X017672Y021819D01*
X017672Y021992D02*
X017279Y021992D01*
X017279Y022188D01*
X017345Y022254D01*
X017607Y022254D01*
X017672Y022188D01*
X017672Y021992D01*
X017672Y022427D02*
X017279Y022427D01*
X017279Y022623D01*
X017345Y022689D01*
X017607Y022689D01*
X017672Y022623D01*
X017672Y022427D01*
X017607Y023132D02*
X017345Y023132D01*
X017279Y023197D01*
X017279Y023328D01*
X017345Y023394D01*
X017476Y023394D01*
X017476Y023263D01*
X017607Y023394D02*
X017672Y023328D01*
X017672Y023197D01*
X017607Y023132D01*
X017672Y023567D02*
X017279Y023567D01*
X017279Y023829D02*
X017672Y023829D01*
X017672Y024002D02*
X017672Y024198D01*
X017607Y024264D01*
X017345Y024264D01*
X017279Y024198D01*
X017279Y024002D01*
X017672Y024002D01*
X017279Y023829D02*
X017672Y023567D01*
X033421Y023567D02*
X033814Y023567D01*
X033421Y023829D01*
X033814Y023829D01*
X033814Y024002D02*
X033814Y024198D01*
X033748Y024264D01*
X033487Y024264D01*
X033421Y024198D01*
X033421Y024002D01*
X033814Y024002D01*
X033748Y023394D02*
X033814Y023328D01*
X033814Y023197D01*
X033748Y023132D01*
X033487Y023132D01*
X033421Y023197D01*
X033421Y023328D01*
X033487Y023394D01*
X033617Y023394D01*
X033617Y023263D01*
X033487Y022689D02*
X033748Y022689D01*
X033814Y022623D01*
X033814Y022427D01*
X033421Y022427D01*
X033421Y022623D01*
X033487Y022689D01*
X033487Y022254D02*
X033748Y022254D01*
X033814Y022188D01*
X033814Y021992D01*
X033421Y021992D01*
X033421Y022188D01*
X033487Y022254D01*
X033552Y021819D02*
X033421Y021688D01*
X033552Y021557D01*
X033814Y021557D01*
X033814Y021819D02*
X033552Y021819D01*
X033514Y020400D02*
X035689Y020400D01*
X035649Y020240D02*
X035649Y019847D01*
X035649Y019978D02*
X035453Y019978D01*
X035387Y020044D01*
X035387Y020175D01*
X035453Y020240D01*
X035649Y020240D01*
X035518Y019978D02*
X035387Y019847D01*
X035214Y019847D02*
X034952Y019847D01*
X034779Y019913D02*
X034714Y019847D01*
X034583Y019847D01*
X034517Y019913D01*
X034517Y019978D01*
X034583Y020044D01*
X034714Y020044D01*
X034779Y020109D01*
X034779Y020175D01*
X034714Y020240D01*
X034583Y020240D01*
X034517Y020175D01*
X034344Y020240D02*
X034344Y019847D01*
X034082Y019847D01*
X034213Y020044D02*
X034344Y020044D01*
X034344Y020240D02*
X034082Y020240D01*
X033909Y020240D02*
X033647Y020240D01*
X033778Y020240D02*
X033778Y019847D01*
X034952Y020240D02*
X035214Y020240D01*
X035214Y019847D01*
X035214Y020044D02*
X035083Y020044D01*
M02*
