G75*
%MOIN*%
%OFA0B0*%
%FSLAX24Y24*%
%IPPOS*%
%LPD*%
%AMOC8*
5,1,8,0,0,1.08239X$1,22.5*
%
%ADD10C,0.0000*%
%ADD11C,0.0787*%
%ADD12C,0.0315*%
%ADD13C,0.0120*%
%ADD14C,0.0079*%
D10*
X012200Y006894D02*
X048420Y006894D01*
X048420Y035634D01*
X012200Y035634D01*
X012200Y006894D01*
X013382Y008862D02*
X013384Y008918D01*
X013390Y008973D01*
X013400Y009027D01*
X013413Y009081D01*
X013431Y009134D01*
X013452Y009185D01*
X013476Y009235D01*
X013504Y009283D01*
X013536Y009329D01*
X013570Y009373D01*
X013608Y009414D01*
X013648Y009452D01*
X013691Y009487D01*
X013736Y009519D01*
X013784Y009548D01*
X013833Y009574D01*
X013884Y009596D01*
X013936Y009614D01*
X013990Y009628D01*
X014045Y009639D01*
X014100Y009646D01*
X014155Y009649D01*
X014211Y009648D01*
X014266Y009643D01*
X014321Y009634D01*
X014375Y009622D01*
X014428Y009605D01*
X014480Y009585D01*
X014530Y009561D01*
X014578Y009534D01*
X014625Y009504D01*
X014669Y009470D01*
X014711Y009433D01*
X014749Y009393D01*
X014786Y009351D01*
X014819Y009306D01*
X014848Y009260D01*
X014875Y009211D01*
X014897Y009160D01*
X014917Y009108D01*
X014932Y009054D01*
X014944Y009000D01*
X014952Y008945D01*
X014956Y008890D01*
X014956Y008834D01*
X014952Y008779D01*
X014944Y008724D01*
X014932Y008670D01*
X014917Y008616D01*
X014897Y008564D01*
X014875Y008513D01*
X014848Y008464D01*
X014819Y008418D01*
X014786Y008373D01*
X014749Y008331D01*
X014711Y008291D01*
X014669Y008254D01*
X014625Y008220D01*
X014578Y008190D01*
X014530Y008163D01*
X014480Y008139D01*
X014428Y008119D01*
X014375Y008102D01*
X014321Y008090D01*
X014266Y008081D01*
X014211Y008076D01*
X014155Y008075D01*
X014100Y008078D01*
X014045Y008085D01*
X013990Y008096D01*
X013936Y008110D01*
X013884Y008128D01*
X013833Y008150D01*
X013784Y008176D01*
X013736Y008205D01*
X013691Y008237D01*
X013648Y008272D01*
X013608Y008310D01*
X013570Y008351D01*
X013536Y008395D01*
X013504Y008441D01*
X013476Y008489D01*
X013452Y008539D01*
X013431Y008590D01*
X013413Y008643D01*
X013400Y008697D01*
X013390Y008751D01*
X013384Y008806D01*
X013382Y008862D01*
X017712Y010831D02*
X026767Y010831D01*
X026137Y012406D02*
X026139Y012456D01*
X026145Y012506D01*
X026155Y012555D01*
X026169Y012603D01*
X026186Y012650D01*
X026207Y012695D01*
X026232Y012739D01*
X026260Y012780D01*
X026292Y012819D01*
X026326Y012856D01*
X026363Y012890D01*
X026403Y012920D01*
X026445Y012947D01*
X026489Y012971D01*
X026535Y012992D01*
X026582Y013008D01*
X026630Y013021D01*
X026680Y013030D01*
X026729Y013035D01*
X026780Y013036D01*
X026830Y013033D01*
X026879Y013026D01*
X026928Y013015D01*
X026976Y013000D01*
X027022Y012982D01*
X027067Y012960D01*
X027110Y012934D01*
X027151Y012905D01*
X027190Y012873D01*
X027226Y012838D01*
X027258Y012800D01*
X027288Y012760D01*
X027315Y012717D01*
X027338Y012673D01*
X027357Y012627D01*
X027373Y012579D01*
X027385Y012530D01*
X027393Y012481D01*
X027397Y012431D01*
X027397Y012381D01*
X027393Y012331D01*
X027385Y012282D01*
X027373Y012233D01*
X027357Y012185D01*
X027338Y012139D01*
X027315Y012095D01*
X027288Y012052D01*
X027258Y012012D01*
X027226Y011974D01*
X027190Y011939D01*
X027151Y011907D01*
X027110Y011878D01*
X027067Y011852D01*
X027022Y011830D01*
X026976Y011812D01*
X026928Y011797D01*
X026879Y011786D01*
X026830Y011779D01*
X026780Y011776D01*
X026729Y011777D01*
X026680Y011782D01*
X026630Y011791D01*
X026582Y011804D01*
X026535Y011820D01*
X026489Y011841D01*
X026445Y011865D01*
X026403Y011892D01*
X026363Y011922D01*
X026326Y011956D01*
X026292Y011993D01*
X026260Y012032D01*
X026232Y012073D01*
X026207Y012117D01*
X026186Y012162D01*
X026169Y012209D01*
X026155Y012257D01*
X026145Y012306D01*
X026139Y012356D01*
X026137Y012406D01*
X026767Y010831D02*
X026844Y010833D01*
X026921Y010839D01*
X026998Y010848D01*
X027074Y010861D01*
X027150Y010878D01*
X027224Y010899D01*
X027298Y010923D01*
X027370Y010951D01*
X027440Y010982D01*
X027509Y011017D01*
X027577Y011055D01*
X027642Y011096D01*
X027705Y011141D01*
X027766Y011189D01*
X027825Y011239D01*
X027881Y011292D01*
X027934Y011348D01*
X027984Y011407D01*
X028032Y011468D01*
X028077Y011531D01*
X028118Y011596D01*
X028156Y011664D01*
X028191Y011733D01*
X028222Y011803D01*
X028250Y011875D01*
X028274Y011949D01*
X028295Y012023D01*
X028312Y012099D01*
X028325Y012175D01*
X028334Y012252D01*
X028340Y012329D01*
X028342Y012406D01*
X028342Y029729D01*
X028340Y029806D01*
X028334Y029883D01*
X028325Y029960D01*
X028312Y030036D01*
X028295Y030112D01*
X028274Y030186D01*
X028250Y030260D01*
X028222Y030332D01*
X028191Y030402D01*
X028156Y030471D01*
X028118Y030539D01*
X028077Y030604D01*
X028032Y030667D01*
X027984Y030728D01*
X027934Y030787D01*
X027881Y030843D01*
X027825Y030896D01*
X027766Y030946D01*
X027705Y030994D01*
X027642Y031039D01*
X027577Y031080D01*
X027509Y031118D01*
X027440Y031153D01*
X027370Y031184D01*
X027298Y031212D01*
X027224Y031236D01*
X027150Y031257D01*
X027074Y031274D01*
X026998Y031287D01*
X026921Y031296D01*
X026844Y031302D01*
X026767Y031304D01*
X026767Y031303D02*
X017712Y031303D01*
X017712Y031304D02*
X017635Y031302D01*
X017558Y031296D01*
X017481Y031287D01*
X017405Y031274D01*
X017329Y031257D01*
X017255Y031236D01*
X017181Y031212D01*
X017109Y031184D01*
X017039Y031153D01*
X016970Y031118D01*
X016902Y031080D01*
X016837Y031039D01*
X016774Y030994D01*
X016713Y030946D01*
X016654Y030896D01*
X016598Y030843D01*
X016545Y030787D01*
X016495Y030728D01*
X016447Y030667D01*
X016402Y030604D01*
X016361Y030539D01*
X016323Y030471D01*
X016288Y030402D01*
X016257Y030332D01*
X016229Y030260D01*
X016205Y030186D01*
X016184Y030112D01*
X016167Y030036D01*
X016154Y029960D01*
X016145Y029883D01*
X016139Y029806D01*
X016137Y029729D01*
X016137Y012406D01*
X017082Y012406D02*
X017084Y012456D01*
X017090Y012506D01*
X017100Y012555D01*
X017114Y012603D01*
X017131Y012650D01*
X017152Y012695D01*
X017177Y012739D01*
X017205Y012780D01*
X017237Y012819D01*
X017271Y012856D01*
X017308Y012890D01*
X017348Y012920D01*
X017390Y012947D01*
X017434Y012971D01*
X017480Y012992D01*
X017527Y013008D01*
X017575Y013021D01*
X017625Y013030D01*
X017674Y013035D01*
X017725Y013036D01*
X017775Y013033D01*
X017824Y013026D01*
X017873Y013015D01*
X017921Y013000D01*
X017967Y012982D01*
X018012Y012960D01*
X018055Y012934D01*
X018096Y012905D01*
X018135Y012873D01*
X018171Y012838D01*
X018203Y012800D01*
X018233Y012760D01*
X018260Y012717D01*
X018283Y012673D01*
X018302Y012627D01*
X018318Y012579D01*
X018330Y012530D01*
X018338Y012481D01*
X018342Y012431D01*
X018342Y012381D01*
X018338Y012331D01*
X018330Y012282D01*
X018318Y012233D01*
X018302Y012185D01*
X018283Y012139D01*
X018260Y012095D01*
X018233Y012052D01*
X018203Y012012D01*
X018171Y011974D01*
X018135Y011939D01*
X018096Y011907D01*
X018055Y011878D01*
X018012Y011852D01*
X017967Y011830D01*
X017921Y011812D01*
X017873Y011797D01*
X017824Y011786D01*
X017775Y011779D01*
X017725Y011776D01*
X017674Y011777D01*
X017625Y011782D01*
X017575Y011791D01*
X017527Y011804D01*
X017480Y011820D01*
X017434Y011841D01*
X017390Y011865D01*
X017348Y011892D01*
X017308Y011922D01*
X017271Y011956D01*
X017237Y011993D01*
X017205Y012032D01*
X017177Y012073D01*
X017152Y012117D01*
X017131Y012162D01*
X017114Y012209D01*
X017100Y012257D01*
X017090Y012306D01*
X017084Y012356D01*
X017082Y012406D01*
X016137Y012406D02*
X016139Y012329D01*
X016145Y012252D01*
X016154Y012175D01*
X016167Y012099D01*
X016184Y012023D01*
X016205Y011949D01*
X016229Y011875D01*
X016257Y011803D01*
X016288Y011733D01*
X016323Y011664D01*
X016361Y011596D01*
X016402Y011531D01*
X016447Y011468D01*
X016495Y011407D01*
X016545Y011348D01*
X016598Y011292D01*
X016654Y011239D01*
X016713Y011189D01*
X016774Y011141D01*
X016837Y011096D01*
X016902Y011055D01*
X016970Y011017D01*
X017039Y010982D01*
X017109Y010951D01*
X017181Y010923D01*
X017255Y010899D01*
X017329Y010878D01*
X017405Y010861D01*
X017481Y010848D01*
X017558Y010839D01*
X017635Y010833D01*
X017712Y010831D01*
X024918Y019673D02*
X024920Y019701D01*
X024926Y019728D01*
X024936Y019754D01*
X024949Y019778D01*
X024966Y019801D01*
X024985Y019820D01*
X025008Y019837D01*
X025032Y019850D01*
X025058Y019860D01*
X025085Y019866D01*
X025113Y019868D01*
X025141Y019866D01*
X025168Y019860D01*
X025194Y019850D01*
X025218Y019837D01*
X025241Y019820D01*
X025260Y019801D01*
X025277Y019778D01*
X025290Y019754D01*
X025300Y019728D01*
X025306Y019701D01*
X025308Y019673D01*
X025306Y019645D01*
X025300Y019618D01*
X025290Y019592D01*
X025277Y019568D01*
X025260Y019545D01*
X025241Y019526D01*
X025218Y019509D01*
X025194Y019496D01*
X025168Y019486D01*
X025141Y019480D01*
X025113Y019478D01*
X025085Y019480D01*
X025058Y019486D01*
X025032Y019496D01*
X025008Y019509D01*
X024985Y019526D01*
X024966Y019545D01*
X024949Y019568D01*
X024936Y019592D01*
X024926Y019618D01*
X024920Y019645D01*
X024918Y019673D01*
X024518Y021673D02*
X024520Y021701D01*
X024526Y021728D01*
X024536Y021754D01*
X024549Y021778D01*
X024566Y021801D01*
X024585Y021820D01*
X024608Y021837D01*
X024632Y021850D01*
X024658Y021860D01*
X024685Y021866D01*
X024713Y021868D01*
X024741Y021866D01*
X024768Y021860D01*
X024794Y021850D01*
X024818Y021837D01*
X024841Y021820D01*
X024860Y021801D01*
X024877Y021778D01*
X024890Y021754D01*
X024900Y021728D01*
X024906Y021701D01*
X024908Y021673D01*
X024906Y021645D01*
X024900Y021618D01*
X024890Y021592D01*
X024877Y021568D01*
X024860Y021545D01*
X024841Y021526D01*
X024818Y021509D01*
X024794Y021496D01*
X024768Y021486D01*
X024741Y021480D01*
X024713Y021478D01*
X024685Y021480D01*
X024658Y021486D01*
X024632Y021496D01*
X024608Y021509D01*
X024585Y021526D01*
X024566Y021545D01*
X024549Y021568D01*
X024536Y021592D01*
X024526Y021618D01*
X024520Y021645D01*
X024518Y021673D01*
X025318Y021673D02*
X025320Y021701D01*
X025326Y021728D01*
X025336Y021754D01*
X025349Y021778D01*
X025366Y021801D01*
X025385Y021820D01*
X025408Y021837D01*
X025432Y021850D01*
X025458Y021860D01*
X025485Y021866D01*
X025513Y021868D01*
X025541Y021866D01*
X025568Y021860D01*
X025594Y021850D01*
X025618Y021837D01*
X025641Y021820D01*
X025660Y021801D01*
X025677Y021778D01*
X025690Y021754D01*
X025700Y021728D01*
X025706Y021701D01*
X025708Y021673D01*
X025706Y021645D01*
X025700Y021618D01*
X025690Y021592D01*
X025677Y021568D01*
X025660Y021545D01*
X025641Y021526D01*
X025618Y021509D01*
X025594Y021496D01*
X025568Y021486D01*
X025541Y021480D01*
X025513Y021478D01*
X025485Y021480D01*
X025458Y021486D01*
X025432Y021496D01*
X025408Y021509D01*
X025385Y021526D01*
X025366Y021545D01*
X025349Y021568D01*
X025336Y021592D01*
X025326Y021618D01*
X025320Y021645D01*
X025318Y021673D01*
X032279Y029729D02*
X032279Y012406D01*
X033224Y012406D02*
X033226Y012456D01*
X033232Y012506D01*
X033242Y012555D01*
X033256Y012603D01*
X033273Y012650D01*
X033294Y012695D01*
X033319Y012739D01*
X033347Y012780D01*
X033379Y012819D01*
X033413Y012856D01*
X033450Y012890D01*
X033490Y012920D01*
X033532Y012947D01*
X033576Y012971D01*
X033622Y012992D01*
X033669Y013008D01*
X033717Y013021D01*
X033767Y013030D01*
X033816Y013035D01*
X033867Y013036D01*
X033917Y013033D01*
X033966Y013026D01*
X034015Y013015D01*
X034063Y013000D01*
X034109Y012982D01*
X034154Y012960D01*
X034197Y012934D01*
X034238Y012905D01*
X034277Y012873D01*
X034313Y012838D01*
X034345Y012800D01*
X034375Y012760D01*
X034402Y012717D01*
X034425Y012673D01*
X034444Y012627D01*
X034460Y012579D01*
X034472Y012530D01*
X034480Y012481D01*
X034484Y012431D01*
X034484Y012381D01*
X034480Y012331D01*
X034472Y012282D01*
X034460Y012233D01*
X034444Y012185D01*
X034425Y012139D01*
X034402Y012095D01*
X034375Y012052D01*
X034345Y012012D01*
X034313Y011974D01*
X034277Y011939D01*
X034238Y011907D01*
X034197Y011878D01*
X034154Y011852D01*
X034109Y011830D01*
X034063Y011812D01*
X034015Y011797D01*
X033966Y011786D01*
X033917Y011779D01*
X033867Y011776D01*
X033816Y011777D01*
X033767Y011782D01*
X033717Y011791D01*
X033669Y011804D01*
X033622Y011820D01*
X033576Y011841D01*
X033532Y011865D01*
X033490Y011892D01*
X033450Y011922D01*
X033413Y011956D01*
X033379Y011993D01*
X033347Y012032D01*
X033319Y012073D01*
X033294Y012117D01*
X033273Y012162D01*
X033256Y012209D01*
X033242Y012257D01*
X033232Y012306D01*
X033226Y012356D01*
X033224Y012406D01*
X032279Y012406D02*
X032281Y012329D01*
X032287Y012252D01*
X032296Y012175D01*
X032309Y012099D01*
X032326Y012023D01*
X032347Y011949D01*
X032371Y011875D01*
X032399Y011803D01*
X032430Y011733D01*
X032465Y011664D01*
X032503Y011596D01*
X032544Y011531D01*
X032589Y011468D01*
X032637Y011407D01*
X032687Y011348D01*
X032740Y011292D01*
X032796Y011239D01*
X032855Y011189D01*
X032916Y011141D01*
X032979Y011096D01*
X033044Y011055D01*
X033112Y011017D01*
X033181Y010982D01*
X033251Y010951D01*
X033323Y010923D01*
X033397Y010899D01*
X033471Y010878D01*
X033547Y010861D01*
X033623Y010848D01*
X033700Y010839D01*
X033777Y010833D01*
X033854Y010831D01*
X042909Y010831D01*
X042279Y012406D02*
X042281Y012456D01*
X042287Y012506D01*
X042297Y012555D01*
X042311Y012603D01*
X042328Y012650D01*
X042349Y012695D01*
X042374Y012739D01*
X042402Y012780D01*
X042434Y012819D01*
X042468Y012856D01*
X042505Y012890D01*
X042545Y012920D01*
X042587Y012947D01*
X042631Y012971D01*
X042677Y012992D01*
X042724Y013008D01*
X042772Y013021D01*
X042822Y013030D01*
X042871Y013035D01*
X042922Y013036D01*
X042972Y013033D01*
X043021Y013026D01*
X043070Y013015D01*
X043118Y013000D01*
X043164Y012982D01*
X043209Y012960D01*
X043252Y012934D01*
X043293Y012905D01*
X043332Y012873D01*
X043368Y012838D01*
X043400Y012800D01*
X043430Y012760D01*
X043457Y012717D01*
X043480Y012673D01*
X043499Y012627D01*
X043515Y012579D01*
X043527Y012530D01*
X043535Y012481D01*
X043539Y012431D01*
X043539Y012381D01*
X043535Y012331D01*
X043527Y012282D01*
X043515Y012233D01*
X043499Y012185D01*
X043480Y012139D01*
X043457Y012095D01*
X043430Y012052D01*
X043400Y012012D01*
X043368Y011974D01*
X043332Y011939D01*
X043293Y011907D01*
X043252Y011878D01*
X043209Y011852D01*
X043164Y011830D01*
X043118Y011812D01*
X043070Y011797D01*
X043021Y011786D01*
X042972Y011779D01*
X042922Y011776D01*
X042871Y011777D01*
X042822Y011782D01*
X042772Y011791D01*
X042724Y011804D01*
X042677Y011820D01*
X042631Y011841D01*
X042587Y011865D01*
X042545Y011892D01*
X042505Y011922D01*
X042468Y011956D01*
X042434Y011993D01*
X042402Y012032D01*
X042374Y012073D01*
X042349Y012117D01*
X042328Y012162D01*
X042311Y012209D01*
X042297Y012257D01*
X042287Y012306D01*
X042281Y012356D01*
X042279Y012406D01*
X042909Y010831D02*
X042986Y010833D01*
X043063Y010839D01*
X043140Y010848D01*
X043216Y010861D01*
X043292Y010878D01*
X043366Y010899D01*
X043440Y010923D01*
X043512Y010951D01*
X043582Y010982D01*
X043651Y011017D01*
X043719Y011055D01*
X043784Y011096D01*
X043847Y011141D01*
X043908Y011189D01*
X043967Y011239D01*
X044023Y011292D01*
X044076Y011348D01*
X044126Y011407D01*
X044174Y011468D01*
X044219Y011531D01*
X044260Y011596D01*
X044298Y011664D01*
X044333Y011733D01*
X044364Y011803D01*
X044392Y011875D01*
X044416Y011949D01*
X044437Y012023D01*
X044454Y012099D01*
X044467Y012175D01*
X044476Y012252D01*
X044482Y012329D01*
X044484Y012406D01*
X044483Y012406D02*
X044483Y029729D01*
X044484Y029729D02*
X044482Y029806D01*
X044476Y029883D01*
X044467Y029960D01*
X044454Y030036D01*
X044437Y030112D01*
X044416Y030186D01*
X044392Y030260D01*
X044364Y030332D01*
X044333Y030402D01*
X044298Y030471D01*
X044260Y030539D01*
X044219Y030604D01*
X044174Y030667D01*
X044126Y030728D01*
X044076Y030787D01*
X044023Y030843D01*
X043967Y030896D01*
X043908Y030946D01*
X043847Y030994D01*
X043784Y031039D01*
X043719Y031080D01*
X043651Y031118D01*
X043582Y031153D01*
X043512Y031184D01*
X043440Y031212D01*
X043366Y031236D01*
X043292Y031257D01*
X043216Y031274D01*
X043140Y031287D01*
X043063Y031296D01*
X042986Y031302D01*
X042909Y031304D01*
X042909Y031303D02*
X033854Y031303D01*
X033854Y031304D02*
X033777Y031302D01*
X033700Y031296D01*
X033623Y031287D01*
X033547Y031274D01*
X033471Y031257D01*
X033397Y031236D01*
X033323Y031212D01*
X033251Y031184D01*
X033181Y031153D01*
X033112Y031118D01*
X033044Y031080D01*
X032979Y031039D01*
X032916Y030994D01*
X032855Y030946D01*
X032796Y030896D01*
X032740Y030843D01*
X032687Y030787D01*
X032637Y030728D01*
X032589Y030667D01*
X032544Y030604D01*
X032503Y030539D01*
X032465Y030471D01*
X032430Y030402D01*
X032399Y030332D01*
X032371Y030260D01*
X032347Y030186D01*
X032326Y030112D01*
X032309Y030036D01*
X032296Y029960D01*
X032287Y029883D01*
X032281Y029806D01*
X032279Y029729D01*
X040660Y021673D02*
X040662Y021701D01*
X040668Y021728D01*
X040678Y021754D01*
X040691Y021778D01*
X040708Y021801D01*
X040727Y021820D01*
X040750Y021837D01*
X040774Y021850D01*
X040800Y021860D01*
X040827Y021866D01*
X040855Y021868D01*
X040883Y021866D01*
X040910Y021860D01*
X040936Y021850D01*
X040960Y021837D01*
X040983Y021820D01*
X041002Y021801D01*
X041019Y021778D01*
X041032Y021754D01*
X041042Y021728D01*
X041048Y021701D01*
X041050Y021673D01*
X041048Y021645D01*
X041042Y021618D01*
X041032Y021592D01*
X041019Y021568D01*
X041002Y021545D01*
X040983Y021526D01*
X040960Y021509D01*
X040936Y021496D01*
X040910Y021486D01*
X040883Y021480D01*
X040855Y021478D01*
X040827Y021480D01*
X040800Y021486D01*
X040774Y021496D01*
X040750Y021509D01*
X040727Y021526D01*
X040708Y021545D01*
X040691Y021568D01*
X040678Y021592D01*
X040668Y021618D01*
X040662Y021645D01*
X040660Y021673D01*
X041460Y021673D02*
X041462Y021701D01*
X041468Y021728D01*
X041478Y021754D01*
X041491Y021778D01*
X041508Y021801D01*
X041527Y021820D01*
X041550Y021837D01*
X041574Y021850D01*
X041600Y021860D01*
X041627Y021866D01*
X041655Y021868D01*
X041683Y021866D01*
X041710Y021860D01*
X041736Y021850D01*
X041760Y021837D01*
X041783Y021820D01*
X041802Y021801D01*
X041819Y021778D01*
X041832Y021754D01*
X041842Y021728D01*
X041848Y021701D01*
X041850Y021673D01*
X041848Y021645D01*
X041842Y021618D01*
X041832Y021592D01*
X041819Y021568D01*
X041802Y021545D01*
X041783Y021526D01*
X041760Y021509D01*
X041736Y021496D01*
X041710Y021486D01*
X041683Y021480D01*
X041655Y021478D01*
X041627Y021480D01*
X041600Y021486D01*
X041574Y021496D01*
X041550Y021509D01*
X041527Y021526D01*
X041508Y021545D01*
X041491Y021568D01*
X041478Y021592D01*
X041468Y021618D01*
X041462Y021645D01*
X041460Y021673D01*
X041060Y019673D02*
X041062Y019701D01*
X041068Y019728D01*
X041078Y019754D01*
X041091Y019778D01*
X041108Y019801D01*
X041127Y019820D01*
X041150Y019837D01*
X041174Y019850D01*
X041200Y019860D01*
X041227Y019866D01*
X041255Y019868D01*
X041283Y019866D01*
X041310Y019860D01*
X041336Y019850D01*
X041360Y019837D01*
X041383Y019820D01*
X041402Y019801D01*
X041419Y019778D01*
X041432Y019754D01*
X041442Y019728D01*
X041448Y019701D01*
X041450Y019673D01*
X041448Y019645D01*
X041442Y019618D01*
X041432Y019592D01*
X041419Y019568D01*
X041402Y019545D01*
X041383Y019526D01*
X041360Y019509D01*
X041336Y019496D01*
X041310Y019486D01*
X041283Y019480D01*
X041255Y019478D01*
X041227Y019480D01*
X041200Y019486D01*
X041174Y019496D01*
X041150Y019509D01*
X041127Y019526D01*
X041108Y019545D01*
X041091Y019568D01*
X041078Y019592D01*
X041068Y019618D01*
X041062Y019645D01*
X041060Y019673D01*
X045862Y008862D02*
X045864Y008918D01*
X045870Y008973D01*
X045880Y009027D01*
X045893Y009081D01*
X045911Y009134D01*
X045932Y009185D01*
X045956Y009235D01*
X045984Y009283D01*
X046016Y009329D01*
X046050Y009373D01*
X046088Y009414D01*
X046128Y009452D01*
X046171Y009487D01*
X046216Y009519D01*
X046264Y009548D01*
X046313Y009574D01*
X046364Y009596D01*
X046416Y009614D01*
X046470Y009628D01*
X046525Y009639D01*
X046580Y009646D01*
X046635Y009649D01*
X046691Y009648D01*
X046746Y009643D01*
X046801Y009634D01*
X046855Y009622D01*
X046908Y009605D01*
X046960Y009585D01*
X047010Y009561D01*
X047058Y009534D01*
X047105Y009504D01*
X047149Y009470D01*
X047191Y009433D01*
X047229Y009393D01*
X047266Y009351D01*
X047299Y009306D01*
X047328Y009260D01*
X047355Y009211D01*
X047377Y009160D01*
X047397Y009108D01*
X047412Y009054D01*
X047424Y009000D01*
X047432Y008945D01*
X047436Y008890D01*
X047436Y008834D01*
X047432Y008779D01*
X047424Y008724D01*
X047412Y008670D01*
X047397Y008616D01*
X047377Y008564D01*
X047355Y008513D01*
X047328Y008464D01*
X047299Y008418D01*
X047266Y008373D01*
X047229Y008331D01*
X047191Y008291D01*
X047149Y008254D01*
X047105Y008220D01*
X047058Y008190D01*
X047010Y008163D01*
X046960Y008139D01*
X046908Y008119D01*
X046855Y008102D01*
X046801Y008090D01*
X046746Y008081D01*
X046691Y008076D01*
X046635Y008075D01*
X046580Y008078D01*
X046525Y008085D01*
X046470Y008096D01*
X046416Y008110D01*
X046364Y008128D01*
X046313Y008150D01*
X046264Y008176D01*
X046216Y008205D01*
X046171Y008237D01*
X046128Y008272D01*
X046088Y008310D01*
X046050Y008351D01*
X046016Y008395D01*
X045984Y008441D01*
X045956Y008489D01*
X045932Y008539D01*
X045911Y008590D01*
X045893Y008643D01*
X045880Y008697D01*
X045870Y008751D01*
X045864Y008806D01*
X045862Y008862D01*
X045862Y033666D02*
X045864Y033722D01*
X045870Y033777D01*
X045880Y033831D01*
X045893Y033885D01*
X045911Y033938D01*
X045932Y033989D01*
X045956Y034039D01*
X045984Y034087D01*
X046016Y034133D01*
X046050Y034177D01*
X046088Y034218D01*
X046128Y034256D01*
X046171Y034291D01*
X046216Y034323D01*
X046264Y034352D01*
X046313Y034378D01*
X046364Y034400D01*
X046416Y034418D01*
X046470Y034432D01*
X046525Y034443D01*
X046580Y034450D01*
X046635Y034453D01*
X046691Y034452D01*
X046746Y034447D01*
X046801Y034438D01*
X046855Y034426D01*
X046908Y034409D01*
X046960Y034389D01*
X047010Y034365D01*
X047058Y034338D01*
X047105Y034308D01*
X047149Y034274D01*
X047191Y034237D01*
X047229Y034197D01*
X047266Y034155D01*
X047299Y034110D01*
X047328Y034064D01*
X047355Y034015D01*
X047377Y033964D01*
X047397Y033912D01*
X047412Y033858D01*
X047424Y033804D01*
X047432Y033749D01*
X047436Y033694D01*
X047436Y033638D01*
X047432Y033583D01*
X047424Y033528D01*
X047412Y033474D01*
X047397Y033420D01*
X047377Y033368D01*
X047355Y033317D01*
X047328Y033268D01*
X047299Y033222D01*
X047266Y033177D01*
X047229Y033135D01*
X047191Y033095D01*
X047149Y033058D01*
X047105Y033024D01*
X047058Y032994D01*
X047010Y032967D01*
X046960Y032943D01*
X046908Y032923D01*
X046855Y032906D01*
X046801Y032894D01*
X046746Y032885D01*
X046691Y032880D01*
X046635Y032879D01*
X046580Y032882D01*
X046525Y032889D01*
X046470Y032900D01*
X046416Y032914D01*
X046364Y032932D01*
X046313Y032954D01*
X046264Y032980D01*
X046216Y033009D01*
X046171Y033041D01*
X046128Y033076D01*
X046088Y033114D01*
X046050Y033155D01*
X046016Y033199D01*
X045984Y033245D01*
X045956Y033293D01*
X045932Y033343D01*
X045911Y033394D01*
X045893Y033447D01*
X045880Y033501D01*
X045870Y033555D01*
X045864Y033610D01*
X045862Y033666D01*
X013382Y033666D02*
X013384Y033722D01*
X013390Y033777D01*
X013400Y033831D01*
X013413Y033885D01*
X013431Y033938D01*
X013452Y033989D01*
X013476Y034039D01*
X013504Y034087D01*
X013536Y034133D01*
X013570Y034177D01*
X013608Y034218D01*
X013648Y034256D01*
X013691Y034291D01*
X013736Y034323D01*
X013784Y034352D01*
X013833Y034378D01*
X013884Y034400D01*
X013936Y034418D01*
X013990Y034432D01*
X014045Y034443D01*
X014100Y034450D01*
X014155Y034453D01*
X014211Y034452D01*
X014266Y034447D01*
X014321Y034438D01*
X014375Y034426D01*
X014428Y034409D01*
X014480Y034389D01*
X014530Y034365D01*
X014578Y034338D01*
X014625Y034308D01*
X014669Y034274D01*
X014711Y034237D01*
X014749Y034197D01*
X014786Y034155D01*
X014819Y034110D01*
X014848Y034064D01*
X014875Y034015D01*
X014897Y033964D01*
X014917Y033912D01*
X014932Y033858D01*
X014944Y033804D01*
X014952Y033749D01*
X014956Y033694D01*
X014956Y033638D01*
X014952Y033583D01*
X014944Y033528D01*
X014932Y033474D01*
X014917Y033420D01*
X014897Y033368D01*
X014875Y033317D01*
X014848Y033268D01*
X014819Y033222D01*
X014786Y033177D01*
X014749Y033135D01*
X014711Y033095D01*
X014669Y033058D01*
X014625Y033024D01*
X014578Y032994D01*
X014530Y032967D01*
X014480Y032943D01*
X014428Y032923D01*
X014375Y032906D01*
X014321Y032894D01*
X014266Y032885D01*
X014211Y032880D01*
X014155Y032879D01*
X014100Y032882D01*
X014045Y032889D01*
X013990Y032900D01*
X013936Y032914D01*
X013884Y032932D01*
X013833Y032954D01*
X013784Y032980D01*
X013736Y033009D01*
X013691Y033041D01*
X013648Y033076D01*
X013608Y033114D01*
X013570Y033155D01*
X013536Y033199D01*
X013504Y033245D01*
X013476Y033293D01*
X013452Y033343D01*
X013431Y033394D01*
X013413Y033447D01*
X013400Y033501D01*
X013390Y033555D01*
X013384Y033610D01*
X013382Y033666D01*
D11*
X017712Y031697D02*
X019680Y031697D01*
X017712Y031698D02*
X017626Y031696D01*
X017540Y031691D01*
X017455Y031681D01*
X017370Y031668D01*
X017286Y031651D01*
X017202Y031631D01*
X017120Y031607D01*
X017039Y031579D01*
X016958Y031548D01*
X016880Y031514D01*
X016803Y031476D01*
X016728Y031434D01*
X016654Y031390D01*
X016583Y031342D01*
X016513Y031291D01*
X016446Y031237D01*
X016382Y031181D01*
X016320Y031121D01*
X016260Y031059D01*
X016204Y030995D01*
X016150Y030928D01*
X016099Y030858D01*
X016051Y030787D01*
X016007Y030714D01*
X015965Y030638D01*
X015927Y030561D01*
X015893Y030483D01*
X015862Y030402D01*
X015834Y030321D01*
X015810Y030239D01*
X015790Y030155D01*
X015773Y030071D01*
X015760Y029986D01*
X015750Y029901D01*
X015745Y029815D01*
X015743Y029729D01*
X015743Y027760D01*
X024798Y031697D02*
X026767Y031697D01*
X026767Y031698D02*
X026853Y031696D01*
X026939Y031691D01*
X027024Y031681D01*
X027109Y031668D01*
X027193Y031651D01*
X027277Y031631D01*
X027359Y031607D01*
X027440Y031579D01*
X027521Y031548D01*
X027599Y031514D01*
X027676Y031476D01*
X027752Y031434D01*
X027825Y031390D01*
X027896Y031342D01*
X027966Y031291D01*
X028033Y031237D01*
X028097Y031181D01*
X028159Y031121D01*
X028219Y031059D01*
X028275Y030995D01*
X028329Y030928D01*
X028380Y030858D01*
X028428Y030787D01*
X028472Y030714D01*
X028514Y030638D01*
X028552Y030561D01*
X028586Y030483D01*
X028617Y030402D01*
X028645Y030321D01*
X028669Y030239D01*
X028689Y030155D01*
X028706Y030071D01*
X028719Y029986D01*
X028729Y029901D01*
X028734Y029815D01*
X028736Y029729D01*
X028735Y029729D02*
X028735Y027760D01*
X031885Y027760D02*
X031885Y029729D01*
X031887Y029815D01*
X031892Y029901D01*
X031902Y029986D01*
X031915Y030071D01*
X031932Y030155D01*
X031952Y030239D01*
X031976Y030321D01*
X032004Y030402D01*
X032035Y030483D01*
X032069Y030561D01*
X032107Y030638D01*
X032149Y030714D01*
X032193Y030787D01*
X032241Y030858D01*
X032292Y030928D01*
X032346Y030995D01*
X032402Y031059D01*
X032462Y031121D01*
X032524Y031181D01*
X032588Y031237D01*
X032655Y031291D01*
X032725Y031342D01*
X032796Y031390D01*
X032870Y031434D01*
X032945Y031476D01*
X033022Y031514D01*
X033100Y031548D01*
X033181Y031579D01*
X033262Y031607D01*
X033344Y031631D01*
X033428Y031651D01*
X033512Y031668D01*
X033597Y031681D01*
X033682Y031691D01*
X033768Y031696D01*
X033854Y031698D01*
X033854Y031697D02*
X035822Y031697D01*
X040940Y031697D02*
X042909Y031697D01*
X042909Y031698D02*
X042995Y031696D01*
X043081Y031691D01*
X043166Y031681D01*
X043251Y031668D01*
X043335Y031651D01*
X043419Y031631D01*
X043501Y031607D01*
X043582Y031579D01*
X043663Y031548D01*
X043741Y031514D01*
X043818Y031476D01*
X043894Y031434D01*
X043967Y031390D01*
X044038Y031342D01*
X044108Y031291D01*
X044175Y031237D01*
X044239Y031181D01*
X044301Y031121D01*
X044361Y031059D01*
X044417Y030995D01*
X044471Y030928D01*
X044522Y030858D01*
X044570Y030787D01*
X044614Y030714D01*
X044656Y030638D01*
X044694Y030561D01*
X044728Y030483D01*
X044759Y030402D01*
X044787Y030321D01*
X044811Y030239D01*
X044831Y030155D01*
X044848Y030071D01*
X044861Y029986D01*
X044871Y029901D01*
X044876Y029815D01*
X044878Y029729D01*
X044877Y029689D02*
X044877Y027721D01*
X044877Y014374D02*
X044877Y012406D01*
X044878Y012406D02*
X044876Y012320D01*
X044871Y012234D01*
X044861Y012149D01*
X044848Y012064D01*
X044831Y011980D01*
X044811Y011896D01*
X044787Y011814D01*
X044759Y011733D01*
X044728Y011652D01*
X044694Y011574D01*
X044656Y011497D01*
X044614Y011421D01*
X044570Y011348D01*
X044522Y011277D01*
X044471Y011207D01*
X044417Y011140D01*
X044361Y011076D01*
X044301Y011014D01*
X044239Y010954D01*
X044175Y010898D01*
X044108Y010844D01*
X044038Y010793D01*
X043967Y010745D01*
X043894Y010701D01*
X043818Y010659D01*
X043741Y010621D01*
X043663Y010587D01*
X043582Y010556D01*
X043501Y010528D01*
X043419Y010504D01*
X043335Y010484D01*
X043251Y010467D01*
X043166Y010454D01*
X043081Y010444D01*
X042995Y010439D01*
X042909Y010437D01*
X040940Y010437D01*
X035822Y010437D02*
X033854Y010437D01*
X033768Y010439D01*
X033682Y010444D01*
X033597Y010454D01*
X033512Y010467D01*
X033428Y010484D01*
X033344Y010504D01*
X033262Y010528D01*
X033181Y010556D01*
X033100Y010587D01*
X033022Y010621D01*
X032945Y010659D01*
X032870Y010701D01*
X032796Y010745D01*
X032725Y010793D01*
X032655Y010844D01*
X032588Y010898D01*
X032524Y010954D01*
X032462Y011014D01*
X032402Y011076D01*
X032346Y011140D01*
X032292Y011207D01*
X032241Y011277D01*
X032193Y011348D01*
X032149Y011422D01*
X032107Y011497D01*
X032069Y011574D01*
X032035Y011652D01*
X032004Y011733D01*
X031976Y011814D01*
X031952Y011896D01*
X031932Y011980D01*
X031915Y012064D01*
X031902Y012149D01*
X031892Y012234D01*
X031887Y012320D01*
X031885Y012406D01*
X031885Y014374D01*
X028735Y014374D02*
X028735Y012406D01*
X028736Y012406D02*
X028734Y012320D01*
X028729Y012234D01*
X028719Y012149D01*
X028706Y012064D01*
X028689Y011980D01*
X028669Y011896D01*
X028645Y011814D01*
X028617Y011733D01*
X028586Y011652D01*
X028552Y011574D01*
X028514Y011497D01*
X028472Y011421D01*
X028428Y011348D01*
X028380Y011277D01*
X028329Y011207D01*
X028275Y011140D01*
X028219Y011076D01*
X028159Y011014D01*
X028097Y010954D01*
X028033Y010898D01*
X027966Y010844D01*
X027896Y010793D01*
X027825Y010745D01*
X027752Y010701D01*
X027676Y010659D01*
X027599Y010621D01*
X027521Y010587D01*
X027440Y010556D01*
X027359Y010528D01*
X027277Y010504D01*
X027193Y010484D01*
X027109Y010467D01*
X027024Y010454D01*
X026939Y010444D01*
X026853Y010439D01*
X026767Y010437D01*
X024798Y010437D01*
X019680Y010437D02*
X017712Y010437D01*
X017626Y010439D01*
X017540Y010444D01*
X017455Y010454D01*
X017370Y010467D01*
X017286Y010484D01*
X017202Y010504D01*
X017120Y010528D01*
X017039Y010556D01*
X016958Y010587D01*
X016880Y010621D01*
X016803Y010659D01*
X016727Y010701D01*
X016654Y010745D01*
X016583Y010793D01*
X016513Y010844D01*
X016446Y010898D01*
X016382Y010954D01*
X016320Y011014D01*
X016260Y011076D01*
X016204Y011140D01*
X016150Y011207D01*
X016099Y011277D01*
X016051Y011348D01*
X016007Y011422D01*
X015965Y011497D01*
X015927Y011574D01*
X015893Y011652D01*
X015862Y011733D01*
X015834Y011814D01*
X015810Y011896D01*
X015790Y011980D01*
X015773Y012064D01*
X015760Y012149D01*
X015750Y012234D01*
X015745Y012320D01*
X015743Y012406D01*
X015743Y012445D02*
X015743Y014414D01*
D12*
X012200Y010831D02*
X048420Y010831D01*
X044483Y006894D02*
X044483Y035634D01*
X048381Y031697D02*
X012200Y031697D01*
X016137Y035634D02*
X016137Y006894D01*
X028342Y006894D02*
X028342Y035634D01*
X032279Y035634D02*
X032279Y006894D01*
D13*
X032268Y005330D02*
X032171Y005233D01*
X032171Y004846D01*
X032268Y004749D01*
X032461Y004749D01*
X032558Y004846D01*
X032816Y004846D02*
X032912Y004749D01*
X033106Y004749D01*
X033203Y004846D01*
X033203Y005330D01*
X033460Y005330D02*
X033847Y005330D01*
X033654Y005330D02*
X033654Y004749D01*
X032816Y004846D02*
X032816Y005330D01*
X032558Y005233D02*
X032461Y005330D01*
X032268Y005330D01*
X031914Y005039D02*
X031527Y005039D01*
X031269Y004943D02*
X031269Y005330D01*
X030882Y005330D02*
X030882Y004943D01*
X031076Y004749D01*
X031269Y004943D01*
X029910Y005330D02*
X029523Y005330D01*
X029717Y005330D02*
X029717Y004749D01*
X029266Y004846D02*
X029266Y005330D01*
X028879Y005330D02*
X028879Y004846D01*
X028975Y004749D01*
X029169Y004749D01*
X029266Y004846D01*
X028621Y004846D02*
X028524Y004749D01*
X028331Y004749D01*
X028234Y004846D01*
X028234Y005233D01*
X028331Y005330D01*
X028524Y005330D01*
X028621Y005233D01*
X027977Y005039D02*
X027590Y005039D01*
X027332Y004943D02*
X027332Y005330D01*
X026945Y005330D02*
X026945Y004943D01*
X027139Y004749D01*
X027332Y004943D01*
X017745Y005487D02*
X017358Y005487D01*
X017551Y005487D02*
X017551Y004907D01*
X017100Y005003D02*
X017100Y005487D01*
X016713Y005487D02*
X016713Y005003D01*
X016810Y004907D01*
X017004Y004907D01*
X017100Y005003D01*
X016456Y005003D02*
X016359Y004907D01*
X016166Y004907D01*
X016069Y005003D01*
X016069Y005390D01*
X016166Y005487D01*
X016359Y005487D01*
X016456Y005390D01*
X015811Y005197D02*
X015424Y005197D01*
X015167Y005100D02*
X015167Y005487D01*
X015167Y005100D02*
X014973Y004907D01*
X014780Y005100D01*
X014780Y005487D01*
X043087Y005330D02*
X043087Y004943D01*
X043280Y004749D01*
X043474Y004943D01*
X043474Y005330D01*
X043731Y005039D02*
X044118Y005039D01*
X044376Y004846D02*
X044473Y004749D01*
X044666Y004749D01*
X044763Y004846D01*
X045020Y004846D02*
X045117Y004749D01*
X045311Y004749D01*
X045407Y004846D01*
X045407Y005330D01*
X045665Y005330D02*
X046052Y005330D01*
X045858Y005330D02*
X045858Y004749D01*
X045020Y004846D02*
X045020Y005330D01*
X044763Y005233D02*
X044666Y005330D01*
X044473Y005330D01*
X044376Y005233D01*
X044376Y004846D01*
X050170Y010576D02*
X050364Y010770D01*
X050364Y011157D01*
X049977Y011157D02*
X049977Y010770D01*
X050170Y010576D01*
X050621Y010866D02*
X051008Y010866D01*
X051266Y010673D02*
X051362Y010576D01*
X051556Y010576D01*
X051653Y010673D01*
X051910Y010673D02*
X052007Y010576D01*
X052200Y010576D01*
X052297Y010673D01*
X052297Y011157D01*
X052555Y011157D02*
X052942Y011157D01*
X052748Y011157D02*
X052748Y010576D01*
X051910Y010673D02*
X051910Y011157D01*
X051653Y011060D02*
X051556Y011157D01*
X051362Y011157D01*
X051266Y011060D01*
X051266Y010673D01*
X051323Y031442D02*
X051517Y031442D01*
X051613Y031539D01*
X051871Y031539D02*
X051968Y031442D01*
X052161Y031442D01*
X052258Y031539D01*
X052258Y032023D01*
X052515Y032023D02*
X052902Y032023D01*
X052709Y032023D02*
X052709Y031442D01*
X051871Y031539D02*
X051871Y032023D01*
X051613Y031926D02*
X051517Y032023D01*
X051323Y032023D01*
X051226Y031926D01*
X051226Y031539D01*
X051323Y031442D01*
X050969Y031732D02*
X050582Y031732D01*
X050324Y031636D02*
X050324Y032023D01*
X049937Y032023D02*
X049937Y031636D01*
X050131Y031442D01*
X050324Y031636D01*
D14*
X049562Y031697D02*
X048539Y031697D01*
X048775Y031933D01*
X048775Y031461D01*
X048539Y031697D01*
X048814Y011067D02*
X048578Y010831D01*
X049602Y010831D01*
X048814Y010595D02*
X048814Y011067D01*
X048578Y010831D02*
X048814Y010595D01*
X044720Y006500D02*
X044483Y006736D01*
X044483Y005713D01*
X044247Y006500D02*
X044720Y006500D01*
X044483Y006736D02*
X044247Y006500D01*
X032515Y006500D02*
X032279Y006736D01*
X032279Y005713D01*
X032043Y006500D02*
X032515Y006500D01*
X032279Y006736D02*
X032043Y006500D01*
X028578Y006500D02*
X028342Y006736D01*
X028342Y005713D01*
X028106Y006500D02*
X028578Y006500D01*
X028342Y006736D02*
X028106Y006500D01*
X016373Y006500D02*
X016137Y006736D01*
X016137Y005713D01*
X015901Y006500D02*
X016373Y006500D01*
X016137Y006736D02*
X015901Y006500D01*
M02*
