G75*
%MOIN*%
%OFA0B0*%
%FSLAX25Y25*%
%IPPOS*%
%LPD*%
%AMOC8*
5,1,8,0,0,1.08239X$1,22.5*
%
%ADD10C,0.00800*%
%ADD11OC8,0.05937*%
%ADD12OC8,0.08500*%
%ADD13C,0.00787*%
%ADD14C,0.02362*%
%ADD15C,0.02362*%
%ADD16C,0.03150*%
D10*
X0101481Y0089648D02*
X0103051Y0089648D01*
X0103574Y0090171D01*
X0103574Y0091218D01*
X0103051Y0091741D01*
X0101481Y0091741D01*
X0101481Y0092788D02*
X0101481Y0089648D01*
X0105106Y0090695D02*
X0105106Y0091218D01*
X0105629Y0091741D01*
X0106676Y0091741D01*
X0107199Y0091218D01*
X0107199Y0090171D01*
X0106676Y0089648D01*
X0105629Y0089648D01*
X0105106Y0090695D02*
X0107199Y0090695D01*
X0108731Y0090171D02*
X0109255Y0090695D01*
X0110301Y0090695D01*
X0110824Y0091218D01*
X0110301Y0091741D01*
X0108731Y0091741D01*
X0108731Y0090171D02*
X0109255Y0089648D01*
X0110824Y0089648D01*
X0112356Y0089648D02*
X0112356Y0091218D01*
X0112880Y0091741D01*
X0114449Y0091741D01*
X0114449Y0089648D01*
X0115982Y0090695D02*
X0115982Y0091218D01*
X0116505Y0091741D01*
X0117551Y0091741D01*
X0118075Y0091218D01*
X0118075Y0090171D01*
X0117551Y0089648D01*
X0116505Y0089648D01*
X0115982Y0090695D02*
X0118075Y0090695D01*
X0119607Y0091741D02*
X0121176Y0091741D01*
X0121700Y0091218D01*
X0121700Y0090171D01*
X0121176Y0089648D01*
X0119607Y0089648D01*
X0123070Y0089648D02*
X0124117Y0089648D01*
X0123593Y0089648D02*
X0123593Y0091741D01*
X0124117Y0091741D01*
X0123593Y0092788D02*
X0123593Y0093311D01*
X0127742Y0092788D02*
X0127742Y0089648D01*
X0125649Y0089648D01*
X0132899Y0089648D02*
X0132899Y0091741D01*
X0133945Y0092788D01*
X0134992Y0091741D01*
X0134992Y0089648D01*
X0134992Y0091218D02*
X0132899Y0091218D01*
X0136524Y0090695D02*
X0136524Y0090171D01*
X0137047Y0089648D01*
X0138094Y0089648D01*
X0138617Y0090171D01*
X0138094Y0091218D02*
X0137047Y0091218D01*
X0136524Y0090695D01*
X0136524Y0092264D02*
X0137047Y0092788D01*
X0138094Y0092788D01*
X0138617Y0092264D01*
X0138617Y0091741D01*
X0138094Y0091218D01*
X0140149Y0091218D02*
X0142242Y0091218D01*
X0143774Y0092264D02*
X0143774Y0092788D01*
X0143774Y0092264D02*
X0144821Y0091218D01*
X0144821Y0089648D01*
X0144821Y0091218D02*
X0145867Y0092264D01*
X0145867Y0092788D01*
X0147399Y0092264D02*
X0147399Y0091741D01*
X0147923Y0091218D01*
X0149492Y0091218D01*
X0151024Y0091218D02*
X0153118Y0091218D01*
X0154650Y0092264D02*
X0155173Y0092788D01*
X0156219Y0092788D01*
X0156743Y0092264D01*
X0156743Y0090171D01*
X0156219Y0089648D01*
X0155173Y0089648D01*
X0154650Y0090171D01*
X0158275Y0090171D02*
X0158798Y0089648D01*
X0159845Y0089648D01*
X0160368Y0090171D01*
X0160368Y0092264D01*
X0159845Y0092788D01*
X0158798Y0092788D01*
X0158275Y0092264D01*
X0149492Y0092788D02*
X0149492Y0089648D01*
X0147923Y0089648D01*
X0147399Y0090171D01*
X0147399Y0090695D01*
X0147923Y0091218D01*
X0147399Y0092264D02*
X0147923Y0092788D01*
X0149492Y0092788D01*
X0262898Y0092788D02*
X0262898Y0089648D01*
X0264468Y0089648D01*
X0264991Y0090171D01*
X0264991Y0091218D01*
X0264468Y0091741D01*
X0262898Y0091741D01*
X0266523Y0091218D02*
X0266523Y0090695D01*
X0268617Y0090695D01*
X0268617Y0091218D02*
X0268617Y0090171D01*
X0268093Y0089648D01*
X0267047Y0089648D01*
X0266523Y0091218D02*
X0267047Y0091741D01*
X0268093Y0091741D01*
X0268617Y0091218D01*
X0270149Y0091741D02*
X0271718Y0091741D01*
X0272242Y0091218D01*
X0271718Y0090695D01*
X0270672Y0090695D01*
X0270149Y0090171D01*
X0270672Y0089648D01*
X0272242Y0089648D01*
X0273774Y0089648D02*
X0273774Y0091218D01*
X0274297Y0091741D01*
X0275867Y0091741D01*
X0275867Y0089648D01*
X0277399Y0090695D02*
X0279492Y0090695D01*
X0279492Y0091218D02*
X0279492Y0090171D01*
X0278969Y0089648D01*
X0277922Y0089648D01*
X0277399Y0090695D02*
X0277399Y0091218D01*
X0277922Y0091741D01*
X0278969Y0091741D01*
X0279492Y0091218D01*
X0281024Y0091741D02*
X0282594Y0091741D01*
X0283117Y0091218D01*
X0283117Y0090171D01*
X0282594Y0089648D01*
X0281024Y0089648D01*
X0284487Y0089648D02*
X0285534Y0089648D01*
X0285011Y0089648D02*
X0285011Y0091741D01*
X0285534Y0091741D01*
X0285011Y0092788D02*
X0285011Y0093311D01*
X0289159Y0092788D02*
X0289159Y0089648D01*
X0287066Y0089648D01*
X0294316Y0089648D02*
X0294316Y0091741D01*
X0295363Y0092788D01*
X0296409Y0091741D01*
X0296409Y0089648D01*
X0296409Y0091218D02*
X0294316Y0091218D01*
X0297941Y0090695D02*
X0297941Y0090171D01*
X0298465Y0089648D01*
X0299511Y0089648D01*
X0300034Y0090171D01*
X0299511Y0091218D02*
X0298465Y0091218D01*
X0297941Y0090695D01*
X0297941Y0092264D02*
X0298465Y0092788D01*
X0299511Y0092788D01*
X0300034Y0092264D01*
X0300034Y0091741D01*
X0299511Y0091218D01*
X0301566Y0091218D02*
X0303660Y0091218D01*
X0305192Y0092264D02*
X0305192Y0092788D01*
X0305192Y0092264D02*
X0306238Y0091218D01*
X0306238Y0089648D01*
X0306238Y0091218D02*
X0307285Y0092264D01*
X0307285Y0092788D01*
X0308817Y0092264D02*
X0308817Y0091741D01*
X0309340Y0091218D01*
X0310910Y0091218D01*
X0312442Y0091218D02*
X0314535Y0091218D01*
X0316067Y0092264D02*
X0316590Y0092788D01*
X0317637Y0092788D01*
X0318160Y0092264D01*
X0318160Y0090171D01*
X0317637Y0089648D01*
X0316590Y0089648D01*
X0316067Y0090171D01*
X0319692Y0090171D02*
X0320215Y0089648D01*
X0321262Y0089648D01*
X0321785Y0090171D01*
X0321785Y0092264D01*
X0321262Y0092788D01*
X0320215Y0092788D01*
X0319692Y0092264D01*
X0310910Y0092788D02*
X0310910Y0089648D01*
X0309340Y0089648D01*
X0308817Y0090171D01*
X0308817Y0090695D01*
X0309340Y0091218D01*
X0308817Y0092264D02*
X0309340Y0092788D01*
X0310910Y0092788D01*
D11*
X0345401Y0119917D03*
X0345401Y0129917D03*
X0345401Y0139917D03*
X0345401Y0149917D03*
X0345401Y0159917D03*
X0345401Y0169917D03*
X0345401Y0179917D03*
X0345401Y0189917D03*
X0345401Y0199917D03*
X0345401Y0209917D03*
X0345401Y0219917D03*
X0345401Y0229917D03*
X0345401Y0239917D03*
X0345401Y0249917D03*
X0235401Y0249917D03*
X0235401Y0239917D03*
X0235401Y0229917D03*
X0235401Y0219917D03*
X0235401Y0209917D03*
X0235401Y0199917D03*
X0235401Y0189917D03*
X0235401Y0179917D03*
X0235401Y0169917D03*
X0235401Y0159917D03*
X0235401Y0149917D03*
X0235401Y0139917D03*
X0235401Y0129917D03*
X0235401Y0119917D03*
X0183984Y0119917D03*
X0183984Y0129917D03*
X0183984Y0139917D03*
X0183984Y0149917D03*
X0183984Y0159917D03*
X0183984Y0169917D03*
X0183984Y0179917D03*
X0183984Y0189917D03*
X0183984Y0199917D03*
X0183984Y0209917D03*
X0183984Y0219917D03*
X0183984Y0229917D03*
X0183984Y0239917D03*
X0183984Y0249917D03*
X0073984Y0249917D03*
X0073984Y0239917D03*
X0073984Y0229917D03*
X0073984Y0219917D03*
X0073984Y0209917D03*
X0073984Y0199917D03*
X0073984Y0189917D03*
X0073984Y0179917D03*
X0073984Y0169917D03*
X0073984Y0159917D03*
X0073984Y0149917D03*
X0073984Y0139917D03*
X0073984Y0129917D03*
X0073984Y0119917D03*
D12*
X0156936Y0100272D03*
X0318354Y0100272D03*
D13*
X0095913Y0102093D02*
X0095913Y0088461D01*
X0100711Y0088461D01*
X0100097Y0089075D01*
X0100097Y0093361D01*
X0100908Y0094172D01*
X0102054Y0094172D01*
X0102865Y0093361D01*
X0102865Y0093125D01*
X0103624Y0093125D01*
X0104340Y0092409D01*
X0104533Y0092602D01*
X0105056Y0093125D01*
X0107249Y0093125D01*
X0107704Y0092671D01*
X0108158Y0093125D01*
X0110874Y0093125D01*
X0111590Y0092409D01*
X0111783Y0092602D01*
X0112306Y0093125D01*
X0115023Y0093125D01*
X0115477Y0092671D01*
X0115931Y0093125D01*
X0118125Y0093125D01*
X0118579Y0092671D01*
X0119033Y0093125D01*
X0121750Y0093125D01*
X0122209Y0092666D01*
X0122209Y0093884D01*
X0123020Y0094695D01*
X0124167Y0094695D01*
X0124977Y0093884D01*
X0124977Y0092838D01*
X0125501Y0092315D01*
X0125501Y0091168D01*
X0125365Y0091032D01*
X0126357Y0091032D01*
X0126357Y0093361D01*
X0127168Y0094172D01*
X0128315Y0094172D01*
X0129126Y0093361D01*
X0129126Y0089075D01*
X0128512Y0088461D01*
X0132129Y0088461D01*
X0131515Y0089075D01*
X0131515Y0092315D01*
X0132325Y0093125D01*
X0133372Y0094172D01*
X0134519Y0094172D01*
X0135330Y0093361D01*
X0135330Y0093361D01*
X0135496Y0093194D01*
X0135663Y0093361D01*
X0135663Y0093361D01*
X0136474Y0094172D01*
X0137053Y0094172D01*
X0137520Y0094172D01*
X0137621Y0094172D01*
X0138100Y0094172D01*
X0138667Y0094172D01*
X0138667Y0094172D01*
X0138677Y0094162D01*
X0139478Y0093361D01*
X0139478Y0093361D01*
X0140001Y0092838D01*
X0140001Y0092838D01*
X0140001Y0092838D01*
X0140001Y0092602D01*
X0142390Y0092602D01*
X0142390Y0093361D01*
X0143201Y0094172D01*
X0144348Y0094172D01*
X0144821Y0093699D01*
X0145294Y0094172D01*
X0146441Y0094172D01*
X0146895Y0093718D01*
X0147340Y0094162D01*
X0147349Y0094172D01*
X0147349Y0094172D01*
X0147917Y0094172D01*
X0148496Y0094172D01*
X0148496Y0094172D01*
X0150066Y0094172D01*
X0150877Y0093361D01*
X0150877Y0092602D01*
X0153265Y0092602D01*
X0153265Y0092838D01*
X0153789Y0093361D01*
X0153789Y0093361D01*
X0154600Y0094172D01*
X0155646Y0094172D01*
X0155646Y0094172D01*
X0155702Y0094172D01*
X0155746Y0094172D01*
X0155746Y0094172D01*
X0156793Y0094172D01*
X0156793Y0094172D01*
X0156803Y0094162D01*
X0157509Y0093456D01*
X0158225Y0094172D01*
X0159271Y0094172D01*
X0159271Y0094172D01*
X0159327Y0094172D01*
X0159371Y0094172D01*
X0159371Y0094172D01*
X0160418Y0094172D01*
X0160418Y0094172D01*
X0160418Y0094172D01*
X0160428Y0094162D01*
X0161229Y0093361D01*
X0161229Y0093361D01*
X0161752Y0092838D01*
X0161752Y0092838D01*
X0161752Y0092838D01*
X0161752Y0092270D01*
X0161752Y0089598D01*
X0161229Y0089075D01*
X0160615Y0088461D01*
X0162054Y0088461D01*
X0162054Y0097408D01*
X0159274Y0094628D01*
X0157330Y0094628D01*
X0157330Y0099878D01*
X0156543Y0099878D01*
X0156543Y0094628D01*
X0154599Y0094628D01*
X0151293Y0097934D01*
X0151293Y0099878D01*
X0156543Y0099878D01*
X0156543Y0100665D01*
X0156543Y0105915D01*
X0154599Y0105915D01*
X0151293Y0102609D01*
X0151293Y0100665D01*
X0156543Y0100665D01*
X0157330Y0100665D01*
X0157330Y0105915D01*
X0159274Y0105915D01*
X0162113Y0103076D01*
X0162166Y0103818D01*
X0162149Y0103845D01*
X0162178Y0103977D01*
X0162187Y0104112D01*
X0162211Y0104133D01*
X0162514Y0105523D01*
X0162501Y0105552D01*
X0162548Y0105679D01*
X0162577Y0105811D01*
X0162603Y0105828D01*
X0163101Y0107161D01*
X0163092Y0107192D01*
X0163156Y0107311D01*
X0163204Y0107437D01*
X0163233Y0107450D01*
X0163915Y0108699D01*
X0163910Y0108731D01*
X0163991Y0108839D01*
X0164056Y0108957D01*
X0164086Y0108967D01*
X0164939Y0110106D01*
X0164939Y0110138D01*
X0165035Y0110233D01*
X0165115Y0110341D01*
X0165147Y0110346D01*
X0166154Y0111352D01*
X0166158Y0111384D01*
X0166266Y0111465D01*
X0166361Y0111560D01*
X0166394Y0111560D01*
X0167533Y0112413D01*
X0167542Y0112444D01*
X0167660Y0112508D01*
X0167768Y0112589D01*
X0167800Y0112585D01*
X0169049Y0113267D01*
X0169062Y0113296D01*
X0169189Y0113343D01*
X0169307Y0113408D01*
X0169338Y0113398D01*
X0170671Y0113896D01*
X0170689Y0113923D01*
X0170820Y0113951D01*
X0170947Y0113999D01*
X0170976Y0113985D01*
X0172367Y0114288D01*
X0172388Y0114312D01*
X0172522Y0114322D01*
X0172654Y0114350D01*
X0172681Y0114333D01*
X0174085Y0114433D01*
X0174096Y0114445D01*
X0174245Y0114445D01*
X0174394Y0114455D01*
X0174406Y0114445D01*
X0188039Y0114445D01*
X0188039Y0258146D01*
X0069928Y0258146D01*
X0069928Y0222031D01*
X0072177Y0224280D01*
X0073590Y0224280D01*
X0073590Y0220311D01*
X0074377Y0220311D01*
X0074377Y0224280D01*
X0075790Y0224280D01*
X0078346Y0221724D01*
X0078346Y0220311D01*
X0074377Y0220311D01*
X0074377Y0219524D01*
X0078346Y0219524D01*
X0078346Y0218110D01*
X0075790Y0215555D01*
X0074377Y0215555D01*
X0074377Y0219524D01*
X0073590Y0219524D01*
X0073590Y0215555D01*
X0072177Y0215555D01*
X0069928Y0217803D01*
X0069928Y0212031D01*
X0072177Y0214280D01*
X0073590Y0214280D01*
X0073590Y0210311D01*
X0074377Y0210311D01*
X0074377Y0214280D01*
X0075790Y0214280D01*
X0078346Y0211724D01*
X0078346Y0210311D01*
X0074377Y0210311D01*
X0074377Y0209524D01*
X0078346Y0209524D01*
X0078346Y0208110D01*
X0075790Y0205555D01*
X0074377Y0205555D01*
X0074377Y0209524D01*
X0073590Y0209524D01*
X0073590Y0205555D01*
X0072177Y0205555D01*
X0069928Y0207803D01*
X0069928Y0114445D01*
X0083561Y0114445D01*
X0083573Y0114455D01*
X0083722Y0114445D01*
X0083871Y0114445D01*
X0083882Y0114433D01*
X0085286Y0114333D01*
X0085313Y0114350D01*
X0085445Y0114322D01*
X0085580Y0114312D01*
X0085601Y0114288D01*
X0086991Y0113985D01*
X0087020Y0113999D01*
X0087147Y0113951D01*
X0087279Y0113923D01*
X0087296Y0113896D01*
X0088629Y0113398D01*
X0088660Y0113408D01*
X0088778Y0113343D01*
X0088905Y0113296D01*
X0088918Y0113267D01*
X0090167Y0112585D01*
X0090199Y0112589D01*
X0090307Y0112508D01*
X0090425Y0112444D01*
X0090434Y0112413D01*
X0091574Y0111560D01*
X0091606Y0111560D01*
X0091701Y0111465D01*
X0091809Y0111384D01*
X0091814Y0111352D01*
X0092820Y0110346D01*
X0092852Y0110341D01*
X0092932Y0110233D01*
X0093028Y0110138D01*
X0093028Y0110106D01*
X0093881Y0108966D01*
X0093911Y0108957D01*
X0093976Y0108839D01*
X0094057Y0108731D01*
X0094052Y0108699D01*
X0094734Y0107450D01*
X0094764Y0107437D01*
X0094811Y0107311D01*
X0094875Y0107192D01*
X0094866Y0107161D01*
X0095364Y0105828D01*
X0095391Y0105811D01*
X0095419Y0105679D01*
X0095466Y0105552D01*
X0095453Y0105523D01*
X0095756Y0104133D01*
X0095780Y0104112D01*
X0095789Y0103977D01*
X0095818Y0103845D01*
X0095801Y0103818D01*
X0095901Y0102415D01*
X0095913Y0102403D01*
X0095913Y0102254D01*
X0095923Y0102106D01*
X0095913Y0102093D01*
X0095921Y0102136D02*
X0151293Y0102136D01*
X0151293Y0101350D02*
X0095913Y0101350D01*
X0095913Y0100564D02*
X0156543Y0100564D01*
X0156543Y0099778D02*
X0157330Y0099778D01*
X0157330Y0098992D02*
X0156543Y0098992D01*
X0156543Y0098206D02*
X0157330Y0098206D01*
X0157330Y0097420D02*
X0156543Y0097420D01*
X0156543Y0096635D02*
X0157330Y0096635D01*
X0157330Y0095849D02*
X0156543Y0095849D01*
X0156543Y0095063D02*
X0157330Y0095063D01*
X0157474Y0093491D02*
X0157544Y0093491D01*
X0159709Y0095063D02*
X0162054Y0095063D01*
X0162054Y0095849D02*
X0160495Y0095849D01*
X0161281Y0096635D02*
X0162054Y0096635D01*
X0162054Y0094277D02*
X0124585Y0094277D01*
X0124977Y0093491D02*
X0126487Y0093491D01*
X0126357Y0092705D02*
X0125110Y0092705D01*
X0125501Y0091919D02*
X0126357Y0091919D01*
X0126357Y0091133D02*
X0125466Y0091133D01*
X0122209Y0092705D02*
X0122170Y0092705D01*
X0122209Y0093491D02*
X0102735Y0093491D01*
X0104045Y0092705D02*
X0104636Y0092705D01*
X0107670Y0092705D02*
X0107737Y0092705D01*
X0111295Y0092705D02*
X0111886Y0092705D01*
X0115443Y0092705D02*
X0115511Y0092705D01*
X0118545Y0092705D02*
X0118613Y0092705D01*
X0122601Y0094277D02*
X0095913Y0094277D01*
X0095913Y0095063D02*
X0154164Y0095063D01*
X0153378Y0095849D02*
X0095913Y0095849D01*
X0095913Y0096635D02*
X0152592Y0096635D01*
X0151806Y0097420D02*
X0095913Y0097420D01*
X0095913Y0098206D02*
X0151293Y0098206D01*
X0151293Y0098992D02*
X0095913Y0098992D01*
X0095913Y0099778D02*
X0151293Y0099778D01*
X0151605Y0102922D02*
X0095865Y0102922D01*
X0095809Y0103708D02*
X0152391Y0103708D01*
X0153177Y0104494D02*
X0095677Y0104494D01*
X0095506Y0105280D02*
X0153963Y0105280D01*
X0156543Y0105280D02*
X0157330Y0105280D01*
X0157330Y0104494D02*
X0156543Y0104494D01*
X0156543Y0103708D02*
X0157330Y0103708D01*
X0157330Y0102922D02*
X0156543Y0102922D01*
X0156543Y0102136D02*
X0157330Y0102136D01*
X0157330Y0101350D02*
X0156543Y0101350D01*
X0159910Y0105280D02*
X0162461Y0105280D01*
X0162290Y0104494D02*
X0160696Y0104494D01*
X0161482Y0103708D02*
X0162158Y0103708D01*
X0162692Y0106066D02*
X0095275Y0106066D01*
X0094982Y0106851D02*
X0162985Y0106851D01*
X0163335Y0107637D02*
X0094632Y0107637D01*
X0094203Y0108423D02*
X0163764Y0108423D01*
X0164268Y0109209D02*
X0093699Y0109209D01*
X0093111Y0109995D02*
X0164856Y0109995D01*
X0165582Y0110781D02*
X0092385Y0110781D01*
X0091564Y0111567D02*
X0166403Y0111567D01*
X0167453Y0112353D02*
X0090514Y0112353D01*
X0089152Y0113139D02*
X0168815Y0113139D01*
X0170697Y0113925D02*
X0087270Y0113925D01*
X0077936Y0118280D02*
X0075621Y0115965D01*
X0072346Y0115965D01*
X0070031Y0118280D01*
X0070031Y0121555D01*
X0072346Y0123870D01*
X0075621Y0123870D01*
X0077936Y0121555D01*
X0077936Y0118280D01*
X0077936Y0118640D02*
X0180031Y0118640D01*
X0180031Y0118280D02*
X0182346Y0115965D01*
X0185621Y0115965D01*
X0187936Y0118280D01*
X0187936Y0121555D01*
X0185621Y0123870D01*
X0182346Y0123870D01*
X0180031Y0121555D01*
X0180031Y0118280D01*
X0180457Y0117854D02*
X0077510Y0117854D01*
X0076725Y0117068D02*
X0181243Y0117068D01*
X0182028Y0116282D02*
X0075939Y0116282D01*
X0077936Y0119426D02*
X0180031Y0119426D01*
X0180031Y0120212D02*
X0077936Y0120212D01*
X0077936Y0120998D02*
X0180031Y0120998D01*
X0180260Y0121784D02*
X0077707Y0121784D01*
X0076921Y0122570D02*
X0181046Y0122570D01*
X0181832Y0123356D02*
X0076135Y0123356D01*
X0075621Y0125965D02*
X0072346Y0125965D01*
X0070031Y0128280D01*
X0070031Y0131555D01*
X0072346Y0133870D01*
X0075621Y0133870D01*
X0077936Y0131555D01*
X0077936Y0128280D01*
X0075621Y0125965D01*
X0076155Y0126499D02*
X0181812Y0126499D01*
X0182346Y0125965D02*
X0185621Y0125965D01*
X0187936Y0128280D01*
X0187936Y0131555D01*
X0185621Y0133870D01*
X0182346Y0133870D01*
X0180031Y0131555D01*
X0180031Y0128280D01*
X0182346Y0125965D01*
X0181026Y0127285D02*
X0076941Y0127285D01*
X0077727Y0128071D02*
X0180240Y0128071D01*
X0180031Y0128857D02*
X0077936Y0128857D01*
X0077936Y0129643D02*
X0180031Y0129643D01*
X0180031Y0130429D02*
X0077936Y0130429D01*
X0077936Y0131215D02*
X0180031Y0131215D01*
X0180477Y0132001D02*
X0077490Y0132001D01*
X0076704Y0132787D02*
X0181263Y0132787D01*
X0182049Y0133572D02*
X0075918Y0133572D01*
X0075621Y0135965D02*
X0072346Y0135965D01*
X0070031Y0138280D01*
X0070031Y0141555D01*
X0072346Y0143870D01*
X0075621Y0143870D01*
X0077936Y0141555D01*
X0077936Y0138280D01*
X0075621Y0135965D01*
X0076372Y0136716D02*
X0157587Y0136716D01*
X0157614Y0136689D02*
X0159408Y0136689D01*
X0160676Y0137957D01*
X0160676Y0139071D01*
X0179948Y0158343D01*
X0180031Y0158343D01*
X0180031Y0158280D01*
X0182346Y0155965D01*
X0185621Y0155965D01*
X0187936Y0158280D01*
X0187936Y0161555D01*
X0185621Y0163870D01*
X0182346Y0163870D01*
X0180031Y0161555D01*
X0180031Y0161098D01*
X0178806Y0161098D01*
X0158728Y0141020D01*
X0157614Y0141020D01*
X0156346Y0139751D01*
X0156346Y0137957D01*
X0157614Y0136689D01*
X0156801Y0137502D02*
X0077158Y0137502D01*
X0077936Y0138288D02*
X0156346Y0138288D01*
X0156346Y0139074D02*
X0077936Y0139074D01*
X0077936Y0139860D02*
X0156454Y0139860D01*
X0157240Y0140646D02*
X0077936Y0140646D01*
X0077936Y0141432D02*
X0159140Y0141432D01*
X0159926Y0142218D02*
X0077273Y0142218D01*
X0076487Y0143003D02*
X0160711Y0143003D01*
X0161497Y0143789D02*
X0075702Y0143789D01*
X0075621Y0145965D02*
X0072346Y0145965D01*
X0070031Y0148280D01*
X0070031Y0151555D01*
X0072346Y0153870D01*
X0075621Y0153870D01*
X0077936Y0151555D01*
X0077936Y0148280D01*
X0075621Y0145965D01*
X0075803Y0146147D02*
X0163855Y0146147D01*
X0163069Y0145361D02*
X0069928Y0145361D01*
X0069928Y0144575D02*
X0162283Y0144575D01*
X0164609Y0143003D02*
X0181480Y0143003D01*
X0180694Y0142218D02*
X0163823Y0142218D01*
X0163037Y0141432D02*
X0180031Y0141432D01*
X0180031Y0141555D02*
X0180031Y0138280D01*
X0182346Y0135965D01*
X0185621Y0135965D01*
X0187936Y0138280D01*
X0187936Y0141555D01*
X0185621Y0143870D01*
X0182346Y0143870D01*
X0180031Y0141555D01*
X0180031Y0140646D02*
X0162251Y0140646D01*
X0161465Y0139860D02*
X0180031Y0139860D01*
X0180031Y0139074D02*
X0160679Y0139074D01*
X0160676Y0138288D02*
X0180031Y0138288D01*
X0180809Y0137502D02*
X0160221Y0137502D01*
X0159435Y0136716D02*
X0181595Y0136716D01*
X0186372Y0136716D02*
X0188039Y0136716D01*
X0188039Y0135930D02*
X0069928Y0135930D01*
X0069928Y0135144D02*
X0188039Y0135144D01*
X0188039Y0134358D02*
X0069928Y0134358D01*
X0069928Y0133572D02*
X0072049Y0133572D01*
X0071263Y0132787D02*
X0069928Y0132787D01*
X0069928Y0132001D02*
X0070477Y0132001D01*
X0070031Y0131215D02*
X0069928Y0131215D01*
X0069928Y0130429D02*
X0070031Y0130429D01*
X0070031Y0129643D02*
X0069928Y0129643D01*
X0069928Y0128857D02*
X0070031Y0128857D01*
X0069928Y0128071D02*
X0070240Y0128071D01*
X0069928Y0127285D02*
X0071026Y0127285D01*
X0071812Y0126499D02*
X0069928Y0126499D01*
X0069928Y0125713D02*
X0188039Y0125713D01*
X0188039Y0124927D02*
X0069928Y0124927D01*
X0069928Y0124142D02*
X0188039Y0124142D01*
X0188039Y0123356D02*
X0186135Y0123356D01*
X0186921Y0122570D02*
X0188039Y0122570D01*
X0188039Y0121784D02*
X0187707Y0121784D01*
X0187936Y0120998D02*
X0188039Y0120998D01*
X0188039Y0120212D02*
X0187936Y0120212D01*
X0187936Y0119426D02*
X0188039Y0119426D01*
X0188039Y0118640D02*
X0187936Y0118640D01*
X0188039Y0117854D02*
X0187510Y0117854D01*
X0188039Y0117068D02*
X0186725Y0117068D01*
X0185939Y0116282D02*
X0188039Y0116282D01*
X0188039Y0115496D02*
X0069928Y0115496D01*
X0069928Y0114711D02*
X0188039Y0114711D01*
X0188039Y0126499D02*
X0186155Y0126499D01*
X0186941Y0127285D02*
X0188039Y0127285D01*
X0188039Y0128071D02*
X0187727Y0128071D01*
X0187936Y0128857D02*
X0188039Y0128857D01*
X0188039Y0129643D02*
X0187936Y0129643D01*
X0187936Y0130429D02*
X0188039Y0130429D01*
X0188039Y0131215D02*
X0187936Y0131215D01*
X0188039Y0132001D02*
X0187490Y0132001D01*
X0188039Y0132787D02*
X0186704Y0132787D01*
X0185918Y0133572D02*
X0188039Y0133572D01*
X0188039Y0137502D02*
X0187158Y0137502D01*
X0187936Y0138288D02*
X0188039Y0138288D01*
X0188039Y0139074D02*
X0187936Y0139074D01*
X0187936Y0139860D02*
X0188039Y0139860D01*
X0188039Y0140646D02*
X0187936Y0140646D01*
X0187936Y0141432D02*
X0188039Y0141432D01*
X0188039Y0142218D02*
X0187273Y0142218D01*
X0188039Y0143003D02*
X0186487Y0143003D01*
X0185702Y0143789D02*
X0188039Y0143789D01*
X0188039Y0144575D02*
X0166181Y0144575D01*
X0166967Y0145361D02*
X0188039Y0145361D01*
X0188039Y0146147D02*
X0185803Y0146147D01*
X0185621Y0145965D02*
X0187936Y0148280D01*
X0187936Y0151555D01*
X0185621Y0153870D01*
X0182346Y0153870D01*
X0180031Y0151555D01*
X0180031Y0148280D01*
X0182346Y0145965D01*
X0185621Y0145965D01*
X0186589Y0146933D02*
X0188039Y0146933D01*
X0188039Y0147719D02*
X0187375Y0147719D01*
X0187936Y0148505D02*
X0188039Y0148505D01*
X0188039Y0149291D02*
X0187936Y0149291D01*
X0187936Y0150077D02*
X0188039Y0150077D01*
X0188039Y0150863D02*
X0187936Y0150863D01*
X0187842Y0151648D02*
X0188039Y0151648D01*
X0188039Y0152434D02*
X0187057Y0152434D01*
X0186271Y0153220D02*
X0188039Y0153220D01*
X0188039Y0154006D02*
X0175612Y0154006D01*
X0176398Y0154792D02*
X0188039Y0154792D01*
X0188039Y0155578D02*
X0177184Y0155578D01*
X0177969Y0156364D02*
X0181947Y0156364D01*
X0181161Y0157150D02*
X0178755Y0157150D01*
X0179541Y0157936D02*
X0180375Y0157936D01*
X0179377Y0159720D02*
X0158511Y0138854D01*
X0165395Y0143789D02*
X0182266Y0143789D01*
X0182164Y0146147D02*
X0167753Y0146147D01*
X0168538Y0146933D02*
X0181378Y0146933D01*
X0180592Y0147719D02*
X0169324Y0147719D01*
X0170110Y0148505D02*
X0180031Y0148505D01*
X0180031Y0149291D02*
X0170896Y0149291D01*
X0171682Y0150077D02*
X0180031Y0150077D01*
X0180031Y0150863D02*
X0172468Y0150863D01*
X0173254Y0151648D02*
X0180125Y0151648D01*
X0180911Y0152434D02*
X0174040Y0152434D01*
X0174826Y0153220D02*
X0181696Y0153220D01*
X0186020Y0156364D02*
X0188039Y0156364D01*
X0188039Y0157150D02*
X0186806Y0157150D01*
X0187592Y0157936D02*
X0188039Y0157936D01*
X0188039Y0158722D02*
X0187936Y0158722D01*
X0187936Y0159508D02*
X0188039Y0159508D01*
X0188039Y0160294D02*
X0187936Y0160294D01*
X0187936Y0161079D02*
X0188039Y0161079D01*
X0188039Y0161865D02*
X0187626Y0161865D01*
X0188039Y0162651D02*
X0186840Y0162651D01*
X0186054Y0163437D02*
X0188039Y0163437D01*
X0188039Y0164223D02*
X0123212Y0164223D01*
X0123669Y0163767D02*
X0122400Y0165035D01*
X0120606Y0165035D01*
X0119819Y0164248D01*
X0086247Y0164248D01*
X0079968Y0170527D01*
X0079161Y0171335D01*
X0077936Y0171335D01*
X0077936Y0171555D01*
X0075621Y0173870D01*
X0072346Y0173870D01*
X0070031Y0171555D01*
X0070031Y0168280D01*
X0072346Y0165965D01*
X0075621Y0165965D01*
X0077936Y0168280D01*
X0077936Y0168579D01*
X0078019Y0168579D01*
X0085106Y0161492D01*
X0119819Y0161492D01*
X0120606Y0160705D01*
X0122400Y0160705D01*
X0123669Y0161973D01*
X0123669Y0163767D01*
X0123669Y0163437D02*
X0181913Y0163437D01*
X0181127Y0162651D02*
X0123669Y0162651D01*
X0123561Y0161865D02*
X0180342Y0161865D01*
X0178787Y0161079D02*
X0122775Y0161079D01*
X0121503Y0162870D02*
X0085676Y0162870D01*
X0078590Y0169957D01*
X0074023Y0169957D01*
X0073984Y0169917D01*
X0070031Y0169724D02*
X0069928Y0169724D01*
X0069928Y0168939D02*
X0070031Y0168939D01*
X0069928Y0168153D02*
X0070158Y0168153D01*
X0069928Y0167367D02*
X0070944Y0167367D01*
X0071730Y0166581D02*
X0069928Y0166581D01*
X0069928Y0165795D02*
X0080803Y0165795D01*
X0080017Y0166581D02*
X0076237Y0166581D01*
X0077023Y0167367D02*
X0079231Y0167367D01*
X0078445Y0168153D02*
X0077809Y0168153D01*
X0079985Y0170510D02*
X0154040Y0170510D01*
X0154826Y0169724D02*
X0080771Y0169724D01*
X0081557Y0168939D02*
X0180031Y0168939D01*
X0180031Y0168972D02*
X0180031Y0168280D01*
X0182346Y0165965D01*
X0185621Y0165965D01*
X0187936Y0168280D01*
X0187936Y0171555D01*
X0185621Y0173870D01*
X0182346Y0173870D01*
X0180205Y0171728D01*
X0160076Y0171728D01*
X0161046Y0172698D01*
X0161642Y0174138D01*
X0161642Y0175697D01*
X0161046Y0177137D01*
X0160155Y0178028D01*
X0166669Y0178028D01*
X0167457Y0177240D01*
X0169251Y0177240D01*
X0170519Y0178509D01*
X0170519Y0180302D01*
X0169251Y0181571D01*
X0167457Y0181571D01*
X0166669Y0180783D01*
X0152321Y0180783D01*
X0152715Y0180783D01*
X0153984Y0182052D01*
X0153984Y0182752D01*
X0160657Y0182752D01*
X0179948Y0202043D01*
X0180755Y0202850D01*
X0180755Y0207556D01*
X0182346Y0205965D01*
X0185621Y0205965D01*
X0187936Y0208280D01*
X0187936Y0211555D01*
X0185621Y0213870D01*
X0182346Y0213870D01*
X0180755Y0212279D01*
X0180755Y0214740D01*
X0182163Y0216148D01*
X0182346Y0215965D01*
X0185621Y0215965D01*
X0187936Y0218280D01*
X0187936Y0221555D01*
X0185621Y0223870D01*
X0183665Y0223870D01*
X0184672Y0224878D01*
X0185480Y0225685D01*
X0185480Y0225965D01*
X0185621Y0225965D01*
X0187936Y0228280D01*
X0187936Y0231555D01*
X0185621Y0233870D01*
X0182346Y0233870D01*
X0180031Y0231555D01*
X0180031Y0228280D01*
X0182104Y0226207D01*
X0176031Y0220134D01*
X0176031Y0204386D01*
X0165543Y0193898D01*
X0165642Y0194138D01*
X0165642Y0195697D01*
X0165046Y0197137D01*
X0163943Y0198239D01*
X0162503Y0198836D01*
X0160944Y0198836D01*
X0159504Y0198239D01*
X0158402Y0197137D01*
X0157805Y0195697D01*
X0157805Y0194138D01*
X0158402Y0192698D01*
X0159504Y0191595D01*
X0160944Y0190999D01*
X0162503Y0190999D01*
X0162743Y0191098D01*
X0161090Y0189445D01*
X0152429Y0189445D01*
X0152035Y0189051D01*
X0150921Y0189051D01*
X0149653Y0187783D01*
X0149653Y0185989D01*
X0150724Y0184917D01*
X0149653Y0183846D01*
X0149653Y0182052D01*
X0150134Y0181571D01*
X0149740Y0181571D01*
X0148472Y0180302D01*
X0148472Y0179976D01*
X0139417Y0189031D01*
X0138609Y0189839D01*
X0136967Y0189839D01*
X0136180Y0190626D01*
X0134386Y0190626D01*
X0134298Y0190539D01*
X0134298Y0204779D01*
X0133491Y0205587D01*
X0120913Y0205587D01*
X0120913Y0221315D01*
X0120105Y0222122D01*
X0111877Y0222122D01*
X0111070Y0221315D01*
X0111070Y0211098D01*
X0090617Y0211098D01*
X0089810Y0210291D01*
X0089810Y0178047D01*
X0090617Y0177240D01*
X0098058Y0177240D01*
X0098865Y0178047D01*
X0098865Y0202831D01*
X0111070Y0202831D01*
X0111070Y0197732D01*
X0111877Y0196925D01*
X0126818Y0196925D01*
X0126818Y0171748D01*
X0127625Y0170941D01*
X0140184Y0170941D01*
X0140991Y0171748D01*
X0140991Y0178401D01*
X0140184Y0179209D01*
X0134298Y0179209D01*
X0134298Y0186383D01*
X0134386Y0186295D01*
X0136180Y0186295D01*
X0136967Y0187083D01*
X0137468Y0187083D01*
X0155578Y0168972D01*
X0180031Y0168972D01*
X0180158Y0168153D02*
X0082343Y0168153D01*
X0083129Y0167367D02*
X0180944Y0167367D01*
X0181730Y0166581D02*
X0083914Y0166581D01*
X0084700Y0165795D02*
X0188039Y0165795D01*
X0188039Y0166581D02*
X0186237Y0166581D01*
X0187023Y0167367D02*
X0188039Y0167367D01*
X0188039Y0168153D02*
X0187809Y0168153D01*
X0187936Y0168939D02*
X0188039Y0168939D01*
X0188039Y0169724D02*
X0187936Y0169724D01*
X0187936Y0170510D02*
X0188039Y0170510D01*
X0188039Y0171296D02*
X0187936Y0171296D01*
X0188039Y0172082D02*
X0187409Y0172082D01*
X0188039Y0172868D02*
X0186623Y0172868D01*
X0185837Y0173654D02*
X0188039Y0173654D01*
X0188039Y0174440D02*
X0161642Y0174440D01*
X0161642Y0175226D02*
X0188039Y0175226D01*
X0188039Y0176012D02*
X0185668Y0176012D01*
X0185621Y0175965D02*
X0187936Y0178280D01*
X0187936Y0181555D01*
X0185621Y0183870D01*
X0182346Y0183870D01*
X0180031Y0181555D01*
X0180031Y0178280D01*
X0182346Y0175965D01*
X0185621Y0175965D01*
X0186454Y0176798D02*
X0188039Y0176798D01*
X0188039Y0177584D02*
X0187240Y0177584D01*
X0187936Y0178370D02*
X0188039Y0178370D01*
X0188039Y0179155D02*
X0187936Y0179155D01*
X0187936Y0179941D02*
X0188039Y0179941D01*
X0188039Y0180727D02*
X0187936Y0180727D01*
X0187936Y0181513D02*
X0188039Y0181513D01*
X0188039Y0182299D02*
X0187192Y0182299D01*
X0186406Y0183085D02*
X0188039Y0183085D01*
X0188039Y0183871D02*
X0161776Y0183871D01*
X0162562Y0184657D02*
X0188039Y0184657D01*
X0188039Y0185443D02*
X0163347Y0185443D01*
X0164133Y0186229D02*
X0182082Y0186229D01*
X0182346Y0185965D02*
X0185621Y0185965D01*
X0187936Y0188280D01*
X0187936Y0191555D01*
X0185621Y0193870D01*
X0182346Y0193870D01*
X0180031Y0191555D01*
X0180031Y0188280D01*
X0182346Y0185965D01*
X0181296Y0187015D02*
X0164919Y0187015D01*
X0165705Y0187800D02*
X0180510Y0187800D01*
X0180031Y0188586D02*
X0166491Y0188586D01*
X0167277Y0189372D02*
X0180031Y0189372D01*
X0180031Y0190158D02*
X0168063Y0190158D01*
X0168849Y0190944D02*
X0180031Y0190944D01*
X0180206Y0191730D02*
X0169635Y0191730D01*
X0170421Y0192516D02*
X0180992Y0192516D01*
X0181778Y0193302D02*
X0171207Y0193302D01*
X0171992Y0194088D02*
X0188039Y0194088D01*
X0188039Y0194874D02*
X0172778Y0194874D01*
X0173564Y0195660D02*
X0188039Y0195660D01*
X0188039Y0196445D02*
X0186102Y0196445D01*
X0185621Y0195965D02*
X0187936Y0198280D01*
X0187936Y0201555D01*
X0185621Y0203870D01*
X0182346Y0203870D01*
X0180031Y0201555D01*
X0180031Y0198280D01*
X0182346Y0195965D01*
X0185621Y0195965D01*
X0186888Y0197231D02*
X0188039Y0197231D01*
X0188039Y0198017D02*
X0187674Y0198017D01*
X0187936Y0198803D02*
X0188039Y0198803D01*
X0188039Y0199589D02*
X0187936Y0199589D01*
X0187936Y0200375D02*
X0188039Y0200375D01*
X0188039Y0201161D02*
X0187936Y0201161D01*
X0188039Y0201947D02*
X0187544Y0201947D01*
X0188039Y0202733D02*
X0186758Y0202733D01*
X0185972Y0203519D02*
X0188039Y0203519D01*
X0188039Y0204305D02*
X0180755Y0204305D01*
X0180755Y0205091D02*
X0188039Y0205091D01*
X0188039Y0205876D02*
X0180755Y0205876D01*
X0180755Y0206662D02*
X0181648Y0206662D01*
X0180863Y0207448D02*
X0180755Y0207448D01*
X0180755Y0203519D02*
X0181995Y0203519D01*
X0181209Y0202733D02*
X0180637Y0202733D01*
X0180423Y0201947D02*
X0179852Y0201947D01*
X0180031Y0201161D02*
X0179066Y0201161D01*
X0178280Y0200375D02*
X0180031Y0200375D01*
X0180031Y0199589D02*
X0177494Y0199589D01*
X0176708Y0198803D02*
X0180031Y0198803D01*
X0180293Y0198017D02*
X0175922Y0198017D01*
X0175136Y0197231D02*
X0181079Y0197231D01*
X0181865Y0196445D02*
X0174350Y0196445D01*
X0171234Y0199589D02*
X0146110Y0199589D01*
X0146110Y0198913D02*
X0146110Y0203618D01*
X0153677Y0203618D01*
X0154465Y0202831D01*
X0156258Y0202831D01*
X0157527Y0204099D01*
X0157527Y0205893D01*
X0156258Y0207161D01*
X0154465Y0207161D01*
X0153677Y0206374D01*
X0146110Y0206374D01*
X0146110Y0231157D01*
X0145302Y0231965D01*
X0138649Y0231965D01*
X0137842Y0231157D01*
X0137842Y0198913D01*
X0138649Y0198106D01*
X0139791Y0198106D01*
X0145302Y0198106D01*
X0146110Y0198913D01*
X0145999Y0198803D02*
X0152866Y0198803D01*
X0152944Y0198836D02*
X0151504Y0198239D01*
X0150402Y0197137D01*
X0149805Y0195697D01*
X0149805Y0194138D01*
X0150402Y0192698D01*
X0151504Y0191595D01*
X0152944Y0190999D01*
X0154503Y0190999D01*
X0155943Y0191595D01*
X0157046Y0192698D01*
X0157642Y0194138D01*
X0157642Y0195697D01*
X0157046Y0197137D01*
X0155943Y0198239D01*
X0154503Y0198836D01*
X0152944Y0198836D01*
X0154582Y0198803D02*
X0160866Y0198803D01*
X0162582Y0198803D02*
X0170448Y0198803D01*
X0169662Y0198017D02*
X0164165Y0198017D01*
X0164951Y0197231D02*
X0168876Y0197231D01*
X0168091Y0196445D02*
X0165332Y0196445D01*
X0165642Y0195660D02*
X0167305Y0195660D01*
X0166519Y0194874D02*
X0165642Y0194874D01*
X0165621Y0194088D02*
X0165733Y0194088D01*
X0162589Y0190944D02*
X0134298Y0190944D01*
X0134298Y0191730D02*
X0151369Y0191730D01*
X0150583Y0192516D02*
X0134298Y0192516D01*
X0134298Y0193302D02*
X0150151Y0193302D01*
X0149826Y0194088D02*
X0134298Y0194088D01*
X0134298Y0194874D02*
X0149805Y0194874D01*
X0149805Y0195660D02*
X0134298Y0195660D01*
X0134298Y0196445D02*
X0150115Y0196445D01*
X0150496Y0197231D02*
X0134298Y0197231D01*
X0134298Y0198017D02*
X0151282Y0198017D01*
X0156165Y0198017D02*
X0159282Y0198017D01*
X0158496Y0197231D02*
X0156951Y0197231D01*
X0157332Y0196445D02*
X0158115Y0196445D01*
X0157805Y0195660D02*
X0157642Y0195660D01*
X0157642Y0194874D02*
X0157805Y0194874D01*
X0157826Y0194088D02*
X0157621Y0194088D01*
X0157296Y0193302D02*
X0158151Y0193302D01*
X0158583Y0192516D02*
X0156864Y0192516D01*
X0156078Y0191730D02*
X0159369Y0191730D01*
X0161803Y0190158D02*
X0136647Y0190158D01*
X0135283Y0188461D02*
X0138039Y0188461D01*
X0156149Y0170350D01*
X0183314Y0170350D01*
X0183747Y0169917D01*
X0183984Y0169917D01*
X0181344Y0172868D02*
X0161116Y0172868D01*
X0161442Y0173654D02*
X0182130Y0173654D01*
X0180558Y0172082D02*
X0160430Y0172082D01*
X0161512Y0176012D02*
X0182299Y0176012D01*
X0181513Y0176798D02*
X0161186Y0176798D01*
X0160599Y0177584D02*
X0167113Y0177584D01*
X0168354Y0179406D02*
X0150637Y0179406D01*
X0152321Y0180783D02*
X0152321Y0180783D01*
X0153445Y0181513D02*
X0167399Y0181513D01*
X0169308Y0181513D02*
X0180031Y0181513D01*
X0180031Y0180727D02*
X0170094Y0180727D01*
X0170519Y0179941D02*
X0180031Y0179941D01*
X0180031Y0179155D02*
X0170519Y0179155D01*
X0170380Y0178370D02*
X0180031Y0178370D01*
X0180727Y0177584D02*
X0169594Y0177584D01*
X0160990Y0183085D02*
X0181561Y0183085D01*
X0180775Y0182299D02*
X0153984Y0182299D01*
X0152999Y0184130D02*
X0160086Y0184130D01*
X0179377Y0203421D01*
X0179377Y0215311D01*
X0183984Y0219917D01*
X0187936Y0220023D02*
X0188039Y0220023D01*
X0188039Y0220809D02*
X0187936Y0220809D01*
X0187896Y0221595D02*
X0188039Y0221595D01*
X0188039Y0222381D02*
X0187110Y0222381D01*
X0186324Y0223167D02*
X0188039Y0223167D01*
X0188039Y0223952D02*
X0183747Y0223952D01*
X0184533Y0224738D02*
X0188039Y0224738D01*
X0188039Y0225524D02*
X0185319Y0225524D01*
X0185966Y0226310D02*
X0188039Y0226310D01*
X0188039Y0227096D02*
X0186752Y0227096D01*
X0187538Y0227882D02*
X0188039Y0227882D01*
X0188039Y0228668D02*
X0187936Y0228668D01*
X0187936Y0229454D02*
X0188039Y0229454D01*
X0188039Y0230240D02*
X0187936Y0230240D01*
X0187936Y0231026D02*
X0188039Y0231026D01*
X0188039Y0231812D02*
X0187679Y0231812D01*
X0188039Y0232597D02*
X0186893Y0232597D01*
X0186107Y0233383D02*
X0188039Y0233383D01*
X0188039Y0234169D02*
X0069928Y0234169D01*
X0069928Y0233383D02*
X0071860Y0233383D01*
X0072346Y0233870D02*
X0070031Y0231555D01*
X0070031Y0228280D01*
X0072346Y0225965D01*
X0075621Y0225965D01*
X0077936Y0228280D01*
X0077936Y0231555D01*
X0075621Y0233870D01*
X0072346Y0233870D01*
X0071074Y0232597D02*
X0069928Y0232597D01*
X0069928Y0231812D02*
X0070288Y0231812D01*
X0070031Y0231026D02*
X0069928Y0231026D01*
X0069928Y0230240D02*
X0070031Y0230240D01*
X0070031Y0229454D02*
X0069928Y0229454D01*
X0069928Y0228668D02*
X0070031Y0228668D01*
X0069928Y0227882D02*
X0070429Y0227882D01*
X0069928Y0227096D02*
X0071215Y0227096D01*
X0072001Y0226310D02*
X0069928Y0226310D01*
X0069928Y0225524D02*
X0137842Y0225524D01*
X0137842Y0224738D02*
X0069928Y0224738D01*
X0069928Y0223952D02*
X0071850Y0223952D01*
X0071064Y0223167D02*
X0069928Y0223167D01*
X0069928Y0222381D02*
X0070278Y0222381D01*
X0073590Y0222381D02*
X0074377Y0222381D01*
X0074377Y0223167D02*
X0073590Y0223167D01*
X0073590Y0223952D02*
X0074377Y0223952D01*
X0076117Y0223952D02*
X0137842Y0223952D01*
X0137842Y0223167D02*
X0076903Y0223167D01*
X0077689Y0222381D02*
X0137842Y0222381D01*
X0137842Y0221595D02*
X0120633Y0221595D01*
X0120913Y0220809D02*
X0137842Y0220809D01*
X0137842Y0220023D02*
X0120913Y0220023D01*
X0120913Y0219237D02*
X0137842Y0219237D01*
X0137842Y0218451D02*
X0120913Y0218451D01*
X0120913Y0217665D02*
X0137842Y0217665D01*
X0137842Y0216879D02*
X0120913Y0216879D01*
X0120913Y0216093D02*
X0137842Y0216093D01*
X0137842Y0215307D02*
X0120913Y0215307D01*
X0120913Y0214521D02*
X0137842Y0214521D01*
X0137842Y0213736D02*
X0120913Y0213736D01*
X0120913Y0212950D02*
X0137842Y0212950D01*
X0137842Y0212164D02*
X0120913Y0212164D01*
X0120913Y0211378D02*
X0137842Y0211378D01*
X0137842Y0210592D02*
X0120913Y0210592D01*
X0120913Y0209806D02*
X0137842Y0209806D01*
X0137842Y0209020D02*
X0120913Y0209020D01*
X0120913Y0208234D02*
X0137842Y0208234D01*
X0137842Y0207448D02*
X0120913Y0207448D01*
X0120913Y0206662D02*
X0137842Y0206662D01*
X0137842Y0205876D02*
X0120913Y0205876D01*
X0119535Y0204996D02*
X0119537Y0204942D01*
X0119542Y0204889D01*
X0119551Y0204836D01*
X0119564Y0204784D01*
X0119580Y0204732D01*
X0119600Y0204682D01*
X0119623Y0204634D01*
X0119650Y0204587D01*
X0119679Y0204542D01*
X0119712Y0204499D01*
X0119747Y0204459D01*
X0119785Y0204421D01*
X0119825Y0204386D01*
X0119868Y0204353D01*
X0119913Y0204324D01*
X0119960Y0204297D01*
X0120008Y0204274D01*
X0120058Y0204254D01*
X0120110Y0204238D01*
X0120162Y0204225D01*
X0120215Y0204216D01*
X0120268Y0204211D01*
X0120322Y0204209D01*
X0119535Y0204209D02*
X0091188Y0204209D01*
X0091188Y0209720D01*
X0119535Y0209720D01*
X0119535Y0204209D01*
X0119535Y0204305D02*
X0091188Y0204305D01*
X0097487Y0204305D01*
X0097487Y0205091D02*
X0091188Y0205091D01*
X0119535Y0205091D01*
X0112448Y0205091D01*
X0112448Y0205876D02*
X0119535Y0205876D01*
X0091188Y0205876D01*
X0097487Y0205876D01*
X0097487Y0206662D02*
X0091188Y0206662D01*
X0119535Y0206662D01*
X0112448Y0206662D01*
X0112448Y0207448D02*
X0119535Y0207448D01*
X0091188Y0207448D01*
X0097487Y0207448D01*
X0097487Y0208234D02*
X0091188Y0208234D01*
X0119535Y0208234D01*
X0112448Y0208234D01*
X0112448Y0209020D02*
X0119535Y0209020D01*
X0091188Y0209020D01*
X0097487Y0209020D01*
X0097487Y0209720D02*
X0097487Y0178618D01*
X0091188Y0178618D01*
X0091188Y0209720D01*
X0097487Y0209720D01*
X0097487Y0203519D02*
X0091188Y0203519D01*
X0091188Y0202733D02*
X0097487Y0202733D01*
X0097487Y0201947D02*
X0091188Y0201947D01*
X0091188Y0201161D02*
X0097487Y0201161D01*
X0097487Y0200375D02*
X0091188Y0200375D01*
X0091188Y0199589D02*
X0097487Y0199589D01*
X0097487Y0198803D02*
X0091188Y0198803D01*
X0091188Y0198017D02*
X0097487Y0198017D01*
X0097487Y0197231D02*
X0091188Y0197231D01*
X0091188Y0196445D02*
X0097487Y0196445D01*
X0097487Y0195660D02*
X0091188Y0195660D01*
X0091188Y0194874D02*
X0097487Y0194874D01*
X0097487Y0194088D02*
X0091188Y0194088D01*
X0091188Y0193302D02*
X0097487Y0193302D01*
X0097487Y0192516D02*
X0091188Y0192516D01*
X0091188Y0191730D02*
X0097487Y0191730D01*
X0097487Y0190944D02*
X0091188Y0190944D01*
X0091188Y0190158D02*
X0097487Y0190158D01*
X0097487Y0189372D02*
X0091188Y0189372D01*
X0091188Y0188586D02*
X0097487Y0188586D01*
X0097487Y0187800D02*
X0091188Y0187800D01*
X0091188Y0187015D02*
X0097487Y0187015D01*
X0097487Y0186229D02*
X0091188Y0186229D01*
X0091188Y0185443D02*
X0097487Y0185443D01*
X0097487Y0184657D02*
X0091188Y0184657D01*
X0091188Y0183871D02*
X0097487Y0183871D01*
X0097487Y0183085D02*
X0091188Y0183085D01*
X0091188Y0182299D02*
X0097487Y0182299D01*
X0097487Y0181513D02*
X0091188Y0181513D01*
X0091188Y0180727D02*
X0097487Y0180727D01*
X0097487Y0179941D02*
X0091188Y0179941D01*
X0091188Y0179155D02*
X0097487Y0179155D01*
X0098865Y0179155D02*
X0121273Y0179155D01*
X0120487Y0178370D02*
X0098865Y0178370D01*
X0098402Y0177584D02*
X0119701Y0177584D01*
X0118915Y0176798D02*
X0076454Y0176798D01*
X0077240Y0177584D02*
X0090274Y0177584D01*
X0089810Y0178370D02*
X0077936Y0178370D01*
X0077936Y0178280D02*
X0075621Y0175965D01*
X0072346Y0175965D01*
X0070031Y0178280D01*
X0070031Y0181555D01*
X0072346Y0183870D01*
X0075621Y0183870D01*
X0077936Y0181555D01*
X0077936Y0178280D01*
X0077936Y0179155D02*
X0089810Y0179155D01*
X0089810Y0179941D02*
X0077936Y0179941D01*
X0077936Y0180727D02*
X0089810Y0180727D01*
X0089810Y0181513D02*
X0077936Y0181513D01*
X0077192Y0182299D02*
X0089810Y0182299D01*
X0089810Y0183085D02*
X0076406Y0183085D01*
X0075621Y0185965D02*
X0072346Y0185965D01*
X0070031Y0188280D01*
X0070031Y0191555D01*
X0072346Y0193870D01*
X0075621Y0193870D01*
X0077936Y0191555D01*
X0077936Y0188280D01*
X0075621Y0185965D01*
X0075885Y0186229D02*
X0089810Y0186229D01*
X0089810Y0187015D02*
X0076671Y0187015D01*
X0077457Y0187800D02*
X0089810Y0187800D01*
X0089810Y0188586D02*
X0077936Y0188586D01*
X0077936Y0189372D02*
X0089810Y0189372D01*
X0089810Y0190158D02*
X0077936Y0190158D01*
X0077936Y0190944D02*
X0089810Y0190944D01*
X0089810Y0191730D02*
X0077761Y0191730D01*
X0076975Y0192516D02*
X0089810Y0192516D01*
X0089810Y0193302D02*
X0076189Y0193302D01*
X0075621Y0195965D02*
X0072346Y0195965D01*
X0070031Y0198280D01*
X0070031Y0201555D01*
X0072346Y0203870D01*
X0075621Y0203870D01*
X0077936Y0201555D01*
X0077936Y0198280D01*
X0075621Y0195965D01*
X0076102Y0196445D02*
X0089810Y0196445D01*
X0089810Y0195660D02*
X0069928Y0195660D01*
X0069928Y0196445D02*
X0071865Y0196445D01*
X0071079Y0197231D02*
X0069928Y0197231D01*
X0069928Y0198017D02*
X0070293Y0198017D01*
X0070031Y0198803D02*
X0069928Y0198803D01*
X0069928Y0199589D02*
X0070031Y0199589D01*
X0070031Y0200375D02*
X0069928Y0200375D01*
X0069928Y0201161D02*
X0070031Y0201161D01*
X0069928Y0201947D02*
X0070423Y0201947D01*
X0069928Y0202733D02*
X0071209Y0202733D01*
X0071995Y0203519D02*
X0069928Y0203519D01*
X0069928Y0204305D02*
X0089810Y0204305D01*
X0089810Y0205091D02*
X0069928Y0205091D01*
X0069928Y0205876D02*
X0071855Y0205876D01*
X0071069Y0206662D02*
X0069928Y0206662D01*
X0069928Y0207448D02*
X0070283Y0207448D01*
X0073590Y0207448D02*
X0074377Y0207448D01*
X0074377Y0206662D02*
X0073590Y0206662D01*
X0073590Y0205876D02*
X0074377Y0205876D01*
X0076112Y0205876D02*
X0089810Y0205876D01*
X0089810Y0206662D02*
X0076898Y0206662D01*
X0077684Y0207448D02*
X0089810Y0207448D01*
X0089810Y0208234D02*
X0078346Y0208234D01*
X0078346Y0209020D02*
X0089810Y0209020D01*
X0089810Y0209806D02*
X0074377Y0209806D01*
X0074377Y0209020D02*
X0073590Y0209020D01*
X0073590Y0208234D02*
X0074377Y0208234D01*
X0074377Y0210592D02*
X0073590Y0210592D01*
X0073590Y0211378D02*
X0074377Y0211378D01*
X0074377Y0212164D02*
X0073590Y0212164D01*
X0073590Y0212950D02*
X0074377Y0212950D01*
X0074377Y0213736D02*
X0073590Y0213736D01*
X0071633Y0213736D02*
X0069928Y0213736D01*
X0069928Y0214521D02*
X0111070Y0214521D01*
X0111070Y0213736D02*
X0076334Y0213736D01*
X0077120Y0212950D02*
X0111070Y0212950D01*
X0111070Y0212164D02*
X0077906Y0212164D01*
X0078346Y0211378D02*
X0111070Y0211378D01*
X0112448Y0210311D02*
X0113345Y0210311D01*
X0114613Y0211579D01*
X0114613Y0213373D01*
X0113345Y0214642D01*
X0112448Y0214642D01*
X0112448Y0220744D01*
X0119535Y0220744D01*
X0119535Y0198303D01*
X0112448Y0198303D01*
X0112448Y0204209D01*
X0132921Y0204209D01*
X0132921Y0198303D01*
X0112448Y0198303D01*
X0112448Y0210311D01*
X0112448Y0209806D02*
X0119535Y0209806D01*
X0119535Y0210592D02*
X0113626Y0210592D01*
X0114412Y0211378D02*
X0119535Y0211378D01*
X0119535Y0212164D02*
X0114613Y0212164D01*
X0114613Y0212950D02*
X0119535Y0212950D01*
X0119535Y0213736D02*
X0114251Y0213736D01*
X0113465Y0214521D02*
X0119535Y0214521D01*
X0119535Y0215307D02*
X0112448Y0215307D01*
X0112448Y0216093D02*
X0119535Y0216093D01*
X0119535Y0216879D02*
X0112448Y0216879D01*
X0112448Y0217665D02*
X0119535Y0217665D01*
X0119535Y0218451D02*
X0112448Y0218451D01*
X0112448Y0219237D02*
X0119535Y0219237D01*
X0119535Y0220023D02*
X0112448Y0220023D01*
X0111070Y0220023D02*
X0074377Y0220023D01*
X0074377Y0220809D02*
X0073590Y0220809D01*
X0073590Y0221595D02*
X0074377Y0221595D01*
X0074377Y0219237D02*
X0073590Y0219237D01*
X0073590Y0218451D02*
X0074377Y0218451D01*
X0074377Y0217665D02*
X0073590Y0217665D01*
X0073590Y0216879D02*
X0074377Y0216879D01*
X0074377Y0216093D02*
X0073590Y0216093D01*
X0071638Y0216093D02*
X0069928Y0216093D01*
X0069928Y0215307D02*
X0111070Y0215307D01*
X0111070Y0216093D02*
X0076329Y0216093D01*
X0077115Y0216879D02*
X0111070Y0216879D01*
X0111070Y0217665D02*
X0077900Y0217665D01*
X0078346Y0218451D02*
X0111070Y0218451D01*
X0111070Y0219237D02*
X0078346Y0219237D01*
X0078346Y0220809D02*
X0111070Y0220809D01*
X0111350Y0221595D02*
X0078346Y0221595D01*
X0070853Y0216879D02*
X0069928Y0216879D01*
X0069928Y0217665D02*
X0070067Y0217665D01*
X0069928Y0212950D02*
X0070847Y0212950D01*
X0070061Y0212164D02*
X0069928Y0212164D01*
X0078346Y0210592D02*
X0090111Y0210592D01*
X0089810Y0203519D02*
X0075972Y0203519D01*
X0076758Y0202733D02*
X0089810Y0202733D01*
X0089810Y0201947D02*
X0077544Y0201947D01*
X0077936Y0201161D02*
X0089810Y0201161D01*
X0089810Y0200375D02*
X0077936Y0200375D01*
X0077936Y0199589D02*
X0089810Y0199589D01*
X0089810Y0198803D02*
X0077936Y0198803D01*
X0077674Y0198017D02*
X0089810Y0198017D01*
X0089810Y0197231D02*
X0076888Y0197231D01*
X0071778Y0193302D02*
X0069928Y0193302D01*
X0069928Y0194088D02*
X0089810Y0194088D01*
X0089810Y0194874D02*
X0069928Y0194874D01*
X0069928Y0192516D02*
X0070992Y0192516D01*
X0070206Y0191730D02*
X0069928Y0191730D01*
X0069928Y0190944D02*
X0070031Y0190944D01*
X0070031Y0190158D02*
X0069928Y0190158D01*
X0069928Y0189372D02*
X0070031Y0189372D01*
X0070031Y0188586D02*
X0069928Y0188586D01*
X0069928Y0187800D02*
X0070510Y0187800D01*
X0069928Y0187015D02*
X0071296Y0187015D01*
X0072082Y0186229D02*
X0069928Y0186229D01*
X0069928Y0185443D02*
X0089810Y0185443D01*
X0089810Y0184657D02*
X0069928Y0184657D01*
X0069928Y0183871D02*
X0089810Y0183871D01*
X0098865Y0183871D02*
X0126818Y0183871D01*
X0126818Y0184657D02*
X0098865Y0184657D01*
X0098865Y0185443D02*
X0126818Y0185443D01*
X0126818Y0186229D02*
X0098865Y0186229D01*
X0098865Y0187015D02*
X0126818Y0187015D01*
X0126818Y0187800D02*
X0098865Y0187800D01*
X0098865Y0188586D02*
X0126818Y0188586D01*
X0126818Y0189372D02*
X0098865Y0189372D01*
X0098865Y0190158D02*
X0126818Y0190158D01*
X0126818Y0190944D02*
X0098865Y0190944D01*
X0098865Y0191730D02*
X0126818Y0191730D01*
X0126818Y0192516D02*
X0098865Y0192516D01*
X0098865Y0193302D02*
X0126818Y0193302D01*
X0126818Y0194088D02*
X0098865Y0194088D01*
X0098865Y0194874D02*
X0126818Y0194874D01*
X0126818Y0195660D02*
X0098865Y0195660D01*
X0098865Y0196445D02*
X0126818Y0196445D01*
X0128196Y0197516D02*
X0128194Y0197570D01*
X0128189Y0197623D01*
X0128180Y0197676D01*
X0128167Y0197728D01*
X0128151Y0197780D01*
X0128131Y0197830D01*
X0128108Y0197878D01*
X0128081Y0197925D01*
X0128052Y0197970D01*
X0128019Y0198013D01*
X0127984Y0198053D01*
X0127946Y0198091D01*
X0127906Y0198126D01*
X0127863Y0198159D01*
X0127818Y0198188D01*
X0127771Y0198215D01*
X0127723Y0198238D01*
X0127673Y0198258D01*
X0127621Y0198274D01*
X0127569Y0198287D01*
X0127516Y0198296D01*
X0127463Y0198301D01*
X0127409Y0198303D01*
X0128196Y0198017D02*
X0132921Y0198017D01*
X0132921Y0197231D02*
X0128196Y0197231D01*
X0128196Y0196445D02*
X0132921Y0196445D01*
X0132921Y0195660D02*
X0128196Y0195660D01*
X0128196Y0194874D02*
X0132921Y0194874D01*
X0132921Y0194088D02*
X0128196Y0194088D01*
X0128196Y0193302D02*
X0132921Y0193302D01*
X0132921Y0192516D02*
X0128196Y0192516D01*
X0128196Y0191730D02*
X0132921Y0191730D01*
X0132921Y0190944D02*
X0128196Y0190944D01*
X0128196Y0190158D02*
X0132921Y0190158D01*
X0132921Y0189372D02*
X0128196Y0189372D01*
X0128196Y0188586D02*
X0132921Y0188586D01*
X0132921Y0187800D02*
X0128196Y0187800D01*
X0128196Y0187015D02*
X0132921Y0187015D01*
X0132921Y0186229D02*
X0128196Y0186229D01*
X0128196Y0185443D02*
X0132921Y0185443D01*
X0132921Y0184657D02*
X0128196Y0184657D01*
X0128196Y0183871D02*
X0132921Y0183871D01*
X0132921Y0183085D02*
X0128196Y0183085D01*
X0128196Y0182299D02*
X0132921Y0182299D01*
X0132921Y0181513D02*
X0128196Y0181513D01*
X0128196Y0180727D02*
X0132921Y0180727D01*
X0132921Y0179941D02*
X0128196Y0179941D01*
X0128196Y0179155D02*
X0132921Y0179155D01*
X0132921Y0178370D02*
X0128196Y0178370D01*
X0128196Y0177584D02*
X0132921Y0177584D01*
X0139613Y0177584D01*
X0139613Y0177831D02*
X0139613Y0172319D01*
X0132921Y0172319D01*
X0132921Y0177831D01*
X0139613Y0177831D01*
X0139613Y0176798D02*
X0132921Y0176798D01*
X0128196Y0176798D01*
X0128196Y0176012D02*
X0132921Y0176012D01*
X0139613Y0176012D01*
X0139613Y0175226D02*
X0132921Y0175226D01*
X0128196Y0175226D01*
X0128196Y0174440D02*
X0132921Y0174440D01*
X0139613Y0174440D01*
X0139613Y0173654D02*
X0132921Y0173654D01*
X0128196Y0173654D01*
X0128196Y0172868D02*
X0132921Y0172868D01*
X0139613Y0172868D01*
X0140991Y0172868D02*
X0151682Y0172868D01*
X0150897Y0173654D02*
X0140991Y0173654D01*
X0140991Y0174440D02*
X0150111Y0174440D01*
X0149325Y0175226D02*
X0140991Y0175226D01*
X0140991Y0176012D02*
X0148539Y0176012D01*
X0147753Y0176798D02*
X0140991Y0176798D01*
X0140991Y0177584D02*
X0146967Y0177584D01*
X0146181Y0178370D02*
X0140991Y0178370D01*
X0140237Y0179155D02*
X0145395Y0179155D01*
X0144609Y0179941D02*
X0134298Y0179941D01*
X0134298Y0180727D02*
X0143823Y0180727D01*
X0143037Y0181513D02*
X0134298Y0181513D01*
X0134298Y0182299D02*
X0142251Y0182299D01*
X0141466Y0183085D02*
X0134298Y0183085D01*
X0134298Y0183871D02*
X0140680Y0183871D01*
X0139894Y0184657D02*
X0134298Y0184657D01*
X0134298Y0185443D02*
X0139108Y0185443D01*
X0138322Y0186229D02*
X0134298Y0186229D01*
X0136899Y0187015D02*
X0137536Y0187015D01*
X0139862Y0188586D02*
X0150456Y0188586D01*
X0149671Y0187800D02*
X0140648Y0187800D01*
X0141433Y0187015D02*
X0149653Y0187015D01*
X0149653Y0186229D02*
X0142219Y0186229D01*
X0143005Y0185443D02*
X0150199Y0185443D01*
X0150464Y0184657D02*
X0143791Y0184657D01*
X0144577Y0183871D02*
X0149678Y0183871D01*
X0149653Y0183085D02*
X0145363Y0183085D01*
X0146149Y0182299D02*
X0149653Y0182299D01*
X0149682Y0181513D02*
X0146935Y0181513D01*
X0147721Y0180727D02*
X0148897Y0180727D01*
X0151818Y0182949D02*
X0152999Y0184130D01*
X0151818Y0186886D02*
X0152999Y0188067D01*
X0161661Y0188067D01*
X0177409Y0203815D01*
X0177409Y0219563D01*
X0184102Y0226256D01*
X0184102Y0229799D01*
X0183984Y0229917D01*
X0181215Y0227096D02*
X0146110Y0227096D01*
X0146110Y0226310D02*
X0182001Y0226310D01*
X0181421Y0225524D02*
X0146110Y0225524D01*
X0146110Y0224738D02*
X0180635Y0224738D01*
X0179849Y0223952D02*
X0146110Y0223952D01*
X0146110Y0223167D02*
X0179064Y0223167D01*
X0178278Y0222381D02*
X0146110Y0222381D01*
X0146110Y0221595D02*
X0177492Y0221595D01*
X0176706Y0220809D02*
X0146110Y0220809D01*
X0146110Y0220023D02*
X0176031Y0220023D01*
X0176031Y0219237D02*
X0146110Y0219237D01*
X0146110Y0218451D02*
X0176031Y0218451D01*
X0176031Y0217665D02*
X0146110Y0217665D01*
X0146110Y0216879D02*
X0176031Y0216879D01*
X0176031Y0216093D02*
X0146110Y0216093D01*
X0146110Y0215307D02*
X0176031Y0215307D01*
X0176031Y0214521D02*
X0146110Y0214521D01*
X0146110Y0213736D02*
X0176031Y0213736D01*
X0176031Y0212950D02*
X0146110Y0212950D01*
X0146110Y0212164D02*
X0176031Y0212164D01*
X0176031Y0211378D02*
X0146110Y0211378D01*
X0146110Y0210592D02*
X0176031Y0210592D01*
X0176031Y0209806D02*
X0146110Y0209806D01*
X0146110Y0209020D02*
X0176031Y0209020D01*
X0176031Y0208234D02*
X0146110Y0208234D01*
X0146110Y0207448D02*
X0176031Y0207448D01*
X0176031Y0206662D02*
X0156757Y0206662D01*
X0157527Y0205876D02*
X0176031Y0205876D01*
X0176031Y0205091D02*
X0157527Y0205091D01*
X0157527Y0204305D02*
X0175950Y0204305D01*
X0175164Y0203519D02*
X0156946Y0203519D01*
X0155361Y0204996D02*
X0143944Y0204996D01*
X0142359Y0203519D02*
X0139220Y0203519D01*
X0139220Y0204305D02*
X0141779Y0204305D01*
X0141779Y0204099D02*
X0143047Y0202831D01*
X0144732Y0202831D01*
X0144732Y0199484D01*
X0139220Y0199484D01*
X0139220Y0214526D01*
X0139488Y0214638D01*
X0140208Y0215357D01*
X0140598Y0216298D01*
X0140598Y0217316D01*
X0140208Y0218257D01*
X0139488Y0218977D01*
X0139220Y0219088D01*
X0139220Y0230587D01*
X0144732Y0230587D01*
X0144732Y0207161D01*
X0143047Y0207161D01*
X0141779Y0205893D01*
X0141779Y0204099D01*
X0141779Y0205091D02*
X0139220Y0205091D01*
X0139220Y0205876D02*
X0141779Y0205876D01*
X0142548Y0206662D02*
X0139220Y0206662D01*
X0139220Y0207448D02*
X0144732Y0207448D01*
X0144732Y0208234D02*
X0139220Y0208234D01*
X0139220Y0209020D02*
X0144732Y0209020D01*
X0144732Y0209806D02*
X0139220Y0209806D01*
X0139220Y0210592D02*
X0144732Y0210592D01*
X0144732Y0211378D02*
X0139220Y0211378D01*
X0139220Y0212164D02*
X0144732Y0212164D01*
X0144732Y0212950D02*
X0139220Y0212950D01*
X0139220Y0213736D02*
X0144732Y0213736D01*
X0144732Y0214521D02*
X0139220Y0214521D01*
X0140158Y0215307D02*
X0144732Y0215307D01*
X0144732Y0216093D02*
X0140513Y0216093D01*
X0140598Y0216879D02*
X0144732Y0216879D01*
X0144732Y0217665D02*
X0140453Y0217665D01*
X0140014Y0218451D02*
X0144732Y0218451D01*
X0144732Y0219237D02*
X0139220Y0219237D01*
X0139220Y0220023D02*
X0144732Y0220023D01*
X0144732Y0220809D02*
X0139220Y0220809D01*
X0139220Y0221595D02*
X0144732Y0221595D01*
X0144732Y0222381D02*
X0139220Y0222381D01*
X0139220Y0223167D02*
X0144732Y0223167D01*
X0144732Y0223952D02*
X0139220Y0223952D01*
X0139220Y0224738D02*
X0144732Y0224738D01*
X0144732Y0225524D02*
X0139220Y0225524D01*
X0139220Y0226310D02*
X0144732Y0226310D01*
X0144732Y0227096D02*
X0139220Y0227096D01*
X0139220Y0227882D02*
X0144732Y0227882D01*
X0144732Y0228668D02*
X0139220Y0228668D01*
X0139220Y0229454D02*
X0144732Y0229454D01*
X0144732Y0230240D02*
X0139220Y0230240D01*
X0137842Y0230240D02*
X0077936Y0230240D01*
X0077936Y0231026D02*
X0137842Y0231026D01*
X0138496Y0231812D02*
X0077679Y0231812D01*
X0076893Y0232597D02*
X0181074Y0232597D01*
X0180288Y0231812D02*
X0145455Y0231812D01*
X0146110Y0231026D02*
X0180031Y0231026D01*
X0180031Y0230240D02*
X0146110Y0230240D01*
X0146110Y0229454D02*
X0180031Y0229454D01*
X0180031Y0228668D02*
X0146110Y0228668D01*
X0146110Y0227882D02*
X0180429Y0227882D01*
X0181860Y0233383D02*
X0076107Y0233383D01*
X0075621Y0235965D02*
X0077936Y0238280D01*
X0077936Y0241555D01*
X0075621Y0243870D01*
X0072346Y0243870D01*
X0070031Y0241555D01*
X0070031Y0238280D01*
X0072346Y0235965D01*
X0075621Y0235965D01*
X0076183Y0236527D02*
X0181784Y0236527D01*
X0182346Y0235965D02*
X0185621Y0235965D01*
X0187936Y0238280D01*
X0187936Y0241555D01*
X0185621Y0243870D01*
X0182346Y0243870D01*
X0180031Y0241555D01*
X0180031Y0238280D01*
X0182346Y0235965D01*
X0180998Y0237313D02*
X0076969Y0237313D01*
X0077755Y0238099D02*
X0180212Y0238099D01*
X0180031Y0238885D02*
X0077936Y0238885D01*
X0077936Y0239671D02*
X0180031Y0239671D01*
X0180031Y0240457D02*
X0077936Y0240457D01*
X0077936Y0241243D02*
X0180031Y0241243D01*
X0180505Y0242028D02*
X0077462Y0242028D01*
X0076677Y0242814D02*
X0181291Y0242814D01*
X0182076Y0243600D02*
X0075891Y0243600D01*
X0075621Y0245965D02*
X0077936Y0248280D01*
X0077936Y0251555D01*
X0075621Y0253870D01*
X0072346Y0253870D01*
X0070031Y0251555D01*
X0070031Y0248280D01*
X0072346Y0245965D01*
X0075621Y0245965D01*
X0076400Y0246744D02*
X0181567Y0246744D01*
X0182346Y0245965D02*
X0185621Y0245965D01*
X0187936Y0248280D01*
X0187936Y0251555D01*
X0185621Y0253870D01*
X0182346Y0253870D01*
X0180031Y0251555D01*
X0180031Y0248280D01*
X0182346Y0245965D01*
X0180781Y0247530D02*
X0077186Y0247530D01*
X0077936Y0248316D02*
X0180031Y0248316D01*
X0180031Y0249102D02*
X0077936Y0249102D01*
X0077936Y0249888D02*
X0180031Y0249888D01*
X0180031Y0250673D02*
X0077936Y0250673D01*
X0077936Y0251459D02*
X0180031Y0251459D01*
X0180721Y0252245D02*
X0077246Y0252245D01*
X0076460Y0253031D02*
X0181507Y0253031D01*
X0182293Y0253817D02*
X0075674Y0253817D01*
X0072293Y0253817D02*
X0069928Y0253817D01*
X0069928Y0253031D02*
X0071507Y0253031D01*
X0070721Y0252245D02*
X0069928Y0252245D01*
X0069928Y0251459D02*
X0070031Y0251459D01*
X0070031Y0250673D02*
X0069928Y0250673D01*
X0069928Y0249888D02*
X0070031Y0249888D01*
X0070031Y0249102D02*
X0069928Y0249102D01*
X0069928Y0248316D02*
X0070031Y0248316D01*
X0069928Y0247530D02*
X0070781Y0247530D01*
X0071567Y0246744D02*
X0069928Y0246744D01*
X0069928Y0245958D02*
X0188039Y0245958D01*
X0188039Y0245172D02*
X0069928Y0245172D01*
X0069928Y0244386D02*
X0188039Y0244386D01*
X0188039Y0243600D02*
X0185891Y0243600D01*
X0186677Y0242814D02*
X0188039Y0242814D01*
X0188039Y0242028D02*
X0187462Y0242028D01*
X0187936Y0241243D02*
X0188039Y0241243D01*
X0188039Y0240457D02*
X0187936Y0240457D01*
X0187936Y0239671D02*
X0188039Y0239671D01*
X0188039Y0238885D02*
X0187936Y0238885D01*
X0188039Y0238099D02*
X0187755Y0238099D01*
X0188039Y0237313D02*
X0186969Y0237313D01*
X0186183Y0236527D02*
X0188039Y0236527D01*
X0188039Y0235741D02*
X0069928Y0235741D01*
X0069928Y0234955D02*
X0188039Y0234955D01*
X0188039Y0246744D02*
X0186400Y0246744D01*
X0187186Y0247530D02*
X0188039Y0247530D01*
X0188039Y0248316D02*
X0187936Y0248316D01*
X0187936Y0249102D02*
X0188039Y0249102D01*
X0188039Y0249888D02*
X0187936Y0249888D01*
X0187936Y0250673D02*
X0188039Y0250673D01*
X0188039Y0251459D02*
X0187936Y0251459D01*
X0188039Y0252245D02*
X0187246Y0252245D01*
X0186460Y0253031D02*
X0188039Y0253031D01*
X0188039Y0253817D02*
X0185674Y0253817D01*
X0188039Y0254603D02*
X0069928Y0254603D01*
X0069928Y0255389D02*
X0188039Y0255389D01*
X0188039Y0256175D02*
X0069928Y0256175D01*
X0069928Y0256961D02*
X0188039Y0256961D01*
X0188039Y0257747D02*
X0069928Y0257747D01*
X0069928Y0243600D02*
X0072076Y0243600D01*
X0071291Y0242814D02*
X0069928Y0242814D01*
X0069928Y0242028D02*
X0070505Y0242028D01*
X0070031Y0241243D02*
X0069928Y0241243D01*
X0069928Y0240457D02*
X0070031Y0240457D01*
X0070031Y0239671D02*
X0069928Y0239671D01*
X0069928Y0238885D02*
X0070031Y0238885D01*
X0069928Y0238099D02*
X0070212Y0238099D01*
X0069928Y0237313D02*
X0070998Y0237313D01*
X0071784Y0236527D02*
X0069928Y0236527D01*
X0077936Y0229454D02*
X0137842Y0229454D01*
X0137842Y0228668D02*
X0077936Y0228668D01*
X0077538Y0227882D02*
X0137842Y0227882D01*
X0137842Y0227096D02*
X0076752Y0227096D01*
X0075966Y0226310D02*
X0137842Y0226310D01*
X0135283Y0224681D02*
X0132133Y0224681D01*
X0132133Y0216807D01*
X0135283Y0216807D01*
X0135283Y0208933D01*
X0132133Y0208933D01*
X0132133Y0216807D01*
X0135283Y0216807D01*
X0135283Y0224681D01*
X0135283Y0223952D02*
X0132133Y0223952D01*
X0132133Y0223167D02*
X0135283Y0223167D01*
X0135283Y0222381D02*
X0132133Y0222381D01*
X0132133Y0221595D02*
X0135283Y0221595D01*
X0135283Y0220809D02*
X0132133Y0220809D01*
X0132133Y0220023D02*
X0135283Y0220023D01*
X0135283Y0219237D02*
X0132133Y0219237D01*
X0132133Y0218451D02*
X0135283Y0218451D01*
X0135283Y0217665D02*
X0132133Y0217665D01*
X0132133Y0216879D02*
X0135283Y0216879D01*
X0135283Y0216093D02*
X0132133Y0216093D01*
X0132133Y0215307D02*
X0135283Y0215307D01*
X0135283Y0214521D02*
X0132133Y0214521D01*
X0132133Y0213736D02*
X0135283Y0213736D01*
X0135283Y0212950D02*
X0132133Y0212950D01*
X0132133Y0212164D02*
X0135283Y0212164D01*
X0135283Y0211378D02*
X0132133Y0211378D01*
X0132133Y0210592D02*
X0135283Y0210592D01*
X0135283Y0209806D02*
X0132133Y0209806D01*
X0132133Y0209020D02*
X0135283Y0209020D01*
X0133708Y0215232D02*
X0133708Y0218382D01*
X0125834Y0218382D01*
X0125834Y0215232D01*
X0133708Y0215232D01*
X0133708Y0215307D02*
X0125834Y0215307D01*
X0125834Y0216093D02*
X0133708Y0216093D01*
X0133708Y0216879D02*
X0125834Y0216879D01*
X0125834Y0217665D02*
X0133708Y0217665D01*
X0146110Y0206662D02*
X0153966Y0206662D01*
X0153777Y0203519D02*
X0146110Y0203519D01*
X0146110Y0202733D02*
X0174378Y0202733D01*
X0173592Y0201947D02*
X0146110Y0201947D01*
X0146110Y0201161D02*
X0172806Y0201161D01*
X0172020Y0200375D02*
X0146110Y0200375D01*
X0144732Y0200375D02*
X0139220Y0200375D01*
X0139220Y0199589D02*
X0144732Y0199589D01*
X0144732Y0201161D02*
X0139220Y0201161D01*
X0139220Y0201947D02*
X0144732Y0201947D01*
X0144732Y0202733D02*
X0139220Y0202733D01*
X0137842Y0202733D02*
X0134298Y0202733D01*
X0134298Y0203519D02*
X0137842Y0203519D01*
X0137842Y0204305D02*
X0134298Y0204305D01*
X0133987Y0205091D02*
X0137842Y0205091D01*
X0137842Y0201947D02*
X0134298Y0201947D01*
X0134298Y0201161D02*
X0137842Y0201161D01*
X0137842Y0200375D02*
X0134298Y0200375D01*
X0134298Y0199589D02*
X0137842Y0199589D01*
X0137952Y0198803D02*
X0134298Y0198803D01*
X0132921Y0198803D02*
X0112448Y0198803D01*
X0119535Y0198803D01*
X0119535Y0199589D02*
X0112448Y0199589D01*
X0132921Y0199589D01*
X0128196Y0199589D01*
X0128196Y0198803D02*
X0132921Y0198803D01*
X0132921Y0200375D02*
X0128196Y0200375D01*
X0128196Y0201161D02*
X0132921Y0201161D01*
X0112448Y0201161D01*
X0119535Y0201161D01*
X0119535Y0201947D02*
X0112448Y0201947D01*
X0132921Y0201947D01*
X0128196Y0201947D01*
X0128196Y0202733D02*
X0132921Y0202733D01*
X0112448Y0202733D01*
X0119535Y0202733D01*
X0119535Y0203519D02*
X0112448Y0203519D01*
X0132921Y0203519D01*
X0128196Y0203519D01*
X0128196Y0204209D02*
X0132921Y0204209D01*
X0132921Y0172319D01*
X0128196Y0172319D01*
X0128196Y0204209D01*
X0132921Y0200375D02*
X0112448Y0200375D01*
X0119535Y0200375D01*
X0119535Y0204305D02*
X0112448Y0204305D01*
X0111661Y0204208D02*
X0111715Y0204206D01*
X0111768Y0204201D01*
X0111821Y0204192D01*
X0111873Y0204179D01*
X0111925Y0204163D01*
X0111975Y0204143D01*
X0112023Y0204120D01*
X0112070Y0204093D01*
X0112115Y0204064D01*
X0112158Y0204031D01*
X0112198Y0203996D01*
X0112236Y0203958D01*
X0112271Y0203918D01*
X0112304Y0203875D01*
X0112333Y0203830D01*
X0112360Y0203783D01*
X0112383Y0203735D01*
X0112403Y0203685D01*
X0112419Y0203633D01*
X0112432Y0203581D01*
X0112441Y0203528D01*
X0112446Y0203475D01*
X0112448Y0203421D01*
X0111070Y0202733D02*
X0098865Y0202733D01*
X0098865Y0201947D02*
X0111070Y0201947D01*
X0111070Y0201161D02*
X0098865Y0201161D01*
X0098865Y0200375D02*
X0111070Y0200375D01*
X0111070Y0199589D02*
X0098865Y0199589D01*
X0098865Y0198803D02*
X0111070Y0198803D01*
X0111070Y0198017D02*
X0098865Y0198017D01*
X0098865Y0197231D02*
X0111571Y0197231D01*
X0098275Y0204208D02*
X0098221Y0204206D01*
X0098168Y0204201D01*
X0098115Y0204192D01*
X0098063Y0204179D01*
X0098011Y0204163D01*
X0097961Y0204143D01*
X0097913Y0204120D01*
X0097866Y0204093D01*
X0097821Y0204064D01*
X0097778Y0204031D01*
X0097738Y0203996D01*
X0097700Y0203958D01*
X0097665Y0203918D01*
X0097632Y0203875D01*
X0097603Y0203830D01*
X0097576Y0203783D01*
X0097553Y0203735D01*
X0097533Y0203685D01*
X0097517Y0203633D01*
X0097504Y0203581D01*
X0097495Y0203528D01*
X0097490Y0203475D01*
X0097488Y0203421D01*
X0098865Y0183085D02*
X0126818Y0183085D01*
X0126818Y0182299D02*
X0125215Y0182299D01*
X0125156Y0182358D02*
X0123362Y0182358D01*
X0122094Y0181090D01*
X0122094Y0179976D01*
X0116995Y0174878D01*
X0099172Y0174878D01*
X0098384Y0175665D01*
X0096591Y0175665D01*
X0095322Y0174397D01*
X0095322Y0172603D01*
X0096591Y0171335D01*
X0098384Y0171335D01*
X0099172Y0172122D01*
X0118137Y0172122D01*
X0124042Y0178028D01*
X0125156Y0178028D01*
X0126424Y0179296D01*
X0126424Y0181090D01*
X0125156Y0182358D01*
X0126001Y0181513D02*
X0126818Y0181513D01*
X0126818Y0180727D02*
X0126424Y0180727D01*
X0126424Y0179941D02*
X0126818Y0179941D01*
X0126818Y0179155D02*
X0126284Y0179155D01*
X0126818Y0178370D02*
X0125498Y0178370D01*
X0126818Y0177584D02*
X0123599Y0177584D01*
X0122813Y0176798D02*
X0126818Y0176798D01*
X0126818Y0176012D02*
X0122027Y0176012D01*
X0121241Y0175226D02*
X0126818Y0175226D01*
X0126818Y0174440D02*
X0120455Y0174440D01*
X0119669Y0173654D02*
X0126818Y0173654D01*
X0126818Y0172868D02*
X0118883Y0172868D01*
X0117566Y0173500D02*
X0124259Y0180193D01*
X0122517Y0181513D02*
X0098865Y0181513D01*
X0098865Y0180727D02*
X0122094Y0180727D01*
X0122059Y0179941D02*
X0098865Y0179941D01*
X0098865Y0182299D02*
X0123303Y0182299D01*
X0118129Y0176012D02*
X0075668Y0176012D01*
X0075837Y0173654D02*
X0095322Y0173654D01*
X0095322Y0172868D02*
X0076623Y0172868D01*
X0077409Y0172082D02*
X0095843Y0172082D01*
X0097487Y0173500D02*
X0117566Y0173500D01*
X0117343Y0175226D02*
X0098824Y0175226D01*
X0096151Y0175226D02*
X0069928Y0175226D01*
X0069928Y0176012D02*
X0072299Y0176012D01*
X0071513Y0176798D02*
X0069928Y0176798D01*
X0069928Y0177584D02*
X0070727Y0177584D01*
X0070031Y0178370D02*
X0069928Y0178370D01*
X0069928Y0179155D02*
X0070031Y0179155D01*
X0070031Y0179941D02*
X0069928Y0179941D01*
X0069928Y0180727D02*
X0070031Y0180727D01*
X0070031Y0181513D02*
X0069928Y0181513D01*
X0069928Y0182299D02*
X0070775Y0182299D01*
X0071561Y0183085D02*
X0069928Y0183085D01*
X0069928Y0174440D02*
X0095365Y0174440D01*
X0099132Y0172082D02*
X0126818Y0172082D01*
X0127270Y0171296D02*
X0079199Y0171296D01*
X0072130Y0173654D02*
X0069928Y0173654D01*
X0069928Y0172868D02*
X0071344Y0172868D01*
X0070558Y0172082D02*
X0069928Y0172082D01*
X0069928Y0171296D02*
X0070031Y0171296D01*
X0070031Y0170510D02*
X0069928Y0170510D01*
X0069928Y0165009D02*
X0081589Y0165009D01*
X0082375Y0164223D02*
X0069928Y0164223D01*
X0069928Y0163437D02*
X0071913Y0163437D01*
X0072346Y0163870D02*
X0070031Y0161555D01*
X0070031Y0158280D01*
X0072346Y0155965D01*
X0075621Y0155965D01*
X0077936Y0158280D01*
X0077936Y0158425D01*
X0079594Y0156768D01*
X0141079Y0156768D01*
X0141866Y0155980D01*
X0143660Y0155980D01*
X0144928Y0157249D01*
X0144928Y0159043D01*
X0143660Y0160311D01*
X0141866Y0160311D01*
X0141079Y0159524D01*
X0080735Y0159524D01*
X0079574Y0160685D01*
X0078767Y0161492D01*
X0077936Y0161492D01*
X0077936Y0161555D01*
X0075621Y0163870D01*
X0072346Y0163870D01*
X0071127Y0162651D02*
X0069928Y0162651D01*
X0069928Y0161865D02*
X0070342Y0161865D01*
X0070031Y0161079D02*
X0069928Y0161079D01*
X0069928Y0160294D02*
X0070031Y0160294D01*
X0070031Y0159508D02*
X0069928Y0159508D01*
X0069928Y0158722D02*
X0070031Y0158722D01*
X0069928Y0157936D02*
X0070375Y0157936D01*
X0069928Y0157150D02*
X0071161Y0157150D01*
X0071947Y0156364D02*
X0069928Y0156364D01*
X0069928Y0155578D02*
X0173286Y0155578D01*
X0172500Y0154792D02*
X0069928Y0154792D01*
X0069928Y0154006D02*
X0171714Y0154006D01*
X0170928Y0153220D02*
X0076271Y0153220D01*
X0077057Y0152434D02*
X0170142Y0152434D01*
X0169357Y0151648D02*
X0077842Y0151648D01*
X0077936Y0150863D02*
X0168571Y0150863D01*
X0167785Y0150077D02*
X0077936Y0150077D01*
X0077936Y0149291D02*
X0166999Y0149291D01*
X0166213Y0148505D02*
X0077936Y0148505D01*
X0077375Y0147719D02*
X0165427Y0147719D01*
X0164641Y0146933D02*
X0076589Y0146933D01*
X0072164Y0146147D02*
X0069928Y0146147D01*
X0069928Y0146933D02*
X0071378Y0146933D01*
X0070592Y0147719D02*
X0069928Y0147719D01*
X0069928Y0148505D02*
X0070031Y0148505D01*
X0070031Y0149291D02*
X0069928Y0149291D01*
X0069928Y0150077D02*
X0070031Y0150077D01*
X0070031Y0150863D02*
X0069928Y0150863D01*
X0069928Y0151648D02*
X0070125Y0151648D01*
X0069928Y0152434D02*
X0070911Y0152434D01*
X0071696Y0153220D02*
X0069928Y0153220D01*
X0076020Y0156364D02*
X0141483Y0156364D01*
X0142763Y0158146D02*
X0080165Y0158146D01*
X0078196Y0160114D01*
X0074180Y0160114D01*
X0073984Y0159917D01*
X0076806Y0157150D02*
X0079212Y0157150D01*
X0078426Y0157936D02*
X0077592Y0157936D01*
X0079966Y0160294D02*
X0141849Y0160294D01*
X0143677Y0160294D02*
X0178002Y0160294D01*
X0177216Y0159508D02*
X0144463Y0159508D01*
X0144928Y0158722D02*
X0176430Y0158722D01*
X0175644Y0157936D02*
X0144928Y0157936D01*
X0144830Y0157150D02*
X0174858Y0157150D01*
X0174072Y0156364D02*
X0144044Y0156364D01*
X0140540Y0171296D02*
X0153254Y0171296D01*
X0152468Y0172082D02*
X0140991Y0172082D01*
X0133708Y0177831D02*
X0133654Y0177833D01*
X0133601Y0177838D01*
X0133548Y0177847D01*
X0133496Y0177860D01*
X0133444Y0177876D01*
X0133394Y0177896D01*
X0133346Y0177919D01*
X0133299Y0177946D01*
X0133254Y0177975D01*
X0133211Y0178008D01*
X0133171Y0178043D01*
X0133133Y0178081D01*
X0133098Y0178121D01*
X0133065Y0178164D01*
X0133036Y0178209D01*
X0133009Y0178256D01*
X0132986Y0178304D01*
X0132966Y0178354D01*
X0132950Y0178406D01*
X0132937Y0178458D01*
X0132928Y0178511D01*
X0132923Y0178564D01*
X0132921Y0178618D01*
X0139076Y0189372D02*
X0152356Y0189372D01*
X0180755Y0212950D02*
X0181426Y0212950D01*
X0180755Y0213736D02*
X0182212Y0213736D01*
X0180755Y0214521D02*
X0188039Y0214521D01*
X0188039Y0213736D02*
X0185755Y0213736D01*
X0186541Y0212950D02*
X0188039Y0212950D01*
X0188039Y0212164D02*
X0187327Y0212164D01*
X0187936Y0211378D02*
X0188039Y0211378D01*
X0188039Y0210592D02*
X0187936Y0210592D01*
X0187936Y0209806D02*
X0188039Y0209806D01*
X0188039Y0209020D02*
X0187936Y0209020D01*
X0187890Y0208234D02*
X0188039Y0208234D01*
X0188039Y0207448D02*
X0187105Y0207448D01*
X0186319Y0206662D02*
X0188039Y0206662D01*
X0188039Y0215307D02*
X0181322Y0215307D01*
X0182108Y0216093D02*
X0182217Y0216093D01*
X0185750Y0216093D02*
X0188039Y0216093D01*
X0188039Y0216879D02*
X0186535Y0216879D01*
X0187321Y0217665D02*
X0188039Y0217665D01*
X0188039Y0218451D02*
X0187936Y0218451D01*
X0187936Y0219237D02*
X0188039Y0219237D01*
X0188039Y0193302D02*
X0186189Y0193302D01*
X0186975Y0192516D02*
X0188039Y0192516D01*
X0188039Y0191730D02*
X0187761Y0191730D01*
X0187936Y0190944D02*
X0188039Y0190944D01*
X0188039Y0190158D02*
X0187936Y0190158D01*
X0187936Y0189372D02*
X0188039Y0189372D01*
X0188039Y0188586D02*
X0187936Y0188586D01*
X0188039Y0187800D02*
X0187457Y0187800D01*
X0188039Y0187015D02*
X0186671Y0187015D01*
X0185885Y0186229D02*
X0188039Y0186229D01*
X0188039Y0165009D02*
X0122427Y0165009D01*
X0120580Y0165009D02*
X0085486Y0165009D01*
X0083161Y0163437D02*
X0076054Y0163437D01*
X0076840Y0162651D02*
X0083947Y0162651D01*
X0084732Y0161865D02*
X0077626Y0161865D01*
X0079180Y0161079D02*
X0120232Y0161079D01*
X0072266Y0143789D02*
X0069928Y0143789D01*
X0069928Y0143003D02*
X0071480Y0143003D01*
X0070694Y0142218D02*
X0069928Y0142218D01*
X0069928Y0141432D02*
X0070031Y0141432D01*
X0070031Y0140646D02*
X0069928Y0140646D01*
X0069928Y0139860D02*
X0070031Y0139860D01*
X0070031Y0139074D02*
X0069928Y0139074D01*
X0069928Y0138288D02*
X0070031Y0138288D01*
X0069928Y0137502D02*
X0070809Y0137502D01*
X0071595Y0136716D02*
X0069928Y0136716D01*
X0069928Y0123356D02*
X0071832Y0123356D01*
X0071046Y0122570D02*
X0069928Y0122570D01*
X0069928Y0121784D02*
X0070260Y0121784D01*
X0070031Y0120998D02*
X0069928Y0120998D01*
X0069928Y0120212D02*
X0070031Y0120212D01*
X0070031Y0119426D02*
X0069928Y0119426D01*
X0069928Y0118640D02*
X0070031Y0118640D01*
X0069928Y0117854D02*
X0070457Y0117854D01*
X0069928Y0117068D02*
X0071243Y0117068D01*
X0072028Y0116282D02*
X0069928Y0116282D01*
X0095913Y0093491D02*
X0100227Y0093491D01*
X0100097Y0092705D02*
X0095913Y0092705D01*
X0095913Y0091919D02*
X0100097Y0091919D01*
X0100097Y0091133D02*
X0095913Y0091133D01*
X0095913Y0090347D02*
X0100097Y0090347D01*
X0100097Y0089561D02*
X0095913Y0089561D01*
X0095913Y0088775D02*
X0100396Y0088775D01*
X0128827Y0088775D02*
X0131814Y0088775D01*
X0131515Y0089561D02*
X0129126Y0089561D01*
X0129126Y0090347D02*
X0131515Y0090347D01*
X0131515Y0091133D02*
X0129126Y0091133D01*
X0129126Y0091919D02*
X0131515Y0091919D01*
X0131905Y0092705D02*
X0129126Y0092705D01*
X0128996Y0093491D02*
X0132691Y0093491D01*
X0135200Y0093491D02*
X0135793Y0093491D01*
X0139348Y0093491D02*
X0142520Y0093491D01*
X0142390Y0092705D02*
X0140001Y0092705D01*
X0150747Y0093491D02*
X0153918Y0093491D01*
X0153265Y0092705D02*
X0150877Y0092705D01*
X0161099Y0093491D02*
X0162054Y0093491D01*
X0162054Y0092705D02*
X0161752Y0092705D01*
X0161752Y0091919D02*
X0162054Y0091919D01*
X0162054Y0091133D02*
X0161752Y0091133D01*
X0161752Y0090347D02*
X0162054Y0090347D01*
X0162054Y0089561D02*
X0161716Y0089561D01*
X0162054Y0088775D02*
X0160930Y0088775D01*
X0231346Y0114445D02*
X0231346Y0207803D01*
X0233594Y0205555D01*
X0235007Y0205555D01*
X0235007Y0209524D01*
X0235795Y0209524D01*
X0235795Y0210311D01*
X0239763Y0210311D01*
X0239763Y0211724D01*
X0237208Y0214280D01*
X0235795Y0214280D01*
X0235795Y0210311D01*
X0235007Y0210311D01*
X0235007Y0214280D01*
X0233594Y0214280D01*
X0231346Y0212031D01*
X0231346Y0217803D01*
X0233594Y0215555D01*
X0235007Y0215555D01*
X0235007Y0219524D01*
X0235795Y0219524D01*
X0235795Y0220311D01*
X0239763Y0220311D01*
X0239763Y0221724D01*
X0237208Y0224280D01*
X0235795Y0224280D01*
X0235795Y0220311D01*
X0235007Y0220311D01*
X0235007Y0224280D01*
X0233594Y0224280D01*
X0231346Y0222031D01*
X0231346Y0258146D01*
X0349456Y0258146D01*
X0349456Y0114445D01*
X0335823Y0114445D01*
X0335811Y0114455D01*
X0335662Y0114445D01*
X0335513Y0114445D01*
X0335502Y0114433D01*
X0334098Y0114333D01*
X0334071Y0114350D01*
X0333939Y0114322D01*
X0333805Y0114312D01*
X0333784Y0114288D01*
X0332393Y0113985D01*
X0332364Y0113999D01*
X0332238Y0113951D01*
X0332106Y0113923D01*
X0332089Y0113896D01*
X0330755Y0113398D01*
X0330724Y0113408D01*
X0330606Y0113343D01*
X0330480Y0113296D01*
X0330466Y0113267D01*
X0329217Y0112585D01*
X0329186Y0112589D01*
X0329078Y0112508D01*
X0328959Y0112444D01*
X0328950Y0112413D01*
X0327811Y0111560D01*
X0327779Y0111560D01*
X0327683Y0111465D01*
X0327575Y0111384D01*
X0327571Y0111352D01*
X0326565Y0110346D01*
X0326533Y0110341D01*
X0326452Y0110233D01*
X0326357Y0110138D01*
X0326357Y0110106D01*
X0325504Y0108967D01*
X0325473Y0108957D01*
X0325408Y0108839D01*
X0325327Y0108731D01*
X0325332Y0108699D01*
X0324650Y0107450D01*
X0324621Y0107437D01*
X0324574Y0107311D01*
X0324509Y0107192D01*
X0324518Y0107161D01*
X0324021Y0105828D01*
X0323994Y0105811D01*
X0323965Y0105679D01*
X0323918Y0105552D01*
X0323931Y0105523D01*
X0323629Y0104133D01*
X0323605Y0104112D01*
X0323595Y0103977D01*
X0323566Y0103845D01*
X0323584Y0103818D01*
X0323531Y0103076D01*
X0320691Y0105915D01*
X0318747Y0105915D01*
X0318747Y0100665D01*
X0317960Y0100665D01*
X0317960Y0099878D01*
X0318747Y0099878D01*
X0318747Y0094628D01*
X0320691Y0094628D01*
X0323472Y0097408D01*
X0323472Y0088461D01*
X0322032Y0088461D01*
X0322646Y0089075D01*
X0323169Y0089598D01*
X0323169Y0092270D01*
X0323169Y0092838D01*
X0322646Y0093361D01*
X0322646Y0093361D01*
X0321845Y0094162D01*
X0321835Y0094172D01*
X0320789Y0094172D01*
X0320745Y0094172D01*
X0320689Y0094172D01*
X0319642Y0094172D01*
X0318926Y0093456D01*
X0318220Y0094162D01*
X0318210Y0094172D01*
X0317164Y0094172D01*
X0317063Y0094172D01*
X0316017Y0094172D01*
X0315206Y0093361D01*
X0314683Y0092838D01*
X0314683Y0092602D01*
X0312294Y0092602D01*
X0312294Y0093361D01*
X0311483Y0094172D01*
X0309913Y0094172D01*
X0309334Y0094172D01*
X0308767Y0094172D01*
X0308767Y0094172D01*
X0308757Y0094162D01*
X0308312Y0093718D01*
X0307858Y0094172D01*
X0306711Y0094172D01*
X0306238Y0093699D01*
X0305765Y0094172D01*
X0304618Y0094172D01*
X0303807Y0093361D01*
X0303807Y0092602D01*
X0301419Y0092602D01*
X0301419Y0092838D01*
X0300895Y0093361D01*
X0300895Y0093361D01*
X0300094Y0094162D01*
X0300084Y0094172D01*
X0299038Y0094172D01*
X0298994Y0094172D01*
X0298938Y0094172D01*
X0297891Y0094172D01*
X0297080Y0093361D01*
X0296914Y0093194D01*
X0296747Y0093361D01*
X0296747Y0093361D01*
X0295936Y0094172D01*
X0294789Y0094172D01*
X0293743Y0093125D01*
X0292932Y0092315D01*
X0292932Y0089075D01*
X0293546Y0088461D01*
X0289929Y0088461D01*
X0290543Y0089075D01*
X0290543Y0093361D01*
X0289732Y0094172D01*
X0288586Y0094172D01*
X0287775Y0093361D01*
X0287775Y0091032D01*
X0286783Y0091032D01*
X0286918Y0091168D01*
X0286918Y0092315D01*
X0286395Y0092838D01*
X0286395Y0093884D01*
X0285584Y0094695D01*
X0284437Y0094695D01*
X0283626Y0093884D01*
X0283626Y0092666D01*
X0283167Y0093125D01*
X0280451Y0093125D01*
X0279996Y0092671D01*
X0279542Y0093125D01*
X0277349Y0093125D01*
X0276894Y0092671D01*
X0276440Y0093125D01*
X0273724Y0093125D01*
X0273200Y0092602D01*
X0273008Y0092409D01*
X0272292Y0093125D01*
X0269575Y0093125D01*
X0269121Y0092671D01*
X0268667Y0093125D01*
X0266473Y0093125D01*
X0265950Y0092602D01*
X0265757Y0092409D01*
X0265042Y0093125D01*
X0264283Y0093125D01*
X0264283Y0093361D01*
X0263472Y0094172D01*
X0262325Y0094172D01*
X0261514Y0093361D01*
X0261514Y0089075D01*
X0262128Y0088461D01*
X0257330Y0088461D01*
X0257330Y0102093D01*
X0257341Y0102106D01*
X0257330Y0102254D01*
X0257330Y0102403D01*
X0257319Y0102415D01*
X0257218Y0103818D01*
X0257235Y0103845D01*
X0257207Y0103977D01*
X0257197Y0104112D01*
X0257173Y0104133D01*
X0256870Y0105523D01*
X0256884Y0105552D01*
X0256837Y0105679D01*
X0256808Y0105811D01*
X0256781Y0105828D01*
X0256284Y0107161D01*
X0256293Y0107192D01*
X0256228Y0107311D01*
X0256181Y0107437D01*
X0256152Y0107450D01*
X0255470Y0108699D01*
X0255474Y0108731D01*
X0255393Y0108839D01*
X0255329Y0108957D01*
X0255298Y0108966D01*
X0254445Y0110106D01*
X0254445Y0110138D01*
X0254350Y0110233D01*
X0254269Y0110341D01*
X0254237Y0110346D01*
X0253231Y0111352D01*
X0253226Y0111384D01*
X0253118Y0111465D01*
X0253023Y0111560D01*
X0252991Y0111560D01*
X0251852Y0112413D01*
X0251843Y0112444D01*
X0251724Y0112508D01*
X0251616Y0112589D01*
X0251584Y0112585D01*
X0250335Y0113267D01*
X0250322Y0113296D01*
X0250196Y0113343D01*
X0250077Y0113408D01*
X0250047Y0113398D01*
X0248713Y0113896D01*
X0248696Y0113923D01*
X0248564Y0113951D01*
X0248438Y0113999D01*
X0248408Y0113985D01*
X0247018Y0114288D01*
X0246997Y0114312D01*
X0246862Y0114322D01*
X0246730Y0114350D01*
X0246704Y0114333D01*
X0245300Y0114433D01*
X0245288Y0114445D01*
X0245139Y0114445D01*
X0244991Y0114455D01*
X0244978Y0114445D01*
X0231346Y0114445D01*
X0231346Y0114711D02*
X0349456Y0114711D01*
X0349456Y0115496D02*
X0231346Y0115496D01*
X0231346Y0116282D02*
X0233446Y0116282D01*
X0233764Y0115965D02*
X0237038Y0115965D01*
X0239354Y0118280D01*
X0239354Y0121555D01*
X0237038Y0123870D01*
X0233764Y0123870D01*
X0231448Y0121555D01*
X0231448Y0118280D01*
X0233764Y0115965D01*
X0232660Y0117068D02*
X0231346Y0117068D01*
X0231346Y0117854D02*
X0231874Y0117854D01*
X0231448Y0118640D02*
X0231346Y0118640D01*
X0231346Y0119426D02*
X0231448Y0119426D01*
X0231448Y0120212D02*
X0231346Y0120212D01*
X0231346Y0120998D02*
X0231448Y0120998D01*
X0231346Y0121784D02*
X0231677Y0121784D01*
X0231346Y0122570D02*
X0232463Y0122570D01*
X0233249Y0123356D02*
X0231346Y0123356D01*
X0231346Y0124142D02*
X0349456Y0124142D01*
X0349456Y0124927D02*
X0231346Y0124927D01*
X0231346Y0125713D02*
X0349456Y0125713D01*
X0349456Y0126499D02*
X0347573Y0126499D01*
X0347038Y0125965D02*
X0349354Y0128280D01*
X0349354Y0131555D01*
X0347038Y0133870D01*
X0343764Y0133870D01*
X0341448Y0131555D01*
X0341448Y0128280D01*
X0343764Y0125965D01*
X0347038Y0125965D01*
X0348359Y0127285D02*
X0349456Y0127285D01*
X0349456Y0128071D02*
X0349145Y0128071D01*
X0349354Y0128857D02*
X0349456Y0128857D01*
X0349456Y0129643D02*
X0349354Y0129643D01*
X0349354Y0130429D02*
X0349456Y0130429D01*
X0349456Y0131215D02*
X0349354Y0131215D01*
X0349456Y0132001D02*
X0348908Y0132001D01*
X0349456Y0132787D02*
X0348122Y0132787D01*
X0347336Y0133572D02*
X0349456Y0133572D01*
X0349456Y0134358D02*
X0231346Y0134358D01*
X0231346Y0133572D02*
X0233466Y0133572D01*
X0233764Y0133870D02*
X0231448Y0131555D01*
X0231448Y0128280D01*
X0233764Y0125965D01*
X0237038Y0125965D01*
X0239354Y0128280D01*
X0239354Y0131555D01*
X0237038Y0133870D01*
X0233764Y0133870D01*
X0232680Y0132787D02*
X0231346Y0132787D01*
X0231346Y0132001D02*
X0231894Y0132001D01*
X0231448Y0131215D02*
X0231346Y0131215D01*
X0231346Y0130429D02*
X0231448Y0130429D01*
X0231448Y0129643D02*
X0231346Y0129643D01*
X0231346Y0128857D02*
X0231448Y0128857D01*
X0231346Y0128071D02*
X0231657Y0128071D01*
X0231346Y0127285D02*
X0232443Y0127285D01*
X0233229Y0126499D02*
X0231346Y0126499D01*
X0237573Y0126499D02*
X0343229Y0126499D01*
X0342443Y0127285D02*
X0238359Y0127285D01*
X0239145Y0128071D02*
X0341657Y0128071D01*
X0341448Y0128857D02*
X0239354Y0128857D01*
X0239354Y0129643D02*
X0341448Y0129643D01*
X0341448Y0130429D02*
X0239354Y0130429D01*
X0239354Y0131215D02*
X0341448Y0131215D01*
X0341894Y0132001D02*
X0238908Y0132001D01*
X0238122Y0132787D02*
X0342680Y0132787D01*
X0343466Y0133572D02*
X0237336Y0133572D01*
X0237038Y0135965D02*
X0233764Y0135965D01*
X0231448Y0138280D01*
X0231448Y0141555D01*
X0233764Y0143870D01*
X0237038Y0143870D01*
X0239354Y0141555D01*
X0239354Y0138280D01*
X0237038Y0135965D01*
X0237790Y0136716D02*
X0319004Y0136716D01*
X0319031Y0136689D02*
X0320825Y0136689D01*
X0322094Y0137957D01*
X0322094Y0139071D01*
X0341365Y0158343D01*
X0341448Y0158343D01*
X0341448Y0158280D01*
X0343764Y0155965D01*
X0347038Y0155965D01*
X0349354Y0158280D01*
X0349354Y0161555D01*
X0347038Y0163870D01*
X0343764Y0163870D01*
X0341448Y0161555D01*
X0341448Y0161098D01*
X0340224Y0161098D01*
X0320145Y0141020D01*
X0319031Y0141020D01*
X0317763Y0139751D01*
X0317763Y0137957D01*
X0319031Y0136689D01*
X0318218Y0137502D02*
X0238576Y0137502D01*
X0239354Y0138288D02*
X0317763Y0138288D01*
X0317763Y0139074D02*
X0239354Y0139074D01*
X0239354Y0139860D02*
X0317872Y0139860D01*
X0318658Y0140646D02*
X0239354Y0140646D01*
X0239354Y0141432D02*
X0320557Y0141432D01*
X0321343Y0142218D02*
X0238691Y0142218D01*
X0237905Y0143003D02*
X0322129Y0143003D01*
X0322915Y0143789D02*
X0237119Y0143789D01*
X0237038Y0145965D02*
X0233764Y0145965D01*
X0231448Y0148280D01*
X0231448Y0151555D01*
X0233764Y0153870D01*
X0237038Y0153870D01*
X0239354Y0151555D01*
X0239354Y0148280D01*
X0237038Y0145965D01*
X0237221Y0146147D02*
X0325272Y0146147D01*
X0324487Y0145361D02*
X0231346Y0145361D01*
X0231346Y0144575D02*
X0323701Y0144575D01*
X0326026Y0143003D02*
X0342897Y0143003D01*
X0342111Y0142218D02*
X0325240Y0142218D01*
X0324454Y0141432D02*
X0341448Y0141432D01*
X0341448Y0141555D02*
X0341448Y0138280D01*
X0343764Y0135965D01*
X0347038Y0135965D01*
X0349354Y0138280D01*
X0349354Y0141555D01*
X0347038Y0143870D01*
X0343764Y0143870D01*
X0341448Y0141555D01*
X0341448Y0140646D02*
X0323668Y0140646D01*
X0322883Y0139860D02*
X0341448Y0139860D01*
X0341448Y0139074D02*
X0322097Y0139074D01*
X0322094Y0138288D02*
X0341448Y0138288D01*
X0342226Y0137502D02*
X0321638Y0137502D01*
X0320852Y0136716D02*
X0343012Y0136716D01*
X0347790Y0136716D02*
X0349456Y0136716D01*
X0349456Y0135930D02*
X0231346Y0135930D01*
X0231346Y0135144D02*
X0349456Y0135144D01*
X0349456Y0137502D02*
X0348576Y0137502D01*
X0349354Y0138288D02*
X0349456Y0138288D01*
X0349456Y0139074D02*
X0349354Y0139074D01*
X0349354Y0139860D02*
X0349456Y0139860D01*
X0349456Y0140646D02*
X0349354Y0140646D01*
X0349354Y0141432D02*
X0349456Y0141432D01*
X0349456Y0142218D02*
X0348691Y0142218D01*
X0349456Y0143003D02*
X0347905Y0143003D01*
X0347119Y0143789D02*
X0349456Y0143789D01*
X0349456Y0144575D02*
X0327598Y0144575D01*
X0326812Y0143789D02*
X0343683Y0143789D01*
X0343764Y0145965D02*
X0347038Y0145965D01*
X0349354Y0148280D01*
X0349354Y0151555D01*
X0347038Y0153870D01*
X0343764Y0153870D01*
X0341448Y0151555D01*
X0341448Y0148280D01*
X0343764Y0145965D01*
X0343581Y0146147D02*
X0329170Y0146147D01*
X0329956Y0146933D02*
X0342795Y0146933D01*
X0342009Y0147719D02*
X0330742Y0147719D01*
X0331528Y0148505D02*
X0341448Y0148505D01*
X0341448Y0149291D02*
X0332314Y0149291D01*
X0333099Y0150077D02*
X0341448Y0150077D01*
X0341448Y0150863D02*
X0333885Y0150863D01*
X0334671Y0151648D02*
X0341542Y0151648D01*
X0342328Y0152434D02*
X0335457Y0152434D01*
X0336243Y0153220D02*
X0343114Y0153220D01*
X0343364Y0156364D02*
X0339387Y0156364D01*
X0340173Y0157150D02*
X0342578Y0157150D01*
X0341792Y0157936D02*
X0340959Y0157936D01*
X0340795Y0159720D02*
X0319928Y0138854D01*
X0326058Y0146933D02*
X0238007Y0146933D01*
X0238792Y0147719D02*
X0326844Y0147719D01*
X0327630Y0148505D02*
X0239354Y0148505D01*
X0239354Y0149291D02*
X0328416Y0149291D01*
X0329202Y0150077D02*
X0239354Y0150077D01*
X0239354Y0150863D02*
X0329988Y0150863D01*
X0330774Y0151648D02*
X0239260Y0151648D01*
X0238474Y0152434D02*
X0331560Y0152434D01*
X0332346Y0153220D02*
X0237688Y0153220D01*
X0237038Y0155965D02*
X0233764Y0155965D01*
X0231448Y0158280D01*
X0231448Y0161555D01*
X0233764Y0163870D01*
X0237038Y0163870D01*
X0239354Y0161555D01*
X0239354Y0161492D01*
X0240184Y0161492D01*
X0240991Y0160685D01*
X0242153Y0159524D01*
X0302496Y0159524D01*
X0303283Y0160311D01*
X0305077Y0160311D01*
X0306346Y0159043D01*
X0306346Y0157249D01*
X0305077Y0155980D01*
X0303283Y0155980D01*
X0302496Y0156768D01*
X0241011Y0156768D01*
X0239354Y0158425D01*
X0239354Y0158280D01*
X0237038Y0155965D01*
X0237438Y0156364D02*
X0302900Y0156364D01*
X0304180Y0158146D02*
X0241582Y0158146D01*
X0239613Y0160114D01*
X0235598Y0160114D01*
X0235401Y0159917D01*
X0238223Y0157150D02*
X0240629Y0157150D01*
X0239843Y0157936D02*
X0239009Y0157936D01*
X0241383Y0160294D02*
X0303266Y0160294D01*
X0305095Y0160294D02*
X0339419Y0160294D01*
X0340205Y0161079D02*
X0284192Y0161079D01*
X0283817Y0160705D02*
X0285086Y0161973D01*
X0285086Y0163767D01*
X0283817Y0165035D01*
X0282024Y0165035D01*
X0281236Y0164248D01*
X0247665Y0164248D01*
X0241385Y0170527D01*
X0240578Y0171335D01*
X0239354Y0171335D01*
X0239354Y0171555D01*
X0237038Y0173870D01*
X0233764Y0173870D01*
X0231448Y0171555D01*
X0231448Y0168280D01*
X0233764Y0165965D01*
X0237038Y0165965D01*
X0239354Y0168280D01*
X0239354Y0168579D01*
X0239436Y0168579D01*
X0246523Y0161492D01*
X0281236Y0161492D01*
X0282024Y0160705D01*
X0283817Y0160705D01*
X0284978Y0161865D02*
X0341759Y0161865D01*
X0342545Y0162651D02*
X0285086Y0162651D01*
X0285086Y0163437D02*
X0343331Y0163437D01*
X0343764Y0165965D02*
X0347038Y0165965D01*
X0349354Y0168280D01*
X0349354Y0171555D01*
X0347038Y0173870D01*
X0343764Y0173870D01*
X0341622Y0171728D01*
X0321494Y0171728D01*
X0322463Y0172698D01*
X0323060Y0174138D01*
X0323060Y0175697D01*
X0322463Y0177137D01*
X0321572Y0178028D01*
X0328087Y0178028D01*
X0328874Y0177240D01*
X0330668Y0177240D01*
X0331936Y0178509D01*
X0331936Y0180302D01*
X0330668Y0181571D01*
X0328874Y0181571D01*
X0328087Y0180783D01*
X0313739Y0180783D01*
X0313739Y0180783D01*
X0314132Y0180783D01*
X0315401Y0182052D01*
X0315401Y0182752D01*
X0322074Y0182752D01*
X0341365Y0202043D01*
X0342173Y0202850D01*
X0342173Y0207556D01*
X0343764Y0205965D01*
X0347038Y0205965D01*
X0349354Y0208280D01*
X0349354Y0211555D01*
X0347038Y0213870D01*
X0343764Y0213870D01*
X0342173Y0212279D01*
X0342173Y0214740D01*
X0343580Y0216148D01*
X0343764Y0215965D01*
X0347038Y0215965D01*
X0349354Y0218280D01*
X0349354Y0221555D01*
X0347038Y0223870D01*
X0345082Y0223870D01*
X0346090Y0224878D01*
X0346897Y0225685D01*
X0346897Y0225965D01*
X0347038Y0225965D01*
X0349354Y0228280D01*
X0349354Y0231555D01*
X0347038Y0233870D01*
X0343764Y0233870D01*
X0341448Y0231555D01*
X0341448Y0228280D01*
X0343521Y0226207D01*
X0337448Y0220134D01*
X0337448Y0204386D01*
X0326960Y0193898D01*
X0327060Y0194138D01*
X0327060Y0195697D01*
X0326463Y0197137D01*
X0325361Y0198239D01*
X0323920Y0198836D01*
X0322362Y0198836D01*
X0320921Y0198239D01*
X0319819Y0197137D01*
X0319223Y0195697D01*
X0319223Y0194138D01*
X0319819Y0192698D01*
X0320921Y0191595D01*
X0322362Y0190999D01*
X0323920Y0190999D01*
X0324161Y0191098D01*
X0322507Y0189445D01*
X0313846Y0189445D01*
X0313452Y0189051D01*
X0312339Y0189051D01*
X0311070Y0187783D01*
X0311070Y0185989D01*
X0312142Y0184917D01*
X0311070Y0183846D01*
X0311070Y0182052D01*
X0311551Y0181571D01*
X0311157Y0181571D01*
X0309889Y0180302D01*
X0309889Y0179976D01*
X0300834Y0189031D01*
X0300027Y0189839D01*
X0298384Y0189839D01*
X0297597Y0190626D01*
X0295803Y0190626D01*
X0295716Y0190539D01*
X0295716Y0204779D01*
X0294909Y0205587D01*
X0282330Y0205587D01*
X0282330Y0221315D01*
X0281523Y0222122D01*
X0273295Y0222122D01*
X0272487Y0221315D01*
X0272487Y0211098D01*
X0252035Y0211098D01*
X0251228Y0210291D01*
X0251228Y0178047D01*
X0252035Y0177240D01*
X0259476Y0177240D01*
X0260283Y0178047D01*
X0260283Y0202831D01*
X0272487Y0202831D01*
X0272487Y0197732D01*
X0273295Y0196925D01*
X0288236Y0196925D01*
X0288236Y0171748D01*
X0289043Y0170941D01*
X0301602Y0170941D01*
X0302409Y0171748D01*
X0302409Y0178401D01*
X0301602Y0179209D01*
X0295716Y0179209D01*
X0295716Y0186383D01*
X0295803Y0186295D01*
X0297597Y0186295D01*
X0298384Y0187083D01*
X0298885Y0187083D01*
X0316995Y0168972D01*
X0341448Y0168972D01*
X0341448Y0168280D01*
X0343764Y0165965D01*
X0343147Y0166581D02*
X0245332Y0166581D01*
X0246118Y0165795D02*
X0349456Y0165795D01*
X0349456Y0166581D02*
X0347654Y0166581D01*
X0348440Y0167367D02*
X0349456Y0167367D01*
X0349456Y0168153D02*
X0349226Y0168153D01*
X0349354Y0168939D02*
X0349456Y0168939D01*
X0349456Y0169724D02*
X0349354Y0169724D01*
X0349354Y0170510D02*
X0349456Y0170510D01*
X0349456Y0171296D02*
X0349354Y0171296D01*
X0349456Y0172082D02*
X0348826Y0172082D01*
X0349456Y0172868D02*
X0348040Y0172868D01*
X0347254Y0173654D02*
X0349456Y0173654D01*
X0349456Y0174440D02*
X0323060Y0174440D01*
X0323060Y0175226D02*
X0349456Y0175226D01*
X0349456Y0176012D02*
X0347085Y0176012D01*
X0347038Y0175965D02*
X0349354Y0178280D01*
X0349354Y0181555D01*
X0347038Y0183870D01*
X0343764Y0183870D01*
X0341448Y0181555D01*
X0341448Y0178280D01*
X0343764Y0175965D01*
X0347038Y0175965D01*
X0347871Y0176798D02*
X0349456Y0176798D01*
X0349456Y0177584D02*
X0348657Y0177584D01*
X0349354Y0178370D02*
X0349456Y0178370D01*
X0349456Y0179155D02*
X0349354Y0179155D01*
X0349354Y0179941D02*
X0349456Y0179941D01*
X0349456Y0180727D02*
X0349354Y0180727D01*
X0349354Y0181513D02*
X0349456Y0181513D01*
X0349456Y0182299D02*
X0348609Y0182299D01*
X0347823Y0183085D02*
X0349456Y0183085D01*
X0349456Y0183871D02*
X0323193Y0183871D01*
X0323979Y0184657D02*
X0349456Y0184657D01*
X0349456Y0185443D02*
X0324765Y0185443D01*
X0325551Y0186229D02*
X0343500Y0186229D01*
X0343764Y0185965D02*
X0347038Y0185965D01*
X0349354Y0188280D01*
X0349354Y0191555D01*
X0347038Y0193870D01*
X0343764Y0193870D01*
X0341448Y0191555D01*
X0341448Y0188280D01*
X0343764Y0185965D01*
X0342714Y0187015D02*
X0326337Y0187015D01*
X0327122Y0187800D02*
X0341928Y0187800D01*
X0341448Y0188586D02*
X0327908Y0188586D01*
X0328694Y0189372D02*
X0341448Y0189372D01*
X0341448Y0190158D02*
X0329480Y0190158D01*
X0330266Y0190944D02*
X0341448Y0190944D01*
X0341624Y0191730D02*
X0331052Y0191730D01*
X0331838Y0192516D02*
X0342409Y0192516D01*
X0343195Y0193302D02*
X0332624Y0193302D01*
X0333410Y0194088D02*
X0349456Y0194088D01*
X0349456Y0194874D02*
X0334196Y0194874D01*
X0334982Y0195660D02*
X0349456Y0195660D01*
X0349456Y0196445D02*
X0347519Y0196445D01*
X0347038Y0195965D02*
X0349354Y0198280D01*
X0349354Y0201555D01*
X0347038Y0203870D01*
X0343764Y0203870D01*
X0341448Y0201555D01*
X0341448Y0198280D01*
X0343764Y0195965D01*
X0347038Y0195965D01*
X0348305Y0197231D02*
X0349456Y0197231D01*
X0349456Y0198017D02*
X0349091Y0198017D01*
X0349354Y0198803D02*
X0349456Y0198803D01*
X0349456Y0199589D02*
X0349354Y0199589D01*
X0349354Y0200375D02*
X0349456Y0200375D01*
X0349456Y0201161D02*
X0349354Y0201161D01*
X0349456Y0201947D02*
X0348961Y0201947D01*
X0349456Y0202733D02*
X0348175Y0202733D01*
X0347389Y0203519D02*
X0349456Y0203519D01*
X0349456Y0204305D02*
X0342173Y0204305D01*
X0342173Y0205091D02*
X0349456Y0205091D01*
X0349456Y0205876D02*
X0342173Y0205876D01*
X0342173Y0206662D02*
X0343066Y0206662D01*
X0342280Y0207448D02*
X0342173Y0207448D01*
X0342173Y0203519D02*
X0343412Y0203519D01*
X0342626Y0202733D02*
X0342055Y0202733D01*
X0341840Y0201947D02*
X0341269Y0201947D01*
X0341448Y0201161D02*
X0340483Y0201161D01*
X0339697Y0200375D02*
X0341448Y0200375D01*
X0341448Y0199589D02*
X0338911Y0199589D01*
X0338125Y0198803D02*
X0341448Y0198803D01*
X0341711Y0198017D02*
X0337339Y0198017D01*
X0336553Y0197231D02*
X0342497Y0197231D01*
X0343283Y0196445D02*
X0335768Y0196445D01*
X0332652Y0199589D02*
X0307527Y0199589D01*
X0307527Y0198913D02*
X0307527Y0203618D01*
X0315094Y0203618D01*
X0315882Y0202831D01*
X0317676Y0202831D01*
X0318944Y0204099D01*
X0318944Y0205893D01*
X0317676Y0207161D01*
X0315882Y0207161D01*
X0315094Y0206374D01*
X0307527Y0206374D01*
X0307527Y0231157D01*
X0306720Y0231965D01*
X0300066Y0231965D01*
X0299259Y0231157D01*
X0299259Y0198913D01*
X0300066Y0198106D01*
X0301208Y0198106D01*
X0306720Y0198106D01*
X0307527Y0198913D01*
X0307417Y0198803D02*
X0314283Y0198803D01*
X0314362Y0198836D02*
X0312921Y0198239D01*
X0311819Y0197137D01*
X0311223Y0195697D01*
X0311223Y0194138D01*
X0311819Y0192698D01*
X0312921Y0191595D01*
X0314362Y0190999D01*
X0315920Y0190999D01*
X0317361Y0191595D01*
X0318463Y0192698D01*
X0319060Y0194138D01*
X0319060Y0195697D01*
X0318463Y0197137D01*
X0317361Y0198239D01*
X0315920Y0198836D01*
X0314362Y0198836D01*
X0315999Y0198803D02*
X0322283Y0198803D01*
X0323999Y0198803D02*
X0331866Y0198803D01*
X0331080Y0198017D02*
X0325583Y0198017D01*
X0326369Y0197231D02*
X0330294Y0197231D01*
X0329508Y0196445D02*
X0326749Y0196445D01*
X0327060Y0195660D02*
X0328722Y0195660D01*
X0327936Y0194874D02*
X0327060Y0194874D01*
X0327039Y0194088D02*
X0327150Y0194088D01*
X0324006Y0190944D02*
X0295716Y0190944D01*
X0295716Y0191730D02*
X0312787Y0191730D01*
X0312001Y0192516D02*
X0295716Y0192516D01*
X0295716Y0193302D02*
X0311569Y0193302D01*
X0311243Y0194088D02*
X0295716Y0194088D01*
X0295716Y0194874D02*
X0311223Y0194874D01*
X0311223Y0195660D02*
X0295716Y0195660D01*
X0295716Y0196445D02*
X0311533Y0196445D01*
X0311914Y0197231D02*
X0295716Y0197231D01*
X0295716Y0198017D02*
X0312699Y0198017D01*
X0317583Y0198017D02*
X0320699Y0198017D01*
X0319914Y0197231D02*
X0318369Y0197231D01*
X0318749Y0196445D02*
X0319533Y0196445D01*
X0319223Y0195660D02*
X0319060Y0195660D01*
X0319060Y0194874D02*
X0319223Y0194874D01*
X0319243Y0194088D02*
X0319039Y0194088D01*
X0318713Y0193302D02*
X0319569Y0193302D01*
X0320001Y0192516D02*
X0318281Y0192516D01*
X0317495Y0191730D02*
X0320787Y0191730D01*
X0323221Y0190158D02*
X0298065Y0190158D01*
X0296700Y0188461D02*
X0299456Y0188461D01*
X0317566Y0170350D01*
X0344732Y0170350D01*
X0345165Y0169917D01*
X0345401Y0169917D01*
X0342762Y0172868D02*
X0322534Y0172868D01*
X0322859Y0173654D02*
X0343548Y0173654D01*
X0341976Y0172082D02*
X0321847Y0172082D01*
X0322929Y0176012D02*
X0343716Y0176012D01*
X0342930Y0176798D02*
X0322604Y0176798D01*
X0322016Y0177584D02*
X0328531Y0177584D01*
X0329771Y0179406D02*
X0312054Y0179406D01*
X0310314Y0180727D02*
X0309138Y0180727D01*
X0308352Y0181513D02*
X0311100Y0181513D01*
X0311070Y0182299D02*
X0307566Y0182299D01*
X0306780Y0183085D02*
X0311070Y0183085D01*
X0311095Y0183871D02*
X0305994Y0183871D01*
X0305209Y0184657D02*
X0311881Y0184657D01*
X0311616Y0185443D02*
X0304423Y0185443D01*
X0303637Y0186229D02*
X0311070Y0186229D01*
X0311070Y0187015D02*
X0302851Y0187015D01*
X0302065Y0187800D02*
X0311088Y0187800D01*
X0311874Y0188586D02*
X0301279Y0188586D01*
X0300493Y0189372D02*
X0313773Y0189372D01*
X0314417Y0188067D02*
X0313236Y0186886D01*
X0314417Y0188067D02*
X0323078Y0188067D01*
X0338826Y0203815D01*
X0338826Y0219563D01*
X0345519Y0226256D01*
X0345519Y0229799D01*
X0345401Y0229917D01*
X0348170Y0227096D02*
X0349456Y0227096D01*
X0349456Y0226310D02*
X0347384Y0226310D01*
X0346736Y0225524D02*
X0349456Y0225524D01*
X0349456Y0224738D02*
X0345950Y0224738D01*
X0345164Y0223952D02*
X0349456Y0223952D01*
X0349456Y0223167D02*
X0347742Y0223167D01*
X0348528Y0222381D02*
X0349456Y0222381D01*
X0349456Y0221595D02*
X0349313Y0221595D01*
X0349354Y0220809D02*
X0349456Y0220809D01*
X0349456Y0220023D02*
X0349354Y0220023D01*
X0349354Y0219237D02*
X0349456Y0219237D01*
X0349456Y0218451D02*
X0349354Y0218451D01*
X0349456Y0217665D02*
X0348739Y0217665D01*
X0349456Y0216879D02*
X0347953Y0216879D01*
X0347167Y0216093D02*
X0349456Y0216093D01*
X0349456Y0215307D02*
X0342740Y0215307D01*
X0342173Y0214521D02*
X0349456Y0214521D01*
X0349456Y0213736D02*
X0347173Y0213736D01*
X0347959Y0212950D02*
X0349456Y0212950D01*
X0349456Y0212164D02*
X0348744Y0212164D01*
X0349354Y0211378D02*
X0349456Y0211378D01*
X0349456Y0210592D02*
X0349354Y0210592D01*
X0349354Y0209806D02*
X0349456Y0209806D01*
X0349456Y0209020D02*
X0349354Y0209020D01*
X0349308Y0208234D02*
X0349456Y0208234D01*
X0349456Y0207448D02*
X0348522Y0207448D01*
X0347736Y0206662D02*
X0349456Y0206662D01*
X0342843Y0212950D02*
X0342173Y0212950D01*
X0342173Y0213736D02*
X0343629Y0213736D01*
X0343635Y0216093D02*
X0343526Y0216093D01*
X0340795Y0215311D02*
X0345401Y0219917D01*
X0341267Y0223952D02*
X0307527Y0223952D01*
X0307527Y0223167D02*
X0340481Y0223167D01*
X0339695Y0222381D02*
X0307527Y0222381D01*
X0307527Y0221595D02*
X0338909Y0221595D01*
X0338123Y0220809D02*
X0307527Y0220809D01*
X0307527Y0220023D02*
X0337448Y0220023D01*
X0337448Y0219237D02*
X0307527Y0219237D01*
X0307527Y0218451D02*
X0337448Y0218451D01*
X0337448Y0217665D02*
X0307527Y0217665D01*
X0307527Y0216879D02*
X0337448Y0216879D01*
X0337448Y0216093D02*
X0307527Y0216093D01*
X0307527Y0215307D02*
X0337448Y0215307D01*
X0337448Y0214521D02*
X0307527Y0214521D01*
X0307527Y0213736D02*
X0337448Y0213736D01*
X0337448Y0212950D02*
X0307527Y0212950D01*
X0307527Y0212164D02*
X0337448Y0212164D01*
X0337448Y0211378D02*
X0307527Y0211378D01*
X0307527Y0210592D02*
X0337448Y0210592D01*
X0337448Y0209806D02*
X0307527Y0209806D01*
X0307527Y0209020D02*
X0337448Y0209020D01*
X0337448Y0208234D02*
X0307527Y0208234D01*
X0307527Y0207448D02*
X0337448Y0207448D01*
X0337448Y0206662D02*
X0318175Y0206662D01*
X0318944Y0205876D02*
X0337448Y0205876D01*
X0337448Y0205091D02*
X0318944Y0205091D01*
X0318944Y0204305D02*
X0337367Y0204305D01*
X0336581Y0203519D02*
X0318364Y0203519D01*
X0316779Y0204996D02*
X0305361Y0204996D01*
X0303777Y0203519D02*
X0300637Y0203519D01*
X0300637Y0204305D02*
X0303196Y0204305D01*
X0303196Y0204099D02*
X0304465Y0202831D01*
X0306149Y0202831D01*
X0306149Y0199484D01*
X0300637Y0199484D01*
X0300637Y0214526D01*
X0300906Y0214638D01*
X0301625Y0215357D01*
X0302015Y0216298D01*
X0302015Y0217316D01*
X0301625Y0218257D01*
X0300906Y0218977D01*
X0300637Y0219088D01*
X0300637Y0230587D01*
X0306149Y0230587D01*
X0306149Y0207161D01*
X0304465Y0207161D01*
X0303196Y0205893D01*
X0303196Y0204099D01*
X0303196Y0205091D02*
X0300637Y0205091D01*
X0300637Y0205876D02*
X0303196Y0205876D01*
X0303966Y0206662D02*
X0300637Y0206662D01*
X0300637Y0207448D02*
X0306149Y0207448D01*
X0306149Y0208234D02*
X0300637Y0208234D01*
X0300637Y0209020D02*
X0306149Y0209020D01*
X0306149Y0209806D02*
X0300637Y0209806D01*
X0300637Y0210592D02*
X0306149Y0210592D01*
X0306149Y0211378D02*
X0300637Y0211378D01*
X0300637Y0212164D02*
X0306149Y0212164D01*
X0306149Y0212950D02*
X0300637Y0212950D01*
X0300637Y0213736D02*
X0306149Y0213736D01*
X0306149Y0214521D02*
X0300637Y0214521D01*
X0301575Y0215307D02*
X0306149Y0215307D01*
X0306149Y0216093D02*
X0301930Y0216093D01*
X0302015Y0216879D02*
X0306149Y0216879D01*
X0306149Y0217665D02*
X0301870Y0217665D01*
X0301431Y0218451D02*
X0306149Y0218451D01*
X0306149Y0219237D02*
X0300637Y0219237D01*
X0300637Y0220023D02*
X0306149Y0220023D01*
X0306149Y0220809D02*
X0300637Y0220809D01*
X0300637Y0221595D02*
X0306149Y0221595D01*
X0306149Y0222381D02*
X0300637Y0222381D01*
X0300637Y0223167D02*
X0306149Y0223167D01*
X0306149Y0223952D02*
X0300637Y0223952D01*
X0300637Y0224738D02*
X0306149Y0224738D01*
X0306149Y0225524D02*
X0300637Y0225524D01*
X0300637Y0226310D02*
X0306149Y0226310D01*
X0306149Y0227096D02*
X0300637Y0227096D01*
X0300637Y0227882D02*
X0306149Y0227882D01*
X0306149Y0228668D02*
X0300637Y0228668D01*
X0300637Y0229454D02*
X0306149Y0229454D01*
X0306149Y0230240D02*
X0300637Y0230240D01*
X0299259Y0230240D02*
X0239354Y0230240D01*
X0239354Y0231026D02*
X0299259Y0231026D01*
X0299913Y0231812D02*
X0239097Y0231812D01*
X0239354Y0231555D02*
X0237038Y0233870D01*
X0233764Y0233870D01*
X0231448Y0231555D01*
X0231448Y0228280D01*
X0233764Y0225965D01*
X0237038Y0225965D01*
X0239354Y0228280D01*
X0239354Y0231555D01*
X0238311Y0232597D02*
X0342491Y0232597D01*
X0341705Y0231812D02*
X0306873Y0231812D01*
X0307527Y0231026D02*
X0341448Y0231026D01*
X0341448Y0230240D02*
X0307527Y0230240D01*
X0307527Y0229454D02*
X0341448Y0229454D01*
X0341448Y0228668D02*
X0307527Y0228668D01*
X0307527Y0227882D02*
X0341846Y0227882D01*
X0342632Y0227096D02*
X0307527Y0227096D01*
X0307527Y0226310D02*
X0343418Y0226310D01*
X0342839Y0225524D02*
X0307527Y0225524D01*
X0307527Y0224738D02*
X0342053Y0224738D01*
X0348956Y0227882D02*
X0349456Y0227882D01*
X0349456Y0228668D02*
X0349354Y0228668D01*
X0349354Y0229454D02*
X0349456Y0229454D01*
X0349456Y0230240D02*
X0349354Y0230240D01*
X0349354Y0231026D02*
X0349456Y0231026D01*
X0349456Y0231812D02*
X0349097Y0231812D01*
X0349456Y0232597D02*
X0348311Y0232597D01*
X0347525Y0233383D02*
X0349456Y0233383D01*
X0349456Y0234169D02*
X0231346Y0234169D01*
X0231346Y0233383D02*
X0233277Y0233383D01*
X0232491Y0232597D02*
X0231346Y0232597D01*
X0231346Y0231812D02*
X0231705Y0231812D01*
X0231448Y0231026D02*
X0231346Y0231026D01*
X0231346Y0230240D02*
X0231448Y0230240D01*
X0231448Y0229454D02*
X0231346Y0229454D01*
X0231346Y0228668D02*
X0231448Y0228668D01*
X0231346Y0227882D02*
X0231846Y0227882D01*
X0231346Y0227096D02*
X0232632Y0227096D01*
X0233418Y0226310D02*
X0231346Y0226310D01*
X0231346Y0225524D02*
X0299259Y0225524D01*
X0299259Y0224738D02*
X0231346Y0224738D01*
X0231346Y0223952D02*
X0233267Y0223952D01*
X0232481Y0223167D02*
X0231346Y0223167D01*
X0231346Y0222381D02*
X0231695Y0222381D01*
X0235007Y0222381D02*
X0235795Y0222381D01*
X0235795Y0223167D02*
X0235007Y0223167D01*
X0235007Y0223952D02*
X0235795Y0223952D01*
X0237535Y0223952D02*
X0299259Y0223952D01*
X0299259Y0223167D02*
X0238321Y0223167D01*
X0239107Y0222381D02*
X0299259Y0222381D01*
X0299259Y0221595D02*
X0282050Y0221595D01*
X0282330Y0220809D02*
X0299259Y0220809D01*
X0299259Y0220023D02*
X0282330Y0220023D01*
X0282330Y0219237D02*
X0299259Y0219237D01*
X0299259Y0218451D02*
X0282330Y0218451D01*
X0282330Y0217665D02*
X0299259Y0217665D01*
X0299259Y0216879D02*
X0282330Y0216879D01*
X0282330Y0216093D02*
X0299259Y0216093D01*
X0299259Y0215307D02*
X0282330Y0215307D01*
X0282330Y0214521D02*
X0299259Y0214521D01*
X0299259Y0213736D02*
X0282330Y0213736D01*
X0282330Y0212950D02*
X0299259Y0212950D01*
X0299259Y0212164D02*
X0282330Y0212164D01*
X0282330Y0211378D02*
X0299259Y0211378D01*
X0299259Y0210592D02*
X0282330Y0210592D01*
X0282330Y0209806D02*
X0299259Y0209806D01*
X0299259Y0209020D02*
X0282330Y0209020D01*
X0282330Y0208234D02*
X0299259Y0208234D01*
X0299259Y0207448D02*
X0282330Y0207448D01*
X0282330Y0206662D02*
X0299259Y0206662D01*
X0299259Y0205876D02*
X0282330Y0205876D01*
X0280952Y0204996D02*
X0280954Y0204942D01*
X0280959Y0204889D01*
X0280968Y0204836D01*
X0280981Y0204784D01*
X0280997Y0204732D01*
X0281017Y0204682D01*
X0281040Y0204634D01*
X0281067Y0204587D01*
X0281096Y0204542D01*
X0281129Y0204499D01*
X0281164Y0204459D01*
X0281202Y0204421D01*
X0281242Y0204386D01*
X0281285Y0204353D01*
X0281330Y0204324D01*
X0281377Y0204297D01*
X0281425Y0204274D01*
X0281475Y0204254D01*
X0281527Y0204238D01*
X0281579Y0204225D01*
X0281632Y0204216D01*
X0281685Y0204211D01*
X0281739Y0204209D01*
X0280952Y0204209D02*
X0252606Y0204209D01*
X0252606Y0209720D01*
X0280952Y0209720D01*
X0280952Y0204209D01*
X0280952Y0204305D02*
X0252606Y0204305D01*
X0258905Y0204305D01*
X0258905Y0205091D02*
X0252606Y0205091D01*
X0280952Y0205091D01*
X0273865Y0205091D01*
X0273865Y0205876D02*
X0280952Y0205876D01*
X0252606Y0205876D01*
X0258905Y0205876D01*
X0258905Y0206662D02*
X0252606Y0206662D01*
X0280952Y0206662D01*
X0273865Y0206662D01*
X0273865Y0207448D02*
X0280952Y0207448D01*
X0252606Y0207448D01*
X0258905Y0207448D01*
X0258905Y0208234D02*
X0252606Y0208234D01*
X0280952Y0208234D01*
X0273865Y0208234D01*
X0273865Y0209020D02*
X0280952Y0209020D01*
X0252606Y0209020D01*
X0258905Y0209020D01*
X0258905Y0209720D02*
X0258905Y0178618D01*
X0252606Y0178618D01*
X0252606Y0209720D01*
X0258905Y0209720D01*
X0258905Y0203519D02*
X0252606Y0203519D01*
X0252606Y0202733D02*
X0258905Y0202733D01*
X0258905Y0201947D02*
X0252606Y0201947D01*
X0252606Y0201161D02*
X0258905Y0201161D01*
X0258905Y0200375D02*
X0252606Y0200375D01*
X0252606Y0199589D02*
X0258905Y0199589D01*
X0258905Y0198803D02*
X0252606Y0198803D01*
X0252606Y0198017D02*
X0258905Y0198017D01*
X0258905Y0197231D02*
X0252606Y0197231D01*
X0252606Y0196445D02*
X0258905Y0196445D01*
X0258905Y0195660D02*
X0252606Y0195660D01*
X0252606Y0194874D02*
X0258905Y0194874D01*
X0258905Y0194088D02*
X0252606Y0194088D01*
X0252606Y0193302D02*
X0258905Y0193302D01*
X0258905Y0192516D02*
X0252606Y0192516D01*
X0252606Y0191730D02*
X0258905Y0191730D01*
X0258905Y0190944D02*
X0252606Y0190944D01*
X0252606Y0190158D02*
X0258905Y0190158D01*
X0258905Y0189372D02*
X0252606Y0189372D01*
X0252606Y0188586D02*
X0258905Y0188586D01*
X0258905Y0187800D02*
X0252606Y0187800D01*
X0252606Y0187015D02*
X0258905Y0187015D01*
X0258905Y0186229D02*
X0252606Y0186229D01*
X0252606Y0185443D02*
X0258905Y0185443D01*
X0258905Y0184657D02*
X0252606Y0184657D01*
X0252606Y0183871D02*
X0258905Y0183871D01*
X0258905Y0183085D02*
X0252606Y0183085D01*
X0252606Y0182299D02*
X0258905Y0182299D01*
X0258905Y0181513D02*
X0252606Y0181513D01*
X0252606Y0180727D02*
X0258905Y0180727D01*
X0258905Y0179941D02*
X0252606Y0179941D01*
X0252606Y0179155D02*
X0258905Y0179155D01*
X0260283Y0179155D02*
X0282690Y0179155D01*
X0281904Y0178370D02*
X0260283Y0178370D01*
X0259819Y0177584D02*
X0281118Y0177584D01*
X0280332Y0176798D02*
X0237871Y0176798D01*
X0238657Y0177584D02*
X0251691Y0177584D01*
X0251228Y0178370D02*
X0239354Y0178370D01*
X0239354Y0178280D02*
X0237038Y0175965D01*
X0233764Y0175965D01*
X0231448Y0178280D01*
X0231448Y0181555D01*
X0233764Y0183870D01*
X0237038Y0183870D01*
X0239354Y0181555D01*
X0239354Y0178280D01*
X0239354Y0179155D02*
X0251228Y0179155D01*
X0251228Y0179941D02*
X0239354Y0179941D01*
X0239354Y0180727D02*
X0251228Y0180727D01*
X0251228Y0181513D02*
X0239354Y0181513D01*
X0238609Y0182299D02*
X0251228Y0182299D01*
X0251228Y0183085D02*
X0237823Y0183085D01*
X0237038Y0185965D02*
X0233764Y0185965D01*
X0231448Y0188280D01*
X0231448Y0191555D01*
X0233764Y0193870D01*
X0237038Y0193870D01*
X0239354Y0191555D01*
X0239354Y0188280D01*
X0237038Y0185965D01*
X0237302Y0186229D02*
X0251228Y0186229D01*
X0251228Y0187015D02*
X0238088Y0187015D01*
X0238874Y0187800D02*
X0251228Y0187800D01*
X0251228Y0188586D02*
X0239354Y0188586D01*
X0239354Y0189372D02*
X0251228Y0189372D01*
X0251228Y0190158D02*
X0239354Y0190158D01*
X0239354Y0190944D02*
X0251228Y0190944D01*
X0251228Y0191730D02*
X0239178Y0191730D01*
X0238392Y0192516D02*
X0251228Y0192516D01*
X0251228Y0193302D02*
X0237606Y0193302D01*
X0237038Y0195965D02*
X0233764Y0195965D01*
X0231448Y0198280D01*
X0231448Y0201555D01*
X0233764Y0203870D01*
X0237038Y0203870D01*
X0239354Y0201555D01*
X0239354Y0198280D01*
X0237038Y0195965D01*
X0237519Y0196445D02*
X0251228Y0196445D01*
X0251228Y0195660D02*
X0231346Y0195660D01*
X0231346Y0196445D02*
X0233283Y0196445D01*
X0232497Y0197231D02*
X0231346Y0197231D01*
X0231346Y0198017D02*
X0231711Y0198017D01*
X0231448Y0198803D02*
X0231346Y0198803D01*
X0231346Y0199589D02*
X0231448Y0199589D01*
X0231448Y0200375D02*
X0231346Y0200375D01*
X0231346Y0201161D02*
X0231448Y0201161D01*
X0231346Y0201947D02*
X0231840Y0201947D01*
X0231346Y0202733D02*
X0232626Y0202733D01*
X0233412Y0203519D02*
X0231346Y0203519D01*
X0231346Y0204305D02*
X0251228Y0204305D01*
X0251228Y0205091D02*
X0231346Y0205091D01*
X0231346Y0205876D02*
X0233273Y0205876D01*
X0232487Y0206662D02*
X0231346Y0206662D01*
X0231346Y0207448D02*
X0231701Y0207448D01*
X0235007Y0207448D02*
X0235795Y0207448D01*
X0235795Y0206662D02*
X0235007Y0206662D01*
X0235007Y0205876D02*
X0235795Y0205876D01*
X0235795Y0205555D02*
X0237208Y0205555D01*
X0239763Y0208110D01*
X0239763Y0209524D01*
X0235795Y0209524D01*
X0235795Y0205555D01*
X0237529Y0205876D02*
X0251228Y0205876D01*
X0251228Y0206662D02*
X0238315Y0206662D01*
X0239101Y0207448D02*
X0251228Y0207448D01*
X0251228Y0208234D02*
X0239763Y0208234D01*
X0239763Y0209020D02*
X0251228Y0209020D01*
X0251228Y0209806D02*
X0235795Y0209806D01*
X0235795Y0209020D02*
X0235007Y0209020D01*
X0235007Y0208234D02*
X0235795Y0208234D01*
X0235795Y0210592D02*
X0235007Y0210592D01*
X0235007Y0211378D02*
X0235795Y0211378D01*
X0235795Y0212164D02*
X0235007Y0212164D01*
X0235007Y0212950D02*
X0235795Y0212950D01*
X0235795Y0213736D02*
X0235007Y0213736D01*
X0233050Y0213736D02*
X0231346Y0213736D01*
X0231346Y0214521D02*
X0272487Y0214521D01*
X0272487Y0213736D02*
X0237752Y0213736D01*
X0238538Y0212950D02*
X0272487Y0212950D01*
X0272487Y0212164D02*
X0239323Y0212164D01*
X0239763Y0211378D02*
X0272487Y0211378D01*
X0273865Y0210311D02*
X0274762Y0210311D01*
X0276031Y0211579D01*
X0276031Y0213373D01*
X0274762Y0214642D01*
X0273865Y0214642D01*
X0273865Y0220744D01*
X0280952Y0220744D01*
X0280952Y0198303D01*
X0273865Y0198303D01*
X0273865Y0204209D01*
X0294338Y0204209D01*
X0294338Y0198303D01*
X0273865Y0198303D01*
X0273865Y0210311D01*
X0273865Y0209806D02*
X0280952Y0209806D01*
X0280952Y0210592D02*
X0275043Y0210592D01*
X0275829Y0211378D02*
X0280952Y0211378D01*
X0280952Y0212164D02*
X0276031Y0212164D01*
X0276031Y0212950D02*
X0280952Y0212950D01*
X0280952Y0213736D02*
X0275668Y0213736D01*
X0274883Y0214521D02*
X0280952Y0214521D01*
X0280952Y0215307D02*
X0273865Y0215307D01*
X0273865Y0216093D02*
X0280952Y0216093D01*
X0280952Y0216879D02*
X0273865Y0216879D01*
X0273865Y0217665D02*
X0280952Y0217665D01*
X0280952Y0218451D02*
X0273865Y0218451D01*
X0273865Y0219237D02*
X0280952Y0219237D01*
X0280952Y0220023D02*
X0273865Y0220023D01*
X0272487Y0220023D02*
X0235795Y0220023D01*
X0235795Y0219524D02*
X0239763Y0219524D01*
X0239763Y0218110D01*
X0237208Y0215555D01*
X0235795Y0215555D01*
X0235795Y0219524D01*
X0235795Y0219237D02*
X0235007Y0219237D01*
X0235007Y0218451D02*
X0235795Y0218451D01*
X0235795Y0217665D02*
X0235007Y0217665D01*
X0235007Y0216879D02*
X0235795Y0216879D01*
X0235795Y0216093D02*
X0235007Y0216093D01*
X0233056Y0216093D02*
X0231346Y0216093D01*
X0231346Y0215307D02*
X0272487Y0215307D01*
X0272487Y0216093D02*
X0237746Y0216093D01*
X0238532Y0216879D02*
X0272487Y0216879D01*
X0272487Y0217665D02*
X0239318Y0217665D01*
X0239763Y0218451D02*
X0272487Y0218451D01*
X0272487Y0219237D02*
X0239763Y0219237D01*
X0239763Y0220809D02*
X0272487Y0220809D01*
X0272767Y0221595D02*
X0239763Y0221595D01*
X0235795Y0221595D02*
X0235007Y0221595D01*
X0235007Y0220809D02*
X0235795Y0220809D01*
X0232270Y0216879D02*
X0231346Y0216879D01*
X0231346Y0217665D02*
X0231484Y0217665D01*
X0231346Y0212950D02*
X0232264Y0212950D01*
X0231478Y0212164D02*
X0231346Y0212164D01*
X0239763Y0210592D02*
X0251528Y0210592D01*
X0251228Y0203519D02*
X0237389Y0203519D01*
X0238175Y0202733D02*
X0251228Y0202733D01*
X0251228Y0201947D02*
X0238961Y0201947D01*
X0239354Y0201161D02*
X0251228Y0201161D01*
X0251228Y0200375D02*
X0239354Y0200375D01*
X0239354Y0199589D02*
X0251228Y0199589D01*
X0251228Y0198803D02*
X0239354Y0198803D01*
X0239091Y0198017D02*
X0251228Y0198017D01*
X0251228Y0197231D02*
X0238305Y0197231D01*
X0233195Y0193302D02*
X0231346Y0193302D01*
X0231346Y0194088D02*
X0251228Y0194088D01*
X0251228Y0194874D02*
X0231346Y0194874D01*
X0231346Y0192516D02*
X0232409Y0192516D01*
X0231624Y0191730D02*
X0231346Y0191730D01*
X0231346Y0190944D02*
X0231448Y0190944D01*
X0231448Y0190158D02*
X0231346Y0190158D01*
X0231346Y0189372D02*
X0231448Y0189372D01*
X0231448Y0188586D02*
X0231346Y0188586D01*
X0231346Y0187800D02*
X0231928Y0187800D01*
X0231346Y0187015D02*
X0232714Y0187015D01*
X0233500Y0186229D02*
X0231346Y0186229D01*
X0231346Y0185443D02*
X0251228Y0185443D01*
X0251228Y0184657D02*
X0231346Y0184657D01*
X0231346Y0183871D02*
X0251228Y0183871D01*
X0260283Y0183871D02*
X0288236Y0183871D01*
X0288236Y0184657D02*
X0260283Y0184657D01*
X0260283Y0185443D02*
X0288236Y0185443D01*
X0288236Y0186229D02*
X0260283Y0186229D01*
X0260283Y0187015D02*
X0288236Y0187015D01*
X0288236Y0187800D02*
X0260283Y0187800D01*
X0260283Y0188586D02*
X0288236Y0188586D01*
X0288236Y0189372D02*
X0260283Y0189372D01*
X0260283Y0190158D02*
X0288236Y0190158D01*
X0288236Y0190944D02*
X0260283Y0190944D01*
X0260283Y0191730D02*
X0288236Y0191730D01*
X0288236Y0192516D02*
X0260283Y0192516D01*
X0260283Y0193302D02*
X0288236Y0193302D01*
X0288236Y0194088D02*
X0260283Y0194088D01*
X0260283Y0194874D02*
X0288236Y0194874D01*
X0288236Y0195660D02*
X0260283Y0195660D01*
X0260283Y0196445D02*
X0288236Y0196445D01*
X0289613Y0197516D02*
X0289611Y0197570D01*
X0289606Y0197623D01*
X0289597Y0197676D01*
X0289584Y0197728D01*
X0289568Y0197780D01*
X0289548Y0197830D01*
X0289525Y0197878D01*
X0289498Y0197925D01*
X0289469Y0197970D01*
X0289436Y0198013D01*
X0289401Y0198053D01*
X0289363Y0198091D01*
X0289323Y0198126D01*
X0289280Y0198159D01*
X0289235Y0198188D01*
X0289188Y0198215D01*
X0289140Y0198238D01*
X0289090Y0198258D01*
X0289038Y0198274D01*
X0288986Y0198287D01*
X0288933Y0198296D01*
X0288880Y0198301D01*
X0288826Y0198303D01*
X0289613Y0198017D02*
X0294338Y0198017D01*
X0294338Y0197231D02*
X0289613Y0197231D01*
X0289613Y0196445D02*
X0294338Y0196445D01*
X0294338Y0195660D02*
X0289613Y0195660D01*
X0289613Y0194874D02*
X0294338Y0194874D01*
X0294338Y0194088D02*
X0289613Y0194088D01*
X0289613Y0193302D02*
X0294338Y0193302D01*
X0294338Y0192516D02*
X0289613Y0192516D01*
X0289613Y0191730D02*
X0294338Y0191730D01*
X0294338Y0190944D02*
X0289613Y0190944D01*
X0289613Y0190158D02*
X0294338Y0190158D01*
X0294338Y0189372D02*
X0289613Y0189372D01*
X0289613Y0188586D02*
X0294338Y0188586D01*
X0294338Y0187800D02*
X0289613Y0187800D01*
X0289613Y0187015D02*
X0294338Y0187015D01*
X0294338Y0186229D02*
X0289613Y0186229D01*
X0289613Y0185443D02*
X0294338Y0185443D01*
X0294338Y0184657D02*
X0289613Y0184657D01*
X0289613Y0183871D02*
X0294338Y0183871D01*
X0294338Y0183085D02*
X0289613Y0183085D01*
X0289613Y0182299D02*
X0294338Y0182299D01*
X0294338Y0181513D02*
X0289613Y0181513D01*
X0289613Y0180727D02*
X0294338Y0180727D01*
X0294338Y0179941D02*
X0289613Y0179941D01*
X0289613Y0179155D02*
X0294338Y0179155D01*
X0294338Y0178370D02*
X0289613Y0178370D01*
X0289613Y0177584D02*
X0294338Y0177584D01*
X0301031Y0177584D01*
X0301031Y0177831D02*
X0301031Y0172319D01*
X0294338Y0172319D01*
X0294338Y0177831D01*
X0301031Y0177831D01*
X0301031Y0176798D02*
X0294338Y0176798D01*
X0289613Y0176798D01*
X0289613Y0176012D02*
X0294338Y0176012D01*
X0301031Y0176012D01*
X0301031Y0175226D02*
X0294338Y0175226D01*
X0289613Y0175226D01*
X0289613Y0174440D02*
X0294338Y0174440D01*
X0301031Y0174440D01*
X0301031Y0173654D02*
X0294338Y0173654D01*
X0289613Y0173654D01*
X0289613Y0172868D02*
X0294338Y0172868D01*
X0301031Y0172868D01*
X0302409Y0172868D02*
X0313100Y0172868D01*
X0313886Y0172082D02*
X0302409Y0172082D01*
X0301957Y0171296D02*
X0314672Y0171296D01*
X0315458Y0170510D02*
X0241402Y0170510D01*
X0242188Y0169724D02*
X0316243Y0169724D01*
X0312314Y0173654D02*
X0302409Y0173654D01*
X0302409Y0174440D02*
X0311528Y0174440D01*
X0310742Y0175226D02*
X0302409Y0175226D01*
X0302409Y0176012D02*
X0309956Y0176012D01*
X0309170Y0176798D02*
X0302409Y0176798D01*
X0302409Y0177584D02*
X0308384Y0177584D01*
X0307598Y0178370D02*
X0302409Y0178370D01*
X0301655Y0179155D02*
X0306812Y0179155D01*
X0306027Y0179941D02*
X0295716Y0179941D01*
X0295716Y0180727D02*
X0305241Y0180727D01*
X0304455Y0181513D02*
X0295716Y0181513D01*
X0295716Y0182299D02*
X0303669Y0182299D01*
X0302883Y0183085D02*
X0295716Y0183085D01*
X0295716Y0183871D02*
X0302097Y0183871D01*
X0301311Y0184657D02*
X0295716Y0184657D01*
X0295716Y0185443D02*
X0300525Y0185443D01*
X0299739Y0186229D02*
X0295716Y0186229D01*
X0298316Y0187015D02*
X0298953Y0187015D01*
X0288236Y0183085D02*
X0260283Y0183085D01*
X0260283Y0182299D02*
X0284720Y0182299D01*
X0284780Y0182358D02*
X0283511Y0181090D01*
X0283511Y0179976D01*
X0278413Y0174878D01*
X0260589Y0174878D01*
X0259802Y0175665D01*
X0258008Y0175665D01*
X0256739Y0174397D01*
X0256739Y0172603D01*
X0258008Y0171335D01*
X0259802Y0171335D01*
X0260589Y0172122D01*
X0279554Y0172122D01*
X0285460Y0178028D01*
X0286573Y0178028D01*
X0287842Y0179296D01*
X0287842Y0181090D01*
X0286573Y0182358D01*
X0284780Y0182358D01*
X0283934Y0181513D02*
X0260283Y0181513D01*
X0260283Y0180727D02*
X0283511Y0180727D01*
X0283476Y0179941D02*
X0260283Y0179941D01*
X0260241Y0175226D02*
X0278761Y0175226D01*
X0279547Y0176012D02*
X0237085Y0176012D01*
X0237254Y0173654D02*
X0256739Y0173654D01*
X0256739Y0172868D02*
X0238040Y0172868D01*
X0238826Y0172082D02*
X0257260Y0172082D01*
X0258905Y0173500D02*
X0278984Y0173500D01*
X0285676Y0180193D01*
X0287842Y0179941D02*
X0288236Y0179941D01*
X0288236Y0179155D02*
X0287701Y0179155D01*
X0288236Y0178370D02*
X0286915Y0178370D01*
X0288236Y0177584D02*
X0285016Y0177584D01*
X0284230Y0176798D02*
X0288236Y0176798D01*
X0288236Y0176012D02*
X0283444Y0176012D01*
X0282658Y0175226D02*
X0288236Y0175226D01*
X0288236Y0174440D02*
X0281872Y0174440D01*
X0281086Y0173654D02*
X0288236Y0173654D01*
X0288236Y0172868D02*
X0280300Y0172868D01*
X0288236Y0172082D02*
X0260549Y0172082D01*
X0257568Y0175226D02*
X0231346Y0175226D01*
X0231346Y0176012D02*
X0233716Y0176012D01*
X0232930Y0176798D02*
X0231346Y0176798D01*
X0231346Y0177584D02*
X0232145Y0177584D01*
X0231448Y0178370D02*
X0231346Y0178370D01*
X0231346Y0179155D02*
X0231448Y0179155D01*
X0231448Y0179941D02*
X0231346Y0179941D01*
X0231346Y0180727D02*
X0231448Y0180727D01*
X0231448Y0181513D02*
X0231346Y0181513D01*
X0231346Y0182299D02*
X0232193Y0182299D01*
X0232978Y0183085D02*
X0231346Y0183085D01*
X0231346Y0174440D02*
X0256782Y0174440D01*
X0246904Y0165009D02*
X0281997Y0165009D01*
X0283844Y0165009D02*
X0349456Y0165009D01*
X0349456Y0164223D02*
X0284630Y0164223D01*
X0282921Y0162870D02*
X0247094Y0162870D01*
X0240007Y0169957D01*
X0235440Y0169957D01*
X0235401Y0169917D01*
X0231448Y0169724D02*
X0231346Y0169724D01*
X0231346Y0168939D02*
X0231448Y0168939D01*
X0231346Y0168153D02*
X0231576Y0168153D01*
X0231346Y0167367D02*
X0232361Y0167367D01*
X0233147Y0166581D02*
X0231346Y0166581D01*
X0231346Y0165795D02*
X0242220Y0165795D01*
X0241434Y0166581D02*
X0237654Y0166581D01*
X0238440Y0167367D02*
X0240648Y0167367D01*
X0239862Y0168153D02*
X0239226Y0168153D01*
X0240616Y0171296D02*
X0288687Y0171296D01*
X0289613Y0172319D02*
X0289613Y0204209D01*
X0294338Y0204209D01*
X0294338Y0172319D01*
X0289613Y0172319D01*
X0295125Y0177831D02*
X0295071Y0177833D01*
X0295018Y0177838D01*
X0294965Y0177847D01*
X0294913Y0177860D01*
X0294861Y0177876D01*
X0294811Y0177896D01*
X0294763Y0177919D01*
X0294716Y0177946D01*
X0294671Y0177975D01*
X0294628Y0178008D01*
X0294588Y0178043D01*
X0294550Y0178081D01*
X0294515Y0178121D01*
X0294482Y0178164D01*
X0294453Y0178209D01*
X0294426Y0178256D01*
X0294403Y0178304D01*
X0294383Y0178354D01*
X0294367Y0178406D01*
X0294354Y0178458D01*
X0294345Y0178511D01*
X0294340Y0178564D01*
X0294338Y0178618D01*
X0288236Y0180727D02*
X0287842Y0180727D01*
X0288236Y0181513D02*
X0287418Y0181513D01*
X0286633Y0182299D02*
X0288236Y0182299D01*
X0289613Y0198803D02*
X0294338Y0198803D01*
X0273865Y0198803D01*
X0280952Y0198803D01*
X0280952Y0199589D02*
X0273865Y0199589D01*
X0294338Y0199589D01*
X0289613Y0199589D01*
X0289613Y0200375D02*
X0294338Y0200375D01*
X0273865Y0200375D01*
X0280952Y0200375D01*
X0280952Y0201161D02*
X0273865Y0201161D01*
X0294338Y0201161D01*
X0289613Y0201161D01*
X0289613Y0201947D02*
X0294338Y0201947D01*
X0273865Y0201947D01*
X0280952Y0201947D01*
X0280952Y0202733D02*
X0273865Y0202733D01*
X0294338Y0202733D01*
X0289613Y0202733D01*
X0289613Y0203519D02*
X0294338Y0203519D01*
X0273865Y0203519D01*
X0280952Y0203519D01*
X0280952Y0204305D02*
X0273865Y0204305D01*
X0273078Y0204208D02*
X0273132Y0204206D01*
X0273185Y0204201D01*
X0273238Y0204192D01*
X0273290Y0204179D01*
X0273342Y0204163D01*
X0273392Y0204143D01*
X0273440Y0204120D01*
X0273487Y0204093D01*
X0273532Y0204064D01*
X0273575Y0204031D01*
X0273615Y0203996D01*
X0273653Y0203958D01*
X0273688Y0203918D01*
X0273721Y0203875D01*
X0273750Y0203830D01*
X0273777Y0203783D01*
X0273800Y0203735D01*
X0273820Y0203685D01*
X0273836Y0203633D01*
X0273849Y0203581D01*
X0273858Y0203528D01*
X0273863Y0203475D01*
X0273865Y0203421D01*
X0272487Y0202733D02*
X0260283Y0202733D01*
X0260283Y0201947D02*
X0272487Y0201947D01*
X0272487Y0201161D02*
X0260283Y0201161D01*
X0260283Y0200375D02*
X0272487Y0200375D01*
X0272487Y0199589D02*
X0260283Y0199589D01*
X0260283Y0198803D02*
X0272487Y0198803D01*
X0272487Y0198017D02*
X0260283Y0198017D01*
X0260283Y0197231D02*
X0272988Y0197231D01*
X0259692Y0204208D02*
X0259638Y0204206D01*
X0259585Y0204201D01*
X0259532Y0204192D01*
X0259480Y0204179D01*
X0259428Y0204163D01*
X0259378Y0204143D01*
X0259330Y0204120D01*
X0259283Y0204093D01*
X0259238Y0204064D01*
X0259195Y0204031D01*
X0259155Y0203996D01*
X0259117Y0203958D01*
X0259082Y0203918D01*
X0259049Y0203875D01*
X0259020Y0203830D01*
X0258993Y0203783D01*
X0258970Y0203735D01*
X0258950Y0203685D01*
X0258934Y0203633D01*
X0258921Y0203581D01*
X0258912Y0203528D01*
X0258907Y0203475D01*
X0258905Y0203421D01*
X0287251Y0215232D02*
X0287251Y0218382D01*
X0295125Y0218382D01*
X0295125Y0215232D01*
X0287251Y0215232D01*
X0287251Y0215307D02*
X0295125Y0215307D01*
X0295125Y0216093D02*
X0287251Y0216093D01*
X0287251Y0216879D02*
X0295125Y0216879D01*
X0295125Y0217665D02*
X0287251Y0217665D01*
X0293550Y0217665D02*
X0296700Y0217665D01*
X0296700Y0216879D02*
X0293550Y0216879D01*
X0293550Y0216807D02*
X0296700Y0216807D01*
X0296700Y0208933D01*
X0293550Y0208933D01*
X0293550Y0216807D01*
X0293550Y0224681D01*
X0296700Y0224681D01*
X0296700Y0216807D01*
X0293550Y0216807D01*
X0293550Y0216093D02*
X0296700Y0216093D01*
X0296700Y0215307D02*
X0293550Y0215307D01*
X0293550Y0214521D02*
X0296700Y0214521D01*
X0296700Y0213736D02*
X0293550Y0213736D01*
X0293550Y0212950D02*
X0296700Y0212950D01*
X0296700Y0212164D02*
X0293550Y0212164D01*
X0293550Y0211378D02*
X0296700Y0211378D01*
X0296700Y0210592D02*
X0293550Y0210592D01*
X0293550Y0209806D02*
X0296700Y0209806D01*
X0296700Y0209020D02*
X0293550Y0209020D01*
X0295405Y0205091D02*
X0299259Y0205091D01*
X0299259Y0204305D02*
X0295716Y0204305D01*
X0295716Y0203519D02*
X0299259Y0203519D01*
X0299259Y0202733D02*
X0295716Y0202733D01*
X0295716Y0201947D02*
X0299259Y0201947D01*
X0299259Y0201161D02*
X0295716Y0201161D01*
X0295716Y0200375D02*
X0299259Y0200375D01*
X0299259Y0199589D02*
X0295716Y0199589D01*
X0295716Y0198803D02*
X0299369Y0198803D01*
X0300637Y0199589D02*
X0306149Y0199589D01*
X0306149Y0200375D02*
X0300637Y0200375D01*
X0300637Y0201161D02*
X0306149Y0201161D01*
X0306149Y0201947D02*
X0300637Y0201947D01*
X0300637Y0202733D02*
X0306149Y0202733D01*
X0307527Y0202733D02*
X0335795Y0202733D01*
X0335009Y0201947D02*
X0307527Y0201947D01*
X0307527Y0201161D02*
X0334223Y0201161D01*
X0333437Y0200375D02*
X0307527Y0200375D01*
X0307527Y0203519D02*
X0315194Y0203519D01*
X0315383Y0206662D02*
X0307527Y0206662D01*
X0296700Y0218451D02*
X0293550Y0218451D01*
X0293550Y0219237D02*
X0296700Y0219237D01*
X0296700Y0220023D02*
X0293550Y0220023D01*
X0293550Y0220809D02*
X0296700Y0220809D01*
X0296700Y0221595D02*
X0293550Y0221595D01*
X0293550Y0222381D02*
X0296700Y0222381D01*
X0296700Y0223167D02*
X0293550Y0223167D01*
X0293550Y0223952D02*
X0296700Y0223952D01*
X0299259Y0226310D02*
X0237384Y0226310D01*
X0238170Y0227096D02*
X0299259Y0227096D01*
X0299259Y0227882D02*
X0238956Y0227882D01*
X0239354Y0228668D02*
X0299259Y0228668D01*
X0299259Y0229454D02*
X0239354Y0229454D01*
X0237525Y0233383D02*
X0343277Y0233383D01*
X0343764Y0235965D02*
X0347038Y0235965D01*
X0349354Y0238280D01*
X0349354Y0241555D01*
X0347038Y0243870D01*
X0343764Y0243870D01*
X0341448Y0241555D01*
X0341448Y0238280D01*
X0343764Y0235965D01*
X0343201Y0236527D02*
X0237601Y0236527D01*
X0237038Y0235965D02*
X0233764Y0235965D01*
X0231448Y0238280D01*
X0231448Y0241555D01*
X0233764Y0243870D01*
X0237038Y0243870D01*
X0239354Y0241555D01*
X0239354Y0238280D01*
X0237038Y0235965D01*
X0238387Y0237313D02*
X0342415Y0237313D01*
X0341629Y0238099D02*
X0239172Y0238099D01*
X0239354Y0238885D02*
X0341448Y0238885D01*
X0341448Y0239671D02*
X0239354Y0239671D01*
X0239354Y0240457D02*
X0341448Y0240457D01*
X0341448Y0241243D02*
X0239354Y0241243D01*
X0238880Y0242028D02*
X0341922Y0242028D01*
X0342708Y0242814D02*
X0238094Y0242814D01*
X0237308Y0243600D02*
X0343494Y0243600D01*
X0343764Y0245965D02*
X0347038Y0245965D01*
X0349354Y0248280D01*
X0349354Y0251555D01*
X0347038Y0253870D01*
X0343764Y0253870D01*
X0341448Y0251555D01*
X0341448Y0248280D01*
X0343764Y0245965D01*
X0342984Y0246744D02*
X0237817Y0246744D01*
X0237038Y0245965D02*
X0233764Y0245965D01*
X0231448Y0248280D01*
X0231448Y0251555D01*
X0233764Y0253870D01*
X0237038Y0253870D01*
X0239354Y0251555D01*
X0239354Y0248280D01*
X0237038Y0245965D01*
X0238603Y0247530D02*
X0342198Y0247530D01*
X0341448Y0248316D02*
X0239354Y0248316D01*
X0239354Y0249102D02*
X0341448Y0249102D01*
X0341448Y0249888D02*
X0239354Y0249888D01*
X0239354Y0250673D02*
X0341448Y0250673D01*
X0341448Y0251459D02*
X0239354Y0251459D01*
X0238663Y0252245D02*
X0342139Y0252245D01*
X0342925Y0253031D02*
X0237877Y0253031D01*
X0237091Y0253817D02*
X0343711Y0253817D01*
X0347091Y0253817D02*
X0349456Y0253817D01*
X0349456Y0253031D02*
X0347877Y0253031D01*
X0348663Y0252245D02*
X0349456Y0252245D01*
X0349456Y0251459D02*
X0349354Y0251459D01*
X0349354Y0250673D02*
X0349456Y0250673D01*
X0349456Y0249888D02*
X0349354Y0249888D01*
X0349354Y0249102D02*
X0349456Y0249102D01*
X0349456Y0248316D02*
X0349354Y0248316D01*
X0349456Y0247530D02*
X0348603Y0247530D01*
X0347817Y0246744D02*
X0349456Y0246744D01*
X0349456Y0245958D02*
X0231346Y0245958D01*
X0231346Y0245172D02*
X0349456Y0245172D01*
X0349456Y0244386D02*
X0231346Y0244386D01*
X0231346Y0243600D02*
X0233494Y0243600D01*
X0232708Y0242814D02*
X0231346Y0242814D01*
X0231346Y0242028D02*
X0231922Y0242028D01*
X0231448Y0241243D02*
X0231346Y0241243D01*
X0231346Y0240457D02*
X0231448Y0240457D01*
X0231448Y0239671D02*
X0231346Y0239671D01*
X0231346Y0238885D02*
X0231448Y0238885D01*
X0231346Y0238099D02*
X0231629Y0238099D01*
X0231346Y0237313D02*
X0232415Y0237313D01*
X0233201Y0236527D02*
X0231346Y0236527D01*
X0231346Y0235741D02*
X0349456Y0235741D01*
X0349456Y0234955D02*
X0231346Y0234955D01*
X0231346Y0246744D02*
X0232984Y0246744D01*
X0232198Y0247530D02*
X0231346Y0247530D01*
X0231346Y0248316D02*
X0231448Y0248316D01*
X0231448Y0249102D02*
X0231346Y0249102D01*
X0231346Y0249888D02*
X0231448Y0249888D01*
X0231448Y0250673D02*
X0231346Y0250673D01*
X0231346Y0251459D02*
X0231448Y0251459D01*
X0231346Y0252245D02*
X0232139Y0252245D01*
X0232925Y0253031D02*
X0231346Y0253031D01*
X0231346Y0253817D02*
X0233711Y0253817D01*
X0231346Y0254603D02*
X0349456Y0254603D01*
X0349456Y0255389D02*
X0231346Y0255389D01*
X0231346Y0256175D02*
X0349456Y0256175D01*
X0349456Y0256961D02*
X0231346Y0256961D01*
X0231346Y0257747D02*
X0349456Y0257747D01*
X0349456Y0243600D02*
X0347308Y0243600D01*
X0348094Y0242814D02*
X0349456Y0242814D01*
X0349456Y0242028D02*
X0348880Y0242028D01*
X0349354Y0241243D02*
X0349456Y0241243D01*
X0349456Y0240457D02*
X0349354Y0240457D01*
X0349354Y0239671D02*
X0349456Y0239671D01*
X0349456Y0238885D02*
X0349354Y0238885D01*
X0349456Y0238099D02*
X0349172Y0238099D01*
X0349456Y0237313D02*
X0348387Y0237313D01*
X0347601Y0236527D02*
X0349456Y0236527D01*
X0340795Y0215311D02*
X0340795Y0203421D01*
X0321503Y0184130D01*
X0314417Y0184130D01*
X0313236Y0182949D01*
X0314862Y0181513D02*
X0328816Y0181513D01*
X0330726Y0181513D02*
X0341448Y0181513D01*
X0341448Y0180727D02*
X0331511Y0180727D01*
X0331936Y0179941D02*
X0341448Y0179941D01*
X0341448Y0179155D02*
X0331936Y0179155D01*
X0331797Y0178370D02*
X0341448Y0178370D01*
X0342145Y0177584D02*
X0331011Y0177584D01*
X0322407Y0183085D02*
X0342978Y0183085D01*
X0342193Y0182299D02*
X0315401Y0182299D01*
X0341448Y0168939D02*
X0242974Y0168939D01*
X0243760Y0168153D02*
X0341576Y0168153D01*
X0342361Y0167367D02*
X0244546Y0167367D01*
X0243006Y0165009D02*
X0231346Y0165009D01*
X0231346Y0164223D02*
X0243792Y0164223D01*
X0244578Y0163437D02*
X0237471Y0163437D01*
X0238257Y0162651D02*
X0245364Y0162651D01*
X0246150Y0161865D02*
X0239043Y0161865D01*
X0240597Y0161079D02*
X0281649Y0161079D01*
X0305461Y0156364D02*
X0335489Y0156364D01*
X0334703Y0155578D02*
X0231346Y0155578D01*
X0231346Y0154792D02*
X0333917Y0154792D01*
X0333132Y0154006D02*
X0231346Y0154006D01*
X0231346Y0153220D02*
X0233114Y0153220D01*
X0232328Y0152434D02*
X0231346Y0152434D01*
X0231346Y0151648D02*
X0231542Y0151648D01*
X0231448Y0150863D02*
X0231346Y0150863D01*
X0231346Y0150077D02*
X0231448Y0150077D01*
X0231448Y0149291D02*
X0231346Y0149291D01*
X0231346Y0148505D02*
X0231448Y0148505D01*
X0231346Y0147719D02*
X0232009Y0147719D01*
X0231346Y0146933D02*
X0232795Y0146933D01*
X0233581Y0146147D02*
X0231346Y0146147D01*
X0231346Y0143789D02*
X0233683Y0143789D01*
X0232897Y0143003D02*
X0231346Y0143003D01*
X0231346Y0142218D02*
X0232111Y0142218D01*
X0231448Y0141432D02*
X0231346Y0141432D01*
X0231346Y0140646D02*
X0231448Y0140646D01*
X0231448Y0139860D02*
X0231346Y0139860D01*
X0231346Y0139074D02*
X0231448Y0139074D01*
X0231448Y0138288D02*
X0231346Y0138288D01*
X0231346Y0137502D02*
X0232226Y0137502D01*
X0233012Y0136716D02*
X0231346Y0136716D01*
X0237553Y0123356D02*
X0343249Y0123356D01*
X0343764Y0123870D02*
X0341448Y0121555D01*
X0341448Y0118280D01*
X0343764Y0115965D01*
X0347038Y0115965D01*
X0349354Y0118280D01*
X0349354Y0121555D01*
X0347038Y0123870D01*
X0343764Y0123870D01*
X0342463Y0122570D02*
X0238339Y0122570D01*
X0239124Y0121784D02*
X0341677Y0121784D01*
X0341448Y0120998D02*
X0239354Y0120998D01*
X0239354Y0120212D02*
X0341448Y0120212D01*
X0341448Y0119426D02*
X0239354Y0119426D01*
X0239354Y0118640D02*
X0341448Y0118640D01*
X0341874Y0117854D02*
X0238928Y0117854D01*
X0238142Y0117068D02*
X0342660Y0117068D01*
X0343446Y0116282D02*
X0237356Y0116282D01*
X0248687Y0113925D02*
X0332114Y0113925D01*
X0330232Y0113139D02*
X0250570Y0113139D01*
X0251932Y0112353D02*
X0328870Y0112353D01*
X0327820Y0111567D02*
X0252982Y0111567D01*
X0253802Y0110781D02*
X0327000Y0110781D01*
X0326274Y0109995D02*
X0254528Y0109995D01*
X0255116Y0109209D02*
X0325685Y0109209D01*
X0325181Y0108423D02*
X0255620Y0108423D01*
X0256050Y0107637D02*
X0324752Y0107637D01*
X0324402Y0106851D02*
X0256399Y0106851D01*
X0256692Y0106066D02*
X0324109Y0106066D01*
X0323878Y0105280D02*
X0321327Y0105280D01*
X0322113Y0104494D02*
X0323707Y0104494D01*
X0323576Y0103708D02*
X0322899Y0103708D01*
X0318747Y0103708D02*
X0317960Y0103708D01*
X0317960Y0104494D02*
X0318747Y0104494D01*
X0318747Y0105280D02*
X0317960Y0105280D01*
X0317960Y0105915D02*
X0316016Y0105915D01*
X0312710Y0102609D01*
X0312710Y0100665D01*
X0317960Y0100665D01*
X0317960Y0105915D01*
X0315380Y0105280D02*
X0256923Y0105280D01*
X0257094Y0104494D02*
X0314594Y0104494D01*
X0313808Y0103708D02*
X0257226Y0103708D01*
X0257282Y0102922D02*
X0313022Y0102922D01*
X0312710Y0102136D02*
X0257338Y0102136D01*
X0257330Y0101350D02*
X0312710Y0101350D01*
X0312710Y0099878D02*
X0312710Y0097934D01*
X0316016Y0094628D01*
X0317960Y0094628D01*
X0317960Y0099878D01*
X0312710Y0099878D01*
X0312710Y0099778D02*
X0257330Y0099778D01*
X0257330Y0098992D02*
X0312710Y0098992D01*
X0312710Y0098206D02*
X0257330Y0098206D01*
X0257330Y0097420D02*
X0313223Y0097420D01*
X0314009Y0096635D02*
X0257330Y0096635D01*
X0257330Y0095849D02*
X0314795Y0095849D01*
X0315581Y0095063D02*
X0257330Y0095063D01*
X0257330Y0094277D02*
X0284019Y0094277D01*
X0283626Y0093491D02*
X0264153Y0093491D01*
X0265462Y0092705D02*
X0266053Y0092705D01*
X0269087Y0092705D02*
X0269155Y0092705D01*
X0272712Y0092705D02*
X0273303Y0092705D01*
X0276861Y0092705D02*
X0276928Y0092705D01*
X0279962Y0092705D02*
X0280030Y0092705D01*
X0283588Y0092705D02*
X0283626Y0092705D01*
X0286002Y0094277D02*
X0323472Y0094277D01*
X0323472Y0095063D02*
X0321126Y0095063D01*
X0320789Y0094172D02*
X0320789Y0094172D01*
X0320689Y0094172D02*
X0320689Y0094172D01*
X0321835Y0094172D02*
X0321835Y0094172D01*
X0322516Y0093491D02*
X0323472Y0093491D01*
X0323169Y0092838D02*
X0323169Y0092838D01*
X0323169Y0092838D01*
X0323169Y0092705D02*
X0323472Y0092705D01*
X0323472Y0091919D02*
X0323169Y0091919D01*
X0323169Y0091133D02*
X0323472Y0091133D01*
X0323472Y0090347D02*
X0323169Y0090347D01*
X0323133Y0089561D02*
X0323472Y0089561D01*
X0323472Y0088775D02*
X0322347Y0088775D01*
X0318961Y0093491D02*
X0318891Y0093491D01*
X0318210Y0094172D02*
X0318210Y0094172D01*
X0317960Y0095063D02*
X0318747Y0095063D01*
X0318747Y0095849D02*
X0317960Y0095849D01*
X0317960Y0096635D02*
X0318747Y0096635D01*
X0318747Y0097420D02*
X0317960Y0097420D01*
X0317960Y0098206D02*
X0318747Y0098206D01*
X0318747Y0098992D02*
X0317960Y0098992D01*
X0317960Y0099778D02*
X0318747Y0099778D01*
X0317960Y0100564D02*
X0257330Y0100564D01*
X0257330Y0093491D02*
X0261644Y0093491D01*
X0261514Y0092705D02*
X0257330Y0092705D01*
X0257330Y0091919D02*
X0261514Y0091919D01*
X0261514Y0091133D02*
X0257330Y0091133D01*
X0257330Y0090347D02*
X0261514Y0090347D01*
X0261514Y0089561D02*
X0257330Y0089561D01*
X0257330Y0088775D02*
X0261813Y0088775D01*
X0286528Y0092705D02*
X0287775Y0092705D01*
X0287775Y0091919D02*
X0286918Y0091919D01*
X0286883Y0091133D02*
X0287775Y0091133D01*
X0287905Y0093491D02*
X0286395Y0093491D01*
X0290413Y0093491D02*
X0294108Y0093491D01*
X0293322Y0092705D02*
X0290543Y0092705D01*
X0290543Y0091919D02*
X0292932Y0091919D01*
X0292932Y0091133D02*
X0290543Y0091133D01*
X0290543Y0090347D02*
X0292932Y0090347D01*
X0292932Y0089561D02*
X0290543Y0089561D01*
X0290244Y0088775D02*
X0293231Y0088775D01*
X0296617Y0093491D02*
X0297210Y0093491D01*
X0297080Y0093361D02*
X0297080Y0093361D01*
X0298938Y0094172D02*
X0298938Y0094172D01*
X0299038Y0094172D02*
X0299038Y0094172D01*
X0300084Y0094172D02*
X0300084Y0094172D01*
X0300766Y0093491D02*
X0303937Y0093491D01*
X0303807Y0092705D02*
X0301419Y0092705D01*
X0301419Y0092838D02*
X0301419Y0092838D01*
X0301419Y0092838D01*
X0309913Y0094172D02*
X0309913Y0094172D01*
X0312164Y0093491D02*
X0315336Y0093491D01*
X0315206Y0093361D02*
X0315206Y0093361D01*
X0314683Y0092705D02*
X0312294Y0092705D01*
X0317063Y0094172D02*
X0317063Y0094172D01*
X0317164Y0094172D02*
X0317164Y0094172D01*
X0321912Y0095849D02*
X0323472Y0095849D01*
X0323472Y0096635D02*
X0322698Y0096635D01*
X0318747Y0101350D02*
X0317960Y0101350D01*
X0317960Y0102136D02*
X0318747Y0102136D01*
X0318747Y0102922D02*
X0317960Y0102922D01*
X0347356Y0116282D02*
X0349456Y0116282D01*
X0349456Y0117068D02*
X0348142Y0117068D01*
X0348928Y0117854D02*
X0349456Y0117854D01*
X0349456Y0118640D02*
X0349354Y0118640D01*
X0349354Y0119426D02*
X0349456Y0119426D01*
X0349456Y0120212D02*
X0349354Y0120212D01*
X0349354Y0120998D02*
X0349456Y0120998D01*
X0349456Y0121784D02*
X0349124Y0121784D01*
X0349456Y0122570D02*
X0348339Y0122570D01*
X0347553Y0123356D02*
X0349456Y0123356D01*
X0349456Y0145361D02*
X0328384Y0145361D01*
X0337029Y0154006D02*
X0349456Y0154006D01*
X0349456Y0153220D02*
X0347688Y0153220D01*
X0348474Y0152434D02*
X0349456Y0152434D01*
X0349456Y0151648D02*
X0349260Y0151648D01*
X0349354Y0150863D02*
X0349456Y0150863D01*
X0349456Y0150077D02*
X0349354Y0150077D01*
X0349354Y0149291D02*
X0349456Y0149291D01*
X0349456Y0148505D02*
X0349354Y0148505D01*
X0349456Y0147719D02*
X0348792Y0147719D01*
X0349456Y0146933D02*
X0348007Y0146933D01*
X0347221Y0146147D02*
X0349456Y0146147D01*
X0349456Y0154792D02*
X0337815Y0154792D01*
X0338601Y0155578D02*
X0349456Y0155578D01*
X0349456Y0156364D02*
X0347438Y0156364D01*
X0348223Y0157150D02*
X0349456Y0157150D01*
X0349456Y0157936D02*
X0349009Y0157936D01*
X0349354Y0158722D02*
X0349456Y0158722D01*
X0349456Y0159508D02*
X0349354Y0159508D01*
X0349354Y0160294D02*
X0349456Y0160294D01*
X0349456Y0161079D02*
X0349354Y0161079D01*
X0349456Y0161865D02*
X0349043Y0161865D01*
X0349456Y0162651D02*
X0348257Y0162651D01*
X0347471Y0163437D02*
X0349456Y0163437D01*
X0345401Y0159917D02*
X0345322Y0159917D01*
X0345125Y0159720D01*
X0340795Y0159720D01*
X0338633Y0159508D02*
X0305881Y0159508D01*
X0306346Y0158722D02*
X0337847Y0158722D01*
X0337061Y0157936D02*
X0306346Y0157936D01*
X0306247Y0157150D02*
X0336275Y0157150D01*
X0347302Y0186229D02*
X0349456Y0186229D01*
X0349456Y0187015D02*
X0348088Y0187015D01*
X0348874Y0187800D02*
X0349456Y0187800D01*
X0349456Y0188586D02*
X0349354Y0188586D01*
X0349354Y0189372D02*
X0349456Y0189372D01*
X0349456Y0190158D02*
X0349354Y0190158D01*
X0349354Y0190944D02*
X0349456Y0190944D01*
X0349456Y0191730D02*
X0349178Y0191730D01*
X0349456Y0192516D02*
X0348392Y0192516D01*
X0347606Y0193302D02*
X0349456Y0193302D01*
X0233548Y0173654D02*
X0231346Y0173654D01*
X0231346Y0172868D02*
X0232762Y0172868D01*
X0231976Y0172082D02*
X0231346Y0172082D01*
X0231346Y0171296D02*
X0231448Y0171296D01*
X0231448Y0170510D02*
X0231346Y0170510D01*
X0231346Y0163437D02*
X0233331Y0163437D01*
X0232545Y0162651D02*
X0231346Y0162651D01*
X0231346Y0161865D02*
X0231759Y0161865D01*
X0231448Y0161079D02*
X0231346Y0161079D01*
X0231346Y0160294D02*
X0231448Y0160294D01*
X0231448Y0159508D02*
X0231346Y0159508D01*
X0231346Y0158722D02*
X0231448Y0158722D01*
X0231346Y0157936D02*
X0231792Y0157936D01*
X0231346Y0157150D02*
X0232578Y0157150D01*
X0233364Y0156364D02*
X0231346Y0156364D01*
X0183984Y0159917D02*
X0183905Y0159917D01*
X0183708Y0159720D01*
X0179377Y0159720D01*
D14*
X0180952Y0164839D03*
X0186464Y0164839D03*
X0187251Y0173500D03*
X0177802Y0177043D03*
X0175440Y0174681D03*
X0168354Y0179406D03*
X0173865Y0182555D03*
X0181346Y0184917D03*
X0185676Y0184917D03*
X0186464Y0194760D03*
X0186464Y0204996D03*
X0186464Y0214839D03*
X0186464Y0225075D03*
X0186464Y0234917D03*
X0180952Y0233736D03*
X0176228Y0239642D03*
X0170716Y0243185D03*
X0165598Y0240035D03*
X0161661Y0240429D03*
X0158905Y0242398D03*
X0155361Y0243185D03*
X0152999Y0240823D03*
X0150637Y0238461D03*
X0150637Y0234130D03*
X0147094Y0230193D03*
X0142763Y0229012D03*
X0137645Y0234917D03*
X0138039Y0238461D03*
X0138039Y0242004D03*
X0142369Y0240429D03*
X0148275Y0246335D03*
X0152606Y0249484D03*
X0159298Y0249484D03*
X0157330Y0257358D03*
X0149456Y0257358D03*
X0143550Y0257358D03*
X0138039Y0257358D03*
X0130952Y0257358D03*
X0126228Y0257358D03*
X0126621Y0253421D03*
X0130952Y0249484D03*
X0130952Y0243972D03*
X0126621Y0240035D03*
X0125047Y0237280D03*
X0131346Y0236492D03*
X0138039Y0249878D03*
X0120716Y0257358D03*
X0114023Y0257358D03*
X0106936Y0257358D03*
X0099062Y0257358D03*
X0091188Y0257358D03*
X0083314Y0257358D03*
X0077015Y0253815D03*
X0075440Y0257358D03*
X0070716Y0257358D03*
X0070716Y0254602D03*
X0071503Y0245154D03*
X0071503Y0234917D03*
X0077409Y0225862D03*
X0071503Y0225075D03*
X0071503Y0214839D03*
X0086858Y0213657D03*
X0092369Y0213657D03*
X0092763Y0208539D03*
X0092763Y0205783D03*
X0088826Y0199484D03*
X0082527Y0192791D03*
X0082527Y0189642D03*
X0070716Y0183736D03*
X0071503Y0175075D03*
X0071503Y0164839D03*
X0071503Y0154996D03*
X0071503Y0144760D03*
X0071503Y0134917D03*
X0071503Y0125075D03*
X0070716Y0115232D03*
X0077409Y0115232D03*
X0086070Y0115232D03*
X0093944Y0115232D03*
X0101818Y0115232D03*
X0110480Y0115232D03*
X0118354Y0115232D03*
X0126228Y0115232D03*
X0134102Y0115232D03*
X0142763Y0115232D03*
X0150637Y0115232D03*
X0158511Y0115232D03*
X0166779Y0115232D03*
X0175440Y0115232D03*
X0180952Y0115232D03*
X0187251Y0115232D03*
X0186464Y0124681D03*
X0186464Y0134917D03*
X0186464Y0144760D03*
X0186464Y0154602D03*
X0172291Y0164445D03*
X0164023Y0163264D03*
X0156936Y0156177D03*
X0160086Y0152240D03*
X0167960Y0145154D03*
X0158511Y0138854D03*
X0142763Y0158146D03*
X0135283Y0153028D03*
X0121503Y0153028D03*
X0121503Y0162870D03*
X0120322Y0173106D03*
X0120322Y0179406D03*
X0124259Y0180193D03*
X0125834Y0183736D03*
X0120322Y0183736D03*
X0135283Y0188461D03*
X0136464Y0182161D03*
X0138432Y0176256D03*
X0138432Y0173500D03*
X0150243Y0172713D03*
X0150637Y0179406D03*
X0151818Y0182949D03*
X0149456Y0184917D03*
X0151818Y0186886D03*
X0146306Y0183343D03*
X0143157Y0186492D03*
X0143550Y0192398D03*
X0135283Y0194760D03*
X0140401Y0200665D03*
X0143944Y0204996D03*
X0155361Y0204996D03*
X0138039Y0216807D03*
X0133708Y0212476D03*
X0129377Y0216807D03*
X0133708Y0221138D03*
X0147881Y0219957D03*
X0152212Y0219957D03*
X0156149Y0219957D03*
X0160873Y0221531D03*
X0166385Y0224681D03*
X0166385Y0230193D03*
X0166385Y0235705D03*
X0151031Y0227831D03*
X0150243Y0225075D03*
X0132133Y0202634D03*
X0112448Y0212476D03*
X0116779Y0218776D03*
X0099850Y0219957D03*
X0099850Y0213657D03*
X0099850Y0201059D03*
X0099850Y0193185D03*
X0099850Y0189642D03*
X0099850Y0183343D03*
X0093550Y0183343D03*
X0093550Y0176256D03*
X0097487Y0173500D03*
X0099456Y0175862D03*
X0093157Y0167594D03*
X0087645Y0166020D03*
X0087251Y0173106D03*
X0086858Y0227437D03*
X0095913Y0237280D03*
X0086070Y0244760D03*
X0100243Y0227437D03*
X0109298Y0237280D03*
X0165204Y0257358D03*
X0173078Y0257358D03*
X0180952Y0257358D03*
X0180952Y0253815D03*
X0178590Y0251059D03*
X0187251Y0253815D03*
X0187251Y0257358D03*
X0186464Y0244760D03*
X0168354Y0249484D03*
X0232133Y0254602D03*
X0232133Y0257358D03*
X0236858Y0257358D03*
X0238432Y0253815D03*
X0244732Y0257358D03*
X0252606Y0257358D03*
X0260480Y0257358D03*
X0268354Y0257358D03*
X0275440Y0257358D03*
X0282133Y0257358D03*
X0287645Y0257358D03*
X0288039Y0253421D03*
X0292369Y0249484D03*
X0299456Y0249878D03*
X0299456Y0257358D03*
X0292369Y0257358D03*
X0304968Y0257358D03*
X0310873Y0257358D03*
X0318747Y0257358D03*
X0326621Y0257358D03*
X0334495Y0257358D03*
X0342369Y0257358D03*
X0342369Y0253815D03*
X0340007Y0251059D03*
X0348669Y0253815D03*
X0348669Y0257358D03*
X0347881Y0244760D03*
X0337645Y0239642D03*
X0332133Y0243185D03*
X0327015Y0240035D03*
X0323078Y0240429D03*
X0320322Y0242398D03*
X0316779Y0243185D03*
X0314417Y0240823D03*
X0312054Y0238461D03*
X0312054Y0234130D03*
X0308511Y0230193D03*
X0304180Y0229012D03*
X0299062Y0234917D03*
X0299456Y0238461D03*
X0299456Y0242004D03*
X0303787Y0240429D03*
X0309692Y0246335D03*
X0314023Y0249484D03*
X0320716Y0249484D03*
X0329771Y0249484D03*
X0327802Y0235705D03*
X0327802Y0230193D03*
X0327802Y0224681D03*
X0322291Y0221531D03*
X0317566Y0219957D03*
X0313629Y0219957D03*
X0309298Y0219957D03*
X0311661Y0225075D03*
X0312448Y0227831D03*
X0299456Y0216807D03*
X0295125Y0212476D03*
X0290795Y0216807D03*
X0295125Y0221138D03*
X0278196Y0218776D03*
X0273865Y0212476D03*
X0261267Y0213657D03*
X0261267Y0219957D03*
X0261661Y0227437D03*
X0257330Y0237280D03*
X0247487Y0244760D03*
X0232921Y0245154D03*
X0232921Y0234917D03*
X0238826Y0225862D03*
X0232921Y0225075D03*
X0232921Y0214839D03*
X0248275Y0213657D03*
X0253787Y0213657D03*
X0254180Y0208539D03*
X0254180Y0205783D03*
X0250243Y0199484D03*
X0243944Y0192791D03*
X0243944Y0189642D03*
X0254968Y0183343D03*
X0261267Y0183343D03*
X0261267Y0189642D03*
X0261267Y0193185D03*
X0261267Y0201059D03*
X0281739Y0183736D03*
X0281739Y0179406D03*
X0285676Y0180193D03*
X0287251Y0183736D03*
X0296700Y0188461D03*
X0297881Y0182161D03*
X0299850Y0176256D03*
X0299850Y0173500D03*
X0311661Y0172713D03*
X0312054Y0179406D03*
X0313236Y0182949D03*
X0310873Y0184917D03*
X0313236Y0186886D03*
X0307724Y0183343D03*
X0304574Y0186492D03*
X0304968Y0192398D03*
X0296700Y0194760D03*
X0301818Y0200665D03*
X0305361Y0204996D03*
X0316779Y0204996D03*
X0293550Y0202634D03*
X0260873Y0175862D03*
X0258905Y0173500D03*
X0254968Y0176256D03*
X0248669Y0173106D03*
X0249062Y0166020D03*
X0254574Y0167594D03*
X0232921Y0164839D03*
X0232921Y0154996D03*
X0232921Y0144760D03*
X0232921Y0134917D03*
X0232921Y0125075D03*
X0232133Y0115232D03*
X0238826Y0115232D03*
X0247487Y0115232D03*
X0255361Y0115232D03*
X0263236Y0115232D03*
X0271897Y0115232D03*
X0279771Y0115232D03*
X0287645Y0115232D03*
X0295519Y0115232D03*
X0304180Y0115232D03*
X0312054Y0115232D03*
X0319928Y0115232D03*
X0328196Y0115232D03*
X0336858Y0115232D03*
X0342369Y0115232D03*
X0348669Y0115232D03*
X0347881Y0124681D03*
X0347881Y0134917D03*
X0347881Y0144760D03*
X0347881Y0154602D03*
X0347881Y0164839D03*
X0342369Y0164839D03*
X0333708Y0164445D03*
X0325440Y0163264D03*
X0318354Y0156177D03*
X0321503Y0152240D03*
X0329377Y0145154D03*
X0319928Y0138854D03*
X0304180Y0158146D03*
X0296700Y0153028D03*
X0282921Y0153028D03*
X0282921Y0162870D03*
X0281739Y0173106D03*
X0329771Y0179406D03*
X0335283Y0182555D03*
X0339220Y0177043D03*
X0336858Y0174681D03*
X0342763Y0184917D03*
X0347094Y0184917D03*
X0347881Y0194760D03*
X0347881Y0204996D03*
X0347881Y0214839D03*
X0347881Y0225075D03*
X0347881Y0234917D03*
X0342369Y0233736D03*
X0292763Y0236492D03*
X0288039Y0240035D03*
X0286464Y0237280D03*
X0292369Y0243972D03*
X0270716Y0237280D03*
X0248275Y0227437D03*
X0232133Y0183736D03*
X0232921Y0175075D03*
X0348669Y0173500D03*
D15*
X0297487Y0209720D02*
X0297487Y0214445D01*
X0295125Y0216807D01*
X0273865Y0212476D02*
X0271897Y0212476D01*
X0136070Y0214445D02*
X0136070Y0209720D01*
X0136070Y0214445D02*
X0133708Y0216807D01*
X0112448Y0212476D02*
X0110480Y0212476D01*
D16*
X0133708Y0216807D02*
X0138039Y0216807D01*
X0295125Y0216807D02*
X0299456Y0216807D01*
M02*
