%
M48
M72
T01C0.0118
T02C0.0390
T03C0.0394
T04C0.0520
T05C0.1260
T06C0.1575
%
T01
X16413Y13705
X17082Y13705
X17948Y13705
X18735Y13705
X19523Y13705
X20389Y13705
X21176Y13705
X21964Y13705
X22751Y13705
X23617Y13705
X24405Y13705
X25192Y13705
X26019Y13705
X26885Y13705
X27436Y13705
X28066Y13705
X27987Y14650
X27987Y15673
X27987Y16658
X27987Y17642
X27987Y18666
X27436Y18666
X26570Y18626
X25743Y18508
X25035Y17799
X25350Y17406
X26137Y16697
X25192Y16067
X22869Y17485
X23617Y17996
X23184Y19532
X23184Y19807
X22987Y20398
X22869Y21028
X21924Y20555
X21767Y20201
X21373Y20122
X21373Y20555
X21373Y19492
X21491Y18469
X21491Y17485
X18657Y18941
X18106Y18784
X18066Y19492
X18696Y19807
X19090Y19532
X19287Y19768
X19326Y20516
X19326Y21146
X19326Y21500
X18696Y20516
X17594Y21146
X17594Y21461
X18224Y22130
X18617Y22760
X18617Y23036
X18578Y23548
X18027Y23548
X19326Y23548
X19326Y24177
X19365Y24925
X18932Y25910
X17948Y26658
X17043Y27563
X16885Y27918
X16413Y27918
X16413Y27642
X16491Y26697
X16491Y25673
X17082Y24768
X18027Y24925
X16491Y24689
X16491Y23666
X19326Y22288
X20586Y23429
X21019Y24059
X22279Y23862
X22712Y23429
X23145Y23862
X22712Y24296
X23617Y25083
X24050Y25201
X24444Y24965
X24365Y24689
X24562Y24177
X24956Y24177
X25428Y24335
X25980Y24650
X25980Y25201
X25980Y25752
X25901Y26185
X25507Y26225
X25231Y26422
X24877Y26500
X24641Y26264
X24405Y26028
X24405Y25595
X23578Y26225
X23145Y26382
X23145Y26028
X23106Y25673
X22476Y25831
X22003Y26185
X21846Y25910
X22436Y26579
X22436Y27130
X22003Y27524
X21964Y27918
X22436Y27918
X23145Y27918
X23696Y27918
X24287Y27918
X25074Y27918
X25861Y27918
X26649Y27918
X27436Y27918
X27436Y27563
X27200Y27288
X28066Y27563
X28066Y27918
X27987Y26658
X26964Y26146
X26413Y26500
X26176Y27130
X25271Y27130
X24602Y27130
X24169Y26815
X23145Y27170
X21413Y27918
X20743Y27918
X20035Y27918
X19247Y27918
X18460Y27918
X17672Y27918
X20271Y25910
X24129Y24177
X23735Y22681
X23381Y22248
X22869Y21658
X22554Y22445
X23696Y21422
X23657Y20831
X23972Y20516
X24287Y20673
X24523Y20477
X24405Y20122
X24365Y19453
X24523Y20870
X26176Y20122
X26728Y20437
X27121Y19886
X26885Y19650
X28066Y19532
X27909Y20673
X27476Y20673
X27987Y21658
X27987Y22681
X27987Y23666
X27987Y24689
X27987Y25673
X27436Y25555
X24877Y22681
X32633Y23666
X32633Y24689
X33224Y24768
X34169Y24925
X35507Y24925
X35468Y24177
X35468Y23548
X34720Y23548
X34759Y23036
X34759Y22760
X35468Y22288
X34365Y22130
X33735Y21461
X33735Y21146
X34838Y20516
X35468Y20516
X35468Y21146
X35468Y21500
X35428Y19768
X35231Y19532
X34838Y19807
X34208Y19492
X34247Y18784
X34798Y18941
X32633Y18666
X32633Y19689
X32554Y20555
X32633Y17681
X32633Y16658
X32633Y15673
X32633Y14689
X32554Y13705
X33224Y13705
X34090Y13705
X34877Y13705
X35665Y13705
X36531Y13705
X37318Y13705
X38106Y13705
X38893Y13705
X39759Y13705
X40546Y13705
X41334Y13705
X42161Y13705
X43027Y13705
X43578Y13705
X44208Y13705
X44129Y14650
X44129Y15673
X44129Y16658
X44129Y17642
X42712Y18626
X43578Y18666
X44129Y18666
X44208Y19532
X43263Y19886
X43027Y19650
X42869Y20437
X42318Y20122
X43617Y20673
X44050Y20673
X44129Y21658
X44129Y22681
X44129Y23666
X44129Y24689
X44129Y25673
X43578Y25555
X43106Y26146
X42554Y26500
X42043Y26185
X41649Y26225
X41373Y26422
X41019Y26500
X40783Y26264
X40546Y26028
X40546Y25595
X40192Y25201
X39759Y25083
X39247Y25673
X39287Y26028
X39287Y26382
X39720Y26225
X40310Y26815
X40743Y27130
X41413Y27130
X41216Y27918
X42003Y27918
X42791Y27918
X43578Y27918
X43578Y27563
X43342Y27288
X44208Y27563
X44208Y27918
X44129Y26658
X42318Y27130
X42121Y25752
X42121Y25201
X42121Y24650
X41570Y24335
X41098Y24177
X40704Y24177
X40271Y24177
X40507Y24689
X40586Y24965
X39287Y23862
X38854Y23429
X38420Y23862
X38854Y24296
X37161Y24059
X36728Y23429
X38696Y22445
X39011Y21658
X39523Y22248
X39877Y22681
X41019Y22681
X39838Y21422
X39798Y20831
X40113Y20516
X40428Y20673
X40665Y20477
X40546Y20122
X40507Y19453
X39326Y19532
X39326Y19807
X39129Y20398
X39011Y21028
X38066Y20555
X37909Y20201
X37515Y20122
X37515Y20555
X37515Y19492
X37633Y18469
X37633Y17485
X39011Y17485
X39759Y17996
X41176Y17799
X41491Y17406
X42279Y16697
X41334Y16067
X41885Y18508
X40665Y20870
X34169Y23548
X32633Y25673
X32633Y26697
X33184Y27563
X33027Y27918
X32554Y27918
X32554Y27642
X33814Y27918
X34602Y27918
X35389Y27918
X36176Y27918
X36885Y27918
X37554Y27918
X38106Y27918
X38145Y27524
X38578Y27918
X39287Y27918
X39838Y27918
X40428Y27918
X39287Y27170
X38578Y27130
X38578Y26579
X38145Y26185
X37987Y25910
X38617Y25831
X36413Y25910
X35074Y25910
X34090Y26658
X16413Y20555
X16491Y19689
X16491Y18666
X16491Y17681
X16491Y16658
X16491Y15673
X16491Y14689
T02
X25113Y19673
X24713Y21673
X25513Y21673
X40855Y21673
X41655Y21673
X41255Y19673
T03
X43881Y19173
X43881Y18173
X43881Y17173
X43881Y16173
X43881Y15173
X43881Y14173
X43881Y20173
X43881Y21173
X43881Y22173
X43881Y23173
X43881Y24173
X43881Y25173
X43881Y26173
X43881Y27173
X32881Y27173
X32881Y26173
X32881Y25173
X32881Y24173
X32881Y23173
X32881Y22173
X32881Y21173
X32881Y20173
X32881Y19173
X32881Y18173
X32881Y17173
X32881Y16173
X32881Y15173
X32881Y14173
X27739Y14173
X27739Y15173
X27739Y16173
X27739Y17173
X27739Y18173
X27739Y19173
X27739Y20173
X27739Y21173
X27739Y22173
X27739Y23173
X27739Y24173
X27739Y25173
X27739Y26173
X27739Y27173
X16739Y27173
X16739Y26173
X16739Y25173
X16739Y24173
X16739Y23173
X16739Y22173
X16739Y21173
X16739Y20173
X16739Y19173
X16739Y18173
X16739Y17173
X16739Y16173
X16739Y15173
X16739Y14173
T04
X25035Y12209
X41176Y12209
T05
X42909Y12406
X33854Y12406
X26767Y12406
X17712Y12406
T06
X14169Y8862
X46649Y8862
X46649Y33666
X14169Y33666
M30
