G75*
%MOIN*%
%OFA0B0*%
%FSLAX24Y24*%
%IPPOS*%
%LPD*%
%AMOC8*
5,1,8,0,0,1.08239X$1,22.5*
%
%ADD10C,0.1299*%
%ADD11R,0.0157X0.0157*%
%ADD12C,0.1614*%
%ADD13R,0.0433X0.0118*%
%ADD14R,0.0118X0.0433*%
%ADD15R,0.1220X0.1220*%
%ADD16R,0.0748X0.0512*%
%ADD17R,0.0315X0.0315*%
%ADD18R,0.0433X0.0354*%
%ADD19R,0.0906X0.0276*%
%ADD20R,0.0906X0.0256*%
%ADD21C,0.0050*%
%ADD22OC8,0.0633*%
%ADD23R,0.0512X0.0276*%
%ADD24R,0.0472X0.0236*%
%ADD25OC8,0.0889*%
%ADD26C,0.0349*%
%ADD27C,0.0429*%
%ADD28R,0.0433X0.0512*%
%ADD29C,0.0827*%
%ADD30R,0.1575X0.1575*%
D10*
X017712Y012406D03*
X026767Y012406D03*
X033854Y012406D03*
X042909Y012406D03*
D11*
X037397Y023941D03*
X021255Y023941D03*
D12*
X014169Y008862D03*
X046649Y008862D03*
X046649Y033666D03*
X014169Y033666D03*
D13*
X021688Y024571D03*
X021688Y024414D03*
X021688Y024256D03*
X021688Y024099D03*
X021688Y023941D03*
X021688Y023784D03*
X021688Y023626D03*
X021688Y023469D03*
X021688Y023311D03*
X021688Y023154D03*
X023735Y023154D03*
X023735Y023311D03*
X023735Y023469D03*
X023735Y023626D03*
X023735Y023784D03*
X023735Y023941D03*
X023735Y024099D03*
X023735Y024256D03*
X023735Y024414D03*
X023735Y024571D03*
X037830Y024571D03*
X037830Y024414D03*
X037830Y024256D03*
X037830Y024099D03*
X037830Y023941D03*
X037830Y023784D03*
X037830Y023626D03*
X037830Y023469D03*
X037830Y023311D03*
X037830Y023154D03*
X039877Y023154D03*
X039877Y023311D03*
X039877Y023469D03*
X039877Y023626D03*
X039877Y023784D03*
X039877Y023941D03*
X039877Y024099D03*
X039877Y024256D03*
X039877Y024414D03*
X039877Y024571D03*
D14*
X039562Y024886D03*
X039405Y024886D03*
X039247Y024886D03*
X039090Y024886D03*
X038932Y024886D03*
X038775Y024886D03*
X038617Y024886D03*
X038460Y024886D03*
X038302Y024886D03*
X038145Y024886D03*
X038145Y022839D03*
X038302Y022839D03*
X038460Y022839D03*
X038617Y022839D03*
X038775Y022839D03*
X038932Y022839D03*
X039090Y022839D03*
X039247Y022839D03*
X039405Y022839D03*
X039562Y022839D03*
X023420Y022839D03*
X023263Y022839D03*
X023106Y022839D03*
X022948Y022839D03*
X022791Y022839D03*
X022633Y022839D03*
X022476Y022839D03*
X022318Y022839D03*
X022161Y022839D03*
X022003Y022839D03*
X022003Y024886D03*
X022161Y024886D03*
X022318Y024886D03*
X022476Y024886D03*
X022633Y024886D03*
X022791Y024886D03*
X022948Y024886D03*
X023106Y024886D03*
X023263Y024886D03*
X023420Y024886D03*
D15*
X022712Y023862D03*
X038854Y023862D03*
D16*
X037791Y022091D03*
X037791Y020988D03*
X021649Y020988D03*
X021649Y022091D03*
D17*
X022554Y022130D03*
X022554Y021658D03*
X023696Y021776D03*
X023696Y022248D03*
X020704Y023666D03*
X020704Y024138D03*
X018932Y023548D03*
X018932Y023075D03*
X017672Y023075D03*
X017672Y023548D03*
X017672Y020831D03*
X018145Y020831D03*
X018578Y020831D03*
X019050Y020831D03*
X023499Y019532D03*
X023972Y019532D03*
X022791Y026185D03*
X022318Y026185D03*
X022791Y026618D03*
X022791Y027091D03*
X022791Y027524D03*
X022318Y027524D03*
X033814Y023548D03*
X033814Y023075D03*
X035074Y023075D03*
X035074Y023548D03*
X036846Y023666D03*
X036846Y024138D03*
X038460Y026185D03*
X038932Y026185D03*
X038932Y026618D03*
X038932Y027091D03*
X038932Y027524D03*
X038460Y027524D03*
X038696Y022130D03*
X038696Y021658D03*
X039838Y021776D03*
X039838Y022248D03*
X039641Y019532D03*
X040113Y019532D03*
X035192Y020831D03*
X034720Y020831D03*
X034287Y020831D03*
X033814Y020831D03*
D18*
X040468Y022248D03*
X040468Y022957D03*
X024326Y022957D03*
X024326Y022248D03*
D19*
X024326Y018981D03*
X024326Y017485D03*
X022121Y017485D03*
X022121Y018981D03*
X038263Y018981D03*
X038263Y017485D03*
X040468Y017485D03*
X040468Y018981D03*
D20*
X040468Y018479D03*
X040468Y017986D03*
X038263Y017986D03*
X038263Y018479D03*
X024326Y018479D03*
X024326Y017986D03*
X022121Y017986D03*
X022121Y018479D03*
D21*
X024069Y021730D02*
X024043Y021747D01*
X024021Y021769D01*
X024005Y021795D01*
X023995Y021824D01*
X023991Y021855D01*
X023995Y021885D01*
X024005Y021914D01*
X024021Y021941D01*
X024043Y021962D01*
X024069Y021979D01*
X024098Y021989D01*
X024129Y021992D01*
X024160Y021989D01*
X024189Y021979D01*
X024215Y021962D01*
X024237Y021941D01*
X024253Y021914D01*
X024263Y021885D01*
X024267Y021855D01*
X024263Y021824D01*
X024253Y021795D01*
X024237Y021769D01*
X024215Y021747D01*
X024189Y021730D01*
X024160Y021720D01*
X024129Y021717D01*
X024098Y021720D01*
X024069Y021730D01*
X024062Y021735D02*
X024196Y021735D01*
X024246Y021784D02*
X024012Y021784D01*
X023994Y021832D02*
X024264Y021832D01*
X024264Y021881D02*
X023994Y021881D01*
X024014Y021929D02*
X024244Y021929D01*
X024191Y021978D02*
X024067Y021978D01*
X024965Y026051D02*
X024935Y026061D01*
X024909Y026078D01*
X024888Y026099D01*
X024871Y026126D01*
X024861Y026155D01*
X024857Y026185D01*
X024861Y026216D01*
X024871Y026245D01*
X024888Y026271D01*
X024909Y026293D01*
X024935Y026309D01*
X024965Y026320D01*
X024995Y026323D01*
X025026Y026320D01*
X025055Y026309D01*
X025081Y026293D01*
X025103Y026271D01*
X025119Y026245D01*
X025130Y026216D01*
X025133Y026185D01*
X025130Y026155D01*
X025119Y026126D01*
X025103Y026099D01*
X025081Y026078D01*
X025055Y026061D01*
X025026Y026051D01*
X024995Y026048D01*
X024965Y026051D01*
X024963Y026052D02*
X025028Y026052D01*
X025103Y026100D02*
X024887Y026100D01*
X024863Y026149D02*
X025127Y026149D01*
X025132Y026197D02*
X024859Y026197D01*
X024871Y026246D02*
X025119Y026246D01*
X025080Y026294D02*
X024911Y026294D01*
X040137Y021885D02*
X040147Y021914D01*
X040163Y021941D01*
X040185Y021962D01*
X040211Y021979D01*
X040240Y021989D01*
X040271Y021992D01*
X040302Y021989D01*
X040331Y021979D01*
X040357Y021962D01*
X040379Y021941D01*
X040395Y021914D01*
X040405Y021885D01*
X040409Y021855D01*
X040405Y021824D01*
X040395Y021795D01*
X040379Y021769D01*
X040357Y021747D01*
X040331Y021730D01*
X040302Y021720D01*
X040271Y021717D01*
X040240Y021720D01*
X040211Y021730D01*
X040185Y021747D01*
X040163Y021769D01*
X040147Y021795D01*
X040137Y021824D01*
X040133Y021855D01*
X040137Y021885D01*
X040136Y021881D02*
X040406Y021881D01*
X040406Y021832D02*
X040136Y021832D01*
X040154Y021784D02*
X040388Y021784D01*
X040338Y021735D02*
X040204Y021735D01*
X040156Y021929D02*
X040386Y021929D01*
X040333Y021978D02*
X040209Y021978D01*
X041106Y026051D02*
X041077Y026061D01*
X041051Y026078D01*
X041029Y026099D01*
X041013Y026126D01*
X041003Y026155D01*
X040999Y026185D01*
X041003Y026216D01*
X041013Y026245D01*
X041029Y026271D01*
X041051Y026293D01*
X041077Y026309D01*
X041106Y026320D01*
X041137Y026323D01*
X041168Y026320D01*
X041197Y026309D01*
X041223Y026293D01*
X041245Y026271D01*
X041261Y026245D01*
X041271Y026216D01*
X041275Y026185D01*
X041271Y026155D01*
X041261Y026126D01*
X041245Y026099D01*
X041223Y026078D01*
X041197Y026061D01*
X041168Y026051D01*
X041137Y026048D01*
X041106Y026051D01*
X041105Y026052D02*
X041169Y026052D01*
X041245Y026100D02*
X041029Y026100D01*
X041005Y026149D02*
X041269Y026149D01*
X041273Y026197D02*
X041001Y026197D01*
X041013Y026246D02*
X041261Y026246D01*
X041221Y026294D02*
X041053Y026294D01*
D22*
X043881Y026173D03*
X043881Y025173D03*
X043881Y024173D03*
X043881Y023173D03*
X043881Y022173D03*
X043881Y021173D03*
X043881Y020173D03*
X043881Y019173D03*
X043881Y018173D03*
X043881Y017173D03*
X043881Y016173D03*
X043881Y015173D03*
X043881Y014173D03*
X032881Y014173D03*
X032881Y015173D03*
X032881Y016173D03*
X032881Y017173D03*
X032881Y018173D03*
X032881Y019173D03*
X032881Y020173D03*
X032881Y021173D03*
X032881Y022173D03*
X032881Y023173D03*
X032881Y024173D03*
X032881Y025173D03*
X032881Y026173D03*
X032881Y027173D03*
X027739Y027173D03*
X027739Y026173D03*
X027739Y025173D03*
X027739Y024173D03*
X027739Y023173D03*
X027739Y022173D03*
X027739Y021173D03*
X027739Y020173D03*
X027739Y019173D03*
X027739Y018173D03*
X027739Y017173D03*
X027739Y016173D03*
X027739Y015173D03*
X027739Y014173D03*
X016739Y014173D03*
X016739Y015173D03*
X016739Y016173D03*
X016739Y017173D03*
X016739Y018173D03*
X016739Y019173D03*
X016739Y020173D03*
X016739Y021173D03*
X016739Y022173D03*
X016739Y023173D03*
X016739Y024173D03*
X016739Y025173D03*
X016739Y026173D03*
X016739Y027173D03*
X043881Y027173D03*
D23*
X035074Y022504D03*
X035074Y021756D03*
X033814Y021756D03*
X033814Y022130D03*
X033814Y022504D03*
X018932Y022504D03*
X018932Y021756D03*
X017672Y021756D03*
X017672Y022130D03*
X017672Y022504D03*
D24*
X017633Y020221D03*
X017633Y019847D03*
X017633Y019473D03*
X018735Y019473D03*
X018735Y020221D03*
X033775Y020221D03*
X033775Y019847D03*
X033775Y019473D03*
X034877Y019473D03*
X034877Y020221D03*
D25*
X041176Y012209D03*
X025035Y012209D03*
D26*
X024863Y020173D03*
X025363Y020173D03*
X025363Y020673D03*
X024863Y020673D03*
X024863Y021173D03*
X025363Y021173D03*
X041005Y021173D03*
X041005Y020673D03*
X041005Y020173D03*
X041505Y020173D03*
X041505Y020673D03*
X041505Y021173D03*
D27*
X041655Y021673D03*
X040855Y021673D03*
X041255Y019673D03*
X025513Y021673D03*
X024713Y021673D03*
X025113Y019673D03*
D28*
X024857Y024866D03*
X025527Y024866D03*
X025527Y025693D03*
X024857Y025693D03*
X040999Y025693D03*
X041669Y025693D03*
X041669Y024866D03*
X040999Y024866D03*
D29*
X018106Y033666D03*
X018106Y008862D03*
X040546Y008862D03*
D30*
X040546Y008862D03*
X018106Y008862D03*
X018106Y033666D03*
M02*
