G75*
%MOIN*%
%OFA0B0*%
%FSLAX24Y24*%
%IPPOS*%
%LPD*%
%AMOC8*
5,1,8,0,0,1.08239X$1,22.5*
%
%ADD10C,0.0000*%
%ADD11C,0.0787*%
%ADD12C,0.0315*%
%ADD13C,0.0120*%
%ADD14C,0.0079*%
D10*
X012200Y006894D02*
X048027Y006894D01*
X048027Y035240D01*
X012200Y035240D01*
X012200Y006894D01*
X013185Y008862D02*
X013187Y008918D01*
X013193Y008973D01*
X013203Y009027D01*
X013216Y009081D01*
X013234Y009134D01*
X013255Y009185D01*
X013279Y009235D01*
X013307Y009283D01*
X013339Y009329D01*
X013373Y009373D01*
X013411Y009414D01*
X013451Y009452D01*
X013494Y009487D01*
X013539Y009519D01*
X013587Y009548D01*
X013636Y009574D01*
X013687Y009596D01*
X013739Y009614D01*
X013793Y009628D01*
X013848Y009639D01*
X013903Y009646D01*
X013958Y009649D01*
X014014Y009648D01*
X014069Y009643D01*
X014124Y009634D01*
X014178Y009622D01*
X014231Y009605D01*
X014283Y009585D01*
X014333Y009561D01*
X014381Y009534D01*
X014428Y009504D01*
X014472Y009470D01*
X014514Y009433D01*
X014552Y009393D01*
X014589Y009351D01*
X014622Y009306D01*
X014651Y009260D01*
X014678Y009211D01*
X014700Y009160D01*
X014720Y009108D01*
X014735Y009054D01*
X014747Y009000D01*
X014755Y008945D01*
X014759Y008890D01*
X014759Y008834D01*
X014755Y008779D01*
X014747Y008724D01*
X014735Y008670D01*
X014720Y008616D01*
X014700Y008564D01*
X014678Y008513D01*
X014651Y008464D01*
X014622Y008418D01*
X014589Y008373D01*
X014552Y008331D01*
X014514Y008291D01*
X014472Y008254D01*
X014428Y008220D01*
X014381Y008190D01*
X014333Y008163D01*
X014283Y008139D01*
X014231Y008119D01*
X014178Y008102D01*
X014124Y008090D01*
X014069Y008081D01*
X014014Y008076D01*
X013958Y008075D01*
X013903Y008078D01*
X013848Y008085D01*
X013793Y008096D01*
X013739Y008110D01*
X013687Y008128D01*
X013636Y008150D01*
X013587Y008176D01*
X013539Y008205D01*
X013494Y008237D01*
X013451Y008272D01*
X013411Y008310D01*
X013373Y008351D01*
X013339Y008395D01*
X013307Y008441D01*
X013279Y008489D01*
X013255Y008539D01*
X013234Y008590D01*
X013216Y008643D01*
X013203Y008697D01*
X013193Y008751D01*
X013187Y008806D01*
X013185Y008862D01*
X016885Y012406D02*
X016887Y012456D01*
X016893Y012506D01*
X016903Y012555D01*
X016917Y012603D01*
X016934Y012650D01*
X016955Y012695D01*
X016980Y012739D01*
X017008Y012780D01*
X017040Y012819D01*
X017074Y012856D01*
X017111Y012890D01*
X017151Y012920D01*
X017193Y012947D01*
X017237Y012971D01*
X017283Y012992D01*
X017330Y013008D01*
X017378Y013021D01*
X017428Y013030D01*
X017477Y013035D01*
X017528Y013036D01*
X017578Y013033D01*
X017627Y013026D01*
X017676Y013015D01*
X017724Y013000D01*
X017770Y012982D01*
X017815Y012960D01*
X017858Y012934D01*
X017899Y012905D01*
X017938Y012873D01*
X017974Y012838D01*
X018006Y012800D01*
X018036Y012760D01*
X018063Y012717D01*
X018086Y012673D01*
X018105Y012627D01*
X018121Y012579D01*
X018133Y012530D01*
X018141Y012481D01*
X018145Y012431D01*
X018145Y012381D01*
X018141Y012331D01*
X018133Y012282D01*
X018121Y012233D01*
X018105Y012185D01*
X018086Y012139D01*
X018063Y012095D01*
X018036Y012052D01*
X018006Y012012D01*
X017974Y011974D01*
X017938Y011939D01*
X017899Y011907D01*
X017858Y011878D01*
X017815Y011852D01*
X017770Y011830D01*
X017724Y011812D01*
X017676Y011797D01*
X017627Y011786D01*
X017578Y011779D01*
X017528Y011776D01*
X017477Y011777D01*
X017428Y011782D01*
X017378Y011791D01*
X017330Y011804D01*
X017283Y011820D01*
X017237Y011841D01*
X017193Y011865D01*
X017151Y011892D01*
X017111Y011922D01*
X017074Y011956D01*
X017040Y011993D01*
X017008Y012032D01*
X016980Y012073D01*
X016955Y012117D01*
X016934Y012162D01*
X016917Y012209D01*
X016903Y012257D01*
X016893Y012306D01*
X016887Y012356D01*
X016885Y012406D01*
X025940Y012406D02*
X025942Y012456D01*
X025948Y012506D01*
X025958Y012555D01*
X025972Y012603D01*
X025989Y012650D01*
X026010Y012695D01*
X026035Y012739D01*
X026063Y012780D01*
X026095Y012819D01*
X026129Y012856D01*
X026166Y012890D01*
X026206Y012920D01*
X026248Y012947D01*
X026292Y012971D01*
X026338Y012992D01*
X026385Y013008D01*
X026433Y013021D01*
X026483Y013030D01*
X026532Y013035D01*
X026583Y013036D01*
X026633Y013033D01*
X026682Y013026D01*
X026731Y013015D01*
X026779Y013000D01*
X026825Y012982D01*
X026870Y012960D01*
X026913Y012934D01*
X026954Y012905D01*
X026993Y012873D01*
X027029Y012838D01*
X027061Y012800D01*
X027091Y012760D01*
X027118Y012717D01*
X027141Y012673D01*
X027160Y012627D01*
X027176Y012579D01*
X027188Y012530D01*
X027196Y012481D01*
X027200Y012431D01*
X027200Y012381D01*
X027196Y012331D01*
X027188Y012282D01*
X027176Y012233D01*
X027160Y012185D01*
X027141Y012139D01*
X027118Y012095D01*
X027091Y012052D01*
X027061Y012012D01*
X027029Y011974D01*
X026993Y011939D01*
X026954Y011907D01*
X026913Y011878D01*
X026870Y011852D01*
X026825Y011830D01*
X026779Y011812D01*
X026731Y011797D01*
X026682Y011786D01*
X026633Y011779D01*
X026583Y011776D01*
X026532Y011777D01*
X026483Y011782D01*
X026433Y011791D01*
X026385Y011804D01*
X026338Y011820D01*
X026292Y011841D01*
X026248Y011865D01*
X026206Y011892D01*
X026166Y011922D01*
X026129Y011956D01*
X026095Y011993D01*
X026063Y012032D01*
X026035Y012073D01*
X026010Y012117D01*
X025989Y012162D01*
X025972Y012209D01*
X025958Y012257D01*
X025948Y012306D01*
X025942Y012356D01*
X025940Y012406D01*
X032830Y012406D02*
X032832Y012456D01*
X032838Y012506D01*
X032848Y012555D01*
X032862Y012603D01*
X032879Y012650D01*
X032900Y012695D01*
X032925Y012739D01*
X032953Y012780D01*
X032985Y012819D01*
X033019Y012856D01*
X033056Y012890D01*
X033096Y012920D01*
X033138Y012947D01*
X033182Y012971D01*
X033228Y012992D01*
X033275Y013008D01*
X033323Y013021D01*
X033373Y013030D01*
X033422Y013035D01*
X033473Y013036D01*
X033523Y013033D01*
X033572Y013026D01*
X033621Y013015D01*
X033669Y013000D01*
X033715Y012982D01*
X033760Y012960D01*
X033803Y012934D01*
X033844Y012905D01*
X033883Y012873D01*
X033919Y012838D01*
X033951Y012800D01*
X033981Y012760D01*
X034008Y012717D01*
X034031Y012673D01*
X034050Y012627D01*
X034066Y012579D01*
X034078Y012530D01*
X034086Y012481D01*
X034090Y012431D01*
X034090Y012381D01*
X034086Y012331D01*
X034078Y012282D01*
X034066Y012233D01*
X034050Y012185D01*
X034031Y012139D01*
X034008Y012095D01*
X033981Y012052D01*
X033951Y012012D01*
X033919Y011974D01*
X033883Y011939D01*
X033844Y011907D01*
X033803Y011878D01*
X033760Y011852D01*
X033715Y011830D01*
X033669Y011812D01*
X033621Y011797D01*
X033572Y011786D01*
X033523Y011779D01*
X033473Y011776D01*
X033422Y011777D01*
X033373Y011782D01*
X033323Y011791D01*
X033275Y011804D01*
X033228Y011820D01*
X033182Y011841D01*
X033138Y011865D01*
X033096Y011892D01*
X033056Y011922D01*
X033019Y011956D01*
X032985Y011993D01*
X032953Y012032D01*
X032925Y012073D01*
X032900Y012117D01*
X032879Y012162D01*
X032862Y012209D01*
X032848Y012257D01*
X032838Y012306D01*
X032832Y012356D01*
X032830Y012406D01*
X041885Y012406D02*
X041887Y012456D01*
X041893Y012506D01*
X041903Y012555D01*
X041917Y012603D01*
X041934Y012650D01*
X041955Y012695D01*
X041980Y012739D01*
X042008Y012780D01*
X042040Y012819D01*
X042074Y012856D01*
X042111Y012890D01*
X042151Y012920D01*
X042193Y012947D01*
X042237Y012971D01*
X042283Y012992D01*
X042330Y013008D01*
X042378Y013021D01*
X042428Y013030D01*
X042477Y013035D01*
X042528Y013036D01*
X042578Y013033D01*
X042627Y013026D01*
X042676Y013015D01*
X042724Y013000D01*
X042770Y012982D01*
X042815Y012960D01*
X042858Y012934D01*
X042899Y012905D01*
X042938Y012873D01*
X042974Y012838D01*
X043006Y012800D01*
X043036Y012760D01*
X043063Y012717D01*
X043086Y012673D01*
X043105Y012627D01*
X043121Y012579D01*
X043133Y012530D01*
X043141Y012481D01*
X043145Y012431D01*
X043145Y012381D01*
X043141Y012331D01*
X043133Y012282D01*
X043121Y012233D01*
X043105Y012185D01*
X043086Y012139D01*
X043063Y012095D01*
X043036Y012052D01*
X043006Y012012D01*
X042974Y011974D01*
X042938Y011939D01*
X042899Y011907D01*
X042858Y011878D01*
X042815Y011852D01*
X042770Y011830D01*
X042724Y011812D01*
X042676Y011797D01*
X042627Y011786D01*
X042578Y011779D01*
X042528Y011776D01*
X042477Y011777D01*
X042428Y011782D01*
X042378Y011791D01*
X042330Y011804D01*
X042283Y011820D01*
X042237Y011841D01*
X042193Y011865D01*
X042151Y011892D01*
X042111Y011922D01*
X042074Y011956D01*
X042040Y011993D01*
X042008Y012032D01*
X041980Y012073D01*
X041955Y012117D01*
X041934Y012162D01*
X041917Y012209D01*
X041903Y012257D01*
X041893Y012306D01*
X041887Y012356D01*
X041885Y012406D01*
X045468Y008862D02*
X045470Y008918D01*
X045476Y008973D01*
X045486Y009027D01*
X045499Y009081D01*
X045517Y009134D01*
X045538Y009185D01*
X045562Y009235D01*
X045590Y009283D01*
X045622Y009329D01*
X045656Y009373D01*
X045694Y009414D01*
X045734Y009452D01*
X045777Y009487D01*
X045822Y009519D01*
X045870Y009548D01*
X045919Y009574D01*
X045970Y009596D01*
X046022Y009614D01*
X046076Y009628D01*
X046131Y009639D01*
X046186Y009646D01*
X046241Y009649D01*
X046297Y009648D01*
X046352Y009643D01*
X046407Y009634D01*
X046461Y009622D01*
X046514Y009605D01*
X046566Y009585D01*
X046616Y009561D01*
X046664Y009534D01*
X046711Y009504D01*
X046755Y009470D01*
X046797Y009433D01*
X046835Y009393D01*
X046872Y009351D01*
X046905Y009306D01*
X046934Y009260D01*
X046961Y009211D01*
X046983Y009160D01*
X047003Y009108D01*
X047018Y009054D01*
X047030Y009000D01*
X047038Y008945D01*
X047042Y008890D01*
X047042Y008834D01*
X047038Y008779D01*
X047030Y008724D01*
X047018Y008670D01*
X047003Y008616D01*
X046983Y008564D01*
X046961Y008513D01*
X046934Y008464D01*
X046905Y008418D01*
X046872Y008373D01*
X046835Y008331D01*
X046797Y008291D01*
X046755Y008254D01*
X046711Y008220D01*
X046664Y008190D01*
X046616Y008163D01*
X046566Y008139D01*
X046514Y008119D01*
X046461Y008102D01*
X046407Y008090D01*
X046352Y008081D01*
X046297Y008076D01*
X046241Y008075D01*
X046186Y008078D01*
X046131Y008085D01*
X046076Y008096D01*
X046022Y008110D01*
X045970Y008128D01*
X045919Y008150D01*
X045870Y008176D01*
X045822Y008205D01*
X045777Y008237D01*
X045734Y008272D01*
X045694Y008310D01*
X045656Y008351D01*
X045622Y008395D01*
X045590Y008441D01*
X045562Y008489D01*
X045538Y008539D01*
X045517Y008590D01*
X045499Y008643D01*
X045486Y008697D01*
X045476Y008751D01*
X045470Y008806D01*
X045468Y008862D01*
X040666Y019673D02*
X040668Y019701D01*
X040674Y019728D01*
X040684Y019754D01*
X040697Y019778D01*
X040714Y019801D01*
X040733Y019820D01*
X040756Y019837D01*
X040780Y019850D01*
X040806Y019860D01*
X040833Y019866D01*
X040861Y019868D01*
X040889Y019866D01*
X040916Y019860D01*
X040942Y019850D01*
X040966Y019837D01*
X040989Y019820D01*
X041008Y019801D01*
X041025Y019778D01*
X041038Y019754D01*
X041048Y019728D01*
X041054Y019701D01*
X041056Y019673D01*
X041054Y019645D01*
X041048Y019618D01*
X041038Y019592D01*
X041025Y019568D01*
X041008Y019545D01*
X040989Y019526D01*
X040966Y019509D01*
X040942Y019496D01*
X040916Y019486D01*
X040889Y019480D01*
X040861Y019478D01*
X040833Y019480D01*
X040806Y019486D01*
X040780Y019496D01*
X040756Y019509D01*
X040733Y019526D01*
X040714Y019545D01*
X040697Y019568D01*
X040684Y019592D01*
X040674Y019618D01*
X040668Y019645D01*
X040666Y019673D01*
X040266Y021673D02*
X040268Y021701D01*
X040274Y021728D01*
X040284Y021754D01*
X040297Y021778D01*
X040314Y021801D01*
X040333Y021820D01*
X040356Y021837D01*
X040380Y021850D01*
X040406Y021860D01*
X040433Y021866D01*
X040461Y021868D01*
X040489Y021866D01*
X040516Y021860D01*
X040542Y021850D01*
X040566Y021837D01*
X040589Y021820D01*
X040608Y021801D01*
X040625Y021778D01*
X040638Y021754D01*
X040648Y021728D01*
X040654Y021701D01*
X040656Y021673D01*
X040654Y021645D01*
X040648Y021618D01*
X040638Y021592D01*
X040625Y021568D01*
X040608Y021545D01*
X040589Y021526D01*
X040566Y021509D01*
X040542Y021496D01*
X040516Y021486D01*
X040489Y021480D01*
X040461Y021478D01*
X040433Y021480D01*
X040406Y021486D01*
X040380Y021496D01*
X040356Y021509D01*
X040333Y021526D01*
X040314Y021545D01*
X040297Y021568D01*
X040284Y021592D01*
X040274Y021618D01*
X040268Y021645D01*
X040266Y021673D01*
X041066Y021673D02*
X041068Y021701D01*
X041074Y021728D01*
X041084Y021754D01*
X041097Y021778D01*
X041114Y021801D01*
X041133Y021820D01*
X041156Y021837D01*
X041180Y021850D01*
X041206Y021860D01*
X041233Y021866D01*
X041261Y021868D01*
X041289Y021866D01*
X041316Y021860D01*
X041342Y021850D01*
X041366Y021837D01*
X041389Y021820D01*
X041408Y021801D01*
X041425Y021778D01*
X041438Y021754D01*
X041448Y021728D01*
X041454Y021701D01*
X041456Y021673D01*
X041454Y021645D01*
X041448Y021618D01*
X041438Y021592D01*
X041425Y021568D01*
X041408Y021545D01*
X041389Y021526D01*
X041366Y021509D01*
X041342Y021496D01*
X041316Y021486D01*
X041289Y021480D01*
X041261Y021478D01*
X041233Y021480D01*
X041206Y021486D01*
X041180Y021496D01*
X041156Y021509D01*
X041133Y021526D01*
X041114Y021545D01*
X041097Y021568D01*
X041084Y021592D01*
X041074Y021618D01*
X041068Y021645D01*
X041066Y021673D01*
X025122Y021673D02*
X025124Y021701D01*
X025130Y021728D01*
X025140Y021754D01*
X025153Y021778D01*
X025170Y021801D01*
X025189Y021820D01*
X025212Y021837D01*
X025236Y021850D01*
X025262Y021860D01*
X025289Y021866D01*
X025317Y021868D01*
X025345Y021866D01*
X025372Y021860D01*
X025398Y021850D01*
X025422Y021837D01*
X025445Y021820D01*
X025464Y021801D01*
X025481Y021778D01*
X025494Y021754D01*
X025504Y021728D01*
X025510Y021701D01*
X025512Y021673D01*
X025510Y021645D01*
X025504Y021618D01*
X025494Y021592D01*
X025481Y021568D01*
X025464Y021545D01*
X025445Y021526D01*
X025422Y021509D01*
X025398Y021496D01*
X025372Y021486D01*
X025345Y021480D01*
X025317Y021478D01*
X025289Y021480D01*
X025262Y021486D01*
X025236Y021496D01*
X025212Y021509D01*
X025189Y021526D01*
X025170Y021545D01*
X025153Y021568D01*
X025140Y021592D01*
X025130Y021618D01*
X025124Y021645D01*
X025122Y021673D01*
X024322Y021673D02*
X024324Y021701D01*
X024330Y021728D01*
X024340Y021754D01*
X024353Y021778D01*
X024370Y021801D01*
X024389Y021820D01*
X024412Y021837D01*
X024436Y021850D01*
X024462Y021860D01*
X024489Y021866D01*
X024517Y021868D01*
X024545Y021866D01*
X024572Y021860D01*
X024598Y021850D01*
X024622Y021837D01*
X024645Y021820D01*
X024664Y021801D01*
X024681Y021778D01*
X024694Y021754D01*
X024704Y021728D01*
X024710Y021701D01*
X024712Y021673D01*
X024710Y021645D01*
X024704Y021618D01*
X024694Y021592D01*
X024681Y021568D01*
X024664Y021545D01*
X024645Y021526D01*
X024622Y021509D01*
X024598Y021496D01*
X024572Y021486D01*
X024545Y021480D01*
X024517Y021478D01*
X024489Y021480D01*
X024462Y021486D01*
X024436Y021496D01*
X024412Y021509D01*
X024389Y021526D01*
X024370Y021545D01*
X024353Y021568D01*
X024340Y021592D01*
X024330Y021618D01*
X024324Y021645D01*
X024322Y021673D01*
X024722Y019673D02*
X024724Y019701D01*
X024730Y019728D01*
X024740Y019754D01*
X024753Y019778D01*
X024770Y019801D01*
X024789Y019820D01*
X024812Y019837D01*
X024836Y019850D01*
X024862Y019860D01*
X024889Y019866D01*
X024917Y019868D01*
X024945Y019866D01*
X024972Y019860D01*
X024998Y019850D01*
X025022Y019837D01*
X025045Y019820D01*
X025064Y019801D01*
X025081Y019778D01*
X025094Y019754D01*
X025104Y019728D01*
X025110Y019701D01*
X025112Y019673D01*
X025110Y019645D01*
X025104Y019618D01*
X025094Y019592D01*
X025081Y019568D01*
X025064Y019545D01*
X025045Y019526D01*
X025022Y019509D01*
X024998Y019496D01*
X024972Y019486D01*
X024945Y019480D01*
X024917Y019478D01*
X024889Y019480D01*
X024862Y019486D01*
X024836Y019496D01*
X024812Y019509D01*
X024789Y019526D01*
X024770Y019545D01*
X024753Y019568D01*
X024740Y019592D01*
X024730Y019618D01*
X024724Y019645D01*
X024722Y019673D01*
X013185Y033272D02*
X013187Y033328D01*
X013193Y033383D01*
X013203Y033437D01*
X013216Y033491D01*
X013234Y033544D01*
X013255Y033595D01*
X013279Y033645D01*
X013307Y033693D01*
X013339Y033739D01*
X013373Y033783D01*
X013411Y033824D01*
X013451Y033862D01*
X013494Y033897D01*
X013539Y033929D01*
X013587Y033958D01*
X013636Y033984D01*
X013687Y034006D01*
X013739Y034024D01*
X013793Y034038D01*
X013848Y034049D01*
X013903Y034056D01*
X013958Y034059D01*
X014014Y034058D01*
X014069Y034053D01*
X014124Y034044D01*
X014178Y034032D01*
X014231Y034015D01*
X014283Y033995D01*
X014333Y033971D01*
X014381Y033944D01*
X014428Y033914D01*
X014472Y033880D01*
X014514Y033843D01*
X014552Y033803D01*
X014589Y033761D01*
X014622Y033716D01*
X014651Y033670D01*
X014678Y033621D01*
X014700Y033570D01*
X014720Y033518D01*
X014735Y033464D01*
X014747Y033410D01*
X014755Y033355D01*
X014759Y033300D01*
X014759Y033244D01*
X014755Y033189D01*
X014747Y033134D01*
X014735Y033080D01*
X014720Y033026D01*
X014700Y032974D01*
X014678Y032923D01*
X014651Y032874D01*
X014622Y032828D01*
X014589Y032783D01*
X014552Y032741D01*
X014514Y032701D01*
X014472Y032664D01*
X014428Y032630D01*
X014381Y032600D01*
X014333Y032573D01*
X014283Y032549D01*
X014231Y032529D01*
X014178Y032512D01*
X014124Y032500D01*
X014069Y032491D01*
X014014Y032486D01*
X013958Y032485D01*
X013903Y032488D01*
X013848Y032495D01*
X013793Y032506D01*
X013739Y032520D01*
X013687Y032538D01*
X013636Y032560D01*
X013587Y032586D01*
X013539Y032615D01*
X013494Y032647D01*
X013451Y032682D01*
X013411Y032720D01*
X013373Y032761D01*
X013339Y032805D01*
X013307Y032851D01*
X013279Y032899D01*
X013255Y032949D01*
X013234Y033000D01*
X013216Y033053D01*
X013203Y033107D01*
X013193Y033161D01*
X013187Y033216D01*
X013185Y033272D01*
X045468Y033272D02*
X045470Y033328D01*
X045476Y033383D01*
X045486Y033437D01*
X045499Y033491D01*
X045517Y033544D01*
X045538Y033595D01*
X045562Y033645D01*
X045590Y033693D01*
X045622Y033739D01*
X045656Y033783D01*
X045694Y033824D01*
X045734Y033862D01*
X045777Y033897D01*
X045822Y033929D01*
X045870Y033958D01*
X045919Y033984D01*
X045970Y034006D01*
X046022Y034024D01*
X046076Y034038D01*
X046131Y034049D01*
X046186Y034056D01*
X046241Y034059D01*
X046297Y034058D01*
X046352Y034053D01*
X046407Y034044D01*
X046461Y034032D01*
X046514Y034015D01*
X046566Y033995D01*
X046616Y033971D01*
X046664Y033944D01*
X046711Y033914D01*
X046755Y033880D01*
X046797Y033843D01*
X046835Y033803D01*
X046872Y033761D01*
X046905Y033716D01*
X046934Y033670D01*
X046961Y033621D01*
X046983Y033570D01*
X047003Y033518D01*
X047018Y033464D01*
X047030Y033410D01*
X047038Y033355D01*
X047042Y033300D01*
X047042Y033244D01*
X047038Y033189D01*
X047030Y033134D01*
X047018Y033080D01*
X047003Y033026D01*
X046983Y032974D01*
X046961Y032923D01*
X046934Y032874D01*
X046905Y032828D01*
X046872Y032783D01*
X046835Y032741D01*
X046797Y032701D01*
X046755Y032664D01*
X046711Y032630D01*
X046664Y032600D01*
X046616Y032573D01*
X046566Y032549D01*
X046514Y032529D01*
X046461Y032512D01*
X046407Y032500D01*
X046352Y032491D01*
X046297Y032486D01*
X046241Y032485D01*
X046186Y032488D01*
X046131Y032495D01*
X046076Y032506D01*
X046022Y032520D01*
X045970Y032538D01*
X045919Y032560D01*
X045870Y032586D01*
X045822Y032615D01*
X045777Y032647D01*
X045734Y032682D01*
X045694Y032720D01*
X045656Y032761D01*
X045622Y032805D01*
X045590Y032851D01*
X045562Y032899D01*
X045538Y032949D01*
X045517Y033000D01*
X045499Y033053D01*
X045486Y033107D01*
X045476Y033161D01*
X045470Y033216D01*
X045468Y033272D01*
D11*
X042515Y031697D02*
X040546Y031697D01*
X042515Y031698D02*
X042601Y031696D01*
X042687Y031691D01*
X042772Y031681D01*
X042857Y031668D01*
X042941Y031651D01*
X043025Y031631D01*
X043107Y031607D01*
X043188Y031579D01*
X043269Y031548D01*
X043347Y031514D01*
X043424Y031476D01*
X043500Y031434D01*
X043573Y031390D01*
X043644Y031342D01*
X043714Y031291D01*
X043781Y031237D01*
X043845Y031181D01*
X043907Y031121D01*
X043967Y031059D01*
X044023Y030995D01*
X044077Y030928D01*
X044128Y030858D01*
X044176Y030787D01*
X044220Y030714D01*
X044262Y030638D01*
X044300Y030561D01*
X044334Y030483D01*
X044365Y030402D01*
X044393Y030321D01*
X044417Y030239D01*
X044437Y030155D01*
X044454Y030071D01*
X044467Y029986D01*
X044477Y029901D01*
X044482Y029815D01*
X044484Y029729D01*
X044483Y029689D02*
X044483Y027721D01*
X035428Y031697D02*
X033460Y031697D01*
X033460Y031698D02*
X033374Y031696D01*
X033288Y031691D01*
X033203Y031681D01*
X033118Y031668D01*
X033034Y031651D01*
X032950Y031631D01*
X032868Y031607D01*
X032787Y031579D01*
X032706Y031548D01*
X032628Y031514D01*
X032551Y031476D01*
X032476Y031434D01*
X032402Y031390D01*
X032331Y031342D01*
X032261Y031291D01*
X032194Y031237D01*
X032130Y031181D01*
X032068Y031121D01*
X032008Y031059D01*
X031952Y030995D01*
X031898Y030928D01*
X031847Y030858D01*
X031799Y030787D01*
X031755Y030714D01*
X031713Y030638D01*
X031675Y030561D01*
X031641Y030483D01*
X031610Y030402D01*
X031582Y030321D01*
X031558Y030239D01*
X031538Y030155D01*
X031521Y030071D01*
X031508Y029986D01*
X031498Y029901D01*
X031493Y029815D01*
X031491Y029729D01*
X031491Y027760D01*
X028539Y027760D02*
X028539Y029729D01*
X028537Y029815D01*
X028532Y029901D01*
X028522Y029986D01*
X028509Y030071D01*
X028492Y030155D01*
X028472Y030239D01*
X028448Y030321D01*
X028420Y030402D01*
X028389Y030483D01*
X028355Y030561D01*
X028317Y030638D01*
X028275Y030714D01*
X028231Y030787D01*
X028183Y030858D01*
X028132Y030928D01*
X028078Y030995D01*
X028022Y031059D01*
X027962Y031121D01*
X027900Y031181D01*
X027836Y031237D01*
X027769Y031291D01*
X027699Y031342D01*
X027628Y031390D01*
X027555Y031434D01*
X027479Y031476D01*
X027402Y031514D01*
X027324Y031548D01*
X027243Y031579D01*
X027162Y031607D01*
X027080Y031631D01*
X026996Y031651D01*
X026912Y031668D01*
X026827Y031681D01*
X026742Y031691D01*
X026656Y031696D01*
X026570Y031698D01*
X026570Y031697D02*
X024602Y031697D01*
X019483Y031697D02*
X017515Y031697D01*
X017515Y031698D02*
X017429Y031696D01*
X017343Y031691D01*
X017258Y031681D01*
X017173Y031668D01*
X017089Y031651D01*
X017005Y031631D01*
X016923Y031607D01*
X016842Y031579D01*
X016761Y031548D01*
X016683Y031514D01*
X016606Y031476D01*
X016531Y031434D01*
X016457Y031390D01*
X016386Y031342D01*
X016316Y031291D01*
X016249Y031237D01*
X016185Y031181D01*
X016123Y031121D01*
X016063Y031059D01*
X016007Y030995D01*
X015953Y030928D01*
X015902Y030858D01*
X015854Y030787D01*
X015810Y030714D01*
X015768Y030638D01*
X015730Y030561D01*
X015696Y030483D01*
X015665Y030402D01*
X015637Y030321D01*
X015613Y030239D01*
X015593Y030155D01*
X015576Y030071D01*
X015563Y029986D01*
X015553Y029901D01*
X015548Y029815D01*
X015546Y029729D01*
X015546Y027760D01*
X015546Y014414D02*
X015546Y012445D01*
X015546Y012406D02*
X015548Y012320D01*
X015553Y012234D01*
X015563Y012149D01*
X015576Y012064D01*
X015593Y011980D01*
X015613Y011896D01*
X015637Y011814D01*
X015665Y011733D01*
X015696Y011652D01*
X015730Y011574D01*
X015768Y011497D01*
X015810Y011422D01*
X015854Y011348D01*
X015902Y011277D01*
X015953Y011207D01*
X016007Y011140D01*
X016063Y011076D01*
X016123Y011014D01*
X016185Y010954D01*
X016249Y010898D01*
X016316Y010844D01*
X016386Y010793D01*
X016457Y010745D01*
X016530Y010701D01*
X016606Y010659D01*
X016683Y010621D01*
X016761Y010587D01*
X016842Y010556D01*
X016923Y010528D01*
X017005Y010504D01*
X017089Y010484D01*
X017173Y010467D01*
X017258Y010454D01*
X017343Y010444D01*
X017429Y010439D01*
X017515Y010437D01*
X019483Y010437D01*
X024602Y010437D02*
X026570Y010437D01*
X026656Y010439D01*
X026742Y010444D01*
X026827Y010454D01*
X026912Y010467D01*
X026996Y010484D01*
X027080Y010504D01*
X027162Y010528D01*
X027243Y010556D01*
X027324Y010587D01*
X027402Y010621D01*
X027479Y010659D01*
X027555Y010701D01*
X027628Y010745D01*
X027699Y010793D01*
X027769Y010844D01*
X027836Y010898D01*
X027900Y010954D01*
X027962Y011014D01*
X028022Y011076D01*
X028078Y011140D01*
X028132Y011207D01*
X028183Y011277D01*
X028231Y011348D01*
X028275Y011421D01*
X028317Y011497D01*
X028355Y011574D01*
X028389Y011652D01*
X028420Y011733D01*
X028448Y011814D01*
X028472Y011896D01*
X028492Y011980D01*
X028509Y012064D01*
X028522Y012149D01*
X028532Y012234D01*
X028537Y012320D01*
X028539Y012406D01*
X028539Y014374D01*
X031491Y014374D02*
X031491Y012406D01*
X031493Y012320D01*
X031498Y012234D01*
X031508Y012149D01*
X031521Y012064D01*
X031538Y011980D01*
X031558Y011896D01*
X031582Y011814D01*
X031610Y011733D01*
X031641Y011652D01*
X031675Y011574D01*
X031713Y011497D01*
X031755Y011422D01*
X031799Y011348D01*
X031847Y011277D01*
X031898Y011207D01*
X031952Y011140D01*
X032008Y011076D01*
X032068Y011014D01*
X032130Y010954D01*
X032194Y010898D01*
X032261Y010844D01*
X032331Y010793D01*
X032402Y010745D01*
X032475Y010701D01*
X032551Y010659D01*
X032628Y010621D01*
X032706Y010587D01*
X032787Y010556D01*
X032868Y010528D01*
X032950Y010504D01*
X033034Y010484D01*
X033118Y010467D01*
X033203Y010454D01*
X033288Y010444D01*
X033374Y010439D01*
X033460Y010437D01*
X035428Y010437D01*
X040546Y010437D02*
X042515Y010437D01*
X042601Y010439D01*
X042687Y010444D01*
X042772Y010454D01*
X042857Y010467D01*
X042941Y010484D01*
X043025Y010504D01*
X043107Y010528D01*
X043188Y010556D01*
X043269Y010587D01*
X043347Y010621D01*
X043424Y010659D01*
X043500Y010701D01*
X043573Y010745D01*
X043644Y010793D01*
X043714Y010844D01*
X043781Y010898D01*
X043845Y010954D01*
X043907Y011014D01*
X043967Y011076D01*
X044023Y011140D01*
X044077Y011207D01*
X044128Y011277D01*
X044176Y011348D01*
X044220Y011421D01*
X044262Y011497D01*
X044300Y011574D01*
X044334Y011652D01*
X044365Y011733D01*
X044393Y011814D01*
X044417Y011896D01*
X044437Y011980D01*
X044454Y012064D01*
X044467Y012149D01*
X044477Y012234D01*
X044482Y012320D01*
X044484Y012406D01*
X044483Y012406D02*
X044483Y014374D01*
D12*
X048027Y010831D02*
X012200Y010831D01*
X015940Y006894D02*
X015940Y035240D01*
X012161Y031697D02*
X047987Y031697D01*
X044090Y035240D02*
X044090Y006894D01*
X031885Y006894D02*
X031885Y035240D01*
X028145Y035240D02*
X028145Y006894D01*
D13*
X028134Y005330D02*
X028037Y005233D01*
X028037Y004846D01*
X028134Y004749D01*
X028328Y004749D01*
X028424Y004846D01*
X028682Y004846D02*
X028779Y004749D01*
X028972Y004749D01*
X029069Y004846D01*
X029069Y005330D01*
X029326Y005330D02*
X029713Y005330D01*
X029520Y005330D02*
X029520Y004749D01*
X028682Y004846D02*
X028682Y005330D01*
X028424Y005233D02*
X028328Y005330D01*
X028134Y005330D01*
X027780Y005039D02*
X027393Y005039D01*
X027135Y004943D02*
X026942Y004749D01*
X026748Y004943D01*
X026748Y005330D01*
X027135Y005330D02*
X027135Y004943D01*
X030488Y004943D02*
X030682Y004749D01*
X030875Y004943D01*
X030875Y005330D01*
X030488Y005330D02*
X030488Y004943D01*
X031133Y005039D02*
X031520Y005039D01*
X031777Y004846D02*
X031874Y004749D01*
X032068Y004749D01*
X032164Y004846D01*
X032422Y004846D02*
X032519Y004749D01*
X032712Y004749D01*
X032809Y004846D01*
X032809Y005330D01*
X033067Y005330D02*
X033454Y005330D01*
X033260Y005330D02*
X033260Y004749D01*
X032422Y004846D02*
X032422Y005330D01*
X032164Y005233D02*
X032068Y005330D01*
X031874Y005330D01*
X031777Y005233D01*
X031777Y004846D01*
X042693Y004943D02*
X042887Y004749D01*
X043080Y004943D01*
X043080Y005330D01*
X042693Y005330D02*
X042693Y004943D01*
X043338Y005039D02*
X043725Y005039D01*
X043982Y004846D02*
X044079Y004749D01*
X044272Y004749D01*
X044369Y004846D01*
X044627Y004846D02*
X044723Y004749D01*
X044917Y004749D01*
X045014Y004846D01*
X045014Y005330D01*
X045271Y005330D02*
X045658Y005330D01*
X045465Y005330D02*
X045465Y004749D01*
X044627Y004846D02*
X044627Y005330D01*
X044369Y005233D02*
X044272Y005330D01*
X044079Y005330D01*
X043982Y005233D01*
X043982Y004846D01*
X049776Y010576D02*
X049970Y010770D01*
X049970Y011157D01*
X049583Y011157D02*
X049583Y010770D01*
X049776Y010576D01*
X050227Y010866D02*
X050614Y010866D01*
X050872Y010673D02*
X050969Y010576D01*
X051162Y010576D01*
X051259Y010673D01*
X051516Y010673D02*
X051613Y010576D01*
X051807Y010576D01*
X051903Y010673D01*
X051903Y011157D01*
X052161Y011157D02*
X052548Y011157D01*
X052355Y011157D02*
X052355Y010576D01*
X051516Y010673D02*
X051516Y011157D01*
X051259Y011060D02*
X051162Y011157D01*
X050969Y011157D01*
X050872Y011060D01*
X050872Y010673D01*
X050929Y031442D02*
X051123Y031442D01*
X051220Y031539D01*
X051477Y031539D02*
X051574Y031442D01*
X051767Y031442D01*
X051864Y031539D01*
X051864Y032023D01*
X052122Y032023D02*
X052509Y032023D01*
X052315Y032023D02*
X052315Y031442D01*
X051477Y031539D02*
X051477Y032023D01*
X051220Y031926D02*
X051123Y032023D01*
X050929Y032023D01*
X050833Y031926D01*
X050833Y031539D01*
X050929Y031442D01*
X050575Y031732D02*
X050188Y031732D01*
X049930Y031636D02*
X049930Y032023D01*
X049543Y032023D02*
X049543Y031636D01*
X049737Y031442D01*
X049930Y031636D01*
X017548Y005487D02*
X017161Y005487D01*
X017355Y005487D02*
X017355Y004907D01*
X016903Y005003D02*
X016903Y005487D01*
X016516Y005487D02*
X016516Y005003D01*
X016613Y004907D01*
X016807Y004907D01*
X016903Y005003D01*
X016259Y005003D02*
X016162Y004907D01*
X015969Y004907D01*
X015872Y005003D01*
X015872Y005390D01*
X015969Y005487D01*
X016162Y005487D01*
X016259Y005390D01*
X015614Y005197D02*
X015227Y005197D01*
X014970Y005100D02*
X014970Y005487D01*
X014970Y005100D02*
X014776Y004907D01*
X014583Y005100D01*
X014583Y005487D01*
D14*
X015940Y005713D02*
X015940Y006736D01*
X016176Y006500D01*
X015704Y006500D01*
X015940Y006736D01*
X027909Y006500D02*
X028381Y006500D01*
X028145Y006736D01*
X028145Y005713D01*
X027909Y006500D02*
X028145Y006736D01*
X031649Y006500D02*
X032121Y006500D01*
X031885Y006736D01*
X031885Y005713D01*
X031649Y006500D02*
X031885Y006736D01*
X043854Y006500D02*
X044326Y006500D01*
X044090Y006736D01*
X044090Y005713D01*
X043854Y006500D02*
X044090Y006736D01*
X048184Y010831D02*
X048420Y010595D01*
X048420Y011067D01*
X048184Y010831D01*
X049208Y010831D01*
X048381Y031461D02*
X048381Y031933D01*
X048145Y031697D01*
X049169Y031697D01*
X048381Y031461D02*
X048145Y031697D01*
M02*
