G75*
%MOIN*%
%OFA0B0*%
%FSLAX24Y24*%
%IPPOS*%
%LPD*%
%AMOC8*
5,1,8,0,0,1.08239X$1,22.5*
%
%ADD10C,0.0080*%
D10*
X017440Y019847D02*
X017440Y020240D01*
X017570Y020240D02*
X017309Y020240D01*
X017175Y020400D02*
X019351Y020400D01*
X019311Y020240D02*
X019114Y020240D01*
X019049Y020175D01*
X019049Y020044D01*
X019114Y019978D01*
X019311Y019978D01*
X019311Y019847D02*
X019311Y020240D01*
X019180Y019978D02*
X019049Y019847D01*
X018876Y019847D02*
X018614Y019847D01*
X018441Y019913D02*
X018375Y019847D01*
X018244Y019847D01*
X018179Y019913D01*
X018179Y019978D01*
X018244Y020044D01*
X018375Y020044D01*
X018441Y020109D01*
X018441Y020175D01*
X018375Y020240D01*
X018244Y020240D01*
X018179Y020175D01*
X018005Y020240D02*
X017744Y020240D01*
X017875Y020044D02*
X018005Y020044D01*
X018005Y020240D02*
X018005Y019847D01*
X017744Y019847D01*
X018614Y020240D02*
X018876Y020240D01*
X018876Y019847D01*
X018876Y020044D02*
X018745Y020044D01*
X017475Y021557D02*
X017213Y021557D01*
X017083Y021688D01*
X017213Y021819D01*
X017475Y021819D01*
X017475Y021992D02*
X017475Y022188D01*
X017410Y022254D01*
X017148Y022254D01*
X017083Y022188D01*
X017083Y021992D01*
X017475Y021992D01*
X017475Y022427D02*
X017083Y022427D01*
X017083Y022623D01*
X017148Y022689D01*
X017410Y022689D01*
X017475Y022623D01*
X017475Y022427D01*
X017410Y023132D02*
X017148Y023132D01*
X017083Y023197D01*
X017083Y023328D01*
X017148Y023394D01*
X017279Y023394D01*
X017279Y023263D01*
X017410Y023394D02*
X017475Y023328D01*
X017475Y023197D01*
X017410Y023132D01*
X017475Y023567D02*
X017083Y023567D01*
X017083Y023829D02*
X017475Y023829D01*
X017475Y024002D02*
X017475Y024198D01*
X017410Y024264D01*
X017148Y024264D01*
X017083Y024198D01*
X017083Y024002D01*
X017475Y024002D01*
X017083Y023829D02*
X017475Y023567D01*
X033027Y023567D02*
X033420Y023567D01*
X033027Y023829D01*
X033420Y023829D01*
X033420Y024002D02*
X033420Y024198D01*
X033355Y024264D01*
X033093Y024264D01*
X033027Y024198D01*
X033027Y024002D01*
X033420Y024002D01*
X033355Y023394D02*
X033420Y023328D01*
X033420Y023197D01*
X033355Y023132D01*
X033093Y023132D01*
X033027Y023197D01*
X033027Y023328D01*
X033093Y023394D01*
X033224Y023394D01*
X033224Y023263D01*
X033093Y022689D02*
X033355Y022689D01*
X033420Y022623D01*
X033420Y022427D01*
X033027Y022427D01*
X033027Y022623D01*
X033093Y022689D01*
X033093Y022254D02*
X033355Y022254D01*
X033420Y022188D01*
X033420Y021992D01*
X033027Y021992D01*
X033027Y022188D01*
X033093Y022254D01*
X033158Y021819D02*
X033420Y021819D01*
X033158Y021819D02*
X033027Y021688D01*
X033158Y021557D01*
X033420Y021557D01*
X033120Y020400D02*
X035295Y020400D01*
X035255Y020240D02*
X035059Y020240D01*
X034994Y020175D01*
X034994Y020044D01*
X035059Y019978D01*
X035255Y019978D01*
X035124Y019978D02*
X034994Y019847D01*
X034820Y019847D02*
X034559Y019847D01*
X034385Y019913D02*
X034320Y019847D01*
X034189Y019847D01*
X034124Y019913D01*
X034124Y019978D01*
X034189Y020044D01*
X034320Y020044D01*
X034385Y020109D01*
X034385Y020175D01*
X034320Y020240D01*
X034189Y020240D01*
X034124Y020175D01*
X033950Y020240D02*
X033689Y020240D01*
X033515Y020240D02*
X033253Y020240D01*
X033384Y020240D02*
X033384Y019847D01*
X033689Y019847D02*
X033950Y019847D01*
X033950Y020240D01*
X033950Y020044D02*
X033819Y020044D01*
X034559Y020240D02*
X034820Y020240D01*
X034820Y019847D01*
X034820Y020044D02*
X034689Y020044D01*
X035255Y020240D02*
X035255Y019847D01*
M02*
