G75*
%MOIN*%
%OFA0B0*%
%FSLAX25Y25*%
%IPPOS*%
%LPD*%
%AMOC8*
5,1,8,0,0,1.08239X$1,22.5*
%
%ADD10C,0.12992*%
%ADD11R,0.01575X0.01575*%
%ADD12C,0.16142*%
%ADD13R,0.04331X0.01181*%
%ADD14R,0.01181X0.04331*%
%ADD15R,0.12205X0.12205*%
%ADD16R,0.07480X0.05118*%
%ADD17R,0.03150X0.03150*%
%ADD18R,0.04331X0.03543*%
%ADD19R,0.09055X0.02756*%
%ADD20R,0.09055X0.02559*%
%ADD21OC8,0.06331*%
%ADD22R,0.05118X0.02756*%
%ADD23R,0.04724X0.02362*%
%ADD24OC8,0.08894*%
%ADD25C,0.03494*%
%ADD26C,0.04294*%
%ADD27R,0.04331X0.05118*%
%ADD28C,0.08268*%
%ADD29R,0.15748X0.15748*%
%ADD30R,0.01969X0.02756*%
%ADD31R,0.02756X0.01969*%
D10*
X0083708Y0102240D03*
X0174259Y0102240D03*
X0245125Y0102240D03*
X0335676Y0102240D03*
D11*
X0280558Y0217594D03*
X0119141Y0217594D03*
D12*
X0048275Y0066807D03*
X0048275Y0314839D03*
X0373078Y0314839D03*
X0373078Y0066807D03*
D13*
X0305361Y0209720D03*
X0305361Y0211295D03*
X0305361Y0212870D03*
X0305361Y0214445D03*
X0305361Y0216020D03*
X0305361Y0217594D03*
X0305361Y0219169D03*
X0305361Y0220744D03*
X0305361Y0222319D03*
X0305361Y0223894D03*
X0284889Y0223894D03*
X0284889Y0222319D03*
X0284889Y0220744D03*
X0284889Y0219169D03*
X0284889Y0217594D03*
X0284889Y0216020D03*
X0284889Y0214445D03*
X0284889Y0212870D03*
X0284889Y0211295D03*
X0284889Y0209720D03*
X0143944Y0209720D03*
X0143944Y0211295D03*
X0143944Y0212870D03*
X0143944Y0214445D03*
X0143944Y0216020D03*
X0143944Y0217594D03*
X0143944Y0219169D03*
X0143944Y0220744D03*
X0143944Y0222319D03*
X0143944Y0223894D03*
X0123472Y0223894D03*
X0123472Y0222319D03*
X0123472Y0220744D03*
X0123472Y0219169D03*
X0123472Y0217594D03*
X0123472Y0216020D03*
X0123472Y0214445D03*
X0123472Y0212870D03*
X0123472Y0211295D03*
X0123472Y0209720D03*
D14*
X0126621Y0206571D03*
X0128196Y0206571D03*
X0129771Y0206571D03*
X0131346Y0206571D03*
X0132921Y0206571D03*
X0134495Y0206571D03*
X0136070Y0206571D03*
X0137645Y0206571D03*
X0139220Y0206571D03*
X0140795Y0206571D03*
X0140795Y0227043D03*
X0139220Y0227043D03*
X0137645Y0227043D03*
X0136070Y0227043D03*
X0134495Y0227043D03*
X0132921Y0227043D03*
X0131346Y0227043D03*
X0129771Y0227043D03*
X0128196Y0227043D03*
X0126621Y0227043D03*
X0288039Y0227043D03*
X0289613Y0227043D03*
X0291188Y0227043D03*
X0292763Y0227043D03*
X0294338Y0227043D03*
X0295913Y0227043D03*
X0297487Y0227043D03*
X0299062Y0227043D03*
X0300637Y0227043D03*
X0302212Y0227043D03*
X0302212Y0206571D03*
X0300637Y0206571D03*
X0299062Y0206571D03*
X0297487Y0206571D03*
X0295913Y0206571D03*
X0294338Y0206571D03*
X0292763Y0206571D03*
X0291188Y0206571D03*
X0289613Y0206571D03*
X0288039Y0206571D03*
D15*
X0295125Y0216807D03*
X0133708Y0216807D03*
D16*
X0123078Y0199091D03*
X0123078Y0188067D03*
X0284495Y0188067D03*
X0284495Y0199091D03*
D17*
X0293550Y0199484D03*
X0293550Y0194760D03*
X0304968Y0195941D03*
X0304968Y0200665D03*
X0275047Y0214839D03*
X0275047Y0219563D03*
X0257330Y0213657D03*
X0257330Y0208933D03*
X0244732Y0208933D03*
X0244732Y0213657D03*
X0244732Y0186492D03*
X0249456Y0186492D03*
X0253787Y0186492D03*
X0258511Y0186492D03*
X0302999Y0173500D03*
X0307724Y0173500D03*
X0295913Y0240035D03*
X0295913Y0244366D03*
X0295913Y0249091D03*
X0295913Y0253421D03*
X0291188Y0253421D03*
X0291188Y0240035D03*
X0146306Y0173500D03*
X0141582Y0173500D03*
X0132133Y0194760D03*
X0132133Y0199484D03*
X0143550Y0200665D03*
X0143550Y0195941D03*
X0113629Y0214839D03*
X0113629Y0219563D03*
X0095913Y0213657D03*
X0095913Y0208933D03*
X0083314Y0208933D03*
X0083314Y0213657D03*
X0083314Y0186492D03*
X0088039Y0186492D03*
X0092369Y0186492D03*
X0097094Y0186492D03*
X0129771Y0240035D03*
X0134495Y0240035D03*
X0134495Y0244366D03*
X0134495Y0249091D03*
X0134495Y0253421D03*
X0129771Y0253421D03*
D18*
X0149850Y0207752D03*
X0149850Y0200665D03*
X0311267Y0200665D03*
X0311267Y0207752D03*
D19*
X0311267Y0167988D03*
X0311267Y0153028D03*
X0289220Y0153028D03*
X0289220Y0167988D03*
X0149850Y0167988D03*
X0149850Y0153028D03*
X0127802Y0153028D03*
X0127802Y0167988D03*
D20*
X0127802Y0162969D03*
X0127802Y0158047D03*
X0149850Y0158047D03*
X0149850Y0162969D03*
X0289220Y0162969D03*
X0289220Y0158047D03*
X0311267Y0158047D03*
X0311267Y0162969D03*
D21*
X0345401Y0159917D03*
X0345401Y0149917D03*
X0345401Y0139917D03*
X0345401Y0129917D03*
X0345401Y0119917D03*
X0345401Y0169917D03*
X0345401Y0179917D03*
X0345401Y0189917D03*
X0345401Y0199917D03*
X0345401Y0209917D03*
X0345401Y0219917D03*
X0345401Y0229917D03*
X0345401Y0239917D03*
X0345401Y0249917D03*
X0235401Y0249917D03*
X0235401Y0239917D03*
X0235401Y0229917D03*
X0235401Y0219917D03*
X0235401Y0209917D03*
X0235401Y0199917D03*
X0235401Y0189917D03*
X0235401Y0179917D03*
X0235401Y0169917D03*
X0235401Y0159917D03*
X0235401Y0149917D03*
X0235401Y0139917D03*
X0235401Y0129917D03*
X0235401Y0119917D03*
X0183984Y0119917D03*
X0183984Y0129917D03*
X0183984Y0139917D03*
X0183984Y0149917D03*
X0183984Y0159917D03*
X0183984Y0169917D03*
X0183984Y0179917D03*
X0183984Y0189917D03*
X0183984Y0199917D03*
X0183984Y0209917D03*
X0183984Y0219917D03*
X0183984Y0229917D03*
X0183984Y0239917D03*
X0183984Y0249917D03*
X0073984Y0249917D03*
X0073984Y0239917D03*
X0073984Y0229917D03*
X0073984Y0219917D03*
X0073984Y0209917D03*
X0073984Y0199917D03*
X0073984Y0189917D03*
X0073984Y0179917D03*
X0073984Y0169917D03*
X0073984Y0159917D03*
X0073984Y0149917D03*
X0073984Y0139917D03*
X0073984Y0129917D03*
X0073984Y0119917D03*
D22*
X0083314Y0195744D03*
X0083314Y0199484D03*
X0083314Y0203224D03*
X0095913Y0203224D03*
X0095913Y0195744D03*
X0244732Y0195744D03*
X0244732Y0199484D03*
X0244732Y0203224D03*
X0257330Y0203224D03*
X0257330Y0195744D03*
D23*
X0255361Y0180390D03*
X0255361Y0172909D03*
X0244338Y0172909D03*
X0244338Y0176650D03*
X0244338Y0180390D03*
X0093944Y0180390D03*
X0093944Y0172909D03*
X0082921Y0172909D03*
X0082921Y0176650D03*
X0082921Y0180390D03*
D24*
X0156936Y0100272D03*
X0318354Y0100272D03*
D25*
X0316641Y0179917D03*
X0321641Y0179917D03*
X0321641Y0184917D03*
X0316641Y0184917D03*
X0316641Y0189917D03*
X0321641Y0189917D03*
X0160224Y0189917D03*
X0155224Y0189917D03*
X0155224Y0184917D03*
X0155224Y0179917D03*
X0160224Y0179917D03*
X0160224Y0184917D03*
D26*
X0161724Y0194917D03*
X0153724Y0194917D03*
X0157724Y0174917D03*
X0315141Y0194917D03*
X0323141Y0194917D03*
X0319141Y0174917D03*
D27*
X0316582Y0226846D03*
X0323275Y0226846D03*
X0323275Y0235114D03*
X0316582Y0235114D03*
X0161858Y0235114D03*
X0155165Y0235114D03*
X0155165Y0226846D03*
X0161858Y0226846D03*
D28*
X0087645Y0314839D03*
X0087645Y0066807D03*
X0312054Y0066807D03*
D29*
X0312054Y0066807D03*
X0087645Y0066807D03*
X0087645Y0314839D03*
D30*
X0147881Y0196335D03*
X0309298Y0196335D03*
D31*
X0317960Y0240035D03*
X0156543Y0240035D03*
M02*
