G75*
%MOIN*%
%OFA0B0*%
%FSLAX24Y24*%
%IPPOS*%
%LPD*%
%AMOC8*
5,1,8,0,0,1.08239X$1,22.5*
%
%ADD10C,0.1299*%
%ADD11C,0.1614*%
%ADD12OC8,0.0633*%
%ADD13OC8,0.0889*%
%ADD14C,0.0429*%
D10*
X017712Y012406D03*
X026767Y012406D03*
X033854Y012406D03*
X042909Y012406D03*
D11*
X014169Y008862D03*
X046649Y008862D03*
X046649Y033666D03*
X014169Y033666D03*
D12*
X016739Y027173D03*
X016739Y026173D03*
X016739Y025173D03*
X016739Y024173D03*
X016739Y023173D03*
X016739Y022173D03*
X016739Y021173D03*
X016739Y020173D03*
X016739Y019173D03*
X016739Y018173D03*
X016739Y017173D03*
X016739Y016173D03*
X016739Y015173D03*
X016739Y014173D03*
X027739Y014173D03*
X027739Y015173D03*
X027739Y016173D03*
X027739Y017173D03*
X027739Y018173D03*
X027739Y019173D03*
X027739Y020173D03*
X027739Y021173D03*
X027739Y022173D03*
X027739Y023173D03*
X027739Y024173D03*
X027739Y025173D03*
X027739Y026173D03*
X027739Y027173D03*
X032881Y027173D03*
X032881Y026173D03*
X032881Y025173D03*
X032881Y024173D03*
X032881Y023173D03*
X032881Y022173D03*
X032881Y021173D03*
X032881Y020173D03*
X032881Y019173D03*
X032881Y018173D03*
X032881Y017173D03*
X032881Y016173D03*
X032881Y015173D03*
X032881Y014173D03*
X043881Y014173D03*
X043881Y015173D03*
X043881Y016173D03*
X043881Y017173D03*
X043881Y018173D03*
X043881Y019173D03*
X043881Y020173D03*
X043881Y021173D03*
X043881Y022173D03*
X043881Y023173D03*
X043881Y024173D03*
X043881Y025173D03*
X043881Y026173D03*
X043881Y027173D03*
D13*
X041176Y012209D03*
X025035Y012209D03*
D14*
X025113Y019673D03*
X024713Y021673D03*
X025513Y021673D03*
X040855Y021673D03*
X041655Y021673D03*
X041255Y019673D03*
M02*
