%
M48
M72
T01C0.0118
T02C0.0390
T03C0.0394
T04C0.0520
T05C0.1260
T06C0.1575
%
T01
X41728Y24650
X41728Y25201
X41176Y24335
X42476Y20437
X43735Y21658
X40310Y24177
X40113Y24689
X40192Y24965
X39798Y25201
X39365Y25083
X39877Y24177
X40704Y24177
X38893Y23862
X38460Y23429
X38027Y23862
X38460Y24296
X37594Y25910
X37751Y26185
X38224Y25831
X38854Y25673
X38893Y26028
X38893Y26382
X39326Y26225
X40153Y26028
X40389Y26264
X40625Y26500
X40980Y26422
X41255Y26225
X41649Y26185
X41728Y25752
X41019Y27130
X41609Y27918
X42948Y27288
X42161Y26500
X41924Y27130
X43814Y13705
X43814Y27563
X43814Y27918
X43184Y27918
X43184Y27563
X42397Y27918
X40822Y27918
X40035Y27918
X39444Y27918
X38893Y27918
X38184Y27130
X38184Y26579
X38893Y27170
X38184Y27918
X37712Y27918
X37751Y27524
X37161Y27918
X36491Y27918
X35783Y27918
X34995Y27918
X34208Y27918
X33420Y27918
X32791Y27563
X33696Y26658
X32239Y25673
X33775Y24925
X34680Y25910
X35113Y24925
X35074Y24177
X35074Y23548
X34326Y23548
X33775Y23548
X32239Y23666
X32239Y24689
X32830Y24768
X34365Y23036
X34365Y22760
X33972Y22130
X33342Y21461
X33342Y21146
X32161Y20555
X32239Y19689
X33854Y18784
X34405Y18941
X34838Y19532
X35035Y19768
X34444Y19807
X34444Y20516
X35074Y20516
X35074Y21146
X35074Y21500
X35074Y22288
X36334Y23429
X36767Y24059
X38302Y22445
X39129Y22248
X39483Y22681
X40625Y22681
X39444Y21422
X39405Y20831
X39720Y20516
X40035Y20673
X40271Y20477
X40153Y20122
X38932Y19532
X38932Y19807
X38735Y20398
X38617Y21028
X38617Y21658
X37672Y20555
X37515Y20201
X37121Y20122
X37121Y20555
X37121Y19492
X37239Y18469
X37239Y17485
X39365Y17996
X38617Y17485
X40783Y17799
X41098Y17406
X41885Y16697
X43735Y16658
X43735Y15673
X42633Y13705
X43184Y13705
X43735Y14650
X41767Y13705
X40940Y13705
X38499Y13705
X37712Y13705
X36924Y13705
X36137Y13705
X35271Y13705
X34483Y13705
X33696Y13705
X32830Y13705
X32161Y13705
X32239Y14689
X32239Y17681
X32239Y18666
X33814Y19492
X36019Y25910
X32633Y27918
X32161Y27918
X32161Y27642
X32239Y26697
X27869Y13705
X27239Y13705
X25822Y13705
X24995Y13705
X22554Y13705
X21767Y13705
X20980Y13705
X20192Y13705
X19326Y13705
X18539Y13705
X17751Y13705
X16216Y13705
X16885Y13705
X16294Y14689
X17909Y18784
X18460Y18941
X18499Y19807
X18893Y19532
X19090Y19768
X19129Y20516
X18499Y20516
X17397Y21146
X17397Y21461
X17830Y23548
X18381Y23548
X18420Y23036
X18420Y22760
X19129Y23548
X20389Y23429
X20822Y24059
X19129Y24177
X19169Y24925
X17830Y24925
X16294Y25673
X17751Y26658
X16846Y27563
X16688Y27918
X16216Y27918
X16216Y27642
X16294Y26697
X17476Y27918
X18263Y27918
X19050Y27918
X19838Y27918
X20546Y27918
X21216Y27918
X21767Y27918
X21806Y27524
X22239Y27130
X22239Y26579
X22279Y25831
X21806Y26185
X21649Y25910
X22948Y26382
X22948Y26028
X22909Y25673
X23381Y26225
X24208Y26028
X24444Y26264
X24680Y26500
X25035Y26422
X25310Y26225
X25704Y26185
X25783Y25752
X25783Y25201
X25783Y24650
X26531Y20437
X24365Y24177
X24169Y24689
X24247Y24965
X25231Y24335
X24759Y24177
X23932Y24177
X23420Y25083
X23854Y25201
X24208Y25595
X25074Y27130
X25665Y27918
X27003Y27288
X26216Y26500
X25980Y27130
X27239Y27918
X27239Y27563
X27869Y27563
X27869Y27918
X27791Y26658
X26767Y26146
X27239Y25555
X27791Y25673
X27791Y24689
X27791Y23666
X27791Y22681
X27791Y21658
X27712Y20673
X27279Y20673
X26924Y19886
X26688Y19650
X26373Y18626
X25546Y18508
X25980Y20122
X27869Y19532
X27791Y18666
X27239Y18666
X25940Y16697
X27791Y16658
X27791Y15673
X24995Y16067
X22987Y19532
X22987Y19807
X22791Y20398
X23460Y20831
X23775Y20516
X24090Y20673
X24326Y20477
X24208Y20122
X24169Y19453
X24326Y20870
X23499Y21422
X23184Y22248
X23539Y22681
X24680Y22681
X22948Y23862
X22515Y23429
X22082Y23862
X22515Y24296
X20074Y25910
X18735Y25910
X16294Y24689
X16885Y24768
X16294Y23666
X18027Y22130
X19129Y22288
X19129Y21500
X19129Y21146
X16216Y20555
X16294Y19689
X17869Y19492
X21294Y18469
X21176Y19492
X21176Y20122
X21570Y20201
X21728Y20555
X21176Y20555
X22672Y21028
X22672Y21658
X22357Y22445
X22948Y27170
X22948Y27918
X23499Y27918
X24090Y27918
X24877Y27918
X24405Y27130
X23972Y26815
X22239Y27918
X26452Y27918
X40350Y27130
X39917Y26815
X40153Y25595
X43184Y25555
X42712Y26146
X43735Y25673
X43735Y24689
X43735Y23666
X43735Y22681
X43657Y20673
X43224Y20673
X42869Y19886
X42633Y19650
X42318Y18626
X43184Y18666
X43735Y18666
X43814Y19532
X41924Y20122
X41491Y18508
X40940Y16067
X43735Y17642
X40113Y19453
X40271Y20870
X32239Y16658
X32239Y15673
X39365Y13705
X40153Y13705
X27791Y14650
X26688Y13705
X24208Y13705
X23420Y13705
X16294Y15673
X16294Y16658
X16294Y17681
X16294Y18666
X21294Y17485
X22672Y17485
X23420Y17996
X24838Y17799
X25153Y17406
X27791Y17642
X43735Y26658
T02
X40861Y19673
X25317Y21673
X24517Y21673
X24917Y19673
X40461Y21673
X41261Y21673
T03
X32487Y26173
X32487Y24173
X32487Y25173
X32487Y22173
X43487Y21173
X43487Y20173
X43487Y19173
X43487Y18173
X43487Y17173
X43487Y15173
X32487Y15173
X32487Y21173
X32487Y20173
X32487Y19173
X32487Y18173
X32487Y17173
X32487Y16173
X32487Y14173
X27543Y21173
X27543Y19173
X27543Y20173
X27543Y18173
X27543Y17173
X27543Y16173
X27543Y15173
X27543Y14173
X16543Y14173
X16543Y15173
X16543Y21173
X16543Y22173
X16543Y23173
X27543Y26173
X27543Y25173
X27543Y24173
X27543Y23173
X27543Y22173
X16543Y19173
X16543Y20173
X16543Y18173
X16543Y17173
X16543Y16173
X32487Y23173
X43487Y22173
X43487Y23173
X43487Y24173
X43487Y25173
X43487Y27173
X43487Y26173
X43487Y16173
X43487Y14173
X27543Y27173
X32487Y27173
X16543Y26173
X16543Y24173
X16543Y25173
X16543Y27173
T04
X40783Y12209
X24838Y12209
T05
X17515Y12406
X26570Y12406
X42515Y12406
X33460Y12406
T06
X13972Y8862
X46255Y8862
X13972Y33272
X46255Y33272
M30
