G75*
%MOIN*%
%OFA0B0*%
%FSLAX24Y24*%
%IPPOS*%
%LPD*%
%AMOC8*
5,1,8,0,0,1.08239X$1,22.5*
%
%ADD10C,0.1340*%
%ADD11C,0.1655*%
%ADD12OC8,0.0674*%
%ADD13OC8,0.0930*%
%ADD14C,0.0470*%
D10*
X017515Y012406D03*
X026570Y012406D03*
X033460Y012406D03*
X042515Y012406D03*
D11*
X013972Y008862D03*
X046255Y008862D03*
X046255Y033272D03*
X013972Y033272D03*
D12*
X016543Y027173D03*
X016543Y026173D03*
X016543Y025173D03*
X016543Y024173D03*
X016543Y023173D03*
X016543Y022173D03*
X016543Y021173D03*
X016543Y020173D03*
X016543Y019173D03*
X016543Y018173D03*
X016543Y017173D03*
X016543Y016173D03*
X016543Y015173D03*
X016543Y014173D03*
X027543Y014173D03*
X027543Y015173D03*
X027543Y016173D03*
X027543Y017173D03*
X027543Y018173D03*
X027543Y019173D03*
X027543Y020173D03*
X027543Y021173D03*
X027543Y022173D03*
X027543Y023173D03*
X027543Y024173D03*
X027543Y025173D03*
X027543Y026173D03*
X027543Y027173D03*
X032487Y027173D03*
X032487Y026173D03*
X032487Y025173D03*
X032487Y024173D03*
X032487Y023173D03*
X032487Y022173D03*
X032487Y021173D03*
X032487Y020173D03*
X032487Y019173D03*
X032487Y018173D03*
X032487Y017173D03*
X032487Y016173D03*
X032487Y015173D03*
X032487Y014173D03*
X043487Y014173D03*
X043487Y015173D03*
X043487Y016173D03*
X043487Y017173D03*
X043487Y018173D03*
X043487Y019173D03*
X043487Y020173D03*
X043487Y021173D03*
X043487Y022173D03*
X043487Y023173D03*
X043487Y024173D03*
X043487Y025173D03*
X043487Y026173D03*
X043487Y027173D03*
D13*
X040783Y012209D03*
X024838Y012209D03*
D14*
X024917Y019673D03*
X025317Y021673D03*
X024517Y021673D03*
X040461Y021673D03*
X041261Y021673D03*
X040861Y019673D03*
M02*
