G75*
%MOIN*%
%OFA0B0*%
%FSLAX24Y24*%
%IPPOS*%
%LPD*%
%AMOC8*
5,1,8,0,0,1.08239X$1,22.5*
%
%ADD10C,0.0080*%
%ADD11R,0.1142X0.0315*%
%ADD12R,0.1260X0.0315*%
%ADD13C,0.0315*%
%ADD14C,0.0236*%
%ADD15C,0.0472*%
%ADD16C,0.0315*%
%ADD17C,0.0098*%
%ADD18C,0.0157*%
D10*
X006381Y006541D02*
X006590Y006541D01*
X006727Y006593D02*
X006832Y006593D01*
X006779Y006593D02*
X006779Y006907D01*
X006727Y006907D02*
X006832Y006907D01*
X006985Y006907D02*
X007194Y006698D01*
X007142Y006750D02*
X006985Y006593D01*
X007194Y006593D02*
X007194Y006907D01*
X007347Y006907D02*
X007347Y006645D01*
X007400Y006593D01*
X007504Y006593D01*
X007557Y006645D01*
X007557Y006907D01*
X007710Y006907D02*
X007710Y006855D01*
X007919Y006645D01*
X007919Y006593D01*
X007710Y006593D01*
X007710Y006907D02*
X007919Y006907D01*
X008125Y006907D02*
X008125Y006593D01*
X008072Y006750D02*
X008282Y006750D01*
X008125Y006907D01*
X008435Y006907D02*
X008644Y006698D01*
X008592Y006750D02*
X008435Y006593D01*
X008644Y006593D02*
X008644Y006907D01*
X008797Y006541D02*
X009007Y006541D01*
X009160Y006645D02*
X009212Y006593D01*
X009317Y006593D01*
X009369Y006645D01*
X009369Y006855D01*
X009317Y006907D01*
X009212Y006907D01*
X009160Y006855D01*
X009160Y006750D01*
X009212Y006698D01*
X009212Y006802D01*
X009317Y006802D01*
X009317Y006698D01*
X009212Y006698D01*
X010503Y006763D02*
X010503Y006815D01*
X010555Y006868D01*
X010660Y006868D01*
X010712Y006815D01*
X010866Y006815D02*
X011075Y006606D01*
X011023Y006554D01*
X010918Y006554D01*
X010866Y006606D01*
X010866Y006815D01*
X010918Y006868D01*
X011023Y006868D01*
X011075Y006815D01*
X011075Y006606D01*
X011220Y006763D02*
X011272Y006763D01*
X011377Y006658D01*
X011377Y006554D02*
X011377Y006763D01*
X010712Y006554D02*
X010503Y006763D01*
X010503Y006554D02*
X010712Y006554D01*
X016617Y006541D02*
X016826Y006541D01*
X016963Y006593D02*
X017068Y006593D01*
X017015Y006593D02*
X017015Y006907D01*
X016963Y006907D02*
X017068Y006907D01*
X017221Y006907D02*
X017430Y006698D01*
X017378Y006750D02*
X017221Y006593D01*
X017430Y006593D02*
X017430Y006907D01*
X017583Y006907D02*
X017583Y006645D01*
X017636Y006593D01*
X017740Y006593D01*
X017793Y006645D01*
X017793Y006907D01*
X017946Y006907D02*
X017946Y006855D01*
X018155Y006645D01*
X018155Y006593D01*
X017946Y006593D01*
X017946Y006907D02*
X018155Y006907D01*
X018361Y006907D02*
X018361Y006593D01*
X018308Y006750D02*
X018518Y006750D01*
X018361Y006907D01*
X018671Y006907D02*
X018880Y006698D01*
X018828Y006750D02*
X018671Y006593D01*
X018880Y006593D02*
X018880Y006907D01*
X019034Y006541D02*
X019243Y006541D01*
X019396Y006645D02*
X019448Y006593D01*
X019553Y006593D01*
X019605Y006645D01*
X019605Y006855D01*
X019553Y006907D01*
X019448Y006907D01*
X019396Y006855D01*
X019396Y006750D01*
X019448Y006698D01*
X019448Y006802D01*
X019553Y006802D01*
X019553Y006698D01*
X019448Y006698D01*
X020739Y006763D02*
X020739Y006815D01*
X020792Y006868D01*
X020896Y006868D01*
X020949Y006815D01*
X021102Y006815D02*
X021102Y006606D01*
X021154Y006554D01*
X021259Y006554D01*
X021311Y006606D01*
X021102Y006815D01*
X021154Y006868D01*
X021259Y006868D01*
X021311Y006815D01*
X021311Y006606D01*
X021456Y006763D02*
X021509Y006763D01*
X021613Y006658D01*
X021613Y006554D02*
X021613Y006763D01*
X020949Y006554D02*
X020739Y006763D01*
X020739Y006554D02*
X020949Y006554D01*
X020949Y012459D02*
X020739Y012669D01*
X020739Y012721D01*
X020792Y012773D01*
X020896Y012773D01*
X020949Y012721D01*
X021102Y012721D02*
X021102Y012512D01*
X021154Y012459D01*
X021259Y012459D01*
X021311Y012512D01*
X021102Y012721D01*
X021154Y012773D01*
X021259Y012773D01*
X021311Y012721D01*
X021311Y012512D01*
X021456Y012669D02*
X021509Y012669D01*
X021613Y012564D01*
X021613Y012459D02*
X021613Y012669D01*
X020949Y012459D02*
X020739Y012459D01*
X019605Y012551D02*
X019605Y012760D01*
X019553Y012813D01*
X019448Y012813D01*
X019396Y012760D01*
X019396Y012656D01*
X019448Y012603D01*
X019448Y012708D01*
X019553Y012708D01*
X019553Y012603D01*
X019448Y012603D01*
X019396Y012551D02*
X019448Y012499D01*
X019553Y012499D01*
X019605Y012551D01*
X019243Y012446D02*
X019034Y012446D01*
X018880Y012499D02*
X018880Y012813D01*
X018828Y012656D02*
X018671Y012499D01*
X018518Y012656D02*
X018361Y012813D01*
X018361Y012499D01*
X018308Y012656D02*
X018518Y012656D01*
X018671Y012813D02*
X018880Y012603D01*
X018155Y012551D02*
X018155Y012499D01*
X017946Y012499D01*
X017793Y012551D02*
X017793Y012813D01*
X017946Y012813D02*
X017946Y012760D01*
X018155Y012551D01*
X018155Y012813D02*
X017946Y012813D01*
X017793Y012551D02*
X017740Y012499D01*
X017636Y012499D01*
X017583Y012551D01*
X017583Y012813D01*
X017430Y012813D02*
X017430Y012499D01*
X017430Y012603D02*
X017221Y012813D01*
X017068Y012813D02*
X016963Y012813D01*
X017015Y012813D02*
X017015Y012499D01*
X016963Y012499D02*
X017068Y012499D01*
X017221Y012499D02*
X017378Y012656D01*
X016826Y012446D02*
X016617Y012446D01*
X011377Y012459D02*
X011377Y012669D01*
X011272Y012669D02*
X011220Y012669D01*
X011272Y012669D02*
X011377Y012564D01*
X011075Y012512D02*
X011075Y012721D01*
X011023Y012773D01*
X010918Y012773D01*
X010866Y012721D01*
X011075Y012512D01*
X011023Y012459D01*
X010918Y012459D01*
X010866Y012512D01*
X010866Y012721D01*
X010712Y012721D02*
X010660Y012773D01*
X010555Y012773D01*
X010503Y012721D01*
X010503Y012669D01*
X010712Y012459D01*
X010503Y012459D01*
X009369Y012551D02*
X009369Y012760D01*
X009317Y012813D01*
X009212Y012813D01*
X009160Y012760D01*
X009160Y012656D01*
X009212Y012603D01*
X009212Y012708D01*
X009317Y012708D01*
X009317Y012603D01*
X009212Y012603D01*
X009160Y012551D02*
X009212Y012499D01*
X009317Y012499D01*
X009369Y012551D01*
X009007Y012446D02*
X008797Y012446D01*
X008644Y012499D02*
X008644Y012813D01*
X008592Y012656D02*
X008435Y012499D01*
X008282Y012656D02*
X008072Y012656D01*
X008125Y012499D02*
X008125Y012813D01*
X008282Y012656D01*
X008435Y012813D02*
X008644Y012603D01*
X007919Y012551D02*
X007919Y012499D01*
X007710Y012499D01*
X007557Y012551D02*
X007557Y012813D01*
X007710Y012813D02*
X007710Y012760D01*
X007919Y012551D01*
X007919Y012813D02*
X007710Y012813D01*
X007557Y012551D02*
X007504Y012499D01*
X007400Y012499D01*
X007347Y012551D01*
X007347Y012813D01*
X007194Y012813D02*
X007194Y012499D01*
X007194Y012603D02*
X006985Y012813D01*
X006832Y012813D02*
X006727Y012813D01*
X006779Y012813D02*
X006779Y012499D01*
X006727Y012499D02*
X006832Y012499D01*
X006985Y012499D02*
X007142Y012656D01*
X006590Y012446D02*
X006381Y012446D01*
X006381Y018352D02*
X006590Y018352D01*
X006727Y018404D02*
X006832Y018404D01*
X006779Y018404D02*
X006779Y018718D01*
X006727Y018718D02*
X006832Y018718D01*
X006985Y018718D02*
X007194Y018509D01*
X007142Y018561D02*
X006985Y018404D01*
X007194Y018404D02*
X007194Y018718D01*
X007347Y018718D02*
X007347Y018456D01*
X007400Y018404D01*
X007504Y018404D01*
X007557Y018456D01*
X007557Y018718D01*
X007710Y018718D02*
X007710Y018666D01*
X007919Y018456D01*
X007919Y018404D01*
X007710Y018404D01*
X008072Y018561D02*
X008282Y018561D01*
X008125Y018718D01*
X008125Y018404D01*
X008435Y018404D02*
X008592Y018561D01*
X008644Y018509D02*
X008435Y018718D01*
X008644Y018718D02*
X008644Y018404D01*
X008797Y018352D02*
X009007Y018352D01*
X009160Y018456D02*
X009212Y018404D01*
X009317Y018404D01*
X009369Y018456D01*
X009369Y018666D01*
X009317Y018718D01*
X009212Y018718D01*
X009160Y018666D01*
X009160Y018561D01*
X009212Y018509D01*
X009212Y018613D01*
X009317Y018613D01*
X009317Y018509D01*
X009212Y018509D01*
X010503Y018574D02*
X010503Y018626D01*
X010555Y018679D01*
X010660Y018679D01*
X010712Y018626D01*
X010866Y018626D02*
X011075Y018417D01*
X011023Y018365D01*
X010918Y018365D01*
X010866Y018417D01*
X010866Y018626D01*
X010918Y018679D01*
X011023Y018679D01*
X011075Y018626D01*
X011075Y018417D01*
X011220Y018574D02*
X011272Y018574D01*
X011377Y018469D01*
X011377Y018365D02*
X011377Y018574D01*
X010712Y018365D02*
X010503Y018574D01*
X010503Y018365D02*
X010712Y018365D01*
X007919Y018718D02*
X007710Y018718D01*
X016617Y018352D02*
X016826Y018352D01*
X016963Y018404D02*
X017068Y018404D01*
X017015Y018404D02*
X017015Y018718D01*
X016963Y018718D02*
X017068Y018718D01*
X017221Y018718D02*
X017430Y018509D01*
X017378Y018561D02*
X017221Y018404D01*
X017430Y018404D02*
X017430Y018718D01*
X017583Y018718D02*
X017583Y018456D01*
X017636Y018404D01*
X017740Y018404D01*
X017793Y018456D01*
X017793Y018718D01*
X017946Y018718D02*
X017946Y018666D01*
X018155Y018456D01*
X018155Y018404D01*
X017946Y018404D01*
X018308Y018561D02*
X018518Y018561D01*
X018361Y018718D01*
X018361Y018404D01*
X018671Y018404D02*
X018828Y018561D01*
X018880Y018509D02*
X018671Y018718D01*
X018880Y018718D02*
X018880Y018404D01*
X019034Y018352D02*
X019243Y018352D01*
X019396Y018456D02*
X019448Y018404D01*
X019553Y018404D01*
X019605Y018456D01*
X019605Y018666D01*
X019553Y018718D01*
X019448Y018718D01*
X019396Y018666D01*
X019396Y018561D01*
X019448Y018509D01*
X019448Y018613D01*
X019553Y018613D01*
X019553Y018509D01*
X019448Y018509D01*
X020739Y018574D02*
X020739Y018626D01*
X020792Y018679D01*
X020896Y018679D01*
X020949Y018626D01*
X021102Y018626D02*
X021154Y018679D01*
X021259Y018679D01*
X021311Y018626D01*
X021311Y018417D01*
X021102Y018626D01*
X021102Y018417D01*
X021154Y018365D01*
X021259Y018365D01*
X021311Y018417D01*
X021456Y018574D02*
X021509Y018574D01*
X021613Y018469D01*
X021613Y018365D02*
X021613Y018574D01*
X020949Y018365D02*
X020739Y018574D01*
X020739Y018365D02*
X020949Y018365D01*
X018155Y018718D02*
X017946Y018718D01*
D11*
X005216Y006711D03*
X005216Y007144D03*
X005216Y008010D03*
X005216Y008876D03*
X005216Y009309D03*
X005216Y009742D03*
X005216Y012616D03*
X005216Y013049D03*
X005216Y013915D03*
X005216Y014781D03*
X005216Y015215D03*
X005216Y015648D03*
X005216Y018522D03*
X005216Y018955D03*
X005216Y019821D03*
X005216Y020687D03*
X005216Y021120D03*
X005216Y021553D03*
X015452Y021553D03*
X015452Y021120D03*
X015452Y020687D03*
X015452Y019821D03*
X015452Y018955D03*
X015452Y018522D03*
X015452Y015648D03*
X015452Y015215D03*
X015452Y014781D03*
X015452Y013915D03*
X015452Y013049D03*
X015452Y012616D03*
X015452Y009742D03*
X015452Y009309D03*
X015452Y008876D03*
X015452Y008010D03*
X015452Y007144D03*
X015452Y006711D03*
D12*
X015393Y007577D03*
X015393Y008443D03*
X015393Y013482D03*
X015393Y014348D03*
X015393Y019388D03*
X015393Y020254D03*
X005157Y020254D03*
X005157Y019388D03*
X005157Y014348D03*
X005157Y013482D03*
X005157Y008443D03*
X005157Y007577D03*
D13*
X011771Y006711D03*
X011771Y012616D03*
X011771Y018522D03*
X022008Y018522D03*
X022008Y012616D03*
X022008Y006711D03*
D14*
X022362Y006789D03*
X022559Y006592D03*
X022559Y006986D03*
X022126Y007695D03*
X022165Y008010D03*
X022126Y008285D03*
X021811Y008285D03*
X021811Y008679D03*
X022126Y008679D03*
X022126Y008955D03*
X022204Y009309D03*
X022559Y009427D03*
X022559Y009978D03*
X022362Y010175D03*
X022559Y010372D03*
X021417Y009270D03*
X021063Y009506D03*
X021496Y008955D03*
X021496Y008679D03*
X021496Y008285D03*
X021456Y007892D03*
X021023Y007341D03*
X020315Y007262D03*
X020630Y008049D03*
X020315Y009191D03*
X019882Y009191D03*
X022559Y012498D03*
X022362Y012695D03*
X022559Y012892D03*
X022126Y013600D03*
X022165Y013915D03*
X022126Y014191D03*
X021811Y014191D03*
X021811Y014585D03*
X022126Y014585D03*
X022126Y014860D03*
X022204Y015215D03*
X022559Y015333D03*
X022559Y015884D03*
X022362Y016081D03*
X022559Y016278D03*
X021417Y015175D03*
X021496Y014860D03*
X021496Y014585D03*
X021496Y014191D03*
X021456Y013797D03*
X021023Y013246D03*
X020315Y013167D03*
X020630Y013955D03*
X020315Y015096D03*
X019882Y015096D03*
X021063Y015411D03*
X022559Y018404D03*
X022362Y018600D03*
X022559Y018797D03*
X022126Y019506D03*
X022165Y019821D03*
X022126Y020096D03*
X021811Y020096D03*
X021496Y020096D03*
X021456Y019703D03*
X021023Y019152D03*
X020315Y019073D03*
X020630Y019860D03*
X021496Y020490D03*
X021496Y020766D03*
X021417Y021081D03*
X021063Y021317D03*
X020315Y021002D03*
X019882Y021002D03*
X021811Y020490D03*
X022126Y020490D03*
X022126Y020766D03*
X022204Y021120D03*
X022559Y021238D03*
X022559Y021789D03*
X022362Y021986D03*
X022559Y022183D03*
X016299Y021553D03*
X016299Y021120D03*
X016299Y020687D03*
X016299Y019821D03*
X016299Y018955D03*
X016299Y018522D03*
X016299Y015648D03*
X016299Y015215D03*
X016299Y014781D03*
X016299Y013915D03*
X016299Y013049D03*
X016299Y012616D03*
X016299Y009742D03*
X016299Y009309D03*
X016299Y008876D03*
X016299Y008010D03*
X016299Y007144D03*
X016299Y006711D03*
X012323Y006592D03*
X012126Y006789D03*
X012323Y006986D03*
X011889Y007695D03*
X011929Y008010D03*
X011889Y008285D03*
X011889Y008679D03*
X011889Y008955D03*
X011968Y009309D03*
X012323Y009427D03*
X012323Y009978D03*
X012126Y010175D03*
X012323Y010372D03*
X011181Y009270D03*
X011260Y008955D03*
X011260Y008679D03*
X011574Y008679D03*
X011574Y008285D03*
X011260Y008285D03*
X011220Y007892D03*
X010787Y007341D03*
X010078Y007262D03*
X010393Y008049D03*
X010078Y009191D03*
X009645Y009191D03*
X010826Y009506D03*
X012323Y012498D03*
X012126Y012695D03*
X012323Y012892D03*
X011889Y013600D03*
X011929Y013915D03*
X011889Y014191D03*
X011889Y014585D03*
X011889Y014860D03*
X011968Y015215D03*
X012323Y015333D03*
X012323Y015884D03*
X012126Y016081D03*
X012323Y016278D03*
X011181Y015175D03*
X011260Y014860D03*
X011260Y014585D03*
X011574Y014585D03*
X011574Y014191D03*
X011260Y014191D03*
X011220Y013797D03*
X010787Y013246D03*
X010078Y013167D03*
X010393Y013955D03*
X010078Y015096D03*
X009645Y015096D03*
X010826Y015411D03*
X012323Y018404D03*
X012126Y018600D03*
X012323Y018797D03*
X011889Y019506D03*
X011929Y019821D03*
X011889Y020096D03*
X011574Y020096D03*
X011260Y020096D03*
X011220Y019703D03*
X010787Y019152D03*
X010078Y019073D03*
X010393Y019860D03*
X011260Y020490D03*
X011260Y020766D03*
X011181Y021081D03*
X010826Y021317D03*
X010078Y021002D03*
X009645Y021002D03*
X011574Y020490D03*
X011889Y020490D03*
X011889Y020766D03*
X011968Y021120D03*
X012323Y021238D03*
X012323Y021789D03*
X012126Y021986D03*
X012323Y022183D03*
X006063Y021553D03*
X006063Y021120D03*
X006063Y020687D03*
X006063Y019821D03*
X006063Y018955D03*
X006063Y018522D03*
X006063Y015648D03*
X006063Y015215D03*
X006063Y014781D03*
X006063Y013915D03*
X006063Y013049D03*
X006063Y012616D03*
X006063Y009742D03*
X006063Y009309D03*
X006063Y008876D03*
X006063Y008010D03*
X006063Y007144D03*
X006063Y006711D03*
D15*
X006102Y007577D02*
X006653Y007577D01*
X006102Y008443D02*
X007795Y008443D01*
X008149Y008049D01*
X010393Y008049D01*
X006653Y013482D02*
X006102Y013482D01*
X006102Y014348D02*
X007795Y014348D01*
X008149Y013955D01*
X010393Y013955D01*
X006653Y019388D02*
X006102Y019388D01*
X006102Y020254D02*
X007795Y020254D01*
X008149Y019860D01*
X010393Y019860D01*
X016338Y020254D02*
X018031Y020254D01*
X018385Y019860D01*
X020630Y019860D01*
X016889Y019388D02*
X016338Y019388D01*
X016338Y014348D02*
X018031Y014348D01*
X018385Y013955D01*
X020630Y013955D01*
X016889Y013482D02*
X016338Y013482D01*
X016338Y008443D02*
X018031Y008443D01*
X018385Y008049D01*
X020630Y008049D01*
X016889Y007577D02*
X016338Y007577D01*
D16*
X015393Y007577D01*
X015452Y008010D02*
X016023Y008010D01*
X016338Y008443D02*
X015393Y008443D01*
X015452Y008876D02*
X016023Y008876D01*
X016023Y009309D02*
X015452Y009309D01*
X015452Y009742D02*
X016023Y009742D01*
X016023Y007144D02*
X015452Y007144D01*
X015452Y006711D02*
X016023Y006711D01*
X016023Y012616D02*
X015452Y012616D01*
X015452Y013049D02*
X016023Y013049D01*
X016338Y013482D02*
X015393Y013482D01*
X015452Y013915D02*
X016023Y013915D01*
X016338Y014348D02*
X015393Y014348D01*
X015452Y014781D02*
X016023Y014781D01*
X016023Y015215D02*
X015452Y015215D01*
X015452Y015648D02*
X016023Y015648D01*
X016023Y018522D02*
X015452Y018522D01*
X015452Y018955D02*
X016023Y018955D01*
X016338Y019388D02*
X015393Y019388D01*
X015452Y019821D02*
X016023Y019821D01*
X016338Y020254D02*
X015393Y020254D01*
X015452Y020687D02*
X016023Y020687D01*
X016023Y021120D02*
X015452Y021120D01*
X015452Y021553D02*
X016023Y021553D01*
X006102Y020254D02*
X005157Y020254D01*
X005216Y020687D02*
X005787Y020687D01*
X005787Y021120D02*
X005216Y021120D01*
X005216Y021553D02*
X005787Y021553D01*
X005787Y019821D02*
X005216Y019821D01*
X005157Y019388D02*
X006102Y019388D01*
X005787Y018955D02*
X005216Y018955D01*
X005216Y018522D02*
X005787Y018522D01*
X005787Y015648D02*
X005216Y015648D01*
X005216Y015215D02*
X005787Y015215D01*
X005787Y014781D02*
X005216Y014781D01*
X005157Y014348D02*
X006102Y014348D01*
X005787Y013915D02*
X005216Y013915D01*
X005157Y013482D02*
X006102Y013482D01*
X005787Y013049D02*
X005216Y013049D01*
X005216Y012616D02*
X005787Y012616D01*
X005787Y009742D02*
X005216Y009742D01*
X005216Y009309D02*
X005787Y009309D01*
X005787Y008876D02*
X005216Y008876D01*
X005157Y008443D02*
X006102Y008443D01*
X005787Y008010D02*
X005216Y008010D01*
X005157Y007577D02*
X006102Y007577D01*
X005787Y007144D02*
X005216Y007144D01*
X005216Y006711D02*
X005787Y006711D01*
D17*
X006166Y006927D02*
X006289Y007050D01*
X006289Y007237D01*
X006156Y007370D01*
X006033Y007370D01*
X006033Y007783D01*
X006156Y007783D01*
X006289Y007916D01*
X006289Y008098D01*
X007642Y008098D01*
X007854Y007863D01*
X007857Y007854D01*
X007899Y007812D01*
X007939Y007768D01*
X007948Y007764D01*
X007954Y007757D01*
X008009Y007734D01*
X008063Y007709D01*
X008072Y007708D01*
X008081Y007705D01*
X008140Y007705D01*
X008200Y007702D01*
X008208Y007705D01*
X010462Y007705D01*
X010589Y007757D01*
X010685Y007854D01*
X010738Y007981D01*
X010738Y008118D01*
X010685Y008244D01*
X010589Y008341D01*
X010462Y008394D01*
X008303Y008394D01*
X008091Y008629D01*
X008087Y008638D01*
X008045Y008680D01*
X008005Y008724D01*
X007997Y008728D01*
X007990Y008735D01*
X007935Y008758D01*
X007881Y008783D01*
X007872Y008784D01*
X007863Y008787D01*
X007804Y008787D01*
X007745Y008790D01*
X007736Y008787D01*
X006289Y008787D01*
X006289Y008970D01*
X006166Y009092D01*
X006289Y009215D01*
X006289Y009403D01*
X006166Y009526D01*
X006289Y009648D01*
X006289Y009836D01*
X006195Y009930D01*
X006385Y010009D01*
X006385Y010009D01*
X006449Y010072D01*
X006725Y010349D01*
X006785Y010408D01*
X006786Y010409D01*
X006802Y010423D01*
X006841Y010439D01*
X006862Y010441D01*
X007116Y010441D01*
X007116Y010365D01*
X007128Y010353D01*
X007192Y010242D01*
X007192Y010242D01*
X007192Y010242D01*
X007303Y010178D01*
X007316Y010165D01*
X007848Y010165D01*
X007868Y010186D01*
X007875Y010188D01*
X007904Y010188D01*
X007937Y010222D01*
X007964Y010249D01*
X007964Y010249D01*
X008025Y010309D01*
X008025Y010309D01*
X008143Y010428D01*
X008156Y010441D01*
X012391Y010441D01*
X012391Y006524D01*
X011960Y006524D01*
X011997Y006560D01*
X012037Y006658D01*
X012037Y006763D01*
X011997Y006861D01*
X011929Y006929D01*
X011929Y007078D01*
X012047Y007197D01*
X012047Y007532D01*
X012116Y007601D01*
X012116Y007789D01*
X011983Y007921D01*
X011796Y007921D01*
X011663Y007789D01*
X011663Y007601D01*
X011732Y007532D01*
X011732Y007327D01*
X011706Y007301D01*
X011614Y007209D01*
X011614Y006929D01*
X011546Y006861D01*
X011525Y006811D01*
X011525Y006824D01*
X011438Y006911D01*
X011189Y006911D01*
X011171Y006929D01*
X011171Y006929D01*
X011153Y006947D01*
X011084Y007016D01*
X010979Y007016D01*
X010970Y007016D01*
X010961Y007016D01*
X010856Y007016D01*
X010789Y006948D01*
X010721Y007016D01*
X010617Y007016D01*
X010599Y007016D01*
X010494Y007016D01*
X010494Y007016D01*
X010425Y006947D01*
X010407Y006929D01*
X010355Y006877D01*
X010355Y006815D01*
X010355Y006702D01*
X010398Y006658D01*
X010355Y006615D01*
X010355Y006524D01*
X009457Y006524D01*
X009517Y006584D01*
X009517Y006854D01*
X009517Y006916D01*
X009465Y006968D01*
X009465Y006968D01*
X009447Y006987D01*
X009378Y007055D01*
X009274Y007055D01*
X009274Y007055D01*
X009264Y007055D01*
X009255Y007055D01*
X009151Y007055D01*
X009080Y006985D01*
X009064Y006968D01*
X009013Y006917D01*
X009012Y006916D01*
X009012Y006916D01*
X009012Y006855D01*
X009012Y006689D01*
X008792Y006689D01*
X008792Y006968D01*
X008706Y007055D01*
X008583Y007055D01*
X008539Y007012D01*
X008496Y007055D01*
X008373Y007055D01*
X008287Y006969D01*
X008287Y006955D01*
X008186Y007055D01*
X008063Y007055D01*
X008022Y007014D01*
X007980Y007055D01*
X007648Y007055D01*
X007633Y007040D01*
X007618Y007055D01*
X007495Y007055D01*
X007452Y007012D01*
X007409Y007055D01*
X007286Y007055D01*
X007271Y007040D01*
X007255Y007055D01*
X007133Y007055D01*
X007089Y007012D01*
X007046Y007055D01*
X006923Y007055D01*
X006908Y007040D01*
X006893Y007055D01*
X006665Y007055D01*
X006579Y006968D01*
X006579Y006846D01*
X006631Y006793D01*
X006631Y006707D01*
X006613Y006689D01*
X006319Y006689D01*
X006289Y006659D01*
X006289Y006804D01*
X006166Y006927D01*
X006205Y006965D02*
X006579Y006965D01*
X006579Y006868D02*
X006225Y006868D01*
X006289Y006772D02*
X006631Y006772D01*
X006305Y006675D02*
X006289Y006675D01*
X006289Y007062D02*
X011614Y007062D01*
X011614Y006965D02*
X011135Y006965D01*
X011084Y007016D02*
X011084Y007016D01*
X011084Y007016D01*
X010979Y007016D02*
X010979Y007016D01*
X010961Y007016D02*
X010961Y007016D01*
X010856Y007016D02*
X010856Y007016D01*
X010856Y007016D01*
X010806Y006965D02*
X010772Y006965D01*
X010721Y007016D02*
X010721Y007016D01*
X010721Y007016D01*
X010617Y007016D02*
X010617Y007016D01*
X010599Y007016D02*
X010599Y007016D01*
X010494Y007016D02*
X010494Y007016D01*
X010443Y006965D02*
X009468Y006965D01*
X009517Y006868D02*
X010355Y006868D01*
X010407Y006929D02*
X010407Y006929D01*
X010355Y006772D02*
X009517Y006772D01*
X009517Y006675D02*
X010382Y006675D01*
X010355Y006578D02*
X009511Y006578D01*
X009378Y007055D02*
X009378Y007055D01*
X009378Y007055D01*
X009255Y007055D02*
X009255Y007055D01*
X009151Y007055D02*
X009151Y007055D01*
X009151Y007055D01*
X009064Y006968D02*
X009064Y006968D01*
X009061Y006965D02*
X008792Y006965D01*
X008792Y006868D02*
X009012Y006868D01*
X009012Y006772D02*
X008792Y006772D01*
X008287Y006965D02*
X008276Y006965D01*
X007994Y007741D02*
X006033Y007741D01*
X006033Y007644D02*
X011663Y007644D01*
X011663Y007741D02*
X010549Y007741D01*
X010669Y007838D02*
X011712Y007838D01*
X011889Y007695D02*
X011889Y007262D01*
X011771Y007144D01*
X011771Y006711D01*
X012004Y006578D02*
X012391Y006578D01*
X012391Y006675D02*
X012037Y006675D01*
X012034Y006772D02*
X012391Y006772D01*
X012391Y006868D02*
X011989Y006868D01*
X011929Y006965D02*
X012391Y006965D01*
X012391Y007062D02*
X011929Y007062D01*
X012010Y007159D02*
X012391Y007159D01*
X012391Y007256D02*
X012047Y007256D01*
X012047Y007353D02*
X012391Y007353D01*
X012391Y007450D02*
X012047Y007450D01*
X012062Y007547D02*
X012391Y007547D01*
X012391Y007644D02*
X012116Y007644D01*
X012116Y007741D02*
X012391Y007741D01*
X012391Y007838D02*
X012067Y007838D01*
X011717Y007547D02*
X006033Y007547D01*
X006033Y007450D02*
X011732Y007450D01*
X011732Y007353D02*
X006173Y007353D01*
X006270Y007256D02*
X011661Y007256D01*
X011614Y007159D02*
X006289Y007159D01*
X006211Y007838D02*
X007874Y007838D01*
X007789Y007935D02*
X006289Y007935D01*
X006289Y008032D02*
X007702Y008032D01*
X008192Y008516D02*
X012391Y008516D01*
X012391Y008419D02*
X008280Y008419D01*
X008105Y008613D02*
X012391Y008613D01*
X012391Y008710D02*
X008018Y008710D01*
X009419Y009097D02*
X009552Y008965D01*
X009649Y008965D01*
X009895Y008718D01*
X010537Y008718D01*
X010630Y008811D01*
X010931Y009112D01*
X011018Y009112D01*
X011087Y009043D01*
X011275Y009043D01*
X011407Y009176D01*
X011407Y009363D01*
X011275Y009496D01*
X011087Y009496D01*
X011018Y009427D01*
X010801Y009427D01*
X010407Y009033D01*
X010026Y009033D01*
X009872Y009187D01*
X009872Y009285D01*
X009739Y009417D01*
X009552Y009417D01*
X009419Y009285D01*
X009419Y009097D01*
X009419Y009098D02*
X006172Y009098D01*
X006258Y009001D02*
X009515Y009001D01*
X009419Y009195D02*
X006268Y009195D01*
X006289Y009292D02*
X009426Y009292D01*
X009523Y009389D02*
X006289Y009389D01*
X006206Y009485D02*
X011076Y009485D01*
X011285Y009485D02*
X012391Y009485D01*
X012391Y009389D02*
X011382Y009389D01*
X011407Y009292D02*
X012391Y009292D01*
X012391Y009195D02*
X011407Y009195D01*
X011329Y009098D02*
X012391Y009098D01*
X012391Y009001D02*
X010820Y009001D01*
X010917Y009098D02*
X011033Y009098D01*
X011181Y009270D02*
X010866Y009270D01*
X010472Y008876D01*
X009960Y008876D01*
X009645Y009191D01*
X009872Y009195D02*
X010568Y009195D01*
X010665Y009292D02*
X009865Y009292D01*
X009768Y009389D02*
X010762Y009389D01*
X010471Y009098D02*
X009961Y009098D01*
X009710Y008904D02*
X006289Y008904D01*
X006289Y008807D02*
X009807Y008807D01*
X010626Y008807D02*
X012391Y008807D01*
X012391Y008904D02*
X010723Y008904D01*
X010607Y008322D02*
X012391Y008322D01*
X012391Y008225D02*
X010693Y008225D01*
X010733Y008128D02*
X012391Y008128D01*
X012391Y008032D02*
X010738Y008032D01*
X010719Y007935D02*
X012391Y007935D01*
X011553Y006868D02*
X011481Y006868D01*
X012391Y009582D02*
X006223Y009582D01*
X006289Y009679D02*
X012391Y009679D01*
X012391Y009776D02*
X006289Y009776D01*
X006252Y009873D02*
X012391Y009873D01*
X012391Y009970D02*
X006292Y009970D01*
X006444Y010067D02*
X012391Y010067D01*
X012391Y010164D02*
X006541Y010164D01*
X006638Y010261D02*
X007181Y010261D01*
X007123Y010358D02*
X006734Y010358D01*
X006725Y010349D02*
X006725Y010349D01*
X007976Y010261D02*
X012391Y010261D01*
X012391Y010358D02*
X008073Y010358D01*
X009457Y012429D02*
X009517Y012490D01*
X010355Y012490D01*
X010355Y012521D02*
X010355Y012429D01*
X009457Y012429D01*
X009517Y012490D02*
X009517Y012760D01*
X009517Y012822D01*
X009465Y012874D01*
X009447Y012892D01*
X009378Y012961D01*
X009274Y012961D01*
X009255Y012961D01*
X009212Y012961D01*
X009151Y012961D01*
X009151Y012961D01*
X009151Y012961D01*
X009080Y012890D01*
X009064Y012874D01*
X009013Y012823D01*
X009012Y012822D01*
X009012Y012822D01*
X009012Y012761D01*
X009012Y012595D01*
X008792Y012595D01*
X008792Y012874D01*
X008706Y012961D01*
X008583Y012961D01*
X008539Y012918D01*
X008496Y012961D01*
X008373Y012961D01*
X008287Y012874D01*
X008287Y012860D01*
X008186Y012961D01*
X008063Y012961D01*
X008022Y012920D01*
X007980Y012961D01*
X007648Y012961D01*
X007633Y012946D01*
X007618Y012961D01*
X007495Y012961D01*
X007452Y012918D01*
X007409Y012961D01*
X007286Y012961D01*
X007271Y012946D01*
X007255Y012961D01*
X007133Y012961D01*
X007089Y012918D01*
X007046Y012961D01*
X006923Y012961D01*
X006908Y012946D01*
X006893Y012961D01*
X006665Y012961D01*
X006579Y012874D01*
X006579Y012751D01*
X006631Y012699D01*
X006631Y012612D01*
X006613Y012595D01*
X006319Y012595D01*
X006289Y012564D01*
X006289Y012710D01*
X006166Y012833D01*
X006289Y012955D01*
X006289Y013143D01*
X006156Y013276D01*
X006033Y013276D01*
X006033Y013689D01*
X006156Y013689D01*
X006289Y013822D01*
X006289Y014004D01*
X007642Y014004D01*
X007854Y013768D01*
X007857Y013760D01*
X007899Y013717D01*
X007939Y013673D01*
X007948Y013669D01*
X007954Y013663D01*
X008009Y013640D01*
X008063Y013614D01*
X008072Y013614D01*
X008081Y013610D01*
X008140Y013610D01*
X008200Y013607D01*
X008208Y013610D01*
X010462Y013610D01*
X010589Y013663D01*
X010685Y013760D01*
X010738Y013886D01*
X010738Y014023D01*
X010685Y014150D01*
X010589Y014247D01*
X010462Y014299D01*
X008303Y014299D01*
X008091Y014535D01*
X008087Y014544D01*
X008045Y014586D01*
X008005Y014630D01*
X007997Y014634D01*
X007990Y014640D01*
X007935Y014663D01*
X007881Y014689D01*
X007872Y014689D01*
X007863Y014693D01*
X007804Y014693D01*
X007745Y014696D01*
X007736Y014693D01*
X006289Y014693D01*
X006289Y014875D01*
X006166Y014998D01*
X006289Y015121D01*
X006289Y015308D01*
X006166Y015431D01*
X006289Y015554D01*
X006289Y015741D01*
X006195Y015835D01*
X006385Y015914D01*
X006385Y015914D01*
X006459Y015987D01*
X006519Y016048D01*
X006725Y016254D01*
X006725Y016254D01*
X006786Y016315D01*
X006802Y016328D01*
X006841Y016344D01*
X006862Y016346D01*
X007116Y016346D01*
X007116Y016271D01*
X007128Y016258D01*
X007192Y016147D01*
X007303Y016083D01*
X007316Y016071D01*
X007848Y016071D01*
X007868Y016091D01*
X007875Y016094D01*
X007904Y016094D01*
X007924Y016114D01*
X007964Y016154D01*
X008025Y016215D01*
X008133Y016323D01*
X008156Y016346D01*
X012391Y016346D01*
X012391Y012429D01*
X011960Y012429D01*
X011997Y012466D01*
X012037Y012563D01*
X012037Y012669D01*
X011997Y012767D01*
X011929Y012834D01*
X011929Y012984D01*
X012047Y013102D01*
X012047Y013438D01*
X012116Y013507D01*
X012116Y013694D01*
X011983Y013827D01*
X011796Y013827D01*
X011663Y013694D01*
X011663Y013507D01*
X011732Y013438D01*
X011732Y013233D01*
X011706Y013207D01*
X011614Y013114D01*
X011614Y012834D01*
X011546Y012767D01*
X011525Y012716D01*
X011525Y012730D01*
X011438Y012817D01*
X011189Y012817D01*
X011171Y012835D01*
X011153Y012853D01*
X011084Y012921D01*
X011084Y012921D01*
X011084Y012921D01*
X010979Y012921D01*
X010961Y012921D01*
X010917Y012921D01*
X010856Y012921D01*
X010789Y012854D01*
X010721Y012921D01*
X010617Y012921D01*
X010617Y012921D01*
X010608Y012921D01*
X010599Y012921D01*
X010494Y012921D01*
X010425Y012853D01*
X010407Y012835D01*
X010407Y012835D01*
X010355Y012782D01*
X010355Y012720D01*
X010355Y012607D01*
X010398Y012564D01*
X010355Y012521D01*
X010375Y012587D02*
X009517Y012587D01*
X009517Y012684D02*
X010355Y012684D01*
X010355Y012781D02*
X009517Y012781D01*
X009465Y012874D02*
X009465Y012874D01*
X009461Y012878D02*
X010450Y012878D01*
X010494Y012921D02*
X010494Y012921D01*
X010494Y012921D01*
X010599Y012921D02*
X010599Y012921D01*
X010721Y012921D02*
X010721Y012921D01*
X010721Y012921D01*
X010765Y012878D02*
X010813Y012878D01*
X010856Y012921D02*
X010856Y012921D01*
X010856Y012921D01*
X010979Y012921D02*
X010979Y012921D01*
X011128Y012878D02*
X011614Y012878D01*
X011614Y012975D02*
X006289Y012975D01*
X006289Y013072D02*
X011614Y013072D01*
X011668Y013169D02*
X006263Y013169D01*
X006166Y013266D02*
X011732Y013266D01*
X011732Y013362D02*
X006033Y013362D01*
X006033Y013459D02*
X011710Y013459D01*
X011663Y013556D02*
X006033Y013556D01*
X006033Y013653D02*
X007977Y013653D01*
X007867Y013750D02*
X006218Y013750D01*
X006289Y013847D02*
X007783Y013847D01*
X007695Y013944D02*
X006289Y013944D01*
X006289Y014719D02*
X009800Y014719D01*
X009803Y014716D02*
X009895Y014624D01*
X010537Y014624D01*
X010630Y014716D01*
X010931Y015018D01*
X011018Y015018D01*
X011087Y014949D01*
X011275Y014949D01*
X011407Y015081D01*
X011407Y015269D01*
X011275Y015402D01*
X011087Y015402D01*
X011018Y015333D01*
X010801Y015333D01*
X010407Y014939D01*
X010026Y014939D01*
X009872Y015093D01*
X009872Y015190D01*
X009739Y015323D01*
X009552Y015323D01*
X009419Y015190D01*
X009419Y015003D01*
X009552Y014870D01*
X009649Y014870D01*
X009803Y014716D01*
X009803Y014716D01*
X009703Y014816D02*
X006289Y014816D01*
X006251Y014913D02*
X009508Y014913D01*
X009419Y015010D02*
X006178Y015010D01*
X006275Y015107D02*
X009419Y015107D01*
X009433Y015204D02*
X006289Y015204D01*
X006289Y015301D02*
X009530Y015301D01*
X009761Y015301D02*
X010769Y015301D01*
X010672Y015204D02*
X009858Y015204D01*
X009872Y015107D02*
X010575Y015107D01*
X010478Y015010D02*
X009954Y015010D01*
X009960Y014781D02*
X009645Y015096D01*
X009960Y014781D02*
X010472Y014781D01*
X010866Y015175D01*
X011181Y015175D01*
X011336Y015010D02*
X012391Y015010D01*
X012391Y014913D02*
X010827Y014913D01*
X010924Y015010D02*
X011026Y015010D01*
X010730Y014816D02*
X012391Y014816D01*
X012391Y014719D02*
X010633Y014719D01*
X010600Y014235D02*
X012391Y014235D01*
X012391Y014332D02*
X008273Y014332D01*
X008186Y014429D02*
X012391Y014429D01*
X012391Y014526D02*
X008099Y014526D01*
X008012Y014622D02*
X012391Y014622D01*
X012391Y014138D02*
X010690Y014138D01*
X010731Y014041D02*
X012391Y014041D01*
X012391Y013944D02*
X010738Y013944D01*
X010722Y013847D02*
X012391Y013847D01*
X012391Y013750D02*
X012060Y013750D01*
X012116Y013653D02*
X012391Y013653D01*
X012391Y013556D02*
X012116Y013556D01*
X012069Y013459D02*
X012391Y013459D01*
X012391Y013362D02*
X012047Y013362D01*
X012047Y013266D02*
X012391Y013266D01*
X012391Y013169D02*
X012047Y013169D01*
X012017Y013072D02*
X012391Y013072D01*
X012391Y012975D02*
X011929Y012975D01*
X011929Y012878D02*
X012391Y012878D01*
X012391Y012781D02*
X011982Y012781D01*
X012031Y012684D02*
X012391Y012684D01*
X012391Y012587D02*
X012037Y012587D01*
X012007Y012490D02*
X012391Y012490D01*
X011771Y013049D02*
X011889Y013167D01*
X011889Y013600D01*
X011719Y013750D02*
X010676Y013750D01*
X010566Y013653D02*
X011663Y013653D01*
X011771Y013049D02*
X011771Y012616D01*
X011560Y012781D02*
X011474Y012781D01*
X011171Y012835D02*
X011171Y012835D01*
X009378Y012961D02*
X009378Y012961D01*
X009378Y012961D01*
X009274Y012961D02*
X009274Y012961D01*
X009068Y012878D02*
X008789Y012878D01*
X008792Y012781D02*
X009012Y012781D01*
X009012Y012684D02*
X008792Y012684D01*
X009064Y012874D02*
X009064Y012874D01*
X008290Y012878D02*
X008269Y012878D01*
X006631Y012684D02*
X006289Y012684D01*
X006289Y012587D02*
X006312Y012587D01*
X006218Y012781D02*
X006579Y012781D01*
X006582Y012878D02*
X006211Y012878D01*
X006199Y015398D02*
X011083Y015398D01*
X011278Y015398D02*
X012391Y015398D01*
X012391Y015495D02*
X006230Y015495D01*
X006289Y015592D02*
X012391Y015592D01*
X012391Y015689D02*
X006289Y015689D01*
X006245Y015786D02*
X012391Y015786D01*
X012391Y015883D02*
X006309Y015883D01*
X006451Y015979D02*
X012391Y015979D01*
X012391Y016076D02*
X007853Y016076D01*
X007924Y016114D02*
X007924Y016114D01*
X007983Y016173D02*
X012391Y016173D01*
X012391Y016270D02*
X008080Y016270D01*
X008133Y016323D02*
X008133Y016323D01*
X008025Y016215D02*
X008025Y016215D01*
X007310Y016076D02*
X006548Y016076D01*
X006519Y016048D02*
X006519Y016048D01*
X006644Y016173D02*
X007177Y016173D01*
X007192Y016147D02*
X007192Y016147D01*
X007192Y016147D01*
X007116Y016270D02*
X006741Y016270D01*
X006613Y018500D02*
X006319Y018500D01*
X006289Y018470D01*
X006289Y018615D01*
X006166Y018738D01*
X006289Y018861D01*
X006289Y019048D01*
X006156Y019181D01*
X006033Y019181D01*
X006033Y019594D01*
X006156Y019594D01*
X006289Y019727D01*
X006289Y019909D01*
X007642Y019909D01*
X007854Y019674D01*
X007857Y019665D01*
X007899Y019623D01*
X007939Y019579D01*
X007948Y019575D01*
X007954Y019568D01*
X008009Y019545D01*
X008063Y019520D01*
X008072Y019519D01*
X008081Y019516D01*
X008140Y019516D01*
X008200Y019513D01*
X008208Y019516D01*
X010462Y019516D01*
X010589Y019568D01*
X010685Y019665D01*
X010738Y019792D01*
X010738Y019929D01*
X010685Y020055D01*
X010589Y020152D01*
X010462Y020205D01*
X008303Y020205D01*
X008091Y020440D01*
X008087Y020449D01*
X008045Y020491D01*
X008005Y020535D01*
X007997Y020539D01*
X007990Y020546D01*
X007935Y020569D01*
X007881Y020594D01*
X007872Y020595D01*
X007863Y020598D01*
X007804Y020598D01*
X007745Y020602D01*
X007736Y020598D01*
X006289Y020598D01*
X006289Y020781D01*
X006166Y020904D01*
X006289Y021026D01*
X006289Y021214D01*
X006166Y021337D01*
X006289Y021459D01*
X006289Y021647D01*
X006195Y021741D01*
X006385Y021820D01*
X006455Y021889D01*
X006725Y022160D01*
X006725Y022160D01*
X006786Y022220D01*
X006802Y022234D01*
X006841Y022250D01*
X006862Y022252D01*
X007116Y022252D01*
X007116Y022176D01*
X007128Y022164D01*
X007192Y022053D01*
X007192Y022053D01*
X007192Y022053D01*
X007303Y021989D01*
X006554Y021989D01*
X006458Y021892D02*
X012391Y021892D01*
X012391Y021989D02*
X007860Y021989D01*
X007868Y021997D02*
X007875Y021999D01*
X007904Y021999D01*
X007924Y022020D01*
X007964Y022060D01*
X008025Y022120D01*
X008025Y022120D01*
X008143Y022239D01*
X008156Y022252D01*
X012391Y022252D01*
X012391Y018335D01*
X011960Y018335D01*
X011997Y018371D01*
X012037Y018469D01*
X012037Y018574D01*
X011997Y018672D01*
X011929Y018740D01*
X011929Y018889D01*
X012047Y019008D01*
X012047Y019343D01*
X012116Y019412D01*
X012116Y019600D01*
X011983Y019732D01*
X011796Y019732D01*
X011663Y019600D01*
X011663Y019412D01*
X011732Y019343D01*
X011732Y019138D01*
X011706Y019112D01*
X011614Y019020D01*
X011614Y018740D01*
X011546Y018672D01*
X011525Y018622D01*
X011525Y018635D01*
X011438Y018722D01*
X011189Y018722D01*
X011171Y018740D01*
X011153Y018758D01*
X011084Y018827D01*
X011084Y018827D01*
X011084Y018827D01*
X010979Y018827D01*
X010970Y018827D01*
X010961Y018827D01*
X010856Y018827D01*
X010789Y018759D01*
X010721Y018827D01*
X010617Y018827D01*
X010599Y018827D01*
X010494Y018827D01*
X010494Y018827D01*
X010494Y018827D01*
X010425Y018758D01*
X010407Y018740D01*
X010355Y018688D01*
X010355Y018626D01*
X010355Y018513D01*
X010398Y018469D01*
X010355Y018426D01*
X010355Y018335D01*
X009457Y018335D01*
X009517Y018395D01*
X009517Y018665D01*
X009517Y018727D01*
X009465Y018780D01*
X009447Y018798D01*
X009378Y018866D01*
X009378Y018866D01*
X009378Y018866D01*
X009274Y018866D01*
X009274Y018866D01*
X009264Y018866D01*
X009255Y018866D01*
X009151Y018866D01*
X009151Y018866D01*
X009151Y018866D01*
X009080Y018796D01*
X009064Y018780D01*
X009064Y018780D01*
X009013Y018728D01*
X009012Y018727D01*
X009012Y018727D01*
X009012Y018666D01*
X009012Y018500D01*
X008792Y018500D01*
X008792Y018780D01*
X008706Y018866D01*
X008583Y018866D01*
X008539Y018823D01*
X008496Y018866D01*
X008373Y018866D01*
X008287Y018780D01*
X008287Y018766D01*
X008186Y018866D01*
X008063Y018866D01*
X008022Y018825D01*
X007980Y018866D01*
X007648Y018866D01*
X007633Y018851D01*
X007618Y018866D01*
X007495Y018866D01*
X007452Y018823D01*
X007409Y018866D01*
X007286Y018866D01*
X007271Y018851D01*
X007255Y018866D01*
X007133Y018866D01*
X007089Y018823D01*
X007046Y018866D01*
X006923Y018866D01*
X006908Y018851D01*
X006893Y018866D01*
X006665Y018866D01*
X006579Y018780D01*
X006579Y018657D01*
X006631Y018604D01*
X006631Y018518D01*
X006613Y018500D01*
X006631Y018596D02*
X006289Y018596D01*
X006289Y018500D02*
X006319Y018500D01*
X006211Y018693D02*
X006579Y018693D01*
X006589Y018790D02*
X006218Y018790D01*
X006289Y018887D02*
X011614Y018887D01*
X011614Y018790D02*
X011121Y018790D01*
X011171Y018740D02*
X011171Y018740D01*
X010979Y018827D02*
X010979Y018827D01*
X010961Y018827D02*
X010961Y018827D01*
X010856Y018827D02*
X010856Y018827D01*
X010856Y018827D01*
X010820Y018790D02*
X010758Y018790D01*
X010721Y018827D02*
X010721Y018827D01*
X010721Y018827D01*
X010617Y018827D02*
X010617Y018827D01*
X010599Y018827D02*
X010599Y018827D01*
X010457Y018790D02*
X009454Y018790D01*
X009465Y018780D02*
X009465Y018780D01*
X009517Y018693D02*
X010360Y018693D01*
X010407Y018740D02*
X010407Y018740D01*
X010355Y018596D02*
X009517Y018596D01*
X009517Y018500D02*
X010368Y018500D01*
X010355Y018403D02*
X009517Y018403D01*
X009255Y018866D02*
X009255Y018866D01*
X009075Y018790D02*
X008782Y018790D01*
X008792Y018693D02*
X009012Y018693D01*
X009012Y018596D02*
X008792Y018596D01*
X008297Y018790D02*
X008262Y018790D01*
X007960Y019566D02*
X006033Y019566D01*
X006033Y019469D02*
X011663Y019469D01*
X011663Y019566D02*
X010583Y019566D01*
X010683Y019663D02*
X011726Y019663D01*
X011889Y019506D02*
X011889Y019073D01*
X011771Y018955D01*
X011771Y018522D01*
X011567Y018693D02*
X011467Y018693D01*
X011614Y018984D02*
X006289Y018984D01*
X006256Y019081D02*
X011675Y019081D01*
X011732Y019178D02*
X006160Y019178D01*
X006033Y019275D02*
X011732Y019275D01*
X011703Y019372D02*
X006033Y019372D01*
X006225Y019663D02*
X007860Y019663D01*
X007776Y019760D02*
X006289Y019760D01*
X006289Y019856D02*
X007689Y019856D01*
X008180Y020341D02*
X012391Y020341D01*
X012391Y020244D02*
X008267Y020244D01*
X008093Y020438D02*
X012391Y020438D01*
X012391Y020535D02*
X010543Y020535D01*
X010537Y020529D02*
X010630Y020622D01*
X010931Y020923D01*
X011018Y020923D01*
X011087Y020854D01*
X011275Y020854D01*
X011407Y020987D01*
X011407Y021174D01*
X011275Y021307D01*
X011087Y021307D01*
X011018Y021238D01*
X010801Y021238D01*
X010407Y020844D01*
X010026Y020844D01*
X009872Y020998D01*
X009872Y021096D01*
X009739Y021228D01*
X009552Y021228D01*
X009419Y021096D01*
X009419Y020908D01*
X009552Y020776D01*
X009649Y020776D01*
X009895Y020529D01*
X010537Y020529D01*
X010640Y020632D02*
X012391Y020632D01*
X012391Y020729D02*
X010737Y020729D01*
X010834Y020826D02*
X012391Y020826D01*
X012391Y020923D02*
X011343Y020923D01*
X011407Y021020D02*
X012391Y021020D01*
X012391Y021116D02*
X011407Y021116D01*
X011368Y021213D02*
X012391Y021213D01*
X012391Y021310D02*
X006193Y021310D01*
X006237Y021407D02*
X012391Y021407D01*
X012391Y021504D02*
X006289Y021504D01*
X006289Y021601D02*
X012391Y021601D01*
X012391Y021698D02*
X006238Y021698D01*
X006326Y021795D02*
X012391Y021795D01*
X012391Y022086D02*
X007990Y022086D01*
X007924Y022020D02*
X007924Y022020D01*
X007868Y021997D02*
X007848Y021976D01*
X007316Y021976D01*
X007303Y021989D01*
X007173Y022086D02*
X006651Y022086D01*
X006748Y022183D02*
X007116Y022183D01*
X006385Y021820D02*
X006385Y021820D01*
X006289Y021213D02*
X009537Y021213D01*
X009440Y021116D02*
X006289Y021116D01*
X006282Y021020D02*
X009419Y021020D01*
X009419Y020923D02*
X006185Y020923D01*
X006244Y020826D02*
X009501Y020826D01*
X009696Y020729D02*
X006289Y020729D01*
X006289Y020632D02*
X009793Y020632D01*
X009890Y020535D02*
X008005Y020535D01*
X009645Y021002D02*
X009960Y020687D01*
X010472Y020687D01*
X010866Y021081D01*
X011181Y021081D01*
X011019Y020923D02*
X010930Y020923D01*
X010679Y021116D02*
X009851Y021116D01*
X009872Y021020D02*
X010582Y021020D01*
X010485Y020923D02*
X009947Y020923D01*
X009754Y021213D02*
X010776Y021213D01*
X010594Y020147D02*
X012391Y020147D01*
X012391Y020050D02*
X010687Y020050D01*
X010728Y019953D02*
X012391Y019953D01*
X012391Y019856D02*
X010738Y019856D01*
X010725Y019760D02*
X012391Y019760D01*
X012391Y019663D02*
X012053Y019663D01*
X012116Y019566D02*
X012391Y019566D01*
X012391Y019469D02*
X012116Y019469D01*
X012076Y019372D02*
X012391Y019372D01*
X012391Y019275D02*
X012047Y019275D01*
X012047Y019178D02*
X012391Y019178D01*
X012391Y019081D02*
X012047Y019081D01*
X012023Y018984D02*
X012391Y018984D01*
X012391Y018887D02*
X011929Y018887D01*
X011929Y018790D02*
X012391Y018790D01*
X012391Y018693D02*
X011975Y018693D01*
X012028Y018596D02*
X012391Y018596D01*
X012391Y018500D02*
X012037Y018500D01*
X012010Y018403D02*
X012391Y018403D01*
X012391Y015301D02*
X011375Y015301D01*
X011407Y015204D02*
X012391Y015204D01*
X012391Y015107D02*
X011407Y015107D01*
X016269Y013689D02*
X016269Y013276D01*
X016393Y013276D01*
X016525Y013143D01*
X016525Y012955D01*
X016402Y012833D01*
X016525Y012710D01*
X016525Y012564D01*
X016555Y012595D01*
X016849Y012595D01*
X016867Y012612D01*
X016867Y012699D01*
X016815Y012751D01*
X016815Y012874D01*
X016902Y012961D01*
X017129Y012961D01*
X017144Y012946D01*
X017160Y012961D01*
X017282Y012961D01*
X017326Y012918D01*
X017369Y012961D01*
X017492Y012961D01*
X017507Y012946D01*
X017522Y012961D01*
X017645Y012961D01*
X017688Y012918D01*
X017731Y012961D01*
X017854Y012961D01*
X017869Y012946D01*
X017885Y012961D01*
X018217Y012961D01*
X018258Y012920D01*
X018299Y012961D01*
X018422Y012961D01*
X018523Y012860D01*
X018523Y012874D01*
X018610Y012961D01*
X018732Y012961D01*
X018776Y012918D01*
X018819Y012961D01*
X018942Y012961D01*
X019029Y012874D01*
X019029Y012595D01*
X019248Y012595D01*
X019248Y012761D01*
X019248Y012822D01*
X019248Y012822D01*
X019249Y012823D01*
X019300Y012874D01*
X019300Y012874D01*
X019316Y012890D01*
X019387Y012961D01*
X019387Y012961D01*
X019492Y012961D01*
X019492Y012961D01*
X019510Y012961D01*
X019510Y012961D01*
X019614Y012961D01*
X019614Y012961D01*
X019614Y012961D01*
X019683Y012892D01*
X019701Y012874D01*
X019701Y012874D01*
X019754Y012822D01*
X019754Y012760D01*
X019754Y012490D01*
X020591Y012490D01*
X020591Y012521D02*
X020591Y012429D01*
X019693Y012429D01*
X019754Y012490D01*
X019754Y012587D02*
X020611Y012587D01*
X020591Y012607D02*
X020634Y012564D01*
X020591Y012521D01*
X020591Y012607D02*
X020591Y012720D01*
X020591Y012782D01*
X020643Y012835D01*
X020643Y012835D01*
X020662Y012853D01*
X020730Y012921D01*
X020730Y012921D01*
X020730Y012921D01*
X020792Y012921D01*
X020835Y012921D01*
X020853Y012921D01*
X020897Y012921D01*
X020958Y012921D01*
X020958Y012921D01*
X021025Y012854D01*
X021093Y012921D01*
X021093Y012921D01*
X021093Y012921D01*
X021197Y012921D01*
X021197Y012921D01*
X021216Y012921D01*
X021216Y012921D01*
X021320Y012921D01*
X021320Y012921D01*
X021320Y012921D01*
X021389Y012853D01*
X021407Y012835D01*
X021407Y012835D01*
X021425Y012817D01*
X021675Y012817D01*
X021761Y012730D01*
X021761Y012716D01*
X021782Y012767D01*
X021850Y012834D01*
X021850Y013114D01*
X021942Y013207D01*
X021968Y013233D01*
X021968Y013438D01*
X021899Y013507D01*
X021899Y013694D01*
X022032Y013827D01*
X022219Y013827D01*
X022352Y013694D01*
X022352Y013507D01*
X022283Y013438D01*
X022283Y013102D01*
X022165Y012984D01*
X022165Y012834D01*
X022233Y012767D01*
X022273Y012669D01*
X022273Y012563D01*
X022233Y012466D01*
X022196Y012429D01*
X022628Y012429D01*
X022628Y016346D01*
X018392Y016346D01*
X018379Y016333D01*
X018261Y016215D01*
X018261Y016215D01*
X018200Y016154D01*
X018200Y016154D01*
X018172Y016126D01*
X018140Y016094D01*
X018111Y016094D01*
X018105Y016091D01*
X018084Y016071D01*
X017552Y016071D01*
X017539Y016083D01*
X017429Y016147D01*
X017429Y016147D01*
X017365Y016258D01*
X017352Y016271D01*
X017352Y016346D01*
X017099Y016346D01*
X017078Y016344D01*
X017038Y016328D01*
X017022Y016315D01*
X017022Y016315D01*
X016962Y016254D01*
X016962Y016254D01*
X016687Y015980D01*
X016621Y015914D01*
X016621Y015914D01*
X016431Y015835D01*
X016525Y015741D01*
X016525Y015554D01*
X016402Y015431D01*
X016525Y015308D01*
X016525Y015121D01*
X016402Y014998D01*
X016525Y014875D01*
X016525Y014693D01*
X017972Y014693D01*
X017981Y014696D01*
X018040Y014693D01*
X018100Y014693D01*
X018108Y014689D01*
X018118Y014689D01*
X018171Y014663D01*
X018226Y014640D01*
X018233Y014634D01*
X018241Y014630D01*
X018281Y014586D01*
X018323Y014544D01*
X018327Y014535D01*
X018539Y014299D01*
X020698Y014299D01*
X020825Y014247D01*
X020922Y014150D01*
X020974Y014023D01*
X020974Y013886D01*
X020922Y013760D01*
X020825Y013663D01*
X020698Y013610D01*
X018445Y013610D01*
X018436Y013607D01*
X018376Y013610D01*
X018317Y013610D01*
X018308Y013614D01*
X018299Y013614D01*
X018245Y013640D01*
X018190Y013663D01*
X018184Y013669D01*
X018175Y013673D01*
X018136Y013717D01*
X018093Y013760D01*
X018090Y013768D01*
X017878Y014004D01*
X016525Y014004D01*
X016525Y013822D01*
X016393Y013689D01*
X016269Y013689D01*
X016269Y013653D02*
X018213Y013653D01*
X018103Y013750D02*
X016454Y013750D01*
X016525Y013847D02*
X018019Y013847D01*
X017932Y013944D02*
X016525Y013944D01*
X016269Y013556D02*
X021899Y013556D01*
X021899Y013653D02*
X020802Y013653D01*
X020912Y013750D02*
X021955Y013750D01*
X022126Y013600D02*
X022126Y013167D01*
X022008Y013049D01*
X022008Y012616D01*
X022243Y012490D02*
X022628Y012490D01*
X022628Y012587D02*
X022273Y012587D01*
X022267Y012684D02*
X022628Y012684D01*
X022628Y012781D02*
X022219Y012781D01*
X022165Y012878D02*
X022628Y012878D01*
X022628Y012975D02*
X022165Y012975D01*
X022253Y013072D02*
X022628Y013072D01*
X022628Y013169D02*
X022283Y013169D01*
X022283Y013266D02*
X022628Y013266D01*
X022628Y013362D02*
X022283Y013362D01*
X022305Y013459D02*
X022628Y013459D01*
X022628Y013556D02*
X022352Y013556D01*
X022352Y013653D02*
X022628Y013653D01*
X022628Y013750D02*
X022296Y013750D01*
X022628Y013847D02*
X020958Y013847D01*
X020974Y013944D02*
X022628Y013944D01*
X022628Y014041D02*
X020967Y014041D01*
X020927Y014138D02*
X022628Y014138D01*
X022628Y014235D02*
X020837Y014235D01*
X020774Y014624D02*
X020866Y014716D01*
X021167Y015018D01*
X021254Y015018D01*
X021323Y014949D01*
X021511Y014949D01*
X021643Y015081D01*
X021643Y015269D01*
X021511Y015402D01*
X021323Y015402D01*
X021254Y015333D01*
X021037Y015333D01*
X020643Y014939D01*
X020262Y014939D01*
X020108Y015093D01*
X020108Y015190D01*
X019975Y015323D01*
X019788Y015323D01*
X019655Y015190D01*
X019655Y015003D01*
X019788Y014870D01*
X019885Y014870D01*
X020131Y014624D01*
X020774Y014624D01*
X020869Y014719D02*
X022628Y014719D01*
X022628Y014622D02*
X018248Y014622D01*
X018335Y014526D02*
X022628Y014526D01*
X022628Y014429D02*
X018422Y014429D01*
X018510Y014332D02*
X022628Y014332D01*
X022628Y014816D02*
X020966Y014816D01*
X021063Y014913D02*
X022628Y014913D01*
X022628Y015010D02*
X021572Y015010D01*
X021643Y015107D02*
X022628Y015107D01*
X022628Y015204D02*
X021643Y015204D01*
X021611Y015301D02*
X022628Y015301D01*
X022628Y015398D02*
X021514Y015398D01*
X021320Y015398D02*
X016436Y015398D01*
X016466Y015495D02*
X022628Y015495D01*
X022628Y015592D02*
X016525Y015592D01*
X016525Y015689D02*
X022628Y015689D01*
X022628Y015786D02*
X016481Y015786D01*
X016545Y015883D02*
X022628Y015883D01*
X022628Y015979D02*
X016687Y015979D01*
X016784Y016076D02*
X017546Y016076D01*
X017414Y016173D02*
X016881Y016173D01*
X016978Y016270D02*
X017352Y016270D01*
X018090Y016076D02*
X022628Y016076D01*
X022628Y016173D02*
X018219Y016173D01*
X018316Y016270D02*
X022628Y016270D01*
X021417Y015175D02*
X021102Y015175D01*
X020708Y014781D01*
X020197Y014781D01*
X019882Y015096D01*
X020108Y015107D02*
X020811Y015107D01*
X020714Y015010D02*
X020191Y015010D01*
X020094Y015204D02*
X020908Y015204D01*
X021005Y015301D02*
X019997Y015301D01*
X019766Y015301D02*
X016525Y015301D01*
X016525Y015204D02*
X019669Y015204D01*
X019655Y015107D02*
X016512Y015107D01*
X016415Y015010D02*
X019655Y015010D01*
X019745Y014913D02*
X016487Y014913D01*
X016525Y014816D02*
X019939Y014816D01*
X020036Y014719D02*
X016525Y014719D01*
X016269Y013459D02*
X021946Y013459D01*
X021968Y013362D02*
X016269Y013362D01*
X016403Y013266D02*
X021968Y013266D01*
X021904Y013169D02*
X016500Y013169D01*
X016525Y013072D02*
X021850Y013072D01*
X021850Y012975D02*
X016525Y012975D01*
X016448Y012878D02*
X016819Y012878D01*
X016815Y012781D02*
X016454Y012781D01*
X016525Y012684D02*
X016867Y012684D01*
X016548Y012587D02*
X016525Y012587D01*
X018505Y012878D02*
X018527Y012878D01*
X019025Y012878D02*
X019304Y012878D01*
X019248Y012781D02*
X019029Y012781D01*
X019029Y012684D02*
X019248Y012684D01*
X019387Y012961D02*
X019387Y012961D01*
X019697Y012878D02*
X020687Y012878D01*
X020591Y012781D02*
X019754Y012781D01*
X019754Y012684D02*
X020591Y012684D01*
X020958Y012921D02*
X020958Y012921D01*
X021001Y012878D02*
X021049Y012878D01*
X021364Y012878D02*
X021850Y012878D01*
X021797Y012781D02*
X021711Y012781D01*
X021262Y015010D02*
X021160Y015010D01*
X020591Y018335D02*
X019693Y018335D01*
X019754Y018395D01*
X019754Y018665D01*
X019754Y018727D01*
X019701Y018780D01*
X019683Y018798D01*
X019614Y018866D01*
X019552Y018866D01*
X019510Y018866D01*
X019492Y018866D01*
X019448Y018866D01*
X019387Y018866D01*
X019316Y018796D01*
X019300Y018780D01*
X019300Y018780D01*
X019249Y018728D01*
X019248Y018727D01*
X019248Y018666D01*
X019248Y018500D01*
X019029Y018500D01*
X019029Y018780D01*
X018942Y018866D01*
X018819Y018866D01*
X018776Y018823D01*
X018732Y018866D01*
X018610Y018866D01*
X018523Y018780D01*
X018523Y018766D01*
X018422Y018866D01*
X018299Y018866D01*
X018258Y018825D01*
X018217Y018866D01*
X017885Y018866D01*
X017869Y018851D01*
X017854Y018866D01*
X017731Y018866D01*
X017688Y018823D01*
X017645Y018866D01*
X017522Y018866D01*
X017507Y018851D01*
X017492Y018866D01*
X017369Y018866D01*
X017326Y018823D01*
X017282Y018866D01*
X017160Y018866D01*
X017144Y018851D01*
X017129Y018866D01*
X016902Y018866D01*
X016815Y018780D01*
X016815Y018657D01*
X016867Y018604D01*
X016867Y018518D01*
X016849Y018500D01*
X016555Y018500D01*
X016525Y018470D01*
X016525Y018615D01*
X016402Y018738D01*
X016525Y018861D01*
X016525Y019048D01*
X016393Y019181D01*
X016269Y019181D01*
X016269Y019594D01*
X016393Y019594D01*
X016525Y019727D01*
X016525Y019909D01*
X017878Y019909D01*
X018090Y019674D01*
X018093Y019665D01*
X018136Y019623D01*
X018175Y019579D01*
X018184Y019575D01*
X018190Y019568D01*
X018245Y019545D01*
X018299Y019520D01*
X018308Y019519D01*
X018317Y019516D01*
X018376Y019516D01*
X018436Y019513D01*
X018445Y019516D01*
X020698Y019516D01*
X020825Y019568D01*
X020922Y019665D01*
X020974Y019792D01*
X020974Y019929D01*
X020922Y020055D01*
X020825Y020152D01*
X020698Y020205D01*
X018539Y020205D01*
X018327Y020440D01*
X018323Y020449D01*
X018281Y020491D01*
X018241Y020535D01*
X018233Y020539D01*
X018226Y020546D01*
X018171Y020569D01*
X018118Y020594D01*
X018108Y020595D01*
X018100Y020598D01*
X018040Y020598D01*
X017981Y020602D01*
X017972Y020598D01*
X016525Y020598D01*
X016525Y020781D01*
X016402Y020904D01*
X016525Y021026D01*
X016525Y021214D01*
X016402Y021337D01*
X016525Y021459D01*
X016525Y021647D01*
X016431Y021741D01*
X016621Y021820D01*
X016621Y021820D01*
X016689Y021887D01*
X016962Y022160D01*
X017022Y022220D01*
X017038Y022234D01*
X017078Y022250D01*
X017099Y022252D01*
X017352Y022252D01*
X017352Y022176D01*
X017365Y022164D01*
X017429Y022053D01*
X017539Y021989D01*
X016791Y021989D01*
X016888Y022086D02*
X017410Y022086D01*
X017429Y022053D02*
X017429Y022053D01*
X017429Y022053D01*
X017539Y021989D02*
X017552Y021976D01*
X018084Y021976D01*
X018105Y021997D01*
X018111Y021999D01*
X018140Y021999D01*
X018170Y022030D01*
X018200Y022060D01*
X018200Y022060D01*
X018261Y022120D01*
X018261Y022120D01*
X018379Y022239D01*
X018392Y022252D01*
X022628Y022252D01*
X022628Y018335D01*
X022196Y018335D01*
X022233Y018371D01*
X022273Y018469D01*
X022273Y018574D01*
X022233Y018672D01*
X022165Y018740D01*
X022165Y018889D01*
X022283Y019008D01*
X022283Y019343D01*
X022352Y019412D01*
X022352Y019600D01*
X022219Y019732D01*
X022032Y019732D01*
X021899Y019600D01*
X021899Y019412D01*
X021968Y019343D01*
X021968Y019138D01*
X021942Y019112D01*
X021850Y019020D01*
X021850Y018740D01*
X021782Y018672D01*
X021761Y018622D01*
X021761Y018635D01*
X021675Y018722D01*
X021425Y018722D01*
X021407Y018740D01*
X021407Y018740D01*
X021389Y018758D01*
X021320Y018827D01*
X021258Y018827D01*
X021216Y018827D01*
X021197Y018827D01*
X021154Y018827D01*
X021093Y018827D01*
X021093Y018827D01*
X021093Y018827D01*
X021025Y018759D01*
X020958Y018827D01*
X020958Y018827D01*
X020958Y018827D01*
X020853Y018827D01*
X020845Y018827D01*
X020835Y018827D01*
X020730Y018827D01*
X020662Y018758D01*
X020643Y018740D01*
X020591Y018688D01*
X020591Y018626D01*
X020591Y018513D01*
X020634Y018469D01*
X020591Y018426D01*
X020591Y018335D01*
X020591Y018403D02*
X019754Y018403D01*
X019754Y018500D02*
X020604Y018500D01*
X020591Y018596D02*
X019754Y018596D01*
X019754Y018693D02*
X020597Y018693D01*
X020643Y018740D02*
X020643Y018740D01*
X020693Y018790D02*
X019691Y018790D01*
X019701Y018780D02*
X019701Y018780D01*
X019614Y018866D02*
X019614Y018866D01*
X019614Y018866D01*
X019387Y018866D02*
X019387Y018866D01*
X019387Y018866D01*
X019311Y018790D02*
X019018Y018790D01*
X019029Y018693D02*
X019248Y018693D01*
X019248Y018727D02*
X019248Y018727D01*
X019248Y018596D02*
X019029Y018596D01*
X018533Y018790D02*
X018498Y018790D01*
X018196Y019566D02*
X016269Y019566D01*
X016269Y019469D02*
X021899Y019469D01*
X021899Y019566D02*
X020819Y019566D01*
X020919Y019663D02*
X021962Y019663D01*
X022126Y019506D02*
X022126Y019073D01*
X022008Y018955D01*
X022008Y018522D01*
X022212Y018693D02*
X022628Y018693D01*
X022628Y018596D02*
X022264Y018596D01*
X022273Y018500D02*
X022628Y018500D01*
X022628Y018403D02*
X022246Y018403D01*
X022165Y018790D02*
X022628Y018790D01*
X022628Y018887D02*
X022165Y018887D01*
X022260Y018984D02*
X022628Y018984D01*
X022628Y019081D02*
X022283Y019081D01*
X022283Y019178D02*
X022628Y019178D01*
X022628Y019275D02*
X022283Y019275D01*
X022312Y019372D02*
X022628Y019372D01*
X022628Y019469D02*
X022352Y019469D01*
X022352Y019566D02*
X022628Y019566D01*
X022628Y019663D02*
X022289Y019663D01*
X022628Y019760D02*
X020961Y019760D01*
X020974Y019856D02*
X022628Y019856D01*
X022628Y019953D02*
X020964Y019953D01*
X020924Y020050D02*
X022628Y020050D01*
X022628Y020147D02*
X020830Y020147D01*
X020774Y020529D02*
X020866Y020622D01*
X021167Y020923D01*
X021254Y020923D01*
X021323Y020854D01*
X021511Y020854D01*
X021643Y020987D01*
X021643Y021174D01*
X021511Y021307D01*
X021323Y021307D01*
X021254Y021238D01*
X021037Y021238D01*
X020643Y020844D01*
X020262Y020844D01*
X020108Y020998D01*
X020108Y021096D01*
X019975Y021228D01*
X019788Y021228D01*
X019655Y021096D01*
X019655Y020908D01*
X019788Y020776D01*
X019885Y020776D01*
X020131Y020529D01*
X020774Y020529D01*
X020779Y020535D02*
X022628Y020535D01*
X022628Y020632D02*
X020876Y020632D01*
X020973Y020729D02*
X022628Y020729D01*
X022628Y020826D02*
X021070Y020826D01*
X021167Y020923D02*
X021255Y020923D01*
X021102Y021081D02*
X020708Y020687D01*
X020197Y020687D01*
X019882Y021002D01*
X020108Y021020D02*
X020818Y021020D01*
X020915Y021116D02*
X020087Y021116D01*
X019990Y021213D02*
X021012Y021213D01*
X021102Y021081D02*
X021417Y021081D01*
X021579Y020923D02*
X022628Y020923D01*
X022628Y021020D02*
X021643Y021020D01*
X021643Y021116D02*
X022628Y021116D01*
X022628Y021213D02*
X021604Y021213D01*
X020721Y020923D02*
X020184Y020923D01*
X019932Y020729D02*
X016525Y020729D01*
X016525Y020632D02*
X020029Y020632D01*
X020126Y020535D02*
X018242Y020535D01*
X018329Y020438D02*
X022628Y020438D01*
X022628Y020341D02*
X018416Y020341D01*
X018503Y020244D02*
X022628Y020244D01*
X022628Y021310D02*
X016429Y021310D01*
X016473Y021407D02*
X022628Y021407D01*
X022628Y021504D02*
X016525Y021504D01*
X016525Y021601D02*
X022628Y021601D01*
X022628Y021698D02*
X016474Y021698D01*
X016562Y021795D02*
X022628Y021795D01*
X022628Y021892D02*
X016694Y021892D01*
X016962Y022160D02*
X016962Y022160D01*
X016985Y022183D02*
X017352Y022183D01*
X018097Y021989D02*
X022628Y021989D01*
X022628Y022086D02*
X018226Y022086D01*
X018323Y022183D02*
X022628Y022183D01*
X021940Y019372D02*
X016269Y019372D01*
X016269Y019275D02*
X021968Y019275D01*
X021968Y019178D02*
X016396Y019178D01*
X016493Y019081D02*
X021911Y019081D01*
X021850Y018984D02*
X016525Y018984D01*
X016525Y018887D02*
X021850Y018887D01*
X021850Y018790D02*
X021357Y018790D01*
X021320Y018827D02*
X021320Y018827D01*
X021320Y018827D01*
X021056Y018790D02*
X020994Y018790D01*
X020853Y018827D02*
X020853Y018827D01*
X020835Y018827D02*
X020835Y018827D01*
X020730Y018827D02*
X020730Y018827D01*
X020730Y018827D01*
X021704Y018693D02*
X021803Y018693D01*
X019738Y020826D02*
X016480Y020826D01*
X016422Y020923D02*
X019655Y020923D01*
X019655Y021020D02*
X016519Y021020D01*
X016525Y021116D02*
X019676Y021116D01*
X019773Y021213D02*
X016525Y021213D01*
X016525Y019856D02*
X017925Y019856D01*
X018013Y019760D02*
X016525Y019760D01*
X016461Y019663D02*
X018096Y019663D01*
X016867Y018596D02*
X016525Y018596D01*
X016525Y018500D02*
X016555Y018500D01*
X016447Y018693D02*
X016815Y018693D01*
X016826Y018790D02*
X016455Y018790D01*
X012391Y022183D02*
X008087Y022183D01*
X017038Y010423D02*
X017078Y010439D01*
X017099Y010441D01*
X017352Y010441D01*
X017352Y010365D01*
X017365Y010353D01*
X017429Y010242D01*
X017539Y010178D01*
X017552Y010165D01*
X018084Y010165D01*
X018105Y010186D01*
X018111Y010188D01*
X018140Y010188D01*
X018173Y010221D01*
X018200Y010249D01*
X018200Y010249D01*
X018261Y010309D01*
X018261Y010309D01*
X018380Y010428D01*
X018392Y010441D01*
X022628Y010441D01*
X022628Y006524D01*
X022196Y006524D01*
X022233Y006560D01*
X022273Y006658D01*
X022273Y006763D01*
X022233Y006861D01*
X022165Y006929D01*
X022165Y007078D01*
X022283Y007197D01*
X022283Y007532D01*
X022352Y007601D01*
X022352Y007789D01*
X022219Y007921D01*
X022032Y007921D01*
X021899Y007789D01*
X021899Y007601D01*
X021968Y007532D01*
X021968Y007327D01*
X021942Y007301D01*
X021850Y007209D01*
X021850Y006929D01*
X021782Y006861D01*
X021761Y006811D01*
X021761Y006824D01*
X021675Y006911D01*
X021425Y006911D01*
X021407Y006929D01*
X021389Y006947D01*
X021320Y007016D01*
X021216Y007016D01*
X021206Y007016D01*
X021197Y007016D01*
X021093Y007016D01*
X021093Y007016D01*
X021093Y007016D01*
X021025Y006948D01*
X020958Y007016D01*
X020958Y007016D01*
X020958Y007016D01*
X020853Y007016D01*
X020835Y007016D01*
X020730Y007016D01*
X020662Y006947D01*
X020643Y006929D01*
X020591Y006877D01*
X020591Y006815D01*
X020591Y006702D01*
X020634Y006658D01*
X020591Y006615D01*
X020591Y006524D01*
X019693Y006524D01*
X019701Y006532D01*
X019754Y006584D01*
X019754Y006854D01*
X019754Y006916D01*
X019701Y006968D01*
X019701Y006968D01*
X019683Y006987D01*
X019614Y007055D01*
X019510Y007055D01*
X019510Y007055D01*
X019500Y007055D01*
X019492Y007055D01*
X019387Y007055D01*
X019316Y006985D01*
X019300Y006968D01*
X019249Y006917D01*
X019248Y006916D01*
X019248Y006855D01*
X019248Y006689D01*
X019029Y006689D01*
X019029Y006968D01*
X018942Y007055D01*
X018819Y007055D01*
X018776Y007012D01*
X018732Y007055D01*
X018610Y007055D01*
X018523Y006969D01*
X018523Y006955D01*
X018422Y007055D01*
X018299Y007055D01*
X018258Y007014D01*
X018217Y007055D01*
X017885Y007055D01*
X017869Y007040D01*
X017854Y007055D01*
X017731Y007055D01*
X017688Y007012D01*
X017645Y007055D01*
X017522Y007055D01*
X017507Y007040D01*
X017492Y007055D01*
X017369Y007055D01*
X017326Y007012D01*
X017282Y007055D01*
X017160Y007055D01*
X017144Y007040D01*
X017129Y007055D01*
X016902Y007055D01*
X016815Y006968D01*
X016815Y006846D01*
X016867Y006793D01*
X016867Y006707D01*
X016849Y006689D01*
X016555Y006689D01*
X016525Y006659D01*
X016525Y006804D01*
X016402Y006927D01*
X016525Y007050D01*
X016525Y007237D01*
X016393Y007370D01*
X016269Y007370D01*
X016269Y007783D01*
X016393Y007783D01*
X016525Y007916D01*
X016525Y008098D01*
X017878Y008098D01*
X018090Y007863D01*
X018093Y007854D01*
X018136Y007812D01*
X018175Y007768D01*
X018184Y007764D01*
X018190Y007757D01*
X018245Y007734D01*
X018299Y007709D01*
X018308Y007708D01*
X018317Y007705D01*
X018376Y007705D01*
X018436Y007702D01*
X018445Y007705D01*
X020698Y007705D01*
X020825Y007757D01*
X020922Y007854D01*
X020974Y007981D01*
X020974Y008118D01*
X020922Y008244D01*
X020825Y008341D01*
X020698Y008394D01*
X018539Y008394D01*
X018327Y008629D01*
X018323Y008638D01*
X018281Y008680D01*
X018241Y008724D01*
X018233Y008728D01*
X018226Y008735D01*
X018171Y008758D01*
X018118Y008783D01*
X018108Y008784D01*
X018100Y008787D01*
X018040Y008787D01*
X017981Y008790D01*
X017972Y008787D01*
X016525Y008787D01*
X016525Y008970D01*
X016402Y009092D01*
X016525Y009215D01*
X016525Y009403D01*
X016402Y009526D01*
X016525Y009648D01*
X016525Y009836D01*
X016431Y009930D01*
X016621Y010009D01*
X016621Y010009D01*
X016686Y010073D01*
X016962Y010349D01*
X017021Y010408D01*
X017022Y010409D01*
X017038Y010423D01*
X016971Y010358D02*
X017359Y010358D01*
X017418Y010261D02*
X016874Y010261D01*
X016962Y010349D02*
X016962Y010349D01*
X016777Y010164D02*
X022628Y010164D01*
X022628Y010261D02*
X018212Y010261D01*
X018309Y010358D02*
X022628Y010358D01*
X022628Y010067D02*
X016680Y010067D01*
X016529Y009970D02*
X022628Y009970D01*
X022628Y009873D02*
X016488Y009873D01*
X016525Y009776D02*
X022628Y009776D01*
X022628Y009679D02*
X016525Y009679D01*
X016459Y009582D02*
X022628Y009582D01*
X022628Y009485D02*
X021521Y009485D01*
X021511Y009496D02*
X021323Y009496D01*
X021254Y009427D01*
X021037Y009427D01*
X020643Y009033D01*
X020262Y009033D01*
X020108Y009187D01*
X020108Y009285D01*
X019975Y009417D01*
X019788Y009417D01*
X019655Y009285D01*
X019655Y009097D01*
X019788Y008965D01*
X019885Y008965D01*
X020131Y008718D01*
X020774Y008718D01*
X020866Y008811D01*
X021167Y009112D01*
X021254Y009112D01*
X021323Y009043D01*
X021511Y009043D01*
X021643Y009176D01*
X021643Y009363D01*
X021511Y009496D01*
X021618Y009389D02*
X022628Y009389D01*
X022628Y009292D02*
X021643Y009292D01*
X021643Y009195D02*
X022628Y009195D01*
X022628Y009098D02*
X021565Y009098D01*
X021417Y009270D02*
X021102Y009270D01*
X020708Y008876D01*
X020197Y008876D01*
X019882Y009191D01*
X020108Y009195D02*
X020804Y009195D01*
X020707Y009098D02*
X020197Y009098D01*
X020101Y009292D02*
X020901Y009292D01*
X020998Y009389D02*
X020004Y009389D01*
X019759Y009389D02*
X016525Y009389D01*
X016525Y009292D02*
X019662Y009292D01*
X019655Y009195D02*
X016505Y009195D01*
X016408Y009098D02*
X019655Y009098D01*
X019752Y009001D02*
X016494Y009001D01*
X016525Y008904D02*
X019946Y008904D01*
X020043Y008807D02*
X016525Y008807D01*
X016443Y009485D02*
X021313Y009485D01*
X021269Y009098D02*
X021153Y009098D01*
X021056Y009001D02*
X022628Y009001D01*
X022628Y008904D02*
X020959Y008904D01*
X020862Y008807D02*
X022628Y008807D01*
X022628Y008710D02*
X018254Y008710D01*
X018341Y008613D02*
X022628Y008613D01*
X022628Y008516D02*
X018429Y008516D01*
X018516Y008419D02*
X022628Y008419D01*
X022628Y008322D02*
X020844Y008322D01*
X020929Y008225D02*
X022628Y008225D01*
X022628Y008128D02*
X020970Y008128D01*
X020974Y008032D02*
X022628Y008032D01*
X022628Y007935D02*
X020955Y007935D01*
X020905Y007838D02*
X021948Y007838D01*
X021899Y007741D02*
X020785Y007741D01*
X020835Y007016D02*
X020835Y007016D01*
X020853Y007016D02*
X020853Y007016D01*
X020730Y007016D02*
X020730Y007016D01*
X020730Y007016D01*
X020680Y006965D02*
X019704Y006965D01*
X019754Y006868D02*
X020591Y006868D01*
X020643Y006929D02*
X020643Y006929D01*
X020591Y006772D02*
X019754Y006772D01*
X019754Y006675D02*
X020618Y006675D01*
X020591Y006578D02*
X019747Y006578D01*
X019701Y006532D02*
X019701Y006532D01*
X019248Y006772D02*
X019029Y006772D01*
X019029Y006868D02*
X019248Y006868D01*
X019248Y006916D02*
X019248Y006916D01*
X019297Y006965D02*
X019029Y006965D01*
X019300Y006968D02*
X019300Y006968D01*
X019387Y007055D02*
X019387Y007055D01*
X019387Y007055D01*
X019492Y007055D02*
X019492Y007055D01*
X019614Y007055D02*
X019614Y007055D01*
X019614Y007055D01*
X018523Y006965D02*
X018512Y006965D01*
X018230Y007741D02*
X016269Y007741D01*
X016269Y007644D02*
X021899Y007644D01*
X021953Y007547D02*
X016269Y007547D01*
X016269Y007450D02*
X021968Y007450D01*
X021968Y007353D02*
X016410Y007353D01*
X016507Y007256D02*
X021897Y007256D01*
X021850Y007159D02*
X016525Y007159D01*
X016525Y007062D02*
X021850Y007062D01*
X021850Y006965D02*
X021371Y006965D01*
X021407Y006929D02*
X021407Y006929D01*
X021320Y007016D02*
X021320Y007016D01*
X021320Y007016D01*
X021216Y007016D02*
X021216Y007016D01*
X021197Y007016D02*
X021197Y007016D01*
X021042Y006965D02*
X021008Y006965D01*
X021718Y006868D02*
X021790Y006868D01*
X022008Y006711D02*
X022008Y007144D01*
X022126Y007262D01*
X022126Y007695D01*
X022298Y007547D02*
X022628Y007547D01*
X022628Y007644D02*
X022352Y007644D01*
X022352Y007741D02*
X022628Y007741D01*
X022628Y007838D02*
X022303Y007838D01*
X022283Y007450D02*
X022628Y007450D01*
X022628Y007353D02*
X022283Y007353D01*
X022283Y007256D02*
X022628Y007256D01*
X022628Y007159D02*
X022246Y007159D01*
X022165Y007062D02*
X022628Y007062D01*
X022628Y006965D02*
X022165Y006965D01*
X022226Y006868D02*
X022628Y006868D01*
X022628Y006772D02*
X022270Y006772D01*
X022273Y006675D02*
X022628Y006675D01*
X022628Y006578D02*
X022240Y006578D01*
X018110Y007838D02*
X016447Y007838D01*
X016525Y007935D02*
X018025Y007935D01*
X017938Y008032D02*
X016525Y008032D01*
X016441Y006965D02*
X016815Y006965D01*
X016815Y006868D02*
X016461Y006868D01*
X016525Y006772D02*
X016867Y006772D01*
X016541Y006675D02*
X016525Y006675D01*
X017429Y010242D02*
X017429Y010242D01*
X017429Y010242D01*
D18*
X016299Y009742D02*
X016023Y009742D01*
X016023Y009309D02*
X016299Y009309D01*
X016299Y008876D02*
X016023Y008876D01*
X016023Y008010D02*
X016299Y008010D01*
X016299Y007144D02*
X016023Y007144D01*
X016023Y006711D02*
X016299Y006711D01*
X016299Y012616D02*
X016023Y012616D01*
X016023Y013049D02*
X016299Y013049D01*
X016299Y013915D02*
X016023Y013915D01*
X016023Y014781D02*
X016299Y014781D01*
X016299Y015215D02*
X016023Y015215D01*
X016023Y015648D02*
X016299Y015648D01*
X016299Y018522D02*
X016023Y018522D01*
X016023Y018955D02*
X016299Y018955D01*
X016299Y019821D02*
X016023Y019821D01*
X016023Y020687D02*
X016299Y020687D01*
X016299Y021120D02*
X016023Y021120D01*
X016023Y021553D02*
X016299Y021553D01*
X006063Y021553D02*
X005787Y021553D01*
X005787Y021120D02*
X006063Y021120D01*
X006063Y020687D02*
X005787Y020687D01*
X005787Y019821D02*
X006063Y019821D01*
X006063Y018955D02*
X005787Y018955D01*
X005787Y018522D02*
X006063Y018522D01*
X006063Y015648D02*
X005787Y015648D01*
X005787Y015215D02*
X006063Y015215D01*
X006063Y014781D02*
X005787Y014781D01*
X005787Y013915D02*
X006063Y013915D01*
X006063Y013049D02*
X005787Y013049D01*
X005787Y012616D02*
X006063Y012616D01*
X006063Y009742D02*
X005787Y009742D01*
X005787Y009309D02*
X006063Y009309D01*
X006063Y008876D02*
X005787Y008876D01*
X005787Y008010D02*
X006063Y008010D01*
X006063Y007144D02*
X005787Y007144D01*
X005787Y006711D02*
X006063Y006711D01*
M02*
