G75*
%MOIN*%
%OFA0B0*%
%FSLAX24Y24*%
%IPPOS*%
%LPD*%
%AMOC8*
5,1,8,0,0,1.08239X$1,22.5*
%
%ADD10C,0.0080*%
%ADD11C,0.0079*%
D10*
X006339Y008680D02*
X006548Y008680D01*
X006701Y008680D02*
X006858Y008680D01*
X006911Y008732D01*
X006911Y008784D01*
X006858Y008837D01*
X006701Y008837D01*
X006701Y008680D02*
X006701Y008994D01*
X006858Y008994D01*
X006911Y008941D01*
X006911Y008889D01*
X006858Y008837D01*
X007064Y008941D02*
X007116Y008994D01*
X007221Y008994D01*
X007273Y008941D01*
X007426Y008889D02*
X007531Y008994D01*
X007636Y008889D01*
X007636Y008680D01*
X007789Y008680D02*
X007998Y008889D01*
X007998Y008941D01*
X007946Y008994D01*
X007841Y008994D01*
X007789Y008941D01*
X007636Y008837D02*
X007426Y008837D01*
X007426Y008889D02*
X007426Y008680D01*
X007273Y008732D02*
X007221Y008680D01*
X007116Y008680D01*
X007064Y008732D01*
X007064Y008941D01*
X006339Y008994D02*
X006339Y008680D01*
X007789Y008680D02*
X007998Y008680D01*
X008151Y008680D02*
X008151Y008994D01*
X008151Y008837D02*
X008361Y008837D01*
X008361Y008994D02*
X008361Y008680D01*
X008514Y008680D02*
X008514Y008994D01*
X008723Y008680D01*
X008723Y008994D01*
X008876Y008994D02*
X009086Y008994D01*
X009086Y008941D01*
X008876Y008732D01*
X008876Y008680D01*
X009086Y008680D01*
X009344Y008680D02*
X009344Y008837D01*
X009448Y008941D01*
X009448Y008994D01*
X009602Y008994D02*
X009811Y008994D01*
X009811Y008941D01*
X009602Y008732D01*
X009602Y008680D01*
X009811Y008680D01*
X009758Y008403D02*
X009602Y008403D01*
X009602Y008089D01*
X009758Y008089D01*
X009811Y008142D01*
X009811Y008351D01*
X009758Y008403D01*
X009448Y008351D02*
X009396Y008403D01*
X009291Y008403D01*
X009239Y008351D01*
X009239Y008298D01*
X009291Y008246D01*
X009396Y008246D01*
X009448Y008194D01*
X009448Y008142D01*
X009396Y008089D01*
X009291Y008089D01*
X009239Y008142D01*
X009086Y008089D02*
X009086Y008298D01*
X009086Y008089D02*
X008929Y008089D01*
X008876Y008142D01*
X008876Y008298D01*
X008723Y008246D02*
X008514Y008246D01*
X009239Y008941D02*
X009239Y008994D01*
X009239Y008941D02*
X009344Y008837D01*
X009528Y009467D02*
X009528Y009781D01*
X009685Y009781D01*
X009737Y009729D01*
X009737Y009624D01*
X009685Y009572D01*
X009528Y009572D01*
X009633Y009572D02*
X009737Y009467D01*
X009890Y009467D02*
X010100Y009467D01*
X009995Y009467D02*
X009995Y009781D01*
X009890Y009676D01*
X009995Y007852D02*
X009890Y007747D01*
X009995Y007852D02*
X009995Y007538D01*
X009890Y007538D02*
X010100Y007538D01*
X009737Y007590D02*
X009685Y007538D01*
X009580Y007538D01*
X009528Y007590D01*
X009528Y007800D01*
X009580Y007852D01*
X009685Y007852D01*
X009737Y007800D01*
X012992Y010031D02*
X013045Y009979D01*
X013149Y009979D01*
X013202Y010031D01*
X013202Y010293D01*
X013355Y010188D02*
X013460Y010293D01*
X013460Y009979D01*
X013564Y009979D02*
X013355Y009979D01*
X012992Y010031D02*
X012992Y010293D01*
X010100Y013444D02*
X009890Y013444D01*
X009995Y013444D02*
X009995Y013757D01*
X009890Y013653D01*
X009737Y013705D02*
X009685Y013757D01*
X009580Y013757D01*
X009528Y013705D01*
X009528Y013496D01*
X009580Y013444D01*
X009685Y013444D01*
X009737Y013496D01*
X009758Y013995D02*
X009602Y013995D01*
X009602Y014309D01*
X009758Y014309D01*
X009811Y014256D01*
X009811Y014047D01*
X009758Y013995D01*
X009448Y014047D02*
X009396Y013995D01*
X009291Y013995D01*
X009239Y014047D01*
X009291Y014152D02*
X009396Y014152D01*
X009448Y014099D01*
X009448Y014047D01*
X009291Y014152D02*
X009239Y014204D01*
X009239Y014256D01*
X009291Y014309D01*
X009396Y014309D01*
X009448Y014256D01*
X009344Y014585D02*
X009344Y014742D01*
X009448Y014847D01*
X009448Y014899D01*
X009602Y014899D02*
X009811Y014899D01*
X009811Y014847D01*
X009602Y014638D01*
X009602Y014585D01*
X009811Y014585D01*
X009344Y014742D02*
X009239Y014847D01*
X009239Y014899D01*
X009086Y014899D02*
X009086Y014847D01*
X008876Y014638D01*
X008876Y014585D01*
X009086Y014585D01*
X009086Y014899D02*
X008876Y014899D01*
X008723Y014899D02*
X008723Y014585D01*
X008514Y014899D01*
X008514Y014585D01*
X008361Y014585D02*
X008361Y014899D01*
X008361Y014742D02*
X008151Y014742D01*
X008151Y014585D02*
X008151Y014899D01*
X007998Y014847D02*
X007946Y014899D01*
X007841Y014899D01*
X007789Y014847D01*
X007636Y014795D02*
X007636Y014585D01*
X007789Y014585D02*
X007998Y014795D01*
X007998Y014847D01*
X007998Y014585D02*
X007789Y014585D01*
X007636Y014742D02*
X007426Y014742D01*
X007426Y014795D02*
X007531Y014899D01*
X007636Y014795D01*
X007426Y014795D02*
X007426Y014585D01*
X007273Y014638D02*
X007221Y014585D01*
X007116Y014585D01*
X007064Y014638D01*
X007064Y014847D01*
X007116Y014899D01*
X007221Y014899D01*
X007273Y014847D01*
X006911Y014847D02*
X006911Y014795D01*
X006858Y014742D01*
X006701Y014742D01*
X006701Y014585D02*
X006701Y014899D01*
X006858Y014899D01*
X006911Y014847D01*
X006858Y014742D02*
X006911Y014690D01*
X006911Y014638D01*
X006858Y014585D01*
X006701Y014585D01*
X006548Y014585D02*
X006339Y014585D01*
X006339Y014899D01*
X008514Y014152D02*
X008723Y014152D01*
X008876Y014204D02*
X008876Y014047D01*
X008929Y013995D01*
X009086Y013995D01*
X009086Y014204D01*
X009528Y015373D02*
X009528Y015687D01*
X009685Y015687D01*
X009737Y015634D01*
X009737Y015530D01*
X009685Y015477D01*
X009528Y015477D01*
X009633Y015477D02*
X009737Y015373D01*
X009890Y015373D02*
X010100Y015373D01*
X009995Y015373D02*
X009995Y015687D01*
X009890Y015582D01*
X012992Y015937D02*
X013045Y015884D01*
X013149Y015884D01*
X013202Y015937D01*
X013202Y016198D01*
X013355Y016094D02*
X013460Y016198D01*
X013460Y015884D01*
X013564Y015884D02*
X013355Y015884D01*
X012992Y015937D02*
X012992Y016198D01*
X010100Y019349D02*
X009890Y019349D01*
X009995Y019349D02*
X009995Y019663D01*
X009890Y019558D01*
X009737Y019611D02*
X009685Y019663D01*
X009580Y019663D01*
X009528Y019611D01*
X009528Y019401D01*
X009580Y019349D01*
X009685Y019349D01*
X009737Y019401D01*
X009758Y019900D02*
X009602Y019900D01*
X009602Y020214D01*
X009758Y020214D01*
X009811Y020162D01*
X009811Y019953D01*
X009758Y019900D01*
X009448Y019953D02*
X009396Y019900D01*
X009291Y019900D01*
X009239Y019953D01*
X009291Y020057D02*
X009396Y020057D01*
X009448Y020005D01*
X009448Y019953D01*
X009291Y020057D02*
X009239Y020110D01*
X009239Y020162D01*
X009291Y020214D01*
X009396Y020214D01*
X009448Y020162D01*
X009344Y020491D02*
X009344Y020648D01*
X009448Y020752D01*
X009448Y020805D01*
X009602Y020805D02*
X009811Y020805D01*
X009811Y020752D01*
X009602Y020543D01*
X009602Y020491D01*
X009811Y020491D01*
X009344Y020648D02*
X009239Y020752D01*
X009239Y020805D01*
X009086Y020805D02*
X009086Y020752D01*
X008876Y020543D01*
X008876Y020491D01*
X009086Y020491D01*
X009086Y020805D02*
X008876Y020805D01*
X008723Y020805D02*
X008723Y020491D01*
X008514Y020805D01*
X008514Y020491D01*
X008361Y020491D02*
X008361Y020805D01*
X008361Y020648D02*
X008151Y020648D01*
X008151Y020491D02*
X008151Y020805D01*
X007998Y020752D02*
X007946Y020805D01*
X007841Y020805D01*
X007789Y020752D01*
X007636Y020700D02*
X007636Y020491D01*
X007789Y020491D02*
X007998Y020700D01*
X007998Y020752D01*
X007998Y020491D02*
X007789Y020491D01*
X007636Y020648D02*
X007426Y020648D01*
X007426Y020700D02*
X007426Y020491D01*
X007273Y020543D02*
X007221Y020491D01*
X007116Y020491D01*
X007064Y020543D01*
X007064Y020752D01*
X007116Y020805D01*
X007221Y020805D01*
X007273Y020752D01*
X007426Y020700D02*
X007531Y020805D01*
X007636Y020700D01*
X006911Y020700D02*
X006858Y020648D01*
X006701Y020648D01*
X006701Y020491D02*
X006701Y020805D01*
X006858Y020805D01*
X006911Y020752D01*
X006911Y020700D01*
X006858Y020648D02*
X006911Y020595D01*
X006911Y020543D01*
X006858Y020491D01*
X006701Y020491D01*
X006548Y020491D02*
X006339Y020491D01*
X006339Y020805D01*
X008514Y020057D02*
X008723Y020057D01*
X008876Y020110D02*
X008876Y019953D01*
X008929Y019900D01*
X009086Y019900D01*
X009086Y020110D01*
X009528Y021278D02*
X009528Y021592D01*
X009685Y021592D01*
X009737Y021540D01*
X009737Y021435D01*
X009685Y021383D01*
X009528Y021383D01*
X009633Y021383D02*
X009737Y021278D01*
X009890Y021278D02*
X010100Y021278D01*
X009995Y021278D02*
X009995Y021592D01*
X009890Y021487D01*
X012992Y021842D02*
X013045Y021790D01*
X013149Y021790D01*
X013202Y021842D01*
X013202Y022104D01*
X013355Y021999D02*
X013460Y022104D01*
X013460Y021790D01*
X013564Y021790D02*
X013355Y021790D01*
X012992Y021842D02*
X012992Y022104D01*
X016575Y020805D02*
X016575Y020491D01*
X016784Y020491D01*
X016938Y020491D02*
X016938Y020805D01*
X017095Y020805D01*
X017147Y020752D01*
X017147Y020700D01*
X017095Y020648D01*
X016938Y020648D01*
X017095Y020648D02*
X017147Y020595D01*
X017147Y020543D01*
X017095Y020491D01*
X016938Y020491D01*
X017300Y020543D02*
X017300Y020752D01*
X017352Y020805D01*
X017457Y020805D01*
X017509Y020752D01*
X017663Y020700D02*
X017663Y020491D01*
X017663Y020648D02*
X017872Y020648D01*
X017872Y020700D02*
X017872Y020491D01*
X018025Y020491D02*
X018234Y020700D01*
X018234Y020752D01*
X018182Y020805D01*
X018077Y020805D01*
X018025Y020752D01*
X017872Y020700D02*
X017767Y020805D01*
X017663Y020700D01*
X017509Y020543D02*
X017457Y020491D01*
X017352Y020491D01*
X017300Y020543D01*
X018025Y020491D02*
X018234Y020491D01*
X018388Y020491D02*
X018388Y020805D01*
X018388Y020648D02*
X018597Y020648D01*
X018597Y020805D02*
X018597Y020491D01*
X018750Y020491D02*
X018750Y020805D01*
X018959Y020491D01*
X018959Y020805D01*
X019113Y020805D02*
X019322Y020805D01*
X019322Y020752D01*
X019113Y020543D01*
X019113Y020491D01*
X019322Y020491D01*
X019580Y020491D02*
X019580Y020648D01*
X019685Y020752D01*
X019685Y020805D01*
X019838Y020805D02*
X020047Y020805D01*
X020047Y020752D01*
X019838Y020543D01*
X019838Y020491D01*
X020047Y020491D01*
X019995Y020214D02*
X019838Y020214D01*
X019838Y019900D01*
X019995Y019900D01*
X020047Y019953D01*
X020047Y020162D01*
X019995Y020214D01*
X019685Y020162D02*
X019632Y020214D01*
X019528Y020214D01*
X019475Y020162D01*
X019475Y020110D01*
X019528Y020057D01*
X019632Y020057D01*
X019685Y020005D01*
X019685Y019953D01*
X019632Y019900D01*
X019528Y019900D01*
X019475Y019953D01*
X019322Y019900D02*
X019322Y020110D01*
X019113Y020110D02*
X019113Y019953D01*
X019165Y019900D01*
X019322Y019900D01*
X019764Y019611D02*
X019764Y019401D01*
X019816Y019349D01*
X019921Y019349D01*
X019973Y019401D01*
X020127Y019349D02*
X020336Y019349D01*
X020231Y019349D02*
X020231Y019663D01*
X020127Y019558D01*
X019973Y019611D02*
X019921Y019663D01*
X019816Y019663D01*
X019764Y019611D01*
X018960Y020057D02*
X018750Y020057D01*
X019475Y020752D02*
X019580Y020648D01*
X019475Y020752D02*
X019475Y020805D01*
X019764Y021278D02*
X019764Y021592D01*
X019921Y021592D01*
X019973Y021540D01*
X019973Y021435D01*
X019921Y021383D01*
X019764Y021383D01*
X019869Y021383D02*
X019973Y021278D01*
X020127Y021278D02*
X020336Y021278D01*
X020231Y021278D02*
X020231Y021592D01*
X020127Y021487D01*
X023229Y021842D02*
X023281Y021790D01*
X023386Y021790D01*
X023438Y021842D01*
X023438Y022104D01*
X023591Y021999D02*
X023696Y022104D01*
X023696Y021790D01*
X023800Y021790D02*
X023591Y021790D01*
X023229Y021842D02*
X023229Y022104D01*
X023229Y016198D02*
X023229Y015937D01*
X023281Y015884D01*
X023386Y015884D01*
X023438Y015937D01*
X023438Y016198D01*
X023591Y016094D02*
X023696Y016198D01*
X023696Y015884D01*
X023800Y015884D02*
X023591Y015884D01*
X020336Y015373D02*
X020127Y015373D01*
X020231Y015373D02*
X020231Y015687D01*
X020127Y015582D01*
X019973Y015634D02*
X019921Y015687D01*
X019764Y015687D01*
X019764Y015373D01*
X019764Y015477D02*
X019921Y015477D01*
X019973Y015530D01*
X019973Y015634D01*
X019869Y015477D02*
X019973Y015373D01*
X020047Y014899D02*
X020047Y014847D01*
X019838Y014638D01*
X019838Y014585D01*
X020047Y014585D01*
X019995Y014309D02*
X019838Y014309D01*
X019838Y013995D01*
X019995Y013995D01*
X020047Y014047D01*
X020047Y014256D01*
X019995Y014309D01*
X019685Y014256D02*
X019632Y014309D01*
X019528Y014309D01*
X019475Y014256D01*
X019475Y014204D01*
X019528Y014152D01*
X019632Y014152D01*
X019685Y014099D01*
X019685Y014047D01*
X019632Y013995D01*
X019528Y013995D01*
X019475Y014047D01*
X019322Y013995D02*
X019322Y014204D01*
X019113Y014204D02*
X019113Y014047D01*
X019165Y013995D01*
X019322Y013995D01*
X019764Y013705D02*
X019764Y013496D01*
X019816Y013444D01*
X019921Y013444D01*
X019973Y013496D01*
X020127Y013444D02*
X020336Y013444D01*
X020231Y013444D02*
X020231Y013757D01*
X020127Y013653D01*
X019973Y013705D02*
X019921Y013757D01*
X019816Y013757D01*
X019764Y013705D01*
X019580Y014585D02*
X019580Y014742D01*
X019685Y014847D01*
X019685Y014899D01*
X019838Y014899D02*
X020047Y014899D01*
X019580Y014742D02*
X019475Y014847D01*
X019475Y014899D01*
X019322Y014899D02*
X019322Y014847D01*
X019113Y014638D01*
X019113Y014585D01*
X019322Y014585D01*
X019322Y014899D02*
X019113Y014899D01*
X018959Y014899D02*
X018959Y014585D01*
X018750Y014899D01*
X018750Y014585D01*
X018597Y014585D02*
X018597Y014899D01*
X018597Y014742D02*
X018388Y014742D01*
X018388Y014585D02*
X018388Y014899D01*
X018234Y014847D02*
X018182Y014899D01*
X018077Y014899D01*
X018025Y014847D01*
X017872Y014795D02*
X017872Y014585D01*
X018025Y014585D02*
X018234Y014795D01*
X018234Y014847D01*
X018234Y014585D02*
X018025Y014585D01*
X017872Y014742D02*
X017663Y014742D01*
X017663Y014795D02*
X017767Y014899D01*
X017872Y014795D01*
X017663Y014795D02*
X017663Y014585D01*
X017509Y014638D02*
X017457Y014585D01*
X017352Y014585D01*
X017300Y014638D01*
X017300Y014847D01*
X017352Y014899D01*
X017457Y014899D01*
X017509Y014847D01*
X017147Y014847D02*
X017147Y014795D01*
X017095Y014742D01*
X016938Y014742D01*
X017095Y014742D02*
X017147Y014690D01*
X017147Y014638D01*
X017095Y014585D01*
X016938Y014585D01*
X016938Y014899D01*
X017095Y014899D01*
X017147Y014847D01*
X016784Y014585D02*
X016575Y014585D01*
X016575Y014899D01*
X018750Y014152D02*
X018960Y014152D01*
X019764Y009781D02*
X019921Y009781D01*
X019973Y009729D01*
X019973Y009624D01*
X019921Y009572D01*
X019764Y009572D01*
X019869Y009572D02*
X019973Y009467D01*
X020127Y009467D02*
X020336Y009467D01*
X020231Y009467D02*
X020231Y009781D01*
X020127Y009676D01*
X019764Y009781D02*
X019764Y009467D01*
X019838Y008994D02*
X020047Y008994D01*
X020047Y008941D01*
X019838Y008732D01*
X019838Y008680D01*
X020047Y008680D01*
X019995Y008403D02*
X019838Y008403D01*
X019838Y008089D01*
X019995Y008089D01*
X020047Y008142D01*
X020047Y008351D01*
X019995Y008403D01*
X019685Y008351D02*
X019632Y008403D01*
X019528Y008403D01*
X019475Y008351D01*
X019475Y008298D01*
X019528Y008246D01*
X019632Y008246D01*
X019685Y008194D01*
X019685Y008142D01*
X019632Y008089D01*
X019528Y008089D01*
X019475Y008142D01*
X019322Y008089D02*
X019322Y008298D01*
X019322Y008089D02*
X019165Y008089D01*
X019113Y008142D01*
X019113Y008298D01*
X018960Y008246D02*
X018750Y008246D01*
X018750Y008680D02*
X018750Y008994D01*
X018959Y008680D01*
X018959Y008994D01*
X019113Y008994D02*
X019322Y008994D01*
X019322Y008941D01*
X019113Y008732D01*
X019113Y008680D01*
X019322Y008680D01*
X019580Y008680D02*
X019580Y008837D01*
X019685Y008941D01*
X019685Y008994D01*
X019580Y008837D02*
X019475Y008941D01*
X019475Y008994D01*
X018597Y008994D02*
X018597Y008680D01*
X018597Y008837D02*
X018388Y008837D01*
X018388Y008680D02*
X018388Y008994D01*
X018234Y008941D02*
X018182Y008994D01*
X018077Y008994D01*
X018025Y008941D01*
X017872Y008889D02*
X017872Y008680D01*
X018025Y008680D02*
X018234Y008889D01*
X018234Y008941D01*
X018234Y008680D02*
X018025Y008680D01*
X017872Y008837D02*
X017663Y008837D01*
X017663Y008889D02*
X017767Y008994D01*
X017872Y008889D01*
X017663Y008889D02*
X017663Y008680D01*
X017509Y008732D02*
X017457Y008680D01*
X017352Y008680D01*
X017300Y008732D01*
X017300Y008941D01*
X017352Y008994D01*
X017457Y008994D01*
X017509Y008941D01*
X017147Y008941D02*
X017095Y008994D01*
X016938Y008994D01*
X016938Y008680D01*
X017095Y008680D01*
X017147Y008732D01*
X017147Y008784D01*
X017095Y008837D01*
X016938Y008837D01*
X017095Y008837D02*
X017147Y008889D01*
X017147Y008941D01*
X016784Y008680D02*
X016575Y008680D01*
X016575Y008994D01*
X019764Y007800D02*
X019764Y007590D01*
X019816Y007538D01*
X019921Y007538D01*
X019973Y007590D01*
X020127Y007538D02*
X020336Y007538D01*
X020231Y007538D02*
X020231Y007852D01*
X020127Y007747D01*
X019973Y007800D02*
X019921Y007852D01*
X019816Y007852D01*
X019764Y007800D01*
X023229Y010031D02*
X023281Y009979D01*
X023386Y009979D01*
X023438Y010031D01*
X023438Y010293D01*
X023591Y010188D02*
X023696Y010293D01*
X023696Y009979D01*
X023800Y009979D02*
X023591Y009979D01*
X023229Y010031D02*
X023229Y010293D01*
D11*
X023897Y009860D02*
X020945Y009860D01*
X020945Y007104D01*
X023897Y007104D01*
X023897Y009860D01*
X020826Y009467D02*
X020826Y009427D01*
X020433Y009427D01*
X020433Y009467D01*
X020433Y009427D02*
X020433Y009388D01*
X020826Y009388D02*
X020826Y009427D01*
X020591Y010057D02*
X020593Y010082D01*
X020599Y010106D01*
X020608Y010128D01*
X020621Y010149D01*
X020637Y010168D01*
X020656Y010184D01*
X020677Y010197D01*
X020699Y010206D01*
X020723Y010212D01*
X020748Y010214D01*
X020773Y010212D01*
X020797Y010206D01*
X020819Y010197D01*
X020840Y010184D01*
X020859Y010168D01*
X020875Y010149D01*
X020888Y010128D01*
X020897Y010106D01*
X020903Y010082D01*
X020905Y010057D01*
X020903Y010032D01*
X020897Y010008D01*
X020888Y009986D01*
X020875Y009965D01*
X020859Y009946D01*
X020840Y009930D01*
X020819Y009917D01*
X020797Y009908D01*
X020773Y009902D01*
X020748Y009900D01*
X020723Y009902D01*
X020699Y009908D01*
X020677Y009917D01*
X020656Y009930D01*
X020637Y009946D01*
X020621Y009965D01*
X020608Y009986D01*
X020599Y010008D01*
X020593Y010032D01*
X020591Y010057D01*
X020433Y007537D02*
X020433Y007498D01*
X020826Y007498D01*
X020826Y007459D01*
X020826Y007498D02*
X020826Y007537D01*
X020433Y007498D02*
X020433Y007459D01*
X020945Y013010D02*
X020945Y015766D01*
X023897Y015766D01*
X023897Y013010D01*
X020945Y013010D01*
X020826Y013364D02*
X020826Y013404D01*
X020433Y013404D01*
X020433Y013364D01*
X020433Y013404D02*
X020433Y013443D01*
X020826Y013443D02*
X020826Y013404D01*
X020826Y015293D02*
X020826Y015333D01*
X020433Y015333D01*
X020433Y015372D01*
X020433Y015333D02*
X020433Y015293D01*
X020826Y015333D02*
X020826Y015372D01*
X020591Y015963D02*
X020593Y015988D01*
X020599Y016012D01*
X020608Y016034D01*
X020621Y016055D01*
X020637Y016074D01*
X020656Y016090D01*
X020677Y016103D01*
X020699Y016112D01*
X020723Y016118D01*
X020748Y016120D01*
X020773Y016118D01*
X020797Y016112D01*
X020819Y016103D01*
X020840Y016090D01*
X020859Y016074D01*
X020875Y016055D01*
X020888Y016034D01*
X020897Y016012D01*
X020903Y015988D01*
X020905Y015963D01*
X020903Y015938D01*
X020897Y015914D01*
X020888Y015892D01*
X020875Y015871D01*
X020859Y015852D01*
X020840Y015836D01*
X020819Y015823D01*
X020797Y015814D01*
X020773Y015808D01*
X020748Y015806D01*
X020723Y015808D01*
X020699Y015814D01*
X020677Y015823D01*
X020656Y015836D01*
X020637Y015852D01*
X020621Y015871D01*
X020608Y015892D01*
X020599Y015914D01*
X020593Y015938D01*
X020591Y015963D01*
X020945Y018915D02*
X020945Y021671D01*
X023897Y021671D01*
X023897Y018915D01*
X020945Y018915D01*
X020826Y019270D02*
X020826Y019309D01*
X020433Y019309D01*
X020433Y019270D01*
X020433Y019309D02*
X020433Y019348D01*
X020826Y019348D02*
X020826Y019309D01*
X020826Y021199D02*
X020826Y021238D01*
X020433Y021238D01*
X020433Y021278D01*
X020433Y021238D02*
X020433Y021199D01*
X020826Y021238D02*
X020826Y021278D01*
X020591Y021868D02*
X020593Y021893D01*
X020599Y021917D01*
X020608Y021939D01*
X020621Y021960D01*
X020637Y021979D01*
X020656Y021995D01*
X020677Y022008D01*
X020699Y022017D01*
X020723Y022023D01*
X020748Y022025D01*
X020773Y022023D01*
X020797Y022017D01*
X020819Y022008D01*
X020840Y021995D01*
X020859Y021979D01*
X020875Y021960D01*
X020888Y021939D01*
X020897Y021917D01*
X020903Y021893D01*
X020905Y021868D01*
X020903Y021843D01*
X020897Y021819D01*
X020888Y021797D01*
X020875Y021776D01*
X020859Y021757D01*
X020840Y021741D01*
X020819Y021728D01*
X020797Y021719D01*
X020773Y021713D01*
X020748Y021711D01*
X020723Y021713D01*
X020699Y021719D01*
X020677Y021728D01*
X020656Y021741D01*
X020637Y021757D01*
X020621Y021776D01*
X020608Y021797D01*
X020599Y021819D01*
X020593Y021843D01*
X020591Y021868D01*
X013661Y021671D02*
X013661Y018915D01*
X010708Y018915D01*
X010708Y021671D01*
X013661Y021671D01*
X010590Y021278D02*
X010590Y021238D01*
X010197Y021238D01*
X010197Y021278D01*
X010197Y021238D02*
X010197Y021199D01*
X010590Y021199D02*
X010590Y021238D01*
X010354Y021868D02*
X010356Y021893D01*
X010362Y021917D01*
X010371Y021939D01*
X010384Y021960D01*
X010400Y021979D01*
X010419Y021995D01*
X010440Y022008D01*
X010462Y022017D01*
X010486Y022023D01*
X010511Y022025D01*
X010536Y022023D01*
X010560Y022017D01*
X010582Y022008D01*
X010603Y021995D01*
X010622Y021979D01*
X010638Y021960D01*
X010651Y021939D01*
X010660Y021917D01*
X010666Y021893D01*
X010668Y021868D01*
X010666Y021843D01*
X010660Y021819D01*
X010651Y021797D01*
X010638Y021776D01*
X010622Y021757D01*
X010603Y021741D01*
X010582Y021728D01*
X010560Y021719D01*
X010536Y021713D01*
X010511Y021711D01*
X010486Y021713D01*
X010462Y021719D01*
X010440Y021728D01*
X010419Y021741D01*
X010400Y021757D01*
X010384Y021776D01*
X010371Y021797D01*
X010362Y021819D01*
X010356Y021843D01*
X010354Y021868D01*
X010197Y019348D02*
X010197Y019309D01*
X010590Y019309D01*
X010590Y019270D01*
X010590Y019309D02*
X010590Y019348D01*
X010197Y019309D02*
X010197Y019270D01*
X010354Y015963D02*
X010356Y015988D01*
X010362Y016012D01*
X010371Y016034D01*
X010384Y016055D01*
X010400Y016074D01*
X010419Y016090D01*
X010440Y016103D01*
X010462Y016112D01*
X010486Y016118D01*
X010511Y016120D01*
X010536Y016118D01*
X010560Y016112D01*
X010582Y016103D01*
X010603Y016090D01*
X010622Y016074D01*
X010638Y016055D01*
X010651Y016034D01*
X010660Y016012D01*
X010666Y015988D01*
X010668Y015963D01*
X010666Y015938D01*
X010660Y015914D01*
X010651Y015892D01*
X010638Y015871D01*
X010622Y015852D01*
X010603Y015836D01*
X010582Y015823D01*
X010560Y015814D01*
X010536Y015808D01*
X010511Y015806D01*
X010486Y015808D01*
X010462Y015814D01*
X010440Y015823D01*
X010419Y015836D01*
X010400Y015852D01*
X010384Y015871D01*
X010371Y015892D01*
X010362Y015914D01*
X010356Y015938D01*
X010354Y015963D01*
X010708Y015766D02*
X010708Y013010D01*
X013661Y013010D01*
X013661Y015766D01*
X010708Y015766D01*
X010590Y015372D02*
X010590Y015333D01*
X010197Y015333D01*
X010197Y015372D01*
X010197Y015333D02*
X010197Y015293D01*
X010590Y015293D02*
X010590Y015333D01*
X010590Y013443D02*
X010590Y013404D01*
X010197Y013404D01*
X010197Y013364D01*
X010197Y013404D02*
X010197Y013443D01*
X010590Y013404D02*
X010590Y013364D01*
X010354Y010057D02*
X010356Y010082D01*
X010362Y010106D01*
X010371Y010128D01*
X010384Y010149D01*
X010400Y010168D01*
X010419Y010184D01*
X010440Y010197D01*
X010462Y010206D01*
X010486Y010212D01*
X010511Y010214D01*
X010536Y010212D01*
X010560Y010206D01*
X010582Y010197D01*
X010603Y010184D01*
X010622Y010168D01*
X010638Y010149D01*
X010651Y010128D01*
X010660Y010106D01*
X010666Y010082D01*
X010668Y010057D01*
X010666Y010032D01*
X010660Y010008D01*
X010651Y009986D01*
X010638Y009965D01*
X010622Y009946D01*
X010603Y009930D01*
X010582Y009917D01*
X010560Y009908D01*
X010536Y009902D01*
X010511Y009900D01*
X010486Y009902D01*
X010462Y009908D01*
X010440Y009917D01*
X010419Y009930D01*
X010400Y009946D01*
X010384Y009965D01*
X010371Y009986D01*
X010362Y010008D01*
X010356Y010032D01*
X010354Y010057D01*
X010708Y009860D02*
X010708Y007104D01*
X013661Y007104D01*
X013661Y009860D01*
X010708Y009860D01*
X010590Y009467D02*
X010590Y009427D01*
X010197Y009427D01*
X010197Y009467D01*
X010197Y009427D02*
X010197Y009388D01*
X010590Y009388D02*
X010590Y009427D01*
X010590Y007537D02*
X010590Y007498D01*
X010197Y007498D01*
X010197Y007459D01*
X010197Y007498D02*
X010197Y007537D01*
X010590Y007498D02*
X010590Y007459D01*
M02*
