G75*
%MOIN*%
%OFA0B0*%
%FSLAX24Y24*%
%IPPOS*%
%LPD*%
%AMOC8*
5,1,8,0,0,1.08239X$1,22.5*
%
%ADD10C,0.0079*%
%ADD11C,0.0000*%
D10*
X007954Y011407D02*
X007996Y011373D01*
X008044Y011347D01*
X008096Y011332D01*
X008149Y011326D01*
X014055Y011326D01*
X014055Y011563D01*
X008464Y011563D01*
X008395Y011569D01*
X008329Y011590D01*
X008267Y011622D01*
X008214Y011666D01*
X008170Y011720D01*
X008137Y011781D01*
X008117Y011848D01*
X008110Y011917D01*
X008110Y015106D01*
X008117Y015175D01*
X008137Y015242D01*
X008170Y015303D01*
X008214Y015356D01*
X008267Y015401D01*
X008329Y015433D01*
X008395Y015453D01*
X008464Y015460D01*
X010007Y015460D01*
X010068Y015466D01*
X010128Y015484D01*
X010182Y015513D01*
X010230Y015552D01*
X010557Y015880D01*
X010605Y015919D01*
X010659Y015948D01*
X010718Y015966D01*
X010780Y015972D01*
X011181Y015972D01*
X011207Y015969D01*
X011232Y015960D01*
X011254Y015946D01*
X011273Y015928D01*
X011287Y015905D01*
X011296Y015880D01*
X011299Y015854D01*
X011299Y015736D01*
X011301Y015724D01*
X011740Y015724D01*
X011726Y015710D02*
X011716Y015703D01*
X011705Y015698D01*
X011693Y015696D01*
X011338Y015696D01*
X011326Y015698D01*
X011315Y015704D01*
X011306Y015713D01*
X011301Y015724D01*
X011299Y015801D02*
X011817Y015801D01*
X011895Y015879D02*
X011296Y015879D01*
X011239Y015956D02*
X011973Y015956D01*
X011968Y015952D02*
X011726Y015710D01*
X011968Y015952D02*
X011982Y015963D01*
X011998Y015970D01*
X012016Y015972D01*
X014055Y015972D01*
X014055Y016208D01*
X008228Y016208D01*
X008159Y016201D01*
X008092Y016181D01*
X008031Y016149D01*
X007977Y016104D01*
X007933Y016051D01*
X007901Y015990D01*
X007880Y015923D01*
X007874Y015854D01*
X007874Y011602D01*
X007879Y011548D01*
X007895Y011497D01*
X007920Y011449D01*
X007954Y011407D01*
X007965Y011399D02*
X014055Y011399D01*
X014645Y011399D01*
X014645Y011326D02*
X014645Y011563D01*
X014055Y011563D01*
X014055Y011326D01*
X014645Y011326D01*
X014645Y011476D02*
X014055Y011476D01*
X007906Y011476D01*
X007878Y011553D02*
X014055Y011553D01*
X014645Y011553D01*
X015118Y011553D02*
X015708Y011553D01*
X015708Y011563D02*
X015118Y011563D01*
X015118Y011326D01*
X015708Y011326D01*
X015708Y011563D01*
X015708Y011476D02*
X015118Y011476D01*
X015118Y011399D02*
X015708Y011399D01*
X016653Y011399D02*
X019763Y011399D01*
X019763Y011326D02*
X019763Y011563D01*
X016653Y011563D01*
X016653Y011326D01*
X019763Y011326D01*
X019763Y011476D02*
X016653Y011476D01*
X016653Y011553D02*
X019763Y011553D01*
X021850Y011602D02*
X021850Y015854D01*
X021857Y015923D01*
X021877Y015990D01*
X021910Y016051D01*
X021954Y016104D01*
X022008Y016149D01*
X022069Y016181D01*
X022135Y016201D01*
X022204Y016208D01*
X028031Y016208D01*
X028031Y015972D01*
X025992Y015972D01*
X025975Y015970D01*
X025958Y015963D01*
X025945Y015952D01*
X025703Y015710D01*
X025693Y015703D01*
X025681Y015698D01*
X025669Y015696D01*
X025315Y015696D01*
X025302Y015698D01*
X025291Y015704D01*
X025283Y015713D01*
X025277Y015724D01*
X025716Y015724D01*
X025794Y015801D02*
X025275Y015801D01*
X025275Y015854D02*
X025272Y015880D01*
X025264Y015905D01*
X025249Y015928D01*
X025231Y015946D01*
X025208Y015960D01*
X025183Y015969D01*
X025157Y015972D01*
X024756Y015972D01*
X024695Y015966D01*
X024636Y015948D01*
X024581Y015919D01*
X024533Y015880D01*
X024206Y015552D01*
X024158Y015513D01*
X024104Y015484D01*
X024045Y015466D01*
X023983Y015460D01*
X022441Y015460D01*
X022371Y015453D01*
X022305Y015433D01*
X022244Y015401D01*
X022190Y015356D01*
X022146Y015303D01*
X022113Y015242D01*
X022093Y015175D01*
X022086Y015106D01*
X022086Y011917D01*
X022093Y011848D01*
X022113Y011781D01*
X022146Y011720D01*
X022190Y011666D01*
X022244Y011622D01*
X022305Y011590D01*
X022371Y011569D01*
X022441Y011563D01*
X028031Y011563D01*
X028031Y011326D01*
X022126Y011326D01*
X022072Y011332D01*
X022020Y011347D01*
X021973Y011373D01*
X021931Y011407D01*
X021897Y011449D01*
X021871Y011497D01*
X021855Y011548D01*
X021850Y011602D01*
X021850Y011630D02*
X022234Y011630D01*
X022156Y011708D02*
X021850Y011708D01*
X021850Y011785D02*
X022112Y011785D01*
X022092Y011862D02*
X021850Y011862D01*
X021850Y011939D02*
X022086Y011939D01*
X022086Y012017D02*
X021850Y012017D01*
X021850Y012094D02*
X022086Y012094D01*
X022086Y012171D02*
X021850Y012171D01*
X021850Y012248D02*
X022086Y012248D01*
X022086Y012326D02*
X021850Y012326D01*
X021850Y012403D02*
X022086Y012403D01*
X022086Y012480D02*
X021850Y012480D01*
X021850Y012557D02*
X022086Y012557D01*
X022086Y012635D02*
X021850Y012635D01*
X021850Y012712D02*
X022086Y012712D01*
X022086Y012789D02*
X021850Y012789D01*
X021850Y012866D02*
X022086Y012866D01*
X022086Y012944D02*
X021850Y012944D01*
X021850Y013021D02*
X022086Y013021D01*
X022086Y013098D02*
X021850Y013098D01*
X021850Y013175D02*
X022086Y013175D01*
X022086Y013253D02*
X021850Y013253D01*
X021850Y013330D02*
X022086Y013330D01*
X022086Y013407D02*
X021850Y013407D01*
X021850Y013484D02*
X022086Y013484D01*
X022086Y013561D02*
X021850Y013561D01*
X021850Y013639D02*
X022086Y013639D01*
X022086Y013716D02*
X021850Y013716D01*
X021850Y013793D02*
X022086Y013793D01*
X022086Y013870D02*
X021850Y013870D01*
X021850Y013948D02*
X022086Y013948D01*
X022086Y014025D02*
X021850Y014025D01*
X021850Y014102D02*
X022086Y014102D01*
X022086Y014179D02*
X021850Y014179D01*
X021850Y014257D02*
X022086Y014257D01*
X022086Y014334D02*
X021850Y014334D01*
X021850Y014411D02*
X022086Y014411D01*
X022086Y014488D02*
X021850Y014488D01*
X021850Y014566D02*
X022086Y014566D01*
X022086Y014643D02*
X021850Y014643D01*
X021850Y014720D02*
X022086Y014720D01*
X022086Y014797D02*
X021850Y014797D01*
X021850Y014875D02*
X022086Y014875D01*
X022086Y014952D02*
X021850Y014952D01*
X021850Y015029D02*
X022086Y015029D01*
X022086Y015106D02*
X021850Y015106D01*
X021850Y015184D02*
X022096Y015184D01*
X022124Y015261D02*
X021850Y015261D01*
X021850Y015338D02*
X022175Y015338D01*
X022271Y015415D02*
X021850Y015415D01*
X021850Y015492D02*
X024119Y015492D01*
X024223Y015570D02*
X021850Y015570D01*
X021850Y015647D02*
X024301Y015647D01*
X024378Y015724D02*
X021850Y015724D01*
X021850Y015801D02*
X024455Y015801D01*
X024532Y015879D02*
X021853Y015879D01*
X021867Y015956D02*
X024661Y015956D01*
X025215Y015956D02*
X025949Y015956D01*
X025871Y015879D02*
X025272Y015879D01*
X025275Y015854D02*
X025275Y015736D01*
X025277Y015724D01*
X028031Y016033D02*
X021900Y016033D01*
X021961Y016110D02*
X028031Y016110D01*
X028031Y016188D02*
X022090Y016188D01*
X022126Y020303D02*
X022072Y020308D01*
X022020Y020324D01*
X021973Y020349D01*
X021931Y020383D01*
X021897Y020425D01*
X021871Y020473D01*
X021855Y020525D01*
X021850Y020578D01*
X021850Y024830D01*
X021857Y024899D01*
X021877Y024966D01*
X021910Y025027D01*
X021954Y025081D01*
X022008Y025125D01*
X022069Y025158D01*
X022135Y025178D01*
X022204Y025185D01*
X028031Y025185D01*
X028031Y024948D01*
X025992Y024948D01*
X025975Y024946D01*
X025958Y024939D01*
X025945Y024929D01*
X025703Y024687D01*
X025693Y024679D01*
X025681Y024674D01*
X025669Y024673D01*
X025315Y024673D01*
X025302Y024675D01*
X025291Y024680D01*
X025283Y024689D01*
X025277Y024700D01*
X025275Y024712D01*
X025275Y024830D01*
X025272Y024857D01*
X025264Y024882D01*
X025249Y024904D01*
X025231Y024923D01*
X025208Y024937D01*
X025183Y024945D01*
X025157Y024948D01*
X024756Y024948D01*
X024695Y024942D01*
X024636Y024924D01*
X024581Y024895D01*
X024533Y024856D01*
X024206Y024529D01*
X024158Y024490D01*
X024104Y024461D01*
X024045Y024443D01*
X023983Y024437D01*
X022441Y024437D01*
X022371Y024430D01*
X022305Y024410D01*
X022244Y024377D01*
X022190Y024333D01*
X022146Y024279D01*
X022113Y024218D01*
X022093Y024151D01*
X022086Y024082D01*
X022086Y020893D01*
X022093Y020824D01*
X022113Y020758D01*
X022146Y020696D01*
X022190Y020643D01*
X022244Y020599D01*
X022305Y020566D01*
X022371Y020546D01*
X022441Y020539D01*
X028031Y020539D01*
X028031Y020303D01*
X022126Y020303D01*
X021961Y020359D02*
X028031Y020359D01*
X028622Y020359D01*
X028622Y020303D02*
X028622Y020539D01*
X028031Y020539D01*
X028031Y020303D01*
X028622Y020303D01*
X028622Y020436D02*
X028031Y020436D01*
X021891Y020436D01*
X021859Y020513D02*
X028031Y020513D01*
X028622Y020513D01*
X029094Y020513D02*
X029685Y020513D01*
X029685Y020539D02*
X029094Y020539D01*
X029094Y020303D01*
X029685Y020303D01*
X029685Y020539D01*
X029685Y020436D02*
X029094Y020436D01*
X029094Y020359D02*
X029685Y020359D01*
X030630Y020359D02*
X033740Y020359D01*
X033740Y020303D02*
X033740Y020539D01*
X030630Y020539D01*
X030630Y020303D01*
X033740Y020303D01*
X033740Y020436D02*
X030630Y020436D01*
X030630Y020513D02*
X033740Y020513D01*
X028031Y024993D02*
X021892Y024993D01*
X021862Y024916D02*
X024619Y024916D01*
X024516Y024839D02*
X021851Y024839D01*
X021850Y024761D02*
X024439Y024761D01*
X024361Y024684D02*
X021850Y024684D01*
X021850Y024607D02*
X024284Y024607D01*
X024207Y024530D02*
X021850Y024530D01*
X021850Y024452D02*
X024077Y024452D01*
X025288Y024684D02*
X025699Y024684D01*
X025777Y024761D02*
X025275Y024761D01*
X025274Y024839D02*
X025854Y024839D01*
X025932Y024916D02*
X025238Y024916D01*
X028031Y025070D02*
X021945Y025070D01*
X022050Y025148D02*
X028031Y025148D01*
X028031Y029279D02*
X028031Y029515D01*
X022441Y029515D01*
X022371Y029522D01*
X022305Y029542D01*
X022244Y029575D01*
X022190Y029619D01*
X022146Y029673D01*
X022113Y029734D01*
X022093Y029801D01*
X022086Y029870D01*
X022086Y033059D01*
X022093Y033128D01*
X022113Y033194D01*
X022146Y033256D01*
X022190Y033309D01*
X022244Y033353D01*
X022305Y033386D01*
X022371Y033406D01*
X022441Y033413D01*
X023983Y033413D01*
X024045Y033419D01*
X024104Y033437D01*
X024158Y033466D01*
X024206Y033505D01*
X024533Y033833D01*
X024581Y033872D01*
X024636Y033901D01*
X024695Y033919D01*
X024756Y033925D01*
X025157Y033925D01*
X025183Y033922D01*
X025208Y033913D01*
X025231Y033899D01*
X025249Y033880D01*
X025264Y033858D01*
X025272Y033833D01*
X025275Y033807D01*
X025275Y033689D01*
X025277Y033676D01*
X025283Y033665D01*
X025291Y033657D01*
X025302Y033651D01*
X025315Y033649D01*
X025669Y033649D01*
X025681Y033651D01*
X025693Y033656D01*
X025703Y033663D01*
X025945Y033905D01*
X025958Y033916D01*
X025975Y033923D01*
X025992Y033925D01*
X028031Y033925D01*
X028031Y034161D01*
X022204Y034161D01*
X022135Y034154D01*
X022069Y034134D01*
X022008Y034101D01*
X021954Y034057D01*
X021910Y034004D01*
X021877Y033942D01*
X021857Y033876D01*
X021850Y033807D01*
X021850Y029555D01*
X021855Y029501D01*
X021871Y029449D01*
X021897Y029402D01*
X021931Y029360D01*
X021973Y029326D01*
X022020Y029300D01*
X022072Y029284D01*
X022126Y029279D01*
X028031Y029279D01*
X028622Y029279D01*
X028622Y029515D01*
X028031Y029515D01*
X028031Y029279D01*
X028031Y029319D02*
X021986Y029319D01*
X021901Y029396D02*
X028031Y029396D01*
X028622Y029396D01*
X028622Y029473D02*
X028031Y029473D01*
X021864Y029473D01*
X021851Y029550D02*
X022290Y029550D01*
X022183Y029627D02*
X021850Y029627D01*
X021850Y029705D02*
X022129Y029705D01*
X022099Y029782D02*
X021850Y029782D01*
X021850Y029859D02*
X022087Y029859D01*
X022086Y029936D02*
X021850Y029936D01*
X021850Y030014D02*
X022086Y030014D01*
X022086Y030091D02*
X021850Y030091D01*
X021850Y030168D02*
X022086Y030168D01*
X022086Y030245D02*
X021850Y030245D01*
X021850Y030323D02*
X022086Y030323D01*
X022086Y030400D02*
X021850Y030400D01*
X021850Y030477D02*
X022086Y030477D01*
X022086Y030554D02*
X021850Y030554D01*
X021850Y030632D02*
X022086Y030632D01*
X022086Y030709D02*
X021850Y030709D01*
X021850Y030786D02*
X022086Y030786D01*
X022086Y030863D02*
X021850Y030863D01*
X021850Y030941D02*
X022086Y030941D01*
X022086Y031018D02*
X021850Y031018D01*
X021850Y031095D02*
X022086Y031095D01*
X022086Y031172D02*
X021850Y031172D01*
X021850Y031250D02*
X022086Y031250D01*
X022086Y031327D02*
X021850Y031327D01*
X021850Y031404D02*
X022086Y031404D01*
X022086Y031481D02*
X021850Y031481D01*
X021850Y031558D02*
X022086Y031558D01*
X022086Y031636D02*
X021850Y031636D01*
X021850Y031713D02*
X022086Y031713D01*
X022086Y031790D02*
X021850Y031790D01*
X021850Y031867D02*
X022086Y031867D01*
X022086Y031945D02*
X021850Y031945D01*
X021850Y032022D02*
X022086Y032022D01*
X022086Y032099D02*
X021850Y032099D01*
X021850Y032176D02*
X022086Y032176D01*
X022086Y032254D02*
X021850Y032254D01*
X021850Y032331D02*
X022086Y032331D01*
X022086Y032408D02*
X021850Y032408D01*
X021850Y032485D02*
X022086Y032485D01*
X022086Y032563D02*
X021850Y032563D01*
X021850Y032640D02*
X022086Y032640D01*
X022086Y032717D02*
X021850Y032717D01*
X021850Y032794D02*
X022086Y032794D01*
X022086Y032872D02*
X021850Y032872D01*
X021850Y032949D02*
X022086Y032949D01*
X022086Y033026D02*
X021850Y033026D01*
X021850Y033103D02*
X022091Y033103D01*
X022109Y033181D02*
X021850Y033181D01*
X021850Y033258D02*
X022148Y033258D01*
X022222Y033335D02*
X021850Y033335D01*
X021850Y033412D02*
X022433Y033412D01*
X021932Y034030D02*
X028031Y034030D01*
X028031Y033953D02*
X021883Y033953D01*
X021857Y033876D02*
X024589Y033876D01*
X024499Y033798D02*
X021850Y033798D01*
X021850Y033721D02*
X024422Y033721D01*
X024345Y033644D02*
X021850Y033644D01*
X021850Y033567D02*
X024268Y033567D01*
X024187Y033490D02*
X021850Y033490D01*
X022019Y034107D02*
X028031Y034107D01*
X025915Y033876D02*
X025252Y033876D01*
X025275Y033798D02*
X025838Y033798D01*
X025761Y033721D02*
X025275Y033721D01*
X028031Y029319D02*
X028622Y029319D01*
X029094Y029319D02*
X029685Y029319D01*
X029685Y029279D02*
X029685Y029515D01*
X029094Y029515D01*
X029094Y029279D01*
X029685Y029279D01*
X029685Y029396D02*
X029094Y029396D01*
X029094Y029473D02*
X029685Y029473D01*
X030630Y029473D02*
X033740Y029473D01*
X033740Y029515D02*
X030630Y029515D01*
X030630Y029279D01*
X033740Y029279D01*
X033740Y029515D01*
X033740Y029396D02*
X030630Y029396D01*
X030630Y029319D02*
X033740Y029319D01*
X022242Y024375D02*
X021850Y024375D01*
X021850Y024298D02*
X022161Y024298D01*
X022115Y024221D02*
X021850Y024221D01*
X021850Y024143D02*
X022092Y024143D01*
X022086Y024066D02*
X021850Y024066D01*
X021850Y023989D02*
X022086Y023989D01*
X022086Y023912D02*
X021850Y023912D01*
X021850Y023834D02*
X022086Y023834D01*
X022086Y023757D02*
X021850Y023757D01*
X021850Y023680D02*
X022086Y023680D01*
X022086Y023603D02*
X021850Y023603D01*
X021850Y023525D02*
X022086Y023525D01*
X022086Y023448D02*
X021850Y023448D01*
X021850Y023371D02*
X022086Y023371D01*
X022086Y023294D02*
X021850Y023294D01*
X021850Y023217D02*
X022086Y023217D01*
X022086Y023139D02*
X021850Y023139D01*
X021850Y023062D02*
X022086Y023062D01*
X022086Y022985D02*
X021850Y022985D01*
X021850Y022908D02*
X022086Y022908D01*
X022086Y022830D02*
X021850Y022830D01*
X021850Y022753D02*
X022086Y022753D01*
X022086Y022676D02*
X021850Y022676D01*
X021850Y022599D02*
X022086Y022599D01*
X022086Y022521D02*
X021850Y022521D01*
X021850Y022444D02*
X022086Y022444D01*
X022086Y022367D02*
X021850Y022367D01*
X021850Y022290D02*
X022086Y022290D01*
X022086Y022212D02*
X021850Y022212D01*
X021850Y022135D02*
X022086Y022135D01*
X022086Y022058D02*
X021850Y022058D01*
X021850Y021981D02*
X022086Y021981D01*
X022086Y021903D02*
X021850Y021903D01*
X021850Y021826D02*
X022086Y021826D01*
X022086Y021749D02*
X021850Y021749D01*
X021850Y021672D02*
X022086Y021672D01*
X022086Y021594D02*
X021850Y021594D01*
X021850Y021517D02*
X022086Y021517D01*
X022086Y021440D02*
X021850Y021440D01*
X021850Y021363D02*
X022086Y021363D01*
X022086Y021286D02*
X021850Y021286D01*
X021850Y021208D02*
X022086Y021208D01*
X022086Y021131D02*
X021850Y021131D01*
X021850Y021054D02*
X022086Y021054D01*
X022086Y020977D02*
X021850Y020977D01*
X021850Y020899D02*
X022086Y020899D01*
X022094Y020822D02*
X021850Y020822D01*
X021850Y020745D02*
X022120Y020745D01*
X022170Y020668D02*
X021850Y020668D01*
X021850Y020590D02*
X022259Y020590D01*
X019763Y020539D02*
X019763Y020303D01*
X016653Y020303D01*
X016653Y020539D01*
X019763Y020539D01*
X019763Y020513D02*
X016653Y020513D01*
X016653Y020436D02*
X019763Y020436D01*
X019763Y020359D02*
X016653Y020359D01*
X015708Y020359D02*
X015118Y020359D01*
X015118Y020303D02*
X015708Y020303D01*
X015708Y020539D01*
X015118Y020539D01*
X015118Y020303D01*
X015118Y020436D02*
X015708Y020436D01*
X015708Y020513D02*
X015118Y020513D01*
X014645Y020513D02*
X014055Y020513D01*
X007882Y020513D01*
X007879Y020525D02*
X007874Y020578D01*
X007874Y024830D01*
X007880Y024899D01*
X007901Y024966D01*
X007933Y025027D01*
X007977Y025081D01*
X008031Y025125D01*
X008092Y025158D01*
X008159Y025178D01*
X008228Y025185D01*
X014055Y025185D01*
X014055Y024948D01*
X012016Y024948D01*
X011998Y024946D01*
X011982Y024939D01*
X011968Y024929D01*
X011726Y024687D01*
X011716Y024679D01*
X011705Y024674D01*
X011693Y024673D01*
X011338Y024673D01*
X011326Y024675D01*
X011315Y024680D01*
X011306Y024689D01*
X011301Y024700D01*
X011299Y024712D01*
X011299Y024830D01*
X011296Y024857D01*
X011287Y024882D01*
X011273Y024904D01*
X011254Y024923D01*
X011232Y024937D01*
X011207Y024945D01*
X011181Y024948D01*
X010780Y024948D01*
X010718Y024942D01*
X010659Y024924D01*
X010605Y024895D01*
X010557Y024856D01*
X010230Y024529D01*
X010182Y024490D01*
X010128Y024461D01*
X010068Y024443D01*
X010007Y024437D01*
X008464Y024437D01*
X008395Y024430D01*
X008329Y024410D01*
X008267Y024377D01*
X008214Y024333D01*
X008170Y024279D01*
X008137Y024218D01*
X008117Y024151D01*
X008110Y024082D01*
X008110Y020893D01*
X008117Y020824D01*
X008137Y020758D01*
X008170Y020696D01*
X008214Y020643D01*
X008267Y020599D01*
X008329Y020566D01*
X008395Y020546D01*
X008464Y020539D01*
X014055Y020539D01*
X014055Y020303D01*
X008149Y020303D01*
X008096Y020308D01*
X008044Y020324D01*
X007996Y020349D01*
X007954Y020383D01*
X007920Y020425D01*
X007895Y020473D01*
X007879Y020525D01*
X007874Y020590D02*
X008283Y020590D01*
X008193Y020668D02*
X007874Y020668D01*
X007874Y020745D02*
X008144Y020745D01*
X008117Y020822D02*
X007874Y020822D01*
X007874Y020899D02*
X008110Y020899D01*
X008110Y020977D02*
X007874Y020977D01*
X007874Y021054D02*
X008110Y021054D01*
X008110Y021131D02*
X007874Y021131D01*
X007874Y021208D02*
X008110Y021208D01*
X008110Y021286D02*
X007874Y021286D01*
X007874Y021363D02*
X008110Y021363D01*
X008110Y021440D02*
X007874Y021440D01*
X007874Y021517D02*
X008110Y021517D01*
X008110Y021594D02*
X007874Y021594D01*
X007874Y021672D02*
X008110Y021672D01*
X008110Y021749D02*
X007874Y021749D01*
X007874Y021826D02*
X008110Y021826D01*
X008110Y021903D02*
X007874Y021903D01*
X007874Y021981D02*
X008110Y021981D01*
X008110Y022058D02*
X007874Y022058D01*
X007874Y022135D02*
X008110Y022135D01*
X008110Y022212D02*
X007874Y022212D01*
X007874Y022290D02*
X008110Y022290D01*
X008110Y022367D02*
X007874Y022367D01*
X007874Y022444D02*
X008110Y022444D01*
X008110Y022521D02*
X007874Y022521D01*
X007874Y022599D02*
X008110Y022599D01*
X008110Y022676D02*
X007874Y022676D01*
X007874Y022753D02*
X008110Y022753D01*
X008110Y022830D02*
X007874Y022830D01*
X007874Y022908D02*
X008110Y022908D01*
X008110Y022985D02*
X007874Y022985D01*
X007874Y023062D02*
X008110Y023062D01*
X008110Y023139D02*
X007874Y023139D01*
X007874Y023217D02*
X008110Y023217D01*
X008110Y023294D02*
X007874Y023294D01*
X007874Y023371D02*
X008110Y023371D01*
X008110Y023448D02*
X007874Y023448D01*
X007874Y023525D02*
X008110Y023525D01*
X008110Y023603D02*
X007874Y023603D01*
X007874Y023680D02*
X008110Y023680D01*
X008110Y023757D02*
X007874Y023757D01*
X007874Y023834D02*
X008110Y023834D01*
X008110Y023912D02*
X007874Y023912D01*
X007874Y023989D02*
X008110Y023989D01*
X008110Y024066D02*
X007874Y024066D01*
X007874Y024143D02*
X008116Y024143D01*
X008138Y024221D02*
X007874Y024221D01*
X007874Y024298D02*
X008185Y024298D01*
X008265Y024375D02*
X007874Y024375D01*
X007874Y024452D02*
X010100Y024452D01*
X010230Y024530D02*
X007874Y024530D01*
X007874Y024607D02*
X010308Y024607D01*
X010385Y024684D02*
X007874Y024684D01*
X007874Y024761D02*
X010462Y024761D01*
X010539Y024839D02*
X007875Y024839D01*
X007885Y024916D02*
X010643Y024916D01*
X011261Y024916D02*
X011955Y024916D01*
X011878Y024839D02*
X011298Y024839D01*
X011299Y024761D02*
X011801Y024761D01*
X011723Y024684D02*
X011311Y024684D01*
X014055Y024993D02*
X007915Y024993D01*
X007969Y025070D02*
X014055Y025070D01*
X014055Y025148D02*
X008073Y025148D01*
X008149Y029279D02*
X008096Y029284D01*
X008044Y029300D01*
X007996Y029326D01*
X007954Y029360D01*
X007920Y029402D01*
X007895Y029449D01*
X007879Y029501D01*
X007874Y029555D01*
X007874Y033807D01*
X007880Y033876D01*
X007901Y033942D01*
X007933Y034004D01*
X007977Y034057D01*
X008031Y034101D01*
X008092Y034134D01*
X008159Y034154D01*
X008228Y034161D01*
X014055Y034161D01*
X014055Y033925D01*
X012016Y033925D01*
X011998Y033923D01*
X011982Y033916D01*
X011968Y033905D01*
X011726Y033663D01*
X011716Y033656D01*
X011705Y033651D01*
X011693Y033649D01*
X011338Y033649D01*
X011326Y033651D01*
X011315Y033657D01*
X011306Y033665D01*
X011301Y033676D01*
X011299Y033689D01*
X011299Y033807D01*
X011296Y033833D01*
X011287Y033858D01*
X011273Y033880D01*
X011254Y033899D01*
X011232Y033913D01*
X011207Y033922D01*
X011181Y033925D01*
X010780Y033925D01*
X010718Y033919D01*
X010659Y033901D01*
X010605Y033872D01*
X010557Y033833D01*
X010230Y033505D01*
X010182Y033466D01*
X010128Y033437D01*
X010068Y033419D01*
X010007Y033413D01*
X008464Y033413D01*
X008395Y033406D01*
X008329Y033386D01*
X008267Y033353D01*
X008214Y033309D01*
X008170Y033256D01*
X008137Y033194D01*
X008117Y033128D01*
X008110Y033059D01*
X008110Y029870D01*
X008117Y029801D01*
X008137Y029734D01*
X008170Y029673D01*
X008214Y029619D01*
X008267Y029575D01*
X008329Y029542D01*
X008395Y029522D01*
X008464Y029515D01*
X014055Y029515D01*
X014055Y029279D01*
X008149Y029279D01*
X008009Y029319D02*
X014055Y029319D01*
X014645Y029319D01*
X014645Y029279D02*
X014645Y029515D01*
X014055Y029515D01*
X014055Y029279D01*
X014645Y029279D01*
X014645Y029396D02*
X014055Y029396D01*
X007925Y029396D01*
X007887Y029473D02*
X014055Y029473D01*
X014645Y029473D01*
X015118Y029473D02*
X015708Y029473D01*
X015708Y029515D02*
X015118Y029515D01*
X015118Y029279D01*
X015708Y029279D01*
X015708Y029515D01*
X015708Y029396D02*
X015118Y029396D01*
X015118Y029319D02*
X015708Y029319D01*
X016653Y029319D02*
X019763Y029319D01*
X019763Y029279D02*
X019763Y029515D01*
X016653Y029515D01*
X016653Y029279D01*
X019763Y029279D01*
X019763Y029396D02*
X016653Y029396D01*
X016653Y029473D02*
X019763Y029473D01*
X014055Y033953D02*
X007906Y033953D01*
X007880Y033876D02*
X010612Y033876D01*
X010523Y033798D02*
X007874Y033798D01*
X007874Y033721D02*
X010446Y033721D01*
X010368Y033644D02*
X007874Y033644D01*
X007874Y033567D02*
X010291Y033567D01*
X010211Y033490D02*
X007874Y033490D01*
X007874Y033412D02*
X008457Y033412D01*
X008245Y033335D02*
X007874Y033335D01*
X007874Y033258D02*
X008171Y033258D01*
X008133Y033181D02*
X007874Y033181D01*
X007874Y033103D02*
X008114Y033103D01*
X008110Y033026D02*
X007874Y033026D01*
X007874Y032949D02*
X008110Y032949D01*
X008110Y032872D02*
X007874Y032872D01*
X007874Y032794D02*
X008110Y032794D01*
X008110Y032717D02*
X007874Y032717D01*
X007874Y032640D02*
X008110Y032640D01*
X008110Y032563D02*
X007874Y032563D01*
X007874Y032485D02*
X008110Y032485D01*
X008110Y032408D02*
X007874Y032408D01*
X007874Y032331D02*
X008110Y032331D01*
X008110Y032254D02*
X007874Y032254D01*
X007874Y032176D02*
X008110Y032176D01*
X008110Y032099D02*
X007874Y032099D01*
X007874Y032022D02*
X008110Y032022D01*
X008110Y031945D02*
X007874Y031945D01*
X007874Y031867D02*
X008110Y031867D01*
X008110Y031790D02*
X007874Y031790D01*
X007874Y031713D02*
X008110Y031713D01*
X008110Y031636D02*
X007874Y031636D01*
X007874Y031558D02*
X008110Y031558D01*
X008110Y031481D02*
X007874Y031481D01*
X007874Y031404D02*
X008110Y031404D01*
X008110Y031327D02*
X007874Y031327D01*
X007874Y031250D02*
X008110Y031250D01*
X008110Y031172D02*
X007874Y031172D01*
X007874Y031095D02*
X008110Y031095D01*
X008110Y031018D02*
X007874Y031018D01*
X007874Y030941D02*
X008110Y030941D01*
X008110Y030863D02*
X007874Y030863D01*
X007874Y030786D02*
X008110Y030786D01*
X008110Y030709D02*
X007874Y030709D01*
X007874Y030632D02*
X008110Y030632D01*
X008110Y030554D02*
X007874Y030554D01*
X007874Y030477D02*
X008110Y030477D01*
X008110Y030400D02*
X007874Y030400D01*
X007874Y030323D02*
X008110Y030323D01*
X008110Y030245D02*
X007874Y030245D01*
X007874Y030168D02*
X008110Y030168D01*
X008110Y030091D02*
X007874Y030091D01*
X007874Y030014D02*
X008110Y030014D01*
X008110Y029936D02*
X007874Y029936D01*
X007874Y029859D02*
X008111Y029859D01*
X008122Y029782D02*
X007874Y029782D01*
X007874Y029705D02*
X008153Y029705D01*
X008207Y029627D02*
X007874Y029627D01*
X007874Y029550D02*
X008314Y029550D01*
X011299Y033721D02*
X011784Y033721D01*
X011862Y033798D02*
X011299Y033798D01*
X011276Y033876D02*
X011939Y033876D01*
X014055Y034030D02*
X007955Y034030D01*
X008043Y034107D02*
X014055Y034107D01*
X014055Y020539D02*
X014645Y020539D01*
X014645Y020303D01*
X014055Y020303D01*
X014055Y020539D01*
X014055Y020436D02*
X007914Y020436D01*
X007985Y020359D02*
X014055Y020359D01*
X014645Y020359D01*
X014645Y020436D02*
X014055Y020436D01*
X014055Y016188D02*
X008113Y016188D01*
X007985Y016110D02*
X014055Y016110D01*
X014055Y016033D02*
X007924Y016033D01*
X007890Y015956D02*
X010685Y015956D01*
X010556Y015879D02*
X007876Y015879D01*
X007874Y015801D02*
X010479Y015801D01*
X010401Y015724D02*
X007874Y015724D01*
X007874Y015647D02*
X010324Y015647D01*
X010247Y015570D02*
X007874Y015570D01*
X007874Y015492D02*
X010143Y015492D01*
X008295Y015415D02*
X007874Y015415D01*
X007874Y015338D02*
X008199Y015338D01*
X008147Y015261D02*
X007874Y015261D01*
X007874Y015184D02*
X008119Y015184D01*
X008110Y015106D02*
X007874Y015106D01*
X007874Y015029D02*
X008110Y015029D01*
X008110Y014952D02*
X007874Y014952D01*
X007874Y014875D02*
X008110Y014875D01*
X008110Y014797D02*
X007874Y014797D01*
X007874Y014720D02*
X008110Y014720D01*
X008110Y014643D02*
X007874Y014643D01*
X007874Y014566D02*
X008110Y014566D01*
X008110Y014488D02*
X007874Y014488D01*
X007874Y014411D02*
X008110Y014411D01*
X008110Y014334D02*
X007874Y014334D01*
X007874Y014257D02*
X008110Y014257D01*
X008110Y014179D02*
X007874Y014179D01*
X007874Y014102D02*
X008110Y014102D01*
X008110Y014025D02*
X007874Y014025D01*
X007874Y013948D02*
X008110Y013948D01*
X008110Y013870D02*
X007874Y013870D01*
X007874Y013793D02*
X008110Y013793D01*
X008110Y013716D02*
X007874Y013716D01*
X007874Y013639D02*
X008110Y013639D01*
X008110Y013561D02*
X007874Y013561D01*
X007874Y013484D02*
X008110Y013484D01*
X008110Y013407D02*
X007874Y013407D01*
X007874Y013330D02*
X008110Y013330D01*
X008110Y013253D02*
X007874Y013253D01*
X007874Y013175D02*
X008110Y013175D01*
X008110Y013098D02*
X007874Y013098D01*
X007874Y013021D02*
X008110Y013021D01*
X008110Y012944D02*
X007874Y012944D01*
X007874Y012866D02*
X008110Y012866D01*
X008110Y012789D02*
X007874Y012789D01*
X007874Y012712D02*
X008110Y012712D01*
X008110Y012635D02*
X007874Y012635D01*
X007874Y012557D02*
X008110Y012557D01*
X008110Y012480D02*
X007874Y012480D01*
X007874Y012403D02*
X008110Y012403D01*
X008110Y012326D02*
X007874Y012326D01*
X007874Y012248D02*
X008110Y012248D01*
X008110Y012171D02*
X007874Y012171D01*
X007874Y012094D02*
X008110Y012094D01*
X008110Y012017D02*
X007874Y012017D01*
X007874Y011939D02*
X008110Y011939D01*
X008115Y011862D02*
X007874Y011862D01*
X007874Y011785D02*
X008136Y011785D01*
X008180Y011708D02*
X007874Y011708D01*
X007874Y011630D02*
X008257Y011630D01*
X021855Y011553D02*
X028031Y011553D01*
X028622Y011553D01*
X028622Y011563D02*
X028031Y011563D01*
X028031Y011326D01*
X028622Y011326D01*
X028622Y011563D01*
X028622Y011476D02*
X028031Y011476D01*
X021882Y011476D01*
X021941Y011399D02*
X028031Y011399D01*
X028622Y011399D01*
X029094Y011399D02*
X029685Y011399D01*
X029685Y011326D02*
X029685Y011563D01*
X029094Y011563D01*
X029094Y011326D01*
X029685Y011326D01*
X029685Y011476D02*
X029094Y011476D01*
X029094Y011553D02*
X029685Y011553D01*
X030630Y011553D02*
X033740Y011553D01*
X033740Y011563D02*
X030630Y011563D01*
X030630Y011326D01*
X033740Y011326D01*
X033740Y011563D01*
X033740Y011476D02*
X030630Y011476D01*
X030630Y011399D02*
X033740Y011399D01*
D11*
X024776Y015933D02*
X024763Y015933D01*
X024776Y024909D02*
X024763Y024909D01*
X024776Y033885D02*
X024763Y033885D01*
X010799Y033885D02*
X010787Y033885D01*
X010799Y024909D02*
X010787Y024909D01*
X010799Y015933D02*
X010787Y015933D01*
M02*
