G75*
%MOIN*%
%OFA0B0*%
%FSLAX24Y24*%
%IPPOS*%
%LPD*%
%AMOC8*
5,1,8,0,0,1.08239X$1,22.5*
%
%ADD10C,0.1655*%
%ADD11R,0.1142X0.0315*%
%ADD12R,0.1260X0.0315*%
%ADD13C,0.0395*%
%ADD14C,0.0470*%
D10*
X006181Y006956D03*
X006181Y035854D03*
X035708Y035854D03*
X035708Y006956D03*
D11*
X023130Y011996D03*
X023130Y012429D03*
X023130Y013295D03*
X023130Y014161D03*
X023130Y014594D03*
X023130Y015027D03*
X023130Y020972D03*
X023130Y021405D03*
X023130Y022271D03*
X023130Y023137D03*
X023130Y023570D03*
X023130Y024004D03*
X023130Y029948D03*
X023130Y030381D03*
X023130Y031248D03*
X023130Y032114D03*
X023130Y032547D03*
X023130Y032980D03*
X009153Y032980D03*
X009153Y032547D03*
X009153Y032114D03*
X009153Y031248D03*
X009153Y030381D03*
X009153Y029948D03*
X009153Y024004D03*
X009153Y023570D03*
X009153Y023137D03*
X009153Y022271D03*
X009153Y021405D03*
X009153Y020972D03*
X009153Y015027D03*
X009153Y014594D03*
X009153Y014161D03*
X009153Y013295D03*
X009153Y012429D03*
X009153Y011996D03*
D12*
X009094Y012862D03*
X009094Y013728D03*
X009094Y021838D03*
X009094Y022704D03*
X009094Y030815D03*
X009094Y031681D03*
X023071Y031681D03*
X023071Y030815D03*
X023071Y022704D03*
X023071Y021838D03*
X023071Y013728D03*
X023071Y012862D03*
D13*
X017637Y015578D03*
X017637Y024555D03*
X017637Y033531D03*
X031614Y033531D03*
X031614Y024555D03*
X031614Y015578D03*
D14*
X031078Y018800D03*
X031078Y019600D03*
X029078Y019200D03*
X031078Y010624D03*
X031078Y009824D03*
X029078Y010224D03*
X017102Y009824D03*
X017102Y010624D03*
X015102Y010224D03*
X017102Y018800D03*
X017102Y019600D03*
X015102Y019200D03*
X017102Y027777D03*
X017102Y028577D03*
X015102Y028177D03*
X029078Y028177D03*
X031078Y028577D03*
X031078Y027777D03*
M02*
