G75*
%MOIN*%
%OFA0B0*%
%FSLAX24Y24*%
%IPPOS*%
%LPD*%
%AMOC8*
5,1,8,0,0,1.08239X$1,22.5*
%
%ADD10C,0.0080*%
%ADD11C,0.0060*%
%ADD12C,0.0059*%
%ADD13C,0.0079*%
D10*
X010118Y012154D02*
X010328Y012154D01*
X010481Y012154D02*
X010481Y012468D01*
X010638Y012468D01*
X010690Y012415D01*
X010690Y012363D01*
X010638Y012311D01*
X010481Y012311D01*
X010638Y012311D02*
X010690Y012258D01*
X010690Y012206D01*
X010638Y012154D01*
X010481Y012154D01*
X010118Y012154D02*
X010118Y012468D01*
X010843Y012415D02*
X010843Y012206D01*
X010896Y012154D01*
X011000Y012154D01*
X011053Y012206D01*
X011206Y012154D02*
X011206Y012363D01*
X011311Y012468D01*
X011415Y012363D01*
X011415Y012154D01*
X011568Y012154D02*
X011778Y012363D01*
X011778Y012415D01*
X011725Y012468D01*
X011621Y012468D01*
X011568Y012415D01*
X011415Y012311D02*
X011206Y012311D01*
X011053Y012415D02*
X011000Y012468D01*
X010896Y012468D01*
X010843Y012415D01*
X011568Y012154D02*
X011778Y012154D01*
X011931Y012154D02*
X011931Y012468D01*
X011931Y012311D02*
X012140Y012311D01*
X012140Y012468D02*
X012140Y012154D01*
X012293Y012154D02*
X012293Y012468D01*
X012503Y012154D01*
X012503Y012468D01*
X012656Y012468D02*
X012865Y012468D01*
X012865Y012415D01*
X012656Y012206D01*
X012656Y012154D01*
X012865Y012154D01*
X013123Y012154D02*
X013123Y012311D01*
X013228Y012415D01*
X013228Y012468D01*
X013381Y012468D02*
X013590Y012468D01*
X013590Y012415D01*
X013381Y012206D01*
X013381Y012154D01*
X013590Y012154D01*
X013744Y012311D02*
X013953Y012311D01*
X014106Y012363D02*
X014106Y012206D01*
X014158Y012154D01*
X014315Y012154D01*
X014315Y012363D01*
X014469Y012363D02*
X014521Y012311D01*
X014626Y012311D01*
X014678Y012258D01*
X014678Y012206D01*
X014626Y012154D01*
X014521Y012154D01*
X014469Y012206D01*
X014469Y012363D02*
X014469Y012415D01*
X014521Y012468D01*
X014626Y012468D01*
X014678Y012415D01*
X014831Y012468D02*
X014831Y012154D01*
X014988Y012154D01*
X015040Y012206D01*
X015040Y012415D01*
X014988Y012468D01*
X014831Y012468D01*
X015197Y012666D02*
X015197Y012980D01*
X015354Y012980D01*
X015406Y012927D01*
X015406Y012823D01*
X015354Y012770D01*
X015197Y012770D01*
X015302Y012770D02*
X015406Y012666D01*
X015560Y012666D02*
X015769Y012666D01*
X015664Y012666D02*
X015664Y012980D01*
X015560Y012875D01*
X015629Y010993D02*
X015629Y010784D01*
X015629Y010889D02*
X015315Y010889D01*
X015420Y010784D01*
X015367Y010631D02*
X015315Y010578D01*
X015315Y010474D01*
X015367Y010421D01*
X015577Y010421D01*
X015629Y010474D01*
X015629Y010578D01*
X015577Y010631D01*
X013123Y012311D02*
X013019Y012415D01*
X013019Y012468D01*
X015367Y016327D02*
X015577Y016327D01*
X015629Y016379D01*
X015629Y016484D01*
X015577Y016536D01*
X015629Y016690D02*
X015629Y016899D01*
X015629Y016794D02*
X015315Y016794D01*
X015420Y016690D01*
X015367Y016536D02*
X015315Y016484D01*
X015315Y016379D01*
X015367Y016327D01*
X014988Y018059D02*
X015040Y018112D01*
X015040Y018321D01*
X014988Y018373D01*
X014831Y018373D01*
X014831Y018059D01*
X014988Y018059D01*
X014678Y018112D02*
X014626Y018059D01*
X014521Y018059D01*
X014469Y018112D01*
X014521Y018216D02*
X014626Y018216D01*
X014678Y018164D01*
X014678Y018112D01*
X014521Y018216D02*
X014469Y018269D01*
X014469Y018321D01*
X014521Y018373D01*
X014626Y018373D01*
X014678Y018321D01*
X014315Y018269D02*
X014315Y018059D01*
X014158Y018059D01*
X014106Y018112D01*
X014106Y018269D01*
X013953Y018216D02*
X013744Y018216D01*
X013590Y018321D02*
X013381Y018112D01*
X013381Y018059D01*
X013590Y018059D01*
X013590Y018321D02*
X013590Y018373D01*
X013381Y018373D01*
X013228Y018373D02*
X013228Y018321D01*
X013123Y018216D01*
X013123Y018059D01*
X013123Y018216D02*
X013019Y018321D01*
X013019Y018373D01*
X012865Y018373D02*
X012865Y018321D01*
X012656Y018112D01*
X012656Y018059D01*
X012865Y018059D01*
X012865Y018373D02*
X012656Y018373D01*
X012503Y018373D02*
X012503Y018059D01*
X012293Y018373D01*
X012293Y018059D01*
X012140Y018059D02*
X012140Y018373D01*
X012140Y018216D02*
X011931Y018216D01*
X011931Y018059D02*
X011931Y018373D01*
X011778Y018321D02*
X011778Y018269D01*
X011568Y018059D01*
X011778Y018059D01*
X011778Y018321D02*
X011725Y018373D01*
X011621Y018373D01*
X011568Y018321D01*
X011415Y018269D02*
X011415Y018059D01*
X011415Y018216D02*
X011206Y018216D01*
X011206Y018269D02*
X011311Y018373D01*
X011415Y018269D01*
X011206Y018269D02*
X011206Y018059D01*
X011053Y018112D02*
X011000Y018059D01*
X010896Y018059D01*
X010843Y018112D01*
X010843Y018321D01*
X010896Y018373D01*
X011000Y018373D01*
X011053Y018321D01*
X010690Y018321D02*
X010690Y018269D01*
X010638Y018216D01*
X010481Y018216D01*
X010481Y018059D02*
X010638Y018059D01*
X010690Y018112D01*
X010690Y018164D01*
X010638Y018216D01*
X010690Y018321D02*
X010638Y018373D01*
X010481Y018373D01*
X010481Y018059D01*
X010328Y018059D02*
X010118Y018059D01*
X010118Y018373D01*
X015197Y018571D02*
X015197Y018885D01*
X015354Y018885D01*
X015406Y018833D01*
X015406Y018728D01*
X015354Y018676D01*
X015197Y018676D01*
X015302Y018676D02*
X015406Y018571D01*
X015560Y018571D02*
X015769Y018571D01*
X015664Y018571D02*
X015664Y018885D01*
X015560Y018780D01*
X018111Y018885D02*
X018111Y018623D01*
X018163Y018571D01*
X018268Y018571D01*
X018320Y018623D01*
X018320Y018885D01*
X018473Y018780D02*
X018578Y018885D01*
X018578Y018571D01*
X018682Y018571D02*
X018473Y018571D01*
X015577Y022233D02*
X015367Y022233D01*
X015315Y022285D01*
X015315Y022390D01*
X015367Y022442D01*
X015420Y022595D02*
X015315Y022700D01*
X015629Y022700D01*
X015629Y022804D02*
X015629Y022595D01*
X015577Y022442D02*
X015629Y022390D01*
X015629Y022285D01*
X015577Y022233D01*
X014988Y023965D02*
X015040Y024017D01*
X015040Y024226D01*
X014988Y024279D01*
X014831Y024279D01*
X014831Y023965D01*
X014988Y023965D01*
X014678Y024017D02*
X014626Y023965D01*
X014521Y023965D01*
X014469Y024017D01*
X014521Y024122D02*
X014626Y024122D01*
X014678Y024069D01*
X014678Y024017D01*
X014521Y024122D02*
X014469Y024174D01*
X014469Y024226D01*
X014521Y024279D01*
X014626Y024279D01*
X014678Y024226D01*
X014315Y024174D02*
X014315Y023965D01*
X014158Y023965D01*
X014106Y024017D01*
X014106Y024174D01*
X013953Y024122D02*
X013744Y024122D01*
X013590Y024226D02*
X013590Y024279D01*
X013381Y024279D01*
X013228Y024279D02*
X013228Y024226D01*
X013123Y024122D01*
X013123Y023965D01*
X013123Y024122D02*
X013019Y024226D01*
X013019Y024279D01*
X012865Y024279D02*
X012865Y024226D01*
X012656Y024017D01*
X012656Y023965D01*
X012865Y023965D01*
X012865Y024279D02*
X012656Y024279D01*
X012503Y024279D02*
X012503Y023965D01*
X012293Y024279D01*
X012293Y023965D01*
X012140Y023965D02*
X012140Y024279D01*
X012140Y024122D02*
X011931Y024122D01*
X011931Y023965D02*
X011931Y024279D01*
X011778Y024226D02*
X011725Y024279D01*
X011621Y024279D01*
X011568Y024226D01*
X011415Y024174D02*
X011311Y024279D01*
X011206Y024174D01*
X011206Y023965D01*
X011206Y024122D02*
X011415Y024122D01*
X011415Y024174D02*
X011415Y023965D01*
X011568Y023965D02*
X011778Y024174D01*
X011778Y024226D01*
X011778Y023965D02*
X011568Y023965D01*
X011053Y024017D02*
X011000Y023965D01*
X010896Y023965D01*
X010843Y024017D01*
X010843Y024226D01*
X010896Y024279D01*
X011000Y024279D01*
X011053Y024226D01*
X010690Y024226D02*
X010638Y024279D01*
X010481Y024279D01*
X010481Y023965D01*
X010638Y023965D01*
X010690Y024017D01*
X010690Y024069D01*
X010638Y024122D01*
X010481Y024122D01*
X010638Y024122D02*
X010690Y024174D01*
X010690Y024226D01*
X010328Y023965D02*
X010118Y023965D01*
X010118Y024279D01*
X013381Y024017D02*
X013381Y023965D01*
X013590Y023965D01*
X013381Y024017D02*
X013590Y024226D01*
X015197Y024477D02*
X015197Y024791D01*
X015354Y024791D01*
X015406Y024738D01*
X015406Y024634D01*
X015354Y024581D01*
X015197Y024581D01*
X015302Y024581D02*
X015406Y024477D01*
X015560Y024477D02*
X015769Y024477D01*
X015664Y024477D02*
X015664Y024791D01*
X015560Y024686D01*
X018111Y024791D02*
X018111Y024529D01*
X018163Y024477D01*
X018268Y024477D01*
X018320Y024529D01*
X018320Y024791D01*
X018473Y024686D02*
X018578Y024791D01*
X018578Y024477D01*
X018682Y024477D02*
X018473Y024477D01*
X015577Y028138D02*
X015367Y028138D01*
X015315Y028190D01*
X015315Y028295D01*
X015367Y028347D01*
X015420Y028501D02*
X015315Y028605D01*
X015629Y028605D01*
X015629Y028501D02*
X015629Y028710D01*
X015577Y028347D02*
X015629Y028295D01*
X015629Y028190D01*
X015577Y028138D01*
X014988Y029870D02*
X015040Y029923D01*
X015040Y030132D01*
X014988Y030184D01*
X014831Y030184D01*
X014831Y029870D01*
X014988Y029870D01*
X014678Y029923D02*
X014626Y029870D01*
X014521Y029870D01*
X014469Y029923D01*
X014521Y030027D02*
X014626Y030027D01*
X014678Y029975D01*
X014678Y029923D01*
X014521Y030027D02*
X014469Y030080D01*
X014469Y030132D01*
X014521Y030184D01*
X014626Y030184D01*
X014678Y030132D01*
X014315Y030080D02*
X014315Y029870D01*
X014158Y029870D01*
X014106Y029923D01*
X014106Y030080D01*
X013953Y030027D02*
X013744Y030027D01*
X013590Y030132D02*
X013381Y029923D01*
X013381Y029870D01*
X013590Y029870D01*
X013590Y030132D02*
X013590Y030184D01*
X013381Y030184D01*
X013228Y030184D02*
X013228Y030132D01*
X013123Y030027D01*
X013123Y029870D01*
X013123Y030027D02*
X013019Y030132D01*
X013019Y030184D01*
X012865Y030184D02*
X012865Y030132D01*
X012656Y029923D01*
X012656Y029870D01*
X012865Y029870D01*
X012865Y030184D02*
X012656Y030184D01*
X012503Y030184D02*
X012503Y029870D01*
X012293Y030184D01*
X012293Y029870D01*
X012140Y029870D02*
X012140Y030184D01*
X012140Y030027D02*
X011931Y030027D01*
X011931Y029870D02*
X011931Y030184D01*
X011778Y030132D02*
X011725Y030184D01*
X011621Y030184D01*
X011568Y030132D01*
X011415Y030080D02*
X011415Y029870D01*
X011568Y029870D02*
X011778Y030080D01*
X011778Y030132D01*
X011778Y029870D02*
X011568Y029870D01*
X011415Y030027D02*
X011206Y030027D01*
X011206Y030080D02*
X011311Y030184D01*
X011415Y030080D01*
X011206Y030080D02*
X011206Y029870D01*
X011053Y029923D02*
X011000Y029870D01*
X010896Y029870D01*
X010843Y029923D01*
X010843Y030132D01*
X010896Y030184D01*
X011000Y030184D01*
X011053Y030132D01*
X010690Y030132D02*
X010690Y030080D01*
X010638Y030027D01*
X010481Y030027D01*
X010481Y029870D02*
X010481Y030184D01*
X010638Y030184D01*
X010690Y030132D01*
X010638Y030027D02*
X010690Y029975D01*
X010690Y029923D01*
X010638Y029870D01*
X010481Y029870D01*
X010328Y029870D02*
X010118Y029870D01*
X010118Y030184D01*
X015197Y030382D02*
X015197Y030696D01*
X015354Y030696D01*
X015406Y030644D01*
X015406Y030539D01*
X015354Y030487D01*
X015197Y030487D01*
X015302Y030487D02*
X015406Y030382D01*
X015560Y030382D02*
X015769Y030382D01*
X015664Y030382D02*
X015664Y030696D01*
X015560Y030591D01*
X018111Y030696D02*
X018111Y030434D01*
X018163Y030382D01*
X018268Y030382D01*
X018320Y030434D01*
X018320Y030696D01*
X018473Y030591D02*
X018578Y030696D01*
X018578Y030382D01*
X018682Y030382D02*
X018473Y030382D01*
X022717Y030184D02*
X022717Y029870D01*
X022926Y029870D01*
X023079Y029870D02*
X023079Y030184D01*
X023236Y030184D01*
X023289Y030132D01*
X023289Y030080D01*
X023236Y030027D01*
X023079Y030027D01*
X023079Y029870D02*
X023236Y029870D01*
X023289Y029923D01*
X023289Y029975D01*
X023236Y030027D01*
X023442Y029923D02*
X023494Y029870D01*
X023599Y029870D01*
X023651Y029923D01*
X023804Y029870D02*
X023804Y030080D01*
X023909Y030184D01*
X024014Y030080D01*
X024014Y029870D01*
X024167Y029870D02*
X024376Y030080D01*
X024376Y030132D01*
X024324Y030184D01*
X024219Y030184D01*
X024167Y030132D01*
X024014Y030027D02*
X023804Y030027D01*
X023651Y030132D02*
X023599Y030184D01*
X023494Y030184D01*
X023442Y030132D01*
X023442Y029923D01*
X024167Y029870D02*
X024376Y029870D01*
X024529Y029870D02*
X024529Y030184D01*
X024529Y030027D02*
X024739Y030027D01*
X024739Y030184D02*
X024739Y029870D01*
X024892Y029870D02*
X024892Y030184D01*
X025101Y029870D01*
X025101Y030184D01*
X025254Y030184D02*
X025464Y030184D01*
X025464Y030132D01*
X025254Y029923D01*
X025254Y029870D01*
X025464Y029870D01*
X025722Y029870D02*
X025722Y030027D01*
X025826Y030132D01*
X025826Y030184D01*
X025979Y030184D02*
X026189Y030184D01*
X026189Y030132D01*
X025979Y029923D01*
X025979Y029870D01*
X026189Y029870D01*
X026342Y030027D02*
X026551Y030027D01*
X026704Y030080D02*
X026704Y029923D01*
X026757Y029870D01*
X026914Y029870D01*
X026914Y030080D01*
X027067Y030080D02*
X027119Y030027D01*
X027224Y030027D01*
X027276Y029975D01*
X027276Y029923D01*
X027224Y029870D01*
X027119Y029870D01*
X027067Y029923D01*
X027067Y030080D02*
X027067Y030132D01*
X027119Y030184D01*
X027224Y030184D01*
X027276Y030132D01*
X027430Y030184D02*
X027430Y029870D01*
X027586Y029870D01*
X027639Y029923D01*
X027639Y030132D01*
X027586Y030184D01*
X027430Y030184D01*
X027796Y030382D02*
X027796Y030696D01*
X027953Y030696D01*
X028005Y030644D01*
X028005Y030539D01*
X027953Y030487D01*
X027796Y030487D01*
X027900Y030487D02*
X028005Y030382D01*
X028158Y030382D02*
X028367Y030382D01*
X028263Y030382D02*
X028263Y030696D01*
X028158Y030591D01*
X028227Y028710D02*
X028227Y028501D01*
X028227Y028605D02*
X027913Y028605D01*
X028018Y028501D01*
X027966Y028347D02*
X027913Y028295D01*
X027913Y028190D01*
X027966Y028138D01*
X028175Y028138D01*
X028227Y028190D01*
X028227Y028295D01*
X028175Y028347D01*
X025722Y030027D02*
X025617Y030132D01*
X025617Y030184D01*
X030709Y030434D02*
X030761Y030382D01*
X030866Y030382D01*
X030918Y030434D01*
X030918Y030696D01*
X031071Y030591D02*
X031176Y030696D01*
X031176Y030382D01*
X031071Y030382D02*
X031281Y030382D01*
X030709Y030434D02*
X030709Y030696D01*
X030709Y024791D02*
X030709Y024529D01*
X030761Y024477D01*
X030866Y024477D01*
X030918Y024529D01*
X030918Y024791D01*
X031071Y024686D02*
X031176Y024791D01*
X031176Y024477D01*
X031071Y024477D02*
X031281Y024477D01*
X028367Y024477D02*
X028158Y024477D01*
X028263Y024477D02*
X028263Y024791D01*
X028158Y024686D01*
X028005Y024738D02*
X028005Y024634D01*
X027953Y024581D01*
X027796Y024581D01*
X027900Y024581D02*
X028005Y024477D01*
X027796Y024477D02*
X027796Y024791D01*
X027953Y024791D01*
X028005Y024738D01*
X027586Y024279D02*
X027430Y024279D01*
X027430Y023965D01*
X027586Y023965D01*
X027639Y024017D01*
X027639Y024226D01*
X027586Y024279D01*
X027276Y024226D02*
X027224Y024279D01*
X027119Y024279D01*
X027067Y024226D01*
X027067Y024174D01*
X027119Y024122D01*
X027224Y024122D01*
X027276Y024069D01*
X027276Y024017D01*
X027224Y023965D01*
X027119Y023965D01*
X027067Y024017D01*
X026914Y023965D02*
X026914Y024174D01*
X026914Y023965D02*
X026757Y023965D01*
X026704Y024017D01*
X026704Y024174D01*
X026551Y024122D02*
X026342Y024122D01*
X026189Y024226D02*
X026189Y024279D01*
X025979Y024279D01*
X025826Y024279D02*
X025826Y024226D01*
X025722Y024122D01*
X025722Y023965D01*
X025722Y024122D02*
X025617Y024226D01*
X025617Y024279D01*
X025464Y024279D02*
X025464Y024226D01*
X025254Y024017D01*
X025254Y023965D01*
X025464Y023965D01*
X025464Y024279D02*
X025254Y024279D01*
X025101Y024279D02*
X025101Y023965D01*
X024892Y024279D01*
X024892Y023965D01*
X024739Y023965D02*
X024739Y024279D01*
X024739Y024122D02*
X024529Y024122D01*
X024529Y023965D02*
X024529Y024279D01*
X024376Y024226D02*
X024324Y024279D01*
X024219Y024279D01*
X024167Y024226D01*
X024014Y024174D02*
X023909Y024279D01*
X023804Y024174D01*
X023804Y023965D01*
X023804Y024122D02*
X024014Y024122D01*
X024014Y024174D02*
X024014Y023965D01*
X024167Y023965D02*
X024376Y024174D01*
X024376Y024226D01*
X024376Y023965D02*
X024167Y023965D01*
X023651Y024017D02*
X023599Y023965D01*
X023494Y023965D01*
X023442Y024017D01*
X023442Y024226D01*
X023494Y024279D01*
X023599Y024279D01*
X023651Y024226D01*
X023289Y024226D02*
X023236Y024279D01*
X023079Y024279D01*
X023079Y023965D01*
X023236Y023965D01*
X023289Y024017D01*
X023289Y024069D01*
X023236Y024122D01*
X023079Y024122D01*
X023236Y024122D02*
X023289Y024174D01*
X023289Y024226D01*
X022926Y023965D02*
X022717Y023965D01*
X022717Y024279D01*
X025979Y024017D02*
X025979Y023965D01*
X026189Y023965D01*
X025979Y024017D02*
X026189Y024226D01*
X027913Y022700D02*
X028227Y022700D01*
X028227Y022804D02*
X028227Y022595D01*
X028175Y022442D02*
X028227Y022390D01*
X028227Y022285D01*
X028175Y022233D01*
X027966Y022233D01*
X027913Y022285D01*
X027913Y022390D01*
X027966Y022442D01*
X028018Y022595D02*
X027913Y022700D01*
X027953Y018885D02*
X028005Y018833D01*
X028005Y018728D01*
X027953Y018676D01*
X027796Y018676D01*
X027900Y018676D02*
X028005Y018571D01*
X028158Y018571D02*
X028367Y018571D01*
X028263Y018571D02*
X028263Y018885D01*
X028158Y018780D01*
X027953Y018885D02*
X027796Y018885D01*
X027796Y018571D01*
X027586Y018373D02*
X027430Y018373D01*
X027430Y018059D01*
X027586Y018059D01*
X027639Y018112D01*
X027639Y018321D01*
X027586Y018373D01*
X027276Y018321D02*
X027224Y018373D01*
X027119Y018373D01*
X027067Y018321D01*
X027067Y018269D01*
X027119Y018216D01*
X027224Y018216D01*
X027276Y018164D01*
X027276Y018112D01*
X027224Y018059D01*
X027119Y018059D01*
X027067Y018112D01*
X026914Y018059D02*
X026914Y018269D01*
X026704Y018269D02*
X026704Y018112D01*
X026757Y018059D01*
X026914Y018059D01*
X026551Y018216D02*
X026342Y018216D01*
X026189Y018321D02*
X025979Y018112D01*
X025979Y018059D01*
X026189Y018059D01*
X026189Y018321D02*
X026189Y018373D01*
X025979Y018373D01*
X025826Y018373D02*
X025826Y018321D01*
X025722Y018216D01*
X025722Y018059D01*
X025722Y018216D02*
X025617Y018321D01*
X025617Y018373D01*
X025464Y018373D02*
X025464Y018321D01*
X025254Y018112D01*
X025254Y018059D01*
X025464Y018059D01*
X025464Y018373D02*
X025254Y018373D01*
X025101Y018373D02*
X025101Y018059D01*
X024892Y018373D01*
X024892Y018059D01*
X024739Y018059D02*
X024739Y018373D01*
X024739Y018216D02*
X024529Y018216D01*
X024529Y018059D02*
X024529Y018373D01*
X024376Y018321D02*
X024376Y018269D01*
X024167Y018059D01*
X024376Y018059D01*
X024376Y018321D02*
X024324Y018373D01*
X024219Y018373D01*
X024167Y018321D01*
X024014Y018269D02*
X024014Y018059D01*
X024014Y018216D02*
X023804Y018216D01*
X023804Y018269D02*
X023909Y018373D01*
X024014Y018269D01*
X023804Y018269D02*
X023804Y018059D01*
X023651Y018112D02*
X023599Y018059D01*
X023494Y018059D01*
X023442Y018112D01*
X023442Y018321D01*
X023494Y018373D01*
X023599Y018373D01*
X023651Y018321D01*
X023289Y018321D02*
X023289Y018269D01*
X023236Y018216D01*
X023079Y018216D01*
X023079Y018059D02*
X023236Y018059D01*
X023289Y018112D01*
X023289Y018164D01*
X023236Y018216D01*
X023289Y018321D02*
X023236Y018373D01*
X023079Y018373D01*
X023079Y018059D01*
X022926Y018059D02*
X022717Y018059D01*
X022717Y018373D01*
X027913Y016794D02*
X028227Y016794D01*
X028227Y016690D02*
X028227Y016899D01*
X028018Y016690D02*
X027913Y016794D01*
X027966Y016536D02*
X027913Y016484D01*
X027913Y016379D01*
X027966Y016327D01*
X028175Y016327D01*
X028227Y016379D01*
X028227Y016484D01*
X028175Y016536D01*
X030709Y018623D02*
X030761Y018571D01*
X030866Y018571D01*
X030918Y018623D01*
X030918Y018885D01*
X031071Y018780D02*
X031176Y018885D01*
X031176Y018571D01*
X031071Y018571D02*
X031281Y018571D01*
X030709Y018623D02*
X030709Y018885D01*
X030709Y012980D02*
X030709Y012718D01*
X030761Y012666D01*
X030866Y012666D01*
X030918Y012718D01*
X030918Y012980D01*
X031071Y012875D02*
X031176Y012980D01*
X031176Y012666D01*
X031071Y012666D02*
X031281Y012666D01*
X028367Y012666D02*
X028158Y012666D01*
X028263Y012666D02*
X028263Y012980D01*
X028158Y012875D01*
X028005Y012927D02*
X028005Y012823D01*
X027953Y012770D01*
X027796Y012770D01*
X027900Y012770D02*
X028005Y012666D01*
X027796Y012666D02*
X027796Y012980D01*
X027953Y012980D01*
X028005Y012927D01*
X027586Y012468D02*
X027430Y012468D01*
X027430Y012154D01*
X027586Y012154D01*
X027639Y012206D01*
X027639Y012415D01*
X027586Y012468D01*
X027276Y012415D02*
X027224Y012468D01*
X027119Y012468D01*
X027067Y012415D01*
X027067Y012363D01*
X027119Y012311D01*
X027224Y012311D01*
X027276Y012258D01*
X027276Y012206D01*
X027224Y012154D01*
X027119Y012154D01*
X027067Y012206D01*
X026914Y012154D02*
X026914Y012363D01*
X026914Y012154D02*
X026757Y012154D01*
X026704Y012206D01*
X026704Y012363D01*
X026551Y012311D02*
X026342Y012311D01*
X026189Y012415D02*
X025979Y012206D01*
X025979Y012154D01*
X026189Y012154D01*
X026189Y012415D02*
X026189Y012468D01*
X025979Y012468D01*
X025826Y012468D02*
X025826Y012415D01*
X025722Y012311D01*
X025722Y012154D01*
X025722Y012311D02*
X025617Y012415D01*
X025617Y012468D01*
X025464Y012468D02*
X025464Y012415D01*
X025254Y012206D01*
X025254Y012154D01*
X025464Y012154D01*
X025464Y012468D02*
X025254Y012468D01*
X025101Y012468D02*
X025101Y012154D01*
X024892Y012468D01*
X024892Y012154D01*
X024739Y012154D02*
X024739Y012468D01*
X024739Y012311D02*
X024529Y012311D01*
X024529Y012154D02*
X024529Y012468D01*
X024376Y012415D02*
X024324Y012468D01*
X024219Y012468D01*
X024167Y012415D01*
X024014Y012363D02*
X024014Y012154D01*
X024167Y012154D02*
X024376Y012363D01*
X024376Y012415D01*
X024376Y012154D02*
X024167Y012154D01*
X024014Y012311D02*
X023804Y012311D01*
X023804Y012363D02*
X023909Y012468D01*
X024014Y012363D01*
X023804Y012363D02*
X023804Y012154D01*
X023651Y012206D02*
X023599Y012154D01*
X023494Y012154D01*
X023442Y012206D01*
X023442Y012415D01*
X023494Y012468D01*
X023599Y012468D01*
X023651Y012415D01*
X023289Y012415D02*
X023289Y012363D01*
X023236Y012311D01*
X023079Y012311D01*
X023079Y012468D02*
X023236Y012468D01*
X023289Y012415D01*
X023236Y012311D02*
X023289Y012258D01*
X023289Y012206D01*
X023236Y012154D01*
X023079Y012154D01*
X023079Y012468D01*
X022926Y012154D02*
X022717Y012154D01*
X022717Y012468D01*
X018682Y012666D02*
X018473Y012666D01*
X018578Y012666D02*
X018578Y012980D01*
X018473Y012875D01*
X018320Y012980D02*
X018320Y012718D01*
X018268Y012666D01*
X018163Y012666D01*
X018111Y012718D01*
X018111Y012980D01*
X027913Y010889D02*
X028227Y010889D01*
X028227Y010993D02*
X028227Y010784D01*
X028175Y010631D02*
X028227Y010578D01*
X028227Y010474D01*
X028175Y010421D01*
X027966Y010421D01*
X027913Y010474D01*
X027913Y010578D01*
X027966Y010631D01*
X028018Y010784D02*
X027913Y010889D01*
D11*
X023190Y005816D02*
X022976Y005709D01*
X022763Y005496D01*
X023083Y005496D01*
X023190Y005389D01*
X023190Y005282D01*
X023083Y005175D01*
X022869Y005175D01*
X022763Y005282D01*
X022763Y005496D01*
X022547Y005282D02*
X022547Y005175D01*
X022440Y005175D01*
X022440Y005282D01*
X022547Y005282D01*
X022223Y005282D02*
X022116Y005175D01*
X021903Y005175D01*
X021796Y005282D01*
X022223Y005709D01*
X022223Y005282D01*
X022223Y005709D02*
X022116Y005816D01*
X021903Y005816D01*
X021796Y005709D01*
X021796Y005282D01*
X021578Y005389D02*
X021151Y005389D01*
X021151Y005602D02*
X021578Y005602D01*
X020935Y005602D02*
X020722Y005602D01*
X020828Y005709D02*
X020828Y005282D01*
X020935Y005175D01*
X019859Y005282D02*
X019753Y005389D01*
X019539Y005389D01*
X019432Y005496D01*
X019539Y005602D01*
X019859Y005602D01*
X019859Y005282D02*
X019753Y005175D01*
X019432Y005175D01*
X019215Y005282D02*
X019108Y005389D01*
X018895Y005389D01*
X018788Y005496D01*
X018895Y005602D01*
X019215Y005602D01*
X019215Y005282D02*
X019108Y005175D01*
X018788Y005175D01*
X018570Y005389D02*
X018143Y005389D01*
X018143Y005496D02*
X018250Y005602D01*
X018464Y005602D01*
X018570Y005496D01*
X018570Y005389D01*
X018464Y005175D02*
X018250Y005175D01*
X018143Y005282D01*
X018143Y005496D01*
X017926Y005496D02*
X017926Y005175D01*
X017926Y005496D02*
X017819Y005602D01*
X017499Y005602D01*
X017499Y005175D01*
X017282Y005175D02*
X016962Y005389D01*
X017282Y005602D01*
X016962Y005816D02*
X016962Y005175D01*
X016744Y005175D02*
X016424Y005175D01*
X016317Y005282D01*
X016317Y005496D01*
X016424Y005602D01*
X016744Y005602D01*
X015994Y005602D02*
X015994Y005175D01*
X015887Y005175D02*
X016101Y005175D01*
X015670Y005175D02*
X015670Y005496D01*
X015563Y005602D01*
X015350Y005602D01*
X015243Y005496D01*
X015027Y005602D02*
X014813Y005602D01*
X014920Y005709D02*
X014920Y005282D01*
X015027Y005175D01*
X015243Y005175D02*
X015243Y005816D01*
X015887Y005602D02*
X015994Y005602D01*
X015994Y005816D02*
X015994Y005923D01*
X013951Y005816D02*
X013951Y005175D01*
X013631Y005175D01*
X013524Y005282D01*
X013524Y005496D01*
X013631Y005602D01*
X013951Y005602D01*
X013307Y005602D02*
X013200Y005602D01*
X012987Y005389D01*
X012987Y005602D02*
X012987Y005175D01*
X012769Y005175D02*
X012769Y005496D01*
X012663Y005602D01*
X012449Y005602D01*
X012449Y005389D02*
X012769Y005389D01*
X012769Y005175D02*
X012449Y005175D01*
X012342Y005282D01*
X012449Y005389D01*
X012125Y005496D02*
X012018Y005602D01*
X011805Y005602D01*
X011698Y005496D01*
X011698Y005282D01*
X011805Y005175D01*
X012018Y005175D01*
X012125Y005282D01*
X012125Y005496D01*
X011480Y005496D02*
X011374Y005602D01*
X011053Y005602D01*
X011053Y005816D02*
X011053Y005175D01*
X011374Y005175D01*
X011480Y005282D01*
X011480Y005496D01*
X023407Y005602D02*
X023407Y005175D01*
X023621Y005175D02*
X023621Y005496D01*
X023727Y005602D01*
X023834Y005496D01*
X023834Y005175D01*
X024052Y005175D02*
X024052Y005602D01*
X024158Y005602D01*
X024265Y005496D01*
X024372Y005602D01*
X024479Y005496D01*
X024479Y005175D01*
X024265Y005175D02*
X024265Y005496D01*
X023621Y005496D02*
X023514Y005602D01*
X023407Y005602D01*
D12*
X010260Y009660D02*
X010240Y009695D01*
X010235Y009719D01*
X010234Y009754D01*
X010235Y009788D01*
X010240Y009813D01*
X010260Y009848D01*
X010272Y009858D01*
X010288Y009869D01*
X010309Y009876D01*
X010335Y009879D01*
X010360Y009876D01*
X010381Y009869D01*
X010397Y009858D01*
X010409Y009848D01*
X010429Y009813D01*
X010434Y009788D01*
X010435Y009754D01*
X010434Y009719D01*
X010429Y009695D01*
X010409Y009660D01*
X010397Y009649D01*
X010381Y009639D01*
X010360Y009631D01*
X010335Y009629D01*
X010309Y009631D01*
X010288Y009639D01*
X010272Y009649D01*
X010260Y009660D01*
X010295Y009696D02*
X010311Y009682D01*
X010335Y009678D01*
X010358Y009682D01*
X010374Y009696D01*
X010383Y009716D01*
X010385Y009731D01*
X010386Y009754D01*
X010385Y009776D01*
X010383Y009791D01*
X010374Y009812D01*
X010358Y009825D01*
X010335Y009830D01*
X010311Y009825D01*
X010295Y009812D01*
X010285Y009791D01*
X010284Y009776D01*
X010283Y009754D01*
X010284Y009731D01*
X010285Y009716D01*
X010295Y009696D01*
X010529Y009658D02*
X010529Y009461D01*
X010530Y009461D01*
X010558Y009483D01*
X010594Y009490D01*
X010622Y009485D01*
X010649Y009468D01*
X010669Y009442D01*
X010674Y009425D01*
X010675Y009405D01*
X010675Y009243D01*
X010626Y009243D01*
X010626Y009388D01*
X010623Y009410D01*
X010612Y009427D01*
X010597Y009437D01*
X010578Y009441D01*
X010559Y009437D01*
X010543Y009427D01*
X010533Y009410D01*
X010529Y009388D01*
X010529Y009243D01*
X010480Y009243D01*
X010480Y009876D01*
X010529Y009876D01*
X010529Y009850D01*
X010558Y009872D01*
X010592Y009879D01*
X010613Y009877D01*
X010631Y009870D01*
X010658Y009847D01*
X010672Y009816D01*
X010674Y009792D01*
X010675Y009754D01*
X010674Y009715D01*
X010672Y009691D01*
X010658Y009660D01*
X010631Y009638D01*
X010613Y009631D01*
X010592Y009629D01*
X010558Y009637D01*
X010529Y009658D01*
X010550Y009684D02*
X010562Y009679D01*
X010578Y009678D01*
X010593Y009679D01*
X010605Y009684D01*
X010619Y009702D01*
X010626Y009754D01*
X010619Y009806D01*
X010605Y009824D01*
X010593Y009828D01*
X010578Y009830D01*
X010562Y009828D01*
X010550Y009824D01*
X010536Y009805D01*
X010529Y009754D01*
X010536Y009702D01*
X010550Y009684D01*
X010714Y009718D02*
X010712Y009753D01*
X010714Y009786D01*
X010720Y009813D01*
X010730Y009835D01*
X010745Y009852D01*
X010778Y009872D01*
X010813Y009879D01*
X010851Y009872D01*
X010883Y009851D01*
X010906Y009818D01*
X010913Y009776D01*
X010913Y009735D01*
X010761Y009735D01*
X010765Y009709D01*
X010778Y009690D01*
X010796Y009679D01*
X010819Y009675D01*
X010848Y009681D01*
X010873Y009699D01*
X010909Y009668D01*
X010889Y009650D01*
X010868Y009638D01*
X010820Y009629D01*
X010783Y009635D01*
X010747Y009653D01*
X010732Y009669D01*
X010721Y009690D01*
X010714Y009718D01*
X010761Y009776D02*
X010765Y009800D01*
X010776Y009818D01*
X010793Y009829D01*
X010813Y009833D01*
X010833Y009829D01*
X010849Y009818D01*
X010860Y009800D01*
X010864Y009776D01*
X010761Y009776D01*
X010956Y009876D02*
X011005Y009876D01*
X011005Y009850D01*
X011006Y009850D01*
X011034Y009872D01*
X011070Y009879D01*
X011098Y009873D01*
X011125Y009857D01*
X011145Y009831D01*
X011150Y009814D01*
X011151Y009794D01*
X011151Y009632D01*
X011102Y009632D01*
X011102Y009777D01*
X011099Y009799D01*
X011089Y009816D01*
X011073Y009826D01*
X011054Y009830D01*
X011035Y009826D01*
X011019Y009816D01*
X011009Y009799D01*
X011005Y009777D01*
X011005Y009632D01*
X010956Y009632D01*
X010956Y009876D01*
X011304Y009804D02*
X011310Y009836D01*
X011330Y009860D01*
X011359Y009874D01*
X011395Y009879D01*
X011424Y009877D01*
X011449Y009870D01*
X011490Y009846D01*
X011460Y009810D01*
X011430Y009826D01*
X011395Y009833D01*
X011375Y009830D01*
X011362Y009824D01*
X011353Y009803D01*
X011354Y009795D01*
X011359Y009788D01*
X011369Y009783D01*
X011385Y009780D01*
X011425Y009777D01*
X011443Y009775D01*
X011458Y009770D01*
X011480Y009754D01*
X011492Y009731D01*
X011496Y009704D01*
X011489Y009672D01*
X011467Y009648D01*
X011434Y009634D01*
X011395Y009629D01*
X011338Y009640D01*
X011287Y009672D01*
X011322Y009706D01*
X011357Y009683D01*
X011399Y009675D01*
X011418Y009677D01*
X011433Y009683D01*
X011444Y009693D01*
X011447Y009706D01*
X011445Y009716D01*
X011440Y009723D01*
X011430Y009728D01*
X011417Y009730D01*
X011374Y009734D01*
X011346Y009740D01*
X011324Y009754D01*
X011309Y009775D01*
X011304Y009804D01*
X011328Y009586D02*
X011328Y009243D01*
X011279Y009243D01*
X011279Y009268D01*
X011250Y009247D01*
X011215Y009240D01*
X011194Y009242D01*
X011177Y009249D01*
X011150Y009272D01*
X011136Y009302D01*
X011134Y009327D01*
X011133Y009365D01*
X011134Y009403D01*
X011136Y009428D01*
X011150Y009458D01*
X011177Y009481D01*
X011194Y009488D01*
X011215Y009490D01*
X011250Y009482D01*
X011279Y009461D01*
X011279Y009586D01*
X011328Y009586D01*
X011357Y009487D02*
X011409Y009487D01*
X011456Y009316D01*
X011457Y009316D01*
X011512Y009487D01*
X011548Y009487D01*
X011603Y009316D01*
X011604Y009316D01*
X011651Y009487D01*
X011703Y009487D01*
X011625Y009243D01*
X011582Y009243D01*
X011531Y009414D01*
X011530Y009414D01*
X011479Y009243D01*
X011435Y009243D01*
X011357Y009487D01*
X011272Y009416D02*
X011258Y009435D01*
X011246Y009439D01*
X011230Y009441D01*
X011215Y009439D01*
X011203Y009435D01*
X011189Y009417D01*
X011182Y009365D01*
X011189Y009313D01*
X011203Y009295D01*
X011215Y009290D01*
X011230Y009289D01*
X011246Y009290D01*
X011258Y009295D01*
X011272Y009314D01*
X011279Y009365D01*
X011272Y009416D01*
X011129Y009471D02*
X011094Y009429D01*
X011078Y009438D01*
X011061Y009441D01*
X011029Y009429D01*
X011018Y009413D01*
X011014Y009390D01*
X011014Y009243D01*
X010965Y009243D01*
X010965Y009487D01*
X011014Y009487D01*
X011014Y009461D01*
X011015Y009461D01*
X011042Y009483D01*
X011078Y009490D01*
X011105Y009485D01*
X011129Y009471D01*
X010906Y009430D02*
X010908Y009409D01*
X010908Y009242D01*
X010860Y009242D01*
X010860Y009264D01*
X010859Y009264D01*
X010839Y009245D01*
X010822Y009241D01*
X010801Y009239D01*
X010765Y009245D01*
X010739Y009261D01*
X010723Y009284D01*
X010717Y009314D01*
X010722Y009342D01*
X010736Y009365D01*
X010761Y009381D01*
X010794Y009386D01*
X010860Y009386D01*
X010860Y009412D01*
X010857Y009426D01*
X010848Y009436D01*
X010833Y009442D01*
X010811Y009444D01*
X010796Y009443D01*
X010783Y009440D01*
X010766Y009425D01*
X010729Y009454D01*
X010763Y009481D01*
X010784Y009488D01*
X010809Y009490D01*
X010849Y009486D01*
X010881Y009472D01*
X010901Y009447D01*
X010906Y009430D01*
X010860Y009346D02*
X010803Y009346D01*
X010785Y009343D01*
X010772Y009338D01*
X010764Y009329D01*
X010762Y009316D01*
X010764Y009305D01*
X010772Y009295D01*
X010786Y009288D01*
X010807Y009285D01*
X010832Y009287D01*
X010849Y009293D01*
X010854Y009298D01*
X010857Y009305D01*
X010860Y009328D01*
X010860Y009346D01*
X011533Y009695D02*
X011528Y009719D01*
X011527Y009754D01*
X011528Y009788D01*
X011533Y009813D01*
X011553Y009848D01*
X011565Y009858D01*
X011581Y009869D01*
X011601Y009876D01*
X011627Y009879D01*
X011653Y009876D01*
X011674Y009869D01*
X011690Y009858D01*
X011702Y009848D01*
X011722Y009813D01*
X011726Y009788D01*
X011728Y009754D01*
X011726Y009719D01*
X011722Y009695D01*
X011702Y009660D01*
X011690Y009649D01*
X011674Y009639D01*
X011653Y009631D01*
X011627Y009629D01*
X011601Y009631D01*
X011581Y009639D01*
X011565Y009649D01*
X011553Y009660D01*
X011533Y009695D01*
X011578Y009716D02*
X011588Y009696D01*
X011604Y009682D01*
X011627Y009678D01*
X011651Y009682D01*
X011667Y009696D01*
X011676Y009716D01*
X011678Y009731D01*
X011679Y009754D01*
X011678Y009776D01*
X011676Y009791D01*
X011667Y009812D01*
X011651Y009825D01*
X011627Y009830D01*
X011604Y009825D01*
X011588Y009812D01*
X011578Y009791D01*
X011577Y009776D01*
X011576Y009754D01*
X011577Y009731D01*
X011578Y009716D01*
X011773Y009714D02*
X011774Y009694D01*
X011779Y009677D01*
X011799Y009650D01*
X011826Y009634D01*
X011855Y009629D01*
X011890Y009636D01*
X011918Y009658D01*
X011919Y009658D01*
X011919Y009632D01*
X011968Y009632D01*
X011968Y009876D01*
X011919Y009876D01*
X011919Y009730D01*
X011915Y009708D01*
X011905Y009692D01*
X011889Y009681D01*
X011871Y009678D01*
X011851Y009681D01*
X011836Y009692D01*
X011825Y009708D01*
X011822Y009730D01*
X011822Y009876D01*
X011773Y009876D01*
X011773Y009714D01*
X011780Y009488D02*
X011805Y009490D01*
X011845Y009486D01*
X011876Y009472D01*
X011896Y009447D01*
X011902Y009430D01*
X011903Y009409D01*
X011903Y009242D01*
X011856Y009242D01*
X011856Y009264D01*
X011855Y009264D01*
X011834Y009245D01*
X011818Y009241D01*
X011796Y009239D01*
X011761Y009245D01*
X011735Y009261D01*
X011718Y009284D01*
X011713Y009314D01*
X011717Y009342D01*
X011732Y009365D01*
X011756Y009381D01*
X011790Y009386D01*
X011856Y009386D01*
X011856Y009412D01*
X011853Y009426D01*
X011844Y009436D01*
X011829Y009442D01*
X011807Y009444D01*
X011792Y009443D01*
X011779Y009440D01*
X011762Y009425D01*
X011725Y009454D01*
X011758Y009481D01*
X011780Y009488D01*
X011799Y009346D02*
X011780Y009343D01*
X011767Y009338D01*
X011760Y009329D01*
X011757Y009316D01*
X011760Y009305D01*
X011768Y009295D01*
X011782Y009288D01*
X011802Y009285D01*
X011828Y009287D01*
X011845Y009293D01*
X011850Y009298D01*
X011853Y009305D01*
X011856Y009328D01*
X011856Y009346D01*
X011799Y009346D01*
X011961Y009243D02*
X012010Y009243D01*
X012010Y009390D01*
X012014Y009413D01*
X012025Y009429D01*
X012058Y009441D01*
X012074Y009438D01*
X012091Y009429D01*
X012126Y009471D01*
X012101Y009485D01*
X012075Y009490D01*
X012039Y009483D01*
X012011Y009461D01*
X012010Y009461D01*
X012010Y009487D01*
X011961Y009487D01*
X011961Y009243D01*
X012138Y009301D02*
X012131Y009330D01*
X012129Y009364D01*
X012131Y009397D01*
X012137Y009424D01*
X012147Y009446D01*
X012162Y009463D01*
X012195Y009483D01*
X012230Y009490D01*
X012268Y009483D01*
X012300Y009462D01*
X012323Y009429D01*
X012330Y009387D01*
X012330Y009346D01*
X012178Y009346D01*
X012182Y009320D01*
X012195Y009301D01*
X012213Y009290D01*
X012236Y009286D01*
X012265Y009292D01*
X012290Y009310D01*
X012326Y009279D01*
X012306Y009261D01*
X012285Y009249D01*
X012237Y009240D01*
X012200Y009246D01*
X012164Y009264D01*
X012149Y009280D01*
X012138Y009301D01*
X012178Y009387D02*
X012182Y009411D01*
X012193Y009429D01*
X012210Y009440D01*
X012230Y009444D01*
X012250Y009440D01*
X012266Y009429D01*
X012277Y009411D01*
X012281Y009387D01*
X012178Y009387D01*
X012254Y009636D02*
X012218Y009658D01*
X012203Y009674D01*
X012192Y009696D01*
X012186Y009722D01*
X012183Y009754D01*
X012186Y009785D01*
X012192Y009811D01*
X012203Y009833D01*
X012218Y009850D01*
X012254Y009872D01*
X012294Y009879D01*
X012321Y009876D01*
X012344Y009867D01*
X012382Y009836D01*
X012346Y009804D01*
X012323Y009823D01*
X012296Y009830D01*
X012268Y009825D01*
X012248Y009811D01*
X012237Y009787D01*
X012233Y009754D01*
X012237Y009720D01*
X012248Y009697D01*
X012268Y009683D01*
X012296Y009678D01*
X012323Y009684D01*
X012346Y009704D01*
X012382Y009671D01*
X012344Y009641D01*
X012321Y009632D01*
X012294Y009629D01*
X012254Y009636D01*
X012405Y009690D02*
X012399Y009718D01*
X012397Y009753D01*
X012399Y009786D01*
X012405Y009813D01*
X012415Y009835D01*
X012429Y009852D01*
X012462Y009872D01*
X012497Y009879D01*
X012535Y009872D01*
X012568Y009851D01*
X012590Y009818D01*
X012598Y009776D01*
X012598Y009735D01*
X012446Y009735D01*
X012450Y009709D01*
X012462Y009690D01*
X012481Y009679D01*
X012504Y009675D01*
X012532Y009681D01*
X012558Y009699D01*
X012593Y009668D01*
X012574Y009650D01*
X012552Y009638D01*
X012505Y009629D01*
X012468Y009635D01*
X012432Y009653D01*
X012416Y009669D01*
X012405Y009690D01*
X012446Y009776D02*
X012450Y009800D01*
X012461Y009818D01*
X012477Y009829D01*
X012497Y009833D01*
X012517Y009829D01*
X012533Y009818D01*
X012544Y009800D01*
X012549Y009776D01*
X012446Y009776D01*
X012188Y009860D02*
X012153Y009818D01*
X012137Y009827D01*
X012120Y009830D01*
X012087Y009818D01*
X012076Y009802D01*
X012073Y009779D01*
X012073Y009632D01*
X012024Y009632D01*
X012024Y009876D01*
X012073Y009876D01*
X012073Y009850D01*
X012074Y009850D01*
X012101Y009872D01*
X012137Y009879D01*
X012163Y009874D01*
X012188Y009860D01*
X012237Y015146D02*
X012200Y015152D01*
X012164Y015170D01*
X012149Y015185D01*
X012138Y015207D01*
X012131Y015235D01*
X012129Y015270D01*
X012131Y015303D01*
X012137Y015330D01*
X012147Y015352D01*
X012162Y015368D01*
X012195Y015389D01*
X012230Y015396D01*
X012268Y015389D01*
X012300Y015368D01*
X012323Y015335D01*
X012330Y015292D01*
X012330Y015252D01*
X012178Y015252D01*
X012182Y015226D01*
X012195Y015207D01*
X012213Y015195D01*
X012236Y015192D01*
X012265Y015198D01*
X012290Y015215D01*
X012326Y015185D01*
X012306Y015167D01*
X012285Y015155D01*
X012237Y015146D01*
X012281Y015292D02*
X012277Y015317D01*
X012266Y015335D01*
X012250Y015346D01*
X012230Y015349D01*
X012210Y015346D01*
X012193Y015335D01*
X012182Y015317D01*
X012178Y015292D01*
X012281Y015292D01*
X012126Y015377D02*
X012091Y015334D01*
X012074Y015343D01*
X012058Y015346D01*
X012025Y015334D01*
X012014Y015318D01*
X012010Y015295D01*
X012010Y015148D01*
X011961Y015148D01*
X011961Y015393D01*
X012010Y015393D01*
X012010Y015367D01*
X012011Y015367D01*
X012039Y015388D01*
X012075Y015396D01*
X012101Y015391D01*
X012126Y015377D01*
X012073Y015537D02*
X012024Y015537D01*
X012024Y015782D01*
X012073Y015782D01*
X012073Y015755D01*
X012074Y015755D01*
X012101Y015777D01*
X012137Y015784D01*
X012163Y015780D01*
X012188Y015765D01*
X012153Y015723D01*
X012137Y015732D01*
X012120Y015735D01*
X012087Y015723D01*
X012076Y015707D01*
X012073Y015684D01*
X012073Y015537D01*
X011968Y015537D02*
X011919Y015537D01*
X011919Y015563D01*
X011918Y015563D01*
X011890Y015542D01*
X011855Y015534D01*
X011826Y015540D01*
X011799Y015556D01*
X011779Y015582D01*
X011774Y015600D01*
X011773Y015619D01*
X011773Y015782D01*
X011822Y015782D01*
X011822Y015636D01*
X011825Y015614D01*
X011836Y015597D01*
X011851Y015587D01*
X011871Y015583D01*
X011889Y015587D01*
X011905Y015597D01*
X011915Y015614D01*
X011919Y015636D01*
X011919Y015782D01*
X011968Y015782D01*
X011968Y015537D01*
X011876Y015378D02*
X011845Y015391D01*
X011805Y015395D01*
X011780Y015393D01*
X011758Y015387D01*
X011725Y015360D01*
X011762Y015330D01*
X011779Y015345D01*
X011792Y015348D01*
X011807Y015349D01*
X011829Y015348D01*
X011844Y015342D01*
X011853Y015332D01*
X011856Y015318D01*
X011856Y015292D01*
X011790Y015292D01*
X011756Y015286D01*
X011732Y015271D01*
X011717Y015247D01*
X011713Y015219D01*
X011718Y015190D01*
X011735Y015166D01*
X011761Y015150D01*
X011796Y015145D01*
X011818Y015146D01*
X011834Y015151D01*
X011855Y015169D01*
X011856Y015169D01*
X011856Y015147D01*
X011903Y015147D01*
X011903Y015315D01*
X011902Y015335D01*
X011896Y015353D01*
X011876Y015378D01*
X011856Y015251D02*
X011799Y015251D01*
X011780Y015249D01*
X011767Y015243D01*
X011760Y015234D01*
X011757Y015222D01*
X011760Y015210D01*
X011768Y015200D01*
X011782Y015193D01*
X011802Y015191D01*
X011828Y015192D01*
X011845Y015198D01*
X011850Y015203D01*
X011853Y015211D01*
X011856Y015233D01*
X011856Y015251D01*
X011703Y015393D02*
X011625Y015148D01*
X011582Y015148D01*
X011531Y015319D01*
X011530Y015319D01*
X011479Y015148D01*
X011435Y015148D01*
X011357Y015393D01*
X011409Y015393D01*
X011456Y015222D01*
X011457Y015222D01*
X011512Y015393D01*
X011548Y015393D01*
X011603Y015222D01*
X011604Y015222D01*
X011651Y015393D01*
X011703Y015393D01*
X011653Y015537D02*
X011627Y015534D01*
X011601Y015537D01*
X011581Y015544D01*
X011565Y015555D01*
X011553Y015565D01*
X011533Y015600D01*
X011528Y015625D01*
X011527Y015660D01*
X011528Y015694D01*
X011533Y015718D01*
X011553Y015753D01*
X011565Y015764D01*
X011581Y015774D01*
X011601Y015782D01*
X011627Y015784D01*
X011653Y015782D01*
X011674Y015774D01*
X011690Y015764D01*
X011702Y015753D01*
X011722Y015718D01*
X011726Y015694D01*
X011728Y015660D01*
X011726Y015625D01*
X011722Y015600D01*
X011702Y015565D01*
X011690Y015555D01*
X011674Y015544D01*
X011653Y015537D01*
X011651Y015588D02*
X011667Y015601D01*
X011676Y015622D01*
X011678Y015636D01*
X011679Y015659D01*
X011678Y015682D01*
X011676Y015697D01*
X011667Y015717D01*
X011651Y015731D01*
X011627Y015735D01*
X011604Y015731D01*
X011588Y015717D01*
X011578Y015697D01*
X011577Y015682D01*
X011576Y015660D01*
X011577Y015637D01*
X011578Y015622D01*
X011588Y015601D01*
X011604Y015588D01*
X011627Y015583D01*
X011651Y015588D01*
X011496Y015610D02*
X011489Y015578D01*
X011467Y015554D01*
X011434Y015539D01*
X011395Y015534D01*
X011338Y015545D01*
X011287Y015578D01*
X011322Y015612D01*
X011357Y015588D01*
X011399Y015580D01*
X011418Y015582D01*
X011433Y015588D01*
X011444Y015598D01*
X011447Y015612D01*
X011445Y015621D01*
X011440Y015629D01*
X011430Y015633D01*
X011417Y015636D01*
X011374Y015640D01*
X011346Y015646D01*
X011324Y015660D01*
X011309Y015681D01*
X011304Y015709D01*
X011310Y015742D01*
X011330Y015765D01*
X011359Y015780D01*
X011395Y015784D01*
X011424Y015782D01*
X011449Y015775D01*
X011490Y015751D01*
X011460Y015715D01*
X011430Y015732D01*
X011395Y015738D01*
X011375Y015736D01*
X011362Y015730D01*
X011353Y015709D01*
X011354Y015701D01*
X011359Y015694D01*
X011369Y015688D01*
X011385Y015686D01*
X011425Y015683D01*
X011443Y015680D01*
X011458Y015676D01*
X011480Y015659D01*
X011492Y015636D01*
X011496Y015610D01*
X011328Y015491D02*
X011328Y015148D01*
X011279Y015148D01*
X011279Y015174D01*
X011250Y015153D01*
X011215Y015146D01*
X011194Y015148D01*
X011177Y015154D01*
X011150Y015177D01*
X011136Y015208D01*
X011134Y015232D01*
X011133Y015271D01*
X011134Y015309D01*
X011136Y015333D01*
X011150Y015364D01*
X011177Y015386D01*
X011194Y015393D01*
X011215Y015396D01*
X011250Y015387D01*
X011279Y015367D01*
X011279Y015491D01*
X011328Y015491D01*
X011258Y015340D02*
X011246Y015345D01*
X011230Y015346D01*
X011215Y015345D01*
X011203Y015340D01*
X011189Y015323D01*
X011182Y015271D01*
X011189Y015218D01*
X011203Y015200D01*
X011215Y015196D01*
X011230Y015194D01*
X011246Y015196D01*
X011258Y015201D01*
X011272Y015219D01*
X011279Y015271D01*
X011272Y015322D01*
X011258Y015340D01*
X011129Y015377D02*
X011094Y015334D01*
X011078Y015343D01*
X011061Y015346D01*
X011029Y015334D01*
X011018Y015318D01*
X011014Y015295D01*
X011014Y015148D01*
X010965Y015148D01*
X010965Y015393D01*
X011014Y015393D01*
X011014Y015367D01*
X011015Y015367D01*
X011042Y015388D01*
X011078Y015396D01*
X011105Y015391D01*
X011129Y015377D01*
X011151Y015537D02*
X011102Y015537D01*
X011102Y015683D01*
X011099Y015705D01*
X011089Y015721D01*
X011073Y015732D01*
X011054Y015735D01*
X011035Y015732D01*
X011019Y015721D01*
X011009Y015705D01*
X011005Y015683D01*
X011005Y015537D01*
X010956Y015537D01*
X010956Y015782D01*
X011005Y015782D01*
X011005Y015755D01*
X011006Y015755D01*
X011034Y015777D01*
X011070Y015784D01*
X011098Y015779D01*
X011125Y015763D01*
X011145Y015736D01*
X011150Y015719D01*
X011151Y015700D01*
X011151Y015537D01*
X010909Y015574D02*
X010889Y015556D01*
X010868Y015543D01*
X010820Y015534D01*
X010783Y015540D01*
X010747Y015559D01*
X010732Y015574D01*
X010721Y015596D01*
X010714Y015624D01*
X010712Y015658D01*
X010714Y015691D01*
X010720Y015719D01*
X010730Y015741D01*
X010745Y015757D01*
X010778Y015778D01*
X010813Y015784D01*
X010851Y015777D01*
X010883Y015756D01*
X010906Y015724D01*
X010913Y015681D01*
X010913Y015641D01*
X010761Y015641D01*
X010765Y015614D01*
X010778Y015596D01*
X010796Y015584D01*
X010819Y015580D01*
X010848Y015586D01*
X010873Y015604D01*
X010909Y015574D01*
X010864Y015681D02*
X010860Y015706D01*
X010849Y015723D01*
X010833Y015734D01*
X010813Y015738D01*
X010793Y015734D01*
X010776Y015723D01*
X010765Y015706D01*
X010761Y015681D01*
X010864Y015681D01*
X010675Y015659D02*
X010674Y015621D01*
X010672Y015597D01*
X010658Y015566D01*
X010631Y015543D01*
X010613Y015537D01*
X010592Y015534D01*
X010558Y015542D01*
X010529Y015563D01*
X010529Y015367D01*
X010530Y015367D01*
X010558Y015388D01*
X010594Y015396D01*
X010622Y015390D01*
X010649Y015374D01*
X010669Y015347D01*
X010674Y015330D01*
X010675Y015311D01*
X010675Y015148D01*
X010626Y015148D01*
X010626Y015294D01*
X010623Y015316D01*
X010612Y015332D01*
X010597Y015343D01*
X010578Y015346D01*
X010559Y015343D01*
X010543Y015332D01*
X010533Y015316D01*
X010529Y015294D01*
X010529Y015148D01*
X010480Y015148D01*
X010480Y015782D01*
X010529Y015782D01*
X010529Y015756D01*
X010558Y015777D01*
X010592Y015784D01*
X010613Y015782D01*
X010631Y015775D01*
X010658Y015753D01*
X010672Y015722D01*
X010674Y015697D01*
X010675Y015659D01*
X010626Y015659D02*
X010619Y015711D01*
X010605Y015729D01*
X010593Y015734D01*
X010578Y015735D01*
X010562Y015734D01*
X010550Y015729D01*
X010536Y015710D01*
X010529Y015659D01*
X010536Y015608D01*
X010550Y015589D01*
X010562Y015585D01*
X010578Y015583D01*
X010593Y015585D01*
X010605Y015589D01*
X010619Y015607D01*
X010626Y015659D01*
X010435Y015660D02*
X010434Y015625D01*
X010429Y015600D01*
X010409Y015565D01*
X010397Y015555D01*
X010381Y015544D01*
X010360Y015537D01*
X010335Y015534D01*
X010309Y015537D01*
X010288Y015544D01*
X010272Y015555D01*
X010260Y015565D01*
X010240Y015600D01*
X010235Y015625D01*
X010234Y015660D01*
X010235Y015694D01*
X010240Y015718D01*
X010260Y015753D01*
X010272Y015764D01*
X010288Y015774D01*
X010309Y015782D01*
X010335Y015784D01*
X010360Y015782D01*
X010381Y015774D01*
X010397Y015764D01*
X010409Y015753D01*
X010429Y015718D01*
X010434Y015694D01*
X010435Y015660D01*
X010386Y015659D02*
X010385Y015636D01*
X010383Y015622D01*
X010374Y015601D01*
X010358Y015588D01*
X010335Y015583D01*
X010311Y015588D01*
X010295Y015601D01*
X010285Y015622D01*
X010284Y015637D01*
X010283Y015660D01*
X010284Y015682D01*
X010285Y015697D01*
X010295Y015717D01*
X010311Y015731D01*
X010335Y015735D01*
X010358Y015731D01*
X010374Y015717D01*
X010383Y015697D01*
X010385Y015682D01*
X010386Y015659D01*
X010729Y015360D02*
X010763Y015387D01*
X010784Y015393D01*
X010809Y015395D01*
X010849Y015391D01*
X010881Y015378D01*
X010901Y015353D01*
X010906Y015335D01*
X010908Y015315D01*
X010908Y015147D01*
X010860Y015147D01*
X010860Y015169D01*
X010859Y015169D01*
X010839Y015151D01*
X010822Y015146D01*
X010801Y015145D01*
X010765Y015150D01*
X010739Y015166D01*
X010723Y015190D01*
X010717Y015219D01*
X010722Y015247D01*
X010736Y015271D01*
X010761Y015286D01*
X010794Y015292D01*
X010860Y015292D01*
X010860Y015318D01*
X010857Y015332D01*
X010848Y015342D01*
X010833Y015348D01*
X010811Y015349D01*
X010796Y015348D01*
X010783Y015345D01*
X010766Y015330D01*
X010729Y015360D01*
X010785Y015249D02*
X010772Y015243D01*
X010764Y015234D01*
X010762Y015222D01*
X010764Y015210D01*
X010772Y015200D01*
X010786Y015193D01*
X010807Y015191D01*
X010832Y015192D01*
X010849Y015198D01*
X010854Y015203D01*
X010857Y015211D01*
X010860Y015233D01*
X010860Y015251D01*
X010803Y015251D01*
X010785Y015249D01*
X012192Y015602D02*
X012186Y015628D01*
X012183Y015659D01*
X012186Y015690D01*
X012192Y015717D01*
X012203Y015738D01*
X012218Y015755D01*
X012254Y015777D01*
X012294Y015784D01*
X012321Y015781D01*
X012344Y015772D01*
X012382Y015742D01*
X012346Y015710D01*
X012323Y015729D01*
X012296Y015735D01*
X012268Y015730D01*
X012248Y015716D01*
X012237Y015692D01*
X012233Y015659D01*
X012237Y015626D01*
X012248Y015602D01*
X012268Y015588D01*
X012296Y015583D01*
X012323Y015590D01*
X012346Y015609D01*
X012382Y015577D01*
X012344Y015546D01*
X012321Y015537D01*
X012294Y015534D01*
X012254Y015542D01*
X012218Y015563D01*
X012203Y015580D01*
X012192Y015602D01*
X012399Y015624D02*
X012397Y015658D01*
X012399Y015691D01*
X012405Y015719D01*
X012415Y015741D01*
X012429Y015757D01*
X012462Y015778D01*
X012497Y015784D01*
X012535Y015777D01*
X012568Y015756D01*
X012590Y015724D01*
X012598Y015681D01*
X012598Y015641D01*
X012446Y015641D01*
X012450Y015614D01*
X012462Y015596D01*
X012481Y015584D01*
X012504Y015580D01*
X012532Y015586D01*
X012558Y015604D01*
X012593Y015574D01*
X012574Y015556D01*
X012552Y015543D01*
X012505Y015534D01*
X012468Y015540D01*
X012432Y015559D01*
X012416Y015574D01*
X012405Y015596D01*
X012399Y015624D01*
X012446Y015681D02*
X012450Y015706D01*
X012461Y015723D01*
X012477Y015734D01*
X012497Y015738D01*
X012517Y015734D01*
X012533Y015723D01*
X012544Y015706D01*
X012549Y015681D01*
X012446Y015681D01*
X012237Y021051D02*
X012200Y021057D01*
X012164Y021075D01*
X012149Y021091D01*
X012138Y021112D01*
X012131Y021141D01*
X012129Y021175D01*
X012131Y021208D01*
X012137Y021235D01*
X012147Y021257D01*
X012162Y021274D01*
X012195Y021294D01*
X012230Y021301D01*
X012268Y021294D01*
X012300Y021273D01*
X012323Y021240D01*
X012330Y021198D01*
X012330Y021157D01*
X012178Y021157D01*
X012182Y021131D01*
X012195Y021112D01*
X012213Y021101D01*
X012236Y021097D01*
X012265Y021103D01*
X012290Y021121D01*
X012326Y021090D01*
X012306Y021072D01*
X012285Y021060D01*
X012237Y021051D01*
X012281Y021198D02*
X012178Y021198D01*
X012182Y021222D01*
X012193Y021240D01*
X012210Y021251D01*
X012230Y021255D01*
X012250Y021251D01*
X012266Y021240D01*
X012277Y021222D01*
X012281Y021198D01*
X012126Y021282D02*
X012091Y021240D01*
X012074Y021249D01*
X012058Y021252D01*
X012025Y021240D01*
X012014Y021224D01*
X012010Y021201D01*
X012010Y021054D01*
X011961Y021054D01*
X011961Y021298D01*
X012010Y021298D01*
X012010Y021272D01*
X012011Y021272D01*
X012039Y021294D01*
X012075Y021301D01*
X012101Y021296D01*
X012126Y021282D01*
X012073Y021443D02*
X012024Y021443D01*
X012024Y021687D01*
X012073Y021687D01*
X012073Y021661D01*
X012074Y021661D01*
X012101Y021683D01*
X012137Y021690D01*
X012163Y021685D01*
X012188Y021671D01*
X012153Y021629D01*
X012137Y021638D01*
X012120Y021641D01*
X012087Y021629D01*
X012076Y021613D01*
X012073Y021590D01*
X012073Y021443D01*
X011968Y021443D02*
X011919Y021443D01*
X011919Y021469D01*
X011918Y021469D01*
X011890Y021447D01*
X011855Y021440D01*
X011826Y021445D01*
X011799Y021461D01*
X011779Y021488D01*
X011774Y021505D01*
X011773Y021525D01*
X011773Y021687D01*
X011822Y021687D01*
X011822Y021541D01*
X011825Y021519D01*
X011836Y021503D01*
X011851Y021492D01*
X011871Y021489D01*
X011889Y021492D01*
X011905Y021503D01*
X011915Y021519D01*
X011919Y021541D01*
X011919Y021687D01*
X011968Y021687D01*
X011968Y021443D01*
X011876Y021283D02*
X011896Y021258D01*
X011902Y021241D01*
X011903Y021220D01*
X011903Y021053D01*
X011856Y021053D01*
X011856Y021075D01*
X011855Y021075D01*
X011834Y021056D01*
X011818Y021052D01*
X011796Y021050D01*
X011761Y021056D01*
X011735Y021072D01*
X011718Y021095D01*
X011713Y021125D01*
X011717Y021153D01*
X011732Y021176D01*
X011756Y021192D01*
X011790Y021197D01*
X011856Y021197D01*
X011856Y021223D01*
X011853Y021237D01*
X011844Y021247D01*
X011829Y021253D01*
X011807Y021255D01*
X011792Y021254D01*
X011779Y021251D01*
X011762Y021236D01*
X011725Y021265D01*
X011758Y021292D01*
X011780Y021299D01*
X011805Y021301D01*
X011845Y021297D01*
X011876Y021283D01*
X011856Y021157D02*
X011799Y021157D01*
X011780Y021154D01*
X011767Y021149D01*
X011760Y021140D01*
X011757Y021127D01*
X011760Y021116D01*
X011768Y021106D01*
X011782Y021099D01*
X011802Y021096D01*
X011828Y021098D01*
X011845Y021104D01*
X011850Y021109D01*
X011853Y021116D01*
X011856Y021139D01*
X011856Y021157D01*
X011703Y021298D02*
X011625Y021054D01*
X011582Y021054D01*
X011531Y021225D01*
X011530Y021225D01*
X011479Y021054D01*
X011435Y021054D01*
X011357Y021298D01*
X011409Y021298D01*
X011456Y021127D01*
X011457Y021127D01*
X011512Y021298D01*
X011548Y021298D01*
X011603Y021127D01*
X011604Y021127D01*
X011651Y021298D01*
X011703Y021298D01*
X011653Y021442D02*
X011627Y021440D01*
X011601Y021442D01*
X011581Y021450D01*
X011565Y021460D01*
X011553Y021471D01*
X011533Y021506D01*
X011528Y021530D01*
X011527Y021565D01*
X011528Y021599D01*
X011533Y021624D01*
X011553Y021659D01*
X011565Y021669D01*
X011581Y021680D01*
X011601Y021687D01*
X011627Y021690D01*
X011653Y021687D01*
X011674Y021680D01*
X011690Y021669D01*
X011702Y021659D01*
X011722Y021624D01*
X011726Y021599D01*
X011728Y021565D01*
X011726Y021530D01*
X011722Y021506D01*
X011702Y021471D01*
X011690Y021460D01*
X011674Y021450D01*
X011653Y021442D01*
X011651Y021493D02*
X011667Y021507D01*
X011676Y021527D01*
X011678Y021542D01*
X011679Y021565D01*
X011678Y021587D01*
X011676Y021602D01*
X011667Y021623D01*
X011651Y021636D01*
X011627Y021641D01*
X011604Y021636D01*
X011588Y021623D01*
X011578Y021602D01*
X011577Y021587D01*
X011576Y021565D01*
X011577Y021542D01*
X011578Y021527D01*
X011588Y021507D01*
X011604Y021493D01*
X011627Y021489D01*
X011651Y021493D01*
X011496Y021515D02*
X011489Y021483D01*
X011467Y021459D01*
X011434Y021445D01*
X011395Y021440D01*
X011338Y021451D01*
X011287Y021483D01*
X011322Y021517D01*
X011357Y021494D01*
X011399Y021486D01*
X011418Y021488D01*
X011433Y021494D01*
X011444Y021504D01*
X011447Y021517D01*
X011445Y021527D01*
X011440Y021534D01*
X011430Y021539D01*
X011417Y021541D01*
X011374Y021545D01*
X011346Y021552D01*
X011324Y021565D01*
X011309Y021586D01*
X011304Y021615D01*
X011310Y021647D01*
X011330Y021671D01*
X011359Y021685D01*
X011395Y021690D01*
X011424Y021688D01*
X011449Y021681D01*
X011490Y021657D01*
X011460Y021621D01*
X011430Y021637D01*
X011395Y021644D01*
X011375Y021641D01*
X011362Y021635D01*
X011353Y021614D01*
X011354Y021606D01*
X011359Y021599D01*
X011369Y021594D01*
X011385Y021591D01*
X011425Y021588D01*
X011443Y021586D01*
X011458Y021581D01*
X011480Y021565D01*
X011492Y021542D01*
X011496Y021515D01*
X011328Y021397D02*
X011328Y021054D01*
X011279Y021054D01*
X011279Y021079D01*
X011250Y021058D01*
X011215Y021051D01*
X011194Y021053D01*
X011177Y021060D01*
X011150Y021083D01*
X011136Y021113D01*
X011134Y021138D01*
X011133Y021176D01*
X011134Y021214D01*
X011136Y021239D01*
X011150Y021269D01*
X011177Y021292D01*
X011194Y021299D01*
X011215Y021301D01*
X011250Y021293D01*
X011279Y021272D01*
X011279Y021397D01*
X011328Y021397D01*
X011258Y021246D02*
X011246Y021250D01*
X011230Y021252D01*
X011215Y021250D01*
X011203Y021246D01*
X011189Y021228D01*
X011182Y021176D01*
X011189Y021124D01*
X011203Y021106D01*
X011215Y021101D01*
X011230Y021100D01*
X011246Y021102D01*
X011258Y021106D01*
X011272Y021125D01*
X011279Y021176D01*
X011272Y021227D01*
X011258Y021246D01*
X011129Y021282D02*
X011094Y021240D01*
X011078Y021249D01*
X011061Y021252D01*
X011029Y021240D01*
X011018Y021224D01*
X011014Y021201D01*
X011014Y021054D01*
X010965Y021054D01*
X010965Y021298D01*
X011014Y021298D01*
X011014Y021272D01*
X011015Y021272D01*
X011042Y021294D01*
X011078Y021301D01*
X011105Y021296D01*
X011129Y021282D01*
X011151Y021443D02*
X011102Y021443D01*
X011102Y021588D01*
X011099Y021610D01*
X011089Y021627D01*
X011073Y021637D01*
X011054Y021641D01*
X011035Y021637D01*
X011019Y021627D01*
X011009Y021610D01*
X011005Y021588D01*
X011005Y021443D01*
X010956Y021443D01*
X010956Y021687D01*
X011005Y021687D01*
X011005Y021661D01*
X011006Y021661D01*
X011034Y021683D01*
X011070Y021690D01*
X011098Y021684D01*
X011125Y021668D01*
X011145Y021642D01*
X011150Y021625D01*
X011151Y021605D01*
X011151Y021443D01*
X010909Y021479D02*
X010889Y021461D01*
X010868Y021449D01*
X010820Y021440D01*
X010783Y021446D01*
X010747Y021464D01*
X010732Y021480D01*
X010721Y021501D01*
X010714Y021529D01*
X010712Y021564D01*
X010714Y021597D01*
X010720Y021624D01*
X010730Y021646D01*
X010745Y021663D01*
X010778Y021683D01*
X010813Y021690D01*
X010851Y021683D01*
X010883Y021662D01*
X010906Y021629D01*
X010913Y021587D01*
X010913Y021546D01*
X010761Y021546D01*
X010765Y021520D01*
X010778Y021501D01*
X010796Y021490D01*
X010819Y021486D01*
X010848Y021492D01*
X010873Y021510D01*
X010909Y021479D01*
X010864Y021587D02*
X010860Y021611D01*
X010849Y021629D01*
X010833Y021640D01*
X010813Y021644D01*
X010793Y021640D01*
X010776Y021629D01*
X010765Y021611D01*
X010761Y021587D01*
X010864Y021587D01*
X010675Y021565D02*
X010674Y021526D01*
X010672Y021502D01*
X010658Y021471D01*
X010631Y021449D01*
X010613Y021442D01*
X010592Y021440D01*
X010558Y021448D01*
X010529Y021469D01*
X010529Y021272D01*
X010530Y021272D01*
X010558Y021294D01*
X010594Y021301D01*
X010622Y021296D01*
X010649Y021279D01*
X010669Y021253D01*
X010674Y021236D01*
X010675Y021216D01*
X010675Y021054D01*
X010626Y021054D01*
X010626Y021199D01*
X010623Y021221D01*
X010612Y021238D01*
X010597Y021248D01*
X010578Y021252D01*
X010559Y021248D01*
X010543Y021238D01*
X010533Y021221D01*
X010529Y021199D01*
X010529Y021054D01*
X010480Y021054D01*
X010480Y021687D01*
X010529Y021687D01*
X010529Y021661D01*
X010558Y021683D01*
X010592Y021690D01*
X010613Y021688D01*
X010631Y021681D01*
X010658Y021658D01*
X010672Y021627D01*
X010674Y021603D01*
X010675Y021565D01*
X010626Y021565D02*
X010619Y021617D01*
X010605Y021635D01*
X010593Y021639D01*
X010578Y021641D01*
X010562Y021639D01*
X010550Y021635D01*
X010536Y021616D01*
X010529Y021565D01*
X010536Y021513D01*
X010550Y021495D01*
X010562Y021490D01*
X010578Y021489D01*
X010593Y021490D01*
X010605Y021495D01*
X010619Y021513D01*
X010626Y021565D01*
X010435Y021565D02*
X010434Y021530D01*
X010429Y021506D01*
X010409Y021471D01*
X010397Y021460D01*
X010381Y021450D01*
X010360Y021442D01*
X010335Y021440D01*
X010309Y021442D01*
X010288Y021450D01*
X010272Y021460D01*
X010260Y021471D01*
X010240Y021506D01*
X010235Y021530D01*
X010234Y021565D01*
X010235Y021599D01*
X010240Y021624D01*
X010260Y021659D01*
X010272Y021669D01*
X010288Y021680D01*
X010309Y021687D01*
X010335Y021690D01*
X010360Y021687D01*
X010381Y021680D01*
X010397Y021669D01*
X010409Y021659D01*
X010429Y021624D01*
X010434Y021599D01*
X010435Y021565D01*
X010386Y021565D02*
X010385Y021542D01*
X010383Y021527D01*
X010374Y021507D01*
X010358Y021493D01*
X010335Y021489D01*
X010311Y021493D01*
X010295Y021507D01*
X010285Y021527D01*
X010284Y021542D01*
X010283Y021565D01*
X010284Y021587D01*
X010285Y021602D01*
X010295Y021623D01*
X010311Y021636D01*
X010335Y021641D01*
X010358Y021636D01*
X010374Y021623D01*
X010383Y021602D01*
X010385Y021587D01*
X010386Y021565D01*
X010729Y021265D02*
X010763Y021292D01*
X010784Y021299D01*
X010809Y021301D01*
X010849Y021297D01*
X010881Y021283D01*
X010901Y021258D01*
X010906Y021241D01*
X010908Y021220D01*
X010908Y021053D01*
X010860Y021053D01*
X010860Y021075D01*
X010859Y021075D01*
X010839Y021056D01*
X010822Y021052D01*
X010801Y021050D01*
X010765Y021056D01*
X010739Y021072D01*
X010723Y021095D01*
X010717Y021125D01*
X010722Y021153D01*
X010736Y021176D01*
X010761Y021192D01*
X010794Y021197D01*
X010860Y021197D01*
X010860Y021223D01*
X010857Y021237D01*
X010848Y021247D01*
X010833Y021253D01*
X010811Y021255D01*
X010796Y021254D01*
X010783Y021251D01*
X010766Y021236D01*
X010729Y021265D01*
X010772Y021149D02*
X010785Y021154D01*
X010803Y021157D01*
X010860Y021157D01*
X010860Y021139D01*
X010857Y021116D01*
X010854Y021109D01*
X010849Y021104D01*
X010832Y021098D01*
X010807Y021096D01*
X010786Y021099D01*
X010772Y021106D01*
X010764Y021116D01*
X010762Y021127D01*
X010764Y021140D01*
X010772Y021149D01*
X012192Y021507D02*
X012186Y021533D01*
X012183Y021565D01*
X012186Y021596D01*
X012192Y021622D01*
X012203Y021644D01*
X012218Y021661D01*
X012254Y021683D01*
X012294Y021690D01*
X012321Y021687D01*
X012344Y021678D01*
X012382Y021648D01*
X012346Y021615D01*
X012323Y021634D01*
X012296Y021641D01*
X012268Y021636D01*
X012248Y021622D01*
X012237Y021598D01*
X012233Y021565D01*
X012237Y021531D01*
X012248Y021508D01*
X012268Y021494D01*
X012296Y021489D01*
X012323Y021495D01*
X012346Y021515D01*
X012382Y021482D01*
X012344Y021452D01*
X012321Y021443D01*
X012294Y021440D01*
X012254Y021447D01*
X012218Y021469D01*
X012203Y021485D01*
X012192Y021507D01*
X012399Y021529D02*
X012397Y021564D01*
X012399Y021597D01*
X012405Y021624D01*
X012415Y021646D01*
X012429Y021663D01*
X012462Y021683D01*
X012497Y021690D01*
X012535Y021683D01*
X012568Y021662D01*
X012590Y021629D01*
X012598Y021587D01*
X012598Y021546D01*
X012446Y021546D01*
X012450Y021520D01*
X012462Y021501D01*
X012481Y021490D01*
X012504Y021486D01*
X012532Y021492D01*
X012558Y021510D01*
X012593Y021479D01*
X012574Y021461D01*
X012552Y021449D01*
X012505Y021440D01*
X012468Y021446D01*
X012432Y021464D01*
X012416Y021480D01*
X012405Y021501D01*
X012399Y021529D01*
X012446Y021587D02*
X012450Y021611D01*
X012461Y021629D01*
X012477Y021640D01*
X012497Y021644D01*
X012517Y021640D01*
X012533Y021629D01*
X012544Y021611D01*
X012549Y021587D01*
X012446Y021587D01*
X012237Y026957D02*
X012200Y026963D01*
X012164Y026981D01*
X012149Y026996D01*
X012138Y027018D01*
X012131Y027046D01*
X012129Y027081D01*
X012131Y027114D01*
X012137Y027141D01*
X012147Y027163D01*
X012162Y027179D01*
X012195Y027200D01*
X012230Y027207D01*
X012268Y027200D01*
X012300Y027179D01*
X012323Y027146D01*
X012330Y027103D01*
X012330Y027063D01*
X012178Y027063D01*
X012182Y027037D01*
X012195Y027018D01*
X012213Y027006D01*
X012236Y027003D01*
X012265Y027009D01*
X012290Y027026D01*
X012326Y026996D01*
X012306Y026978D01*
X012285Y026966D01*
X012237Y026957D01*
X012281Y027103D02*
X012178Y027103D01*
X012182Y027128D01*
X012193Y027146D01*
X012210Y027157D01*
X012230Y027160D01*
X012250Y027157D01*
X012266Y027146D01*
X012277Y027128D01*
X012281Y027103D01*
X012126Y027188D02*
X012091Y027145D01*
X012074Y027154D01*
X012058Y027157D01*
X012025Y027145D01*
X012014Y027129D01*
X012010Y027106D01*
X012010Y026959D01*
X011961Y026959D01*
X011961Y027204D01*
X012010Y027204D01*
X012010Y027178D01*
X012011Y027178D01*
X012039Y027199D01*
X012075Y027207D01*
X012101Y027202D01*
X012126Y027188D01*
X012073Y027348D02*
X012024Y027348D01*
X012024Y027593D01*
X012073Y027593D01*
X012073Y027566D01*
X012074Y027566D01*
X012101Y027588D01*
X012137Y027595D01*
X012163Y027591D01*
X012188Y027577D01*
X012153Y027534D01*
X012137Y027543D01*
X012120Y027546D01*
X012087Y027534D01*
X012076Y027518D01*
X012073Y027495D01*
X012073Y027348D01*
X011968Y027348D02*
X011919Y027348D01*
X011919Y027374D01*
X011918Y027374D01*
X011890Y027353D01*
X011855Y027345D01*
X011826Y027351D01*
X011799Y027367D01*
X011779Y027393D01*
X011774Y027411D01*
X011773Y027430D01*
X011773Y027593D01*
X011822Y027593D01*
X011822Y027447D01*
X011825Y027425D01*
X011836Y027408D01*
X011851Y027398D01*
X011871Y027394D01*
X011889Y027398D01*
X011905Y027408D01*
X011915Y027425D01*
X011919Y027447D01*
X011919Y027593D01*
X011968Y027593D01*
X011968Y027348D01*
X011876Y027189D02*
X011896Y027164D01*
X011902Y027146D01*
X011903Y027126D01*
X011903Y026958D01*
X011856Y026958D01*
X011856Y026980D01*
X011855Y026980D01*
X011834Y026962D01*
X011818Y026957D01*
X011796Y026956D01*
X011761Y026962D01*
X011735Y026977D01*
X011718Y027001D01*
X011713Y027030D01*
X011717Y027058D01*
X011732Y027082D01*
X011756Y027097D01*
X011790Y027103D01*
X011856Y027103D01*
X011856Y027129D01*
X011853Y027143D01*
X011844Y027153D01*
X011829Y027159D01*
X011807Y027160D01*
X011792Y027159D01*
X011779Y027156D01*
X011762Y027141D01*
X011725Y027171D01*
X011758Y027198D01*
X011780Y027204D01*
X011805Y027206D01*
X011845Y027202D01*
X011876Y027189D01*
X011856Y027062D02*
X011799Y027062D01*
X011780Y027060D01*
X011767Y027054D01*
X011760Y027045D01*
X011757Y027033D01*
X011760Y027021D01*
X011768Y027011D01*
X011782Y027004D01*
X011802Y027002D01*
X011828Y027003D01*
X011845Y027009D01*
X011850Y027014D01*
X011853Y027022D01*
X011856Y027044D01*
X011856Y027062D01*
X011703Y027204D02*
X011625Y026959D01*
X011582Y026959D01*
X011531Y027130D01*
X011530Y027130D01*
X011479Y026959D01*
X011435Y026959D01*
X011357Y027204D01*
X011409Y027204D01*
X011456Y027033D01*
X011457Y027033D01*
X011512Y027204D01*
X011548Y027204D01*
X011603Y027033D01*
X011604Y027033D01*
X011651Y027204D01*
X011703Y027204D01*
X011653Y027348D02*
X011627Y027345D01*
X011601Y027348D01*
X011581Y027355D01*
X011565Y027366D01*
X011553Y027376D01*
X011533Y027411D01*
X011528Y027436D01*
X011527Y027471D01*
X011528Y027505D01*
X011533Y027529D01*
X011553Y027564D01*
X011565Y027575D01*
X011581Y027585D01*
X011601Y027593D01*
X011627Y027595D01*
X011653Y027593D01*
X011674Y027585D01*
X011690Y027575D01*
X011702Y027564D01*
X011722Y027529D01*
X011726Y027505D01*
X011728Y027471D01*
X011726Y027436D01*
X011722Y027411D01*
X011702Y027376D01*
X011690Y027366D01*
X011674Y027355D01*
X011653Y027348D01*
X011651Y027399D02*
X011667Y027412D01*
X011676Y027433D01*
X011678Y027447D01*
X011679Y027470D01*
X011678Y027493D01*
X011676Y027508D01*
X011667Y027528D01*
X011651Y027542D01*
X011627Y027546D01*
X011604Y027542D01*
X011588Y027528D01*
X011578Y027508D01*
X011577Y027493D01*
X011576Y027471D01*
X011577Y027448D01*
X011578Y027433D01*
X011588Y027412D01*
X011604Y027399D01*
X011627Y027394D01*
X011651Y027399D01*
X011496Y027421D02*
X011492Y027447D01*
X011480Y027470D01*
X011458Y027487D01*
X011443Y027491D01*
X011425Y027494D01*
X011385Y027497D01*
X011369Y027499D01*
X011359Y027505D01*
X011354Y027512D01*
X011353Y027520D01*
X011362Y027541D01*
X011375Y027547D01*
X011395Y027549D01*
X011430Y027543D01*
X011460Y027526D01*
X011490Y027562D01*
X011449Y027586D01*
X011424Y027593D01*
X011395Y027595D01*
X011359Y027591D01*
X011330Y027576D01*
X011310Y027553D01*
X011304Y027520D01*
X011309Y027492D01*
X011324Y027471D01*
X011346Y027457D01*
X011374Y027451D01*
X011417Y027447D01*
X011430Y027444D01*
X011440Y027440D01*
X011445Y027432D01*
X011447Y027423D01*
X011444Y027409D01*
X011433Y027399D01*
X011418Y027393D01*
X011399Y027391D01*
X011357Y027399D01*
X011322Y027423D01*
X011287Y027389D01*
X011338Y027356D01*
X011395Y027345D01*
X011434Y027350D01*
X011467Y027365D01*
X011489Y027389D01*
X011496Y027421D01*
X011328Y027302D02*
X011328Y026959D01*
X011279Y026959D01*
X011279Y026985D01*
X011250Y026964D01*
X011215Y026957D01*
X011194Y026959D01*
X011177Y026965D01*
X011150Y026988D01*
X011136Y027019D01*
X011134Y027043D01*
X011133Y027082D01*
X011134Y027120D01*
X011136Y027144D01*
X011150Y027175D01*
X011177Y027198D01*
X011194Y027204D01*
X011215Y027207D01*
X011250Y027199D01*
X011279Y027178D01*
X011279Y027302D01*
X011328Y027302D01*
X011258Y027151D02*
X011246Y027156D01*
X011230Y027157D01*
X011215Y027156D01*
X011203Y027151D01*
X011189Y027134D01*
X011182Y027082D01*
X011189Y027029D01*
X011203Y027011D01*
X011215Y027007D01*
X011230Y027005D01*
X011246Y027007D01*
X011258Y027012D01*
X011272Y027030D01*
X011279Y027082D01*
X011272Y027133D01*
X011258Y027151D01*
X011129Y027188D02*
X011094Y027145D01*
X011078Y027154D01*
X011061Y027157D01*
X011029Y027145D01*
X011018Y027129D01*
X011014Y027106D01*
X011014Y026959D01*
X010965Y026959D01*
X010965Y027204D01*
X011014Y027204D01*
X011014Y027178D01*
X011015Y027178D01*
X011042Y027199D01*
X011078Y027207D01*
X011105Y027202D01*
X011129Y027188D01*
X011151Y027348D02*
X011102Y027348D01*
X011102Y027494D01*
X011099Y027516D01*
X011089Y027532D01*
X011073Y027543D01*
X011054Y027546D01*
X011035Y027543D01*
X011019Y027532D01*
X011009Y027516D01*
X011005Y027494D01*
X011005Y027348D01*
X010956Y027348D01*
X010956Y027593D01*
X011005Y027593D01*
X011005Y027566D01*
X011006Y027566D01*
X011034Y027588D01*
X011070Y027595D01*
X011098Y027590D01*
X011125Y027574D01*
X011145Y027547D01*
X011150Y027530D01*
X011151Y027511D01*
X011151Y027348D01*
X010909Y027385D02*
X010889Y027367D01*
X010868Y027354D01*
X010820Y027345D01*
X010783Y027351D01*
X010747Y027370D01*
X010732Y027385D01*
X010721Y027407D01*
X010714Y027435D01*
X010712Y027469D01*
X010714Y027502D01*
X010720Y027530D01*
X010730Y027552D01*
X010745Y027568D01*
X010778Y027589D01*
X010813Y027595D01*
X010851Y027588D01*
X010883Y027567D01*
X010906Y027535D01*
X010913Y027492D01*
X010913Y027452D01*
X010761Y027452D01*
X010765Y027425D01*
X010778Y027407D01*
X010796Y027395D01*
X010819Y027391D01*
X010848Y027397D01*
X010873Y027415D01*
X010909Y027385D01*
X010864Y027492D02*
X010761Y027492D01*
X010765Y027517D01*
X010776Y027534D01*
X010793Y027545D01*
X010813Y027549D01*
X010833Y027545D01*
X010849Y027534D01*
X010860Y027517D01*
X010864Y027492D01*
X010675Y027470D02*
X010674Y027432D01*
X010672Y027408D01*
X010658Y027377D01*
X010631Y027354D01*
X010613Y027348D01*
X010592Y027345D01*
X010558Y027353D01*
X010529Y027374D01*
X010529Y027178D01*
X010530Y027178D01*
X010558Y027199D01*
X010594Y027207D01*
X010622Y027201D01*
X010649Y027185D01*
X010669Y027158D01*
X010674Y027141D01*
X010675Y027122D01*
X010675Y026959D01*
X010626Y026959D01*
X010626Y027105D01*
X010623Y027127D01*
X010612Y027144D01*
X010597Y027154D01*
X010578Y027157D01*
X010559Y027154D01*
X010543Y027144D01*
X010533Y027127D01*
X010529Y027105D01*
X010529Y026959D01*
X010480Y026959D01*
X010480Y027593D01*
X010529Y027593D01*
X010529Y027567D01*
X010558Y027588D01*
X010592Y027595D01*
X010613Y027593D01*
X010631Y027586D01*
X010658Y027564D01*
X010672Y027533D01*
X010674Y027508D01*
X010675Y027470D01*
X010626Y027470D02*
X010619Y027522D01*
X010605Y027540D01*
X010593Y027545D01*
X010578Y027546D01*
X010562Y027545D01*
X010550Y027540D01*
X010536Y027522D01*
X010529Y027470D01*
X010536Y027419D01*
X010550Y027400D01*
X010562Y027396D01*
X010578Y027394D01*
X010593Y027396D01*
X010605Y027400D01*
X010619Y027418D01*
X010626Y027470D01*
X010435Y027471D02*
X010434Y027436D01*
X010429Y027411D01*
X010409Y027376D01*
X010397Y027366D01*
X010381Y027355D01*
X010360Y027348D01*
X010335Y027345D01*
X010309Y027348D01*
X010288Y027355D01*
X010272Y027366D01*
X010260Y027376D01*
X010240Y027411D01*
X010235Y027436D01*
X010234Y027471D01*
X010235Y027505D01*
X010240Y027529D01*
X010260Y027564D01*
X010272Y027575D01*
X010288Y027585D01*
X010309Y027593D01*
X010335Y027595D01*
X010360Y027593D01*
X010381Y027585D01*
X010397Y027575D01*
X010409Y027564D01*
X010429Y027529D01*
X010434Y027505D01*
X010435Y027471D01*
X010386Y027470D02*
X010385Y027447D01*
X010383Y027433D01*
X010374Y027412D01*
X010358Y027399D01*
X010335Y027394D01*
X010311Y027399D01*
X010295Y027412D01*
X010285Y027433D01*
X010284Y027448D01*
X010283Y027471D01*
X010284Y027493D01*
X010285Y027508D01*
X010295Y027528D01*
X010311Y027542D01*
X010335Y027546D01*
X010358Y027542D01*
X010374Y027528D01*
X010383Y027508D01*
X010385Y027493D01*
X010386Y027470D01*
X010729Y027171D02*
X010763Y027198D01*
X010784Y027204D01*
X010809Y027206D01*
X010849Y027202D01*
X010881Y027189D01*
X010901Y027164D01*
X010906Y027146D01*
X010908Y027126D01*
X010908Y026958D01*
X010860Y026958D01*
X010860Y026980D01*
X010859Y026980D01*
X010839Y026962D01*
X010822Y026957D01*
X010801Y026956D01*
X010765Y026962D01*
X010739Y026977D01*
X010723Y027001D01*
X010717Y027030D01*
X010722Y027058D01*
X010736Y027082D01*
X010761Y027097D01*
X010794Y027103D01*
X010860Y027103D01*
X010860Y027129D01*
X010857Y027143D01*
X010848Y027153D01*
X010833Y027159D01*
X010811Y027160D01*
X010796Y027159D01*
X010783Y027156D01*
X010766Y027141D01*
X010729Y027171D01*
X010785Y027060D02*
X010772Y027054D01*
X010764Y027045D01*
X010762Y027033D01*
X010764Y027021D01*
X010772Y027011D01*
X010786Y027004D01*
X010807Y027002D01*
X010832Y027003D01*
X010849Y027009D01*
X010854Y027014D01*
X010857Y027022D01*
X010860Y027044D01*
X010860Y027062D01*
X010803Y027062D01*
X010785Y027060D01*
X012192Y027413D02*
X012186Y027439D01*
X012183Y027470D01*
X012186Y027501D01*
X012192Y027528D01*
X012203Y027549D01*
X012218Y027566D01*
X012254Y027588D01*
X012294Y027595D01*
X012321Y027592D01*
X012344Y027583D01*
X012382Y027553D01*
X012346Y027521D01*
X012323Y027540D01*
X012296Y027546D01*
X012268Y027541D01*
X012248Y027527D01*
X012237Y027503D01*
X012233Y027470D01*
X012237Y027437D01*
X012248Y027413D01*
X012268Y027399D01*
X012296Y027394D01*
X012323Y027401D01*
X012346Y027420D01*
X012382Y027388D01*
X012344Y027357D01*
X012321Y027348D01*
X012294Y027345D01*
X012254Y027353D01*
X012218Y027374D01*
X012203Y027391D01*
X012192Y027413D01*
X012399Y027435D02*
X012397Y027469D01*
X012399Y027502D01*
X012405Y027530D01*
X012415Y027552D01*
X012429Y027568D01*
X012462Y027589D01*
X012497Y027595D01*
X012535Y027588D01*
X012568Y027567D01*
X012590Y027535D01*
X012598Y027492D01*
X012598Y027452D01*
X012446Y027452D01*
X012450Y027425D01*
X012462Y027407D01*
X012481Y027395D01*
X012504Y027391D01*
X012532Y027397D01*
X012558Y027415D01*
X012593Y027385D01*
X012574Y027367D01*
X012552Y027354D01*
X012505Y027345D01*
X012468Y027351D01*
X012432Y027370D01*
X012416Y027385D01*
X012405Y027407D01*
X012399Y027435D01*
X012446Y027492D02*
X012450Y027517D01*
X012461Y027534D01*
X012477Y027545D01*
X012497Y027549D01*
X012517Y027545D01*
X012533Y027534D01*
X012544Y027517D01*
X012549Y027492D01*
X012446Y027492D01*
X022832Y027471D02*
X022834Y027436D01*
X022838Y027411D01*
X022859Y027376D01*
X022871Y027366D01*
X022886Y027355D01*
X022907Y027348D01*
X022933Y027345D01*
X022959Y027348D01*
X022979Y027355D01*
X022995Y027366D01*
X023007Y027376D01*
X023027Y027411D01*
X023032Y027436D01*
X023033Y027471D01*
X023032Y027505D01*
X023027Y027529D01*
X023007Y027564D01*
X022995Y027575D01*
X022979Y027585D01*
X022959Y027593D01*
X022933Y027595D01*
X022907Y027593D01*
X022886Y027585D01*
X022871Y027575D01*
X022859Y027564D01*
X022838Y027529D01*
X022834Y027505D01*
X022832Y027471D01*
X022881Y027471D02*
X022882Y027448D01*
X022884Y027433D01*
X022893Y027412D01*
X022910Y027399D01*
X022933Y027394D01*
X022956Y027399D01*
X022972Y027412D01*
X022982Y027433D01*
X022984Y027447D01*
X022985Y027470D01*
X022984Y027493D01*
X022982Y027508D01*
X022972Y027528D01*
X022956Y027542D01*
X022933Y027546D01*
X022910Y027542D01*
X022893Y027528D01*
X022884Y027508D01*
X022882Y027493D01*
X022881Y027471D01*
X023079Y027593D02*
X023128Y027593D01*
X023128Y027567D01*
X023156Y027588D01*
X023191Y027595D01*
X023212Y027593D01*
X023229Y027586D01*
X023256Y027564D01*
X023270Y027533D01*
X023273Y027508D01*
X023274Y027470D01*
X023273Y027432D01*
X023270Y027408D01*
X023256Y027377D01*
X023229Y027354D01*
X023212Y027348D01*
X023191Y027345D01*
X023157Y027353D01*
X023128Y027374D01*
X023128Y027178D01*
X023129Y027178D01*
X023156Y027199D01*
X023192Y027207D01*
X023220Y027201D01*
X023247Y027185D01*
X023267Y027158D01*
X023272Y027141D01*
X023274Y027122D01*
X023274Y026959D01*
X023225Y026959D01*
X023225Y027105D01*
X023221Y027127D01*
X023211Y027144D01*
X023195Y027154D01*
X023176Y027157D01*
X023157Y027154D01*
X023142Y027144D01*
X023131Y027127D01*
X023128Y027105D01*
X023128Y026959D01*
X023079Y026959D01*
X023079Y027593D01*
X023148Y027540D02*
X023135Y027522D01*
X023128Y027470D01*
X023135Y027419D01*
X023148Y027400D01*
X023160Y027396D01*
X023176Y027394D01*
X023192Y027396D01*
X023204Y027400D01*
X023218Y027418D01*
X023225Y027470D01*
X023218Y027522D01*
X023204Y027540D01*
X023192Y027545D01*
X023176Y027546D01*
X023160Y027545D01*
X023148Y027540D01*
X023313Y027502D02*
X023319Y027530D01*
X023329Y027552D01*
X023343Y027568D01*
X023376Y027589D01*
X023411Y027595D01*
X023449Y027588D01*
X023482Y027567D01*
X023504Y027535D01*
X023512Y027492D01*
X023512Y027452D01*
X023360Y027452D01*
X023364Y027425D01*
X023376Y027407D01*
X023395Y027395D01*
X023418Y027391D01*
X023446Y027397D01*
X023471Y027415D01*
X023507Y027385D01*
X023488Y027367D01*
X023466Y027354D01*
X023419Y027345D01*
X023382Y027351D01*
X023346Y027370D01*
X023330Y027385D01*
X023319Y027407D01*
X023313Y027435D01*
X023311Y027469D01*
X023313Y027502D01*
X023360Y027492D02*
X023364Y027517D01*
X023375Y027534D01*
X023391Y027545D01*
X023411Y027549D01*
X023431Y027545D01*
X023447Y027534D01*
X023458Y027517D01*
X023463Y027492D01*
X023360Y027492D01*
X023555Y027593D02*
X023555Y027348D01*
X023604Y027348D01*
X023604Y027494D01*
X023607Y027516D01*
X023618Y027532D01*
X023633Y027543D01*
X023653Y027546D01*
X023671Y027543D01*
X023687Y027532D01*
X023697Y027516D01*
X023701Y027494D01*
X023701Y027348D01*
X023750Y027348D01*
X023750Y027511D01*
X023748Y027530D01*
X023743Y027547D01*
X023723Y027574D01*
X023696Y027590D01*
X023668Y027595D01*
X023632Y027588D01*
X023605Y027566D01*
X023604Y027566D01*
X023604Y027593D01*
X023555Y027593D01*
X023902Y027520D02*
X023908Y027553D01*
X023928Y027576D01*
X023957Y027591D01*
X023993Y027595D01*
X024023Y027593D01*
X024048Y027586D01*
X024089Y027562D01*
X024058Y027526D01*
X024028Y027543D01*
X023993Y027549D01*
X023973Y027547D01*
X023960Y027541D01*
X023951Y027520D01*
X023953Y027512D01*
X023958Y027505D01*
X023968Y027499D01*
X023983Y027497D01*
X024024Y027494D01*
X024041Y027491D01*
X024056Y027487D01*
X024078Y027470D01*
X024091Y027447D01*
X024095Y027421D01*
X024087Y027389D01*
X024065Y027365D01*
X024033Y027350D01*
X023993Y027345D01*
X023936Y027356D01*
X023886Y027389D01*
X023920Y027423D01*
X023956Y027399D01*
X023997Y027391D01*
X024016Y027393D01*
X024032Y027399D01*
X024042Y027409D01*
X024046Y027423D01*
X024044Y027432D01*
X024038Y027440D01*
X024029Y027444D01*
X024016Y027447D01*
X023972Y027451D01*
X023945Y027457D01*
X023922Y027471D01*
X023907Y027492D01*
X023902Y027520D01*
X023926Y027302D02*
X023926Y026959D01*
X023877Y026959D01*
X023877Y026985D01*
X023848Y026964D01*
X023814Y026957D01*
X023793Y026959D01*
X023775Y026965D01*
X023748Y026988D01*
X023735Y027019D01*
X023732Y027043D01*
X023731Y027082D01*
X023732Y027120D01*
X023735Y027144D01*
X023748Y027175D01*
X023775Y027198D01*
X023793Y027204D01*
X023814Y027207D01*
X023848Y027199D01*
X023877Y027178D01*
X023877Y027302D01*
X023926Y027302D01*
X023956Y027204D02*
X024008Y027204D01*
X024055Y027033D01*
X024055Y027033D01*
X024111Y027204D01*
X024147Y027204D01*
X024202Y027033D01*
X024203Y027033D01*
X024250Y027204D01*
X024302Y027204D01*
X024224Y026959D01*
X024180Y026959D01*
X024129Y027130D01*
X024128Y027130D01*
X024077Y026959D01*
X024034Y026959D01*
X023956Y027204D01*
X023870Y027133D02*
X023856Y027151D01*
X023844Y027156D01*
X023829Y027157D01*
X023813Y027156D01*
X023801Y027151D01*
X023787Y027134D01*
X023780Y027082D01*
X023787Y027029D01*
X023801Y027011D01*
X023813Y027007D01*
X023829Y027005D01*
X023844Y027007D01*
X023856Y027012D01*
X023870Y027030D01*
X023877Y027082D01*
X023870Y027133D01*
X023728Y027188D02*
X023692Y027145D01*
X023676Y027154D01*
X023660Y027157D01*
X023627Y027145D01*
X023616Y027129D01*
X023612Y027106D01*
X023612Y026959D01*
X023563Y026959D01*
X023563Y027204D01*
X023612Y027204D01*
X023612Y027178D01*
X023613Y027178D01*
X023641Y027199D01*
X023677Y027207D01*
X023703Y027202D01*
X023728Y027188D01*
X023504Y027146D02*
X023506Y027126D01*
X023506Y026958D01*
X023459Y026958D01*
X023459Y026980D01*
X023458Y026980D01*
X023437Y026962D01*
X023420Y026957D01*
X023399Y026956D01*
X023364Y026962D01*
X023338Y026977D01*
X023321Y027001D01*
X023315Y027030D01*
X023320Y027058D01*
X023335Y027082D01*
X023359Y027097D01*
X023392Y027103D01*
X023459Y027103D01*
X023459Y027129D01*
X023456Y027143D01*
X023447Y027153D01*
X023431Y027159D01*
X023410Y027160D01*
X023394Y027159D01*
X023382Y027156D01*
X023365Y027141D01*
X023327Y027171D01*
X023361Y027198D01*
X023383Y027204D01*
X023407Y027206D01*
X023448Y027202D01*
X023479Y027189D01*
X023499Y027164D01*
X023504Y027146D01*
X023459Y027062D02*
X023401Y027062D01*
X023383Y027060D01*
X023370Y027054D01*
X023362Y027045D01*
X023360Y027033D01*
X023363Y027021D01*
X023371Y027011D01*
X023385Y027004D01*
X023405Y027002D01*
X023431Y027003D01*
X023447Y027009D01*
X023452Y027014D01*
X023456Y027022D01*
X023459Y027044D01*
X023459Y027062D01*
X024131Y027411D02*
X024127Y027436D01*
X024125Y027471D01*
X024127Y027505D01*
X024131Y027529D01*
X024152Y027564D01*
X024163Y027575D01*
X024179Y027585D01*
X024200Y027593D01*
X024226Y027595D01*
X024251Y027593D01*
X024272Y027585D01*
X024288Y027575D01*
X024300Y027564D01*
X024320Y027529D01*
X024325Y027505D01*
X024326Y027471D01*
X024325Y027436D01*
X024320Y027411D01*
X024300Y027376D01*
X024288Y027366D01*
X024272Y027355D01*
X024251Y027348D01*
X024226Y027345D01*
X024200Y027348D01*
X024179Y027355D01*
X024163Y027366D01*
X024152Y027376D01*
X024131Y027411D01*
X024177Y027433D02*
X024186Y027412D01*
X024202Y027399D01*
X024226Y027394D01*
X024249Y027399D01*
X024265Y027412D01*
X024275Y027433D01*
X024277Y027447D01*
X024277Y027470D01*
X024277Y027493D01*
X024275Y027508D01*
X024265Y027528D01*
X024249Y027542D01*
X024226Y027546D01*
X024202Y027542D01*
X024186Y027528D01*
X024177Y027508D01*
X024175Y027493D01*
X024174Y027471D01*
X024175Y027448D01*
X024177Y027433D01*
X024371Y027430D02*
X024373Y027411D01*
X024378Y027393D01*
X024398Y027367D01*
X024425Y027351D01*
X024453Y027345D01*
X024489Y027353D01*
X024516Y027374D01*
X024517Y027374D01*
X024517Y027348D01*
X024566Y027348D01*
X024566Y027593D01*
X024517Y027593D01*
X024517Y027447D01*
X024514Y027425D01*
X024503Y027408D01*
X024488Y027398D01*
X024469Y027394D01*
X024450Y027398D01*
X024434Y027408D01*
X024424Y027425D01*
X024420Y027447D01*
X024420Y027593D01*
X024371Y027593D01*
X024371Y027430D01*
X024378Y027204D02*
X024403Y027206D01*
X024443Y027202D01*
X024475Y027189D01*
X024495Y027164D01*
X024500Y027146D01*
X024502Y027126D01*
X024502Y026958D01*
X024454Y026958D01*
X024454Y026980D01*
X024453Y026980D01*
X024433Y026962D01*
X024416Y026957D01*
X024395Y026956D01*
X024359Y026962D01*
X024334Y026977D01*
X024317Y027001D01*
X024311Y027030D01*
X024316Y027058D01*
X024331Y027082D01*
X024355Y027097D01*
X024388Y027103D01*
X024454Y027103D01*
X024454Y027129D01*
X024451Y027143D01*
X024442Y027153D01*
X024427Y027159D01*
X024406Y027160D01*
X024390Y027159D01*
X024377Y027156D01*
X024361Y027141D01*
X024323Y027171D01*
X024357Y027198D01*
X024378Y027204D01*
X024397Y027062D02*
X024379Y027060D01*
X024366Y027054D01*
X024358Y027045D01*
X024356Y027033D01*
X024358Y027021D01*
X024366Y027011D01*
X024380Y027004D01*
X024401Y027002D01*
X024426Y027003D01*
X024443Y027009D01*
X024448Y027014D01*
X024452Y027022D01*
X024454Y027044D01*
X024454Y027062D01*
X024397Y027062D01*
X024560Y026959D02*
X024560Y027204D01*
X024609Y027204D01*
X024609Y027178D01*
X024610Y027178D01*
X024637Y027199D01*
X024673Y027207D01*
X024700Y027202D01*
X024724Y027188D01*
X024689Y027145D01*
X024673Y027154D01*
X024656Y027157D01*
X024624Y027145D01*
X024613Y027129D01*
X024609Y027106D01*
X024609Y026959D01*
X024560Y026959D01*
X024736Y027018D02*
X024730Y027046D01*
X024728Y027081D01*
X024730Y027114D01*
X024736Y027141D01*
X024746Y027163D01*
X024760Y027179D01*
X024793Y027200D01*
X024828Y027207D01*
X024866Y027200D01*
X024899Y027179D01*
X024921Y027146D01*
X024929Y027103D01*
X024929Y027063D01*
X024777Y027063D01*
X024781Y027037D01*
X024793Y027018D01*
X024812Y027006D01*
X024835Y027003D01*
X024863Y027009D01*
X024888Y027026D01*
X024924Y026996D01*
X024905Y026978D01*
X024883Y026966D01*
X024836Y026957D01*
X024799Y026963D01*
X024763Y026981D01*
X024747Y026996D01*
X024736Y027018D01*
X024777Y027103D02*
X024781Y027128D01*
X024792Y027146D01*
X024808Y027157D01*
X024828Y027160D01*
X024848Y027157D01*
X024864Y027146D01*
X024875Y027128D01*
X024880Y027103D01*
X024777Y027103D01*
X024852Y027353D02*
X024816Y027374D01*
X024801Y027391D01*
X024790Y027413D01*
X024784Y027439D01*
X024782Y027470D01*
X024784Y027501D01*
X024790Y027528D01*
X024801Y027549D01*
X024816Y027566D01*
X024852Y027588D01*
X024893Y027595D01*
X024919Y027592D01*
X024942Y027583D01*
X024981Y027553D01*
X024944Y027521D01*
X024921Y027540D01*
X024895Y027546D01*
X024867Y027541D01*
X024847Y027527D01*
X024835Y027503D01*
X024831Y027470D01*
X024835Y027437D01*
X024847Y027413D01*
X024867Y027399D01*
X024895Y027394D01*
X024922Y027401D01*
X024944Y027420D01*
X024981Y027388D01*
X024942Y027357D01*
X024919Y027348D01*
X024893Y027345D01*
X024852Y027353D01*
X025004Y027407D02*
X024997Y027435D01*
X024995Y027469D01*
X024997Y027502D01*
X025003Y027530D01*
X025013Y027552D01*
X025028Y027568D01*
X025061Y027589D01*
X025096Y027595D01*
X025133Y027588D01*
X025166Y027567D01*
X025189Y027535D01*
X025196Y027492D01*
X025196Y027452D01*
X025044Y027452D01*
X025048Y027425D01*
X025060Y027407D01*
X025079Y027395D01*
X025102Y027391D01*
X025131Y027397D01*
X025156Y027415D01*
X025192Y027385D01*
X025172Y027367D01*
X025151Y027354D01*
X025103Y027345D01*
X025066Y027351D01*
X025030Y027370D01*
X025015Y027385D01*
X025004Y027407D01*
X025044Y027492D02*
X025048Y027517D01*
X025059Y027534D01*
X025076Y027545D01*
X025096Y027549D01*
X025116Y027545D01*
X025132Y027534D01*
X025143Y027517D01*
X025147Y027492D01*
X025044Y027492D01*
X024787Y027577D02*
X024751Y027534D01*
X024735Y027543D01*
X024719Y027546D01*
X024686Y027534D01*
X024675Y027518D01*
X024671Y027495D01*
X024671Y027348D01*
X024622Y027348D01*
X024622Y027593D01*
X024671Y027593D01*
X024671Y027566D01*
X024672Y027566D01*
X024699Y027588D01*
X024736Y027595D01*
X024762Y027591D01*
X024787Y027577D01*
X024736Y021690D02*
X024762Y021685D01*
X024787Y021671D01*
X024751Y021629D01*
X024735Y021638D01*
X024719Y021641D01*
X024686Y021629D01*
X024675Y021613D01*
X024671Y021590D01*
X024671Y021443D01*
X024622Y021443D01*
X024622Y021687D01*
X024671Y021687D01*
X024671Y021661D01*
X024672Y021661D01*
X024699Y021683D01*
X024736Y021690D01*
X024801Y021644D02*
X024816Y021661D01*
X024852Y021683D01*
X024893Y021690D01*
X024919Y021687D01*
X024942Y021678D01*
X024981Y021648D01*
X024944Y021615D01*
X024921Y021634D01*
X024895Y021641D01*
X024867Y021636D01*
X024847Y021622D01*
X024835Y021598D01*
X024831Y021565D01*
X024835Y021531D01*
X024847Y021508D01*
X024867Y021494D01*
X024895Y021489D01*
X024922Y021495D01*
X024944Y021515D01*
X024981Y021482D01*
X024942Y021452D01*
X024919Y021443D01*
X024893Y021440D01*
X024852Y021447D01*
X024816Y021469D01*
X024801Y021485D01*
X024790Y021507D01*
X024784Y021533D01*
X024782Y021565D01*
X024784Y021596D01*
X024790Y021622D01*
X024801Y021644D01*
X024997Y021597D02*
X025003Y021624D01*
X025013Y021646D01*
X025028Y021663D01*
X025061Y021683D01*
X025096Y021690D01*
X025133Y021683D01*
X025166Y021662D01*
X025189Y021629D01*
X025196Y021587D01*
X025196Y021546D01*
X025044Y021546D01*
X025048Y021520D01*
X025060Y021501D01*
X025079Y021490D01*
X025102Y021486D01*
X025131Y021492D01*
X025156Y021510D01*
X025192Y021479D01*
X025172Y021461D01*
X025151Y021449D01*
X025103Y021440D01*
X025066Y021446D01*
X025030Y021464D01*
X025015Y021480D01*
X025004Y021501D01*
X024997Y021529D01*
X024995Y021564D01*
X024997Y021597D01*
X025044Y021587D02*
X025048Y021611D01*
X025059Y021629D01*
X025076Y021640D01*
X025096Y021644D01*
X025116Y021640D01*
X025132Y021629D01*
X025143Y021611D01*
X025147Y021587D01*
X025044Y021587D01*
X024866Y021294D02*
X024899Y021273D01*
X024921Y021240D01*
X024929Y021198D01*
X024929Y021157D01*
X024777Y021157D01*
X024781Y021131D01*
X024793Y021112D01*
X024812Y021101D01*
X024835Y021097D01*
X024863Y021103D01*
X024888Y021121D01*
X024924Y021090D01*
X024905Y021072D01*
X024883Y021060D01*
X024836Y021051D01*
X024799Y021057D01*
X024763Y021075D01*
X024747Y021091D01*
X024736Y021112D01*
X024730Y021141D01*
X024728Y021175D01*
X024730Y021208D01*
X024736Y021235D01*
X024746Y021257D01*
X024760Y021274D01*
X024793Y021294D01*
X024828Y021301D01*
X024866Y021294D01*
X024848Y021251D02*
X024828Y021255D01*
X024808Y021251D01*
X024792Y021240D01*
X024781Y021222D01*
X024777Y021198D01*
X024880Y021198D01*
X024875Y021222D01*
X024864Y021240D01*
X024848Y021251D01*
X024724Y021282D02*
X024689Y021240D01*
X024673Y021249D01*
X024656Y021252D01*
X024624Y021240D01*
X024613Y021224D01*
X024609Y021201D01*
X024609Y021054D01*
X024560Y021054D01*
X024560Y021298D01*
X024609Y021298D01*
X024609Y021272D01*
X024610Y021272D01*
X024637Y021294D01*
X024673Y021301D01*
X024700Y021296D01*
X024724Y021282D01*
X024566Y021443D02*
X024517Y021443D01*
X024517Y021469D01*
X024516Y021469D01*
X024489Y021447D01*
X024453Y021440D01*
X024425Y021445D01*
X024398Y021461D01*
X024378Y021488D01*
X024373Y021505D01*
X024371Y021525D01*
X024371Y021687D01*
X024420Y021687D01*
X024420Y021541D01*
X024424Y021519D01*
X024434Y021503D01*
X024450Y021492D01*
X024469Y021489D01*
X024488Y021492D01*
X024503Y021503D01*
X024514Y021519D01*
X024517Y021541D01*
X024517Y021687D01*
X024566Y021687D01*
X024566Y021443D01*
X024475Y021283D02*
X024495Y021258D01*
X024500Y021241D01*
X024502Y021220D01*
X024502Y021053D01*
X024454Y021053D01*
X024454Y021075D01*
X024453Y021075D01*
X024433Y021056D01*
X024416Y021052D01*
X024395Y021050D01*
X024359Y021056D01*
X024334Y021072D01*
X024317Y021095D01*
X024311Y021125D01*
X024316Y021153D01*
X024331Y021176D01*
X024355Y021192D01*
X024388Y021197D01*
X024454Y021197D01*
X024454Y021223D01*
X024451Y021237D01*
X024442Y021247D01*
X024427Y021253D01*
X024406Y021255D01*
X024390Y021254D01*
X024377Y021251D01*
X024361Y021236D01*
X024323Y021265D01*
X024357Y021292D01*
X024378Y021299D01*
X024403Y021301D01*
X024443Y021297D01*
X024475Y021283D01*
X024454Y021157D02*
X024397Y021157D01*
X024379Y021154D01*
X024366Y021149D01*
X024358Y021140D01*
X024356Y021127D01*
X024358Y021116D01*
X024366Y021106D01*
X024380Y021099D01*
X024401Y021096D01*
X024426Y021098D01*
X024443Y021104D01*
X024448Y021109D01*
X024452Y021116D01*
X024454Y021139D01*
X024454Y021157D01*
X024302Y021298D02*
X024224Y021054D01*
X024180Y021054D01*
X024129Y021225D01*
X024128Y021225D01*
X024077Y021054D01*
X024034Y021054D01*
X023956Y021298D01*
X024008Y021298D01*
X024055Y021127D01*
X024055Y021127D01*
X024111Y021298D01*
X024147Y021298D01*
X024202Y021127D01*
X024203Y021127D01*
X024250Y021298D01*
X024302Y021298D01*
X024251Y021442D02*
X024226Y021440D01*
X024200Y021442D01*
X024179Y021450D01*
X024163Y021460D01*
X024152Y021471D01*
X024131Y021506D01*
X024127Y021530D01*
X024125Y021565D01*
X024127Y021599D01*
X024131Y021624D01*
X024152Y021659D01*
X024163Y021669D01*
X024179Y021680D01*
X024200Y021687D01*
X024226Y021690D01*
X024251Y021687D01*
X024272Y021680D01*
X024288Y021669D01*
X024300Y021659D01*
X024320Y021624D01*
X024325Y021599D01*
X024326Y021565D01*
X024325Y021530D01*
X024320Y021506D01*
X024300Y021471D01*
X024288Y021460D01*
X024272Y021450D01*
X024251Y021442D01*
X024249Y021493D02*
X024265Y021507D01*
X024275Y021527D01*
X024277Y021542D01*
X024277Y021565D01*
X024277Y021587D01*
X024275Y021602D01*
X024265Y021623D01*
X024249Y021636D01*
X024226Y021641D01*
X024202Y021636D01*
X024186Y021623D01*
X024177Y021602D01*
X024175Y021587D01*
X024174Y021565D01*
X024175Y021542D01*
X024177Y021527D01*
X024186Y021507D01*
X024202Y021493D01*
X024226Y021489D01*
X024249Y021493D01*
X024095Y021515D02*
X024087Y021483D01*
X024065Y021459D01*
X024033Y021445D01*
X023993Y021440D01*
X023936Y021451D01*
X023886Y021483D01*
X023920Y021517D01*
X023956Y021494D01*
X023997Y021486D01*
X024016Y021488D01*
X024032Y021494D01*
X024042Y021504D01*
X024046Y021517D01*
X024044Y021527D01*
X024038Y021534D01*
X024029Y021539D01*
X024016Y021541D01*
X023972Y021545D01*
X023945Y021552D01*
X023922Y021565D01*
X023907Y021586D01*
X023902Y021615D01*
X023908Y021647D01*
X023928Y021671D01*
X023957Y021685D01*
X023993Y021690D01*
X024023Y021688D01*
X024048Y021681D01*
X024089Y021657D01*
X024058Y021621D01*
X024028Y021637D01*
X023993Y021644D01*
X023973Y021641D01*
X023960Y021635D01*
X023951Y021614D01*
X023953Y021606D01*
X023958Y021599D01*
X023968Y021594D01*
X023983Y021591D01*
X024024Y021588D01*
X024041Y021586D01*
X024056Y021581D01*
X024078Y021565D01*
X024091Y021542D01*
X024095Y021515D01*
X023926Y021397D02*
X023926Y021054D01*
X023877Y021054D01*
X023877Y021079D01*
X023848Y021058D01*
X023814Y021051D01*
X023793Y021053D01*
X023775Y021060D01*
X023748Y021083D01*
X023735Y021113D01*
X023732Y021138D01*
X023731Y021176D01*
X023732Y021214D01*
X023735Y021239D01*
X023748Y021269D01*
X023775Y021292D01*
X023793Y021299D01*
X023814Y021301D01*
X023848Y021293D01*
X023877Y021272D01*
X023877Y021397D01*
X023926Y021397D01*
X023856Y021246D02*
X023844Y021250D01*
X023829Y021252D01*
X023813Y021250D01*
X023801Y021246D01*
X023787Y021228D01*
X023780Y021176D01*
X023787Y021124D01*
X023801Y021106D01*
X023813Y021101D01*
X023829Y021100D01*
X023844Y021102D01*
X023856Y021106D01*
X023870Y021125D01*
X023877Y021176D01*
X023870Y021227D01*
X023856Y021246D01*
X023728Y021282D02*
X023692Y021240D01*
X023676Y021249D01*
X023660Y021252D01*
X023627Y021240D01*
X023616Y021224D01*
X023612Y021201D01*
X023612Y021054D01*
X023563Y021054D01*
X023563Y021298D01*
X023612Y021298D01*
X023612Y021272D01*
X023613Y021272D01*
X023641Y021294D01*
X023677Y021301D01*
X023703Y021296D01*
X023728Y021282D01*
X023750Y021443D02*
X023701Y021443D01*
X023701Y021588D01*
X023697Y021610D01*
X023687Y021627D01*
X023671Y021637D01*
X023653Y021641D01*
X023633Y021637D01*
X023618Y021627D01*
X023607Y021610D01*
X023604Y021588D01*
X023604Y021443D01*
X023555Y021443D01*
X023555Y021687D01*
X023604Y021687D01*
X023604Y021661D01*
X023605Y021661D01*
X023632Y021683D01*
X023668Y021690D01*
X023696Y021684D01*
X023723Y021668D01*
X023743Y021642D01*
X023748Y021625D01*
X023750Y021605D01*
X023750Y021443D01*
X023507Y021479D02*
X023488Y021461D01*
X023466Y021449D01*
X023419Y021440D01*
X023382Y021446D01*
X023346Y021464D01*
X023330Y021480D01*
X023319Y021501D01*
X023313Y021529D01*
X023311Y021564D01*
X023313Y021597D01*
X023319Y021624D01*
X023329Y021646D01*
X023343Y021663D01*
X023376Y021683D01*
X023411Y021690D01*
X023449Y021683D01*
X023482Y021662D01*
X023504Y021629D01*
X023512Y021587D01*
X023512Y021546D01*
X023360Y021546D01*
X023364Y021520D01*
X023376Y021501D01*
X023395Y021490D01*
X023418Y021486D01*
X023446Y021492D01*
X023471Y021510D01*
X023507Y021479D01*
X023463Y021587D02*
X023458Y021611D01*
X023447Y021629D01*
X023431Y021640D01*
X023411Y021644D01*
X023391Y021640D01*
X023375Y021629D01*
X023364Y021611D01*
X023360Y021587D01*
X023463Y021587D01*
X023274Y021565D02*
X023273Y021526D01*
X023270Y021502D01*
X023256Y021471D01*
X023229Y021449D01*
X023212Y021442D01*
X023191Y021440D01*
X023157Y021448D01*
X023128Y021469D01*
X023128Y021272D01*
X023129Y021272D01*
X023156Y021294D01*
X023192Y021301D01*
X023220Y021296D01*
X023247Y021279D01*
X023267Y021253D01*
X023272Y021236D01*
X023274Y021216D01*
X023274Y021054D01*
X023225Y021054D01*
X023225Y021199D01*
X023221Y021221D01*
X023211Y021238D01*
X023195Y021248D01*
X023176Y021252D01*
X023157Y021248D01*
X023142Y021238D01*
X023131Y021221D01*
X023128Y021199D01*
X023128Y021054D01*
X023079Y021054D01*
X023079Y021687D01*
X023128Y021687D01*
X023128Y021661D01*
X023156Y021683D01*
X023191Y021690D01*
X023212Y021688D01*
X023229Y021681D01*
X023256Y021658D01*
X023270Y021627D01*
X023273Y021603D01*
X023274Y021565D01*
X023225Y021565D02*
X023218Y021617D01*
X023204Y021635D01*
X023192Y021639D01*
X023176Y021641D01*
X023160Y021639D01*
X023148Y021635D01*
X023135Y021616D01*
X023128Y021565D01*
X023135Y021513D01*
X023148Y021495D01*
X023160Y021490D01*
X023176Y021489D01*
X023192Y021490D01*
X023204Y021495D01*
X023218Y021513D01*
X023225Y021565D01*
X023033Y021565D02*
X023032Y021530D01*
X023027Y021506D01*
X023007Y021471D01*
X022995Y021460D01*
X022979Y021450D01*
X022959Y021442D01*
X022933Y021440D01*
X022907Y021442D01*
X022886Y021450D01*
X022871Y021460D01*
X022859Y021471D01*
X022838Y021506D01*
X022834Y021530D01*
X022832Y021565D01*
X022834Y021599D01*
X022838Y021624D01*
X022859Y021659D01*
X022871Y021669D01*
X022886Y021680D01*
X022907Y021687D01*
X022933Y021690D01*
X022959Y021687D01*
X022979Y021680D01*
X022995Y021669D01*
X023007Y021659D01*
X023027Y021624D01*
X023032Y021599D01*
X023033Y021565D01*
X022985Y021565D02*
X022984Y021542D01*
X022982Y021527D01*
X022972Y021507D01*
X022956Y021493D01*
X022933Y021489D01*
X022910Y021493D01*
X022893Y021507D01*
X022884Y021527D01*
X022882Y021542D01*
X022881Y021565D01*
X022882Y021587D01*
X022884Y021602D01*
X022893Y021623D01*
X022910Y021636D01*
X022933Y021641D01*
X022956Y021636D01*
X022972Y021623D01*
X022982Y021602D01*
X022984Y021587D01*
X022985Y021565D01*
X023327Y021265D02*
X023361Y021292D01*
X023383Y021299D01*
X023407Y021301D01*
X023448Y021297D01*
X023479Y021283D01*
X023499Y021258D01*
X023504Y021241D01*
X023506Y021220D01*
X023506Y021053D01*
X023459Y021053D01*
X023459Y021075D01*
X023458Y021075D01*
X023437Y021056D01*
X023420Y021052D01*
X023399Y021050D01*
X023364Y021056D01*
X023338Y021072D01*
X023321Y021095D01*
X023315Y021125D01*
X023320Y021153D01*
X023335Y021176D01*
X023359Y021192D01*
X023392Y021197D01*
X023459Y021197D01*
X023459Y021223D01*
X023456Y021237D01*
X023447Y021247D01*
X023431Y021253D01*
X023410Y021255D01*
X023394Y021254D01*
X023382Y021251D01*
X023365Y021236D01*
X023327Y021265D01*
X023370Y021149D02*
X023383Y021154D01*
X023401Y021157D01*
X023459Y021157D01*
X023459Y021139D01*
X023456Y021116D01*
X023452Y021109D01*
X023447Y021104D01*
X023431Y021098D01*
X023405Y021096D01*
X023385Y021099D01*
X023371Y021106D01*
X023363Y021116D01*
X023360Y021127D01*
X023362Y021140D01*
X023370Y021149D01*
X023411Y015784D02*
X023376Y015778D01*
X023343Y015757D01*
X023329Y015741D01*
X023319Y015719D01*
X023313Y015691D01*
X023311Y015658D01*
X023313Y015624D01*
X023319Y015596D01*
X023330Y015574D01*
X023346Y015559D01*
X023382Y015540D01*
X023419Y015534D01*
X023466Y015543D01*
X023488Y015556D01*
X023507Y015574D01*
X023471Y015604D01*
X023446Y015586D01*
X023418Y015580D01*
X023395Y015584D01*
X023376Y015596D01*
X023364Y015614D01*
X023360Y015641D01*
X023512Y015641D01*
X023512Y015681D01*
X023504Y015724D01*
X023482Y015756D01*
X023449Y015777D01*
X023411Y015784D01*
X023411Y015738D02*
X023391Y015734D01*
X023375Y015723D01*
X023364Y015706D01*
X023360Y015681D01*
X023463Y015681D01*
X023458Y015706D01*
X023447Y015723D01*
X023431Y015734D01*
X023411Y015738D01*
X023270Y015722D02*
X023273Y015697D01*
X023274Y015659D01*
X023273Y015621D01*
X023270Y015597D01*
X023256Y015566D01*
X023229Y015543D01*
X023212Y015537D01*
X023191Y015534D01*
X023157Y015542D01*
X023128Y015563D01*
X023128Y015367D01*
X023129Y015367D01*
X023156Y015388D01*
X023192Y015396D01*
X023220Y015390D01*
X023247Y015374D01*
X023267Y015347D01*
X023272Y015330D01*
X023274Y015311D01*
X023274Y015148D01*
X023225Y015148D01*
X023225Y015294D01*
X023221Y015316D01*
X023211Y015332D01*
X023195Y015343D01*
X023176Y015346D01*
X023157Y015343D01*
X023142Y015332D01*
X023131Y015316D01*
X023128Y015294D01*
X023128Y015148D01*
X023079Y015148D01*
X023079Y015782D01*
X023128Y015782D01*
X023128Y015756D01*
X023156Y015777D01*
X023191Y015784D01*
X023212Y015782D01*
X023229Y015775D01*
X023256Y015753D01*
X023270Y015722D01*
X023218Y015711D02*
X023204Y015729D01*
X023192Y015734D01*
X023176Y015735D01*
X023160Y015734D01*
X023148Y015729D01*
X023135Y015710D01*
X023128Y015659D01*
X023135Y015608D01*
X023148Y015589D01*
X023160Y015585D01*
X023176Y015583D01*
X023192Y015585D01*
X023204Y015589D01*
X023218Y015607D01*
X023225Y015659D01*
X023218Y015711D01*
X023032Y015694D02*
X023033Y015660D01*
X023032Y015625D01*
X023027Y015600D01*
X023007Y015565D01*
X022995Y015555D01*
X022979Y015544D01*
X022959Y015537D01*
X022933Y015534D01*
X022907Y015537D01*
X022886Y015544D01*
X022871Y015555D01*
X022859Y015565D01*
X022838Y015600D01*
X022834Y015625D01*
X022832Y015660D01*
X022834Y015694D01*
X022838Y015718D01*
X022859Y015753D01*
X022871Y015764D01*
X022886Y015774D01*
X022907Y015782D01*
X022933Y015784D01*
X022959Y015782D01*
X022979Y015774D01*
X022995Y015764D01*
X023007Y015753D01*
X023027Y015718D01*
X023032Y015694D01*
X022984Y015682D02*
X022982Y015697D01*
X022972Y015717D01*
X022956Y015731D01*
X022933Y015735D01*
X022910Y015731D01*
X022893Y015717D01*
X022884Y015697D01*
X022882Y015682D01*
X022881Y015660D01*
X022882Y015637D01*
X022884Y015622D01*
X022893Y015601D01*
X022910Y015588D01*
X022933Y015583D01*
X022956Y015588D01*
X022972Y015601D01*
X022982Y015622D01*
X022984Y015636D01*
X022985Y015659D01*
X022984Y015682D01*
X023327Y015360D02*
X023361Y015387D01*
X023383Y015393D01*
X023407Y015395D01*
X023448Y015391D01*
X023479Y015378D01*
X023499Y015353D01*
X023504Y015335D01*
X023506Y015315D01*
X023506Y015147D01*
X023459Y015147D01*
X023459Y015169D01*
X023458Y015169D01*
X023437Y015151D01*
X023420Y015146D01*
X023399Y015145D01*
X023364Y015150D01*
X023338Y015166D01*
X023321Y015190D01*
X023315Y015219D01*
X023320Y015247D01*
X023335Y015271D01*
X023359Y015286D01*
X023392Y015292D01*
X023459Y015292D01*
X023459Y015318D01*
X023456Y015332D01*
X023447Y015342D01*
X023431Y015348D01*
X023410Y015349D01*
X023394Y015348D01*
X023382Y015345D01*
X023365Y015330D01*
X023327Y015360D01*
X023383Y015249D02*
X023370Y015243D01*
X023362Y015234D01*
X023360Y015222D01*
X023363Y015210D01*
X023371Y015200D01*
X023385Y015193D01*
X023405Y015191D01*
X023431Y015192D01*
X023447Y015198D01*
X023452Y015203D01*
X023456Y015211D01*
X023459Y015233D01*
X023459Y015251D01*
X023401Y015251D01*
X023383Y015249D01*
X023563Y015148D02*
X023612Y015148D01*
X023612Y015295D01*
X023616Y015318D01*
X023627Y015334D01*
X023660Y015346D01*
X023676Y015343D01*
X023692Y015334D01*
X023728Y015377D01*
X023703Y015391D01*
X023677Y015396D01*
X023641Y015388D01*
X023613Y015367D01*
X023612Y015367D01*
X023612Y015393D01*
X023563Y015393D01*
X023563Y015148D01*
X023735Y015208D02*
X023732Y015232D01*
X023731Y015271D01*
X023732Y015309D01*
X023735Y015333D01*
X023748Y015364D01*
X023775Y015386D01*
X023793Y015393D01*
X023814Y015396D01*
X023848Y015387D01*
X023877Y015367D01*
X023877Y015491D01*
X023926Y015491D01*
X023926Y015148D01*
X023877Y015148D01*
X023877Y015174D01*
X023848Y015153D01*
X023814Y015146D01*
X023793Y015148D01*
X023775Y015154D01*
X023748Y015177D01*
X023735Y015208D01*
X023787Y015218D02*
X023801Y015200D01*
X023813Y015196D01*
X023829Y015194D01*
X023844Y015196D01*
X023856Y015201D01*
X023870Y015219D01*
X023877Y015271D01*
X023870Y015322D01*
X023856Y015340D01*
X023844Y015345D01*
X023829Y015346D01*
X023813Y015345D01*
X023801Y015340D01*
X023787Y015323D01*
X023780Y015271D01*
X023787Y015218D01*
X023956Y015393D02*
X024008Y015393D01*
X024055Y015222D01*
X024055Y015222D01*
X024111Y015393D01*
X024147Y015393D01*
X024202Y015222D01*
X024203Y015222D01*
X024250Y015393D01*
X024302Y015393D01*
X024224Y015148D01*
X024180Y015148D01*
X024129Y015319D01*
X024128Y015319D01*
X024077Y015148D01*
X024034Y015148D01*
X023956Y015393D01*
X023993Y015534D02*
X023936Y015545D01*
X023886Y015578D01*
X023920Y015612D01*
X023956Y015588D01*
X023997Y015580D01*
X024016Y015582D01*
X024032Y015588D01*
X024042Y015598D01*
X024046Y015612D01*
X024044Y015621D01*
X024038Y015629D01*
X024029Y015633D01*
X024016Y015636D01*
X023972Y015640D01*
X023945Y015646D01*
X023922Y015660D01*
X023907Y015681D01*
X023902Y015709D01*
X023908Y015742D01*
X023928Y015765D01*
X023957Y015780D01*
X023993Y015784D01*
X024023Y015782D01*
X024048Y015775D01*
X024089Y015751D01*
X024058Y015715D01*
X024028Y015732D01*
X023993Y015738D01*
X023973Y015736D01*
X023960Y015730D01*
X023951Y015709D01*
X023953Y015701D01*
X023958Y015694D01*
X023968Y015688D01*
X023983Y015686D01*
X024024Y015683D01*
X024041Y015680D01*
X024056Y015676D01*
X024078Y015659D01*
X024091Y015636D01*
X024095Y015610D01*
X024087Y015578D01*
X024065Y015554D01*
X024033Y015539D01*
X023993Y015534D01*
X024131Y015600D02*
X024127Y015625D01*
X024125Y015660D01*
X024127Y015694D01*
X024131Y015718D01*
X024152Y015753D01*
X024163Y015764D01*
X024179Y015774D01*
X024200Y015782D01*
X024226Y015784D01*
X024251Y015782D01*
X024272Y015774D01*
X024288Y015764D01*
X024300Y015753D01*
X024320Y015718D01*
X024325Y015694D01*
X024326Y015660D01*
X024325Y015625D01*
X024320Y015600D01*
X024300Y015565D01*
X024288Y015555D01*
X024272Y015544D01*
X024251Y015537D01*
X024226Y015534D01*
X024200Y015537D01*
X024179Y015544D01*
X024163Y015555D01*
X024152Y015565D01*
X024131Y015600D01*
X024177Y015622D02*
X024186Y015601D01*
X024202Y015588D01*
X024226Y015583D01*
X024249Y015588D01*
X024265Y015601D01*
X024275Y015622D01*
X024277Y015636D01*
X024277Y015659D01*
X024277Y015682D01*
X024275Y015697D01*
X024265Y015717D01*
X024249Y015731D01*
X024226Y015735D01*
X024202Y015731D01*
X024186Y015717D01*
X024177Y015697D01*
X024175Y015682D01*
X024174Y015660D01*
X024175Y015637D01*
X024177Y015622D01*
X024371Y015619D02*
X024373Y015600D01*
X024378Y015582D01*
X024398Y015556D01*
X024425Y015540D01*
X024453Y015534D01*
X024489Y015542D01*
X024516Y015563D01*
X024517Y015563D01*
X024517Y015537D01*
X024566Y015537D01*
X024566Y015782D01*
X024517Y015782D01*
X024517Y015636D01*
X024514Y015614D01*
X024503Y015597D01*
X024488Y015587D01*
X024469Y015583D01*
X024450Y015587D01*
X024434Y015597D01*
X024424Y015614D01*
X024420Y015636D01*
X024420Y015782D01*
X024371Y015782D01*
X024371Y015619D01*
X024378Y015393D02*
X024403Y015395D01*
X024443Y015391D01*
X024475Y015378D01*
X024495Y015353D01*
X024500Y015335D01*
X024502Y015315D01*
X024502Y015147D01*
X024454Y015147D01*
X024454Y015169D01*
X024453Y015169D01*
X024433Y015151D01*
X024416Y015146D01*
X024395Y015145D01*
X024359Y015150D01*
X024334Y015166D01*
X024317Y015190D01*
X024311Y015219D01*
X024316Y015247D01*
X024331Y015271D01*
X024355Y015286D01*
X024388Y015292D01*
X024454Y015292D01*
X024454Y015318D01*
X024451Y015332D01*
X024442Y015342D01*
X024427Y015348D01*
X024406Y015349D01*
X024390Y015348D01*
X024377Y015345D01*
X024361Y015330D01*
X024323Y015360D01*
X024357Y015387D01*
X024378Y015393D01*
X024397Y015251D02*
X024379Y015249D01*
X024366Y015243D01*
X024358Y015234D01*
X024356Y015222D01*
X024358Y015210D01*
X024366Y015200D01*
X024380Y015193D01*
X024401Y015191D01*
X024426Y015192D01*
X024443Y015198D01*
X024448Y015203D01*
X024452Y015211D01*
X024454Y015233D01*
X024454Y015251D01*
X024397Y015251D01*
X024560Y015148D02*
X024609Y015148D01*
X024609Y015295D01*
X024613Y015318D01*
X024624Y015334D01*
X024656Y015346D01*
X024673Y015343D01*
X024689Y015334D01*
X024724Y015377D01*
X024700Y015391D01*
X024673Y015396D01*
X024637Y015388D01*
X024610Y015367D01*
X024609Y015367D01*
X024609Y015393D01*
X024560Y015393D01*
X024560Y015148D01*
X024736Y015207D02*
X024730Y015235D01*
X024728Y015270D01*
X024730Y015303D01*
X024736Y015330D01*
X024746Y015352D01*
X024760Y015368D01*
X024793Y015389D01*
X024828Y015396D01*
X024866Y015389D01*
X024899Y015368D01*
X024921Y015335D01*
X024929Y015292D01*
X024929Y015252D01*
X024777Y015252D01*
X024781Y015226D01*
X024793Y015207D01*
X024812Y015195D01*
X024835Y015192D01*
X024863Y015198D01*
X024888Y015215D01*
X024924Y015185D01*
X024905Y015167D01*
X024883Y015155D01*
X024836Y015146D01*
X024799Y015152D01*
X024763Y015170D01*
X024747Y015185D01*
X024736Y015207D01*
X024777Y015292D02*
X024781Y015317D01*
X024792Y015335D01*
X024808Y015346D01*
X024828Y015349D01*
X024848Y015346D01*
X024864Y015335D01*
X024875Y015317D01*
X024880Y015292D01*
X024777Y015292D01*
X024852Y015542D02*
X024816Y015563D01*
X024801Y015580D01*
X024790Y015602D01*
X024784Y015628D01*
X024782Y015659D01*
X024784Y015690D01*
X024790Y015717D01*
X024801Y015738D01*
X024816Y015755D01*
X024852Y015777D01*
X024893Y015784D01*
X024919Y015781D01*
X024942Y015772D01*
X024981Y015742D01*
X024944Y015710D01*
X024921Y015729D01*
X024895Y015735D01*
X024867Y015730D01*
X024847Y015716D01*
X024835Y015692D01*
X024831Y015659D01*
X024835Y015626D01*
X024847Y015602D01*
X024867Y015588D01*
X024895Y015583D01*
X024922Y015590D01*
X024944Y015609D01*
X024981Y015577D01*
X024942Y015546D01*
X024919Y015537D01*
X024893Y015534D01*
X024852Y015542D01*
X025004Y015596D02*
X024997Y015624D01*
X024995Y015658D01*
X024997Y015691D01*
X025003Y015719D01*
X025013Y015741D01*
X025028Y015757D01*
X025061Y015778D01*
X025096Y015784D01*
X025133Y015777D01*
X025166Y015756D01*
X025189Y015724D01*
X025196Y015681D01*
X025196Y015641D01*
X025044Y015641D01*
X025048Y015614D01*
X025060Y015596D01*
X025079Y015584D01*
X025102Y015580D01*
X025131Y015586D01*
X025156Y015604D01*
X025192Y015574D01*
X025172Y015556D01*
X025151Y015543D01*
X025103Y015534D01*
X025066Y015540D01*
X025030Y015559D01*
X025015Y015574D01*
X025004Y015596D01*
X025044Y015681D02*
X025048Y015706D01*
X025059Y015723D01*
X025076Y015734D01*
X025096Y015738D01*
X025116Y015734D01*
X025132Y015723D01*
X025143Y015706D01*
X025147Y015681D01*
X025044Y015681D01*
X024787Y015765D02*
X024751Y015723D01*
X024735Y015732D01*
X024719Y015735D01*
X024686Y015723D01*
X024675Y015707D01*
X024671Y015684D01*
X024671Y015537D01*
X024622Y015537D01*
X024622Y015782D01*
X024671Y015782D01*
X024671Y015755D01*
X024672Y015755D01*
X024699Y015777D01*
X024736Y015784D01*
X024762Y015780D01*
X024787Y015765D01*
X023750Y015700D02*
X023750Y015537D01*
X023701Y015537D01*
X023701Y015683D01*
X023697Y015705D01*
X023687Y015721D01*
X023671Y015732D01*
X023653Y015735D01*
X023633Y015732D01*
X023618Y015721D01*
X023607Y015705D01*
X023604Y015683D01*
X023604Y015537D01*
X023555Y015537D01*
X023555Y015782D01*
X023604Y015782D01*
X023604Y015755D01*
X023605Y015755D01*
X023632Y015777D01*
X023668Y015784D01*
X023696Y015779D01*
X023723Y015763D01*
X023743Y015736D01*
X023748Y015719D01*
X023750Y015700D01*
X023668Y009879D02*
X023696Y009873D01*
X023723Y009857D01*
X023743Y009831D01*
X023748Y009814D01*
X023750Y009794D01*
X023750Y009632D01*
X023701Y009632D01*
X023701Y009777D01*
X023697Y009799D01*
X023687Y009816D01*
X023671Y009826D01*
X023653Y009830D01*
X023633Y009826D01*
X023618Y009816D01*
X023607Y009799D01*
X023604Y009777D01*
X023604Y009632D01*
X023555Y009632D01*
X023555Y009876D01*
X023604Y009876D01*
X023604Y009850D01*
X023605Y009850D01*
X023632Y009872D01*
X023668Y009879D01*
X023504Y009818D02*
X023482Y009851D01*
X023449Y009872D01*
X023411Y009879D01*
X023376Y009872D01*
X023343Y009852D01*
X023329Y009835D01*
X023319Y009813D01*
X023313Y009786D01*
X023311Y009753D01*
X023313Y009718D01*
X023319Y009690D01*
X023330Y009669D01*
X023346Y009653D01*
X023382Y009635D01*
X023419Y009629D01*
X023466Y009638D01*
X023488Y009650D01*
X023507Y009668D01*
X023471Y009699D01*
X023446Y009681D01*
X023418Y009675D01*
X023395Y009679D01*
X023376Y009690D01*
X023364Y009709D01*
X023360Y009735D01*
X023512Y009735D01*
X023512Y009776D01*
X023504Y009818D01*
X023458Y009800D02*
X023447Y009818D01*
X023431Y009829D01*
X023411Y009833D01*
X023391Y009829D01*
X023375Y009818D01*
X023364Y009800D01*
X023360Y009776D01*
X023463Y009776D01*
X023458Y009800D01*
X023273Y009792D02*
X023274Y009754D01*
X023273Y009715D01*
X023270Y009691D01*
X023256Y009660D01*
X023229Y009638D01*
X023212Y009631D01*
X023191Y009629D01*
X023157Y009637D01*
X023128Y009658D01*
X023128Y009461D01*
X023129Y009461D01*
X023156Y009483D01*
X023192Y009490D01*
X023220Y009485D01*
X023247Y009468D01*
X023267Y009442D01*
X023272Y009425D01*
X023274Y009405D01*
X023274Y009243D01*
X023225Y009243D01*
X023225Y009388D01*
X023221Y009410D01*
X023211Y009427D01*
X023195Y009437D01*
X023176Y009441D01*
X023157Y009437D01*
X023142Y009427D01*
X023131Y009410D01*
X023128Y009388D01*
X023128Y009243D01*
X023079Y009243D01*
X023079Y009876D01*
X023128Y009876D01*
X023128Y009850D01*
X023156Y009872D01*
X023191Y009879D01*
X023212Y009877D01*
X023229Y009870D01*
X023256Y009847D01*
X023270Y009816D01*
X023273Y009792D01*
X023218Y009806D02*
X023204Y009824D01*
X023192Y009828D01*
X023176Y009830D01*
X023160Y009828D01*
X023148Y009824D01*
X023135Y009805D01*
X023128Y009754D01*
X023135Y009702D01*
X023148Y009684D01*
X023160Y009679D01*
X023176Y009678D01*
X023192Y009679D01*
X023204Y009684D01*
X023218Y009702D01*
X023225Y009754D01*
X023218Y009806D01*
X023032Y009788D02*
X023033Y009754D01*
X023032Y009719D01*
X023027Y009695D01*
X023007Y009660D01*
X022995Y009649D01*
X022979Y009639D01*
X022959Y009631D01*
X022933Y009629D01*
X022907Y009631D01*
X022886Y009639D01*
X022871Y009649D01*
X022859Y009660D01*
X022838Y009695D01*
X022834Y009719D01*
X022832Y009754D01*
X022834Y009788D01*
X022838Y009813D01*
X022859Y009848D01*
X022871Y009858D01*
X022886Y009869D01*
X022907Y009876D01*
X022933Y009879D01*
X022959Y009876D01*
X022979Y009869D01*
X022995Y009858D01*
X023007Y009848D01*
X023027Y009813D01*
X023032Y009788D01*
X022984Y009776D02*
X022982Y009791D01*
X022972Y009812D01*
X022956Y009825D01*
X022933Y009830D01*
X022910Y009825D01*
X022893Y009812D01*
X022884Y009791D01*
X022882Y009776D01*
X022881Y009754D01*
X022882Y009731D01*
X022884Y009716D01*
X022893Y009696D01*
X022910Y009682D01*
X022933Y009678D01*
X022956Y009682D01*
X022972Y009696D01*
X022982Y009716D01*
X022984Y009731D01*
X022985Y009754D01*
X022984Y009776D01*
X023327Y009454D02*
X023361Y009481D01*
X023383Y009488D01*
X023407Y009490D01*
X023448Y009486D01*
X023479Y009472D01*
X023499Y009447D01*
X023504Y009430D01*
X023506Y009409D01*
X023506Y009242D01*
X023459Y009242D01*
X023459Y009264D01*
X023458Y009264D01*
X023437Y009245D01*
X023420Y009241D01*
X023399Y009239D01*
X023364Y009245D01*
X023338Y009261D01*
X023321Y009284D01*
X023315Y009314D01*
X023320Y009342D01*
X023335Y009365D01*
X023359Y009381D01*
X023392Y009386D01*
X023459Y009386D01*
X023459Y009412D01*
X023456Y009426D01*
X023447Y009436D01*
X023431Y009442D01*
X023410Y009444D01*
X023394Y009443D01*
X023382Y009440D01*
X023365Y009425D01*
X023327Y009454D01*
X023370Y009338D02*
X023383Y009343D01*
X023401Y009346D01*
X023459Y009346D01*
X023459Y009328D01*
X023456Y009305D01*
X023452Y009298D01*
X023447Y009293D01*
X023431Y009287D01*
X023405Y009285D01*
X023385Y009288D01*
X023371Y009295D01*
X023363Y009305D01*
X023360Y009316D01*
X023362Y009329D01*
X023370Y009338D01*
X023563Y009243D02*
X023612Y009243D01*
X023612Y009390D01*
X023616Y009413D01*
X023627Y009429D01*
X023660Y009441D01*
X023676Y009438D01*
X023692Y009429D01*
X023728Y009471D01*
X023703Y009485D01*
X023677Y009490D01*
X023641Y009483D01*
X023613Y009461D01*
X023612Y009461D01*
X023612Y009487D01*
X023563Y009487D01*
X023563Y009243D01*
X023735Y009302D02*
X023732Y009327D01*
X023731Y009365D01*
X023732Y009403D01*
X023735Y009428D01*
X023748Y009458D01*
X023775Y009481D01*
X023793Y009488D01*
X023814Y009490D01*
X023848Y009482D01*
X023877Y009461D01*
X023877Y009586D01*
X023926Y009586D01*
X023926Y009243D01*
X023877Y009243D01*
X023877Y009268D01*
X023848Y009247D01*
X023814Y009240D01*
X023793Y009242D01*
X023775Y009249D01*
X023748Y009272D01*
X023735Y009302D01*
X023787Y009313D02*
X023801Y009295D01*
X023813Y009290D01*
X023829Y009289D01*
X023844Y009290D01*
X023856Y009295D01*
X023870Y009314D01*
X023877Y009365D01*
X023870Y009416D01*
X023856Y009435D01*
X023844Y009439D01*
X023829Y009441D01*
X023813Y009439D01*
X023801Y009435D01*
X023787Y009417D01*
X023780Y009365D01*
X023787Y009313D01*
X023956Y009487D02*
X024008Y009487D01*
X024055Y009316D01*
X024055Y009316D01*
X024111Y009487D01*
X024147Y009487D01*
X024202Y009316D01*
X024203Y009316D01*
X024250Y009487D01*
X024302Y009487D01*
X024224Y009243D01*
X024180Y009243D01*
X024129Y009414D01*
X024128Y009414D01*
X024077Y009243D01*
X024034Y009243D01*
X023956Y009487D01*
X023993Y009629D02*
X023936Y009640D01*
X023886Y009672D01*
X023920Y009706D01*
X023956Y009683D01*
X023997Y009675D01*
X024016Y009677D01*
X024032Y009683D01*
X024042Y009693D01*
X024046Y009706D01*
X024044Y009716D01*
X024038Y009723D01*
X024029Y009728D01*
X024016Y009730D01*
X023972Y009734D01*
X023945Y009740D01*
X023922Y009754D01*
X023907Y009775D01*
X023902Y009804D01*
X023908Y009836D01*
X023928Y009860D01*
X023957Y009874D01*
X023993Y009879D01*
X024023Y009877D01*
X024048Y009870D01*
X024089Y009846D01*
X024058Y009810D01*
X024028Y009826D01*
X023993Y009833D01*
X023973Y009830D01*
X023960Y009824D01*
X023951Y009803D01*
X023953Y009795D01*
X023958Y009788D01*
X023968Y009783D01*
X023983Y009780D01*
X024024Y009777D01*
X024041Y009775D01*
X024056Y009770D01*
X024078Y009754D01*
X024091Y009731D01*
X024095Y009704D01*
X024087Y009672D01*
X024065Y009648D01*
X024033Y009634D01*
X023993Y009629D01*
X024131Y009695D02*
X024127Y009719D01*
X024125Y009754D01*
X024127Y009788D01*
X024131Y009813D01*
X024152Y009848D01*
X024163Y009858D01*
X024179Y009869D01*
X024200Y009876D01*
X024226Y009879D01*
X024251Y009876D01*
X024272Y009869D01*
X024288Y009858D01*
X024300Y009848D01*
X024320Y009813D01*
X024325Y009788D01*
X024326Y009754D01*
X024325Y009719D01*
X024320Y009695D01*
X024300Y009660D01*
X024288Y009649D01*
X024272Y009639D01*
X024251Y009631D01*
X024226Y009629D01*
X024200Y009631D01*
X024179Y009639D01*
X024163Y009649D01*
X024152Y009660D01*
X024131Y009695D01*
X024177Y009716D02*
X024186Y009696D01*
X024202Y009682D01*
X024226Y009678D01*
X024249Y009682D01*
X024265Y009696D01*
X024275Y009716D01*
X024277Y009731D01*
X024277Y009754D01*
X024277Y009776D01*
X024275Y009791D01*
X024265Y009812D01*
X024249Y009825D01*
X024226Y009830D01*
X024202Y009825D01*
X024186Y009812D01*
X024177Y009791D01*
X024175Y009776D01*
X024174Y009754D01*
X024175Y009731D01*
X024177Y009716D01*
X024371Y009714D02*
X024373Y009694D01*
X024378Y009677D01*
X024398Y009650D01*
X024425Y009634D01*
X024453Y009629D01*
X024489Y009636D01*
X024516Y009658D01*
X024517Y009658D01*
X024517Y009632D01*
X024566Y009632D01*
X024566Y009876D01*
X024517Y009876D01*
X024517Y009730D01*
X024514Y009708D01*
X024503Y009692D01*
X024488Y009681D01*
X024469Y009678D01*
X024450Y009681D01*
X024434Y009692D01*
X024424Y009708D01*
X024420Y009730D01*
X024420Y009876D01*
X024371Y009876D01*
X024371Y009714D01*
X024378Y009488D02*
X024403Y009490D01*
X024443Y009486D01*
X024475Y009472D01*
X024495Y009447D01*
X024500Y009430D01*
X024502Y009409D01*
X024502Y009242D01*
X024454Y009242D01*
X024454Y009264D01*
X024453Y009264D01*
X024433Y009245D01*
X024416Y009241D01*
X024395Y009239D01*
X024359Y009245D01*
X024334Y009261D01*
X024317Y009284D01*
X024311Y009314D01*
X024316Y009342D01*
X024331Y009365D01*
X024355Y009381D01*
X024388Y009386D01*
X024454Y009386D01*
X024454Y009412D01*
X024451Y009426D01*
X024442Y009436D01*
X024427Y009442D01*
X024406Y009444D01*
X024390Y009443D01*
X024377Y009440D01*
X024361Y009425D01*
X024323Y009454D01*
X024357Y009481D01*
X024378Y009488D01*
X024397Y009346D02*
X024379Y009343D01*
X024366Y009338D01*
X024358Y009329D01*
X024356Y009316D01*
X024358Y009305D01*
X024366Y009295D01*
X024380Y009288D01*
X024401Y009285D01*
X024426Y009287D01*
X024443Y009293D01*
X024448Y009298D01*
X024452Y009305D01*
X024454Y009328D01*
X024454Y009346D01*
X024397Y009346D01*
X024560Y009243D02*
X024609Y009243D01*
X024609Y009390D01*
X024613Y009413D01*
X024624Y009429D01*
X024656Y009441D01*
X024673Y009438D01*
X024689Y009429D01*
X024724Y009471D01*
X024700Y009485D01*
X024673Y009490D01*
X024637Y009483D01*
X024610Y009461D01*
X024609Y009461D01*
X024609Y009487D01*
X024560Y009487D01*
X024560Y009243D01*
X024736Y009301D02*
X024730Y009330D01*
X024728Y009364D01*
X024730Y009397D01*
X024736Y009424D01*
X024746Y009446D01*
X024760Y009463D01*
X024793Y009483D01*
X024828Y009490D01*
X024866Y009483D01*
X024899Y009462D01*
X024921Y009429D01*
X024929Y009387D01*
X024929Y009346D01*
X024777Y009346D01*
X024781Y009320D01*
X024793Y009301D01*
X024812Y009290D01*
X024835Y009286D01*
X024863Y009292D01*
X024888Y009310D01*
X024924Y009279D01*
X024905Y009261D01*
X024883Y009249D01*
X024836Y009240D01*
X024799Y009246D01*
X024763Y009264D01*
X024747Y009280D01*
X024736Y009301D01*
X024777Y009387D02*
X024781Y009411D01*
X024792Y009429D01*
X024808Y009440D01*
X024828Y009444D01*
X024848Y009440D01*
X024864Y009429D01*
X024875Y009411D01*
X024880Y009387D01*
X024777Y009387D01*
X024852Y009636D02*
X024816Y009658D01*
X024801Y009674D01*
X024790Y009696D01*
X024784Y009722D01*
X024782Y009754D01*
X024784Y009785D01*
X024790Y009811D01*
X024801Y009833D01*
X024816Y009850D01*
X024852Y009872D01*
X024893Y009879D01*
X024919Y009876D01*
X024942Y009867D01*
X024981Y009836D01*
X024944Y009804D01*
X024921Y009823D01*
X024895Y009830D01*
X024867Y009825D01*
X024847Y009811D01*
X024835Y009787D01*
X024831Y009754D01*
X024835Y009720D01*
X024847Y009697D01*
X024867Y009683D01*
X024895Y009678D01*
X024922Y009684D01*
X024944Y009704D01*
X024981Y009671D01*
X024942Y009641D01*
X024919Y009632D01*
X024893Y009629D01*
X024852Y009636D01*
X025004Y009690D02*
X024997Y009718D01*
X024995Y009753D01*
X024997Y009786D01*
X025003Y009813D01*
X025013Y009835D01*
X025028Y009852D01*
X025061Y009872D01*
X025096Y009879D01*
X025133Y009872D01*
X025166Y009851D01*
X025189Y009818D01*
X025196Y009776D01*
X025196Y009735D01*
X025044Y009735D01*
X025048Y009709D01*
X025060Y009690D01*
X025079Y009679D01*
X025102Y009675D01*
X025131Y009681D01*
X025156Y009699D01*
X025192Y009668D01*
X025172Y009650D01*
X025151Y009638D01*
X025103Y009629D01*
X025066Y009635D01*
X025030Y009653D01*
X025015Y009669D01*
X025004Y009690D01*
X025044Y009776D02*
X025048Y009800D01*
X025059Y009818D01*
X025076Y009829D01*
X025096Y009833D01*
X025116Y009829D01*
X025132Y009818D01*
X025143Y009800D01*
X025147Y009776D01*
X025044Y009776D01*
X024787Y009860D02*
X024751Y009818D01*
X024735Y009827D01*
X024719Y009830D01*
X024686Y009818D01*
X024675Y009802D01*
X024671Y009779D01*
X024671Y009632D01*
X024622Y009632D01*
X024622Y009876D01*
X024671Y009876D01*
X024671Y009850D01*
X024672Y009850D01*
X024699Y009872D01*
X024736Y009879D01*
X024762Y009874D01*
X024787Y009860D01*
D13*
X024580Y010081D02*
X024565Y010079D01*
X024380Y010205D01*
X024369Y010206D01*
X024285Y010171D01*
X024269Y010177D01*
X024114Y010557D01*
X024120Y010572D01*
X023904Y010572D01*
X023910Y010557D01*
X023755Y010177D01*
X023740Y010171D01*
X023656Y010206D01*
X023645Y010205D01*
X023459Y010079D01*
X023444Y010081D01*
X023286Y010239D01*
X023285Y010254D01*
X023410Y010439D01*
X023411Y010450D01*
X023335Y010634D01*
X023326Y010641D01*
X023107Y010683D01*
X023097Y010695D01*
X023097Y010919D01*
X023107Y010930D01*
X023326Y010973D01*
X023335Y010980D01*
X023411Y011164D01*
X023410Y011175D01*
X023285Y011360D01*
X023286Y011375D01*
X023444Y011533D01*
X023459Y011534D01*
X023645Y011409D01*
X023656Y011408D01*
X023839Y011484D01*
X023847Y011493D01*
X023889Y011712D01*
X023900Y011722D01*
X024124Y011722D01*
X024136Y011712D01*
X024178Y011493D01*
X024185Y011484D01*
X024369Y011408D01*
X024380Y011409D01*
X024565Y011534D01*
X024580Y011533D01*
X024738Y011375D01*
X024740Y011360D01*
X024615Y011175D01*
X024613Y011164D01*
X024690Y010980D01*
X024698Y010973D01*
X024918Y010930D01*
X024927Y010919D01*
X024927Y010695D01*
X024918Y010683D01*
X024698Y010641D01*
X024690Y010634D01*
X024613Y010450D01*
X024615Y010439D01*
X024740Y010254D01*
X024738Y010239D01*
X024580Y010081D01*
X028307Y010106D02*
X028307Y010067D01*
X028307Y010106D02*
X028700Y010106D01*
X028700Y010067D01*
X028700Y010106D02*
X028700Y010145D01*
X028307Y010145D02*
X028307Y010106D01*
X028740Y009633D02*
X031850Y009633D01*
X031850Y012547D01*
X028740Y012547D01*
X028740Y009633D01*
X028700Y011996D02*
X028700Y012035D01*
X028307Y012035D01*
X028307Y012074D01*
X028307Y012035D02*
X028307Y011996D01*
X028700Y012035D02*
X028700Y012074D01*
X028465Y012665D02*
X028467Y012690D01*
X028473Y012714D01*
X028482Y012736D01*
X028495Y012757D01*
X028511Y012776D01*
X028530Y012792D01*
X028551Y012805D01*
X028573Y012814D01*
X028597Y012820D01*
X028622Y012822D01*
X028647Y012820D01*
X028671Y012814D01*
X028693Y012805D01*
X028714Y012792D01*
X028733Y012776D01*
X028749Y012757D01*
X028762Y012736D01*
X028771Y012714D01*
X028777Y012690D01*
X028779Y012665D01*
X028777Y012640D01*
X028771Y012616D01*
X028762Y012594D01*
X028749Y012573D01*
X028733Y012554D01*
X028714Y012538D01*
X028693Y012525D01*
X028671Y012516D01*
X028647Y012510D01*
X028622Y012508D01*
X028597Y012510D01*
X028573Y012516D01*
X028551Y012525D01*
X028530Y012538D01*
X028511Y012554D01*
X028495Y012573D01*
X028482Y012594D01*
X028473Y012616D01*
X028467Y012640D01*
X028465Y012665D01*
X028740Y015539D02*
X031850Y015539D01*
X031850Y018452D01*
X028740Y018452D01*
X028740Y015539D01*
X028700Y015972D02*
X028700Y016011D01*
X028307Y016011D01*
X028307Y015972D01*
X028307Y016011D02*
X028307Y016051D01*
X028700Y016051D02*
X028700Y016011D01*
X028700Y017901D02*
X028700Y017941D01*
X028307Y017941D01*
X028307Y017980D01*
X028307Y017941D02*
X028307Y017901D01*
X028700Y017941D02*
X028700Y017980D01*
X028465Y018570D02*
X028467Y018595D01*
X028473Y018619D01*
X028482Y018641D01*
X028495Y018662D01*
X028511Y018681D01*
X028530Y018697D01*
X028551Y018710D01*
X028573Y018719D01*
X028597Y018725D01*
X028622Y018727D01*
X028647Y018725D01*
X028671Y018719D01*
X028693Y018710D01*
X028714Y018697D01*
X028733Y018681D01*
X028749Y018662D01*
X028762Y018641D01*
X028771Y018619D01*
X028777Y018595D01*
X028779Y018570D01*
X028777Y018545D01*
X028771Y018521D01*
X028762Y018499D01*
X028749Y018478D01*
X028733Y018459D01*
X028714Y018443D01*
X028693Y018430D01*
X028671Y018421D01*
X028647Y018415D01*
X028622Y018413D01*
X028597Y018415D01*
X028573Y018421D01*
X028551Y018430D01*
X028530Y018443D01*
X028511Y018459D01*
X028495Y018478D01*
X028482Y018499D01*
X028473Y018521D01*
X028467Y018545D01*
X028465Y018570D01*
X028740Y021444D02*
X031850Y021444D01*
X031850Y024358D01*
X028740Y024358D01*
X028740Y021444D01*
X028700Y021878D02*
X028700Y021917D01*
X028307Y021917D01*
X028307Y021878D01*
X028307Y021917D02*
X028307Y021956D01*
X028700Y021956D02*
X028700Y021917D01*
X028700Y023807D02*
X028700Y023846D01*
X028307Y023846D01*
X028307Y023885D01*
X028307Y023846D02*
X028307Y023807D01*
X028700Y023846D02*
X028700Y023885D01*
X028465Y024476D02*
X028467Y024501D01*
X028473Y024525D01*
X028482Y024547D01*
X028495Y024568D01*
X028511Y024587D01*
X028530Y024603D01*
X028551Y024616D01*
X028573Y024625D01*
X028597Y024631D01*
X028622Y024633D01*
X028647Y024631D01*
X028671Y024625D01*
X028693Y024616D01*
X028714Y024603D01*
X028733Y024587D01*
X028749Y024568D01*
X028762Y024547D01*
X028771Y024525D01*
X028777Y024501D01*
X028779Y024476D01*
X028777Y024451D01*
X028771Y024427D01*
X028762Y024405D01*
X028749Y024384D01*
X028733Y024365D01*
X028714Y024349D01*
X028693Y024336D01*
X028671Y024327D01*
X028647Y024321D01*
X028622Y024319D01*
X028597Y024321D01*
X028573Y024327D01*
X028551Y024336D01*
X028530Y024349D01*
X028511Y024365D01*
X028495Y024384D01*
X028482Y024405D01*
X028473Y024427D01*
X028467Y024451D01*
X028465Y024476D01*
X028740Y027350D02*
X031850Y027350D01*
X031850Y030263D01*
X028740Y030263D01*
X028740Y027350D01*
X028700Y027783D02*
X028700Y027822D01*
X028307Y027822D01*
X028307Y027783D01*
X028307Y027822D02*
X028307Y027862D01*
X028700Y027862D02*
X028700Y027822D01*
X028700Y029712D02*
X028700Y029752D01*
X028307Y029752D01*
X028307Y029791D01*
X028307Y029752D02*
X028307Y029712D01*
X028700Y029752D02*
X028700Y029791D01*
X028465Y030381D02*
X028467Y030406D01*
X028473Y030430D01*
X028482Y030452D01*
X028495Y030473D01*
X028511Y030492D01*
X028530Y030508D01*
X028551Y030521D01*
X028573Y030530D01*
X028597Y030536D01*
X028622Y030538D01*
X028647Y030536D01*
X028671Y030530D01*
X028693Y030521D01*
X028714Y030508D01*
X028733Y030492D01*
X028749Y030473D01*
X028762Y030452D01*
X028771Y030430D01*
X028777Y030406D01*
X028779Y030381D01*
X028777Y030356D01*
X028771Y030332D01*
X028762Y030310D01*
X028749Y030289D01*
X028733Y030270D01*
X028714Y030254D01*
X028693Y030241D01*
X028671Y030232D01*
X028647Y030226D01*
X028622Y030224D01*
X028597Y030226D01*
X028573Y030232D01*
X028551Y030241D01*
X028530Y030254D01*
X028511Y030270D01*
X028495Y030289D01*
X028482Y030310D01*
X028473Y030332D01*
X028467Y030356D01*
X028465Y030381D01*
X024927Y028635D02*
X024927Y028412D01*
X024918Y028400D01*
X024698Y028358D01*
X024690Y028351D01*
X024613Y028167D01*
X024615Y028156D01*
X024740Y027971D01*
X024738Y027956D01*
X024580Y027797D01*
X024565Y027796D01*
X024380Y027921D01*
X024369Y027922D01*
X024285Y027888D01*
X024269Y027894D01*
X024114Y028273D01*
X024120Y028289D01*
X023904Y028289D01*
X023910Y028273D01*
X023755Y027894D01*
X023740Y027888D01*
X023656Y027922D01*
X023645Y027921D01*
X023459Y027796D01*
X023444Y027797D01*
X023286Y027956D01*
X023285Y027971D01*
X023410Y028156D01*
X023411Y028167D01*
X023335Y028351D01*
X023326Y028358D01*
X023107Y028400D01*
X023097Y028412D01*
X023097Y028635D01*
X023107Y028647D01*
X023326Y028689D01*
X023335Y028696D01*
X023411Y028880D01*
X023410Y028891D01*
X023285Y029076D01*
X023286Y029091D01*
X023444Y029249D01*
X023459Y029251D01*
X023645Y029126D01*
X023656Y029125D01*
X023839Y029201D01*
X023847Y029209D01*
X023889Y029429D01*
X023900Y029438D01*
X024124Y029438D01*
X024136Y029429D01*
X024178Y029209D01*
X024185Y029201D01*
X024369Y029125D01*
X024380Y029126D01*
X024565Y029251D01*
X024580Y029249D01*
X024738Y029091D01*
X024740Y029076D01*
X024615Y028891D01*
X024613Y028880D01*
X024690Y028696D01*
X024698Y028689D01*
X024918Y028647D01*
X024927Y028635D01*
X024124Y023533D02*
X023900Y023533D01*
X023889Y023523D01*
X023847Y023304D01*
X023839Y023295D01*
X023656Y023219D01*
X023645Y023220D01*
X023459Y023345D01*
X023444Y023344D01*
X023286Y023186D01*
X023285Y023171D01*
X023410Y022986D01*
X023411Y022975D01*
X023335Y022791D01*
X023326Y022784D01*
X023107Y022741D01*
X023097Y022730D01*
X023097Y022506D01*
X023107Y022495D01*
X023326Y022452D01*
X023335Y022445D01*
X023411Y022261D01*
X023410Y022250D01*
X023285Y022065D01*
X023286Y022050D01*
X023444Y021892D01*
X023459Y021890D01*
X023645Y022016D01*
X023656Y022017D01*
X023740Y021982D01*
X023755Y021988D01*
X023910Y022368D01*
X023904Y022383D01*
X024120Y022383D01*
X024114Y022368D01*
X024269Y021988D01*
X024285Y021982D01*
X024369Y022017D01*
X024380Y022016D01*
X024565Y021890D01*
X024580Y021892D01*
X024738Y022050D01*
X024740Y022065D01*
X024615Y022250D01*
X024613Y022261D01*
X024690Y022445D01*
X024698Y022452D01*
X024918Y022495D01*
X024927Y022506D01*
X024927Y022730D01*
X024918Y022741D01*
X024698Y022784D01*
X024690Y022791D01*
X024613Y022975D01*
X024615Y022986D01*
X024740Y023171D01*
X024738Y023186D01*
X024580Y023344D01*
X024565Y023345D01*
X024380Y023220D01*
X024369Y023219D01*
X024185Y023295D01*
X024178Y023304D01*
X024136Y023523D01*
X024124Y023533D01*
X019252Y024358D02*
X019252Y021444D01*
X016141Y021444D01*
X016141Y024358D01*
X019252Y024358D01*
X019252Y027350D02*
X019252Y030263D01*
X016141Y030263D01*
X016141Y027350D01*
X019252Y027350D01*
X016102Y027783D02*
X016102Y027822D01*
X015708Y027822D01*
X015708Y027783D01*
X015708Y027822D02*
X015708Y027862D01*
X016102Y027862D02*
X016102Y027822D01*
X016102Y029712D02*
X016102Y029752D01*
X015708Y029752D01*
X015708Y029791D01*
X015708Y029752D02*
X015708Y029712D01*
X016102Y029752D02*
X016102Y029791D01*
X015866Y030381D02*
X015868Y030406D01*
X015874Y030430D01*
X015883Y030452D01*
X015896Y030473D01*
X015912Y030492D01*
X015931Y030508D01*
X015952Y030521D01*
X015974Y030530D01*
X015998Y030536D01*
X016023Y030538D01*
X016048Y030536D01*
X016072Y030530D01*
X016094Y030521D01*
X016115Y030508D01*
X016134Y030492D01*
X016150Y030473D01*
X016163Y030452D01*
X016172Y030430D01*
X016178Y030406D01*
X016180Y030381D01*
X016178Y030356D01*
X016172Y030332D01*
X016163Y030310D01*
X016150Y030289D01*
X016134Y030270D01*
X016115Y030254D01*
X016094Y030241D01*
X016072Y030232D01*
X016048Y030226D01*
X016023Y030224D01*
X015998Y030226D01*
X015974Y030232D01*
X015952Y030241D01*
X015931Y030254D01*
X015912Y030270D01*
X015896Y030289D01*
X015883Y030310D01*
X015874Y030332D01*
X015868Y030356D01*
X015866Y030381D01*
X012329Y028635D02*
X012329Y028412D01*
X012319Y028400D01*
X012100Y028358D01*
X012091Y028351D01*
X012015Y028167D01*
X012016Y028156D01*
X012141Y027971D01*
X012140Y027956D01*
X011982Y027797D01*
X011967Y027796D01*
X011782Y027921D01*
X011771Y027922D01*
X011686Y027888D01*
X011671Y027894D01*
X011516Y028273D01*
X011522Y028289D01*
X011306Y028289D01*
X011312Y028273D01*
X011157Y027894D01*
X011141Y027888D01*
X011057Y027922D01*
X011046Y027921D01*
X010861Y027796D01*
X010846Y027797D01*
X010688Y027956D01*
X010686Y027971D01*
X010812Y028156D01*
X010813Y028167D01*
X010737Y028351D01*
X010728Y028358D01*
X010509Y028400D01*
X010499Y028412D01*
X010499Y028635D01*
X010509Y028647D01*
X010728Y028689D01*
X010737Y028696D01*
X010813Y028880D01*
X010812Y028891D01*
X010686Y029076D01*
X010688Y029091D01*
X010846Y029249D01*
X010861Y029251D01*
X011046Y029126D01*
X011057Y029125D01*
X011241Y029201D01*
X011248Y029209D01*
X011290Y029429D01*
X011302Y029438D01*
X011526Y029438D01*
X011537Y029429D01*
X011580Y029209D01*
X011587Y029201D01*
X011771Y029125D01*
X011782Y029126D01*
X011967Y029251D01*
X011982Y029249D01*
X012140Y029091D01*
X012141Y029076D01*
X012016Y028891D01*
X012015Y028880D01*
X012091Y028696D01*
X012100Y028689D01*
X012319Y028647D01*
X012329Y028635D01*
X015866Y024476D02*
X015868Y024501D01*
X015874Y024525D01*
X015883Y024547D01*
X015896Y024568D01*
X015912Y024587D01*
X015931Y024603D01*
X015952Y024616D01*
X015974Y024625D01*
X015998Y024631D01*
X016023Y024633D01*
X016048Y024631D01*
X016072Y024625D01*
X016094Y024616D01*
X016115Y024603D01*
X016134Y024587D01*
X016150Y024568D01*
X016163Y024547D01*
X016172Y024525D01*
X016178Y024501D01*
X016180Y024476D01*
X016178Y024451D01*
X016172Y024427D01*
X016163Y024405D01*
X016150Y024384D01*
X016134Y024365D01*
X016115Y024349D01*
X016094Y024336D01*
X016072Y024327D01*
X016048Y024321D01*
X016023Y024319D01*
X015998Y024321D01*
X015974Y024327D01*
X015952Y024336D01*
X015931Y024349D01*
X015912Y024365D01*
X015896Y024384D01*
X015883Y024405D01*
X015874Y024427D01*
X015868Y024451D01*
X015866Y024476D01*
X015708Y023885D02*
X015708Y023846D01*
X016102Y023846D01*
X016102Y023885D01*
X016102Y023846D02*
X016102Y023807D01*
X015708Y023807D02*
X015708Y023846D01*
X015708Y021956D02*
X015708Y021917D01*
X016102Y021917D01*
X016102Y021878D01*
X016102Y021917D02*
X016102Y021956D01*
X015708Y021917D02*
X015708Y021878D01*
X012329Y022506D02*
X012319Y022495D01*
X012100Y022452D01*
X012091Y022445D01*
X012015Y022261D01*
X012016Y022250D01*
X012141Y022065D01*
X012140Y022050D01*
X011982Y021892D01*
X011967Y021890D01*
X011782Y022016D01*
X011771Y022017D01*
X011686Y021982D01*
X011671Y021988D01*
X011516Y022368D01*
X011522Y022383D01*
X011306Y022383D01*
X011312Y022368D01*
X011157Y021988D01*
X011141Y021982D01*
X011057Y022017D01*
X011046Y022016D01*
X010861Y021890D01*
X010846Y021892D01*
X010688Y022050D01*
X010686Y022065D01*
X010812Y022250D01*
X010813Y022261D01*
X010737Y022445D01*
X010728Y022452D01*
X010509Y022495D01*
X010499Y022506D01*
X010499Y022730D01*
X010509Y022741D01*
X010728Y022784D01*
X010737Y022791D01*
X010813Y022975D01*
X010812Y022986D01*
X010686Y023171D01*
X010688Y023186D01*
X010846Y023344D01*
X010861Y023345D01*
X011046Y023220D01*
X011057Y023219D01*
X011241Y023295D01*
X011248Y023304D01*
X011290Y023523D01*
X011302Y023533D01*
X011526Y023533D01*
X011537Y023523D01*
X011580Y023304D01*
X011587Y023295D01*
X011771Y023219D01*
X011782Y023220D01*
X011967Y023345D01*
X011982Y023344D01*
X012140Y023186D01*
X012141Y023171D01*
X012016Y022986D01*
X012015Y022975D01*
X012091Y022791D01*
X012100Y022784D01*
X012319Y022741D01*
X012329Y022730D01*
X012329Y022506D01*
X015866Y018570D02*
X015868Y018595D01*
X015874Y018619D01*
X015883Y018641D01*
X015896Y018662D01*
X015912Y018681D01*
X015931Y018697D01*
X015952Y018710D01*
X015974Y018719D01*
X015998Y018725D01*
X016023Y018727D01*
X016048Y018725D01*
X016072Y018719D01*
X016094Y018710D01*
X016115Y018697D01*
X016134Y018681D01*
X016150Y018662D01*
X016163Y018641D01*
X016172Y018619D01*
X016178Y018595D01*
X016180Y018570D01*
X016178Y018545D01*
X016172Y018521D01*
X016163Y018499D01*
X016150Y018478D01*
X016134Y018459D01*
X016115Y018443D01*
X016094Y018430D01*
X016072Y018421D01*
X016048Y018415D01*
X016023Y018413D01*
X015998Y018415D01*
X015974Y018421D01*
X015952Y018430D01*
X015931Y018443D01*
X015912Y018459D01*
X015896Y018478D01*
X015883Y018499D01*
X015874Y018521D01*
X015868Y018545D01*
X015866Y018570D01*
X016141Y018452D02*
X016141Y015539D01*
X019252Y015539D01*
X019252Y018452D01*
X016141Y018452D01*
X016102Y017980D02*
X016102Y017941D01*
X015708Y017941D01*
X015708Y017980D01*
X015708Y017941D02*
X015708Y017901D01*
X016102Y017901D02*
X016102Y017941D01*
X016102Y016051D02*
X016102Y016011D01*
X015708Y016011D01*
X015708Y015972D01*
X015708Y016011D02*
X015708Y016051D01*
X016102Y016011D02*
X016102Y015972D01*
X015866Y012665D02*
X015868Y012690D01*
X015874Y012714D01*
X015883Y012736D01*
X015896Y012757D01*
X015912Y012776D01*
X015931Y012792D01*
X015952Y012805D01*
X015974Y012814D01*
X015998Y012820D01*
X016023Y012822D01*
X016048Y012820D01*
X016072Y012814D01*
X016094Y012805D01*
X016115Y012792D01*
X016134Y012776D01*
X016150Y012757D01*
X016163Y012736D01*
X016172Y012714D01*
X016178Y012690D01*
X016180Y012665D01*
X016178Y012640D01*
X016172Y012616D01*
X016163Y012594D01*
X016150Y012573D01*
X016134Y012554D01*
X016115Y012538D01*
X016094Y012525D01*
X016072Y012516D01*
X016048Y012510D01*
X016023Y012508D01*
X015998Y012510D01*
X015974Y012516D01*
X015952Y012525D01*
X015931Y012538D01*
X015912Y012554D01*
X015896Y012573D01*
X015883Y012594D01*
X015874Y012616D01*
X015868Y012640D01*
X015866Y012665D01*
X016141Y012547D02*
X016141Y009633D01*
X019252Y009633D01*
X019252Y012547D01*
X016141Y012547D01*
X016102Y012074D02*
X016102Y012035D01*
X015708Y012035D01*
X015708Y012074D01*
X015708Y012035D02*
X015708Y011996D01*
X016102Y011996D02*
X016102Y012035D01*
X016102Y010145D02*
X016102Y010106D01*
X015708Y010106D01*
X015708Y010067D01*
X015708Y010106D02*
X015708Y010145D01*
X016102Y010106D02*
X016102Y010067D01*
X012329Y010695D02*
X012319Y010683D01*
X012100Y010641D01*
X012091Y010634D01*
X012015Y010450D01*
X012016Y010439D01*
X012141Y010254D01*
X012140Y010239D01*
X011982Y010081D01*
X011967Y010079D01*
X011782Y010205D01*
X011771Y010206D01*
X011686Y010171D01*
X011671Y010177D01*
X011516Y010557D01*
X011522Y010572D01*
X011306Y010572D01*
X011312Y010557D01*
X011157Y010177D01*
X011141Y010171D01*
X011057Y010206D01*
X011046Y010205D01*
X010861Y010079D01*
X010846Y010081D01*
X010688Y010239D01*
X010686Y010254D01*
X010812Y010439D01*
X010813Y010450D01*
X010737Y010634D01*
X010728Y010641D01*
X010509Y010683D01*
X010499Y010695D01*
X010499Y010919D01*
X010509Y010930D01*
X010728Y010973D01*
X010737Y010980D01*
X010813Y011164D01*
X010812Y011175D01*
X010686Y011360D01*
X010688Y011375D01*
X010846Y011533D01*
X010861Y011534D01*
X011046Y011409D01*
X011057Y011408D01*
X011241Y011484D01*
X011248Y011493D01*
X011290Y011712D01*
X011302Y011722D01*
X011526Y011722D01*
X011537Y011712D01*
X011580Y011493D01*
X011587Y011484D01*
X011771Y011408D01*
X011782Y011409D01*
X011967Y011534D01*
X011982Y011533D01*
X012140Y011375D01*
X012141Y011360D01*
X012016Y011175D01*
X012015Y011164D01*
X012091Y010980D01*
X012100Y010973D01*
X012319Y010930D01*
X012329Y010919D01*
X012329Y010695D01*
X011967Y015985D02*
X011782Y016110D01*
X011771Y016111D01*
X011686Y016076D01*
X011671Y016083D01*
X011516Y016462D01*
X011522Y016478D01*
X011306Y016478D01*
X011312Y016462D01*
X011157Y016083D01*
X011141Y016076D01*
X011057Y016111D01*
X011046Y016110D01*
X010861Y015985D01*
X010846Y015986D01*
X010688Y016145D01*
X010686Y016160D01*
X010812Y016345D01*
X010813Y016356D01*
X010737Y016540D01*
X010728Y016547D01*
X010509Y016589D01*
X010499Y016601D01*
X010499Y016824D01*
X010509Y016836D01*
X010728Y016878D01*
X010737Y016885D01*
X010813Y017069D01*
X010812Y017080D01*
X010686Y017265D01*
X010688Y017280D01*
X010846Y017438D01*
X010861Y017440D01*
X011046Y017315D01*
X011057Y017313D01*
X011241Y017390D01*
X011248Y017398D01*
X011290Y017618D01*
X011302Y017627D01*
X011526Y017627D01*
X011537Y017618D01*
X011580Y017398D01*
X011587Y017390D01*
X011771Y017313D01*
X011782Y017315D01*
X011967Y017440D01*
X011982Y017438D01*
X012140Y017280D01*
X012141Y017265D01*
X012016Y017080D01*
X012015Y017069D01*
X012091Y016885D01*
X012100Y016878D01*
X012319Y016836D01*
X012329Y016824D01*
X012329Y016601D01*
X012319Y016589D01*
X012100Y016547D01*
X012091Y016540D01*
X012015Y016356D01*
X012016Y016345D01*
X012141Y016160D01*
X012140Y016145D01*
X011982Y015986D01*
X011967Y015985D01*
X023097Y016601D02*
X023097Y016824D01*
X023107Y016836D01*
X023326Y016878D01*
X023335Y016885D01*
X023411Y017069D01*
X023410Y017080D01*
X023285Y017265D01*
X023286Y017280D01*
X023444Y017438D01*
X023459Y017440D01*
X023645Y017315D01*
X023656Y017313D01*
X023839Y017390D01*
X023847Y017398D01*
X023889Y017618D01*
X023900Y017627D01*
X024124Y017627D01*
X024136Y017618D01*
X024178Y017398D01*
X024185Y017390D01*
X024369Y017313D01*
X024380Y017315D01*
X024565Y017440D01*
X024580Y017438D01*
X024738Y017280D01*
X024740Y017265D01*
X024615Y017080D01*
X024613Y017069D01*
X024690Y016885D01*
X024698Y016878D01*
X024918Y016836D01*
X024927Y016824D01*
X024927Y016601D01*
X024918Y016589D01*
X024698Y016547D01*
X024690Y016540D01*
X024613Y016356D01*
X024615Y016345D01*
X024740Y016160D01*
X024738Y016145D01*
X024580Y015986D01*
X024565Y015985D01*
X024380Y016110D01*
X024369Y016111D01*
X024285Y016076D01*
X024269Y016083D01*
X024114Y016462D01*
X024120Y016478D01*
X023904Y016478D01*
X023910Y016462D01*
X023755Y016083D01*
X023740Y016076D01*
X023656Y016111D01*
X023645Y016110D01*
X023459Y015985D01*
X023444Y015986D01*
X023286Y016145D01*
X023285Y016160D01*
X023410Y016345D01*
X023411Y016356D01*
X023335Y016540D01*
X023326Y016547D01*
X023107Y016589D01*
X023097Y016601D01*
M02*
