G75*
%MOIN*%
%OFA0B0*%
%FSLAX24Y24*%
%IPPOS*%
%LPD*%
%AMOC8*
5,1,8,0,0,1.08239X$1,22.5*
%
%ADD10C,0.0000*%
D10*
X004291Y005923D02*
X008149Y005923D01*
X008176Y005925D01*
X008202Y005930D01*
X008227Y005939D01*
X008251Y005952D01*
X008273Y005967D01*
X008293Y005986D01*
X008310Y006006D01*
X008324Y006029D01*
X008335Y006054D01*
X008342Y006080D01*
X008346Y006107D01*
X008346Y006133D01*
X008342Y006160D01*
X008335Y006186D01*
X008324Y006211D01*
X008310Y006234D01*
X008293Y006254D01*
X008273Y006273D01*
X008251Y006288D01*
X008227Y006301D01*
X008202Y006310D01*
X008176Y006315D01*
X008149Y006317D01*
X008103Y006317D01*
X013346Y006317D01*
X013110Y006317D01*
X013110Y006316D02*
X013087Y006314D01*
X013064Y006309D01*
X013042Y006300D01*
X013022Y006289D01*
X013003Y006274D01*
X012987Y006257D01*
X012974Y006238D01*
X012964Y006216D01*
X012957Y006194D01*
X012953Y006171D01*
X012953Y006147D01*
X012957Y006124D01*
X012964Y006102D01*
X012974Y006081D01*
X012987Y006061D01*
X013003Y006044D01*
X013022Y006029D01*
X013042Y006018D01*
X013064Y006009D01*
X013087Y006004D01*
X013110Y006002D01*
X013661Y006002D01*
X014015Y005923D02*
X014055Y005923D01*
X014960Y005923D01*
X014527Y005923D02*
X018385Y005923D01*
X018412Y005925D01*
X018438Y005930D01*
X018463Y005939D01*
X018487Y005952D01*
X018509Y005967D01*
X018529Y005986D01*
X018546Y006006D01*
X018560Y006029D01*
X018571Y006054D01*
X018578Y006080D01*
X018582Y006107D01*
X018582Y006133D01*
X018578Y006160D01*
X018571Y006186D01*
X018560Y006211D01*
X018546Y006234D01*
X018529Y006254D01*
X018509Y006273D01*
X018487Y006288D01*
X018463Y006301D01*
X018438Y006310D01*
X018412Y006315D01*
X018385Y006317D01*
X018339Y006317D01*
X023582Y006317D01*
X023346Y006317D01*
X023346Y006316D02*
X023323Y006314D01*
X023300Y006309D01*
X023278Y006300D01*
X023258Y006289D01*
X023239Y006274D01*
X023223Y006257D01*
X023210Y006238D01*
X023200Y006216D01*
X023193Y006194D01*
X023189Y006171D01*
X023189Y006147D01*
X023193Y006124D01*
X023200Y006102D01*
X023210Y006081D01*
X023223Y006061D01*
X023239Y006044D01*
X023258Y006029D01*
X023278Y006018D01*
X023300Y006009D01*
X023323Y006004D01*
X023346Y006002D01*
X023897Y006002D01*
X023930Y006004D01*
X023962Y006009D01*
X023994Y006017D01*
X024025Y006029D01*
X024055Y006044D01*
X024082Y006062D01*
X024108Y006083D01*
X024131Y006106D01*
X024152Y006132D01*
X024170Y006159D01*
X024185Y006189D01*
X024197Y006220D01*
X024205Y006252D01*
X024210Y006284D01*
X024212Y006317D01*
X024212Y006829D01*
X024210Y006852D01*
X024205Y006875D01*
X024196Y006897D01*
X024185Y006917D01*
X024170Y006936D01*
X024153Y006952D01*
X024134Y006965D01*
X024112Y006975D01*
X024090Y006982D01*
X024067Y006986D01*
X024043Y006986D01*
X024020Y006982D01*
X023998Y006975D01*
X023977Y006965D01*
X023957Y006952D01*
X023940Y006936D01*
X023925Y006917D01*
X023914Y006897D01*
X023905Y006875D01*
X023900Y006852D01*
X023898Y006829D01*
X023897Y006829D02*
X023897Y006632D01*
X023897Y010333D01*
X023897Y010136D01*
X023898Y010136D02*
X023900Y010113D01*
X023905Y010090D01*
X023914Y010068D01*
X023925Y010048D01*
X023940Y010029D01*
X023957Y010013D01*
X023977Y010000D01*
X023998Y009990D01*
X024020Y009983D01*
X024043Y009979D01*
X024067Y009979D01*
X024090Y009983D01*
X024112Y009990D01*
X024134Y010000D01*
X024153Y010013D01*
X024170Y010029D01*
X024185Y010048D01*
X024196Y010068D01*
X024205Y010090D01*
X024210Y010113D01*
X024212Y010136D01*
X024212Y010648D01*
X024210Y010681D01*
X024205Y010713D01*
X024197Y010745D01*
X024185Y010776D01*
X024170Y010806D01*
X024152Y010833D01*
X024131Y010859D01*
X024108Y010882D01*
X024082Y010903D01*
X024055Y010921D01*
X024025Y010936D01*
X023994Y010948D01*
X023962Y010956D01*
X023930Y010961D01*
X023897Y010963D01*
X023346Y010963D01*
X023346Y010962D02*
X023323Y010960D01*
X023300Y010955D01*
X023278Y010946D01*
X023258Y010935D01*
X023239Y010920D01*
X023223Y010903D01*
X023210Y010884D01*
X023200Y010862D01*
X023193Y010840D01*
X023189Y010817D01*
X023189Y010793D01*
X023193Y010770D01*
X023200Y010748D01*
X023210Y010727D01*
X023223Y010707D01*
X023239Y010690D01*
X023258Y010675D01*
X023278Y010664D01*
X023300Y010655D01*
X023323Y010650D01*
X023346Y010648D01*
X023582Y010648D01*
X014763Y010648D01*
X014960Y010648D01*
X014921Y010648D02*
X014944Y010650D01*
X014967Y010655D01*
X014989Y010664D01*
X015009Y010675D01*
X015028Y010690D01*
X015044Y010707D01*
X015057Y010727D01*
X015067Y010748D01*
X015074Y010770D01*
X015078Y010793D01*
X015078Y010817D01*
X015074Y010840D01*
X015067Y010862D01*
X015057Y010884D01*
X015044Y010903D01*
X015028Y010920D01*
X015009Y010935D01*
X014989Y010946D01*
X014967Y010955D01*
X014944Y010960D01*
X014921Y010962D01*
X014921Y010963D02*
X014448Y010963D01*
X014415Y010961D01*
X014383Y010956D01*
X014351Y010948D01*
X014320Y010936D01*
X014291Y010921D01*
X014263Y010903D01*
X014237Y010882D01*
X014214Y010859D01*
X014193Y010833D01*
X014175Y010806D01*
X014160Y010776D01*
X014148Y010745D01*
X014140Y010713D01*
X014135Y010681D01*
X014133Y010648D01*
X014134Y010648D02*
X014134Y010136D01*
X014136Y010113D01*
X014141Y010090D01*
X014150Y010068D01*
X014161Y010048D01*
X014176Y010029D01*
X014193Y010013D01*
X014213Y010000D01*
X014234Y009990D01*
X014256Y009983D01*
X014279Y009979D01*
X014303Y009979D01*
X014326Y009983D01*
X014348Y009990D01*
X014370Y010000D01*
X014389Y010013D01*
X014406Y010029D01*
X014421Y010048D01*
X014432Y010068D01*
X014441Y010090D01*
X014446Y010113D01*
X014448Y010136D01*
X014448Y010333D01*
X014448Y007144D01*
X014448Y007301D01*
X014446Y007324D01*
X014441Y007347D01*
X014432Y007369D01*
X014421Y007389D01*
X014406Y007408D01*
X014389Y007424D01*
X014370Y007437D01*
X014348Y007447D01*
X014326Y007454D01*
X014303Y007458D01*
X014279Y007458D01*
X014256Y007454D01*
X014234Y007447D01*
X014213Y007437D01*
X014193Y007424D01*
X014176Y007408D01*
X014161Y007389D01*
X014150Y007369D01*
X014141Y007347D01*
X014136Y007324D01*
X014134Y007301D01*
X014134Y006317D01*
X014449Y006317D02*
X014447Y006278D01*
X014441Y006240D01*
X014432Y006203D01*
X014419Y006166D01*
X014402Y006131D01*
X014383Y006098D01*
X014360Y006067D01*
X014334Y006038D01*
X014305Y006012D01*
X014274Y005989D01*
X014241Y005970D01*
X014206Y005953D01*
X014169Y005940D01*
X014132Y005931D01*
X014094Y005925D01*
X014055Y005923D01*
X014015Y005923D02*
X013110Y005923D01*
X013083Y005925D01*
X013057Y005930D01*
X013032Y005939D01*
X013008Y005952D01*
X012986Y005967D01*
X012966Y005986D01*
X012949Y006006D01*
X012935Y006029D01*
X012924Y006054D01*
X012917Y006080D01*
X012913Y006107D01*
X012913Y006133D01*
X012917Y006160D01*
X012924Y006186D01*
X012935Y006211D01*
X012949Y006234D01*
X012966Y006254D01*
X012986Y006273D01*
X013008Y006288D01*
X013032Y006301D01*
X013057Y006310D01*
X013083Y006315D01*
X013110Y006317D01*
X013346Y006317D02*
X013379Y006319D01*
X013411Y006324D01*
X013443Y006332D01*
X013474Y006344D01*
X013504Y006359D01*
X013531Y006377D01*
X013557Y006398D01*
X013580Y006421D01*
X013601Y006447D01*
X013619Y006474D01*
X013634Y006504D01*
X013646Y006535D01*
X013654Y006567D01*
X013659Y006599D01*
X013661Y006632D01*
X013661Y006829D01*
X013662Y006829D02*
X013664Y006852D01*
X013669Y006875D01*
X013678Y006897D01*
X013689Y006917D01*
X013704Y006936D01*
X013721Y006952D01*
X013741Y006965D01*
X013762Y006975D01*
X013784Y006982D01*
X013807Y006986D01*
X013831Y006986D01*
X013854Y006982D01*
X013876Y006975D01*
X013898Y006965D01*
X013917Y006952D01*
X013934Y006936D01*
X013949Y006917D01*
X013960Y006897D01*
X013969Y006875D01*
X013974Y006852D01*
X013976Y006829D01*
X013976Y006317D01*
X013661Y006317D02*
X013663Y006278D01*
X013669Y006240D01*
X013678Y006203D01*
X013691Y006166D01*
X013708Y006131D01*
X013727Y006098D01*
X013750Y006067D01*
X013776Y006038D01*
X013805Y006012D01*
X013836Y005989D01*
X013869Y005970D01*
X013904Y005953D01*
X013941Y005940D01*
X013978Y005931D01*
X014016Y005925D01*
X014055Y005923D01*
X014448Y006317D02*
X014448Y022459D01*
X014448Y022774D02*
X014415Y022772D01*
X014383Y022767D01*
X014351Y022759D01*
X014320Y022747D01*
X014291Y022732D01*
X014263Y022714D01*
X014237Y022693D01*
X014214Y022670D01*
X014193Y022644D01*
X014175Y022617D01*
X014160Y022587D01*
X014148Y022556D01*
X014140Y022524D01*
X014135Y022492D01*
X014133Y022459D01*
X014134Y022459D02*
X014134Y021947D01*
X014136Y021924D01*
X014141Y021901D01*
X014150Y021879D01*
X014161Y021859D01*
X014176Y021840D01*
X014193Y021824D01*
X014213Y021811D01*
X014234Y021801D01*
X014256Y021794D01*
X014279Y021790D01*
X014303Y021790D01*
X014326Y021794D01*
X014348Y021801D01*
X014370Y021811D01*
X014389Y021824D01*
X014406Y021840D01*
X014421Y021859D01*
X014432Y021879D01*
X014441Y021901D01*
X014446Y021924D01*
X014448Y021947D01*
X014448Y022144D01*
X014448Y018955D01*
X014448Y019112D01*
X014446Y019135D01*
X014441Y019158D01*
X014432Y019180D01*
X014421Y019200D01*
X014406Y019219D01*
X014389Y019235D01*
X014370Y019248D01*
X014348Y019258D01*
X014326Y019265D01*
X014303Y019269D01*
X014279Y019269D01*
X014256Y019265D01*
X014234Y019258D01*
X014213Y019248D01*
X014193Y019235D01*
X014176Y019219D01*
X014161Y019200D01*
X014150Y019180D01*
X014141Y019158D01*
X014136Y019135D01*
X014134Y019112D01*
X014134Y018128D01*
X013976Y018128D02*
X013976Y018640D01*
X013974Y018663D01*
X013969Y018686D01*
X013960Y018708D01*
X013949Y018728D01*
X013934Y018747D01*
X013917Y018763D01*
X013898Y018776D01*
X013876Y018786D01*
X013854Y018793D01*
X013831Y018797D01*
X013807Y018797D01*
X013784Y018793D01*
X013762Y018786D01*
X013741Y018776D01*
X013721Y018763D01*
X013704Y018747D01*
X013689Y018728D01*
X013678Y018708D01*
X013669Y018686D01*
X013664Y018663D01*
X013662Y018640D01*
X013661Y018640D02*
X013661Y018443D01*
X013661Y022144D01*
X013661Y021947D01*
X013662Y021947D02*
X013664Y021924D01*
X013669Y021901D01*
X013678Y021879D01*
X013689Y021859D01*
X013704Y021840D01*
X013721Y021824D01*
X013741Y021811D01*
X013762Y021801D01*
X013784Y021794D01*
X013807Y021790D01*
X013831Y021790D01*
X013854Y021794D01*
X013876Y021801D01*
X013898Y021811D01*
X013917Y021824D01*
X013934Y021840D01*
X013949Y021859D01*
X013960Y021879D01*
X013969Y021901D01*
X013974Y021924D01*
X013976Y021947D01*
X013976Y022459D01*
X013661Y022459D02*
X013663Y022498D01*
X013669Y022536D01*
X013678Y022573D01*
X013691Y022610D01*
X013708Y022645D01*
X013727Y022678D01*
X013750Y022709D01*
X013776Y022738D01*
X013805Y022764D01*
X013836Y022787D01*
X013869Y022806D01*
X013904Y022823D01*
X013941Y022836D01*
X013978Y022845D01*
X014016Y022851D01*
X014055Y022853D01*
X014094Y022851D01*
X014132Y022845D01*
X014169Y022836D01*
X014206Y022823D01*
X014241Y022806D01*
X014274Y022787D01*
X014305Y022764D01*
X014334Y022738D01*
X014360Y022709D01*
X014383Y022678D01*
X014402Y022645D01*
X014419Y022610D01*
X014432Y022573D01*
X014441Y022536D01*
X014447Y022498D01*
X014449Y022459D01*
X014763Y022459D02*
X014960Y022459D01*
X014921Y022459D02*
X014944Y022461D01*
X014967Y022466D01*
X014989Y022475D01*
X015009Y022486D01*
X015028Y022501D01*
X015044Y022518D01*
X015057Y022538D01*
X015067Y022559D01*
X015074Y022581D01*
X015078Y022604D01*
X015078Y022628D01*
X015074Y022651D01*
X015067Y022673D01*
X015057Y022695D01*
X015044Y022714D01*
X015028Y022731D01*
X015009Y022746D01*
X014989Y022757D01*
X014967Y022766D01*
X014944Y022771D01*
X014921Y022773D01*
X014921Y022774D02*
X014448Y022774D01*
X014763Y022459D02*
X023582Y022459D01*
X023346Y022459D01*
X023323Y022461D01*
X023300Y022466D01*
X023278Y022475D01*
X023258Y022486D01*
X023239Y022501D01*
X023223Y022518D01*
X023210Y022538D01*
X023200Y022559D01*
X023193Y022581D01*
X023189Y022604D01*
X023189Y022628D01*
X023193Y022651D01*
X023200Y022673D01*
X023210Y022695D01*
X023223Y022714D01*
X023239Y022731D01*
X023258Y022746D01*
X023278Y022757D01*
X023300Y022766D01*
X023323Y022771D01*
X023346Y022773D01*
X023346Y022774D02*
X023897Y022774D01*
X023930Y022772D01*
X023962Y022767D01*
X023994Y022759D01*
X024025Y022747D01*
X024055Y022732D01*
X024082Y022714D01*
X024108Y022693D01*
X024131Y022670D01*
X024152Y022644D01*
X024170Y022617D01*
X024185Y022587D01*
X024197Y022556D01*
X024205Y022524D01*
X024210Y022492D01*
X024212Y022459D01*
X024212Y021947D01*
X024210Y021924D01*
X024205Y021901D01*
X024196Y021879D01*
X024185Y021859D01*
X024170Y021840D01*
X024153Y021824D01*
X024134Y021811D01*
X024112Y021801D01*
X024090Y021794D01*
X024067Y021790D01*
X024043Y021790D01*
X024020Y021794D01*
X023998Y021801D01*
X023977Y021811D01*
X023957Y021824D01*
X023940Y021840D01*
X023925Y021859D01*
X023914Y021879D01*
X023905Y021901D01*
X023900Y021924D01*
X023898Y021947D01*
X023897Y021947D02*
X023897Y022144D01*
X023897Y018443D01*
X023897Y018640D01*
X023898Y018640D02*
X023900Y018663D01*
X023905Y018686D01*
X023914Y018708D01*
X023925Y018728D01*
X023940Y018747D01*
X023957Y018763D01*
X023977Y018776D01*
X023998Y018786D01*
X024020Y018793D01*
X024043Y018797D01*
X024067Y018797D01*
X024090Y018793D01*
X024112Y018786D01*
X024134Y018776D01*
X024153Y018763D01*
X024170Y018747D01*
X024185Y018728D01*
X024196Y018708D01*
X024205Y018686D01*
X024210Y018663D01*
X024212Y018640D01*
X024212Y018128D01*
X024210Y018095D01*
X024205Y018063D01*
X024197Y018031D01*
X024185Y018000D01*
X024170Y017971D01*
X024152Y017943D01*
X024131Y017917D01*
X024108Y017894D01*
X024082Y017873D01*
X024055Y017855D01*
X024025Y017840D01*
X023994Y017828D01*
X023962Y017820D01*
X023930Y017815D01*
X023897Y017813D01*
X023346Y017813D01*
X023323Y017815D01*
X023300Y017820D01*
X023278Y017829D01*
X023258Y017840D01*
X023239Y017855D01*
X023223Y017872D01*
X023210Y017892D01*
X023200Y017913D01*
X023193Y017935D01*
X023189Y017958D01*
X023189Y017982D01*
X023193Y018005D01*
X023200Y018027D01*
X023210Y018049D01*
X023223Y018068D01*
X023239Y018085D01*
X023258Y018100D01*
X023278Y018111D01*
X023300Y018120D01*
X023323Y018125D01*
X023346Y018127D01*
X023346Y018128D02*
X023582Y018128D01*
X018339Y018128D01*
X018385Y018128D01*
X018339Y018128D02*
X018324Y018130D01*
X018309Y018134D01*
X018295Y018141D01*
X018283Y018151D01*
X018284Y018151D02*
X018054Y018380D01*
X018284Y018151D01*
X018283Y018151D02*
X018295Y018141D01*
X018309Y018134D01*
X018324Y018130D01*
X018339Y018128D01*
X018385Y018128D02*
X018412Y018126D01*
X018438Y018121D01*
X018463Y018112D01*
X018487Y018099D01*
X018509Y018084D01*
X018529Y018065D01*
X018546Y018045D01*
X018560Y018022D01*
X018571Y017997D01*
X018578Y017971D01*
X018582Y017944D01*
X018582Y017918D01*
X018578Y017891D01*
X018571Y017865D01*
X018560Y017840D01*
X018546Y017817D01*
X018529Y017797D01*
X018509Y017778D01*
X018487Y017763D01*
X018463Y017750D01*
X018438Y017741D01*
X018412Y017736D01*
X018385Y017734D01*
X014527Y017734D01*
X014488Y017736D01*
X014450Y017742D01*
X014413Y017751D01*
X014376Y017764D01*
X014341Y017781D01*
X014308Y017800D01*
X014277Y017823D01*
X014248Y017849D01*
X014222Y017878D01*
X014199Y017909D01*
X014180Y017942D01*
X014163Y017977D01*
X014150Y018014D01*
X014141Y018051D01*
X014135Y018089D01*
X014133Y018128D01*
X013976Y018128D02*
X013974Y018095D01*
X013969Y018063D01*
X013961Y018031D01*
X013949Y018000D01*
X013934Y017971D01*
X013916Y017943D01*
X013895Y017917D01*
X013872Y017894D01*
X013846Y017873D01*
X013819Y017855D01*
X013789Y017840D01*
X013758Y017828D01*
X013726Y017820D01*
X013694Y017815D01*
X013661Y017813D01*
X013110Y017813D01*
X013087Y017815D01*
X013064Y017820D01*
X013042Y017829D01*
X013022Y017840D01*
X013003Y017855D01*
X012987Y017872D01*
X012974Y017892D01*
X012964Y017913D01*
X012957Y017935D01*
X012953Y017958D01*
X012953Y017982D01*
X012957Y018005D01*
X012964Y018027D01*
X012974Y018049D01*
X012987Y018068D01*
X013003Y018085D01*
X013022Y018100D01*
X013042Y018111D01*
X013064Y018120D01*
X013087Y018125D01*
X013110Y018127D01*
X013110Y018128D02*
X013346Y018128D01*
X008103Y018128D01*
X008149Y018128D01*
X008103Y018128D02*
X008088Y018130D01*
X008073Y018134D01*
X008059Y018141D01*
X008047Y018151D01*
X007818Y018380D01*
X008047Y018151D01*
X008059Y018141D01*
X008073Y018134D01*
X008088Y018130D01*
X008103Y018128D01*
X008149Y018128D02*
X008176Y018126D01*
X008202Y018121D01*
X008227Y018112D01*
X008251Y018099D01*
X008273Y018084D01*
X008293Y018065D01*
X008310Y018045D01*
X008324Y018022D01*
X008335Y017997D01*
X008342Y017971D01*
X008346Y017944D01*
X008346Y017918D01*
X008342Y017891D01*
X008335Y017865D01*
X008324Y017840D01*
X008310Y017817D01*
X008293Y017797D01*
X008273Y017778D01*
X008251Y017763D01*
X008227Y017750D01*
X008202Y017741D01*
X008176Y017736D01*
X008149Y017734D01*
X004291Y017734D01*
X004252Y017736D01*
X004214Y017742D01*
X004177Y017751D01*
X004140Y017764D01*
X004105Y017781D01*
X004072Y017800D01*
X004041Y017823D01*
X004012Y017849D01*
X003986Y017878D01*
X003963Y017909D01*
X003944Y017942D01*
X003927Y017977D01*
X003914Y018014D01*
X003905Y018051D01*
X003899Y018089D01*
X003897Y018128D01*
X003897Y019112D01*
X003898Y019112D02*
X003900Y019135D01*
X003905Y019158D01*
X003914Y019180D01*
X003925Y019200D01*
X003940Y019219D01*
X003957Y019235D01*
X003977Y019248D01*
X003998Y019258D01*
X004020Y019265D01*
X004043Y019269D01*
X004067Y019269D01*
X004090Y019265D01*
X004112Y019258D01*
X004134Y019248D01*
X004153Y019235D01*
X004170Y019219D01*
X004185Y019200D01*
X004196Y019180D01*
X004205Y019158D01*
X004210Y019135D01*
X004212Y019112D01*
X004212Y018955D01*
X004212Y022144D01*
X004212Y021947D01*
X004210Y021924D01*
X004205Y021901D01*
X004196Y021879D01*
X004185Y021859D01*
X004170Y021840D01*
X004153Y021824D01*
X004134Y021811D01*
X004112Y021801D01*
X004090Y021794D01*
X004067Y021790D01*
X004043Y021790D01*
X004020Y021794D01*
X003998Y021801D01*
X003977Y021811D01*
X003957Y021824D01*
X003940Y021840D01*
X003925Y021859D01*
X003914Y021879D01*
X003905Y021901D01*
X003900Y021924D01*
X003898Y021947D01*
X003897Y021947D02*
X003897Y022459D01*
X003899Y022492D01*
X003904Y022524D01*
X003912Y022556D01*
X003924Y022587D01*
X003939Y022617D01*
X003957Y022644D01*
X003978Y022670D01*
X004001Y022693D01*
X004027Y022714D01*
X004055Y022732D01*
X004084Y022747D01*
X004115Y022759D01*
X004147Y022767D01*
X004179Y022772D01*
X004212Y022774D01*
X004685Y022774D01*
X004685Y022773D02*
X004708Y022771D01*
X004731Y022766D01*
X004753Y022757D01*
X004773Y022746D01*
X004792Y022731D01*
X004808Y022714D01*
X004821Y022695D01*
X004831Y022673D01*
X004838Y022651D01*
X004842Y022628D01*
X004842Y022604D01*
X004838Y022581D01*
X004831Y022559D01*
X004821Y022538D01*
X004808Y022518D01*
X004792Y022501D01*
X004773Y022486D01*
X004753Y022475D01*
X004731Y022466D01*
X004708Y022461D01*
X004685Y022459D01*
X004724Y022459D02*
X004527Y022459D01*
X013346Y022459D01*
X013110Y022459D01*
X013087Y022461D01*
X013064Y022466D01*
X013042Y022475D01*
X013022Y022486D01*
X013003Y022501D01*
X012987Y022518D01*
X012974Y022538D01*
X012964Y022559D01*
X012957Y022581D01*
X012953Y022604D01*
X012953Y022628D01*
X012957Y022651D01*
X012964Y022673D01*
X012974Y022695D01*
X012987Y022714D01*
X013003Y022731D01*
X013022Y022746D01*
X013042Y022757D01*
X013064Y022766D01*
X013087Y022771D01*
X013110Y022773D01*
X013110Y022774D02*
X013661Y022774D01*
X013694Y022772D01*
X013726Y022767D01*
X013758Y022759D01*
X013789Y022747D01*
X013819Y022732D01*
X013846Y022714D01*
X013872Y022693D01*
X013895Y022670D01*
X013916Y022644D01*
X013934Y022617D01*
X013949Y022587D01*
X013961Y022556D01*
X013969Y022524D01*
X013974Y022492D01*
X013976Y022459D01*
X013661Y022459D02*
X013661Y006317D01*
X013661Y006002D02*
X013694Y006004D01*
X013726Y006009D01*
X013758Y006017D01*
X013789Y006029D01*
X013819Y006044D01*
X013846Y006062D01*
X013872Y006083D01*
X013895Y006106D01*
X013916Y006132D01*
X013934Y006159D01*
X013949Y006189D01*
X013961Y006220D01*
X013969Y006252D01*
X013974Y006284D01*
X013976Y006317D01*
X013661Y006632D02*
X013661Y010333D01*
X013661Y010136D01*
X013662Y010136D02*
X013664Y010113D01*
X013669Y010090D01*
X013678Y010068D01*
X013689Y010048D01*
X013704Y010029D01*
X013721Y010013D01*
X013741Y010000D01*
X013762Y009990D01*
X013784Y009983D01*
X013807Y009979D01*
X013831Y009979D01*
X013854Y009983D01*
X013876Y009990D01*
X013898Y010000D01*
X013917Y010013D01*
X013934Y010029D01*
X013949Y010048D01*
X013960Y010068D01*
X013969Y010090D01*
X013974Y010113D01*
X013976Y010136D01*
X013976Y010648D01*
X013974Y010681D01*
X013969Y010713D01*
X013961Y010745D01*
X013949Y010776D01*
X013934Y010806D01*
X013916Y010833D01*
X013895Y010859D01*
X013872Y010882D01*
X013846Y010903D01*
X013819Y010921D01*
X013789Y010936D01*
X013758Y010948D01*
X013726Y010956D01*
X013694Y010961D01*
X013661Y010963D01*
X013110Y010963D01*
X013110Y010962D02*
X013087Y010960D01*
X013064Y010955D01*
X013042Y010946D01*
X013022Y010935D01*
X013003Y010920D01*
X012987Y010903D01*
X012974Y010884D01*
X012964Y010862D01*
X012957Y010840D01*
X012953Y010817D01*
X012953Y010793D01*
X012957Y010770D01*
X012964Y010748D01*
X012974Y010727D01*
X012987Y010707D01*
X013003Y010690D01*
X013022Y010675D01*
X013042Y010664D01*
X013064Y010655D01*
X013087Y010650D01*
X013110Y010648D01*
X013346Y010648D01*
X004527Y010648D01*
X004724Y010648D01*
X004685Y010648D02*
X004708Y010650D01*
X004731Y010655D01*
X004753Y010664D01*
X004773Y010675D01*
X004792Y010690D01*
X004808Y010707D01*
X004821Y010727D01*
X004831Y010748D01*
X004838Y010770D01*
X004842Y010793D01*
X004842Y010817D01*
X004838Y010840D01*
X004831Y010862D01*
X004821Y010884D01*
X004808Y010903D01*
X004792Y010920D01*
X004773Y010935D01*
X004753Y010946D01*
X004731Y010955D01*
X004708Y010960D01*
X004685Y010962D01*
X004685Y010963D02*
X004212Y010963D01*
X004179Y010961D01*
X004147Y010956D01*
X004115Y010948D01*
X004084Y010936D01*
X004055Y010921D01*
X004027Y010903D01*
X004001Y010882D01*
X003978Y010859D01*
X003957Y010833D01*
X003939Y010806D01*
X003924Y010776D01*
X003912Y010745D01*
X003904Y010713D01*
X003899Y010681D01*
X003897Y010648D01*
X003897Y010136D01*
X003898Y010136D02*
X003900Y010113D01*
X003905Y010090D01*
X003914Y010068D01*
X003925Y010048D01*
X003940Y010029D01*
X003957Y010013D01*
X003977Y010000D01*
X003998Y009990D01*
X004020Y009983D01*
X004043Y009979D01*
X004067Y009979D01*
X004090Y009983D01*
X004112Y009990D01*
X004134Y010000D01*
X004153Y010013D01*
X004170Y010029D01*
X004185Y010048D01*
X004196Y010068D01*
X004205Y010090D01*
X004210Y010113D01*
X004212Y010136D01*
X004212Y010333D01*
X004212Y007144D01*
X004212Y007301D01*
X004210Y007324D01*
X004205Y007347D01*
X004196Y007369D01*
X004185Y007389D01*
X004170Y007408D01*
X004153Y007424D01*
X004134Y007437D01*
X004112Y007447D01*
X004090Y007454D01*
X004067Y007458D01*
X004043Y007458D01*
X004020Y007454D01*
X003998Y007447D01*
X003977Y007437D01*
X003957Y007424D01*
X003940Y007408D01*
X003925Y007389D01*
X003914Y007369D01*
X003905Y007347D01*
X003900Y007324D01*
X003898Y007301D01*
X003897Y007301D02*
X003897Y006317D01*
X003899Y006278D01*
X003905Y006240D01*
X003914Y006203D01*
X003927Y006166D01*
X003944Y006131D01*
X003963Y006098D01*
X003986Y006067D01*
X004012Y006038D01*
X004041Y006012D01*
X004072Y005989D01*
X004105Y005970D01*
X004140Y005953D01*
X004177Y005940D01*
X004214Y005931D01*
X004252Y005925D01*
X004291Y005923D01*
X004527Y006829D02*
X006090Y006829D01*
X004527Y006829D01*
X004494Y006831D01*
X004462Y006836D01*
X004430Y006844D01*
X004399Y006856D01*
X004370Y006871D01*
X004342Y006889D01*
X004316Y006910D01*
X004293Y006933D01*
X004272Y006959D01*
X004254Y006987D01*
X004239Y007016D01*
X004227Y007047D01*
X004219Y007079D01*
X004214Y007111D01*
X004212Y007144D01*
X004214Y007111D01*
X004219Y007079D01*
X004227Y007047D01*
X004239Y007016D01*
X004254Y006987D01*
X004272Y006959D01*
X004293Y006933D01*
X004316Y006910D01*
X004342Y006889D01*
X004370Y006871D01*
X004399Y006856D01*
X004430Y006844D01*
X004462Y006836D01*
X004494Y006831D01*
X004527Y006829D01*
X006090Y006829D02*
X006121Y006827D01*
X006151Y006823D01*
X006181Y006815D01*
X006211Y006805D01*
X006238Y006792D01*
X006265Y006776D01*
X006290Y006757D01*
X006313Y006737D01*
X006312Y006736D02*
X006640Y006409D01*
X006312Y006736D01*
X006313Y006737D02*
X006290Y006757D01*
X006265Y006776D01*
X006238Y006792D01*
X006211Y006805D01*
X006181Y006815D01*
X006151Y006823D01*
X006121Y006827D01*
X006090Y006829D01*
X006639Y006409D02*
X006662Y006389D01*
X006687Y006370D01*
X006714Y006354D01*
X006741Y006341D01*
X006771Y006331D01*
X006801Y006323D01*
X006831Y006319D01*
X006862Y006317D01*
X006850Y006317D01*
X006862Y006317D02*
X007244Y006317D01*
X006862Y006317D01*
X006831Y006319D01*
X006801Y006323D01*
X006771Y006331D01*
X006741Y006341D01*
X006714Y006354D01*
X006687Y006370D01*
X006662Y006389D01*
X006639Y006409D01*
X007244Y006317D02*
X007259Y006319D01*
X007274Y006323D01*
X007288Y006330D01*
X007300Y006340D01*
X007310Y006352D01*
X007317Y006366D01*
X007321Y006381D01*
X007323Y006396D01*
X007323Y006514D01*
X007323Y006396D01*
X007321Y006381D01*
X007317Y006366D01*
X007310Y006352D01*
X007300Y006340D01*
X007288Y006330D01*
X007274Y006323D01*
X007259Y006319D01*
X007244Y006317D01*
X007322Y006514D02*
X007324Y006529D01*
X007328Y006544D01*
X007335Y006558D01*
X007345Y006570D01*
X007357Y006580D01*
X007371Y006587D01*
X007386Y006591D01*
X007401Y006593D01*
X007401Y006592D02*
X007762Y006592D01*
X007401Y006592D01*
X007401Y006593D02*
X007386Y006591D01*
X007371Y006587D01*
X007357Y006580D01*
X007345Y006570D01*
X007335Y006558D01*
X007328Y006544D01*
X007324Y006529D01*
X007322Y006514D01*
X007762Y006593D02*
X007777Y006591D01*
X007792Y006587D01*
X007806Y006580D01*
X007818Y006570D01*
X007818Y006569D02*
X008047Y006340D01*
X007818Y006569D01*
X007818Y006570D02*
X007806Y006580D01*
X007792Y006587D01*
X007777Y006591D01*
X007762Y006593D01*
X008047Y006340D02*
X008059Y006330D01*
X008073Y006323D01*
X008088Y006319D01*
X008103Y006317D01*
X008088Y006319D01*
X008073Y006323D01*
X008059Y006330D01*
X008047Y006340D01*
X004212Y010333D02*
X004214Y010366D01*
X004219Y010398D01*
X004227Y010430D01*
X004239Y010461D01*
X004254Y010491D01*
X004272Y010518D01*
X004293Y010544D01*
X004316Y010567D01*
X004342Y010588D01*
X004370Y010606D01*
X004399Y010621D01*
X004430Y010633D01*
X004462Y010641D01*
X004494Y010646D01*
X004527Y010648D01*
X004494Y010646D01*
X004462Y010641D01*
X004430Y010633D01*
X004399Y010621D01*
X004370Y010606D01*
X004342Y010588D01*
X004316Y010567D01*
X004293Y010544D01*
X004272Y010518D01*
X004254Y010491D01*
X004239Y010461D01*
X004227Y010430D01*
X004219Y010398D01*
X004214Y010366D01*
X004212Y010333D01*
X004291Y011829D02*
X008149Y011829D01*
X008176Y011831D01*
X008202Y011836D01*
X008227Y011845D01*
X008251Y011858D01*
X008273Y011873D01*
X008293Y011892D01*
X008310Y011912D01*
X008324Y011935D01*
X008335Y011960D01*
X008342Y011986D01*
X008346Y012013D01*
X008346Y012039D01*
X008342Y012066D01*
X008335Y012092D01*
X008324Y012117D01*
X008310Y012140D01*
X008293Y012160D01*
X008273Y012179D01*
X008251Y012194D01*
X008227Y012207D01*
X008202Y012216D01*
X008176Y012221D01*
X008149Y012223D01*
X008149Y012222D02*
X008103Y012222D01*
X013346Y012222D01*
X013110Y012222D01*
X013087Y012220D01*
X013064Y012215D01*
X013042Y012206D01*
X013022Y012195D01*
X013003Y012180D01*
X012987Y012163D01*
X012974Y012144D01*
X012964Y012122D01*
X012957Y012100D01*
X012953Y012077D01*
X012953Y012053D01*
X012957Y012030D01*
X012964Y012008D01*
X012974Y011987D01*
X012987Y011967D01*
X013003Y011950D01*
X013022Y011935D01*
X013042Y011924D01*
X013064Y011915D01*
X013087Y011910D01*
X013110Y011908D01*
X013110Y011907D02*
X013661Y011907D01*
X013694Y011909D01*
X013726Y011914D01*
X013758Y011922D01*
X013789Y011934D01*
X013819Y011949D01*
X013846Y011967D01*
X013872Y011988D01*
X013895Y012011D01*
X013916Y012037D01*
X013934Y012065D01*
X013949Y012094D01*
X013961Y012125D01*
X013969Y012157D01*
X013974Y012189D01*
X013976Y012222D01*
X013976Y012734D01*
X013974Y012757D01*
X013969Y012780D01*
X013960Y012802D01*
X013949Y012822D01*
X013934Y012841D01*
X013917Y012857D01*
X013898Y012870D01*
X013876Y012880D01*
X013854Y012887D01*
X013831Y012891D01*
X013807Y012891D01*
X013784Y012887D01*
X013762Y012880D01*
X013741Y012870D01*
X013721Y012857D01*
X013704Y012841D01*
X013689Y012822D01*
X013678Y012802D01*
X013669Y012780D01*
X013664Y012757D01*
X013662Y012734D01*
X013661Y012734D02*
X013661Y012537D01*
X013661Y016238D01*
X013661Y016041D01*
X013662Y016041D02*
X013664Y016018D01*
X013669Y015995D01*
X013678Y015973D01*
X013689Y015953D01*
X013704Y015934D01*
X013721Y015918D01*
X013741Y015905D01*
X013762Y015895D01*
X013784Y015888D01*
X013807Y015884D01*
X013831Y015884D01*
X013854Y015888D01*
X013876Y015895D01*
X013898Y015905D01*
X013917Y015918D01*
X013934Y015934D01*
X013949Y015953D01*
X013960Y015973D01*
X013969Y015995D01*
X013974Y016018D01*
X013976Y016041D01*
X013976Y016553D01*
X014134Y016553D02*
X014134Y016041D01*
X014136Y016018D01*
X014141Y015995D01*
X014150Y015973D01*
X014161Y015953D01*
X014176Y015934D01*
X014193Y015918D01*
X014213Y015905D01*
X014234Y015895D01*
X014256Y015888D01*
X014279Y015884D01*
X014303Y015884D01*
X014326Y015888D01*
X014348Y015895D01*
X014370Y015905D01*
X014389Y015918D01*
X014406Y015934D01*
X014421Y015953D01*
X014432Y015973D01*
X014441Y015995D01*
X014446Y016018D01*
X014448Y016041D01*
X014448Y016238D01*
X014448Y013049D01*
X014448Y013207D01*
X014446Y013230D01*
X014441Y013253D01*
X014432Y013275D01*
X014421Y013295D01*
X014406Y013314D01*
X014389Y013330D01*
X014370Y013343D01*
X014348Y013353D01*
X014326Y013360D01*
X014303Y013364D01*
X014279Y013364D01*
X014256Y013360D01*
X014234Y013353D01*
X014213Y013343D01*
X014193Y013330D01*
X014176Y013314D01*
X014161Y013295D01*
X014150Y013275D01*
X014141Y013253D01*
X014136Y013230D01*
X014134Y013207D01*
X014134Y012222D01*
X014133Y012222D02*
X014135Y012183D01*
X014141Y012145D01*
X014150Y012108D01*
X014163Y012071D01*
X014180Y012036D01*
X014199Y012003D01*
X014222Y011972D01*
X014248Y011943D01*
X014277Y011917D01*
X014308Y011894D01*
X014341Y011875D01*
X014376Y011858D01*
X014413Y011845D01*
X014450Y011836D01*
X014488Y011830D01*
X014527Y011828D01*
X014527Y011829D02*
X018385Y011829D01*
X018412Y011831D01*
X018438Y011836D01*
X018463Y011845D01*
X018487Y011858D01*
X018509Y011873D01*
X018529Y011892D01*
X018546Y011912D01*
X018560Y011935D01*
X018571Y011960D01*
X018578Y011986D01*
X018582Y012013D01*
X018582Y012039D01*
X018578Y012066D01*
X018571Y012092D01*
X018560Y012117D01*
X018546Y012140D01*
X018529Y012160D01*
X018509Y012179D01*
X018487Y012194D01*
X018463Y012207D01*
X018438Y012216D01*
X018412Y012221D01*
X018385Y012223D01*
X018385Y012222D02*
X018339Y012222D01*
X023582Y012222D01*
X023346Y012222D01*
X023323Y012220D01*
X023300Y012215D01*
X023278Y012206D01*
X023258Y012195D01*
X023239Y012180D01*
X023223Y012163D01*
X023210Y012144D01*
X023200Y012122D01*
X023193Y012100D01*
X023189Y012077D01*
X023189Y012053D01*
X023193Y012030D01*
X023200Y012008D01*
X023210Y011987D01*
X023223Y011967D01*
X023239Y011950D01*
X023258Y011935D01*
X023278Y011924D01*
X023300Y011915D01*
X023323Y011910D01*
X023346Y011908D01*
X023346Y011907D02*
X023897Y011907D01*
X023930Y011909D01*
X023962Y011914D01*
X023994Y011922D01*
X024025Y011934D01*
X024055Y011949D01*
X024082Y011967D01*
X024108Y011988D01*
X024131Y012011D01*
X024152Y012037D01*
X024170Y012065D01*
X024185Y012094D01*
X024197Y012125D01*
X024205Y012157D01*
X024210Y012189D01*
X024212Y012222D01*
X024212Y012734D01*
X024210Y012757D01*
X024205Y012780D01*
X024196Y012802D01*
X024185Y012822D01*
X024170Y012841D01*
X024153Y012857D01*
X024134Y012870D01*
X024112Y012880D01*
X024090Y012887D01*
X024067Y012891D01*
X024043Y012891D01*
X024020Y012887D01*
X023998Y012880D01*
X023977Y012870D01*
X023957Y012857D01*
X023940Y012841D01*
X023925Y012822D01*
X023914Y012802D01*
X023905Y012780D01*
X023900Y012757D01*
X023898Y012734D01*
X023897Y012734D02*
X023897Y012537D01*
X023897Y016238D01*
X023897Y016041D01*
X023898Y016041D02*
X023900Y016018D01*
X023905Y015995D01*
X023914Y015973D01*
X023925Y015953D01*
X023940Y015934D01*
X023957Y015918D01*
X023977Y015905D01*
X023998Y015895D01*
X024020Y015888D01*
X024043Y015884D01*
X024067Y015884D01*
X024090Y015888D01*
X024112Y015895D01*
X024134Y015905D01*
X024153Y015918D01*
X024170Y015934D01*
X024185Y015953D01*
X024196Y015973D01*
X024205Y015995D01*
X024210Y016018D01*
X024212Y016041D01*
X024212Y016553D01*
X024210Y016586D01*
X024205Y016618D01*
X024197Y016650D01*
X024185Y016681D01*
X024170Y016711D01*
X024152Y016738D01*
X024131Y016764D01*
X024108Y016787D01*
X024082Y016808D01*
X024055Y016826D01*
X024025Y016841D01*
X023994Y016853D01*
X023962Y016861D01*
X023930Y016866D01*
X023897Y016868D01*
X023346Y016868D01*
X023323Y016866D01*
X023300Y016861D01*
X023278Y016852D01*
X023258Y016841D01*
X023239Y016826D01*
X023223Y016809D01*
X023210Y016790D01*
X023200Y016768D01*
X023193Y016746D01*
X023189Y016723D01*
X023189Y016699D01*
X023193Y016676D01*
X023200Y016654D01*
X023210Y016633D01*
X023223Y016613D01*
X023239Y016596D01*
X023258Y016581D01*
X023278Y016570D01*
X023300Y016561D01*
X023323Y016556D01*
X023346Y016554D01*
X023346Y016553D02*
X023582Y016553D01*
X014763Y016553D01*
X014960Y016553D01*
X014921Y016554D02*
X014944Y016556D01*
X014967Y016561D01*
X014989Y016570D01*
X015009Y016581D01*
X015028Y016596D01*
X015044Y016613D01*
X015057Y016633D01*
X015067Y016654D01*
X015074Y016676D01*
X015078Y016699D01*
X015078Y016723D01*
X015074Y016746D01*
X015067Y016768D01*
X015057Y016790D01*
X015044Y016809D01*
X015028Y016826D01*
X015009Y016841D01*
X014989Y016852D01*
X014967Y016861D01*
X014944Y016866D01*
X014921Y016868D01*
X014448Y016868D01*
X014415Y016866D01*
X014383Y016861D01*
X014351Y016853D01*
X014320Y016841D01*
X014291Y016826D01*
X014263Y016808D01*
X014237Y016787D01*
X014214Y016764D01*
X014193Y016738D01*
X014175Y016711D01*
X014160Y016681D01*
X014148Y016650D01*
X014140Y016618D01*
X014135Y016586D01*
X014133Y016553D01*
X013976Y016553D02*
X013974Y016586D01*
X013969Y016618D01*
X013961Y016650D01*
X013949Y016681D01*
X013934Y016711D01*
X013916Y016738D01*
X013895Y016764D01*
X013872Y016787D01*
X013846Y016808D01*
X013819Y016826D01*
X013789Y016841D01*
X013758Y016853D01*
X013726Y016861D01*
X013694Y016866D01*
X013661Y016868D01*
X013110Y016868D01*
X013087Y016866D01*
X013064Y016861D01*
X013042Y016852D01*
X013022Y016841D01*
X013003Y016826D01*
X012987Y016809D01*
X012974Y016790D01*
X012964Y016768D01*
X012957Y016746D01*
X012953Y016723D01*
X012953Y016699D01*
X012957Y016676D01*
X012964Y016654D01*
X012974Y016633D01*
X012987Y016613D01*
X013003Y016596D01*
X013022Y016581D01*
X013042Y016570D01*
X013064Y016561D01*
X013087Y016556D01*
X013110Y016554D01*
X013110Y016553D02*
X013346Y016553D01*
X004527Y016553D01*
X004724Y016553D01*
X004685Y016554D02*
X004708Y016556D01*
X004731Y016561D01*
X004753Y016570D01*
X004773Y016581D01*
X004792Y016596D01*
X004808Y016613D01*
X004821Y016633D01*
X004831Y016654D01*
X004838Y016676D01*
X004842Y016699D01*
X004842Y016723D01*
X004838Y016746D01*
X004831Y016768D01*
X004821Y016790D01*
X004808Y016809D01*
X004792Y016826D01*
X004773Y016841D01*
X004753Y016852D01*
X004731Y016861D01*
X004708Y016866D01*
X004685Y016868D01*
X004212Y016868D01*
X004179Y016866D01*
X004147Y016861D01*
X004115Y016853D01*
X004084Y016841D01*
X004055Y016826D01*
X004027Y016808D01*
X004001Y016787D01*
X003978Y016764D01*
X003957Y016738D01*
X003939Y016711D01*
X003924Y016681D01*
X003912Y016650D01*
X003904Y016618D01*
X003899Y016586D01*
X003897Y016553D01*
X003897Y016041D01*
X003898Y016041D02*
X003900Y016018D01*
X003905Y015995D01*
X003914Y015973D01*
X003925Y015953D01*
X003940Y015934D01*
X003957Y015918D01*
X003977Y015905D01*
X003998Y015895D01*
X004020Y015888D01*
X004043Y015884D01*
X004067Y015884D01*
X004090Y015888D01*
X004112Y015895D01*
X004134Y015905D01*
X004153Y015918D01*
X004170Y015934D01*
X004185Y015953D01*
X004196Y015973D01*
X004205Y015995D01*
X004210Y016018D01*
X004212Y016041D01*
X004212Y016238D01*
X004212Y013049D01*
X004212Y013207D01*
X004210Y013230D01*
X004205Y013253D01*
X004196Y013275D01*
X004185Y013295D01*
X004170Y013314D01*
X004153Y013330D01*
X004134Y013343D01*
X004112Y013353D01*
X004090Y013360D01*
X004067Y013364D01*
X004043Y013364D01*
X004020Y013360D01*
X003998Y013353D01*
X003977Y013343D01*
X003957Y013330D01*
X003940Y013314D01*
X003925Y013295D01*
X003914Y013275D01*
X003905Y013253D01*
X003900Y013230D01*
X003898Y013207D01*
X003897Y013207D02*
X003897Y012222D01*
X003899Y012183D01*
X003905Y012145D01*
X003914Y012108D01*
X003927Y012071D01*
X003944Y012036D01*
X003963Y012003D01*
X003986Y011972D01*
X004012Y011943D01*
X004041Y011917D01*
X004072Y011894D01*
X004105Y011875D01*
X004140Y011858D01*
X004177Y011845D01*
X004214Y011836D01*
X004252Y011830D01*
X004291Y011828D01*
X004527Y012734D02*
X006090Y012734D01*
X004527Y012734D01*
X004494Y012736D01*
X004462Y012741D01*
X004430Y012749D01*
X004399Y012761D01*
X004370Y012776D01*
X004342Y012794D01*
X004316Y012815D01*
X004293Y012838D01*
X004272Y012864D01*
X004254Y012892D01*
X004239Y012921D01*
X004227Y012952D01*
X004219Y012984D01*
X004214Y013016D01*
X004212Y013049D01*
X004214Y013016D01*
X004219Y012984D01*
X004227Y012952D01*
X004239Y012921D01*
X004254Y012892D01*
X004272Y012864D01*
X004293Y012838D01*
X004316Y012815D01*
X004342Y012794D01*
X004370Y012776D01*
X004399Y012761D01*
X004430Y012749D01*
X004462Y012741D01*
X004494Y012736D01*
X004527Y012734D01*
X006090Y012734D02*
X006121Y012732D01*
X006151Y012728D01*
X006181Y012720D01*
X006211Y012710D01*
X006238Y012697D01*
X006265Y012681D01*
X006290Y012662D01*
X006313Y012642D01*
X006312Y012642D02*
X006640Y012315D01*
X006312Y012642D01*
X006313Y012642D02*
X006290Y012662D01*
X006265Y012681D01*
X006238Y012697D01*
X006211Y012710D01*
X006181Y012720D01*
X006151Y012728D01*
X006121Y012732D01*
X006090Y012734D01*
X006639Y012314D02*
X006662Y012294D01*
X006687Y012275D01*
X006714Y012259D01*
X006741Y012246D01*
X006771Y012236D01*
X006801Y012228D01*
X006831Y012224D01*
X006862Y012222D01*
X006850Y012222D01*
X006862Y012222D02*
X007244Y012222D01*
X006862Y012222D01*
X006831Y012224D01*
X006801Y012228D01*
X006771Y012236D01*
X006741Y012246D01*
X006714Y012259D01*
X006687Y012275D01*
X006662Y012294D01*
X006639Y012314D01*
X007244Y012222D02*
X007259Y012224D01*
X007274Y012228D01*
X007288Y012235D01*
X007300Y012245D01*
X007310Y012257D01*
X007317Y012271D01*
X007321Y012286D01*
X007323Y012301D01*
X007323Y012419D01*
X007323Y012301D01*
X007321Y012286D01*
X007317Y012271D01*
X007310Y012257D01*
X007300Y012245D01*
X007288Y012235D01*
X007274Y012228D01*
X007259Y012224D01*
X007244Y012222D01*
X007322Y012419D02*
X007324Y012434D01*
X007328Y012449D01*
X007335Y012463D01*
X007345Y012475D01*
X007357Y012485D01*
X007371Y012492D01*
X007386Y012496D01*
X007401Y012498D01*
X007762Y012498D01*
X007401Y012498D01*
X007386Y012496D01*
X007371Y012492D01*
X007357Y012485D01*
X007345Y012475D01*
X007335Y012463D01*
X007328Y012449D01*
X007324Y012434D01*
X007322Y012419D01*
X007762Y012498D02*
X007777Y012496D01*
X007792Y012492D01*
X007806Y012485D01*
X007818Y012475D01*
X008047Y012245D01*
X007818Y012475D01*
X007806Y012485D01*
X007792Y012492D01*
X007777Y012496D01*
X007762Y012498D01*
X008047Y012245D02*
X008059Y012235D01*
X008073Y012228D01*
X008088Y012224D01*
X008103Y012222D01*
X008088Y012224D01*
X008073Y012228D01*
X008059Y012235D01*
X008047Y012245D01*
X004212Y016238D02*
X004214Y016271D01*
X004219Y016303D01*
X004227Y016335D01*
X004239Y016366D01*
X004254Y016396D01*
X004272Y016423D01*
X004293Y016449D01*
X004316Y016472D01*
X004342Y016493D01*
X004370Y016511D01*
X004399Y016526D01*
X004430Y016538D01*
X004462Y016546D01*
X004494Y016551D01*
X004527Y016553D01*
X004494Y016551D01*
X004462Y016546D01*
X004430Y016538D01*
X004399Y016526D01*
X004370Y016511D01*
X004342Y016493D01*
X004316Y016472D01*
X004293Y016449D01*
X004272Y016423D01*
X004254Y016396D01*
X004239Y016366D01*
X004227Y016335D01*
X004219Y016303D01*
X004214Y016271D01*
X004212Y016238D01*
X006090Y018640D02*
X006121Y018638D01*
X006151Y018634D01*
X006181Y018626D01*
X006211Y018616D01*
X006238Y018603D01*
X006265Y018587D01*
X006290Y018568D01*
X006313Y018548D01*
X006312Y018547D02*
X006640Y018220D01*
X006312Y018547D01*
X006090Y018640D02*
X004527Y018640D01*
X006090Y018640D01*
X006121Y018638D01*
X006151Y018634D01*
X006181Y018626D01*
X006211Y018616D01*
X006238Y018603D01*
X006265Y018587D01*
X006290Y018568D01*
X006313Y018548D01*
X006639Y018220D02*
X006662Y018200D01*
X006687Y018181D01*
X006714Y018165D01*
X006741Y018152D01*
X006771Y018142D01*
X006801Y018134D01*
X006831Y018130D01*
X006862Y018128D01*
X006850Y018128D01*
X006862Y018128D02*
X007244Y018128D01*
X006862Y018128D01*
X006831Y018130D01*
X006801Y018134D01*
X006771Y018142D01*
X006741Y018152D01*
X006714Y018165D01*
X006687Y018181D01*
X006662Y018200D01*
X006639Y018220D01*
X007244Y018128D02*
X007259Y018130D01*
X007274Y018134D01*
X007288Y018141D01*
X007300Y018151D01*
X007310Y018163D01*
X007317Y018177D01*
X007321Y018192D01*
X007323Y018207D01*
X007323Y018325D01*
X007323Y018207D01*
X007321Y018192D01*
X007317Y018177D01*
X007310Y018163D01*
X007300Y018151D01*
X007288Y018141D01*
X007274Y018134D01*
X007259Y018130D01*
X007244Y018128D01*
X007322Y018325D02*
X007324Y018340D01*
X007328Y018355D01*
X007335Y018369D01*
X007345Y018381D01*
X007357Y018391D01*
X007371Y018398D01*
X007386Y018402D01*
X007401Y018404D01*
X007762Y018404D01*
X007401Y018404D01*
X007386Y018402D01*
X007371Y018398D01*
X007357Y018391D01*
X007345Y018381D01*
X007335Y018369D01*
X007328Y018355D01*
X007324Y018340D01*
X007322Y018325D01*
X007762Y018404D02*
X007777Y018402D01*
X007792Y018398D01*
X007806Y018391D01*
X007818Y018381D01*
X007806Y018391D01*
X007792Y018398D01*
X007777Y018402D01*
X007762Y018404D01*
X004527Y018640D02*
X004494Y018642D01*
X004462Y018647D01*
X004430Y018655D01*
X004399Y018667D01*
X004370Y018682D01*
X004342Y018700D01*
X004316Y018721D01*
X004293Y018744D01*
X004272Y018770D01*
X004254Y018798D01*
X004239Y018827D01*
X004227Y018858D01*
X004219Y018890D01*
X004214Y018922D01*
X004212Y018955D01*
X004214Y018922D01*
X004219Y018890D01*
X004227Y018858D01*
X004239Y018827D01*
X004254Y018798D01*
X004272Y018770D01*
X004293Y018744D01*
X004316Y018721D01*
X004342Y018700D01*
X004370Y018682D01*
X004399Y018667D01*
X004430Y018655D01*
X004462Y018647D01*
X004494Y018642D01*
X004527Y018640D01*
X004212Y022144D02*
X004214Y022177D01*
X004219Y022209D01*
X004227Y022241D01*
X004239Y022272D01*
X004254Y022302D01*
X004272Y022329D01*
X004293Y022355D01*
X004316Y022378D01*
X004342Y022399D01*
X004370Y022417D01*
X004399Y022432D01*
X004430Y022444D01*
X004462Y022452D01*
X004494Y022457D01*
X004527Y022459D01*
X004494Y022457D01*
X004462Y022452D01*
X004430Y022444D01*
X004399Y022432D01*
X004370Y022417D01*
X004342Y022399D01*
X004316Y022378D01*
X004293Y022355D01*
X004272Y022329D01*
X004254Y022302D01*
X004239Y022272D01*
X004227Y022241D01*
X004219Y022209D01*
X004214Y022177D01*
X004212Y022144D01*
X013110Y022458D02*
X013083Y022460D01*
X013057Y022465D01*
X013032Y022474D01*
X013008Y022487D01*
X012986Y022502D01*
X012966Y022521D01*
X012949Y022541D01*
X012935Y022564D01*
X012924Y022589D01*
X012917Y022615D01*
X012913Y022642D01*
X012913Y022668D01*
X012917Y022695D01*
X012924Y022721D01*
X012935Y022746D01*
X012949Y022769D01*
X012966Y022789D01*
X012986Y022808D01*
X013008Y022823D01*
X013032Y022836D01*
X013057Y022845D01*
X013083Y022850D01*
X013110Y022852D01*
X014921Y022852D01*
X014948Y022850D01*
X014974Y022845D01*
X014999Y022836D01*
X015023Y022823D01*
X015045Y022808D01*
X015065Y022789D01*
X015082Y022769D01*
X015096Y022746D01*
X015107Y022721D01*
X015114Y022695D01*
X015118Y022668D01*
X015118Y022642D01*
X015114Y022615D01*
X015107Y022589D01*
X015096Y022564D01*
X015082Y022541D01*
X015065Y022521D01*
X015045Y022502D01*
X015023Y022487D01*
X014999Y022474D01*
X014974Y022465D01*
X014948Y022460D01*
X014921Y022458D01*
X014763Y022459D02*
X014730Y022457D01*
X014698Y022452D01*
X014666Y022444D01*
X014635Y022432D01*
X014606Y022417D01*
X014578Y022399D01*
X014552Y022378D01*
X014529Y022355D01*
X014508Y022329D01*
X014490Y022302D01*
X014475Y022272D01*
X014463Y022241D01*
X014455Y022209D01*
X014450Y022177D01*
X014448Y022144D01*
X014450Y022177D01*
X014455Y022209D01*
X014463Y022241D01*
X014475Y022272D01*
X014490Y022302D01*
X014508Y022329D01*
X014529Y022355D01*
X014552Y022378D01*
X014578Y022399D01*
X014606Y022417D01*
X014635Y022432D01*
X014666Y022444D01*
X014698Y022452D01*
X014730Y022457D01*
X014763Y022459D01*
X013661Y022144D02*
X013659Y022177D01*
X013654Y022209D01*
X013646Y022241D01*
X013634Y022272D01*
X013619Y022302D01*
X013601Y022329D01*
X013580Y022355D01*
X013557Y022378D01*
X013531Y022399D01*
X013504Y022417D01*
X013474Y022432D01*
X013443Y022444D01*
X013411Y022452D01*
X013379Y022457D01*
X013346Y022459D01*
X013379Y022457D01*
X013411Y022452D01*
X013443Y022444D01*
X013474Y022432D01*
X013504Y022417D01*
X013531Y022399D01*
X013557Y022378D01*
X013580Y022355D01*
X013601Y022329D01*
X013619Y022302D01*
X013634Y022272D01*
X013646Y022241D01*
X013654Y022209D01*
X013659Y022177D01*
X013661Y022144D01*
X014448Y018955D02*
X014450Y018922D01*
X014455Y018890D01*
X014463Y018858D01*
X014475Y018827D01*
X014490Y018798D01*
X014508Y018770D01*
X014529Y018744D01*
X014552Y018721D01*
X014578Y018700D01*
X014606Y018682D01*
X014635Y018667D01*
X014666Y018655D01*
X014698Y018647D01*
X014730Y018642D01*
X014763Y018640D01*
X016326Y018640D01*
X014763Y018640D01*
X014730Y018642D01*
X014698Y018647D01*
X014666Y018655D01*
X014635Y018667D01*
X014606Y018682D01*
X014578Y018700D01*
X014552Y018721D01*
X014529Y018744D01*
X014508Y018770D01*
X014490Y018798D01*
X014475Y018827D01*
X014463Y018858D01*
X014455Y018890D01*
X014450Y018922D01*
X014448Y018955D01*
X013661Y018443D02*
X013659Y018410D01*
X013654Y018378D01*
X013646Y018346D01*
X013634Y018315D01*
X013619Y018286D01*
X013601Y018258D01*
X013580Y018232D01*
X013557Y018209D01*
X013531Y018188D01*
X013504Y018170D01*
X013474Y018155D01*
X013443Y018143D01*
X013411Y018135D01*
X013379Y018130D01*
X013346Y018128D01*
X013379Y018130D01*
X013411Y018135D01*
X013443Y018143D01*
X013474Y018155D01*
X013504Y018170D01*
X013531Y018188D01*
X013557Y018209D01*
X013580Y018232D01*
X013601Y018258D01*
X013619Y018286D01*
X013634Y018315D01*
X013646Y018346D01*
X013654Y018378D01*
X013659Y018410D01*
X013661Y018443D01*
X013346Y016553D02*
X013379Y016551D01*
X013411Y016546D01*
X013443Y016538D01*
X013474Y016526D01*
X013504Y016511D01*
X013531Y016493D01*
X013557Y016472D01*
X013580Y016449D01*
X013601Y016423D01*
X013619Y016396D01*
X013634Y016366D01*
X013646Y016335D01*
X013654Y016303D01*
X013659Y016271D01*
X013661Y016238D01*
X013659Y016271D01*
X013654Y016303D01*
X013646Y016335D01*
X013634Y016366D01*
X013619Y016396D01*
X013601Y016423D01*
X013580Y016449D01*
X013557Y016472D01*
X013531Y016493D01*
X013504Y016511D01*
X013474Y016526D01*
X013443Y016538D01*
X013411Y016546D01*
X013379Y016551D01*
X013346Y016553D01*
X014448Y016238D02*
X014450Y016271D01*
X014455Y016303D01*
X014463Y016335D01*
X014475Y016366D01*
X014490Y016396D01*
X014508Y016423D01*
X014529Y016449D01*
X014552Y016472D01*
X014578Y016493D01*
X014606Y016511D01*
X014635Y016526D01*
X014666Y016538D01*
X014698Y016546D01*
X014730Y016551D01*
X014763Y016553D01*
X014730Y016551D01*
X014698Y016546D01*
X014666Y016538D01*
X014635Y016526D01*
X014606Y016511D01*
X014578Y016493D01*
X014552Y016472D01*
X014529Y016449D01*
X014508Y016423D01*
X014490Y016396D01*
X014475Y016366D01*
X014463Y016335D01*
X014455Y016303D01*
X014450Y016271D01*
X014448Y016238D01*
X016326Y018640D02*
X016357Y018638D01*
X016387Y018634D01*
X016417Y018626D01*
X016447Y018616D01*
X016474Y018603D01*
X016501Y018587D01*
X016526Y018568D01*
X016549Y018548D01*
X016549Y018547D02*
X016876Y018220D01*
X016549Y018547D01*
X016549Y018548D02*
X016526Y018568D01*
X016501Y018587D01*
X016474Y018603D01*
X016447Y018616D01*
X016417Y018626D01*
X016387Y018634D01*
X016357Y018638D01*
X016326Y018640D01*
X016876Y018220D02*
X016899Y018200D01*
X016924Y018181D01*
X016951Y018165D01*
X016978Y018152D01*
X017008Y018142D01*
X017038Y018134D01*
X017068Y018130D01*
X017099Y018128D01*
X017086Y018128D01*
X017099Y018128D02*
X017480Y018128D01*
X017099Y018128D01*
X017068Y018130D01*
X017038Y018134D01*
X017008Y018142D01*
X016978Y018152D01*
X016951Y018165D01*
X016924Y018181D01*
X016899Y018200D01*
X016876Y018220D01*
X017480Y018128D02*
X017495Y018130D01*
X017510Y018134D01*
X017524Y018141D01*
X017536Y018151D01*
X017546Y018163D01*
X017553Y018177D01*
X017557Y018192D01*
X017559Y018207D01*
X017559Y018325D01*
X017559Y018207D01*
X017557Y018192D01*
X017553Y018177D01*
X017546Y018163D01*
X017536Y018151D01*
X017524Y018141D01*
X017510Y018134D01*
X017495Y018130D01*
X017480Y018128D01*
X017558Y018325D02*
X017560Y018340D01*
X017564Y018355D01*
X017571Y018369D01*
X017581Y018381D01*
X017593Y018391D01*
X017607Y018398D01*
X017622Y018402D01*
X017637Y018404D01*
X017999Y018404D01*
X017637Y018404D01*
X017622Y018402D01*
X017607Y018398D01*
X017593Y018391D01*
X017581Y018381D01*
X017571Y018369D01*
X017564Y018355D01*
X017560Y018340D01*
X017558Y018325D01*
X017999Y018404D02*
X018014Y018402D01*
X018029Y018398D01*
X018043Y018391D01*
X018055Y018381D01*
X018043Y018391D01*
X018029Y018398D01*
X018014Y018402D01*
X017999Y018404D01*
X014448Y013049D02*
X014450Y013016D01*
X014455Y012984D01*
X014463Y012952D01*
X014475Y012921D01*
X014490Y012892D01*
X014508Y012864D01*
X014529Y012838D01*
X014552Y012815D01*
X014578Y012794D01*
X014606Y012776D01*
X014635Y012761D01*
X014666Y012749D01*
X014698Y012741D01*
X014730Y012736D01*
X014763Y012734D01*
X016326Y012734D01*
X014763Y012734D01*
X014730Y012736D01*
X014698Y012741D01*
X014666Y012749D01*
X014635Y012761D01*
X014606Y012776D01*
X014578Y012794D01*
X014552Y012815D01*
X014529Y012838D01*
X014508Y012864D01*
X014490Y012892D01*
X014475Y012921D01*
X014463Y012952D01*
X014455Y012984D01*
X014450Y013016D01*
X014448Y013049D01*
X013661Y012537D02*
X013659Y012504D01*
X013654Y012472D01*
X013646Y012440D01*
X013634Y012409D01*
X013619Y012380D01*
X013601Y012352D01*
X013580Y012326D01*
X013557Y012303D01*
X013531Y012282D01*
X013504Y012264D01*
X013474Y012249D01*
X013443Y012237D01*
X013411Y012229D01*
X013379Y012224D01*
X013346Y012222D01*
X013379Y012224D01*
X013411Y012229D01*
X013443Y012237D01*
X013474Y012249D01*
X013504Y012264D01*
X013531Y012282D01*
X013557Y012303D01*
X013580Y012326D01*
X013601Y012352D01*
X013619Y012380D01*
X013634Y012409D01*
X013646Y012440D01*
X013654Y012472D01*
X013659Y012504D01*
X013661Y012537D01*
X013346Y010648D02*
X013379Y010646D01*
X013411Y010641D01*
X013443Y010633D01*
X013474Y010621D01*
X013504Y010606D01*
X013531Y010588D01*
X013557Y010567D01*
X013580Y010544D01*
X013601Y010518D01*
X013619Y010491D01*
X013634Y010461D01*
X013646Y010430D01*
X013654Y010398D01*
X013659Y010366D01*
X013661Y010333D01*
X013659Y010366D01*
X013654Y010398D01*
X013646Y010430D01*
X013634Y010461D01*
X013619Y010491D01*
X013601Y010518D01*
X013580Y010544D01*
X013557Y010567D01*
X013531Y010588D01*
X013504Y010606D01*
X013474Y010621D01*
X013443Y010633D01*
X013411Y010641D01*
X013379Y010646D01*
X013346Y010648D01*
X014448Y010333D02*
X014450Y010366D01*
X014455Y010398D01*
X014463Y010430D01*
X014475Y010461D01*
X014490Y010491D01*
X014508Y010518D01*
X014529Y010544D01*
X014552Y010567D01*
X014578Y010588D01*
X014606Y010606D01*
X014635Y010621D01*
X014666Y010633D01*
X014698Y010641D01*
X014730Y010646D01*
X014763Y010648D01*
X014730Y010646D01*
X014698Y010641D01*
X014666Y010633D01*
X014635Y010621D01*
X014606Y010606D01*
X014578Y010588D01*
X014552Y010567D01*
X014529Y010544D01*
X014508Y010518D01*
X014490Y010491D01*
X014475Y010461D01*
X014463Y010430D01*
X014455Y010398D01*
X014450Y010366D01*
X014448Y010333D01*
X016326Y012734D02*
X016357Y012732D01*
X016387Y012728D01*
X016417Y012720D01*
X016447Y012710D01*
X016474Y012697D01*
X016501Y012681D01*
X016526Y012662D01*
X016549Y012642D01*
X016876Y012315D01*
X016549Y012642D01*
X016526Y012662D01*
X016501Y012681D01*
X016474Y012697D01*
X016447Y012710D01*
X016417Y012720D01*
X016387Y012728D01*
X016357Y012732D01*
X016326Y012734D01*
X016876Y012314D02*
X016899Y012294D01*
X016924Y012275D01*
X016951Y012259D01*
X016978Y012246D01*
X017008Y012236D01*
X017038Y012228D01*
X017068Y012224D01*
X017099Y012222D01*
X017086Y012222D01*
X017099Y012222D02*
X017480Y012222D01*
X017099Y012222D01*
X017068Y012224D01*
X017038Y012228D01*
X017008Y012236D01*
X016978Y012246D01*
X016951Y012259D01*
X016924Y012275D01*
X016899Y012294D01*
X016876Y012314D01*
X017480Y012222D02*
X017495Y012224D01*
X017510Y012228D01*
X017524Y012235D01*
X017536Y012245D01*
X017546Y012257D01*
X017553Y012271D01*
X017557Y012286D01*
X017559Y012301D01*
X017559Y012419D01*
X017559Y012301D01*
X017557Y012286D01*
X017553Y012271D01*
X017546Y012257D01*
X017536Y012245D01*
X017524Y012235D01*
X017510Y012228D01*
X017495Y012224D01*
X017480Y012222D01*
X017558Y012419D02*
X017560Y012434D01*
X017564Y012449D01*
X017571Y012463D01*
X017581Y012475D01*
X017593Y012485D01*
X017607Y012492D01*
X017622Y012496D01*
X017637Y012498D01*
X017999Y012498D01*
X017637Y012498D01*
X017622Y012496D01*
X017607Y012492D01*
X017593Y012485D01*
X017581Y012475D01*
X017571Y012463D01*
X017564Y012449D01*
X017560Y012434D01*
X017558Y012419D01*
X017999Y012498D02*
X018014Y012496D01*
X018029Y012492D01*
X018043Y012485D01*
X018055Y012475D01*
X018054Y012475D02*
X018284Y012245D01*
X018054Y012475D01*
X018055Y012475D02*
X018043Y012485D01*
X018029Y012492D01*
X018014Y012496D01*
X017999Y012498D01*
X018283Y012245D02*
X018295Y012235D01*
X018309Y012228D01*
X018324Y012224D01*
X018339Y012222D01*
X018324Y012224D01*
X018309Y012228D01*
X018295Y012235D01*
X018283Y012245D01*
X014448Y007144D02*
X014450Y007111D01*
X014455Y007079D01*
X014463Y007047D01*
X014475Y007016D01*
X014490Y006987D01*
X014508Y006959D01*
X014529Y006933D01*
X014552Y006910D01*
X014578Y006889D01*
X014606Y006871D01*
X014635Y006856D01*
X014666Y006844D01*
X014698Y006836D01*
X014730Y006831D01*
X014763Y006829D01*
X016326Y006829D01*
X014763Y006829D01*
X014730Y006831D01*
X014698Y006836D01*
X014666Y006844D01*
X014635Y006856D01*
X014606Y006871D01*
X014578Y006889D01*
X014552Y006910D01*
X014529Y006933D01*
X014508Y006959D01*
X014490Y006987D01*
X014475Y007016D01*
X014463Y007047D01*
X014455Y007079D01*
X014450Y007111D01*
X014448Y007144D01*
X014133Y006317D02*
X014135Y006278D01*
X014141Y006240D01*
X014150Y006203D01*
X014163Y006166D01*
X014180Y006131D01*
X014199Y006098D01*
X014222Y006067D01*
X014248Y006038D01*
X014277Y006012D01*
X014308Y005989D01*
X014341Y005970D01*
X014376Y005953D01*
X014413Y005940D01*
X014450Y005931D01*
X014488Y005925D01*
X014527Y005923D01*
X013661Y006632D02*
X013659Y006599D01*
X013654Y006567D01*
X013646Y006535D01*
X013634Y006504D01*
X013619Y006474D01*
X013601Y006447D01*
X013580Y006421D01*
X013557Y006398D01*
X013531Y006377D01*
X013504Y006359D01*
X013474Y006344D01*
X013443Y006332D01*
X013411Y006324D01*
X013379Y006319D01*
X013346Y006317D01*
X016326Y006829D02*
X016357Y006827D01*
X016387Y006823D01*
X016417Y006815D01*
X016447Y006805D01*
X016474Y006792D01*
X016501Y006776D01*
X016526Y006757D01*
X016549Y006737D01*
X016549Y006736D02*
X016876Y006409D01*
X016549Y006736D01*
X016549Y006737D02*
X016526Y006757D01*
X016501Y006776D01*
X016474Y006792D01*
X016447Y006805D01*
X016417Y006815D01*
X016387Y006823D01*
X016357Y006827D01*
X016326Y006829D01*
X016876Y006409D02*
X016899Y006389D01*
X016924Y006370D01*
X016951Y006354D01*
X016978Y006341D01*
X017008Y006331D01*
X017038Y006323D01*
X017068Y006319D01*
X017099Y006317D01*
X017086Y006317D01*
X017099Y006317D02*
X017480Y006317D01*
X017099Y006317D01*
X017068Y006319D01*
X017038Y006323D01*
X017008Y006331D01*
X016978Y006341D01*
X016951Y006354D01*
X016924Y006370D01*
X016899Y006389D01*
X016876Y006409D01*
X017480Y006317D02*
X017495Y006319D01*
X017510Y006323D01*
X017524Y006330D01*
X017536Y006340D01*
X017546Y006352D01*
X017553Y006366D01*
X017557Y006381D01*
X017559Y006396D01*
X017559Y006514D01*
X017559Y006396D01*
X017557Y006381D01*
X017553Y006366D01*
X017546Y006352D01*
X017536Y006340D01*
X017524Y006330D01*
X017510Y006323D01*
X017495Y006319D01*
X017480Y006317D01*
X017558Y006514D02*
X017560Y006529D01*
X017564Y006544D01*
X017571Y006558D01*
X017581Y006570D01*
X017593Y006580D01*
X017607Y006587D01*
X017622Y006591D01*
X017637Y006593D01*
X017637Y006592D02*
X017999Y006592D01*
X017637Y006592D01*
X017637Y006593D02*
X017622Y006591D01*
X017607Y006587D01*
X017593Y006580D01*
X017581Y006570D01*
X017571Y006558D01*
X017564Y006544D01*
X017560Y006529D01*
X017558Y006514D01*
X017999Y006593D02*
X018014Y006591D01*
X018029Y006587D01*
X018043Y006580D01*
X018055Y006570D01*
X018054Y006569D02*
X018284Y006340D01*
X018054Y006569D01*
X018055Y006570D02*
X018043Y006580D01*
X018029Y006587D01*
X018014Y006591D01*
X017999Y006593D01*
X018283Y006340D02*
X018295Y006330D01*
X018309Y006323D01*
X018324Y006319D01*
X018339Y006317D01*
X018324Y006319D01*
X018309Y006323D01*
X018295Y006330D01*
X018283Y006340D01*
X023582Y006317D02*
X023615Y006319D01*
X023647Y006324D01*
X023679Y006332D01*
X023710Y006344D01*
X023740Y006359D01*
X023767Y006377D01*
X023793Y006398D01*
X023816Y006421D01*
X023837Y006447D01*
X023855Y006474D01*
X023870Y006504D01*
X023882Y006535D01*
X023890Y006567D01*
X023895Y006599D01*
X023897Y006632D01*
X023895Y006599D01*
X023890Y006567D01*
X023882Y006535D01*
X023870Y006504D01*
X023855Y006474D01*
X023837Y006447D01*
X023816Y006421D01*
X023793Y006398D01*
X023767Y006377D01*
X023740Y006359D01*
X023710Y006344D01*
X023679Y006332D01*
X023647Y006324D01*
X023615Y006319D01*
X023582Y006317D01*
X023897Y010333D02*
X023895Y010366D01*
X023890Y010398D01*
X023882Y010430D01*
X023870Y010461D01*
X023855Y010491D01*
X023837Y010518D01*
X023816Y010544D01*
X023793Y010567D01*
X023767Y010588D01*
X023740Y010606D01*
X023710Y010621D01*
X023679Y010633D01*
X023647Y010641D01*
X023615Y010646D01*
X023582Y010648D01*
X023615Y010646D01*
X023647Y010641D01*
X023679Y010633D01*
X023710Y010621D01*
X023740Y010606D01*
X023767Y010588D01*
X023793Y010567D01*
X023816Y010544D01*
X023837Y010518D01*
X023855Y010491D01*
X023870Y010461D01*
X023882Y010430D01*
X023890Y010398D01*
X023895Y010366D01*
X023897Y010333D01*
X023582Y012222D02*
X023615Y012224D01*
X023647Y012229D01*
X023679Y012237D01*
X023710Y012249D01*
X023740Y012264D01*
X023767Y012282D01*
X023793Y012303D01*
X023816Y012326D01*
X023837Y012352D01*
X023855Y012380D01*
X023870Y012409D01*
X023882Y012440D01*
X023890Y012472D01*
X023895Y012504D01*
X023897Y012537D01*
X023895Y012504D01*
X023890Y012472D01*
X023882Y012440D01*
X023870Y012409D01*
X023855Y012380D01*
X023837Y012352D01*
X023816Y012326D01*
X023793Y012303D01*
X023767Y012282D01*
X023740Y012264D01*
X023710Y012249D01*
X023679Y012237D01*
X023647Y012229D01*
X023615Y012224D01*
X023582Y012222D01*
X023897Y016238D02*
X023895Y016271D01*
X023890Y016303D01*
X023882Y016335D01*
X023870Y016366D01*
X023855Y016396D01*
X023837Y016423D01*
X023816Y016449D01*
X023793Y016472D01*
X023767Y016493D01*
X023740Y016511D01*
X023710Y016526D01*
X023679Y016538D01*
X023647Y016546D01*
X023615Y016551D01*
X023582Y016553D01*
X023615Y016551D01*
X023647Y016546D01*
X023679Y016538D01*
X023710Y016526D01*
X023740Y016511D01*
X023767Y016493D01*
X023793Y016472D01*
X023816Y016449D01*
X023837Y016423D01*
X023855Y016396D01*
X023870Y016366D01*
X023882Y016335D01*
X023890Y016303D01*
X023895Y016271D01*
X023897Y016238D01*
X023582Y018128D02*
X023615Y018130D01*
X023647Y018135D01*
X023679Y018143D01*
X023710Y018155D01*
X023740Y018170D01*
X023767Y018188D01*
X023793Y018209D01*
X023816Y018232D01*
X023837Y018258D01*
X023855Y018286D01*
X023870Y018315D01*
X023882Y018346D01*
X023890Y018378D01*
X023895Y018410D01*
X023897Y018443D01*
X023895Y018410D01*
X023890Y018378D01*
X023882Y018346D01*
X023870Y018315D01*
X023855Y018286D01*
X023837Y018258D01*
X023816Y018232D01*
X023793Y018209D01*
X023767Y018188D01*
X023740Y018170D01*
X023710Y018155D01*
X023679Y018143D01*
X023647Y018135D01*
X023615Y018130D01*
X023582Y018128D01*
X023897Y022144D02*
X023895Y022177D01*
X023890Y022209D01*
X023882Y022241D01*
X023870Y022272D01*
X023855Y022302D01*
X023837Y022329D01*
X023816Y022355D01*
X023793Y022378D01*
X023767Y022399D01*
X023740Y022417D01*
X023710Y022432D01*
X023679Y022444D01*
X023647Y022452D01*
X023615Y022457D01*
X023582Y022459D01*
X023615Y022457D01*
X023647Y022452D01*
X023679Y022444D01*
X023710Y022432D01*
X023740Y022417D01*
X023767Y022399D01*
X023793Y022378D01*
X023816Y022355D01*
X023837Y022329D01*
X023855Y022302D01*
X023870Y022272D01*
X023882Y022241D01*
X023890Y022209D01*
X023895Y022177D01*
X023897Y022144D01*
M02*
