%
M48
M72
T01C0.0118
%
T01
X6063Y6711
X6063Y7144
X6063Y8010
X6063Y8876
X6063Y9309
X6063Y9742
X9645Y9191
X10078Y9191
X10826Y9506
X11181Y9270
X11260Y8955
X11260Y8679
X11574Y8679
X11574Y8285
X11260Y8285
X11220Y7892
X10787Y7341
X10078Y7262
X10393Y8049
X11889Y8285
X11929Y8010
X11889Y7695
X12323Y6986
X12126Y6789
X12323Y6592
X12323Y9978
X12126Y10175
X12323Y10372
X12323Y9427
X11968Y9309
X11889Y8955
X11889Y8679
X12323Y12498
X12126Y12695
X12323Y12892
X11889Y13600
X11929Y13915
X11889Y14191
X11889Y14585
X11889Y14860
X11968Y15215
X12323Y15333
X12323Y15884
X12126Y16081
X12323Y16278
X11181Y15175
X11260Y14860
X11260Y14585
X11574Y14585
X11574Y14191
X11260Y14191
X11220Y13797
X10787Y13246
X10078Y13167
X10078Y15096
X6063Y14781
X6063Y15215
X6063Y15648
X6063Y13915
X6063Y13049
X6063Y12616
X9645Y15096
X10393Y13955
X10826Y15411
X16299Y15648
X16299Y15215
X16299Y14781
X19882Y15096
X20315Y15096
X21063Y15411
X21417Y15175
X21496Y14860
X21496Y14585
X21496Y14191
X21811Y14191
X22126Y14191
X22126Y14585
X22126Y14860
X21811Y14585
X22204Y15215
X22559Y15333
X22559Y15884
X22362Y16081
X22559Y16278
X16299Y13915
X16299Y13049
X16299Y12616
X16299Y9742
X16299Y9309
X16299Y8876
X19882Y9191
X20315Y9191
X21063Y9506
X21417Y9270
X21496Y8955
X21496Y8679
X21496Y8285
X21811Y8285
X22126Y8285
X22165Y8010
X22126Y7695
X22559Y6986
X22362Y6789
X22559Y6592
X21023Y7341
X20315Y7262
X20630Y8049
X21456Y7892
X21811Y8679
X22126Y8679
X22126Y8955
X22204Y9309
X22559Y9427
X22559Y9978
X22362Y10175
X22559Y10372
X22559Y12498
X22362Y12695
X22559Y12892
X22126Y13600
X22165Y13915
X21456Y13797
X21023Y13246
X20315Y13167
X20630Y13955
X22559Y18404
X22362Y18600
X22559Y18797
X22126Y19506
X22165Y19821
X22126Y20096
X21811Y20096
X21496Y20096
X21456Y19703
X21023Y19152
X20315Y21002
X16299Y20687
X16299Y21120
X16299Y21553
X16299Y19821
X16299Y18955
X16299Y18522
X19882Y21002
X20315Y19073
X20630Y19860
X21496Y20490
X21496Y20766
X21417Y21081
X21063Y21317
X21811Y20490
X22126Y20490
X22126Y20766
X22204Y21120
X22559Y21238
X22559Y21789
X22362Y21986
X22559Y22183
X10078Y21002
X6063Y20687
X6063Y21120
X6063Y21553
X6063Y19821
X6063Y18955
X6063Y18522
X9645Y21002
X10393Y19860
X10787Y19152
X10078Y19073
X11220Y19703
X11260Y20096
X11574Y20096
X11889Y20096
X11929Y19821
X11889Y19506
X12323Y18797
X12126Y18600
X12323Y18404
X11889Y20490
X11889Y20766
X11968Y21120
X12323Y21238
X12323Y21789
X12126Y21986
X12323Y22183
X11181Y21081
X11260Y20766
X11260Y20490
X11574Y20490
X10826Y21317
X16299Y8010
X16299Y7144
X16299Y6711
M30
