%
M48
M72
T01C0.0118
T02C0.0390
T03C0.1575
%
T01
X28189Y11799
X28031Y12114
X22598Y11917
X22598Y11484
X22598Y10618
X22598Y9752
X22598Y9319
X26378Y10657
X26378Y10067
X28071Y10224
X28897Y9948
X28228Y12468
X28858Y12232
X29370Y11878
X29370Y11563
X29370Y11248
X29370Y10933
X29370Y10618
X29370Y10303
X30000Y10303
X30000Y10618
X30000Y10933
X30000Y11248
X30000Y11563
X30000Y11878
X30433Y12035
X30433Y12586
X30236Y12783
X30433Y12941
X30433Y15145
X30236Y15303
X30433Y15500
X30000Y16208
X30000Y16523
X30000Y16838
X30000Y17153
X30000Y17468
X30000Y17783
X30433Y17941
X30433Y18492
X30236Y18689
X30433Y18846
X29370Y17783
X29370Y17468
X29370Y17153
X29370Y16838
X29370Y16523
X29370Y16208
X28897Y15854
X28071Y16130
X28189Y15775
X28228Y18374
X28189Y17704
X28031Y18019
X22598Y17822
X22598Y17389
X26378Y16563
X26378Y15972
X22598Y15657
X22598Y15224
X22598Y16523
X15630Y18374
X15590Y17704
X15433Y18019
X10000Y17822
X10000Y17389
X13779Y16563
X13779Y15972
X10000Y15657
X10000Y15224
X10000Y16523
X15472Y16130
X16299Y15854
X15866Y15224
X15590Y15775
X15905Y16563
X16220Y16996
X16771Y17153
X16771Y16838
X16771Y16523
X16771Y16208
X17401Y16208
X17401Y16523
X17401Y16838
X17401Y17153
X17401Y17468
X17401Y17783
X17834Y17941
X17834Y18492
X17637Y18689
X17834Y18846
X16771Y17783
X16771Y17468
X16260Y18137
X16574Y15539
X17637Y15303
X17834Y15145
X17834Y15500
X17834Y12941
X17637Y12783
X17834Y12586
X17834Y12035
X17401Y11878
X17401Y11563
X17401Y11248
X17401Y10933
X17401Y10618
X17401Y10303
X16771Y10303
X16771Y10618
X16771Y10933
X16771Y11248
X16771Y11563
X16771Y11878
X16260Y12232
X15590Y11799
X15433Y12114
X10000Y11917
X10000Y11484
X10000Y10618
X10000Y9752
X10000Y9319
X13779Y10657
X13779Y10067
X15472Y10224
X16299Y9948
X15630Y12468
X16220Y11090
X15905Y10657
X15590Y9870
X15866Y9319
X16574Y9633
X17637Y9397
X17834Y9240
X17834Y9594
X28189Y9870
X28504Y10657
X28819Y11090
X29173Y9633
X28464Y9319
X30236Y9397
X30433Y9240
X30433Y9594
X28464Y15224
X29173Y15539
X28504Y16563
X28819Y16996
X28858Y18137
X30433Y21051
X30236Y21208
X30433Y21405
X30000Y22114
X30000Y22429
X30000Y22744
X30000Y23059
X30000Y23374
X30000Y23689
X30433Y23846
X30433Y24397
X30236Y24594
X30433Y24752
X29370Y23689
X29370Y23374
X29370Y23059
X29370Y22744
X29370Y22429
X29370Y22114
X28897Y21759
X28071Y22035
X28189Y21681
X28228Y24279
X28031Y23925
X28189Y23610
X28858Y24043
X28819Y22901
X28504Y22468
X29173Y21444
X28464Y21130
X26378Y21878
X26378Y22468
X22598Y21563
X22598Y21130
X22598Y22429
X22598Y23295
X22598Y23728
X28464Y27035
X28228Y30185
X28189Y29515
X28031Y29830
X22598Y29633
X22598Y29200
X26378Y28374
X26378Y27783
X22598Y27035
X22598Y27468
X22598Y28334
X15630Y30185
X15590Y29515
X15433Y29830
X10000Y29633
X10000Y29200
X13779Y28374
X13779Y27783
X10000Y27035
X10000Y27468
X10000Y28334
X10000Y23728
X10000Y23295
X15433Y23925
X15590Y23610
X16260Y24043
X15630Y24279
X16771Y23689
X16771Y23374
X16771Y23059
X16771Y22744
X16771Y22429
X16771Y22114
X16299Y21759
X15472Y22035
X15590Y21681
X15866Y21130
X16574Y21444
X17401Y22114
X17401Y22429
X17401Y22744
X17401Y23059
X17401Y23374
X17401Y23689
X17834Y23846
X17834Y24397
X17637Y24594
X17834Y24752
X17834Y26956
X17637Y27114
X17834Y27311
X17401Y28019
X17401Y28334
X17401Y28649
X17401Y28964
X17401Y29279
X17401Y29594
X17834Y29752
X17834Y30303
X17637Y30500
X17834Y30657
X16771Y29594
X16771Y29279
X16771Y28964
X16771Y28649
X16771Y28334
X16771Y28019
X16299Y27665
X15472Y27941
X15590Y27586
X15866Y27035
X16574Y27350
X15905Y28374
X16220Y28807
X16260Y29948
X13779Y21878
X13779Y22468
X15905Y22468
X16220Y22901
X17834Y21405
X17637Y21208
X17834Y21051
X29173Y27350
X28897Y27665
X28071Y27941
X28189Y27586
X28504Y28374
X28819Y28807
X29370Y28964
X29370Y28649
X29370Y28334
X29370Y28019
X30000Y28019
X30000Y28334
X30000Y28649
X30000Y28964
X30000Y29279
X30000Y29594
X30433Y29752
X30433Y30303
X30236Y30500
X30433Y30657
X29370Y29594
X29370Y29279
X28858Y29948
X30433Y27311
X30236Y27114
X30433Y26956
X10000Y22429
X10000Y21563
X10000Y21130
T02
X14645Y23468
X15045Y21468
X14245Y21468
X14645Y17563
X15045Y15563
X14245Y15563
X14645Y11657
X15045Y9657
X14245Y9657
X27244Y11657
X27644Y9657
X26844Y9657
X27244Y17563
X27644Y15563
X26844Y15563
X14645Y29374
X15045Y27374
X14245Y27374
X27244Y29374
X27644Y27374
X26844Y27374
X26844Y21468
X27644Y21468
X27244Y23468
T03
X6181Y6956
X33740Y32941
X33740Y6956
X6181Y32941
M30
