G75*
%MOIN*%
%OFA0B0*%
%FSLAX24Y24*%
%IPPOS*%
%LPD*%
%AMOC8*
5,1,8,0,0,1.08239X$1,22.5*
%
%ADD10C,0.0000*%
%ADD11C,0.0079*%
D10*
X010787Y013256D02*
X010799Y013256D01*
X010799Y019161D02*
X010787Y019161D01*
X010799Y025067D02*
X010787Y025067D01*
X010799Y030972D02*
X010787Y030972D01*
X023385Y030972D02*
X023398Y030972D01*
X023398Y025067D02*
X023385Y025067D01*
X023398Y019161D02*
X023385Y019161D01*
X023398Y013256D02*
X023385Y013256D01*
D11*
X007954Y008730D02*
X007920Y008772D01*
X007895Y008819D01*
X007879Y008871D01*
X007874Y008925D01*
X007874Y013177D01*
X007880Y013246D01*
X007901Y013312D01*
X007933Y013374D01*
X007977Y013427D01*
X008031Y013471D01*
X008092Y013504D01*
X008159Y013524D01*
X008228Y013531D01*
X014055Y013531D01*
X014055Y013295D01*
X012016Y013295D01*
X011998Y013293D01*
X011982Y013286D01*
X011968Y013275D01*
X011726Y013033D01*
X011716Y013026D01*
X011705Y013021D01*
X011693Y013019D01*
X011338Y013019D01*
X011326Y013021D01*
X011315Y013027D01*
X011306Y013036D01*
X011301Y013046D01*
X011299Y013059D01*
X011299Y013177D01*
X011296Y013203D01*
X011287Y013228D01*
X011273Y013250D01*
X011254Y013269D01*
X011232Y013283D01*
X011207Y013292D01*
X011181Y013295D01*
X010780Y013295D01*
X010718Y013289D01*
X010659Y013271D01*
X010605Y013242D01*
X010557Y013203D01*
X010230Y012875D01*
X010182Y012836D01*
X010128Y012807D01*
X010068Y012789D01*
X007874Y012789D01*
X007874Y012712D02*
X008253Y012712D01*
X008267Y012723D02*
X008214Y012679D01*
X008170Y012626D01*
X008137Y012564D01*
X008117Y012498D01*
X008110Y012429D01*
X008110Y009240D01*
X008117Y009171D01*
X008137Y009104D01*
X008170Y009043D01*
X008214Y008989D01*
X008267Y008945D01*
X008329Y008912D01*
X008395Y008892D01*
X008464Y008885D01*
X014055Y008885D01*
X014055Y008649D01*
X008149Y008649D01*
X008096Y008655D01*
X008044Y008670D01*
X007996Y008696D01*
X007954Y008730D01*
X007920Y008773D02*
X014055Y008773D01*
X014055Y008850D02*
X007885Y008850D01*
X007874Y008927D02*
X008301Y008927D01*
X008201Y009004D02*
X007874Y009004D01*
X007874Y009082D02*
X008149Y009082D01*
X008120Y009159D02*
X007874Y009159D01*
X007874Y009236D02*
X008110Y009236D01*
X008110Y009313D02*
X007874Y009313D01*
X007874Y009390D02*
X008110Y009390D01*
X008110Y009468D02*
X007874Y009468D01*
X007874Y009545D02*
X008110Y009545D01*
X008110Y009622D02*
X007874Y009622D01*
X007874Y009699D02*
X008110Y009699D01*
X008110Y009777D02*
X007874Y009777D01*
X007874Y009854D02*
X008110Y009854D01*
X008110Y009931D02*
X007874Y009931D01*
X007874Y010008D02*
X008110Y010008D01*
X008110Y010086D02*
X007874Y010086D01*
X007874Y010163D02*
X008110Y010163D01*
X008110Y010240D02*
X007874Y010240D01*
X007874Y010317D02*
X008110Y010317D01*
X008110Y010395D02*
X007874Y010395D01*
X007874Y010472D02*
X008110Y010472D01*
X008110Y010549D02*
X007874Y010549D01*
X007874Y010626D02*
X008110Y010626D01*
X008110Y010704D02*
X007874Y010704D01*
X007874Y010781D02*
X008110Y010781D01*
X008110Y010858D02*
X007874Y010858D01*
X007874Y010935D02*
X008110Y010935D01*
X008110Y011013D02*
X007874Y011013D01*
X007874Y011090D02*
X008110Y011090D01*
X008110Y011167D02*
X007874Y011167D01*
X007874Y011244D02*
X008110Y011244D01*
X008110Y011322D02*
X007874Y011322D01*
X007874Y011399D02*
X008110Y011399D01*
X008110Y011476D02*
X007874Y011476D01*
X007874Y011553D02*
X008110Y011553D01*
X008110Y011630D02*
X007874Y011630D01*
X007874Y011708D02*
X008110Y011708D01*
X008110Y011785D02*
X007874Y011785D01*
X007874Y011862D02*
X008110Y011862D01*
X008110Y011939D02*
X007874Y011939D01*
X007874Y012017D02*
X008110Y012017D01*
X008110Y012094D02*
X007874Y012094D01*
X007874Y012171D02*
X008110Y012171D01*
X008110Y012248D02*
X007874Y012248D01*
X007874Y012326D02*
X008110Y012326D01*
X008110Y012403D02*
X007874Y012403D01*
X007874Y012480D02*
X008115Y012480D01*
X008135Y012557D02*
X007874Y012557D01*
X007874Y012635D02*
X008177Y012635D01*
X008267Y012723D02*
X008329Y012756D01*
X008395Y012776D01*
X008464Y012783D01*
X010007Y012783D01*
X010068Y012789D01*
X010219Y012866D02*
X007874Y012866D01*
X007874Y012944D02*
X010298Y012944D01*
X010375Y013021D02*
X007874Y013021D01*
X007874Y013098D02*
X010452Y013098D01*
X010530Y013175D02*
X007874Y013175D01*
X007883Y013253D02*
X010625Y013253D01*
X011271Y013253D02*
X011945Y013253D01*
X011868Y013175D02*
X011299Y013175D01*
X011299Y013098D02*
X011791Y013098D01*
X011704Y013021D02*
X011329Y013021D01*
X014055Y013330D02*
X007910Y013330D01*
X007961Y013407D02*
X014055Y013407D01*
X014055Y013484D02*
X008055Y013484D01*
X008149Y014555D02*
X008096Y014560D01*
X008044Y014576D01*
X007996Y014601D01*
X007954Y014635D01*
X007920Y014677D01*
X007895Y014725D01*
X007879Y014777D01*
X007874Y014830D01*
X007874Y019082D01*
X007880Y019151D01*
X007901Y019218D01*
X007933Y019279D01*
X007977Y019333D01*
X008031Y019377D01*
X008092Y019410D01*
X008159Y019430D01*
X008228Y019437D01*
X014055Y019437D01*
X014055Y019200D01*
X012016Y019200D01*
X011998Y019198D01*
X011982Y019191D01*
X011968Y019181D01*
X011726Y018939D01*
X011716Y018931D01*
X011705Y018926D01*
X011693Y018925D01*
X011338Y018925D01*
X011326Y018927D01*
X011315Y018932D01*
X011306Y018941D01*
X011301Y018952D01*
X011299Y018964D01*
X011299Y019082D01*
X011296Y019109D01*
X011287Y019134D01*
X011273Y019156D01*
X011254Y019175D01*
X011232Y019189D01*
X011207Y019197D01*
X011181Y019200D01*
X010780Y019200D01*
X010718Y019194D01*
X010659Y019176D01*
X010605Y019147D01*
X010557Y019108D01*
X010230Y018781D01*
X010182Y018742D01*
X010128Y018713D01*
X010068Y018695D01*
X010007Y018689D01*
X008464Y018689D01*
X008395Y018682D01*
X008329Y018662D01*
X008267Y018629D01*
X008214Y018585D01*
X008170Y018531D01*
X008137Y018470D01*
X008117Y018403D01*
X008110Y018334D01*
X008110Y015145D01*
X008117Y015076D01*
X008137Y015010D01*
X008170Y014948D01*
X008214Y014895D01*
X008267Y014851D01*
X008329Y014818D01*
X008395Y014798D01*
X008464Y014791D01*
X014055Y014791D01*
X014055Y014555D01*
X008149Y014555D01*
X008077Y014566D02*
X014055Y014566D01*
X014055Y014643D02*
X007948Y014643D01*
X007897Y014720D02*
X014055Y014720D01*
X011756Y018968D02*
X011299Y018968D01*
X011299Y019046D02*
X011833Y019046D01*
X011910Y019123D02*
X011291Y019123D01*
X011184Y019200D02*
X012013Y019200D01*
X010776Y019200D02*
X007895Y019200D01*
X007878Y019123D02*
X010575Y019123D01*
X010494Y019046D02*
X007874Y019046D01*
X007874Y018968D02*
X010417Y018968D01*
X010340Y018891D02*
X007874Y018891D01*
X007874Y018814D02*
X010263Y018814D01*
X010172Y018737D02*
X007874Y018737D01*
X007874Y018659D02*
X008324Y018659D01*
X008211Y018582D02*
X007874Y018582D01*
X007874Y018505D02*
X008156Y018505D01*
X008124Y018428D02*
X007874Y018428D01*
X007874Y018350D02*
X008111Y018350D01*
X008110Y018273D02*
X007874Y018273D01*
X007874Y018196D02*
X008110Y018196D01*
X008110Y018119D02*
X007874Y018119D01*
X007874Y018041D02*
X008110Y018041D01*
X008110Y017964D02*
X007874Y017964D01*
X007874Y017887D02*
X008110Y017887D01*
X008110Y017810D02*
X007874Y017810D01*
X007874Y017732D02*
X008110Y017732D01*
X008110Y017655D02*
X007874Y017655D01*
X007874Y017578D02*
X008110Y017578D01*
X008110Y017501D02*
X007874Y017501D01*
X007874Y017424D02*
X008110Y017424D01*
X008110Y017346D02*
X007874Y017346D01*
X007874Y017269D02*
X008110Y017269D01*
X008110Y017192D02*
X007874Y017192D01*
X007874Y017115D02*
X008110Y017115D01*
X008110Y017037D02*
X007874Y017037D01*
X007874Y016960D02*
X008110Y016960D01*
X008110Y016883D02*
X007874Y016883D01*
X007874Y016806D02*
X008110Y016806D01*
X008110Y016728D02*
X007874Y016728D01*
X007874Y016651D02*
X008110Y016651D01*
X008110Y016574D02*
X007874Y016574D01*
X007874Y016497D02*
X008110Y016497D01*
X008110Y016419D02*
X007874Y016419D01*
X007874Y016342D02*
X008110Y016342D01*
X008110Y016265D02*
X007874Y016265D01*
X007874Y016188D02*
X008110Y016188D01*
X008110Y016110D02*
X007874Y016110D01*
X007874Y016033D02*
X008110Y016033D01*
X008110Y015956D02*
X007874Y015956D01*
X007874Y015879D02*
X008110Y015879D01*
X008110Y015801D02*
X007874Y015801D01*
X007874Y015724D02*
X008110Y015724D01*
X008110Y015647D02*
X007874Y015647D01*
X007874Y015570D02*
X008110Y015570D01*
X008110Y015492D02*
X007874Y015492D01*
X007874Y015415D02*
X008110Y015415D01*
X008110Y015338D02*
X007874Y015338D01*
X007874Y015261D02*
X008110Y015261D01*
X008110Y015184D02*
X007874Y015184D01*
X007874Y015106D02*
X008114Y015106D01*
X008131Y015029D02*
X007874Y015029D01*
X007874Y014952D02*
X008168Y014952D01*
X008238Y014875D02*
X007874Y014875D01*
X007877Y014797D02*
X008399Y014797D01*
X007932Y019277D02*
X014055Y019277D01*
X014055Y019355D02*
X008004Y019355D01*
X008179Y019432D02*
X014055Y019432D01*
X014055Y020460D02*
X014055Y020696D01*
X008464Y020696D01*
X008395Y020703D01*
X008329Y020723D01*
X008267Y020756D01*
X008214Y020800D01*
X008170Y020854D01*
X008137Y020915D01*
X008117Y020982D01*
X008110Y021051D01*
X008110Y024240D01*
X008117Y024309D01*
X008137Y024375D01*
X007874Y024375D01*
X007874Y024298D02*
X008116Y024298D01*
X008110Y024221D02*
X007874Y024221D01*
X007874Y024143D02*
X008110Y024143D01*
X008110Y024066D02*
X007874Y024066D01*
X007874Y023989D02*
X008110Y023989D01*
X008110Y023912D02*
X007874Y023912D01*
X007874Y023834D02*
X008110Y023834D01*
X008110Y023757D02*
X007874Y023757D01*
X007874Y023680D02*
X008110Y023680D01*
X008110Y023603D02*
X007874Y023603D01*
X007874Y023525D02*
X008110Y023525D01*
X008110Y023448D02*
X007874Y023448D01*
X007874Y023371D02*
X008110Y023371D01*
X008110Y023294D02*
X007874Y023294D01*
X007874Y023217D02*
X008110Y023217D01*
X008110Y023139D02*
X007874Y023139D01*
X007874Y023062D02*
X008110Y023062D01*
X008110Y022985D02*
X007874Y022985D01*
X007874Y022908D02*
X008110Y022908D01*
X008110Y022830D02*
X007874Y022830D01*
X007874Y022753D02*
X008110Y022753D01*
X008110Y022676D02*
X007874Y022676D01*
X007874Y022599D02*
X008110Y022599D01*
X008110Y022521D02*
X007874Y022521D01*
X007874Y022444D02*
X008110Y022444D01*
X008110Y022367D02*
X007874Y022367D01*
X007874Y022290D02*
X008110Y022290D01*
X008110Y022212D02*
X007874Y022212D01*
X007874Y022135D02*
X008110Y022135D01*
X008110Y022058D02*
X007874Y022058D01*
X007874Y021981D02*
X008110Y021981D01*
X008110Y021903D02*
X007874Y021903D01*
X007874Y021826D02*
X008110Y021826D01*
X008110Y021749D02*
X007874Y021749D01*
X007874Y021672D02*
X008110Y021672D01*
X008110Y021594D02*
X007874Y021594D01*
X007874Y021517D02*
X008110Y021517D01*
X008110Y021440D02*
X007874Y021440D01*
X007874Y021363D02*
X008110Y021363D01*
X008110Y021286D02*
X007874Y021286D01*
X007874Y021208D02*
X008110Y021208D01*
X008110Y021131D02*
X007874Y021131D01*
X007874Y021054D02*
X008110Y021054D01*
X008118Y020977D02*
X007874Y020977D01*
X007874Y020899D02*
X008145Y020899D01*
X008196Y020822D02*
X007874Y020822D01*
X007874Y020745D02*
X008289Y020745D01*
X008149Y020460D02*
X008096Y020466D01*
X008044Y020481D01*
X007996Y020507D01*
X007954Y020541D01*
X007920Y020583D01*
X007895Y020630D01*
X007879Y020682D01*
X007874Y020736D01*
X007874Y024988D01*
X007880Y025057D01*
X007901Y025123D01*
X007933Y025185D01*
X007977Y025238D01*
X008031Y025282D01*
X008092Y025315D01*
X008159Y025335D01*
X008228Y025342D01*
X014055Y025342D01*
X014055Y025106D01*
X012016Y025106D01*
X011998Y025104D01*
X011982Y025097D01*
X011968Y025086D01*
X011726Y024844D01*
X011716Y024837D01*
X011705Y024832D01*
X011693Y024830D01*
X011338Y024830D01*
X011326Y024832D01*
X011315Y024838D01*
X011306Y024847D01*
X011301Y024858D01*
X011299Y024870D01*
X011299Y024988D01*
X011296Y025014D01*
X011287Y025039D01*
X011273Y025061D01*
X011254Y025080D01*
X011232Y025094D01*
X011207Y025103D01*
X011181Y025106D01*
X010780Y025106D01*
X010718Y025100D01*
X010659Y025082D01*
X010605Y025053D01*
X010557Y025014D01*
X010230Y024686D01*
X010182Y024647D01*
X010128Y024618D01*
X010068Y024600D01*
X010007Y024594D01*
X008464Y024594D01*
X008395Y024587D01*
X008329Y024567D01*
X008267Y024534D01*
X008214Y024490D01*
X008170Y024437D01*
X008137Y024375D01*
X008183Y024452D02*
X007874Y024452D01*
X007874Y024530D02*
X008262Y024530D01*
X007874Y024607D02*
X010091Y024607D01*
X010227Y024684D02*
X007874Y024684D01*
X007874Y024761D02*
X010305Y024761D01*
X010382Y024839D02*
X007874Y024839D01*
X007874Y024916D02*
X010459Y024916D01*
X010536Y024993D02*
X007874Y024993D01*
X007885Y025070D02*
X010637Y025070D01*
X011264Y025070D02*
X011952Y025070D01*
X011875Y024993D02*
X011298Y024993D01*
X011299Y024916D02*
X011798Y024916D01*
X011719Y024839D02*
X011314Y024839D01*
X014055Y025148D02*
X007914Y025148D01*
X007966Y025225D02*
X014055Y025225D01*
X014055Y025302D02*
X008068Y025302D01*
X008149Y026366D02*
X008096Y026371D01*
X008044Y026387D01*
X007996Y026412D01*
X007954Y026446D01*
X007920Y026488D01*
X007895Y026536D01*
X007879Y026588D01*
X007874Y026641D01*
X007874Y030893D01*
X007880Y030962D01*
X007901Y031029D01*
X007933Y031090D01*
X007977Y031144D01*
X008031Y031188D01*
X008092Y031221D01*
X008159Y031241D01*
X008228Y031248D01*
X014055Y031248D01*
X014055Y031011D01*
X012016Y031011D01*
X011998Y031009D01*
X011982Y031002D01*
X011968Y030992D01*
X011726Y030750D01*
X011716Y030742D01*
X011705Y030737D01*
X011693Y030736D01*
X011338Y030736D01*
X011326Y030738D01*
X011315Y030743D01*
X011306Y030752D01*
X011301Y030763D01*
X011299Y030775D01*
X011299Y030893D01*
X011296Y030920D01*
X011287Y030945D01*
X011273Y030967D01*
X011254Y030986D01*
X011232Y031000D01*
X011207Y031008D01*
X011181Y031011D01*
X010780Y031011D01*
X010718Y031005D01*
X010659Y030987D01*
X010605Y030958D01*
X010557Y030919D01*
X010230Y030592D01*
X010182Y030553D01*
X010128Y030524D01*
X010068Y030506D01*
X010007Y030500D01*
X008464Y030500D01*
X008395Y030493D01*
X008329Y030473D01*
X008267Y030440D01*
X008214Y030396D01*
X008170Y030342D01*
X008137Y030281D01*
X008117Y030214D01*
X008110Y030145D01*
X008110Y026956D01*
X008117Y026887D01*
X008137Y026821D01*
X008170Y026759D01*
X008214Y026706D01*
X008267Y026662D01*
X008329Y026629D01*
X008395Y026609D01*
X008464Y026602D01*
X014055Y026602D01*
X014055Y026366D01*
X008149Y026366D01*
X008055Y026383D02*
X014055Y026383D01*
X014055Y026461D02*
X007943Y026461D01*
X007894Y026538D02*
X014055Y026538D01*
X010184Y030554D02*
X007874Y030554D01*
X007874Y030477D02*
X008343Y030477D01*
X008219Y030400D02*
X007874Y030400D01*
X007874Y030323D02*
X008159Y030323D01*
X008126Y030245D02*
X007874Y030245D01*
X007874Y030168D02*
X008112Y030168D01*
X008110Y030091D02*
X007874Y030091D01*
X007874Y030014D02*
X008110Y030014D01*
X008110Y029936D02*
X007874Y029936D01*
X007874Y029859D02*
X008110Y029859D01*
X008110Y029782D02*
X007874Y029782D01*
X007874Y029705D02*
X008110Y029705D01*
X008110Y029627D02*
X007874Y029627D01*
X007874Y029550D02*
X008110Y029550D01*
X008110Y029473D02*
X007874Y029473D01*
X007874Y029396D02*
X008110Y029396D01*
X008110Y029319D02*
X007874Y029319D01*
X007874Y029241D02*
X008110Y029241D01*
X008110Y029164D02*
X007874Y029164D01*
X007874Y029087D02*
X008110Y029087D01*
X008110Y029010D02*
X007874Y029010D01*
X007874Y028932D02*
X008110Y028932D01*
X008110Y028855D02*
X007874Y028855D01*
X007874Y028778D02*
X008110Y028778D01*
X008110Y028701D02*
X007874Y028701D01*
X007874Y028623D02*
X008110Y028623D01*
X008110Y028546D02*
X007874Y028546D01*
X007874Y028469D02*
X008110Y028469D01*
X008110Y028392D02*
X007874Y028392D01*
X007874Y028314D02*
X008110Y028314D01*
X008110Y028237D02*
X007874Y028237D01*
X007874Y028160D02*
X008110Y028160D01*
X008110Y028083D02*
X007874Y028083D01*
X007874Y028005D02*
X008110Y028005D01*
X008110Y027928D02*
X007874Y027928D01*
X007874Y027851D02*
X008110Y027851D01*
X008110Y027774D02*
X007874Y027774D01*
X007874Y027696D02*
X008110Y027696D01*
X008110Y027619D02*
X007874Y027619D01*
X007874Y027542D02*
X008110Y027542D01*
X008110Y027465D02*
X007874Y027465D01*
X007874Y027388D02*
X008110Y027388D01*
X008110Y027310D02*
X007874Y027310D01*
X007874Y027233D02*
X008110Y027233D01*
X008110Y027156D02*
X007874Y027156D01*
X007874Y027079D02*
X008110Y027079D01*
X008110Y027001D02*
X007874Y027001D01*
X007874Y026924D02*
X008113Y026924D01*
X008129Y026847D02*
X007874Y026847D01*
X007874Y026770D02*
X008164Y026770D01*
X008230Y026692D02*
X007874Y026692D01*
X007876Y026615D02*
X008374Y026615D01*
X007874Y030632D02*
X010269Y030632D01*
X010347Y030709D02*
X007874Y030709D01*
X007874Y030786D02*
X010424Y030786D01*
X010501Y030863D02*
X007874Y030863D01*
X007878Y030941D02*
X010583Y030941D01*
X011289Y030941D02*
X011917Y030941D01*
X011840Y030863D02*
X011299Y030863D01*
X011299Y030786D02*
X011763Y030786D01*
X014055Y031018D02*
X007897Y031018D01*
X007937Y031095D02*
X014055Y031095D01*
X014055Y031172D02*
X008012Y031172D01*
X007883Y020668D02*
X014055Y020668D01*
X014055Y020590D02*
X007916Y020590D01*
X007988Y020513D02*
X014055Y020513D01*
X014055Y020460D02*
X008149Y020460D01*
X007997Y008695D02*
X014055Y008695D01*
X020472Y008925D02*
X020472Y013177D01*
X020479Y013246D01*
X020499Y013312D01*
X020532Y013374D01*
X020576Y013427D01*
X020630Y013471D01*
X020691Y013504D01*
X020757Y013524D01*
X020826Y013531D01*
X026653Y013531D01*
X026653Y013295D01*
X024614Y013295D01*
X024597Y013293D01*
X024581Y013286D01*
X024567Y013275D01*
X024325Y013033D01*
X024315Y013026D01*
X024303Y013021D01*
X024291Y013019D01*
X023937Y013019D01*
X023925Y013021D01*
X023914Y013027D01*
X023905Y013036D01*
X023899Y013046D01*
X023897Y013059D01*
X023897Y013177D01*
X023894Y013203D01*
X023886Y013228D01*
X023872Y013250D01*
X023853Y013269D01*
X023830Y013283D01*
X023805Y013292D01*
X023779Y013295D01*
X023378Y013295D01*
X023317Y013289D01*
X023258Y013271D01*
X023203Y013242D01*
X023155Y013203D01*
X022828Y012875D01*
X022780Y012836D01*
X022726Y012807D01*
X022667Y012789D01*
X022605Y012783D01*
X021063Y012783D01*
X020994Y012776D01*
X020927Y012756D01*
X020866Y012723D01*
X020812Y012679D01*
X020768Y012626D01*
X020735Y012564D01*
X020715Y012498D01*
X020708Y012429D01*
X020708Y009240D01*
X020715Y009171D01*
X020735Y009104D01*
X020768Y009043D01*
X020812Y008989D01*
X020866Y008945D01*
X020927Y008912D01*
X020994Y008892D01*
X021063Y008885D01*
X026653Y008885D01*
X026653Y008649D01*
X020748Y008649D01*
X020694Y008655D01*
X020642Y008670D01*
X020595Y008696D01*
X020553Y008730D01*
X020519Y008772D01*
X020493Y008819D01*
X020477Y008871D01*
X020472Y008925D01*
X020472Y008927D02*
X020900Y008927D01*
X020800Y009004D02*
X020472Y009004D01*
X020472Y009082D02*
X020747Y009082D01*
X020719Y009159D02*
X020472Y009159D01*
X020472Y009236D02*
X020709Y009236D01*
X020708Y009313D02*
X020472Y009313D01*
X020472Y009390D02*
X020708Y009390D01*
X020708Y009468D02*
X020472Y009468D01*
X020472Y009545D02*
X020708Y009545D01*
X020708Y009622D02*
X020472Y009622D01*
X020472Y009699D02*
X020708Y009699D01*
X020708Y009777D02*
X020472Y009777D01*
X020472Y009854D02*
X020708Y009854D01*
X020708Y009931D02*
X020472Y009931D01*
X020472Y010008D02*
X020708Y010008D01*
X020708Y010086D02*
X020472Y010086D01*
X020472Y010163D02*
X020708Y010163D01*
X020708Y010240D02*
X020472Y010240D01*
X020472Y010317D02*
X020708Y010317D01*
X020708Y010395D02*
X020472Y010395D01*
X020472Y010472D02*
X020708Y010472D01*
X020708Y010549D02*
X020472Y010549D01*
X020472Y010626D02*
X020708Y010626D01*
X020708Y010704D02*
X020472Y010704D01*
X020472Y010781D02*
X020708Y010781D01*
X020708Y010858D02*
X020472Y010858D01*
X020472Y010935D02*
X020708Y010935D01*
X020708Y011013D02*
X020472Y011013D01*
X020472Y011090D02*
X020708Y011090D01*
X020708Y011167D02*
X020472Y011167D01*
X020472Y011244D02*
X020708Y011244D01*
X020708Y011322D02*
X020472Y011322D01*
X020472Y011399D02*
X020708Y011399D01*
X020708Y011476D02*
X020472Y011476D01*
X020472Y011553D02*
X020708Y011553D01*
X020708Y011630D02*
X020472Y011630D01*
X020472Y011708D02*
X020708Y011708D01*
X020708Y011785D02*
X020472Y011785D01*
X020472Y011862D02*
X020708Y011862D01*
X020708Y011939D02*
X020472Y011939D01*
X020472Y012017D02*
X020708Y012017D01*
X020708Y012094D02*
X020472Y012094D01*
X020472Y012171D02*
X020708Y012171D01*
X020708Y012248D02*
X020472Y012248D01*
X020472Y012326D02*
X020708Y012326D01*
X020708Y012403D02*
X020472Y012403D01*
X020472Y012480D02*
X020713Y012480D01*
X020733Y012557D02*
X020472Y012557D01*
X020472Y012635D02*
X020775Y012635D01*
X020852Y012712D02*
X020472Y012712D01*
X020472Y012789D02*
X022666Y012789D01*
X022817Y012866D02*
X020472Y012866D01*
X020472Y012944D02*
X022896Y012944D01*
X022974Y013021D02*
X020472Y013021D01*
X020472Y013098D02*
X023051Y013098D01*
X023128Y013175D02*
X020472Y013175D01*
X020481Y013253D02*
X023223Y013253D01*
X023869Y013253D02*
X024544Y013253D01*
X024467Y013175D02*
X023897Y013175D01*
X023897Y013098D02*
X024389Y013098D01*
X024302Y013021D02*
X023927Y013021D01*
X026653Y013330D02*
X020508Y013330D01*
X020559Y013407D02*
X026653Y013407D01*
X026653Y013484D02*
X020654Y013484D01*
X020748Y014555D02*
X020694Y014560D01*
X020642Y014576D01*
X020595Y014601D01*
X020553Y014635D01*
X020519Y014677D01*
X020493Y014725D01*
X020477Y014777D01*
X020472Y014830D01*
X020472Y019082D01*
X020479Y019151D01*
X020499Y019218D01*
X020532Y019279D01*
X020576Y019333D01*
X020630Y019377D01*
X020691Y019410D01*
X020757Y019430D01*
X020826Y019437D01*
X026653Y019437D01*
X026653Y019200D01*
X024614Y019200D01*
X024597Y019198D01*
X024581Y019191D01*
X024567Y019181D01*
X024325Y018939D01*
X024315Y018931D01*
X024303Y018926D01*
X024291Y018925D01*
X023937Y018925D01*
X023925Y018927D01*
X023914Y018932D01*
X023905Y018941D01*
X023899Y018952D01*
X023897Y018964D01*
X023897Y019082D01*
X023894Y019109D01*
X023886Y019134D01*
X023872Y019156D01*
X023853Y019175D01*
X023830Y019189D01*
X023805Y019197D01*
X023779Y019200D01*
X023378Y019200D01*
X023317Y019194D01*
X023258Y019176D01*
X023203Y019147D01*
X023155Y019108D01*
X022828Y018781D01*
X022780Y018742D01*
X022726Y018713D01*
X022667Y018695D01*
X022605Y018689D01*
X021063Y018689D01*
X020994Y018682D01*
X020927Y018662D01*
X020866Y018629D01*
X020812Y018585D01*
X020768Y018531D01*
X020735Y018470D01*
X020715Y018403D01*
X020708Y018334D01*
X020708Y015145D01*
X020715Y015076D01*
X020735Y015010D01*
X020768Y014948D01*
X020812Y014895D01*
X020866Y014851D01*
X020927Y014818D01*
X020994Y014798D01*
X021063Y014791D01*
X026653Y014791D01*
X026653Y014555D01*
X020748Y014555D01*
X020676Y014566D02*
X026653Y014566D01*
X026653Y014643D02*
X020547Y014643D01*
X020496Y014720D02*
X026653Y014720D01*
X024354Y018968D02*
X023897Y018968D01*
X023897Y019046D02*
X024431Y019046D01*
X024509Y019123D02*
X023889Y019123D01*
X023782Y019200D02*
X024611Y019200D01*
X023374Y019200D02*
X020494Y019200D01*
X020476Y019123D02*
X023173Y019123D01*
X023093Y019046D02*
X020472Y019046D01*
X020472Y018968D02*
X023016Y018968D01*
X022938Y018891D02*
X020472Y018891D01*
X020472Y018814D02*
X022861Y018814D01*
X022771Y018737D02*
X020472Y018737D01*
X020472Y018659D02*
X020923Y018659D01*
X020810Y018582D02*
X020472Y018582D01*
X020472Y018505D02*
X020754Y018505D01*
X020722Y018428D02*
X020472Y018428D01*
X020472Y018350D02*
X020710Y018350D01*
X020708Y018273D02*
X020472Y018273D01*
X020472Y018196D02*
X020708Y018196D01*
X020708Y018119D02*
X020472Y018119D01*
X020472Y018041D02*
X020708Y018041D01*
X020708Y017964D02*
X020472Y017964D01*
X020472Y017887D02*
X020708Y017887D01*
X020708Y017810D02*
X020472Y017810D01*
X020472Y017732D02*
X020708Y017732D01*
X020708Y017655D02*
X020472Y017655D01*
X020472Y017578D02*
X020708Y017578D01*
X020708Y017501D02*
X020472Y017501D01*
X020472Y017424D02*
X020708Y017424D01*
X020708Y017346D02*
X020472Y017346D01*
X020472Y017269D02*
X020708Y017269D01*
X020708Y017192D02*
X020472Y017192D01*
X020472Y017115D02*
X020708Y017115D01*
X020708Y017037D02*
X020472Y017037D01*
X020472Y016960D02*
X020708Y016960D01*
X020708Y016883D02*
X020472Y016883D01*
X020472Y016806D02*
X020708Y016806D01*
X020708Y016728D02*
X020472Y016728D01*
X020472Y016651D02*
X020708Y016651D01*
X020708Y016574D02*
X020472Y016574D01*
X020472Y016497D02*
X020708Y016497D01*
X020708Y016419D02*
X020472Y016419D01*
X020472Y016342D02*
X020708Y016342D01*
X020708Y016265D02*
X020472Y016265D01*
X020472Y016188D02*
X020708Y016188D01*
X020708Y016110D02*
X020472Y016110D01*
X020472Y016033D02*
X020708Y016033D01*
X020708Y015956D02*
X020472Y015956D01*
X020472Y015879D02*
X020708Y015879D01*
X020708Y015801D02*
X020472Y015801D01*
X020472Y015724D02*
X020708Y015724D01*
X020708Y015647D02*
X020472Y015647D01*
X020472Y015570D02*
X020708Y015570D01*
X020708Y015492D02*
X020472Y015492D01*
X020472Y015415D02*
X020708Y015415D01*
X020708Y015338D02*
X020472Y015338D01*
X020472Y015261D02*
X020708Y015261D01*
X020708Y015184D02*
X020472Y015184D01*
X020472Y015106D02*
X020712Y015106D01*
X020729Y015029D02*
X020472Y015029D01*
X020472Y014952D02*
X020766Y014952D01*
X020837Y014875D02*
X020472Y014875D01*
X020475Y014797D02*
X020998Y014797D01*
X020531Y019277D02*
X026653Y019277D01*
X026653Y019355D02*
X020602Y019355D01*
X020777Y019432D02*
X026653Y019432D01*
X026653Y020460D02*
X026653Y020696D01*
X021063Y020696D01*
X020994Y020703D01*
X020927Y020723D01*
X020866Y020756D01*
X020812Y020800D01*
X020768Y020854D01*
X020735Y020915D01*
X020715Y020982D01*
X020708Y021051D01*
X020708Y024240D01*
X020715Y024309D01*
X020735Y024375D01*
X020472Y024375D01*
X020472Y024298D02*
X020714Y024298D01*
X020708Y024221D02*
X020472Y024221D01*
X020472Y024143D02*
X020708Y024143D01*
X020708Y024066D02*
X020472Y024066D01*
X020472Y023989D02*
X020708Y023989D01*
X020708Y023912D02*
X020472Y023912D01*
X020472Y023834D02*
X020708Y023834D01*
X020708Y023757D02*
X020472Y023757D01*
X020472Y023680D02*
X020708Y023680D01*
X020708Y023603D02*
X020472Y023603D01*
X020472Y023525D02*
X020708Y023525D01*
X020708Y023448D02*
X020472Y023448D01*
X020472Y023371D02*
X020708Y023371D01*
X020708Y023294D02*
X020472Y023294D01*
X020472Y023217D02*
X020708Y023217D01*
X020708Y023139D02*
X020472Y023139D01*
X020472Y023062D02*
X020708Y023062D01*
X020708Y022985D02*
X020472Y022985D01*
X020472Y022908D02*
X020708Y022908D01*
X020708Y022830D02*
X020472Y022830D01*
X020472Y022753D02*
X020708Y022753D01*
X020708Y022676D02*
X020472Y022676D01*
X020472Y022599D02*
X020708Y022599D01*
X020708Y022521D02*
X020472Y022521D01*
X020472Y022444D02*
X020708Y022444D01*
X020708Y022367D02*
X020472Y022367D01*
X020472Y022290D02*
X020708Y022290D01*
X020708Y022212D02*
X020472Y022212D01*
X020472Y022135D02*
X020708Y022135D01*
X020708Y022058D02*
X020472Y022058D01*
X020472Y021981D02*
X020708Y021981D01*
X020708Y021903D02*
X020472Y021903D01*
X020472Y021826D02*
X020708Y021826D01*
X020708Y021749D02*
X020472Y021749D01*
X020472Y021672D02*
X020708Y021672D01*
X020708Y021594D02*
X020472Y021594D01*
X020472Y021517D02*
X020708Y021517D01*
X020708Y021440D02*
X020472Y021440D01*
X020472Y021363D02*
X020708Y021363D01*
X020708Y021286D02*
X020472Y021286D01*
X020472Y021208D02*
X020708Y021208D01*
X020708Y021131D02*
X020472Y021131D01*
X020472Y021054D02*
X020708Y021054D01*
X020717Y020977D02*
X020472Y020977D01*
X020472Y020899D02*
X020744Y020899D01*
X020794Y020822D02*
X020472Y020822D01*
X020472Y020745D02*
X020887Y020745D01*
X020748Y020460D02*
X020694Y020466D01*
X020642Y020481D01*
X020595Y020507D01*
X020553Y020541D01*
X020519Y020583D01*
X020493Y020630D01*
X020477Y020682D01*
X020472Y020736D01*
X020472Y024988D01*
X020479Y025057D01*
X020499Y025123D01*
X020532Y025185D01*
X020576Y025238D01*
X020630Y025282D01*
X020691Y025315D01*
X020757Y025335D01*
X020826Y025342D01*
X026653Y025342D01*
X026653Y025106D01*
X024614Y025106D01*
X024597Y025104D01*
X024581Y025097D01*
X024567Y025086D01*
X024325Y024844D01*
X024315Y024837D01*
X024303Y024832D01*
X024291Y024830D01*
X023937Y024830D01*
X023925Y024832D01*
X023914Y024838D01*
X023905Y024847D01*
X023899Y024858D01*
X023897Y024870D01*
X023897Y024988D01*
X023894Y025014D01*
X023886Y025039D01*
X023872Y025061D01*
X023853Y025080D01*
X023830Y025094D01*
X023805Y025103D01*
X023779Y025106D01*
X023378Y025106D01*
X023317Y025100D01*
X023258Y025082D01*
X023203Y025053D01*
X023155Y025014D01*
X022828Y024686D01*
X022780Y024647D01*
X022726Y024618D01*
X022667Y024600D01*
X022605Y024594D01*
X021063Y024594D01*
X020994Y024587D01*
X020927Y024567D01*
X020866Y024534D01*
X020812Y024490D01*
X020768Y024437D01*
X020735Y024375D01*
X020781Y024452D02*
X020472Y024452D01*
X020472Y024530D02*
X020860Y024530D01*
X020472Y024607D02*
X022689Y024607D01*
X022825Y024684D02*
X020472Y024684D01*
X020472Y024761D02*
X022903Y024761D01*
X022980Y024839D02*
X020472Y024839D01*
X020472Y024916D02*
X023058Y024916D01*
X023135Y024993D02*
X020473Y024993D01*
X020483Y025070D02*
X023236Y025070D01*
X023863Y025070D02*
X024551Y025070D01*
X024473Y024993D02*
X023897Y024993D01*
X023897Y024916D02*
X024396Y024916D01*
X024317Y024839D02*
X023913Y024839D01*
X026653Y025148D02*
X020512Y025148D01*
X020565Y025225D02*
X026653Y025225D01*
X026653Y025302D02*
X020666Y025302D01*
X020748Y026366D02*
X020694Y026371D01*
X020642Y026387D01*
X020595Y026412D01*
X020553Y026446D01*
X020519Y026488D01*
X020493Y026536D01*
X020477Y026588D01*
X020472Y026641D01*
X020472Y030893D01*
X020479Y030962D01*
X020499Y031029D01*
X020532Y031090D01*
X020576Y031144D01*
X020630Y031188D01*
X020691Y031221D01*
X020757Y031241D01*
X020826Y031248D01*
X026653Y031248D01*
X026653Y031011D01*
X024614Y031011D01*
X024597Y031009D01*
X024581Y031002D01*
X024567Y030992D01*
X024325Y030750D01*
X024315Y030742D01*
X024303Y030737D01*
X024291Y030736D01*
X023937Y030736D01*
X023925Y030738D01*
X023914Y030743D01*
X023905Y030752D01*
X023899Y030763D01*
X023897Y030775D01*
X023897Y030893D01*
X023894Y030920D01*
X023886Y030945D01*
X023872Y030967D01*
X023853Y030986D01*
X023830Y031000D01*
X023805Y031008D01*
X023779Y031011D01*
X023378Y031011D01*
X023317Y031005D01*
X023258Y030987D01*
X023203Y030958D01*
X023155Y030919D01*
X022828Y030592D01*
X022780Y030553D01*
X022726Y030524D01*
X022667Y030506D01*
X022605Y030500D01*
X021063Y030500D01*
X020994Y030493D01*
X020927Y030473D01*
X020866Y030440D01*
X020812Y030396D01*
X020768Y030342D01*
X020735Y030281D01*
X020715Y030214D01*
X020708Y030145D01*
X020708Y026956D01*
X020715Y026887D01*
X020735Y026821D01*
X020768Y026759D01*
X020812Y026706D01*
X020866Y026662D01*
X020927Y026629D01*
X020994Y026609D01*
X021063Y026602D01*
X026653Y026602D01*
X026653Y026366D01*
X020748Y026366D01*
X020653Y026383D02*
X026653Y026383D01*
X026653Y026461D02*
X020541Y026461D01*
X020492Y026538D02*
X026653Y026538D01*
X022782Y030554D02*
X020472Y030554D01*
X020472Y030477D02*
X020942Y030477D01*
X020817Y030400D02*
X020472Y030400D01*
X020472Y030323D02*
X020758Y030323D01*
X020725Y030245D02*
X020472Y030245D01*
X020472Y030168D02*
X020711Y030168D01*
X020708Y030091D02*
X020472Y030091D01*
X020472Y030014D02*
X020708Y030014D01*
X020708Y029936D02*
X020472Y029936D01*
X020472Y029859D02*
X020708Y029859D01*
X020708Y029782D02*
X020472Y029782D01*
X020472Y029705D02*
X020708Y029705D01*
X020708Y029627D02*
X020472Y029627D01*
X020472Y029550D02*
X020708Y029550D01*
X020708Y029473D02*
X020472Y029473D01*
X020472Y029396D02*
X020708Y029396D01*
X020708Y029319D02*
X020472Y029319D01*
X020472Y029241D02*
X020708Y029241D01*
X020708Y029164D02*
X020472Y029164D01*
X020472Y029087D02*
X020708Y029087D01*
X020708Y029010D02*
X020472Y029010D01*
X020472Y028932D02*
X020708Y028932D01*
X020708Y028855D02*
X020472Y028855D01*
X020472Y028778D02*
X020708Y028778D01*
X020708Y028701D02*
X020472Y028701D01*
X020472Y028623D02*
X020708Y028623D01*
X020708Y028546D02*
X020472Y028546D01*
X020472Y028469D02*
X020708Y028469D01*
X020708Y028392D02*
X020472Y028392D01*
X020472Y028314D02*
X020708Y028314D01*
X020708Y028237D02*
X020472Y028237D01*
X020472Y028160D02*
X020708Y028160D01*
X020708Y028083D02*
X020472Y028083D01*
X020472Y028005D02*
X020708Y028005D01*
X020708Y027928D02*
X020472Y027928D01*
X020472Y027851D02*
X020708Y027851D01*
X020708Y027774D02*
X020472Y027774D01*
X020472Y027696D02*
X020708Y027696D01*
X020708Y027619D02*
X020472Y027619D01*
X020472Y027542D02*
X020708Y027542D01*
X020708Y027465D02*
X020472Y027465D01*
X020472Y027388D02*
X020708Y027388D01*
X020708Y027310D02*
X020472Y027310D01*
X020472Y027233D02*
X020708Y027233D01*
X020708Y027156D02*
X020472Y027156D01*
X020472Y027079D02*
X020708Y027079D01*
X020708Y027001D02*
X020472Y027001D01*
X020472Y026924D02*
X020712Y026924D01*
X020727Y026847D02*
X020472Y026847D01*
X020472Y026770D02*
X020763Y026770D01*
X020828Y026692D02*
X020472Y026692D01*
X020475Y026615D02*
X020973Y026615D01*
X020472Y030632D02*
X022868Y030632D01*
X022945Y030709D02*
X020472Y030709D01*
X020472Y030786D02*
X023022Y030786D01*
X023100Y030863D02*
X020472Y030863D01*
X020477Y030941D02*
X023182Y030941D01*
X023887Y030941D02*
X024515Y030941D01*
X024438Y030863D02*
X023897Y030863D01*
X023897Y030786D02*
X024361Y030786D01*
X026653Y031018D02*
X020496Y031018D01*
X020536Y031095D02*
X026653Y031095D01*
X026653Y031172D02*
X020611Y031172D01*
X020482Y020668D02*
X026653Y020668D01*
X026653Y020590D02*
X020514Y020590D01*
X020587Y020513D02*
X026653Y020513D01*
X026653Y020460D02*
X020748Y020460D01*
X020484Y008850D02*
X026653Y008850D01*
X026653Y008773D02*
X020518Y008773D01*
X020595Y008695D02*
X026653Y008695D01*
M02*
