G75*
%MOIN*%
%OFA0B0*%
%FSLAX24Y24*%
%IPPOS*%
%LPD*%
%AMOC8*
5,1,8,0,0,1.08239X$1,22.5*
%
%ADD10C,0.0080*%
%ADD11R,0.0236X0.0118*%
%ADD12R,0.0118X0.0118*%
%ADD13R,0.0118X0.0236*%
%ADD14R,0.0276X0.0276*%
%ADD15C,0.0787*%
%ADD16C,0.0315*%
%ADD17C,0.0310*%
%ADD18C,0.0236*%
%ADD19C,0.0118*%
%ADD20C,0.0236*%
%ADD21C,0.0098*%
%ADD22C,0.0315*%
D10*
X012874Y011603D02*
X012874Y011812D01*
X012874Y011707D02*
X012979Y011812D01*
X013031Y011812D01*
X013176Y011864D02*
X013229Y011917D01*
X013333Y011917D01*
X013386Y011864D01*
X013176Y011655D01*
X013229Y011603D01*
X013333Y011603D01*
X013386Y011655D01*
X013386Y011864D01*
X013539Y011864D02*
X013591Y011917D01*
X013696Y011917D01*
X013748Y011864D01*
X013748Y011812D01*
X013696Y011760D01*
X013748Y011707D01*
X013748Y011655D01*
X013696Y011603D01*
X013591Y011603D01*
X013539Y011655D01*
X013644Y011760D02*
X013696Y011760D01*
X013176Y011655D02*
X013176Y011864D01*
X013229Y017508D02*
X013176Y017560D01*
X013386Y017770D01*
X013386Y017560D01*
X013333Y017508D01*
X013229Y017508D01*
X013176Y017560D02*
X013176Y017770D01*
X013229Y017822D01*
X013333Y017822D01*
X013386Y017770D01*
X013539Y017770D02*
X013591Y017822D01*
X013696Y017822D01*
X013748Y017770D01*
X013748Y017717D01*
X013696Y017665D01*
X013748Y017613D01*
X013748Y017560D01*
X013696Y017508D01*
X013591Y017508D01*
X013539Y017560D01*
X013644Y017665D02*
X013696Y017665D01*
X013031Y017717D02*
X012979Y017717D01*
X012874Y017613D01*
X012874Y017717D02*
X012874Y017508D01*
X012874Y023414D02*
X012874Y023623D01*
X012874Y023518D02*
X012979Y023623D01*
X013031Y023623D01*
X013176Y023675D02*
X013229Y023728D01*
X013333Y023728D01*
X013386Y023675D01*
X013176Y023466D01*
X013229Y023414D01*
X013333Y023414D01*
X013386Y023466D01*
X013386Y023675D01*
X013539Y023675D02*
X013591Y023728D01*
X013696Y023728D01*
X013748Y023675D01*
X013748Y023623D01*
X013696Y023571D01*
X013748Y023518D01*
X013748Y023466D01*
X013696Y023414D01*
X013591Y023414D01*
X013539Y023466D01*
X013644Y023571D02*
X013696Y023571D01*
X013176Y023466D02*
X013176Y023675D01*
X013229Y029319D02*
X013176Y029371D01*
X013386Y029581D01*
X013386Y029371D01*
X013333Y029319D01*
X013229Y029319D01*
X013176Y029371D02*
X013176Y029581D01*
X013229Y029633D01*
X013333Y029633D01*
X013386Y029581D01*
X013539Y029581D02*
X013591Y029633D01*
X013696Y029633D01*
X013748Y029581D01*
X013748Y029528D01*
X013696Y029476D01*
X013748Y029424D01*
X013748Y029371D01*
X013696Y029319D01*
X013591Y029319D01*
X013539Y029371D01*
X013644Y029476D02*
X013696Y029476D01*
X013031Y029528D02*
X012979Y029528D01*
X012874Y029424D01*
X012874Y029528D02*
X012874Y029319D01*
X025473Y029319D02*
X025473Y029528D01*
X025473Y029424D02*
X025577Y029528D01*
X025630Y029528D01*
X025775Y029581D02*
X025775Y029371D01*
X025984Y029581D01*
X025984Y029371D01*
X025932Y029319D01*
X025827Y029319D01*
X025775Y029371D01*
X025775Y029581D02*
X025827Y029633D01*
X025932Y029633D01*
X025984Y029581D01*
X026137Y029581D02*
X026190Y029633D01*
X026294Y029633D01*
X026347Y029581D01*
X026347Y029528D01*
X026294Y029476D01*
X026347Y029424D01*
X026347Y029371D01*
X026294Y029319D01*
X026190Y029319D01*
X026137Y029371D01*
X026242Y029476D02*
X026294Y029476D01*
X026190Y023728D02*
X026294Y023728D01*
X026347Y023675D01*
X026347Y023623D01*
X026294Y023571D01*
X026347Y023518D01*
X026347Y023466D01*
X026294Y023414D01*
X026190Y023414D01*
X026137Y023466D01*
X026242Y023571D02*
X026294Y023571D01*
X026137Y023675D02*
X026190Y023728D01*
X025984Y023675D02*
X025775Y023466D01*
X025827Y023414D01*
X025932Y023414D01*
X025984Y023466D01*
X025984Y023675D01*
X025932Y023728D01*
X025827Y023728D01*
X025775Y023675D01*
X025775Y023466D01*
X025630Y023623D02*
X025577Y023623D01*
X025473Y023518D01*
X025473Y023414D02*
X025473Y023623D01*
X025827Y017822D02*
X025932Y017822D01*
X025984Y017770D01*
X025775Y017560D01*
X025827Y017508D01*
X025932Y017508D01*
X025984Y017560D01*
X025984Y017770D01*
X026137Y017770D02*
X026190Y017822D01*
X026294Y017822D01*
X026347Y017770D01*
X026347Y017717D01*
X026294Y017665D01*
X026347Y017613D01*
X026347Y017560D01*
X026294Y017508D01*
X026190Y017508D01*
X026137Y017560D01*
X026242Y017665D02*
X026294Y017665D01*
X025827Y017822D02*
X025775Y017770D01*
X025775Y017560D01*
X025630Y017717D02*
X025577Y017717D01*
X025473Y017613D01*
X025473Y017717D02*
X025473Y017508D01*
X025827Y011917D02*
X025932Y011917D01*
X025984Y011864D01*
X025775Y011655D01*
X025827Y011603D01*
X025932Y011603D01*
X025984Y011655D01*
X025984Y011864D01*
X026137Y011864D02*
X026190Y011917D01*
X026294Y011917D01*
X026347Y011864D01*
X026347Y011812D01*
X026294Y011760D01*
X026347Y011707D01*
X026347Y011655D01*
X026294Y011603D01*
X026190Y011603D01*
X026137Y011655D01*
X026242Y011760D02*
X026294Y011760D01*
X025827Y011917D02*
X025775Y011864D01*
X025775Y011655D01*
X025630Y011812D02*
X025577Y011812D01*
X025473Y011707D01*
X025473Y011603D02*
X025473Y011812D01*
D11*
X029055Y011858D03*
X029055Y011602D03*
X029055Y011346D03*
X029055Y011090D03*
X029055Y010834D03*
X029055Y010578D03*
X029055Y010322D03*
X030315Y010322D03*
X030315Y010578D03*
X030315Y010834D03*
X030315Y011090D03*
X030315Y011346D03*
X030315Y011602D03*
X030315Y011858D03*
X030315Y016228D03*
X030315Y016484D03*
X030315Y016740D03*
X030315Y016996D03*
X030315Y017252D03*
X030315Y017507D03*
X030315Y017763D03*
X029055Y017763D03*
X029055Y017507D03*
X029055Y017252D03*
X029055Y016996D03*
X029055Y016740D03*
X029055Y016484D03*
X029055Y016228D03*
X029055Y022133D03*
X029055Y022389D03*
X029055Y022645D03*
X029055Y022901D03*
X029055Y023157D03*
X029055Y023413D03*
X029055Y023669D03*
X030315Y023669D03*
X030315Y023413D03*
X030315Y023157D03*
X030315Y022901D03*
X030315Y022645D03*
X030315Y022389D03*
X030315Y022133D03*
X030315Y028039D03*
X030315Y028295D03*
X030315Y028551D03*
X030315Y028807D03*
X030315Y029063D03*
X030315Y029319D03*
X030315Y029574D03*
X029055Y029574D03*
X029055Y029319D03*
X029055Y029063D03*
X029055Y028807D03*
X029055Y028551D03*
X029055Y028295D03*
X029055Y028039D03*
X017716Y028039D03*
X017716Y028295D03*
X017716Y028551D03*
X017716Y028807D03*
X017716Y029063D03*
X017716Y029319D03*
X017716Y029574D03*
X016456Y029574D03*
X016456Y029319D03*
X016456Y029063D03*
X016456Y028807D03*
X016456Y028551D03*
X016456Y028295D03*
X016456Y028039D03*
X016456Y023669D03*
X016456Y023413D03*
X016456Y023157D03*
X016456Y022901D03*
X016456Y022645D03*
X016456Y022389D03*
X016456Y022133D03*
X017716Y022133D03*
X017716Y022389D03*
X017716Y022645D03*
X017716Y022901D03*
X017716Y023157D03*
X017716Y023413D03*
X017716Y023669D03*
X017716Y017763D03*
X017716Y017507D03*
X017716Y017252D03*
X017716Y016996D03*
X017716Y016740D03*
X017716Y016484D03*
X017716Y016228D03*
X016456Y016228D03*
X016456Y016484D03*
X016456Y016740D03*
X016456Y016996D03*
X016456Y017252D03*
X016456Y017507D03*
X016456Y017763D03*
X016456Y011858D03*
X016456Y011602D03*
X016456Y011346D03*
X016456Y011090D03*
X016456Y010834D03*
X016456Y010578D03*
X016456Y010322D03*
X017716Y010322D03*
X017716Y010578D03*
X017716Y010834D03*
X017716Y011090D03*
X017716Y011346D03*
X017716Y011602D03*
X017716Y011858D03*
D12*
X017214Y011858D03*
X017214Y010362D03*
X016958Y010362D03*
X016958Y016267D03*
X017214Y016267D03*
X017214Y017763D03*
X017214Y022173D03*
X016958Y022173D03*
X017214Y023669D03*
X017214Y028078D03*
X016958Y028078D03*
X017214Y029574D03*
X029557Y028078D03*
X029813Y028078D03*
X029813Y029574D03*
X029813Y023669D03*
X029813Y022173D03*
X029557Y022173D03*
X029813Y017763D03*
X029813Y016267D03*
X029557Y016267D03*
X029813Y011858D03*
X029813Y010362D03*
X029557Y010362D03*
D13*
X029557Y010696D03*
X029813Y010696D03*
X029813Y011090D03*
X029557Y011090D03*
X029557Y011484D03*
X029813Y011484D03*
X029813Y012232D03*
X030069Y012232D03*
X030324Y012232D03*
X029557Y012232D03*
X029301Y012232D03*
X029045Y012232D03*
X029045Y009948D03*
X029301Y009948D03*
X029557Y009948D03*
X029813Y009948D03*
X030069Y009948D03*
X030324Y009948D03*
X031555Y009948D03*
X031555Y012232D03*
X031555Y015854D03*
X030324Y015854D03*
X030069Y015854D03*
X029813Y015854D03*
X029557Y015854D03*
X029301Y015854D03*
X029045Y015854D03*
X029557Y016602D03*
X029813Y016602D03*
X029813Y016996D03*
X029557Y016996D03*
X029557Y017389D03*
X029813Y017389D03*
X029813Y018137D03*
X030069Y018137D03*
X030324Y018137D03*
X029557Y018137D03*
X029301Y018137D03*
X029045Y018137D03*
X031555Y018137D03*
X031555Y021759D03*
X030324Y021759D03*
X030069Y021759D03*
X029813Y021759D03*
X029557Y021759D03*
X029301Y021759D03*
X029045Y021759D03*
X029557Y022507D03*
X029813Y022507D03*
X029813Y022901D03*
X029557Y022901D03*
X029557Y023295D03*
X029813Y023295D03*
X029813Y024043D03*
X030069Y024043D03*
X030324Y024043D03*
X029557Y024043D03*
X029301Y024043D03*
X029045Y024043D03*
X031555Y024043D03*
X031555Y027665D03*
X030324Y027665D03*
X030069Y027665D03*
X029813Y027665D03*
X029557Y027665D03*
X029301Y027665D03*
X029045Y027665D03*
X029557Y028413D03*
X029813Y028413D03*
X029813Y028807D03*
X029557Y028807D03*
X029557Y029200D03*
X029813Y029200D03*
X029813Y029948D03*
X030069Y029948D03*
X030324Y029948D03*
X029557Y029948D03*
X029301Y029948D03*
X029045Y029948D03*
X031555Y029948D03*
X018956Y029948D03*
X017726Y029948D03*
X017470Y029948D03*
X017214Y029948D03*
X016958Y029948D03*
X016702Y029948D03*
X016447Y029948D03*
X016958Y029200D03*
X017214Y029200D03*
X017214Y028807D03*
X016958Y028807D03*
X016958Y028413D03*
X017214Y028413D03*
X017214Y027665D03*
X016958Y027665D03*
X016702Y027665D03*
X016447Y027665D03*
X017470Y027665D03*
X017726Y027665D03*
X018956Y027665D03*
X018956Y024043D03*
X017726Y024043D03*
X017470Y024043D03*
X017214Y024043D03*
X016958Y024043D03*
X016702Y024043D03*
X016447Y024043D03*
X016958Y023295D03*
X017214Y023295D03*
X017214Y022901D03*
X016958Y022901D03*
X016958Y022507D03*
X017214Y022507D03*
X017214Y021759D03*
X016958Y021759D03*
X016702Y021759D03*
X016447Y021759D03*
X017470Y021759D03*
X017726Y021759D03*
X018956Y021759D03*
X018956Y018137D03*
X017726Y018137D03*
X017470Y018137D03*
X017214Y018137D03*
X016958Y018137D03*
X016702Y018137D03*
X016447Y018137D03*
X016958Y017389D03*
X017214Y017389D03*
X017214Y016996D03*
X016958Y016996D03*
X016958Y016602D03*
X017214Y016602D03*
X017214Y015854D03*
X016958Y015854D03*
X016702Y015854D03*
X016447Y015854D03*
X017470Y015854D03*
X017726Y015854D03*
X018956Y015854D03*
X018956Y012232D03*
X017726Y012232D03*
X017470Y012232D03*
X017214Y012232D03*
X016958Y012232D03*
X016702Y012232D03*
X016447Y012232D03*
X016958Y011484D03*
X017214Y011484D03*
X017214Y011090D03*
X016958Y011090D03*
X016958Y010696D03*
X017214Y010696D03*
X017214Y009948D03*
X016958Y009948D03*
X016702Y009948D03*
X016447Y009948D03*
X017470Y009948D03*
X017726Y009948D03*
X018956Y009948D03*
D14*
X015905Y009870D03*
X015905Y010342D03*
X015905Y011799D03*
X015905Y012271D03*
X015905Y015775D03*
X015905Y016248D03*
X015905Y017704D03*
X015905Y018177D03*
X015905Y021681D03*
X015905Y022153D03*
X015905Y023610D03*
X015905Y024082D03*
X015905Y027586D03*
X015905Y028059D03*
X015905Y029515D03*
X015905Y029988D03*
X028504Y029988D03*
X028504Y029515D03*
X028504Y028059D03*
X028504Y027586D03*
X028504Y024082D03*
X028504Y023610D03*
X028504Y022153D03*
X028504Y021681D03*
X028504Y018177D03*
X028504Y017704D03*
X028504Y016248D03*
X028504Y015775D03*
X028504Y012271D03*
X028504Y011799D03*
X028504Y010342D03*
X028504Y009870D03*
D15*
X025866Y006956D03*
X027834Y032941D03*
X010118Y032941D03*
D16*
X015826Y028885D03*
X017283Y030618D03*
X017283Y027035D03*
X016811Y027035D03*
X016338Y027035D03*
X017283Y024712D03*
X015826Y022980D03*
X016338Y021130D03*
X016811Y021130D03*
X017283Y021130D03*
X017283Y018807D03*
X015826Y017074D03*
X016338Y015224D03*
X016811Y015224D03*
X017283Y015224D03*
X017283Y012901D03*
X015826Y011169D03*
X016338Y009319D03*
X016811Y009319D03*
X017283Y009319D03*
X028425Y011169D03*
X028937Y009319D03*
X029409Y009319D03*
X029882Y009319D03*
X029882Y012901D03*
X029882Y015224D03*
X029409Y015224D03*
X028937Y015224D03*
X028425Y017074D03*
X029882Y018807D03*
X029882Y021130D03*
X029409Y021130D03*
X028937Y021130D03*
X028425Y022980D03*
X029882Y024712D03*
X029882Y027035D03*
X029409Y027035D03*
X028937Y027035D03*
X028425Y028885D03*
X029882Y030618D03*
D17*
X027494Y028874D03*
X026994Y028874D03*
X026994Y028374D03*
X027494Y028374D03*
X027494Y027874D03*
X026994Y027874D03*
X026994Y022968D03*
X027494Y022968D03*
X027494Y022468D03*
X027494Y021968D03*
X026994Y021968D03*
X026994Y022468D03*
X026994Y017063D03*
X027494Y017063D03*
X027494Y016563D03*
X026994Y016563D03*
X026994Y016063D03*
X027494Y016063D03*
X027494Y011157D03*
X027494Y010657D03*
X026994Y010657D03*
X026994Y011157D03*
X026994Y010157D03*
X027494Y010157D03*
X014895Y010157D03*
X014395Y010157D03*
X014395Y010657D03*
X014395Y011157D03*
X014895Y011157D03*
X014895Y010657D03*
X014895Y016063D03*
X014395Y016063D03*
X014395Y016563D03*
X014395Y017063D03*
X014895Y017063D03*
X014895Y016563D03*
X014895Y021968D03*
X014395Y021968D03*
X014395Y022468D03*
X014895Y022468D03*
X014895Y022968D03*
X014395Y022968D03*
X014395Y027874D03*
X014395Y028374D03*
X014895Y028374D03*
X014895Y027874D03*
X014895Y028874D03*
X014395Y028874D03*
D18*
X010000Y009319D03*
X010000Y009752D03*
X010000Y010618D03*
X010000Y011484D03*
X010000Y011917D03*
X010000Y015224D03*
X010000Y015657D03*
X010000Y016523D03*
X010000Y017389D03*
X010000Y017822D03*
X010000Y021130D03*
X010000Y021563D03*
X010000Y022429D03*
X010000Y023295D03*
X010000Y023728D03*
X010000Y027035D03*
X010000Y027468D03*
X010000Y028334D03*
X010000Y029200D03*
X010000Y029633D03*
X013779Y028374D03*
X013779Y027783D03*
X015472Y027941D03*
X015590Y027586D03*
X015866Y027035D03*
X016299Y027665D03*
X016574Y027350D03*
X016771Y028019D03*
X016771Y028334D03*
X016771Y028649D03*
X016771Y028964D03*
X016771Y029279D03*
X016771Y029594D03*
X016260Y029948D03*
X015630Y030185D03*
X015433Y029830D03*
X015590Y029515D03*
X016220Y028807D03*
X015905Y028374D03*
X017401Y028334D03*
X017401Y028019D03*
X017401Y028649D03*
X017401Y028964D03*
X017401Y029279D03*
X017401Y029594D03*
X017834Y029752D03*
X017834Y030303D03*
X017637Y030500D03*
X017834Y030657D03*
X017834Y027311D03*
X017637Y027114D03*
X017834Y026956D03*
X017834Y024752D03*
X017637Y024594D03*
X017834Y024397D03*
X017834Y023846D03*
X017401Y023689D03*
X017401Y023374D03*
X017401Y023059D03*
X017401Y022744D03*
X017401Y022429D03*
X017401Y022114D03*
X016771Y022114D03*
X016771Y022429D03*
X016771Y022744D03*
X016771Y023059D03*
X016771Y023374D03*
X016771Y023689D03*
X016260Y024043D03*
X015630Y024279D03*
X015433Y023925D03*
X015590Y023610D03*
X016220Y022901D03*
X015905Y022468D03*
X015472Y022035D03*
X015590Y021681D03*
X015866Y021130D03*
X016299Y021759D03*
X016574Y021444D03*
X017637Y021208D03*
X017834Y021051D03*
X017834Y021405D03*
X017834Y018846D03*
X017637Y018689D03*
X017834Y018492D03*
X017834Y017941D03*
X017401Y017783D03*
X017401Y017468D03*
X017401Y017153D03*
X017401Y016838D03*
X017401Y016523D03*
X017401Y016208D03*
X016771Y016208D03*
X016771Y016523D03*
X016771Y016838D03*
X016771Y017153D03*
X016771Y017468D03*
X016771Y017783D03*
X016260Y018137D03*
X015630Y018374D03*
X015433Y018019D03*
X015590Y017704D03*
X016220Y016996D03*
X015905Y016563D03*
X015472Y016130D03*
X015590Y015775D03*
X015866Y015224D03*
X016299Y015854D03*
X016574Y015539D03*
X017637Y015303D03*
X017834Y015145D03*
X017834Y015500D03*
X017834Y012941D03*
X017637Y012783D03*
X017834Y012586D03*
X017834Y012035D03*
X017401Y011878D03*
X017401Y011563D03*
X017401Y011248D03*
X017401Y010933D03*
X017401Y010618D03*
X017401Y010303D03*
X016771Y010303D03*
X016771Y010618D03*
X016771Y010933D03*
X016771Y011248D03*
X016771Y011563D03*
X016771Y011878D03*
X016260Y012232D03*
X015630Y012468D03*
X015433Y012114D03*
X015590Y011799D03*
X016220Y011090D03*
X015905Y010657D03*
X015472Y010224D03*
X015590Y009870D03*
X015866Y009319D03*
X016299Y009948D03*
X016574Y009633D03*
X017637Y009397D03*
X017834Y009240D03*
X017834Y009594D03*
X013779Y010067D03*
X013779Y010657D03*
X013779Y015972D03*
X013779Y016563D03*
X013779Y021878D03*
X013779Y022468D03*
X022598Y022429D03*
X022598Y021563D03*
X022598Y021130D03*
X022598Y023295D03*
X022598Y023728D03*
X022598Y027035D03*
X022598Y027468D03*
X022598Y028334D03*
X022598Y029200D03*
X022598Y029633D03*
X026378Y028374D03*
X026378Y027783D03*
X028071Y027941D03*
X028189Y027586D03*
X028464Y027035D03*
X028897Y027665D03*
X029173Y027350D03*
X029370Y028019D03*
X029370Y028334D03*
X029370Y028649D03*
X029370Y028964D03*
X029370Y029279D03*
X029370Y029594D03*
X028858Y029948D03*
X028228Y030185D03*
X028031Y029830D03*
X028189Y029515D03*
X028819Y028807D03*
X028504Y028374D03*
X030000Y028334D03*
X030000Y028019D03*
X030000Y028649D03*
X030000Y028964D03*
X030000Y029279D03*
X030000Y029594D03*
X030433Y029752D03*
X030433Y030303D03*
X030236Y030500D03*
X030433Y030657D03*
X030433Y027311D03*
X030236Y027114D03*
X030433Y026956D03*
X030433Y024752D03*
X030236Y024594D03*
X030433Y024397D03*
X030433Y023846D03*
X030000Y023689D03*
X030000Y023374D03*
X030000Y023059D03*
X030000Y022744D03*
X030000Y022429D03*
X030000Y022114D03*
X029370Y022114D03*
X029370Y022429D03*
X029370Y022744D03*
X029370Y023059D03*
X029370Y023374D03*
X029370Y023689D03*
X028858Y024043D03*
X028228Y024279D03*
X028031Y023925D03*
X028189Y023610D03*
X028819Y022901D03*
X028504Y022468D03*
X028071Y022035D03*
X028189Y021681D03*
X028464Y021130D03*
X028897Y021759D03*
X029173Y021444D03*
X030236Y021208D03*
X030433Y021051D03*
X030433Y021405D03*
X030433Y018846D03*
X030236Y018689D03*
X030433Y018492D03*
X030433Y017941D03*
X030000Y017783D03*
X030000Y017468D03*
X030000Y017153D03*
X030000Y016838D03*
X030000Y016523D03*
X030000Y016208D03*
X029370Y016208D03*
X029370Y016523D03*
X029370Y016838D03*
X029370Y017153D03*
X029370Y017468D03*
X029370Y017783D03*
X028858Y018137D03*
X028228Y018374D03*
X028031Y018019D03*
X028189Y017704D03*
X028819Y016996D03*
X028504Y016563D03*
X028071Y016130D03*
X028189Y015775D03*
X028464Y015224D03*
X028897Y015854D03*
X029173Y015539D03*
X030236Y015303D03*
X030433Y015145D03*
X030433Y015500D03*
X030433Y012941D03*
X030236Y012783D03*
X030433Y012586D03*
X030433Y012035D03*
X030000Y011878D03*
X030000Y011563D03*
X030000Y011248D03*
X030000Y010933D03*
X030000Y010618D03*
X030000Y010303D03*
X029370Y010303D03*
X029370Y010618D03*
X029370Y010933D03*
X029370Y011248D03*
X029370Y011563D03*
X029370Y011878D03*
X028858Y012232D03*
X028228Y012468D03*
X028031Y012114D03*
X028189Y011799D03*
X028819Y011090D03*
X028504Y010657D03*
X028071Y010224D03*
X028189Y009870D03*
X028464Y009319D03*
X028897Y009948D03*
X029173Y009633D03*
X030236Y009397D03*
X030433Y009240D03*
X030433Y009594D03*
X026378Y010067D03*
X026378Y010657D03*
X022598Y010618D03*
X022598Y011484D03*
X022598Y011917D03*
X022598Y009752D03*
X022598Y009319D03*
X022598Y015224D03*
X022598Y015657D03*
X022598Y016523D03*
X022598Y017389D03*
X022598Y017822D03*
X026378Y016563D03*
X026378Y015972D03*
X026378Y021878D03*
X026378Y022468D03*
D19*
X028858Y022153D02*
X028878Y022133D01*
X029055Y022133D01*
X028858Y016248D02*
X028878Y016228D01*
X029055Y016228D01*
X028858Y010342D02*
X028878Y010322D01*
X029055Y010322D01*
X016456Y010322D02*
X016279Y010322D01*
X016260Y010342D01*
X016279Y016228D02*
X016260Y016248D01*
X016279Y016228D02*
X016456Y016228D01*
X016456Y022133D02*
X016279Y022133D01*
X016260Y022153D01*
X016279Y028039D02*
X016260Y028059D01*
X016279Y028039D02*
X016456Y028039D01*
X028858Y028059D02*
X028878Y028039D01*
X029055Y028039D01*
D20*
X028858Y028059D02*
X028504Y028059D01*
X028504Y028374D01*
X028504Y027586D02*
X028307Y027586D01*
X028307Y029515D02*
X028504Y029515D01*
X028504Y023610D02*
X028307Y023610D01*
X028504Y022468D02*
X028504Y022153D01*
X028858Y022153D01*
X028504Y021681D02*
X028307Y021681D01*
X028307Y017704D02*
X028504Y017704D01*
X028504Y016563D02*
X028504Y016248D01*
X028858Y016248D01*
X028504Y015775D02*
X028307Y015775D01*
X028307Y011799D02*
X028504Y011799D01*
X028504Y010657D02*
X028504Y010342D01*
X028858Y010342D01*
X028504Y009870D02*
X028307Y009870D01*
X016260Y010342D02*
X015905Y010342D01*
X015905Y010657D01*
X015905Y009870D02*
X015708Y009870D01*
X015708Y011799D02*
X015905Y011799D01*
X015905Y015775D02*
X015708Y015775D01*
X015905Y016248D02*
X016260Y016248D01*
X015905Y016248D02*
X015905Y016563D01*
X015905Y017704D02*
X015708Y017704D01*
X015708Y021681D02*
X015905Y021681D01*
X015905Y022153D02*
X016260Y022153D01*
X015905Y022153D02*
X015905Y022468D01*
X015905Y023610D02*
X015708Y023610D01*
X015708Y027586D02*
X015905Y027586D01*
X015905Y028059D02*
X016260Y028059D01*
X015905Y028059D02*
X015905Y028374D01*
X015905Y029515D02*
X015708Y029515D01*
D21*
X015707Y029456D02*
X015649Y029399D01*
X015649Y029358D01*
X015630Y029358D01*
X015630Y029707D01*
X015659Y029737D01*
X015659Y029924D01*
X015630Y029954D01*
X015630Y029958D01*
X015659Y029958D01*
X015659Y029805D01*
X015700Y029764D01*
X015649Y029714D01*
X015649Y029632D01*
X015707Y029574D01*
X016103Y029574D01*
X016161Y029632D01*
X016161Y029714D01*
X016110Y029764D01*
X016151Y029805D01*
X016151Y030011D01*
X016167Y030027D01*
X016535Y030027D01*
X016535Y029785D01*
X016579Y029742D01*
X016293Y029742D01*
X016230Y029678D01*
X016230Y029472D01*
X016159Y029401D01*
X016103Y029456D01*
X015707Y029456D01*
X015664Y029413D02*
X015630Y029413D01*
X015630Y029510D02*
X016230Y029510D01*
X016230Y029607D02*
X016136Y029607D01*
X016161Y029704D02*
X016255Y029704D01*
X016147Y029801D02*
X016535Y029801D01*
X016535Y029898D02*
X016151Y029898D01*
X016151Y029995D02*
X016535Y029995D01*
X016702Y029948D02*
X016702Y030135D01*
X016653Y030185D01*
X016102Y030185D01*
X015905Y029988D01*
X015708Y030185D01*
X015630Y030185D01*
X015659Y029898D02*
X015659Y029898D01*
X015659Y029801D02*
X015664Y029801D01*
X015649Y029704D02*
X015630Y029704D01*
X015630Y029607D02*
X015674Y029607D01*
X015433Y029830D02*
X015039Y030224D01*
X012362Y030224D01*
X010472Y028334D01*
X010000Y028334D01*
X010000Y027468D02*
X010275Y027468D01*
X012834Y030027D01*
X014882Y030027D01*
X015275Y029633D01*
X015275Y029437D01*
X015511Y029200D01*
X016181Y029200D01*
X016299Y029319D01*
X016456Y029319D01*
X016683Y029316D02*
X017490Y029316D01*
X017490Y029368D02*
X017490Y029215D01*
X017553Y029151D01*
X017879Y029151D01*
X017903Y029175D01*
X017903Y028182D01*
X017879Y028206D01*
X017553Y028206D01*
X017544Y028197D01*
X017495Y028246D01*
X017110Y028246D01*
X017086Y028222D01*
X017062Y028246D01*
X016678Y028246D01*
X016629Y028197D01*
X016619Y028206D01*
X016432Y028206D01*
X016353Y028285D01*
X016132Y028285D01*
X016132Y028393D01*
X016284Y028393D01*
X016293Y028383D01*
X016619Y028383D01*
X016683Y028447D01*
X016683Y028655D01*
X016659Y028679D01*
X016683Y028703D01*
X016683Y028911D01*
X016659Y028935D01*
X016683Y028959D01*
X016683Y029166D01*
X016659Y029191D01*
X016683Y029215D01*
X016683Y029368D01*
X016865Y029368D01*
X016998Y029500D01*
X016998Y029688D01*
X016964Y029722D01*
X017062Y029722D01*
X017086Y029746D01*
X017100Y029732D01*
X017047Y029678D01*
X017047Y029471D01*
X017110Y029407D01*
X017268Y029407D01*
X017307Y029368D01*
X017490Y029368D01*
X017490Y029219D02*
X016683Y029219D01*
X016683Y029122D02*
X017903Y029122D01*
X017903Y029025D02*
X016683Y029025D01*
X016665Y028928D02*
X017903Y028928D01*
X017903Y028831D02*
X016683Y028831D01*
X016683Y028735D02*
X017903Y028735D01*
X017903Y028638D02*
X016683Y028638D01*
X016683Y028541D02*
X017903Y028541D01*
X017903Y028444D02*
X016680Y028444D01*
X016456Y028551D02*
X016082Y028551D01*
X016023Y028610D01*
X015236Y028610D01*
X014960Y028885D01*
X014948Y028874D01*
X014895Y028874D01*
X014395Y028874D02*
X014382Y028874D01*
X014370Y028885D01*
X013976Y028885D01*
X013779Y028689D01*
X013779Y028374D01*
X013897Y027901D02*
X013779Y027783D01*
X013897Y027901D02*
X014409Y027901D01*
X014395Y027887D01*
X014395Y027874D01*
X014895Y028374D02*
X015039Y028374D01*
X015472Y027941D01*
X015630Y027778D02*
X015693Y027842D01*
X015700Y027835D01*
X015649Y027784D01*
X015649Y027703D01*
X015707Y027645D01*
X016103Y027645D01*
X016161Y027703D01*
X016161Y027784D01*
X016113Y027832D01*
X016353Y027832D01*
X016393Y027872D01*
X016579Y027872D01*
X016535Y027828D01*
X016535Y027576D01*
X016481Y027576D01*
X016348Y027444D01*
X016348Y027346D01*
X016303Y027301D01*
X016285Y027301D01*
X016188Y027260D01*
X016113Y027186D01*
X016090Y027131D01*
X015960Y027261D01*
X015772Y027261D01*
X015703Y027193D01*
X015630Y027193D01*
X015630Y027778D01*
X015630Y027765D02*
X015649Y027765D01*
X015630Y027668D02*
X015684Y027668D01*
X015630Y027571D02*
X016476Y027571D01*
X016535Y027668D02*
X016127Y027668D01*
X016161Y027765D02*
X016535Y027765D01*
X016569Y027862D02*
X016383Y027862D01*
X016379Y027474D02*
X016156Y027474D01*
X016161Y027470D02*
X016103Y027527D01*
X015707Y027527D01*
X015649Y027470D01*
X015649Y027388D01*
X015707Y027330D01*
X016103Y027330D01*
X016161Y027388D01*
X016161Y027470D01*
X016151Y027378D02*
X016348Y027378D01*
X016237Y027281D02*
X015630Y027281D01*
X015630Y027378D02*
X015660Y027378D01*
X015654Y027474D02*
X015630Y027474D01*
X016037Y027184D02*
X016112Y027184D01*
X016338Y027114D02*
X016338Y027035D01*
X016338Y027114D02*
X016574Y027350D01*
X016811Y027035D02*
X017214Y027439D01*
X017214Y027665D01*
X017470Y027665D02*
X017470Y027419D01*
X017283Y027232D01*
X017283Y027035D01*
X017473Y026849D02*
X017508Y026885D01*
X017549Y026982D01*
X017549Y027088D01*
X017508Y027186D01*
X017484Y027210D01*
X017535Y027261D01*
X017628Y027354D01*
X017628Y027439D01*
X017830Y027439D01*
X017893Y027502D01*
X017893Y027828D01*
X017850Y027872D01*
X017879Y027872D01*
X017903Y027896D01*
X017903Y026849D01*
X017473Y026849D01*
X017512Y026893D02*
X017903Y026893D01*
X017903Y026990D02*
X017549Y026990D01*
X017549Y027087D02*
X017903Y027087D01*
X017903Y027184D02*
X017509Y027184D01*
X017555Y027281D02*
X017903Y027281D01*
X017903Y027378D02*
X017628Y027378D01*
X017866Y027474D02*
X017903Y027474D01*
X017893Y027571D02*
X017903Y027571D01*
X017893Y027668D02*
X017903Y027668D01*
X017893Y027765D02*
X017903Y027765D01*
X017903Y027862D02*
X017859Y027862D01*
X017903Y028250D02*
X016388Y028250D01*
X016132Y028347D02*
X017903Y028347D01*
X017401Y028019D02*
X017342Y028078D01*
X017214Y028078D01*
X016958Y028078D02*
X016830Y028078D01*
X016771Y028019D01*
X016456Y028807D02*
X016220Y028807D01*
X016299Y029043D02*
X015984Y029043D01*
X015826Y028885D01*
X016299Y029043D02*
X016319Y029063D01*
X016456Y029063D01*
X016171Y029413D02*
X016147Y029413D01*
X016456Y029574D02*
X016752Y029574D01*
X016771Y029594D01*
X016998Y029607D02*
X017047Y029607D01*
X017047Y029510D02*
X016998Y029510D01*
X016910Y029413D02*
X017104Y029413D01*
X017214Y029574D02*
X017382Y029574D01*
X017401Y029594D01*
X017628Y029607D02*
X017903Y029607D01*
X017903Y029704D02*
X017612Y029704D01*
X017628Y029688D02*
X017584Y029732D01*
X017637Y029785D01*
X017637Y030111D01*
X017628Y030121D01*
X017628Y030299D01*
X017484Y030443D01*
X017508Y030467D01*
X017549Y030565D01*
X017549Y030671D01*
X017510Y030764D01*
X017903Y030764D01*
X017903Y029462D01*
X017879Y029486D01*
X017613Y029486D01*
X017628Y029500D01*
X017628Y029688D01*
X017637Y029801D02*
X017903Y029801D01*
X017903Y029898D02*
X017637Y029898D01*
X017637Y029995D02*
X017903Y029995D01*
X017903Y030091D02*
X017637Y030091D01*
X017628Y030188D02*
X017903Y030188D01*
X017903Y030285D02*
X017628Y030285D01*
X017544Y030382D02*
X017903Y030382D01*
X017903Y030479D02*
X017513Y030479D01*
X017549Y030576D02*
X017903Y030576D01*
X017903Y030673D02*
X017548Y030673D01*
X017283Y030618D02*
X017283Y030421D01*
X017470Y030234D01*
X017470Y029948D01*
X017214Y029948D02*
X017214Y030214D01*
X016811Y030618D01*
X012126Y030618D01*
X011141Y029633D01*
X010000Y029633D01*
X010000Y029200D02*
X011023Y029200D01*
X012244Y030421D01*
X016732Y030421D01*
X016958Y030194D01*
X016958Y029948D01*
X016982Y029704D02*
X017072Y029704D01*
X017628Y029510D02*
X017903Y029510D01*
X015866Y027035D02*
X015630Y027035D01*
X015551Y026956D01*
X013897Y026956D01*
X013819Y027035D01*
X010000Y027035D01*
X012126Y024712D02*
X011141Y023728D01*
X010000Y023728D01*
X010000Y023295D02*
X011023Y023295D01*
X012244Y024515D01*
X016732Y024515D01*
X016958Y024289D01*
X016958Y024043D01*
X016964Y023817D02*
X017062Y023817D01*
X017086Y023841D01*
X017100Y023826D01*
X017047Y023773D01*
X017047Y023565D01*
X017110Y023502D01*
X017268Y023502D01*
X017307Y023462D01*
X017490Y023462D01*
X017490Y023309D01*
X017553Y023246D01*
X017879Y023246D01*
X017903Y023270D01*
X017903Y022277D01*
X017879Y022301D01*
X017553Y022301D01*
X017544Y022291D01*
X017495Y022340D01*
X017110Y022340D01*
X017086Y022316D01*
X017062Y022340D01*
X016678Y022340D01*
X016629Y022291D01*
X016619Y022301D01*
X016432Y022301D01*
X016353Y022380D01*
X016132Y022380D01*
X016132Y022488D01*
X016284Y022488D01*
X016293Y022478D01*
X016619Y022478D01*
X016683Y022541D01*
X016683Y022749D01*
X016659Y022773D01*
X016683Y022797D01*
X016683Y023005D01*
X016659Y023029D01*
X016683Y023053D01*
X016683Y023261D01*
X016659Y023285D01*
X016683Y023309D01*
X016683Y023462D01*
X016865Y023462D01*
X016998Y023595D01*
X016998Y023782D01*
X016964Y023817D01*
X016989Y023791D02*
X017065Y023791D01*
X017047Y023694D02*
X016998Y023694D01*
X016998Y023597D02*
X017047Y023597D01*
X016903Y023501D02*
X017269Y023501D01*
X017214Y023669D02*
X017382Y023669D01*
X017401Y023689D01*
X017628Y023694D02*
X017903Y023694D01*
X017903Y023597D02*
X017628Y023597D01*
X017628Y023595D02*
X017628Y023782D01*
X017584Y023826D01*
X017637Y023880D01*
X017637Y024206D01*
X017628Y024216D01*
X017628Y024394D01*
X017484Y024537D01*
X017508Y024562D01*
X017549Y024659D01*
X017549Y024765D01*
X017510Y024859D01*
X017903Y024859D01*
X017903Y023556D01*
X017879Y023580D01*
X017613Y023580D01*
X017628Y023595D01*
X017619Y023791D02*
X017903Y023791D01*
X017903Y023888D02*
X017637Y023888D01*
X017637Y023985D02*
X017903Y023985D01*
X017903Y024082D02*
X017637Y024082D01*
X017637Y024179D02*
X017903Y024179D01*
X017903Y024276D02*
X017628Y024276D01*
X017628Y024373D02*
X017903Y024373D01*
X017903Y024470D02*
X017551Y024470D01*
X017511Y024567D02*
X017903Y024567D01*
X017903Y024664D02*
X017549Y024664D01*
X017549Y024761D02*
X017903Y024761D01*
X017903Y024858D02*
X017511Y024858D01*
X017283Y024712D02*
X017283Y024515D01*
X017470Y024328D01*
X017470Y024043D01*
X017214Y024043D02*
X017214Y024309D01*
X016811Y024712D01*
X012126Y024712D01*
X012362Y024319D02*
X010472Y022429D01*
X010000Y022429D01*
X010000Y021563D02*
X010275Y021563D01*
X012834Y024122D01*
X014882Y024122D01*
X015275Y023728D01*
X015275Y023531D01*
X015511Y023295D01*
X016181Y023295D01*
X016299Y023413D01*
X016456Y023413D01*
X016683Y023404D02*
X017490Y023404D01*
X017492Y023307D02*
X016680Y023307D01*
X016683Y023210D02*
X017903Y023210D01*
X017903Y023113D02*
X016683Y023113D01*
X016672Y023016D02*
X017903Y023016D01*
X017903Y022919D02*
X016683Y022919D01*
X016683Y022822D02*
X017903Y022822D01*
X017903Y022725D02*
X016683Y022725D01*
X016683Y022628D02*
X017903Y022628D01*
X017903Y022531D02*
X016673Y022531D01*
X016675Y022337D02*
X016395Y022337D01*
X016132Y022434D02*
X017903Y022434D01*
X017903Y022337D02*
X017498Y022337D01*
X017342Y022173D02*
X017401Y022114D01*
X017342Y022173D02*
X017214Y022173D01*
X017108Y022337D02*
X017065Y022337D01*
X016958Y022173D02*
X016830Y022173D01*
X016771Y022114D01*
X016579Y021966D02*
X016535Y021922D01*
X016535Y021671D01*
X016481Y021671D01*
X016348Y021538D01*
X016348Y021441D01*
X016303Y021395D01*
X016285Y021395D01*
X016188Y021355D01*
X016113Y021280D01*
X016090Y021225D01*
X015960Y021356D01*
X015772Y021356D01*
X015703Y021287D01*
X015630Y021287D01*
X015630Y021872D01*
X015693Y021936D01*
X015700Y021930D01*
X015649Y021879D01*
X015649Y021797D01*
X015707Y021740D01*
X016103Y021740D01*
X016161Y021797D01*
X016161Y021879D01*
X016113Y021927D01*
X016353Y021927D01*
X016393Y021966D01*
X016579Y021966D01*
X016562Y021950D02*
X016376Y021950D01*
X016535Y021853D02*
X016161Y021853D01*
X016120Y021756D02*
X016535Y021756D01*
X016469Y021659D02*
X015630Y021659D01*
X015707Y021622D02*
X015649Y021564D01*
X015649Y021482D01*
X015707Y021425D01*
X016103Y021425D01*
X016161Y021482D01*
X016161Y021564D01*
X016103Y021622D01*
X015707Y021622D01*
X015649Y021562D02*
X015630Y021562D01*
X015630Y021465D02*
X015667Y021465D01*
X015630Y021368D02*
X016220Y021368D01*
X016144Y021465D02*
X016348Y021465D01*
X016372Y021562D02*
X016161Y021562D01*
X016109Y021271D02*
X016044Y021271D01*
X015866Y021130D02*
X015630Y021130D01*
X015551Y021051D01*
X013897Y021051D01*
X013819Y021130D01*
X010000Y021130D01*
X012126Y018807D02*
X011141Y017822D01*
X010000Y017822D01*
X010000Y017389D02*
X011023Y017389D01*
X012244Y018610D01*
X016732Y018610D01*
X016958Y018383D01*
X016958Y018137D01*
X016964Y017911D02*
X017062Y017911D01*
X017086Y017935D01*
X017100Y017921D01*
X017047Y017867D01*
X017047Y017659D01*
X017110Y017596D01*
X017268Y017596D01*
X017307Y017557D01*
X017490Y017557D01*
X017490Y017404D01*
X017553Y017340D01*
X017879Y017340D01*
X017903Y017364D01*
X017903Y016371D01*
X017879Y016395D01*
X017553Y016395D01*
X017544Y016386D01*
X017495Y016435D01*
X017110Y016435D01*
X017086Y016411D01*
X017062Y016435D01*
X016678Y016435D01*
X016629Y016386D01*
X016619Y016395D01*
X016432Y016395D01*
X016353Y016474D01*
X016132Y016474D01*
X016132Y016582D01*
X016284Y016582D01*
X016293Y016572D01*
X016619Y016572D01*
X016683Y016636D01*
X016683Y016844D01*
X016659Y016868D01*
X016683Y016892D01*
X016683Y017100D01*
X016659Y017124D01*
X016683Y017148D01*
X016683Y017355D01*
X016659Y017380D01*
X016683Y017404D01*
X016683Y017557D01*
X016865Y017557D01*
X016998Y017689D01*
X016998Y017877D01*
X016964Y017911D01*
X016996Y017879D02*
X017059Y017879D01*
X017047Y017782D02*
X016998Y017782D01*
X016993Y017685D02*
X017047Y017685D01*
X016897Y017588D02*
X017276Y017588D01*
X017214Y017763D02*
X017382Y017763D01*
X017401Y017783D01*
X017628Y017782D02*
X017903Y017782D01*
X017903Y017879D02*
X017626Y017879D01*
X017628Y017877D02*
X017584Y017921D01*
X017637Y017974D01*
X017637Y018300D01*
X017628Y018310D01*
X017628Y018488D01*
X017484Y018632D01*
X017508Y018656D01*
X017549Y018754D01*
X017549Y018860D01*
X017510Y018953D01*
X017903Y018953D01*
X017903Y017651D01*
X017879Y017675D01*
X017613Y017675D01*
X017628Y017689D01*
X017628Y017877D01*
X017637Y017976D02*
X017903Y017976D01*
X017903Y018073D02*
X017637Y018073D01*
X017637Y018170D02*
X017903Y018170D01*
X017903Y018267D02*
X017637Y018267D01*
X017628Y018364D02*
X017903Y018364D01*
X017903Y018460D02*
X017628Y018460D01*
X017558Y018557D02*
X017903Y018557D01*
X017903Y018654D02*
X017507Y018654D01*
X017548Y018751D02*
X017903Y018751D01*
X017903Y018848D02*
X017549Y018848D01*
X017513Y018945D02*
X017903Y018945D01*
X017283Y018807D02*
X017283Y018610D01*
X017470Y018423D01*
X017470Y018137D01*
X017214Y018137D02*
X017214Y018403D01*
X016811Y018807D01*
X012126Y018807D01*
X012362Y018413D02*
X010472Y016523D01*
X010000Y016523D01*
X010000Y015657D02*
X010275Y015657D01*
X012834Y018216D01*
X014882Y018216D01*
X015275Y017822D01*
X015275Y017626D01*
X015511Y017389D01*
X016181Y017389D01*
X016299Y017507D01*
X016456Y017507D01*
X016683Y017491D02*
X017490Y017491D01*
X017499Y017394D02*
X016673Y017394D01*
X016683Y017297D02*
X017903Y017297D01*
X017903Y017200D02*
X016683Y017200D01*
X016679Y017103D02*
X017903Y017103D01*
X017903Y017007D02*
X016683Y017007D01*
X016683Y016910D02*
X017903Y016910D01*
X017903Y016813D02*
X016683Y016813D01*
X016683Y016716D02*
X017903Y016716D01*
X017903Y016619D02*
X016666Y016619D01*
X016668Y016425D02*
X016402Y016425D01*
X016132Y016522D02*
X017903Y016522D01*
X017903Y016425D02*
X017505Y016425D01*
X017342Y016267D02*
X017401Y016208D01*
X017342Y016267D02*
X017214Y016267D01*
X017101Y016425D02*
X017072Y016425D01*
X016958Y016267D02*
X016830Y016267D01*
X016771Y016208D01*
X016579Y016061D02*
X016535Y016017D01*
X016535Y015765D01*
X016481Y015765D01*
X016348Y015633D01*
X016348Y015535D01*
X016303Y015490D01*
X016285Y015490D01*
X016188Y015449D01*
X016113Y015375D01*
X016090Y015320D01*
X015960Y015450D01*
X015772Y015450D01*
X015703Y015381D01*
X015630Y015381D01*
X015630Y015967D01*
X015693Y016031D01*
X015700Y016024D01*
X015649Y015973D01*
X015649Y015892D01*
X015707Y015834D01*
X016103Y015834D01*
X016161Y015892D01*
X016161Y015973D01*
X016113Y016021D01*
X016353Y016021D01*
X016393Y016061D01*
X016579Y016061D01*
X016556Y016037D02*
X016369Y016037D01*
X016535Y015940D02*
X016161Y015940D01*
X016113Y015843D02*
X016535Y015843D01*
X016462Y015747D02*
X015630Y015747D01*
X015707Y015716D02*
X015649Y015658D01*
X015649Y015577D01*
X015707Y015519D01*
X016103Y015519D01*
X016161Y015577D01*
X016161Y015658D01*
X016103Y015716D01*
X015707Y015716D01*
X015649Y015650D02*
X015630Y015650D01*
X015630Y015553D02*
X015674Y015553D01*
X015630Y015456D02*
X016203Y015456D01*
X016137Y015553D02*
X016348Y015553D01*
X016365Y015650D02*
X016161Y015650D01*
X016106Y015359D02*
X016051Y015359D01*
X015866Y015224D02*
X015630Y015224D01*
X015551Y015145D01*
X013897Y015145D01*
X013819Y015224D01*
X010000Y015224D01*
X012126Y012901D02*
X011141Y011917D01*
X010000Y011917D01*
X010000Y011484D02*
X011023Y011484D01*
X012244Y012704D01*
X016732Y012704D01*
X016958Y012478D01*
X016958Y012232D01*
X016964Y012006D02*
X017062Y012006D01*
X017086Y012030D01*
X017100Y012015D01*
X017047Y011962D01*
X017047Y011754D01*
X017110Y011691D01*
X017268Y011691D01*
X017307Y011651D01*
X017490Y011651D01*
X017490Y011498D01*
X017553Y011435D01*
X017879Y011435D01*
X017903Y011459D01*
X017903Y010466D01*
X017879Y010490D01*
X017553Y010490D01*
X017544Y010480D01*
X017495Y010529D01*
X017110Y010529D01*
X017086Y010505D01*
X017062Y010529D01*
X016678Y010529D01*
X016629Y010480D01*
X016619Y010490D01*
X016432Y010490D01*
X016353Y010569D01*
X016132Y010569D01*
X016132Y010677D01*
X016284Y010677D01*
X016293Y010667D01*
X016619Y010667D01*
X016683Y010730D01*
X016683Y010938D01*
X016659Y010962D01*
X016683Y010986D01*
X016683Y011194D01*
X016659Y011218D01*
X016683Y011242D01*
X016683Y011450D01*
X016659Y011474D01*
X016683Y011498D01*
X016683Y011651D01*
X016865Y011651D01*
X016998Y011784D01*
X016998Y011971D01*
X016964Y012006D01*
X016998Y011966D02*
X017052Y011966D01*
X017047Y011870D02*
X016998Y011870D01*
X016986Y011773D02*
X017047Y011773D01*
X016890Y011676D02*
X017283Y011676D01*
X017214Y011858D02*
X017382Y011858D01*
X017401Y011878D01*
X017628Y011870D02*
X017903Y011870D01*
X017903Y011966D02*
X017628Y011966D01*
X017628Y011971D02*
X017584Y012015D01*
X017637Y012069D01*
X017637Y012395D01*
X017628Y012405D01*
X017628Y012583D01*
X017484Y012726D01*
X017508Y012751D01*
X017549Y012848D01*
X017549Y012954D01*
X017510Y013048D01*
X017903Y013048D01*
X017903Y011745D01*
X017879Y011769D01*
X017613Y011769D01*
X017628Y011784D01*
X017628Y011971D01*
X017632Y012063D02*
X017903Y012063D01*
X017903Y012160D02*
X017637Y012160D01*
X017637Y012257D02*
X017903Y012257D01*
X017903Y012354D02*
X017637Y012354D01*
X017628Y012451D02*
X017903Y012451D01*
X017903Y012548D02*
X017628Y012548D01*
X017565Y012645D02*
X017903Y012645D01*
X017903Y012742D02*
X017500Y012742D01*
X017545Y012839D02*
X017903Y012839D01*
X017903Y012936D02*
X017549Y012936D01*
X017516Y013033D02*
X017903Y013033D01*
X017283Y012901D02*
X017283Y012704D01*
X017470Y012517D01*
X017470Y012232D01*
X017214Y012232D02*
X017214Y012498D01*
X016811Y012901D01*
X012126Y012901D01*
X012362Y012507D02*
X010472Y010618D01*
X010000Y010618D01*
X010000Y009752D02*
X010275Y009752D01*
X012834Y012311D01*
X014882Y012311D01*
X015275Y011917D01*
X015275Y011720D01*
X015511Y011484D01*
X016181Y011484D01*
X016299Y011602D01*
X016456Y011602D01*
X016683Y011579D02*
X017490Y011579D01*
X017506Y011482D02*
X016666Y011482D01*
X016683Y011385D02*
X017903Y011385D01*
X017903Y011288D02*
X016683Y011288D01*
X016683Y011191D02*
X017903Y011191D01*
X017903Y011094D02*
X016683Y011094D01*
X016683Y010997D02*
X017903Y010997D01*
X017903Y010900D02*
X016683Y010900D01*
X016683Y010803D02*
X017903Y010803D01*
X017903Y010706D02*
X016659Y010706D01*
X016661Y010513D02*
X016409Y010513D01*
X016132Y010609D02*
X017903Y010609D01*
X017903Y010513D02*
X017512Y010513D01*
X017342Y010362D02*
X017401Y010303D01*
X017342Y010362D02*
X017214Y010362D01*
X017094Y010513D02*
X017079Y010513D01*
X016958Y010362D02*
X016830Y010362D01*
X016771Y010303D01*
X016579Y010155D02*
X016535Y010111D01*
X016535Y009860D01*
X016481Y009860D01*
X016348Y009727D01*
X016348Y009630D01*
X016303Y009584D01*
X016285Y009584D01*
X016188Y009544D01*
X016113Y009469D01*
X016090Y009414D01*
X015960Y009545D01*
X015772Y009545D01*
X015703Y009476D01*
X015630Y009476D01*
X015630Y010061D01*
X015693Y010125D01*
X015694Y010125D01*
X015693Y010125D02*
X015700Y010119D01*
X015649Y010068D01*
X015649Y009986D01*
X015707Y009929D01*
X016103Y009929D01*
X016161Y009986D01*
X016161Y010068D01*
X016113Y010116D01*
X016353Y010116D01*
X016393Y010155D01*
X016579Y010155D01*
X016549Y010125D02*
X016362Y010125D01*
X016535Y010028D02*
X016161Y010028D01*
X016106Y009931D02*
X016535Y009931D01*
X016455Y009834D02*
X015630Y009834D01*
X015707Y009811D02*
X015649Y009753D01*
X015649Y009671D01*
X015707Y009614D01*
X016103Y009614D01*
X016161Y009671D01*
X016161Y009753D01*
X016103Y009811D01*
X015707Y009811D01*
X015649Y009737D02*
X015630Y009737D01*
X015630Y009640D02*
X015680Y009640D01*
X015630Y009543D02*
X015770Y009543D01*
X015961Y009543D02*
X016187Y009543D01*
X016130Y009640D02*
X016348Y009640D01*
X016358Y009737D02*
X016161Y009737D01*
X016104Y009446D02*
X016058Y009446D01*
X015866Y009319D02*
X015630Y009319D01*
X015551Y009240D01*
X013897Y009240D01*
X013819Y009319D01*
X010000Y009319D01*
X012362Y012507D02*
X015039Y012507D01*
X015433Y012114D01*
X015659Y012089D02*
X015700Y012048D01*
X015649Y011997D01*
X015649Y011916D01*
X015707Y011858D01*
X016103Y011858D01*
X016161Y011916D01*
X016161Y011997D01*
X016110Y012048D01*
X016151Y012089D01*
X016151Y012295D01*
X016167Y012311D01*
X016535Y012311D01*
X016535Y012069D01*
X016579Y012025D01*
X016293Y012025D01*
X016230Y011962D01*
X016230Y011756D01*
X016159Y011684D01*
X016103Y011740D01*
X015707Y011740D01*
X015649Y011682D01*
X015649Y011641D01*
X015630Y011641D01*
X015630Y011990D01*
X015659Y012020D01*
X015659Y012208D01*
X015630Y012237D01*
X015630Y012242D01*
X015659Y012242D01*
X015659Y012089D01*
X015659Y012063D02*
X015684Y012063D01*
X015659Y012160D02*
X015659Y012160D01*
X015649Y011966D02*
X015630Y011966D01*
X015630Y011870D02*
X015695Y011870D01*
X015630Y011773D02*
X016230Y011773D01*
X016230Y011870D02*
X016115Y011870D01*
X016161Y011966D02*
X016235Y011966D01*
X016126Y012063D02*
X016541Y012063D01*
X016535Y012160D02*
X016151Y012160D01*
X016151Y012257D02*
X016535Y012257D01*
X016702Y012232D02*
X016702Y012419D01*
X016653Y012468D01*
X016102Y012468D01*
X015905Y012271D01*
X015708Y012468D01*
X015630Y012468D01*
X015630Y011676D02*
X015649Y011676D01*
X015984Y011326D02*
X015826Y011169D01*
X015984Y011326D02*
X016299Y011326D01*
X016319Y011346D01*
X016456Y011346D01*
X016456Y011090D02*
X016220Y011090D01*
X016023Y010893D02*
X015236Y010893D01*
X014960Y011169D01*
X014948Y011157D01*
X014895Y011157D01*
X014895Y010671D02*
X014895Y010657D01*
X015039Y010657D01*
X015472Y010224D01*
X015630Y010028D02*
X015649Y010028D01*
X015630Y009931D02*
X015705Y009931D01*
X016338Y009397D02*
X016574Y009633D01*
X016338Y009397D02*
X016338Y009319D01*
X016811Y009319D02*
X017214Y009722D01*
X017214Y009948D01*
X017470Y009948D02*
X017470Y009702D01*
X017283Y009515D01*
X017283Y009319D01*
X017484Y009493D02*
X017535Y009545D01*
X017628Y009637D01*
X017628Y009722D01*
X017830Y009722D01*
X017893Y009785D01*
X017893Y010111D01*
X017850Y010155D01*
X017879Y010155D01*
X017903Y010179D01*
X017903Y009133D01*
X017473Y009133D01*
X017508Y009168D01*
X017549Y009266D01*
X017549Y009371D01*
X017508Y009469D01*
X017484Y009493D01*
X017518Y009446D02*
X017903Y009446D01*
X017903Y009349D02*
X017549Y009349D01*
X017543Y009253D02*
X017903Y009253D01*
X017903Y009156D02*
X017496Y009156D01*
X017534Y009543D02*
X017903Y009543D01*
X017903Y009640D02*
X017628Y009640D01*
X017845Y009737D02*
X017903Y009737D01*
X017893Y009834D02*
X017903Y009834D01*
X017893Y009931D02*
X017903Y009931D01*
X017893Y010028D02*
X017903Y010028D01*
X017903Y010125D02*
X017880Y010125D01*
X016456Y010834D02*
X016082Y010834D01*
X016023Y010893D01*
X016456Y011858D02*
X016752Y011858D01*
X016771Y011878D01*
X017616Y011773D02*
X017903Y011773D01*
X017903Y015038D02*
X017473Y015038D01*
X017508Y015073D01*
X017549Y015171D01*
X017549Y015277D01*
X017508Y015375D01*
X017484Y015399D01*
X017535Y015450D01*
X017628Y015543D01*
X017628Y015628D01*
X017830Y015628D01*
X017893Y015691D01*
X017893Y016017D01*
X017850Y016061D01*
X017879Y016061D01*
X017903Y016085D01*
X017903Y015038D01*
X017903Y015068D02*
X017503Y015068D01*
X017546Y015165D02*
X017903Y015165D01*
X017903Y015262D02*
X017549Y015262D01*
X017515Y015359D02*
X017903Y015359D01*
X017903Y015456D02*
X017541Y015456D01*
X017628Y015553D02*
X017903Y015553D01*
X017903Y015650D02*
X017852Y015650D01*
X017893Y015747D02*
X017903Y015747D01*
X017893Y015843D02*
X017903Y015843D01*
X017893Y015940D02*
X017903Y015940D01*
X017903Y016037D02*
X017873Y016037D01*
X017470Y015854D02*
X017470Y015608D01*
X017283Y015421D01*
X017283Y015224D01*
X017214Y015628D02*
X016811Y015224D01*
X016574Y015539D02*
X016338Y015303D01*
X016338Y015224D01*
X015698Y015843D02*
X015630Y015843D01*
X015630Y015940D02*
X015649Y015940D01*
X015472Y016130D02*
X015039Y016563D01*
X014895Y016563D01*
X014895Y016576D01*
X015236Y016799D02*
X014960Y017074D01*
X014948Y017063D01*
X014895Y017063D01*
X015236Y016799D02*
X016023Y016799D01*
X016082Y016740D01*
X016456Y016740D01*
X016456Y016996D02*
X016220Y016996D01*
X016299Y017232D02*
X015984Y017232D01*
X015826Y017074D01*
X016299Y017232D02*
X016319Y017252D01*
X016456Y017252D01*
X016159Y017590D02*
X016103Y017645D01*
X015707Y017645D01*
X015649Y017588D01*
X015649Y017547D01*
X015630Y017547D01*
X015630Y017896D01*
X015659Y017926D01*
X015659Y018113D01*
X015630Y018143D01*
X015630Y018147D01*
X015659Y018147D01*
X015659Y017994D01*
X015700Y017953D01*
X015649Y017903D01*
X015649Y017821D01*
X015707Y017763D01*
X016103Y017763D01*
X016161Y017821D01*
X016161Y017903D01*
X016110Y017953D01*
X016151Y017994D01*
X016151Y018200D01*
X016167Y018216D01*
X016535Y018216D01*
X016535Y017974D01*
X016579Y017931D01*
X016293Y017931D01*
X016230Y017867D01*
X016230Y017661D01*
X016159Y017590D01*
X016230Y017685D02*
X015630Y017685D01*
X015630Y017588D02*
X015650Y017588D01*
X015630Y017782D02*
X015688Y017782D01*
X015649Y017879D02*
X015630Y017879D01*
X015659Y017976D02*
X015677Y017976D01*
X015659Y018073D02*
X015659Y018073D01*
X015433Y018019D02*
X015039Y018413D01*
X012362Y018413D01*
X013779Y016878D02*
X013976Y017074D01*
X014370Y017074D01*
X014382Y017063D01*
X014395Y017063D01*
X013779Y016878D02*
X013779Y016563D01*
X013897Y016090D02*
X013779Y015972D01*
X013897Y016090D02*
X014409Y016090D01*
X014395Y016076D01*
X014395Y016063D01*
X016122Y017782D02*
X016230Y017782D01*
X016242Y017879D02*
X016161Y017879D01*
X016133Y017976D02*
X016535Y017976D01*
X016535Y018073D02*
X016151Y018073D01*
X016151Y018170D02*
X016535Y018170D01*
X016702Y018137D02*
X016702Y018324D01*
X016653Y018374D01*
X016102Y018374D01*
X015905Y018177D01*
X015708Y018374D01*
X015630Y018374D01*
X016456Y017763D02*
X016752Y017763D01*
X016771Y017783D01*
X017623Y017685D02*
X017903Y017685D01*
X017214Y015854D02*
X017214Y015628D01*
X014395Y011157D02*
X014382Y011157D01*
X014370Y011169D01*
X013976Y011169D01*
X013779Y010972D01*
X013779Y010657D01*
X013897Y010185D02*
X013779Y010067D01*
X013897Y010185D02*
X014409Y010185D01*
X014395Y010171D01*
X014395Y010157D01*
X022598Y009752D02*
X022874Y009752D01*
X025433Y012311D01*
X027480Y012311D01*
X027874Y011917D01*
X027874Y011720D01*
X028110Y011484D01*
X028779Y011484D01*
X028897Y011602D01*
X029055Y011602D01*
X029281Y011579D02*
X030088Y011579D01*
X030088Y011651D02*
X030088Y011498D01*
X030152Y011435D01*
X030478Y011435D01*
X030502Y011459D01*
X030502Y010466D01*
X030478Y010490D01*
X030152Y010490D01*
X030142Y010480D01*
X030093Y010529D01*
X029709Y010529D01*
X029685Y010505D01*
X029661Y010529D01*
X029276Y010529D01*
X029227Y010480D01*
X029218Y010490D01*
X029030Y010490D01*
X028952Y010569D01*
X028730Y010569D01*
X028730Y010677D01*
X028882Y010677D01*
X028892Y010667D01*
X029218Y010667D01*
X029281Y010730D01*
X029281Y010938D01*
X029257Y010962D01*
X029281Y010986D01*
X029281Y011194D01*
X029257Y011218D01*
X029281Y011242D01*
X029281Y011450D01*
X029257Y011474D01*
X029281Y011498D01*
X029281Y011651D01*
X029464Y011651D01*
X029596Y011784D01*
X029596Y011971D01*
X029562Y012006D01*
X029661Y012006D01*
X029685Y012030D01*
X029699Y012015D01*
X029645Y011962D01*
X029645Y011754D01*
X029709Y011691D01*
X029867Y011691D01*
X029906Y011651D01*
X030088Y011651D01*
X030105Y011482D02*
X029265Y011482D01*
X029281Y011385D02*
X030502Y011385D01*
X030502Y011288D02*
X029281Y011288D01*
X029281Y011191D02*
X030502Y011191D01*
X030502Y011094D02*
X029281Y011094D01*
X029281Y010997D02*
X030502Y010997D01*
X030502Y010900D02*
X029281Y010900D01*
X029281Y010803D02*
X030502Y010803D01*
X030502Y010706D02*
X029257Y010706D01*
X029259Y010513D02*
X029008Y010513D01*
X028730Y010609D02*
X030502Y010609D01*
X030502Y010513D02*
X030110Y010513D01*
X029941Y010362D02*
X030000Y010303D01*
X029941Y010362D02*
X029813Y010362D01*
X029692Y010513D02*
X029677Y010513D01*
X029557Y010362D02*
X029429Y010362D01*
X029370Y010303D01*
X029177Y010155D02*
X028991Y010155D01*
X028952Y010116D01*
X028712Y010116D01*
X028760Y010068D01*
X028760Y009986D01*
X028702Y009929D01*
X028305Y009929D01*
X028248Y009986D01*
X028248Y010068D01*
X028298Y010119D01*
X028292Y010125D01*
X028228Y010061D01*
X028228Y009476D01*
X028302Y009476D01*
X028370Y009545D01*
X028558Y009545D01*
X028689Y009414D01*
X028711Y009469D01*
X028786Y009544D01*
X028884Y009584D01*
X028901Y009584D01*
X028947Y009630D01*
X028947Y009727D01*
X029079Y009860D01*
X029134Y009860D01*
X029134Y010111D01*
X029177Y010155D01*
X029147Y010125D02*
X028961Y010125D01*
X029134Y010028D02*
X028760Y010028D01*
X028704Y009931D02*
X029134Y009931D01*
X029053Y009834D02*
X028228Y009834D01*
X028305Y009811D02*
X028248Y009753D01*
X028248Y009671D01*
X028305Y009614D01*
X028702Y009614D01*
X028760Y009671D01*
X028760Y009753D01*
X028702Y009811D01*
X028305Y009811D01*
X028248Y009737D02*
X028228Y009737D01*
X028228Y009640D02*
X028279Y009640D01*
X028228Y009543D02*
X028369Y009543D01*
X028560Y009543D02*
X028786Y009543D01*
X028728Y009640D02*
X028947Y009640D01*
X028956Y009737D02*
X028760Y009737D01*
X028702Y009446D02*
X028657Y009446D01*
X028464Y009319D02*
X028228Y009319D01*
X028149Y009240D01*
X026496Y009240D01*
X026417Y009319D01*
X022598Y009319D01*
X022598Y010618D02*
X023071Y010618D01*
X024960Y012507D01*
X027637Y012507D01*
X028031Y012114D01*
X028258Y012089D02*
X028298Y012048D01*
X028248Y011997D01*
X028248Y011916D01*
X028305Y011858D01*
X028702Y011858D01*
X028760Y011916D01*
X028760Y011997D01*
X028709Y012048D01*
X028750Y012089D01*
X028750Y012295D01*
X028766Y012311D01*
X029134Y012311D01*
X029134Y012069D01*
X029177Y012025D01*
X028892Y012025D01*
X028828Y011962D01*
X028828Y011756D01*
X028757Y011684D01*
X028702Y011740D01*
X028305Y011740D01*
X028248Y011682D01*
X028248Y011641D01*
X028228Y011641D01*
X028228Y011990D01*
X028258Y012020D01*
X028258Y012208D01*
X028228Y012237D01*
X028228Y012242D01*
X028258Y012242D01*
X028258Y012089D01*
X028258Y012063D02*
X028283Y012063D01*
X028258Y012160D02*
X028258Y012160D01*
X028248Y011966D02*
X028228Y011966D01*
X028228Y011870D02*
X028294Y011870D01*
X028228Y011773D02*
X028828Y011773D01*
X028828Y011870D02*
X028713Y011870D01*
X028760Y011966D02*
X028833Y011966D01*
X028724Y012063D02*
X029139Y012063D01*
X029134Y012160D02*
X028750Y012160D01*
X028750Y012257D02*
X029134Y012257D01*
X029301Y012232D02*
X029301Y012419D01*
X029252Y012468D01*
X028700Y012468D01*
X028504Y012271D01*
X028307Y012468D01*
X028228Y012468D01*
X028228Y011676D02*
X028248Y011676D01*
X028582Y011326D02*
X028425Y011169D01*
X028582Y011326D02*
X028897Y011326D01*
X028917Y011346D01*
X029055Y011346D01*
X029055Y011090D02*
X028819Y011090D01*
X028622Y010893D02*
X027834Y010893D01*
X027559Y011169D01*
X027547Y011157D01*
X027494Y011157D01*
X027494Y010671D02*
X027494Y010657D01*
X027637Y010657D01*
X028071Y010224D01*
X028292Y010125D02*
X028292Y010125D01*
X028248Y010028D02*
X028228Y010028D01*
X028228Y009931D02*
X028303Y009931D01*
X028937Y009397D02*
X029173Y009633D01*
X028937Y009397D02*
X028937Y009319D01*
X029409Y009319D02*
X029813Y009722D01*
X029813Y009948D01*
X030069Y009948D02*
X030069Y009702D01*
X029882Y009515D01*
X029882Y009319D01*
X030082Y009493D02*
X030134Y009545D01*
X030226Y009637D01*
X030226Y009722D01*
X030428Y009722D01*
X030492Y009785D01*
X030492Y010111D01*
X030448Y010155D01*
X030478Y010155D01*
X030502Y010179D01*
X030502Y009133D01*
X030072Y009133D01*
X030107Y009168D01*
X030147Y009266D01*
X030147Y009371D01*
X030107Y009469D01*
X030082Y009493D01*
X030116Y009446D02*
X030502Y009446D01*
X030502Y009349D02*
X030147Y009349D01*
X030142Y009253D02*
X030502Y009253D01*
X030502Y009156D02*
X030094Y009156D01*
X030132Y009543D02*
X030502Y009543D01*
X030502Y009640D02*
X030226Y009640D01*
X030443Y009737D02*
X030502Y009737D01*
X030492Y009834D02*
X030502Y009834D01*
X030492Y009931D02*
X030502Y009931D01*
X030492Y010028D02*
X030502Y010028D01*
X030502Y010125D02*
X030478Y010125D01*
X029055Y010834D02*
X028681Y010834D01*
X028622Y010893D01*
X029055Y011858D02*
X029350Y011858D01*
X029370Y011878D01*
X029596Y011870D02*
X029645Y011870D01*
X029650Y011966D02*
X029596Y011966D01*
X029585Y011773D02*
X029645Y011773D01*
X029488Y011676D02*
X029881Y011676D01*
X029813Y011858D02*
X029980Y011858D01*
X030000Y011878D01*
X030226Y011870D02*
X030502Y011870D01*
X030502Y011966D02*
X030226Y011966D01*
X030226Y011971D02*
X030182Y012015D01*
X030236Y012069D01*
X030236Y012395D01*
X030226Y012405D01*
X030226Y012583D01*
X030082Y012726D01*
X030107Y012751D01*
X030147Y012848D01*
X030147Y012954D01*
X030109Y013048D01*
X030502Y013048D01*
X030502Y011745D01*
X030478Y011769D01*
X030212Y011769D01*
X030226Y011784D01*
X030226Y011971D01*
X030230Y012063D02*
X030502Y012063D01*
X030502Y012160D02*
X030236Y012160D01*
X030236Y012257D02*
X030502Y012257D01*
X030502Y012354D02*
X030236Y012354D01*
X030226Y012451D02*
X030502Y012451D01*
X030502Y012548D02*
X030226Y012548D01*
X030164Y012645D02*
X030502Y012645D01*
X030502Y012742D02*
X030098Y012742D01*
X030143Y012839D02*
X030502Y012839D01*
X030502Y012936D02*
X030147Y012936D01*
X030115Y013033D02*
X030502Y013033D01*
X029882Y012901D02*
X029882Y012704D01*
X030069Y012517D01*
X030069Y012232D01*
X029813Y012232D02*
X029813Y012498D01*
X029409Y012901D01*
X024724Y012901D01*
X023740Y011917D01*
X022598Y011917D01*
X022598Y011484D02*
X023622Y011484D01*
X024842Y012704D01*
X029330Y012704D01*
X029557Y012478D01*
X029557Y012232D01*
X030215Y011773D02*
X030502Y011773D01*
X030502Y015038D02*
X030072Y015038D01*
X030107Y015073D01*
X030147Y015171D01*
X030147Y015277D01*
X030107Y015375D01*
X030082Y015399D01*
X030134Y015450D01*
X030226Y015543D01*
X030226Y015628D01*
X030428Y015628D01*
X030492Y015691D01*
X030492Y016017D01*
X030448Y016061D01*
X030478Y016061D01*
X030502Y016085D01*
X030502Y015038D01*
X030502Y015068D02*
X030101Y015068D01*
X030145Y015165D02*
X030502Y015165D01*
X030502Y015262D02*
X030147Y015262D01*
X030113Y015359D02*
X030502Y015359D01*
X030502Y015456D02*
X030139Y015456D01*
X030226Y015553D02*
X030502Y015553D01*
X030502Y015650D02*
X030450Y015650D01*
X030492Y015747D02*
X030502Y015747D01*
X030492Y015843D02*
X030502Y015843D01*
X030492Y015940D02*
X030502Y015940D01*
X030502Y016037D02*
X030471Y016037D01*
X030502Y016371D02*
X030478Y016395D01*
X030152Y016395D01*
X030142Y016386D01*
X030093Y016435D01*
X029709Y016435D01*
X029685Y016411D01*
X029661Y016435D01*
X029276Y016435D01*
X029227Y016386D01*
X029218Y016395D01*
X029030Y016395D01*
X028952Y016474D01*
X028730Y016474D01*
X028730Y016582D01*
X028882Y016582D01*
X028892Y016572D01*
X029218Y016572D01*
X029281Y016636D01*
X029281Y016844D01*
X029257Y016868D01*
X029281Y016892D01*
X029281Y017100D01*
X029257Y017124D01*
X029281Y017148D01*
X029281Y017355D01*
X029257Y017380D01*
X029281Y017404D01*
X029281Y017557D01*
X029464Y017557D01*
X029596Y017689D01*
X029596Y017877D01*
X029562Y017911D01*
X029661Y017911D01*
X029685Y017935D01*
X029699Y017921D01*
X029645Y017867D01*
X029645Y017659D01*
X029709Y017596D01*
X029867Y017596D01*
X029906Y017557D01*
X030088Y017557D01*
X030088Y017404D01*
X030152Y017340D01*
X030478Y017340D01*
X030502Y017364D01*
X030502Y016371D01*
X030502Y016425D02*
X030103Y016425D01*
X029941Y016267D02*
X030000Y016208D01*
X029941Y016267D02*
X029813Y016267D01*
X029699Y016425D02*
X029670Y016425D01*
X029557Y016267D02*
X029429Y016267D01*
X029370Y016208D01*
X029266Y016425D02*
X029001Y016425D01*
X028730Y016522D02*
X030502Y016522D01*
X030502Y016619D02*
X029264Y016619D01*
X029281Y016716D02*
X030502Y016716D01*
X030502Y016813D02*
X029281Y016813D01*
X029281Y016910D02*
X030502Y016910D01*
X030502Y017007D02*
X029281Y017007D01*
X029277Y017103D02*
X030502Y017103D01*
X030502Y017200D02*
X029281Y017200D01*
X029281Y017297D02*
X030502Y017297D01*
X030502Y017651D02*
X030478Y017675D01*
X030212Y017675D01*
X030226Y017689D01*
X030226Y017877D01*
X030182Y017921D01*
X030236Y017974D01*
X030236Y018300D01*
X030226Y018310D01*
X030226Y018488D01*
X030082Y018632D01*
X030107Y018656D01*
X030147Y018754D01*
X030147Y018860D01*
X030109Y018953D01*
X030502Y018953D01*
X030502Y017651D01*
X030502Y017685D02*
X030222Y017685D01*
X030226Y017782D02*
X030502Y017782D01*
X030502Y017879D02*
X030224Y017879D01*
X030236Y017976D02*
X030502Y017976D01*
X030502Y018073D02*
X030236Y018073D01*
X030236Y018170D02*
X030502Y018170D01*
X030502Y018267D02*
X030236Y018267D01*
X030226Y018364D02*
X030502Y018364D01*
X030502Y018460D02*
X030226Y018460D01*
X030157Y018557D02*
X030502Y018557D01*
X030502Y018654D02*
X030105Y018654D01*
X030146Y018751D02*
X030502Y018751D01*
X030502Y018848D02*
X030147Y018848D01*
X030112Y018945D02*
X030502Y018945D01*
X029882Y018807D02*
X029882Y018610D01*
X030069Y018423D01*
X030069Y018137D01*
X029813Y018137D02*
X029813Y018403D01*
X029409Y018807D01*
X024724Y018807D01*
X023740Y017822D01*
X022598Y017822D01*
X022598Y017389D02*
X023622Y017389D01*
X024842Y018610D01*
X029330Y018610D01*
X029557Y018383D01*
X029557Y018137D01*
X029301Y018137D02*
X029301Y018324D01*
X029252Y018374D01*
X028700Y018374D01*
X028504Y018177D01*
X028307Y018374D01*
X028228Y018374D01*
X028228Y018147D02*
X028228Y018143D01*
X028258Y018113D01*
X028258Y017926D01*
X028228Y017896D01*
X028228Y017547D01*
X028248Y017547D01*
X028248Y017588D01*
X028228Y017588D01*
X028248Y017588D02*
X028305Y017645D01*
X028702Y017645D01*
X028757Y017590D01*
X028828Y017661D01*
X028828Y017867D01*
X028892Y017931D01*
X029177Y017931D01*
X029134Y017974D01*
X029134Y018216D01*
X028766Y018216D01*
X028750Y018200D01*
X028750Y017994D01*
X028709Y017953D01*
X028760Y017903D01*
X028760Y017821D01*
X028702Y017763D01*
X028305Y017763D01*
X028248Y017821D01*
X028248Y017903D01*
X028298Y017953D01*
X028258Y017994D01*
X028258Y018147D01*
X028228Y018147D01*
X028258Y018073D02*
X028258Y018073D01*
X028258Y017976D02*
X028276Y017976D01*
X028248Y017879D02*
X028228Y017879D01*
X028228Y017782D02*
X028287Y017782D01*
X028228Y017685D02*
X028828Y017685D01*
X028828Y017782D02*
X028720Y017782D01*
X028760Y017879D02*
X028840Y017879D01*
X028731Y017976D02*
X029134Y017976D01*
X029134Y018073D02*
X028750Y018073D01*
X028750Y018170D02*
X029134Y018170D01*
X029055Y017763D02*
X029350Y017763D01*
X029370Y017783D01*
X029596Y017782D02*
X029645Y017782D01*
X029645Y017685D02*
X029592Y017685D01*
X029495Y017588D02*
X029874Y017588D01*
X029813Y017763D02*
X029980Y017763D01*
X030000Y017783D01*
X030088Y017491D02*
X029281Y017491D01*
X029272Y017394D02*
X030098Y017394D01*
X029657Y017879D02*
X029594Y017879D01*
X029055Y017507D02*
X028897Y017507D01*
X028779Y017389D01*
X028110Y017389D01*
X027874Y017626D01*
X027874Y017822D01*
X027480Y018216D01*
X025433Y018216D01*
X022874Y015657D01*
X022598Y015657D01*
X022598Y015224D02*
X026417Y015224D01*
X026496Y015145D01*
X028149Y015145D01*
X028228Y015224D01*
X028464Y015224D01*
X028302Y015381D02*
X028228Y015381D01*
X028228Y015967D01*
X028292Y016031D01*
X028298Y016024D01*
X028248Y015973D01*
X028248Y015892D01*
X028305Y015834D01*
X028702Y015834D01*
X028760Y015892D01*
X028760Y015973D01*
X028712Y016021D01*
X028952Y016021D01*
X028991Y016061D01*
X029177Y016061D01*
X029134Y016017D01*
X029134Y015765D01*
X029079Y015765D01*
X028947Y015633D01*
X028947Y015535D01*
X028901Y015490D01*
X028884Y015490D01*
X028786Y015449D01*
X028711Y015375D01*
X028689Y015320D01*
X028558Y015450D01*
X028370Y015450D01*
X028302Y015381D01*
X028228Y015456D02*
X028802Y015456D01*
X028735Y015553D02*
X028947Y015553D01*
X028963Y015650D02*
X028760Y015650D01*
X028760Y015658D02*
X028702Y015716D01*
X028305Y015716D01*
X028248Y015658D01*
X028248Y015577D01*
X028305Y015519D01*
X028702Y015519D01*
X028760Y015577D01*
X028760Y015658D01*
X028711Y015843D02*
X029134Y015843D01*
X029134Y015940D02*
X028760Y015940D01*
X028968Y016037D02*
X029154Y016037D01*
X029060Y015747D02*
X028228Y015747D01*
X028228Y015843D02*
X028296Y015843D01*
X028248Y015940D02*
X028228Y015940D01*
X028071Y016130D02*
X027637Y016563D01*
X027494Y016563D01*
X027494Y016576D01*
X027834Y016799D02*
X027559Y017074D01*
X027547Y017063D01*
X027494Y017063D01*
X027834Y016799D02*
X028622Y016799D01*
X028681Y016740D01*
X029055Y016740D01*
X029055Y016996D02*
X028819Y016996D01*
X028897Y017232D02*
X028582Y017232D01*
X028425Y017074D01*
X028897Y017232D02*
X028917Y017252D01*
X029055Y017252D01*
X028031Y018019D02*
X027637Y018413D01*
X024960Y018413D01*
X023071Y016523D01*
X022598Y016523D01*
X026378Y016563D02*
X026378Y016878D01*
X026574Y017074D01*
X026968Y017074D01*
X026980Y017063D01*
X026994Y017063D01*
X027008Y016090D02*
X026496Y016090D01*
X026378Y015972D01*
X026994Y016063D02*
X026994Y016076D01*
X027008Y016090D01*
X028228Y015650D02*
X028248Y015650D01*
X028228Y015553D02*
X028272Y015553D01*
X028650Y015359D02*
X028705Y015359D01*
X028937Y015303D02*
X029173Y015539D01*
X028937Y015303D02*
X028937Y015224D01*
X029409Y015224D02*
X029813Y015628D01*
X029813Y015854D01*
X030069Y015854D02*
X030069Y015608D01*
X029882Y015421D01*
X029882Y015224D01*
X026994Y011157D02*
X026980Y011157D01*
X026968Y011169D01*
X026574Y011169D01*
X026378Y010972D01*
X026378Y010657D01*
X026496Y010185D02*
X026378Y010067D01*
X026496Y010185D02*
X027008Y010185D01*
X026994Y010171D01*
X026994Y010157D01*
X026496Y021051D02*
X028149Y021051D01*
X028228Y021130D01*
X028464Y021130D01*
X028302Y021287D02*
X028228Y021287D01*
X028228Y021872D01*
X028292Y021936D01*
X028298Y021930D01*
X028248Y021879D01*
X028248Y021797D01*
X028305Y021740D01*
X028702Y021740D01*
X028760Y021797D01*
X028760Y021879D01*
X028712Y021927D01*
X028952Y021927D01*
X028991Y021966D01*
X029177Y021966D01*
X029134Y021922D01*
X029134Y021671D01*
X029079Y021671D01*
X028947Y021538D01*
X028947Y021441D01*
X028901Y021395D01*
X028884Y021395D01*
X028786Y021355D01*
X028711Y021280D01*
X028689Y021225D01*
X028558Y021356D01*
X028370Y021356D01*
X028302Y021287D01*
X028228Y021368D02*
X028818Y021368D01*
X028742Y021465D02*
X028947Y021465D01*
X028970Y021562D02*
X028760Y021562D01*
X028760Y021564D02*
X028702Y021622D01*
X028305Y021622D01*
X028248Y021564D01*
X028248Y021482D01*
X028305Y021425D01*
X028702Y021425D01*
X028760Y021482D01*
X028760Y021564D01*
X028718Y021756D02*
X029134Y021756D01*
X029134Y021853D02*
X028760Y021853D01*
X028975Y021950D02*
X029161Y021950D01*
X029370Y022114D02*
X029429Y022173D01*
X029557Y022173D01*
X029685Y022316D02*
X029661Y022340D01*
X029276Y022340D01*
X029227Y022291D01*
X029218Y022301D01*
X029030Y022301D01*
X028952Y022380D01*
X028730Y022380D01*
X028730Y022488D01*
X028882Y022488D01*
X028892Y022478D01*
X029218Y022478D01*
X029281Y022541D01*
X029281Y022749D01*
X029257Y022773D01*
X029281Y022797D01*
X029281Y023005D01*
X029257Y023029D01*
X029281Y023053D01*
X029281Y023261D01*
X029257Y023285D01*
X029281Y023309D01*
X029281Y023462D01*
X029464Y023462D01*
X029596Y023595D01*
X029596Y023782D01*
X029562Y023817D01*
X029661Y023817D01*
X029685Y023841D01*
X029699Y023826D01*
X029645Y023773D01*
X029645Y023565D01*
X029709Y023502D01*
X029867Y023502D01*
X029906Y023462D01*
X030088Y023462D01*
X030088Y023309D01*
X030152Y023246D01*
X030478Y023246D01*
X030502Y023270D01*
X030502Y022277D01*
X030478Y022301D01*
X030152Y022301D01*
X030142Y022291D01*
X030093Y022340D01*
X029709Y022340D01*
X029685Y022316D01*
X029706Y022337D02*
X029663Y022337D01*
X029813Y022173D02*
X029941Y022173D01*
X030000Y022114D01*
X030096Y022337D02*
X030502Y022337D01*
X030502Y022434D02*
X028730Y022434D01*
X028681Y022645D02*
X028622Y022704D01*
X027834Y022704D01*
X027559Y022980D01*
X027547Y022968D01*
X027494Y022968D01*
X026994Y022968D02*
X026980Y022968D01*
X026968Y022980D01*
X026574Y022980D01*
X026378Y022783D01*
X026378Y022468D01*
X026496Y021996D02*
X026378Y021878D01*
X026496Y021996D02*
X027008Y021996D01*
X026994Y021982D01*
X026994Y021968D01*
X027494Y022468D02*
X027637Y022468D01*
X028071Y022035D01*
X028228Y021853D02*
X028248Y021853D01*
X028228Y021756D02*
X028289Y021756D01*
X028228Y021659D02*
X029067Y021659D01*
X029173Y021444D02*
X028937Y021208D01*
X028937Y021130D01*
X028708Y021271D02*
X028643Y021271D01*
X028265Y021465D02*
X028228Y021465D01*
X028228Y021562D02*
X028248Y021562D01*
X028994Y022337D02*
X029273Y022337D01*
X029271Y022531D02*
X030502Y022531D01*
X030502Y022628D02*
X029281Y022628D01*
X029281Y022725D02*
X030502Y022725D01*
X030502Y022822D02*
X029281Y022822D01*
X029281Y022919D02*
X030502Y022919D01*
X030502Y023016D02*
X029270Y023016D01*
X029281Y023113D02*
X030502Y023113D01*
X030502Y023210D02*
X029281Y023210D01*
X029279Y023307D02*
X030091Y023307D01*
X030088Y023404D02*
X029281Y023404D01*
X029055Y023413D02*
X028897Y023413D01*
X028779Y023295D01*
X028110Y023295D01*
X027874Y023531D01*
X027874Y023728D01*
X027480Y024122D01*
X025433Y024122D01*
X022874Y021563D01*
X022598Y021563D01*
X022598Y021130D02*
X026417Y021130D01*
X026496Y021051D01*
X027494Y022468D02*
X027494Y022482D01*
X028425Y022980D02*
X028582Y023137D01*
X028897Y023137D01*
X028917Y023157D01*
X029055Y023157D01*
X029055Y022901D02*
X028819Y022901D01*
X028681Y022645D02*
X029055Y022645D01*
X028757Y023496D02*
X028702Y023551D01*
X028305Y023551D01*
X028248Y023493D01*
X028248Y023452D01*
X028228Y023452D01*
X028228Y023802D01*
X028258Y023831D01*
X028258Y024019D01*
X028228Y024048D01*
X028228Y024053D01*
X028258Y024053D01*
X028258Y023900D01*
X028298Y023859D01*
X028248Y023808D01*
X028248Y023727D01*
X028305Y023669D01*
X028702Y023669D01*
X028760Y023727D01*
X028760Y023808D01*
X028709Y023859D01*
X028750Y023900D01*
X028750Y024106D01*
X028766Y024122D01*
X029134Y024122D01*
X029134Y023880D01*
X029177Y023836D01*
X028892Y023836D01*
X028828Y023773D01*
X028828Y023567D01*
X028757Y023496D01*
X028752Y023501D02*
X028762Y023501D01*
X028828Y023597D02*
X028228Y023597D01*
X028228Y023501D02*
X028255Y023501D01*
X028228Y023694D02*
X028280Y023694D01*
X028248Y023791D02*
X028228Y023791D01*
X028258Y023888D02*
X028269Y023888D01*
X028258Y023985D02*
X028258Y023985D01*
X028031Y023925D02*
X027637Y024319D01*
X024960Y024319D01*
X023071Y022429D01*
X022598Y022429D01*
X022598Y023295D02*
X023622Y023295D01*
X024842Y024515D01*
X029330Y024515D01*
X029557Y024289D01*
X029557Y024043D01*
X029587Y023791D02*
X029664Y023791D01*
X029645Y023694D02*
X029596Y023694D01*
X029596Y023597D02*
X029645Y023597D01*
X029502Y023501D02*
X029868Y023501D01*
X029813Y023669D02*
X029980Y023669D01*
X030000Y023689D01*
X030226Y023694D02*
X030502Y023694D01*
X030502Y023597D02*
X030226Y023597D01*
X030226Y023595D02*
X030226Y023782D01*
X030182Y023826D01*
X030236Y023880D01*
X030236Y024206D01*
X030226Y024216D01*
X030226Y024394D01*
X030082Y024537D01*
X030107Y024562D01*
X030147Y024659D01*
X030147Y024765D01*
X030109Y024859D01*
X030502Y024859D01*
X030502Y023556D01*
X030478Y023580D01*
X030212Y023580D01*
X030226Y023595D01*
X030217Y023791D02*
X030502Y023791D01*
X030502Y023888D02*
X030236Y023888D01*
X030236Y023985D02*
X030502Y023985D01*
X030502Y024082D02*
X030236Y024082D01*
X030236Y024179D02*
X030502Y024179D01*
X030502Y024276D02*
X030226Y024276D01*
X030226Y024373D02*
X030502Y024373D01*
X030502Y024470D02*
X030150Y024470D01*
X030109Y024567D02*
X030502Y024567D01*
X030502Y024664D02*
X030147Y024664D01*
X030147Y024761D02*
X030502Y024761D01*
X030502Y024858D02*
X030109Y024858D01*
X029882Y024712D02*
X029882Y024515D01*
X030069Y024328D01*
X030069Y024043D01*
X029813Y024043D02*
X029813Y024309D01*
X029409Y024712D01*
X024724Y024712D01*
X023740Y023728D01*
X022598Y023728D01*
X022598Y027035D02*
X026417Y027035D01*
X026496Y026956D01*
X028149Y026956D01*
X028228Y027035D01*
X028464Y027035D01*
X028302Y027193D02*
X028228Y027193D01*
X028228Y027778D01*
X028292Y027842D01*
X028298Y027835D01*
X028248Y027784D01*
X028248Y027703D01*
X028305Y027645D01*
X028702Y027645D01*
X028760Y027703D01*
X028760Y027784D01*
X028712Y027832D01*
X028952Y027832D01*
X028991Y027872D01*
X029177Y027872D01*
X029134Y027828D01*
X029134Y027576D01*
X029079Y027576D01*
X028947Y027444D01*
X028947Y027346D01*
X028901Y027301D01*
X028884Y027301D01*
X028786Y027260D01*
X028711Y027186D01*
X028689Y027131D01*
X028558Y027261D01*
X028370Y027261D01*
X028302Y027193D01*
X028228Y027281D02*
X028835Y027281D01*
X028749Y027378D02*
X028947Y027378D01*
X028977Y027474D02*
X028755Y027474D01*
X028760Y027470D02*
X028702Y027527D01*
X028305Y027527D01*
X028248Y027470D01*
X028248Y027388D01*
X028305Y027330D01*
X028702Y027330D01*
X028760Y027388D01*
X028760Y027470D01*
X028725Y027668D02*
X029134Y027668D01*
X029134Y027765D02*
X028760Y027765D01*
X028982Y027862D02*
X029168Y027862D01*
X029370Y028019D02*
X029429Y028078D01*
X029557Y028078D01*
X029685Y028222D02*
X029661Y028246D01*
X029276Y028246D01*
X029227Y028197D01*
X029218Y028206D01*
X029030Y028206D01*
X028952Y028285D01*
X028730Y028285D01*
X028730Y028393D01*
X028882Y028393D01*
X028892Y028383D01*
X029218Y028383D01*
X029281Y028447D01*
X029281Y028655D01*
X029257Y028679D01*
X029281Y028703D01*
X029281Y028911D01*
X029257Y028935D01*
X029281Y028959D01*
X029281Y029166D01*
X029257Y029191D01*
X029281Y029215D01*
X029281Y029368D01*
X029464Y029368D01*
X029596Y029500D01*
X029596Y029688D01*
X029562Y029722D01*
X029661Y029722D01*
X029685Y029746D01*
X029699Y029732D01*
X029645Y029678D01*
X029645Y029471D01*
X029709Y029407D01*
X029867Y029407D01*
X029906Y029368D01*
X030088Y029368D01*
X030088Y029215D01*
X030152Y029151D01*
X030478Y029151D01*
X030502Y029175D01*
X030502Y028182D01*
X030478Y028206D01*
X030152Y028206D01*
X030142Y028197D01*
X030093Y028246D01*
X029709Y028246D01*
X029685Y028222D01*
X029813Y028078D02*
X029941Y028078D01*
X030000Y028019D01*
X030069Y027665D02*
X030069Y027419D01*
X029882Y027232D01*
X029882Y027035D01*
X030072Y026849D02*
X030107Y026885D01*
X030147Y026982D01*
X030147Y027088D01*
X030107Y027186D01*
X030082Y027210D01*
X030134Y027261D01*
X030226Y027354D01*
X030226Y027439D01*
X030428Y027439D01*
X030492Y027502D01*
X030492Y027828D01*
X030448Y027872D01*
X030478Y027872D01*
X030502Y027896D01*
X030502Y026849D01*
X030072Y026849D01*
X030110Y026893D02*
X030502Y026893D01*
X030502Y026990D02*
X030147Y026990D01*
X030147Y027087D02*
X030502Y027087D01*
X030502Y027184D02*
X030108Y027184D01*
X030153Y027281D02*
X030502Y027281D01*
X030502Y027378D02*
X030226Y027378D01*
X030464Y027474D02*
X030502Y027474D01*
X030492Y027571D02*
X030502Y027571D01*
X030492Y027668D02*
X030502Y027668D01*
X030492Y027765D02*
X030502Y027765D01*
X030502Y027862D02*
X030458Y027862D01*
X030502Y028250D02*
X028987Y028250D01*
X028730Y028347D02*
X030502Y028347D01*
X030502Y028444D02*
X029278Y028444D01*
X029281Y028541D02*
X030502Y028541D01*
X030502Y028638D02*
X029281Y028638D01*
X029281Y028735D02*
X030502Y028735D01*
X030502Y028831D02*
X029281Y028831D01*
X029263Y028928D02*
X030502Y028928D01*
X030502Y029025D02*
X029281Y029025D01*
X029281Y029122D02*
X030502Y029122D01*
X030502Y029462D02*
X030478Y029486D01*
X030212Y029486D01*
X030226Y029500D01*
X030226Y029688D01*
X030182Y029732D01*
X030236Y029785D01*
X030236Y030111D01*
X030226Y030121D01*
X030226Y030299D01*
X030082Y030443D01*
X030107Y030467D01*
X030147Y030565D01*
X030147Y030671D01*
X030109Y030764D01*
X030502Y030764D01*
X030502Y029462D01*
X030502Y029510D02*
X030226Y029510D01*
X030226Y029607D02*
X030502Y029607D01*
X030502Y029704D02*
X030210Y029704D01*
X030236Y029801D02*
X030502Y029801D01*
X030502Y029898D02*
X030236Y029898D01*
X030236Y029995D02*
X030502Y029995D01*
X030502Y030091D02*
X030236Y030091D01*
X030226Y030188D02*
X030502Y030188D01*
X030502Y030285D02*
X030226Y030285D01*
X030143Y030382D02*
X030502Y030382D01*
X030502Y030479D02*
X030112Y030479D01*
X030147Y030576D02*
X030502Y030576D01*
X030502Y030673D02*
X030146Y030673D01*
X029882Y030618D02*
X029882Y030421D01*
X030069Y030234D01*
X030069Y029948D01*
X029813Y029948D02*
X029813Y030214D01*
X029409Y030618D01*
X024724Y030618D01*
X023740Y029633D01*
X022598Y029633D01*
X022598Y029200D02*
X023622Y029200D01*
X024842Y030421D01*
X029330Y030421D01*
X029557Y030194D01*
X029557Y029948D01*
X029580Y029704D02*
X029671Y029704D01*
X029645Y029607D02*
X029596Y029607D01*
X029596Y029510D02*
X029645Y029510D01*
X029703Y029413D02*
X029509Y029413D01*
X029350Y029574D02*
X029370Y029594D01*
X029350Y029574D02*
X029055Y029574D01*
X029177Y029742D02*
X028892Y029742D01*
X028828Y029678D01*
X028828Y029472D01*
X028757Y029401D01*
X028702Y029456D01*
X028305Y029456D01*
X028248Y029399D01*
X028248Y029358D01*
X028228Y029358D01*
X028228Y029707D01*
X028258Y029737D01*
X028258Y029924D01*
X028228Y029954D01*
X028228Y029958D01*
X028258Y029958D01*
X028258Y029805D01*
X028298Y029764D01*
X028248Y029714D01*
X028248Y029632D01*
X028305Y029574D01*
X028702Y029574D01*
X028760Y029632D01*
X028760Y029714D01*
X028709Y029764D01*
X028750Y029805D01*
X028750Y030011D01*
X028766Y030027D01*
X029134Y030027D01*
X029134Y029785D01*
X029177Y029742D01*
X029134Y029801D02*
X028745Y029801D01*
X028750Y029898D02*
X029134Y029898D01*
X029134Y029995D02*
X028750Y029995D01*
X028700Y030185D02*
X029252Y030185D01*
X029301Y030135D01*
X029301Y029948D01*
X028854Y029704D02*
X028760Y029704D01*
X028734Y029607D02*
X028828Y029607D01*
X028828Y029510D02*
X028228Y029510D01*
X028228Y029607D02*
X028273Y029607D01*
X028248Y029704D02*
X028228Y029704D01*
X028258Y029801D02*
X028262Y029801D01*
X028258Y029898D02*
X028258Y029898D01*
X028031Y029830D02*
X027637Y030224D01*
X024960Y030224D01*
X023071Y028334D01*
X022598Y028334D01*
X022598Y027468D02*
X022874Y027468D01*
X025433Y030027D01*
X027480Y030027D01*
X027874Y029633D01*
X027874Y029437D01*
X028110Y029200D01*
X028779Y029200D01*
X028897Y029319D01*
X029055Y029319D01*
X029281Y029316D02*
X030088Y029316D01*
X030088Y029219D02*
X029281Y029219D01*
X029055Y029063D02*
X028917Y029063D01*
X028897Y029043D01*
X028582Y029043D01*
X028425Y028885D01*
X028622Y028610D02*
X027834Y028610D01*
X027559Y028885D01*
X027547Y028874D01*
X027494Y028874D01*
X026994Y028874D02*
X026980Y028874D01*
X026968Y028885D01*
X026574Y028885D01*
X026378Y028689D01*
X026378Y028374D01*
X026496Y027901D02*
X026378Y027783D01*
X026496Y027901D02*
X027008Y027901D01*
X026994Y027887D01*
X026994Y027874D01*
X027494Y028374D02*
X027637Y028374D01*
X028071Y027941D01*
X028228Y027765D02*
X028248Y027765D01*
X028228Y027668D02*
X028282Y027668D01*
X028228Y027571D02*
X029074Y027571D01*
X029173Y027350D02*
X028937Y027114D01*
X028937Y027035D01*
X028711Y027184D02*
X028636Y027184D01*
X028258Y027378D02*
X028228Y027378D01*
X028228Y027474D02*
X028253Y027474D01*
X027494Y028374D02*
X027494Y028387D01*
X028622Y028610D02*
X028681Y028551D01*
X029055Y028551D01*
X029055Y028807D02*
X028819Y028807D01*
X028769Y029413D02*
X028745Y029413D01*
X028262Y029413D02*
X028228Y029413D01*
X028504Y029988D02*
X028307Y030185D01*
X028228Y030185D01*
X028504Y029988D02*
X028700Y030185D01*
X029813Y029574D02*
X029980Y029574D01*
X030000Y029594D01*
X029813Y027665D02*
X029813Y027439D01*
X029409Y027035D01*
X029252Y024279D02*
X028700Y024279D01*
X028504Y024082D01*
X028307Y024279D01*
X028228Y024279D01*
X028750Y024082D02*
X029134Y024082D01*
X029134Y023985D02*
X028750Y023985D01*
X028738Y023888D02*
X029134Y023888D01*
X029301Y024043D02*
X029301Y024230D01*
X029252Y024279D01*
X029370Y023689D02*
X029350Y023669D01*
X029055Y023669D01*
X028828Y023694D02*
X028727Y023694D01*
X028760Y023791D02*
X028847Y023791D01*
X030448Y021966D02*
X030478Y021966D01*
X030502Y021990D01*
X030502Y020944D01*
X030072Y020944D01*
X030107Y020979D01*
X030147Y021077D01*
X030147Y021182D01*
X030107Y021280D01*
X030082Y021305D01*
X030134Y021356D01*
X030226Y021448D01*
X030226Y021533D01*
X030428Y021533D01*
X030492Y021596D01*
X030492Y021922D01*
X030448Y021966D01*
X030464Y021950D02*
X030502Y021950D01*
X030492Y021853D02*
X030502Y021853D01*
X030492Y021756D02*
X030502Y021756D01*
X030492Y021659D02*
X030502Y021659D01*
X030502Y021562D02*
X030457Y021562D01*
X030502Y021465D02*
X030226Y021465D01*
X030146Y021368D02*
X030502Y021368D01*
X030502Y021271D02*
X030110Y021271D01*
X030147Y021174D02*
X030502Y021174D01*
X030502Y021077D02*
X030147Y021077D01*
X030107Y020980D02*
X030502Y020980D01*
X029882Y021130D02*
X029882Y021326D01*
X030069Y021513D01*
X030069Y021759D01*
X029813Y021759D02*
X029813Y021533D01*
X029409Y021130D01*
X017903Y021174D02*
X017549Y021174D01*
X017549Y021182D02*
X017508Y021280D01*
X017484Y021305D01*
X017535Y021356D01*
X017628Y021448D01*
X017628Y021533D01*
X017830Y021533D01*
X017893Y021596D01*
X017893Y021922D01*
X017850Y021966D01*
X017879Y021966D01*
X017903Y021990D01*
X017903Y020944D01*
X017473Y020944D01*
X017508Y020979D01*
X017549Y021077D01*
X017549Y021182D01*
X017512Y021271D02*
X017903Y021271D01*
X017903Y021368D02*
X017548Y021368D01*
X017628Y021465D02*
X017903Y021465D01*
X017903Y021562D02*
X017859Y021562D01*
X017893Y021659D02*
X017903Y021659D01*
X017893Y021756D02*
X017903Y021756D01*
X017893Y021853D02*
X017903Y021853D01*
X017903Y021950D02*
X017866Y021950D01*
X017470Y021759D02*
X017470Y021513D01*
X017283Y021326D01*
X017283Y021130D01*
X017509Y020980D02*
X017903Y020980D01*
X017903Y021077D02*
X017549Y021077D01*
X017214Y021533D02*
X016811Y021130D01*
X016574Y021444D02*
X016338Y021208D01*
X016338Y021130D01*
X015691Y021756D02*
X015630Y021756D01*
X015630Y021853D02*
X015649Y021853D01*
X015472Y022035D02*
X015039Y022468D01*
X014895Y022468D01*
X014895Y022482D01*
X015236Y022704D02*
X016023Y022704D01*
X016082Y022645D01*
X016456Y022645D01*
X016456Y022901D02*
X016220Y022901D01*
X016299Y023137D02*
X015984Y023137D01*
X015826Y022980D01*
X016299Y023137D02*
X016319Y023157D01*
X016456Y023157D01*
X016159Y023496D02*
X016103Y023551D01*
X015707Y023551D01*
X015649Y023493D01*
X015649Y023452D01*
X015630Y023452D01*
X015630Y023802D01*
X015659Y023831D01*
X015659Y024019D01*
X015630Y024048D01*
X015630Y024053D01*
X015659Y024053D01*
X015659Y023900D01*
X015700Y023859D01*
X015649Y023808D01*
X015649Y023727D01*
X015707Y023669D01*
X016103Y023669D01*
X016161Y023727D01*
X016161Y023808D01*
X016110Y023859D01*
X016151Y023900D01*
X016151Y024106D01*
X016167Y024122D01*
X016535Y024122D01*
X016535Y023880D01*
X016579Y023836D01*
X016293Y023836D01*
X016230Y023773D01*
X016230Y023567D01*
X016159Y023496D01*
X016154Y023501D02*
X016164Y023501D01*
X016230Y023597D02*
X015630Y023597D01*
X015630Y023501D02*
X015657Y023501D01*
X015630Y023694D02*
X015681Y023694D01*
X015649Y023791D02*
X015630Y023791D01*
X015659Y023888D02*
X015671Y023888D01*
X015659Y023985D02*
X015659Y023985D01*
X015433Y023925D02*
X015039Y024319D01*
X012362Y024319D01*
X013779Y022783D02*
X013976Y022980D01*
X014370Y022980D01*
X014382Y022968D01*
X014395Y022968D01*
X014895Y022968D02*
X014948Y022968D01*
X014960Y022980D01*
X015236Y022704D01*
X014409Y021996D02*
X013897Y021996D01*
X013779Y021878D01*
X013779Y022468D02*
X013779Y022783D01*
X014409Y021996D02*
X014395Y021982D01*
X014395Y021968D01*
X016129Y023694D02*
X016230Y023694D01*
X016249Y023791D02*
X016161Y023791D01*
X016140Y023888D02*
X016535Y023888D01*
X016535Y023985D02*
X016151Y023985D01*
X016151Y024082D02*
X016535Y024082D01*
X016702Y024043D02*
X016702Y024230D01*
X016653Y024279D01*
X016102Y024279D01*
X015905Y024082D01*
X015708Y024279D01*
X015630Y024279D01*
X016456Y023669D02*
X016752Y023669D01*
X016771Y023689D01*
X017214Y021759D02*
X017214Y021533D01*
X014895Y028374D02*
X014895Y028387D01*
D22*
X015590Y027586D02*
X015708Y027586D01*
X015708Y029515D02*
X015590Y029515D01*
X015590Y023610D02*
X015708Y023610D01*
X015708Y021681D02*
X015590Y021681D01*
X015590Y017704D02*
X015708Y017704D01*
X015708Y015775D02*
X015590Y015775D01*
X015590Y011799D02*
X015708Y011799D01*
X015708Y009870D02*
X015590Y009870D01*
X028189Y009870D02*
X028307Y009870D01*
X028307Y011799D02*
X028189Y011799D01*
X028189Y015775D02*
X028307Y015775D01*
X028307Y017704D02*
X028189Y017704D01*
X028189Y021681D02*
X028307Y021681D01*
X028307Y023610D02*
X028189Y023610D01*
X028189Y027586D02*
X028307Y027586D01*
X028307Y029515D02*
X028189Y029515D01*
M02*
