G75*
%MOIN*%
%OFA0B0*%
%FSLAX24Y24*%
%IPPOS*%
%LPD*%
%AMOC8*
5,1,8,0,0,1.08239X$1,22.5*
%
%ADD10C,0.0080*%
%ADD11R,0.1142X0.0315*%
%ADD12R,0.1260X0.0315*%
%ADD13C,0.0315*%
%ADD14C,0.0236*%
%ADD15C,0.0472*%
%ADD16C,0.0315*%
%ADD17C,0.0098*%
%ADD18C,0.0157*%
D10*
X010652Y009181D02*
X010809Y009181D01*
X010862Y009234D01*
X010862Y009338D01*
X010809Y009391D01*
X010652Y009391D01*
X010652Y009495D02*
X010652Y009181D01*
X011015Y009286D02*
X011224Y009286D01*
X011224Y009338D02*
X011172Y009391D01*
X011067Y009391D01*
X011015Y009338D01*
X011015Y009286D01*
X011067Y009181D02*
X011172Y009181D01*
X011224Y009234D01*
X011224Y009338D01*
X011377Y009391D02*
X011534Y009391D01*
X011587Y009338D01*
X011534Y009286D01*
X011430Y009286D01*
X011377Y009234D01*
X011430Y009181D01*
X011587Y009181D01*
X011740Y009181D02*
X011740Y009338D01*
X011792Y009391D01*
X011949Y009391D01*
X011949Y009181D01*
X012102Y009286D02*
X012312Y009286D01*
X012312Y009338D02*
X012259Y009391D01*
X012155Y009391D01*
X012102Y009338D01*
X012102Y009286D01*
X012155Y009181D02*
X012259Y009181D01*
X012312Y009234D01*
X012312Y009338D01*
X012465Y009391D02*
X012622Y009391D01*
X012674Y009338D01*
X012674Y009234D01*
X012622Y009181D01*
X012465Y009181D01*
X012811Y009181D02*
X012916Y009181D01*
X012864Y009181D02*
X012864Y009391D01*
X012916Y009391D01*
X012864Y009495D02*
X012864Y009548D01*
X012819Y009772D02*
X012767Y009824D01*
X012819Y009772D02*
X012924Y009772D01*
X012976Y009824D01*
X012976Y010034D01*
X012924Y010086D01*
X012819Y010086D01*
X012767Y010034D01*
X012614Y009929D02*
X012405Y009929D01*
X012251Y009929D02*
X012094Y009929D01*
X012042Y009877D01*
X012042Y009824D01*
X012094Y009772D01*
X012251Y009772D01*
X012251Y010086D01*
X012094Y010086D01*
X012042Y010034D01*
X012042Y009981D01*
X012094Y009929D01*
X011889Y010034D02*
X011784Y009929D01*
X011784Y009772D01*
X011784Y009929D02*
X011679Y010034D01*
X011679Y010086D01*
X011889Y010086D02*
X011889Y010034D01*
X011526Y009929D02*
X011317Y009929D01*
X011164Y009981D02*
X011111Y009929D01*
X011007Y009929D01*
X010954Y009877D01*
X010954Y009824D01*
X011007Y009772D01*
X011111Y009772D01*
X011164Y009824D01*
X011164Y009981D02*
X011164Y010034D01*
X011111Y010086D01*
X011007Y010086D01*
X010954Y010034D01*
X010801Y009981D02*
X010697Y010086D01*
X010592Y009981D01*
X010592Y009772D01*
X010592Y009929D02*
X010801Y009929D01*
X010801Y009981D02*
X010801Y009772D01*
X010645Y011590D02*
X010436Y011590D01*
X010782Y011642D02*
X010887Y011642D01*
X010834Y011642D02*
X010834Y011956D01*
X010782Y011956D02*
X010887Y011956D01*
X011040Y011956D02*
X011249Y011747D01*
X011197Y011799D02*
X011040Y011642D01*
X011249Y011642D02*
X011249Y011956D01*
X011402Y011956D02*
X011402Y011694D01*
X011455Y011642D01*
X011559Y011642D01*
X011612Y011694D01*
X011612Y011956D01*
X011765Y011956D02*
X011765Y011904D01*
X011974Y011694D01*
X011974Y011642D01*
X011765Y011642D01*
X011765Y011956D02*
X011974Y011956D01*
X012180Y011956D02*
X012337Y011799D01*
X012127Y011799D01*
X012180Y011642D02*
X012180Y011956D01*
X012490Y011956D02*
X012699Y011747D01*
X012647Y011799D02*
X012490Y011642D01*
X012699Y011642D02*
X012699Y011956D01*
X012852Y011590D02*
X013062Y011590D01*
X013215Y011694D02*
X013267Y011642D01*
X013372Y011642D01*
X013424Y011694D01*
X013424Y011904D01*
X013372Y011956D01*
X013267Y011956D01*
X013215Y011904D01*
X013215Y011799D01*
X013267Y011747D01*
X013267Y011851D01*
X013372Y011851D01*
X013372Y011747D01*
X013267Y011747D01*
X013287Y010086D02*
X013339Y010034D01*
X013339Y009824D01*
X013287Y009772D01*
X013182Y009772D01*
X013130Y009824D01*
X013130Y010034D02*
X013182Y010086D01*
X013287Y010086D01*
X013278Y009495D02*
X013278Y009181D01*
X013069Y009181D01*
X013069Y015087D02*
X013278Y015087D01*
X013278Y015401D01*
X013287Y015677D02*
X013182Y015677D01*
X013130Y015730D01*
X012976Y015730D02*
X012924Y015677D01*
X012819Y015677D01*
X012767Y015730D01*
X012614Y015834D02*
X012405Y015834D01*
X012251Y015834D02*
X012094Y015834D01*
X012042Y015782D01*
X012042Y015730D01*
X012094Y015677D01*
X012251Y015677D01*
X012251Y015991D01*
X012094Y015991D01*
X012042Y015939D01*
X012042Y015887D01*
X012094Y015834D01*
X011889Y015939D02*
X011784Y015834D01*
X011784Y015677D01*
X011784Y015834D02*
X011679Y015939D01*
X011679Y015991D01*
X011889Y015991D02*
X011889Y015939D01*
X011526Y015834D02*
X011317Y015834D01*
X011164Y015887D02*
X011111Y015834D01*
X011007Y015834D01*
X010954Y015782D01*
X010954Y015730D01*
X011007Y015677D01*
X011111Y015677D01*
X011164Y015730D01*
X011164Y015887D02*
X011164Y015939D01*
X011111Y015991D01*
X011007Y015991D01*
X010954Y015939D01*
X010801Y015887D02*
X010697Y015991D01*
X010592Y015887D01*
X010592Y015677D01*
X010592Y015834D02*
X010801Y015834D01*
X010801Y015887D02*
X010801Y015677D01*
X010652Y015401D02*
X010652Y015087D01*
X010809Y015087D01*
X010862Y015139D01*
X010862Y015244D01*
X010809Y015296D01*
X010652Y015296D01*
X011015Y015244D02*
X011015Y015192D01*
X011224Y015192D01*
X011224Y015244D02*
X011172Y015296D01*
X011067Y015296D01*
X011015Y015244D01*
X011067Y015087D02*
X011172Y015087D01*
X011224Y015139D01*
X011224Y015244D01*
X011377Y015296D02*
X011534Y015296D01*
X011587Y015244D01*
X011534Y015192D01*
X011430Y015192D01*
X011377Y015139D01*
X011430Y015087D01*
X011587Y015087D01*
X011740Y015087D02*
X011740Y015244D01*
X011792Y015296D01*
X011949Y015296D01*
X011949Y015087D01*
X012102Y015192D02*
X012312Y015192D01*
X012312Y015244D02*
X012259Y015296D01*
X012155Y015296D01*
X012102Y015244D01*
X012102Y015192D01*
X012155Y015087D02*
X012259Y015087D01*
X012312Y015139D01*
X012312Y015244D01*
X012465Y015296D02*
X012622Y015296D01*
X012674Y015244D01*
X012674Y015139D01*
X012622Y015087D01*
X012465Y015087D01*
X012811Y015087D02*
X012916Y015087D01*
X012864Y015087D02*
X012864Y015296D01*
X012916Y015296D01*
X012864Y015401D02*
X012864Y015453D01*
X012976Y015730D02*
X012976Y015939D01*
X012924Y015991D01*
X012819Y015991D01*
X012767Y015939D01*
X013130Y015939D02*
X013182Y015991D01*
X013287Y015991D01*
X013339Y015939D01*
X013339Y015730D01*
X013287Y015677D01*
X013062Y017495D02*
X012852Y017495D01*
X012699Y017547D02*
X012699Y017861D01*
X012647Y017704D02*
X012490Y017547D01*
X012337Y017704D02*
X012127Y017704D01*
X012180Y017547D02*
X012180Y017861D01*
X012337Y017704D01*
X012490Y017861D02*
X012699Y017652D01*
X013215Y017600D02*
X013267Y017547D01*
X013372Y017547D01*
X013424Y017600D01*
X013424Y017809D01*
X013372Y017861D01*
X013267Y017861D01*
X013215Y017809D01*
X013215Y017704D01*
X013267Y017652D01*
X013267Y017757D01*
X013372Y017757D01*
X013372Y017652D01*
X013267Y017652D01*
X011974Y017600D02*
X011974Y017547D01*
X011765Y017547D01*
X011612Y017600D02*
X011559Y017547D01*
X011455Y017547D01*
X011402Y017600D01*
X011402Y017861D01*
X011249Y017861D02*
X011249Y017547D01*
X011249Y017652D02*
X011040Y017861D01*
X010887Y017861D02*
X010782Y017861D01*
X010834Y017861D02*
X010834Y017547D01*
X010782Y017547D02*
X010887Y017547D01*
X011040Y017547D02*
X011197Y017704D01*
X011612Y017600D02*
X011612Y017861D01*
X011765Y017861D02*
X011765Y017809D01*
X011974Y017600D01*
X011974Y017861D02*
X011765Y017861D01*
X010645Y017495D02*
X010436Y017495D01*
X010652Y020992D02*
X010809Y020992D01*
X010862Y021045D01*
X010862Y021149D01*
X010809Y021202D01*
X010652Y021202D01*
X010652Y021306D02*
X010652Y020992D01*
X011015Y021097D02*
X011015Y021149D01*
X011067Y021202D01*
X011172Y021202D01*
X011224Y021149D01*
X011224Y021045D01*
X011172Y020992D01*
X011067Y020992D01*
X011015Y021097D02*
X011224Y021097D01*
X011377Y021045D02*
X011430Y021097D01*
X011534Y021097D01*
X011587Y021149D01*
X011534Y021202D01*
X011377Y021202D01*
X011377Y021045D02*
X011430Y020992D01*
X011587Y020992D01*
X011740Y020992D02*
X011740Y021149D01*
X011792Y021202D01*
X011949Y021202D01*
X011949Y020992D01*
X012102Y021097D02*
X012312Y021097D01*
X012312Y021045D02*
X012312Y021149D01*
X012259Y021202D01*
X012155Y021202D01*
X012102Y021149D01*
X012102Y021097D01*
X012155Y020992D02*
X012259Y020992D01*
X012312Y021045D01*
X012465Y020992D02*
X012622Y020992D01*
X012674Y021045D01*
X012674Y021149D01*
X012622Y021202D01*
X012465Y021202D01*
X012864Y021202D02*
X012864Y020992D01*
X012916Y020992D02*
X012811Y020992D01*
X012864Y021202D02*
X012916Y021202D01*
X012864Y021306D02*
X012864Y021359D01*
X012819Y021583D02*
X012767Y021635D01*
X012819Y021583D02*
X012924Y021583D01*
X012976Y021635D01*
X012976Y021845D01*
X012924Y021897D01*
X012819Y021897D01*
X012767Y021845D01*
X012614Y021740D02*
X012405Y021740D01*
X012251Y021740D02*
X012094Y021740D01*
X012042Y021688D01*
X012042Y021635D01*
X012094Y021583D01*
X012251Y021583D01*
X012251Y021897D01*
X012094Y021897D01*
X012042Y021845D01*
X012042Y021792D01*
X012094Y021740D01*
X011889Y021845D02*
X011784Y021740D01*
X011784Y021583D01*
X011784Y021740D02*
X011679Y021845D01*
X011679Y021897D01*
X011889Y021897D02*
X011889Y021845D01*
X011526Y021740D02*
X011317Y021740D01*
X011164Y021792D02*
X011111Y021740D01*
X011007Y021740D01*
X010954Y021688D01*
X010954Y021635D01*
X011007Y021583D01*
X011111Y021583D01*
X011164Y021635D01*
X011164Y021792D02*
X011164Y021845D01*
X011111Y021897D01*
X011007Y021897D01*
X010954Y021845D01*
X010801Y021792D02*
X010697Y021897D01*
X010592Y021792D01*
X010592Y021583D01*
X010592Y021740D02*
X010801Y021740D01*
X010801Y021792D02*
X010801Y021583D01*
X010645Y023401D02*
X010436Y023401D01*
X010782Y023453D02*
X010887Y023453D01*
X010834Y023453D02*
X010834Y023767D01*
X010782Y023767D02*
X010887Y023767D01*
X011040Y023767D02*
X011249Y023558D01*
X011197Y023610D02*
X011040Y023453D01*
X011249Y023453D02*
X011249Y023767D01*
X011402Y023767D02*
X011402Y023505D01*
X011455Y023453D01*
X011559Y023453D01*
X011612Y023505D01*
X011612Y023767D01*
X011765Y023767D02*
X011765Y023715D01*
X011974Y023505D01*
X011974Y023453D01*
X011765Y023453D01*
X011765Y023767D02*
X011974Y023767D01*
X012180Y023767D02*
X012337Y023610D01*
X012127Y023610D01*
X012180Y023453D02*
X012180Y023767D01*
X012490Y023767D02*
X012699Y023558D01*
X012647Y023610D02*
X012490Y023453D01*
X012699Y023453D02*
X012699Y023767D01*
X012852Y023401D02*
X013062Y023401D01*
X013215Y023505D02*
X013267Y023453D01*
X013372Y023453D01*
X013424Y023505D01*
X013424Y023715D01*
X013372Y023767D01*
X013267Y023767D01*
X013215Y023715D01*
X013215Y023610D01*
X013267Y023558D01*
X013267Y023662D01*
X013372Y023662D01*
X013372Y023558D01*
X013267Y023558D01*
X013287Y021897D02*
X013339Y021845D01*
X013339Y021635D01*
X013287Y021583D01*
X013182Y021583D01*
X013130Y021635D01*
X013130Y021845D02*
X013182Y021897D01*
X013287Y021897D01*
X013278Y021306D02*
X013278Y020992D01*
X013069Y020992D01*
X013069Y026898D02*
X013278Y026898D01*
X013278Y027212D01*
X013287Y027488D02*
X013182Y027488D01*
X013130Y027541D01*
X012976Y027541D02*
X012924Y027488D01*
X012819Y027488D01*
X012767Y027541D01*
X012614Y027645D02*
X012405Y027645D01*
X012251Y027645D02*
X012094Y027645D01*
X012042Y027593D01*
X012042Y027541D01*
X012094Y027488D01*
X012251Y027488D01*
X012251Y027802D01*
X012094Y027802D01*
X012042Y027750D01*
X012042Y027698D01*
X012094Y027645D01*
X011889Y027750D02*
X011784Y027645D01*
X011784Y027488D01*
X011784Y027645D02*
X011679Y027750D01*
X011679Y027802D01*
X011889Y027802D02*
X011889Y027750D01*
X011526Y027645D02*
X011317Y027645D01*
X011164Y027698D02*
X011111Y027645D01*
X011007Y027645D01*
X010954Y027593D01*
X010954Y027541D01*
X011007Y027488D01*
X011111Y027488D01*
X011164Y027541D01*
X011164Y027698D02*
X011164Y027750D01*
X011111Y027802D01*
X011007Y027802D01*
X010954Y027750D01*
X010801Y027698D02*
X010697Y027802D01*
X010592Y027698D01*
X010592Y027488D01*
X010592Y027645D02*
X010801Y027645D01*
X010801Y027698D02*
X010801Y027488D01*
X010652Y027212D02*
X010652Y026898D01*
X010809Y026898D01*
X010862Y026950D01*
X010862Y027055D01*
X010809Y027107D01*
X010652Y027107D01*
X011015Y027055D02*
X011015Y027003D01*
X011224Y027003D01*
X011224Y027055D02*
X011172Y027107D01*
X011067Y027107D01*
X011015Y027055D01*
X011067Y026898D02*
X011172Y026898D01*
X011224Y026950D01*
X011224Y027055D01*
X011377Y027107D02*
X011534Y027107D01*
X011587Y027055D01*
X011534Y027003D01*
X011430Y027003D01*
X011377Y026950D01*
X011430Y026898D01*
X011587Y026898D01*
X011740Y026898D02*
X011740Y027055D01*
X011792Y027107D01*
X011949Y027107D01*
X011949Y026898D01*
X012102Y027003D02*
X012312Y027003D01*
X012312Y027055D02*
X012259Y027107D01*
X012155Y027107D01*
X012102Y027055D01*
X012102Y027003D01*
X012155Y026898D02*
X012259Y026898D01*
X012312Y026950D01*
X012312Y027055D01*
X012465Y027107D02*
X012622Y027107D01*
X012674Y027055D01*
X012674Y026950D01*
X012622Y026898D01*
X012465Y026898D01*
X012811Y026898D02*
X012916Y026898D01*
X012864Y026898D02*
X012864Y027107D01*
X012916Y027107D01*
X012864Y027212D02*
X012864Y027264D01*
X012976Y027541D02*
X012976Y027750D01*
X012924Y027802D01*
X012819Y027802D01*
X012767Y027750D01*
X013130Y027750D02*
X013182Y027802D01*
X013287Y027802D01*
X013339Y027750D01*
X013339Y027541D01*
X013287Y027488D01*
X013062Y029306D02*
X012852Y029306D01*
X012699Y029359D02*
X012699Y029672D01*
X012647Y029515D02*
X012490Y029359D01*
X012337Y029515D02*
X012127Y029515D01*
X012180Y029359D02*
X012180Y029672D01*
X012337Y029515D01*
X012490Y029672D02*
X012699Y029463D01*
X013215Y029411D02*
X013267Y029359D01*
X013372Y029359D01*
X013424Y029411D01*
X013424Y029620D01*
X013372Y029672D01*
X013267Y029672D01*
X013215Y029620D01*
X013215Y029515D01*
X013267Y029463D01*
X013267Y029568D01*
X013372Y029568D01*
X013372Y029463D01*
X013267Y029463D01*
X011974Y029411D02*
X011974Y029359D01*
X011765Y029359D01*
X011612Y029411D02*
X011559Y029359D01*
X011455Y029359D01*
X011402Y029411D01*
X011402Y029672D01*
X011249Y029672D02*
X011249Y029359D01*
X011249Y029463D02*
X011040Y029672D01*
X010887Y029672D02*
X010782Y029672D01*
X010834Y029672D02*
X010834Y029359D01*
X010782Y029359D02*
X010887Y029359D01*
X011040Y029359D02*
X011197Y029515D01*
X011612Y029411D02*
X011612Y029672D01*
X011765Y029672D02*
X011765Y029620D01*
X011974Y029411D01*
X011974Y029672D02*
X011765Y029672D01*
X010645Y029306D02*
X010436Y029306D01*
X023034Y029306D02*
X023243Y029306D01*
X023380Y029359D02*
X023485Y029359D01*
X023433Y029359D02*
X023433Y029672D01*
X023485Y029672D02*
X023380Y029672D01*
X023638Y029672D02*
X023848Y029463D01*
X023795Y029515D02*
X023638Y029359D01*
X023848Y029359D02*
X023848Y029672D01*
X024001Y029672D02*
X024001Y029411D01*
X024053Y029359D01*
X024158Y029359D01*
X024210Y029411D01*
X024210Y029672D01*
X024363Y029672D02*
X024363Y029620D01*
X024573Y029411D01*
X024573Y029359D01*
X024363Y029359D01*
X024363Y029672D02*
X024573Y029672D01*
X024778Y029672D02*
X024935Y029515D01*
X024726Y029515D01*
X024778Y029359D02*
X024778Y029672D01*
X025088Y029672D02*
X025298Y029463D01*
X025245Y029515D02*
X025088Y029359D01*
X025298Y029359D02*
X025298Y029672D01*
X025451Y029306D02*
X025660Y029306D01*
X025813Y029411D02*
X025866Y029359D01*
X025970Y029359D01*
X026023Y029411D01*
X026023Y029620D01*
X025970Y029672D01*
X025866Y029672D01*
X025813Y029620D01*
X025813Y029515D01*
X025866Y029463D01*
X025866Y029568D01*
X025970Y029568D01*
X025970Y029463D01*
X025866Y029463D01*
X025885Y027802D02*
X025937Y027750D01*
X025937Y027541D01*
X025885Y027488D01*
X025780Y027488D01*
X025728Y027541D01*
X025575Y027541D02*
X025522Y027488D01*
X025418Y027488D01*
X025365Y027541D01*
X025212Y027645D02*
X025003Y027645D01*
X024850Y027645D02*
X024693Y027645D01*
X024640Y027593D01*
X024640Y027541D01*
X024693Y027488D01*
X024850Y027488D01*
X024850Y027802D01*
X024693Y027802D01*
X024640Y027750D01*
X024640Y027698D01*
X024693Y027645D01*
X024487Y027750D02*
X024383Y027645D01*
X024383Y027488D01*
X024383Y027645D02*
X024278Y027750D01*
X024278Y027802D01*
X024487Y027802D02*
X024487Y027750D01*
X024125Y027645D02*
X023915Y027645D01*
X023762Y027698D02*
X023710Y027645D01*
X023605Y027645D01*
X023553Y027593D01*
X023553Y027541D01*
X023605Y027488D01*
X023710Y027488D01*
X023762Y027541D01*
X023762Y027698D02*
X023762Y027750D01*
X023710Y027802D01*
X023605Y027802D01*
X023553Y027750D01*
X023400Y027698D02*
X023295Y027802D01*
X023190Y027698D01*
X023190Y027488D01*
X023190Y027645D02*
X023400Y027645D01*
X023400Y027698D02*
X023400Y027488D01*
X023251Y027212D02*
X023251Y026898D01*
X023408Y026898D01*
X023460Y026950D01*
X023460Y027055D01*
X023408Y027107D01*
X023251Y027107D01*
X023613Y027055D02*
X023613Y027003D01*
X023823Y027003D01*
X023823Y027055D02*
X023770Y027107D01*
X023666Y027107D01*
X023613Y027055D01*
X023666Y026898D02*
X023770Y026898D01*
X023823Y026950D01*
X023823Y027055D01*
X023976Y027107D02*
X024133Y027107D01*
X024185Y027055D01*
X024133Y027003D01*
X024028Y027003D01*
X023976Y026950D01*
X024028Y026898D01*
X024185Y026898D01*
X024338Y026898D02*
X024338Y027055D01*
X024391Y027107D01*
X024548Y027107D01*
X024548Y026898D01*
X024701Y027003D02*
X024910Y027003D01*
X024910Y027055D02*
X024858Y027107D01*
X024753Y027107D01*
X024701Y027055D01*
X024701Y027003D01*
X024753Y026898D02*
X024858Y026898D01*
X024910Y026950D01*
X024910Y027055D01*
X025063Y027107D02*
X025220Y027107D01*
X025273Y027055D01*
X025273Y026950D01*
X025220Y026898D01*
X025063Y026898D01*
X025410Y026898D02*
X025514Y026898D01*
X025462Y026898D02*
X025462Y027107D01*
X025514Y027107D01*
X025462Y027212D02*
X025462Y027264D01*
X025575Y027541D02*
X025575Y027750D01*
X025522Y027802D01*
X025418Y027802D01*
X025365Y027750D01*
X025728Y027750D02*
X025780Y027802D01*
X025885Y027802D01*
X025877Y027212D02*
X025877Y026898D01*
X025668Y026898D01*
X025866Y023767D02*
X025813Y023715D01*
X025813Y023610D01*
X025866Y023558D01*
X025866Y023662D01*
X025970Y023662D01*
X025970Y023558D01*
X025866Y023558D01*
X025813Y023505D02*
X025866Y023453D01*
X025970Y023453D01*
X026023Y023505D01*
X026023Y023715D01*
X025970Y023767D01*
X025866Y023767D01*
X025660Y023401D02*
X025451Y023401D01*
X025298Y023453D02*
X025298Y023767D01*
X025245Y023610D02*
X025088Y023453D01*
X024935Y023610D02*
X024726Y023610D01*
X024778Y023767D02*
X024935Y023610D01*
X025088Y023767D02*
X025298Y023558D01*
X024778Y023453D02*
X024778Y023767D01*
X024573Y023767D02*
X024363Y023767D01*
X024363Y023715D01*
X024573Y023505D01*
X024573Y023453D01*
X024363Y023453D01*
X024210Y023505D02*
X024158Y023453D01*
X024053Y023453D01*
X024001Y023505D01*
X024001Y023767D01*
X023848Y023767D02*
X023848Y023453D01*
X023848Y023558D02*
X023638Y023767D01*
X023485Y023767D02*
X023380Y023767D01*
X023433Y023767D02*
X023433Y023453D01*
X023485Y023453D02*
X023380Y023453D01*
X023243Y023401D02*
X023034Y023401D01*
X023638Y023453D02*
X023795Y023610D01*
X024210Y023505D02*
X024210Y023767D01*
X024278Y021897D02*
X024278Y021845D01*
X024383Y021740D01*
X024383Y021583D01*
X024383Y021740D02*
X024487Y021845D01*
X024487Y021897D01*
X024640Y021845D02*
X024640Y021792D01*
X024693Y021740D01*
X024850Y021740D01*
X025003Y021740D02*
X025212Y021740D01*
X025365Y021845D02*
X025418Y021897D01*
X025522Y021897D01*
X025575Y021845D01*
X025575Y021635D01*
X025522Y021583D01*
X025418Y021583D01*
X025365Y021635D01*
X025462Y021359D02*
X025462Y021306D01*
X025462Y021202D02*
X025462Y020992D01*
X025514Y020992D02*
X025410Y020992D01*
X025273Y021045D02*
X025220Y020992D01*
X025063Y020992D01*
X024910Y021045D02*
X024910Y021149D01*
X024858Y021202D01*
X024753Y021202D01*
X024701Y021149D01*
X024701Y021097D01*
X024910Y021097D01*
X024910Y021045D02*
X024858Y020992D01*
X024753Y020992D01*
X024548Y020992D02*
X024548Y021202D01*
X024391Y021202D01*
X024338Y021149D01*
X024338Y020992D01*
X024185Y020992D02*
X024028Y020992D01*
X023976Y021045D01*
X024028Y021097D01*
X024133Y021097D01*
X024185Y021149D01*
X024133Y021202D01*
X023976Y021202D01*
X023823Y021149D02*
X023770Y021202D01*
X023666Y021202D01*
X023613Y021149D01*
X023613Y021097D01*
X023823Y021097D01*
X023823Y021045D02*
X023823Y021149D01*
X023823Y021045D02*
X023770Y020992D01*
X023666Y020992D01*
X023460Y021045D02*
X023460Y021149D01*
X023408Y021202D01*
X023251Y021202D01*
X023251Y021306D02*
X023251Y020992D01*
X023408Y020992D01*
X023460Y021045D01*
X023400Y021583D02*
X023400Y021792D01*
X023295Y021897D01*
X023190Y021792D01*
X023190Y021583D01*
X023190Y021740D02*
X023400Y021740D01*
X023553Y021688D02*
X023553Y021635D01*
X023605Y021583D01*
X023710Y021583D01*
X023762Y021635D01*
X023710Y021740D02*
X023762Y021792D01*
X023762Y021845D01*
X023710Y021897D01*
X023605Y021897D01*
X023553Y021845D01*
X023605Y021740D02*
X023553Y021688D01*
X023605Y021740D02*
X023710Y021740D01*
X023915Y021740D02*
X024125Y021740D01*
X024640Y021688D02*
X024640Y021635D01*
X024693Y021583D01*
X024850Y021583D01*
X024850Y021897D01*
X024693Y021897D01*
X024640Y021845D01*
X024693Y021740D02*
X024640Y021688D01*
X025063Y021202D02*
X025220Y021202D01*
X025273Y021149D01*
X025273Y021045D01*
X025462Y021202D02*
X025514Y021202D01*
X025668Y020992D02*
X025877Y020992D01*
X025877Y021306D01*
X025885Y021583D02*
X025780Y021583D01*
X025728Y021635D01*
X025885Y021583D02*
X025937Y021635D01*
X025937Y021845D01*
X025885Y021897D01*
X025780Y021897D01*
X025728Y021845D01*
X025866Y017861D02*
X025813Y017809D01*
X025813Y017704D01*
X025866Y017652D01*
X025866Y017757D01*
X025970Y017757D01*
X025970Y017652D01*
X025866Y017652D01*
X025813Y017600D02*
X025866Y017547D01*
X025970Y017547D01*
X026023Y017600D01*
X026023Y017809D01*
X025970Y017861D01*
X025866Y017861D01*
X025660Y017495D02*
X025451Y017495D01*
X025298Y017547D02*
X025298Y017861D01*
X025245Y017704D02*
X025088Y017547D01*
X024935Y017704D02*
X024726Y017704D01*
X024778Y017547D02*
X024778Y017861D01*
X024935Y017704D01*
X025088Y017861D02*
X025298Y017652D01*
X024573Y017600D02*
X024573Y017547D01*
X024363Y017547D01*
X024210Y017600D02*
X024158Y017547D01*
X024053Y017547D01*
X024001Y017600D01*
X024001Y017861D01*
X023848Y017861D02*
X023848Y017547D01*
X023848Y017652D02*
X023638Y017861D01*
X023485Y017861D02*
X023380Y017861D01*
X023433Y017861D02*
X023433Y017547D01*
X023485Y017547D02*
X023380Y017547D01*
X023243Y017495D02*
X023034Y017495D01*
X023638Y017547D02*
X023795Y017704D01*
X024210Y017600D02*
X024210Y017861D01*
X024363Y017861D02*
X024363Y017809D01*
X024573Y017600D01*
X024573Y017861D02*
X024363Y017861D01*
X024278Y015991D02*
X024278Y015939D01*
X024383Y015834D01*
X024383Y015677D01*
X024383Y015834D02*
X024487Y015939D01*
X024487Y015991D01*
X024640Y015939D02*
X024640Y015887D01*
X024693Y015834D01*
X024850Y015834D01*
X025003Y015834D02*
X025212Y015834D01*
X025365Y015730D02*
X025418Y015677D01*
X025522Y015677D01*
X025575Y015730D01*
X025575Y015939D01*
X025522Y015991D01*
X025418Y015991D01*
X025365Y015939D01*
X025728Y015939D02*
X025780Y015991D01*
X025885Y015991D01*
X025937Y015939D01*
X025937Y015730D01*
X025885Y015677D01*
X025780Y015677D01*
X025728Y015730D01*
X025877Y015401D02*
X025877Y015087D01*
X025668Y015087D01*
X025514Y015087D02*
X025410Y015087D01*
X025462Y015087D02*
X025462Y015296D01*
X025514Y015296D01*
X025462Y015401D02*
X025462Y015453D01*
X025273Y015244D02*
X025273Y015139D01*
X025220Y015087D01*
X025063Y015087D01*
X024910Y015139D02*
X024858Y015087D01*
X024753Y015087D01*
X024701Y015192D02*
X024910Y015192D01*
X024910Y015244D02*
X024858Y015296D01*
X024753Y015296D01*
X024701Y015244D01*
X024701Y015192D01*
X024548Y015296D02*
X024391Y015296D01*
X024338Y015244D01*
X024338Y015087D01*
X024185Y015087D02*
X024028Y015087D01*
X023976Y015139D01*
X024028Y015192D01*
X024133Y015192D01*
X024185Y015244D01*
X024133Y015296D01*
X023976Y015296D01*
X023823Y015244D02*
X023770Y015296D01*
X023666Y015296D01*
X023613Y015244D01*
X023613Y015192D01*
X023823Y015192D01*
X023823Y015244D02*
X023823Y015139D01*
X023770Y015087D01*
X023666Y015087D01*
X023460Y015139D02*
X023408Y015087D01*
X023251Y015087D01*
X023251Y015401D01*
X023251Y015296D02*
X023408Y015296D01*
X023460Y015244D01*
X023460Y015139D01*
X023400Y015677D02*
X023400Y015887D01*
X023295Y015991D01*
X023190Y015887D01*
X023190Y015677D01*
X023190Y015834D02*
X023400Y015834D01*
X023553Y015782D02*
X023605Y015834D01*
X023710Y015834D01*
X023762Y015887D01*
X023762Y015939D01*
X023710Y015991D01*
X023605Y015991D01*
X023553Y015939D01*
X023553Y015782D02*
X023553Y015730D01*
X023605Y015677D01*
X023710Y015677D01*
X023762Y015730D01*
X023915Y015834D02*
X024125Y015834D01*
X024640Y015782D02*
X024640Y015730D01*
X024693Y015677D01*
X024850Y015677D01*
X024850Y015991D01*
X024693Y015991D01*
X024640Y015939D01*
X024693Y015834D02*
X024640Y015782D01*
X024548Y015296D02*
X024548Y015087D01*
X024910Y015139D02*
X024910Y015244D01*
X025063Y015296D02*
X025220Y015296D01*
X025273Y015244D01*
X025298Y011956D02*
X025298Y011642D01*
X025298Y011747D02*
X025088Y011956D01*
X024935Y011799D02*
X024726Y011799D01*
X024778Y011956D02*
X024935Y011799D01*
X025088Y011642D02*
X025245Y011799D01*
X025451Y011590D02*
X025660Y011590D01*
X025813Y011694D02*
X025866Y011642D01*
X025970Y011642D01*
X026023Y011694D01*
X026023Y011904D01*
X025970Y011956D01*
X025866Y011956D01*
X025813Y011904D01*
X025813Y011799D01*
X025866Y011747D01*
X025866Y011851D01*
X025970Y011851D01*
X025970Y011747D01*
X025866Y011747D01*
X024778Y011642D02*
X024778Y011956D01*
X024573Y011956D02*
X024363Y011956D01*
X024363Y011904D01*
X024573Y011694D01*
X024573Y011642D01*
X024363Y011642D01*
X024210Y011694D02*
X024158Y011642D01*
X024053Y011642D01*
X024001Y011694D01*
X024001Y011956D01*
X023848Y011956D02*
X023848Y011642D01*
X023848Y011747D02*
X023638Y011956D01*
X023485Y011956D02*
X023380Y011956D01*
X023433Y011956D02*
X023433Y011642D01*
X023485Y011642D02*
X023380Y011642D01*
X023243Y011590D02*
X023034Y011590D01*
X023638Y011642D02*
X023795Y011799D01*
X024210Y011694D02*
X024210Y011956D01*
X024278Y010086D02*
X024278Y010034D01*
X024383Y009929D01*
X024383Y009772D01*
X024383Y009929D02*
X024487Y010034D01*
X024487Y010086D01*
X024640Y010034D02*
X024640Y009981D01*
X024693Y009929D01*
X024850Y009929D01*
X025003Y009929D02*
X025212Y009929D01*
X025365Y010034D02*
X025418Y010086D01*
X025522Y010086D01*
X025575Y010034D01*
X025575Y009824D01*
X025522Y009772D01*
X025418Y009772D01*
X025365Y009824D01*
X025462Y009548D02*
X025462Y009495D01*
X025462Y009391D02*
X025462Y009181D01*
X025514Y009181D02*
X025410Y009181D01*
X025273Y009234D02*
X025220Y009181D01*
X025063Y009181D01*
X024910Y009234D02*
X024910Y009338D01*
X024858Y009391D01*
X024753Y009391D01*
X024701Y009338D01*
X024701Y009286D01*
X024910Y009286D01*
X024910Y009234D02*
X024858Y009181D01*
X024753Y009181D01*
X024548Y009181D02*
X024548Y009391D01*
X024391Y009391D01*
X024338Y009338D01*
X024338Y009181D01*
X024185Y009181D02*
X024028Y009181D01*
X023976Y009234D01*
X024028Y009286D01*
X024133Y009286D01*
X024185Y009338D01*
X024133Y009391D01*
X023976Y009391D01*
X023823Y009338D02*
X023770Y009391D01*
X023666Y009391D01*
X023613Y009338D01*
X023613Y009286D01*
X023823Y009286D01*
X023823Y009234D02*
X023823Y009338D01*
X023823Y009234D02*
X023770Y009181D01*
X023666Y009181D01*
X023460Y009234D02*
X023460Y009338D01*
X023408Y009391D01*
X023251Y009391D01*
X023251Y009495D02*
X023251Y009181D01*
X023408Y009181D01*
X023460Y009234D01*
X023400Y009772D02*
X023400Y009981D01*
X023295Y010086D01*
X023190Y009981D01*
X023190Y009772D01*
X023190Y009929D02*
X023400Y009929D01*
X023553Y009877D02*
X023553Y009824D01*
X023605Y009772D01*
X023710Y009772D01*
X023762Y009824D01*
X023710Y009929D02*
X023605Y009929D01*
X023553Y009877D01*
X023553Y010034D02*
X023605Y010086D01*
X023710Y010086D01*
X023762Y010034D01*
X023762Y009981D01*
X023710Y009929D01*
X023915Y009929D02*
X024125Y009929D01*
X024640Y009877D02*
X024640Y009824D01*
X024693Y009772D01*
X024850Y009772D01*
X024850Y010086D01*
X024693Y010086D01*
X024640Y010034D01*
X024693Y009929D02*
X024640Y009877D01*
X025063Y009391D02*
X025220Y009391D01*
X025273Y009338D01*
X025273Y009234D01*
X025462Y009391D02*
X025514Y009391D01*
X025668Y009181D02*
X025877Y009181D01*
X025877Y009495D01*
X025885Y009772D02*
X025780Y009772D01*
X025728Y009824D01*
X025885Y009772D02*
X025937Y009824D01*
X025937Y010034D01*
X025885Y010086D01*
X025780Y010086D01*
X025728Y010034D01*
D11*
X009153Y009319D03*
X009153Y009752D03*
X009153Y010618D03*
X009153Y011484D03*
X009153Y011917D03*
X009153Y012350D03*
X009153Y015224D03*
X009153Y015657D03*
X009153Y016523D03*
X009153Y017389D03*
X009153Y017822D03*
X009153Y018256D03*
X009153Y021130D03*
X009153Y021563D03*
X009153Y022429D03*
X009153Y023295D03*
X009153Y023728D03*
X009153Y024161D03*
X009153Y027035D03*
X009153Y027468D03*
X009153Y028334D03*
X009153Y029200D03*
X009153Y029633D03*
X009153Y030067D03*
X021752Y030067D03*
X021752Y029633D03*
X021752Y029200D03*
X021752Y028334D03*
X021752Y027468D03*
X021752Y027035D03*
X021752Y024161D03*
X021752Y023728D03*
X021752Y023295D03*
X021752Y022429D03*
X021752Y021563D03*
X021752Y021130D03*
X021752Y018256D03*
X021752Y017822D03*
X021752Y017389D03*
X021752Y016523D03*
X021752Y015657D03*
X021752Y015224D03*
X021752Y012350D03*
X021752Y011917D03*
X021752Y011484D03*
X021752Y010618D03*
X021752Y009752D03*
X021752Y009319D03*
D12*
X021693Y010185D03*
X021693Y011051D03*
X021693Y016090D03*
X021693Y016956D03*
X021693Y021996D03*
X021693Y022862D03*
X021693Y027901D03*
X021693Y028767D03*
X009094Y028767D03*
X009094Y027901D03*
X009094Y022862D03*
X009094Y021996D03*
X009094Y016956D03*
X009094Y016090D03*
X009094Y011051D03*
X009094Y010185D03*
D13*
X017047Y012901D03*
X017047Y018807D03*
X017047Y024712D03*
X017047Y030618D03*
X029645Y030618D03*
X029645Y024712D03*
X029645Y018807D03*
X029645Y012901D03*
D14*
X030236Y012783D03*
X030433Y012941D03*
X030433Y012586D03*
X030433Y012035D03*
X030000Y011878D03*
X030000Y011563D03*
X030000Y011248D03*
X030000Y010933D03*
X030000Y010618D03*
X030000Y010303D03*
X029370Y010303D03*
X029370Y010618D03*
X029370Y010933D03*
X029370Y011248D03*
X029370Y011563D03*
X029370Y011878D03*
X028858Y012232D03*
X028228Y012468D03*
X028031Y012114D03*
X028189Y011799D03*
X028819Y011090D03*
X028504Y010657D03*
X028071Y010224D03*
X028189Y009870D03*
X028464Y009319D03*
X028897Y009948D03*
X029173Y009633D03*
X030236Y009397D03*
X030433Y009240D03*
X030433Y009594D03*
X026378Y010067D03*
X026378Y010657D03*
X022598Y010618D03*
X022598Y011484D03*
X022598Y011917D03*
X022598Y009752D03*
X022598Y009319D03*
X017834Y009240D03*
X017637Y009397D03*
X017834Y009594D03*
X017401Y010303D03*
X017401Y010618D03*
X017401Y010933D03*
X017401Y011248D03*
X017401Y011563D03*
X017401Y011878D03*
X017834Y012035D03*
X017834Y012586D03*
X017637Y012783D03*
X017834Y012941D03*
X016771Y011878D03*
X016771Y011563D03*
X016771Y011248D03*
X016771Y010933D03*
X016771Y010618D03*
X016771Y010303D03*
X016299Y009948D03*
X016574Y009633D03*
X015866Y009319D03*
X015590Y009870D03*
X015472Y010224D03*
X015905Y010657D03*
X016220Y011090D03*
X015590Y011799D03*
X015433Y012114D03*
X015630Y012468D03*
X016260Y012232D03*
X013779Y010657D03*
X013779Y010067D03*
X010000Y009752D03*
X010000Y009319D03*
X010000Y010618D03*
X010000Y011484D03*
X010000Y011917D03*
X010000Y015224D03*
X010000Y015657D03*
X010000Y016523D03*
X010000Y017389D03*
X010000Y017822D03*
X010000Y021130D03*
X010000Y021563D03*
X010000Y022429D03*
X010000Y023295D03*
X010000Y023728D03*
X010000Y027035D03*
X010000Y027468D03*
X010000Y028334D03*
X010000Y029200D03*
X010000Y029633D03*
X013779Y028374D03*
X013779Y027783D03*
X015472Y027941D03*
X015590Y027586D03*
X015866Y027035D03*
X016299Y027665D03*
X016574Y027350D03*
X016771Y028019D03*
X016771Y028334D03*
X016771Y028649D03*
X016771Y028964D03*
X016771Y029279D03*
X016771Y029594D03*
X016260Y029948D03*
X015630Y030185D03*
X015433Y029830D03*
X015590Y029515D03*
X016220Y028807D03*
X015905Y028374D03*
X017401Y028334D03*
X017401Y028019D03*
X017401Y028649D03*
X017401Y028964D03*
X017401Y029279D03*
X017401Y029594D03*
X017834Y029752D03*
X017834Y030303D03*
X017637Y030500D03*
X017834Y030657D03*
X017834Y027311D03*
X017637Y027114D03*
X017834Y026956D03*
X017834Y024752D03*
X017637Y024594D03*
X017834Y024397D03*
X017834Y023846D03*
X017401Y023689D03*
X017401Y023374D03*
X017401Y023059D03*
X017401Y022744D03*
X017401Y022429D03*
X017401Y022114D03*
X016771Y022114D03*
X016771Y022429D03*
X016771Y022744D03*
X016771Y023059D03*
X016771Y023374D03*
X016771Y023689D03*
X016260Y024043D03*
X015630Y024279D03*
X015433Y023925D03*
X015590Y023610D03*
X016220Y022901D03*
X015905Y022468D03*
X015472Y022035D03*
X015590Y021681D03*
X015866Y021130D03*
X016299Y021759D03*
X016574Y021444D03*
X017637Y021208D03*
X017834Y021051D03*
X017834Y021405D03*
X017834Y018846D03*
X017637Y018689D03*
X017834Y018492D03*
X017834Y017941D03*
X017401Y017783D03*
X017401Y017468D03*
X017401Y017153D03*
X017401Y016838D03*
X017401Y016523D03*
X017401Y016208D03*
X016771Y016208D03*
X016771Y016523D03*
X016771Y016838D03*
X016771Y017153D03*
X016771Y017468D03*
X016771Y017783D03*
X016260Y018137D03*
X015630Y018374D03*
X015433Y018019D03*
X015590Y017704D03*
X016220Y016996D03*
X015905Y016563D03*
X015472Y016130D03*
X015590Y015775D03*
X015866Y015224D03*
X016299Y015854D03*
X016574Y015539D03*
X017637Y015303D03*
X017834Y015145D03*
X017834Y015500D03*
X013779Y015972D03*
X013779Y016563D03*
X013779Y021878D03*
X013779Y022468D03*
X022598Y022429D03*
X022598Y021563D03*
X022598Y021130D03*
X022598Y023295D03*
X022598Y023728D03*
X022598Y027035D03*
X022598Y027468D03*
X022598Y028334D03*
X022598Y029200D03*
X022598Y029633D03*
X026378Y028374D03*
X026378Y027783D03*
X028071Y027941D03*
X028189Y027586D03*
X028464Y027035D03*
X028897Y027665D03*
X029173Y027350D03*
X029370Y028019D03*
X029370Y028334D03*
X029370Y028649D03*
X029370Y028964D03*
X029370Y029279D03*
X029370Y029594D03*
X028858Y029948D03*
X028228Y030185D03*
X028031Y029830D03*
X028189Y029515D03*
X028819Y028807D03*
X028504Y028374D03*
X030000Y028334D03*
X030000Y028019D03*
X030000Y028649D03*
X030000Y028964D03*
X030000Y029279D03*
X030000Y029594D03*
X030433Y029752D03*
X030433Y030303D03*
X030236Y030500D03*
X030433Y030657D03*
X030433Y027311D03*
X030236Y027114D03*
X030433Y026956D03*
X030433Y024752D03*
X030236Y024594D03*
X030433Y024397D03*
X030433Y023846D03*
X030000Y023689D03*
X030000Y023374D03*
X030000Y023059D03*
X030000Y022744D03*
X030000Y022429D03*
X030000Y022114D03*
X029370Y022114D03*
X029370Y022429D03*
X029370Y022744D03*
X029370Y023059D03*
X029370Y023374D03*
X029370Y023689D03*
X028858Y024043D03*
X028228Y024279D03*
X028031Y023925D03*
X028189Y023610D03*
X028819Y022901D03*
X028504Y022468D03*
X028071Y022035D03*
X028189Y021681D03*
X028464Y021130D03*
X028897Y021759D03*
X029173Y021444D03*
X030236Y021208D03*
X030433Y021051D03*
X030433Y021405D03*
X030433Y018846D03*
X030236Y018689D03*
X030433Y018492D03*
X030433Y017941D03*
X030000Y017783D03*
X030000Y017468D03*
X030000Y017153D03*
X030000Y016838D03*
X030000Y016523D03*
X030000Y016208D03*
X029370Y016208D03*
X029370Y016523D03*
X029370Y016838D03*
X029370Y017153D03*
X029370Y017468D03*
X029370Y017783D03*
X028858Y018137D03*
X028228Y018374D03*
X028031Y018019D03*
X028189Y017704D03*
X028819Y016996D03*
X028504Y016563D03*
X028071Y016130D03*
X028189Y015775D03*
X028464Y015224D03*
X028897Y015854D03*
X029173Y015539D03*
X030236Y015303D03*
X030433Y015145D03*
X030433Y015500D03*
X026378Y015972D03*
X026378Y016563D03*
X022598Y016523D03*
X022598Y015657D03*
X022598Y015224D03*
X022598Y017389D03*
X022598Y017822D03*
X026378Y021878D03*
X026378Y022468D03*
D15*
X028504Y022468D01*
X026378Y022468D02*
X026023Y022862D01*
X022637Y022862D01*
X022637Y021996D02*
X022913Y021996D01*
X022637Y016956D02*
X026023Y016956D01*
X026378Y016563D01*
X028504Y016563D01*
X022913Y016090D02*
X022637Y016090D01*
X022637Y011051D02*
X026023Y011051D01*
X026378Y010657D01*
X028504Y010657D01*
X022913Y010185D02*
X022637Y010185D01*
X015905Y010657D02*
X013779Y010657D01*
X013425Y011051D01*
X010039Y011051D01*
X010039Y010185D02*
X010315Y010185D01*
X010315Y016090D02*
X010039Y016090D01*
X010039Y016956D02*
X013425Y016956D01*
X013779Y016563D01*
X015905Y016563D01*
X015905Y022468D02*
X013779Y022468D01*
X013425Y022862D01*
X010039Y022862D01*
X010039Y021996D02*
X010315Y021996D01*
X010315Y027901D02*
X010039Y027901D01*
X010039Y028767D02*
X013425Y028767D01*
X013779Y028374D01*
X015905Y028374D01*
X022637Y028767D02*
X026023Y028767D01*
X026378Y028374D01*
X028504Y028374D01*
X022913Y027901D02*
X022637Y027901D01*
D16*
X021693Y027901D01*
X021752Y027468D02*
X022323Y027468D01*
X022323Y027035D02*
X021752Y027035D01*
X021752Y028334D02*
X022323Y028334D01*
X022637Y028767D02*
X021693Y028767D01*
X021752Y029200D02*
X022323Y029200D01*
X022323Y029633D02*
X021752Y029633D01*
X021752Y030067D02*
X022323Y030067D01*
X022323Y024161D02*
X021752Y024161D01*
X021752Y023728D02*
X022323Y023728D01*
X022323Y023295D02*
X021752Y023295D01*
X021693Y022862D02*
X022637Y022862D01*
X022323Y022429D02*
X021752Y022429D01*
X021693Y021996D02*
X022637Y021996D01*
X022323Y021563D02*
X021752Y021563D01*
X021752Y021130D02*
X022323Y021130D01*
X022323Y018256D02*
X021752Y018256D01*
X021752Y017822D02*
X022323Y017822D01*
X022323Y017389D02*
X021752Y017389D01*
X021693Y016956D02*
X022637Y016956D01*
X022323Y016523D02*
X021752Y016523D01*
X021693Y016090D02*
X022637Y016090D01*
X022323Y015657D02*
X021752Y015657D01*
X021752Y015224D02*
X022323Y015224D01*
X022323Y012350D02*
X021752Y012350D01*
X021752Y011917D02*
X022323Y011917D01*
X022323Y011484D02*
X021752Y011484D01*
X021693Y011051D02*
X022637Y011051D01*
X022323Y010618D02*
X021752Y010618D01*
X021693Y010185D02*
X022637Y010185D01*
X022323Y009752D02*
X021752Y009752D01*
X021752Y009319D02*
X022323Y009319D01*
X010039Y010185D02*
X009094Y010185D01*
X009153Y009752D02*
X009724Y009752D01*
X009724Y009319D02*
X009153Y009319D01*
X009153Y010618D02*
X009724Y010618D01*
X010039Y011051D02*
X009094Y011051D01*
X009153Y011484D02*
X009724Y011484D01*
X009724Y011917D02*
X009153Y011917D01*
X009153Y012350D02*
X009724Y012350D01*
X009724Y015224D02*
X009153Y015224D01*
X009153Y015657D02*
X009724Y015657D01*
X010039Y016090D02*
X009094Y016090D01*
X009153Y016523D02*
X009724Y016523D01*
X010039Y016956D02*
X009094Y016956D01*
X009153Y017389D02*
X009724Y017389D01*
X009724Y017822D02*
X009153Y017822D01*
X009153Y018256D02*
X009724Y018256D01*
X009724Y021130D02*
X009153Y021130D01*
X009153Y021563D02*
X009724Y021563D01*
X010039Y021996D02*
X009094Y021996D01*
X009153Y022429D02*
X009724Y022429D01*
X010039Y022862D02*
X009094Y022862D01*
X009153Y023295D02*
X009724Y023295D01*
X009724Y023728D02*
X009153Y023728D01*
X009153Y024161D02*
X009724Y024161D01*
X009724Y027035D02*
X009153Y027035D01*
X009153Y027468D02*
X009724Y027468D01*
X010039Y027901D02*
X009094Y027901D01*
X009153Y028334D02*
X009724Y028334D01*
X010039Y028767D02*
X009094Y028767D01*
X009153Y029200D02*
X009724Y029200D01*
X009724Y029633D02*
X009153Y029633D01*
X009153Y030067D02*
X009724Y030067D01*
D17*
X010000Y030067D02*
X014882Y030067D01*
X015000Y030185D01*
X015630Y030185D01*
X015856Y030188D02*
X016978Y030188D01*
X016889Y030277D02*
X017244Y029923D01*
X017244Y029757D01*
X017175Y029688D01*
X017175Y029500D01*
X017307Y029368D01*
X017495Y029368D01*
X017628Y029500D01*
X017628Y029688D01*
X017559Y029757D01*
X017559Y030053D01*
X017466Y030145D01*
X017208Y030403D01*
X017272Y030467D01*
X017313Y030565D01*
X017313Y030671D01*
X017274Y030764D01*
X017903Y030764D01*
X017903Y026849D01*
X016000Y026849D01*
X016028Y026878D01*
X016837Y026878D01*
X017559Y027600D01*
X017559Y027857D01*
X017628Y027926D01*
X017628Y028113D01*
X017495Y028246D01*
X017307Y028246D01*
X017175Y028113D01*
X017175Y027926D01*
X017244Y027857D01*
X017244Y027730D01*
X016801Y027287D01*
X016801Y027354D01*
X016929Y027482D01*
X016929Y027857D01*
X016998Y027926D01*
X016998Y028113D01*
X016865Y028246D01*
X016678Y028246D01*
X016545Y028113D01*
X016545Y027926D01*
X016614Y027857D01*
X016614Y027612D01*
X016578Y027576D01*
X016481Y027576D01*
X016348Y027444D01*
X016348Y027256D01*
X016412Y027193D01*
X016028Y027193D01*
X015960Y027261D01*
X015772Y027261D01*
X015639Y027129D01*
X015639Y026941D01*
X015731Y026849D01*
X014001Y026849D01*
X014000Y026848D01*
X013427Y026848D01*
X013427Y027273D01*
X013354Y027346D01*
X013435Y027427D01*
X013487Y027479D01*
X013487Y027751D01*
X013487Y027811D01*
X013486Y027812D01*
X013435Y027864D01*
X013419Y027880D01*
X013348Y027951D01*
X013243Y027951D01*
X013235Y027951D01*
X013225Y027951D01*
X013225Y027951D01*
X013120Y027951D01*
X013053Y027883D01*
X012985Y027951D01*
X012881Y027951D01*
X012863Y027951D01*
X012863Y027951D01*
X012758Y027951D01*
X012758Y027951D01*
X012689Y027882D01*
X012671Y027864D01*
X012671Y027864D01*
X012619Y027811D01*
X012619Y027794D01*
X012400Y027794D01*
X012400Y027864D01*
X012313Y027951D01*
X012156Y027951D01*
X012094Y027951D01*
X012033Y027951D01*
X012033Y027951D01*
X011992Y027909D01*
X011950Y027951D01*
X011827Y027951D01*
X011784Y027907D01*
X011741Y027951D01*
X011618Y027951D01*
X011531Y027864D01*
X011531Y027794D01*
X011312Y027794D01*
X011312Y027811D01*
X011311Y027812D01*
X011260Y027864D01*
X011243Y027880D01*
X011173Y027951D01*
X011068Y027951D01*
X011060Y027951D01*
X011050Y027951D01*
X011050Y027951D01*
X010945Y027951D01*
X010877Y027882D01*
X010859Y027864D01*
X010859Y027864D01*
X010852Y027857D01*
X010758Y027951D01*
X010635Y027951D01*
X010634Y027949D01*
X010548Y027864D01*
X010548Y027864D01*
X010531Y027846D01*
X010444Y027759D01*
X010444Y027427D01*
X010531Y027340D01*
X010571Y027340D01*
X010504Y027273D01*
X010504Y026848D01*
X010133Y026848D01*
X010226Y026941D01*
X010226Y027129D01*
X010103Y027252D01*
X010226Y027374D01*
X010226Y027562D01*
X010093Y027694D01*
X009970Y027694D01*
X009970Y028108D01*
X010093Y028108D01*
X010226Y028240D01*
X010226Y028423D01*
X013271Y028423D01*
X013484Y028187D01*
X013487Y028178D01*
X013529Y028136D01*
X013569Y028092D01*
X013577Y028088D01*
X013584Y028082D01*
X013639Y028059D01*
X013693Y028033D01*
X013702Y028033D01*
X013711Y028029D01*
X013770Y028029D01*
X013830Y028026D01*
X013838Y028029D01*
X015246Y028029D01*
X015246Y027847D01*
X015378Y027714D01*
X015566Y027714D01*
X015635Y027783D01*
X016049Y027783D01*
X016325Y028059D01*
X016417Y028151D01*
X016417Y028683D01*
X016447Y028713D01*
X016447Y028900D01*
X016314Y029033D01*
X016126Y029033D01*
X015994Y028900D01*
X015994Y028713D01*
X015999Y028708D01*
X015974Y028718D01*
X013933Y028718D01*
X013720Y028954D01*
X013717Y028962D01*
X013675Y029005D01*
X013635Y029049D01*
X013627Y029053D01*
X013620Y029059D01*
X013565Y029082D01*
X013511Y029108D01*
X013502Y029108D01*
X013493Y029112D01*
X013434Y029112D01*
X013375Y029115D01*
X013366Y029112D01*
X010226Y029112D01*
X010226Y029294D01*
X010103Y029417D01*
X010226Y029540D01*
X010226Y029727D01*
X010093Y029860D01*
X009970Y029860D01*
X009970Y029880D01*
X010077Y029880D01*
X010107Y029909D01*
X014947Y029909D01*
X015039Y030001D01*
X015065Y030027D01*
X015309Y030027D01*
X015206Y029924D01*
X015206Y029827D01*
X015118Y029738D01*
X015118Y029371D01*
X015210Y029279D01*
X015446Y029043D01*
X016049Y029043D01*
X016141Y029135D01*
X016443Y029437D01*
X016609Y029437D01*
X016678Y029368D01*
X016865Y029368D01*
X016998Y029500D01*
X016998Y029688D01*
X016865Y029820D01*
X016678Y029820D01*
X016609Y029752D01*
X016312Y029752D01*
X015919Y029358D01*
X015577Y029358D01*
X015433Y029502D01*
X015433Y029604D01*
X015527Y029604D01*
X015659Y029737D01*
X015659Y029924D01*
X015625Y029958D01*
X015723Y029958D01*
X015856Y030091D01*
X015856Y030278D01*
X015723Y030411D01*
X015536Y030411D01*
X015467Y030342D01*
X014934Y030342D01*
X014816Y030224D01*
X010107Y030224D01*
X010077Y030254D01*
X010001Y030254D01*
X010053Y030254D01*
X010054Y030255D01*
X010128Y030256D01*
X010357Y030357D01*
X010443Y030447D01*
X010647Y030651D01*
X010652Y030651D01*
X010684Y030688D01*
X010695Y030700D01*
X010718Y030721D01*
X010794Y030759D01*
X010834Y030765D01*
X011053Y030765D01*
X011053Y030699D01*
X011129Y030566D01*
X011129Y030566D01*
X011129Y030566D01*
X011262Y030490D01*
X011824Y030490D01*
X012100Y030765D01*
X014000Y030765D01*
X014001Y030764D01*
X016820Y030764D01*
X016781Y030671D01*
X016781Y030565D01*
X016822Y030467D01*
X016889Y030399D01*
X016889Y030277D01*
X016889Y030285D02*
X015849Y030285D01*
X015752Y030382D02*
X016889Y030382D01*
X016817Y030479D02*
X010475Y030479D01*
X010381Y030382D02*
X015507Y030382D01*
X015277Y029995D02*
X015032Y029995D01*
X015206Y029898D02*
X010095Y029898D01*
X010153Y029801D02*
X010701Y029801D01*
X010721Y029821D02*
X010634Y029734D01*
X010634Y029611D01*
X010686Y029559D01*
X010686Y029472D01*
X010668Y029454D01*
X010374Y029454D01*
X010287Y029368D01*
X010287Y029245D01*
X010374Y029158D01*
X010706Y029158D01*
X010759Y029210D01*
X010948Y029210D01*
X010963Y029225D01*
X010978Y029210D01*
X011101Y029210D01*
X011145Y029253D01*
X011188Y029210D01*
X011311Y029210D01*
X011352Y029252D01*
X011393Y029210D01*
X011621Y029210D01*
X011662Y029252D01*
X011703Y029210D01*
X012036Y029210D01*
X012077Y029252D01*
X012118Y029210D01*
X012241Y029210D01*
X012328Y029297D01*
X012328Y029367D01*
X012342Y029367D01*
X012342Y029297D01*
X012428Y029210D01*
X012551Y029210D01*
X012595Y029253D01*
X012638Y029210D01*
X012739Y029210D01*
X012791Y029158D01*
X013123Y029158D01*
X013191Y029225D01*
X013206Y029210D01*
X013433Y029210D01*
X013486Y029263D01*
X013573Y029349D01*
X013573Y029620D01*
X013573Y029682D01*
X013520Y029734D01*
X013502Y029752D01*
X013433Y029821D01*
X013329Y029821D01*
X013310Y029821D01*
X013310Y029821D01*
X013206Y029821D01*
X013206Y029821D01*
X013206Y029821D01*
X013135Y029750D01*
X013119Y029734D01*
X013119Y029734D01*
X013068Y029683D01*
X013067Y029682D01*
X013067Y029682D01*
X013067Y029621D01*
X013067Y029516D01*
X013067Y029454D01*
X012847Y029454D01*
X012847Y029734D01*
X012761Y029821D01*
X012638Y029821D01*
X012595Y029777D01*
X012551Y029821D01*
X012428Y029821D01*
X012342Y029734D01*
X012342Y029720D01*
X012241Y029821D01*
X012118Y029821D01*
X012077Y029779D01*
X012036Y029821D01*
X011703Y029821D01*
X011688Y029806D01*
X011673Y029821D01*
X011550Y029821D01*
X011507Y029777D01*
X011464Y029821D01*
X011341Y029821D01*
X011326Y029806D01*
X011311Y029821D01*
X011188Y029821D01*
X011145Y029777D01*
X011101Y029821D01*
X010978Y029821D01*
X010963Y029806D01*
X010948Y029821D01*
X010721Y029821D01*
X010634Y029704D02*
X010226Y029704D01*
X010226Y029607D02*
X010638Y029607D01*
X010686Y029510D02*
X010196Y029510D01*
X010107Y029413D02*
X010333Y029413D01*
X010287Y029316D02*
X010204Y029316D01*
X010226Y029219D02*
X010313Y029219D01*
X010226Y029122D02*
X014329Y029122D01*
X014305Y029146D02*
X014418Y029033D01*
X014565Y028972D01*
X014725Y028972D01*
X014873Y029033D01*
X014986Y029146D01*
X015047Y029294D01*
X015047Y029454D01*
X014986Y029601D01*
X014873Y029714D01*
X014725Y029775D01*
X014565Y029775D01*
X014418Y029714D01*
X014305Y029601D01*
X014244Y029454D01*
X014244Y029294D01*
X014305Y029146D01*
X014275Y029219D02*
X013442Y029219D01*
X013539Y029316D02*
X014244Y029316D01*
X014244Y029413D02*
X013573Y029413D01*
X013573Y029510D02*
X014267Y029510D01*
X014310Y029607D02*
X013573Y029607D01*
X013550Y029704D02*
X014407Y029704D01*
X014883Y029704D02*
X015118Y029704D01*
X015118Y029607D02*
X014980Y029607D01*
X015024Y029510D02*
X015118Y029510D01*
X015118Y029413D02*
X015047Y029413D01*
X015047Y029316D02*
X015173Y029316D01*
X015270Y029219D02*
X015016Y029219D01*
X014962Y029122D02*
X015367Y029122D01*
X015511Y029200D02*
X015275Y029437D01*
X015275Y029673D01*
X015433Y029830D01*
X015659Y029801D02*
X016658Y029801D01*
X016885Y029801D02*
X017244Y029801D01*
X017244Y029898D02*
X015659Y029898D01*
X015760Y029995D02*
X017172Y029995D01*
X017075Y030091D02*
X015856Y030091D01*
X015626Y029704D02*
X016265Y029704D01*
X016168Y029607D02*
X015529Y029607D01*
X015433Y029510D02*
X016071Y029510D01*
X015974Y029413D02*
X015522Y029413D01*
X015511Y029200D02*
X015984Y029200D01*
X016378Y029594D01*
X016771Y029594D01*
X016998Y029607D02*
X017175Y029607D01*
X017175Y029510D02*
X016998Y029510D01*
X016910Y029413D02*
X017262Y029413D01*
X017401Y029594D02*
X017401Y029988D01*
X017047Y030342D01*
X017047Y030618D01*
X017277Y030479D02*
X017903Y030479D01*
X017903Y030382D02*
X017229Y030382D01*
X017326Y030285D02*
X017903Y030285D01*
X017903Y030188D02*
X017423Y030188D01*
X017520Y030091D02*
X017903Y030091D01*
X017903Y029995D02*
X017559Y029995D01*
X017559Y029898D02*
X017903Y029898D01*
X017903Y029801D02*
X017559Y029801D01*
X017612Y029704D02*
X017903Y029704D01*
X017903Y029607D02*
X017628Y029607D01*
X017628Y029510D02*
X017903Y029510D01*
X017903Y029413D02*
X017540Y029413D01*
X017903Y029316D02*
X016322Y029316D01*
X016225Y029219D02*
X017903Y029219D01*
X017903Y029122D02*
X016128Y029122D01*
X016119Y029025D02*
X014854Y029025D01*
X014437Y029025D02*
X013656Y029025D01*
X013743Y028928D02*
X016022Y028928D01*
X015994Y028831D02*
X013831Y028831D01*
X013918Y028735D02*
X015994Y028735D01*
X016220Y028807D02*
X016260Y028767D01*
X016260Y028216D01*
X015984Y027941D01*
X015472Y027941D01*
X015246Y027959D02*
X009970Y027959D01*
X009970Y027862D02*
X010547Y027862D01*
X010450Y027765D02*
X009970Y027765D01*
X010120Y027668D02*
X010444Y027668D01*
X010444Y027571D02*
X010217Y027571D01*
X010226Y027474D02*
X010444Y027474D01*
X010493Y027378D02*
X010226Y027378D01*
X010132Y027281D02*
X010511Y027281D01*
X010504Y027184D02*
X010171Y027184D01*
X010226Y027087D02*
X010504Y027087D01*
X010504Y026990D02*
X010226Y026990D01*
X010178Y026893D02*
X010504Y026893D01*
X010846Y027862D02*
X010857Y027862D01*
X010945Y027951D02*
X010945Y027951D01*
X010945Y027951D01*
X011068Y027951D02*
X011068Y027951D01*
X011173Y027951D02*
X011173Y027951D01*
X011173Y027951D01*
X011260Y027864D02*
X011260Y027864D01*
X011261Y027862D02*
X011531Y027862D01*
X011312Y027811D02*
X011312Y027811D01*
X012033Y027951D02*
X012033Y027951D01*
X012156Y027951D02*
X012156Y027951D01*
X012400Y027862D02*
X012669Y027862D01*
X012758Y027951D02*
X012758Y027951D01*
X012881Y027951D02*
X012881Y027951D01*
X012985Y027951D02*
X012985Y027951D01*
X012985Y027951D01*
X013120Y027951D02*
X013120Y027951D01*
X013120Y027951D01*
X013243Y027951D02*
X013243Y027951D01*
X013348Y027951D02*
X013348Y027951D01*
X013348Y027951D01*
X013435Y027864D02*
X013435Y027864D01*
X013436Y027862D02*
X015246Y027862D01*
X015327Y027765D02*
X015149Y027765D01*
X015125Y027775D02*
X014965Y027775D01*
X014818Y027714D01*
X014705Y027601D01*
X014645Y027458D01*
X014586Y027601D01*
X014473Y027714D01*
X014325Y027775D01*
X014165Y027775D01*
X014018Y027714D01*
X013905Y027601D01*
X013844Y027454D01*
X013844Y027294D01*
X013905Y027146D01*
X014018Y027033D01*
X014165Y026972D01*
X014325Y026972D01*
X014473Y027033D01*
X014586Y027146D01*
X014645Y027290D01*
X014705Y027146D01*
X014818Y027033D01*
X014965Y026972D01*
X015125Y026972D01*
X015273Y027033D01*
X015386Y027146D01*
X015447Y027294D01*
X015447Y027454D01*
X015386Y027601D01*
X015273Y027714D01*
X015125Y027775D01*
X014941Y027765D02*
X014349Y027765D01*
X014519Y027668D02*
X014772Y027668D01*
X014692Y027571D02*
X014598Y027571D01*
X014638Y027474D02*
X014652Y027474D01*
X014642Y027281D02*
X014649Y027281D01*
X014689Y027184D02*
X014601Y027184D01*
X014527Y027087D02*
X014764Y027087D01*
X014922Y026990D02*
X014369Y026990D01*
X014122Y026990D02*
X013427Y026990D01*
X013427Y027087D02*
X013964Y027087D01*
X013889Y027184D02*
X013427Y027184D01*
X013419Y027281D02*
X013849Y027281D01*
X013844Y027378D02*
X013385Y027378D01*
X013482Y027474D02*
X013852Y027474D01*
X013892Y027571D02*
X013487Y027571D01*
X013487Y027668D02*
X013972Y027668D01*
X014141Y027765D02*
X013487Y027765D01*
X013487Y027811D02*
X013487Y027811D01*
X013645Y028056D02*
X009970Y028056D01*
X010139Y028153D02*
X013513Y028153D01*
X013427Y028250D02*
X010226Y028250D01*
X010226Y028347D02*
X013340Y028347D01*
X013197Y029219D02*
X013184Y029219D01*
X013067Y029510D02*
X012847Y029510D01*
X012847Y029607D02*
X013067Y029607D01*
X013089Y029704D02*
X012847Y029704D01*
X012781Y029801D02*
X013186Y029801D01*
X013329Y029821D02*
X013329Y029821D01*
X013433Y029821D02*
X013433Y029821D01*
X013433Y029821D01*
X013453Y029801D02*
X015180Y029801D01*
X014878Y030285D02*
X010194Y030285D01*
X010128Y030256D02*
X010128Y030256D01*
X010001Y030254D02*
X010001Y030254D01*
X010357Y030357D02*
X010357Y030357D01*
X010572Y030576D02*
X011124Y030576D01*
X011068Y030673D02*
X010671Y030673D01*
X011121Y029801D02*
X011168Y029801D01*
X011484Y029801D02*
X011530Y029801D01*
X012056Y029801D02*
X012098Y029801D01*
X012261Y029801D02*
X012408Y029801D01*
X012571Y029801D02*
X012618Y029801D01*
X012342Y029316D02*
X012328Y029316D01*
X012250Y029219D02*
X012420Y029219D01*
X012560Y029219D02*
X012629Y029219D01*
X012109Y029219D02*
X012045Y029219D01*
X011695Y029219D02*
X011630Y029219D01*
X011384Y029219D02*
X011319Y029219D01*
X011179Y029219D02*
X011110Y029219D01*
X010970Y029219D02*
X010957Y029219D01*
X011911Y030576D02*
X016781Y030576D01*
X016782Y030673D02*
X012008Y030673D01*
X013520Y029734D02*
X013520Y029734D01*
X015319Y027668D02*
X016614Y027668D01*
X016614Y027765D02*
X015617Y027765D01*
X015398Y027571D02*
X016476Y027571D01*
X016379Y027474D02*
X015438Y027474D01*
X015447Y027378D02*
X016348Y027378D01*
X016348Y027281D02*
X015442Y027281D01*
X015401Y027184D02*
X015694Y027184D01*
X015639Y027087D02*
X015327Y027087D01*
X015169Y026990D02*
X015639Y026990D01*
X015688Y026893D02*
X013427Y026893D01*
X014000Y024860D02*
X012100Y024860D01*
X011824Y024584D01*
X011262Y024584D01*
X011129Y024661D01*
X011129Y024661D01*
X011053Y024793D01*
X011053Y024860D01*
X010834Y024860D01*
X010794Y024853D01*
X010718Y024815D01*
X010695Y024794D01*
X010684Y024782D01*
X010652Y024746D01*
X010647Y024745D01*
X010443Y024541D01*
X010357Y024452D01*
X010357Y024452D01*
X010128Y024351D01*
X010054Y024349D01*
X010053Y024348D01*
X010001Y024348D01*
X010001Y024348D01*
X010077Y024348D01*
X010107Y024319D01*
X014816Y024319D01*
X014934Y024437D01*
X015467Y024437D01*
X015536Y024506D01*
X015723Y024506D01*
X015856Y024373D01*
X015856Y024185D01*
X015723Y024053D01*
X015625Y024053D01*
X015659Y024019D01*
X015659Y023831D01*
X015527Y023698D01*
X015433Y023698D01*
X015433Y023596D01*
X015577Y023452D01*
X015919Y023452D01*
X016312Y023846D01*
X016609Y023846D01*
X016678Y023915D01*
X016865Y023915D01*
X016998Y023782D01*
X016998Y023595D01*
X016865Y023462D01*
X016678Y023462D01*
X016609Y023531D01*
X016443Y023531D01*
X016141Y023230D01*
X016049Y023137D01*
X015446Y023137D01*
X015210Y023374D01*
X015118Y023466D01*
X015118Y023833D01*
X015206Y023921D01*
X015206Y024019D01*
X015309Y024122D01*
X015065Y024122D01*
X014947Y024004D01*
X010107Y024004D01*
X010077Y023974D01*
X009970Y023974D01*
X009970Y023954D01*
X010093Y023954D01*
X010226Y023822D01*
X010226Y023634D01*
X010103Y023511D01*
X010226Y023389D01*
X010226Y023206D01*
X013366Y023206D01*
X013375Y023209D01*
X013434Y023206D01*
X013493Y023206D01*
X013502Y023203D01*
X013511Y023202D01*
X013565Y023177D01*
X013620Y023154D01*
X013627Y023147D01*
X013635Y023143D01*
X013675Y023099D01*
X013717Y023057D01*
X013720Y023048D01*
X013933Y022813D01*
X015974Y022813D01*
X015999Y022802D01*
X015994Y022807D01*
X015994Y022995D01*
X016126Y023128D01*
X016314Y023128D01*
X016447Y022995D01*
X016447Y022807D01*
X016417Y022778D01*
X016417Y022245D01*
X016325Y022153D01*
X016049Y021878D01*
X015635Y021878D01*
X015566Y021809D01*
X015378Y021809D01*
X015246Y021941D01*
X015246Y022124D01*
X013838Y022124D01*
X013830Y022120D01*
X013770Y022124D01*
X013711Y022124D01*
X013702Y022127D01*
X013693Y022128D01*
X013639Y022153D01*
X013584Y022176D01*
X013577Y022183D01*
X013569Y022187D01*
X013529Y022231D01*
X013487Y022273D01*
X013484Y022282D01*
X013271Y022517D01*
X010226Y022517D01*
X010226Y022335D01*
X010093Y022202D01*
X009970Y022202D01*
X009970Y021789D01*
X010093Y021789D01*
X010226Y021656D01*
X010226Y021469D01*
X010103Y021346D01*
X010226Y021223D01*
X010226Y021036D01*
X010133Y020943D01*
X010504Y020943D01*
X010504Y021368D01*
X010571Y021435D01*
X010531Y021435D01*
X010444Y021521D01*
X010444Y021854D01*
X010531Y021940D01*
X010548Y021958D01*
X010548Y021958D01*
X010634Y022044D01*
X010635Y022045D01*
X010758Y022045D01*
X010852Y021951D01*
X010859Y021958D01*
X010859Y021958D01*
X010877Y021977D01*
X010945Y022045D01*
X010945Y022045D01*
X010945Y022045D01*
X011050Y022045D01*
X011050Y022045D01*
X011068Y022045D01*
X011068Y022045D01*
X011173Y022045D01*
X011173Y022045D01*
X011243Y021975D01*
X011260Y021958D01*
X011260Y021958D01*
X011311Y021907D01*
X011312Y021906D01*
X011312Y021906D01*
X011312Y021888D01*
X011531Y021888D01*
X011531Y021958D01*
X011618Y022045D01*
X011741Y022045D01*
X011784Y022002D01*
X011827Y022045D01*
X011950Y022045D01*
X011992Y022004D01*
X012033Y022045D01*
X012033Y022045D01*
X012033Y022045D01*
X012094Y022045D01*
X012156Y022045D01*
X012156Y022045D01*
X012313Y022045D01*
X012400Y021958D01*
X012400Y021888D01*
X012619Y021888D01*
X012619Y021906D01*
X012671Y021958D01*
X012671Y021958D01*
X012689Y021977D01*
X012758Y022045D01*
X012758Y022045D01*
X012758Y022045D01*
X012820Y022045D01*
X012863Y022045D01*
X012881Y022045D01*
X012925Y022045D01*
X012985Y022045D01*
X012985Y022045D01*
X012985Y022045D01*
X013053Y021978D01*
X013120Y022045D01*
X013120Y022045D01*
X013120Y022045D01*
X013225Y022045D01*
X013225Y022045D01*
X013243Y022045D01*
X013243Y022045D01*
X013348Y022045D01*
X013348Y022045D01*
X013348Y022045D01*
X013419Y021975D01*
X013435Y021958D01*
X013435Y021958D01*
X013486Y021907D01*
X013487Y021906D01*
X013487Y021906D01*
X013487Y021845D01*
X013487Y021574D01*
X013435Y021521D01*
X013354Y021441D01*
X013427Y021368D01*
X013427Y020943D01*
X014000Y020943D01*
X014001Y020944D01*
X015731Y020944D01*
X015639Y021036D01*
X015639Y021223D01*
X015772Y021356D01*
X015960Y021356D01*
X016028Y021287D01*
X016412Y021287D01*
X016348Y021351D01*
X016348Y021538D01*
X016481Y021671D01*
X016578Y021671D01*
X016614Y021707D01*
X016614Y021951D01*
X016545Y022020D01*
X016545Y022208D01*
X016678Y022340D01*
X016865Y022340D01*
X016998Y022208D01*
X016998Y022020D01*
X016929Y021951D01*
X016929Y021576D01*
X016801Y021448D01*
X016801Y021382D01*
X017244Y021825D01*
X017244Y021951D01*
X017175Y022020D01*
X017175Y022208D01*
X017307Y022340D01*
X017495Y022340D01*
X017628Y022208D01*
X017628Y022020D01*
X017559Y021951D01*
X017559Y021694D01*
X016929Y021064D01*
X016837Y020972D01*
X016028Y020972D01*
X016000Y020944D01*
X017903Y020944D01*
X017903Y024859D01*
X017274Y024859D01*
X017313Y024765D01*
X017313Y024659D01*
X017272Y024562D01*
X017208Y024498D01*
X017466Y024240D01*
X017559Y024148D01*
X017559Y023851D01*
X017628Y023782D01*
X017628Y023595D01*
X017495Y023462D01*
X017307Y023462D01*
X017175Y023595D01*
X017175Y023782D01*
X017244Y023851D01*
X017244Y024017D01*
X016889Y024371D01*
X016889Y024494D01*
X016822Y024562D01*
X016781Y024659D01*
X016781Y024765D01*
X016820Y024859D01*
X014001Y024859D01*
X014000Y024860D01*
X013433Y023915D02*
X013329Y023915D01*
X013310Y023915D01*
X013206Y023915D01*
X013206Y023915D01*
X013206Y023915D01*
X013135Y023845D01*
X013119Y023828D01*
X013068Y023777D01*
X013067Y023776D01*
X013067Y023776D01*
X013067Y023715D01*
X013067Y023611D01*
X013067Y023549D01*
X012847Y023549D01*
X012847Y023828D01*
X012761Y023915D01*
X012638Y023915D01*
X012595Y023872D01*
X012551Y023915D01*
X012428Y023915D01*
X012342Y023828D01*
X012342Y023815D01*
X012241Y023915D01*
X012118Y023915D01*
X012077Y023874D01*
X012036Y023915D01*
X011703Y023915D01*
X011688Y023900D01*
X011673Y023915D01*
X011550Y023915D01*
X011507Y023872D01*
X011464Y023915D01*
X011341Y023915D01*
X011326Y023900D01*
X011311Y023915D01*
X011188Y023915D01*
X011145Y023872D01*
X011101Y023915D01*
X010978Y023915D01*
X010963Y023900D01*
X010948Y023915D01*
X010721Y023915D01*
X010634Y023828D01*
X010634Y023706D01*
X010686Y023653D01*
X010686Y023567D01*
X010668Y023549D01*
X010374Y023549D01*
X010287Y023462D01*
X010287Y023339D01*
X010374Y023252D01*
X010706Y023252D01*
X010759Y023305D01*
X010948Y023305D01*
X010963Y023320D01*
X010978Y023305D01*
X011101Y023305D01*
X011145Y023348D01*
X011188Y023305D01*
X011311Y023305D01*
X011352Y023346D01*
X011393Y023305D01*
X011621Y023305D01*
X011662Y023346D01*
X011703Y023305D01*
X012036Y023305D01*
X012077Y023346D01*
X012118Y023305D01*
X012241Y023305D01*
X012328Y023392D01*
X012328Y023462D01*
X012342Y023462D01*
X012342Y023392D01*
X012428Y023305D01*
X012551Y023305D01*
X012595Y023348D01*
X012638Y023305D01*
X012739Y023305D01*
X012791Y023252D01*
X013123Y023252D01*
X013191Y023320D01*
X013206Y023305D01*
X013433Y023305D01*
X013486Y023357D01*
X013573Y023444D01*
X013573Y023714D01*
X013573Y023776D01*
X013520Y023828D01*
X013520Y023828D01*
X013502Y023847D01*
X013433Y023915D01*
X013433Y023915D01*
X013433Y023915D01*
X013460Y023888D02*
X015173Y023888D01*
X015206Y023985D02*
X010088Y023985D01*
X010160Y023888D02*
X010694Y023888D01*
X010634Y023791D02*
X010226Y023791D01*
X010226Y023694D02*
X010645Y023694D01*
X010686Y023597D02*
X010189Y023597D01*
X010114Y023501D02*
X010326Y023501D01*
X010287Y023404D02*
X010211Y023404D01*
X010226Y023307D02*
X010320Y023307D01*
X010226Y023210D02*
X014336Y023210D01*
X014305Y023241D02*
X014418Y023128D01*
X014565Y023066D01*
X014725Y023066D01*
X014873Y023128D01*
X014986Y023241D01*
X015047Y023388D01*
X015047Y023548D01*
X014986Y023696D01*
X014873Y023809D01*
X014725Y023870D01*
X014565Y023870D01*
X014418Y023809D01*
X014305Y023696D01*
X014244Y023548D01*
X014244Y023388D01*
X014305Y023241D01*
X014277Y023307D02*
X013435Y023307D01*
X013532Y023404D02*
X014244Y023404D01*
X014244Y023501D02*
X013573Y023501D01*
X013573Y023597D02*
X014264Y023597D01*
X014304Y023694D02*
X013573Y023694D01*
X013557Y023791D02*
X014400Y023791D01*
X014890Y023791D02*
X015118Y023791D01*
X015118Y023694D02*
X014986Y023694D01*
X015027Y023597D02*
X015118Y023597D01*
X015118Y023501D02*
X015047Y023501D01*
X015047Y023404D02*
X015180Y023404D01*
X015277Y023307D02*
X015013Y023307D01*
X014955Y023210D02*
X015374Y023210D01*
X015511Y023295D02*
X015275Y023531D01*
X015275Y023767D01*
X015433Y023925D01*
X015270Y024082D02*
X015025Y024082D01*
X014882Y024161D02*
X010000Y024161D01*
X010178Y024373D02*
X014871Y024373D01*
X015000Y024279D02*
X014882Y024161D01*
X015000Y024279D02*
X015630Y024279D01*
X015856Y024276D02*
X016985Y024276D01*
X016889Y024373D02*
X015856Y024373D01*
X015759Y024470D02*
X016889Y024470D01*
X016820Y024567D02*
X010468Y024567D01*
X010374Y024470D02*
X015500Y024470D01*
X015850Y024179D02*
X017082Y024179D01*
X017179Y024082D02*
X015753Y024082D01*
X015659Y023985D02*
X017244Y023985D01*
X017244Y023888D02*
X016892Y023888D01*
X016989Y023791D02*
X017184Y023791D01*
X017175Y023694D02*
X016998Y023694D01*
X016998Y023597D02*
X017175Y023597D01*
X017269Y023501D02*
X016903Y023501D01*
X016771Y023689D02*
X016378Y023689D01*
X015984Y023295D01*
X015511Y023295D01*
X015529Y023501D02*
X015967Y023501D01*
X016064Y023597D02*
X015433Y023597D01*
X015433Y023694D02*
X016161Y023694D01*
X016258Y023791D02*
X015619Y023791D01*
X015659Y023888D02*
X016651Y023888D01*
X016639Y023501D02*
X016412Y023501D01*
X016315Y023404D02*
X017903Y023404D01*
X017903Y023501D02*
X017533Y023501D01*
X017628Y023597D02*
X017903Y023597D01*
X017903Y023694D02*
X017628Y023694D01*
X017619Y023791D02*
X017903Y023791D01*
X017903Y023888D02*
X017559Y023888D01*
X017559Y023985D02*
X017903Y023985D01*
X017903Y024082D02*
X017559Y024082D01*
X017527Y024179D02*
X017903Y024179D01*
X017903Y024276D02*
X017430Y024276D01*
X017333Y024373D02*
X017903Y024373D01*
X017903Y024470D02*
X017236Y024470D01*
X017274Y024567D02*
X017903Y024567D01*
X017903Y024664D02*
X017313Y024664D01*
X017313Y024761D02*
X017903Y024761D01*
X017903Y024858D02*
X017274Y024858D01*
X017047Y024712D02*
X017047Y024437D01*
X017401Y024082D01*
X017401Y023689D01*
X017903Y023307D02*
X016218Y023307D01*
X016122Y023210D02*
X017903Y023210D01*
X017903Y023113D02*
X016329Y023113D01*
X016426Y023016D02*
X017903Y023016D01*
X017903Y022919D02*
X016447Y022919D01*
X016447Y022822D02*
X017903Y022822D01*
X017903Y022725D02*
X016417Y022725D01*
X016417Y022628D02*
X017903Y022628D01*
X017903Y022531D02*
X016417Y022531D01*
X016417Y022434D02*
X017903Y022434D01*
X017903Y022337D02*
X017498Y022337D01*
X017595Y022241D02*
X017903Y022241D01*
X017903Y022144D02*
X017628Y022144D01*
X017628Y022047D02*
X017903Y022047D01*
X017903Y021950D02*
X017559Y021950D01*
X017559Y021853D02*
X017903Y021853D01*
X017903Y021756D02*
X017559Y021756D01*
X017523Y021659D02*
X017903Y021659D01*
X017903Y021562D02*
X017427Y021562D01*
X017330Y021465D02*
X017903Y021465D01*
X017903Y021368D02*
X017233Y021368D01*
X017136Y021271D02*
X017903Y021271D01*
X017903Y021174D02*
X017039Y021174D01*
X016942Y021077D02*
X017903Y021077D01*
X017903Y020980D02*
X016845Y020980D01*
X016771Y021130D02*
X015866Y021130D01*
X015695Y020980D02*
X013427Y020980D01*
X013427Y021077D02*
X014139Y021077D01*
X014165Y021066D02*
X014325Y021066D01*
X014473Y021128D01*
X014586Y021241D01*
X014645Y021384D01*
X014705Y021241D01*
X014818Y021128D01*
X014965Y021066D01*
X015125Y021066D01*
X015273Y021128D01*
X015386Y021241D01*
X015447Y021388D01*
X015447Y021548D01*
X015386Y021696D01*
X015273Y021809D01*
X015125Y021870D01*
X014965Y021870D01*
X014818Y021809D01*
X014705Y021696D01*
X014645Y021552D01*
X014586Y021696D01*
X014473Y021809D01*
X014325Y021870D01*
X014165Y021870D01*
X014018Y021809D01*
X013905Y021696D01*
X013844Y021548D01*
X013844Y021388D01*
X013905Y021241D01*
X014018Y021128D01*
X014165Y021066D01*
X014352Y021077D02*
X014939Y021077D01*
X014771Y021174D02*
X014520Y021174D01*
X014599Y021271D02*
X014692Y021271D01*
X014652Y021368D02*
X014639Y021368D01*
X014641Y021562D02*
X014649Y021562D01*
X014690Y021659D02*
X014601Y021659D01*
X014526Y021756D02*
X014765Y021756D01*
X014924Y021853D02*
X014366Y021853D01*
X014124Y021853D02*
X013487Y021853D01*
X013487Y021756D02*
X013965Y021756D01*
X013890Y021659D02*
X013487Y021659D01*
X013475Y021562D02*
X013849Y021562D01*
X013844Y021465D02*
X013378Y021465D01*
X013426Y021368D02*
X013852Y021368D01*
X013892Y021271D02*
X013427Y021271D01*
X013427Y021174D02*
X013971Y021174D01*
X013443Y021950D02*
X015246Y021950D01*
X015246Y022047D02*
X009970Y022047D01*
X009970Y022144D02*
X013659Y022144D01*
X013520Y022241D02*
X010132Y022241D01*
X010226Y022337D02*
X013433Y022337D01*
X013346Y022434D02*
X010226Y022434D01*
X009970Y021950D02*
X010540Y021950D01*
X010444Y021853D02*
X009970Y021853D01*
X010127Y021756D02*
X010444Y021756D01*
X010444Y021659D02*
X010223Y021659D01*
X010226Y021562D02*
X010444Y021562D01*
X010500Y021465D02*
X010222Y021465D01*
X010125Y021368D02*
X010505Y021368D01*
X010504Y021271D02*
X010178Y021271D01*
X010226Y021174D02*
X010504Y021174D01*
X010504Y021077D02*
X010226Y021077D01*
X010171Y020980D02*
X010504Y020980D01*
X011268Y021950D02*
X011531Y021950D01*
X011173Y022045D02*
X011173Y022045D01*
X012400Y021950D02*
X012663Y021950D01*
X013837Y022919D02*
X015994Y022919D01*
X015994Y022822D02*
X013924Y022822D01*
X013750Y023016D02*
X016015Y023016D01*
X016112Y023113D02*
X014837Y023113D01*
X014453Y023113D02*
X013662Y023113D01*
X013204Y023307D02*
X013177Y023307D01*
X013067Y023597D02*
X012847Y023597D01*
X012847Y023694D02*
X013067Y023694D01*
X013082Y023791D02*
X012847Y023791D01*
X012788Y023888D02*
X013179Y023888D01*
X013119Y023828D02*
X013119Y023828D01*
X013310Y023915D02*
X013310Y023915D01*
X013329Y023915D02*
X013329Y023915D01*
X012611Y023888D02*
X012578Y023888D01*
X012402Y023888D02*
X012268Y023888D01*
X012091Y023888D02*
X012063Y023888D01*
X011523Y023888D02*
X011491Y023888D01*
X011161Y023888D02*
X011128Y023888D01*
X011103Y023307D02*
X011186Y023307D01*
X011313Y023307D02*
X011391Y023307D01*
X011623Y023307D02*
X011701Y023307D01*
X012038Y023307D02*
X012116Y023307D01*
X012243Y023307D02*
X012427Y023307D01*
X012553Y023307D02*
X012636Y023307D01*
X012342Y023404D02*
X012328Y023404D01*
X011904Y024664D02*
X016781Y024664D01*
X016781Y024761D02*
X012001Y024761D01*
X012098Y024858D02*
X016819Y024858D01*
X016220Y022901D02*
X016260Y022862D01*
X016260Y022311D01*
X015984Y022035D01*
X015472Y022035D01*
X015334Y021853D02*
X015166Y021853D01*
X015326Y021756D02*
X016614Y021756D01*
X016614Y021853D02*
X015610Y021853D01*
X015401Y021659D02*
X016469Y021659D01*
X016372Y021562D02*
X015441Y021562D01*
X015447Y021465D02*
X016348Y021465D01*
X016348Y021368D02*
X015439Y021368D01*
X015399Y021271D02*
X015687Y021271D01*
X015639Y021174D02*
X015320Y021174D01*
X015152Y021077D02*
X015639Y021077D01*
X016121Y021950D02*
X016614Y021950D01*
X016545Y022047D02*
X016218Y022047D01*
X016315Y022144D02*
X016545Y022144D01*
X016578Y022241D02*
X016412Y022241D01*
X016417Y022337D02*
X016675Y022337D01*
X016868Y022337D02*
X017305Y022337D01*
X017208Y022241D02*
X016965Y022241D01*
X016998Y022144D02*
X017175Y022144D01*
X017175Y022047D02*
X016998Y022047D01*
X016929Y021950D02*
X017244Y021950D01*
X017244Y021853D02*
X016929Y021853D01*
X016929Y021756D02*
X017175Y021756D01*
X017078Y021659D02*
X016929Y021659D01*
X016915Y021562D02*
X016981Y021562D01*
X016884Y021465D02*
X016818Y021465D01*
X016771Y021641D02*
X016574Y021444D01*
X016771Y021641D02*
X016771Y022114D01*
X017401Y022114D02*
X017401Y021759D01*
X016771Y021130D01*
X016820Y018953D02*
X016781Y018860D01*
X016781Y018754D01*
X016822Y018656D01*
X016889Y018588D01*
X016889Y018466D01*
X017244Y018112D01*
X017244Y017946D01*
X017175Y017877D01*
X017175Y017689D01*
X017307Y017557D01*
X017495Y017557D01*
X017628Y017689D01*
X017628Y017877D01*
X017559Y017946D01*
X017559Y018242D01*
X017208Y018592D01*
X017272Y018656D01*
X017313Y018754D01*
X017313Y018860D01*
X017274Y018953D01*
X017903Y018953D01*
X017903Y015038D01*
X016000Y015038D01*
X016028Y015067D01*
X016837Y015067D01*
X016929Y015159D01*
X017559Y015789D01*
X017559Y016046D01*
X017628Y016114D01*
X017628Y016302D01*
X017495Y016435D01*
X017307Y016435D01*
X017175Y016302D01*
X017175Y016114D01*
X017244Y016046D01*
X017244Y015919D01*
X016801Y015476D01*
X016801Y015543D01*
X016929Y015671D01*
X016929Y016046D01*
X016998Y016114D01*
X016998Y016302D01*
X016865Y016435D01*
X016678Y016435D01*
X016545Y016302D01*
X016545Y016114D01*
X016614Y016046D01*
X016614Y015801D01*
X016578Y015765D01*
X016481Y015765D01*
X016348Y015633D01*
X016348Y015445D01*
X016412Y015381D01*
X016028Y015381D01*
X015960Y015450D01*
X015772Y015450D01*
X015639Y015318D01*
X015639Y015130D01*
X015731Y015038D01*
X014001Y015038D01*
X014000Y015037D01*
X013427Y015037D01*
X013427Y015462D01*
X013354Y015535D01*
X013435Y015616D01*
X013487Y015668D01*
X013487Y015940D01*
X013487Y016000D01*
X013487Y016000D01*
X013487Y016000D01*
X013486Y016001D01*
X013435Y016053D01*
X013382Y016105D01*
X013348Y016140D01*
X013243Y016140D01*
X013183Y016140D01*
X013120Y016140D01*
X013053Y016072D01*
X012985Y016140D01*
X012881Y016140D01*
X012872Y016140D01*
X012863Y016140D01*
X012758Y016140D01*
X012758Y016140D01*
X012689Y016071D01*
X012671Y016053D01*
X012619Y016000D01*
X012619Y015983D01*
X012400Y015983D01*
X012400Y016053D01*
X012313Y016140D01*
X012156Y016140D01*
X012094Y016140D01*
X012033Y016140D01*
X012033Y016140D01*
X011992Y016098D01*
X011950Y016140D01*
X011827Y016140D01*
X011784Y016096D01*
X011741Y016140D01*
X011618Y016140D01*
X011531Y016053D01*
X011531Y015983D01*
X011312Y015983D01*
X011312Y016000D01*
X011312Y016000D01*
X011311Y016001D01*
X011260Y016053D01*
X011243Y016069D01*
X011173Y016140D01*
X011112Y016140D01*
X011068Y016140D01*
X011050Y016140D01*
X011007Y016140D01*
X010945Y016140D01*
X010877Y016071D01*
X010859Y016053D01*
X010852Y016046D01*
X010758Y016140D01*
X010635Y016140D01*
X010634Y016138D01*
X010548Y016053D01*
X010548Y016053D01*
X010531Y016035D01*
X010444Y015948D01*
X010444Y015616D01*
X010531Y015529D01*
X010571Y015529D01*
X010504Y015462D01*
X010504Y015037D01*
X010133Y015037D01*
X010226Y015130D01*
X010226Y015318D01*
X010103Y015441D01*
X010226Y015563D01*
X010226Y015751D01*
X010093Y015883D01*
X009970Y015883D01*
X009970Y016297D01*
X010093Y016297D01*
X010226Y016429D01*
X010226Y016612D01*
X013271Y016612D01*
X013484Y016376D01*
X013487Y016367D01*
X013529Y016325D01*
X013569Y016281D01*
X013577Y016277D01*
X013584Y016271D01*
X013639Y016248D01*
X013693Y016222D01*
X013702Y016222D01*
X013711Y016218D01*
X013770Y016218D01*
X013830Y016215D01*
X013838Y016218D01*
X015246Y016218D01*
X015246Y016036D01*
X015378Y015903D01*
X015566Y015903D01*
X015635Y015972D01*
X016049Y015972D01*
X016325Y016248D01*
X016417Y016340D01*
X016417Y016872D01*
X016447Y016902D01*
X016447Y017089D01*
X016314Y017222D01*
X016126Y017222D01*
X015994Y017089D01*
X015994Y016902D01*
X015999Y016897D01*
X015974Y016907D01*
X013933Y016907D01*
X013720Y017143D01*
X013717Y017151D01*
X013675Y017193D01*
X013635Y017238D01*
X013627Y017242D01*
X013620Y017248D01*
X013565Y017271D01*
X013511Y017297D01*
X013502Y017297D01*
X013493Y017301D01*
X013434Y017301D01*
X013375Y017304D01*
X013366Y017301D01*
X010226Y017301D01*
X010226Y017483D01*
X010103Y017606D01*
X010226Y017729D01*
X010226Y017916D01*
X010093Y018049D01*
X009970Y018049D01*
X009970Y018069D01*
X010077Y018069D01*
X010107Y018098D01*
X014947Y018098D01*
X015039Y018190D01*
X015065Y018216D01*
X015309Y018216D01*
X015206Y018113D01*
X015206Y018016D01*
X015118Y017927D01*
X015118Y017560D01*
X015210Y017468D01*
X015446Y017232D01*
X016049Y017232D01*
X016141Y017324D01*
X016443Y017626D01*
X016609Y017626D01*
X016678Y017557D01*
X016865Y017557D01*
X016998Y017689D01*
X016998Y017877D01*
X016865Y018009D01*
X016678Y018009D01*
X016609Y017941D01*
X016312Y017941D01*
X015919Y017547D01*
X015577Y017547D01*
X015433Y017691D01*
X015433Y017793D01*
X015527Y017793D01*
X015659Y017926D01*
X015659Y018113D01*
X015625Y018147D01*
X015723Y018147D01*
X015856Y018280D01*
X015856Y018467D01*
X015723Y018600D01*
X015536Y018600D01*
X015467Y018531D01*
X014934Y018531D01*
X014816Y018413D01*
X010107Y018413D01*
X010077Y018443D01*
X010001Y018443D01*
X010001Y018443D01*
X010053Y018443D01*
X010054Y018444D01*
X010128Y018445D01*
X010357Y018546D01*
X010443Y018636D01*
X010647Y018840D01*
X010652Y018840D01*
X010684Y018877D01*
X010695Y018888D01*
X010718Y018910D01*
X010794Y018947D01*
X010834Y018954D01*
X011053Y018954D01*
X011053Y018888D01*
X011129Y018755D01*
X011262Y018679D01*
X011824Y018679D01*
X012100Y018954D01*
X014000Y018954D01*
X014001Y018953D01*
X016820Y018953D01*
X016817Y018945D02*
X012091Y018945D01*
X011994Y018848D02*
X016781Y018848D01*
X016782Y018751D02*
X011897Y018751D01*
X012036Y018010D02*
X011703Y018010D01*
X011688Y017995D01*
X011673Y018010D01*
X011550Y018010D01*
X011507Y017966D01*
X011464Y018010D01*
X011341Y018010D01*
X011326Y017995D01*
X011311Y018010D01*
X011188Y018010D01*
X011145Y017966D01*
X011101Y018010D01*
X010978Y018010D01*
X010963Y017995D01*
X010948Y018010D01*
X010721Y018010D01*
X010634Y017923D01*
X010634Y017800D01*
X010686Y017748D01*
X010686Y017661D01*
X010668Y017643D01*
X010374Y017643D01*
X010287Y017557D01*
X010287Y017434D01*
X010374Y017347D01*
X010706Y017347D01*
X010759Y017399D01*
X010948Y017399D01*
X010963Y017414D01*
X010978Y017399D01*
X011101Y017399D01*
X011145Y017442D01*
X011188Y017399D01*
X011311Y017399D01*
X011352Y017441D01*
X011393Y017399D01*
X011621Y017399D01*
X011662Y017441D01*
X011703Y017399D01*
X012036Y017399D01*
X012077Y017441D01*
X012118Y017399D01*
X012241Y017399D01*
X012328Y017486D01*
X012328Y017556D01*
X012342Y017556D01*
X012342Y017486D01*
X012428Y017399D01*
X012551Y017399D01*
X012595Y017442D01*
X012638Y017399D01*
X012739Y017399D01*
X012791Y017347D01*
X013123Y017347D01*
X013191Y017414D01*
X013206Y017399D01*
X013433Y017399D01*
X013573Y017538D01*
X013573Y017808D01*
X013573Y017871D01*
X013520Y017923D01*
X013502Y017941D01*
X013433Y018010D01*
X013329Y018010D01*
X013319Y018010D01*
X013310Y018010D01*
X013310Y018010D01*
X013206Y018010D01*
X013206Y018010D01*
X013206Y018010D01*
X013135Y017939D01*
X013119Y017923D01*
X013119Y017923D01*
X013068Y017872D01*
X013067Y017871D01*
X013067Y017871D01*
X013067Y017810D01*
X013067Y017705D01*
X013067Y017643D01*
X012847Y017643D01*
X012847Y017923D01*
X012761Y018010D01*
X012638Y018010D01*
X012595Y017966D01*
X012551Y018010D01*
X012428Y018010D01*
X012342Y017923D01*
X012342Y017909D01*
X012241Y018010D01*
X012118Y018010D01*
X012077Y017968D01*
X012036Y018010D01*
X012070Y017976D02*
X012084Y017976D01*
X012275Y017976D02*
X012395Y017976D01*
X012585Y017976D02*
X012604Y017976D01*
X012795Y017976D02*
X013172Y017976D01*
X013075Y017879D02*
X012847Y017879D01*
X012847Y017782D02*
X013067Y017782D01*
X013067Y017685D02*
X012847Y017685D01*
X012744Y017394D02*
X010754Y017394D01*
X010686Y017685D02*
X010182Y017685D01*
X010226Y017782D02*
X010652Y017782D01*
X010634Y017879D02*
X010226Y017879D01*
X010166Y017976D02*
X010687Y017976D01*
X011135Y017976D02*
X011154Y017976D01*
X011498Y017976D02*
X011516Y017976D01*
X011136Y018751D02*
X010558Y018751D01*
X010461Y018654D02*
X016824Y018654D01*
X016889Y018557D02*
X015766Y018557D01*
X015856Y018460D02*
X016895Y018460D01*
X016992Y018364D02*
X015856Y018364D01*
X015843Y018267D02*
X017089Y018267D01*
X017186Y018170D02*
X015746Y018170D01*
X015659Y018073D02*
X017244Y018073D01*
X017244Y017976D02*
X016899Y017976D01*
X016996Y017879D02*
X017177Y017879D01*
X017175Y017782D02*
X016998Y017782D01*
X016993Y017685D02*
X017179Y017685D01*
X017276Y017588D02*
X016897Y017588D01*
X016771Y017783D02*
X016378Y017783D01*
X015984Y017389D01*
X015511Y017389D01*
X015275Y017626D01*
X015275Y017862D01*
X015433Y018019D01*
X015263Y018170D02*
X015018Y018170D01*
X014882Y018256D02*
X010000Y018256D01*
X010081Y018073D02*
X015206Y018073D01*
X015167Y017976D02*
X013467Y017976D01*
X013433Y018010D02*
X013433Y018010D01*
X013433Y018010D01*
X013329Y018010D02*
X013329Y018010D01*
X013520Y017923D02*
X013520Y017923D01*
X013564Y017879D02*
X014394Y017879D01*
X014418Y017903D02*
X014305Y017790D01*
X014244Y017643D01*
X014244Y017483D01*
X014305Y017335D01*
X014418Y017222D01*
X014565Y017161D01*
X014725Y017161D01*
X014873Y017222D01*
X014986Y017335D01*
X015047Y017483D01*
X015047Y017643D01*
X014986Y017790D01*
X014873Y017903D01*
X014725Y017964D01*
X014565Y017964D01*
X014418Y017903D01*
X014301Y017782D02*
X013573Y017782D01*
X013573Y017685D02*
X014261Y017685D01*
X014244Y017588D02*
X013573Y017588D01*
X013525Y017491D02*
X014244Y017491D01*
X014280Y017394D02*
X013171Y017394D01*
X013502Y017297D02*
X014343Y017297D01*
X014470Y017200D02*
X013669Y017200D01*
X013756Y017103D02*
X016008Y017103D01*
X015994Y017007D02*
X013843Y017007D01*
X013930Y016910D02*
X015994Y016910D01*
X016220Y016996D02*
X016260Y016956D01*
X016260Y016405D01*
X015984Y016130D01*
X015472Y016130D01*
X015246Y016134D02*
X013353Y016134D01*
X013348Y016140D02*
X013348Y016140D01*
X013348Y016140D01*
X013243Y016140D02*
X013243Y016140D01*
X013120Y016140D02*
X013120Y016140D01*
X013120Y016140D01*
X013115Y016134D02*
X012991Y016134D01*
X012985Y016140D02*
X012985Y016140D01*
X012985Y016140D01*
X012881Y016140D02*
X012881Y016140D01*
X012863Y016140D02*
X012863Y016140D01*
X012758Y016140D02*
X012758Y016140D01*
X012753Y016134D02*
X012318Y016134D01*
X012400Y016037D02*
X012656Y016037D01*
X012671Y016053D02*
X012671Y016053D01*
X012156Y016140D02*
X012156Y016140D01*
X012033Y016140D02*
X012033Y016140D01*
X012028Y016134D02*
X011956Y016134D01*
X011822Y016134D02*
X011746Y016134D01*
X011613Y016134D02*
X011178Y016134D01*
X011173Y016140D02*
X011173Y016140D01*
X011173Y016140D01*
X011260Y016053D02*
X011260Y016053D01*
X011275Y016037D02*
X011531Y016037D01*
X010945Y016140D02*
X010945Y016140D01*
X010945Y016140D01*
X010940Y016134D02*
X010763Y016134D01*
X010859Y016053D02*
X010859Y016053D01*
X010630Y016134D02*
X009970Y016134D01*
X009970Y016037D02*
X010533Y016037D01*
X010444Y015940D02*
X009970Y015940D01*
X010133Y015843D02*
X010444Y015843D01*
X010444Y015747D02*
X010226Y015747D01*
X010226Y015650D02*
X010444Y015650D01*
X010507Y015553D02*
X010215Y015553D01*
X010118Y015456D02*
X010504Y015456D01*
X010504Y015359D02*
X010185Y015359D01*
X010226Y015262D02*
X010504Y015262D01*
X010504Y015165D02*
X010226Y015165D01*
X010164Y015068D02*
X010504Y015068D01*
X009970Y016231D02*
X013674Y016231D01*
X013527Y016328D02*
X010125Y016328D01*
X010222Y016425D02*
X013440Y016425D01*
X013352Y016522D02*
X010226Y016522D01*
X010226Y017394D02*
X010327Y017394D01*
X010287Y017491D02*
X010218Y017491D01*
X010121Y017588D02*
X010319Y017588D01*
X010128Y018445D02*
X010128Y018445D01*
X010162Y018460D02*
X014864Y018460D01*
X015000Y018374D02*
X014882Y018256D01*
X015000Y018374D02*
X015630Y018374D01*
X015493Y018557D02*
X010368Y018557D01*
X010357Y018546D02*
X010357Y018546D01*
X010659Y018848D02*
X011076Y018848D01*
X011053Y018945D02*
X010789Y018945D01*
X011129Y018755D02*
X011129Y018755D01*
X012328Y017491D02*
X012342Y017491D01*
X013435Y016053D02*
X013435Y016053D01*
X013450Y016037D02*
X015246Y016037D01*
X015183Y015940D02*
X015341Y015940D01*
X015273Y015903D02*
X015125Y015964D01*
X014965Y015964D01*
X014818Y015903D01*
X014705Y015790D01*
X014645Y015647D01*
X014586Y015790D01*
X014473Y015903D01*
X014325Y015964D01*
X014165Y015964D01*
X014018Y015903D01*
X013905Y015790D01*
X013844Y015643D01*
X013844Y015483D01*
X013905Y015335D01*
X014018Y015222D01*
X014165Y015161D01*
X014325Y015161D01*
X014473Y015222D01*
X014586Y015335D01*
X014645Y015479D01*
X014705Y015335D01*
X014818Y015222D01*
X014965Y015161D01*
X015125Y015161D01*
X015273Y015222D01*
X015386Y015335D01*
X015447Y015483D01*
X015447Y015643D01*
X015386Y015790D01*
X015273Y015903D01*
X015333Y015843D02*
X016614Y015843D01*
X016614Y015940D02*
X015603Y015940D01*
X015404Y015747D02*
X016462Y015747D01*
X016365Y015650D02*
X015444Y015650D01*
X015447Y015553D02*
X016348Y015553D01*
X016348Y015456D02*
X015436Y015456D01*
X015396Y015359D02*
X015680Y015359D01*
X015639Y015262D02*
X015313Y015262D01*
X015135Y015165D02*
X015639Y015165D01*
X015702Y015068D02*
X013427Y015068D01*
X013427Y015165D02*
X014156Y015165D01*
X014335Y015165D02*
X014956Y015165D01*
X014778Y015262D02*
X014513Y015262D01*
X014596Y015359D02*
X014695Y015359D01*
X014655Y015456D02*
X014636Y015456D01*
X014644Y015650D02*
X014647Y015650D01*
X014687Y015747D02*
X014604Y015747D01*
X014533Y015843D02*
X014758Y015843D01*
X014908Y015940D02*
X014383Y015940D01*
X014108Y015940D02*
X013487Y015940D01*
X013487Y015843D02*
X013958Y015843D01*
X013887Y015747D02*
X013487Y015747D01*
X013468Y015650D02*
X013847Y015650D01*
X013844Y015553D02*
X013371Y015553D01*
X013427Y015456D02*
X013855Y015456D01*
X013895Y015359D02*
X013427Y015359D01*
X013427Y015262D02*
X013978Y015262D01*
X014821Y017200D02*
X016105Y017200D01*
X016115Y017297D02*
X017903Y017297D01*
X017903Y017200D02*
X016336Y017200D01*
X016432Y017103D02*
X017903Y017103D01*
X017903Y017007D02*
X016447Y017007D01*
X016447Y016910D02*
X017903Y016910D01*
X017903Y016813D02*
X016417Y016813D01*
X016417Y016716D02*
X017903Y016716D01*
X017903Y016619D02*
X016417Y016619D01*
X016417Y016522D02*
X017903Y016522D01*
X017903Y016425D02*
X017505Y016425D01*
X017602Y016328D02*
X017903Y016328D01*
X017903Y016231D02*
X017628Y016231D01*
X017628Y016134D02*
X017903Y016134D01*
X017903Y016037D02*
X017559Y016037D01*
X017559Y015940D02*
X017903Y015940D01*
X017903Y015843D02*
X017559Y015843D01*
X017517Y015747D02*
X017903Y015747D01*
X017903Y015650D02*
X017420Y015650D01*
X017323Y015553D02*
X017903Y015553D01*
X017903Y015456D02*
X017226Y015456D01*
X017129Y015359D02*
X017903Y015359D01*
X017903Y015262D02*
X017032Y015262D01*
X016935Y015165D02*
X017903Y015165D01*
X017903Y015068D02*
X016838Y015068D01*
X016771Y015224D02*
X015866Y015224D01*
X016574Y015539D02*
X016771Y015736D01*
X016771Y016208D01*
X016545Y016231D02*
X016308Y016231D01*
X016211Y016134D02*
X016545Y016134D01*
X016614Y016037D02*
X016114Y016037D01*
X016405Y016328D02*
X016571Y016328D01*
X016668Y016425D02*
X016417Y016425D01*
X016875Y016425D02*
X017298Y016425D01*
X017201Y016328D02*
X016972Y016328D01*
X016998Y016231D02*
X017175Y016231D01*
X017175Y016134D02*
X016998Y016134D01*
X016929Y016037D02*
X017244Y016037D01*
X017244Y015940D02*
X016929Y015940D01*
X016929Y015843D02*
X017168Y015843D01*
X017071Y015747D02*
X016929Y015747D01*
X016908Y015650D02*
X016974Y015650D01*
X016877Y015553D02*
X016811Y015553D01*
X016771Y015224D02*
X017401Y015854D01*
X017401Y016208D01*
X017903Y017394D02*
X016212Y017394D01*
X016308Y017491D02*
X017903Y017491D01*
X017903Y017588D02*
X017526Y017588D01*
X017623Y017685D02*
X017903Y017685D01*
X017903Y017782D02*
X017628Y017782D01*
X017626Y017879D02*
X017903Y017879D01*
X017903Y017976D02*
X017559Y017976D01*
X017559Y018073D02*
X017903Y018073D01*
X017903Y018170D02*
X017559Y018170D01*
X017534Y018267D02*
X017903Y018267D01*
X017903Y018364D02*
X017437Y018364D01*
X017340Y018460D02*
X017903Y018460D01*
X017903Y018557D02*
X017243Y018557D01*
X017270Y018654D02*
X017903Y018654D01*
X017903Y018751D02*
X017312Y018751D01*
X017313Y018848D02*
X017903Y018848D01*
X017903Y018945D02*
X017277Y018945D01*
X017047Y018807D02*
X017047Y018531D01*
X017401Y018177D01*
X017401Y017783D01*
X016646Y017588D02*
X016405Y017588D01*
X016154Y017782D02*
X015433Y017782D01*
X015439Y017685D02*
X016057Y017685D01*
X015960Y017588D02*
X015535Y017588D01*
X015612Y017879D02*
X016251Y017879D01*
X016644Y017976D02*
X015659Y017976D01*
X015118Y017879D02*
X014897Y017879D01*
X014989Y017782D02*
X015118Y017782D01*
X015118Y017685D02*
X015029Y017685D01*
X015047Y017588D02*
X015118Y017588D01*
X015187Y017491D02*
X015047Y017491D01*
X015010Y017394D02*
X015284Y017394D01*
X015381Y017297D02*
X014948Y017297D01*
X014000Y013049D02*
X012100Y013049D01*
X011824Y012773D01*
X011262Y012773D01*
X011129Y012850D01*
X011129Y012850D01*
X011129Y012850D01*
X011053Y012982D01*
X011053Y013049D01*
X010834Y013049D01*
X010794Y013042D01*
X010718Y013004D01*
X010695Y012983D01*
X010684Y012971D01*
X010652Y012935D01*
X010647Y012934D01*
X010443Y012730D01*
X010357Y012641D01*
X010357Y012641D01*
X010128Y012540D01*
X010128Y012540D01*
X010054Y012538D01*
X010053Y012537D01*
X010001Y012537D01*
X010001Y012537D01*
X010077Y012537D01*
X010107Y012507D01*
X014816Y012507D01*
X014934Y012626D01*
X015467Y012626D01*
X015536Y012694D01*
X015723Y012694D01*
X015856Y012562D01*
X015856Y012374D01*
X015723Y012242D01*
X015625Y012242D01*
X015659Y012208D01*
X015659Y012020D01*
X015527Y011887D01*
X015433Y011887D01*
X015433Y011785D01*
X015577Y011641D01*
X015919Y011641D01*
X016312Y012035D01*
X016609Y012035D01*
X016678Y012104D01*
X016865Y012104D01*
X016998Y011971D01*
X016998Y011784D01*
X016865Y011651D01*
X016678Y011651D01*
X016609Y011720D01*
X016443Y011720D01*
X016141Y011419D01*
X016049Y011326D01*
X015446Y011326D01*
X015210Y011563D01*
X015118Y011655D01*
X015118Y012022D01*
X015206Y012110D01*
X015206Y012208D01*
X015309Y012311D01*
X015065Y012311D01*
X015039Y012285D01*
X014947Y012193D01*
X010107Y012193D01*
X010077Y012163D01*
X009970Y012163D01*
X009970Y012143D01*
X010093Y012143D01*
X010226Y012011D01*
X010226Y011823D01*
X010103Y011700D01*
X010226Y011578D01*
X010226Y011395D01*
X013366Y011395D01*
X013375Y011398D01*
X013434Y011395D01*
X013493Y011395D01*
X013502Y011392D01*
X013511Y011391D01*
X013565Y011366D01*
X013620Y011343D01*
X013627Y011336D01*
X013635Y011332D01*
X013675Y011288D01*
X014487Y011288D01*
X014418Y011317D02*
X014565Y011255D01*
X014725Y011255D01*
X014873Y011317D01*
X014986Y011430D01*
X015047Y011577D01*
X015047Y011737D01*
X014986Y011885D01*
X014873Y011998D01*
X014725Y012059D01*
X014565Y012059D01*
X014418Y011998D01*
X014305Y011885D01*
X014244Y011737D01*
X014244Y011577D01*
X014305Y011430D01*
X014418Y011317D01*
X014349Y011385D02*
X013525Y011385D01*
X013433Y011494D02*
X013486Y011546D01*
X013573Y011633D01*
X013573Y011903D01*
X013573Y011965D01*
X013520Y012017D01*
X013520Y012017D01*
X013502Y012036D01*
X013433Y012104D01*
X013329Y012104D01*
X013329Y012104D01*
X013319Y012104D01*
X013310Y012104D01*
X013206Y012104D01*
X013135Y012034D01*
X013119Y012017D01*
X013068Y011966D01*
X013067Y011965D01*
X013067Y011965D01*
X013067Y011904D01*
X013067Y011800D01*
X013067Y011738D01*
X012847Y011738D01*
X012847Y012017D01*
X012761Y012104D01*
X012638Y012104D01*
X012595Y012061D01*
X012551Y012104D01*
X012428Y012104D01*
X012342Y012017D01*
X012342Y012004D01*
X012241Y012104D01*
X012118Y012104D01*
X012077Y012063D01*
X012036Y012104D01*
X011703Y012104D01*
X011688Y012089D01*
X011673Y012104D01*
X011550Y012104D01*
X011507Y012061D01*
X011464Y012104D01*
X011341Y012104D01*
X011326Y012089D01*
X011311Y012104D01*
X011188Y012104D01*
X011145Y012061D01*
X011101Y012104D01*
X010978Y012104D01*
X010963Y012089D01*
X010948Y012104D01*
X010721Y012104D01*
X010634Y012017D01*
X010634Y011895D01*
X010686Y011842D01*
X010686Y011756D01*
X010668Y011738D01*
X010374Y011738D01*
X010287Y011651D01*
X010287Y011528D01*
X010374Y011441D01*
X010706Y011441D01*
X010759Y011494D01*
X010948Y011494D01*
X010963Y011509D01*
X010978Y011494D01*
X011101Y011494D01*
X011145Y011537D01*
X011188Y011494D01*
X011311Y011494D01*
X011352Y011535D01*
X011393Y011494D01*
X011621Y011494D01*
X011662Y011535D01*
X011703Y011494D01*
X012036Y011494D01*
X012077Y011535D01*
X012118Y011494D01*
X012241Y011494D01*
X012328Y011581D01*
X012328Y011651D01*
X012342Y011651D01*
X012342Y011581D01*
X012428Y011494D01*
X012551Y011494D01*
X012595Y011537D01*
X012638Y011494D01*
X012739Y011494D01*
X012791Y011441D01*
X013123Y011441D01*
X013191Y011509D01*
X013206Y011494D01*
X013433Y011494D01*
X013518Y011579D02*
X014244Y011579D01*
X014244Y011676D02*
X013573Y011676D01*
X013573Y011773D02*
X014258Y011773D01*
X014299Y011870D02*
X013573Y011870D01*
X013571Y011966D02*
X014387Y011966D01*
X014904Y011966D02*
X015118Y011966D01*
X015118Y011870D02*
X014992Y011870D01*
X015032Y011773D02*
X015118Y011773D01*
X015118Y011676D02*
X015047Y011676D01*
X015047Y011579D02*
X015194Y011579D01*
X015291Y011482D02*
X015008Y011482D01*
X014941Y011385D02*
X015388Y011385D01*
X015511Y011484D02*
X015275Y011720D01*
X015275Y011956D01*
X015433Y012114D01*
X015606Y011966D02*
X016244Y011966D01*
X016147Y011870D02*
X015433Y011870D01*
X015445Y011773D02*
X016050Y011773D01*
X015953Y011676D02*
X015542Y011676D01*
X015511Y011484D02*
X015984Y011484D01*
X016378Y011878D01*
X016771Y011878D01*
X016998Y011870D02*
X017175Y011870D01*
X017175Y011784D02*
X017307Y011651D01*
X017495Y011651D01*
X017628Y011784D01*
X017628Y011971D01*
X017559Y012040D01*
X017559Y012336D01*
X017466Y012429D01*
X017208Y012687D01*
X017272Y012751D01*
X017313Y012848D01*
X017313Y012954D01*
X017274Y013048D01*
X017903Y013048D01*
X017903Y009133D01*
X016000Y009133D01*
X016028Y009161D01*
X016837Y009161D01*
X016929Y009253D01*
X017559Y009883D01*
X017559Y010140D01*
X017628Y010209D01*
X017628Y010397D01*
X017495Y010529D01*
X017307Y010529D01*
X017175Y010397D01*
X017175Y010209D01*
X017244Y010140D01*
X017244Y010014D01*
X016801Y009571D01*
X016801Y009637D01*
X016929Y009765D01*
X016929Y010140D01*
X016998Y010209D01*
X016998Y010397D01*
X016865Y010529D01*
X016678Y010529D01*
X016545Y010397D01*
X016545Y010209D01*
X016614Y010140D01*
X016614Y009896D01*
X016578Y009860D01*
X016481Y009860D01*
X016348Y009727D01*
X016348Y009540D01*
X016412Y009476D01*
X016028Y009476D01*
X015960Y009545D01*
X015772Y009545D01*
X015639Y009412D01*
X015639Y009225D01*
X015731Y009133D01*
X014001Y009133D01*
X014000Y009131D01*
X013427Y009131D01*
X013427Y009557D01*
X013354Y009630D01*
X013435Y009710D01*
X013487Y009763D01*
X013487Y010034D01*
X013487Y010095D01*
X013486Y010096D01*
X013435Y010147D01*
X013435Y010147D01*
X013419Y010164D01*
X013348Y010234D01*
X013348Y010234D01*
X013348Y010234D01*
X013243Y010234D01*
X013235Y010234D01*
X013225Y010234D01*
X013120Y010234D01*
X013053Y010167D01*
X012985Y010234D01*
X012881Y010234D01*
X012881Y010234D01*
X012863Y010234D01*
X012758Y010234D01*
X012689Y010166D01*
X012671Y010147D01*
X012619Y010095D01*
X012619Y010077D01*
X012400Y010077D01*
X012400Y010147D01*
X012313Y010234D01*
X012156Y010234D01*
X012156Y010234D01*
X012094Y010234D01*
X012033Y010234D01*
X011992Y010193D01*
X011950Y010234D01*
X011827Y010234D01*
X011784Y010191D01*
X011741Y010234D01*
X011618Y010234D01*
X011531Y010147D01*
X011531Y010077D01*
X011312Y010077D01*
X011312Y010095D01*
X011311Y010096D01*
X011260Y010147D01*
X011243Y010164D01*
X011173Y010234D01*
X011173Y010234D01*
X011173Y010234D01*
X011068Y010234D01*
X011060Y010234D01*
X011050Y010234D01*
X010945Y010234D01*
X010877Y010166D01*
X010859Y010147D01*
X010852Y010140D01*
X010758Y010234D01*
X010635Y010234D01*
X010634Y010233D01*
X010548Y010147D01*
X010531Y010129D01*
X010444Y010043D01*
X010444Y009710D01*
X010531Y009624D01*
X010571Y009624D01*
X010504Y009557D01*
X010504Y009131D01*
X010133Y009131D01*
X010226Y009225D01*
X010226Y009412D01*
X010103Y009535D01*
X010226Y009658D01*
X010226Y009845D01*
X010093Y009978D01*
X009970Y009978D01*
X009970Y010391D01*
X010093Y010391D01*
X010226Y010524D01*
X010226Y010706D01*
X013271Y010706D01*
X013484Y010471D01*
X013487Y010462D01*
X013529Y010420D01*
X013569Y010376D01*
X013577Y010372D01*
X013584Y010365D01*
X013639Y010342D01*
X013693Y010317D01*
X013702Y010316D01*
X013711Y010313D01*
X013770Y010313D01*
X013830Y010309D01*
X013838Y010313D01*
X015246Y010313D01*
X015246Y010130D01*
X015378Y009998D01*
X015566Y009998D01*
X015635Y010067D01*
X016049Y010067D01*
X016325Y010342D01*
X016417Y010434D01*
X016417Y010967D01*
X016447Y010996D01*
X016447Y011184D01*
X016314Y011317D01*
X016126Y011317D01*
X015994Y011184D01*
X015994Y010996D01*
X015999Y010991D01*
X015974Y011002D01*
X013933Y011002D01*
X013720Y011237D01*
X013717Y011246D01*
X013675Y011288D01*
X013762Y011191D02*
X016001Y011191D01*
X015994Y011094D02*
X013849Y011094D01*
X014283Y011482D02*
X013164Y011482D01*
X013067Y011773D02*
X012847Y011773D01*
X012847Y011870D02*
X013067Y011870D01*
X013068Y011966D02*
X012847Y011966D01*
X012801Y012063D02*
X013165Y012063D01*
X013206Y012104D02*
X013206Y012104D01*
X013206Y012104D01*
X013310Y012104D02*
X013310Y012104D01*
X013433Y012104D02*
X013433Y012104D01*
X013433Y012104D01*
X013474Y012063D02*
X015160Y012063D01*
X015206Y012160D02*
X009970Y012160D01*
X010000Y012350D02*
X014882Y012350D01*
X015000Y012468D01*
X015630Y012468D01*
X015856Y012451D02*
X016999Y012451D01*
X017096Y012354D02*
X015836Y012354D01*
X015739Y012257D02*
X017193Y012257D01*
X017244Y012206D02*
X017244Y012040D01*
X017175Y011971D01*
X017175Y011784D01*
X017186Y011773D02*
X016986Y011773D01*
X016890Y011676D02*
X017283Y011676D01*
X017401Y011878D02*
X017401Y012271D01*
X017047Y012626D01*
X017047Y012901D01*
X017280Y013033D02*
X017903Y013033D01*
X017903Y012936D02*
X017313Y012936D01*
X017309Y012839D02*
X017903Y012839D01*
X017903Y012742D02*
X017263Y012742D01*
X017250Y012645D02*
X017903Y012645D01*
X017903Y012548D02*
X017347Y012548D01*
X017444Y012451D02*
X017903Y012451D01*
X017903Y012354D02*
X017541Y012354D01*
X017559Y012257D02*
X017903Y012257D01*
X017903Y012160D02*
X017559Y012160D01*
X017559Y012063D02*
X017903Y012063D01*
X017903Y011966D02*
X017628Y011966D01*
X017628Y011870D02*
X017903Y011870D01*
X017903Y011773D02*
X017616Y011773D01*
X017519Y011676D02*
X017903Y011676D01*
X017903Y011579D02*
X016302Y011579D01*
X016398Y011676D02*
X016653Y011676D01*
X016637Y012063D02*
X015659Y012063D01*
X015659Y012160D02*
X017244Y012160D01*
X017244Y012206D02*
X016889Y012560D01*
X016889Y012683D01*
X016822Y012751D01*
X016781Y012848D01*
X016781Y012954D01*
X016820Y013048D01*
X014001Y013048D01*
X014000Y013049D01*
X014857Y012548D02*
X010146Y012548D01*
X010361Y012645D02*
X015486Y012645D01*
X015773Y012645D02*
X016889Y012645D01*
X016902Y012548D02*
X015856Y012548D01*
X015256Y012257D02*
X015011Y012257D01*
X014804Y011288D02*
X016098Y011288D01*
X016108Y011385D02*
X017903Y011385D01*
X017903Y011482D02*
X016205Y011482D01*
X016342Y011288D02*
X017903Y011288D01*
X017903Y011191D02*
X016439Y011191D01*
X016447Y011094D02*
X017903Y011094D01*
X017903Y010997D02*
X016447Y010997D01*
X016417Y010900D02*
X017903Y010900D01*
X017903Y010803D02*
X016417Y010803D01*
X016417Y010706D02*
X017903Y010706D01*
X017903Y010609D02*
X016417Y010609D01*
X016417Y010513D02*
X016661Y010513D01*
X016564Y010416D02*
X016398Y010416D01*
X016301Y010319D02*
X016545Y010319D01*
X016545Y010222D02*
X016204Y010222D01*
X016107Y010125D02*
X016614Y010125D01*
X016614Y010028D02*
X015596Y010028D01*
X015472Y010224D02*
X015984Y010224D01*
X016260Y010500D01*
X016260Y011051D01*
X016220Y011090D01*
X015994Y010997D02*
X015984Y010997D01*
X016882Y010513D02*
X017291Y010513D01*
X017194Y010416D02*
X016979Y010416D01*
X016998Y010319D02*
X017175Y010319D01*
X017175Y010222D02*
X016998Y010222D01*
X016929Y010125D02*
X017244Y010125D01*
X017244Y010028D02*
X016929Y010028D01*
X016929Y009931D02*
X017161Y009931D01*
X017064Y009834D02*
X016929Y009834D01*
X016901Y009737D02*
X016967Y009737D01*
X016870Y009640D02*
X016804Y009640D01*
X016771Y009830D02*
X016574Y009633D01*
X016348Y009640D02*
X015447Y009640D01*
X015447Y009577D02*
X015386Y009430D01*
X015273Y009317D01*
X015125Y009255D01*
X014965Y009255D01*
X014818Y009317D01*
X014705Y009430D01*
X014645Y009573D01*
X014586Y009430D01*
X014473Y009317D01*
X014325Y009255D01*
X014165Y009255D01*
X014018Y009317D01*
X013905Y009430D01*
X013844Y009577D01*
X013844Y009737D01*
X013461Y009737D01*
X013487Y009834D02*
X013884Y009834D01*
X013905Y009885D02*
X013844Y009737D01*
X013844Y009640D02*
X013365Y009640D01*
X013427Y009543D02*
X013858Y009543D01*
X013898Y009446D02*
X013427Y009446D01*
X013427Y009349D02*
X013985Y009349D01*
X013427Y009253D02*
X015639Y009253D01*
X015639Y009349D02*
X015306Y009349D01*
X015393Y009446D02*
X015674Y009446D01*
X015770Y009543D02*
X015433Y009543D01*
X015447Y009577D02*
X015447Y009737D01*
X015386Y009885D01*
X015273Y009998D01*
X015125Y010059D01*
X014965Y010059D01*
X014818Y009998D01*
X014705Y009885D01*
X014645Y009741D01*
X014586Y009885D01*
X014473Y009998D01*
X014325Y010059D01*
X014165Y010059D01*
X014018Y009998D01*
X013905Y009885D01*
X013951Y009931D02*
X013487Y009931D01*
X013487Y010028D02*
X014091Y010028D01*
X014400Y010028D02*
X014891Y010028D01*
X014751Y009931D02*
X014540Y009931D01*
X014607Y009834D02*
X014684Y009834D01*
X014658Y009543D02*
X014633Y009543D01*
X014593Y009446D02*
X014698Y009446D01*
X014785Y009349D02*
X014506Y009349D01*
X015200Y010028D02*
X015348Y010028D01*
X015340Y009931D02*
X016614Y009931D01*
X016455Y009834D02*
X015407Y009834D01*
X015447Y009737D02*
X016358Y009737D01*
X016348Y009543D02*
X015961Y009543D01*
X015866Y009319D02*
X016771Y009319D01*
X017401Y009948D01*
X017401Y010303D01*
X017628Y010319D02*
X017903Y010319D01*
X017903Y010416D02*
X017609Y010416D01*
X017512Y010513D02*
X017903Y010513D01*
X017903Y010222D02*
X017628Y010222D01*
X017559Y010125D02*
X017903Y010125D01*
X017903Y010028D02*
X017559Y010028D01*
X017559Y009931D02*
X017903Y009931D01*
X017903Y009834D02*
X017510Y009834D01*
X017413Y009737D02*
X017903Y009737D01*
X017903Y009640D02*
X017316Y009640D01*
X017219Y009543D02*
X017903Y009543D01*
X017903Y009446D02*
X017122Y009446D01*
X017025Y009349D02*
X017903Y009349D01*
X017903Y009253D02*
X016928Y009253D01*
X016771Y009830D02*
X016771Y010303D01*
X016023Y009156D02*
X017903Y009156D01*
X015709Y009156D02*
X013427Y009156D01*
X013487Y010095D02*
X013487Y010095D01*
X013457Y010125D02*
X015251Y010125D01*
X015246Y010222D02*
X013360Y010222D01*
X013243Y010234D02*
X013243Y010234D01*
X013225Y010234D02*
X013225Y010234D01*
X013120Y010234D02*
X013120Y010234D01*
X013120Y010234D01*
X013108Y010222D02*
X012998Y010222D01*
X012985Y010234D02*
X012985Y010234D01*
X012985Y010234D01*
X012863Y010234D02*
X012863Y010234D01*
X012758Y010234D02*
X012758Y010234D01*
X012758Y010234D01*
X012746Y010222D02*
X012325Y010222D01*
X012400Y010125D02*
X012649Y010125D01*
X012671Y010147D02*
X012671Y010147D01*
X012033Y010234D02*
X012033Y010234D01*
X012033Y010234D01*
X012021Y010222D02*
X011963Y010222D01*
X011815Y010222D02*
X011753Y010222D01*
X011606Y010222D02*
X011185Y010222D01*
X011260Y010147D02*
X011260Y010147D01*
X011282Y010125D02*
X011531Y010125D01*
X011312Y010095D02*
X011312Y010095D01*
X011068Y010234D02*
X011068Y010234D01*
X011050Y010234D02*
X011050Y010234D01*
X010945Y010234D02*
X010945Y010234D01*
X010945Y010234D01*
X010933Y010222D02*
X010770Y010222D01*
X010859Y010147D02*
X010859Y010147D01*
X010623Y010222D02*
X009970Y010222D01*
X009970Y010319D02*
X013688Y010319D01*
X013533Y010416D02*
X010118Y010416D01*
X010215Y010513D02*
X013446Y010513D01*
X013359Y010609D02*
X010226Y010609D01*
X009970Y010125D02*
X010526Y010125D01*
X010548Y010147D02*
X010548Y010147D01*
X010444Y010028D02*
X009970Y010028D01*
X010140Y009931D02*
X010444Y009931D01*
X010444Y009834D02*
X010226Y009834D01*
X010226Y009737D02*
X010444Y009737D01*
X010514Y009640D02*
X010208Y009640D01*
X010112Y009543D02*
X010504Y009543D01*
X010504Y009446D02*
X010192Y009446D01*
X010226Y009349D02*
X010504Y009349D01*
X010504Y009253D02*
X010226Y009253D01*
X010157Y009156D02*
X010504Y009156D01*
X010334Y011482D02*
X010226Y011482D01*
X010225Y011579D02*
X010287Y011579D01*
X010312Y011676D02*
X010128Y011676D01*
X010175Y011773D02*
X010686Y011773D01*
X010659Y011870D02*
X010226Y011870D01*
X010226Y011966D02*
X010634Y011966D01*
X010680Y012063D02*
X010173Y012063D01*
X010454Y012742D02*
X016830Y012742D01*
X016785Y012839D02*
X011890Y012839D01*
X011987Y012936D02*
X016781Y012936D01*
X016814Y013033D02*
X012084Y013033D01*
X011148Y012839D02*
X010551Y012839D01*
X010653Y012936D02*
X011080Y012936D01*
X011053Y013033D02*
X010775Y013033D01*
X011142Y012063D02*
X011147Y012063D01*
X011505Y012063D02*
X011509Y012063D01*
X012076Y012063D02*
X012077Y012063D01*
X012282Y012063D02*
X012388Y012063D01*
X012592Y012063D02*
X012597Y012063D01*
X013119Y012017D02*
X013119Y012017D01*
X012751Y011482D02*
X010747Y011482D01*
X012326Y011579D02*
X012343Y011579D01*
X016906Y012063D02*
X017244Y012063D01*
X017175Y011966D02*
X016998Y011966D01*
X022569Y012143D02*
X022569Y012163D01*
X022676Y012163D01*
X022705Y012193D01*
X027545Y012193D01*
X027637Y012285D01*
X027663Y012311D01*
X027908Y012311D01*
X027805Y012208D01*
X027805Y012110D01*
X027716Y012022D01*
X027716Y011655D01*
X027808Y011563D01*
X027952Y011419D01*
X028045Y011326D01*
X028648Y011326D01*
X028740Y011419D01*
X029041Y011720D01*
X029207Y011720D01*
X029276Y011651D01*
X029464Y011651D01*
X029596Y011784D01*
X029596Y011971D01*
X029464Y012104D01*
X029276Y012104D01*
X029207Y012035D01*
X028911Y012035D01*
X028517Y011641D01*
X028175Y011641D01*
X028031Y011785D01*
X028031Y011887D01*
X028125Y011887D01*
X028258Y012020D01*
X028258Y012208D01*
X028223Y012242D01*
X028322Y012242D01*
X028454Y012374D01*
X028454Y012562D01*
X028322Y012694D01*
X028134Y012694D01*
X028065Y012626D01*
X027533Y012626D01*
X027415Y012507D01*
X022705Y012507D01*
X022676Y012537D01*
X022599Y012537D01*
X022599Y012537D01*
X022651Y012537D01*
X022652Y012538D01*
X022726Y012540D01*
X022955Y012641D01*
X022955Y012641D01*
X023041Y012730D01*
X023245Y012934D01*
X023251Y012935D01*
X023282Y012971D01*
X023294Y012983D01*
X023316Y013004D01*
X023392Y013042D01*
X023432Y013049D01*
X023651Y013049D01*
X023651Y012982D01*
X023728Y012850D01*
X023860Y012773D01*
X024423Y012773D01*
X024698Y013049D01*
X026598Y013049D01*
X026600Y013048D01*
X029418Y013048D01*
X029380Y012954D01*
X029380Y012848D01*
X029420Y012751D01*
X029488Y012683D01*
X029488Y012560D01*
X029842Y012206D01*
X029842Y012040D01*
X029773Y011971D01*
X029773Y011784D01*
X029906Y011651D01*
X030093Y011651D01*
X030226Y011784D01*
X030226Y011971D01*
X030157Y012040D01*
X030157Y012336D01*
X030065Y012429D01*
X029807Y012687D01*
X029871Y012751D01*
X029911Y012848D01*
X029911Y012954D01*
X029872Y013048D01*
X030502Y013048D01*
X030502Y009133D01*
X028599Y009133D01*
X028627Y009161D01*
X029435Y009161D01*
X029527Y009253D01*
X030157Y009883D01*
X030157Y010140D01*
X030226Y010209D01*
X030226Y010397D01*
X030093Y010529D01*
X029906Y010529D01*
X029773Y010397D01*
X029773Y010209D01*
X029842Y010140D01*
X029842Y010014D01*
X029399Y009571D01*
X029399Y009637D01*
X029527Y009765D01*
X029527Y010140D01*
X029596Y010209D01*
X029596Y010397D01*
X029464Y010529D01*
X029276Y010529D01*
X029143Y010397D01*
X029143Y010209D01*
X029212Y010140D01*
X029212Y009896D01*
X029177Y009860D01*
X029079Y009860D01*
X028947Y009727D01*
X028947Y009540D01*
X029010Y009476D01*
X028627Y009476D01*
X028558Y009545D01*
X028370Y009545D01*
X028238Y009412D01*
X028238Y009225D01*
X028330Y009133D01*
X026600Y009133D01*
X026598Y009131D01*
X026025Y009131D01*
X026025Y009557D01*
X025952Y009630D01*
X026033Y009710D01*
X026086Y009763D01*
X026086Y010034D01*
X026086Y010095D01*
X026085Y010096D01*
X026033Y010147D01*
X026033Y010147D01*
X025981Y010200D01*
X025946Y010234D01*
X025842Y010234D01*
X025781Y010234D01*
X025719Y010234D01*
X025719Y010234D01*
X025719Y010234D01*
X025651Y010167D01*
X025584Y010234D01*
X025584Y010234D01*
X025584Y010234D01*
X025479Y010234D01*
X025479Y010234D01*
X025471Y010234D01*
X025461Y010234D01*
X025356Y010234D01*
X025288Y010166D01*
X025270Y010147D01*
X025217Y010095D01*
X025217Y010077D01*
X024998Y010077D01*
X024998Y010147D01*
X024911Y010234D01*
X024754Y010234D01*
X024692Y010234D01*
X024631Y010234D01*
X024590Y010193D01*
X024549Y010234D01*
X024426Y010234D01*
X024383Y010191D01*
X024339Y010234D01*
X024217Y010234D01*
X024130Y010147D01*
X024130Y010077D01*
X023910Y010077D01*
X023910Y010095D01*
X023909Y010096D01*
X023858Y010147D01*
X023858Y010147D01*
X023842Y010164D01*
X023771Y010234D01*
X023711Y010234D01*
X023667Y010234D01*
X023648Y010234D01*
X023606Y010234D01*
X023544Y010234D01*
X023544Y010234D01*
X023544Y010234D01*
X023475Y010166D01*
X023457Y010147D01*
X023450Y010140D01*
X023356Y010234D01*
X023234Y010234D01*
X023232Y010233D01*
X023147Y010147D01*
X023129Y010129D01*
X023042Y010043D01*
X023042Y009710D01*
X023129Y009624D01*
X023169Y009624D01*
X023103Y009557D01*
X023103Y009131D01*
X022731Y009131D01*
X022824Y009225D01*
X022824Y009412D01*
X022702Y009535D01*
X022824Y009658D01*
X022824Y009845D01*
X022692Y009978D01*
X022569Y009978D01*
X022569Y010391D01*
X022692Y010391D01*
X022824Y010524D01*
X022824Y010706D01*
X025870Y010706D01*
X026082Y010471D01*
X026086Y010462D01*
X026128Y010420D01*
X026167Y010376D01*
X026176Y010372D01*
X026182Y010365D01*
X026237Y010342D01*
X026291Y010317D01*
X026300Y010316D01*
X026309Y010313D01*
X026369Y010313D01*
X026428Y010309D01*
X026437Y010313D01*
X027844Y010313D01*
X027844Y010130D01*
X027977Y009998D01*
X028164Y009998D01*
X028233Y010067D01*
X028648Y010067D01*
X028923Y010342D01*
X029015Y010434D01*
X029015Y010967D01*
X029045Y010996D01*
X029045Y011184D01*
X028912Y011317D01*
X028725Y011317D01*
X028592Y011184D01*
X028592Y010996D01*
X028598Y010991D01*
X028572Y011002D01*
X026531Y011002D01*
X026319Y011237D01*
X026315Y011246D01*
X026273Y011288D01*
X026234Y011332D01*
X026225Y011336D01*
X026218Y011343D01*
X026163Y011366D01*
X026110Y011391D01*
X026100Y011392D01*
X026092Y011395D01*
X026032Y011395D01*
X025973Y011398D01*
X025964Y011395D01*
X022824Y011395D01*
X022824Y011578D01*
X022702Y011700D01*
X022824Y011823D01*
X022824Y012011D01*
X022692Y012143D01*
X022569Y012143D01*
X022569Y012160D02*
X027805Y012160D01*
X027758Y012063D02*
X026073Y012063D01*
X026100Y012036D02*
X026032Y012104D01*
X026032Y012104D01*
X026032Y012104D01*
X025927Y012104D01*
X025927Y012104D01*
X025917Y012104D01*
X025909Y012104D01*
X025804Y012104D01*
X025734Y012034D01*
X025717Y012017D01*
X025666Y011966D01*
X025665Y011965D01*
X025665Y011904D01*
X025665Y011800D01*
X025665Y011738D01*
X025446Y011738D01*
X025446Y012017D01*
X025359Y012104D01*
X025236Y012104D01*
X025193Y012061D01*
X025150Y012104D01*
X025027Y012104D01*
X024940Y012017D01*
X024940Y012004D01*
X024840Y012104D01*
X024717Y012104D01*
X024675Y012063D01*
X024676Y012063D01*
X024675Y012063D02*
X024634Y012104D01*
X024302Y012104D01*
X024287Y012089D01*
X024272Y012104D01*
X024149Y012104D01*
X024105Y012061D01*
X024062Y012104D01*
X023939Y012104D01*
X023924Y012089D01*
X023909Y012104D01*
X023786Y012104D01*
X023743Y012061D01*
X023700Y012104D01*
X023577Y012104D01*
X023562Y012089D01*
X023546Y012104D01*
X023319Y012104D01*
X023232Y012017D01*
X023232Y011895D01*
X023284Y011842D01*
X023284Y011756D01*
X023267Y011738D01*
X022973Y011738D01*
X022886Y011651D01*
X022886Y011528D01*
X022973Y011441D01*
X023305Y011441D01*
X023357Y011494D01*
X023546Y011494D01*
X023562Y011509D01*
X023577Y011494D01*
X023700Y011494D01*
X023743Y011537D01*
X023786Y011494D01*
X023909Y011494D01*
X023950Y011535D01*
X023992Y011494D01*
X024219Y011494D01*
X024261Y011535D01*
X024302Y011494D01*
X024634Y011494D01*
X024675Y011535D01*
X024717Y011494D01*
X024840Y011494D01*
X024926Y011581D01*
X024926Y011651D01*
X024940Y011651D01*
X024940Y011581D01*
X025027Y011494D01*
X025150Y011494D01*
X025193Y011537D01*
X025236Y011494D01*
X025337Y011494D01*
X025389Y011441D01*
X025722Y011441D01*
X025789Y011509D01*
X025804Y011494D01*
X026032Y011494D01*
X026171Y011633D01*
X026171Y011903D01*
X026171Y011965D01*
X026119Y012017D01*
X026100Y012036D01*
X026119Y012017D02*
X026119Y012017D01*
X026170Y011966D02*
X026985Y011966D01*
X027016Y011998D02*
X026903Y011885D01*
X026842Y011737D01*
X026842Y011577D01*
X026903Y011430D01*
X027016Y011317D01*
X027164Y011255D01*
X027324Y011255D01*
X027471Y011317D01*
X027584Y011430D01*
X027645Y011577D01*
X027645Y011737D01*
X027584Y011885D01*
X027471Y011998D01*
X027324Y012059D01*
X027164Y012059D01*
X027016Y011998D01*
X026897Y011870D02*
X026171Y011870D01*
X026171Y011773D02*
X026857Y011773D01*
X026842Y011676D02*
X026171Y011676D01*
X026117Y011579D02*
X026842Y011579D01*
X026882Y011482D02*
X025762Y011482D01*
X025665Y011773D02*
X025446Y011773D01*
X025446Y011870D02*
X025665Y011870D01*
X025665Y011965D02*
X025665Y011965D01*
X025666Y011966D02*
X025446Y011966D01*
X025400Y012063D02*
X025763Y012063D01*
X025804Y012104D02*
X025804Y012104D01*
X025804Y012104D01*
X025909Y012104D02*
X025909Y012104D01*
X025717Y012017D02*
X025717Y012017D01*
X025195Y012063D02*
X025191Y012063D01*
X024986Y012063D02*
X024880Y012063D01*
X024925Y011579D02*
X024942Y011579D01*
X025349Y011482D02*
X023345Y011482D01*
X023284Y011773D02*
X022774Y011773D01*
X022726Y011676D02*
X022910Y011676D01*
X022886Y011579D02*
X022823Y011579D01*
X022824Y011482D02*
X022932Y011482D01*
X022824Y011870D02*
X023257Y011870D01*
X023232Y011966D02*
X022824Y011966D01*
X022772Y012063D02*
X023278Y012063D01*
X022959Y012645D02*
X028085Y012645D01*
X028228Y012468D02*
X027598Y012468D01*
X027480Y012350D01*
X022598Y012350D01*
X022726Y012540D02*
X022726Y012540D01*
X022745Y012548D02*
X027455Y012548D01*
X027610Y012257D02*
X027854Y012257D01*
X028031Y012114D02*
X027874Y011956D01*
X027874Y011720D01*
X028110Y011484D01*
X028582Y011484D01*
X028976Y011878D01*
X029370Y011878D01*
X029596Y011870D02*
X029773Y011870D01*
X029773Y011966D02*
X029596Y011966D01*
X029504Y012063D02*
X029842Y012063D01*
X029842Y012160D02*
X028258Y012160D01*
X028258Y012063D02*
X029235Y012063D01*
X029252Y011676D02*
X028997Y011676D01*
X028900Y011579D02*
X030502Y011579D01*
X030502Y011676D02*
X030118Y011676D01*
X030215Y011773D02*
X030502Y011773D01*
X030502Y011870D02*
X030226Y011870D01*
X030226Y011966D02*
X030502Y011966D01*
X030502Y012063D02*
X030157Y012063D01*
X030157Y012160D02*
X030502Y012160D01*
X030502Y012257D02*
X030157Y012257D01*
X030140Y012354D02*
X030502Y012354D01*
X030502Y012451D02*
X030043Y012451D01*
X029946Y012548D02*
X030502Y012548D01*
X030502Y012645D02*
X029849Y012645D01*
X029862Y012742D02*
X030502Y012742D01*
X030502Y012839D02*
X029907Y012839D01*
X029911Y012936D02*
X030502Y012936D01*
X030502Y013033D02*
X029879Y013033D01*
X029645Y012901D02*
X029645Y012626D01*
X030000Y012271D01*
X030000Y011878D01*
X029881Y011676D02*
X029488Y011676D01*
X029585Y011773D02*
X029785Y011773D01*
X029791Y012257D02*
X028337Y012257D01*
X028434Y012354D02*
X029694Y012354D01*
X029597Y012451D02*
X028454Y012451D01*
X028454Y012548D02*
X029500Y012548D01*
X029488Y012645D02*
X028371Y012645D01*
X028204Y011966D02*
X028842Y011966D01*
X028745Y011870D02*
X028031Y011870D01*
X028044Y011773D02*
X028648Y011773D01*
X028551Y011676D02*
X028141Y011676D01*
X027889Y011482D02*
X027606Y011482D01*
X027645Y011579D02*
X027792Y011579D01*
X027716Y011676D02*
X027645Y011676D01*
X027631Y011773D02*
X027716Y011773D01*
X027716Y011870D02*
X027591Y011870D01*
X027503Y011966D02*
X027716Y011966D01*
X027952Y011419D02*
X027952Y011419D01*
X027986Y011385D02*
X027540Y011385D01*
X027402Y011288D02*
X028696Y011288D01*
X028706Y011385D02*
X030502Y011385D01*
X030502Y011482D02*
X028803Y011482D01*
X028941Y011288D02*
X030502Y011288D01*
X030502Y011191D02*
X029038Y011191D01*
X029045Y011094D02*
X030502Y011094D01*
X030502Y010997D02*
X029045Y010997D01*
X029015Y010900D02*
X030502Y010900D01*
X030502Y010803D02*
X029015Y010803D01*
X029015Y010706D02*
X030502Y010706D01*
X030502Y010609D02*
X029015Y010609D01*
X029015Y010513D02*
X029259Y010513D01*
X029162Y010416D02*
X028997Y010416D01*
X028900Y010319D02*
X029143Y010319D01*
X029143Y010222D02*
X028803Y010222D01*
X028706Y010125D02*
X029212Y010125D01*
X029212Y010028D02*
X028195Y010028D01*
X028071Y010224D02*
X028582Y010224D01*
X028858Y010500D01*
X028858Y011051D01*
X028819Y011090D01*
X028592Y011094D02*
X026448Y011094D01*
X026361Y011191D02*
X028599Y011191D01*
X028583Y010997D02*
X028592Y010997D01*
X029480Y010513D02*
X029889Y010513D01*
X029792Y010416D02*
X029577Y010416D01*
X029596Y010319D02*
X029773Y010319D01*
X029773Y010222D02*
X029596Y010222D01*
X029527Y010125D02*
X029842Y010125D01*
X029842Y010028D02*
X029527Y010028D01*
X029527Y009931D02*
X029760Y009931D01*
X029663Y009834D02*
X029527Y009834D01*
X029499Y009737D02*
X029566Y009737D01*
X029469Y009640D02*
X029402Y009640D01*
X029370Y009830D02*
X029173Y009633D01*
X028947Y009640D02*
X028045Y009640D01*
X028045Y009577D02*
X027984Y009430D01*
X027871Y009317D01*
X027724Y009255D01*
X027564Y009255D01*
X027416Y009317D01*
X027303Y009430D01*
X027244Y009573D01*
X027184Y009430D01*
X027071Y009317D01*
X026924Y009255D01*
X026764Y009255D01*
X026616Y009317D01*
X026503Y009430D01*
X026442Y009577D01*
X026442Y009737D01*
X026503Y009885D01*
X026616Y009998D01*
X026764Y010059D01*
X026924Y010059D01*
X027071Y009998D01*
X027184Y009885D01*
X027244Y009741D01*
X027303Y009885D01*
X027416Y009998D01*
X027564Y010059D01*
X027724Y010059D01*
X027871Y009998D01*
X027984Y009885D01*
X028045Y009737D01*
X028956Y009737D01*
X029053Y009834D02*
X028005Y009834D01*
X028045Y009737D02*
X028045Y009577D01*
X028031Y009543D02*
X028369Y009543D01*
X028272Y009446D02*
X027991Y009446D01*
X027904Y009349D02*
X028238Y009349D01*
X028238Y009253D02*
X026025Y009253D01*
X026025Y009349D02*
X026583Y009349D01*
X026496Y009446D02*
X026025Y009446D01*
X026025Y009543D02*
X026456Y009543D01*
X026442Y009640D02*
X025963Y009640D01*
X026060Y009737D02*
X026442Y009737D01*
X026482Y009834D02*
X026086Y009834D01*
X026086Y009931D02*
X026550Y009931D01*
X026689Y010028D02*
X026086Y010028D01*
X026086Y010095D02*
X026086Y010095D01*
X026086Y010095D01*
X026056Y010125D02*
X027850Y010125D01*
X027844Y010222D02*
X025959Y010222D01*
X025946Y010234D02*
X025946Y010234D01*
X025946Y010234D01*
X025842Y010234D02*
X025842Y010234D01*
X025707Y010222D02*
X025596Y010222D01*
X025461Y010234D02*
X025461Y010234D01*
X025356Y010234D02*
X025356Y010234D01*
X025356Y010234D01*
X025344Y010222D02*
X024924Y010222D01*
X024998Y010125D02*
X025247Y010125D01*
X025270Y010147D02*
X025270Y010147D01*
X024754Y010234D02*
X024754Y010234D01*
X024631Y010234D02*
X024631Y010234D01*
X024631Y010234D01*
X024619Y010222D02*
X024561Y010222D01*
X024413Y010222D02*
X024352Y010222D01*
X024204Y010222D02*
X023784Y010222D01*
X023771Y010234D02*
X023771Y010234D01*
X023771Y010234D01*
X023881Y010125D02*
X024130Y010125D01*
X023910Y010095D02*
X023910Y010095D01*
X023531Y010222D02*
X023369Y010222D01*
X023457Y010147D02*
X023457Y010147D01*
X023221Y010222D02*
X022569Y010222D01*
X022569Y010319D02*
X026287Y010319D01*
X026131Y010416D02*
X022716Y010416D01*
X022813Y010513D02*
X026044Y010513D01*
X025957Y010609D02*
X022824Y010609D01*
X022569Y010125D02*
X023124Y010125D01*
X023147Y010147D02*
X023147Y010147D01*
X023042Y010028D02*
X022569Y010028D01*
X022739Y009931D02*
X023042Y009931D01*
X023042Y009834D02*
X022824Y009834D01*
X022824Y009737D02*
X023042Y009737D01*
X023112Y009640D02*
X022807Y009640D01*
X022710Y009543D02*
X023103Y009543D01*
X023103Y009446D02*
X022790Y009446D01*
X022824Y009349D02*
X023103Y009349D01*
X023103Y009253D02*
X022824Y009253D01*
X022755Y009156D02*
X023103Y009156D01*
X026025Y009156D02*
X028307Y009156D01*
X028464Y009319D02*
X029370Y009319D01*
X030000Y009948D01*
X030000Y010303D01*
X030226Y010319D02*
X030502Y010319D01*
X030502Y010416D02*
X030207Y010416D01*
X030110Y010513D02*
X030502Y010513D01*
X030502Y010222D02*
X030226Y010222D01*
X030157Y010125D02*
X030502Y010125D01*
X030502Y010028D02*
X030157Y010028D01*
X030157Y009931D02*
X030502Y009931D01*
X030502Y009834D02*
X030108Y009834D01*
X030011Y009737D02*
X030502Y009737D01*
X030502Y009640D02*
X029914Y009640D01*
X029817Y009543D02*
X030502Y009543D01*
X030502Y009446D02*
X029720Y009446D01*
X029623Y009349D02*
X030502Y009349D01*
X030502Y009253D02*
X029526Y009253D01*
X029370Y009830D02*
X029370Y010303D01*
X029212Y009931D02*
X027938Y009931D01*
X027946Y010028D02*
X027798Y010028D01*
X027489Y010028D02*
X026998Y010028D01*
X027138Y009931D02*
X027350Y009931D01*
X027282Y009834D02*
X027205Y009834D01*
X027231Y009543D02*
X027256Y009543D01*
X027296Y009446D02*
X027191Y009446D01*
X027104Y009349D02*
X027383Y009349D01*
X028560Y009543D02*
X028947Y009543D01*
X028621Y009156D02*
X030502Y009156D01*
X027085Y011288D02*
X026273Y011288D01*
X026123Y011385D02*
X026948Y011385D01*
X024682Y013033D02*
X029412Y013033D01*
X029380Y012936D02*
X024585Y012936D01*
X024488Y012839D02*
X029384Y012839D01*
X029429Y012742D02*
X023053Y012742D01*
X023150Y012839D02*
X023747Y012839D01*
X023728Y012850D02*
X023728Y012850D01*
X023728Y012850D01*
X023678Y012936D02*
X023251Y012936D01*
X023373Y013033D02*
X023651Y013033D01*
X023741Y012063D02*
X023745Y012063D01*
X024103Y012063D02*
X024108Y012063D01*
X023103Y015037D02*
X022731Y015037D01*
X022824Y015130D01*
X022824Y015318D01*
X022702Y015441D01*
X022824Y015563D01*
X022824Y015751D01*
X022692Y015883D01*
X022569Y015883D01*
X022569Y016297D01*
X022692Y016297D01*
X022824Y016429D01*
X022824Y016612D01*
X025870Y016612D01*
X026082Y016376D01*
X026086Y016367D01*
X026128Y016325D01*
X026167Y016281D01*
X026176Y016277D01*
X026182Y016271D01*
X026237Y016248D01*
X026291Y016222D01*
X026300Y016222D01*
X026309Y016218D01*
X026369Y016218D01*
X026428Y016215D01*
X026437Y016218D01*
X027844Y016218D01*
X027844Y016036D01*
X027977Y015903D01*
X028164Y015903D01*
X028233Y015972D01*
X028648Y015972D01*
X028923Y016248D01*
X029015Y016340D01*
X029015Y016872D01*
X029045Y016902D01*
X029045Y017089D01*
X028912Y017222D01*
X028725Y017222D01*
X028592Y017089D01*
X028592Y016902D01*
X028598Y016897D01*
X028572Y016907D01*
X026531Y016907D01*
X026319Y017143D01*
X026315Y017151D01*
X026273Y017193D01*
X026234Y017238D01*
X026225Y017242D01*
X026218Y017248D01*
X026163Y017271D01*
X026110Y017297D01*
X026100Y017297D01*
X026941Y017297D01*
X026903Y017335D02*
X027016Y017222D01*
X027164Y017161D01*
X027324Y017161D01*
X027471Y017222D01*
X027584Y017335D01*
X027645Y017483D01*
X027645Y017643D01*
X027584Y017790D01*
X027471Y017903D01*
X027324Y017964D01*
X027164Y017964D01*
X027016Y017903D01*
X026903Y017790D01*
X026842Y017643D01*
X026842Y017483D01*
X026903Y017335D01*
X026879Y017394D02*
X025769Y017394D01*
X025789Y017414D02*
X025804Y017399D01*
X026032Y017399D01*
X026084Y017452D01*
X026171Y017538D01*
X026171Y017808D01*
X026171Y017871D01*
X026119Y017923D01*
X026100Y017941D01*
X026032Y018010D01*
X026032Y018010D01*
X025927Y018010D01*
X025909Y018010D01*
X025909Y018010D01*
X025804Y018010D01*
X025734Y017939D01*
X025717Y017923D01*
X025717Y017923D01*
X025666Y017872D01*
X025665Y017871D01*
X025665Y017810D01*
X025665Y017705D01*
X025665Y017643D01*
X025446Y017643D01*
X025446Y017923D01*
X025359Y018010D01*
X025236Y018010D01*
X025193Y017966D01*
X025150Y018010D01*
X025027Y018010D01*
X024940Y017923D01*
X024940Y017909D01*
X024840Y018010D01*
X024717Y018010D01*
X024675Y017968D01*
X024634Y018010D01*
X024302Y018010D01*
X024287Y017995D01*
X024272Y018010D01*
X024149Y018010D01*
X024105Y017966D01*
X024062Y018010D01*
X023939Y018010D01*
X023924Y017995D01*
X023909Y018010D01*
X023786Y018010D01*
X023743Y017966D01*
X023700Y018010D01*
X023577Y018010D01*
X023562Y017995D01*
X023546Y018010D01*
X023319Y018010D01*
X023232Y017923D01*
X023232Y017800D01*
X023284Y017748D01*
X023284Y017661D01*
X023267Y017643D01*
X022973Y017643D01*
X022886Y017557D01*
X022886Y017434D01*
X022973Y017347D01*
X023305Y017347D01*
X023357Y017399D01*
X023546Y017399D01*
X023562Y017414D01*
X023577Y017399D01*
X023700Y017399D01*
X023743Y017442D01*
X023786Y017399D01*
X023909Y017399D01*
X023950Y017441D01*
X023992Y017399D01*
X024219Y017399D01*
X024261Y017441D01*
X024302Y017399D01*
X024634Y017399D01*
X024675Y017441D01*
X024717Y017399D01*
X024840Y017399D01*
X024926Y017486D01*
X024926Y017556D01*
X024940Y017556D01*
X024940Y017486D01*
X025027Y017399D01*
X025150Y017399D01*
X025193Y017442D01*
X025236Y017399D01*
X025337Y017399D01*
X025389Y017347D01*
X025722Y017347D01*
X025789Y017414D01*
X025964Y017301D02*
X022824Y017301D01*
X022824Y017483D01*
X022702Y017606D01*
X022824Y017729D01*
X022824Y017916D01*
X022692Y018049D01*
X022569Y018049D01*
X022569Y018069D01*
X022676Y018069D01*
X022705Y018098D01*
X027545Y018098D01*
X027637Y018190D01*
X027663Y018216D01*
X027908Y018216D01*
X027805Y018113D01*
X027805Y018016D01*
X027716Y017927D01*
X027716Y017560D01*
X028045Y017232D01*
X028648Y017232D01*
X028740Y017324D01*
X029041Y017626D01*
X029207Y017626D01*
X029276Y017557D01*
X029464Y017557D01*
X029596Y017689D01*
X029596Y017877D01*
X029464Y018009D01*
X029276Y018009D01*
X029207Y017941D01*
X028911Y017941D01*
X028517Y017547D01*
X028175Y017547D01*
X028031Y017691D01*
X028031Y017793D01*
X028125Y017793D01*
X028258Y017926D01*
X028258Y018113D01*
X028223Y018147D01*
X028322Y018147D01*
X028454Y018280D01*
X028454Y018467D01*
X028322Y018600D01*
X028134Y018600D01*
X028065Y018531D01*
X027533Y018531D01*
X027415Y018413D01*
X022705Y018413D01*
X022676Y018443D01*
X022599Y018443D01*
X022599Y018443D01*
X022651Y018443D01*
X022652Y018444D01*
X022726Y018445D01*
X022726Y018445D01*
X022955Y018546D01*
X022955Y018546D01*
X023041Y018636D01*
X023245Y018840D01*
X023251Y018840D01*
X023282Y018877D01*
X023294Y018888D01*
X023316Y018910D01*
X023392Y018947D01*
X023432Y018954D01*
X023651Y018954D01*
X023651Y018888D01*
X023728Y018755D01*
X023860Y018679D01*
X024423Y018679D01*
X024498Y018754D01*
X024698Y018954D01*
X026598Y018954D01*
X026600Y018953D01*
X029418Y018953D01*
X029380Y018860D01*
X029380Y018754D01*
X029420Y018656D01*
X029488Y018588D01*
X029488Y018466D01*
X029842Y018112D01*
X029842Y017946D01*
X029773Y017877D01*
X029773Y017689D01*
X029906Y017557D01*
X030093Y017557D01*
X030226Y017689D01*
X030226Y017877D01*
X030157Y017946D01*
X030157Y018242D01*
X030065Y018334D01*
X029807Y018592D01*
X029871Y018656D01*
X029911Y018754D01*
X029911Y018860D01*
X029872Y018953D01*
X030502Y018953D01*
X030502Y015038D01*
X028599Y015038D01*
X028627Y015067D01*
X029435Y015067D01*
X029527Y015159D01*
X030157Y015789D01*
X030157Y016046D01*
X030226Y016114D01*
X030226Y016302D01*
X030093Y016435D01*
X029906Y016435D01*
X029773Y016302D01*
X029773Y016114D01*
X029842Y016046D01*
X029842Y015919D01*
X029399Y015476D01*
X029399Y015543D01*
X029527Y015671D01*
X029527Y016046D01*
X029596Y016114D01*
X029596Y016302D01*
X029464Y016435D01*
X029276Y016435D01*
X029143Y016302D01*
X029143Y016114D01*
X029212Y016046D01*
X029212Y015801D01*
X029177Y015765D01*
X029079Y015765D01*
X028947Y015633D01*
X028947Y015445D01*
X029010Y015381D01*
X028627Y015381D01*
X028558Y015450D01*
X028370Y015450D01*
X028238Y015318D01*
X028238Y015130D01*
X028330Y015038D01*
X026600Y015038D01*
X026598Y015037D01*
X026025Y015037D01*
X026025Y015462D01*
X025952Y015535D01*
X026033Y015616D01*
X026086Y015668D01*
X026086Y015940D01*
X026086Y016000D01*
X026086Y016000D01*
X026085Y016001D01*
X026033Y016053D01*
X026017Y016069D01*
X025946Y016140D01*
X025842Y016140D01*
X025833Y016140D01*
X025824Y016140D01*
X025719Y016140D01*
X025719Y016140D01*
X025651Y016072D01*
X025584Y016140D01*
X025479Y016140D01*
X025461Y016140D01*
X025461Y016140D01*
X025356Y016140D01*
X025288Y016071D01*
X025270Y016053D01*
X025270Y016053D01*
X025217Y016000D01*
X025217Y015983D01*
X024998Y015983D01*
X024998Y016053D01*
X024911Y016140D01*
X024754Y016140D01*
X024692Y016140D01*
X024631Y016140D01*
X024590Y016098D01*
X024549Y016140D01*
X024426Y016140D01*
X024383Y016096D01*
X024339Y016140D01*
X024217Y016140D01*
X024130Y016053D01*
X024130Y015983D01*
X023910Y015983D01*
X023910Y016000D01*
X023909Y016001D01*
X023858Y016053D01*
X023842Y016069D01*
X023771Y016140D01*
X023667Y016140D01*
X023658Y016140D01*
X023648Y016140D01*
X023648Y016140D01*
X023544Y016140D01*
X023544Y016140D01*
X023475Y016071D01*
X023457Y016053D01*
X023457Y016053D01*
X023450Y016046D01*
X023356Y016140D01*
X023234Y016140D01*
X023232Y016138D01*
X023147Y016053D01*
X023147Y016053D01*
X023129Y016035D01*
X023042Y015948D01*
X023042Y015616D01*
X023129Y015529D01*
X023169Y015529D01*
X023103Y015462D01*
X023103Y015037D01*
X023103Y015068D02*
X022762Y015068D01*
X022824Y015165D02*
X023103Y015165D01*
X023103Y015262D02*
X022824Y015262D01*
X022783Y015359D02*
X023103Y015359D01*
X023103Y015456D02*
X022717Y015456D01*
X022814Y015553D02*
X023105Y015553D01*
X023042Y015650D02*
X022824Y015650D01*
X022824Y015747D02*
X023042Y015747D01*
X023042Y015843D02*
X022732Y015843D01*
X022569Y015940D02*
X023042Y015940D01*
X023131Y016037D02*
X022569Y016037D01*
X022569Y016134D02*
X023228Y016134D01*
X023362Y016134D02*
X023538Y016134D01*
X023544Y016140D02*
X023544Y016140D01*
X023667Y016140D02*
X023667Y016140D01*
X023771Y016140D02*
X023771Y016140D01*
X023771Y016140D01*
X023777Y016134D02*
X024211Y016134D01*
X024130Y016037D02*
X023874Y016037D01*
X023858Y016053D02*
X023858Y016053D01*
X023910Y016000D02*
X023910Y016000D01*
X024345Y016134D02*
X024420Y016134D01*
X024554Y016134D02*
X024626Y016134D01*
X024631Y016140D02*
X024631Y016140D01*
X024631Y016140D01*
X024754Y016140D02*
X024754Y016140D01*
X024917Y016134D02*
X025351Y016134D01*
X025356Y016140D02*
X025356Y016140D01*
X025356Y016140D01*
X025479Y016140D02*
X025479Y016140D01*
X025584Y016140D02*
X025584Y016140D01*
X025584Y016140D01*
X025589Y016134D02*
X025713Y016134D01*
X025719Y016140D02*
X025719Y016140D01*
X025824Y016140D02*
X025824Y016140D01*
X025842Y016140D02*
X025842Y016140D01*
X025946Y016140D02*
X025946Y016140D01*
X025946Y016140D01*
X025952Y016134D02*
X027844Y016134D01*
X027844Y016037D02*
X026049Y016037D01*
X026033Y016053D02*
X026033Y016053D01*
X026086Y015940D02*
X026706Y015940D01*
X026764Y015964D02*
X026616Y015903D01*
X026503Y015790D01*
X026442Y015643D01*
X026442Y015483D01*
X026503Y015335D01*
X026616Y015222D01*
X026764Y015161D01*
X026924Y015161D01*
X027071Y015222D01*
X027184Y015335D01*
X027244Y015479D01*
X027303Y015335D01*
X027416Y015222D01*
X027564Y015161D01*
X027724Y015161D01*
X027871Y015222D01*
X027984Y015335D01*
X028045Y015483D01*
X028045Y015643D01*
X027984Y015790D01*
X027871Y015903D01*
X027724Y015964D01*
X027564Y015964D01*
X027416Y015903D01*
X027303Y015790D01*
X027244Y015647D01*
X027184Y015790D01*
X027071Y015903D01*
X026924Y015964D01*
X026764Y015964D01*
X026981Y015940D02*
X027506Y015940D01*
X027357Y015843D02*
X027131Y015843D01*
X027202Y015747D02*
X027285Y015747D01*
X027245Y015650D02*
X027243Y015650D01*
X027234Y015456D02*
X027253Y015456D01*
X027293Y015359D02*
X027194Y015359D01*
X027111Y015262D02*
X027376Y015262D01*
X027554Y015165D02*
X026933Y015165D01*
X026754Y015165D02*
X026025Y015165D01*
X026025Y015262D02*
X026576Y015262D01*
X026493Y015359D02*
X026025Y015359D01*
X026025Y015456D02*
X026453Y015456D01*
X026442Y015553D02*
X025970Y015553D01*
X026067Y015650D02*
X026445Y015650D01*
X026485Y015747D02*
X026086Y015747D01*
X026086Y015843D02*
X026557Y015843D01*
X026272Y016231D02*
X022569Y016231D01*
X022723Y016328D02*
X026125Y016328D01*
X026038Y016425D02*
X022820Y016425D01*
X022824Y016522D02*
X025951Y016522D01*
X026442Y017007D02*
X028592Y017007D01*
X028592Y016910D02*
X026529Y016910D01*
X026354Y017103D02*
X028606Y017103D01*
X028703Y017200D02*
X027419Y017200D01*
X027547Y017297D02*
X027979Y017297D01*
X027882Y017394D02*
X027609Y017394D01*
X027645Y017491D02*
X027785Y017491D01*
X027716Y017588D02*
X027645Y017588D01*
X027628Y017685D02*
X027716Y017685D01*
X027716Y017782D02*
X027588Y017782D01*
X027496Y017879D02*
X027716Y017879D01*
X027765Y017976D02*
X026066Y017976D01*
X026032Y018010D02*
X026032Y018010D01*
X025927Y018010D02*
X025927Y018010D01*
X025804Y018010D02*
X025804Y018010D01*
X025804Y018010D01*
X025770Y017976D02*
X025393Y017976D01*
X025446Y017879D02*
X025673Y017879D01*
X025665Y017871D02*
X025665Y017871D01*
X025665Y017782D02*
X025446Y017782D01*
X025446Y017685D02*
X025665Y017685D01*
X025342Y017394D02*
X023352Y017394D01*
X023284Y017685D02*
X022781Y017685D01*
X022824Y017782D02*
X023250Y017782D01*
X023232Y017879D02*
X022824Y017879D01*
X022765Y017976D02*
X023285Y017976D01*
X023734Y017976D02*
X023752Y017976D01*
X024096Y017976D02*
X024115Y017976D01*
X024668Y017976D02*
X024683Y017976D01*
X024873Y017976D02*
X024993Y017976D01*
X025184Y017976D02*
X025202Y017976D01*
X024940Y017491D02*
X024926Y017491D01*
X025964Y017301D02*
X025973Y017304D01*
X026032Y017301D01*
X026092Y017301D01*
X026100Y017297D01*
X026267Y017200D02*
X027069Y017200D01*
X026842Y017491D02*
X026124Y017491D01*
X026171Y017588D02*
X026842Y017588D01*
X026860Y017685D02*
X026171Y017685D01*
X026171Y017782D02*
X026900Y017782D01*
X026992Y017879D02*
X026163Y017879D01*
X026119Y017923D02*
X026119Y017923D01*
X027480Y018256D02*
X022598Y018256D01*
X022680Y018073D02*
X027805Y018073D01*
X027861Y018170D02*
X027617Y018170D01*
X027480Y018256D02*
X027598Y018374D01*
X028228Y018374D01*
X028454Y018364D02*
X029590Y018364D01*
X029493Y018460D02*
X028454Y018460D01*
X028364Y018557D02*
X029488Y018557D01*
X029422Y018654D02*
X023060Y018654D01*
X022966Y018557D02*
X028092Y018557D01*
X028441Y018267D02*
X029687Y018267D01*
X029784Y018170D02*
X028344Y018170D01*
X028258Y018073D02*
X029842Y018073D01*
X029842Y017976D02*
X029497Y017976D01*
X029594Y017879D02*
X029775Y017879D01*
X029773Y017782D02*
X029596Y017782D01*
X029592Y017685D02*
X029778Y017685D01*
X029874Y017588D02*
X029495Y017588D01*
X029370Y017783D02*
X028976Y017783D01*
X028582Y017389D01*
X028110Y017389D01*
X027874Y017626D01*
X027874Y017862D01*
X028031Y018019D01*
X028211Y017879D02*
X028849Y017879D01*
X028752Y017782D02*
X028031Y017782D01*
X028037Y017685D02*
X028655Y017685D01*
X028558Y017588D02*
X028134Y017588D01*
X028258Y017976D02*
X029242Y017976D01*
X029245Y017588D02*
X029004Y017588D01*
X028907Y017491D02*
X030502Y017491D01*
X030502Y017394D02*
X028810Y017394D01*
X028713Y017297D02*
X030502Y017297D01*
X030502Y017200D02*
X028934Y017200D01*
X029031Y017103D02*
X030502Y017103D01*
X030502Y017007D02*
X029045Y017007D01*
X029045Y016910D02*
X030502Y016910D01*
X030502Y016813D02*
X029015Y016813D01*
X029015Y016716D02*
X030502Y016716D01*
X030502Y016619D02*
X029015Y016619D01*
X029015Y016522D02*
X030502Y016522D01*
X030502Y016425D02*
X030103Y016425D01*
X030200Y016328D02*
X030502Y016328D01*
X030502Y016231D02*
X030226Y016231D01*
X030226Y016134D02*
X030502Y016134D01*
X030502Y016037D02*
X030157Y016037D01*
X030157Y015940D02*
X030502Y015940D01*
X030502Y015843D02*
X030157Y015843D01*
X030115Y015747D02*
X030502Y015747D01*
X030502Y015650D02*
X030018Y015650D01*
X029921Y015553D02*
X030502Y015553D01*
X030502Y015456D02*
X029824Y015456D01*
X029727Y015359D02*
X030502Y015359D01*
X030502Y015262D02*
X029630Y015262D01*
X029533Y015165D02*
X030502Y015165D01*
X030502Y015068D02*
X029436Y015068D01*
X029370Y015224D02*
X028464Y015224D01*
X028300Y015068D02*
X026025Y015068D01*
X025254Y016037D02*
X024998Y016037D01*
X022925Y017394D02*
X022824Y017394D01*
X022816Y017491D02*
X022886Y017491D01*
X022917Y017588D02*
X022720Y017588D01*
X022761Y018460D02*
X027462Y018460D01*
X028819Y016996D02*
X028858Y016956D01*
X028858Y016405D01*
X028582Y016130D01*
X028071Y016130D01*
X028202Y015940D02*
X029212Y015940D01*
X029212Y015843D02*
X027931Y015843D01*
X027940Y015940D02*
X027781Y015940D01*
X028002Y015747D02*
X029060Y015747D01*
X028963Y015650D02*
X028043Y015650D01*
X028045Y015553D02*
X028947Y015553D01*
X028947Y015456D02*
X028034Y015456D01*
X027994Y015359D02*
X028279Y015359D01*
X028238Y015262D02*
X027911Y015262D01*
X027733Y015165D02*
X028238Y015165D01*
X028713Y016037D02*
X029212Y016037D01*
X029143Y016134D02*
X028810Y016134D01*
X028907Y016231D02*
X029143Y016231D01*
X029169Y016328D02*
X029004Y016328D01*
X029015Y016425D02*
X029266Y016425D01*
X029473Y016425D02*
X029896Y016425D01*
X029799Y016328D02*
X029570Y016328D01*
X029596Y016231D02*
X029773Y016231D01*
X029773Y016134D02*
X029596Y016134D01*
X029527Y016037D02*
X029842Y016037D01*
X029842Y015940D02*
X029527Y015940D01*
X029527Y015843D02*
X029766Y015843D01*
X029670Y015747D02*
X029527Y015747D01*
X029506Y015650D02*
X029573Y015650D01*
X029476Y015553D02*
X029409Y015553D01*
X029370Y015736D02*
X029173Y015539D01*
X029370Y015736D02*
X029370Y016208D01*
X030000Y016208D02*
X030000Y015854D01*
X029370Y015224D01*
X030125Y017588D02*
X030502Y017588D01*
X030502Y017685D02*
X030222Y017685D01*
X030226Y017782D02*
X030502Y017782D01*
X030502Y017879D02*
X030224Y017879D01*
X030157Y017976D02*
X030502Y017976D01*
X030502Y018073D02*
X030157Y018073D01*
X030157Y018170D02*
X030502Y018170D01*
X030502Y018267D02*
X030133Y018267D01*
X030036Y018364D02*
X030502Y018364D01*
X030502Y018460D02*
X029939Y018460D01*
X029842Y018557D02*
X030502Y018557D01*
X030502Y018654D02*
X029869Y018654D01*
X029910Y018751D02*
X030502Y018751D01*
X030502Y018848D02*
X029911Y018848D01*
X029876Y018945D02*
X030502Y018945D01*
X029645Y018807D02*
X029645Y018531D01*
X030000Y018177D01*
X030000Y017783D01*
X029381Y018751D02*
X024495Y018751D01*
X024498Y018754D02*
X024498Y018754D01*
X024592Y018848D02*
X029380Y018848D01*
X029415Y018945D02*
X024689Y018945D01*
X023735Y018751D02*
X023157Y018751D01*
X023257Y018848D02*
X023674Y018848D01*
X023651Y018945D02*
X023387Y018945D01*
X023728Y018755D02*
X023728Y018755D01*
X023728Y018755D01*
X023103Y020943D02*
X022731Y020943D01*
X022824Y021036D01*
X022824Y021223D01*
X022702Y021346D01*
X022824Y021469D01*
X022824Y021656D01*
X022692Y021789D01*
X022569Y021789D01*
X022569Y022202D01*
X022692Y022202D01*
X022824Y022335D01*
X022824Y022517D01*
X025870Y022517D01*
X026082Y022282D01*
X026086Y022273D01*
X026128Y022231D01*
X026167Y022187D01*
X026176Y022183D01*
X026182Y022176D01*
X026237Y022153D01*
X026291Y022128D01*
X026300Y022127D01*
X026309Y022124D01*
X026369Y022124D01*
X026428Y022120D01*
X026437Y022124D01*
X027844Y022124D01*
X027844Y021941D01*
X027977Y021809D01*
X028164Y021809D01*
X028233Y021878D01*
X028648Y021878D01*
X028923Y022153D01*
X029015Y022245D01*
X029015Y022778D01*
X029045Y022807D01*
X029045Y022995D01*
X028912Y023128D01*
X028725Y023128D01*
X028592Y022995D01*
X028592Y022807D01*
X028598Y022802D01*
X028572Y022813D01*
X026531Y022813D01*
X026319Y023048D01*
X026315Y023057D01*
X026273Y023099D01*
X026234Y023143D01*
X026225Y023147D01*
X026218Y023154D01*
X026163Y023177D01*
X026110Y023202D01*
X026100Y023203D01*
X026092Y023206D01*
X026032Y023206D01*
X025973Y023209D01*
X025964Y023206D01*
X022824Y023206D01*
X022824Y023389D01*
X022702Y023511D01*
X022824Y023634D01*
X022824Y023822D01*
X022692Y023954D01*
X022569Y023954D01*
X022569Y023974D01*
X022676Y023974D01*
X022705Y024004D01*
X027545Y024004D01*
X027637Y024096D01*
X027663Y024122D01*
X027908Y024122D01*
X027805Y024019D01*
X027805Y023921D01*
X027716Y023833D01*
X027716Y023466D01*
X027808Y023374D01*
X028045Y023137D01*
X028648Y023137D01*
X028740Y023230D01*
X029041Y023531D01*
X029207Y023531D01*
X029276Y023462D01*
X029464Y023462D01*
X029596Y023595D01*
X029596Y023782D01*
X029464Y023915D01*
X029276Y023915D01*
X029207Y023846D01*
X028911Y023846D01*
X028517Y023452D01*
X028175Y023452D01*
X028031Y023596D01*
X028031Y023698D01*
X028125Y023698D01*
X028258Y023831D01*
X028258Y024019D01*
X028223Y024053D01*
X028322Y024053D01*
X028454Y024185D01*
X028454Y024373D01*
X028322Y024506D01*
X028134Y024506D01*
X028065Y024437D01*
X027533Y024437D01*
X027415Y024319D01*
X022705Y024319D01*
X022676Y024348D01*
X022599Y024348D01*
X022599Y024348D01*
X022651Y024348D01*
X022652Y024349D01*
X022726Y024351D01*
X022726Y024351D01*
X022955Y024452D01*
X022955Y024452D01*
X023041Y024541D01*
X023245Y024745D01*
X023251Y024746D01*
X023282Y024782D01*
X023294Y024794D01*
X023316Y024815D01*
X023392Y024853D01*
X023432Y024860D01*
X023651Y024860D01*
X023651Y024793D01*
X023728Y024661D01*
X023860Y024584D01*
X024423Y024584D01*
X024698Y024860D01*
X026598Y024860D01*
X026600Y024859D01*
X029418Y024859D01*
X029380Y024765D01*
X029380Y024659D01*
X029420Y024562D01*
X029488Y024494D01*
X029488Y024371D01*
X029842Y024017D01*
X029842Y023851D01*
X029773Y023782D01*
X029773Y023595D01*
X029906Y023462D01*
X030093Y023462D01*
X030226Y023595D01*
X030226Y023782D01*
X030157Y023851D01*
X030157Y024148D01*
X030065Y024240D01*
X029807Y024498D01*
X029871Y024562D01*
X029911Y024659D01*
X029911Y024765D01*
X029872Y024859D01*
X030502Y024859D01*
X030502Y020944D01*
X028599Y020944D01*
X028627Y020972D01*
X029435Y020972D01*
X029527Y021064D01*
X029527Y021064D01*
X030157Y021694D01*
X030157Y021951D01*
X030226Y022020D01*
X030226Y022208D01*
X030093Y022340D01*
X029906Y022340D01*
X029773Y022208D01*
X029773Y022020D01*
X029842Y021951D01*
X029842Y021825D01*
X029399Y021382D01*
X029399Y021448D01*
X029527Y021576D01*
X029527Y021951D01*
X029596Y022020D01*
X029596Y022208D01*
X029464Y022340D01*
X029276Y022340D01*
X029143Y022208D01*
X029143Y022020D01*
X029212Y021951D01*
X029212Y021707D01*
X029177Y021671D01*
X029079Y021671D01*
X028947Y021538D01*
X028947Y021351D01*
X029010Y021287D01*
X028627Y021287D01*
X028558Y021356D01*
X028370Y021356D01*
X028238Y021223D01*
X028238Y021036D01*
X028330Y020944D01*
X026600Y020944D01*
X026598Y020943D01*
X026025Y020943D01*
X026025Y021368D01*
X025952Y021441D01*
X026033Y021521D01*
X026086Y021574D01*
X026086Y021845D01*
X026086Y021906D01*
X026086Y021906D01*
X026085Y021907D01*
X026033Y021958D01*
X026017Y021975D01*
X025946Y022045D01*
X025842Y022045D01*
X025842Y022045D01*
X025824Y022045D01*
X025719Y022045D01*
X025719Y022045D01*
X025719Y022045D01*
X025651Y021978D01*
X025584Y022045D01*
X025584Y022045D01*
X025584Y022045D01*
X025523Y022045D01*
X025479Y022045D01*
X025461Y022045D01*
X025418Y022045D01*
X025356Y022045D01*
X025288Y021977D01*
X025270Y021958D01*
X025217Y021906D01*
X025217Y021888D01*
X024998Y021888D01*
X024998Y021958D01*
X024911Y022045D01*
X024754Y022045D01*
X024692Y022045D01*
X024631Y022045D01*
X024590Y022004D01*
X024549Y022045D01*
X024426Y022045D01*
X024383Y022002D01*
X024339Y022045D01*
X024217Y022045D01*
X024130Y021958D01*
X024130Y021888D01*
X023910Y021888D01*
X023910Y021906D01*
X023909Y021907D01*
X023858Y021958D01*
X023858Y021958D01*
X023842Y021975D01*
X023771Y022045D01*
X023667Y022045D01*
X023667Y022045D01*
X023648Y022045D01*
X023544Y022045D01*
X023544Y022045D01*
X023544Y022045D01*
X023475Y021977D01*
X023457Y021958D01*
X023450Y021951D01*
X023356Y022045D01*
X023234Y022045D01*
X023232Y022044D01*
X023147Y021958D01*
X023129Y021940D01*
X023042Y021854D01*
X023042Y021521D01*
X023129Y021435D01*
X023169Y021435D01*
X023103Y021368D01*
X022724Y021368D01*
X022776Y021271D02*
X023103Y021271D01*
X023103Y021174D02*
X022824Y021174D01*
X022824Y021077D02*
X023103Y021077D01*
X023103Y020980D02*
X022769Y020980D01*
X023103Y020943D02*
X023103Y021368D01*
X023098Y021465D02*
X022821Y021465D01*
X022824Y021562D02*
X023042Y021562D01*
X023042Y021659D02*
X022822Y021659D01*
X022725Y021756D02*
X023042Y021756D01*
X023042Y021853D02*
X022569Y021853D01*
X022569Y021950D02*
X023138Y021950D01*
X023147Y021958D02*
X023147Y021958D01*
X023457Y021958D02*
X023457Y021958D01*
X023648Y022045D02*
X023648Y022045D01*
X023771Y022045D02*
X023771Y022045D01*
X023771Y022045D01*
X023867Y021950D02*
X024130Y021950D01*
X023910Y021906D02*
X023910Y021906D01*
X024631Y022045D02*
X024631Y022045D01*
X024631Y022045D01*
X024754Y022045D02*
X024754Y022045D01*
X024998Y021950D02*
X025261Y021950D01*
X025270Y021958D02*
X025270Y021958D01*
X025356Y022045D02*
X025356Y022045D01*
X025356Y022045D01*
X025824Y022045D02*
X025824Y022045D01*
X025946Y022045D02*
X025946Y022045D01*
X025946Y022045D01*
X026033Y021958D02*
X026033Y021958D01*
X026042Y021950D02*
X027844Y021950D01*
X027844Y022047D02*
X022569Y022047D01*
X022569Y022144D02*
X026258Y022144D01*
X026118Y022241D02*
X022730Y022241D01*
X022824Y022337D02*
X026032Y022337D01*
X025945Y022434D02*
X022824Y022434D01*
X022824Y023210D02*
X026934Y023210D01*
X026903Y023241D02*
X027016Y023128D01*
X027164Y023066D01*
X027324Y023066D01*
X027471Y023128D01*
X027584Y023241D01*
X027645Y023388D01*
X027645Y023548D01*
X027584Y023696D01*
X027471Y023809D01*
X027324Y023870D01*
X027164Y023870D01*
X027016Y023809D01*
X026903Y023696D01*
X026842Y023548D01*
X026842Y023388D01*
X026903Y023241D01*
X026876Y023307D02*
X026034Y023307D01*
X026032Y023305D02*
X026084Y023357D01*
X026171Y023444D01*
X026171Y023714D01*
X026171Y023776D01*
X026119Y023828D01*
X026119Y023828D01*
X026100Y023847D01*
X026032Y023915D01*
X026032Y023915D01*
X026032Y023915D01*
X025927Y023915D01*
X025927Y023915D01*
X025909Y023915D01*
X025804Y023915D01*
X025734Y023845D01*
X025717Y023828D01*
X025666Y023777D01*
X025665Y023776D01*
X025665Y023715D01*
X025665Y023611D01*
X025665Y023549D01*
X025446Y023549D01*
X025446Y023828D01*
X025359Y023915D01*
X025236Y023915D01*
X025193Y023872D01*
X025150Y023915D01*
X025027Y023915D01*
X024940Y023828D01*
X024940Y023815D01*
X024840Y023915D01*
X024717Y023915D01*
X024675Y023874D01*
X024634Y023915D01*
X024302Y023915D01*
X024287Y023900D01*
X024272Y023915D01*
X024149Y023915D01*
X024105Y023872D01*
X024062Y023915D01*
X023939Y023915D01*
X023924Y023900D01*
X023909Y023915D01*
X023786Y023915D01*
X023743Y023872D01*
X023700Y023915D01*
X023577Y023915D01*
X023562Y023900D01*
X023546Y023915D01*
X023319Y023915D01*
X023232Y023828D01*
X023232Y023706D01*
X023284Y023653D01*
X023284Y023567D01*
X023267Y023549D01*
X022973Y023549D01*
X022886Y023462D01*
X022886Y023339D01*
X022973Y023252D01*
X023305Y023252D01*
X023357Y023305D01*
X023546Y023305D01*
X023562Y023320D01*
X023577Y023305D01*
X023700Y023305D01*
X023743Y023348D01*
X023786Y023305D01*
X023909Y023305D01*
X023950Y023346D01*
X023992Y023305D01*
X024219Y023305D01*
X024261Y023346D01*
X024302Y023305D01*
X024634Y023305D01*
X024675Y023346D01*
X024717Y023305D01*
X024840Y023305D01*
X024926Y023392D01*
X024926Y023462D01*
X024940Y023462D01*
X024940Y023392D01*
X025027Y023305D01*
X025150Y023305D01*
X025193Y023348D01*
X025236Y023305D01*
X025337Y023305D01*
X025389Y023252D01*
X025722Y023252D01*
X025789Y023320D01*
X025804Y023305D01*
X026032Y023305D01*
X026131Y023404D02*
X026842Y023404D01*
X026842Y023501D02*
X026171Y023501D01*
X026171Y023597D02*
X026863Y023597D01*
X026903Y023694D02*
X026171Y023694D01*
X026156Y023791D02*
X026999Y023791D01*
X027489Y023791D02*
X027716Y023791D01*
X027716Y023694D02*
X027585Y023694D01*
X027625Y023597D02*
X027716Y023597D01*
X027716Y023501D02*
X027645Y023501D01*
X027645Y023404D02*
X027778Y023404D01*
X027875Y023307D02*
X027612Y023307D01*
X027554Y023210D02*
X027972Y023210D01*
X028110Y023295D02*
X027874Y023531D01*
X027874Y023767D01*
X028031Y023925D01*
X027868Y024082D02*
X027624Y024082D01*
X027480Y024161D02*
X022598Y024161D01*
X022687Y023985D02*
X027805Y023985D01*
X027772Y023888D02*
X026059Y023888D01*
X025909Y023915D02*
X025909Y023915D01*
X025804Y023915D02*
X025804Y023915D01*
X025804Y023915D01*
X025777Y023888D02*
X025386Y023888D01*
X025446Y023791D02*
X025680Y023791D01*
X025665Y023776D02*
X025665Y023776D01*
X025717Y023828D02*
X025717Y023828D01*
X025665Y023694D02*
X025446Y023694D01*
X025446Y023597D02*
X025665Y023597D01*
X025776Y023307D02*
X025802Y023307D01*
X025234Y023307D02*
X025152Y023307D01*
X025025Y023307D02*
X024842Y023307D01*
X024715Y023307D02*
X024636Y023307D01*
X024926Y023404D02*
X024940Y023404D01*
X025000Y023888D02*
X024867Y023888D01*
X024690Y023888D02*
X024661Y023888D01*
X024122Y023888D02*
X024089Y023888D01*
X023759Y023888D02*
X023727Y023888D01*
X023292Y023888D02*
X022758Y023888D01*
X022824Y023791D02*
X023232Y023791D01*
X023243Y023694D02*
X022824Y023694D01*
X022788Y023597D02*
X023284Y023597D01*
X022924Y023501D02*
X022713Y023501D01*
X022809Y023404D02*
X022886Y023404D01*
X022918Y023307D02*
X022824Y023307D01*
X023548Y023307D02*
X023575Y023307D01*
X023702Y023307D02*
X023784Y023307D01*
X023911Y023307D02*
X023990Y023307D01*
X024221Y023307D02*
X024300Y023307D01*
X025177Y023888D02*
X025209Y023888D01*
X024502Y024664D02*
X029380Y024664D01*
X029380Y024761D02*
X024599Y024761D01*
X024696Y024858D02*
X029418Y024858D01*
X029645Y024712D02*
X029645Y024437D01*
X030000Y024082D01*
X030000Y023689D01*
X030226Y023694D02*
X030502Y023694D01*
X030502Y023597D02*
X030226Y023597D01*
X030132Y023501D02*
X030502Y023501D01*
X030502Y023404D02*
X028914Y023404D01*
X029011Y023501D02*
X029238Y023501D01*
X029370Y023689D02*
X028976Y023689D01*
X028582Y023295D01*
X028110Y023295D01*
X028127Y023501D02*
X028565Y023501D01*
X028662Y023597D02*
X028031Y023597D01*
X028031Y023694D02*
X028759Y023694D01*
X028856Y023791D02*
X028218Y023791D01*
X028258Y023888D02*
X029249Y023888D01*
X029490Y023888D02*
X029842Y023888D01*
X029842Y023985D02*
X028258Y023985D01*
X028351Y024082D02*
X029777Y024082D01*
X029680Y024179D02*
X028448Y024179D01*
X028454Y024276D02*
X029583Y024276D01*
X029488Y024373D02*
X028454Y024373D01*
X028357Y024470D02*
X029488Y024470D01*
X029418Y024567D02*
X023067Y024567D01*
X022973Y024470D02*
X028099Y024470D01*
X028228Y024279D02*
X027598Y024279D01*
X027480Y024161D01*
X027469Y024373D02*
X022776Y024373D01*
X023164Y024664D02*
X023726Y024664D01*
X023728Y024661D02*
X023728Y024661D01*
X023728Y024661D01*
X023670Y024761D02*
X023263Y024761D01*
X023418Y024858D02*
X023651Y024858D01*
X023103Y026848D02*
X022731Y026848D01*
X022824Y026941D01*
X022824Y027129D01*
X022702Y027252D01*
X022824Y027374D01*
X022824Y027562D01*
X022692Y027694D01*
X022569Y027694D01*
X022569Y028108D01*
X022692Y028108D01*
X022824Y028240D01*
X022824Y028423D01*
X025870Y028423D01*
X026082Y028187D01*
X026086Y028178D01*
X026128Y028136D01*
X026167Y028092D01*
X026176Y028088D01*
X026182Y028082D01*
X026237Y028059D01*
X026291Y028033D01*
X026300Y028033D01*
X026309Y028029D01*
X026369Y028029D01*
X026428Y028026D01*
X026437Y028029D01*
X027844Y028029D01*
X027844Y027847D01*
X027977Y027714D01*
X028164Y027714D01*
X028233Y027783D01*
X028648Y027783D01*
X028923Y028059D01*
X029015Y028151D01*
X029015Y028683D01*
X029045Y028713D01*
X029045Y028900D01*
X028912Y029033D01*
X028725Y029033D01*
X028592Y028900D01*
X028592Y028713D01*
X028598Y028708D01*
X028572Y028718D01*
X026531Y028718D01*
X026319Y028954D01*
X026315Y028962D01*
X026273Y029005D01*
X026234Y029049D01*
X026225Y029053D01*
X026218Y029059D01*
X026163Y029082D01*
X026110Y029108D01*
X026100Y029108D01*
X026092Y029112D01*
X026032Y029112D01*
X025973Y029115D01*
X025964Y029112D01*
X022824Y029112D01*
X022824Y029294D01*
X022702Y029417D01*
X022824Y029540D01*
X022824Y029727D01*
X022692Y029860D01*
X022569Y029860D01*
X022569Y029880D01*
X022676Y029880D01*
X022705Y029909D01*
X027545Y029909D01*
X027637Y030001D01*
X027663Y030027D01*
X027908Y030027D01*
X027805Y029924D01*
X027805Y029827D01*
X027716Y029738D01*
X027716Y029371D01*
X027808Y029279D01*
X028045Y029043D01*
X028648Y029043D01*
X028740Y029135D01*
X029041Y029437D01*
X029207Y029437D01*
X029276Y029368D01*
X029464Y029368D01*
X029596Y029500D01*
X029596Y029688D01*
X029464Y029820D01*
X029276Y029820D01*
X029207Y029752D01*
X028911Y029752D01*
X028517Y029358D01*
X028175Y029358D01*
X028031Y029502D01*
X028031Y029604D01*
X028125Y029604D01*
X028258Y029737D01*
X028258Y029924D01*
X028223Y029958D01*
X028322Y029958D01*
X028454Y030091D01*
X028454Y030278D01*
X028322Y030411D01*
X028134Y030411D01*
X028065Y030342D01*
X027533Y030342D01*
X027415Y030224D01*
X022705Y030224D01*
X022676Y030254D01*
X022599Y030254D01*
X022599Y030254D01*
X022651Y030254D01*
X022652Y030255D01*
X022726Y030256D01*
X022955Y030357D01*
X022955Y030357D01*
X023041Y030447D01*
X023245Y030651D01*
X023251Y030651D01*
X023282Y030688D01*
X023294Y030700D01*
X023316Y030721D01*
X023392Y030759D01*
X023432Y030765D01*
X023651Y030765D01*
X023651Y030699D01*
X023728Y030566D01*
X023860Y030490D01*
X024423Y030490D01*
X024698Y030765D01*
X026598Y030765D01*
X026600Y030764D01*
X029418Y030764D01*
X029380Y030671D01*
X029380Y030565D01*
X029420Y030467D01*
X029488Y030399D01*
X029488Y030277D01*
X029842Y029923D01*
X029842Y029757D01*
X029773Y029688D01*
X029773Y029500D01*
X029906Y029368D01*
X030093Y029368D01*
X030226Y029500D01*
X030226Y029688D01*
X030157Y029757D01*
X030157Y030053D01*
X030065Y030145D01*
X029807Y030403D01*
X029871Y030467D01*
X029911Y030565D01*
X029911Y030671D01*
X029872Y030764D01*
X030502Y030764D01*
X030502Y026849D01*
X028599Y026849D01*
X028627Y026878D01*
X029435Y026878D01*
X029527Y026970D01*
X030157Y027600D01*
X030157Y027857D01*
X030226Y027926D01*
X030226Y028113D01*
X030093Y028246D01*
X029906Y028246D01*
X029773Y028113D01*
X029773Y027926D01*
X029842Y027857D01*
X029842Y027730D01*
X029399Y027287D01*
X029399Y027354D01*
X029527Y027482D01*
X029527Y027857D01*
X029596Y027926D01*
X029596Y028113D01*
X029464Y028246D01*
X029276Y028246D01*
X029143Y028113D01*
X029143Y027926D01*
X029212Y027857D01*
X029212Y027612D01*
X029177Y027576D01*
X029079Y027576D01*
X028947Y027444D01*
X028947Y027256D01*
X029010Y027193D01*
X028627Y027193D01*
X028558Y027261D01*
X028370Y027261D01*
X028238Y027129D01*
X028238Y026941D01*
X028330Y026849D01*
X026600Y026849D01*
X026598Y026848D01*
X026025Y026848D01*
X026025Y027273D01*
X025952Y027346D01*
X026033Y027427D01*
X026086Y027479D01*
X026086Y027751D01*
X026086Y027811D01*
X026086Y027811D01*
X026086Y027811D01*
X026085Y027812D01*
X026033Y027864D01*
X025981Y027916D01*
X025946Y027951D01*
X025842Y027951D01*
X025781Y027951D01*
X025719Y027951D01*
X025719Y027951D01*
X025651Y027883D01*
X025584Y027951D01*
X025479Y027951D01*
X025471Y027951D01*
X025461Y027951D01*
X025461Y027951D01*
X025356Y027951D01*
X025288Y027882D01*
X025270Y027864D01*
X025217Y027811D01*
X025217Y027794D01*
X024998Y027794D01*
X024998Y027864D01*
X024911Y027951D01*
X024754Y027951D01*
X024692Y027951D01*
X024631Y027951D01*
X024590Y027909D01*
X024549Y027951D01*
X024426Y027951D01*
X024383Y027907D01*
X024339Y027951D01*
X024217Y027951D01*
X024130Y027864D01*
X024130Y027794D01*
X023910Y027794D01*
X023910Y027811D01*
X023909Y027812D01*
X023858Y027864D01*
X023842Y027880D01*
X023771Y027951D01*
X023711Y027951D01*
X023667Y027951D01*
X023648Y027951D01*
X023606Y027951D01*
X023544Y027951D01*
X023544Y027951D01*
X023475Y027882D01*
X023457Y027864D01*
X023457Y027864D01*
X023450Y027857D01*
X023356Y027951D01*
X023234Y027951D01*
X023232Y027949D01*
X023147Y027864D01*
X023147Y027864D01*
X023129Y027846D01*
X023042Y027759D01*
X023042Y027427D01*
X023129Y027340D01*
X023169Y027340D01*
X023103Y027273D01*
X023103Y026848D01*
X023103Y026893D02*
X022776Y026893D01*
X022824Y026990D02*
X023103Y026990D01*
X023103Y027087D02*
X022824Y027087D01*
X022770Y027184D02*
X023103Y027184D01*
X023110Y027281D02*
X022731Y027281D01*
X022824Y027378D02*
X023092Y027378D01*
X023042Y027474D02*
X022824Y027474D01*
X022815Y027571D02*
X023042Y027571D01*
X023042Y027668D02*
X022718Y027668D01*
X022569Y027765D02*
X023048Y027765D01*
X023145Y027862D02*
X022569Y027862D01*
X022569Y027959D02*
X027844Y027959D01*
X027844Y027862D02*
X026035Y027862D01*
X026033Y027864D02*
X026033Y027864D01*
X026086Y027765D02*
X026740Y027765D01*
X026764Y027775D02*
X026616Y027714D01*
X026503Y027601D01*
X026442Y027454D01*
X026442Y027294D01*
X026503Y027146D01*
X026616Y027033D01*
X026764Y026972D01*
X026924Y026972D01*
X027071Y027033D01*
X027184Y027146D01*
X027244Y027290D01*
X027303Y027146D01*
X027416Y027033D01*
X027564Y026972D01*
X027724Y026972D01*
X027871Y027033D01*
X027984Y027146D01*
X028045Y027294D01*
X028045Y027454D01*
X027984Y027601D01*
X027871Y027714D01*
X027724Y027775D01*
X027564Y027775D01*
X027416Y027714D01*
X027303Y027601D01*
X027244Y027458D01*
X027184Y027601D01*
X027071Y027714D01*
X026924Y027775D01*
X026764Y027775D01*
X026948Y027765D02*
X027540Y027765D01*
X027370Y027668D02*
X027117Y027668D01*
X027197Y027571D02*
X027291Y027571D01*
X027251Y027474D02*
X027237Y027474D01*
X027240Y027281D02*
X027247Y027281D01*
X027288Y027184D02*
X027200Y027184D01*
X027125Y027087D02*
X027363Y027087D01*
X027521Y026990D02*
X026967Y026990D01*
X026721Y026990D02*
X026025Y026990D01*
X026025Y027087D02*
X026563Y027087D01*
X026488Y027184D02*
X026025Y027184D01*
X026018Y027281D02*
X026447Y027281D01*
X026442Y027378D02*
X025984Y027378D01*
X026081Y027474D02*
X026451Y027474D01*
X026491Y027571D02*
X026086Y027571D01*
X026086Y027668D02*
X026570Y027668D01*
X026243Y028056D02*
X022569Y028056D01*
X022737Y028153D02*
X026111Y028153D01*
X026026Y028250D02*
X022824Y028250D01*
X022824Y028347D02*
X025938Y028347D01*
X025946Y027951D02*
X025946Y027951D01*
X025946Y027951D01*
X025842Y027951D02*
X025842Y027951D01*
X025719Y027951D02*
X025719Y027951D01*
X025584Y027951D02*
X025584Y027951D01*
X025584Y027951D01*
X025479Y027951D02*
X025479Y027951D01*
X025356Y027951D02*
X025356Y027951D01*
X025356Y027951D01*
X025270Y027864D02*
X025270Y027864D01*
X025268Y027862D02*
X024998Y027862D01*
X024754Y027951D02*
X024754Y027951D01*
X024631Y027951D02*
X024631Y027951D01*
X024631Y027951D01*
X024130Y027862D02*
X023860Y027862D01*
X023858Y027864D02*
X023858Y027864D01*
X023910Y027811D02*
X023910Y027811D01*
X023771Y027951D02*
X023771Y027951D01*
X023771Y027951D01*
X023544Y027951D02*
X023544Y027951D01*
X023455Y027862D02*
X023445Y027862D01*
X023305Y029158D02*
X022973Y029158D01*
X022886Y029245D01*
X022886Y029368D01*
X022973Y029454D01*
X023267Y029454D01*
X023284Y029472D01*
X023284Y029559D01*
X023232Y029611D01*
X023232Y029734D01*
X023319Y029821D01*
X023546Y029821D01*
X023562Y029806D01*
X023577Y029821D01*
X023700Y029821D01*
X023743Y029777D01*
X023786Y029821D01*
X023909Y029821D01*
X023924Y029806D01*
X023939Y029821D01*
X024062Y029821D01*
X024105Y029777D01*
X024149Y029821D01*
X024272Y029821D01*
X024287Y029806D01*
X024302Y029821D01*
X024634Y029821D01*
X024675Y029779D01*
X024717Y029821D01*
X024840Y029821D01*
X024940Y029720D01*
X024940Y029734D01*
X025027Y029821D01*
X025150Y029821D01*
X025193Y029777D01*
X025236Y029821D01*
X025359Y029821D01*
X025446Y029734D01*
X025446Y029454D01*
X025665Y029454D01*
X025665Y029516D01*
X025665Y029621D01*
X025665Y029682D01*
X025665Y029682D01*
X025666Y029683D01*
X025717Y029734D01*
X025717Y029734D01*
X025734Y029750D01*
X025804Y029821D01*
X025804Y029821D01*
X025804Y029821D01*
X025909Y029821D01*
X025909Y029821D01*
X025917Y029821D01*
X025927Y029821D01*
X025927Y029821D01*
X026032Y029821D01*
X026032Y029821D01*
X026100Y029752D01*
X026119Y029734D01*
X026119Y029734D01*
X026171Y029682D01*
X026171Y029620D01*
X026171Y029349D01*
X026032Y029210D01*
X025804Y029210D01*
X025789Y029225D01*
X025722Y029158D01*
X025389Y029158D01*
X025337Y029210D01*
X025236Y029210D01*
X025193Y029253D01*
X025150Y029210D01*
X025027Y029210D01*
X024940Y029297D01*
X024940Y029367D01*
X024926Y029367D01*
X024926Y029297D01*
X024840Y029210D01*
X024717Y029210D01*
X024675Y029252D01*
X024634Y029210D01*
X024302Y029210D01*
X024261Y029252D01*
X024219Y029210D01*
X023992Y029210D01*
X023950Y029252D01*
X023909Y029210D01*
X023786Y029210D01*
X023743Y029253D01*
X023700Y029210D01*
X023577Y029210D01*
X023562Y029225D01*
X023546Y029210D01*
X023357Y029210D01*
X023305Y029158D01*
X023555Y029219D02*
X023568Y029219D01*
X023709Y029219D02*
X023777Y029219D01*
X023918Y029219D02*
X023983Y029219D01*
X024228Y029219D02*
X024293Y029219D01*
X024643Y029219D02*
X024708Y029219D01*
X024848Y029219D02*
X025018Y029219D01*
X024940Y029316D02*
X024926Y029316D01*
X025159Y029219D02*
X025227Y029219D01*
X025446Y029510D02*
X025665Y029510D01*
X025665Y029607D02*
X025446Y029607D01*
X025446Y029704D02*
X025687Y029704D01*
X025784Y029801D02*
X025379Y029801D01*
X025216Y029801D02*
X025170Y029801D01*
X025007Y029801D02*
X024860Y029801D01*
X024697Y029801D02*
X024654Y029801D01*
X024129Y029801D02*
X024082Y029801D01*
X023766Y029801D02*
X023720Y029801D01*
X023299Y029801D02*
X022751Y029801D01*
X022694Y029898D02*
X027805Y029898D01*
X027779Y029801D02*
X026052Y029801D01*
X026032Y029821D02*
X026032Y029821D01*
X026149Y029704D02*
X027006Y029704D01*
X027016Y029714D02*
X026903Y029601D01*
X026842Y029454D01*
X026842Y029294D01*
X026903Y029146D01*
X027016Y029033D01*
X027164Y028972D01*
X027324Y028972D01*
X027471Y029033D01*
X027584Y029146D01*
X027645Y029294D01*
X027645Y029454D01*
X027584Y029601D01*
X027471Y029714D01*
X027324Y029775D01*
X027164Y029775D01*
X027016Y029714D01*
X026909Y029607D02*
X026171Y029607D01*
X026171Y029510D02*
X026865Y029510D01*
X026842Y029413D02*
X026171Y029413D01*
X026138Y029316D02*
X026842Y029316D01*
X026873Y029219D02*
X026041Y029219D01*
X025795Y029219D02*
X025783Y029219D01*
X026255Y029025D02*
X027035Y029025D01*
X026927Y029122D02*
X022824Y029122D01*
X022824Y029219D02*
X022911Y029219D01*
X022886Y029316D02*
X022803Y029316D01*
X022706Y029413D02*
X022931Y029413D01*
X022795Y029510D02*
X023284Y029510D01*
X023236Y029607D02*
X022824Y029607D01*
X022824Y029704D02*
X023232Y029704D01*
X022979Y030382D02*
X028105Y030382D01*
X028228Y030185D02*
X027598Y030185D01*
X027480Y030067D01*
X022598Y030067D01*
X022726Y030256D02*
X022726Y030256D01*
X022792Y030285D02*
X027476Y030285D01*
X027631Y029995D02*
X027875Y029995D01*
X028031Y029830D02*
X027874Y029673D01*
X027874Y029437D01*
X028110Y029200D01*
X028582Y029200D01*
X028976Y029594D01*
X029370Y029594D01*
X029596Y029607D02*
X029773Y029607D01*
X029773Y029510D02*
X029596Y029510D01*
X029509Y029413D02*
X029861Y029413D01*
X030000Y029594D02*
X030000Y029988D01*
X029645Y030342D01*
X029645Y030618D01*
X029415Y030479D02*
X023074Y030479D01*
X023171Y030576D02*
X023722Y030576D01*
X023728Y030566D02*
X023728Y030566D01*
X023728Y030566D01*
X023666Y030673D02*
X023269Y030673D01*
X024509Y030576D02*
X029380Y030576D01*
X029381Y030673D02*
X024606Y030673D01*
X026342Y028928D02*
X028620Y028928D01*
X028592Y028831D02*
X026429Y028831D01*
X026516Y028735D02*
X028592Y028735D01*
X028819Y028807D02*
X028858Y028767D01*
X028858Y028216D01*
X028582Y027941D01*
X028071Y027941D01*
X028215Y027765D02*
X029212Y027765D01*
X029212Y027668D02*
X027917Y027668D01*
X027926Y027765D02*
X027748Y027765D01*
X027997Y027571D02*
X029074Y027571D01*
X028977Y027474D02*
X028037Y027474D01*
X028045Y027378D02*
X028947Y027378D01*
X028947Y027281D02*
X028040Y027281D01*
X028000Y027184D02*
X028293Y027184D01*
X028238Y027087D02*
X027925Y027087D01*
X027767Y026990D02*
X028238Y026990D01*
X028286Y026893D02*
X026025Y026893D01*
X027453Y029025D02*
X028717Y029025D01*
X028727Y029122D02*
X030502Y029122D01*
X030502Y029025D02*
X028920Y029025D01*
X029017Y028928D02*
X030502Y028928D01*
X030502Y028831D02*
X029045Y028831D01*
X029045Y028735D02*
X030502Y028735D01*
X030502Y028638D02*
X029015Y028638D01*
X029015Y028541D02*
X030502Y028541D01*
X030502Y028444D02*
X029015Y028444D01*
X029015Y028347D02*
X030502Y028347D01*
X030502Y028250D02*
X029015Y028250D01*
X029015Y028153D02*
X029183Y028153D01*
X029143Y028056D02*
X028921Y028056D01*
X028824Y027959D02*
X029143Y027959D01*
X029207Y027862D02*
X028727Y027862D01*
X029370Y028019D02*
X029370Y027547D01*
X029173Y027350D01*
X029423Y027378D02*
X029490Y027378D01*
X029520Y027474D02*
X029586Y027474D01*
X029527Y027571D02*
X029683Y027571D01*
X029780Y027668D02*
X029527Y027668D01*
X029527Y027765D02*
X029842Y027765D01*
X029837Y027862D02*
X029533Y027862D01*
X029596Y027959D02*
X029773Y027959D01*
X029773Y028056D02*
X029596Y028056D01*
X029556Y028153D02*
X029813Y028153D01*
X030000Y028019D02*
X030000Y027665D01*
X029370Y027035D01*
X028464Y027035D01*
X029450Y026893D02*
X030502Y026893D01*
X030502Y026990D02*
X029547Y026990D01*
X029527Y026970D02*
X029527Y026970D01*
X029644Y027087D02*
X030502Y027087D01*
X030502Y027184D02*
X029741Y027184D01*
X029838Y027281D02*
X030502Y027281D01*
X030502Y027378D02*
X029935Y027378D01*
X030032Y027474D02*
X030502Y027474D01*
X030502Y027571D02*
X030129Y027571D01*
X030157Y027668D02*
X030502Y027668D01*
X030502Y027765D02*
X030157Y027765D01*
X030163Y027862D02*
X030502Y027862D01*
X030502Y027959D02*
X030226Y027959D01*
X030226Y028056D02*
X030502Y028056D01*
X030502Y028153D02*
X030186Y028153D01*
X030502Y029219D02*
X028824Y029219D01*
X028921Y029316D02*
X030502Y029316D01*
X030502Y029413D02*
X030139Y029413D01*
X030226Y029510D02*
X030502Y029510D01*
X030502Y029607D02*
X030226Y029607D01*
X030210Y029704D02*
X030502Y029704D01*
X030502Y029801D02*
X030157Y029801D01*
X030157Y029898D02*
X030502Y029898D01*
X030502Y029995D02*
X030157Y029995D01*
X030119Y030091D02*
X030502Y030091D01*
X030502Y030188D02*
X030022Y030188D01*
X029925Y030285D02*
X030502Y030285D01*
X030502Y030382D02*
X029828Y030382D01*
X029876Y030479D02*
X030502Y030479D01*
X030502Y030576D02*
X029911Y030576D01*
X029910Y030673D02*
X030502Y030673D01*
X029770Y029995D02*
X028358Y029995D01*
X028454Y030091D02*
X029673Y030091D01*
X029576Y030188D02*
X028454Y030188D01*
X028447Y030285D02*
X029488Y030285D01*
X029488Y030382D02*
X028351Y030382D01*
X028258Y029898D02*
X029842Y029898D01*
X029842Y029801D02*
X029483Y029801D01*
X029580Y029704D02*
X029789Y029704D01*
X029256Y029801D02*
X028258Y029801D01*
X028225Y029704D02*
X028863Y029704D01*
X028766Y029607D02*
X028128Y029607D01*
X028031Y029510D02*
X028669Y029510D01*
X028572Y029413D02*
X028120Y029413D01*
X027868Y029219D02*
X027615Y029219D01*
X027645Y029316D02*
X027772Y029316D01*
X027716Y029413D02*
X027645Y029413D01*
X027622Y029510D02*
X027716Y029510D01*
X027716Y029607D02*
X027579Y029607D01*
X027482Y029704D02*
X027716Y029704D01*
X027560Y029122D02*
X027965Y029122D01*
X029018Y029413D02*
X029231Y029413D01*
X029873Y024858D02*
X030502Y024858D01*
X030502Y024761D02*
X029911Y024761D01*
X029911Y024664D02*
X030502Y024664D01*
X030502Y024567D02*
X029873Y024567D01*
X029835Y024470D02*
X030502Y024470D01*
X030502Y024373D02*
X029932Y024373D01*
X030029Y024276D02*
X030502Y024276D01*
X030502Y024179D02*
X030126Y024179D01*
X030157Y024082D02*
X030502Y024082D01*
X030502Y023985D02*
X030157Y023985D01*
X030157Y023888D02*
X030502Y023888D01*
X030502Y023791D02*
X030217Y023791D01*
X029868Y023501D02*
X029502Y023501D01*
X029596Y023597D02*
X029773Y023597D01*
X029773Y023694D02*
X029596Y023694D01*
X029587Y023791D02*
X029782Y023791D01*
X030502Y023307D02*
X028817Y023307D01*
X028720Y023210D02*
X030502Y023210D01*
X030502Y023113D02*
X028927Y023113D01*
X029024Y023016D02*
X030502Y023016D01*
X030502Y022919D02*
X029045Y022919D01*
X029045Y022822D02*
X030502Y022822D01*
X030502Y022725D02*
X029015Y022725D01*
X029015Y022628D02*
X030502Y022628D01*
X030502Y022531D02*
X029015Y022531D01*
X029015Y022434D02*
X030502Y022434D01*
X030502Y022337D02*
X030096Y022337D01*
X030193Y022241D02*
X030502Y022241D01*
X030502Y022144D02*
X030226Y022144D01*
X030226Y022047D02*
X030502Y022047D01*
X030502Y021950D02*
X030157Y021950D01*
X030157Y021853D02*
X030502Y021853D01*
X030502Y021756D02*
X030157Y021756D01*
X030122Y021659D02*
X030502Y021659D01*
X030502Y021562D02*
X030025Y021562D01*
X029928Y021465D02*
X030502Y021465D01*
X030502Y021368D02*
X029831Y021368D01*
X029734Y021271D02*
X030502Y021271D01*
X030502Y021174D02*
X029637Y021174D01*
X029540Y021077D02*
X030502Y021077D01*
X030502Y020980D02*
X029443Y020980D01*
X029370Y021130D02*
X028464Y021130D01*
X028293Y020980D02*
X026025Y020980D01*
X026025Y021077D02*
X026737Y021077D01*
X026764Y021066D02*
X026924Y021066D01*
X027071Y021128D01*
X027184Y021241D01*
X027244Y021384D01*
X027303Y021241D01*
X027416Y021128D01*
X027564Y021066D01*
X027724Y021066D01*
X027871Y021128D01*
X027984Y021241D01*
X028045Y021388D01*
X028045Y021548D01*
X027984Y021696D01*
X027871Y021809D01*
X027724Y021870D01*
X027564Y021870D01*
X027416Y021809D01*
X027303Y021696D01*
X027244Y021552D01*
X027184Y021696D01*
X027071Y021809D01*
X026924Y021870D01*
X026764Y021870D01*
X026616Y021809D01*
X026503Y021696D01*
X026442Y021548D01*
X026442Y021388D01*
X026503Y021241D01*
X026616Y021128D01*
X026764Y021066D01*
X026950Y021077D02*
X027537Y021077D01*
X027369Y021174D02*
X027118Y021174D01*
X027197Y021271D02*
X027291Y021271D01*
X027250Y021368D02*
X027237Y021368D01*
X027240Y021562D02*
X027248Y021562D01*
X027288Y021659D02*
X027199Y021659D01*
X027124Y021756D02*
X027363Y021756D01*
X027523Y021853D02*
X026965Y021853D01*
X026723Y021853D02*
X026086Y021853D01*
X026086Y021756D02*
X026563Y021756D01*
X026488Y021659D02*
X026086Y021659D01*
X026074Y021562D02*
X026448Y021562D01*
X026442Y021465D02*
X025977Y021465D01*
X026025Y021368D02*
X026450Y021368D01*
X026491Y021271D02*
X026025Y021271D01*
X026025Y021174D02*
X026569Y021174D01*
X027750Y021077D02*
X028238Y021077D01*
X028238Y021174D02*
X027918Y021174D01*
X027997Y021271D02*
X028286Y021271D01*
X028037Y021368D02*
X028947Y021368D01*
X028947Y021465D02*
X028045Y021465D01*
X028040Y021562D02*
X028970Y021562D01*
X029067Y021659D02*
X027999Y021659D01*
X027924Y021756D02*
X029212Y021756D01*
X029212Y021853D02*
X028208Y021853D01*
X028071Y022035D02*
X028582Y022035D01*
X028858Y022311D01*
X028858Y022862D01*
X028819Y022901D01*
X028592Y022919D02*
X026435Y022919D01*
X026348Y023016D02*
X028613Y023016D01*
X028710Y023113D02*
X027436Y023113D01*
X027052Y023113D02*
X026261Y023113D01*
X026523Y022822D02*
X028592Y022822D01*
X029015Y022337D02*
X029273Y022337D01*
X029176Y022241D02*
X029011Y022241D01*
X028914Y022144D02*
X029143Y022144D01*
X029143Y022047D02*
X028817Y022047D01*
X028720Y021950D02*
X029212Y021950D01*
X029370Y022114D02*
X029370Y021641D01*
X029173Y021444D01*
X029416Y021465D02*
X029483Y021465D01*
X029513Y021562D02*
X029580Y021562D01*
X029527Y021659D02*
X029676Y021659D01*
X029773Y021756D02*
X029527Y021756D01*
X029527Y021853D02*
X029842Y021853D01*
X029842Y021950D02*
X029527Y021950D01*
X029596Y022047D02*
X029773Y022047D01*
X029773Y022144D02*
X029596Y022144D01*
X029563Y022241D02*
X029806Y022241D01*
X029903Y022337D02*
X029466Y022337D01*
X030000Y022114D02*
X030000Y021759D01*
X029370Y021130D01*
X027933Y021853D02*
X027765Y021853D01*
X017903Y026893D02*
X016852Y026893D01*
X016949Y026990D02*
X017903Y026990D01*
X017903Y027087D02*
X017046Y027087D01*
X017143Y027184D02*
X017903Y027184D01*
X017903Y027281D02*
X017240Y027281D01*
X017337Y027378D02*
X017903Y027378D01*
X017903Y027474D02*
X017433Y027474D01*
X017530Y027571D02*
X017903Y027571D01*
X017903Y027668D02*
X017559Y027668D01*
X017559Y027765D02*
X017903Y027765D01*
X017903Y027862D02*
X017564Y027862D01*
X017628Y027959D02*
X017903Y027959D01*
X017903Y028056D02*
X017628Y028056D01*
X017588Y028153D02*
X017903Y028153D01*
X017903Y028250D02*
X016417Y028250D01*
X016417Y028347D02*
X017903Y028347D01*
X017903Y028444D02*
X016417Y028444D01*
X016417Y028541D02*
X017903Y028541D01*
X017903Y028638D02*
X016417Y028638D01*
X016447Y028735D02*
X017903Y028735D01*
X017903Y028831D02*
X016447Y028831D01*
X016419Y028928D02*
X017903Y028928D01*
X017903Y029025D02*
X016322Y029025D01*
X016419Y029413D02*
X016632Y029413D01*
X016982Y029704D02*
X017191Y029704D01*
X017313Y030576D02*
X017903Y030576D01*
X017903Y030673D02*
X017312Y030673D01*
X017215Y028153D02*
X016958Y028153D01*
X016998Y028056D02*
X017175Y028056D01*
X017175Y027959D02*
X016998Y027959D01*
X016934Y027862D02*
X017238Y027862D01*
X017244Y027765D02*
X016929Y027765D01*
X016929Y027668D02*
X017182Y027668D01*
X017085Y027571D02*
X016929Y027571D01*
X016922Y027474D02*
X016988Y027474D01*
X016891Y027378D02*
X016825Y027378D01*
X016771Y027547D02*
X016574Y027350D01*
X016771Y027547D02*
X016771Y028019D01*
X016608Y027862D02*
X016128Y027862D01*
X016225Y027959D02*
X016545Y027959D01*
X016545Y028056D02*
X016322Y028056D01*
X016417Y028153D02*
X016585Y028153D01*
X017401Y028019D02*
X017401Y027665D01*
X016771Y027035D01*
X015866Y027035D01*
X011053Y024858D02*
X010820Y024858D01*
X010665Y024761D02*
X011072Y024761D01*
X011128Y024664D02*
X010565Y024664D01*
X011129Y024661D02*
X011129Y024661D01*
X010976Y023307D02*
X010950Y023307D01*
D18*
X010000Y023295D02*
X009724Y023295D01*
X009724Y023728D02*
X010000Y023728D01*
X010000Y024161D02*
X009724Y024161D01*
X009724Y022429D02*
X010000Y022429D01*
X010000Y021563D02*
X009724Y021563D01*
X009724Y021130D02*
X010000Y021130D01*
X010000Y018256D02*
X009724Y018256D01*
X009724Y017822D02*
X010000Y017822D01*
X010000Y017389D02*
X009724Y017389D01*
X009724Y016523D02*
X010000Y016523D01*
X010000Y015657D02*
X009724Y015657D01*
X009724Y015224D02*
X010000Y015224D01*
X010000Y012350D02*
X009724Y012350D01*
X009724Y011917D02*
X010000Y011917D01*
X010000Y011484D02*
X009724Y011484D01*
X009724Y010618D02*
X010000Y010618D01*
X010000Y009752D02*
X009724Y009752D01*
X009724Y009319D02*
X010000Y009319D01*
X022323Y009319D02*
X022598Y009319D01*
X022598Y009752D02*
X022323Y009752D01*
X022323Y010618D02*
X022598Y010618D01*
X022598Y011484D02*
X022323Y011484D01*
X022323Y011917D02*
X022598Y011917D01*
X022598Y012350D02*
X022323Y012350D01*
X022323Y015224D02*
X022598Y015224D01*
X022598Y015657D02*
X022323Y015657D01*
X022323Y016523D02*
X022598Y016523D01*
X022598Y017389D02*
X022323Y017389D01*
X022323Y017822D02*
X022598Y017822D01*
X022598Y018256D02*
X022323Y018256D01*
X022323Y021130D02*
X022598Y021130D01*
X022598Y021563D02*
X022323Y021563D01*
X022323Y022429D02*
X022598Y022429D01*
X022598Y023295D02*
X022323Y023295D01*
X022323Y023728D02*
X022598Y023728D01*
X022598Y024161D02*
X022323Y024161D01*
X022323Y027035D02*
X022598Y027035D01*
X022598Y027468D02*
X022323Y027468D01*
X022323Y028334D02*
X022598Y028334D01*
X022598Y029200D02*
X022323Y029200D01*
X022323Y029633D02*
X022598Y029633D01*
X022598Y030067D02*
X022323Y030067D01*
X010000Y030067D02*
X009724Y030067D01*
X009724Y029633D02*
X010000Y029633D01*
X010000Y029200D02*
X009724Y029200D01*
X009724Y028334D02*
X010000Y028334D01*
X010000Y027468D02*
X009724Y027468D01*
X009724Y027035D02*
X010000Y027035D01*
M02*
