G75*
%MOIN*%
%OFA0B0*%
%FSLAX24Y24*%
%IPPOS*%
%LPD*%
%AMOC8*
5,1,8,0,0,1.08239X$1,22.5*
%
%ADD10C,0.0000*%
%ADD11C,0.0315*%
D10*
X004212Y004988D02*
X004212Y034909D01*
X035708Y034909D01*
X035708Y004988D01*
X004212Y004988D01*
X005394Y006956D02*
X005396Y007012D01*
X005402Y007067D01*
X005412Y007121D01*
X005425Y007175D01*
X005443Y007228D01*
X005464Y007279D01*
X005488Y007329D01*
X005516Y007377D01*
X005548Y007423D01*
X005582Y007467D01*
X005620Y007508D01*
X005660Y007546D01*
X005703Y007581D01*
X005748Y007613D01*
X005796Y007642D01*
X005845Y007668D01*
X005896Y007690D01*
X005948Y007708D01*
X006002Y007722D01*
X006057Y007733D01*
X006112Y007740D01*
X006167Y007743D01*
X006223Y007742D01*
X006278Y007737D01*
X006333Y007728D01*
X006387Y007716D01*
X006440Y007699D01*
X006492Y007679D01*
X006542Y007655D01*
X006590Y007628D01*
X006637Y007598D01*
X006681Y007564D01*
X006723Y007527D01*
X006761Y007487D01*
X006798Y007445D01*
X006831Y007400D01*
X006860Y007354D01*
X006887Y007305D01*
X006909Y007254D01*
X006929Y007202D01*
X006944Y007148D01*
X006956Y007094D01*
X006964Y007039D01*
X006968Y006984D01*
X006968Y006928D01*
X006964Y006873D01*
X006956Y006818D01*
X006944Y006764D01*
X006929Y006710D01*
X006909Y006658D01*
X006887Y006607D01*
X006860Y006558D01*
X006831Y006512D01*
X006798Y006467D01*
X006761Y006425D01*
X006723Y006385D01*
X006681Y006348D01*
X006637Y006314D01*
X006590Y006284D01*
X006542Y006257D01*
X006492Y006233D01*
X006440Y006213D01*
X006387Y006196D01*
X006333Y006184D01*
X006278Y006175D01*
X006223Y006170D01*
X006167Y006169D01*
X006112Y006172D01*
X006057Y006179D01*
X006002Y006190D01*
X005948Y006204D01*
X005896Y006222D01*
X005845Y006244D01*
X005796Y006270D01*
X005748Y006299D01*
X005703Y006331D01*
X005660Y006366D01*
X005620Y006404D01*
X005582Y006445D01*
X005548Y006489D01*
X005516Y006535D01*
X005488Y006583D01*
X005464Y006633D01*
X005443Y006684D01*
X005425Y006737D01*
X005412Y006791D01*
X005402Y006845D01*
X005396Y006900D01*
X005394Y006956D01*
X014050Y009657D02*
X014052Y009685D01*
X014058Y009712D01*
X014068Y009738D01*
X014081Y009762D01*
X014098Y009785D01*
X014117Y009804D01*
X014140Y009821D01*
X014164Y009834D01*
X014190Y009844D01*
X014217Y009850D01*
X014245Y009852D01*
X014273Y009850D01*
X014300Y009844D01*
X014326Y009834D01*
X014350Y009821D01*
X014373Y009804D01*
X014392Y009785D01*
X014409Y009762D01*
X014422Y009738D01*
X014432Y009712D01*
X014438Y009685D01*
X014440Y009657D01*
X014438Y009629D01*
X014432Y009602D01*
X014422Y009576D01*
X014409Y009552D01*
X014392Y009529D01*
X014373Y009510D01*
X014350Y009493D01*
X014326Y009480D01*
X014300Y009470D01*
X014273Y009464D01*
X014245Y009462D01*
X014217Y009464D01*
X014190Y009470D01*
X014164Y009480D01*
X014140Y009493D01*
X014117Y009510D01*
X014098Y009529D01*
X014081Y009552D01*
X014068Y009576D01*
X014058Y009602D01*
X014052Y009629D01*
X014050Y009657D01*
X014850Y009657D02*
X014852Y009685D01*
X014858Y009712D01*
X014868Y009738D01*
X014881Y009762D01*
X014898Y009785D01*
X014917Y009804D01*
X014940Y009821D01*
X014964Y009834D01*
X014990Y009844D01*
X015017Y009850D01*
X015045Y009852D01*
X015073Y009850D01*
X015100Y009844D01*
X015126Y009834D01*
X015150Y009821D01*
X015173Y009804D01*
X015192Y009785D01*
X015209Y009762D01*
X015222Y009738D01*
X015232Y009712D01*
X015238Y009685D01*
X015240Y009657D01*
X015238Y009629D01*
X015232Y009602D01*
X015222Y009576D01*
X015209Y009552D01*
X015192Y009529D01*
X015173Y009510D01*
X015150Y009493D01*
X015126Y009480D01*
X015100Y009470D01*
X015073Y009464D01*
X015045Y009462D01*
X015017Y009464D01*
X014990Y009470D01*
X014964Y009480D01*
X014940Y009493D01*
X014917Y009510D01*
X014898Y009529D01*
X014881Y009552D01*
X014868Y009576D01*
X014858Y009602D01*
X014852Y009629D01*
X014850Y009657D01*
X014450Y011657D02*
X014452Y011685D01*
X014458Y011712D01*
X014468Y011738D01*
X014481Y011762D01*
X014498Y011785D01*
X014517Y011804D01*
X014540Y011821D01*
X014564Y011834D01*
X014590Y011844D01*
X014617Y011850D01*
X014645Y011852D01*
X014673Y011850D01*
X014700Y011844D01*
X014726Y011834D01*
X014750Y011821D01*
X014773Y011804D01*
X014792Y011785D01*
X014809Y011762D01*
X014822Y011738D01*
X014832Y011712D01*
X014838Y011685D01*
X014840Y011657D01*
X014838Y011629D01*
X014832Y011602D01*
X014822Y011576D01*
X014809Y011552D01*
X014792Y011529D01*
X014773Y011510D01*
X014750Y011493D01*
X014726Y011480D01*
X014700Y011470D01*
X014673Y011464D01*
X014645Y011462D01*
X014617Y011464D01*
X014590Y011470D01*
X014564Y011480D01*
X014540Y011493D01*
X014517Y011510D01*
X014498Y011529D01*
X014481Y011552D01*
X014468Y011576D01*
X014458Y011602D01*
X014452Y011629D01*
X014450Y011657D01*
X014050Y015563D02*
X014052Y015591D01*
X014058Y015618D01*
X014068Y015644D01*
X014081Y015668D01*
X014098Y015691D01*
X014117Y015710D01*
X014140Y015727D01*
X014164Y015740D01*
X014190Y015750D01*
X014217Y015756D01*
X014245Y015758D01*
X014273Y015756D01*
X014300Y015750D01*
X014326Y015740D01*
X014350Y015727D01*
X014373Y015710D01*
X014392Y015691D01*
X014409Y015668D01*
X014422Y015644D01*
X014432Y015618D01*
X014438Y015591D01*
X014440Y015563D01*
X014438Y015535D01*
X014432Y015508D01*
X014422Y015482D01*
X014409Y015458D01*
X014392Y015435D01*
X014373Y015416D01*
X014350Y015399D01*
X014326Y015386D01*
X014300Y015376D01*
X014273Y015370D01*
X014245Y015368D01*
X014217Y015370D01*
X014190Y015376D01*
X014164Y015386D01*
X014140Y015399D01*
X014117Y015416D01*
X014098Y015435D01*
X014081Y015458D01*
X014068Y015482D01*
X014058Y015508D01*
X014052Y015535D01*
X014050Y015563D01*
X014850Y015563D02*
X014852Y015591D01*
X014858Y015618D01*
X014868Y015644D01*
X014881Y015668D01*
X014898Y015691D01*
X014917Y015710D01*
X014940Y015727D01*
X014964Y015740D01*
X014990Y015750D01*
X015017Y015756D01*
X015045Y015758D01*
X015073Y015756D01*
X015100Y015750D01*
X015126Y015740D01*
X015150Y015727D01*
X015173Y015710D01*
X015192Y015691D01*
X015209Y015668D01*
X015222Y015644D01*
X015232Y015618D01*
X015238Y015591D01*
X015240Y015563D01*
X015238Y015535D01*
X015232Y015508D01*
X015222Y015482D01*
X015209Y015458D01*
X015192Y015435D01*
X015173Y015416D01*
X015150Y015399D01*
X015126Y015386D01*
X015100Y015376D01*
X015073Y015370D01*
X015045Y015368D01*
X015017Y015370D01*
X014990Y015376D01*
X014964Y015386D01*
X014940Y015399D01*
X014917Y015416D01*
X014898Y015435D01*
X014881Y015458D01*
X014868Y015482D01*
X014858Y015508D01*
X014852Y015535D01*
X014850Y015563D01*
X014450Y017563D02*
X014452Y017591D01*
X014458Y017618D01*
X014468Y017644D01*
X014481Y017668D01*
X014498Y017691D01*
X014517Y017710D01*
X014540Y017727D01*
X014564Y017740D01*
X014590Y017750D01*
X014617Y017756D01*
X014645Y017758D01*
X014673Y017756D01*
X014700Y017750D01*
X014726Y017740D01*
X014750Y017727D01*
X014773Y017710D01*
X014792Y017691D01*
X014809Y017668D01*
X014822Y017644D01*
X014832Y017618D01*
X014838Y017591D01*
X014840Y017563D01*
X014838Y017535D01*
X014832Y017508D01*
X014822Y017482D01*
X014809Y017458D01*
X014792Y017435D01*
X014773Y017416D01*
X014750Y017399D01*
X014726Y017386D01*
X014700Y017376D01*
X014673Y017370D01*
X014645Y017368D01*
X014617Y017370D01*
X014590Y017376D01*
X014564Y017386D01*
X014540Y017399D01*
X014517Y017416D01*
X014498Y017435D01*
X014481Y017458D01*
X014468Y017482D01*
X014458Y017508D01*
X014452Y017535D01*
X014450Y017563D01*
X014050Y021468D02*
X014052Y021496D01*
X014058Y021523D01*
X014068Y021549D01*
X014081Y021573D01*
X014098Y021596D01*
X014117Y021615D01*
X014140Y021632D01*
X014164Y021645D01*
X014190Y021655D01*
X014217Y021661D01*
X014245Y021663D01*
X014273Y021661D01*
X014300Y021655D01*
X014326Y021645D01*
X014350Y021632D01*
X014373Y021615D01*
X014392Y021596D01*
X014409Y021573D01*
X014422Y021549D01*
X014432Y021523D01*
X014438Y021496D01*
X014440Y021468D01*
X014438Y021440D01*
X014432Y021413D01*
X014422Y021387D01*
X014409Y021363D01*
X014392Y021340D01*
X014373Y021321D01*
X014350Y021304D01*
X014326Y021291D01*
X014300Y021281D01*
X014273Y021275D01*
X014245Y021273D01*
X014217Y021275D01*
X014190Y021281D01*
X014164Y021291D01*
X014140Y021304D01*
X014117Y021321D01*
X014098Y021340D01*
X014081Y021363D01*
X014068Y021387D01*
X014058Y021413D01*
X014052Y021440D01*
X014050Y021468D01*
X014850Y021468D02*
X014852Y021496D01*
X014858Y021523D01*
X014868Y021549D01*
X014881Y021573D01*
X014898Y021596D01*
X014917Y021615D01*
X014940Y021632D01*
X014964Y021645D01*
X014990Y021655D01*
X015017Y021661D01*
X015045Y021663D01*
X015073Y021661D01*
X015100Y021655D01*
X015126Y021645D01*
X015150Y021632D01*
X015173Y021615D01*
X015192Y021596D01*
X015209Y021573D01*
X015222Y021549D01*
X015232Y021523D01*
X015238Y021496D01*
X015240Y021468D01*
X015238Y021440D01*
X015232Y021413D01*
X015222Y021387D01*
X015209Y021363D01*
X015192Y021340D01*
X015173Y021321D01*
X015150Y021304D01*
X015126Y021291D01*
X015100Y021281D01*
X015073Y021275D01*
X015045Y021273D01*
X015017Y021275D01*
X014990Y021281D01*
X014964Y021291D01*
X014940Y021304D01*
X014917Y021321D01*
X014898Y021340D01*
X014881Y021363D01*
X014868Y021387D01*
X014858Y021413D01*
X014852Y021440D01*
X014850Y021468D01*
X014450Y023468D02*
X014452Y023496D01*
X014458Y023523D01*
X014468Y023549D01*
X014481Y023573D01*
X014498Y023596D01*
X014517Y023615D01*
X014540Y023632D01*
X014564Y023645D01*
X014590Y023655D01*
X014617Y023661D01*
X014645Y023663D01*
X014673Y023661D01*
X014700Y023655D01*
X014726Y023645D01*
X014750Y023632D01*
X014773Y023615D01*
X014792Y023596D01*
X014809Y023573D01*
X014822Y023549D01*
X014832Y023523D01*
X014838Y023496D01*
X014840Y023468D01*
X014838Y023440D01*
X014832Y023413D01*
X014822Y023387D01*
X014809Y023363D01*
X014792Y023340D01*
X014773Y023321D01*
X014750Y023304D01*
X014726Y023291D01*
X014700Y023281D01*
X014673Y023275D01*
X014645Y023273D01*
X014617Y023275D01*
X014590Y023281D01*
X014564Y023291D01*
X014540Y023304D01*
X014517Y023321D01*
X014498Y023340D01*
X014481Y023363D01*
X014468Y023387D01*
X014458Y023413D01*
X014452Y023440D01*
X014450Y023468D01*
X014050Y027374D02*
X014052Y027402D01*
X014058Y027429D01*
X014068Y027455D01*
X014081Y027479D01*
X014098Y027502D01*
X014117Y027521D01*
X014140Y027538D01*
X014164Y027551D01*
X014190Y027561D01*
X014217Y027567D01*
X014245Y027569D01*
X014273Y027567D01*
X014300Y027561D01*
X014326Y027551D01*
X014350Y027538D01*
X014373Y027521D01*
X014392Y027502D01*
X014409Y027479D01*
X014422Y027455D01*
X014432Y027429D01*
X014438Y027402D01*
X014440Y027374D01*
X014438Y027346D01*
X014432Y027319D01*
X014422Y027293D01*
X014409Y027269D01*
X014392Y027246D01*
X014373Y027227D01*
X014350Y027210D01*
X014326Y027197D01*
X014300Y027187D01*
X014273Y027181D01*
X014245Y027179D01*
X014217Y027181D01*
X014190Y027187D01*
X014164Y027197D01*
X014140Y027210D01*
X014117Y027227D01*
X014098Y027246D01*
X014081Y027269D01*
X014068Y027293D01*
X014058Y027319D01*
X014052Y027346D01*
X014050Y027374D01*
X014850Y027374D02*
X014852Y027402D01*
X014858Y027429D01*
X014868Y027455D01*
X014881Y027479D01*
X014898Y027502D01*
X014917Y027521D01*
X014940Y027538D01*
X014964Y027551D01*
X014990Y027561D01*
X015017Y027567D01*
X015045Y027569D01*
X015073Y027567D01*
X015100Y027561D01*
X015126Y027551D01*
X015150Y027538D01*
X015173Y027521D01*
X015192Y027502D01*
X015209Y027479D01*
X015222Y027455D01*
X015232Y027429D01*
X015238Y027402D01*
X015240Y027374D01*
X015238Y027346D01*
X015232Y027319D01*
X015222Y027293D01*
X015209Y027269D01*
X015192Y027246D01*
X015173Y027227D01*
X015150Y027210D01*
X015126Y027197D01*
X015100Y027187D01*
X015073Y027181D01*
X015045Y027179D01*
X015017Y027181D01*
X014990Y027187D01*
X014964Y027197D01*
X014940Y027210D01*
X014917Y027227D01*
X014898Y027246D01*
X014881Y027269D01*
X014868Y027293D01*
X014858Y027319D01*
X014852Y027346D01*
X014850Y027374D01*
X014450Y029374D02*
X014452Y029402D01*
X014458Y029429D01*
X014468Y029455D01*
X014481Y029479D01*
X014498Y029502D01*
X014517Y029521D01*
X014540Y029538D01*
X014564Y029551D01*
X014590Y029561D01*
X014617Y029567D01*
X014645Y029569D01*
X014673Y029567D01*
X014700Y029561D01*
X014726Y029551D01*
X014750Y029538D01*
X014773Y029521D01*
X014792Y029502D01*
X014809Y029479D01*
X014822Y029455D01*
X014832Y029429D01*
X014838Y029402D01*
X014840Y029374D01*
X014838Y029346D01*
X014832Y029319D01*
X014822Y029293D01*
X014809Y029269D01*
X014792Y029246D01*
X014773Y029227D01*
X014750Y029210D01*
X014726Y029197D01*
X014700Y029187D01*
X014673Y029181D01*
X014645Y029179D01*
X014617Y029181D01*
X014590Y029187D01*
X014564Y029197D01*
X014540Y029210D01*
X014517Y029227D01*
X014498Y029246D01*
X014481Y029269D01*
X014468Y029293D01*
X014458Y029319D01*
X014452Y029346D01*
X014450Y029374D01*
X005394Y032941D02*
X005396Y032997D01*
X005402Y033052D01*
X005412Y033106D01*
X005425Y033160D01*
X005443Y033213D01*
X005464Y033264D01*
X005488Y033314D01*
X005516Y033362D01*
X005548Y033408D01*
X005582Y033452D01*
X005620Y033493D01*
X005660Y033531D01*
X005703Y033566D01*
X005748Y033598D01*
X005796Y033627D01*
X005845Y033653D01*
X005896Y033675D01*
X005948Y033693D01*
X006002Y033707D01*
X006057Y033718D01*
X006112Y033725D01*
X006167Y033728D01*
X006223Y033727D01*
X006278Y033722D01*
X006333Y033713D01*
X006387Y033701D01*
X006440Y033684D01*
X006492Y033664D01*
X006542Y033640D01*
X006590Y033613D01*
X006637Y033583D01*
X006681Y033549D01*
X006723Y033512D01*
X006761Y033472D01*
X006798Y033430D01*
X006831Y033385D01*
X006860Y033339D01*
X006887Y033290D01*
X006909Y033239D01*
X006929Y033187D01*
X006944Y033133D01*
X006956Y033079D01*
X006964Y033024D01*
X006968Y032969D01*
X006968Y032913D01*
X006964Y032858D01*
X006956Y032803D01*
X006944Y032749D01*
X006929Y032695D01*
X006909Y032643D01*
X006887Y032592D01*
X006860Y032543D01*
X006831Y032497D01*
X006798Y032452D01*
X006761Y032410D01*
X006723Y032370D01*
X006681Y032333D01*
X006637Y032299D01*
X006590Y032269D01*
X006542Y032242D01*
X006492Y032218D01*
X006440Y032198D01*
X006387Y032181D01*
X006333Y032169D01*
X006278Y032160D01*
X006223Y032155D01*
X006167Y032154D01*
X006112Y032157D01*
X006057Y032164D01*
X006002Y032175D01*
X005948Y032189D01*
X005896Y032207D01*
X005845Y032229D01*
X005796Y032255D01*
X005748Y032284D01*
X005703Y032316D01*
X005660Y032351D01*
X005620Y032389D01*
X005582Y032430D01*
X005548Y032474D01*
X005516Y032520D01*
X005488Y032568D01*
X005464Y032618D01*
X005443Y032669D01*
X005425Y032722D01*
X005412Y032776D01*
X005402Y032830D01*
X005396Y032885D01*
X005394Y032941D01*
X026649Y027374D02*
X026651Y027402D01*
X026657Y027429D01*
X026667Y027455D01*
X026680Y027479D01*
X026697Y027502D01*
X026716Y027521D01*
X026739Y027538D01*
X026763Y027551D01*
X026789Y027561D01*
X026816Y027567D01*
X026844Y027569D01*
X026872Y027567D01*
X026899Y027561D01*
X026925Y027551D01*
X026949Y027538D01*
X026972Y027521D01*
X026991Y027502D01*
X027008Y027479D01*
X027021Y027455D01*
X027031Y027429D01*
X027037Y027402D01*
X027039Y027374D01*
X027037Y027346D01*
X027031Y027319D01*
X027021Y027293D01*
X027008Y027269D01*
X026991Y027246D01*
X026972Y027227D01*
X026949Y027210D01*
X026925Y027197D01*
X026899Y027187D01*
X026872Y027181D01*
X026844Y027179D01*
X026816Y027181D01*
X026789Y027187D01*
X026763Y027197D01*
X026739Y027210D01*
X026716Y027227D01*
X026697Y027246D01*
X026680Y027269D01*
X026667Y027293D01*
X026657Y027319D01*
X026651Y027346D01*
X026649Y027374D01*
X027449Y027374D02*
X027451Y027402D01*
X027457Y027429D01*
X027467Y027455D01*
X027480Y027479D01*
X027497Y027502D01*
X027516Y027521D01*
X027539Y027538D01*
X027563Y027551D01*
X027589Y027561D01*
X027616Y027567D01*
X027644Y027569D01*
X027672Y027567D01*
X027699Y027561D01*
X027725Y027551D01*
X027749Y027538D01*
X027772Y027521D01*
X027791Y027502D01*
X027808Y027479D01*
X027821Y027455D01*
X027831Y027429D01*
X027837Y027402D01*
X027839Y027374D01*
X027837Y027346D01*
X027831Y027319D01*
X027821Y027293D01*
X027808Y027269D01*
X027791Y027246D01*
X027772Y027227D01*
X027749Y027210D01*
X027725Y027197D01*
X027699Y027187D01*
X027672Y027181D01*
X027644Y027179D01*
X027616Y027181D01*
X027589Y027187D01*
X027563Y027197D01*
X027539Y027210D01*
X027516Y027227D01*
X027497Y027246D01*
X027480Y027269D01*
X027467Y027293D01*
X027457Y027319D01*
X027451Y027346D01*
X027449Y027374D01*
X027049Y029374D02*
X027051Y029402D01*
X027057Y029429D01*
X027067Y029455D01*
X027080Y029479D01*
X027097Y029502D01*
X027116Y029521D01*
X027139Y029538D01*
X027163Y029551D01*
X027189Y029561D01*
X027216Y029567D01*
X027244Y029569D01*
X027272Y029567D01*
X027299Y029561D01*
X027325Y029551D01*
X027349Y029538D01*
X027372Y029521D01*
X027391Y029502D01*
X027408Y029479D01*
X027421Y029455D01*
X027431Y029429D01*
X027437Y029402D01*
X027439Y029374D01*
X027437Y029346D01*
X027431Y029319D01*
X027421Y029293D01*
X027408Y029269D01*
X027391Y029246D01*
X027372Y029227D01*
X027349Y029210D01*
X027325Y029197D01*
X027299Y029187D01*
X027272Y029181D01*
X027244Y029179D01*
X027216Y029181D01*
X027189Y029187D01*
X027163Y029197D01*
X027139Y029210D01*
X027116Y029227D01*
X027097Y029246D01*
X027080Y029269D01*
X027067Y029293D01*
X027057Y029319D01*
X027051Y029346D01*
X027049Y029374D01*
X027049Y023468D02*
X027051Y023496D01*
X027057Y023523D01*
X027067Y023549D01*
X027080Y023573D01*
X027097Y023596D01*
X027116Y023615D01*
X027139Y023632D01*
X027163Y023645D01*
X027189Y023655D01*
X027216Y023661D01*
X027244Y023663D01*
X027272Y023661D01*
X027299Y023655D01*
X027325Y023645D01*
X027349Y023632D01*
X027372Y023615D01*
X027391Y023596D01*
X027408Y023573D01*
X027421Y023549D01*
X027431Y023523D01*
X027437Y023496D01*
X027439Y023468D01*
X027437Y023440D01*
X027431Y023413D01*
X027421Y023387D01*
X027408Y023363D01*
X027391Y023340D01*
X027372Y023321D01*
X027349Y023304D01*
X027325Y023291D01*
X027299Y023281D01*
X027272Y023275D01*
X027244Y023273D01*
X027216Y023275D01*
X027189Y023281D01*
X027163Y023291D01*
X027139Y023304D01*
X027116Y023321D01*
X027097Y023340D01*
X027080Y023363D01*
X027067Y023387D01*
X027057Y023413D01*
X027051Y023440D01*
X027049Y023468D01*
X026649Y021468D02*
X026651Y021496D01*
X026657Y021523D01*
X026667Y021549D01*
X026680Y021573D01*
X026697Y021596D01*
X026716Y021615D01*
X026739Y021632D01*
X026763Y021645D01*
X026789Y021655D01*
X026816Y021661D01*
X026844Y021663D01*
X026872Y021661D01*
X026899Y021655D01*
X026925Y021645D01*
X026949Y021632D01*
X026972Y021615D01*
X026991Y021596D01*
X027008Y021573D01*
X027021Y021549D01*
X027031Y021523D01*
X027037Y021496D01*
X027039Y021468D01*
X027037Y021440D01*
X027031Y021413D01*
X027021Y021387D01*
X027008Y021363D01*
X026991Y021340D01*
X026972Y021321D01*
X026949Y021304D01*
X026925Y021291D01*
X026899Y021281D01*
X026872Y021275D01*
X026844Y021273D01*
X026816Y021275D01*
X026789Y021281D01*
X026763Y021291D01*
X026739Y021304D01*
X026716Y021321D01*
X026697Y021340D01*
X026680Y021363D01*
X026667Y021387D01*
X026657Y021413D01*
X026651Y021440D01*
X026649Y021468D01*
X027449Y021468D02*
X027451Y021496D01*
X027457Y021523D01*
X027467Y021549D01*
X027480Y021573D01*
X027497Y021596D01*
X027516Y021615D01*
X027539Y021632D01*
X027563Y021645D01*
X027589Y021655D01*
X027616Y021661D01*
X027644Y021663D01*
X027672Y021661D01*
X027699Y021655D01*
X027725Y021645D01*
X027749Y021632D01*
X027772Y021615D01*
X027791Y021596D01*
X027808Y021573D01*
X027821Y021549D01*
X027831Y021523D01*
X027837Y021496D01*
X027839Y021468D01*
X027837Y021440D01*
X027831Y021413D01*
X027821Y021387D01*
X027808Y021363D01*
X027791Y021340D01*
X027772Y021321D01*
X027749Y021304D01*
X027725Y021291D01*
X027699Y021281D01*
X027672Y021275D01*
X027644Y021273D01*
X027616Y021275D01*
X027589Y021281D01*
X027563Y021291D01*
X027539Y021304D01*
X027516Y021321D01*
X027497Y021340D01*
X027480Y021363D01*
X027467Y021387D01*
X027457Y021413D01*
X027451Y021440D01*
X027449Y021468D01*
X027049Y017563D02*
X027051Y017591D01*
X027057Y017618D01*
X027067Y017644D01*
X027080Y017668D01*
X027097Y017691D01*
X027116Y017710D01*
X027139Y017727D01*
X027163Y017740D01*
X027189Y017750D01*
X027216Y017756D01*
X027244Y017758D01*
X027272Y017756D01*
X027299Y017750D01*
X027325Y017740D01*
X027349Y017727D01*
X027372Y017710D01*
X027391Y017691D01*
X027408Y017668D01*
X027421Y017644D01*
X027431Y017618D01*
X027437Y017591D01*
X027439Y017563D01*
X027437Y017535D01*
X027431Y017508D01*
X027421Y017482D01*
X027408Y017458D01*
X027391Y017435D01*
X027372Y017416D01*
X027349Y017399D01*
X027325Y017386D01*
X027299Y017376D01*
X027272Y017370D01*
X027244Y017368D01*
X027216Y017370D01*
X027189Y017376D01*
X027163Y017386D01*
X027139Y017399D01*
X027116Y017416D01*
X027097Y017435D01*
X027080Y017458D01*
X027067Y017482D01*
X027057Y017508D01*
X027051Y017535D01*
X027049Y017563D01*
X026649Y015563D02*
X026651Y015591D01*
X026657Y015618D01*
X026667Y015644D01*
X026680Y015668D01*
X026697Y015691D01*
X026716Y015710D01*
X026739Y015727D01*
X026763Y015740D01*
X026789Y015750D01*
X026816Y015756D01*
X026844Y015758D01*
X026872Y015756D01*
X026899Y015750D01*
X026925Y015740D01*
X026949Y015727D01*
X026972Y015710D01*
X026991Y015691D01*
X027008Y015668D01*
X027021Y015644D01*
X027031Y015618D01*
X027037Y015591D01*
X027039Y015563D01*
X027037Y015535D01*
X027031Y015508D01*
X027021Y015482D01*
X027008Y015458D01*
X026991Y015435D01*
X026972Y015416D01*
X026949Y015399D01*
X026925Y015386D01*
X026899Y015376D01*
X026872Y015370D01*
X026844Y015368D01*
X026816Y015370D01*
X026789Y015376D01*
X026763Y015386D01*
X026739Y015399D01*
X026716Y015416D01*
X026697Y015435D01*
X026680Y015458D01*
X026667Y015482D01*
X026657Y015508D01*
X026651Y015535D01*
X026649Y015563D01*
X027449Y015563D02*
X027451Y015591D01*
X027457Y015618D01*
X027467Y015644D01*
X027480Y015668D01*
X027497Y015691D01*
X027516Y015710D01*
X027539Y015727D01*
X027563Y015740D01*
X027589Y015750D01*
X027616Y015756D01*
X027644Y015758D01*
X027672Y015756D01*
X027699Y015750D01*
X027725Y015740D01*
X027749Y015727D01*
X027772Y015710D01*
X027791Y015691D01*
X027808Y015668D01*
X027821Y015644D01*
X027831Y015618D01*
X027837Y015591D01*
X027839Y015563D01*
X027837Y015535D01*
X027831Y015508D01*
X027821Y015482D01*
X027808Y015458D01*
X027791Y015435D01*
X027772Y015416D01*
X027749Y015399D01*
X027725Y015386D01*
X027699Y015376D01*
X027672Y015370D01*
X027644Y015368D01*
X027616Y015370D01*
X027589Y015376D01*
X027563Y015386D01*
X027539Y015399D01*
X027516Y015416D01*
X027497Y015435D01*
X027480Y015458D01*
X027467Y015482D01*
X027457Y015508D01*
X027451Y015535D01*
X027449Y015563D01*
X027049Y011657D02*
X027051Y011685D01*
X027057Y011712D01*
X027067Y011738D01*
X027080Y011762D01*
X027097Y011785D01*
X027116Y011804D01*
X027139Y011821D01*
X027163Y011834D01*
X027189Y011844D01*
X027216Y011850D01*
X027244Y011852D01*
X027272Y011850D01*
X027299Y011844D01*
X027325Y011834D01*
X027349Y011821D01*
X027372Y011804D01*
X027391Y011785D01*
X027408Y011762D01*
X027421Y011738D01*
X027431Y011712D01*
X027437Y011685D01*
X027439Y011657D01*
X027437Y011629D01*
X027431Y011602D01*
X027421Y011576D01*
X027408Y011552D01*
X027391Y011529D01*
X027372Y011510D01*
X027349Y011493D01*
X027325Y011480D01*
X027299Y011470D01*
X027272Y011464D01*
X027244Y011462D01*
X027216Y011464D01*
X027189Y011470D01*
X027163Y011480D01*
X027139Y011493D01*
X027116Y011510D01*
X027097Y011529D01*
X027080Y011552D01*
X027067Y011576D01*
X027057Y011602D01*
X027051Y011629D01*
X027049Y011657D01*
X026649Y009657D02*
X026651Y009685D01*
X026657Y009712D01*
X026667Y009738D01*
X026680Y009762D01*
X026697Y009785D01*
X026716Y009804D01*
X026739Y009821D01*
X026763Y009834D01*
X026789Y009844D01*
X026816Y009850D01*
X026844Y009852D01*
X026872Y009850D01*
X026899Y009844D01*
X026925Y009834D01*
X026949Y009821D01*
X026972Y009804D01*
X026991Y009785D01*
X027008Y009762D01*
X027021Y009738D01*
X027031Y009712D01*
X027037Y009685D01*
X027039Y009657D01*
X027037Y009629D01*
X027031Y009602D01*
X027021Y009576D01*
X027008Y009552D01*
X026991Y009529D01*
X026972Y009510D01*
X026949Y009493D01*
X026925Y009480D01*
X026899Y009470D01*
X026872Y009464D01*
X026844Y009462D01*
X026816Y009464D01*
X026789Y009470D01*
X026763Y009480D01*
X026739Y009493D01*
X026716Y009510D01*
X026697Y009529D01*
X026680Y009552D01*
X026667Y009576D01*
X026657Y009602D01*
X026651Y009629D01*
X026649Y009657D01*
X027449Y009657D02*
X027451Y009685D01*
X027457Y009712D01*
X027467Y009738D01*
X027480Y009762D01*
X027497Y009785D01*
X027516Y009804D01*
X027539Y009821D01*
X027563Y009834D01*
X027589Y009844D01*
X027616Y009850D01*
X027644Y009852D01*
X027672Y009850D01*
X027699Y009844D01*
X027725Y009834D01*
X027749Y009821D01*
X027772Y009804D01*
X027791Y009785D01*
X027808Y009762D01*
X027821Y009738D01*
X027831Y009712D01*
X027837Y009685D01*
X027839Y009657D01*
X027837Y009629D01*
X027831Y009602D01*
X027821Y009576D01*
X027808Y009552D01*
X027791Y009529D01*
X027772Y009510D01*
X027749Y009493D01*
X027725Y009480D01*
X027699Y009470D01*
X027672Y009464D01*
X027644Y009462D01*
X027616Y009464D01*
X027589Y009470D01*
X027563Y009480D01*
X027539Y009493D01*
X027516Y009510D01*
X027497Y009529D01*
X027480Y009552D01*
X027467Y009576D01*
X027457Y009602D01*
X027451Y009629D01*
X027449Y009657D01*
X032953Y006956D02*
X032955Y007012D01*
X032961Y007067D01*
X032971Y007121D01*
X032984Y007175D01*
X033002Y007228D01*
X033023Y007279D01*
X033047Y007329D01*
X033075Y007377D01*
X033107Y007423D01*
X033141Y007467D01*
X033179Y007508D01*
X033219Y007546D01*
X033262Y007581D01*
X033307Y007613D01*
X033355Y007642D01*
X033404Y007668D01*
X033455Y007690D01*
X033507Y007708D01*
X033561Y007722D01*
X033616Y007733D01*
X033671Y007740D01*
X033726Y007743D01*
X033782Y007742D01*
X033837Y007737D01*
X033892Y007728D01*
X033946Y007716D01*
X033999Y007699D01*
X034051Y007679D01*
X034101Y007655D01*
X034149Y007628D01*
X034196Y007598D01*
X034240Y007564D01*
X034282Y007527D01*
X034320Y007487D01*
X034357Y007445D01*
X034390Y007400D01*
X034419Y007354D01*
X034446Y007305D01*
X034468Y007254D01*
X034488Y007202D01*
X034503Y007148D01*
X034515Y007094D01*
X034523Y007039D01*
X034527Y006984D01*
X034527Y006928D01*
X034523Y006873D01*
X034515Y006818D01*
X034503Y006764D01*
X034488Y006710D01*
X034468Y006658D01*
X034446Y006607D01*
X034419Y006558D01*
X034390Y006512D01*
X034357Y006467D01*
X034320Y006425D01*
X034282Y006385D01*
X034240Y006348D01*
X034196Y006314D01*
X034149Y006284D01*
X034101Y006257D01*
X034051Y006233D01*
X033999Y006213D01*
X033946Y006196D01*
X033892Y006184D01*
X033837Y006175D01*
X033782Y006170D01*
X033726Y006169D01*
X033671Y006172D01*
X033616Y006179D01*
X033561Y006190D01*
X033507Y006204D01*
X033455Y006222D01*
X033404Y006244D01*
X033355Y006270D01*
X033307Y006299D01*
X033262Y006331D01*
X033219Y006366D01*
X033179Y006404D01*
X033141Y006445D01*
X033107Y006489D01*
X033075Y006535D01*
X033047Y006583D01*
X033023Y006633D01*
X033002Y006684D01*
X032984Y006737D01*
X032971Y006791D01*
X032961Y006845D01*
X032955Y006900D01*
X032953Y006956D01*
X032953Y032941D02*
X032955Y032997D01*
X032961Y033052D01*
X032971Y033106D01*
X032984Y033160D01*
X033002Y033213D01*
X033023Y033264D01*
X033047Y033314D01*
X033075Y033362D01*
X033107Y033408D01*
X033141Y033452D01*
X033179Y033493D01*
X033219Y033531D01*
X033262Y033566D01*
X033307Y033598D01*
X033355Y033627D01*
X033404Y033653D01*
X033455Y033675D01*
X033507Y033693D01*
X033561Y033707D01*
X033616Y033718D01*
X033671Y033725D01*
X033726Y033728D01*
X033782Y033727D01*
X033837Y033722D01*
X033892Y033713D01*
X033946Y033701D01*
X033999Y033684D01*
X034051Y033664D01*
X034101Y033640D01*
X034149Y033613D01*
X034196Y033583D01*
X034240Y033549D01*
X034282Y033512D01*
X034320Y033472D01*
X034357Y033430D01*
X034390Y033385D01*
X034419Y033339D01*
X034446Y033290D01*
X034468Y033239D01*
X034488Y033187D01*
X034503Y033133D01*
X034515Y033079D01*
X034523Y033024D01*
X034527Y032969D01*
X034527Y032913D01*
X034523Y032858D01*
X034515Y032803D01*
X034503Y032749D01*
X034488Y032695D01*
X034468Y032643D01*
X034446Y032592D01*
X034419Y032543D01*
X034390Y032497D01*
X034357Y032452D01*
X034320Y032410D01*
X034282Y032370D01*
X034240Y032333D01*
X034196Y032299D01*
X034149Y032269D01*
X034101Y032242D01*
X034051Y032218D01*
X033999Y032198D01*
X033946Y032181D01*
X033892Y032169D01*
X033837Y032160D01*
X033782Y032155D01*
X033726Y032154D01*
X033671Y032157D01*
X033616Y032164D01*
X033561Y032175D01*
X033507Y032189D01*
X033455Y032207D01*
X033404Y032229D01*
X033355Y032255D01*
X033307Y032284D01*
X033262Y032316D01*
X033219Y032351D01*
X033179Y032389D01*
X033141Y032430D01*
X033107Y032474D01*
X033075Y032520D01*
X033047Y032568D01*
X033023Y032618D01*
X033002Y032669D01*
X032984Y032722D01*
X032971Y032776D01*
X032961Y032830D01*
X032955Y032885D01*
X032953Y032941D01*
D11*
X031771Y034909D02*
X031771Y030972D01*
X035708Y030972D01*
X031771Y030972D02*
X008149Y030972D01*
X004212Y030972D01*
X008149Y030972D02*
X008149Y034909D01*
X008149Y030972D02*
X008149Y026641D01*
X031771Y026641D01*
X035708Y026641D01*
X035708Y025067D02*
X031771Y025067D01*
X008149Y025067D01*
X008149Y026641D01*
X004212Y026641D01*
X004212Y025067D02*
X008149Y025067D01*
X008149Y020736D01*
X004212Y020736D01*
X004212Y019161D02*
X008149Y019161D01*
X019173Y019161D01*
X019173Y020736D01*
X019173Y034909D01*
X020748Y034909D02*
X020748Y004988D01*
X019173Y004988D02*
X019173Y008925D01*
X019173Y013256D01*
X019173Y019161D01*
X031771Y019161D01*
X035708Y019161D01*
X035708Y020736D02*
X031771Y020736D01*
X019173Y020736D01*
X008149Y020736D01*
X008149Y019161D01*
X008149Y014830D01*
X004212Y014830D01*
X004212Y013256D02*
X008149Y013256D01*
X019173Y013256D01*
X031771Y013256D01*
X035708Y013256D01*
X035708Y014830D02*
X031771Y014830D01*
X008149Y014830D01*
X008149Y013256D01*
X008149Y008925D01*
X019173Y008925D01*
X031771Y008925D01*
X035708Y008925D01*
X031771Y008925D02*
X031771Y004988D01*
X031771Y008925D02*
X031771Y013256D01*
X031771Y014830D01*
X031771Y019161D01*
X031771Y020736D01*
X031771Y025067D01*
X031771Y026641D01*
X031771Y030972D01*
X008149Y008925D02*
X004212Y008925D01*
X008149Y008925D02*
X008149Y004988D01*
M02*
