G75*
%MOIN*%
%OFA0B0*%
%FSLAX24Y24*%
%IPPOS*%
%LPD*%
%AMOC8*
5,1,8,0,0,1.08239X$1,22.5*
%
%ADD10C,0.0080*%
%ADD11C,0.0079*%
D10*
X009528Y007590D02*
X009580Y007538D01*
X009685Y007538D01*
X009737Y007590D01*
X009890Y007538D02*
X010100Y007538D01*
X009995Y007538D02*
X009995Y007852D01*
X009890Y007747D01*
X009737Y007800D02*
X009685Y007852D01*
X009580Y007852D01*
X009528Y007800D01*
X009528Y007590D01*
X009528Y009467D02*
X009528Y009781D01*
X009685Y009781D01*
X009737Y009729D01*
X009737Y009624D01*
X009685Y009572D01*
X009528Y009572D01*
X009633Y009572D02*
X009737Y009467D01*
X009890Y009467D02*
X010100Y009467D01*
X009995Y009467D02*
X009995Y009781D01*
X009890Y009676D01*
X012992Y010031D02*
X013045Y009979D01*
X013149Y009979D01*
X013202Y010031D01*
X013202Y010293D01*
X013355Y010188D02*
X013460Y010293D01*
X013460Y009979D01*
X013564Y009979D02*
X013355Y009979D01*
X012992Y010031D02*
X012992Y010293D01*
X010100Y013444D02*
X009890Y013444D01*
X009995Y013444D02*
X009995Y013757D01*
X009890Y013653D01*
X009737Y013705D02*
X009685Y013757D01*
X009580Y013757D01*
X009528Y013705D01*
X009528Y013496D01*
X009580Y013444D01*
X009685Y013444D01*
X009737Y013496D01*
X009737Y015373D02*
X009633Y015477D01*
X009685Y015477D02*
X009528Y015477D01*
X009528Y015373D02*
X009528Y015687D01*
X009685Y015687D01*
X009737Y015634D01*
X009737Y015530D01*
X009685Y015477D01*
X009890Y015373D02*
X010100Y015373D01*
X009995Y015373D02*
X009995Y015687D01*
X009890Y015582D01*
X012992Y015937D02*
X013045Y015884D01*
X013149Y015884D01*
X013202Y015937D01*
X013202Y016198D01*
X013355Y016094D02*
X013460Y016198D01*
X013460Y015884D01*
X013564Y015884D02*
X013355Y015884D01*
X012992Y015937D02*
X012992Y016198D01*
X010100Y019349D02*
X009890Y019349D01*
X009995Y019349D02*
X009995Y019663D01*
X009890Y019558D01*
X009737Y019611D02*
X009685Y019663D01*
X009580Y019663D01*
X009528Y019611D01*
X009528Y019401D01*
X009580Y019349D01*
X009685Y019349D01*
X009737Y019401D01*
X009737Y021278D02*
X009633Y021383D01*
X009685Y021383D02*
X009528Y021383D01*
X009528Y021278D02*
X009528Y021592D01*
X009685Y021592D01*
X009737Y021540D01*
X009737Y021435D01*
X009685Y021383D01*
X009890Y021487D02*
X009995Y021592D01*
X009995Y021278D01*
X009890Y021278D02*
X010100Y021278D01*
X012992Y021842D02*
X013045Y021790D01*
X013149Y021790D01*
X013202Y021842D01*
X013202Y022104D01*
X013355Y021999D02*
X013460Y022104D01*
X013460Y021790D01*
X013564Y021790D02*
X013355Y021790D01*
X012992Y021842D02*
X012992Y022104D01*
X019764Y021592D02*
X019764Y021278D01*
X019764Y021383D02*
X019921Y021383D01*
X019973Y021435D01*
X019973Y021540D01*
X019921Y021592D01*
X019764Y021592D01*
X019869Y021383D02*
X019973Y021278D01*
X020127Y021278D02*
X020336Y021278D01*
X020231Y021278D02*
X020231Y021592D01*
X020127Y021487D01*
X020231Y019663D02*
X020231Y019349D01*
X020127Y019349D02*
X020336Y019349D01*
X020127Y019558D02*
X020231Y019663D01*
X019973Y019611D02*
X019921Y019663D01*
X019816Y019663D01*
X019764Y019611D01*
X019764Y019401D01*
X019816Y019349D01*
X019921Y019349D01*
X019973Y019401D01*
X023229Y021842D02*
X023281Y021790D01*
X023386Y021790D01*
X023438Y021842D01*
X023438Y022104D01*
X023591Y021999D02*
X023696Y022104D01*
X023696Y021790D01*
X023800Y021790D02*
X023591Y021790D01*
X023229Y021842D02*
X023229Y022104D01*
X023229Y016198D02*
X023229Y015937D01*
X023281Y015884D01*
X023386Y015884D01*
X023438Y015937D01*
X023438Y016198D01*
X023591Y016094D02*
X023696Y016198D01*
X023696Y015884D01*
X023800Y015884D02*
X023591Y015884D01*
X020336Y015373D02*
X020127Y015373D01*
X020231Y015373D02*
X020231Y015687D01*
X020127Y015582D01*
X019973Y015634D02*
X019973Y015530D01*
X019921Y015477D01*
X019764Y015477D01*
X019764Y015373D02*
X019764Y015687D01*
X019921Y015687D01*
X019973Y015634D01*
X019869Y015477D02*
X019973Y015373D01*
X019921Y013757D02*
X019816Y013757D01*
X019764Y013705D01*
X019764Y013496D01*
X019816Y013444D01*
X019921Y013444D01*
X019973Y013496D01*
X020127Y013444D02*
X020336Y013444D01*
X020231Y013444D02*
X020231Y013757D01*
X020127Y013653D01*
X019973Y013705D02*
X019921Y013757D01*
X023229Y010293D02*
X023229Y010031D01*
X023281Y009979D01*
X023386Y009979D01*
X023438Y010031D01*
X023438Y010293D01*
X023591Y010188D02*
X023696Y010293D01*
X023696Y009979D01*
X023800Y009979D02*
X023591Y009979D01*
X020336Y009467D02*
X020127Y009467D01*
X020231Y009467D02*
X020231Y009781D01*
X020127Y009676D01*
X019973Y009624D02*
X019921Y009572D01*
X019764Y009572D01*
X019869Y009572D02*
X019973Y009467D01*
X019973Y009624D02*
X019973Y009729D01*
X019921Y009781D01*
X019764Y009781D01*
X019764Y009467D01*
X019816Y007852D02*
X019764Y007800D01*
X019764Y007590D01*
X019816Y007538D01*
X019921Y007538D01*
X019973Y007590D01*
X020127Y007538D02*
X020336Y007538D01*
X020231Y007538D02*
X020231Y007852D01*
X020127Y007747D01*
X019973Y007800D02*
X019921Y007852D01*
X019816Y007852D01*
D11*
X020433Y007537D02*
X020433Y007498D01*
X020826Y007498D01*
X020826Y007459D01*
X020826Y007498D02*
X020826Y007537D01*
X020433Y007498D02*
X020433Y007459D01*
X020945Y007104D02*
X020945Y009860D01*
X023897Y009860D01*
X023897Y007104D01*
X020945Y007104D01*
X020826Y009388D02*
X020826Y009427D01*
X020433Y009427D01*
X020433Y009467D01*
X020433Y009427D02*
X020433Y009388D01*
X020826Y009427D02*
X020826Y009467D01*
X020591Y010057D02*
X020593Y010082D01*
X020599Y010106D01*
X020608Y010128D01*
X020621Y010149D01*
X020637Y010168D01*
X020656Y010184D01*
X020677Y010197D01*
X020699Y010206D01*
X020723Y010212D01*
X020748Y010214D01*
X020773Y010212D01*
X020797Y010206D01*
X020819Y010197D01*
X020840Y010184D01*
X020859Y010168D01*
X020875Y010149D01*
X020888Y010128D01*
X020897Y010106D01*
X020903Y010082D01*
X020905Y010057D01*
X020903Y010032D01*
X020897Y010008D01*
X020888Y009986D01*
X020875Y009965D01*
X020859Y009946D01*
X020840Y009930D01*
X020819Y009917D01*
X020797Y009908D01*
X020773Y009902D01*
X020748Y009900D01*
X020723Y009902D01*
X020699Y009908D01*
X020677Y009917D01*
X020656Y009930D01*
X020637Y009946D01*
X020621Y009965D01*
X020608Y009986D01*
X020599Y010008D01*
X020593Y010032D01*
X020591Y010057D01*
X020945Y013010D02*
X020945Y015766D01*
X023897Y015766D01*
X023897Y013010D01*
X020945Y013010D01*
X020826Y013364D02*
X020826Y013404D01*
X020433Y013404D01*
X020433Y013364D01*
X020433Y013404D02*
X020433Y013443D01*
X020826Y013443D02*
X020826Y013404D01*
X020826Y015293D02*
X020826Y015333D01*
X020433Y015333D01*
X020433Y015372D01*
X020433Y015333D02*
X020433Y015293D01*
X020826Y015333D02*
X020826Y015372D01*
X020591Y015963D02*
X020593Y015988D01*
X020599Y016012D01*
X020608Y016034D01*
X020621Y016055D01*
X020637Y016074D01*
X020656Y016090D01*
X020677Y016103D01*
X020699Y016112D01*
X020723Y016118D01*
X020748Y016120D01*
X020773Y016118D01*
X020797Y016112D01*
X020819Y016103D01*
X020840Y016090D01*
X020859Y016074D01*
X020875Y016055D01*
X020888Y016034D01*
X020897Y016012D01*
X020903Y015988D01*
X020905Y015963D01*
X020903Y015938D01*
X020897Y015914D01*
X020888Y015892D01*
X020875Y015871D01*
X020859Y015852D01*
X020840Y015836D01*
X020819Y015823D01*
X020797Y015814D01*
X020773Y015808D01*
X020748Y015806D01*
X020723Y015808D01*
X020699Y015814D01*
X020677Y015823D01*
X020656Y015836D01*
X020637Y015852D01*
X020621Y015871D01*
X020608Y015892D01*
X020599Y015914D01*
X020593Y015938D01*
X020591Y015963D01*
X020945Y018915D02*
X020945Y021671D01*
X023897Y021671D01*
X023897Y018915D01*
X020945Y018915D01*
X020826Y019270D02*
X020826Y019309D01*
X020433Y019309D01*
X020433Y019270D01*
X020433Y019309D02*
X020433Y019348D01*
X020826Y019348D02*
X020826Y019309D01*
X020826Y021199D02*
X020826Y021238D01*
X020433Y021238D01*
X020433Y021278D01*
X020433Y021238D02*
X020433Y021199D01*
X020826Y021238D02*
X020826Y021278D01*
X020591Y021868D02*
X020593Y021893D01*
X020599Y021917D01*
X020608Y021939D01*
X020621Y021960D01*
X020637Y021979D01*
X020656Y021995D01*
X020677Y022008D01*
X020699Y022017D01*
X020723Y022023D01*
X020748Y022025D01*
X020773Y022023D01*
X020797Y022017D01*
X020819Y022008D01*
X020840Y021995D01*
X020859Y021979D01*
X020875Y021960D01*
X020888Y021939D01*
X020897Y021917D01*
X020903Y021893D01*
X020905Y021868D01*
X020903Y021843D01*
X020897Y021819D01*
X020888Y021797D01*
X020875Y021776D01*
X020859Y021757D01*
X020840Y021741D01*
X020819Y021728D01*
X020797Y021719D01*
X020773Y021713D01*
X020748Y021711D01*
X020723Y021713D01*
X020699Y021719D01*
X020677Y021728D01*
X020656Y021741D01*
X020637Y021757D01*
X020621Y021776D01*
X020608Y021797D01*
X020599Y021819D01*
X020593Y021843D01*
X020591Y021868D01*
X013661Y021671D02*
X013661Y018915D01*
X010708Y018915D01*
X010708Y021671D01*
X013661Y021671D01*
X010590Y021278D02*
X010590Y021238D01*
X010197Y021238D01*
X010197Y021278D01*
X010197Y021238D02*
X010197Y021199D01*
X010590Y021199D02*
X010590Y021238D01*
X010354Y021868D02*
X010356Y021893D01*
X010362Y021917D01*
X010371Y021939D01*
X010384Y021960D01*
X010400Y021979D01*
X010419Y021995D01*
X010440Y022008D01*
X010462Y022017D01*
X010486Y022023D01*
X010511Y022025D01*
X010536Y022023D01*
X010560Y022017D01*
X010582Y022008D01*
X010603Y021995D01*
X010622Y021979D01*
X010638Y021960D01*
X010651Y021939D01*
X010660Y021917D01*
X010666Y021893D01*
X010668Y021868D01*
X010666Y021843D01*
X010660Y021819D01*
X010651Y021797D01*
X010638Y021776D01*
X010622Y021757D01*
X010603Y021741D01*
X010582Y021728D01*
X010560Y021719D01*
X010536Y021713D01*
X010511Y021711D01*
X010486Y021713D01*
X010462Y021719D01*
X010440Y021728D01*
X010419Y021741D01*
X010400Y021757D01*
X010384Y021776D01*
X010371Y021797D01*
X010362Y021819D01*
X010356Y021843D01*
X010354Y021868D01*
X010197Y019348D02*
X010197Y019309D01*
X010590Y019309D01*
X010590Y019270D01*
X010590Y019309D02*
X010590Y019348D01*
X010197Y019309D02*
X010197Y019270D01*
X010354Y015963D02*
X010356Y015988D01*
X010362Y016012D01*
X010371Y016034D01*
X010384Y016055D01*
X010400Y016074D01*
X010419Y016090D01*
X010440Y016103D01*
X010462Y016112D01*
X010486Y016118D01*
X010511Y016120D01*
X010536Y016118D01*
X010560Y016112D01*
X010582Y016103D01*
X010603Y016090D01*
X010622Y016074D01*
X010638Y016055D01*
X010651Y016034D01*
X010660Y016012D01*
X010666Y015988D01*
X010668Y015963D01*
X010666Y015938D01*
X010660Y015914D01*
X010651Y015892D01*
X010638Y015871D01*
X010622Y015852D01*
X010603Y015836D01*
X010582Y015823D01*
X010560Y015814D01*
X010536Y015808D01*
X010511Y015806D01*
X010486Y015808D01*
X010462Y015814D01*
X010440Y015823D01*
X010419Y015836D01*
X010400Y015852D01*
X010384Y015871D01*
X010371Y015892D01*
X010362Y015914D01*
X010356Y015938D01*
X010354Y015963D01*
X010708Y015766D02*
X010708Y013010D01*
X013661Y013010D01*
X013661Y015766D01*
X010708Y015766D01*
X010590Y015372D02*
X010590Y015333D01*
X010197Y015333D01*
X010197Y015372D01*
X010197Y015333D02*
X010197Y015293D01*
X010590Y015293D02*
X010590Y015333D01*
X010590Y013443D02*
X010590Y013404D01*
X010197Y013404D01*
X010197Y013364D01*
X010197Y013404D02*
X010197Y013443D01*
X010590Y013404D02*
X010590Y013364D01*
X010354Y010057D02*
X010356Y010082D01*
X010362Y010106D01*
X010371Y010128D01*
X010384Y010149D01*
X010400Y010168D01*
X010419Y010184D01*
X010440Y010197D01*
X010462Y010206D01*
X010486Y010212D01*
X010511Y010214D01*
X010536Y010212D01*
X010560Y010206D01*
X010582Y010197D01*
X010603Y010184D01*
X010622Y010168D01*
X010638Y010149D01*
X010651Y010128D01*
X010660Y010106D01*
X010666Y010082D01*
X010668Y010057D01*
X010666Y010032D01*
X010660Y010008D01*
X010651Y009986D01*
X010638Y009965D01*
X010622Y009946D01*
X010603Y009930D01*
X010582Y009917D01*
X010560Y009908D01*
X010536Y009902D01*
X010511Y009900D01*
X010486Y009902D01*
X010462Y009908D01*
X010440Y009917D01*
X010419Y009930D01*
X010400Y009946D01*
X010384Y009965D01*
X010371Y009986D01*
X010362Y010008D01*
X010356Y010032D01*
X010354Y010057D01*
X010708Y009860D02*
X010708Y007104D01*
X013661Y007104D01*
X013661Y009860D01*
X010708Y009860D01*
X010590Y009467D02*
X010590Y009427D01*
X010197Y009427D01*
X010197Y009467D01*
X010197Y009427D02*
X010197Y009388D01*
X010590Y009388D02*
X010590Y009427D01*
X010590Y007537D02*
X010590Y007498D01*
X010197Y007498D01*
X010197Y007459D01*
X010197Y007498D02*
X010197Y007537D01*
X010590Y007498D02*
X010590Y007459D01*
M02*
