%
M48
M72
T01C0.0118
T02C0.0390
T03C0.1575
%
T01
X23976Y12429
X23976Y13295
X23976Y14161
X23976Y14594
X26614Y14437
X25826Y14712
X25826Y14161
X27913Y13767
X28307Y14004
X29134Y14161
X29645Y12193
X30157Y12901
X30826Y12626
X30197Y15145
X30000Y14870
X30157Y14476
X28110Y14594
X28622Y13334
X29645Y13334
X30472Y13334
X30787Y13767
X31338Y13610
X31338Y13925
X31338Y14240
X31338Y14555
X30826Y14909
X31968Y14555
X31968Y14240
X31968Y13925
X31968Y13610
X31968Y13295
X31968Y12980
X31338Y12980
X31338Y13295
X30472Y12193
X31141Y12311
X32204Y12074
X32401Y11917
X32401Y12271
X32401Y15263
X32204Y15460
X32401Y15618
X32401Y14712
X29645Y21169
X29134Y23137
X29645Y22311
X30157Y21878
X30826Y21602
X30197Y24122
X30000Y23846
X30157Y23452
X30826Y23885
X31338Y23531
X31338Y23216
X31338Y22901
X31338Y22586
X31338Y22271
X31338Y21956
X31141Y21287
X30472Y21169
X30472Y22311
X30787Y22744
X31968Y22901
X31968Y22586
X31968Y22271
X31968Y21956
X32401Y21248
X32204Y21051
X32401Y20893
X32401Y24240
X32204Y24437
X32401Y24594
X32401Y23689
X31968Y23531
X31968Y23216
X23976Y23570
X23976Y23137
X23976Y22271
X23976Y21405
X25826Y23137
X25826Y23689
X28110Y23570
X28307Y22980
X27913Y22744
X28622Y22311
X26614Y23413
X16220Y24122
X16023Y23846
X16181Y23452
X16850Y23885
X17362Y23531
X17362Y23216
X17362Y22901
X17362Y22586
X17362Y22271
X17362Y21956
X16850Y21602
X16181Y21878
X15157Y23137
X15669Y22311
X16496Y22311
X16811Y22744
X17992Y22901
X17992Y22586
X17992Y22271
X17992Y21956
X18425Y21248
X18228Y21051
X18425Y20893
X17165Y21287
X16496Y21169
X12637Y23413
X11850Y23137
X10000Y21405
X10000Y22271
X10000Y23137
X10000Y23570
X14134Y23570
X14330Y22980
X13937Y22744
X14645Y22311
X15669Y21169
X17992Y23216
X17992Y23531
X18425Y23689
X18425Y24240
X18228Y24437
X18425Y24594
X11850Y23689
X10000Y32547
X10000Y32114
X10000Y31248
X10000Y30381
X12637Y32389
X14134Y32547
X15157Y32114
X15669Y30145
X16496Y30145
X16220Y33098
X16023Y32822
X16181Y32429
X16850Y32862
X17362Y32507
X17362Y32193
X17362Y31878
X17362Y31563
X17362Y31248
X17362Y30933
X16850Y30578
X16181Y30854
X16496Y31287
X16811Y31720
X17992Y31563
X17992Y31878
X17992Y32193
X17992Y32507
X18425Y32665
X18425Y33216
X18228Y33413
X18425Y33570
X17992Y31248
X17992Y30933
X18425Y30224
X18228Y30027
X18425Y29870
X17165Y30263
X15669Y31287
X14645Y31287
X14330Y31956
X13937Y31720
X11850Y32665
X11850Y32114
X23976Y30381
X26614Y32389
X23976Y32547
X23976Y32114
X23976Y31248
X25826Y32114
X25826Y32665
X28110Y32547
X29134Y32114
X29645Y30145
X30000Y32822
X30157Y32429
X30826Y32862
X30197Y33098
X31338Y32507
X31338Y32193
X31338Y31878
X31338Y31563
X31338Y31248
X31338Y30933
X30826Y30578
X30157Y30854
X30472Y31287
X30787Y31720
X31968Y31563
X31968Y31878
X31968Y32193
X31968Y32507
X32401Y32665
X32401Y33216
X32204Y33413
X32401Y33570
X31968Y31248
X31968Y30933
X32401Y30224
X32204Y30027
X32401Y29870
X31141Y30263
X30472Y30145
X29645Y31287
X28622Y31287
X28307Y31956
X27913Y31720
X18425Y15618
X18228Y15460
X18425Y15263
X18425Y14712
X17992Y14555
X17992Y14240
X17992Y13925
X17992Y13610
X17992Y13295
X17992Y12980
X17362Y12980
X17362Y13295
X17362Y13610
X17362Y13925
X17362Y14240
X17362Y14555
X16850Y14909
X16181Y14476
X16023Y14870
X16220Y15145
X16811Y13767
X16496Y13334
X16181Y12901
X16850Y12626
X16496Y12193
X15157Y14161
X15669Y13334
X15669Y12193
X12637Y14437
X11850Y14161
X11850Y14712
X14134Y14594
X14330Y14004
X13937Y13767
X14645Y13334
X10000Y13295
X10000Y14161
X10000Y14594
X10000Y12429
X17165Y12311
X18228Y12074
X18425Y11917
X18425Y12271
T02
X15102Y19200
X15102Y28177
X17102Y28577
X17102Y27777
X29078Y28177
X31078Y28577
X31078Y27777
X31078Y19600
X31078Y18800
X29078Y19200
X29078Y10224
X31078Y9824
X31078Y10624
X17102Y19600
X17102Y18800
X17102Y10624
X17102Y9824
X15102Y10224
T03
X6181Y6956
X35708Y35854
X35708Y6956
X6181Y35854
M30
