G75*
%MOIN*%
%OFA0B0*%
%FSLAX24Y24*%
%IPPOS*%
%LPD*%
%AMOC8*
5,1,8,0,0,1.08239X$1,22.5*
%
%ADD10R,0.0157X0.0276*%
%ADD11R,0.0236X0.0118*%
%ADD12R,0.0118X0.0236*%
%ADD13R,0.0118X0.0118*%
%ADD14R,0.0315X0.0315*%
%ADD15C,0.0395*%
D10*
X013445Y007341D03*
X013445Y009624D03*
X013445Y013246D03*
X013445Y015529D03*
X013445Y019152D03*
X013445Y021435D03*
X023681Y021435D03*
X023681Y019152D03*
X023681Y015529D03*
X023681Y013246D03*
X023681Y009624D03*
X023681Y007341D03*
D11*
X022480Y007715D03*
X022480Y007970D03*
X022480Y008226D03*
X022480Y008482D03*
X022480Y008738D03*
X022480Y008994D03*
X022480Y009250D03*
X021220Y009250D03*
X021220Y008994D03*
X021220Y008738D03*
X021220Y008482D03*
X021220Y008226D03*
X021220Y007970D03*
X021220Y007715D03*
X021220Y013620D03*
X021220Y013876D03*
X021220Y014132D03*
X021220Y014388D03*
X021220Y014644D03*
X021220Y014900D03*
X021220Y015155D03*
X022480Y015155D03*
X022480Y014900D03*
X022480Y014644D03*
X022480Y014388D03*
X022480Y014132D03*
X022480Y013876D03*
X022480Y013620D03*
X022480Y019526D03*
X022480Y019781D03*
X022480Y020037D03*
X022480Y020293D03*
X022480Y020549D03*
X022480Y020805D03*
X022480Y021061D03*
X021220Y021061D03*
X021220Y020805D03*
X021220Y020549D03*
X021220Y020293D03*
X021220Y020037D03*
X021220Y019781D03*
X021220Y019526D03*
X012244Y019526D03*
X012244Y019781D03*
X012244Y020037D03*
X012244Y020293D03*
X012244Y020549D03*
X012244Y020805D03*
X012244Y021061D03*
X010984Y021061D03*
X010984Y020805D03*
X010984Y020549D03*
X010984Y020293D03*
X010984Y020037D03*
X010984Y019781D03*
X010984Y019526D03*
X010984Y015155D03*
X010984Y014900D03*
X010984Y014644D03*
X010984Y014388D03*
X010984Y014132D03*
X010984Y013876D03*
X010984Y013620D03*
X012244Y013620D03*
X012244Y013876D03*
X012244Y014132D03*
X012244Y014388D03*
X012244Y014644D03*
X012244Y014900D03*
X012244Y015155D03*
X012244Y009250D03*
X012244Y008994D03*
X012244Y008738D03*
X012244Y008482D03*
X012244Y008226D03*
X012244Y007970D03*
X012244Y007715D03*
X010984Y007715D03*
X010984Y007970D03*
X010984Y008226D03*
X010984Y008482D03*
X010984Y008738D03*
X010984Y008994D03*
X010984Y009250D03*
D12*
X010964Y009624D03*
X011200Y009624D03*
X011437Y009624D03*
X011673Y009624D03*
X011909Y009624D03*
X012145Y009624D03*
X011683Y008876D03*
X011427Y008876D03*
X011427Y008482D03*
X011683Y008482D03*
X011683Y008089D03*
X011427Y008089D03*
X011437Y007341D03*
X011673Y007341D03*
X011909Y007341D03*
X012145Y007341D03*
X011200Y007341D03*
X010964Y007341D03*
X010964Y013246D03*
X011200Y013246D03*
X011437Y013246D03*
X011673Y013246D03*
X011909Y013246D03*
X012145Y013246D03*
X011683Y013994D03*
X011427Y013994D03*
X011427Y014388D03*
X011683Y014388D03*
X011683Y014781D03*
X011427Y014781D03*
X011437Y015529D03*
X011673Y015529D03*
X011909Y015529D03*
X012145Y015529D03*
X011200Y015529D03*
X010964Y015529D03*
X010964Y019152D03*
X011200Y019152D03*
X011437Y019152D03*
X011673Y019152D03*
X011909Y019152D03*
X012145Y019152D03*
X011683Y019900D03*
X011427Y019900D03*
X011427Y020293D03*
X011683Y020293D03*
X011683Y020687D03*
X011427Y020687D03*
X011437Y021435D03*
X011673Y021435D03*
X011909Y021435D03*
X012145Y021435D03*
X011200Y021435D03*
X010964Y021435D03*
X021200Y021435D03*
X021437Y021435D03*
X021673Y021435D03*
X021909Y021435D03*
X022145Y021435D03*
X022382Y021435D03*
X021919Y020687D03*
X021663Y020687D03*
X021663Y020293D03*
X021919Y020293D03*
X021919Y019900D03*
X021663Y019900D03*
X021673Y019152D03*
X021909Y019152D03*
X022145Y019152D03*
X022382Y019152D03*
X021437Y019152D03*
X021200Y019152D03*
X021200Y015529D03*
X021437Y015529D03*
X021673Y015529D03*
X021909Y015529D03*
X022145Y015529D03*
X022382Y015529D03*
X021919Y014781D03*
X021663Y014781D03*
X021663Y014388D03*
X021919Y014388D03*
X021919Y013994D03*
X021663Y013994D03*
X021673Y013246D03*
X021909Y013246D03*
X022145Y013246D03*
X022382Y013246D03*
X021437Y013246D03*
X021200Y013246D03*
X021200Y009624D03*
X021437Y009624D03*
X021673Y009624D03*
X021909Y009624D03*
X022145Y009624D03*
X022382Y009624D03*
X021919Y008876D03*
X021663Y008876D03*
X021663Y008482D03*
X021919Y008482D03*
X021919Y008089D03*
X021663Y008089D03*
X021673Y007341D03*
X021909Y007341D03*
X022145Y007341D03*
X022382Y007341D03*
X021437Y007341D03*
X021200Y007341D03*
D13*
X021663Y007715D03*
X021919Y007715D03*
X021919Y009250D03*
X021919Y013620D03*
X021663Y013620D03*
X021919Y015155D03*
X021919Y019526D03*
X021663Y019526D03*
X021919Y021061D03*
X011683Y021061D03*
X011683Y019526D03*
X011427Y019526D03*
X011683Y015155D03*
X011683Y013620D03*
X011427Y013620D03*
X011683Y009250D03*
X011683Y007715D03*
X011427Y007715D03*
D14*
X010393Y007734D03*
X010393Y007262D03*
X010393Y009191D03*
X010393Y009663D03*
X010393Y013167D03*
X010393Y013640D03*
X010393Y015096D03*
X010393Y015569D03*
X010393Y019073D03*
X010393Y019545D03*
X010393Y021002D03*
X010393Y021474D03*
X020630Y021474D03*
X020630Y021002D03*
X020630Y019545D03*
X020630Y019073D03*
X020630Y015569D03*
X020630Y015096D03*
X020630Y013640D03*
X020630Y013167D03*
X020630Y009663D03*
X020630Y009191D03*
X020630Y007734D03*
X020630Y007262D03*
D15*
X010393Y006711D03*
X010826Y006711D03*
X010826Y012616D03*
X010393Y012616D03*
X010393Y018522D03*
X010826Y018522D03*
X006181Y023246D03*
X020630Y018522D03*
X021063Y018522D03*
X021929Y023246D03*
X021063Y012616D03*
X020630Y012616D03*
X020630Y006711D03*
X021063Y006711D03*
X019960Y005333D03*
M02*
