G75*
%MOIN*%
%OFA0B0*%
%FSLAX24Y24*%
%IPPOS*%
%LPD*%
%AMOC8*
5,1,8,0,0,1.08239X$1,22.5*
%
%ADD10R,0.1142X0.0315*%
%ADD11R,0.1260X0.0315*%
D10*
X005216Y007222D03*
X005216Y007655D03*
X005216Y008522D03*
X005216Y009388D03*
X005216Y009821D03*
X005216Y010254D03*
X005216Y013128D03*
X005216Y013561D03*
X005216Y014427D03*
X005216Y015293D03*
X005216Y015726D03*
X005216Y016159D03*
X005216Y019033D03*
X005216Y019467D03*
X005216Y020333D03*
X005216Y021199D03*
X005216Y021632D03*
X005216Y022065D03*
X015452Y022065D03*
X015452Y021632D03*
X015452Y021199D03*
X015452Y020333D03*
X015452Y019467D03*
X015452Y019033D03*
X015452Y016159D03*
X015452Y015726D03*
X015452Y015293D03*
X015452Y014427D03*
X015452Y013561D03*
X015452Y013128D03*
X015452Y010254D03*
X015452Y009821D03*
X015452Y009388D03*
X015452Y008522D03*
X015452Y007655D03*
X015452Y007222D03*
D11*
X015393Y008089D03*
X015393Y008955D03*
X015393Y013994D03*
X015393Y014860D03*
X015393Y019900D03*
X015393Y020766D03*
X005157Y020766D03*
X005157Y019900D03*
X005157Y014860D03*
X005157Y013994D03*
X005157Y008955D03*
X005157Y008089D03*
M02*
