G75*
%MOIN*%
%OFA0B0*%
%FSLAX24Y24*%
%IPPOS*%
%LPD*%
%AMOC8*
5,1,8,0,0,1.08239X$1,22.5*
%
%ADD10R,0.1142X0.0315*%
%ADD11R,0.1260X0.0315*%
%ADD12C,0.0236*%
%ADD13C,0.0472*%
%ADD14C,0.0315*%
%ADD15C,0.0098*%
%ADD16C,0.0394*%
%ADD17C,0.0157*%
D10*
X005216Y007222D03*
X005216Y007655D03*
X005216Y008522D03*
X005216Y009388D03*
X005216Y009821D03*
X005216Y010254D03*
X005216Y013128D03*
X005216Y013561D03*
X005216Y014427D03*
X005216Y015293D03*
X005216Y015726D03*
X005216Y016159D03*
X005216Y019033D03*
X005216Y019467D03*
X005216Y020333D03*
X005216Y021199D03*
X005216Y021632D03*
X005216Y022065D03*
X015452Y022065D03*
X015452Y021632D03*
X015452Y021199D03*
X015452Y020333D03*
X015452Y019467D03*
X015452Y019033D03*
X015452Y016159D03*
X015452Y015726D03*
X015452Y015293D03*
X015452Y014427D03*
X015452Y013561D03*
X015452Y013128D03*
X015452Y010254D03*
X015452Y009821D03*
X015452Y009388D03*
X015452Y008522D03*
X015452Y007655D03*
X015452Y007222D03*
D11*
X015393Y008089D03*
X015393Y008955D03*
X015393Y013994D03*
X015393Y014860D03*
X015393Y019900D03*
X015393Y020766D03*
X005157Y020766D03*
X005157Y019900D03*
X005157Y014860D03*
X005157Y013994D03*
X005157Y008955D03*
X005157Y008089D03*
D12*
X006063Y008089D03*
X006102Y008522D03*
X006102Y009388D03*
X006102Y009821D03*
X006102Y010254D03*
X008228Y009112D03*
X010078Y009191D03*
X010826Y009506D03*
X011220Y009270D03*
X011456Y009073D03*
X011299Y008679D03*
X011299Y008285D03*
X011260Y007931D03*
X011929Y007970D03*
X011929Y008325D03*
X011929Y008679D03*
X011929Y009033D03*
X010393Y008049D03*
X010078Y007262D03*
X006102Y007222D03*
X006102Y007655D03*
X006102Y013128D03*
X006102Y013561D03*
X006063Y013994D03*
X006102Y014427D03*
X006102Y015293D03*
X006102Y015726D03*
X006102Y016159D03*
X008228Y015018D03*
X010078Y015096D03*
X010826Y015411D03*
X011220Y015175D03*
X011456Y014978D03*
X011299Y014585D03*
X011299Y014191D03*
X011260Y013837D03*
X011929Y013876D03*
X011929Y014230D03*
X011929Y014585D03*
X011929Y014939D03*
X010393Y013955D03*
X010078Y013167D03*
X010078Y019073D03*
X010393Y019860D03*
X011260Y019742D03*
X011299Y020096D03*
X011299Y020490D03*
X011456Y020884D03*
X011220Y021081D03*
X010826Y021317D03*
X010078Y021002D03*
X008228Y020923D03*
X006102Y021199D03*
X006102Y021632D03*
X006102Y022065D03*
X006102Y020333D03*
X006063Y019900D03*
X006102Y019467D03*
X006102Y019033D03*
X011929Y019781D03*
X011929Y020136D03*
X011929Y020490D03*
X011929Y020844D03*
X016338Y021199D03*
X016338Y021632D03*
X016338Y022065D03*
X016338Y020333D03*
X016299Y019900D03*
X016338Y019467D03*
X016338Y019033D03*
X018464Y020923D03*
X020315Y021002D03*
X021063Y021317D03*
X021456Y021081D03*
X021693Y020884D03*
X021535Y020490D03*
X021535Y020096D03*
X021496Y019742D03*
X022165Y019781D03*
X022165Y020136D03*
X022165Y020490D03*
X022165Y020844D03*
X020630Y019860D03*
X020315Y019073D03*
X021063Y015411D03*
X021456Y015175D03*
X021693Y014978D03*
X021535Y014585D03*
X021535Y014191D03*
X021496Y013837D03*
X022165Y013876D03*
X022165Y014230D03*
X022165Y014585D03*
X022165Y014939D03*
X020630Y013955D03*
X020315Y013167D03*
X020315Y015096D03*
X018464Y015018D03*
X016338Y015293D03*
X016338Y015726D03*
X016338Y016159D03*
X016338Y014427D03*
X016299Y013994D03*
X016338Y013561D03*
X016338Y013128D03*
X016338Y010254D03*
X016338Y009821D03*
X016338Y009388D03*
X016338Y008522D03*
X016299Y008089D03*
X016338Y007655D03*
X016338Y007222D03*
X018464Y009112D03*
X020315Y009191D03*
X021063Y009506D03*
X021456Y009270D03*
X021693Y009073D03*
X021535Y008679D03*
X021535Y008285D03*
X021496Y007931D03*
X022165Y007970D03*
X022165Y008325D03*
X022165Y008679D03*
X022165Y009033D03*
X020630Y008049D03*
X020315Y007262D03*
D13*
X020630Y008049D02*
X018385Y008049D01*
X017480Y008955D01*
X016417Y008955D01*
X018385Y013955D02*
X020630Y013955D01*
X018385Y013955D02*
X017480Y014860D01*
X016417Y014860D01*
X018385Y019860D02*
X020630Y019860D01*
X018385Y019860D02*
X017480Y020766D01*
X016417Y020766D01*
X010393Y019860D02*
X008149Y019860D01*
X007244Y020766D01*
X006181Y020766D01*
X006181Y014860D02*
X007244Y014860D01*
X008149Y013955D01*
X010393Y013955D01*
X007244Y008955D02*
X006181Y008955D01*
X007244Y008955D02*
X008149Y008049D01*
X010393Y008049D01*
D14*
X006181Y008955D02*
X005157Y008955D01*
X005157Y008089D02*
X006063Y008089D01*
X006063Y013994D02*
X005157Y013994D01*
X005157Y014860D02*
X006181Y014860D01*
X006063Y019900D02*
X005157Y019900D01*
X005157Y020766D02*
X006181Y020766D01*
X015393Y020766D02*
X016417Y020766D01*
X016299Y019900D02*
X015393Y019900D01*
X015393Y014860D02*
X016417Y014860D01*
X016299Y013994D02*
X015393Y013994D01*
X015393Y008955D02*
X016417Y008955D01*
X016299Y008089D02*
X015393Y008089D01*
D15*
X007165Y006675D02*
X006667Y006675D01*
X006725Y006616D02*
X006449Y006892D01*
X006385Y006956D01*
X006223Y007023D01*
X006328Y007129D01*
X006328Y007316D01*
X006206Y007439D01*
X006328Y007562D01*
X006328Y007749D01*
X006196Y007882D01*
X006033Y007882D01*
X006033Y008295D01*
X006196Y008295D01*
X006328Y008428D01*
X006328Y008610D01*
X007101Y008610D01*
X007857Y007854D01*
X007954Y007757D01*
X008081Y007705D01*
X010462Y007705D01*
X010589Y007757D01*
X010685Y007854D01*
X010738Y007981D01*
X010738Y008118D01*
X010685Y008244D01*
X010589Y008341D01*
X010462Y008394D01*
X008292Y008394D01*
X007439Y009247D01*
X007312Y009299D01*
X006328Y009299D01*
X006328Y009482D01*
X006206Y009604D01*
X006328Y009727D01*
X006328Y009915D01*
X006206Y010037D01*
X006328Y010160D01*
X006328Y010348D01*
X006235Y010441D01*
X012391Y010441D01*
X012391Y006524D01*
X008189Y006524D01*
X008156Y006524D01*
X008147Y006533D01*
X008025Y006655D01*
X007964Y006716D01*
X007937Y006743D01*
X007904Y006776D01*
X007875Y006776D01*
X007868Y006779D01*
X007848Y006799D01*
X007316Y006799D01*
X007303Y006787D01*
X007192Y006723D01*
X007128Y006612D01*
X007116Y006599D01*
X007116Y006524D01*
X006862Y006524D01*
X006841Y006526D01*
X006802Y006542D01*
X006786Y006555D01*
X006783Y006558D01*
X006725Y006616D01*
X006725Y006616D01*
X006763Y006578D02*
X007116Y006578D01*
X007192Y006723D02*
X007192Y006723D01*
X007277Y006772D02*
X006570Y006772D01*
X006473Y006868D02*
X012391Y006868D01*
X012391Y006772D02*
X007908Y006772D01*
X007964Y006716D02*
X007964Y006716D01*
X008005Y006675D02*
X012391Y006675D01*
X012391Y006578D02*
X008102Y006578D01*
X008025Y006655D02*
X008025Y006655D01*
X007994Y007741D02*
X006328Y007741D01*
X006328Y007644D02*
X012391Y007644D01*
X012391Y007741D02*
X010549Y007741D01*
X010669Y007838D02*
X012391Y007838D01*
X012391Y007935D02*
X010719Y007935D01*
X010738Y008032D02*
X012391Y008032D01*
X012391Y008128D02*
X010733Y008128D01*
X010693Y008225D02*
X012391Y008225D01*
X012391Y008322D02*
X010607Y008322D01*
X010564Y009073D02*
X011097Y009073D01*
X011126Y009043D01*
X011314Y009043D01*
X011447Y009176D01*
X011447Y009363D01*
X011314Y009496D01*
X011126Y009496D01*
X011018Y009388D01*
X010695Y009388D01*
X010498Y009585D01*
X009856Y009585D01*
X009763Y009492D01*
X009541Y009270D01*
X008391Y009270D01*
X008322Y009339D01*
X008134Y009339D01*
X008002Y009206D01*
X008002Y009018D01*
X008134Y008886D01*
X008322Y008886D01*
X008391Y008955D01*
X009671Y008955D01*
X009986Y009270D01*
X010368Y009270D01*
X010564Y009073D01*
X010539Y009098D02*
X009814Y009098D01*
X009911Y009195D02*
X010442Y009195D01*
X010630Y009230D02*
X010433Y009427D01*
X009921Y009427D01*
X009606Y009112D01*
X008228Y009112D01*
X008002Y009098D02*
X007588Y009098D01*
X007491Y009195D02*
X008002Y009195D01*
X008087Y009292D02*
X007331Y009292D01*
X007685Y009001D02*
X008019Y009001D01*
X008116Y008904D02*
X007782Y008904D01*
X007879Y008807D02*
X012391Y008807D01*
X012391Y008904D02*
X008340Y008904D01*
X008073Y008613D02*
X012391Y008613D01*
X012391Y008516D02*
X008169Y008516D01*
X008266Y008419D02*
X012391Y008419D01*
X012391Y008710D02*
X007976Y008710D01*
X007486Y008225D02*
X006033Y008225D01*
X006033Y008128D02*
X007583Y008128D01*
X007680Y008032D02*
X006033Y008032D01*
X006033Y007935D02*
X007777Y007935D01*
X007874Y007838D02*
X006240Y007838D01*
X006314Y007547D02*
X012391Y007547D01*
X012391Y007450D02*
X006217Y007450D01*
X006292Y007353D02*
X012391Y007353D01*
X012391Y007256D02*
X006328Y007256D01*
X006328Y007159D02*
X012391Y007159D01*
X012391Y007062D02*
X006262Y007062D01*
X006362Y006965D02*
X012391Y006965D01*
X012391Y009001D02*
X009717Y009001D01*
X009563Y009292D02*
X008369Y009292D01*
X007389Y008322D02*
X006223Y008322D01*
X006320Y008419D02*
X007292Y008419D01*
X007195Y008516D02*
X006328Y008516D01*
X006328Y009389D02*
X009660Y009389D01*
X009757Y009485D02*
X006325Y009485D01*
X006228Y009582D02*
X009853Y009582D01*
X010500Y009582D02*
X012391Y009582D01*
X012391Y009485D02*
X011325Y009485D01*
X011421Y009389D02*
X012391Y009389D01*
X012391Y009292D02*
X011447Y009292D01*
X011447Y009195D02*
X012391Y009195D01*
X012391Y009098D02*
X011368Y009098D01*
X011220Y009270D02*
X011181Y009230D01*
X010630Y009230D01*
X010694Y009389D02*
X011019Y009389D01*
X011116Y009485D02*
X010597Y009485D01*
X012391Y009679D02*
X006281Y009679D01*
X006328Y009776D02*
X012391Y009776D01*
X012391Y009873D02*
X006328Y009873D01*
X006273Y009970D02*
X012391Y009970D01*
X012391Y010067D02*
X006235Y010067D01*
X006328Y010164D02*
X012391Y010164D01*
X012391Y010261D02*
X006328Y010261D01*
X006318Y010358D02*
X012391Y010358D01*
X012391Y012429D02*
X008189Y012429D01*
X008156Y012429D01*
X008133Y012452D01*
X008025Y012561D01*
X007964Y012621D01*
X007924Y012661D01*
X007904Y012682D01*
X007875Y012682D01*
X007868Y012684D01*
X007848Y012705D01*
X007316Y012705D01*
X007303Y012692D01*
X007192Y012628D01*
X007128Y012517D01*
X007116Y012505D01*
X007116Y012429D01*
X006862Y012429D01*
X006841Y012431D01*
X006802Y012447D01*
X006786Y012461D01*
X006786Y012461D01*
X006725Y012521D01*
X006454Y012793D01*
X006385Y012861D01*
X006385Y012861D01*
X006223Y012929D01*
X006328Y013034D01*
X006328Y013222D01*
X006206Y013344D01*
X006328Y013467D01*
X006328Y013655D01*
X006196Y013787D01*
X006033Y013787D01*
X006033Y014201D01*
X006196Y014201D01*
X006328Y014333D01*
X006328Y014516D01*
X007101Y014516D01*
X007857Y013760D01*
X007954Y013663D01*
X008081Y013610D01*
X010462Y013610D01*
X010589Y013663D01*
X010685Y013760D01*
X010738Y013886D01*
X010738Y014023D01*
X010685Y014150D01*
X010589Y014247D01*
X010462Y014299D01*
X008292Y014299D01*
X007439Y015152D01*
X007312Y015205D01*
X006328Y015205D01*
X006328Y015387D01*
X006206Y015510D01*
X006328Y015633D01*
X006328Y015820D01*
X006206Y015943D01*
X006328Y016066D01*
X006328Y016253D01*
X006235Y016346D01*
X012391Y016346D01*
X012391Y012429D01*
X012391Y012490D02*
X008095Y012490D01*
X008133Y012452D02*
X008133Y012452D01*
X008025Y012561D02*
X008025Y012561D01*
X007998Y012587D02*
X012391Y012587D01*
X012391Y012684D02*
X007869Y012684D01*
X007924Y012661D02*
X007924Y012661D01*
X007289Y012684D02*
X006563Y012684D01*
X006660Y012587D02*
X007169Y012587D01*
X007192Y012628D02*
X007192Y012628D01*
X007192Y012628D01*
X007116Y012490D02*
X006757Y012490D01*
X006725Y012521D02*
X006725Y012521D01*
X006466Y012781D02*
X012391Y012781D01*
X012391Y012878D02*
X006346Y012878D01*
X006269Y012975D02*
X012391Y012975D01*
X012391Y013072D02*
X006328Y013072D01*
X006328Y013169D02*
X012391Y013169D01*
X012391Y013266D02*
X006285Y013266D01*
X006224Y013362D02*
X012391Y013362D01*
X012391Y013459D02*
X006321Y013459D01*
X006328Y013556D02*
X012391Y013556D01*
X012391Y013653D02*
X010566Y013653D01*
X010676Y013750D02*
X012391Y013750D01*
X012391Y013847D02*
X010722Y013847D01*
X010738Y013944D02*
X012391Y013944D01*
X012391Y014041D02*
X010731Y014041D01*
X010690Y014138D02*
X012391Y014138D01*
X012391Y014235D02*
X010600Y014235D01*
X010564Y014978D02*
X011097Y014978D01*
X011126Y014949D01*
X011314Y014949D01*
X011447Y015081D01*
X011447Y015269D01*
X011314Y015402D01*
X011126Y015402D01*
X011018Y015293D01*
X010695Y015293D01*
X010498Y015490D01*
X009856Y015490D01*
X009763Y015398D01*
X009541Y015175D01*
X008391Y015175D01*
X008322Y015244D01*
X008134Y015244D01*
X008002Y015111D01*
X008002Y014924D01*
X008134Y014791D01*
X008322Y014791D01*
X008391Y014860D01*
X009671Y014860D01*
X009763Y014952D01*
X009986Y015175D01*
X010368Y015175D01*
X010564Y014978D01*
X010532Y015010D02*
X009821Y015010D01*
X009763Y014952D02*
X009763Y014952D01*
X009724Y014913D02*
X012391Y014913D01*
X012391Y014816D02*
X008347Y014816D01*
X008228Y015018D02*
X009606Y015018D01*
X009921Y015333D01*
X010433Y015333D01*
X010630Y015136D01*
X011181Y015136D01*
X011220Y015175D01*
X011375Y015010D02*
X012391Y015010D01*
X012391Y015107D02*
X011447Y015107D01*
X011447Y015204D02*
X012391Y015204D01*
X012391Y015301D02*
X011414Y015301D01*
X011318Y015398D02*
X012391Y015398D01*
X012391Y015495D02*
X006221Y015495D01*
X006288Y015592D02*
X012391Y015592D01*
X012391Y015689D02*
X006328Y015689D01*
X006328Y015786D02*
X012391Y015786D01*
X012391Y015883D02*
X006266Y015883D01*
X006242Y015979D02*
X012391Y015979D01*
X012391Y016076D02*
X006328Y016076D01*
X006328Y016173D02*
X012391Y016173D01*
X012391Y016270D02*
X006311Y016270D01*
X006318Y015398D02*
X009763Y015398D01*
X009667Y015301D02*
X006328Y015301D01*
X006328Y014429D02*
X007188Y014429D01*
X007285Y014332D02*
X006327Y014332D01*
X006230Y014235D02*
X007382Y014235D01*
X007479Y014138D02*
X006033Y014138D01*
X006033Y014041D02*
X007576Y014041D01*
X007673Y013944D02*
X006033Y013944D01*
X006033Y013847D02*
X007770Y013847D01*
X007867Y013750D02*
X006233Y013750D01*
X006328Y013653D02*
X007977Y013653D01*
X008259Y014332D02*
X012391Y014332D01*
X012391Y014429D02*
X008163Y014429D01*
X008066Y014526D02*
X012391Y014526D01*
X012391Y014622D02*
X007969Y014622D01*
X007872Y014719D02*
X012391Y014719D01*
X011123Y015398D02*
X010590Y015398D01*
X010687Y015301D02*
X011026Y015301D01*
X010436Y015107D02*
X009918Y015107D01*
X009570Y015204D02*
X008362Y015204D01*
X008094Y015204D02*
X007314Y015204D01*
X007484Y015107D02*
X008002Y015107D01*
X008002Y015010D02*
X007581Y015010D01*
X007678Y014913D02*
X008012Y014913D01*
X008109Y014816D02*
X007775Y014816D01*
X008156Y018335D02*
X008146Y018344D01*
X008025Y018466D01*
X007964Y018527D01*
X007924Y018567D01*
X007904Y018587D01*
X007875Y018587D01*
X007868Y018590D01*
X007848Y018610D01*
X007316Y018610D01*
X007303Y018598D01*
X007192Y018534D01*
X007192Y018534D01*
X007192Y018534D01*
X007128Y018423D01*
X007116Y018410D01*
X007116Y018335D01*
X006862Y018335D01*
X006841Y018337D01*
X006802Y018353D01*
X006786Y018366D01*
X006785Y018368D01*
X006725Y018427D01*
X006452Y018700D01*
X006385Y018767D01*
X006223Y018834D01*
X006328Y018940D01*
X006328Y019127D01*
X006206Y019250D01*
X006328Y019373D01*
X006328Y019560D01*
X006196Y019693D01*
X006033Y019693D01*
X006033Y020106D01*
X006196Y020106D01*
X006328Y020239D01*
X006328Y020421D01*
X007101Y020421D01*
X007857Y019665D01*
X007954Y019568D01*
X008081Y019516D01*
X010462Y019516D01*
X010589Y019568D01*
X010685Y019665D01*
X010738Y019792D01*
X010738Y019929D01*
X010685Y020055D01*
X010589Y020152D01*
X010462Y020205D01*
X008292Y020205D01*
X007439Y021058D01*
X007312Y021110D01*
X006328Y021110D01*
X006328Y021293D01*
X006206Y021415D01*
X006328Y021538D01*
X006328Y021726D01*
X006206Y021848D01*
X006328Y021971D01*
X006328Y022159D01*
X006235Y022252D01*
X012391Y022252D01*
X012391Y018335D01*
X008189Y018335D01*
X008156Y018335D01*
X008088Y018403D02*
X012391Y018403D01*
X012391Y018500D02*
X007991Y018500D01*
X008025Y018466D02*
X008025Y018466D01*
X007924Y018567D02*
X007924Y018567D01*
X007862Y018596D02*
X012391Y018596D01*
X012391Y018693D02*
X006459Y018693D01*
X006385Y018767D02*
X006385Y018767D01*
X006329Y018790D02*
X012391Y018790D01*
X012391Y018887D02*
X006276Y018887D01*
X006328Y018984D02*
X012391Y018984D01*
X012391Y019081D02*
X006328Y019081D01*
X006278Y019178D02*
X012391Y019178D01*
X012391Y019275D02*
X006231Y019275D01*
X006328Y019372D02*
X012391Y019372D01*
X012391Y019469D02*
X006328Y019469D01*
X006323Y019566D02*
X007960Y019566D01*
X007860Y019663D02*
X006226Y019663D01*
X006033Y019760D02*
X007763Y019760D01*
X007666Y019856D02*
X006033Y019856D01*
X006033Y019953D02*
X007569Y019953D01*
X007472Y020050D02*
X006033Y020050D01*
X006237Y020147D02*
X007375Y020147D01*
X007278Y020244D02*
X006328Y020244D01*
X006328Y020341D02*
X007181Y020341D01*
X007671Y020826D02*
X008005Y020826D01*
X008002Y020829D02*
X008134Y020697D01*
X008322Y020697D01*
X008391Y020766D01*
X009671Y020766D01*
X009763Y020858D01*
X009986Y021081D01*
X010368Y021081D01*
X010564Y020884D01*
X011097Y020884D01*
X011126Y020854D01*
X011314Y020854D01*
X011447Y020987D01*
X011447Y021174D01*
X011314Y021307D01*
X011126Y021307D01*
X011018Y021199D01*
X010695Y021199D01*
X010498Y021396D01*
X009856Y021396D01*
X009763Y021303D01*
X009541Y021081D01*
X008391Y021081D01*
X008322Y021150D01*
X008134Y021150D01*
X008002Y021017D01*
X008002Y020829D01*
X008002Y020923D02*
X007574Y020923D01*
X007477Y021020D02*
X008004Y021020D01*
X008101Y021116D02*
X006328Y021116D01*
X006328Y021213D02*
X009673Y021213D01*
X009577Y021116D02*
X008355Y021116D01*
X008228Y020923D02*
X009606Y020923D01*
X009921Y021238D01*
X010433Y021238D01*
X010630Y021041D01*
X011181Y021041D01*
X011220Y021081D01*
X011382Y020923D02*
X012391Y020923D01*
X012391Y021020D02*
X011447Y021020D01*
X011447Y021116D02*
X012391Y021116D01*
X012391Y021213D02*
X011408Y021213D01*
X011033Y021213D02*
X010680Y021213D01*
X010583Y021310D02*
X012391Y021310D01*
X012391Y021407D02*
X006214Y021407D01*
X006295Y021504D02*
X012391Y021504D01*
X012391Y021601D02*
X006328Y021601D01*
X006328Y021698D02*
X012391Y021698D01*
X012391Y021795D02*
X006259Y021795D01*
X006249Y021892D02*
X012391Y021892D01*
X012391Y021989D02*
X006328Y021989D01*
X006328Y022086D02*
X012391Y022086D01*
X012391Y022183D02*
X006304Y022183D01*
X006311Y021310D02*
X009770Y021310D01*
X009925Y021020D02*
X010429Y021020D01*
X010526Y020923D02*
X009828Y020923D01*
X009763Y020858D02*
X009763Y020858D01*
X009731Y020826D02*
X012391Y020826D01*
X012391Y020729D02*
X008354Y020729D01*
X008102Y020729D02*
X007768Y020729D01*
X007865Y020632D02*
X012391Y020632D01*
X012391Y020535D02*
X007962Y020535D01*
X008059Y020438D02*
X012391Y020438D01*
X012391Y020341D02*
X008156Y020341D01*
X008252Y020244D02*
X012391Y020244D01*
X012391Y020147D02*
X010594Y020147D01*
X010687Y020050D02*
X012391Y020050D01*
X012391Y019953D02*
X010728Y019953D01*
X010738Y019856D02*
X012391Y019856D01*
X012391Y019760D02*
X010725Y019760D01*
X010683Y019663D02*
X012391Y019663D01*
X012391Y019566D02*
X010583Y019566D01*
X007301Y018596D02*
X006556Y018596D01*
X006653Y018500D02*
X007173Y018500D01*
X007116Y018403D02*
X006750Y018403D01*
X006725Y018427D02*
X006725Y018427D01*
X016269Y019693D02*
X016269Y020106D01*
X016432Y020106D01*
X016565Y020239D01*
X016565Y020421D01*
X017337Y020421D01*
X018093Y019665D01*
X018190Y019568D01*
X018317Y019516D01*
X020698Y019516D01*
X020825Y019568D01*
X020922Y019665D01*
X020974Y019792D01*
X020974Y019929D01*
X020922Y020055D01*
X020825Y020152D01*
X020698Y020205D01*
X018528Y020205D01*
X017675Y021058D01*
X017549Y021110D01*
X016565Y021110D01*
X016565Y021293D01*
X016442Y021415D01*
X016565Y021538D01*
X016565Y021726D01*
X016442Y021848D01*
X016565Y021971D01*
X016565Y022159D01*
X016471Y022252D01*
X022628Y022252D01*
X022628Y018335D01*
X018425Y018335D01*
X018392Y018335D01*
X018383Y018344D01*
X018261Y018466D01*
X018261Y018466D01*
X018200Y018527D01*
X018172Y018555D01*
X018140Y018587D01*
X018111Y018587D01*
X018105Y018590D01*
X018084Y018610D01*
X017552Y018610D01*
X017539Y018598D01*
X017429Y018534D01*
X017429Y018534D01*
X017365Y018423D01*
X017352Y018410D01*
X017352Y018335D01*
X017099Y018335D01*
X017078Y018337D01*
X017038Y018353D01*
X017022Y018366D01*
X017020Y018369D01*
X016962Y018427D01*
X016962Y018427D01*
X016687Y018702D01*
X016621Y018767D01*
X016459Y018834D01*
X016565Y018940D01*
X016565Y019127D01*
X016442Y019250D01*
X016565Y019373D01*
X016565Y019560D01*
X016432Y019693D01*
X016269Y019693D01*
X016269Y019760D02*
X017999Y019760D01*
X017902Y019856D02*
X016269Y019856D01*
X016269Y019953D02*
X017805Y019953D01*
X017708Y020050D02*
X016269Y020050D01*
X016473Y020147D02*
X017611Y020147D01*
X017514Y020244D02*
X016565Y020244D01*
X016565Y020341D02*
X017417Y020341D01*
X017907Y020826D02*
X018242Y020826D01*
X018238Y020829D02*
X018370Y020697D01*
X018558Y020697D01*
X018627Y020766D01*
X019907Y020766D01*
X020000Y020858D01*
X020222Y021081D01*
X020604Y021081D01*
X020801Y020884D01*
X021333Y020884D01*
X021363Y020854D01*
X021550Y020854D01*
X021683Y020987D01*
X021683Y021174D01*
X021550Y021307D01*
X021363Y021307D01*
X021254Y021199D01*
X020931Y021199D01*
X020734Y021396D01*
X020092Y021396D01*
X020000Y021303D01*
X019777Y021081D01*
X018627Y021081D01*
X018558Y021150D01*
X018370Y021150D01*
X018238Y021017D01*
X018238Y020829D01*
X018238Y020923D02*
X017810Y020923D01*
X017713Y021020D02*
X018240Y021020D01*
X018337Y021116D02*
X016565Y021116D01*
X016565Y021213D02*
X019910Y021213D01*
X019813Y021116D02*
X018591Y021116D01*
X018464Y020923D02*
X019842Y020923D01*
X020157Y021238D01*
X020669Y021238D01*
X020866Y021041D01*
X021417Y021041D01*
X021456Y021081D01*
X021618Y020923D02*
X022628Y020923D01*
X022628Y021020D02*
X021683Y021020D01*
X021683Y021116D02*
X022628Y021116D01*
X022628Y021213D02*
X021644Y021213D01*
X021269Y021213D02*
X020916Y021213D01*
X020819Y021310D02*
X022628Y021310D01*
X022628Y021407D02*
X016450Y021407D01*
X016531Y021504D02*
X022628Y021504D01*
X022628Y021601D02*
X016565Y021601D01*
X016565Y021698D02*
X022628Y021698D01*
X022628Y021795D02*
X016495Y021795D01*
X016485Y021892D02*
X022628Y021892D01*
X022628Y021989D02*
X016565Y021989D01*
X016565Y022086D02*
X022628Y022086D01*
X022628Y022183D02*
X016541Y022183D01*
X016547Y021310D02*
X020007Y021310D01*
X020161Y021020D02*
X020665Y021020D01*
X020762Y020923D02*
X020064Y020923D01*
X019967Y020826D02*
X022628Y020826D01*
X022628Y020729D02*
X018590Y020729D01*
X018338Y020729D02*
X018004Y020729D01*
X018101Y020632D02*
X022628Y020632D01*
X022628Y020535D02*
X018198Y020535D01*
X018295Y020438D02*
X022628Y020438D01*
X022628Y020341D02*
X018392Y020341D01*
X018489Y020244D02*
X022628Y020244D01*
X022628Y020147D02*
X020830Y020147D01*
X020924Y020050D02*
X022628Y020050D01*
X022628Y019953D02*
X020964Y019953D01*
X020974Y019856D02*
X022628Y019856D01*
X022628Y019760D02*
X020961Y019760D01*
X020919Y019663D02*
X022628Y019663D01*
X022628Y019566D02*
X020819Y019566D01*
X022628Y019469D02*
X016565Y019469D01*
X016559Y019566D02*
X018196Y019566D01*
X018096Y019663D02*
X016462Y019663D01*
X016564Y019372D02*
X022628Y019372D01*
X022628Y019275D02*
X016467Y019275D01*
X016514Y019178D02*
X022628Y019178D01*
X022628Y019081D02*
X016565Y019081D01*
X016565Y018984D02*
X022628Y018984D01*
X022628Y018887D02*
X016512Y018887D01*
X016565Y018790D02*
X022628Y018790D01*
X022628Y018693D02*
X016695Y018693D01*
X016621Y018767D02*
X016621Y018767D01*
X016792Y018596D02*
X017537Y018596D01*
X017429Y018534D02*
X017429Y018534D01*
X017409Y018500D02*
X016889Y018500D01*
X016986Y018403D02*
X017352Y018403D01*
X018098Y018596D02*
X022628Y018596D01*
X022628Y018500D02*
X018227Y018500D01*
X018200Y018527D02*
X018200Y018527D01*
X018324Y018403D02*
X022628Y018403D01*
X022628Y016346D02*
X022628Y012429D01*
X018425Y012429D01*
X018392Y012429D01*
X018369Y012452D01*
X018261Y012561D01*
X018200Y012621D01*
X018160Y012661D01*
X018140Y012682D01*
X018111Y012682D01*
X018105Y012684D01*
X022628Y012684D01*
X022628Y012781D02*
X016702Y012781D01*
X016682Y012801D02*
X016621Y012861D01*
X016459Y012929D01*
X016565Y013034D01*
X016565Y013222D01*
X016442Y013344D01*
X016565Y013467D01*
X016565Y013655D01*
X016432Y013787D01*
X016269Y013787D01*
X016269Y014201D01*
X016432Y014201D01*
X016565Y014333D01*
X016565Y014516D01*
X017337Y014516D01*
X018093Y013760D01*
X018190Y013663D01*
X018317Y013610D01*
X020698Y013610D01*
X020825Y013663D01*
X020922Y013760D01*
X020974Y013886D01*
X020974Y014023D01*
X020922Y014150D01*
X020825Y014247D01*
X020698Y014299D01*
X018528Y014299D01*
X017675Y015152D01*
X017549Y015205D01*
X016565Y015205D01*
X016565Y015387D01*
X016442Y015510D01*
X016565Y015633D01*
X016565Y015820D01*
X016442Y015943D01*
X016565Y016066D01*
X016565Y016253D01*
X016471Y016346D01*
X022628Y016346D01*
X022628Y016270D02*
X016548Y016270D01*
X016565Y016173D02*
X022628Y016173D01*
X022628Y016076D02*
X016565Y016076D01*
X016478Y015979D02*
X022628Y015979D01*
X022628Y015883D02*
X016502Y015883D01*
X016565Y015786D02*
X022628Y015786D01*
X022628Y015689D02*
X016565Y015689D01*
X016524Y015592D02*
X022628Y015592D01*
X022628Y015495D02*
X016457Y015495D01*
X016554Y015398D02*
X020000Y015398D01*
X019777Y015175D01*
X018627Y015175D01*
X018558Y015244D01*
X018370Y015244D01*
X018238Y015111D01*
X018238Y014924D01*
X018370Y014791D01*
X018558Y014791D01*
X018627Y014860D01*
X019907Y014860D01*
X020000Y014952D01*
X020000Y014952D01*
X020222Y015175D01*
X020604Y015175D01*
X020801Y014978D01*
X021333Y014978D01*
X021363Y014949D01*
X021550Y014949D01*
X021683Y015081D01*
X021683Y015269D01*
X021550Y015402D01*
X021363Y015402D01*
X021254Y015293D01*
X020931Y015293D01*
X020734Y015490D01*
X020092Y015490D01*
X020000Y015398D01*
X019903Y015301D02*
X016565Y015301D01*
X016565Y014429D02*
X017424Y014429D01*
X017521Y014332D02*
X016563Y014332D01*
X016466Y014235D02*
X017618Y014235D01*
X017715Y014138D02*
X016269Y014138D01*
X016269Y014041D02*
X017812Y014041D01*
X017909Y013944D02*
X016269Y013944D01*
X016269Y013847D02*
X018006Y013847D01*
X018103Y013750D02*
X016469Y013750D01*
X016565Y013653D02*
X018213Y013653D01*
X018496Y014332D02*
X022628Y014332D01*
X022628Y014429D02*
X018399Y014429D01*
X018302Y014526D02*
X022628Y014526D01*
X022628Y014622D02*
X018205Y014622D01*
X018108Y014719D02*
X022628Y014719D01*
X022628Y014816D02*
X018583Y014816D01*
X018464Y015018D02*
X019842Y015018D01*
X020157Y015333D01*
X020669Y015333D01*
X020866Y015136D01*
X021417Y015136D01*
X021456Y015175D01*
X021612Y015010D02*
X022628Y015010D01*
X022628Y014913D02*
X019960Y014913D01*
X020057Y015010D02*
X020769Y015010D01*
X020672Y015107D02*
X020154Y015107D01*
X019806Y015204D02*
X018598Y015204D01*
X018330Y015204D02*
X017550Y015204D01*
X017720Y015107D02*
X018238Y015107D01*
X018238Y015010D02*
X017817Y015010D01*
X017914Y014913D02*
X018249Y014913D01*
X018345Y014816D02*
X018011Y014816D01*
X016565Y013556D02*
X022628Y013556D01*
X022628Y013459D02*
X016557Y013459D01*
X016460Y013362D02*
X022628Y013362D01*
X022628Y013266D02*
X016521Y013266D01*
X016565Y013169D02*
X022628Y013169D01*
X022628Y013072D02*
X016565Y013072D01*
X016505Y012975D02*
X022628Y012975D01*
X022628Y012878D02*
X016582Y012878D01*
X016621Y012861D02*
X016621Y012861D01*
X016682Y012801D02*
X016962Y012521D01*
X016962Y012521D01*
X016991Y012492D01*
X017022Y012461D01*
X017038Y012447D01*
X017078Y012431D01*
X017099Y012429D01*
X017352Y012429D01*
X017352Y012505D01*
X017365Y012517D01*
X017429Y012628D01*
X017429Y012628D01*
X017539Y012692D01*
X017552Y012705D01*
X018084Y012705D01*
X018105Y012684D01*
X018160Y012661D02*
X018160Y012661D01*
X018234Y012587D02*
X022628Y012587D01*
X022628Y012490D02*
X018331Y012490D01*
X018369Y012452D02*
X018369Y012452D01*
X018261Y012561D02*
X018261Y012561D01*
X017525Y012684D02*
X016799Y012684D01*
X016896Y012587D02*
X017405Y012587D01*
X017429Y012628D02*
X017429Y012628D01*
X017352Y012490D02*
X016993Y012490D01*
X016471Y010441D02*
X022628Y010441D01*
X022628Y006524D01*
X018425Y006524D01*
X018392Y006524D01*
X018383Y006533D01*
X018261Y006655D01*
X018261Y006655D01*
X018200Y006716D01*
X018174Y006742D01*
X018140Y006776D01*
X018111Y006776D01*
X018105Y006779D01*
X018084Y006799D01*
X017552Y006799D01*
X017539Y006787D01*
X017429Y006723D01*
X017429Y006723D01*
X017429Y006723D01*
X017365Y006612D01*
X017352Y006599D01*
X017352Y006524D01*
X017099Y006524D01*
X017078Y006526D01*
X017038Y006542D01*
X017022Y006555D01*
X017018Y006559D01*
X016962Y006616D01*
X016962Y006616D01*
X016684Y006894D01*
X016621Y006956D01*
X016459Y007023D01*
X016565Y007129D01*
X016565Y007316D01*
X016442Y007439D01*
X016565Y007562D01*
X016565Y007749D01*
X016432Y007882D01*
X016269Y007882D01*
X016269Y008295D01*
X016432Y008295D01*
X016565Y008428D01*
X016565Y008610D01*
X017337Y008610D01*
X018093Y007854D01*
X018190Y007757D01*
X018317Y007705D01*
X020698Y007705D01*
X020825Y007757D01*
X020922Y007854D01*
X020974Y007981D01*
X020974Y008118D01*
X020922Y008244D01*
X020825Y008341D01*
X020698Y008394D01*
X018528Y008394D01*
X017675Y009247D01*
X017549Y009299D01*
X016565Y009299D01*
X016565Y009482D01*
X016442Y009604D01*
X016565Y009727D01*
X016565Y009915D01*
X016442Y010037D01*
X016565Y010160D01*
X016565Y010348D01*
X016471Y010441D01*
X016555Y010358D02*
X022628Y010358D01*
X022628Y010261D02*
X016565Y010261D01*
X016565Y010164D02*
X022628Y010164D01*
X022628Y010067D02*
X016471Y010067D01*
X016509Y009970D02*
X022628Y009970D01*
X022628Y009873D02*
X016565Y009873D01*
X016565Y009776D02*
X022628Y009776D01*
X022628Y009679D02*
X016517Y009679D01*
X016464Y009582D02*
X020090Y009582D01*
X020092Y009585D02*
X020000Y009492D01*
X019777Y009270D01*
X018627Y009270D01*
X018558Y009339D01*
X018370Y009339D01*
X018238Y009206D01*
X018238Y009018D01*
X018370Y008886D01*
X018558Y008886D01*
X018627Y008955D01*
X019907Y008955D01*
X020000Y009047D01*
X020222Y009270D01*
X020604Y009270D01*
X020708Y009165D01*
X020801Y009073D01*
X021333Y009073D01*
X021363Y009043D01*
X021550Y009043D01*
X021683Y009176D01*
X021683Y009363D01*
X021550Y009496D01*
X021363Y009496D01*
X021254Y009388D01*
X020931Y009388D01*
X020734Y009585D01*
X020092Y009585D01*
X020000Y009492D02*
X020000Y009492D01*
X019993Y009485D02*
X016561Y009485D01*
X016565Y009389D02*
X019896Y009389D01*
X019799Y009292D02*
X018605Y009292D01*
X018464Y009112D02*
X019842Y009112D01*
X020157Y009427D01*
X020669Y009427D01*
X020866Y009230D01*
X021417Y009230D01*
X021456Y009270D01*
X021605Y009098D02*
X022628Y009098D01*
X022628Y009195D02*
X021683Y009195D01*
X021683Y009292D02*
X022628Y009292D01*
X022628Y009389D02*
X021658Y009389D01*
X021561Y009485D02*
X022628Y009485D01*
X022628Y009582D02*
X020736Y009582D01*
X020833Y009485D02*
X021352Y009485D01*
X021255Y009389D02*
X020930Y009389D01*
X020708Y009165D02*
X020708Y009165D01*
X020679Y009195D02*
X020147Y009195D01*
X020050Y009098D02*
X020776Y009098D01*
X020000Y009047D02*
X020000Y009047D01*
X019954Y009001D02*
X022628Y009001D01*
X022628Y008904D02*
X018576Y008904D01*
X018352Y008904D02*
X018018Y008904D01*
X017921Y009001D02*
X018255Y009001D01*
X018238Y009098D02*
X017824Y009098D01*
X017727Y009195D02*
X018238Y009195D01*
X018324Y009292D02*
X017567Y009292D01*
X018115Y008807D02*
X022628Y008807D01*
X022628Y008710D02*
X018212Y008710D01*
X018309Y008613D02*
X022628Y008613D01*
X022628Y008516D02*
X018406Y008516D01*
X018503Y008419D02*
X022628Y008419D01*
X022628Y008322D02*
X020844Y008322D01*
X020929Y008225D02*
X022628Y008225D01*
X022628Y008128D02*
X020970Y008128D01*
X020974Y008032D02*
X022628Y008032D01*
X022628Y007935D02*
X020955Y007935D01*
X020905Y007838D02*
X022628Y007838D01*
X022628Y007741D02*
X020785Y007741D01*
X022628Y007644D02*
X016565Y007644D01*
X016565Y007741D02*
X018230Y007741D01*
X018110Y007838D02*
X016476Y007838D01*
X016269Y007935D02*
X018013Y007935D01*
X017916Y008032D02*
X016269Y008032D01*
X016269Y008128D02*
X017819Y008128D01*
X017722Y008225D02*
X016269Y008225D01*
X016459Y008322D02*
X017625Y008322D01*
X017528Y008419D02*
X016556Y008419D01*
X016565Y008516D02*
X017431Y008516D01*
X016550Y007547D02*
X022628Y007547D01*
X022628Y007450D02*
X016453Y007450D01*
X016528Y007353D02*
X022628Y007353D01*
X022628Y007256D02*
X016565Y007256D01*
X016565Y007159D02*
X022628Y007159D01*
X022628Y007062D02*
X016498Y007062D01*
X016599Y006965D02*
X022628Y006965D01*
X022628Y006868D02*
X016709Y006868D01*
X016621Y006956D02*
X016621Y006956D01*
X016806Y006772D02*
X017513Y006772D01*
X017401Y006675D02*
X016903Y006675D01*
X017000Y006578D02*
X017352Y006578D01*
X018144Y006772D02*
X022628Y006772D01*
X022628Y006675D02*
X018241Y006675D01*
X018200Y006716D02*
X018200Y006716D01*
X018338Y006578D02*
X022628Y006578D01*
X022628Y013653D02*
X020802Y013653D01*
X020912Y013750D02*
X022628Y013750D01*
X022628Y013847D02*
X020958Y013847D01*
X020974Y013944D02*
X022628Y013944D01*
X022628Y014041D02*
X020967Y014041D01*
X020927Y014138D02*
X022628Y014138D01*
X022628Y014235D02*
X020837Y014235D01*
X021683Y015107D02*
X022628Y015107D01*
X022628Y015204D02*
X021683Y015204D01*
X021651Y015301D02*
X022628Y015301D01*
X022628Y015398D02*
X021554Y015398D01*
X021359Y015398D02*
X020826Y015398D01*
X020923Y015301D02*
X021262Y015301D01*
X006385Y006956D02*
X006385Y006956D01*
D16*
X006338Y008089D02*
X006063Y008089D01*
X006063Y013994D02*
X006338Y013994D01*
X006338Y019900D02*
X006063Y019900D01*
X016299Y019900D02*
X016574Y019900D01*
X016574Y013994D02*
X016299Y013994D01*
X016299Y008089D02*
X016574Y008089D01*
D17*
X016338Y008522D02*
X015452Y008522D01*
X015452Y009388D02*
X016338Y009388D01*
X016338Y009821D02*
X015452Y009821D01*
X015452Y010254D02*
X016338Y010254D01*
X016338Y007655D02*
X015452Y007655D01*
X015452Y007222D02*
X016338Y007222D01*
X016338Y013128D02*
X015452Y013128D01*
X015452Y013561D02*
X016338Y013561D01*
X016338Y014427D02*
X015452Y014427D01*
X015452Y015293D02*
X016338Y015293D01*
X016338Y015726D02*
X015452Y015726D01*
X015452Y016159D02*
X016338Y016159D01*
X016338Y019033D02*
X015452Y019033D01*
X015452Y019467D02*
X016338Y019467D01*
X016338Y020333D02*
X015452Y020333D01*
X015452Y021199D02*
X016338Y021199D01*
X016338Y021632D02*
X015452Y021632D01*
X015452Y022065D02*
X016338Y022065D01*
X006102Y022065D02*
X005216Y022065D01*
X005216Y021632D02*
X006102Y021632D01*
X006102Y021199D02*
X005216Y021199D01*
X005216Y020333D02*
X006102Y020333D01*
X006102Y019467D02*
X005216Y019467D01*
X005216Y019033D02*
X006102Y019033D01*
X006102Y016159D02*
X005216Y016159D01*
X005216Y015726D02*
X006102Y015726D01*
X006102Y015293D02*
X005216Y015293D01*
X005216Y014427D02*
X006102Y014427D01*
X006102Y013561D02*
X005216Y013561D01*
X005216Y013128D02*
X006102Y013128D01*
X006102Y010254D02*
X005216Y010254D01*
X005216Y009821D02*
X006102Y009821D01*
X006102Y009388D02*
X005216Y009388D01*
X005216Y008522D02*
X006102Y008522D01*
X006102Y007655D02*
X005216Y007655D01*
X005216Y007222D02*
X006102Y007222D01*
M02*
