G75*
%MOIN*%
%OFA0B0*%
%FSLAX24Y24*%
%IPPOS*%
%LPD*%
%AMOC8*
5,1,8,0,0,1.08239X$1,22.5*
%
%ADD10C,0.0000*%
D10*
X004212Y006002D02*
X004685Y006002D01*
X004708Y006004D01*
X004731Y006009D01*
X004753Y006018D01*
X004773Y006029D01*
X004792Y006044D01*
X004808Y006061D01*
X004821Y006081D01*
X004831Y006102D01*
X004838Y006124D01*
X004842Y006147D01*
X004842Y006171D01*
X004838Y006194D01*
X004831Y006216D01*
X004821Y006237D01*
X004808Y006257D01*
X004792Y006274D01*
X004773Y006289D01*
X004753Y006300D01*
X004731Y006309D01*
X004708Y006314D01*
X004685Y006316D01*
X004724Y006317D02*
X004527Y006317D01*
X004212Y006002D02*
X004179Y006004D01*
X004147Y006009D01*
X004115Y006017D01*
X004084Y006029D01*
X004055Y006044D01*
X004027Y006062D01*
X004001Y006083D01*
X003978Y006106D01*
X003957Y006132D01*
X003939Y006160D01*
X003924Y006189D01*
X003912Y006220D01*
X003904Y006252D01*
X003899Y006284D01*
X003897Y006317D01*
X003897Y006829D01*
X003898Y006829D02*
X003900Y006852D01*
X003905Y006875D01*
X003914Y006897D01*
X003925Y006917D01*
X003940Y006936D01*
X003957Y006952D01*
X003977Y006965D01*
X003998Y006975D01*
X004020Y006982D01*
X004043Y006986D01*
X004067Y006986D01*
X004090Y006982D01*
X004112Y006975D01*
X004134Y006965D01*
X004153Y006952D01*
X004170Y006936D01*
X004185Y006917D01*
X004196Y006897D01*
X004205Y006875D01*
X004210Y006852D01*
X004212Y006829D01*
X004212Y006632D01*
X004214Y006599D01*
X004219Y006567D01*
X004227Y006535D01*
X004239Y006504D01*
X004254Y006475D01*
X004272Y006447D01*
X004293Y006421D01*
X004316Y006398D01*
X004342Y006377D01*
X004370Y006359D01*
X004399Y006344D01*
X004430Y006332D01*
X004462Y006324D01*
X004494Y006319D01*
X004527Y006317D01*
X004212Y009663D02*
X004212Y009821D01*
X004212Y009663D02*
X004210Y009640D01*
X004205Y009617D01*
X004196Y009595D01*
X004185Y009575D01*
X004170Y009556D01*
X004153Y009540D01*
X004134Y009527D01*
X004112Y009517D01*
X004090Y009510D01*
X004067Y009506D01*
X004043Y009506D01*
X004020Y009510D01*
X003998Y009517D01*
X003977Y009527D01*
X003957Y009540D01*
X003940Y009556D01*
X003925Y009575D01*
X003914Y009595D01*
X003905Y009617D01*
X003900Y009640D01*
X003898Y009663D01*
X003897Y009663D02*
X003897Y010648D01*
X003899Y010687D01*
X003905Y010725D01*
X003914Y010762D01*
X003927Y010799D01*
X003944Y010834D01*
X003963Y010867D01*
X003986Y010898D01*
X004012Y010927D01*
X004041Y010953D01*
X004072Y010976D01*
X004105Y010995D01*
X004140Y011012D01*
X004177Y011025D01*
X004214Y011034D01*
X004252Y011040D01*
X004291Y011042D01*
X004291Y011041D02*
X008149Y011041D01*
X008176Y011039D01*
X008202Y011034D01*
X008227Y011025D01*
X008251Y011012D01*
X008273Y010997D01*
X008293Y010978D01*
X008310Y010958D01*
X008324Y010935D01*
X008335Y010910D01*
X008342Y010884D01*
X008346Y010857D01*
X008346Y010831D01*
X008342Y010804D01*
X008335Y010778D01*
X008324Y010753D01*
X008310Y010730D01*
X008293Y010710D01*
X008273Y010691D01*
X008251Y010676D01*
X008227Y010663D01*
X008202Y010654D01*
X008176Y010649D01*
X008149Y010647D01*
X008149Y010648D02*
X008103Y010648D01*
X008047Y010625D02*
X007818Y010395D01*
X007762Y010372D02*
X007401Y010372D01*
X007386Y010374D01*
X007371Y010378D01*
X007357Y010385D01*
X007345Y010395D01*
X007335Y010407D01*
X007328Y010421D01*
X007324Y010436D01*
X007322Y010451D01*
X007323Y010451D02*
X007323Y010569D01*
X007321Y010584D01*
X007317Y010599D01*
X007310Y010613D01*
X007300Y010625D01*
X007288Y010635D01*
X007274Y010642D01*
X007259Y010646D01*
X007244Y010648D01*
X006862Y010648D01*
X006850Y010648D01*
X006640Y010555D02*
X006312Y010228D01*
X006090Y010136D02*
X004527Y010136D01*
X004494Y010134D01*
X004462Y010129D01*
X004430Y010121D01*
X004399Y010109D01*
X004370Y010094D01*
X004342Y010076D01*
X004316Y010055D01*
X004293Y010032D01*
X004272Y010006D01*
X004254Y009979D01*
X004239Y009949D01*
X004227Y009918D01*
X004219Y009886D01*
X004214Y009854D01*
X004212Y009821D01*
X006090Y010136D02*
X006121Y010138D01*
X006151Y010142D01*
X006181Y010150D01*
X006211Y010160D01*
X006238Y010173D01*
X006265Y010189D01*
X006290Y010208D01*
X006313Y010228D01*
X006639Y010556D02*
X006662Y010576D01*
X006687Y010595D01*
X006714Y010611D01*
X006741Y010624D01*
X006771Y010634D01*
X006801Y010642D01*
X006831Y010646D01*
X006862Y010648D01*
X007762Y010372D02*
X007777Y010374D01*
X007792Y010378D01*
X007806Y010385D01*
X007818Y010395D01*
X008047Y010625D02*
X008059Y010635D01*
X008073Y010642D01*
X008088Y010646D01*
X008103Y010648D01*
X004724Y012222D02*
X004527Y012222D01*
X004685Y012222D02*
X004708Y012220D01*
X004731Y012215D01*
X004753Y012206D01*
X004773Y012195D01*
X004792Y012180D01*
X004808Y012163D01*
X004821Y012144D01*
X004831Y012122D01*
X004838Y012100D01*
X004842Y012077D01*
X004842Y012053D01*
X004838Y012030D01*
X004831Y012008D01*
X004821Y011987D01*
X004808Y011967D01*
X004792Y011950D01*
X004773Y011935D01*
X004753Y011924D01*
X004731Y011915D01*
X004708Y011910D01*
X004685Y011908D01*
X004685Y011907D02*
X004212Y011907D01*
X004179Y011909D01*
X004147Y011914D01*
X004115Y011922D01*
X004084Y011934D01*
X004055Y011949D01*
X004027Y011967D01*
X004001Y011988D01*
X003978Y012011D01*
X003957Y012037D01*
X003939Y012065D01*
X003924Y012094D01*
X003912Y012125D01*
X003904Y012157D01*
X003899Y012189D01*
X003897Y012222D01*
X003897Y012734D01*
X003898Y012734D02*
X003900Y012757D01*
X003905Y012780D01*
X003914Y012802D01*
X003925Y012822D01*
X003940Y012841D01*
X003957Y012857D01*
X003977Y012870D01*
X003998Y012880D01*
X004020Y012887D01*
X004043Y012891D01*
X004067Y012891D01*
X004090Y012887D01*
X004112Y012880D01*
X004134Y012870D01*
X004153Y012857D01*
X004170Y012841D01*
X004185Y012822D01*
X004196Y012802D01*
X004205Y012780D01*
X004210Y012757D01*
X004212Y012734D01*
X004212Y012537D01*
X004214Y012504D01*
X004219Y012472D01*
X004227Y012440D01*
X004239Y012409D01*
X004254Y012380D01*
X004272Y012352D01*
X004293Y012326D01*
X004316Y012303D01*
X004342Y012282D01*
X004370Y012264D01*
X004399Y012249D01*
X004430Y012237D01*
X004462Y012229D01*
X004494Y012224D01*
X004527Y012222D01*
X004212Y015569D02*
X004212Y015726D01*
X004212Y015569D02*
X004210Y015546D01*
X004205Y015523D01*
X004196Y015501D01*
X004185Y015481D01*
X004170Y015462D01*
X004153Y015446D01*
X004134Y015433D01*
X004112Y015423D01*
X004090Y015416D01*
X004067Y015412D01*
X004043Y015412D01*
X004020Y015416D01*
X003998Y015423D01*
X003977Y015433D01*
X003957Y015446D01*
X003940Y015462D01*
X003925Y015481D01*
X003914Y015501D01*
X003905Y015523D01*
X003900Y015546D01*
X003898Y015569D01*
X003897Y015569D02*
X003897Y016553D01*
X003899Y016592D01*
X003905Y016630D01*
X003914Y016667D01*
X003927Y016704D01*
X003944Y016739D01*
X003963Y016772D01*
X003986Y016803D01*
X004012Y016832D01*
X004041Y016858D01*
X004072Y016881D01*
X004105Y016900D01*
X004140Y016917D01*
X004177Y016930D01*
X004214Y016939D01*
X004252Y016945D01*
X004291Y016947D01*
X008149Y016947D01*
X008176Y016945D01*
X008202Y016940D01*
X008227Y016931D01*
X008251Y016918D01*
X008273Y016903D01*
X008293Y016884D01*
X008310Y016864D01*
X008324Y016841D01*
X008335Y016816D01*
X008342Y016790D01*
X008346Y016763D01*
X008346Y016737D01*
X008342Y016710D01*
X008335Y016684D01*
X008324Y016659D01*
X008310Y016636D01*
X008293Y016616D01*
X008273Y016597D01*
X008251Y016582D01*
X008227Y016569D01*
X008202Y016560D01*
X008176Y016555D01*
X008149Y016553D01*
X008103Y016553D01*
X008047Y016530D02*
X007818Y016301D01*
X007762Y016278D02*
X007401Y016278D01*
X007401Y016277D02*
X007386Y016279D01*
X007371Y016283D01*
X007357Y016290D01*
X007345Y016300D01*
X007335Y016312D01*
X007328Y016326D01*
X007324Y016341D01*
X007322Y016356D01*
X007323Y016356D02*
X007323Y016474D01*
X007321Y016489D01*
X007317Y016504D01*
X007310Y016518D01*
X007300Y016530D01*
X007288Y016540D01*
X007274Y016547D01*
X007259Y016551D01*
X007244Y016553D01*
X006862Y016553D01*
X006850Y016553D01*
X006640Y016461D02*
X006312Y016134D01*
X006090Y016041D02*
X004527Y016041D01*
X004494Y016039D01*
X004462Y016034D01*
X004430Y016026D01*
X004399Y016014D01*
X004370Y015999D01*
X004342Y015981D01*
X004316Y015960D01*
X004293Y015937D01*
X004272Y015911D01*
X004254Y015884D01*
X004239Y015854D01*
X004227Y015823D01*
X004219Y015791D01*
X004214Y015759D01*
X004212Y015726D01*
X006090Y016041D02*
X006121Y016043D01*
X006151Y016047D01*
X006181Y016055D01*
X006211Y016065D01*
X006238Y016078D01*
X006265Y016094D01*
X006290Y016113D01*
X006313Y016133D01*
X006639Y016461D02*
X006662Y016481D01*
X006687Y016500D01*
X006714Y016516D01*
X006741Y016529D01*
X006771Y016539D01*
X006801Y016547D01*
X006831Y016551D01*
X006862Y016553D01*
X007762Y016277D02*
X007777Y016279D01*
X007792Y016283D01*
X007806Y016290D01*
X007818Y016300D01*
X008047Y016530D02*
X008059Y016540D01*
X008073Y016547D01*
X008088Y016551D01*
X008103Y016553D01*
X004724Y018128D02*
X004527Y018128D01*
X004685Y018127D02*
X004708Y018125D01*
X004731Y018120D01*
X004753Y018111D01*
X004773Y018100D01*
X004792Y018085D01*
X004808Y018068D01*
X004821Y018049D01*
X004831Y018027D01*
X004838Y018005D01*
X004842Y017982D01*
X004842Y017958D01*
X004838Y017935D01*
X004831Y017913D01*
X004821Y017892D01*
X004808Y017872D01*
X004792Y017855D01*
X004773Y017840D01*
X004753Y017829D01*
X004731Y017820D01*
X004708Y017815D01*
X004685Y017813D01*
X004212Y017813D01*
X004179Y017815D01*
X004147Y017820D01*
X004115Y017828D01*
X004084Y017840D01*
X004055Y017855D01*
X004027Y017873D01*
X004001Y017894D01*
X003978Y017917D01*
X003957Y017943D01*
X003939Y017971D01*
X003924Y018000D01*
X003912Y018031D01*
X003904Y018063D01*
X003899Y018095D01*
X003897Y018128D01*
X003897Y018640D01*
X003898Y018640D02*
X003900Y018663D01*
X003905Y018686D01*
X003914Y018708D01*
X003925Y018728D01*
X003940Y018747D01*
X003957Y018763D01*
X003977Y018776D01*
X003998Y018786D01*
X004020Y018793D01*
X004043Y018797D01*
X004067Y018797D01*
X004090Y018793D01*
X004112Y018786D01*
X004134Y018776D01*
X004153Y018763D01*
X004170Y018747D01*
X004185Y018728D01*
X004196Y018708D01*
X004205Y018686D01*
X004210Y018663D01*
X004212Y018640D01*
X004212Y018443D01*
X004214Y018410D01*
X004219Y018378D01*
X004227Y018346D01*
X004239Y018315D01*
X004254Y018286D01*
X004272Y018258D01*
X004293Y018232D01*
X004316Y018209D01*
X004342Y018188D01*
X004370Y018170D01*
X004399Y018155D01*
X004430Y018143D01*
X004462Y018135D01*
X004494Y018130D01*
X004527Y018128D01*
X004212Y021474D02*
X004212Y021632D01*
X004212Y021474D02*
X004210Y021451D01*
X004205Y021428D01*
X004196Y021406D01*
X004185Y021386D01*
X004170Y021367D01*
X004153Y021351D01*
X004134Y021338D01*
X004112Y021328D01*
X004090Y021321D01*
X004067Y021317D01*
X004043Y021317D01*
X004020Y021321D01*
X003998Y021328D01*
X003977Y021338D01*
X003957Y021351D01*
X003940Y021367D01*
X003925Y021386D01*
X003914Y021406D01*
X003905Y021428D01*
X003900Y021451D01*
X003898Y021474D01*
X003897Y021474D02*
X003897Y022459D01*
X003899Y022498D01*
X003905Y022536D01*
X003914Y022573D01*
X003927Y022610D01*
X003944Y022645D01*
X003963Y022678D01*
X003986Y022709D01*
X004012Y022738D01*
X004041Y022764D01*
X004072Y022787D01*
X004105Y022806D01*
X004140Y022823D01*
X004177Y022836D01*
X004214Y022845D01*
X004252Y022851D01*
X004291Y022853D01*
X004291Y022852D02*
X008149Y022852D01*
X008176Y022850D01*
X008202Y022845D01*
X008227Y022836D01*
X008251Y022823D01*
X008273Y022808D01*
X008293Y022789D01*
X008310Y022769D01*
X008324Y022746D01*
X008335Y022721D01*
X008342Y022695D01*
X008346Y022668D01*
X008346Y022642D01*
X008342Y022615D01*
X008335Y022589D01*
X008324Y022564D01*
X008310Y022541D01*
X008293Y022521D01*
X008273Y022502D01*
X008251Y022487D01*
X008227Y022474D01*
X008202Y022465D01*
X008176Y022460D01*
X008149Y022458D01*
X008149Y022459D02*
X008103Y022459D01*
X008047Y022436D02*
X007818Y022206D01*
X007762Y022183D02*
X007401Y022183D01*
X007386Y022185D01*
X007371Y022189D01*
X007357Y022196D01*
X007345Y022206D01*
X007335Y022218D01*
X007328Y022232D01*
X007324Y022247D01*
X007322Y022262D01*
X007323Y022262D02*
X007323Y022380D01*
X007321Y022395D01*
X007317Y022410D01*
X007310Y022424D01*
X007300Y022436D01*
X007288Y022446D01*
X007274Y022453D01*
X007259Y022457D01*
X007244Y022459D01*
X006862Y022459D01*
X006850Y022459D01*
X006640Y022366D02*
X006312Y022039D01*
X006090Y021947D02*
X004527Y021947D01*
X004494Y021945D01*
X004462Y021940D01*
X004430Y021932D01*
X004399Y021920D01*
X004370Y021905D01*
X004342Y021887D01*
X004316Y021866D01*
X004293Y021843D01*
X004272Y021817D01*
X004254Y021790D01*
X004239Y021760D01*
X004227Y021729D01*
X004219Y021697D01*
X004214Y021665D01*
X004212Y021632D01*
X006090Y021947D02*
X006121Y021949D01*
X006151Y021953D01*
X006181Y021961D01*
X006211Y021971D01*
X006238Y021984D01*
X006265Y022000D01*
X006290Y022019D01*
X006313Y022039D01*
X006639Y022367D02*
X006662Y022387D01*
X006687Y022406D01*
X006714Y022422D01*
X006741Y022435D01*
X006771Y022445D01*
X006801Y022453D01*
X006831Y022457D01*
X006862Y022459D01*
X007762Y022183D02*
X007777Y022185D01*
X007792Y022189D01*
X007806Y022196D01*
X007818Y022206D01*
X008047Y022436D02*
X008059Y022446D01*
X008073Y022453D01*
X008088Y022457D01*
X008103Y022459D01*
X013110Y022459D02*
X013346Y022459D01*
X013110Y022459D02*
X013087Y022461D01*
X013064Y022466D01*
X013042Y022475D01*
X013022Y022486D01*
X013003Y022501D01*
X012987Y022518D01*
X012974Y022538D01*
X012964Y022559D01*
X012957Y022581D01*
X012953Y022604D01*
X012953Y022628D01*
X012957Y022651D01*
X012964Y022673D01*
X012974Y022695D01*
X012987Y022714D01*
X013003Y022731D01*
X013022Y022746D01*
X013042Y022757D01*
X013064Y022766D01*
X013087Y022771D01*
X013110Y022773D01*
X013110Y022774D02*
X013661Y022774D01*
X013694Y022772D01*
X013726Y022767D01*
X013758Y022759D01*
X013789Y022747D01*
X013819Y022732D01*
X013846Y022714D01*
X013872Y022693D01*
X013895Y022670D01*
X013916Y022644D01*
X013934Y022617D01*
X013949Y022587D01*
X013961Y022556D01*
X013969Y022524D01*
X013974Y022492D01*
X013976Y022459D01*
X013976Y021947D01*
X013974Y021924D01*
X013969Y021901D01*
X013960Y021879D01*
X013949Y021859D01*
X013934Y021840D01*
X013917Y021824D01*
X013898Y021811D01*
X013876Y021801D01*
X013854Y021794D01*
X013831Y021790D01*
X013807Y021790D01*
X013784Y021794D01*
X013762Y021801D01*
X013741Y021811D01*
X013721Y021824D01*
X013704Y021840D01*
X013689Y021859D01*
X013678Y021879D01*
X013669Y021901D01*
X013664Y021924D01*
X013662Y021947D01*
X013661Y021947D02*
X013661Y022144D01*
X013661Y022459D02*
X013661Y006317D01*
X013661Y006002D02*
X013694Y006004D01*
X013726Y006009D01*
X013758Y006017D01*
X013789Y006029D01*
X013819Y006044D01*
X013846Y006062D01*
X013872Y006083D01*
X013895Y006106D01*
X013916Y006132D01*
X013934Y006159D01*
X013949Y006189D01*
X013961Y006220D01*
X013969Y006252D01*
X013974Y006284D01*
X013976Y006317D01*
X013976Y006829D01*
X013974Y006852D01*
X013969Y006875D01*
X013960Y006897D01*
X013949Y006917D01*
X013934Y006936D01*
X013917Y006952D01*
X013898Y006965D01*
X013876Y006975D01*
X013854Y006982D01*
X013831Y006986D01*
X013807Y006986D01*
X013784Y006982D01*
X013762Y006975D01*
X013741Y006965D01*
X013721Y006952D01*
X013704Y006936D01*
X013689Y006917D01*
X013678Y006897D01*
X013669Y006875D01*
X013664Y006852D01*
X013662Y006829D01*
X013661Y006829D02*
X013661Y006632D01*
X014055Y005923D02*
X014094Y005925D01*
X014132Y005931D01*
X014169Y005940D01*
X014206Y005953D01*
X014241Y005970D01*
X014274Y005989D01*
X014305Y006012D01*
X014334Y006038D01*
X014360Y006067D01*
X014383Y006098D01*
X014402Y006131D01*
X014419Y006166D01*
X014432Y006203D01*
X014441Y006240D01*
X014447Y006278D01*
X014449Y006317D01*
X014448Y006002D02*
X014415Y006004D01*
X014383Y006009D01*
X014351Y006017D01*
X014320Y006029D01*
X014291Y006044D01*
X014263Y006062D01*
X014237Y006083D01*
X014214Y006106D01*
X014193Y006132D01*
X014175Y006160D01*
X014160Y006189D01*
X014148Y006220D01*
X014140Y006252D01*
X014135Y006284D01*
X014133Y006317D01*
X014134Y006317D02*
X014134Y006829D01*
X014136Y006852D01*
X014141Y006875D01*
X014150Y006897D01*
X014161Y006917D01*
X014176Y006936D01*
X014193Y006952D01*
X014213Y006965D01*
X014234Y006975D01*
X014256Y006982D01*
X014279Y006986D01*
X014303Y006986D01*
X014326Y006982D01*
X014348Y006975D01*
X014370Y006965D01*
X014389Y006952D01*
X014406Y006936D01*
X014421Y006917D01*
X014432Y006897D01*
X014441Y006875D01*
X014446Y006852D01*
X014448Y006829D01*
X014448Y006632D01*
X014448Y006317D02*
X014448Y022459D01*
X014133Y022459D02*
X014135Y022498D01*
X014141Y022536D01*
X014150Y022573D01*
X014163Y022610D01*
X014180Y022645D01*
X014199Y022678D01*
X014222Y022709D01*
X014248Y022738D01*
X014277Y022764D01*
X014308Y022787D01*
X014341Y022806D01*
X014376Y022823D01*
X014413Y022836D01*
X014450Y022845D01*
X014488Y022851D01*
X014527Y022853D01*
X014527Y022852D02*
X018385Y022852D01*
X018412Y022850D01*
X018438Y022845D01*
X018463Y022836D01*
X018487Y022823D01*
X018509Y022808D01*
X018529Y022789D01*
X018546Y022769D01*
X018560Y022746D01*
X018571Y022721D01*
X018578Y022695D01*
X018582Y022668D01*
X018582Y022642D01*
X018578Y022615D01*
X018571Y022589D01*
X018560Y022564D01*
X018546Y022541D01*
X018529Y022521D01*
X018509Y022502D01*
X018487Y022487D01*
X018463Y022474D01*
X018438Y022465D01*
X018412Y022460D01*
X018385Y022458D01*
X018385Y022459D02*
X018339Y022459D01*
X018284Y022436D02*
X018054Y022206D01*
X017999Y022183D02*
X017637Y022183D01*
X017622Y022185D01*
X017607Y022189D01*
X017593Y022196D01*
X017581Y022206D01*
X017571Y022218D01*
X017564Y022232D01*
X017560Y022247D01*
X017558Y022262D01*
X017559Y022262D02*
X017559Y022380D01*
X017557Y022395D01*
X017553Y022410D01*
X017546Y022424D01*
X017536Y022436D01*
X017524Y022446D01*
X017510Y022453D01*
X017495Y022457D01*
X017480Y022459D01*
X017099Y022459D01*
X017086Y022459D01*
X016876Y022366D02*
X016549Y022039D01*
X016326Y021947D02*
X014763Y021947D01*
X014730Y021945D01*
X014698Y021940D01*
X014666Y021932D01*
X014635Y021920D01*
X014606Y021905D01*
X014578Y021887D01*
X014552Y021866D01*
X014529Y021843D01*
X014508Y021817D01*
X014490Y021790D01*
X014475Y021760D01*
X014463Y021729D01*
X014455Y021697D01*
X014450Y021665D01*
X014448Y021632D01*
X014448Y021474D01*
X014446Y021451D01*
X014441Y021428D01*
X014432Y021406D01*
X014421Y021386D01*
X014406Y021367D01*
X014389Y021351D01*
X014370Y021338D01*
X014348Y021328D01*
X014326Y021321D01*
X014303Y021317D01*
X014279Y021317D01*
X014256Y021321D01*
X014234Y021328D01*
X014213Y021338D01*
X014193Y021351D01*
X014176Y021367D01*
X014161Y021386D01*
X014150Y021406D01*
X014141Y021428D01*
X014136Y021451D01*
X014134Y021474D01*
X014134Y022459D01*
X014055Y022853D02*
X014016Y022851D01*
X013978Y022845D01*
X013941Y022836D01*
X013904Y022823D01*
X013869Y022806D01*
X013836Y022787D01*
X013805Y022764D01*
X013776Y022738D01*
X013750Y022709D01*
X013727Y022678D01*
X013708Y022645D01*
X013691Y022610D01*
X013678Y022573D01*
X013669Y022536D01*
X013663Y022498D01*
X013661Y022459D01*
X014055Y022853D02*
X014094Y022851D01*
X014132Y022845D01*
X014169Y022836D01*
X014206Y022823D01*
X014241Y022806D01*
X014274Y022787D01*
X014305Y022764D01*
X014334Y022738D01*
X014360Y022709D01*
X014383Y022678D01*
X014402Y022645D01*
X014419Y022610D01*
X014432Y022573D01*
X014441Y022536D01*
X014447Y022498D01*
X014449Y022459D01*
X014055Y022852D02*
X015000Y022852D01*
X015027Y022850D01*
X015053Y022845D01*
X015078Y022836D01*
X015102Y022823D01*
X015124Y022808D01*
X015144Y022789D01*
X015161Y022769D01*
X015175Y022746D01*
X015186Y022721D01*
X015193Y022695D01*
X015197Y022668D01*
X015197Y022642D01*
X015193Y022615D01*
X015186Y022589D01*
X015175Y022564D01*
X015161Y022541D01*
X015144Y022521D01*
X015124Y022502D01*
X015102Y022487D01*
X015078Y022474D01*
X015053Y022465D01*
X015027Y022460D01*
X015000Y022458D01*
X014055Y022852D02*
X013110Y022852D01*
X013083Y022850D01*
X013057Y022845D01*
X013032Y022836D01*
X013008Y022823D01*
X012986Y022808D01*
X012966Y022789D01*
X012949Y022769D01*
X012935Y022746D01*
X012924Y022721D01*
X012917Y022695D01*
X012913Y022668D01*
X012913Y022642D01*
X012917Y022615D01*
X012924Y022589D01*
X012935Y022564D01*
X012949Y022541D01*
X012966Y022521D01*
X012986Y022502D01*
X013008Y022487D01*
X013032Y022474D01*
X013057Y022465D01*
X013083Y022460D01*
X013110Y022458D01*
X013346Y022459D02*
X013379Y022457D01*
X013411Y022452D01*
X013443Y022444D01*
X013474Y022432D01*
X013504Y022417D01*
X013531Y022399D01*
X013557Y022378D01*
X013580Y022355D01*
X013601Y022329D01*
X013619Y022302D01*
X013634Y022272D01*
X013646Y022241D01*
X013654Y022209D01*
X013659Y022177D01*
X013661Y022144D01*
X016326Y021947D02*
X016357Y021949D01*
X016387Y021953D01*
X016417Y021961D01*
X016447Y021971D01*
X016474Y021984D01*
X016501Y022000D01*
X016526Y022019D01*
X016549Y022039D01*
X016876Y022367D02*
X016899Y022387D01*
X016924Y022406D01*
X016951Y022422D01*
X016978Y022435D01*
X017008Y022445D01*
X017038Y022453D01*
X017068Y022457D01*
X017099Y022459D01*
X017999Y022183D02*
X018014Y022185D01*
X018029Y022189D01*
X018043Y022196D01*
X018055Y022206D01*
X018283Y022436D02*
X018295Y022446D01*
X018309Y022453D01*
X018324Y022457D01*
X018339Y022459D01*
X014448Y018443D02*
X014450Y018410D01*
X014455Y018378D01*
X014463Y018346D01*
X014475Y018315D01*
X014490Y018286D01*
X014508Y018258D01*
X014529Y018232D01*
X014552Y018209D01*
X014578Y018188D01*
X014606Y018170D01*
X014635Y018155D01*
X014666Y018143D01*
X014698Y018135D01*
X014730Y018130D01*
X014763Y018128D01*
X014960Y018128D01*
X014921Y018127D02*
X014944Y018125D01*
X014967Y018120D01*
X014989Y018111D01*
X015009Y018100D01*
X015028Y018085D01*
X015044Y018068D01*
X015057Y018049D01*
X015067Y018027D01*
X015074Y018005D01*
X015078Y017982D01*
X015078Y017958D01*
X015074Y017935D01*
X015067Y017913D01*
X015057Y017892D01*
X015044Y017872D01*
X015028Y017855D01*
X015009Y017840D01*
X014989Y017829D01*
X014967Y017820D01*
X014944Y017815D01*
X014921Y017813D01*
X014448Y017813D01*
X014415Y017815D01*
X014383Y017820D01*
X014351Y017828D01*
X014320Y017840D01*
X014291Y017855D01*
X014263Y017873D01*
X014237Y017894D01*
X014214Y017917D01*
X014193Y017943D01*
X014175Y017971D01*
X014160Y018000D01*
X014148Y018031D01*
X014140Y018063D01*
X014135Y018095D01*
X014133Y018128D01*
X014134Y018128D02*
X014134Y018640D01*
X014136Y018663D01*
X014141Y018686D01*
X014150Y018708D01*
X014161Y018728D01*
X014176Y018747D01*
X014193Y018763D01*
X014213Y018776D01*
X014234Y018786D01*
X014256Y018793D01*
X014279Y018797D01*
X014303Y018797D01*
X014326Y018793D01*
X014348Y018786D01*
X014370Y018776D01*
X014389Y018763D01*
X014406Y018747D01*
X014421Y018728D01*
X014432Y018708D01*
X014441Y018686D01*
X014446Y018663D01*
X014448Y018640D01*
X014448Y018443D01*
X013976Y018640D02*
X013976Y018128D01*
X013974Y018095D01*
X013969Y018063D01*
X013961Y018031D01*
X013949Y018000D01*
X013934Y017971D01*
X013916Y017943D01*
X013895Y017917D01*
X013872Y017894D01*
X013846Y017873D01*
X013819Y017855D01*
X013789Y017840D01*
X013758Y017828D01*
X013726Y017820D01*
X013694Y017815D01*
X013661Y017813D01*
X013110Y017813D01*
X013087Y017815D01*
X013064Y017820D01*
X013042Y017829D01*
X013022Y017840D01*
X013003Y017855D01*
X012987Y017872D01*
X012974Y017892D01*
X012964Y017913D01*
X012957Y017935D01*
X012953Y017958D01*
X012953Y017982D01*
X012957Y018005D01*
X012964Y018027D01*
X012974Y018049D01*
X012987Y018068D01*
X013003Y018085D01*
X013022Y018100D01*
X013042Y018111D01*
X013064Y018120D01*
X013087Y018125D01*
X013110Y018127D01*
X013110Y018128D02*
X013346Y018128D01*
X013379Y018130D01*
X013411Y018135D01*
X013443Y018143D01*
X013474Y018155D01*
X013504Y018170D01*
X013531Y018188D01*
X013557Y018209D01*
X013580Y018232D01*
X013601Y018258D01*
X013619Y018286D01*
X013634Y018315D01*
X013646Y018346D01*
X013654Y018378D01*
X013659Y018410D01*
X013661Y018443D01*
X013661Y018640D01*
X013662Y018640D02*
X013664Y018663D01*
X013669Y018686D01*
X013678Y018708D01*
X013689Y018728D01*
X013704Y018747D01*
X013721Y018763D01*
X013741Y018776D01*
X013762Y018786D01*
X013784Y018793D01*
X013807Y018797D01*
X013831Y018797D01*
X013854Y018793D01*
X013876Y018786D01*
X013898Y018776D01*
X013917Y018763D01*
X013934Y018747D01*
X013949Y018728D01*
X013960Y018708D01*
X013969Y018686D01*
X013974Y018663D01*
X013976Y018640D01*
X014527Y016947D02*
X018385Y016947D01*
X018412Y016945D01*
X018438Y016940D01*
X018463Y016931D01*
X018487Y016918D01*
X018509Y016903D01*
X018529Y016884D01*
X018546Y016864D01*
X018560Y016841D01*
X018571Y016816D01*
X018578Y016790D01*
X018582Y016763D01*
X018582Y016737D01*
X018578Y016710D01*
X018571Y016684D01*
X018560Y016659D01*
X018546Y016636D01*
X018529Y016616D01*
X018509Y016597D01*
X018487Y016582D01*
X018463Y016569D01*
X018438Y016560D01*
X018412Y016555D01*
X018385Y016553D01*
X018339Y016553D01*
X018284Y016530D02*
X018054Y016301D01*
X017999Y016278D02*
X017637Y016278D01*
X017637Y016277D02*
X017622Y016279D01*
X017607Y016283D01*
X017593Y016290D01*
X017581Y016300D01*
X017571Y016312D01*
X017564Y016326D01*
X017560Y016341D01*
X017558Y016356D01*
X017559Y016356D02*
X017559Y016474D01*
X017557Y016489D01*
X017553Y016504D01*
X017546Y016518D01*
X017536Y016530D01*
X017524Y016540D01*
X017510Y016547D01*
X017495Y016551D01*
X017480Y016553D01*
X017099Y016553D01*
X017086Y016553D01*
X016876Y016461D02*
X016549Y016134D01*
X016326Y016041D02*
X014763Y016041D01*
X014730Y016039D01*
X014698Y016034D01*
X014666Y016026D01*
X014635Y016014D01*
X014606Y015999D01*
X014578Y015981D01*
X014552Y015960D01*
X014529Y015937D01*
X014508Y015911D01*
X014490Y015884D01*
X014475Y015854D01*
X014463Y015823D01*
X014455Y015791D01*
X014450Y015759D01*
X014448Y015726D01*
X014448Y015569D01*
X014446Y015546D01*
X014441Y015523D01*
X014432Y015501D01*
X014421Y015481D01*
X014406Y015462D01*
X014389Y015446D01*
X014370Y015433D01*
X014348Y015423D01*
X014326Y015416D01*
X014303Y015412D01*
X014279Y015412D01*
X014256Y015416D01*
X014234Y015423D01*
X014213Y015433D01*
X014193Y015446D01*
X014176Y015462D01*
X014161Y015481D01*
X014150Y015501D01*
X014141Y015523D01*
X014136Y015546D01*
X014134Y015569D01*
X014134Y016553D01*
X013976Y016553D02*
X013976Y016041D01*
X013974Y016018D01*
X013969Y015995D01*
X013960Y015973D01*
X013949Y015953D01*
X013934Y015934D01*
X013917Y015918D01*
X013898Y015905D01*
X013876Y015895D01*
X013854Y015888D01*
X013831Y015884D01*
X013807Y015884D01*
X013784Y015888D01*
X013762Y015895D01*
X013741Y015905D01*
X013721Y015918D01*
X013704Y015934D01*
X013689Y015953D01*
X013678Y015973D01*
X013669Y015995D01*
X013664Y016018D01*
X013662Y016041D01*
X013661Y016041D02*
X013661Y016238D01*
X013976Y016553D02*
X013974Y016586D01*
X013969Y016618D01*
X013961Y016650D01*
X013949Y016681D01*
X013934Y016711D01*
X013916Y016738D01*
X013895Y016764D01*
X013872Y016787D01*
X013846Y016808D01*
X013819Y016826D01*
X013789Y016841D01*
X013758Y016853D01*
X013726Y016861D01*
X013694Y016866D01*
X013661Y016868D01*
X013110Y016868D01*
X013087Y016866D01*
X013064Y016861D01*
X013042Y016852D01*
X013022Y016841D01*
X013003Y016826D01*
X012987Y016809D01*
X012974Y016790D01*
X012964Y016768D01*
X012957Y016746D01*
X012953Y016723D01*
X012953Y016699D01*
X012957Y016676D01*
X012964Y016654D01*
X012974Y016633D01*
X012987Y016613D01*
X013003Y016596D01*
X013022Y016581D01*
X013042Y016570D01*
X013064Y016561D01*
X013087Y016556D01*
X013110Y016554D01*
X013110Y016553D02*
X013346Y016553D01*
X013379Y016551D01*
X013411Y016546D01*
X013443Y016538D01*
X013474Y016526D01*
X013504Y016511D01*
X013531Y016493D01*
X013557Y016472D01*
X013580Y016449D01*
X013601Y016423D01*
X013619Y016396D01*
X013634Y016366D01*
X013646Y016335D01*
X013654Y016303D01*
X013659Y016271D01*
X013661Y016238D01*
X014133Y016553D02*
X014135Y016592D01*
X014141Y016630D01*
X014150Y016667D01*
X014163Y016704D01*
X014180Y016739D01*
X014199Y016772D01*
X014222Y016803D01*
X014248Y016832D01*
X014277Y016858D01*
X014308Y016881D01*
X014341Y016900D01*
X014376Y016917D01*
X014413Y016930D01*
X014450Y016939D01*
X014488Y016945D01*
X014527Y016947D01*
X016326Y016041D02*
X016357Y016043D01*
X016387Y016047D01*
X016417Y016055D01*
X016447Y016065D01*
X016474Y016078D01*
X016501Y016094D01*
X016526Y016113D01*
X016549Y016133D01*
X016876Y016461D02*
X016899Y016481D01*
X016924Y016500D01*
X016951Y016516D01*
X016978Y016529D01*
X017008Y016539D01*
X017038Y016547D01*
X017068Y016551D01*
X017099Y016553D01*
X017999Y016277D02*
X018014Y016279D01*
X018029Y016283D01*
X018043Y016290D01*
X018055Y016300D01*
X018283Y016530D02*
X018295Y016540D01*
X018309Y016547D01*
X018324Y016551D01*
X018339Y016553D01*
X014448Y012537D02*
X014450Y012504D01*
X014455Y012472D01*
X014463Y012440D01*
X014475Y012409D01*
X014490Y012380D01*
X014508Y012352D01*
X014529Y012326D01*
X014552Y012303D01*
X014578Y012282D01*
X014606Y012264D01*
X014635Y012249D01*
X014666Y012237D01*
X014698Y012229D01*
X014730Y012224D01*
X014763Y012222D01*
X014960Y012222D01*
X014921Y012222D02*
X014944Y012220D01*
X014967Y012215D01*
X014989Y012206D01*
X015009Y012195D01*
X015028Y012180D01*
X015044Y012163D01*
X015057Y012144D01*
X015067Y012122D01*
X015074Y012100D01*
X015078Y012077D01*
X015078Y012053D01*
X015074Y012030D01*
X015067Y012008D01*
X015057Y011987D01*
X015044Y011967D01*
X015028Y011950D01*
X015009Y011935D01*
X014989Y011924D01*
X014967Y011915D01*
X014944Y011910D01*
X014921Y011908D01*
X014921Y011907D02*
X014448Y011907D01*
X014415Y011909D01*
X014383Y011914D01*
X014351Y011922D01*
X014320Y011934D01*
X014291Y011949D01*
X014263Y011967D01*
X014237Y011988D01*
X014214Y012011D01*
X014193Y012037D01*
X014175Y012065D01*
X014160Y012094D01*
X014148Y012125D01*
X014140Y012157D01*
X014135Y012189D01*
X014133Y012222D01*
X014134Y012222D02*
X014134Y012734D01*
X014136Y012757D01*
X014141Y012780D01*
X014150Y012802D01*
X014161Y012822D01*
X014176Y012841D01*
X014193Y012857D01*
X014213Y012870D01*
X014234Y012880D01*
X014256Y012887D01*
X014279Y012891D01*
X014303Y012891D01*
X014326Y012887D01*
X014348Y012880D01*
X014370Y012870D01*
X014389Y012857D01*
X014406Y012841D01*
X014421Y012822D01*
X014432Y012802D01*
X014441Y012780D01*
X014446Y012757D01*
X014448Y012734D01*
X014448Y012537D01*
X013976Y012734D02*
X013976Y012222D01*
X013974Y012189D01*
X013969Y012157D01*
X013961Y012125D01*
X013949Y012094D01*
X013934Y012065D01*
X013916Y012037D01*
X013895Y012011D01*
X013872Y011988D01*
X013846Y011967D01*
X013819Y011949D01*
X013789Y011934D01*
X013758Y011922D01*
X013726Y011914D01*
X013694Y011909D01*
X013661Y011907D01*
X013110Y011907D01*
X013110Y011908D02*
X013087Y011910D01*
X013064Y011915D01*
X013042Y011924D01*
X013022Y011935D01*
X013003Y011950D01*
X012987Y011967D01*
X012974Y011987D01*
X012964Y012008D01*
X012957Y012030D01*
X012953Y012053D01*
X012953Y012077D01*
X012957Y012100D01*
X012964Y012122D01*
X012974Y012144D01*
X012987Y012163D01*
X013003Y012180D01*
X013022Y012195D01*
X013042Y012206D01*
X013064Y012215D01*
X013087Y012220D01*
X013110Y012222D01*
X013346Y012222D01*
X013379Y012224D01*
X013411Y012229D01*
X013443Y012237D01*
X013474Y012249D01*
X013504Y012264D01*
X013531Y012282D01*
X013557Y012303D01*
X013580Y012326D01*
X013601Y012352D01*
X013619Y012380D01*
X013634Y012409D01*
X013646Y012440D01*
X013654Y012472D01*
X013659Y012504D01*
X013661Y012537D01*
X013661Y012734D01*
X013662Y012734D02*
X013664Y012757D01*
X013669Y012780D01*
X013678Y012802D01*
X013689Y012822D01*
X013704Y012841D01*
X013721Y012857D01*
X013741Y012870D01*
X013762Y012880D01*
X013784Y012887D01*
X013807Y012891D01*
X013831Y012891D01*
X013854Y012887D01*
X013876Y012880D01*
X013898Y012870D01*
X013917Y012857D01*
X013934Y012841D01*
X013949Y012822D01*
X013960Y012802D01*
X013969Y012780D01*
X013974Y012757D01*
X013976Y012734D01*
X014527Y011041D02*
X018385Y011041D01*
X018412Y011039D01*
X018438Y011034D01*
X018463Y011025D01*
X018487Y011012D01*
X018509Y010997D01*
X018529Y010978D01*
X018546Y010958D01*
X018560Y010935D01*
X018571Y010910D01*
X018578Y010884D01*
X018582Y010857D01*
X018582Y010831D01*
X018578Y010804D01*
X018571Y010778D01*
X018560Y010753D01*
X018546Y010730D01*
X018529Y010710D01*
X018509Y010691D01*
X018487Y010676D01*
X018463Y010663D01*
X018438Y010654D01*
X018412Y010649D01*
X018385Y010647D01*
X018385Y010648D02*
X018339Y010648D01*
X018284Y010625D02*
X018054Y010395D01*
X017999Y010372D02*
X017637Y010372D01*
X017622Y010374D01*
X017607Y010378D01*
X017593Y010385D01*
X017581Y010395D01*
X017571Y010407D01*
X017564Y010421D01*
X017560Y010436D01*
X017558Y010451D01*
X017559Y010451D02*
X017559Y010569D01*
X017557Y010584D01*
X017553Y010599D01*
X017546Y010613D01*
X017536Y010625D01*
X017524Y010635D01*
X017510Y010642D01*
X017495Y010646D01*
X017480Y010648D01*
X017099Y010648D01*
X017086Y010648D01*
X016876Y010555D02*
X016549Y010228D01*
X016326Y010136D02*
X014763Y010136D01*
X014730Y010134D01*
X014698Y010129D01*
X014666Y010121D01*
X014635Y010109D01*
X014606Y010094D01*
X014578Y010076D01*
X014552Y010055D01*
X014529Y010032D01*
X014508Y010006D01*
X014490Y009979D01*
X014475Y009949D01*
X014463Y009918D01*
X014455Y009886D01*
X014450Y009854D01*
X014448Y009821D01*
X014448Y009663D01*
X014446Y009640D01*
X014441Y009617D01*
X014432Y009595D01*
X014421Y009575D01*
X014406Y009556D01*
X014389Y009540D01*
X014370Y009527D01*
X014348Y009517D01*
X014326Y009510D01*
X014303Y009506D01*
X014279Y009506D01*
X014256Y009510D01*
X014234Y009517D01*
X014213Y009527D01*
X014193Y009540D01*
X014176Y009556D01*
X014161Y009575D01*
X014150Y009595D01*
X014141Y009617D01*
X014136Y009640D01*
X014134Y009663D01*
X014134Y010648D01*
X013976Y010648D02*
X013976Y010136D01*
X013974Y010113D01*
X013969Y010090D01*
X013960Y010068D01*
X013949Y010048D01*
X013934Y010029D01*
X013917Y010013D01*
X013898Y010000D01*
X013876Y009990D01*
X013854Y009983D01*
X013831Y009979D01*
X013807Y009979D01*
X013784Y009983D01*
X013762Y009990D01*
X013741Y010000D01*
X013721Y010013D01*
X013704Y010029D01*
X013689Y010048D01*
X013678Y010068D01*
X013669Y010090D01*
X013664Y010113D01*
X013662Y010136D01*
X013661Y010136D02*
X013661Y010333D01*
X013976Y010648D02*
X013974Y010681D01*
X013969Y010713D01*
X013961Y010745D01*
X013949Y010776D01*
X013934Y010806D01*
X013916Y010833D01*
X013895Y010859D01*
X013872Y010882D01*
X013846Y010903D01*
X013819Y010921D01*
X013789Y010936D01*
X013758Y010948D01*
X013726Y010956D01*
X013694Y010961D01*
X013661Y010963D01*
X013110Y010963D01*
X013110Y010962D02*
X013087Y010960D01*
X013064Y010955D01*
X013042Y010946D01*
X013022Y010935D01*
X013003Y010920D01*
X012987Y010903D01*
X012974Y010884D01*
X012964Y010862D01*
X012957Y010840D01*
X012953Y010817D01*
X012953Y010793D01*
X012957Y010770D01*
X012964Y010748D01*
X012974Y010727D01*
X012987Y010707D01*
X013003Y010690D01*
X013022Y010675D01*
X013042Y010664D01*
X013064Y010655D01*
X013087Y010650D01*
X013110Y010648D01*
X013346Y010648D01*
X013379Y010646D01*
X013411Y010641D01*
X013443Y010633D01*
X013474Y010621D01*
X013504Y010606D01*
X013531Y010588D01*
X013557Y010567D01*
X013580Y010544D01*
X013601Y010518D01*
X013619Y010491D01*
X013634Y010461D01*
X013646Y010430D01*
X013654Y010398D01*
X013659Y010366D01*
X013661Y010333D01*
X014133Y010648D02*
X014135Y010687D01*
X014141Y010725D01*
X014150Y010762D01*
X014163Y010799D01*
X014180Y010834D01*
X014199Y010867D01*
X014222Y010898D01*
X014248Y010927D01*
X014277Y010953D01*
X014308Y010976D01*
X014341Y010995D01*
X014376Y011012D01*
X014413Y011025D01*
X014450Y011034D01*
X014488Y011040D01*
X014527Y011042D01*
X016326Y010136D02*
X016357Y010138D01*
X016387Y010142D01*
X016417Y010150D01*
X016447Y010160D01*
X016474Y010173D01*
X016501Y010189D01*
X016526Y010208D01*
X016549Y010228D01*
X016876Y010556D02*
X016899Y010576D01*
X016924Y010595D01*
X016951Y010611D01*
X016978Y010624D01*
X017008Y010634D01*
X017038Y010642D01*
X017068Y010646D01*
X017099Y010648D01*
X017999Y010372D02*
X018014Y010374D01*
X018029Y010378D01*
X018043Y010385D01*
X018055Y010395D01*
X018283Y010625D02*
X018295Y010635D01*
X018309Y010642D01*
X018324Y010646D01*
X018339Y010648D01*
X014448Y006632D02*
X014450Y006599D01*
X014455Y006567D01*
X014463Y006535D01*
X014475Y006504D01*
X014490Y006475D01*
X014508Y006447D01*
X014529Y006421D01*
X014552Y006398D01*
X014578Y006377D01*
X014606Y006359D01*
X014635Y006344D01*
X014666Y006332D01*
X014698Y006324D01*
X014730Y006319D01*
X014763Y006317D01*
X014960Y006317D01*
X014921Y006316D02*
X014944Y006314D01*
X014967Y006309D01*
X014989Y006300D01*
X015009Y006289D01*
X015028Y006274D01*
X015044Y006257D01*
X015057Y006237D01*
X015067Y006216D01*
X015074Y006194D01*
X015078Y006171D01*
X015078Y006147D01*
X015074Y006124D01*
X015067Y006102D01*
X015057Y006081D01*
X015044Y006061D01*
X015028Y006044D01*
X015009Y006029D01*
X014989Y006018D01*
X014967Y006009D01*
X014944Y006004D01*
X014921Y006002D01*
X014448Y006002D01*
X014055Y005923D02*
X014960Y005923D01*
X014987Y005925D01*
X015013Y005930D01*
X015038Y005939D01*
X015062Y005952D01*
X015084Y005967D01*
X015104Y005986D01*
X015121Y006006D01*
X015135Y006029D01*
X015146Y006054D01*
X015153Y006080D01*
X015157Y006107D01*
X015157Y006133D01*
X015153Y006160D01*
X015146Y006186D01*
X015135Y006211D01*
X015121Y006234D01*
X015104Y006254D01*
X015084Y006273D01*
X015062Y006288D01*
X015038Y006301D01*
X015013Y006310D01*
X014987Y006315D01*
X014960Y006317D01*
X014055Y005923D02*
X014016Y005925D01*
X013978Y005931D01*
X013941Y005940D01*
X013904Y005953D01*
X013869Y005970D01*
X013836Y005989D01*
X013805Y006012D01*
X013776Y006038D01*
X013750Y006067D01*
X013727Y006098D01*
X013708Y006131D01*
X013691Y006166D01*
X013678Y006203D01*
X013669Y006240D01*
X013663Y006278D01*
X013661Y006317D01*
X013661Y006002D02*
X013110Y006002D01*
X013110Y005923D02*
X014055Y005923D01*
X013346Y006317D02*
X013110Y006317D01*
X013110Y006316D02*
X013087Y006314D01*
X013064Y006309D01*
X013042Y006300D01*
X013022Y006289D01*
X013003Y006274D01*
X012987Y006257D01*
X012974Y006238D01*
X012964Y006216D01*
X012957Y006194D01*
X012953Y006171D01*
X012953Y006147D01*
X012957Y006124D01*
X012964Y006102D01*
X012974Y006081D01*
X012987Y006061D01*
X013003Y006044D01*
X013022Y006029D01*
X013042Y006018D01*
X013064Y006009D01*
X013087Y006004D01*
X013110Y006002D01*
X013110Y005923D02*
X013083Y005925D01*
X013057Y005930D01*
X013032Y005939D01*
X013008Y005952D01*
X012986Y005967D01*
X012966Y005986D01*
X012949Y006006D01*
X012935Y006029D01*
X012924Y006054D01*
X012917Y006080D01*
X012913Y006107D01*
X012913Y006133D01*
X012917Y006160D01*
X012924Y006186D01*
X012935Y006211D01*
X012949Y006234D01*
X012966Y006254D01*
X012986Y006273D01*
X013008Y006288D01*
X013032Y006301D01*
X013057Y006310D01*
X013083Y006315D01*
X013110Y006317D01*
X013346Y006317D02*
X013379Y006319D01*
X013411Y006324D01*
X013443Y006332D01*
X013474Y006344D01*
X013504Y006359D01*
X013531Y006377D01*
X013557Y006398D01*
X013580Y006421D01*
X013601Y006447D01*
X013619Y006474D01*
X013634Y006504D01*
X013646Y006535D01*
X013654Y006567D01*
X013659Y006599D01*
X013661Y006632D01*
X023346Y006317D02*
X023582Y006317D01*
X023346Y006316D02*
X023323Y006314D01*
X023300Y006309D01*
X023278Y006300D01*
X023258Y006289D01*
X023239Y006274D01*
X023223Y006257D01*
X023210Y006238D01*
X023200Y006216D01*
X023193Y006194D01*
X023189Y006171D01*
X023189Y006147D01*
X023193Y006124D01*
X023200Y006102D01*
X023210Y006081D01*
X023223Y006061D01*
X023239Y006044D01*
X023258Y006029D01*
X023278Y006018D01*
X023300Y006009D01*
X023323Y006004D01*
X023346Y006002D01*
X023897Y006002D01*
X023930Y006004D01*
X023962Y006009D01*
X023994Y006017D01*
X024025Y006029D01*
X024055Y006044D01*
X024082Y006062D01*
X024108Y006083D01*
X024131Y006106D01*
X024152Y006132D01*
X024170Y006159D01*
X024185Y006189D01*
X024197Y006220D01*
X024205Y006252D01*
X024210Y006284D01*
X024212Y006317D01*
X024212Y006829D01*
X024210Y006852D01*
X024205Y006875D01*
X024196Y006897D01*
X024185Y006917D01*
X024170Y006936D01*
X024153Y006952D01*
X024134Y006965D01*
X024112Y006975D01*
X024090Y006982D01*
X024067Y006986D01*
X024043Y006986D01*
X024020Y006982D01*
X023998Y006975D01*
X023977Y006965D01*
X023957Y006952D01*
X023940Y006936D01*
X023925Y006917D01*
X023914Y006897D01*
X023905Y006875D01*
X023900Y006852D01*
X023898Y006829D01*
X023897Y006829D02*
X023897Y006632D01*
X023895Y006599D01*
X023890Y006567D01*
X023882Y006535D01*
X023870Y006504D01*
X023855Y006474D01*
X023837Y006447D01*
X023816Y006421D01*
X023793Y006398D01*
X023767Y006377D01*
X023740Y006359D01*
X023710Y006344D01*
X023679Y006332D01*
X023647Y006324D01*
X023615Y006319D01*
X023582Y006317D01*
X023897Y010136D02*
X023897Y010333D01*
X023898Y010136D02*
X023900Y010113D01*
X023905Y010090D01*
X023914Y010068D01*
X023925Y010048D01*
X023940Y010029D01*
X023957Y010013D01*
X023977Y010000D01*
X023998Y009990D01*
X024020Y009983D01*
X024043Y009979D01*
X024067Y009979D01*
X024090Y009983D01*
X024112Y009990D01*
X024134Y010000D01*
X024153Y010013D01*
X024170Y010029D01*
X024185Y010048D01*
X024196Y010068D01*
X024205Y010090D01*
X024210Y010113D01*
X024212Y010136D01*
X024212Y010648D01*
X024210Y010681D01*
X024205Y010713D01*
X024197Y010745D01*
X024185Y010776D01*
X024170Y010806D01*
X024152Y010833D01*
X024131Y010859D01*
X024108Y010882D01*
X024082Y010903D01*
X024055Y010921D01*
X024025Y010936D01*
X023994Y010948D01*
X023962Y010956D01*
X023930Y010961D01*
X023897Y010963D01*
X023346Y010963D01*
X023346Y010962D02*
X023323Y010960D01*
X023300Y010955D01*
X023278Y010946D01*
X023258Y010935D01*
X023239Y010920D01*
X023223Y010903D01*
X023210Y010884D01*
X023200Y010862D01*
X023193Y010840D01*
X023189Y010817D01*
X023189Y010793D01*
X023193Y010770D01*
X023200Y010748D01*
X023210Y010727D01*
X023223Y010707D01*
X023239Y010690D01*
X023258Y010675D01*
X023278Y010664D01*
X023300Y010655D01*
X023323Y010650D01*
X023346Y010648D01*
X023582Y010648D01*
X023615Y010646D01*
X023647Y010641D01*
X023679Y010633D01*
X023710Y010621D01*
X023740Y010606D01*
X023767Y010588D01*
X023793Y010567D01*
X023816Y010544D01*
X023837Y010518D01*
X023855Y010491D01*
X023870Y010461D01*
X023882Y010430D01*
X023890Y010398D01*
X023895Y010366D01*
X023897Y010333D01*
X023897Y011907D02*
X023346Y011907D01*
X023346Y011908D02*
X023323Y011910D01*
X023300Y011915D01*
X023278Y011924D01*
X023258Y011935D01*
X023239Y011950D01*
X023223Y011967D01*
X023210Y011987D01*
X023200Y012008D01*
X023193Y012030D01*
X023189Y012053D01*
X023189Y012077D01*
X023193Y012100D01*
X023200Y012122D01*
X023210Y012144D01*
X023223Y012163D01*
X023239Y012180D01*
X023258Y012195D01*
X023278Y012206D01*
X023300Y012215D01*
X023323Y012220D01*
X023346Y012222D01*
X023582Y012222D01*
X023897Y011907D02*
X023930Y011909D01*
X023962Y011914D01*
X023994Y011922D01*
X024025Y011934D01*
X024055Y011949D01*
X024082Y011967D01*
X024108Y011988D01*
X024131Y012011D01*
X024152Y012037D01*
X024170Y012065D01*
X024185Y012094D01*
X024197Y012125D01*
X024205Y012157D01*
X024210Y012189D01*
X024212Y012222D01*
X024212Y012734D01*
X024210Y012757D01*
X024205Y012780D01*
X024196Y012802D01*
X024185Y012822D01*
X024170Y012841D01*
X024153Y012857D01*
X024134Y012870D01*
X024112Y012880D01*
X024090Y012887D01*
X024067Y012891D01*
X024043Y012891D01*
X024020Y012887D01*
X023998Y012880D01*
X023977Y012870D01*
X023957Y012857D01*
X023940Y012841D01*
X023925Y012822D01*
X023914Y012802D01*
X023905Y012780D01*
X023900Y012757D01*
X023898Y012734D01*
X023897Y012734D02*
X023897Y012537D01*
X023895Y012504D01*
X023890Y012472D01*
X023882Y012440D01*
X023870Y012409D01*
X023855Y012380D01*
X023837Y012352D01*
X023816Y012326D01*
X023793Y012303D01*
X023767Y012282D01*
X023740Y012264D01*
X023710Y012249D01*
X023679Y012237D01*
X023647Y012229D01*
X023615Y012224D01*
X023582Y012222D01*
X023897Y016041D02*
X023897Y016238D01*
X023898Y016041D02*
X023900Y016018D01*
X023905Y015995D01*
X023914Y015973D01*
X023925Y015953D01*
X023940Y015934D01*
X023957Y015918D01*
X023977Y015905D01*
X023998Y015895D01*
X024020Y015888D01*
X024043Y015884D01*
X024067Y015884D01*
X024090Y015888D01*
X024112Y015895D01*
X024134Y015905D01*
X024153Y015918D01*
X024170Y015934D01*
X024185Y015953D01*
X024196Y015973D01*
X024205Y015995D01*
X024210Y016018D01*
X024212Y016041D01*
X024212Y016553D01*
X024210Y016586D01*
X024205Y016618D01*
X024197Y016650D01*
X024185Y016681D01*
X024170Y016711D01*
X024152Y016738D01*
X024131Y016764D01*
X024108Y016787D01*
X024082Y016808D01*
X024055Y016826D01*
X024025Y016841D01*
X023994Y016853D01*
X023962Y016861D01*
X023930Y016866D01*
X023897Y016868D01*
X023346Y016868D01*
X023323Y016866D01*
X023300Y016861D01*
X023278Y016852D01*
X023258Y016841D01*
X023239Y016826D01*
X023223Y016809D01*
X023210Y016790D01*
X023200Y016768D01*
X023193Y016746D01*
X023189Y016723D01*
X023189Y016699D01*
X023193Y016676D01*
X023200Y016654D01*
X023210Y016633D01*
X023223Y016613D01*
X023239Y016596D01*
X023258Y016581D01*
X023278Y016570D01*
X023300Y016561D01*
X023323Y016556D01*
X023346Y016554D01*
X023346Y016553D02*
X023582Y016553D01*
X023615Y016551D01*
X023647Y016546D01*
X023679Y016538D01*
X023710Y016526D01*
X023740Y016511D01*
X023767Y016493D01*
X023793Y016472D01*
X023816Y016449D01*
X023837Y016423D01*
X023855Y016396D01*
X023870Y016366D01*
X023882Y016335D01*
X023890Y016303D01*
X023895Y016271D01*
X023897Y016238D01*
X023897Y017813D02*
X023346Y017813D01*
X023323Y017815D01*
X023300Y017820D01*
X023278Y017829D01*
X023258Y017840D01*
X023239Y017855D01*
X023223Y017872D01*
X023210Y017892D01*
X023200Y017913D01*
X023193Y017935D01*
X023189Y017958D01*
X023189Y017982D01*
X023193Y018005D01*
X023200Y018027D01*
X023210Y018049D01*
X023223Y018068D01*
X023239Y018085D01*
X023258Y018100D01*
X023278Y018111D01*
X023300Y018120D01*
X023323Y018125D01*
X023346Y018127D01*
X023346Y018128D02*
X023582Y018128D01*
X023897Y017813D02*
X023930Y017815D01*
X023962Y017820D01*
X023994Y017828D01*
X024025Y017840D01*
X024055Y017855D01*
X024082Y017873D01*
X024108Y017894D01*
X024131Y017917D01*
X024152Y017943D01*
X024170Y017971D01*
X024185Y018000D01*
X024197Y018031D01*
X024205Y018063D01*
X024210Y018095D01*
X024212Y018128D01*
X024212Y018640D01*
X024210Y018663D01*
X024205Y018686D01*
X024196Y018708D01*
X024185Y018728D01*
X024170Y018747D01*
X024153Y018763D01*
X024134Y018776D01*
X024112Y018786D01*
X024090Y018793D01*
X024067Y018797D01*
X024043Y018797D01*
X024020Y018793D01*
X023998Y018786D01*
X023977Y018776D01*
X023957Y018763D01*
X023940Y018747D01*
X023925Y018728D01*
X023914Y018708D01*
X023905Y018686D01*
X023900Y018663D01*
X023898Y018640D01*
X023897Y018640D02*
X023897Y018443D01*
X023895Y018410D01*
X023890Y018378D01*
X023882Y018346D01*
X023870Y018315D01*
X023855Y018286D01*
X023837Y018258D01*
X023816Y018232D01*
X023793Y018209D01*
X023767Y018188D01*
X023740Y018170D01*
X023710Y018155D01*
X023679Y018143D01*
X023647Y018135D01*
X023615Y018130D01*
X023582Y018128D01*
X023897Y021947D02*
X023897Y022144D01*
X023898Y021947D02*
X023900Y021924D01*
X023905Y021901D01*
X023914Y021879D01*
X023925Y021859D01*
X023940Y021840D01*
X023957Y021824D01*
X023977Y021811D01*
X023998Y021801D01*
X024020Y021794D01*
X024043Y021790D01*
X024067Y021790D01*
X024090Y021794D01*
X024112Y021801D01*
X024134Y021811D01*
X024153Y021824D01*
X024170Y021840D01*
X024185Y021859D01*
X024196Y021879D01*
X024205Y021901D01*
X024210Y021924D01*
X024212Y021947D01*
X024212Y022459D01*
X024210Y022492D01*
X024205Y022524D01*
X024197Y022556D01*
X024185Y022587D01*
X024170Y022617D01*
X024152Y022644D01*
X024131Y022670D01*
X024108Y022693D01*
X024082Y022714D01*
X024055Y022732D01*
X024025Y022747D01*
X023994Y022759D01*
X023962Y022767D01*
X023930Y022772D01*
X023897Y022774D01*
X023346Y022774D01*
X023346Y022773D02*
X023323Y022771D01*
X023300Y022766D01*
X023278Y022757D01*
X023258Y022746D01*
X023239Y022731D01*
X023223Y022714D01*
X023210Y022695D01*
X023200Y022673D01*
X023193Y022651D01*
X023189Y022628D01*
X023189Y022604D01*
X023193Y022581D01*
X023200Y022559D01*
X023210Y022538D01*
X023223Y022518D01*
X023239Y022501D01*
X023258Y022486D01*
X023278Y022475D01*
X023300Y022466D01*
X023323Y022461D01*
X023346Y022459D01*
X023582Y022459D01*
X023615Y022457D01*
X023647Y022452D01*
X023679Y022444D01*
X023710Y022432D01*
X023740Y022417D01*
X023767Y022399D01*
X023793Y022378D01*
X023816Y022355D01*
X023837Y022329D01*
X023855Y022302D01*
X023870Y022272D01*
X023882Y022241D01*
X023890Y022209D01*
X023895Y022177D01*
X023897Y022144D01*
M02*
