%
M48
M72
T01C0.0118
%
T01
X6102Y7222
X6102Y7655
X6063Y8089
X6102Y8522
X6102Y9388
X6102Y9821
X6102Y10254
X8228Y9112
X10078Y9191
X10826Y9506
X11220Y9270
X11456Y9073
X11299Y8679
X11299Y8285
X11260Y7931
X11929Y7970
X11929Y8325
X11929Y8679
X11929Y9033
X10078Y7262
X10393Y8049
X16338Y9821
X16338Y10254
X16338Y9388
X16338Y8522
X16299Y8089
X16338Y7655
X16338Y7222
X18464Y9112
X20315Y9191
X21063Y9506
X21456Y9270
X21693Y9073
X21535Y8679
X21535Y8285
X21496Y7931
X20315Y7262
X20630Y8049
X22165Y7970
X22165Y8325
X22165Y8679
X22165Y9033
X20315Y15096
X21063Y15411
X21456Y15175
X21693Y14978
X21535Y14585
X21535Y14191
X21496Y13837
X20315Y13167
X20630Y13955
X22165Y13876
X22165Y14230
X22165Y14585
X22165Y14939
X20315Y21002
X21063Y21317
X21456Y21081
X21693Y20884
X21535Y20490
X21535Y20096
X21496Y19742
X20315Y19073
X20630Y19860
X22165Y19781
X22165Y20136
X22165Y20490
X22165Y20844
X18464Y20923
X16338Y21199
X16338Y21632
X16338Y22065
X16338Y20333
X16299Y19900
X16338Y19467
X16338Y19033
X10078Y21002
X10826Y21317
X11220Y21081
X11456Y20884
X11299Y20490
X11299Y20096
X11260Y19742
X11929Y19781
X11929Y20136
X11929Y20490
X11929Y20844
X10078Y19073
X10393Y19860
X8228Y20923
X6102Y21199
X6102Y21632
X6102Y22065
X6102Y20333
X6063Y19900
X6102Y19467
X6102Y19033
X6102Y16159
X6102Y15726
X6102Y15293
X6102Y14427
X6063Y13994
X6102Y13561
X6102Y13128
X8228Y15018
X10078Y15096
X10826Y15411
X11220Y15175
X11456Y14978
X11299Y14585
X11299Y14191
X11260Y13837
X11929Y13876
X11929Y14230
X11929Y14585
X11929Y14939
X10078Y13167
X10393Y13955
X16338Y15726
X16338Y16159
X16338Y15293
X16338Y14427
X16299Y13994
X16338Y13561
X16338Y13128
X18464Y15018
M30
