G75*
%MOIN*%
%OFA0B0*%
%FSLAX24Y24*%
%IPPOS*%
%LPD*%
%AMOC8*
5,1,8,0,0,1.08239X$1,22.5*
%
%ADD10C,0.1655*%
%ADD11R,0.1142X0.0315*%
%ADD12R,0.1260X0.0315*%
%ADD13C,0.0395*%
%ADD14C,0.0470*%
D10*
X006181Y006956D03*
X006181Y032941D03*
X033740Y032941D03*
X033740Y006956D03*
D11*
X021752Y009319D03*
X021752Y009752D03*
X021752Y010618D03*
X021752Y011484D03*
X021752Y011917D03*
X021752Y012350D03*
X021752Y015224D03*
X021752Y015657D03*
X021752Y016523D03*
X021752Y017389D03*
X021752Y017822D03*
X021752Y018256D03*
X021752Y021130D03*
X021752Y021563D03*
X021752Y022429D03*
X021752Y023295D03*
X021752Y023728D03*
X021752Y024161D03*
X021752Y027035D03*
X021752Y027468D03*
X021752Y028334D03*
X021752Y029200D03*
X021752Y029633D03*
X021752Y030067D03*
X009153Y030067D03*
X009153Y029633D03*
X009153Y029200D03*
X009153Y028334D03*
X009153Y027468D03*
X009153Y027035D03*
X009153Y024161D03*
X009153Y023728D03*
X009153Y023295D03*
X009153Y022429D03*
X009153Y021563D03*
X009153Y021130D03*
X009153Y018256D03*
X009153Y017822D03*
X009153Y017389D03*
X009153Y016523D03*
X009153Y015657D03*
X009153Y015224D03*
X009153Y012350D03*
X009153Y011917D03*
X009153Y011484D03*
X009153Y010618D03*
X009153Y009752D03*
X009153Y009319D03*
D12*
X009094Y010185D03*
X009094Y011051D03*
X009094Y016090D03*
X009094Y016956D03*
X009094Y021996D03*
X009094Y022862D03*
X009094Y027901D03*
X009094Y028767D03*
X021693Y028767D03*
X021693Y027901D03*
X021693Y022862D03*
X021693Y021996D03*
X021693Y016956D03*
X021693Y016090D03*
X021693Y011051D03*
X021693Y010185D03*
D13*
X017047Y012901D03*
X017047Y018807D03*
X017047Y024712D03*
X017047Y030618D03*
X029645Y030618D03*
X029645Y024712D03*
X029645Y018807D03*
X029645Y012901D03*
D14*
X027244Y011657D03*
X027644Y009657D03*
X026844Y009657D03*
X026844Y015563D03*
X027644Y015563D03*
X027244Y017563D03*
X027644Y021468D03*
X026844Y021468D03*
X027244Y023468D03*
X027644Y027374D03*
X026844Y027374D03*
X027244Y029374D03*
X015045Y027374D03*
X014245Y027374D03*
X014645Y029374D03*
X014645Y023468D03*
X014245Y021468D03*
X015045Y021468D03*
X014645Y017563D03*
X014245Y015563D03*
X015045Y015563D03*
X014645Y011657D03*
X014245Y009657D03*
X015045Y009657D03*
M02*
